<svg xmlns="http://www.w3.org/2000/svg" viewBox="0 0 1024 1024"><g fill="none" stroke-width="2"><path stroke="#828181" d="M473.27 227.01q-17.48 2.89-33.52 9.25-5.06 2.01-9.98 3.96a1.04 1.03 66.8 0 1-1.32-.53c-9.34-20.49-29.63-35.8-52.15-34.89-33.61 1.37-56.83 29.91-55.64 62.7q.98 26.91 20.59 44.44a.52.51 39.8 0 1 .07.69q-16.69 22.62-30.42 46.18a1.34 1.33-79.7 0 1-.9.63c-56.68 9.76-87.63 63.01-88.71 116.86-.53 26.16 6.64 51.18 22.1 72.47 2.13 2.94 4.61 5.41 6.97 8.23a1.19 1.19 0 0 1 .24 1.04q-8.14 33.87-7.11 71.95 1.52 55.84 30.66 100.75c20.19 31.12 49.99 53.66 83.31 67.85a4.21 4.16-5.2 0 1 1.79 1.47c6.68 9.77 16.8 19.4 29.71 18.22q10.29-.94 16.12-10.96 1.18-2.04 1.49-2.54a.79.77-69.2 0 1 .8-.37q36.6 6.25 74.63 5 9.07-.3 20.08-.8c12.16-.56 24.33.28 36.67.7q38.46 1.33 76.12-4.93a.83.81 73.2 0 1 .89.49c4.03 9.41 12.74 14.84 23.09 13.19 10.46-1.66 18.59-9.41 24.18-18.26a3.64 3.63-84.9 0 1 1.69-1.42c26.64-10.97 50.29-27.39 69.41-49.1 24.23-27.51 39.08-63.87 43.21-100.28q5.07-44.78-5.8-90.76a1.16 1.13 60.4 0 1 .27-1.04c18.01-19.41 27.94-43.96 29.53-70.32 3.23-53.73-24.3-112.65-80.88-126.05q-4.63-1.09-7.4-1.61a1.21 1.2 79.8 0 1-.82-.58q-14.17-24.01-30.84-46.28a.75.74-39.2 0 1 .11-1.01c15.08-13.06 22.7-31.54 21-51.36-2.47-28.82-23.53-53.55-53.46-55.47-23.9-1.53-44.48 13.71-55.01 35a.98.97 24.2 0 1-1.25.47q-21.88-9.21-43.37-13.14a2.23 2.21 66.5 0 1-.85-.34q-1.21-.83-2.06-2.29-4.48-7.65-9.32-15.15-3.15-4.86-5.26-6.53c-6.11-4.81-12.2-1.65-15.54 4.38a.56.56 0 0 1-.83.17q-1.95-1.53-3.55-2.58c-6.28-4.14-22.27-11.22-25.01.82-.21.93-.06 2.44-.21 3.5a.7.69-83.5 0 1-.75.6c-6.85-.64-17.09-1.21-16.99 8.79q.04 3.94 4.42 8.16a.37.37 0 0 1-.2.63" vector-effect="non-scaling-stroke"/><path stroke="#7a6847" d="M475.23 239.35c-27.82 5.07-55.79 17.58-78.66 33.98q-13.37 9.59-22.44 14.42" vector-effect="non-scaling-stroke"/><path stroke="#7c5a50" d="M374.13 287.75q.64-5.29 5.26-10.38 9.12-10.04 13.68-13.57a.71.71 0 0 0 .24-.79q-3.72-11.23-12.31-19.47-10.54-10.1-23.01-2.82" vector-effect="non-scaling-stroke"/><path stroke="#794d1b" d="M357.99 240.72q-1.55-1.3-.59-2.8 4.36-6.78 12.97-7.43" vector-effect="non-scaling-stroke"/><path stroke="#7c5f25" d="M370.37 230.49c15.02.44 25.26 12.86 31.86 25.27a.92.92 0 0 0 1.32.33l10.02-6.56" vector-effect="non-scaling-stroke"/><path stroke="#7a6847" d="m413.57 249.53 4.2-2.23a.67.66-26.8 0 0 .29-.87q-6.52-13.62-18.38-22.08c-18.35-13.11-41.45-7.23-55.31 9.49" vector-effect="non-scaling-stroke"/><path stroke="#7c5f25" d="M344.37 233.84c-16.85 21.74-14.49 51.13 6.18 69.43a.94.93 42.7 0 0 1.29-.05q5.74-5.85 11.94-9.41" vector-effect="non-scaling-stroke"/><path stroke="#7c5a50" d="M363.78 293.81q1.02-.17 2.41.37" vector-effect="non-scaling-stroke"/><path stroke="#7a6847" d="M366.19 294.18q-.51 6.3-4.46 11.78-4.31 5.98-8.31 12.04a.14.14 0 0 0 .21.18q14.55-13.2 31.85-21.79" vector-effect="non-scaling-stroke"/><path stroke="#7c5f25" d="M385.48 296.39q5.17-2.23 10.13-4.18 13.29-5.22 27.41-7.58" vector-effect="non-scaling-stroke"/><path stroke="#7a6847" d="m423.02 284.63 12.72-1.33" vector-effect="non-scaling-stroke"/><path stroke="#7e6537" d="M435.74 283.3q45.46-2.65 81.95 20.74 35.42 22.71 52.58 61.31a.66.66 0 0 0 .95.29q8.21-5.05 21-12.67 1.8-1.08 4.36-2.14 2.06-.86 4.43-.26" vector-effect="non-scaling-stroke"/><path stroke="#7c5f25" d="M601.01 350.57q3.66 2.72 4.59 5.11c1.77 4.51-2.45 6.94-5.52 8.66q-15.69 8.81-21.51 12.01a.13.13 0 0 0 .05.25q14 1.28 27.19 7.08 4.11 1.8 5.04 3.04a3.49 3.18 19.1 0 1 .48.88c1.26 3.34-2.17 10.03-6.17 9.95q-2.33-.05-2.84-.29-10.04-4.56-22.15-6.73" vector-effect="non-scaling-stroke"/><path stroke="#794d1b" d="M580.17 390.53q-.88-.51-1.46-.1a.59.59 0 0 0-.22.61q4.94 20.87 2.69 42.13a.27.27 0 0 0 .34.29l7.38-2.02" vector-effect="non-scaling-stroke"/><path stroke="#7c5f25" d="M588.9 431.44q13.05-2.97 27.4-1.86 1.3.1 2.37.56a.44.44 0 0 1-.22.84q-.29-.03-.77.22" vector-effect="non-scaling-stroke"/><path stroke="#7e6537" d="M617.68 431.2q-15.45 2.35-29.12 6.58" vector-effect="non-scaling-stroke"/><path stroke="#794d1b" d="m588.56 437.78-7.8 2.51a.66.66 0 0 0-.43.48l-2.89 13.88a.36.35-81.2 0 0 .31.43l9.63 1.19" vector-effect="non-scaling-stroke"/><path stroke="#7e6537" d="M587.38 456.27c13.66 2.79 24.14 6.73 34.92 13.66a.35.35 0 0 1-.29.63q-17.7-5.15-35.6-7.98" vector-effect="non-scaling-stroke"/><path stroke="#794d1b" d="M586.41 462.58q-6.76-1.88-11.2-1.12" vector-effect="non-scaling-stroke"/><path stroke="#7a6847" d="M575.21 461.46q-8.24 25.25-24.37 44.86-25.31 30.78-63.13 43.28a.63.63 0 0 0-.42.69l1.96 12.16" vector-effect="non-scaling-stroke"/><path stroke="#817a68" d="m489.25 562.45.52 3.05a.81.79 2.4 0 0 .59.63q5.21 1.29 5.91 6.85.27 2.13 1.7 14.07a.88.88 0 0 0 1.21.71c18.57-7.58 38.11-12.61 57.61-17.48" vector-effect="non-scaling-stroke"/><path stroke="#7a6847" d="m556.79 570.28 1.17-.09" vector-effect="non-scaling-stroke"/><path stroke="#7c5f25" d="m557.96 570.19 2.38.1a.6.6 0 0 1 .33 1.08l-4.18 3.11" vector-effect="non-scaling-stroke"/><path stroke="#7e6537" d="M556.49 574.48q-10.08 5.78-16.3 8.45-12.35 5.31-29.51 10.43" vector-effect="non-scaling-stroke"/><path stroke="#817a68" d="M510.68 593.36q-9.61 2.9-18.54 6.49-1.11.44-2.87 1.78a.69.68-30.9 0 0-.21.82l1.93 4.16a1.41 1.38 87.6 0 0 .76.71q2.02.78 3.92 1.68a.86.81 28.3 0 1 .39 1.18q-.31.52-1.18.69-2.14.44-3.55.88a1.37 1.37 0 0 0-.94 1.04l-1.58 7.56a.76.75 15.5 0 0 .49.86l4.73 1.65a.99.98-47.3 0 1 .07 1.83q-2.49 1.09-5.95 1.47c-1.85.21-2.86 1.26-3.6 2.63a.71.69 34.5 0 0 .17.86q2.84 2.42 7.27 3.88 11.36 3.76 22.49 5.81" vector-effect="non-scaling-stroke"/><path stroke="#7e6537" d="M514.48 639.34q13.82 3.87 24.05 5.85 28 5.43 56.25-1.92" vector-effect="non-scaling-stroke"/><path stroke="#7c5f25" d="m594.78 643.27 4.1-.68a.86.86 0 0 1 .72 1.48l-4.32 3.9" vector-effect="non-scaling-stroke"/><path stroke="#7a6847" d="M595.28 647.97c-13.85 8.48-30.75 10.62-46.79 9.03q-20.83-2.08-40.81-9.26a.11.11 0 0 0-.15.12l4.4 33.49a2.74 2.72 52.4 0 1-.18 1.41c-2.37 5.75-10.36 9.32-16.07 10.7-7.5 1.8-17.26 2.13-24.45-1.38-3.55-1.73-4.4-3.5-4.96-7.56q-2.02-14.59-5.58-38.49a.64.64 0 0 0-.92-.48q-22.69 11.57-47.87 14.88-7.01.92-17.19-.69" vector-effect="non-scaling-stroke"/><path stroke="#7e6537" d="M394.71 659.74q-9.15-1.45-16.72-6.27" vector-effect="non-scaling-stroke"/><path stroke="#7c5f25" d="m377.99 653.47-1.92-1.9a.63.63 0 0 1 .53-1.08l6.48.84" vector-effect="non-scaling-stroke"/><path stroke="#7e6537" d="M383.08 651.33q4.31.72 10.17.81 20.18.3 38.61-5.97 9.94-3.38 19.62-7.59" vector-effect="non-scaling-stroke"/><path stroke="#817a68" d="M451.48 638.58c10.24-4.2 21.74-9.33 28.54-18.45a.39.39 0 0 0-.43-.61q-6.15 1.95-13.05.71a.87.87 0 0 1-.46-1.48q.66-.65 1.29-.91c6.32-2.59 12.95-4.53 15.33-7.83a1.89 1.89 0 0 0-1.53-3h-18.19a.76.76 0 0 1-.4-1.41q5.31-3.29 12.64-4.69a.65.65 0 0 0 .23-1.19q-3.61-2.28-8.04-3.57-11.32-3.28-22.36-4.68" vector-effect="non-scaling-stroke"/><path stroke="#7e6537" d="M445.05 591.47q-14.97-2.73-27.66-8.66" vector-effect="non-scaling-stroke"/><path stroke="#794d1b" d="m417.39 582.81-2.33-1.04a1.03 1.01 43.9 0 0-.83.01q-22.49 10.22-49.48 13.56c-37.48 4.64-74.36-4.15-103.29-27.66a.28.28 0 0 0-.46.17l-3.32 20.04" vector-effect="non-scaling-stroke"/><path stroke="#7a6847" d="M257.68 587.89q-3.59 30.09-.11 60.86 1 8.84 3.19 16.71" vector-effect="non-scaling-stroke"/><path stroke="#7c5f25" d="m260.76 665.46 1.61 9.33" vector-effect="non-scaling-stroke"/><path stroke="#794d1b" d="M262.37 674.79c7.82 26.27 20.26 50.05 37.75 69.05q20.13 21.86 48.22 36.4a.26.25-85.2 0 0 .36-.31q-4.81-14.52-6.57-29.31" vector-effect="non-scaling-stroke"/><path stroke="#7e6537" d="M342.13 750.62q-.9-10.42 2.34-18.84 2.67-6.96 10.48-7.54a.93.92-77.9 0 0 .74-.49c2.97-5.71 6.59-9.07 13.44-7.38q1.39.34 4.96 2.72a1.02 1-36.6 0 0 .89.12q7.24-2.42 12.46 3.11 1.91 2.03 6.64 8.2" vector-effect="non-scaling-stroke"/><path stroke="#817a68" d="M394.08 730.52q5.4 11.4 9.76 24.66" vector-effect="non-scaling-stroke"/><path stroke="#7a6847" d="m403.84 755.18 3.25 14.84" vector-effect="non-scaling-stroke"/><path stroke="#794d1b" d="M407.09 770.02q2.05 10.4 2.21 21.13a.7.69-84.9 0 0 .55.67q17.18 3.46 34.09 4.4" vector-effect="non-scaling-stroke"/><path stroke="#7a6847" d="M443.94 796.22q22.17 1.19 31.06.88 20.48-.74 26.91-1.04c10.45-.5 19.99.19 31.36.57q21.8.75 42.98-.61" vector-effect="non-scaling-stroke"/><path stroke="#794d1b" d="M576.25 796.02q2.38.22 4.25.07 15.61-1.28 31.55-4.23a.92.91-5.6 0 0 .75-.91q-.03-10.89 2.45-22.04" vector-effect="non-scaling-stroke"/><path stroke="#7a6847" d="m615.25 768.91 3.05-13.95" vector-effect="non-scaling-stroke"/><path stroke="#817a68" d="M618.3 754.96q4.21-14.42 11.2-26.63" vector-effect="non-scaling-stroke"/><path stroke="#7e6537" d="M629.5 728.33c4.88-6.77 9.49-12.27 18.03-9.3a.98.97 36.8 0 0 .89-.12q2.19-1.5 2.76-1.75c5.88-2.53 11.98-.74 14.48 5.25q.79 1.91 2.95 2.11c11.35 1.06 11.66 18.24 11.46 26.16" vector-effect="non-scaling-stroke"/><path stroke="#794d1b" d="M680.07 750.68q-1.59 14.27-6.23 28.57a.58.58 0 0 0 .82.69q21.43-11.4 39.04-27.99 26.88-25.3 39.95-60.03 5.95-15.8 6.61-18.93l1.72-8.06" vector-effect="non-scaling-stroke"/><path stroke="#7c5f25" d="M761.98 664.93q7.64-38.4 2.19-77.45" vector-effect="non-scaling-stroke"/><path stroke="#794d1b" d="m764.17 587.48-3.15-19.18a.41.41 0 0 0-.66-.25c-48.97 38.33-114.9 34.81-167.36 6.66" vector-effect="non-scaling-stroke"/><path stroke="#7c5f25" d="m593 574.71-3.95-2.22" vector-effect="non-scaling-stroke"/><path stroke="#7a6847" d="M589.05 572.49q-16.21-8.98-29.9-22.01" vector-effect="non-scaling-stroke"/><path stroke="#817a68" d="M559.15 550.48q4.28-.79 8.16 1.17" vector-effect="non-scaling-stroke"/><path stroke="#7a6847" d="M567.31 551.65q17.4 9.78 23.32 12.7c24.83 12.26 49.16 19.28 76.57 20.82q34.85 1.96 65.4-13.83c32.16-16.63 52.62-46.57 55.62-83.06" vector-effect="non-scaling-stroke"/><path stroke="#817a68" d="M788.22 488.28c2.31-30.18-5.65-63.3-25.87-86.46" vector-effect="non-scaling-stroke"/><path stroke="#7a6847" d="M762.35 401.82q-15.99-20.51-42.05-28.24-16.03-4.76-33.42-3.9-9.97.49-17.95 1.87" vector-effect="non-scaling-stroke"/><path stroke="#7c5f25" d="M668.93 371.55c-4.89.74-10.59 2.27-15.44 1.43a1.12 1.12 0 0 1-.55-1.94q2.59-2.29 5.75-3.64 11.65-4.94 24.08-6.94" vector-effect="non-scaling-stroke"/><path stroke="#794d1b" d="m682.77 360.46 14.11-1.29a.39.39 0 0 0 .3-.59q-8.99-14.97-19.12-29.19-8.48-11.89-16.95-23.6" vector-effect="non-scaling-stroke"/><path stroke="#7e6537" d="M661.11 305.79c-2-2.79-6.28-8.86-4.41-12.25" vector-effect="non-scaling-stroke"/><path stroke="#7c5a50" d="m656.7 293.54.7-.27" vector-effect="non-scaling-stroke"/><path stroke="#7c5f25" d="M657.4 293.27c4.98 1.22 9.37 5.84 13.57 9.58a1.16 1.16 0 0 0 1.56-.02c9.45-8.71 15.79-19.7 17.14-32.38 1.76-16.6-4.47-32.04-16.73-43.26" vector-effect="non-scaling-stroke"/><path stroke="#7a6847" d="M672.94 227.19c-12.45-10.53-31.16-14-45.8-5.53q-14.7 8.52-22.26 24.41a.76.76 0 0 0 .14.86q.92.92 3.1 1.9" vector-effect="non-scaling-stroke"/><path stroke="#7c5f25" d="m608.12 248.83 11.57 7.08a.53.53 0 0 0 .75-.21c4.32-8.85 9.53-16.56 17.89-21.56 8.97-5.38 19.01-5.98 26.18 2.35q2.45 2.84-.11 3.82" vector-effect="non-scaling-stroke"/><path stroke="#7c5a50" d="M664.4 240.31c-8.13-6.05-17.83-2.37-24.1 4.32q-7.45 7.93-10.9 18.35a.8.8 0 0 0 .24.86q9.64 7.87 16.93 17.85.67.91 2.19 4.43" vector-effect="non-scaling-stroke"/><path stroke="#7e6537" d="M648.76 286.12q-4.35-.15-8.73-3.39-10.32-7.63-18.06-12.69-27.97-18.31-57.51-26.74-5.55-1.59-13.79-3.69c-3.51-.9-7.47-2.57-9.46-4.59-6.29-6.41-10.37-14.35-14.66-22.75a.28.1 70.7 0 0-.04-.05l-.45-.46a.46.45-52.6 0 0-.73.1q-1.37 2.61-1.56 5.68" vector-effect="non-scaling-stroke"/><path stroke="#7c5f25" d="m523.77 217.54-.13 1" vector-effect="non-scaling-stroke"/><path stroke="#7e6537" d="m523.64 218.54-1.19 7.47a1.2 1.19 16.5 0 1-1.67.9q-1.13-.5-1.67-1.01c-8.42-7.96-11.9-12.32-19.38-15.6a.39.39 0 0 0-.54.42q.07.49.27.82c3.02 5.06 6.25 10.6 5.89 15.91a1.34 1.33-84.3 0 1-1.5 1.23c-2.11-.26-7.03-3.59-12.37-6.59q-2.96-1.66-8.84-2.34a.27.27 0 0 0-.23.44q.38.42 5.34 5.37c3.86 3.86 4.29 9.59-1.59 11.64q-3.07 1.07-10.93 2.15" vector-effect="non-scaling-stroke"/><path stroke="#f6c259" d="m523.64 218.54-.23 8.37a1 .99 72 0 1-.39.77q-2.1 1.62-4.11.37c-4.54-2.84-6.73-4.6-11.58-5.2a.63.63 0 0 0-.71.71l.4 2.83a1.18 1.15-44.3 0 1-.01.4q-.37 2.35-2.08 3.17a1.68 1.67 36.1 0 1-.99.15q-2.76-.4-7.01-1.19-1.2-.22-3.65 1.27a1.09 1.08 79.2 0 0-.51.76c-1.03 6.71-6.41 9.06-12.57 10.06" vector-effect="non-scaling-stroke"/><path stroke="#f3cb7b" d="m480.2 241.01-4.97-1.66" vector-effect="non-scaling-stroke"/><path stroke="#f1aa3e" d="M653.78 296.99c-8.48-6.83-11.07-3.79-12.55 6.16q-1.86 12.46-3.29 29.46-.93 11.13 1.76 20.11 3.04 10.15 14 14.36a1.45 1.44 42 0 0 1.19-.06q13.19-6.69 27.78-7.69a.51.51 0 0 1 .38.88l-.28.25" vector-effect="non-scaling-stroke"/><path stroke="#f2c569" d="M668.93 371.55q2.46 1.27 3.88 1.26 2.44-.02 10.2-1.26 1.67-.27 8.98.55c2.35.27 4.89 1.22 7.26 1.61q3.44.57 5.46 1.09c12.37 3.19 24.62 8.65 35.04 16.42 5.08 3.78 21.5 15.31 21.35 21.52q-.12 4.79.05 9.55" vector-effect="non-scaling-stroke"/><path stroke="#f9d78a" d="M761.15 422.29q-2.4 30.03-23.67 50.71" vector-effect="non-scaling-stroke"/><path stroke="#f6c259" d="M737.48 473q-13.4-5.46-24.37-14.07-6.21-4.88-12.55-9.66-21.07-15.86-47.56-17.31-17.59-.96-35.32-.76" vector-effect="non-scaling-stroke"/><path stroke="#f1aa3e" d="M588.9 431.44q.25-7.57-1.28-15.53-2.41-12.54-7.45-25.38" vector-effect="non-scaling-stroke"/><path stroke="#f6c259" d="M601.01 350.57q-3-2.1-8.09.2-10.34 4.66-19.85 11.02a2.16 2.16 0 0 1-3.23-1.07q-3.45-9.62-9.57-17.96-4.12-5.61-5.55-8.22a.41.41 0 0 1 .32-.61c6.03-.6 10.5-1.28 13.13-7.29 1.99-4.54 1.45-9.25-3.12-11.69" vector-effect="non-scaling-stroke"/><path stroke="#7c5f25" d="m565.05 314.95-1.37-.55" vector-effect="non-scaling-stroke"/><path stroke="#f6c259" d="M563.68 314.4q-6.49-1.69-12.37 2.44a2.37 2.32-66.9 0 1-.87.36q-7.23 1.42-13.29-3.27c-6.26-4.85-10.55-9.26-16.84-12.2q-2.65-1.24-11.28-6.06c-10.33-5.77-20.69-9.45-32.02-11.84-6.96-1.46-13.68-1.71-22.84-2.58-3.77-.36-8.36.93-12.9.69a.68.68 0 0 1-.36-1.24c4.03-2.85 6.63-5.32 8.03-10.04" vector-effect="non-scaling-stroke"/><path stroke="#f2c569" d="M448.94 270.66c.53-2.67.13-7.38-3.14-8.11q-11.21-2.5-18.6 5.63-.79.87-3.25 3.26c-3.75 3.64-3.42 8.79-.93 13.19" vector-effect="non-scaling-stroke"/><path stroke="#f2c569" d="M385.48 296.39q.5-3.56 3.52-5.9 12.55-9.7 19.88-16.77a23.47 23.16 7.7 0 1 4.45-3.35q8.09-4.69 20.27-12.83c3.97-2.65 8.9-5.13 12.79-6.17q3.99-1.07 8.96-3.26 5.62-2.47 8.87-3.43 7.87-2.31 15.98-3.67" vector-effect="non-scaling-stroke"/><path stroke="#f3cb7b" d="M585.48 471.96q-.58-.64-.81-1.21" vector-effect="non-scaling-stroke"/><path stroke="#f3b050" d="M584.67 470.75q.14-.01.34-.16a.99.97 76.6 0 0 .39-.65l1.01-7.36m.97-6.31q2.43-9.46 1.18-18.49" vector-effect="non-scaling-stroke"/><path stroke="#f6bd85" d="M648.76 286.12q2.27 4.97 7.94 7.42" vector-effect="non-scaling-stroke"/><path stroke="#f3b050" d="M661.11 305.79q-.92.78-1.08 1.7a.2.2 0 0 1-.35.09q-3.83-4.82-5.9-10.59" vector-effect="non-scaling-stroke"/><path stroke="#f6c259" d="M653.78 296.99c-1.49-6.62-5.97-8.11-11.27-10.75q-3.63-1.81-6.1-3.49-1.88-1.27-21.56-14.33-7.39-4.91-14.16-8.08-13.85-6.47-25.84-10.96c-8.1-3.04-15.12-4.64-23.1-7.07q-6.5-1.98-9.68-4.12-9.38-6.31-14.64-17.61-.87-1.87-3.66-3.04" vector-effect="non-scaling-stroke"/><path stroke="#f6dfac" d="m762.35 401.82-1.2 20.47" vector-effect="non-scaling-stroke"/><path stroke="#f3cb7b" d="M448.94 270.66c-2.97 6.9-8.1 8.46-13.2 12.64" vector-effect="non-scaling-stroke"/><path stroke="#7e6537" d="M563.68 314.4c-6.99-.4-13.71 5.07-14.27 12.12a3.14 3.07 39.4 0 0 .13 1.18c2.33 7.47 11.04 4.22 14.78.36 3.44-3.56 6.36-10.23.73-13.11" vector-effect="non-scaling-stroke"/><path stroke="#f6dfac" d="M788.22 488.28q-3.47 7.21-7.6 14.31c-2.28 3.9-4.47 8.07-7.37 11.44q-11.21 13.01-17.95 19.03-7.24 6.48-15.35 11.57-50.17 31.52-110.06 22.51-19.68-2.96-42.43-9.49-4.36-1.25-6.62-2.24c-2.69-1.19-6.14-1.79-8.78-3.5a1.61 1.59 60.9 0 0-.92-.27l-3.83.01m-8.16-1.17q-10.77-3.55-23.46-2.17a.83.83 0 0 0-.48 1.43q2 1.89 4.34 3.94 9.01 7.86 17.24 16.6m-67.54-7.83 3.58 2.33a.65.64-82.5 0 0 .96-.74l-1.05-3.25a1.54 1.54 0 0 1 .8-1.86q4.77-2.3 9.88-3.76c8.24-2.36 14.56-6.22 22.31-10.45q6.09-3.32 9.99-6.27 14.07-10.65 25.17-23.4c6.02-6.91 10.9-14.17 14.91-21.26q5.35-9.45 8.28-21.06.28-1.08 1.4-.77" vector-effect="non-scaling-stroke"/><path stroke="#fadd9c" d="M585.48 471.96c33.65 27.53 78.16 36.37 119.39 21.66q17.44-6.22 32.61-20.62" vector-effect="non-scaling-stroke"/><path stroke="#f2bf95" d="m374.13 287.75-7.94 6.43" vector-effect="non-scaling-stroke"/><path stroke="#efb260" d="M584.67 470.75q-6.12-3.33-9.46-9.29" vector-effect="non-scaling-stroke"/><path stroke="#f2c569" d="M589.05 572.49q.12 1.07-.02 1.4a1.11 1.1 28.7 0 1-1.69.49l-14.19-10.42a.86.81 61.3 0 0-.53-.17c-4.88.08-11.34 2.17-14.66 6.4" vector-effect="non-scaling-stroke"/><path stroke="#f1a469" d="M357.99 240.72q-.43 1.17-1.99 4.51c-3.47 7.43-3.47 14.73-3.02 24.07.16 3.25 1.32 6.48 2.33 9.66" vector-effect="non-scaling-stroke"/><path stroke="#f1aa3e" d="M355.31 278.96q1.01 3.7 2.24 7.35 1.28 3.79 1.01 5.18c-.82 4.05-5.33 6.08-9.12 6.79a1.46 1.43 61.9 0 1-1.31-.41c-9.43-9.5-11.93-20.53-12.85-33.72-.46-6.64 2.93-16.97 5.82-21.56q2.85-4.53 5.73-9.15" vector-effect="non-scaling-stroke"/><path stroke="#f4b773" d="M355.31 278.96q3.63 7.83 8.47 14.85" vector-effect="non-scaling-stroke"/><path stroke="#f1a469" d="M664.86 284.41c4.93-9.36 7.09-19.48 4.7-29.96q-1.1-4.82-2.6-9.48" vector-effect="non-scaling-stroke"/><path stroke="#f4b773" d="M657.4 293.27q4.59-3.53 7.46-8.86" vector-effect="non-scaling-stroke"/><path stroke="#f1aa3e" d="m664.86 284.41-2.83 7.12a1.75 1.74 30.7 0 0 .51 1.98c4.08 3.36 8.97 5.45 13.39.85 6.48-6.74 8.76-15.41 9.84-23.82 1.42-11.09-1.39-30.96-13.02-36.51a1.06 1.05 29 0 0-1.34.38q-3.1 4.82-4.45 10.56" vector-effect="non-scaling-stroke"/><path stroke="#f4b773" d="m666.96 244.97-2.56-4.66" vector-effect="non-scaling-stroke"/><path stroke="#f1aa3e" d="M593 574.71q-.29.84-.75.9-.41.05-.97-.03a.27.27 0 0 0-.21.47q2.49 2.07 3.88 2.96 11.42 7.29 19.28 11.51c38.85 20.9 86.17 25.16 127.75 8.9 6.6-2.58 13.35-6.62 19.07-9.27 1.28-.59 1.06-1.88 1.75-2.86a.61.6-56.4 0 1 .81-.17l.56.36m-2.19 77.45q-2.57 2.38-3.68 4.62-13.42 27.19-34.56 48.95-3.65 3.77-7.6 7.36" vector-effect="non-scaling-stroke"/><path stroke="#f6c259" d="M716.14 725.86q1.72-10.73 6.59-20.29a.54.45 66.6 0 0 .06-.2l.87-6.99a.89.87-68.7 0 0-.34-.81q-1.4-1.03-1.54-.43" vector-effect="non-scaling-stroke"/><path stroke="#7c5f25" d="M721.78 697.14q-3-2.76-5.89-.72-3.12 2.2-5.02 5.67" vector-effect="non-scaling-stroke"/><path stroke="#f6c259" d="M710.87 702.09q-5.14-5.53-15.06-15.11-13.09-12.65-30.24-16.7-5.16-1.22-19.08-3.97-6.67-1.32-18.75-5.8" vector-effect="non-scaling-stroke"/><path stroke="#f9d78a" d="M627.74 660.51q-3.3-12.46-9.78-23.47a.63.62-32.7 0 0-.89-.19q-8.49 6.01-18.1 10.35" vector-effect="non-scaling-stroke"/><path stroke="#f2c569" d="m598.97 647.2-3.69.77" vector-effect="non-scaling-stroke"/><path stroke="#f6c259" d="M594.78 643.27q-5.41-.79-8.02-.34-12.15 2.11-24.02 2.39a1.66 1.59 54.2 0 1-.66-.12q-9.43-3.76-10.17-14.92-.29-4.39-1.77-14.13c-1.33-8.75-4.32-16.33-8.55-23.66q-3.36-5.83 2.24-8.99 7.64-4.31 12.66-9.02" vector-effect="non-scaling-stroke"/><path stroke="#f2c569" d="M413.57 249.53q-4.68-8.61-11.19-13.93-5.66-4.63-12.61-7.01-4.77-1.64-9.67-2.92-6.62-1.73-13.39-.94" vector-effect="non-scaling-stroke"/><path stroke="#efb260" d="M366.71 224.73q-12.04.31-19.88 8.71" vector-effect="non-scaling-stroke"/><path stroke="#f2c569" d="M346.83 233.44q-1.2.42-2.46.4" vector-effect="non-scaling-stroke"/><path stroke="#f1aa3e" d="M370.37 230.49q-1.04-3.46-3.66-5.76" vector-effect="non-scaling-stroke"/><path stroke="#f2c569" d="M672.94 227.19q-5.75-.45-7.42-1.04c-11.33-3.98-22.44-2.14-33.21 2.17q-6.81 2.72-13.4 8.64-5.95 5.33-10.79 11.87" vector-effect="non-scaling-stroke"/><path stroke="#7e6537" d="M710.87 702.09c-2.15 3.56-3.19 10.64 3.1 9.07a2.75 2.58 18.8 0 0 .86-.39q7.7-5.22 6.95-13.63" vector-effect="non-scaling-stroke"/><path stroke="#f3b050" d="M716.14 725.86q-10.77 10.13-17.42 13.87-9.24 5.2-18.65 10.95" vector-effect="non-scaling-stroke"/><path stroke="#fadd9c" d="M627.74 660.51q5.26 18.13 4.81 36.77-.11 4.27-1.51 15.52-.95 7.59-1.54 15.53" vector-effect="non-scaling-stroke"/><path stroke="#f6dfac" d="m618.3 754.96-7 10.65a.94.49-27.5 0 1-.07.1l-4.17 4.19a1.78 1.73 12.9 0 1-.71.43l-5.79 1.87-.08.02q-4.47.55-8.55 1.28c-25.49 4.54-50.75 3.93-76.11 2.8q-7.09-.31-22.63.42-14.51.68-25.26.4-17.71-.48-43.52-4.07c-2.86-.4-9.18-1.82-10.79-4.17q-4.71-6.88-9.78-13.7" vector-effect="non-scaling-stroke"/><path stroke="#fadd9c" d="M394.08 730.52q-3.92-22.91-4.32-36.77-.4-13.9 4.25-30.34" vector-effect="non-scaling-stroke"/><path stroke="#f6dfac" d="M394.01 663.41q8.74 4.49 18.24 5.66c15.98 1.96 29.82.84 44.51-2.55a1.06 1.06 0 0 1 1.29.89q1.34 10.14 2.88 18.22 1.27 6.63 2.68 9.79c3.34 7.47 12.04 11.28 19.9 11.37 9.91.1 19.13-2.22 27.35-7.91 7.91-5.47 7.38-11.99 5.97-21.48q-.96-6.38-1.52-10.44a.5.5 0 0 1 .59-.56c21.27 4.03 43.73 2.54 63.53-6.97q2.76-1.33 5.19-2.89 1.79-1.16 5.11-2.99 4.87-2.68 9.24-6.35" vector-effect="non-scaling-stroke"/><path stroke="#f3cb7b" d="m394.01 663.41.7-3.67" vector-effect="non-scaling-stroke"/><path stroke="#fadd9c" d="M514.48 639.34q-.29-2.07.45-3.53c1.24-2.48 2.05-5.08 3.09-7.66q1.16-2.86 1.58-5.97 2.26-16.41-8.92-28.82" vector-effect="non-scaling-stroke"/><path stroke="#efb260" d="M615.25 768.91q-2.69 2.24-5.26 2.25-2.05.01-3.58 1.36-9.31 8.19-18.55 16.58-4.61 4.2-11.61 6.92m-132.31.2q-11.55-6.47-21.01-16.65-3.38-3.65-6.62-7.07a5.5 5.47 72.1 0 0-3.18-1.64l-6.04-.84" vector-effect="non-scaling-stroke"/><path stroke="#f3b050" d="M342.13 750.62q.05.65-.44.89a.48.47-30.4 0 1-.59-.15q-.77-1.11-3.05-2.42-3.45-1.98-17.73-10.99-5.92-3.74-18.28-15.75" vector-effect="non-scaling-stroke"/><path stroke="#7e6537" d="M305.3 709.38c2.33 2.32 7.25 3.9 7.87-.91q.37-2.89-1.96-6.36" vector-effect="non-scaling-stroke"/><path stroke="#f6c259" d="M377.99 653.47q-8.51 1.33-20.12 4.29-23.83 6.08-36.82 26.51-5.43 8.55-9.84 17.84" vector-effect="non-scaling-stroke"/><path stroke="#7c5f25" d="M311.21 702.11q-1.71-2.86-4.25-4.81-2.49-1.93-4.02-1.5c-6.59 1.86-.52 10.98 2.36 13.58" vector-effect="non-scaling-stroke"/><path stroke="#f6c259" d="m305.3 709.38-3.26 12.82" vector-effect="non-scaling-stroke"/><path stroke="#f1aa3e" d="M302.04 722.2q-22.5-22.01-37.35-49.81l-.1-.16-1-1.27a.71.71 0 0 0-1.27.45l.05 3.38" vector-effect="non-scaling-stroke"/><path stroke="#f2c569" d="M260.76 665.46q1.15-3.1.28-6.36a3.07 2.98 38.4 0 1-.1-.77q-.23-20.16.37-30.56.58-9.96 1.91-15.79 2.16-9.44 4.27-18.34" vector-effect="non-scaling-stroke"/><path stroke="#fadd9c" d="M445.05 591.47q-3.9 9.11-4.56 12.29-1.36 6.48-.25 12.48.45 2.41.45 3.5a2.21 1.81-57.6 0 0 .06.5q2.94 10.65 10.73 18.34" vector-effect="non-scaling-stroke"/><path stroke="#f6c259" d="M383.08 651.33c8.85-2.8 15.67-5.91 16.96-16.23.58-4.65.86-13.84 2.23-20.49 1.95-9.49 5.68-18.14 10.53-27.77" vector-effect="non-scaling-stroke"/><path stroke="#f3b050" d="M417.39 582.81q-1.53 2.6-4.59 4.03" vector-effect="non-scaling-stroke"/><path stroke="#f1aa3e" d="M412.8 586.84c-4.32 2.04-8.66 4.98-12.46 6.75q-8.43 3.91-14.87 6.35-21.01 7.99-43.75 9.53-36.05 2.45-68.72-12.77-3.28-1.52-5.51-3.06" vector-effect="non-scaling-stroke"/><path stroke="#efb260" d="m267.49 593.64-9.81-5.75" vector-effect="non-scaling-stroke"/><path stroke="#232222" d="M326.47 466.88q.37 1.91 1.82 4.83c6.23 12.53 11.94 23.13 20.72 32.28 11.49 11.97 23.14 22.49 37.88 29.67 8.68 4.23 17.54 8.52 27.57 10.87q17.97 4.21 37.02 3.78c9.63-.23 22.39-2.79 29.8-4.5q4.5-1.03 14.9-5.59 17.22-7.55 30-18.41c6.79-5.77 11.1-9.4 16.64-15.98q14.86-17.6 23.34-39.22 2.3-5.88 4.05-13.37 2.35-10.05 2.84-13.72 2.16-16.06.6-32.62c-.59-6.34-2.7-13.22-4.18-19.29-1.89-7.72-5.54-16.48-8.66-22.95-4.89-10.15-11.21-18.48-18.71-27.51q-8.54-10.29-18.01-17.01c-11.05-7.85-20.56-14.37-32.46-18.55q-11.27-3.97-18.86-5.8-12.16-2.94-24.85-3.08" vector-effect="non-scaling-stroke"/><path stroke="#504f4f" d="M447.92 290.71q-37.16-.81-68.36 17.61-30.92 18.26-47.72 50.64c-5.81 11.2-9.76 21.85-12.16 34.25q-7.4 38.13 6.79 73.67" vector-effect="non-scaling-stroke"/><path stroke="#6e6e6e" d="M447.92 290.71q.47.44.44.64a.58.58 0 0 1-.6.5q-12.09-.66-23.78 2.39-13.71 3.58-16.47 4.53-16.43 5.63-34.15 18.04c-2.95 2.07-5.41 4.68-8.37 6.92q-2.97 2.23-6.05 5.48-10.36 10.89-18.43 22.66c-2.85 4.16-4.87 9.03-7.63 13.72q-2.56 4.35-4.53 10.23c-2.29 6.83-4.59 12.09-5.88 17.92q-5.62 25.23-1.93 46.96.99 5.86 5.93 26.18" vector-effect="non-scaling-stroke"/><path stroke="#817a68" d="M289.86 379.17c-27.95 13.54-46.46 42.02-52.73 71.95q-4.6 21.93-1.7 44.05" vector-effect="non-scaling-stroke"/><path stroke="#7a6847" d="M235.43 495.17c3.72 26.24 16.58 49.51 37.48 65.68 19.26 14.9 44.57 23.5 68.48 24.3q43.11 1.46 82.42-17.59 8.49-4.12 21.93-11.55a.14.14 0 0 0-.07-.27l-8.96-.02" vector-effect="non-scaling-stroke"/><path stroke="#817a68" d="M436.71 555.72q-14.18-1.64-22.78-3.63c-18.66-4.32-36.27-13.52-51.65-25.24q-9.93-7.57-17.27-15.86-2.26-2.55-10.75-12.86" vector-effect="non-scaling-stroke"/><path stroke="#7e6537" d="M334.26 498.13Q304.8 454.36 310.48 403q1.39-12.59 5.32-24.54" vector-effect="non-scaling-stroke"/><path stroke="#7c5f25" d="m315.8 378.46.98-2.89" vector-effect="non-scaling-stroke"/><path stroke="#7a6847" d="m316.78 375.57 1.51-4.46a.3.3 0 0 0-.33-.39q-14.7 2.1-28.1 8.45" vector-effect="non-scaling-stroke"/><path stroke="#f2c569" d="M316.78 375.57q-16.91 4.63-31.25 14.71-10.78 7.59-20.03 16.36a6.13 5.98-4.5 0 0-.64.73l-3.47 4.88a2.45 2.42 60.5 0 0-.44 1.63l1.36 15.26a1.07 1.03-72.4 0 0 .34.68q.67.59.71 1.68.1 2.41-.1 4.66" vector-effect="non-scaling-stroke"/><path stroke="#f6dfac" d="M263.26 436.16q-2.11-6.1-2.44-12.72-.22-4.22-.58-7.77-.47-4.67.77-9.81a4.78 4.51 68.5 0 1 .49-1.22q2.21-3.82 6.05-7.09 7.42-6.3 14.12-10.91 4.57-3.13 8.19-7.47" vector-effect="non-scaling-stroke"/><path stroke="#f6c259" d="M315.8 378.46q-3.76 2.95-5.58 8.93-3.43 11.2-3.42 18.12.03 15.74-.02 18.6c-.16 10.41 1.33 17.9 4.12 28.99a1.36 1.34-36.3 0 1-.17 1.07q-8.63 13.54-22.92 21.33" vector-effect="non-scaling-stroke"/><path stroke="#f9d78a" d="M287.81 475.5q-17.76-15.71-24.55-39.34" vector-effect="non-scaling-stroke"/><path stroke="#f6dfac" d="M436.71 555.72q-4.28 1.63-8.22 3.01c-6.19 2.17-11.97 3.16-18.9 5.02-14.17 3.81-28.83 5.14-44.84 5.1q-15.59-.03-28.08-2.62-14.3-2.96-27.14-7.87-33.97-13.01-58.07-41.57c-5.39-6.38-9.39-13.59-13.68-20.87a1.3 1.29-12.3 0 0-.97-.62q-.55-.07-.87-1.07a.3.3 0 0 0-.59.04q-.06.34.08.9" vector-effect="non-scaling-stroke"/><path stroke="#fadd9c" d="M334.26 498.13q-26.32-4.45-46.45-22.63" vector-effect="non-scaling-stroke"/><path stroke="#817a68" d="m461.41 562.21 1.11 6.45a.51.5-8.4 0 0 .56.41l7.56-.87" vector-effect="non-scaling-stroke"/><path stroke="#504f4f" d="m470.64 568.2 10.84-1.8a.52.51 81.4 0 0 .42-.58l-1.78-12.72a.47.46 81.8 0 0-.52-.39l-18.66 2.61a.59.59 0 0 0-.49.67l.96 6.22" vector-effect="non-scaling-stroke"/><path stroke="#ccc6b4" d="m470.64 568.2-.87-5.01a1.45 1.44 84.1 0 0-1.48-1.21l-6.88.23" vector-effect="non-scaling-stroke"/><path stroke="#7a6847" d="m421.7 578.59 30.24 4.72a.13.13 0 0 0 .15-.16c-.91-4.57-1.36-8.35 2.49-11.8a1.41 1.38 65.6 0 0 .45-1.23l-1.63-11.63a.28.27 66.9 0 0-.44-.18q-14.2 11.26-31.32 19.88a.21.21 0 0 0 .06.4" vector-effect="non-scaling-stroke"/><path stroke="#504f4f" d="m466.66 577.13-6.59.68a.65.65 0 0 0-.58.73l.92 6.52a.95.95 0 0 0 .74.8l6.9 1.49" vector-effect="non-scaling-stroke"/><path stroke="#232222" d="M468.05 587.35c3.76 1.28 7.72 2 10.95 4.31a.36.36 0 0 0 .57-.33l-1.3-14.66a.99.99 0 0 0-1.12-.89l-10.49 1.35" vector-effect="non-scaling-stroke"/><path stroke="#6e6e6e" d="m468.05 587.35-1.39-10.22" vector-effect="non-scaling-stroke"/><path stroke="#504f4f" d="m474.6 637.15-5.83 3.37a1.13 1.12-19.1 0 0-.55 1.12l5.96 42.49a1.29 1.29 0 0 0 .99 1.08l6.32 1.48" vector-effect="non-scaling-stroke"/><path stroke="#232222" d="M481.49 686.69q10.65 1.06 21.08-4.84a2.1 2.09 71.4 0 0 1.05-2.12l-4.65-33.16a2.76 2.74-84.8 0 0-1.84-2.22c-2.79-.96-4.8-2.05-7.6-2.98q-5.85-1.94-11.15-5.77a1.31 1.29 56.9 0 0-1.01-.22q-2.18.44-2.77 1.77" vector-effect="non-scaling-stroke"/><path stroke="#6e6e6e" d="m481.49 686.69-6.89-49.54" vector-effect="non-scaling-stroke"/><path stroke="#7a6847" d="M366.97 794.25c4.03 6.64 12.44 15.08 20.83 13.85 5.31-.78 9.29-5.84 10.48-10.83q1.36-5.75.92-12.35" vector-effect="non-scaling-stroke"/><path stroke="#817a68" d="M399.2 784.92q-2.57-25.09-13-48.15c-1.18-2.61-3.82-7.77-6.58-8.83a.61.61 0 0 0-.83.55q-.17 6.58-.19 13.51 0 .76-.42 1.22a1.05 1.03 51.5 0 1-1.68-.21q-3.07-5.41-6.27-12.72-1.18-2.7-2.8-4.29a2.15 2.15 0 0 0-3.39.52q-1.29 2.38-1.01 5.51.54 6.11.8 14.57a.77.77 0 0 1-1.24.64c-3.04-2.32-5.4-8.78-7-11.57q-1.09-1.92-1.99-2.28a.65.65 0 0 0-.83.33c-2.14 4.62-1.8 11.08-1.19 16.24q2.83 23.87 15.39 44.29" vector-effect="non-scaling-stroke"/><path stroke="#f6dfac" d="M399.2 784.92c-3.34 6.87-7.13 11.04-15.19 11.67q-7.69.61-14.42-3.59a1.87 1.86-55.3 0 0-2.46.45q-.02.03-.16.8" vector-effect="non-scaling-stroke"/><path stroke="#7a6847" d="M623.31 780.49c-1.34 8.82-.95 23.75 8.61 27.11 9.81 3.45 19.5-6.81 24.01-14.72" vector-effect="non-scaling-stroke"/><path stroke="#817a68" d="M655.93 792.88q14.02-22.84 15.16-50.13.21-4.83-1.57-8.89a.66.65 70.4 0 0-.76-.37q-1.33.35-2.1 1.97-3.19 6.71-6.49 11.26a1.08 1.08 0 0 1-1.81-.1q-.1-.18-.14-1.13-.13-2.98.66-11.26.37-3.94-.39-6.89a2.32 1.94 72.5 0 0-2.69-1.72q-1.92.74-2.95 3.02-2.62 5.77-5.57 11.39-1.21 2.31-2.14 3.1a1.08 1.08 0 0 1-1.78-.82v-13.45a1.02 1.02 0 0 0-1.74-.72q-2.45 2.45-4.44 6.46-10.81 21.84-13.87 45.89" vector-effect="non-scaling-stroke"/><path stroke="#f6dfac" d="M655.93 792.88q-4.33.26-8.59 2.65a5.39 5.29 26.2 0 1-2 .66c-9.68 1.18-17.96-.97-21.62-10.88a2.3 2.02 36.1 0 1-.15-.67l-.26-4.15" vector-effect="non-scaling-stroke"/><path stroke="#f2c569" d="M472.897 253.676a8.11 6.12-24.2 0 0-9.906-2.258 8.11 6.12-24.2 0 0-4.888 8.906 8.11 6.12-24.2 0 0 9.906 2.258 8.11 6.12-24.2 0 0 4.888-8.906" vector-effect="non-scaling-stroke"/><path stroke="#f9d78a" d="M695.725 390.856a15.87 6.83-16 0 0-17.138-2.191 15.87 6.83-16 0 0-13.372 10.94 15.87 6.83-16 0 0 17.138 2.19 15.87 6.83-16 0 0 13.372-10.94" vector-effect="non-scaling-stroke"/><path stroke="#232222" d="M348.65 485.27q6.74 9.95 11.39 14.69 24.57 25.04 57.2 33.41 21.02 5.4 45.55 2.65c8.15-.91 15.44-3.82 22.5-5.66q5.22-1.36 11.81-4.88 9.54-5.08 11.25-6.15 16.2-10.14 30.42-27.7c4.28-5.28 9.26-14.25 11.89-19.17 4.5-8.42 6.84-17.03 9.56-27.03 3.69-13.55 3.01-28.15 1.72-42.17q-.63-6.84-2.11-11.96c-3.72-12.82-9.3-26.54-16.86-37.7-7.57-11.16-18.23-21.43-28.77-29.63q-4.2-3.28-10.32-6.4c-12.54-6.4-25.85-12.44-39.8-14.03-10.3-1.19-19.16-2.2-28.65-1.15-5.55.62-15.72 1.92-22.21 3.94q-21.58 6.7-37.01 17.99-1.63 1.19-9.88 8.16-5.71 4.82-8.91 9.16c-4.33 5.88-9.73 11.57-13.6 18.8q-11.64 21.77-14.42 43.29-4.32 33.41 9.83 65.51 2.67 6.07 9.42 16.03m3.29-122.31-4 7.26" vector-effect="non-scaling-stroke"/><path stroke="#7e6537" d="M347.94 370.22c-3.18 5.24-5.36 11.91-7.09 17.75" vector-effect="non-scaling-stroke"/><path stroke="#817a68" d="m340.85 387.97-3.21 14.26" vector-effect="non-scaling-stroke"/><path stroke="#7a6847" d="M337.64 402.23c-5.92 36.68 7.5 73.14 34.4 98.06" vector-effect="non-scaling-stroke"/><path stroke="#817a68" d="M372.04 500.29q23.64 21.26 54.99 26.87c33.16 5.93 65.27-3.15 90.71-25.03" vector-effect="non-scaling-stroke"/><path stroke="#232222" d="M517.74 502.13q7.08-6.04 13.09-13.57" vector-effect="non-scaling-stroke"/><path stroke="#7c5a50" d="M530.83 488.56q1.1-.83 1.81-1.97" vector-effect="non-scaling-stroke"/><path stroke="#232222" d="m532.64 486.59 6.5-10.68" vector-effect="non-scaling-stroke"/><path stroke="#817a68" d="M539.14 475.91q1.48-1.19 2.81-3.71 9.54-18.08 12.02-37.27" vector-effect="non-scaling-stroke"/><path stroke="#7e6537" d="M553.97 434.93c4.31-29.45-3.9-59.26-22.15-82.51q-20.86-26.56-52.95-37.29-7.43-2.49-14.33-3.48" vector-effect="non-scaling-stroke"/><path stroke="#232222" d="m464.54 311.65-9.07-1.09" vector-effect="non-scaling-stroke"/><path stroke="#7e6537" d="M455.47 310.56q-29.14-2.91-55.36 9.03-30.45 13.88-47.77 42.47-.22.36-.4.9" vector-effect="non-scaling-stroke"/><path stroke="#9c8556" d="M455.47 310.56q-2.42 1.98-2.82 3.3c-1.53 4.98 3.49 10.56 7.58 12.88" vector-effect="non-scaling-stroke"/><path stroke="#fadd9c" d="M460.23 326.74q-4.62 2.42-5.44 5.32-1.08 3.83-1.17 4.14a3.94 3.82-40.1 0 0-.15 1.48q.64 6.42 5.15 9.78 1.66 1.24 7.59 2.73 10.29 2.59 17.1 6.77 6.25 3.82 14.65 10.57c4.24 3.41 9.29 5.21 14.42 2.52 4.37-2.29 5.93-7.67 5.05-12.3q-1.34-7.02-6.94-11.76-7.39-6.25-15.01-10.74-11.62-6.83-25.46-8.36" vector-effect="non-scaling-stroke"/><path stroke="#9c8556" d="M470.02 326.89q1.57-1.56 1.39-3.63-.59-6.71-6.87-11.61" vector-effect="non-scaling-stroke"/><path stroke="#fadd9c" d="M553.97 434.93q-6.76-8.19-15-13.96c-4.05-2.84-7.45-5.14-11.76-6.48q-21.43-6.65-40.75 3.79c-4.01 2.17-7.42 5.14-10.7 8.49q-7.84 8.02-14.85 16.67" vector-effect="non-scaling-stroke"/><path stroke="#9c8556" d="M460.91 443.44q-26.67-16.78-58.39-13.38a.45.45 0 0 0-.29.74q.24.27.71.39" vector-effect="non-scaling-stroke"/><path stroke="#f3cb7b" d="m402.94 431.19-.77-.05a2.69 2.63-29.3 0 1-.93-.25c-13.66-6.53-24.95-7.33-41.24-8.9q-10.82-1.05-21.47-6.34a.73.71 15.9 0 1-.4-.7l1.08-12.83" vector-effect="non-scaling-stroke"/><path stroke="#fadd9c" d="M339.21 402.12c4.2 1.33 13.71 3.03 16.88-1.17 2.54-3.36-3.24-8.27-5.91-9.64q-2.5-1.27-9.33-3.34" vector-effect="non-scaling-stroke"/><path stroke="#9c8556" d="M347.94 370.22c6.45 1.37 13.88 3.14 20.39 2.51a1.07 1.07 0 0 0 .61-1.86c-4.4-3.97-11.22-6.37-17-7.91" vector-effect="non-scaling-stroke"/><path stroke="#f6dfac" d="M339.21 402.12q-1.05.64-1.57.11" vector-effect="non-scaling-stroke"/><path stroke="#988766" d="M402.94 431.19q28.07 4.53 55.07 14.95" vector-effect="non-scaling-stroke"/><path stroke="#f6dfac" d="M458.01 446.14q-1.76 4.25-5.87 8.92" vector-effect="non-scaling-stroke"/><path stroke="#988766" d="M452.14 455.06q-25.59-.37-48.54 12.28-2.42 1.34-4.4 2.97a.3.3 0 0 0 .28.52q22.32-6.81 47.87-10.13" vector-effect="non-scaling-stroke"/><path stroke="#f6dfac" d="M447.35 460.7q-11.7 13.52-27.16 22.73-20.41 12.16-42.58 17.24a2.84 2.79 41.1 0 1-.85.05l-4.72-.43" vector-effect="non-scaling-stroke"/><path stroke="#9f9987" d="M470.02 326.89q-3.2.67-4.52.44-2.98-.51-5.27-.59m78.91 149.17c-10.25 2.25-19.64-2.27-23.36-11.97q-.39-1.02-.32-9.84a.78.78 0 0 1 .51-.73q8.47-3.18 14.11-10.52 4.24-5.52 1.93-9.89" vector-effect="non-scaling-stroke"/><path stroke="#f9d1b6" d="M532.01 432.96q-3.27-4.8-8.69-6.06-12.39-2.89-26.03 1.15-3.78 1.12-6.74 5.48" vector-effect="non-scaling-stroke"/><path stroke="#9f9987" d="M490.55 433.53c-2.51.5-1.55 4.22-.76 5.73q5.2 9.94 15.61 13.73a1.03 1.03 0 0 1 .68.91c.28 4.41.27 9.58-2.52 13.66-5.94 8.65-17.76 12.53-26.41 5.46q-2.62-2.14-5.28-5.15a1.55 1.55 0 0 0-2.63.52q-.22.67.14 2.22 2.6 11.14 13.77 14.77.84.27 5.4.73a.74.74 0 0 1 .63.56c1.19 4.89 2.35 8.73 6.15 11.99 5.4 4.64 15.34 4.67 22.41 3.47m-70.39-41.43 14.52-2.58a.77.77 0 0 0 .24-1.43c-2.91-1.62-6.51-1.62-9.97-1.63m5.87-8.92 5.89 2.12a.67.67 0 0 0 .7-1.1l-3.69-3.72" vector-effect="non-scaling-stroke"/><path stroke="#9b7970" d="M532.64 486.59q-.48-1.12-1.4-.35-1.04.89-.41 2.32m1.18-55.6q-7.09 7.19-15.57 11.47-5.81 2.94-11.81-.32-8.33-4.52-14.08-10.58" vector-effect="non-scaling-stroke"/><path stroke="#9c8556" d="M440.366 346.62a33.69 27.81-87.2 0 0-29.423 32.291 33.69 27.81-87.2 0 0 26.131 35.009 33.69 27.81-87.2 0 0 29.423-32.292 33.69 27.81-87.2 0 0-26.131-35.008" vector-effect="non-scaling-stroke"/><path stroke="#fadd9c" d="M529.34 386.04a6.68 6.68 0 0 0-6.68-6.68 6.68 6.68 0 0 0-6.68 6.68 6.68 6.68 0 0 0 6.68 6.68 6.68 6.68 0 0 0 6.68-6.68" vector-effect="non-scaling-stroke"/><path stroke="#a0a0a0" d="M435.235 355.59a10.42 9.01-89.7 0 0-9.065 10.373 10.42 9.01-89.7 0 0 8.955 10.467 10.42 9.01-89.7 0 0 9.065-10.373 10.42 9.01-89.7 0 0-8.955-10.467m15.502 29.202a5.44 5.18-95.2 0 0-4.666 5.888 5.44 5.18-95.2 0 0 5.652 4.948 5.44 5.18-95.2 0 0 4.666-5.887 5.44 5.18-95.2 0 0-5.652-4.949" vector-effect="non-scaling-stroke"/><path stroke="#fad8cf" d="M507.54 432.524a5.38 3.33-.7 0 0-5.42-3.264 5.38 3.33-.7 0 0-5.34 3.396 5.38 3.33-.7 0 0 5.42 3.264 5.38 3.33-.7 0 0 5.34-3.396" vector-effect="non-scaling-stroke"/><path stroke="#a0a0a0" d="M522.97 484.1q-6.63-3.04-11.83-8.86a.48.48 0 0 0-.73.01q-5.51 6.61-14 9.56a.66.66 0 0 0-.43.76q1.7 7.72 8.49 8.21h6.02c2.43 0 8.06.35 9.64-1.58q2.32-2.86 3.34-7.08a.9.89 19.2 0 0-.5-1.02" vector-effect="non-scaling-stroke"/><path stroke="#a0a0a0" d="M509.185 477.712a5.13 1.38-91.4 0 0-1.255 5.162 5.13 1.38-91.4 0 0 1.505 5.094 5.13 1.38-91.4 0 0 1.255-5.162 5.13 1.38-91.4 0 0-1.505-5.094" vector-effect="non-scaling-stroke"/><path stroke="#7c5f25" d="M741.224 636.207a9.8 4.82-78.8 0 0-6.632 8.677 9.8 4.82-78.8 0 0 2.825 10.55 9.8 4.82-78.8 0 0 6.631-8.678 9.8 4.82-78.8 0 0-2.825-10.55m-8.521 30.799a9.29 4.83-70.1 0 0-7.704 7.091 9.29 4.83-70.1 0 0 1.38 10.38 9.29 4.83-70.1 0 0 7.704-7.092 9.29 4.83-70.1 0 0-1.38-10.38M280.636 636.06a9.82 4.86-101 0 0-2.897 10.567 9.82 4.86-101 0 0 6.645 8.713 9.82 4.86-101 0 0 2.897-10.567 9.82 4.86-101 0 0-6.645-8.713" vector-effect="non-scaling-stroke"/><path stroke="#7c5f25" d="M289.008 666.965a9.34 4.79-110.9 0 0-1.143 10.434 9.34 4.79-110.9 0 0 7.807 7.016 9.34 4.79-110.9 0 0 1.143-10.434 9.34 4.79-110.9 0 0-7.807-7.016" vector-effect="non-scaling-stroke"/></g><path fill="#fff" d="M1024 0v1024H0V0zM473.27 227.01q-17.48 2.89-33.52 9.25-5.06 2.01-9.98 3.96a1.04 1.03 66.8 0 1-1.32-.53c-9.34-20.49-29.63-35.8-52.15-34.89-33.61 1.37-56.83 29.91-55.64 62.7q.98 26.91 20.59 44.44a.52.51 39.8 0 1 .07.69q-16.69 22.62-30.42 46.18a1.34 1.33-79.7 0 1-.9.63c-56.68 9.76-87.63 63.01-88.71 116.86-.53 26.16 6.64 51.18 22.1 72.47 2.13 2.94 4.61 5.41 6.97 8.23a1.19 1.19 0 0 1 .24 1.04q-8.14 33.87-7.11 71.95 1.52 55.84 30.66 100.75c20.19 31.12 49.99 53.66 83.31 67.85a4.21 4.16-5.2 0 1 1.79 1.47c6.68 9.77 16.8 19.4 29.71 18.22q10.29-.94 16.12-10.96 1.18-2.04 1.49-2.54a.79.77-69.2 0 1 .8-.37q36.6 6.25 74.63 5 9.07-.3 20.08-.8c12.16-.56 24.33.28 36.67.7q38.46 1.33 76.12-4.93a.83.81 73.2 0 1 .89.49c4.03 9.41 12.74 14.84 23.09 13.19 10.46-1.66 18.59-9.41 24.18-18.26a3.64 3.63-84.9 0 1 1.69-1.42c26.64-10.97 50.29-27.39 69.41-49.1 24.23-27.51 39.08-63.87 43.21-100.28q5.07-44.78-5.8-90.76a1.16 1.13 60.4 0 1 .27-1.04c18.01-19.41 27.94-43.96 29.53-70.32 3.23-53.73-24.3-112.65-80.88-126.05q-4.63-1.09-7.4-1.61a1.21 1.2 79.8 0 1-.82-.58q-14.17-24.01-30.84-46.28a.75.74-39.2 0 1 .11-1.01c15.08-13.06 22.7-31.54 21-51.36-2.47-28.82-23.53-53.55-53.46-55.47-23.9-1.53-44.48 13.71-55.01 35a.98.97 24.2 0 1-1.25.47q-21.88-9.21-43.37-13.14a2.23 2.21 66.5 0 1-.85-.34q-1.21-.83-2.06-2.29-4.48-7.65-9.32-15.15-3.15-4.86-5.26-6.53c-6.11-4.81-12.2-1.65-15.54 4.38a.56.56 0 0 1-.83.17q-1.95-1.53-3.55-2.58c-6.28-4.14-22.27-11.22-25.01.82-.21.93-.06 2.44-.21 3.5a.7.69-83.5 0 1-.75.6c-6.85-.64-17.09-1.21-16.99 8.79q.04 3.94 4.42 8.16a.37.37 0 0 1-.2.63"/><path fill="#040202" d="M473.27 227.01a.37.37 0 0 0 .2-.63q-4.38-4.22-4.42-8.16c-.1-10 10.14-9.43 16.99-8.79a.7.69-83.5 0 0 .75-.6c.15-1.06 0-2.57.21-3.5 2.74-12.04 18.73-4.96 25.01-.82q1.6 1.05 3.55 2.58a.56.56 0 0 0 .83-.17c3.34-6.03 9.43-9.19 15.54-4.38q2.11 1.67 5.26 6.53 4.84 7.5 9.32 15.15.85 1.46 2.06 2.29a2.23 2.21 66.5 0 0 .85.34q21.49 3.93 43.37 13.14a.98.97 24.2 0 0 1.25-.47c10.53-21.29 31.11-36.53 55.01-35 29.93 1.92 50.99 26.65 53.46 55.47 1.7 19.82-5.92 38.3-21 51.36a.75.74-39.2 0 0-.11 1.01q16.67 22.27 30.84 46.28a1.21 1.2 79.8 0 0 .82.58q2.77.52 7.4 1.61c56.58 13.4 84.11 72.32 80.88 126.05-1.59 26.36-11.52 50.91-29.53 70.32a1.16 1.13 60.4 0 0-.27 1.04q10.87 45.98 5.8 90.76c-4.13 36.41-18.98 72.77-43.21 100.28-19.12 21.71-42.77 38.13-69.41 49.1a3.64 3.63-84.9 0 0-1.69 1.42c-5.59 8.85-13.72 16.6-24.18 18.26-10.35 1.65-19.06-3.78-23.09-13.19a.83.81 73.2 0 0-.89-.49q-37.66 6.26-76.12 4.93c-12.34-.42-24.51-1.26-36.67-.7q-11.01.5-20.08.8-38.03 1.25-74.63-5a.79.77-69.2 0 0-.8.37q-.31.5-1.49 2.54-5.83 10.02-16.12 10.96c-12.91 1.18-23.03-8.45-29.71-18.22a4.21 4.16-5.2 0 0-1.79-1.47c-33.32-14.19-63.12-36.73-83.31-67.85q-29.14-44.91-30.66-100.75-1.03-38.08 7.11-71.95a1.19 1.19 0 0 0-.24-1.04c-2.36-2.82-4.84-5.29-6.97-8.23-15.46-21.29-22.63-46.31-22.1-72.47 1.08-53.85 32.03-107.1 88.71-116.86a1.34 1.33-79.7 0 0 .9-.63q13.73-23.56 30.42-46.18a.52.51 39.8 0 0-.07-.69q-19.61-17.53-20.59-44.44c-1.19-32.79 22.03-61.33 55.64-62.7 22.52-.91 42.81 14.4 52.15 34.89a1.04 1.03 66.8 0 0 1.32.53q4.92-1.95 9.98-3.96 16.04-6.36 33.52-9.25m1.96 12.34c-27.82 5.07-55.79 17.58-78.66 33.98q-13.37 9.59-22.44 14.42.64-5.29 5.26-10.38 9.12-10.04 13.68-13.57a.71.71 0 0 0 .24-.79q-3.72-11.23-12.31-19.47-10.54-10.1-23.01-2.82-1.55-1.3-.59-2.8 4.36-6.78 12.97-7.43c15.02.44 25.26 12.86 31.86 25.27a.92.92 0 0 0 1.32.33l10.02-6.56 4.2-2.23a.67.66-26.8 0 0 .29-.87q-6.52-13.62-18.38-22.08c-18.35-13.11-41.45-7.23-55.31 9.49-16.85 21.74-14.49 51.13 6.18 69.43a.94.93 42.7 0 0 1.29-.05q5.74-5.85 11.94-9.41 1.02-.17 2.41.37-.51 6.3-4.46 11.78-4.31 5.98-8.31 12.04a.14.14 0 0 0 .21.18q14.55-13.2 31.85-21.79 5.17-2.23 10.13-4.18 13.29-5.22 27.41-7.58l12.72-1.33q45.46-2.65 81.95 20.74 35.42 22.71 52.58 61.31a.66.66 0 0 0 .95.29q8.21-5.05 21-12.67 1.8-1.08 4.36-2.14 2.06-.86 4.43-.26 3.66 2.72 4.59 5.11c1.77 4.51-2.45 6.94-5.52 8.66q-15.69 8.81-21.51 12.01a.13.13 0 0 0 .05.25q14 1.28 27.19 7.08 4.11 1.8 5.04 3.04a3.49 3.18 19.1 0 1 .48.88c1.26 3.34-2.17 10.03-6.17 9.95q-2.33-.05-2.84-.29-10.04-4.56-22.15-6.73-.88-.51-1.46-.1a.59.59 0 0 0-.22.61q4.94 20.87 2.69 42.13a.27.27 0 0 0 .34.29l7.38-2.02q13.05-2.97 27.4-1.86 1.3.1 2.37.56a.44.44 0 0 1-.22.84q-.29-.03-.77.22-15.45 2.35-29.12 6.58l-7.8 2.51a.66.66 0 0 0-.43.48l-2.89 13.88a.36.35-81.2 0 0 .31.43l9.63 1.19c13.66 2.79 24.14 6.73 34.92 13.66a.35.35 0 0 1-.29.63q-17.7-5.15-35.6-7.98-6.76-1.88-11.2-1.12-8.24 25.25-24.37 44.86-25.31 30.78-63.13 43.28a.63.63 0 0 0-.42.69l1.96 12.16.52 3.05a.81.79 2.4 0 0 .59.63q5.21 1.29 5.91 6.85.27 2.13 1.7 14.07a.88.88 0 0 0 1.21.71c18.57-7.58 38.11-12.61 57.61-17.48l1.17-.09 2.38.1a.6.6 0 0 1 .33 1.08l-4.18 3.11q-10.08 5.78-16.3 8.45-12.35 5.31-29.51 10.43-9.61 2.9-18.54 6.49-1.11.44-2.87 1.78a.69.68-30.9 0 0-.21.82l1.93 4.16a1.41 1.38 87.6 0 0 .76.71q2.02.78 3.92 1.68a.86.81 28.3 0 1 .39 1.18q-.31.52-1.18.69-2.14.44-3.55.88a1.37 1.37 0 0 0-.94 1.04l-1.58 7.56a.76.75 15.5 0 0 .49.86l4.73 1.65a.99.98-47.3 0 1 .07 1.83q-2.49 1.09-5.95 1.47c-1.85.21-2.86 1.26-3.6 2.63a.71.69 34.5 0 0 .17.86q2.84 2.42 7.27 3.88 11.36 3.76 22.49 5.81 13.82 3.87 24.05 5.85 28 5.43 56.25-1.92l4.1-.68a.86.86 0 0 1 .72 1.48l-4.32 3.9c-13.85 8.48-30.75 10.62-46.79 9.03q-20.83-2.08-40.81-9.26a.11.11 0 0 0-.15.12l4.4 33.49a2.74 2.72 52.4 0 1-.18 1.41c-2.37 5.75-10.36 9.32-16.07 10.7-7.5 1.8-17.26 2.13-24.45-1.38-3.55-1.73-4.4-3.5-4.96-7.56q-2.02-14.59-5.58-38.49a.64.64 0 0 0-.92-.48q-22.69 11.57-47.87 14.88-7.01.92-17.19-.69-9.15-1.45-16.72-6.27l-1.92-1.9a.63.63 0 0 1 .53-1.08l6.48.84q4.31.72 10.17.81 20.18.3 38.61-5.97 9.94-3.38 19.62-7.59c10.24-4.2 21.74-9.33 28.54-18.45a.39.39 0 0 0-.43-.61q-6.15 1.95-13.05.71a.87.87 0 0 1-.46-1.48q.66-.65 1.29-.91c6.32-2.59 12.95-4.53 15.33-7.83a1.89 1.89 0 0 0-1.53-3h-18.19a.76.76 0 0 1-.4-1.41q5.31-3.29 12.64-4.69a.65.65 0 0 0 .23-1.19q-3.61-2.28-8.04-3.57-11.32-3.28-22.36-4.68-14.97-2.73-27.66-8.66l-2.33-1.04a1.03 1.01 43.9 0 0-.83.01q-22.49 10.22-49.48 13.56c-37.48 4.64-74.36-4.15-103.29-27.66a.28.28 0 0 0-.46.17l-3.32 20.04q-3.59 30.09-.11 60.86 1 8.84 3.19 16.71l1.61 9.33c7.82 26.27 20.26 50.05 37.75 69.05q20.13 21.86 48.22 36.4a.26.25-85.2 0 0 .36-.31q-4.81-14.52-6.57-29.31-.9-10.42 2.34-18.84 2.67-6.96 10.48-7.54a.93.92-77.9 0 0 .74-.49c2.97-5.71 6.59-9.07 13.44-7.38q1.39.34 4.96 2.72a1.02 1-36.6 0 0 .89.12q7.24-2.42 12.46 3.11 1.91 2.03 6.64 8.2 5.4 11.4 9.76 24.66l3.25 14.84q2.05 10.4 2.21 21.13a.7.69-84.9 0 0 .55.67q17.18 3.46 34.09 4.4 22.17 1.19 31.06.88 20.48-.74 26.91-1.04c10.45-.5 19.99.19 31.36.57q21.8.75 42.98-.61 2.38.22 4.25.07 15.61-1.28 31.55-4.23a.92.91-5.6 0 0 .75-.91q-.03-10.89 2.45-22.04l3.05-13.95q4.21-14.42 11.2-26.63c4.88-6.77 9.49-12.27 18.03-9.3a.98.97 36.8 0 0 .89-.12q2.19-1.5 2.76-1.75c5.88-2.53 11.98-.74 14.48 5.25q.79 1.91 2.95 2.11c11.35 1.06 11.66 18.24 11.46 26.16q-1.59 14.27-6.23 28.57a.58.58 0 0 0 .82.69q21.43-11.4 39.04-27.99 26.88-25.3 39.95-60.03 5.95-15.8 6.61-18.93l1.72-8.06q7.64-38.4 2.19-77.45l-3.15-19.18a.41.41 0 0 0-.66-.25c-48.97 38.33-114.9 34.81-167.36 6.66l-3.95-2.22q-16.21-8.98-29.9-22.01 4.28-.79 8.16 1.17 17.4 9.78 23.32 12.7c24.83 12.26 49.16 19.28 76.57 20.82q34.85 1.96 65.4-13.83c32.16-16.63 52.62-46.57 55.62-83.06 2.31-30.18-5.65-63.3-25.87-86.46q-15.99-20.51-42.05-28.24-16.03-4.76-33.42-3.9-9.97.49-17.95 1.87c-4.89.74-10.59 2.27-15.44 1.43a1.12 1.12 0 0 1-.55-1.94q2.59-2.29 5.75-3.64 11.65-4.94 24.08-6.94l14.11-1.29a.39.39 0 0 0 .3-.59q-8.99-14.97-19.12-29.19-8.48-11.89-16.95-23.6c-2-2.79-6.28-8.86-4.41-12.25l.7-.27c4.98 1.22 9.37 5.84 13.57 9.58a1.16 1.16 0 0 0 1.56-.02c9.45-8.71 15.79-19.7 17.14-32.38 1.76-16.6-4.47-32.04-16.73-43.26-12.45-10.53-31.16-14-45.8-5.53q-14.7 8.52-22.26 24.41a.76.76 0 0 0 .14.86q.92.92 3.1 1.9l11.57 7.08a.53.53 0 0 0 .75-.21c4.32-8.85 9.53-16.56 17.89-21.56 8.97-5.38 19.01-5.98 26.18 2.35q2.45 2.84-.11 3.82c-8.13-6.05-17.83-2.37-24.1 4.32q-7.45 7.93-10.9 18.35a.8.8 0 0 0 .24.86q9.64 7.87 16.93 17.85.67.91 2.19 4.43-4.35-.15-8.73-3.39-10.32-7.63-18.06-12.69-27.97-18.31-57.51-26.74-5.55-1.59-13.79-3.69c-3.51-.9-7.47-2.57-9.46-4.59-6.29-6.41-10.37-14.35-14.66-22.75a.28.1 70.7 0 0-.04-.05l-.45-.46a.46.45-52.6 0 0-.73.1q-1.37 2.61-1.56 5.68l-.13 1-1.19 7.47a1.2 1.19 16.5 0 1-1.67.9q-1.13-.5-1.67-1.01c-8.42-7.96-11.9-12.32-19.38-15.6a.39.39 0 0 0-.54.42q.07.49.27.82c3.02 5.06 6.25 10.6 5.89 15.91a1.34 1.33-84.3 0 1-1.5 1.23c-2.11-.26-7.03-3.59-12.37-6.59q-2.96-1.66-8.84-2.34a.27.27 0 0 0-.23.44q.38.42 5.34 5.37c3.86 3.86 4.29 9.59-1.59 11.64q-3.07 1.07-10.93 2.15M326.47 466.88q.37 1.91 1.82 4.83c6.23 12.53 11.94 23.13 20.72 32.28 11.49 11.97 23.14 22.49 37.88 29.67 8.68 4.23 17.54 8.52 27.57 10.87q17.97 4.21 37.02 3.78c9.63-.23 22.39-2.79 29.8-4.5q4.5-1.03 14.9-5.59 17.22-7.55 30-18.41c6.79-5.77 11.1-9.4 16.64-15.98q14.86-17.6 23.34-39.22 2.3-5.88 4.05-13.37 2.35-10.05 2.84-13.72 2.16-16.06.6-32.62c-.59-6.34-2.7-13.22-4.18-19.29-1.89-7.72-5.54-16.48-8.66-22.95-4.89-10.15-11.21-18.48-18.71-27.51q-8.54-10.29-18.01-17.01c-11.05-7.85-20.56-14.37-32.46-18.55q-11.27-3.97-18.86-5.8-12.16-2.94-24.85-3.08-37.16-.81-68.36 17.61-30.92 18.26-47.72 50.64c-5.81 11.2-9.76 21.85-12.16 34.25q-7.4 38.13 6.79 73.67m-36.61-87.71c-27.95 13.54-46.46 42.02-52.73 71.95q-4.6 21.93-1.7 44.05c3.72 26.24 16.58 49.51 37.48 65.68 19.26 14.9 44.57 23.5 68.48 24.3q43.11 1.46 82.42-17.59 8.49-4.12 21.93-11.55a.14.14 0 0 0-.07-.27l-8.96-.02q-14.18-1.64-22.78-3.63c-18.66-4.32-36.27-13.52-51.65-25.24q-9.93-7.57-17.27-15.86-2.26-2.55-10.75-12.86-29.46-43.77-23.78-95.13 1.39-12.59 5.32-24.54l.98-2.89 1.51-4.46a.3.3 0 0 0-.33-.39q-14.7 2.1-28.1 8.45m171.55 183.04 1.11 6.45a.51.5-8.4 0 0 .56.41l7.56-.87 10.84-1.8a.52.51 81.4 0 0 .42-.58l-1.78-12.72a.47.46 81.8 0 0-.52-.39l-18.66 2.61a.59.59 0 0 0-.49.67zm-39.71 16.38 30.24 4.72a.13.13 0 0 0 .15-.16c-.91-4.57-1.36-8.35 2.49-11.8a1.41 1.38 65.6 0 0 .45-1.23l-1.63-11.63a.28.27 66.9 0 0-.44-.18q-14.2 11.26-31.32 19.88a.21.21 0 0 0 .06.4m44.96-1.46-6.59.68a.65.65 0 0 0-.58.73l.92 6.52a.95.95 0 0 0 .74.8l6.9 1.49c3.76 1.28 7.72 2 10.95 4.31a.36.36 0 0 0 .57-.33l-1.3-14.66a.99.99 0 0 0-1.12-.89zm7.94 60.02-5.83 3.37a1.13 1.12-19.1 0 0-.55 1.12l5.96 42.49a1.29 1.29 0 0 0 .99 1.08l6.32 1.48q10.65 1.06 21.08-4.84a2.1 2.09 71.4 0 0 1.05-2.12l-4.65-33.16a2.76 2.74-84.8 0 0-1.84-2.22c-2.79-.96-4.8-2.05-7.6-2.98q-5.85-1.94-11.15-5.77a1.31 1.29 56.9 0 0-1.01-.22q-2.18.44-2.77 1.77m-107.63 157.1c4.03 6.64 12.44 15.08 20.83 13.85 5.31-.78 9.29-5.84 10.48-10.83q1.36-5.75.92-12.35-2.57-25.09-13-48.15c-1.18-2.61-3.82-7.77-6.58-8.83a.61.61 0 0 0-.83.55q-.17 6.58-.19 13.51 0 .76-.42 1.22a1.05 1.03 51.5 0 1-1.68-.21q-3.07-5.41-6.27-12.72-1.18-2.7-2.8-4.29a2.15 2.15 0 0 0-3.39.52q-1.29 2.38-1.01 5.51.54 6.11.8 14.57a.77.77 0 0 1-1.24.64c-3.04-2.32-5.4-8.78-7-11.57q-1.09-1.92-1.99-2.28a.65.65 0 0 0-.83.33c-2.14 4.62-1.8 11.08-1.19 16.24q2.83 23.87 15.39 44.29m256.34-13.76c-1.34 8.82-.95 23.75 8.61 27.11 9.81 3.45 19.5-6.81 24.01-14.72q14.02-22.84 15.16-50.13.21-4.83-1.57-8.89a.66.65 70.4 0 0-.76-.37q-1.33.35-2.1 1.97-3.19 6.71-6.49 11.26a1.08 1.08 0 0 1-1.81-.1q-.1-.18-.14-1.13-.13-2.98.66-11.26.37-3.94-.39-6.89a2.32 1.94 72.5 0 0-2.69-1.72q-1.92.74-2.95 3.02-2.62 5.77-5.57 11.39-1.21 2.31-2.14 3.1a1.08 1.08 0 0 1-1.78-.82v-13.45a1.02 1.02 0 0 0-1.74-.72q-2.45 2.45-4.44 6.46-10.81 21.84-13.87 45.89"/><path fill="#f7c86b" d="m523.64 218.54-.23 8.37a1 .99 72 0 1-.39.77q-2.1 1.62-4.11.37c-4.54-2.84-6.73-4.6-11.58-5.2a.63.63 0 0 0-.71.71l.4 2.83a1.18 1.15-44.3 0 1-.01.4q-.37 2.35-2.08 3.17a1.68 1.67 36.1 0 1-.99.15q-2.76-.4-7.01-1.19-1.2-.22-3.65 1.27a1.09 1.08 79.2 0 0-.51.76c-1.03 6.71-6.41 9.06-12.57 10.06l-4.97-1.66q7.86-1.08 10.93-2.15c5.88-2.05 5.45-7.78 1.59-11.64q-4.96-4.95-5.34-5.37a.27.27 0 0 1 .23-.44q5.88.68 8.84 2.34c5.34 3 10.26 6.33 12.37 6.59a1.34 1.33-84.3 0 0 1.5-1.23c.36-5.31-2.87-10.85-5.89-15.91q-.2-.33-.27-.82a.39.39 0 0 1 .54-.42c7.48 3.28 10.96 7.64 19.38 15.6q.54.51 1.67 1.01a1.2 1.19 16.5 0 0 1.67-.9zm125.12 67.58q2.27 4.97 7.94 7.42c-1.87 3.39 2.41 9.46 4.41 12.25q-.92.78-1.08 1.7a.2.2 0 0 1-.35.09q-3.83-4.82-5.9-10.59c-1.49-6.62-5.97-8.11-11.27-10.75q-3.63-1.81-6.1-3.49-1.88-1.27-21.56-14.33-7.39-4.91-14.16-8.08-13.85-6.47-25.84-10.96c-8.1-3.04-15.12-4.64-23.1-7.07q-6.5-1.98-9.68-4.12-9.38-6.31-14.64-17.61-.87-1.87-3.66-3.04.19-3.07 1.56-5.68a.46.45-52.6 0 1 .73-.1l.45.46a.28.1 70.7 0 1 .04.05c4.29 8.4 8.37 16.34 14.66 22.75 1.99 2.02 5.95 3.69 9.46 4.59q8.24 2.1 13.79 3.69 29.54 8.43 57.51 26.74 7.74 5.06 18.06 12.69 4.38 3.24 8.73 3.39"/><path fill="#efcd8b" d="M672.94 227.19q-5.75-.45-7.42-1.04c-11.33-3.98-22.44-2.14-33.21 2.17q-6.81 2.72-13.4 8.64-5.95 5.33-10.79 11.87-2.18-.98-3.1-1.9a.76.76 0 0 1-.14-.86q7.56-15.89 22.26-24.41c14.64-8.47 33.35-5 45.8 5.53m-259.37 22.34q-4.68-8.61-11.19-13.93-5.66-4.63-12.61-7.01-4.77-1.64-9.67-2.92-6.62-1.73-13.39-.94-12.04.31-19.88 8.71-1.2.42-2.46.4c13.86-16.72 36.96-22.6 55.31-9.49q11.86 8.46 18.38 22.08a.67.66-26.8 0 1-.29.87z"/><path fill="#f4bc47" d="M653.78 296.99c-8.48-6.83-11.07-3.79-12.55 6.16q-1.86 12.46-3.29 29.46-.93 11.13 1.76 20.11 3.04 10.15 14 14.36a1.45 1.44 42 0 0 1.19-.06q13.19-6.69 27.78-7.69a.51.51 0 0 1 .38.88l-.28.25q-12.43 2-24.08 6.94-3.16 1.35-5.75 3.64a1.12 1.12 0 0 0 .55 1.94c4.85.84 10.55-.69 15.44-1.43q2.46 1.27 3.88 1.26 2.44-.02 10.2-1.26 1.67-.27 8.98.55c2.35.27 4.89 1.22 7.26 1.61q3.44.57 5.46 1.09c12.37 3.19 24.62 8.65 35.04 16.42 5.08 3.78 21.5 15.31 21.35 21.52q-.12 4.79.05 9.55-2.4 30.03-23.67 50.71-13.4-5.46-24.37-14.07-6.21-4.88-12.55-9.66-21.07-15.86-47.56-17.31-17.59-.96-35.32-.76.48-.25.77-.22a.44.44 0 0 0 .22-.84q-1.07-.46-2.37-.56-14.35-1.11-27.4 1.86.25-7.57-1.28-15.53-2.41-12.54-7.45-25.38 12.11 2.17 22.15 6.73.51.24 2.84.29c4 .08 7.43-6.61 6.17-9.95a3.49 3.18 19.1 0 0-.48-.88q-.93-1.24-5.04-3.04-13.19-5.8-27.19-7.08a.13.13 0 0 1-.05-.25q5.82-3.2 21.51-12.01c3.07-1.72 7.29-4.15 5.52-8.66q-.93-2.39-4.59-5.11-3-2.1-8.09.2-10.34 4.66-19.85 11.02a2.16 2.16 0 0 1-3.23-1.07q-3.45-9.62-9.57-17.96-4.12-5.61-5.55-8.22a.41.41 0 0 1 .32-.61c6.03-.6 10.5-1.28 13.13-7.29 1.99-4.54 1.45-9.25-3.12-11.69l-1.37-.55q-6.49-1.69-12.37 2.44a2.37 2.32-66.9 0 1-.87.36q-7.23 1.42-13.29-3.27c-6.26-4.85-10.55-9.26-16.84-12.2q-2.65-1.24-11.28-6.06c-10.33-5.77-20.69-9.45-32.02-11.84-6.96-1.46-13.68-1.71-22.84-2.58-3.77-.36-8.36.93-12.9.69a.68.68 0 0 1-.36-1.24c4.03-2.85 6.63-5.32 8.03-10.04.53-2.67.13-7.38-3.14-8.11q-11.21-2.5-18.6 5.63-.79.87-3.25 3.26c-3.75 3.64-3.42 8.79-.93 13.19q-14.12 2.36-27.41 7.58-4.96 1.95-10.13 4.18.5-3.56 3.52-5.9 12.55-9.7 19.88-16.77a23.47 23.16 7.7 0 1 4.45-3.35q8.09-4.69 20.27-12.83c3.97-2.65 8.9-5.13 12.79-6.17q3.99-1.07 8.96-3.26 5.62-2.47 8.87-3.43 7.87-2.31 15.98-3.67c6.16-1 11.54-3.35 12.57-10.06a1.09 1.08 79.2 0 1 .51-.76q2.45-1.49 3.65-1.27 4.25.79 7.01 1.19a1.68 1.67 36.1 0 0 .99-.15q1.71-.82 2.08-3.17a1.18 1.15-44.3 0 0 .01-.4l-.4-2.83a.63.63 0 0 1 .71-.71c4.85.6 7.04 2.36 11.58 5.2q2.01 1.25 4.11-.37a1 .99 72 0 0 .39-.77l.23-8.37.13-1q2.79 1.17 3.66 3.04 5.26 11.3 14.64 17.61 3.18 2.14 9.68 4.12c7.98 2.43 15 4.03 23.1 7.07q11.99 4.49 25.84 10.96 6.77 3.17 14.16 8.08 19.68 13.06 21.56 14.33 2.47 1.68 6.1 3.49c5.3 2.64 9.78 4.13 11.27 10.75m-180.883-43.315a8.11 6.12-24.2 0 0-9.906-2.257 8.11 6.12-24.2 0 0-4.888 8.906 8.11 6.12-24.2 0 0 9.906 2.258 8.11 6.12-24.2 0 0 4.888-8.906m222.828 137.18a15.87 6.83-16 0 0-17.138-2.19 15.87 6.83-16 0 0-13.372 10.94 15.87 6.83-16 0 0 17.138 2.19 15.87 6.83-16 0 0 13.372-10.94M672.94 227.19c12.26 11.22 18.49 26.66 16.73 43.26-1.35 12.68-7.69 23.67-17.14 32.38a1.16 1.16 0 0 1-1.56.02c-4.2-3.74-8.59-8.36-13.57-9.58q4.59-3.53 7.46-8.86l-2.83 7.12a1.75 1.74 30.7 0 0 .51 1.98c4.08 3.36 8.97 5.45 13.39.85 6.48-6.74 8.76-15.41 9.84-23.82 1.42-11.09-1.39-30.96-13.02-36.51a1.06 1.05 29 0 0-1.34.38q-3.1 4.82-4.45 10.56l-2.56-4.66q2.56-.98.11-3.82c-7.17-8.33-17.21-7.73-26.18-2.35-8.36 5-13.57 12.71-17.89 21.56a.53.53 0 0 1-.75.21l-11.57-7.08q4.84-6.54 10.79-11.87 6.59-5.92 13.4-8.64c10.77-4.31 21.88-6.15 33.21-2.17q1.67.59 7.42 1.04m-259.37 22.34-10.02 6.56a.92.92 0 0 1-1.32-.33c-6.6-12.41-16.84-24.83-31.86-25.27q-1.04-3.46-3.66-5.76 6.77-.79 13.39.94 4.9 1.28 9.67 2.92 6.95 2.38 12.61 7.01 6.51 5.32 11.19 13.93"/><path fill="#ee9734" d="M366.71 224.73q2.62 2.3 3.66 5.76-8.61.65-12.97 7.43-.96 1.5.59 2.8-.43 1.17-1.99 4.51c-3.47 7.43-3.47 14.73-3.02 24.07.16 3.25 1.32 6.48 2.33 9.66q1.01 3.7 2.24 7.35 1.28 3.79 1.01 5.18c-.82 4.05-5.33 6.08-9.12 6.79a1.46 1.43 61.9 0 1-1.31-.41c-9.43-9.5-11.93-20.53-12.85-33.72-.46-6.64 2.93-16.97 5.82-21.56q2.85-4.53 5.73-9.15 7.84-8.4 19.88-8.71"/><path fill="#f4bc47" d="M346.83 233.44q-2.88 4.62-5.73 9.15c-2.89 4.59-6.28 14.92-5.82 21.56.92 13.19 3.42 24.22 12.85 33.72a1.46 1.43 61.9 0 0 1.31.41c3.79-.71 8.3-2.74 9.12-6.79q.27-1.39-1.01-5.18-1.23-3.65-2.24-7.35 3.63 7.83 8.47 14.85-6.2 3.56-11.94 9.41a.94.93 42.7 0 1-1.29.05c-20.67-18.3-23.03-47.69-6.18-69.43q1.26.02 2.46-.4"/><path fill="#ee9734" d="M664.86 284.41c4.93-9.36 7.09-19.48 4.7-29.96q-1.1-4.82-2.6-9.48 1.35-5.74 4.45-10.56a1.06 1.05 29 0 1 1.34-.38c11.63 5.55 14.44 25.42 13.02 36.51-1.08 8.41-3.36 17.08-9.84 23.82-4.42 4.6-9.31 2.51-13.39-.85a1.75 1.74 30.7 0 1-.51-1.98z"/><path fill="#f4b19e" d="m664.4 240.31 2.56 4.66q1.5 4.66 2.6 9.48c2.39 10.48.23 20.6-4.7 29.96q-2.87 5.33-7.46 8.86l-.7.27q-5.67-2.45-7.94-7.42-1.52-3.52-2.19-4.43-7.29-9.98-16.93-17.85a.8.8 0 0 1-.24-.86q3.45-10.42 10.9-18.35c6.27-6.69 15.97-10.37 24.1-4.32m-290.27 47.44-7.94 6.43q-1.39-.54-2.41-.37-4.84-7.02-8.47-14.85c-1.01-3.18-2.17-6.41-2.33-9.66-.45-9.34-.45-16.64 3.02-24.07q1.56-3.34 1.99-4.51 12.47-7.28 23.01 2.82 8.59 8.24 12.31 19.47a.71.71 0 0 1-.24.79q-4.56 3.53-13.68 13.57-4.62 5.09-5.26 10.38"/><path fill="#efcd8b" d="m475.23 239.35 4.97 1.66q-8.11 1.36-15.98 3.67-3.25.96-8.87 3.43-4.97 2.19-8.96 3.26c-3.89 1.04-8.82 3.52-12.79 6.17q-12.18 8.14-20.27 12.83a23.47 23.16 7.7 0 0-4.45 3.35q-7.33 7.07-19.88 16.77-3.02 2.34-3.52 5.9-17.3 8.59-31.85 21.79a.14.14 0 0 1-.21-.18q4-6.06 8.31-12.04 3.95-5.48 4.46-11.78l7.94-6.43q9.07-4.83 22.44-14.42c22.87-16.4 50.84-28.91 78.66-33.98"/><ellipse fill="#efcd8b" rx="8.11" ry="6.12" transform="rotate(-24.2 832.149 -957.182)"/><path fill="#efcd8b" d="M448.94 270.66c-2.97 6.9-8.1 8.46-13.2 12.64l-12.72 1.33c-2.49-4.4-2.82-9.55.93-13.19q2.46-2.39 3.25-3.26 7.39-8.13 18.6-5.63c3.27.73 3.67 5.44 3.14 8.11"/><path fill="#f7c86b" d="M448.94 270.66c-1.4 4.72-4 7.19-8.03 10.04a.68.68 0 0 0 .36 1.24c4.54.24 9.13-1.05 12.9-.69 9.16.87 15.88 1.12 22.84 2.58 11.33 2.39 21.69 6.07 32.02 11.84q8.63 4.82 11.28 6.06c6.29 2.94 10.58 7.35 16.84 12.2q6.06 4.69 13.29 3.27a2.37 2.32-66.9 0 0 .87-.36q5.88-4.13 12.37-2.44c-6.99-.4-13.71 5.07-14.27 12.12a3.14 3.07 39.4 0 0 .13 1.18c2.33 7.47 11.04 4.22 14.78.36 3.44-3.56 6.36-10.23.73-13.11 4.57 2.44 5.11 7.15 3.12 11.69-2.63 6.01-7.1 6.69-13.13 7.29a.41.41 0 0 0-.32.61q1.43 2.61 5.55 8.22 6.12 8.34 9.57 17.96a2.16 2.16 0 0 0 3.23 1.07q9.51-6.36 19.85-11.02 5.09-2.3 8.09-.2-2.37-.6-4.43.26-2.56 1.06-4.36 2.14-12.79 7.62-21 12.67a.66.66 0 0 1-.95-.29q-17.16-38.6-52.58-61.31-36.49-23.39-81.95-20.74c5.1-4.18 10.23-5.74 13.2-12.64"/><path fill="#ee9734" d="M653.78 296.99q2.07 5.77 5.9 10.59a.2.2 0 0 0 .35-.09q.16-.92 1.08-1.7 8.47 11.71 16.95 23.6 10.13 14.22 19.12 29.19a.39.39 0 0 1-.3.59l-14.11 1.29.28-.25a.51.51 0 0 0-.38-.88q-14.59 1-27.78 7.69a1.45 1.44 42 0 1-1.19.06q-10.96-4.21-14-14.36-2.69-8.98-1.76-20.11 1.43-17 3.29-29.46c1.48-9.95 4.07-12.99 12.55-6.16"/><path fill="#9b9b9b" d="M447.92 290.71q.47.44.44.64a.58.58 0 0 1-.6.5q-12.09-.66-23.78 2.39-13.71 3.58-16.47 4.53-16.43 5.63-34.15 18.04c-2.95 2.07-5.41 4.68-8.37 6.92q-2.97 2.23-6.05 5.48-10.36 10.89-18.43 22.66c-2.85 4.16-4.87 9.03-7.63 13.72q-2.56 4.35-4.53 10.23c-2.29 6.83-4.59 12.09-5.88 17.92q-5.62 25.23-1.93 46.96.99 5.86 5.93 26.18-14.19-35.54-6.79-73.67c2.4-12.4 6.35-23.05 12.16-34.25q16.8-32.38 47.72-50.64 31.2-18.42 68.36-17.61"/><path fill="#414141" d="M326.47 466.88q-4.94-20.32-5.93-26.18-3.69-21.73 1.93-46.96c1.29-5.83 3.59-11.09 5.88-17.92q1.97-5.88 4.53-10.23c2.76-4.69 4.78-9.56 7.63-13.72q8.07-11.77 18.43-22.66 3.08-3.25 6.05-5.48c2.96-2.24 5.42-4.85 8.37-6.92q17.72-12.41 34.15-18.04 2.76-.95 16.47-4.53 11.69-3.05 23.78-2.39a.58.58 0 0 0 .6-.5q.03-.2-.44-.64 12.69.14 24.85 3.08 7.59 1.83 18.86 5.8c11.9 4.18 21.41 10.7 32.46 18.55q9.47 6.72 18.01 17.01c7.5 9.03 13.82 17.36 18.71 27.51 3.12 6.47 6.77 15.23 8.66 22.95 1.48 6.07 3.59 12.95 4.18 19.29q1.56 16.56-.6 32.62-.49 3.67-2.84 13.72-1.75 7.49-4.05 13.37-8.48 21.62-23.34 39.22c-5.54 6.58-9.85 10.21-16.64 15.98q-12.78 10.86-30 18.41-10.4 4.56-14.9 5.59c-7.41 1.71-20.17 4.27-29.8 4.5q-19.05.43-37.02-3.78c-10.03-2.35-18.89-6.64-27.57-10.87-14.74-7.18-26.39-17.7-37.88-29.67-8.78-9.15-14.49-19.75-20.72-32.28q-1.45-2.92-1.82-4.83m22.18 18.39q6.74 9.95 11.39 14.69 24.57 25.04 57.2 33.41 21.02 5.4 45.55 2.65c8.15-.91 15.44-3.82 22.5-5.66q5.22-1.36 11.81-4.88 9.54-5.08 11.25-6.15 16.2-10.14 30.42-27.7c4.28-5.28 9.26-14.25 11.89-19.17 4.5-8.42 6.84-17.03 9.56-27.03 3.69-13.55 3.01-28.15 1.72-42.17q-.63-6.84-2.11-11.96c-3.72-12.82-9.3-26.54-16.86-37.7-7.57-11.16-18.23-21.43-28.77-29.63q-4.2-3.28-10.32-6.4c-12.54-6.4-25.85-12.44-39.8-14.03-10.3-1.19-19.16-2.2-28.65-1.15-5.55.62-15.72 1.92-22.21 3.94q-21.58 6.7-37.01 17.99-1.63 1.19-9.88 8.16-5.71 4.82-8.91 9.16c-4.33 5.88-9.73 11.57-13.6 18.8q-11.64 21.77-14.42 43.29-4.32 33.41 9.83 65.51 2.67 6.07 9.42 16.03"/><path fill="#040202" d="M542.97 353.6c7.56 11.16 13.14 24.88 16.86 37.7q1.48 5.12 2.11 11.96c1.29 14.02 1.97 28.62-1.72 42.17-2.72 10-5.06 18.61-9.56 27.03-2.63 4.92-7.61 13.89-11.89 19.17q-14.22 17.56-30.42 27.7-1.71 1.07-11.25 6.15-6.59 3.52-11.81 4.88c-7.06 1.84-14.35 4.75-22.5 5.66q-24.53 2.75-45.55-2.65-32.63-8.37-57.2-33.41-4.65-4.74-11.39-14.69-6.75-9.96-9.42-16.03-14.15-32.1-9.83-65.51 2.78-21.52 14.42-43.29c3.87-7.23 9.27-12.92 13.6-18.8q3.2-4.34 8.91-9.16 8.25-6.97 9.88-8.16 15.43-11.29 37.01-17.99c6.49-2.02 16.66-3.32 22.21-3.94 9.49-1.05 18.35-.04 28.65 1.15 13.95 1.59 27.26 7.63 39.8 14.03q6.12 3.12 10.32 6.4c10.54 8.2 21.2 18.47 28.77 29.63m-191.03 9.36-4 7.26c-3.18 5.24-5.36 11.91-7.09 17.75l-3.21 14.26c-5.92 36.68 7.5 73.14 34.4 98.06q23.64 21.26 54.99 26.87c33.16 5.93 65.27-3.15 90.71-25.03q7.08-6.04 13.09-13.57 1.1-.83 1.81-1.97l6.5-10.68q1.48-1.19 2.81-3.71 9.54-18.08 12.02-37.27c4.31-29.45-3.9-59.26-22.15-82.51q-20.86-26.56-52.95-37.29-7.43-2.49-14.33-3.48l-9.07-1.09q-29.14-2.91-55.36 9.03-30.45 13.88-47.77 42.47-.22.36-.4.9"/><path fill="#f7c86b" d="M455.47 310.56q-2.42 1.98-2.82 3.3c-1.53 4.98 3.49 10.56 7.58 12.88q-4.62 2.42-5.44 5.32-1.08 3.83-1.17 4.14a3.94 3.82-40.1 0 0-.15 1.48q.64 6.42 5.15 9.78 1.66 1.24 7.59 2.73 10.29 2.59 17.1 6.77 6.25 3.82 14.65 10.57c4.24 3.41 9.29 5.21 14.42 2.52 4.37-2.29 5.93-7.67 5.05-12.3q-1.34-7.02-6.94-11.76-7.39-6.25-15.01-10.74-11.62-6.83-25.46-8.36 1.57-1.56 1.39-3.63-.59-6.71-6.87-11.61 6.9.99 14.33 3.48 32.09 10.73 52.95 37.29c18.25 23.25 26.46 53.06 22.15 82.51q-6.76-8.19-15-13.96c-4.05-2.84-7.45-5.14-11.76-6.48q-21.43-6.65-40.75 3.79c-4.01 2.17-7.42 5.14-10.7 8.49q-7.84 8.02-14.85 16.67-26.67-16.78-58.39-13.38a.45.45 0 0 0-.29.74q.24.27.71.39l-.77-.05a2.69 2.63-29.3 0 1-.93-.25c-13.66-6.53-24.95-7.33-41.24-8.9q-10.82-1.05-21.47-6.34a.73.71 15.9 0 1-.4-.7l1.08-12.83c4.2 1.33 13.71 3.03 16.88-1.17 2.54-3.36-3.24-8.27-5.91-9.64q-2.5-1.27-9.33-3.34c1.73-5.84 3.91-12.51 7.09-17.75 6.45 1.37 13.88 3.14 20.39 2.51a1.07 1.07 0 0 0 .61-1.86c-4.4-3.97-11.22-6.37-17-7.91q.18-.54.4-.9 17.32-28.59 47.77-42.47 26.22-11.94 55.36-9.03m-15.104 36.06a33.69 27.81-87.2 0 0-29.423 32.291 33.69 27.81-87.2 0 0 26.131 35.009 33.69 27.81-87.2 0 0 29.423-32.292 33.69 27.81-87.2 0 0-26.131-35.008m88.974 39.42a6.68 6.68 0 0 0-6.68-6.68 6.68 6.68 0 0 0-6.68 6.68 6.68 6.68 0 0 0 6.68 6.68 6.68 6.68 0 0 0 6.68-6.68"/><path fill="#414141" d="M464.54 311.65q6.28 4.9 6.87 11.61.18 2.07-1.39 3.63-3.2.67-4.52.44-2.98-.51-5.27-.59c-4.09-2.32-9.11-7.9-7.58-12.88q.4-1.32 2.82-3.3z"/><path fill="#040202" d="m563.68 314.4 1.37.55c5.63 2.88 2.71 9.55-.73 13.11-3.74 3.86-12.45 7.11-14.78-.36a3.14 3.07 39.4 0 1-.13-1.18c.56-7.05 7.28-12.52 14.27-12.12"/><path fill="#fdf1cd" d="M470.02 326.89q13.84 1.53 25.46 8.36 7.62 4.49 15.01 10.74 5.6 4.74 6.94 11.76c.88 4.63-.68 10.01-5.05 12.3-5.13 2.69-10.18.89-14.42-2.52q-8.4-6.75-14.65-10.57-6.81-4.18-17.1-6.77-5.93-1.49-7.59-2.73-4.51-3.36-5.15-9.78a3.94 3.82-40.1 0 1 .15-1.48q.09-.31 1.17-4.14.82-2.9 5.44-5.32 2.29.08 5.27.59 1.32.23 4.52-.44"/><path fill="#414141" d="M440.366 346.62a33.69 27.81-87.2 0 1 26.13 35.008 33.69 27.81-87.2 0 1-29.422 32.292 33.69 27.81-87.2 0 1-26.13-35.009 33.69 27.81-87.2 0 1 29.422-32.29m-5.131 8.97a10.42 9.01-89.7 0 0-9.065 10.373 10.42 9.01-89.7 0 0 8.955 10.467 10.42 9.01-89.7 0 0 9.065-10.373 10.42 9.01-89.7 0 0-8.955-10.467m15.502 29.202a5.44 5.18-95.2 0 0-4.666 5.888 5.44 5.18-95.2 0 0 5.652 4.948 5.44 5.18-95.2 0 0 4.666-5.887 5.44 5.18-95.2 0 0-5.652-4.949"/><ellipse fill="#fff" rx="10.42" ry="9.01" transform="rotate(-89.7 401.556 -35.727)"/><path fill="#414141" d="M351.94 362.96c5.78 1.54 12.6 3.94 17 7.91a1.07 1.07 0 0 1-.61 1.86c-6.51.63-13.94-1.14-20.39-2.51z"/><path fill="#efcd8b" d="m762.35 401.82-1.2 20.47q-.17-4.76-.05-9.55c.15-6.21-16.27-17.74-21.35-21.52-10.42-7.77-22.67-13.23-35.04-16.42q-2.02-.52-5.46-1.09c-2.37-.39-4.91-1.34-7.26-1.61q-7.31-.82-8.98-.55-7.76 1.24-10.2 1.26-1.42.01-3.88-1.26 7.98-1.38 17.95-1.87 17.39-.86 33.42 3.9 26.06 7.73 42.05 28.24m-445.57-26.25q-16.91 4.63-31.25 14.71-10.78 7.59-20.03 16.36a6.13 5.98-4.5 0 0-.64.73l-3.47 4.88a2.45 2.42 60.5 0 0-.44 1.63l1.36 15.26a1.07 1.03-72.4 0 0 .34.68q.67.59.71 1.68.1 2.41-.1 4.66-2.11-6.1-2.44-12.72-.22-4.22-.58-7.77-.47-4.67.77-9.81a4.78 4.51 68.5 0 1 .49-1.22q2.21-3.82 6.05-7.09 7.42-6.3 14.12-10.91 4.57-3.13 8.19-7.47 13.4-6.35 28.1-8.45a.3.3 0 0 1 .33.39z"/><path fill="#f4bc47" d="m316.78 375.57-.98 2.89q-3.76 2.95-5.58 8.93-3.43 11.2-3.42 18.12.03 15.74-.02 18.6c-.16 10.41 1.33 17.9 4.12 28.99a1.36 1.34-36.3 0 1-.17 1.07q-8.63 13.54-22.92 21.33-17.76-15.71-24.55-39.34.2-2.25.1-4.66-.04-1.09-.71-1.68a1.07 1.03-72.4 0 1-.34-.68l-1.36-15.26a2.45 2.42 60.5 0 1 .44-1.63l3.47-4.88a6.13 5.98-4.5 0 1 .64-.73q9.25-8.77 20.03-16.36 14.34-10.08 31.25-14.71"/><path fill="#f7c86b" d="M315.8 378.46q-3.93 11.95-5.32 24.54-5.68 51.36 23.78 95.13-26.32-4.45-46.45-22.63 14.29-7.79 22.92-21.33a1.36 1.34-36.3 0 0 .17-1.07c-2.79-11.09-4.28-18.58-4.12-28.99q.05-2.86.02-18.6-.01-6.92 3.42-18.12 1.82-5.98 5.58-8.93"/><path fill="#fdf1cd" d="M289.86 379.17q-3.62 4.34-8.19 7.47-6.7 4.61-14.12 10.91-3.84 3.27-6.05 7.09a4.78 4.51 68.5 0 0-.49 1.22q-1.24 5.14-.77 9.81.36 3.55.58 7.77.33 6.62 2.44 12.72 6.79 23.63 24.55 39.34 20.13 18.18 46.45 22.63 8.49 10.31 10.75 12.86 7.34 8.29 17.27 15.86c15.38 11.72 32.99 20.92 51.65 25.24q8.6 1.99 22.78 3.63-4.28 1.63-8.22 3.01c-6.19 2.17-11.97 3.16-18.9 5.02-14.17 3.81-28.83 5.14-44.84 5.1q-15.59-.03-28.08-2.62-14.3-2.96-27.14-7.87-33.97-13.01-58.07-41.57c-5.39-6.38-9.39-13.59-13.68-20.87a1.3 1.29-12.3 0 0-.97-.62q-.55-.07-.87-1.07a.3.3 0 0 0-.59.04q-.06.34.08.9-2.9-22.12 1.7-44.05c6.27-29.93 24.78-58.41 52.73-71.95"/><circle cx="522.66" cy="386.04" r="6.68" fill="#fdf1cd"/><ellipse fill="#fff" rx="5.44" ry="5.18" transform="rotate(-95.2 403.77 -10.91)"/><ellipse fill="#fdf1cd" rx="15.87" ry="6.83" transform="rotate(-16 1746.339 -2223.283)"/><path fill="#fdf1cd" d="M339.21 402.12q-1.05.64-1.57.11l3.21-14.26q6.83 2.07 9.33 3.34c2.67 1.37 8.45 6.28 5.91 9.64-3.17 4.2-12.68 2.5-16.88 1.17"/><path fill="#ee9734" d="M580.17 390.53q5.04 12.84 7.45 25.38 1.53 7.96 1.28 15.53l-7.38 2.02a.27.27 0 0 1-.34-.29q2.25-21.26-2.69-42.13a.59.59 0 0 1 .22-.61q.58-.41 1.46.1"/><path fill="#efcd8b" d="m339.21 402.12-1.08 12.83a.73.71 15.9 0 0 .4.7q10.65 5.29 21.47 6.34c16.29 1.57 27.58 2.37 41.24 8.9a2.69 2.63-29.3 0 0 .93.25l.77.05q28.07 4.53 55.07 14.95-1.76 4.25-5.87 8.92-25.59-.37-48.54 12.28-2.42 1.34-4.4 2.97a.3.3 0 0 0 .28.52q22.32-6.81 47.87-10.13-11.7 13.52-27.16 22.73-20.41 12.16-42.58 17.24a2.84 2.79 41.1 0 1-.85.05l-4.72-.43c-26.9-24.92-40.32-61.38-34.4-98.06q.52.53 1.57-.11"/><path fill="#fdf1cd" d="M762.35 401.82c20.22 23.16 28.18 56.28 25.87 86.46q-3.47 7.21-7.6 14.31c-2.28 3.9-4.47 8.07-7.37 11.44q-11.21 13.01-17.95 19.03-7.24 6.48-15.35 11.57-50.17 31.52-110.06 22.51-19.68-2.96-42.43-9.49-4.36-1.25-6.62-2.24c-2.69-1.19-6.14-1.79-8.78-3.5a1.61 1.59 60.9 0 0-.92-.27l-3.83.01q-3.88-1.96-8.16-1.17-10.77-3.55-23.46-2.17a.83.83 0 0 0-.48 1.43q2 1.89 4.34 3.94 9.01 7.86 17.24 16.6c-19.5 4.87-39.04 9.9-57.61 17.48a.88.88 0 0 1-1.21-.71q-1.43-11.94-1.7-14.07-.7-5.56-5.91-6.85a.81.79 2.4 0 1-.59-.63l-.52-3.05 3.58 2.33a.65.64-82.5 0 0 .96-.74l-1.05-3.25a1.54 1.54 0 0 1 .8-1.86q4.77-2.3 9.88-3.76c8.24-2.36 14.56-6.22 22.31-10.45q6.09-3.32 9.99-6.27 14.07-10.65 25.17-23.4c6.02-6.91 10.9-14.17 14.91-21.26q5.35-9.45 8.28-21.06.28-1.08 1.4-.77c33.65 27.53 78.16 36.37 119.39 21.66q17.44-6.22 32.61-20.62 21.27-20.68 23.67-50.71zm-208.38 33.11q-2.48 19.19-12.02 37.27-1.33 2.52-2.81 3.71c-10.25 2.25-19.64-2.27-23.36-11.97q-.39-1.02-.32-9.84a.78.78 0 0 1 .51-.73q8.47-3.18 14.11-10.52 4.24-5.52 1.93-9.89-3.27-4.8-8.69-6.06-12.39-2.89-26.03 1.15-3.78 1.12-6.74 5.48c-2.51.5-1.55 4.22-.76 5.73q5.2 9.94 15.61 13.73a1.03 1.03 0 0 1 .68.91c.28 4.41.27 9.58-2.52 13.66-5.94 8.65-17.76 12.53-26.41 5.46q-2.62-2.14-5.28-5.15a1.55 1.55 0 0 0-2.63.52q-.22.67.14 2.22 2.6 11.14 13.77 14.77.84.27 5.4.73a.74.74 0 0 1 .63.56c1.19 4.89 2.35 8.73 6.15 11.99 5.4 4.64 15.34 4.67 22.41 3.47-25.44 21.88-57.55 30.96-90.71 25.03q-31.35-5.61-54.99-26.87l4.72.43a2.84 2.79 41.1 0 0 .85-.05q22.17-5.08 42.58-17.24 15.46-9.21 27.16-22.73l14.52-2.58a.77.77 0 0 0 .24-1.43c-2.91-1.62-6.51-1.62-9.97-1.63q4.11-4.67 5.87-8.92l5.89 2.12a.67.67 0 0 0 .7-1.1l-3.69-3.72q7.01-8.65 14.85-16.67c3.28-3.35 6.69-6.32 10.7-8.49q19.32-10.44 40.75-3.79c4.31 1.34 7.71 3.64 11.76 6.48q8.24 5.77 15 13.96"/><path fill="#f4b19e" d="M532.01 432.96q-7.09 7.19-15.57 11.47-5.81 2.94-11.81-.32-8.33-4.52-14.08-10.58 2.96-4.36 6.74-5.48 13.64-4.04 26.03-1.15 5.42 1.26 8.69 6.06m-24.47-.436a5.38 3.33-.7 0 0-5.42-3.264 5.38 3.33-.7 0 0-5.34 3.396 5.38 3.33-.7 0 0 5.42 3.264 5.38 3.33-.7 0 0 5.34-3.396"/><ellipse fill="#fff" rx="5.38" ry="3.33" transform="rotate(-.7 35658.613 -40885.549)"/><path fill="#414141" d="m460.91 443.44 3.69 3.72a.67.67 0 0 1-.7 1.1l-5.89-2.12q-27-10.42-55.07-14.95-.47-.12-.71-.39a.45.45 0 0 1 .29-.74q31.72-3.4 58.39 13.38"/><path fill="#f7c86b" d="M737.48 473q-15.17 14.4-32.61 20.62c-41.23 14.71-85.74 5.87-119.39-21.66q-.58-.64-.81-1.21.14-.01.34-.16a.99.97 76.6 0 0 .39-.65l1.01-7.36q17.9 2.83 35.6 7.98a.35.35 0 0 0 .29-.63c-10.78-6.93-21.26-10.87-34.92-13.66q2.43-9.46 1.18-18.49 13.67-4.23 29.12-6.58 17.73-.2 35.32.76 26.49 1.45 47.56 17.31 6.34 4.78 12.55 9.66 10.97 8.61 24.37 14.07"/><path fill="#414141" d="M532.01 432.96q2.31 4.37-1.93 9.89-5.64 7.34-14.11 10.52a.78.78 0 0 0-.51.73q-.07 8.82.32 9.84c3.72 9.7 13.11 14.22 23.36 11.97l-6.5 10.68q-.48-1.12-1.4-.35-1.04.89-.41 2.32-6.01 7.53-13.09 13.57c-7.07 1.2-17.01 1.17-22.41-3.47-3.8-3.26-4.96-7.1-6.15-11.99a.74.74 0 0 0-.63-.56q-4.56-.46-5.4-.73-11.17-3.63-13.77-14.77-.36-1.55-.14-2.22a1.55 1.55 0 0 1 2.63-.52q2.66 3.01 5.28 5.15c8.65 7.07 20.47 3.19 26.41-5.46 2.79-4.08 2.8-9.25 2.52-13.66a1.03 1.03 0 0 0-.68-.91q-10.41-3.79-15.61-13.73c-.79-1.51-1.75-5.23.76-5.73q5.75 6.06 14.08 10.58 6 3.26 11.81.32 8.48-4.28 15.57-11.47m-9.04 51.14q-6.63-3.04-11.83-8.86a.48.48 0 0 0-.73.01q-5.51 6.61-14 9.56a.66.66 0 0 0-.43.76q1.7 7.72 8.49 8.21h6.02c2.43 0 8.06.35 9.64-1.58q2.32-2.86 3.34-7.08a.9.89 19.2 0 0-.5-1.02"/><path fill="#ee9734" d="M588.56 437.78q1.25 9.03-1.18 18.49l-9.63-1.19a.36.35-81.2 0 1-.31-.43l2.89-13.88a.66.66 0 0 1 .43-.48z"/><path fill="#414141" d="M452.14 455.06c3.46.01 7.06.01 9.97 1.63a.77.77 0 0 1-.24 1.43l-14.52 2.58q-25.55 3.32-47.87 10.13a.3.3 0 0 1-.28-.52q1.98-1.63 4.4-2.97 22.95-12.65 48.54-12.28"/><path fill="#ee9734" d="m586.41 462.58-1.01 7.36a.99.97 76.6 0 1-.39.65q-.2.15-.34.16-6.12-3.33-9.46-9.29 4.44-.76 11.2 1.12"/><path fill="#efcd8b" d="M584.67 470.75q.23.57.81 1.21-1.12-.31-1.4.77-2.93 11.61-8.28 21.06c-4.01 7.09-8.89 14.35-14.91 21.26q-11.1 12.75-25.17 23.4-3.9 2.95-9.99 6.27c-7.75 4.23-14.07 8.09-22.31 10.45q-5.11 1.46-9.88 3.76a1.54 1.54 0 0 0-.8 1.86l1.05 3.25a.65.64-82.5 0 1-.96.74l-3.58-2.33-1.96-12.16a.63.63 0 0 1 .42-.69q37.82-12.5 63.13-43.28 16.13-19.61 24.37-44.86 3.34 5.96 9.46 9.29"/><path fill="#fff" d="M523.47 485.12q-1.02 4.22-3.34 7.08c-1.58 1.93-7.21 1.58-9.64 1.58h-6.02q-6.79-.49-8.49-8.21a.66.66 0 0 1 .43-.76q8.49-2.95 14-9.56a.48.48 0 0 1 .73-.01q5.2 5.82 11.83 8.86a.9.89 19.2 0 1 .5 1.02m-14.285-7.409a5.13 1.38-91.4 0 0-1.255 5.163 5.13 1.38-91.4 0 0 1.505 5.094 5.13 1.38-91.4 0 0 1.255-5.162 5.13 1.38-91.4 0 0-1.505-5.094"/><ellipse fill="#414141" rx="5.13" ry="1.38" transform="rotate(-91.4 490.247 -7.087)"/><path fill="#f4b19e" d="M532.64 486.59q-.71 1.14-1.81 1.97-.63-1.43.41-2.32.92-.77 1.4.35"/><path fill="#efcd8b" d="M788.22 488.28c-3 36.49-23.46 66.43-55.62 83.06q-30.55 15.79-65.4 13.83c-27.41-1.54-51.74-8.56-76.57-20.82q-5.92-2.92-23.32-12.7l3.83-.01a1.61 1.59 60.9 0 1 .92.27c2.64 1.71 6.09 2.31 8.78 3.5q2.26.99 6.62 2.24 22.75 6.53 42.43 9.49 59.89 9.01 110.06-22.51 8.11-5.09 15.35-11.57 6.74-6.02 17.95-19.03c2.9-3.37 5.09-7.54 7.37-11.44q4.13-7.1 7.6-14.31m-351.51 67.44 8.96.02a.14.14 0 0 1 .07.27q-13.44 7.43-21.93 11.55-39.31 19.05-82.42 17.59c-23.91-.8-49.22-9.4-68.48-24.3-20.9-16.17-33.76-39.44-37.48-65.68q-.14-.56-.08-.9a.3.3 0 0 1 .59-.04q.32 1 .87 1.07a1.3 1.29-12.3 0 1 .97.62c4.29 7.28 8.29 14.49 13.68 20.87q24.1 28.56 58.07 41.57 12.84 4.91 27.14 7.87 12.49 2.59 28.08 2.62c16.01.04 30.67-1.29 44.84-5.1 6.93-1.86 12.71-2.85 18.9-5.02q3.94-1.38 8.22-3.01m122.44-5.24q13.69 13.03 29.9 22.01.12 1.07-.02 1.4a1.11 1.1 28.7 0 1-1.69.49l-14.19-10.42a.86.81 61.3 0 0-.53-.17c-4.88.08-11.34 2.17-14.66 6.4l-1.17.09q-8.23-8.74-17.24-16.6-2.34-2.05-4.34-3.94a.83.83 0 0 1 .48-1.43q12.69-1.38 23.46 2.17"/><path fill="#9b9b9b" d="m470.64 568.2-.87-5.01a1.45 1.44 84.1 0 0-1.48-1.21l-6.88.23-.96-6.22a.59.59 0 0 1 .49-.67l18.66-2.61a.47.46 81.8 0 1 .52.39l1.78 12.72a.52.51 81.4 0 1-.42.58z"/><path fill="#efcd8b" d="M421.7 578.59a.21.21 0 0 1-.06-.4q17.12-8.62 31.32-19.88a.28.27 66.9 0 1 .44.18l1.63 11.63a1.41 1.38 65.6 0 1-.45 1.23c-3.85 3.45-3.4 7.23-2.49 11.8a.13.13 0 0 1-.15.16z"/><path fill="#fdf1cd" d="m470.64 568.2-7.56.87a.51.5-8.4 0 1-.56-.41l-1.11-6.45 6.88-.23a1.45 1.44 84.1 0 1 1.48 1.21z"/><path fill="#f4bc47" d="m589.05 572.49 3.95 2.22q-.29.84-.75.9-.41.05-.97-.03a.27.27 0 0 0-.21.47q2.49 2.07 3.88 2.96 11.42 7.29 19.28 11.51c38.85 20.9 86.17 25.16 127.75 8.9 6.6-2.58 13.35-6.62 19.07-9.27 1.28-.59 1.06-1.88 1.75-2.86a.61.6-56.4 0 1 .81-.17l.56.36q5.45 39.05-2.19 77.45-2.57 2.38-3.68 4.62-13.42 27.19-34.56 48.95-3.65 3.77-7.6 7.36 1.72-10.73 6.59-20.29a.54.45 66.6 0 0 .06-.2l.87-6.99a.89.87-68.7 0 0-.34-.81q-1.4-1.03-1.54-.43-3-2.76-5.89-.72-3.12 2.2-5.02 5.67-5.14-5.53-15.06-15.11-13.09-12.65-30.24-16.7-5.16-1.22-19.08-3.97-6.67-1.32-18.75-5.8-3.3-12.46-9.78-23.47a.63.62-32.7 0 0-.89-.19q-8.49 6.01-18.1 10.35l-3.69.77 4.32-3.9a.86.86 0 0 0-.72-1.48l-4.1.68q-5.41-.79-8.02-.34-12.15 2.11-24.02 2.39a1.66 1.59 54.2 0 1-.66-.12q-9.43-3.76-10.17-14.92-.29-4.39-1.77-14.13c-1.33-8.75-4.32-16.33-8.55-23.66q-3.36-5.83 2.24-8.99 7.64-4.31 12.66-9.02l4.18-3.11a.6.6 0 0 0-.33-1.08l-2.38-.1c3.32-4.23 9.78-6.32 14.66-6.4a.86.81 61.3 0 1 .53.17l14.19 10.42a1.11 1.1 28.7 0 0 1.69-.49q.14-.33.02-1.4m152.174 63.717a9.8 4.82-78.8 0 0-6.632 8.677 9.8 4.82-78.8 0 0 2.825 10.55 9.8 4.82-78.8 0 0 6.631-8.678 9.8 4.82-78.8 0 0-2.825-10.55m-8.522 30.798a9.29 4.83-70.1 0 0-7.704 7.091 9.29 4.83-70.1 0 0 1.38 10.38 9.29 4.83-70.1 0 0 7.704-7.092 9.29 4.83-70.1 0 0-1.38-10.38"/><path fill="#ee9734" d="M417.39 582.81q-1.53 2.6-4.59 4.03c-4.32 2.04-8.66 4.98-12.46 6.75q-8.43 3.91-14.87 6.35-21.01 7.99-43.75 9.53-36.05 2.45-68.72-12.77-3.28-1.52-5.51-3.06l-9.81-5.75 3.32-20.04a.28.28 0 0 1 .46-.17c28.93 23.51 65.81 32.3 103.29 27.66q26.99-3.34 49.48-13.56a1.03 1.01 43.9 0 1 .83-.01zm346.78 4.67-.56-.36a.61.6-56.4 0 0-.81.17c-.69.98-.47 2.27-1.75 2.86-5.72 2.65-12.47 6.69-19.07 9.27-41.58 16.26-88.9 12-127.75-8.9q-7.86-4.22-19.28-11.51-1.39-.89-3.88-2.96a.27.27 0 0 1 .21-.47q.56.08.97.03.46-.06.75-.9c52.46 28.15 118.39 31.67 167.36-6.66a.41.41 0 0 1 .66.25z"/><path fill="#f7c86b" d="M556.49 574.48q-5.02 4.71-12.66 9.02-5.6 3.16-2.24 8.99c4.23 7.33 7.22 14.91 8.55 23.66q1.48 9.74 1.77 14.13.74 11.16 10.17 14.92a1.66 1.59 54.2 0 0 .66.12q11.87-.28 24.02-2.39 2.61-.45 8.02.34-28.25 7.35-56.25 1.92-10.23-1.98-24.05-5.85-.29-2.07.45-3.53c1.24-2.48 2.05-5.08 3.09-7.66q1.16-2.86 1.58-5.97 2.26-16.41-8.92-28.82 17.16-5.12 29.51-10.43 6.22-2.67 16.3-8.45"/><path fill="#414141" d="m468.05 587.35-1.39-10.22 10.49-1.35a.99.99 0 0 1 1.12.89l1.3 14.66a.36.36 0 0 1-.57.33c-3.23-2.31-7.19-3.03-10.95-4.31"/><path fill="#9b9b9b" d="m466.66 577.13 1.39 10.22-6.9-1.49a.95.95 0 0 1-.74-.8l-.92-6.52a.65.65 0 0 1 .58-.73z"/><path fill="#f7c86b" d="M445.05 591.47q-3.9 9.11-4.56 12.29-1.36 6.48-.25 12.48.45 2.41.45 3.5a2.21 1.81-57.6 0 0 .06.5q2.94 10.65 10.73 18.34-9.68 4.21-19.62 7.59-18.43 6.27-38.61 5.97-5.86-.09-10.17-.81c8.85-2.8 15.67-5.91 16.96-16.23.58-4.65.86-13.84 2.23-20.49 1.95-9.49 5.68-18.14 10.53-27.77q3.06-1.43 4.59-4.03 12.69 5.93 27.66 8.66"/><path fill="#f4bc47" d="M412.8 586.84c-4.85 9.63-8.58 18.28-10.53 27.77-1.37 6.65-1.65 15.84-2.23 20.49-1.29 10.32-8.11 13.43-16.96 16.23l-6.48-.84a.63.63 0 0 0-.53 1.08l1.92 1.9q-8.51 1.33-20.12 4.29-23.83 6.08-36.82 26.51-5.43 8.55-9.84 17.84-1.71-2.86-4.25-4.81-2.49-1.93-4.02-1.5c-6.59 1.86-.52 10.98 2.36 13.58l-3.26 12.82q-22.5-22.01-37.35-49.81l-.1-.16-1-1.27a.71.71 0 0 0-1.27.45l.05 3.38-1.61-9.33q1.15-3.1.28-6.36a3.07 2.98 38.4 0 1-.1-.77q-.23-20.16.37-30.56.58-9.96 1.91-15.79 2.16-9.44 4.27-18.34 2.23 1.54 5.51 3.06 32.67 15.22 68.72 12.77 22.74-1.54 43.75-9.53 6.44-2.44 14.87-6.35c3.8-1.77 8.14-4.71 12.46-6.75m-132.164 49.22a9.82 4.86-101 0 0-2.897 10.567 9.82 4.86-101 0 0 6.645 8.713 9.82 4.86-101 0 0 2.897-10.567 9.82 4.86-101 0 0-6.645-8.713m8.372 30.905a9.34 4.79-110.9 0 0-1.143 10.434 9.34 4.79-110.9 0 0 7.807 7.016 9.34 4.79-110.9 0 0 1.143-10.434 9.34 4.79-110.9 0 0-7.807-7.016"/><path fill="#efcd8b" d="m257.68 587.89 9.81 5.75q-2.11 8.9-4.27 18.34-1.33 5.83-1.91 15.79-.6 10.4-.37 30.56a3.07 2.98 38.4 0 0 .1.77q.87 3.26-.28 6.36-2.19-7.87-3.19-16.71-3.48-30.77.11-60.86"/><path fill="#fdf1cd" d="M451.48 638.58q-7.79-7.69-10.73-18.34a2.21 1.81-57.6 0 1-.06-.5q0-1.09-.45-3.5-1.11-6 .25-12.48.66-3.18 4.56-12.29 11.04 1.4 22.36 4.68 4.43 1.29 8.04 3.57a.65.65 0 0 1-.23 1.19q-7.33 1.4-12.64 4.69a.76.76 0 0 0 .4 1.41h18.19a1.89 1.89 0 0 1 1.53 3c-2.38 3.3-9.01 5.24-15.33 7.83q-.63.26-1.29.91a.87.87 0 0 0 .46 1.48q6.9 1.24 13.05-.71a.39.39 0 0 1 .43.61c-6.8 9.12-18.3 14.25-28.54 18.45m59.2-45.22q11.18 12.41 8.92 28.82-.42 3.11-1.58 5.97c-1.04 2.58-1.85 5.18-3.09 7.66q-.74 1.46-.45 3.53-11.13-2.05-22.49-5.81-4.43-1.46-7.27-3.88a.71.69 34.5 0 1-.17-.86c.74-1.37 1.75-2.42 3.6-2.63q3.46-.38 5.95-1.47a.99.98-47.3 0 0-.07-1.83l-4.73-1.65a.76.75 15.5 0 1-.49-.86l1.58-7.56a1.37 1.37 0 0 1 .94-1.04q1.41-.44 3.55-.88.87-.17 1.18-.69a.86.81 28.3 0 0-.39-1.18q-1.9-.9-3.92-1.68a1.41 1.38 87.6 0 1-.76-.71l-1.93-4.16a.69.68-30.9 0 1 .21-.82q1.76-1.34 2.87-1.78 8.93-3.59 18.54-6.49"/><path fill="#414141" d="m481.49 686.69-6.89-49.54q.59-1.33 2.77-1.77a1.31 1.29 56.9 0 1 1.01.22q5.3 3.83 11.15 5.77c2.8.93 4.81 2.02 7.6 2.98a2.76 2.74-84.8 0 1 1.84 2.22l4.65 33.16a2.1 2.09 71.4 0 1-1.05 2.12q-10.43 5.9-21.08 4.84"/><ellipse fill="#040202" rx="9.82" ry="4.86" transform="rotate(259 407.392 206.408)"/><ellipse fill="#040202" rx="9.8" ry="4.82" transform="rotate(-78.8 762.777 -127.121)"/><path fill="#fdf1cd" d="M627.74 660.51q5.26 18.13 4.81 36.77-.11 4.27-1.51 15.52-.95 7.59-1.54 15.53-6.99 12.21-11.2 26.63l-7 10.65a.94.49-27.5 0 1-.07.1l-4.17 4.19a1.78 1.73 12.9 0 1-.71.43l-5.79 1.87-.08.02q-4.47.55-8.55 1.28c-25.49 4.54-50.75 3.93-76.11 2.8q-7.09-.31-22.63.42-14.51.68-25.26.4-17.71-.48-43.52-4.07c-2.86-.4-9.18-1.82-10.79-4.17q-4.71-6.88-9.78-13.7-4.36-13.26-9.76-24.66-3.92-22.91-4.32-36.77-.4-13.9 4.25-30.34 8.74 4.49 18.24 5.66c15.98 1.96 29.82.84 44.51-2.55a1.06 1.06 0 0 1 1.29.89q1.34 10.14 2.88 18.22 1.27 6.63 2.68 9.79c3.34 7.47 12.04 11.28 19.9 11.37 9.91.1 19.13-2.22 27.35-7.91 7.91-5.47 7.38-11.99 5.97-21.48q-.96-6.38-1.52-10.44a.5.5 0 0 1 .59-.56c21.27 4.03 43.73 2.54 63.53-6.97q2.76-1.33 5.19-2.89 1.79-1.16 5.11-2.99 4.87-2.68 9.24-6.35 9.61-4.34 18.1-10.35a.63.62-32.7 0 1 .89.19q6.48 11.01 9.78 23.47"/><path fill="#9b9b9b" d="m474.6 637.15 6.89 49.54-6.32-1.48a1.29 1.29 0 0 1-.99-1.08l-5.96-42.49a1.13 1.12-19.1 0 1 .55-1.12z"/><path fill="#efcd8b" d="m595.28 647.97 3.69-.77q-4.37 3.67-9.24 6.35-3.32 1.83-5.11 2.99-2.43 1.56-5.19 2.89c-19.8 9.51-42.26 11-63.53 6.97a.5.5 0 0 0-.59.56q.56 4.06 1.52 10.44c1.41 9.49 1.94 16.01-5.97 21.48-8.22 5.69-17.44 8.01-27.35 7.91-7.86-.09-16.56-3.9-19.9-11.37q-1.41-3.16-2.68-9.79-1.54-8.08-2.88-18.22a1.06 1.06 0 0 0-1.29-.89c-14.69 3.39-28.53 4.51-44.51 2.55q-9.5-1.17-18.24-5.66l.7-3.67q10.18 1.61 17.19.69 25.18-3.31 47.87-14.88a.64.64 0 0 1 .92.48q3.56 23.9 5.58 38.49c.56 4.06 1.41 5.83 4.96 7.56 7.19 3.51 16.95 3.18 24.45 1.38 5.71-1.38 13.7-4.95 16.07-10.7a2.74 2.72 52.4 0 0 .18-1.41l-4.4-33.49a.11.11 0 0 1 .15-.12q19.98 7.18 40.81 9.26c16.04 1.59 32.94-.55 46.79-9.03"/><path fill="#f7c86b" d="M377.99 653.47q7.57 4.82 16.72 6.27l-.7 3.67q-4.65 16.44-4.25 30.34.4 13.86 4.32 36.77-4.73-6.17-6.64-8.2-5.22-5.53-12.46-3.11a1.02 1-36.6 0 1-.89-.12q-3.57-2.38-4.96-2.72c-6.85-1.69-10.47 1.67-13.44 7.38a.93.92-77.9 0 1-.74.49q-7.81.58-10.48 7.54-3.24 8.42-2.34 18.84.05.65-.44.89a.48.47-30.4 0 1-.59-.15q-.77-1.11-3.05-2.42-3.45-1.98-17.73-10.99-5.92-3.74-18.28-15.75l3.26-12.82c2.33 2.32 7.25 3.9 7.87-.91q.37-2.89-1.96-6.36 4.41-9.29 9.84-17.84 12.99-20.43 36.82-26.51 11.61-2.96 20.12-4.29m332.88 48.62c-2.15 3.56-3.19 10.64 3.1 9.07a2.75 2.58 18.8 0 0 .86-.39q7.7-5.22 6.95-13.63.14-.6 1.54.43a.89.87-68.7 0 1 .34.81l-.87 6.99a.54.45 66.6 0 1-.06.2q-4.87 9.56-6.59 20.29-10.77 10.13-17.42 13.87-9.24 5.2-18.65 10.95c.2-7.92-.11-25.1-11.46-26.16q-2.16-.2-2.95-2.11c-2.5-5.99-8.6-7.78-14.48-5.25q-.57.25-2.76 1.75a.98.97 36.8 0 1-.89.12c-8.54-2.97-13.15 2.53-18.03 9.3q.59-7.94 1.54-15.53 1.4-11.25 1.51-15.52.45-18.64-4.81-36.77 12.08 4.48 18.75 5.8 13.92 2.75 19.08 3.97 17.15 4.05 30.24 16.7 9.92 9.58 15.06 15.11"/><path fill="#ee9734" d="m761.98 664.93-1.72 8.06q-.66 3.13-6.61 18.93-13.07 34.73-39.95 60.03-17.61 16.59-39.04 27.99a.58.58 0 0 1-.82-.69q4.64-14.3 6.23-28.57 9.41-5.75 18.65-10.95 6.65-3.74 17.42-13.87 3.95-3.59 7.6-7.36 21.14-21.76 34.56-48.95 1.11-2.24 3.68-4.62"/><ellipse fill="#040202" rx="9.34" ry="4.79" transform="rotate(249.1 378.799 237.197)"/><ellipse fill="#040202" rx="9.29" ry="4.83" transform="rotate(-70.1 846.403 -182.11)"/><path fill="#ee9734" d="M302.04 722.2q12.36 12.01 18.28 15.75 14.28 9.01 17.73 10.99 2.28 1.31 3.05 2.42a.48.47-30.4 0 0 .59.15q.49-.24.44-.89 1.76 14.79 6.57 29.31a.26.25-85.2 0 1-.36.31q-28.09-14.54-48.22-36.4c-17.49-19-29.93-42.78-37.75-69.05l-.05-3.38a.71.71 0 0 1 1.27-.45l1 1.27.1.16q14.85 27.8 37.35 49.81"/><path fill="#040202" d="M721.78 697.14q.75 8.41-6.95 13.63a2.75 2.58 18.8 0 1-.86.39c-6.29 1.57-5.25-5.51-3.1-9.07q1.9-3.47 5.02-5.67 2.89-2.04 5.89.72m-410.57 4.97q2.33 3.47 1.96 6.36c-.62 4.81-5.54 3.23-7.87.91-2.88-2.6-8.95-11.72-2.36-13.58q1.53-.43 4.02 1.5 2.54 1.95 4.25 4.81"/><path fill="#fdf1cd" d="M399.2 784.92c-3.34 6.87-7.13 11.04-15.19 11.67q-7.69.61-14.42-3.59a1.87 1.86-55.3 0 0-2.46.45q-.02.03-.16.8-12.56-20.42-15.39-44.29c-.61-5.16-.95-11.62 1.19-16.24a.65.65 0 0 1 .83-.33q.9.36 1.99 2.28c1.6 2.79 3.96 9.25 7 11.57a.77.77 0 0 0 1.24-.64q-.26-8.46-.8-14.57-.28-3.13 1.01-5.51a2.15 2.15 0 0 1 3.39-.52q1.62 1.59 2.8 4.29 3.2 7.31 6.27 12.72a1.05 1.03 51.5 0 0 1.68.21q.42-.46.42-1.22.02-6.93.19-13.51a.61.61 0 0 1 .83-.55c2.76 1.06 5.4 6.22 6.58 8.83q10.43 23.06 13 48.15m256.73 7.96q-4.33.26-8.59 2.65a5.39 5.29 26.2 0 1-2 .66c-9.68 1.18-17.96-.97-21.62-10.88a2.3 2.02 36.1 0 1-.15-.67l-.26-4.15q3.06-24.05 13.87-45.89 1.99-4.01 4.44-6.46a1.02 1.02 0 0 1 1.74.72v13.45a1.08 1.08 0 0 0 1.78.82q.93-.79 2.14-3.1 2.95-5.62 5.57-11.39 1.03-2.28 2.95-3.02a2.32 1.94 72.5 0 1 2.69 1.72q.76 2.95.39 6.89-.79 8.28-.66 11.26.04.95.14 1.13a1.08 1.08 0 0 0 1.81.1q3.3-4.55 6.49-11.26.77-1.62 2.1-1.97a.66.65 70.4 0 1 .76.37q1.78 4.06 1.57 8.89-1.14 27.29-15.16 50.13"/><path fill="#efcd8b" d="m618.3 754.96-3.05 13.95q-2.69 2.24-5.26 2.25-2.05.01-3.58 1.36-9.31 8.19-18.55 16.58-4.61 4.2-11.61 6.92-21.18 1.36-42.98.61c-11.37-.38-20.91-1.07-31.36-.57q-6.43.3-26.91 1.04-8.89.31-31.06-.88-11.55-6.47-21.01-16.65-3.38-3.65-6.62-7.07a5.5 5.47 72.1 0 0-3.18-1.64l-6.04-.84-3.25-14.84q5.07 6.82 9.78 13.7c1.61 2.35 7.93 3.77 10.79 4.17q25.81 3.59 43.52 4.07 10.75.28 25.26-.4 15.54-.73 22.63-.42c25.36 1.13 50.62 1.74 76.11-2.8q4.08-.73 8.55-1.28l.08-.02 5.79-1.87a1.78 1.73 12.9 0 0 .71-.43l4.17-4.19a.94.49-27.5 0 0 .07-.1z"/><path fill="#ee9734" d="M615.25 768.91q-2.48 11.15-2.45 22.04a.92.91-5.6 0 1-.75.91q-15.94 2.95-31.55 4.23-1.87.15-4.25-.07 7-2.72 11.61-6.92 9.24-8.39 18.55-16.58 1.53-1.35 3.58-1.36 2.57-.01 5.26-2.25m-171.31 27.31q-16.91-.94-34.09-4.4a.7.69-84.9 0 1-.55-.67q-.16-10.73-2.21-21.13l6.04.84a5.5 5.47 72.1 0 1 3.18 1.64q3.24 3.42 6.62 7.07 9.46 10.18 21.01 16.65"/><path fill="#efcd8b" d="M655.93 792.88c-4.51 7.91-14.2 18.17-24.01 14.72-9.56-3.36-9.95-18.29-8.61-27.11l.26 4.15a2.3 2.02 36.1 0 0 .15.67c3.66 9.91 11.94 12.06 21.62 10.88a5.39 5.29 26.2 0 0 2-.66q4.26-2.39 8.59-2.65m-256.73-7.96q.44 6.6-.92 12.35c-1.19 4.99-5.17 10.05-10.48 10.83-8.39 1.23-16.8-7.21-20.83-13.85q.14-.77.16-.8a1.87 1.86-55.3 0 1 2.46-.45q6.73 4.2 14.42 3.59c8.06-.63 11.85-4.8 15.19-11.67"/></svg>