<svg xmlns="http://www.w3.org/2000/svg" viewBox="0 0 1024 1024"><g fill="none" stroke-width="2"><path stroke="#818080" d="M701.36 789.81c20.62-13.66 34.8-31.33 43.79-53.98 8.2-20.65 11.12-42.8 10.76-64.84q-.49-30.48-5.49-55.66-2.64-13.35-5.61-27.6a.81.81 0 0 1 .22-.74q18.31-18.49 24.55-43.46c7.73-30.96 1.55-65.42-15.23-92.41q-20.94-33.67-58.57-48.18a2.81 2.8 85.1 0 1-1.42-1.2q-6.98-12.04-16.64-25.02a.7.69 45.5 0 1 0-.83q.1-.14 2.51-2.46c21.37-20.68 22.83-53.9 3.11-76.3q-12.47-14.18-31.3-16.95c-20.25-2.98-38.32 7.68-49.6 23.8a.4.39 29.8 0 1-.51.13l-21.63-10.7a.83.83 0 0 1-.45-.8q1.87-22.81-11.78-41.21c-9.96-13.42-23.73-20.96-38.21-29.51q-8.03-4.74-15.12-12.9-3.34-3.85-7.56-2.87-1.9.44-6.62 5.12-6.82 6.78-10.92 9.17c-15 8.75-29.26 16.65-39.46 29.97q-14.8 19.31-12.06 43.58a.83.82 76.1 0 1-.51.86q-9.99 3.96-18.98 9.04a.77.76-31.7 0 1-1-.23q-3.53-5.22-8.51-9.99c-22.83-21.85-57.43-17.34-75.36 8.13-16.05 22.8-13.36 55.58 9.01 74.02a.38.37-53.7 0 1 .07.49l-16.73 25.78a1.28 1.28 0 0 1-.63.51c-52.88 19.7-83.13 72.13-77.14 127.7 1.47 13.65 6.23 27.13 12.57 38.35q4.55 8.05 14.57 18.21a1 .97-61.2 0 1 .25.91q-5.43 23.32-7.75 38.7-3.69 24.45-3.19 52.04c.82 44.31 15.72 86.39 54.34 111.26a.4.4 0 0 1-.1.72q-13.22 4.13-24.23 12.07c-4.58 3.3-8.01 8.46-5.28 14.18 1.89 3.94 6.39 5.24 10.5 5.58a1.16 1.14-15.6 0 1 .84.46c4.95 6.48 15.8 7.13 23.4 7.05q27.64-.27 53.86-8.39 4.5-1.39 9.97-5.91a1.13 1.12 29.2 0 1 .87-.24c27.58 4.3 55.6 4.7 82.79 2.97 11.24-.72 24.21-1.84 38.09-2.47q1.65-.07 3.33.07 32.93 2.69 63.33 3.31 27.66.57 54.35-3.82a1.76 1.75 53.1 0 1 1.09.16c.74.37 1.46 1.5 2.18 1.98q5.54 3.71 12.44 5.5 20.63 5.36 41.69 6.63c7.73.47 26.22 1.19 30.96-6.5q.73-1.18 2.11-1.22c5.81-.13 11.21-3.82 10.48-10.15-1.16-10.04-21.9-18.26-30.34-21.16a.42.42 0 0 1-.1-.75" vector-effect="non-scaling-stroke"/><path stroke="#7a6848" d="m470.71 246.53 5.81-1.39a2.98 2.98 0 0 1 2.88.89c2.21 2.42 6.06 6.91 8.62 7.08 6.78.45 13.22-3.39 18.24-7.34q.81-.64 3-.6a1.7 1.65 60.6 0 1 .84.25q3.14 1.94 6.75 4.26c4.13 2.65 12.14 5.05 16 1.44 1.45-1.36 5.05-6.26 7.59-6.07q1.81.13 7.84 2.34" vector-effect="non-scaling-stroke"/><path stroke="#817a69" d="M548.28 247.39q3.25 1.49 6.6 1.58a.33.33 0 0 0 .27-.53q-1.06-1.34-3.05-3.03c-8.8-7.44-17.6-12.61-26.66-18.73-6.27-4.24-10.46-8.57-15.63-14.19a1.61 1.6-37 0 0-2.01-.28q-.46.27-1.32 1.28c-5.54 6.43-12.16 12.03-19.57 16.61-9.3 5.75-17.22 11.13-24.86 18.78a.37.36-72.5 0 0 .32.62q4.95-.9 8.34-2.97" vector-effect="non-scaling-stroke"/><path stroke="#f6dfad" d="M548.28 247.39q-.02-2.1-1.67-3-11.36-6.2-19.14-12.53-.54-.43-1.19-.89-2.41-1.71-6.34-4.32c-3.98-2.64-6.11-4.71-10.18-8.45a1.72 1.71-45.6 0 0-2.34.03l-7.18 6.92a6.96 6.88-82.9 0 1-1.18.93q-8.1 5.07-9.55 6.19-9.16 7.06-18.8 14.26" vector-effect="non-scaling-stroke"/><path stroke="#784e1d" d="m461.29 254.2-3.38-.16a2.41 2.41 0 0 0-2.13 1.07q-11.06 16.58-10.34 34.86c.6 15.47 7.12 29.11 18.1 39.93" vector-effect="non-scaling-stroke"/><path stroke="#522b13" d="M463.54 329.9q5.43 5.96 12.01 9.3 11.87 6.01 27.83 11.77c3.21 1.16 5.85 1.55 8.94.59q2.87-.9 15.31-5.67 3.52-1.35 12.03-5.53 6.85-3.35 11.21-6.98c8.91-7.42 17.82-19.13 19.69-30.82" vector-effect="non-scaling-stroke"/><path stroke="#784e1d" d="M570.56 302.56q1.32-4.3 1.73-9.78 1.59-21.3-11.34-38.68a1.44 1.44 0 0 0-1.4-.56l-2.46.45" vector-effect="non-scaling-stroke"/><path stroke="#522b13" d="M557.09 253.99q-4.04.3-8.25-1.16-3.39-1.18-6.66-2.52a2.26 2.26 0 0 0-2.52.58c-2.11 2.35-4.22 5.02-7.15 6.03-7.88 2.73-16.98-1.47-23.03-6.5a1.12 1.12 0 0 0-1.44 0q-4.68 3.84-9.36 5.78c-9.29 3.84-15.93 1.69-22.01-6a.77.77 0 0 0-.89-.25l-8.57 3.4a2.11 1.69 24.7 0 1-.4.1l-5.52.75" vector-effect="non-scaling-stroke"/><path stroke="#c5762c" d="M557.09 253.99q1.29 2.21 2.59 4.35c2.4 3.97 4.12 8.97 5.59 12.22q1.51 3.34 2.45 7.96 2.51 12.34 1.24 24.2a.59.58 57 0 0 1.13.25q.05-.19.47-.41M463.54 329.9q.61.04.84-.33a.43.42-53.4 0 0-.07-.53q-2.76-2.56-3.8-5.99a3.5 3.41 18.8 0 0-.57-1.12q-3.03-3.92-4.75-9.81c-3.35-11.49-5.16-21.77-3.73-33.06.57-4.44 2.11-7.87 3.93-12.79q.95-2.55 2.82-6.08 1.54-2.91 3.08-5.99" vector-effect="non-scaling-stroke"/><path stroke="#7d5f25" d="M344.31 306.76q-11.66 15.56-8.58 34.97" vector-effect="non-scaling-stroke"/><path stroke="#784e1d" d="M335.73 341.73q2.82 16.3 15.7 25.6a.61.61 0 0 0 .78-.05q5.31-5.03 11.17-8.69" vector-effect="non-scaling-stroke"/><path stroke="#7c5a51" d="M363.38 358.59q1.7-.45 3.08.98" vector-effect="non-scaling-stroke"/><path stroke="#7a6848" d="M366.46 359.57q-2.43 7.47-7.64 14.24-9.2 11.97-17.37 24.79a.24.24 0 0 0 .23.36l13.26-1.57" vector-effect="non-scaling-stroke"/><path stroke="#7d5f25" d="M354.94 397.39c3.44-.24 13.18-1 15.42.97a.95.95 0 0 1-.11 1.51q-1.33.87-3.86 1.42-9.81 2.15-19.29 4.87" vector-effect="non-scaling-stroke"/><path stroke="#7a6848" d="M347.1 406.16c-36.91 9.7-68.56 35.71-81.17 72.22" vector-effect="non-scaling-stroke"/><path stroke="#817a69" d="M265.93 478.38c-5.74 15-7.38 32.7-6.01 48.57" vector-effect="non-scaling-stroke"/><path stroke="#7a6848" d="M259.92 526.95q4.55 43.41 41.16 65.24c24 14.31 52.96 17.04 80.4 10.76q14.94-3.43 32.34-10.89c7.26-3.11 14.67-7.65 21.43-11.07q1.87-.94 4.94-1.92a.97.97 0 0 1 1.08 1.5q-2.41 3.28-7.19 6.75-8.4 6.1-17.7 11.45" vector-effect="non-scaling-stroke"/><path stroke="#784e1d" d="m416.38 598.77-17.15 8.16" vector-effect="non-scaling-stroke"/><path stroke="#7d5f25" d="M399.23 606.93q-9.83 3.38-14.85 4.71c-34.47 9.12-69.81 4.92-98.92-16.15a.21.21 0 0 0-.33.12l-3.62 16" vector-effect="non-scaling-stroke"/><path stroke="#7a6848" d="M281.51 611.61c-4.62 25.84-7.29 51.11-4.87 76.94" vector-effect="non-scaling-stroke"/><path stroke="#7d5f25" d="m276.64 688.55.65 6.45" vector-effect="non-scaling-stroke"/><path stroke="#784e1d" d="M277.29 695q.73 8.89 1.72 13.51 1.98 9.28 6.82 22.52 4.55 12.46 15.15 26.64c22.92 30.69 64.68 44.03 101.35 48.2q14.91 1.7 35.67 2.15 7.95.18 12.97-.15" vector-effect="non-scaling-stroke"/><path stroke="#7a6848" d="M450.97 807.87q26.29-.68 52.54-2.8 2.74-.22 5.5-.3 2.36-.06 5.49.16 27.96 2.01 55.95 3.07" vector-effect="non-scaling-stroke"/><path stroke="#784e1d" d="M570.45 808q19.39-.06 31.05-.66 18.94-.97 41.06-5.51 10.38-2.13 26.87-8.38c13.82-5.24 27.46-13.62 37.63-22.64 21.12-18.73 33.2-45.75 35.87-73.8" vector-effect="non-scaling-stroke"/><path stroke="#7a6848" d="M742.93 697.01q2.75-19.33 1.52-38.01-1.47-22.53-5.7-47" vector-effect="non-scaling-stroke"/><path stroke="#784e1d" d="m738.75 612-3.49-16.24a.44.44 0 0 0-.7-.26c-20.01 15.23-45.89 21.94-71.01 20.61q-26.2-1.39-50.55-12.26c-4.08-1.82-8.63-4.45-12.94-6.67" vector-effect="non-scaling-stroke"/><path stroke="#7a6848" d="M600.06 597.18q-8.22-4.97-15.69-10.79-3.7-2.89-6.07-6.19a.71.71 0 0 1 .71-1.11q2.99.57 5.21 1.75 13.47 7.13 17.92 9.3c23.9 11.69 50.23 18.33 76.05 15.49q26.94-2.96 49.18-18.95c19.77-14.21 31.35-37.74 33.06-61.88" vector-effect="non-scaling-stroke"/><path stroke="#817a69" d="M760.43 524.8q1.29-18.02-2.93-36.01-.72-3.08-2.08-6.71" vector-effect="non-scaling-stroke"/><path stroke="#7a6848" d="M755.42 482.08q-4.34-15.52-13.93-29.32c-10.98-15.8-24.83-27.14-42.05-36.38-13.37-7.18-30.4-11.47-45.23-14.51q-.99-.21-4.07-1.65" vector-effect="non-scaling-stroke"/><path stroke="#7d5f25" d="M650.14 400.22q-1.41-.76-1.13-1.8.16-.56.73-.7c5.05-1.19 10.28-.8 15.39-.39" vector-effect="non-scaling-stroke"/><path stroke="#784e1d" d="m665.13 397.33 13.78 1.6a.2.2 0 0 0 .19-.3q-5.74-9.38-12.34-18.06c-4.42-5.8-8.89-11.97-11.57-18.56q-.83-2.04 1.13-3.32" vector-effect="non-scaling-stroke"/><path stroke="#7c5a51" d="M656.32 358.69q.54-.25 1.38.22" vector-effect="non-scaling-stroke"/><path stroke="#7d5f25" d="m657.7 358.91 10.8 8.58a.97.97 0 0 0 1.23-.01c8.53-7.06 13.85-16.98 15.46-27.78q2.57-17.3-8.1-32.07" vector-effect="non-scaling-stroke"/><path stroke="#7a6848" d="M677.09 307.63c-12-16.77-34.02-22.08-51.59-10.6q-8.36 5.45-13.51 13.89a.7.7 0 0 0 .2.93l3.42 2.41" vector-effect="non-scaling-stroke"/><path stroke="#7d5f25" d="m615.61 314.26 8.46 6.84a.42.42 0 0 0 .62-.1c4.84-7.69 10.71-14.83 19.43-17.69q6.16-2.02 11.7-.39 8.55 2.5 7.08 8.21" vector-effect="non-scaling-stroke"/><path stroke="#7c5a51" d="M662.9 311.13q-8.87-5.55-16.46-.43-9.79 6.6-14.35 17.72a.63.63 0 0 0 .11.67q5.53 6.22 10.24 12.23 3.44 4.39 5.13 9.4" vector-effect="non-scaling-stroke"/><path stroke="#784e1d" d="M647.57 350.72q-1.01.31-1.74.01" vector-effect="non-scaling-stroke"/><path stroke="#7e6537" d="M645.83 350.73q-5.41-3.31-7.64-5.4-22.73-21.32-49.07-35.45-5.14-2.76-10.44-4.82a.54.54 0 0 0-.72.36q-2.35 8.61-7.3 16.3" vector-effect="non-scaling-stroke"/><path stroke="#7d5f25" d="m570.66 321.72-5.45 7.42" vector-effect="non-scaling-stroke"/><path stroke="#784e1d" d="M565.21 329.14q-11.35 12.89-26.77 20.28-6.29 3.02-13.15 5.81" vector-effect="non-scaling-stroke"/><path stroke="#7a6848" d="M525.29 355.23q-3.09 1.08-6.62 2.17c-9.11 2.8-16.71 1.62-26.51-2.33" vector-effect="non-scaling-stroke"/><path stroke="#784e1d" d="M492.16 355.07c-16.52-5.78-30.58-14.46-41.63-28.3" vector-effect="non-scaling-stroke"/><path stroke="#7d5f25" d="M450.53 326.77q-6.99-9.68-10.49-20.77a.59.59 0 0 0-.81-.36q-23.73 10.88-43.43 27.72" vector-effect="non-scaling-stroke"/><path stroke="#7a6848" d="M395.8 333.36q-10.18 8.44-14.87 12.83-3.82 3.56-8.22 4.68" vector-effect="non-scaling-stroke"/><path stroke="#7c5a51" d="M372.71 350.87q1.52-4.85 4.49-8.66 4.49-5.77 10.84-13.03a.74.73-37.1 0 0 .11-.79c-4.44-9.42-13.98-23.08-26.49-19.17q-2.36.74-4.06 1.45" vector-effect="non-scaling-stroke"/><path stroke="#7d5f25" d="M357.6 310.67q-1.49-.64-.89-1.67 2.63-4.57 8.2-6.08c9.6-2.58 19.32 3.19 25.05 10.68q2.76 3.61 5.1 7.17a.51.51 0 0 0 .73.12l8.42-6.55" vector-effect="non-scaling-stroke"/><path stroke="#7a6848" d="m404.21 314.34 4.13-2.84a.65.64 57.3 0 0 .18-.86c-14.9-24.24-46.5-26.81-64.21-3.88" vector-effect="non-scaling-stroke"/><path stroke="#f2c469" d="M404.21 314.34q-4.16-5.43-10.13-9.44-3.9-2.61-9.01-4.15-11.87-3.58-23.78-2.29-7.6.82-13.21 6.88-.98 1.05-3.77 1.42" vector-effect="non-scaling-stroke"/><path stroke="#f4b572" d="M357.6 310.67q-3.81 8.34-5.21 15.17-1.41 6.84.81 14.93" vector-effect="non-scaling-stroke"/><path stroke="#f0aa3e" d="M353.2 340.77c-4.23-1.56-7.22-.51-10.92 1.75-2.74 1.66-4.88 2.42-6.55-.79" vector-effect="non-scaling-stroke"/><path stroke="#f1bf95" d="M372.71 350.87q-3.78 3.36-6.25 8.7" vector-effect="non-scaling-stroke"/><path stroke="#efa56a" d="M363.38 358.59q-2.85-2.72-4.24-4.73-3.93-5.69-5.94-13.09" vector-effect="non-scaling-stroke"/><path stroke="#f0aa3e" d="m450.53 326.77-2.55 3.64" vector-effect="non-scaling-stroke"/><path stroke="#7d5f25" d="M447.98 330.41c-3.77-2.42-12.85-4.83-15.22.78-.86 2.03-.03 4.41 1.43 5.85q4.59 4.5 11.04 4.63 5.14.11 7.32-4.16" vector-effect="non-scaling-stroke"/><path stroke="#f0aa3e" d="M452.55 337.51q.36 3.18 1.53 5.48.34.67 3.14 4.77 8.02 11.78 22.38 14.83" vector-effect="non-scaling-stroke"/><path stroke="#f2c469" d="M479.6 362.59q.16.47-.55 1.28" vector-effect="non-scaling-stroke"/><path stroke="#f9d58a" d="M479.05 363.87q-9.65 8.98-15.86 20.1-3.83 6.84-7.52 16.26" vector-effect="non-scaling-stroke"/><path stroke="#7d5f25" d="M455.67 400.23q-24.03-4.22-48.23 4.24-1.02.36-1.54 1.02a.25.25 0 0 0 .22.4c18.97-1.21 32.01-2.01 48.16-1.18" vector-effect="non-scaling-stroke"/><path stroke="#f9d58a" d="M454.28 404.71q-.93 5.77-4.44 11.71" vector-effect="non-scaling-stroke"/><path stroke="#7d5f25" d="M449.84 416.42q-9.52 4.22-16.71 8.71-12.07 7.53-21.23 18.51a.22.22 0 0 0 .28.33c11.06-6.88 22.07-13.47 34.19-19.31" vector-effect="non-scaling-stroke"/><path stroke="#f9d58a" d="M446.37 424.66q-2.49 7.59-4.91 12.3-2.39 4.68-6.62 11.08" vector-effect="non-scaling-stroke"/><path stroke="#f6c158" d="M434.84 448.04q-20.71 1.22-41.16 3.4c-24.91 2.67-45.53 9.65-60.56 30.83-9.43 13.28-14.3 20.65-21.65 30.87" vector-effect="non-scaling-stroke"/><path stroke="#f9d58a" d="M311.47 513.14q-18.11-2.99-32.97-14.4-5.47-4.2-8.54-9.45" vector-effect="non-scaling-stroke"/><path stroke="#f2c469" d="M269.96 489.29q.45-7.65 3.7-13.15 4.37-7.41 7.81-13.19 7.5-12.61 17.44-22.34c7.11-6.97 16.44-15.01 24.67-19.76q16.2-9.34 19.39-10.89 2.22-1.08 5.29-2.1a.87.87 0 0 0 .05-1.64q-.52-.21-1.21-.06m7.84-8.77q2.61-5.4 5.03-10.65c1.92-4.15 4.29-7.52 5.91-11.26 3.39-7.8 9.35-14.26 13.72-21.55q3.06-5.13 5.06-7.25 5.08-5.35 6.24-6.3 3.98-3.24 4.65-4.3 1.41-2.22.25-2.72" vector-effect="non-scaling-stroke"/><path stroke="#f6dfad" d="M542.45 365.1q-6.89-2.29-12.62.06" vector-effect="non-scaling-stroke"/><path stroke="#f1bf95" d="M529.83 365.16q-.92-.08-2.54-1.36a4.7 4.7 0 0 0-1.48-.77q-13.24-4.04-25.02-1.81-4.65.88-10.6 4.64" vector-effect="non-scaling-stroke"/><path stroke="#f6dfad" d="M490.19 365.86q-4.22-3.18-11.14-1.99" vector-effect="non-scaling-stroke"/><path stroke="#817a69" d="M486.31 369.72q-3.19 5.83 1.87 11.09 6.62 6.89 16.89 11.05a.85.85 0 0 1 .54.79q.11 9.67-.32 11.86c-1.33 6.77-7.11 12.64-12.89 15.67q-7.5 3.93-14.77-.32a1.19 1.18 6.4 0 0-1.73 1.38c1.51 4.77 6.06 7.09 10.74 7.99a.83.83 0 0 1 .68.74c2.6 24.98 36.31 29.86 43.9 5.3q1.24-3.99 1.32-5.06a.56.55-9 0 1 .34-.46l5.97-2.36a6.93 6.9-87.6 0 0 3.66-3.38l.94-1.89a1.23 1.23 0 0 0-1.59-1.68q-8.61 3.73-16.15-1.06c-6.74-4.29-11.57-10.29-11.95-18.38q-.21-4.47-.13-8.17a.84.82 82 0 1 .56-.76c7.12-2.37 19.59-9.63 21-18.06q.49-2.91-1.61-4.21m31.33 30.23-10.84 3.16a1.05 1.05 0 0 0-.16 1.95q.96.46 2.62.31 4.91-.45 9.16-.71m4.24 11.89c-5.14-1.98-12.27-4.81-17.77-4.25a.8.79-34.5 0 0-.28 1.5l21.48 10.88" vector-effect="non-scaling-stroke"/><path stroke="#fadc9c" d="M573.36 424.76q2.88 8.52 5.58 13.55c11.98 22.31 31.56 41.11 52.79 55.24 23.25 15.49 50.75 24.08 78.89 19.05q3.09-.55 5.86-1.52" vector-effect="non-scaling-stroke"/><path stroke="#f6dfad" d="M751.12 487.69q1.92-3.53 4.3-5.61m5.01 42.72q-3.55 2.47-5.18 7.21-2.95 8.61-9.39 15.36-8.09 8.48-13.76 13.97-3.56 3.45-12.37 9.13-31.45 20.32-68.97 20.56-14.64.09-28.37-2.69-19.21-3.89-34.26-9.38-1.16-.43-8.12-2.12c-5.47-1.34-12.02-3.97-18.28-4.23a.71.71 0 0 0-.64 1.08q.64 1.02 2.25 3.25 5.38 7.45 15.86 17.46c3.31 3.15 6.1 5.96 9.85 9.33q2.05 1.84 3.66 3.95" vector-effect="non-scaling-stroke"/><path stroke="#fadc9c" d="m592.71 607.68-5.45 10.64" vector-effect="non-scaling-stroke"/><path stroke="#817a69" d="M587.26 618.32q-11.22 13.39-18.14 31.3-8.58 22.21-12.28 40.37c-.45 2.24-.96 3.73-2.05 5.89-4.6 9.12-8.34 20.79-4.85 30.61" vector-effect="non-scaling-stroke"/><path stroke="#f6dfad" d="M549.94 726.49q-2.48 1.64-.42 6.48c4.62 10.83 12.9 16.38 24.68 16.41 8.31.02 12.97-2.24 20.17-6.42q3.21-1.86 6.84-4.95 10.3-8.77 21.89-15.77a4.77 4.72-84 0 0 1.04-.85q1.12-1.2 2.25-1.74" vector-effect="non-scaling-stroke"/><path stroke="#fadc9c" d="M626.39 719.65q-.75 36.51-23.19 64.57-1.46 1.84-3.19 3.59" vector-effect="non-scaling-stroke"/><path stroke="#f6dfad" d="M600.01 787.81q-3.71.58-9.01.62-31.17.19-57.23-1.96c-17.89-1.48-33.47-1.31-51.66.18-20.11 1.65-40.15 1.92-60.17 1.52a1.26 1.26 0 0 1-.75-.27l-1.55-1.22" vector-effect="non-scaling-stroke"/><path stroke="#fadc9c" d="M419.64 786.68q-3.62-3.59-6.54-7.79-17.04-24.53-18.79-55.28" vector-effect="non-scaling-stroke"/><path stroke="#f6dfad" d="M394.31 723.61q9.64 4.92 17.18 12.24c4.31 4.18 7.52 6.6 12.05 9.4 7.1 4.39 15.13 5.47 22.81 3.93q4.3-.86 9.47-4.86 9.96-7.69 8.2-19.11" vector-effect="non-scaling-stroke"/><path stroke="#817a69" d="M464.02 725.21q1.03-4.92.46-9.72c-1.25-10.6-6.59-19.21-8.77-29.43-4.18-19.57-10.88-38.48-20.46-56.04q-1.85-3.38-7.3-10.53" vector-effect="non-scaling-stroke"/><path stroke="#f6dfad" d="m427.95 619.49-.09-2.23a1.27 1.2 25.9 0 0-.26-.69q-3.88-5.02.4-9.36c13.42-13.61 21.75-21.67 30.07-33.38a.6.6 0 0 0-.45-.95q-2.9-.2-5.92.57-5.76 1.46-30.32 8.9-13.48 4.08-21.38 5.41-.1.02-12.25 1.96c-28.69 4.57-58.1-1.74-83.06-16.09-14.05-8.08-24.29-18.43-34.79-31.29q-2.82-3.47-8.2-14.74a1.09 1.04-80.3 0 0-.18-.27l-1-1.12a.37.37 0 0 0-.64.28l.04.46m6.01-48.57q.59.54.94 1.21a1.63 1.61 33.8 0 1 .18.89q-.27 2.73.15 3.58 1.32 2.59 2.76 5.23" vector-effect="non-scaling-stroke"/><path stroke="#fadc9c" d="M311.47 513.14c48.47 8.28 96.92-27.94 123.37-65.1" vector-effect="non-scaling-stroke"/><path stroke="#817a69" d="M446.37 424.66q8.42-4.3 17.67-8.64 2.06-.96 3.13-1.72a1.03.93-43.9 0 0 .11-1.59q-.3-.22-.9-.27c-4.85-.42-11.36 2.27-16.54 3.98m4.44-11.71 11.27.48a.87.87 0 0 0 .44-1.64q-4.46-2.34-10.32-3.32" vector-effect="non-scaling-stroke"/><path stroke="#edb361" d="M492.16 355.07q-6.53 2.94-12.56 7.52" vector-effect="non-scaling-stroke"/><path stroke="#784e1d" d="M452.55 337.51q-.27-4.56-4.57-7.1" vector-effect="non-scaling-stroke"/><path stroke="#f8d0b6" d="M529.83 365.16q3.31 2.56 3.75 4.64" vector-effect="non-scaling-stroke"/><path stroke="#7c5a51" d="M533.58 369.8c-6.76 4.73-12.28 9.13-20.46 12.82-3.9 1.76-7.48.01-10.91-2.09q-7.84-4.83-15.9-10.81" vector-effect="non-scaling-stroke"/><path stroke="#f8d0b6" d="m486.31 369.72 3.88-3.86" vector-effect="non-scaling-stroke"/><path stroke="#f1b050" d="M542.53 363.11q-.67-.27-1.32-.21" vector-effect="non-scaling-stroke"/><path stroke="#edb361" d="M541.21 362.9q-6.74-4.44-9.03-5.57-2.23-1.1-6.89-2.1" vector-effect="non-scaling-stroke"/><path stroke="#7e6537" d="M607.4 402.93q-21.02-6.59-42.49-2.9" vector-effect="non-scaling-stroke"/><path stroke="#fadc9c" d="M564.91 400.03q-4.49-10.38-8.07-16.85-5.58-10.06-14.39-18.08" vector-effect="non-scaling-stroke"/><path stroke="#f3ca7b" d="m542.45 365.1-1.24-2.2" vector-effect="non-scaling-stroke"/><path stroke="#edb361" d="m600.06 597.18-1.82 2.15" vector-effect="non-scaling-stroke"/><path stroke="#f2c469" d="M598.24 599.33q-2.85 3.15-4.77 8.17-.31.82-.76.18" vector-effect="non-scaling-stroke"/><path stroke="#f1b050" d="M678.6 768.88q-27.46 13.62-57.59 16.91-12.64 1.38-21.83 3.05" vector-effect="non-scaling-stroke"/><path stroke="#f3ca7b" d="M599.18 788.84q-.07-.24.83-1.03m26.38-68.16q.35-.75.08-.97" vector-effect="non-scaling-stroke"/><path stroke="#f2c469" d="M732.62 616.26q5.01 17.79 6.83 29.25 1.25 7.86 2.18 20.7.58 7.97.09 17.15-.45 8.56-.87 17.17" vector-effect="non-scaling-stroke"/><path stroke="#f0aa3e" d="M740.85 700.53q-4.99 13.35-8.38 19.23c-4.03 6.97-9.46 12.71-14.24 18.74q-3.39 4.28-8.05 8.47-9.15 8.22-9.63 8.6-8.53 6.77-21.95 13.31" vector-effect="non-scaling-stroke"/><path stroke="#f6c158" d="M678.6 768.88q6.22-7.66 8.16-11.13 9.37-16.68 3.97-34.15c-2.6-8.38-7.7-15.49-15.3-19.44-10.3-5.36-22.55-4.44-33.17-3.06" vector-effect="non-scaling-stroke"/><path stroke="#f0aa3e" d="M642.26 701.1q6-7.72 7.83-16.12" vector-effect="non-scaling-stroke"/><path stroke="#7d5f25" d="M650.09 684.98q3.98-6.3 6.32-14.1a.6.59 1.9 0 0-.71-.75q-.33.07-.8.52-3.54 3.31-6.78 6.45" vector-effect="non-scaling-stroke"/><path stroke="#f6c158" d="M648.12 677.1q-12.52 3.79-22.6-2.22-9.44-5.62-14.6-8.3-2.84-1.47-19.32-8.3-2.9-1.21-11.75-6.36a.67.66 20.8 0 1-.32-.7q1.92-9.8 5.17-17.35c2.97-6.89 4.06-13.9 6.32-20.71q.89-2.68 1.69-5.48" vector-effect="non-scaling-stroke"/><path stroke="#7e6537" d="M648.12 677.1q-11.57 11.69-22.17 18.86-12.58 8.51-24.17 16.62" vector-effect="non-scaling-stroke"/><path stroke="#fae2b4" d="M601.78 712.58q-1.71-6.15-5.19-10.63-8.52-10.97-23.31-12.76a1.03.47-20.6 0 0-.15-.01l-6.78.32" vector-effect="non-scaling-stroke"/><path stroke="#7e6537" d="M566.35 689.5q3.06-12.19 6.43-24.25 1.72-6.16 6.91-21.43 4.17-12.32 7.57-25.5m18.65-177.01 2.07 2.33a.22.21 84.8 0 1-.27.33q-16.49-10.28-34.35-19.21" vector-effect="non-scaling-stroke"/><path stroke="#7a6848" d="M464.02 725.21c-1.74 4.54-3.77 4.8-7.23 6.4a1.07 1.06-3.8 0 0-.59.67c-1.03 3.59-4.25 6.54-8.18 6.58q-1.06.01-2.87.03a2.5 2.42-58.7 0 0-1.19.31c-12.78 7.15-27.27-9.4-34.42-17.93a4.87 4.83-4.4 0 0-1.27-1.08l-14.85-8.79" vector-effect="non-scaling-stroke"/><path stroke="#7d5f25" d="M393.42 711.4c-10.47-7.33-19.99-14.81-27.56-24.87" vector-effect="non-scaling-stroke"/><path stroke="#818080" d="M412.16 712.34q3.34 3.61 6.23 7.26 2.19 2.76 9.49 8.76 4.06 3.34 9.43 4.53a.43.43 0 0 0 .45-.66q-4.53-6.97-6.84-12.65-.29-.71-.16-1.28a.83.83 0 0 1 1.37-.43q2.64 2.44 9.68 9.33 2.11 2.06 4.15 3.28a1.8 1.73 28 0 0 2.52-.72c.78-1.67-.25-5.31-.78-6.45q-2.68-5.77-4.98-11.92a.92.92 0 0 1 1.2-1.18c3.78 1.54 8.36 8.27 11.13 12.21a.67.67 0 0 0 1.2-.2c1.14-4.13-.01-9.91-1.21-13.75q-3.16-10.2-7.65-19.11m118.96.14c-4.96 9.6-9.77 20.11-9.49 31.06q.03.99.4 1.61a.8.79-42.7 0 0 1.33.05c2.92-4.11 7.08-10.08 10.95-12.15a.82.81-9.7 0 1 1.19.84q-.35 2.26-1.4 4.42-3.21 6.61-4.42 11.32-.6 2.32.77 3.41a2.14 2.13-47.5 0 0 2.8-.13c6.27-5.94 10.15-10.33 13.05-11.64a.76.76 0 0 1 1 1.03l-6.3 12.73a.42.42 0 0 0 .41.6c8.47-.66 19.31-13.58 25.14-20.07" vector-effect="non-scaling-stroke"/><path stroke="#784e1d" d="M650.09 684.98q-10.8 13.42-23.37 22.42" vector-effect="non-scaling-stroke"/><path stroke="#7a6848" d="M626.72 707.4q-10.37 7.54-20.95 13.14a4.45 4.41 7 0 0-1.15.89c-7.1 7.71-13.57 14.5-23.37 18.55-2.22.92-7.02 1.47-9.97.04-1.66-.81-2.23-1.18-4.34-1.18q-6.83-.03-9.25-6.7a.91.9 86.1 0 0-.64-.57q-4.69-1.07-7.11-5.08" vector-effect="non-scaling-stroke"/><path stroke="#7e6537" d="M426.99 619.29q-.8.64-.53 1.48 4.97 15.51 10.44 30.85 3.74 10.47 10.49 37.74" vector-effect="non-scaling-stroke"/><path stroke="#fae2b4" d="M447.39 689.36q-13.01-.98-23.26 5.99-9.36 6.38-11.97 16.99" vector-effect="non-scaling-stroke"/><path stroke="#7e6537" d="M412.16 712.34c-10.68-7.71-23.08-14.85-32.41-22.85q-10.38-8.9-20.59-19.45a.5.5 0 0 0-.85.41c.78 5.61 4.09 11.58 7.55 16.08" vector-effect="non-scaling-stroke"/><path stroke="#f6c158" d="M365.86 686.53q-.84 1.2-.9 2.2a1.46 1.38 33.2 0 0 .18.76q4.13 7.29 6.89 10.76 8.12 10.19 18.56 20.66 2.14 2.15 3.34 1.02" vector-effect="non-scaling-stroke"/><path stroke="#f3ca7b" d="m393.93 721.93.38 1.68m25.33 63.07q.77 1.53 1.11 1.7" vector-effect="non-scaling-stroke"/><path stroke="#f1b050" d="M420.75 788.38q-21.52-1.4-43.11-6.1-14.76-3.22-25.34-8.06-14.21-6.49-21.75-11-11.28-6.75-22.52-18.2" vector-effect="non-scaling-stroke"/><path stroke="#7e6537" d="M309.44 734.32q4.13 1.25 4.72-2.61.62-4.05-3.03-9.46-1.83-2.71-3.62-2.73c-4.8-.06-4.14 5.19-2.99 8.15" vector-effect="non-scaling-stroke"/><path stroke="#7a6848" d="m427.95 619.49-.96-.2" vector-effect="non-scaling-stroke"/><path stroke="#f3ca7b" d="m426.99 619.29-3.24-7.66" vector-effect="non-scaling-stroke"/><path stroke="#f2c469" d="m423.75 611.63-4.6-10.39" vector-effect="non-scaling-stroke"/><path stroke="#edb361" d="M419.15 601.24q-.66-1.43-2.77-2.47" vector-effect="non-scaling-stroke"/><path stroke="#f0aa3e" d="M646.6 352.95q2.98 5.42 4.13 8.32 7.14 18.02 14.4 36.06" vector-effect="non-scaling-stroke"/><path stroke="#f2c469" d="M650.14 400.22q2.02 3.61 5.92 4.44c10.51 2.22 17.59 3.56 25.7 8.31q7.82 4.57 13.89 7.91 6.09 3.34 11.18 7.29 9.16 7.08 19.02 16.97 6.37 6.39 10.9 14.12 6.12 10.42 10.81 19.06c1.57 2.88 2.47 6.17 3.56 9.37" vector-effect="non-scaling-stroke"/><path stroke="#f9d58a" d="M751.12 487.69q-2.11 3.67-4.78 6.4-12.24 12.57-29.86 16.99" vector-effect="non-scaling-stroke"/><path stroke="#f6c158" d="M716.48 511.08c-8.9-19.02-19.21-37.66-35.62-51.11-16.82-13.78-36.69-20.46-58.43-19.8q-9.42.29-16.52 1.14" vector-effect="non-scaling-stroke"/><path stroke="#7d5f25" d="M605.91 441.31c-10.53-10.99-22.35-18.4-35.98-24.68" vector-effect="non-scaling-stroke"/><path stroke="#f9d58a" d="m569.93 416.63-4.24-11.89" vector-effect="non-scaling-stroke"/><path stroke="#7d5f25" d="M565.69 404.74c17.35-.97 32.44.09 48.65 1.18a.33.33 0 0 0 .13-.64l-7.07-2.35" vector-effect="non-scaling-stroke"/><path stroke="#f6c158" d="M607.4 402.93c5.89-3.02 13.08-3.61 17.62-10.92 5.19-8.35 5.52-19.87.22-28.22q-.25-.4-6.14-9.03a3.63 3.59-86.4 0 0-.61-.7q-4.03-3.73-9.05-5.72c-4.83-1.91-12.43-3.98-17.76-4.27-7.75-.41-16.7 3.1-20.85 10.33q-1.93 3.37-2.01 8.5c-.13 9 3.48 19.06 10.25 25.38q1.81 1.68 6.4 5.52a1.58 1.57 63.6 0 1-.93 2.78c-7.18.31-14.55.04-18.98-6.63q-6.13-9.2-11.65-18.61c-2.16-3.68-7.02-5.95-11.38-8.23" vector-effect="non-scaling-stroke"/><path stroke="#f0aa3e" d="M542.53 363.11c10.3-3.62 15.7-10.53 20.98-20.09a5.86 5.79 65.6 0 0 .62-1.68q.65-3.17 1.76-6.52.62-1.89-.68-5.68" vector-effect="non-scaling-stroke"/><path stroke="#edb361" d="M738.75 612q-3.38 1.42-6.13 4.26" vector-effect="non-scaling-stroke"/><path stroke="#f0aa3e" d="M732.62 616.26q-5.46 3.67-8.91 5.24c-17.81 8.15-37.54 9.38-58.81 6.87-5.69-.68-11.18-2.3-17.88-3.91q-4.97-1.18-12.66-4.6c-10.05-4.46-19.93-9.04-28.63-15.43q-3.65-2.67-7.49-5.1" vector-effect="non-scaling-stroke"/><path stroke="#edb361" d="m570.45 808 4.68-1.04a2.39 2.35 22.2 0 0 .78-.32q12.11-7.67 23.27-17.8" vector-effect="non-scaling-stroke"/><path stroke="#f1b050" d="M642.26 701.1q-4.52 5.81-9.51 11.9-3.1 3.78-6.28 5.68" vector-effect="non-scaling-stroke"/><path stroke="#edb361" d="m626.47 718.68.25-11.28m116.21-10.39-2.08 3.52m-320.1 87.85c7.69 7.49 15.34 14.41 24.13 18.46a1.99 1.9 60.3 0 0 .54.16l5.55.87" vector-effect="non-scaling-stroke"/><path stroke="#f2c469" d="m393.42 711.4.51 10.53" vector-effect="non-scaling-stroke"/><path stroke="#f0aa3e" d="M399.23 606.93c-3.91 3.95-9.69 5.78-14.79 6.68q-8.14 1.45-16.3 3.16c-15.5 3.26-31.18 3.19-46.68-1.26-10.66-3.06-20.59-6.52-28.05-12.23a1.6 1.59-65.5 0 0-2.53.95l-2.34 11.47a.94.93-66.9 0 0 .38.95q10.36 7.29 22.85 10.12c23.12 5.23 47.4 3.07 69.65-4.84q18.7-6.64 37.73-20.69" vector-effect="non-scaling-stroke"/><path stroke="#f6c158" d="M423.75 611.63q-.37 6.52.79 10.3 1.13 3.64 1.35 9.28c.43 11.08-5.33 15.58-14.76 19.05q-19.21 7.06-30.58 11.55-11.28 4.45-22.19 7-.36.08-.63-.01a.81.81 0 0 0-.78.14q-19.98 16.86-25.45 22.2Q316.47 705.81 303 718a1.25 1.24-19.7 0 0-.4.84q-.29 4.69 1.92 8.83" vector-effect="non-scaling-stroke"/><path stroke="#7d5f25" d="M304.52 727.67q1.47 4.34 4.92 6.65" vector-effect="non-scaling-stroke"/><path stroke="#f6c158" d="m309.44 734.32-1.41 10.7" vector-effect="non-scaling-stroke"/><path stroke="#f0aa3e" d="M308.03 745.02q-9.95-10.34-12.23-13.56-9.56-13.48-14.89-25.78-.97-2.25-3.62-10.68" vector-effect="non-scaling-stroke"/><path stroke="#f2c469" d="M276.64 688.55q1.17.63 1.15-1.8-.03-2.91.18-6.84.22-3.96.07-6.32-.26-4.25.26-6.32 1.09-4.38 1.85-13.58.12-1.36 1.76-11.32.88-5.34 2.4-11.21.47-1.79 3.43-14.5a.86.86 0 0 0-.22-.8q-2.56-2.61-6.01-4.25" vector-effect="non-scaling-stroke"/><path stroke="#f1b050" d="m645.83 350.73.77 2.22" vector-effect="non-scaling-stroke"/><path stroke="#f6c158" d="M646.6 352.95q-2.77-.67-4.83-2.11-10.92-7.65-21.88-17.98-1.26-1.18-8.27-5.19c-11.06-6.32-19.51-14.47-31.53-18.72a.87.87 0 0 0-1.09.48c-2.04 4.72-4.15 9.22-8.34 12.29" vector-effect="non-scaling-stroke"/><path stroke="#efa56a" d="M656.32 358.69q-5.39-2.82-8.75-7.97" vector-effect="non-scaling-stroke"/><path stroke="#f4b572" d="m657.7 358.91.97-2.4a2.82 2.74-13.8 0 1 .55-.88q7.32-7.97 9.09-18.9.98-6.06-.9-13.71-1.9-7.72-4.51-11.89" vector-effect="non-scaling-stroke"/><path stroke="#f2c469" d="M677.09 307.63q-4.44-1.51-8.25-4.73-2.24-1.9-3.65-2.57-2.84-1.34-4.35-1.64c-7.44-1.45-16.39-1.02-24.25 1.67-2.65.91-6.94 1.79-9.06 3.41q-4.89 3.72-11.92 10.49" vector-effect="non-scaling-stroke"/><path stroke="#817a69" d="M322.92 798.88q-11.05 2.77-21.9 9.64-2.28 1.45-3.23 3.15a1.06 1.05-65.1 0 0 .55 1.51c1.9.71 3.43.62 5.46-.16q6.99-2.69 13.81-4.4 3.3-.83 6.28-.77a1.48 1.4 13.5 0 1 1.33 2.04q-.32.63-1.57 1.28c-4.15 2.19-9.53 4.18-12.94 7.25a1.08 1.08 0 0 0 .4 1.83q4.01 1.24 8.39 1.15 18.9-.38 37.49-4.1" vector-effect="non-scaling-stroke"/><path stroke="#7a6848" d="m356.99 817.3 18.2-4.37a.22.22 0 0 0 0-.43q-10.3-2.27-20.86-5.65c-7.79-2.5-15.6-6.27-23.65-9.89a1.74 1.7 48 0 0-1.24-.08l-6.52 2" vector-effect="non-scaling-stroke"/><path stroke="#f6dfad" d="m356.99 817.3-.63-.9a.87.87 0 0 0-.8-.37q-6.24.53-12.39-3.24-12.48-7.65-20.25-13.91" vector-effect="non-scaling-stroke"/><path stroke="#817a69" d="M664.98 817.67q15.92 3.08 30.77 3.64c3.55.14 10.4.24 13.57-1.28a1.05 1.05 0 0 0 .04-1.87l-13.27-7.07a3.05 1.57 45.8 0 1-.34-.2l-1.47-.89a1.17 1.17 0 0 1 .75-2.09c7.22.26 13.58 2.75 21.01 5.29q2.84.97 5.83-.01a1.12 1.11-28.3 0 0 .53-1.75q-2.01-2.5-5.4-4.41-10.41-5.85-21.17-8.67" vector-effect="non-scaling-stroke"/><path stroke="#7a6848" d="m695.83 798.36-5.8-1.46a1.27 1.25 38.6 0 0-.88.09q-7.53 3.65-7.86 3.79-17.82 8.08-36.05 11.41a.38.38 0 0 0-.12.71q.69.38 1.54.63 9.71 2.88 18.32 4.14" vector-effect="non-scaling-stroke"/><path stroke="#f6dfad" d="M695.83 798.36q-8.01 8.56-17.97 14.06a.67.14-12 0 1-.09.04l-12.79 5.21" vector-effect="non-scaling-stroke"/><path stroke="#7d5f25" d="M445.343 354.847a30.29 22.65-34.7 0 0-37.797-1.379 30.29 22.65-34.7 0 0-12.009 35.866 30.29 22.65-34.7 0 0 37.797 1.378 30.29 22.65-34.7 0 0 12.009-35.865" vector-effect="non-scaling-stroke"/><path stroke="#f9d58a" d="M359.654 430.05a12.88 5.97-9.2 0 0-13.668-3.833 12.88 5.97-9.2 0 0-11.76 7.952 12.88 5.97-9.2 0 0 13.668 3.834 12.88 5.97-9.2 0 0 11.76-7.952" vector-effect="non-scaling-stroke"/><path stroke="#7d5f25" d="M588.002 331.745a10.77 6.53-16.2 0 0-12.164-3.266 10.77 6.53-16.2 0 0-8.52 9.276 10.77 6.53-16.2 0 0 12.164 3.266 10.77 6.53-16.2 0 0 8.52-9.276" vector-effect="non-scaling-stroke"/><path stroke="#f9d58a" d="M660.725 430.21a12.86 5.93-171.1 0 0 11.788 7.849 12.86 5.93-171.1 0 0 13.622-3.87 12.86 5.93-171.1 0 0-11.788-7.848 12.86 5.93-171.1 0 0-13.622 3.87" vector-effect="non-scaling-stroke"/><path stroke="#7e6537" d="M574.063 354.888a30.55 22.59-145.8 0 0 12.57 35.856 30.55 22.59-145.8 0 0 37.964-1.512 30.55 22.59-145.8 0 0-12.57-35.856 30.55 22.59-145.8 0 0-37.964 1.512" vector-effect="non-scaling-stroke"/><path stroke="#818080" d="M437.754 359.484a9.43 8.12-21.5 0 0-11.75-4.099 9.43 8.12-21.5 0 0-5.798 11.011 9.43 8.12-21.5 0 0 11.75 4.099 9.43 8.12-21.5 0 0 5.798-11.011m144.175.003a9.38 7.86-158.4 0 0 5.827 10.761 9.38 7.86-158.4 0 0 11.615-3.855 9.38 7.86-158.4 0 0-5.827-10.761 9.38 7.86-158.4 0 0-11.615 3.855" vector-effect="non-scaling-stroke"/><path stroke="#f8d7ce" d="M505.578 368.383a5.84 3.1-3.7 0 0-6.028-2.716 5.84 3.1-3.7 0 0-5.628 3.47 5.84 3.1-3.7 0 0 6.028 2.716 5.84 3.1-3.7 0 0 5.628-3.47" vector-effect="non-scaling-stroke"/><path stroke="#818080" d="M509.21 417.76c-4.67 4.67-7.75 8.52-14.35 10.58a.75.75 0 0 0-.49.93c1.48 5.07 3.5 10.79 9.15 12.18q7.62 1.87 13.59-.38c5.14-1.94 6.77-7.06 7.64-12.18a.77.77 0 0 0-.51-.86q-8.39-2.91-13.75-10.69a.66.66 0 0 0-1.15.11l-.13.31" vector-effect="non-scaling-stroke"/><path stroke="#818080" d="M509.21 417.76c-1.82 2.47-1.02 11.91-.58 14.83a.74.73-44.5 0 0 1.45.01q1.13-6.58.2-13.71-.16-1.21-1.07-1.13" vector-effect="non-scaling-stroke"/><path stroke="#7d5f25" d="M298.973 661.213a9.22 4.51-87 0 0-4.987 8.971 9.22 4.51-87 0 0 4.022 9.443 9.22 4.51-87 0 0 4.986-8.971 9.22 4.51-87 0 0-4.022-9.443" vector-effect="non-scaling-stroke"/><path stroke="#7d5f25" d="M299.78 691.3a8.58 4.41-97.3 0 0-3.284 9.07 8.58 4.41-97.3 0 0 5.464 7.95 8.58 4.41-97.3 0 0 3.284-9.07 8.58 4.41-97.3 0 0-5.464-7.95m421.634-29.574a9.04 4.52-93.4 0 0-3.976 9.292 9.04 4.52-93.4 0 0 5.048 8.756 9.04 4.52-93.4 0 0 3.976-9.292 9.04 4.52-93.4 0 0-5.048-8.756m-.995 29.573a8.54 4.37-82.2 0 0-5.489 7.868 8.54 4.37-82.2 0 0 3.171 9.054 8.54 4.37-82.2 0 0 5.489-7.868 8.54 4.37-82.2 0 0-3.171-9.054m-5.683 28.446a8.11 4.44-66.1 0 0-7.345 5.616 8.11 4.44-66.1 0 0 .773 9.214 8.11 4.44-66.1 0 0 7.345-5.616 8.11 4.44-66.1 0 0-.773-9.214" vector-effect="non-scaling-stroke"/></g><path fill="#fdfdfd" d="M1024 0v1024H0V0zM701.36 789.81c20.62-13.66 34.8-31.33 43.79-53.98 8.2-20.65 11.12-42.8 10.76-64.84q-.49-30.48-5.49-55.66-2.64-13.35-5.61-27.6a.81.81 0 0 1 .22-.74q18.31-18.49 24.55-43.46c7.73-30.96 1.55-65.42-15.23-92.41q-20.94-33.67-58.57-48.18a2.81 2.8 85.1 0 1-1.42-1.2q-6.98-12.04-16.64-25.02a.7.69 45.5 0 1 0-.83q.1-.14 2.51-2.46c21.37-20.68 22.83-53.9 3.11-76.3q-12.47-14.18-31.3-16.95c-20.25-2.98-38.32 7.68-49.6 23.8a.4.39 29.8 0 1-.51.13l-21.63-10.7a.83.83 0 0 1-.45-.8q1.87-22.81-11.78-41.21c-9.96-13.42-23.73-20.96-38.21-29.51q-8.03-4.74-15.12-12.9-3.34-3.85-7.56-2.87-1.9.44-6.62 5.12-6.82 6.78-10.92 9.17c-15 8.75-29.26 16.65-39.46 29.97q-14.8 19.31-12.06 43.58a.83.82 76.1 0 1-.51.86q-9.99 3.96-18.98 9.04a.77.76-31.7 0 1-1-.23q-3.53-5.22-8.51-9.99c-22.83-21.85-57.43-17.34-75.36 8.13-16.05 22.8-13.36 55.58 9.01 74.02a.38.37-53.7 0 1 .07.49l-16.73 25.78a1.28 1.28 0 0 1-.63.51c-52.88 19.7-83.13 72.13-77.14 127.7 1.47 13.65 6.23 27.13 12.57 38.35q4.55 8.05 14.57 18.21a1 .97-61.2 0 1 .25.91q-5.43 23.32-7.75 38.7-3.69 24.45-3.19 52.04c.82 44.31 15.72 86.39 54.34 111.26a.4.4 0 0 1-.1.72q-13.22 4.13-24.23 12.07c-4.58 3.3-8.01 8.46-5.28 14.18 1.89 3.94 6.39 5.24 10.5 5.58a1.16 1.14-15.6 0 1 .84.46c4.95 6.48 15.8 7.13 23.4 7.05q27.64-.27 53.86-8.39 4.5-1.39 9.97-5.91a1.13 1.12 29.2 0 1 .87-.24c27.58 4.3 55.6 4.7 82.79 2.97 11.24-.72 24.21-1.84 38.09-2.47q1.65-.07 3.33.07 32.93 2.69 63.33 3.31 27.66.57 54.35-3.82a1.76 1.75 53.1 0 1 1.09.16c.74.37 1.46 1.5 2.18 1.98q5.54 3.71 12.44 5.5 20.63 5.36 41.69 6.63c7.73.47 26.22 1.19 30.96-6.5q.73-1.18 2.11-1.22c5.81-.13 11.21-3.82 10.48-10.15-1.16-10.04-21.9-18.26-30.34-21.16a.42.42 0 0 1-.1-.75"/><path fill="#050303" d="M701.36 789.81a.42.42 0 0 0 .1.75c8.44 2.9 29.18 11.12 30.34 21.16.73 6.33-4.67 10.02-10.48 10.15q-1.38.04-2.11 1.22c-4.74 7.69-23.23 6.97-30.96 6.5q-21.06-1.27-41.69-6.63-6.9-1.79-12.44-5.5c-.72-.48-1.44-1.61-2.18-1.98a1.76 1.75 53.1 0 0-1.09-.16q-26.69 4.39-54.35 3.82-30.4-.62-63.33-3.31-1.68-.14-3.33-.07c-13.88.63-26.85 1.75-38.09 2.47-27.19 1.73-55.21 1.33-82.79-2.97a1.13 1.12 29.2 0 0-.87.24q-5.47 4.52-9.97 5.91-26.22 8.12-53.86 8.39c-7.6.08-18.45-.57-23.4-7.05a1.16 1.14-15.6 0 0-.84-.46c-4.11-.34-8.61-1.64-10.5-5.58-2.73-5.72.7-10.88 5.28-14.18q11.01-7.94 24.23-12.07a.4.4 0 0 0 .1-.72c-38.62-24.87-53.52-66.95-54.34-111.26q-.5-27.59 3.19-52.04 2.32-15.38 7.75-38.7a1 .97-61.2 0 0-.25-.91q-10.02-10.16-14.57-18.21c-6.34-11.22-11.1-24.7-12.57-38.35-5.99-55.57 24.26-108 77.14-127.7a1.28 1.28 0 0 0 .63-.51l16.73-25.78a.38.37-53.7 0 0-.07-.49c-22.37-18.44-25.06-51.22-9.01-74.02 17.93-25.47 52.53-29.98 75.36-8.13q4.98 4.77 8.51 9.99a.77.76-31.7 0 0 1 .23q8.99-5.08 18.98-9.04a.83.82 76.1 0 0 .51-.86q-2.74-24.27 12.06-43.58c10.2-13.32 24.46-21.22 39.46-29.97q4.1-2.39 10.92-9.17 4.72-4.68 6.62-5.12 4.22-.98 7.56 2.87 7.09 8.16 15.12 12.9c14.48 8.55 28.25 16.09 38.21 29.51q13.65 18.4 11.78 41.21a.83.83 0 0 0 .45.8l21.63 10.7a.4.39 29.8 0 0 .51-.13c11.28-16.12 29.35-26.78 49.6-23.8q18.83 2.77 31.3 16.95c19.72 22.4 18.26 55.62-3.11 76.3q-2.41 2.32-2.51 2.46a.7.69 45.5 0 0 0 .83q9.66 12.98 16.64 25.02a2.81 2.8 85.1 0 0 1.42 1.2q37.63 14.51 58.57 48.18c16.78 26.99 22.96 61.45 15.23 92.41q-6.24 24.97-24.55 43.46a.81.81 0 0 0-.22.74q2.97 14.25 5.61 27.6 5 25.18 5.49 55.66c.36 22.04-2.56 44.19-10.76 64.84-8.99 22.65-23.17 40.32-43.79 53.98M470.71 246.53l5.81-1.39a2.98 2.98 0 0 1 2.88.89c2.21 2.42 6.06 6.91 8.62 7.08 6.78.45 13.22-3.39 18.24-7.34q.81-.64 3-.6a1.7 1.65 60.6 0 1 .84.25q3.14 1.94 6.75 4.26c4.13 2.65 12.14 5.05 16 1.44 1.45-1.36 5.05-6.26 7.59-6.07q1.81.13 7.84 2.34 3.25 1.49 6.6 1.58a.33.33 0 0 0 .27-.53q-1.06-1.34-3.05-3.03c-8.8-7.44-17.6-12.61-26.66-18.73-6.27-4.24-10.46-8.57-15.63-14.19a1.61 1.6-37 0 0-2.01-.28q-.46.27-1.32 1.28c-5.54 6.43-12.16 12.03-19.57 16.61-9.3 5.75-17.22 11.13-24.86 18.78a.37.36-72.5 0 0 .32.62q4.95-.9 8.34-2.97m-9.42 7.67-3.38-.16a2.41 2.41 0 0 0-2.13 1.07q-11.06 16.58-10.34 34.86c.6 15.47 7.12 29.11 18.1 39.93q5.43 5.96 12.01 9.3 11.87 6.01 27.83 11.77c3.21 1.16 5.85 1.55 8.94.59q2.87-.9 15.31-5.67 3.52-1.35 12.03-5.53 6.85-3.35 11.21-6.98c8.91-7.42 17.82-19.13 19.69-30.82q1.32-4.3 1.73-9.78 1.59-21.3-11.34-38.68a1.44 1.44 0 0 0-1.4-.56l-2.46.45q-4.04.3-8.25-1.16-3.39-1.18-6.66-2.52a2.26 2.26 0 0 0-2.52.58c-2.11 2.35-4.22 5.02-7.15 6.03-7.88 2.73-16.98-1.47-23.03-6.5a1.12 1.12 0 0 0-1.44 0q-4.68 3.84-9.36 5.78c-9.29 3.84-15.93 1.69-22.01-6a.77.77 0 0 0-.89-.25l-8.57 3.4a2.11 1.69 24.7 0 1-.4.1zm-116.98 52.56q-11.66 15.56-8.58 34.97 2.82 16.3 15.7 25.6a.61.61 0 0 0 .78-.05q5.31-5.03 11.17-8.69 1.7-.45 3.08.98-2.43 7.47-7.64 14.24-9.2 11.97-17.37 24.79a.24.24 0 0 0 .23.36l13.26-1.57c3.44-.24 13.18-1 15.42.97a.95.95 0 0 1-.11 1.51q-1.33.87-3.86 1.42-9.81 2.15-19.29 4.87c-36.91 9.7-68.56 35.71-81.17 72.22-5.74 15-7.38 32.7-6.01 48.57q4.55 43.41 41.16 65.24c24 14.31 52.96 17.04 80.4 10.76q14.94-3.43 32.34-10.89c7.26-3.11 14.67-7.65 21.43-11.07q1.87-.94 4.94-1.92a.97.97 0 0 1 1.08 1.5q-2.41 3.28-7.19 6.75-8.4 6.1-17.7 11.45l-17.15 8.16q-9.83 3.38-14.85 4.71c-34.47 9.12-69.81 4.92-98.92-16.15a.21.21 0 0 0-.33.12l-3.62 16c-4.62 25.84-7.29 51.11-4.87 76.94l.65 6.45q.73 8.89 1.72 13.51 1.98 9.28 6.82 22.52 4.55 12.46 15.15 26.64c22.92 30.69 64.68 44.03 101.35 48.2q14.91 1.7 35.67 2.15 7.95.18 12.97-.15 26.29-.68 52.54-2.8 2.74-.22 5.5-.3 2.36-.06 5.49.16 27.96 2.01 55.95 3.07 19.39-.06 31.05-.66 18.94-.97 41.06-5.51 10.38-2.13 26.87-8.38c13.82-5.24 27.46-13.62 37.63-22.64 21.12-18.73 33.2-45.75 35.87-73.8q2.75-19.33 1.52-38.01-1.47-22.53-5.7-47l-3.49-16.24a.44.44 0 0 0-.7-.26c-20.01 15.23-45.89 21.94-71.01 20.61q-26.2-1.39-50.55-12.26c-4.08-1.82-8.63-4.45-12.94-6.67q-8.22-4.97-15.69-10.79-3.7-2.89-6.07-6.19a.71.71 0 0 1 .71-1.11q2.99.57 5.21 1.75 13.47 7.13 17.92 9.3c23.9 11.69 50.23 18.33 76.05 15.49q26.94-2.96 49.18-18.95c19.77-14.21 31.35-37.74 33.06-61.88q1.29-18.02-2.93-36.01-.72-3.08-2.08-6.71-4.34-15.52-13.93-29.32c-10.98-15.8-24.83-27.14-42.05-36.38-13.37-7.18-30.4-11.47-45.23-14.51q-.99-.21-4.07-1.65-1.41-.76-1.13-1.8.16-.56.73-.7c5.05-1.19 10.28-.8 15.39-.39l13.78 1.6a.2.2 0 0 0 .19-.3q-5.74-9.38-12.34-18.06c-4.42-5.8-8.89-11.97-11.57-18.56q-.83-2.04 1.13-3.32.54-.25 1.38.22l10.8 8.58a.97.97 0 0 0 1.23-.01c8.53-7.06 13.85-16.98 15.46-27.78q2.57-17.3-8.1-32.07c-12-16.77-34.02-22.08-51.59-10.6q-8.36 5.45-13.51 13.89a.7.7 0 0 0 .2.93l3.42 2.41 8.46 6.84a.42.42 0 0 0 .62-.1c4.84-7.69 10.71-14.83 19.43-17.69q6.16-2.02 11.7-.39 8.55 2.5 7.08 8.21-8.87-5.55-16.46-.43-9.79 6.6-14.35 17.72a.63.63 0 0 0 .11.67q5.53 6.22 10.24 12.23 3.44 4.39 5.13 9.4-1.01.31-1.74.01-5.41-3.31-7.64-5.4-22.73-21.32-49.07-35.45-5.14-2.76-10.44-4.82a.54.54 0 0 0-.72.36q-2.35 8.61-7.3 16.3l-5.45 7.42q-11.35 12.89-26.77 20.28-6.29 3.02-13.15 5.81-3.09 1.08-6.62 2.17c-9.11 2.8-16.71 1.62-26.51-2.33-16.52-5.78-30.58-14.46-41.63-28.3q-6.99-9.68-10.49-20.77a.59.59 0 0 0-.81-.36q-23.73 10.88-43.43 27.72-10.18 8.44-14.87 12.83-3.82 3.56-8.22 4.68 1.52-4.85 4.49-8.66 4.49-5.77 10.84-13.03a.74.73-37.1 0 0 .11-.79c-4.44-9.42-13.98-23.08-26.49-19.17q-2.36.74-4.06 1.45-1.49-.64-.89-1.67 2.63-4.57 8.2-6.08c9.6-2.58 19.32 3.19 25.05 10.68q2.76 3.61 5.1 7.17a.51.51 0 0 0 .73.12l8.42-6.55 4.13-2.84a.65.64 57.3 0 0 .18-.86c-14.9-24.24-46.5-26.81-64.21-3.88m-21.39 492.12q-11.05 2.77-21.9 9.64-2.28 1.45-3.23 3.15a1.06 1.05-65.1 0 0 .55 1.51c1.9.71 3.43.62 5.46-.16q6.99-2.69 13.81-4.4 3.3-.83 6.28-.77a1.48 1.4 13.5 0 1 1.33 2.04q-.32.63-1.57 1.28c-4.15 2.19-9.53 4.18-12.94 7.25a1.08 1.08 0 0 0 .4 1.83q4.01 1.24 8.39 1.15 18.9-.38 37.49-4.1l18.2-4.37a.22.22 0 0 0 0-.43q-10.3-2.27-20.86-5.65c-7.79-2.5-15.6-6.27-23.65-9.89a1.74 1.7 48 0 0-1.24-.08zm342.06 18.79q15.92 3.08 30.77 3.64c3.55.14 10.4.24 13.57-1.28a1.05 1.05 0 0 0 .04-1.87l-13.27-7.07a3.05 1.57 45.8 0 1-.34-.2l-1.47-.89a1.17 1.17 0 0 1 .75-2.09c7.22.26 13.58 2.75 21.01 5.29q2.84.97 5.83-.01a1.12 1.11-28.3 0 0 .53-1.75q-2.01-2.5-5.4-4.41-10.41-5.85-21.17-8.67l-5.8-1.46a1.27 1.25 38.6 0 0-.88.09q-7.53 3.65-7.86 3.79-17.82 8.08-36.05 11.41a.38.38 0 0 0-.12.71q.69.38 1.54.63 9.71 2.88 18.32 4.14"/><path fill="#fdf0ce" d="M548.28 247.39q-.02-2.1-1.67-3-11.36-6.2-19.14-12.53-.54-.43-1.19-.89-2.41-1.71-6.34-4.32c-3.98-2.64-6.11-4.71-10.18-8.45a1.72 1.71-45.6 0 0-2.34.03l-7.18 6.92a6.96 6.88-82.9 0 1-1.18.93q-8.1 5.07-9.55 6.19-9.16 7.06-18.8 14.26-3.39 2.07-8.34 2.97a.37.36-72.5 0 1-.32-.62c7.64-7.65 15.56-13.03 24.86-18.78 7.41-4.58 14.03-10.18 19.57-16.61q.86-1.01 1.32-1.28a1.61 1.6-37 0 1 2.01.28c5.17 5.62 9.36 9.95 15.63 14.19 9.06 6.12 17.86 11.29 26.66 18.73q1.99 1.69 3.05 3.03a.33.33 0 0 1-.27.53q-3.35-.09-6.6-1.58"/><path fill="#efcd8c" d="M548.28 247.39q-6.03-2.21-7.84-2.34c-2.54-.19-6.14 4.71-7.59 6.07-3.86 3.61-11.87 1.21-16-1.44q-3.61-2.32-6.75-4.26a1.7 1.65 60.6 0 0-.84-.25q-2.19-.04-3 .6c-5.02 3.95-11.46 7.79-18.24 7.34-2.56-.17-6.41-4.66-8.62-7.08a2.98 2.98 0 0 0-2.88-.89l-5.81 1.39q9.64-7.2 18.8-14.26 1.45-1.12 9.55-6.19a6.96 6.88-82.9 0 0 1.18-.93l7.18-6.92a1.72 1.71-45.6 0 1 2.34-.03c4.07 3.74 6.2 5.81 10.18 8.45q3.93 2.61 6.34 4.32.65.46 1.19.89 7.78 6.33 19.14 12.53 1.65.9 1.67 3"/><path fill="#9e5222" d="M557.09 253.99q1.29 2.21 2.59 4.35c2.4 3.97 4.12 8.97 5.59 12.22q1.51 3.34 2.45 7.96 2.51 12.34 1.24 24.2a.59.58 57 0 0 1.13.25q.05-.19.47-.41c-1.87 11.69-10.78 23.4-19.69 30.82q-4.36 3.63-11.21 6.98-8.51 4.18-12.03 5.53-12.44 4.77-15.31 5.67c-3.09.96-5.73.57-8.94-.59q-15.96-5.76-27.83-11.77-6.58-3.34-12.01-9.3.61.04.84-.33a.43.42-53.4 0 0-.07-.53q-2.76-2.56-3.8-5.99a3.5 3.41 18.8 0 0-.57-1.12q-3.03-3.92-4.75-9.81c-3.35-11.49-5.16-21.77-3.73-33.06.57-4.44 2.11-7.87 3.93-12.79q.95-2.55 2.82-6.08 1.54-2.91 3.08-5.99l5.52-.75a2.11 1.69 24.7 0 0 .4-.1l8.57-3.4a.77.77 0 0 1 .89.25c6.08 7.69 12.72 9.84 22.01 6q4.68-1.94 9.36-5.78a1.12 1.12 0 0 1 1.44 0c6.05 5.03 15.15 9.23 23.03 6.5 2.93-1.01 5.04-3.68 7.15-6.03a2.26 2.26 0 0 1 2.52-.58q3.27 1.34 6.66 2.52 4.21 1.46 8.25 1.16"/><path fill="#eb9936" d="M570.56 302.56q-.42.22-.47.41a.59.58 57 0 1-1.13-.25q1.27-11.86-1.24-24.2-.94-4.62-2.45-7.96c-1.47-3.25-3.19-8.25-5.59-12.22q-1.3-2.14-2.59-4.35l2.46-.45a1.44 1.44 0 0 1 1.4.56q12.93 17.38 11.34 38.68-.41 5.48-1.73 9.78M461.29 254.2q-1.54 3.08-3.08 5.99-1.87 3.53-2.82 6.08c-1.82 4.92-3.36 8.35-3.93 12.79-1.43 11.29.38 21.57 3.73 33.06q1.72 5.89 4.75 9.81a3.5 3.41 18.8 0 1 .57 1.12q1.04 3.43 3.8 5.99a.43.42-53.4 0 1 .07.53q-.23.37-.84.33c-10.98-10.82-17.5-24.46-18.1-39.93q-.72-18.28 10.34-34.86a2.41 2.41 0 0 1 2.13-1.07z"/><path fill="#efcd8c" d="M404.21 314.34q-4.16-5.43-10.13-9.44-3.9-2.61-9.01-4.15-11.87-3.58-23.78-2.29-7.6.82-13.21 6.88-.98 1.05-3.77 1.42c17.71-22.93 49.31-20.36 64.21 3.88a.65.64 57.3 0 1-.18.86zm272.88-6.71q-4.44-1.51-8.25-4.73-2.24-1.9-3.65-2.57-2.84-1.34-4.35-1.64c-7.44-1.45-16.39-1.02-24.25 1.67-2.65.91-6.94 1.79-9.06 3.41q-4.89 3.72-11.92 10.49l-3.42-2.41a.7.7 0 0 1-.2-.93q5.15-8.44 13.51-13.89c17.57-11.48 39.59-6.17 51.59 10.6"/><path fill="#f4ba46" d="m404.21 314.34-8.42 6.55a.51.51 0 0 1-.73-.12q-2.34-3.56-5.1-7.17c-5.73-7.49-15.45-13.26-25.05-10.68q-5.57 1.51-8.2 6.08-.6 1.03.89 1.67-3.81 8.34-5.21 15.17-1.41 6.84.81 14.93c-4.23-1.56-7.22-.51-10.92 1.75-2.74 1.66-4.88 2.42-6.55-.79q-3.08-19.41 8.58-34.97 2.79-.37 3.77-1.42 5.61-6.06 13.21-6.88 11.91-1.29 23.78 2.29 5.11 1.54 9.01 4.15 5.97 4.01 10.13 9.44m272.88-6.71q10.67 14.77 8.1 32.07c-1.61 10.8-6.93 20.72-15.46 27.78a.97.97 0 0 1-1.23.01l-10.8-8.58.97-2.4a2.82 2.74-13.8 0 1 .55-.88q7.32-7.97 9.09-18.9.98-6.06-.9-13.71-1.9-7.72-4.51-11.89 1.47-5.71-7.08-8.21-5.54-1.63-11.7.39c-8.72 2.86-14.59 10-19.43 17.69a.42.42 0 0 1-.62.1l-8.46-6.84q7.03-6.77 11.92-10.49c2.12-1.62 6.41-2.5 9.06-3.41 7.86-2.69 16.81-3.12 24.25-1.67q1.51.3 4.35 1.64 1.41.67 3.65 2.57 3.81 3.22 8.25 4.73"/><path fill="#f7c76a" d="m645.83 350.73.77 2.22q-2.77-.67-4.83-2.11-10.92-7.65-21.88-17.98-1.26-1.18-8.27-5.19c-11.06-6.32-19.51-14.47-31.53-18.72a.87.87 0 0 0-1.09.48c-2.04 4.72-4.15 9.22-8.34 12.29q4.95-7.69 7.3-16.3a.54.54 0 0 1 .72-.36q5.3 2.06 10.44 4.82 26.34 14.13 49.07 35.45 2.23 2.09 7.64 5.4"/><path fill="#f4ba46" d="m450.53 326.77-2.55 3.64c-3.77-2.42-12.85-4.83-15.22.78-.86 2.03-.03 4.41 1.43 5.85q4.59 4.5 11.04 4.63 5.14.11 7.32-4.16.36 3.18 1.53 5.48.34.67 3.14 4.77 8.02 11.78 22.38 14.83.16.47-.55 1.28-9.65 8.98-15.86 20.1-3.83 6.84-7.52 16.26-24.03-4.22-48.23 4.24-1.02.36-1.54 1.02a.25.25 0 0 0 .22.4c18.97-1.21 32.01-2.01 48.16-1.18q-.93 5.77-4.44 11.71-9.52 4.22-16.71 8.71-12.07 7.53-21.23 18.51a.22.22 0 0 0 .28.33c11.06-6.88 22.07-13.47 34.19-19.31q-2.49 7.59-4.91 12.3-2.39 4.68-6.62 11.08-20.71 1.22-41.16 3.4c-24.91 2.67-45.53 9.65-60.56 30.83-9.43 13.28-14.3 20.65-21.65 30.87q-18.11-2.99-32.97-14.4-5.47-4.2-8.54-9.45.45-7.65 3.7-13.15 4.37-7.41 7.81-13.19 7.5-12.61 17.44-22.34c7.11-6.97 16.44-15.01 24.67-19.76q16.2-9.34 19.39-10.89 2.22-1.08 5.29-2.1a.87.87 0 0 0 .05-1.64q-.52-.21-1.21-.06 9.48-2.72 19.29-4.87 2.53-.55 3.86-1.42a.95.95 0 0 0 .11-1.51c-2.24-1.97-11.98-1.21-15.42-.97q2.61-5.4 5.03-10.65c1.92-4.15 4.29-7.52 5.91-11.26 3.39-7.8 9.35-14.26 13.72-21.55q3.06-5.13 5.06-7.25 5.08-5.35 6.24-6.3 3.98-3.24 4.65-4.3 1.41-2.22.25-2.72 19.7-16.84 43.43-27.72a.59.59 0 0 1 .81.36q3.5 11.09 10.49 20.77m-5.187 28.077a30.29 22.65-34.7 0 0-37.797-1.379 30.29 22.65-34.7 0 0-12.009 35.866 30.29 22.65-34.7 0 0 37.797 1.378 30.29 22.65-34.7 0 0 12.009-35.865m-85.689 75.204a12.88 5.97-9.2 0 0-13.668-3.834 12.88 5.97-9.2 0 0-11.76 7.952 12.88 5.97-9.2 0 0 13.668 3.834 12.88 5.97-9.2 0 0 11.76-7.952"/><path fill="#f3b09e" d="M372.71 350.87q-3.78 3.36-6.25 8.7-1.38-1.43-3.08-.98-2.85-2.72-4.24-4.73-3.93-5.69-5.94-13.09-2.22-8.09-.81-14.93 1.4-6.83 5.21-15.17 1.7-.71 4.06-1.45c12.51-3.91 22.05 9.75 26.49 19.17a.74.73-37.1 0 1-.11.79q-6.35 7.26-10.84 13.03-2.97 3.81-4.49 8.66m290.19-39.74q2.61 4.17 4.51 11.89 1.88 7.65.9 13.71-1.77 10.93-9.09 18.9a2.82 2.74-13.8 0 0-.55.88l-.97 2.4q-.84-.47-1.38-.22-5.39-2.82-8.75-7.97-1.69-5.01-5.13-9.4-4.71-6.01-10.24-12.23a.63.63 0 0 1-.11-.67q4.56-11.12 14.35-17.72 7.59-5.12 16.46.43"/><path fill="#f4ba46" d="M646.6 352.95q2.98 5.42 4.13 8.32 7.14 18.02 14.4 36.06c-5.11-.41-10.34-.8-15.39.39q-.57.14-.73.7-.28 1.04 1.13 1.8 2.02 3.61 5.92 4.44c10.51 2.22 17.59 3.56 25.7 8.31q7.82 4.57 13.89 7.91 6.09 3.34 11.18 7.29 9.16 7.08 19.02 16.97 6.37 6.39 10.9 14.12 6.12 10.42 10.81 19.06c1.57 2.88 2.47 6.17 3.56 9.37q-2.11 3.67-4.78 6.4-12.24 12.57-29.86 16.99c-8.9-19.02-19.21-37.66-35.62-51.11-16.82-13.78-36.69-20.46-58.43-19.8q-9.42.29-16.52 1.14c-10.53-10.99-22.35-18.4-35.98-24.68l-4.24-11.89c17.35-.97 32.44.09 48.65 1.18a.33.33 0 0 0 .13-.64l-7.07-2.35c5.89-3.02 13.08-3.61 17.62-10.92 5.19-8.35 5.52-19.87.22-28.22q-.25-.4-6.14-9.03a3.63 3.59-86.4 0 0-.61-.7q-4.03-3.73-9.05-5.72c-4.83-1.91-12.43-3.98-17.76-4.27-7.75-.41-16.7 3.1-20.85 10.33q-1.93 3.37-2.01 8.5c-.13 9 3.48 19.06 10.25 25.38q1.81 1.68 6.4 5.52a1.58 1.57 63.6 0 1-.93 2.78c-7.18.31-14.55.04-18.98-6.63q-6.13-9.2-11.65-18.61c-2.16-3.68-7.02-5.95-11.38-8.23 10.3-3.62 15.7-10.53 20.98-20.09a5.86 5.79 65.6 0 0 .62-1.68q.65-3.17 1.76-6.52.62-1.89-.68-5.68l5.45-7.42c4.19-3.07 6.3-7.57 8.34-12.29a.87.87 0 0 1 1.09-.48c12.02 4.25 20.47 12.4 31.53 18.72q7.01 4.01 8.27 5.19 10.96 10.33 21.88 17.98 2.06 1.44 4.83 2.11m-58.598-21.205a10.77 6.53-16.2 0 0-12.164-3.266 10.77 6.53-16.2 0 0-8.52 9.276 10.77 6.53-16.2 0 0 12.164 3.266 10.77 6.53-16.2 0 0 8.52-9.276m72.723 98.465a12.86 5.93-171.1 0 0 11.788 7.849 12.86 5.93-171.1 0 0 13.622-3.87 12.86 5.93-171.1 0 0-11.788-7.848 12.86 5.93-171.1 0 0-13.622 3.87"/><path fill="#eb9936" d="M492.16 355.07q-6.53 2.94-12.56 7.52-14.36-3.05-22.38-14.83-2.8-4.1-3.14-4.77-1.17-2.3-1.53-5.48-.27-4.56-4.57-7.1l2.55-3.64c11.05 13.84 25.11 22.52 41.63 28.3"/><ellipse fill="#050303" rx="10.77" ry="6.53" transform="rotate(-16.2 1464.868 -1862.05)"/><path fill="#050303" d="M447.98 330.41q4.3 2.54 4.57 7.1-2.18 4.27-7.32 4.16-6.45-.13-11.04-4.63c-1.46-1.44-2.29-3.82-1.43-5.85 2.37-5.61 11.45-3.2 15.22-.78"/><path fill="#eb9936" d="M565.21 329.14q1.3 3.79.68 5.68-1.11 3.35-1.76 6.52a5.86 5.79 65.6 0 1-.62 1.68c-5.28 9.56-10.68 16.47-20.98 20.09q-.67-.27-1.32-.21-6.74-4.44-9.03-5.57-2.23-1.1-6.89-2.1 6.86-2.79 13.15-5.81 15.42-7.39 26.77-20.28"/><path fill="#efcd8c" d="M395.8 333.36q1.16.5-.25 2.72-.67 1.06-4.65 4.3-1.16.95-6.24 6.3-2 2.12-5.06 7.25c-4.37 7.29-10.33 13.75-13.72 21.55-1.62 3.74-3.99 7.11-5.91 11.26q-2.42 5.25-5.03 10.65l-13.26 1.57a.24.24 0 0 1-.23-.36q8.17-12.82 17.37-24.79 5.21-6.77 7.64-14.24 2.47-5.34 6.25-8.7 4.4-1.12 8.22-4.68 4.69-4.39 14.87-12.83"/><path fill="#eb9936" d="M353.2 340.77q2.01 7.4 5.94 13.09 1.39 2.01 4.24 4.73-5.86 3.66-11.17 8.69a.61.61 0 0 1-.78.05q-12.88-9.3-15.7-25.6c1.67 3.21 3.81 2.45 6.55.79 3.7-2.26 6.69-3.31 10.92-1.75"/><path fill="#f7c76a" d="M607.4 402.93q-21.02-6.59-42.49-2.9-4.49-10.38-8.07-16.85-5.58-10.06-14.39-18.08l-1.24-2.2q.65-.06 1.32.21c4.36 2.28 9.22 4.55 11.38 8.23q5.52 9.41 11.65 18.61c4.43 6.67 11.8 6.94 18.98 6.63a1.58 1.57 63.6 0 0 .93-2.78q-4.59-3.84-6.4-5.52c-6.77-6.32-10.38-16.38-10.25-25.38q.08-5.13 2.01-8.5c4.15-7.23 13.1-10.74 20.85-10.33 5.33.29 12.93 2.36 17.76 4.27q5.02 1.99 9.05 5.72a3.63 3.59-86.4 0 1 .61.7q5.89 8.63 6.14 9.03c5.3 8.35 4.97 19.87-.22 28.22-4.54 7.31-11.73 7.9-17.62 10.92m-33.337-48.042a30.55 22.59-145.8 0 0 12.57 35.856 30.55 22.59-145.8 0 0 37.964-1.512 30.55 22.59-145.8 0 0-12.57-35.856 30.55 22.59-145.8 0 0-37.964 1.512"/><path fill="#050303" d="M445.343 354.847a30.29 22.65-34.7 0 1-12.009 35.865 30.29 22.65-34.7 0 1-37.797-1.378 30.29 22.65-34.7 0 1 12.009-35.866 30.29 22.65-34.7 0 1 37.797 1.378m-7.59 4.637a9.43 8.12-21.5 0 0-11.749-4.099 9.43 8.12-21.5 0 0-5.798 11.011 9.43 8.12-21.5 0 0 11.75 4.099 9.43 8.12-21.5 0 0 5.798-11.011m136.309-4.595a30.55 22.59-145.8 0 1 37.965-1.512 30.55 22.59-145.8 0 1 12.57 35.856 30.55 22.59-145.8 0 1-37.965 1.512 30.55 22.59-145.8 0 1-12.57-35.856m7.866 4.599a9.38 7.86-158.4 0 0 5.827 10.761 9.38 7.86-158.4 0 0 11.615-3.855 9.38 7.86-158.4 0 0-5.827-10.761 9.38 7.86-158.4 0 0-11.615 3.855"/><path fill="#eb9936" d="M647.57 350.72q3.36 5.15 8.75 7.97-1.96 1.28-1.13 3.32c2.68 6.59 7.15 12.76 11.57 18.56q6.6 8.68 12.34 18.06a.2.2 0 0 1-.19.3l-13.78-1.6q-7.26-18.04-14.4-36.06-1.15-2.9-4.13-8.32l-.77-2.22q.73.3 1.74-.01"/><ellipse fill="#fdfdfd" rx="9.43" ry="8.12" transform="rotate(-21.5 1170.32 -948.281)"/><ellipse fill="#fdfdfd" rx="9.38" ry="7.86" transform="rotate(201.6 329.942 125.134)"/><path fill="#efcd8c" d="M492.16 355.07c9.8 3.95 17.4 5.13 26.51 2.33q3.53-1.09 6.62-2.17 4.66 1 6.89 2.1 2.29 1.13 9.03 5.57l1.24 2.2q-6.89-2.29-12.62.06-.92-.08-2.54-1.36a4.7 4.7 0 0 0-1.48-.77q-13.24-4.04-25.02-1.81-4.65.88-10.6 4.64-4.22-3.18-11.14-1.99.71-.81.55-1.28 6.03-4.58 12.56-7.52"/><path fill="#f3b09e" d="M529.83 365.16q3.31 2.56 3.75 4.64c-6.76 4.73-12.28 9.13-20.46 12.82-3.9 1.76-7.48.01-10.91-2.09q-7.84-4.83-15.9-10.81l3.88-3.86q5.95-3.76 10.6-4.64 11.78-2.23 25.02 1.81a4.7 4.7 0 0 1 1.48.77q1.62 1.28 2.54 1.36m-24.252 3.223a5.84 3.1-3.7 0 0-6.028-2.716 5.84 3.1-3.7 0 0-5.628 3.47 5.84 3.1-3.7 0 0 6.028 2.716 5.84 3.1-3.7 0 0 5.628-3.47"/><path fill="#fdf0ce" d="m490.19 365.86-3.88 3.86q-3.19 5.83 1.87 11.09 6.62 6.89 16.89 11.05a.85.85 0 0 1 .54.79q.11 9.67-.32 11.86c-1.33 6.77-7.11 12.64-12.89 15.67q-7.5 3.93-14.77-.32a1.19 1.18 6.4 0 0-1.73 1.38c1.51 4.77 6.06 7.09 10.74 7.99a.83.83 0 0 1 .68.74c2.6 24.98 36.31 29.86 43.9 5.3q1.24-3.99 1.32-5.06a.56.55-9 0 1 .34-.46l5.97-2.36a6.93 6.9-87.6 0 0 3.66-3.38l.94-1.89a1.23 1.23 0 0 0-1.59-1.68q-8.61 3.73-16.15-1.06c-6.74-4.29-11.57-10.29-11.95-18.38q-.21-4.47-.13-8.17a.84.82 82 0 1 .56-.76c7.12-2.37 19.59-9.63 21-18.06q.49-2.91-1.61-4.21-.44-2.08-3.75-4.64 5.73-2.35 12.62-.06 8.81 8.02 14.39 18.08 3.58 6.47 8.07 16.85l-10.84 3.16a1.05 1.05 0 0 0-.16 1.95q.96.46 2.62.31 4.91-.45 9.16-.71l4.24 11.89c-5.14-1.98-12.27-4.81-17.77-4.25a.8.79-34.5 0 0-.28 1.5l21.48 10.88q2.88 8.52 5.58 13.55c11.98 22.31 31.56 41.11 52.79 55.24 23.25 15.49 50.75 24.08 78.89 19.05q3.09-.55 5.86-1.52 17.62-4.42 29.86-16.99 2.67-2.73 4.78-6.4 1.92-3.53 4.3-5.61 1.36 3.63 2.08 6.71 4.22 17.99 2.93 36.01-3.55 2.47-5.18 7.21-2.95 8.61-9.39 15.36-8.09 8.48-13.76 13.97-3.56 3.45-12.37 9.13-31.45 20.32-68.97 20.56-14.64.09-28.37-2.69-19.21-3.89-34.26-9.38-1.16-.43-8.12-2.12c-5.47-1.34-12.02-3.97-18.28-4.23a.71.71 0 0 0-.64 1.08q.64 1.02 2.25 3.25 5.38 7.45 15.86 17.46c3.31 3.15 6.1 5.96 9.85 9.33q2.05 1.84 3.66 3.95l-5.45 10.64q-11.22 13.39-18.14 31.3-8.58 22.21-12.28 40.37c-.45 2.24-.96 3.73-2.05 5.89-4.6 9.12-8.34 20.79-4.85 30.61q-2.48 1.64-.42 6.48c4.62 10.83 12.9 16.38 24.68 16.41 8.31.02 12.97-2.24 20.17-6.42q3.21-1.86 6.84-4.95 10.3-8.77 21.89-15.77a4.77 4.72-84 0 0 1.04-.85q1.12-1.2 2.25-1.74-.75 36.51-23.19 64.57-1.46 1.84-3.19 3.59-3.71.58-9.01.62-31.17.19-57.23-1.96c-17.89-1.48-33.47-1.31-51.66.18-20.11 1.65-40.15 1.92-60.17 1.52a1.26 1.26 0 0 1-.75-.27l-1.55-1.22q-3.62-3.59-6.54-7.79-17.04-24.53-18.79-55.28 9.64 4.92 17.18 12.24c4.31 4.18 7.52 6.6 12.05 9.4 7.1 4.39 15.13 5.47 22.81 3.93q4.3-.86 9.47-4.86 9.96-7.69 8.2-19.11 1.03-4.92.46-9.72c-1.25-10.6-6.59-19.21-8.77-29.43-4.18-19.57-10.88-38.48-20.46-56.04q-1.85-3.38-7.3-10.53l-.09-2.23a1.27 1.2 25.9 0 0-.26-.69q-3.88-5.02.4-9.36c13.42-13.61 21.75-21.67 30.07-33.38a.6.6 0 0 0-.45-.95q-2.9-.2-5.92.57-5.76 1.46-30.32 8.9-13.48 4.08-21.38 5.41-.1.02-12.25 1.96c-28.69 4.57-58.1-1.74-83.06-16.09-14.05-8.08-24.29-18.43-34.79-31.29q-2.82-3.47-8.2-14.74a1.09 1.04-80.3 0 0-.18-.27l-1-1.12a.37.37 0 0 0-.64.28l.04.46c-1.37-15.87.27-33.57 6.01-48.57q.59.54.94 1.21a1.63 1.61 33.8 0 1 .18.89q-.27 2.73.15 3.58 1.32 2.59 2.76 5.23 3.07 5.25 8.54 9.45 14.86 11.41 32.97 14.4c48.47 8.28 96.92-27.94 123.37-65.1q4.23-6.4 6.62-11.08 2.42-4.71 4.91-12.3 8.42-4.3 17.67-8.64 2.06-.96 3.13-1.72a1.03.93-43.9 0 0 .11-1.59q-.3-.22-.9-.27c-4.85-.42-11.36 2.27-16.54 3.98q3.51-5.94 4.44-11.71l11.27.48a.87.87 0 0 0 .44-1.64q-4.46-2.34-10.32-3.32 3.69-9.42 7.52-16.26 6.21-11.12 15.86-20.1 6.92-1.19 11.14 1.99"/><ellipse fill="#fdfdfd" rx="5.84" ry="3.1" transform="rotate(-3.7 5958.267 -7551.732)"/><path fill="#050303" d="M486.31 369.72q8.06 5.98 15.9 10.81c3.43 2.1 7.01 3.85 10.91 2.09 8.18-3.69 13.7-8.09 20.46-12.82q2.1 1.3 1.61 4.21c-1.41 8.43-13.88 15.69-21 18.06a.84.82 82 0 0-.56.76q-.08 3.7.13 8.17c.38 8.09 5.21 14.09 11.95 18.38q7.54 4.79 16.15 1.06a1.23 1.23 0 0 1 1.59 1.68l-.94 1.89a6.93 6.9-87.6 0 1-3.66 3.38l-5.97 2.36a.56.55-9 0 0-.34.46q-.08 1.07-1.32 5.06c-7.59 24.56-41.3 19.68-43.9-5.3a.83.83 0 0 0-.68-.74c-4.68-.9-9.23-3.22-10.74-7.99a1.19 1.18 6.4 0 1 1.73-1.38q7.27 4.25 14.77.32c5.78-3.03 11.56-8.9 12.89-15.67q.43-2.19.32-11.86a.85.85 0 0 0-.54-.79q-10.27-4.16-16.89-11.05-5.06-5.26-1.87-11.09m22.9 48.04c-4.67 4.67-7.75 8.52-14.35 10.58a.75.75 0 0 0-.49.93c1.48 5.07 3.5 10.79 9.15 12.18q7.62 1.87 13.59-.38c5.14-1.94 6.77-7.06 7.64-12.18a.77.77 0 0 0-.51-.86q-8.39-2.91-13.75-10.69a.66.66 0 0 0-1.15.11zm-53.54-17.53q5.86.98 10.32 3.32a.87.87 0 0 1-.44 1.64l-11.27-.48c-16.15-.83-29.19-.03-48.16 1.18a.25.25 0 0 1-.22-.4q.52-.66 1.54-1.02 24.2-8.46 48.23-4.24m151.73 2.7 7.07 2.35a.33.33 0 0 1-.13.64c-16.21-1.09-31.3-2.15-48.65-1.18q-4.25.26-9.16.71-1.66.15-2.62-.31a1.05 1.05 0 0 1 .16-1.95l10.84-3.16q21.47-3.69 42.49 2.9"/><path fill="#efcd8c" d="M755.42 482.08q-2.38 2.08-4.3 5.61c-1.09-3.2-1.99-6.49-3.56-9.37q-4.69-8.64-10.81-19.06-4.53-7.73-10.9-14.12-9.86-9.89-19.02-16.97-5.09-3.95-11.18-7.29-6.07-3.34-13.89-7.91c-8.11-4.75-15.19-6.09-25.7-8.31q-3.9-.83-5.92-4.44 3.08 1.44 4.07 1.65c14.83 3.04 31.86 7.33 45.23 14.51 17.22 9.24 31.07 20.58 42.05 36.38q9.59 13.8 13.93 29.32M347.1 406.16q.69-.15 1.21.06a.87.87 0 0 1-.05 1.64q-3.07 1.02-5.29 2.1-3.19 1.55-19.39 10.89c-8.23 4.75-17.56 12.79-24.67 19.76q-9.94 9.73-17.44 22.34-3.44 5.78-7.81 13.19-3.25 5.5-3.7 13.15-1.44-2.64-2.76-5.23-.42-.85-.15-3.58a1.63 1.61 33.8 0 0-.18-.89q-.35-.67-.94-1.21c12.61-36.51 44.26-62.52 81.17-72.22"/><path fill="#050303" d="M446.37 424.66c-12.12 5.84-23.13 12.43-34.19 19.31a.22.22 0 0 1-.28-.33q9.16-10.98 21.23-18.51 7.19-4.49 16.71-8.71c5.18-1.71 11.69-4.4 16.54-3.98q.6.05.9.27a1.03.93-43.9 0 1-.11 1.59q-1.07.76-3.13 1.72-9.25 4.34-17.67 8.64m123.56-8.03c13.63 6.28 25.45 13.69 35.98 24.68l2.07 2.33a.22.21 84.8 0 1-.27.33q-16.49-10.28-34.35-19.21l-21.48-10.88a.8.79-34.5 0 1 .28-1.5c5.5-.56 12.63 2.27 17.77 4.25"/><path fill="#fdfdfd" d="M509.21 417.76c-1.82 2.47-1.02 11.91-.58 14.83a.74.73-44.5 0 0 1.45.01q1.13-6.58.2-13.71-.16-1.21-1.07-1.13l.13-.31a.66.66 0 0 1 1.15-.11q5.36 7.78 13.75 10.69a.77.77 0 0 1 .51.86c-.87 5.12-2.5 10.24-7.64 12.18q-5.97 2.25-13.59.38c-5.65-1.39-7.67-7.11-9.15-12.18a.75.75 0 0 1 .49-.93c6.6-2.06 9.68-5.91 14.35-10.58"/><path fill="#050303" d="M509.21 417.76q.91-.08 1.07 1.13.93 7.13-.2 13.71a.74.73-44.5 0 1-1.45-.01c-.44-2.92-1.24-12.36.58-14.83"/><path fill="#f7c76a" d="M573.36 424.76q17.86 8.93 34.35 19.21a.22.21 84.8 0 0 .27-.33l-2.07-2.33q7.1-.85 16.52-1.14c21.74-.66 41.61 6.02 58.43 19.8 16.41 13.45 26.72 32.09 35.62 51.11q-2.77.97-5.86 1.52c-28.14 5.03-55.64-3.56-78.89-19.05-21.23-14.13-40.81-32.93-52.79-55.24q-2.7-5.03-5.58-13.55"/><ellipse fill="#fdf0ce" rx="12.88" ry="5.97" transform="rotate(-9.2 2858.781 -1939.974)"/><ellipse fill="#fdf0ce" rx="12.86" ry="5.93" transform="rotate(188.9 353.533 189.896)"/><path fill="#f7c76a" d="M434.84 448.04c-26.45 37.16-74.9 73.38-123.37 65.1 7.35-10.22 12.22-17.59 21.65-30.87 15.03-21.18 35.65-28.16 60.56-30.83q20.45-2.18 41.16-3.4"/><path fill="#efcd8c" d="M760.43 524.8c-1.71 24.14-13.29 47.67-33.06 61.88q-22.24 15.99-49.18 18.95c-25.82 2.84-52.15-3.8-76.05-15.49q-4.45-2.17-17.92-9.3-2.22-1.18-5.21-1.75a.71.71 0 0 0-.71 1.11q2.37 3.3 6.07 6.19 7.47 5.82 15.69 10.79l-1.82 2.15q-2.85 3.15-4.77 8.17-.31.82-.76.18-1.61-2.11-3.66-3.95c-3.75-3.37-6.54-6.18-9.85-9.33q-10.48-10.01-15.86-17.46-1.61-2.23-2.25-3.25a.71.71 0 0 1 .64-1.08c6.26.26 12.81 2.89 18.28 4.23q6.96 1.69 8.12 2.12 15.05 5.49 34.26 9.38 13.73 2.78 28.37 2.69 37.52-.24 68.97-20.56 8.81-5.68 12.37-9.13 5.67-5.49 13.76-13.97 6.44-6.75 9.39-15.36 1.63-4.74 5.18-7.21m-332.48 94.69-.96-.2-3.24-7.66-4.6-10.39q-.66-1.43-2.77-2.47 9.3-5.35 17.7-11.45 4.78-3.47 7.19-6.75a.97.97 0 0 0-1.08-1.5q-3.07.98-4.94 1.92c-6.76 3.42-14.17 7.96-21.43 11.07q-17.4 7.46-32.34 10.89c-27.44 6.28-56.4 3.55-80.4-10.76q-36.61-21.83-41.16-65.24l-.04-.46a.37.37 0 0 1 .64-.28l1 1.12a1.09 1.04-80.3 0 1 .18.27q5.38 11.27 8.2 14.74c10.5 12.86 20.74 23.21 34.79 31.29 24.96 14.35 54.37 20.66 83.06 16.09q12.15-1.94 12.25-1.96 7.9-1.33 21.38-5.41 24.56-7.44 30.32-8.9 3.02-.77 5.92-.57a.6.6 0 0 1 .45.95c-8.32 11.71-16.65 19.77-30.07 33.38q-4.28 4.34-.4 9.36a1.27 1.2 25.9 0 1 .26.69z"/><path fill="#eb9936" d="M738.75 612q-3.38 1.42-6.13 4.26-5.46 3.67-8.91 5.24c-17.81 8.15-37.54 9.38-58.81 6.87-5.69-.68-11.18-2.3-17.88-3.91q-4.97-1.18-12.66-4.6c-10.05-4.46-19.93-9.04-28.63-15.43q-3.65-2.67-7.49-5.1l1.82-2.15c4.31 2.22 8.86 4.85 12.94 6.67q24.35 10.87 50.55 12.26c25.12 1.33 51-5.38 71.01-20.61a.44.44 0 0 1 .7.26z"/><path fill="#f4ba46" d="M399.23 606.93c-3.91 3.95-9.69 5.78-14.79 6.68q-8.14 1.45-16.3 3.16c-15.5 3.26-31.18 3.19-46.68-1.26-10.66-3.06-20.59-6.52-28.05-12.23a1.6 1.59-65.5 0 0-2.53.95l-2.34 11.47a.94.93-66.9 0 0 .38.95q10.36 7.29 22.85 10.12c23.12 5.23 47.4 3.07 69.65-4.84q18.7-6.64 37.73-20.69l4.6 10.39q-.37 6.52.79 10.3 1.13 3.64 1.35 9.28c.43 11.08-5.33 15.58-14.76 19.05q-19.21 7.06-30.58 11.55-11.28 4.45-22.19 7-.36.08-.63-.01a.81.81 0 0 0-.78.14q-19.98 16.86-25.45 22.2Q316.47 705.81 303 718a1.25 1.24-19.7 0 0-.4.84q-.29 4.69 1.92 8.83 1.47 4.34 4.92 6.65l-1.41 10.7q-9.95-10.34-12.23-13.56-9.56-13.48-14.89-25.78-.97-2.25-3.62-10.68l-.65-6.45q1.17.63 1.15-1.8-.03-2.91.18-6.84.22-3.96.07-6.32-.26-4.25.26-6.32 1.09-4.38 1.85-13.58.12-1.36 1.76-11.32.88-5.34 2.4-11.21.47-1.79 3.43-14.5a.86.86 0 0 0-.22-.8q-2.56-2.61-6.01-4.25l3.62-16a.21.21 0 0 1 .33-.12c29.11 21.07 64.45 25.27 98.92 16.15q5.02-1.33 14.85-4.71m-100.257 54.283a9.22 4.51-87 0 0-4.987 8.971 9.22 4.51-87 0 0 4.022 9.443 9.22 4.51-87 0 0 4.986-8.971 9.22 4.51-87 0 0-4.022-9.443m.807 30.087a8.58 4.41-97.3 0 0-3.284 9.07 8.58 4.41-97.3 0 0 5.464 7.95 8.58 4.41-97.3 0 0 3.284-9.07 8.58 4.41-97.3 0 0-5.464-7.95"/><path fill="#eb9936" d="M416.38 598.77q2.11 1.04 2.77 2.47-19.03 14.05-37.73 20.69c-22.25 7.91-46.53 10.07-69.65 4.84q-12.49-2.83-22.85-10.12a.94.93-66.9 0 1-.38-.95l2.34-11.47a1.6 1.59-65.5 0 1 2.53-.95c7.46 5.71 17.39 9.17 28.05 12.23 15.5 4.45 31.18 4.52 46.68 1.26q8.16-1.71 16.3-3.16c5.1-.9 10.88-2.73 14.79-6.68z"/><path fill="#f4ba46" d="M598.24 599.33q3.84 2.43 7.49 5.1c8.7 6.39 18.58 10.97 28.63 15.43q7.69 3.42 12.66 4.6c6.7 1.61 12.19 3.23 17.88 3.91 21.27 2.51 41 1.28 58.81-6.87q3.45-1.57 8.91-5.24 5.01 17.79 6.83 29.25 1.25 7.86 2.18 20.7.58 7.97.09 17.15-.45 8.56-.87 17.17-4.99 13.35-8.38 19.23c-4.03 6.97-9.46 12.71-14.24 18.74q-3.39 4.28-8.05 8.47-9.15 8.22-9.63 8.6-8.53 6.77-21.95 13.31 6.22-7.66 8.16-11.13 9.37-16.68 3.97-34.15c-2.6-8.38-7.7-15.49-15.3-19.44-10.3-5.36-22.55-4.44-33.17-3.06q6-7.72 7.83-16.12 3.98-6.3 6.32-14.1a.6.59 1.9 0 0-.71-.75q-.33.07-.8.52-3.54 3.31-6.78 6.45-12.52 3.79-22.6-2.22-9.44-5.62-14.6-8.3-2.84-1.47-19.32-8.3-2.9-1.21-11.75-6.36a.67.66 20.8 0 1-.32-.7q1.92-9.8 5.17-17.35c2.97-6.89 4.06-13.9 6.32-20.71q.89-2.68 1.69-5.48.45.64.76-.18 1.92-5.02 4.77-8.17m123.174 62.396a9.04 4.52-93.4 0 0-3.976 9.292 9.04 4.52-93.4 0 0 5.048 8.756 9.04 4.52-93.4 0 0 3.976-9.292 9.04 4.52-93.4 0 0-5.048-8.756m-.995 29.573a8.54 4.37-82.2 0 0-5.489 7.868 8.54 4.37-82.2 0 0 3.171 9.054 8.54 4.37-82.2 0 0 5.489-7.868 8.54 4.37-82.2 0 0-3.171-9.054m-5.683 28.446a8.11 4.44-66.1 0 0-7.345 5.616 8.11 4.44-66.1 0 0 .773 9.214 8.11 4.44-66.1 0 0 7.345-5.616 8.11 4.44-66.1 0 0-.773-9.214"/><path fill="#f7c76a" d="M592.71 607.68q-.8 2.8-1.69 5.48c-2.26 6.81-3.35 13.82-6.32 20.71q-3.25 7.55-5.17 17.35a.67.66 20.8 0 0 .32.7q8.85 5.15 11.75 6.36 16.48 6.83 19.32 8.3 5.16 2.68 14.6 8.3 10.08 6.01 22.6 2.22-11.57 11.69-22.17 18.86-12.58 8.51-24.17 16.62-1.71-6.15-5.19-10.63-8.52-10.97-23.31-12.76a1.03.47-20.6 0 0-.15-.01l-6.78.32q3.06-12.19 6.43-24.25 1.72-6.16 6.91-21.43 4.17-12.32 7.57-25.5zm-165.72 11.61q-.8.64-.53 1.48 4.97 15.51 10.44 30.85 3.74 10.47 10.49 37.74-13.01-.98-23.26 5.99-9.36 6.38-11.97 16.99c-10.68-7.71-23.08-14.85-32.41-22.85q-10.38-8.9-20.59-19.45a.5.5 0 0 0-.85.41c.78 5.61 4.09 11.58 7.55 16.08q-.84 1.2-.9 2.2a1.46 1.38 33.2 0 0 .18.76q4.13 7.29 6.89 10.76 8.12 10.19 18.56 20.66 2.14 2.15 3.34 1.02l.38 1.68q1.75 30.75 18.79 55.28 2.92 4.2 6.54 7.79.77 1.53 1.11 1.7-21.52-1.4-43.11-6.1-14.76-3.22-25.34-8.06-14.21-6.49-21.75-11-11.28-6.75-22.52-18.2l1.41-10.7q4.13 1.25 4.72-2.61.62-4.05-3.03-9.46-1.83-2.71-3.62-2.73c-4.8-.06-4.14 5.19-2.99 8.15q-2.21-4.14-1.92-8.83a1.25 1.24-19.7 0 1 .4-.84q13.47-12.19 28.5-26.86 5.47-5.34 25.45-22.2a.81.81 0 0 1 .78-.14q.27.09.63.01 10.91-2.55 22.19-7 11.37-4.49 30.58-11.55c9.43-3.47 15.19-7.97 14.76-19.05q-.22-5.64-1.35-9.28-1.16-3.78-.79-10.3z"/><path fill="#efcd8c" d="M276.64 688.55c-2.42-25.83.25-51.1 4.87-76.94q3.45 1.64 6.01 4.25a.86.86 0 0 1 .22.8q-2.96 12.71-3.43 14.5-1.52 5.87-2.4 11.21-1.64 9.96-1.76 11.32-.76 9.2-1.85 13.58-.52 2.07-.26 6.32.15 2.36-.07 6.32-.21 3.93-.18 6.84.02 2.43-1.15 1.8M738.75 612q4.23 24.47 5.7 47 1.23 18.68-1.52 38.01l-2.08 3.52q.42-8.61.87-17.17.49-9.18-.09-17.15-.93-12.84-2.18-20.7-1.82-11.46-6.83-29.25 2.75-2.84 6.13-4.26"/><path fill="#050303" d="M566.35 689.5c-4.96 9.6-9.77 20.11-9.49 31.06q.03.99.4 1.61a.8.79-42.7 0 0 1.33.05c2.92-4.11 7.08-10.08 10.95-12.15a.82.81-9.7 0 1 1.19.84q-.35 2.26-1.4 4.42-3.21 6.61-4.42 11.32-.6 2.32.77 3.41a2.14 2.13-47.5 0 0 2.8-.13c6.27-5.94 10.15-10.33 13.05-11.64a.76.76 0 0 1 1 1.03l-6.3 12.73a.42.42 0 0 0 .41.6c8.47-.66 19.31-13.58 25.14-20.07q11.59-8.11 24.17-16.62 10.6-7.17 22.17-18.86 3.24-3.14 6.78-6.45.47-.45.8-.52a.6.59 1.9 0 1 .71.75q-2.34 7.8-6.32 14.1-10.8 13.42-23.37 22.42-10.37 7.54-20.95 13.14a4.45 4.41 7 0 0-1.15.89c-7.1 7.71-13.57 14.5-23.37 18.55-2.22.92-7.02 1.47-9.97.04-1.66-.81-2.23-1.18-4.34-1.18q-6.83-.03-9.25-6.7a.91.9 86.1 0 0-.64-.57q-4.69-1.07-7.11-5.08c-3.49-9.82.25-21.49 4.85-30.61 1.09-2.16 1.6-3.65 2.05-5.89q3.7-18.16 12.28-40.37 6.92-17.91 18.14-31.3-3.4 13.18-7.57 25.5-5.19 15.27-6.91 21.43-3.37 12.06-6.43 24.25m-138.4-70.01q5.45 7.15 7.3 10.53c9.58 17.56 16.28 36.47 20.46 56.04 2.18 10.22 7.52 18.83 8.77 29.43q.57 4.8-.46 9.72c-1.74 4.54-3.77 4.8-7.23 6.4a1.07 1.06-3.8 0 0-.59.67c-1.03 3.59-4.25 6.54-8.18 6.58q-1.06.01-2.87.03a2.5 2.42-58.7 0 0-1.19.31c-12.78 7.15-27.27-9.4-34.42-17.93a4.87 4.83-4.4 0 0-1.27-1.08l-14.85-8.79c-10.47-7.33-19.99-14.81-27.56-24.87-3.46-4.5-6.77-10.47-7.55-16.08a.5.5 0 0 1 .85-.41q10.21 10.55 20.59 19.45c9.33 8 21.73 15.14 32.41 22.85q3.34 3.61 6.23 7.26 2.19 2.76 9.49 8.76 4.06 3.34 9.43 4.53a.43.43 0 0 0 .45-.66q-4.53-6.97-6.84-12.65-.29-.71-.16-1.28a.83.83 0 0 1 1.37-.43q2.64 2.44 9.68 9.33 2.11 2.06 4.15 3.28a1.8 1.73 28 0 0 2.52-.72c.78-1.67-.25-5.31-.78-6.45q-2.68-5.77-4.98-11.92a.92.92 0 0 1 1.2-1.18c3.78 1.54 8.36 8.27 11.13 12.21a.67.67 0 0 0 1.2-.2c1.14-4.13-.01-9.91-1.21-13.75q-3.16-10.2-7.65-19.11-6.75-27.27-10.49-37.74-5.47-15.34-10.44-30.85-.27-.84.53-1.48z"/><ellipse fill="#050303" rx="9.22" ry="4.51" transform="rotate(-87 502.483 177.939)"/><ellipse fill="#050303" rx="9.04" ry="4.52" transform="rotate(-93.4 677.016 -4.79)"/><path fill="#eb9936" d="M650.09 684.98q-1.83 8.4-7.83 16.12-4.52 5.81-9.51 11.9-3.1 3.78-6.28 5.68l.25-11.28q12.57-9 23.37-22.42"/><path fill="#f4ba46" d="m393.42 711.4.51 10.53q-1.2 1.13-3.34-1.02-10.44-10.47-18.56-20.66-2.76-3.47-6.89-10.76a1.46 1.38 33.2 0 1-.18-.76q.06-1 .9-2.2c7.57 10.06 17.09 17.54 27.56 24.87"/><path fill="#fdfdfd" d="M447.39 689.36q4.49 8.91 7.65 19.11c1.2 3.84 2.35 9.62 1.21 13.75a.67.67 0 0 1-1.2.2c-2.77-3.94-7.35-10.67-11.13-12.21a.92.92 0 0 0-1.2 1.18q2.3 6.15 4.98 11.92c.53 1.14 1.56 4.78.78 6.45a1.8 1.73 28 0 1-2.52.72q-2.04-1.22-4.15-3.28-7.04-6.89-9.68-9.33a.83.83 0 0 0-1.37.43q-.13.57.16 1.28 2.31 5.68 6.84 12.65a.43.43 0 0 1-.45.66q-5.37-1.19-9.43-4.53-7.3-6-9.49-8.76-2.89-3.65-6.23-7.26 2.61-10.61 11.97-16.99 10.25-6.97 23.26-5.99m154.39 23.22c-5.83 6.49-16.67 19.41-25.14 20.07a.42.42 0 0 1-.41-.6l6.3-12.73a.76.76 0 0 0-1-1.03c-2.9 1.31-6.78 5.7-13.05 11.64a2.14 2.13-47.5 0 1-2.8.13q-1.37-1.09-.77-3.41 1.21-4.71 4.42-11.32 1.05-2.16 1.4-4.42a.82.81-9.7 0 0-1.19-.84c-3.87 2.07-8.03 8.04-10.95 12.15a.8.79-42.7 0 1-1.33-.05q-.37-.62-.4-1.61c-.28-10.95 4.53-21.46 9.49-31.06l6.78-.32a1.03.47-20.6 0 1 .15.01q14.79 1.79 23.31 12.76 3.48 4.48 5.19 10.63"/><ellipse fill="#050303" rx="8.58" ry="4.41" transform="rotate(-97.3 458.375 217.512)"/><ellipse fill="#050303" rx="8.54" ry="4.37" transform="rotate(-82.2 760.705 -62.372)"/><path fill="#eb9936" d="M308.03 745.02q11.24 11.45 22.52 18.2 7.54 4.51 21.75 11 10.58 4.84 25.34 8.06 21.59 4.7 43.11 6.1c7.69 7.49 15.34 14.41 24.13 18.46a1.99 1.9 60.3 0 0 .54.16l5.55.87q-5.02.33-12.97.15-20.76-.45-35.67-2.15c-36.67-4.17-78.43-17.51-101.35-48.2q-10.6-14.18-15.15-26.64-4.84-13.24-6.82-22.52-.99-4.62-1.72-13.51 2.65 8.43 3.62 10.68 5.33 12.3 14.89 25.78 2.28 3.22 12.23 13.56"/><path fill="#f7c76a" d="M678.6 768.88q-27.46 13.62-57.59 16.91-12.64 1.38-21.83 3.05-.07-.24.83-1.03 1.73-1.75 3.19-3.59 22.44-28.06 23.19-64.57.35-.75.08-.97 3.18-1.9 6.28-5.68 4.99-6.09 9.51-11.9c10.62-1.38 22.87-2.3 33.17 3.06 7.6 3.95 12.7 11.06 15.3 19.44q5.4 17.47-3.97 34.15-1.94 3.47-8.16 11.13"/><path fill="#eb9936" d="M742.93 697.01c-2.67 28.05-14.75 55.07-35.87 73.8-10.17 9.02-23.81 17.4-37.63 22.64q-16.49 6.25-26.87 8.38-22.12 4.54-41.06 5.51-11.66.6-31.05.66l4.68-1.04a2.39 2.35 22.2 0 0 .78-.32q12.11-7.67 23.27-17.8 9.19-1.67 21.83-3.05 30.13-3.29 57.59-16.91 13.42-6.54 21.95-13.31.48-.38 9.63-8.6 4.66-4.19 8.05-8.47c4.78-6.03 10.21-11.77 14.24-18.74q3.39-5.88 8.38-19.23z"/><path fill="#efcd8c" d="m626.72 707.4-.25 11.28q.27.22-.08.97-1.13.54-2.25 1.74a4.77 4.72-84 0 1-1.04.85q-11.59 7-21.89 15.77-3.63 3.09-6.84 4.95c-7.2 4.18-11.86 6.44-20.17 6.42-11.78-.03-20.06-5.58-24.68-16.41q-2.06-4.84.42-6.48 2.42 4.01 7.11 5.08a.91.9 86.1 0 1 .64.57q2.42 6.67 9.25 6.7c2.11 0 2.68.37 4.34 1.18 2.95 1.43 7.75.88 9.97-.04 9.8-4.05 16.27-10.84 23.37-18.55a4.45 4.41 7 0 1 1.15-.89q10.58-5.6 20.95-13.14m-233.3 4 14.85 8.79a4.87 4.83-4.4 0 1 1.27 1.08c7.15 8.53 21.64 25.08 34.42 17.93a2.5 2.42-58.7 0 1 1.19-.31q1.81-.02 2.87-.03c3.93-.04 7.15-2.99 8.18-6.58a1.07 1.06-3.8 0 1 .59-.67c3.46-1.6 5.49-1.86 7.23-6.4q1.76 11.42-8.2 19.11-5.17 4-9.47 4.86c-7.68 1.54-15.71.46-22.81-3.93-4.53-2.8-7.74-5.22-12.05-9.4q-7.54-7.32-17.18-12.24l-.38-1.68z"/><path fill="#050303" d="M309.44 734.32q-3.45-2.31-4.92-6.65c-1.15-2.96-1.81-8.21 2.99-8.15q1.79.02 3.62 2.73 3.65 5.41 3.03 9.46-.59 3.86-4.72 2.61"/><ellipse fill="#050303" rx="8.11" ry="4.44" transform="rotate(-66.1 914.52 -183.143)"/><path fill="#efcd8c" d="M600.01 787.81q-.9.79-.83 1.03-11.16 10.13-23.27 17.8a2.39 2.35 22.2 0 1-.78.32l-4.68 1.04q-27.99-1.06-55.95-3.07-3.13-.22-5.49-.16-2.76.08-5.5.3-26.25 2.12-52.54 2.8l-5.55-.87a1.99 1.9 60.3 0 1-.54-.16c-8.79-4.05-16.44-10.97-24.13-18.46q-.34-.17-1.11-1.7l1.55 1.22a1.26 1.26 0 0 0 .75.27c20.02.4 40.06.13 60.17-1.52 18.19-1.49 33.77-1.66 51.66-.18q26.06 2.15 57.23 1.96 5.3-.04 9.01-.62M356.99 817.3l-.63-.9a.87.87 0 0 0-.8-.37q-6.24.53-12.39-3.24-12.48-7.65-20.25-13.91l6.52-2a1.74 1.7 48 0 1 1.24.08c8.05 3.62 15.86 7.39 23.65 9.89q10.56 3.38 20.86 5.65a.22.22 0 0 1 0 .43zm338.84-18.94q-8.01 8.56-17.97 14.06a.67.14-12 0 1-.09.04l-12.79 5.21q-8.61-1.26-18.32-4.14-.85-.25-1.54-.63a.38.38 0 0 1 .12-.71q18.23-3.33 36.05-11.41.33-.14 7.86-3.79a1.27 1.25 38.6 0 1 .88-.09z"/><path fill="#fdf0ce" d="m664.98 817.67 12.79-5.21a.67.14-12 0 0 .09-.04q9.96-5.5 17.97-14.06 10.76 2.82 21.17 8.67 3.39 1.91 5.4 4.41a1.12 1.11-28.3 0 1-.53 1.75q-2.99.98-5.83.01c-7.43-2.54-13.79-5.03-21.01-5.29a1.17 1.17 0 0 0-.75 2.09l1.47.89a3.05 1.57 45.8 0 0 .34.2l13.27 7.07a1.05 1.05 0 0 1-.04 1.87c-3.17 1.52-10.02 1.42-13.57 1.28q-14.85-.56-30.77-3.64m-342.06-18.79q7.77 6.26 20.25 13.91 6.15 3.77 12.39 3.24a.87.87 0 0 1 .8.37l.63.9q-18.59 3.72-37.49 4.1-4.38.09-8.39-1.15a1.08 1.08 0 0 1-.4-1.83c3.41-3.07 8.79-5.06 12.94-7.25q1.25-.65 1.57-1.28a1.48 1.4 13.5 0 0-1.33-2.04q-2.98-.06-6.28.77-6.82 1.71-13.81 4.4c-2.03.78-3.56.87-5.46.16a1.06 1.05-65.1 0 1-.55-1.51q.95-1.7 3.23-3.15 10.85-6.87 21.9-9.64"/></svg>