<svg xmlns="http://www.w3.org/2000/svg" viewBox="0 0 1024 1024"><g fill="none" stroke-width="2"><path stroke="#828181" d="M549.83 206.97a.52.51-81.8 0 1-.69.52q-3.66-1.31-8.95-1.19-7.76.19-7.83 7.42c-.03 2.91 1.35 5.24 3 7.56a.31.31 0 0 1-.23.49q-20.54 1.1-41.12 7.33a.66.66 0 0 1-.81-.4q-2.94-7.9-7.86-15.27c-6.54-9.82-14.71-16.12-25.38-19.88q-10.97-3.87-22.88-2.2c-23.12 3.24-40.52 21.69-45.1 44.05q-5.66 27.63 12.94 48.83a.78.77-44.2 0 1-.02 1.05q-12.84 13.55-24.58 28.28a.97.96-65.9 0 1-.93.36c-20.26-3.41-43.06 1.8-59.65 13.35-18.45 12.85-32.98 31.86-39.96 53.71a.66.66 0 0 1-1.2.12q-3.16-5.67-11.15-3.63a1.63 1.63 0 0 1-1.69-.59c-3.64-4.73-7.73-9.74-12.49-12.29-5.31-2.85-10.54-3.1-14.71 1.51a.99.98-62.2 0 1-.95.3q-10.48-2.41-13.94 7.81-.34 1.02-.51 5.14a1.63 1.62 71.1 0 1-.59 1.21q-5.08 4.22-5.19 12.55-.11 8.86 1.57 15.23c1.36 5.13 2.87 9.86 4.42 16.09 12.2 48.88 32.86 93.4 61.73 135.01q6.84 9.85 12.79 16.69.85.97 1.79 2.86a1.74 1.73-53.1 0 1 .15 1.07c-5.3 31.23-6.92 63.45-3.94 94.41q1.94 20.23 8.63 42.22 15.72 51.7 63.71 75.45a.47.46 48 0 1-.04.85q-10.2 3.88-17.97 10.86c-5.82 5.23-8.65 14.12-1.51 19.53 2.21 1.67 6.05 2.41 8.65 3.87 3.17 1.79 7.41 2.55 10.66 2.82q14.55 1.21 29.64-1.31c14.15-2.36 28.09-5.9 40.47-11.88q8.2-3.97 11.82-10.2a1.03 1.03 0 0 1 .83-.53q16.13-1.16 19.97-1.72 17.61-2.57 31.67-4.8 17-2.7 33.01-1.01 13.16 1.39 18.08 2.21c18.85 3.16 30.63 5.24 45.4 5.68a1.06 1.04 76.2 0 1 .88.54c3.44 6.24 9.26 9.27 15.87 12.12q9.92 4.27 23.47 7.24c14.14 3.1 28.18 5.14 42.13 3.82q7.39-.71 11.63-3.9a3.96 3.95 19.2 0 1 1.47-.71c5.38-1.36 9.49-4.03 9.72-10.04.4-10.32-14.03-18.11-22.05-21.68a.46.45 44.5 0 1-.01-.83c40.33-18.43 63.06-54.7 72.42-96.84q8.46-38.09 6.02-79.48-1.62-27.47-6.29-47.41a.82.8 66.6 0 1 .33-.86q4.68-3.25 6.04-4.21 24.88-17.72 36.04-46.71c11.48-29.82 11.39-64.55-1.61-94.5q-12.91-29.77-41.05-45.01c-4-2.17-7.72-3.51-11.08-5.21a1.61 1.59-88.5 0 1-.74-.79Q731.79 348 718.32 323.5a1.14 1.14 0 0 1 .34-1.48q23.93-17.02 25.11-45.27c1.56-37.49-33.93-67.01-70.39-52.72-11.25 4.41-20.78 13.76-27.48 23.7a.51.5-57.1 0 1-.67.15q-19.22-11.47-39.64-17.8a3.88 3.85-3.7 0 1-2.35-2.05q-4.66-9.97-7.25-15.25-2.25-4.58-5.26-7.8a2.71 2.59 83.1 0 0-.56-.46c-4.79-2.91-9.77-.77-12.66 3.49a.73.72-51.2 0 1-1.1.12c-4.62-4.46-14.72-11.51-21.4-9.54q-5.61 1.66-5.18 8.38" vector-effect="non-scaling-stroke"/><path stroke="#7d6025" d="M413.58 216.93c-14.58 17.32-15.51 44 .73 60.59a.65.65 0 0 0 .84.07q5.84-4.15 12.13-6.88" vector-effect="non-scaling-stroke"/><path stroke="#7c5a50" d="M427.28 270.71q2.54-.26 2.62 2.08" vector-effect="non-scaling-stroke"/><path stroke="#7a6848" d="M429.9 272.79q-2.98 5.89-7.63 10.73-15.58 16.23-30.06 33.9a.33.32 30.5 0 0 .14.51l9.68 3.71" vector-effect="non-scaling-stroke"/><path stroke="#7d6025" d="M402.03 321.64q7.81 3.77 13.68 9.4a.48.47-18.3 0 1-.41.81l-1.58-.27" vector-effect="non-scaling-stroke"/><path stroke="#7a6848" d="M413.72 331.58q-11.62-4.06-20.9-5.92c-24.1-4.81-49.42-.95-69.88 14.19" vector-effect="non-scaling-stroke"/><path stroke="#817a68" d="M322.94 339.85c-13.66 9.83-24.11 25.32-30.39 40.64" vector-effect="non-scaling-stroke"/><path stroke="#7a6848" d="M292.55 380.49q-4.4 10.8-6.14 22.2a.67.65 26.1 0 0 .21.58l16.57 15.07" vector-effect="non-scaling-stroke"/><path stroke="#817a68" d="M303.19 418.34q12.24 11.47 24.26 23.2 18.32 17.86 33.76 38.24 4.47 5.9 7.87 12.37" vector-effect="non-scaling-stroke"/><path stroke="#7a6848" d="M369.08 492.15q-.16.23.07.67" vector-effect="non-scaling-stroke"/><path stroke="#7d6025" d="M369.15 492.82q-.9.37-1.91-.57-27.54-25.57-54.94-51.3-14.84-13.94-28.96-28.46" vector-effect="non-scaling-stroke"/><path stroke="#817a68" d="M283.34 412.49q-2.55-2.96-5.13-5.85c-3.34-3.75-4.64-6.16-5.22-10.9q-.59-4.88-1.16-8.82a1.66 1.66 0 0 0-1.52-1.42c-.88-.06-2.24.74-2.84 1.45q-5.68 6.71-7.34 16.3a1.07 1.06-57.4 0 1-1.93.43c-3.23-4.71-.86-13.28 1.88-17.91a1.22 1.22 0 0 0-.04-1.3q-4.84-7.18-11.8-12.66-.89-.7-1.79-.69a1.2 1.19-87.4 0 0-1.19 1.09c-.36 4.2 1.9 9.4 3.8 15.16a.86.86 0 0 1-1.17 1.05q-1.77-.81-3.39-2.84c-3.55-4.46-6.67-9.44-10.34-10.81a1.49 1.49 0 0 0-1.92.89q-1.58 4.33.48 8.96 3.41 7.68 4.85 12.19a.76.76 0 0 1-1.08.91c-3.37-1.73-6.67-5.6-9.15-8.7a.56.56 0 0 0-.98.23c-1.36 6.37.12 14.39 1.78 20.57q2.03 7.55 6.93 21" vector-effect="non-scaling-stroke"/><path stroke="#7d6025" d="M235.07 430.82q3.19 11.61 7.93 24.18 9.86 26.14 21.69 49.13" vector-effect="non-scaling-stroke"/><path stroke="#784e1d" d="M264.69 504.13q14.71 29.02 29.62 49.82 13.04 18.2 18.03 25.85" vector-effect="non-scaling-stroke"/><path stroke="#7d6025" d="m312.34 579.8-2.95 11.72" vector-effect="non-scaling-stroke"/><path stroke="#7a6848" d="M309.39 591.52q-4.38 29.07-3.72 59.91.56 25.61 6.52 49.9" vector-effect="non-scaling-stroke"/><path stroke="#7d6025" d="m312.19 701.33 1.01 4.94" vector-effect="non-scaling-stroke"/><path stroke="#784e1d" d="M313.2 706.27q.69 3.94 1.38 5.88 3.77 10.56 8.71 20.62 10.52 21.43 29.07 36.32 9.72 7.81 22.2 13.68 13.5 6.36 24.43 9.04 27.42 6.74 58.25 3.29" vector-effect="non-scaling-stroke"/><path stroke="#7a6848" d="M457.24 795.1q13.46-1.45 26.88-3.62c11.96-1.92 23.09-3.57 32.4-4.15q12.92-.8 29.93 1.66 18.02 2.61 34.75 5.2" vector-effect="non-scaling-stroke"/><path stroke="#784e1d" d="M581.2 794.19q8.42.95 15.57 1.55 26.31 2.22 51.18-2.81 18.84-3.82 38.73-14.9c8.76-4.89 18.52-13.25 25-20.1q7.65-8.1 13.47-17.94c6.37-10.77 11.46-21.27 14.74-32.96" vector-effect="non-scaling-stroke"/><path stroke="#7d6025" d="M739.89 707.03q9.09-31.94 9.54-67.28.34-27.51-3.12-51.19" vector-effect="non-scaling-stroke"/><path stroke="#784e1d" d="m746.31 588.56-2.25-13.46a.52.52 0 0 0-.72-.39c-16.69 7.47-34.36 11.22-52.95 11.1-20.05-.12-39.44-4.68-58.51-12.16-10.09-3.95-17.21-8.36-25.9-13.1" vector-effect="non-scaling-stroke"/><path stroke="#7a6848" d="M605.98 560.55q-9.55-6.46-12.7-8.83-11.56-8.72-21.17-19.96" vector-effect="non-scaling-stroke"/><path stroke="#817a68" d="M572.11 531.76q2.31-.55 4.15.48 2.71 1.54 4.32 1.85" vector-effect="non-scaling-stroke"/><path stroke="#7a6848" d="M580.58 534.09q9.8 7.57 20.76 14.33c29.05 17.93 61.6 28.26 95.9 26.52 29.54-1.5 57.43-15.4 75.6-39.06 11.02-14.36 17.72-33.59 19.44-51.86" vector-effect="non-scaling-stroke"/><path stroke="#817a68" d="M792.28 484.02c2.68-25.85-2.64-52.46-18.4-73.41" vector-effect="non-scaling-stroke"/><path stroke="#7a6848" d="M773.88 410.61q-7.71-10.82-19.31-18.42-20.46-13.39-45.19-16.03" vector-effect="non-scaling-stroke"/><path stroke="#7d6025" d="m709.38 376.16-19.13-1.01a.54.53 29.2 0 1-.28-.97q.74-.52 1.8-.92 9.83-3.77 20.56-4.05" vector-effect="non-scaling-stroke"/><path stroke="#784e1d" d="M712.33 369.21q7.62-.44 14.96.97a.64.64 0 0 0 .7-.9c-5.52-12.01-12.09-25.7-19.84-39.8q-4.62-8.4-8.97-17.16c-.86-1.73-2.97-6.47-1.89-8.61" vector-effect="non-scaling-stroke"/><path stroke="#7d6025" d="M697.29 303.71c1.69-1.46 3.99.52 5.2 1.76q2.9 2.98 7.02 7.76a.97.97 0 0 0 1.25.19q7.76-4.89 12.77-12.17 12.18-17.72 6.8-38.57-3.33-12.88-14.01-21.95" vector-effect="non-scaling-stroke"/><path stroke="#7a6848" d="M716.32 240.73c-13.86-11.33-31.55-11.78-46.05-1.73q-8.83 6.12-14.94 15.36a.67.67 0 0 0 .14.88l1.47 1.2" vector-effect="non-scaling-stroke"/><path stroke="#7d6025" d="m656.94 256.44 10.81 8.62a.52.51-52.3 0 0 .73-.1q2.4-3.27 2.82-3.9c6.39-9.55 17.74-18.09 29.43-16.18q7.09 1.16 11.11 7.29.85 1.3.48 2-.4.76-1.95.81" vector-effect="non-scaling-stroke"/><path stroke="#7c5a50" d="M710.37 254.98q-2.82-2.26-3.8-2.61c-13.66-4.97-24.97 8.94-30.41 20.01a.81.8 38.8 0 0 .1.88q5.41 6.61 9.49 11.99 3.75 4.94 5.56 10.66" vector-effect="non-scaling-stroke"/><path stroke="#7d6025" d="M691.31 295.91q-1.15.43-2.47-.5-6.84-4.87-12.89-10.59-5.95-5.63-21.17-16.84-22.88-16.84-49.98-26.25-6.76-2.34-10.53-9.01-5.04-8.94-8.41-18.54a.5.5 0 0 0-.86-.15q-1.19 1.41-1.56 3.16-1.07 5.2-2.5 9.25a1.32 1.32 0 0 1-2.22.46l-4.08-4.45" vector-effect="non-scaling-stroke"/><path stroke="#7a6848" d="M574.64 222.45q-5.31-7.59-13.02-12.92a.44.44 0 0 0-.65.55l1.61 3.65" vector-effect="non-scaling-stroke"/><path stroke="#7d6025" d="M562.58 213.73q2.09 5.33 2.42 10.8" vector-effect="non-scaling-stroke"/><path stroke="#7a6848" d="M565 224.53q-.23 1.15-.7 1.82a1.35 1.35 0 0 1-1.9.34c-3.52-2.52-6.92-5.75-10.9-7.72q-2.72-1.34-6.29-2.54a.32.32 0 0 0-.35.51q2.81 3.42 3.84 4.86c3.38 4.71 3.06 10.66-4.01 11.01q-17.08.86-24.45 2.03c-25.09 3.99-49.83 13.92-71.59 27.1q-2.41 1.46-9.1 3.97" vector-effect="non-scaling-stroke"/><path stroke="#7c5a50" d="M439.55 265.91q-1.47.25-1.84-.36-.41-.68.09-1.32c5.39-6.95 12.48-12.57 19.66-17.43a.91.9-23.8 0 0 .37-.95c-1.98-8.73-7.03-18.85-14.78-23.67q-4.58-2.84-10.18-1.63-2.41.52-4.85 1.19" vector-effect="non-scaling-stroke"/><path stroke="#7d6025" d="M428.02 221.74q-.75-.33-1-.85-.23-.48.27-1.19c5.1-7.28 14.86-6.87 21.81-2.78 9.01 5.32 14 13.9 17.67 23.29a.59.59 0 0 0 .81.32l13.93-6.48" vector-effect="non-scaling-stroke"/><path stroke="#7a6848" d="M481.51 234.05q.33-.14.55-.26a.6.6 0 0 0 .28-.71c-7.48-23.29-30.32-38-54.3-27.04q-8.31 3.8-14.46 10.89" vector-effect="non-scaling-stroke"/><path stroke="#f2c56a" d="M481.51 234.05q-5.72-13.64-18.06-20.61a5.77 5.41 67.4 0 0-.89-.4q-2.78-.92-5.16-2.27a3.22 3.1 64.5 0 0-.93-.35q-5.26-1.07-7.49-1.64c-6.91-1.78-13.64-1.27-20.35.36q-2.18.54-6.26 3.57c-2.43 1.81-5.63 2.31-7.74 4.82q-.29.34-.73.04-.26-.18-.32-.64" vector-effect="non-scaling-stroke"/><path stroke="#f4b772" d="M428.02 221.74q-6.87 10.81-7.92 23.76-.38 4.61 1.19 10.44 2.4 8.95 5.99 14.77" vector-effect="non-scaling-stroke"/><path stroke="#f1bf95" d="m429.9 272.79 9.65-6.88" vector-effect="non-scaling-stroke"/><path stroke="#f4b772" d="M691.31 295.91q.42 2.22 1.72 4.38" vector-effect="non-scaling-stroke"/><path stroke="#f0ab3f" d="M693.03 300.29q2.89 4.33 2.98 9.47a1.14 1.11 69.5 0 1-.38.87q-5.54 4.84-7.7 11.42-5.86 17.86-.94 37.77.81 3.28 3.35 10.6a.56.55 73 0 0 .66.36c7.2-1.88 14.5-3.75 21.33-1.57" vector-effect="non-scaling-stroke"/><path stroke="#f2c56a" d="M709.38 376.16q-1.22.24-.77 1.28a.97.96-7.1 0 0 .75.58q7.39 1.03 11.76 2.62 4.46 1.63 15.6 6.82c4.13 1.93 7.34 4.47 11.15 6.67q3.05 1.76 7.41 5.89 4.85 4.6 9.67 9.53 7.34 7.5 9.01 15.83" vector-effect="non-scaling-stroke"/><path stroke="#f9d68a" d="M773.96 425.38q-3.48 27.77-22.6 45.48-12.48 11.56-29.63 17.74" vector-effect="non-scaling-stroke"/><path stroke="#f2c56a" d="M721.73 488.6q-9.53-12.37-19.78-23.97-5.17-5.84-11.27-10.52c-19.42-14.89-41.63-6.41-60.18 4.48" vector-effect="non-scaling-stroke"/><path stroke="#7d6025" d="M630.5 458.59q-17.78-14.34-40.28-18.94" vector-effect="non-scaling-stroke"/><path stroke="#f9d68a" d="M590.22 439.65q-.03-.95-1.39-1.81a2.66 2.56-87.9 0 1-.95-1.06q-1.84-3.85-6.02-6.61" vector-effect="non-scaling-stroke"/><path stroke="#7d6025" d="M581.86 430.17q26.49-5.68 52.82-5.56a.33.33 0 0 0 .1-.65q-28.27-8.36-55.03 2.93" vector-effect="non-scaling-stroke"/><path stroke="#f9d68a" d="M579.75 426.89q-2.77-5.1-5.84-10.04c-8.12-13.03-21.32-24.39-36.7-26.79q-18.08-2.82-33.32 7.62-3.73 2.56-8.03 6.02a1.95 1.9-4.5 0 0-.36.41q-.53.81-5.33 5.05-.77.68-2.29 3.39" vector-effect="non-scaling-stroke"/><path stroke="#7d6025" d="M487.88 412.55c-13.34-13.94-33.82-22.65-52.92-23.03a.38.37-35 0 0-.13.73q26.27 8.94 50.26 23.94" vector-effect="non-scaling-stroke"/><path stroke="#f9d68a" d="m485.09 414.19-6.68 6.5" vector-effect="non-scaling-stroke"/><path stroke="#7d6025" d="M478.41 420.69q-13.37-2.93-27.88-1.52" vector-effect="non-scaling-stroke"/><path stroke="#f2c56a" d="M450.53 419.17q3.56-.48 7.12-.72.86-.06.06-.13-14.43-1.32-25.26-4.65-4.19-1.28-17.49-5.87-19.55-6.73-37.98 3.62-14.4 8.08-24.85 16.83" vector-effect="non-scaling-stroke"/><path stroke="#f9d68a" d="M352.13 428.25q-14.44-10.37-23.22-25.09-5.39-9.04-7.85-18.85-2.46-9.79-2.35-20.31.05-4.63.83-7.84" vector-effect="non-scaling-stroke"/><path stroke="#f2c56a" d="M319.54 356.16q6.19-7.42 14.02-11.84 1.16-.65 10.79-5.79 6.16-3.28 11.22-4.72c9.39-2.68 17.71-4.52 26.57-4.37 5.73.09 12.74-.48 18.92.43q5.11.75 10.79 2.8.97.35 1.68-.29.11-.09.19-.8m-11.69-9.94q10.01-13.31 20.89-25.78 5.68-6.51 11.01-10.88 6.26-5.13 12.5-10.35 4.8-4.03 9.62-7.14 5.04-3.25 10.26-6.24 4.21-2.42 8.4-4.99 1.91-1.17 3.06-1.43a.87.87 0 0 1 1.06.93q-.14 1.64.75 2.91 3.24 4.65 9.11 3.95c8.47-1.01 19.43-5.33 18.72-15.55q-.09-1.29-1.36-2.03a.82.82 0 0 1 .25-1.51l10.27-2.03a.68.67 83.2 0 1 .81.64c.21 4.99 4.95 5.23 8.86 4.64q5.51-.84 6.2-6.08.26-1.93-1.21-3.22a.7.69-30.6 0 1 .31-1.2q1.5-.33 3.46-.39 6.6-.18 11.98-1.21 3.41-.65 4.9-3.16.92-1.56 1.3-3.47.24-1.16.09-1.62a.37.36-10.9 0 1 .33-.48c3.23-.16 6.06 1.1 9.45 2.24a2.18 2.04 9.6 0 0 2.86-1.9q-.01-.64-.91-1.76" vector-effect="non-scaling-stroke"/><path stroke="#7a6848" d="M450.53 419.17q-12.98 1.24-25 6.12a.33.32 30.8 0 0 .16.62q24.14-2.29 48.23-1.06m156.58 33.74q1.23.76 1.86 1.82a.22.22 0 0 1-.27.32q-10.51-4.54-26.15-10.64-5.73-2.23-11.3-3.66" vector-effect="non-scaling-stroke"/><path stroke="#f2c56a" d="M574.64 222.45q-.02 1.02-1.18.85-.67-.1-1.11-.61-4.19-4.79-9.77-8.96" vector-effect="non-scaling-stroke"/><path stroke="#f6dfad" d="M319.54 356.16c-.44-3.52.9-6.36 1.28-9.57q.37-3.04 2.69-5.29a.64.64 0 0 0 .15-.7q-.19-.5-.72-.75m29.19 88.4q5 3.96 8.27 5.66 45.36 23.45 92.09 3.34 10.75-4.63 21.43-12.4" vector-effect="non-scaling-stroke"/><path stroke="#817a68" d="m473.92 424.85 12.3.29a.81.81 0 0 0 .29-1.58l-8.1-2.87m6.68-6.5 3.94 2.15a.64.64 0 0 0 .9-.8q-.59-1.49-2.05-2.99m91.87 14.34q-2.22 1.47-4.23 2.61-.81.46-.87.99a.87.87 0 0 0 1 .95q3.82-.6 6.21-1.27m8.36 9.48-13.19-1.2a.96.96 0 0 0-.61 1.76q1.71 1.13 4.13 1.76 7.91 2.06 14.09 4.46" vector-effect="non-scaling-stroke"/><path stroke="#f6dfad" d="M594.64 446.43q4.68 5.32 9.05 10.25 5.49 6.2 9.7 9.61c23.85 19.36 52.82 29.18 83.61 27.38q12.74-.74 24.73-5.07m52.23-63.22 1.2-4.46a2.72 2.7-41.9 0 0 .06-1.03l-1.34-9.28m18.4 73.41q-.09-1.01-.15-1.05a.85.85 0 0 0-1.21.29l-12.07 20.99a1.69 1.34-76.7 0 1-.13.19q-10.7 12.76-15.46 17.32c-28.68 27.53-69.13 37.63-107.98 33.71q-12.09-1.22-25.85-4.51-9.46-2.27-24.62-7.85-11.93-4.4-24.23-9.02m-8.47-2.33-7.28-1.06a.28.28 0 0 0-.24.47c2.62 2.8 3.98 5.43 6.5 7.55q1.01.85 9.18 9.29 4.77 4.93 9.59 8.83 10.2 8.26 21.9 15.04" vector-effect="non-scaling-stroke"/><path stroke="#f9d68a" d="M611.76 571.88q6.65 9.05 10.38 16.23 3.82 7.36 10.89 24.61" vector-effect="non-scaling-stroke"/><path stroke="#817a68" d="M633.03 612.72q-4.44 21.83-11.4 43.47c-1.36 4.23-2.52 8.37-4.98 11.71q-4.78 6.47-7.86 11.67-5.75 9.73-.96 17.92" vector-effect="non-scaling-stroke"/><path stroke="#f6dfad" d="M607.83 697.49q-2.54 3.43-1.71 5.69 1.02 2.8 2.3 6.92c2.63 8.48 14.52 11.72 22.08 12.7q2.61.34 10.29-.21" vector-effect="non-scaling-stroke"/><path stroke="#f9d68a" d="M640.79 722.59q.5.45.33.93-6.77 18.43-18.45 34.6-2.51 3.48-6.99 8.16-3.71 3.88-7.28 7.92" vector-effect="non-scaling-stroke"/><path stroke="#f4c582" d="M608.4 774.2q-.59.24-.91.58" vector-effect="non-scaling-stroke"/><path stroke="#f6dfad" d="M607.49 774.78q-2.15-.72-2.99-.7-19.82.52-38.6-2.22c-20.12-2.93-36.99-5.42-56.21-3.89-12.68 1.02-26.73 3.93-39.64 5.03q-22.18 1.88-45.05-.31a2.01 1.96 66.8 0 1-1.04-.43l-2.2-1.79" vector-effect="non-scaling-stroke"/><path stroke="#f9d68a" d="M421.76 770.47c-7.3-6.8-12.64-14.48-19-23.36q-4.3-5.98-9.43-18.08-13.98-33-11.35-69.27 2.26-31.21 13.03-58.56 14.13-35.89 42.27-63.16 3.24-3.14 5.91-5.06" vector-effect="non-scaling-stroke"/><path stroke="#f6dfad" d="m443.19 532.98 4.52-2.72a1.1 1.06-60 0 1 .49-.14q.85-.01 1.31-.43a1.9.3-46 0 1 .77-.58q4.53-2.23 8.4-3.66c5.29-1.96 9.54-5.51 14.6-7.72q2.68-1.16 4.6-1.89a.34.34 0 0 0-.07-.66l-17.7-2.74a.42.38 61.7 0 1-.17-.06l-.25-.19a1.91 1.82-20.7 0 0-.92-.39c-3.86-.55-8.17-.07-12.67-.56q-.51-.05-8.09-.45-28.63-1.49-55.52-12.01-5.71-2.24-11.98-6.39-.39-.26-1.43-.24m-65.89-73.81q.22-1.14.52-1.08a.41.41 0 0 0 .47-.57q-5.49-12.12-9.34-23.55-.85-2.52-2.29-12.65" vector-effect="non-scaling-stroke"/><path stroke="#efa56a" d="m693.72 300.77-.69-.48" vector-effect="non-scaling-stroke"/><path stroke="#f2c56a" d="m369.15 492.82 7.24 18.66" vector-effect="non-scaling-stroke"/><path stroke="#7d6025" d="M376.39 511.48q3.4 9.31 11.32 12.76" vector-effect="non-scaling-stroke"/><path stroke="#f0ab3f" d="M387.71 524.24q.36 1.1.97 2.04.55.86 1.68 1.42c17.76 8.81 36.39 8.53 55.14 3.04" vector-effect="non-scaling-stroke"/><path stroke="#f2c56a" d="m445.5 530.74-2.31 2.24m-21.43 237.49q1.52 2.28 2.92 2.88" vector-effect="non-scaling-stroke"/><path stroke="#f0ab3f" d="M424.68 773.35q-21.4-2.08-42.14-8.69-11.97-3.82-26.07-12.67-21.57-13.54-34.24-33.31c-2.81-4.39-4.3-8.72-9.03-12.41" vector-effect="non-scaling-stroke"/><path stroke="#f2c56a" d="M312.19 701.33q1.42-5.82-.23-12.25-2-7.75-2-7.79-1.7-10-1.11-18.57l1.33-18.61q1.23-17.16 5.29-33.67 1.67-6.77 3.52-14.18.25-1.01 1.08-2.93a.52.52 0 0 0-.56-.72q-4.99.78-10.12-1.09" vector-effect="non-scaling-stroke"/><path stroke="#f0ab3f" d="m312.34 579.8 9.16-1.68a.56.56 0 0 1 .66.61l-1.49 13.05a.7.69-5.5 0 0 .9.74q1.1-.35 3.63-2.09c11.15-7.67 1.43-18.08-4.82-24.62q-14.55-15.22-27.55-27.68c-3.5-3.35-5.87-6.69-8.54-9.52q-2.51-2.66-6.05-7.54-3.77-5.19-6.27-8.98c-1.91-2.88-4.72-5.43-7.28-7.96m475.2 202.9q-3.61 2.71-4.62 4.51-8.66 15.33-20.22 26.49-14.73 14.21-35.93 23.87-8.46 3.84-21.01 6.6-11.99 2.63-21.69 4.21c-9.47 1.55-18.65 1.11-28.02 1.49" vector-effect="non-scaling-stroke"/><path stroke="#f2c56a" d="m640.79 722.59 1.38-1.15" vector-effect="non-scaling-stroke"/><path stroke="#f0ab3f" d="M642.17 721.44q.15.99 1.44.75c17.03-3.3 30.12-10.73 45.07-21.48 5.73-4.11 10.05-9.29 15.97-15.23 5.09-5.12 9.36-12.99 13.34-18.57 1.09-1.52 1.82-3.79 3.38-5.55a3.03 2.57 85.3 0 0 .4-.56q3.26-5.97 3.24-12.77" vector-effect="non-scaling-stroke"/><path stroke="#7d6025" d="M725.01 648.03q4.05-8.53 5.05-17.88a.29.24 39.3 0 0-.02-.1l-.16-.34a.54.53-42.5 0 0-.94-.04c-8.86 14.71-19.35 28.08-32.36 39.67q-15.26 13.61-32.51 23.84" vector-effect="non-scaling-stroke"/><path stroke="#f9d68a" d="M664.07 693.18q-2.8-8.43-6.89-15.34-8.15-13.81-24.05-17.05a1.38 1.36-14.7 0 1-.78-.45l-1.17-1.35" vector-effect="non-scaling-stroke"/><path stroke="#7d6025" d="M631.18 658.99q6.38-16.87 8.41-34.98 1.43-12.76-1.64-25.2a.74.74 0 0 0-1.44 0l-3.48 13.91" vector-effect="non-scaling-stroke"/><path stroke="#edb362" d="m445.5 530.74 16.23-11.37a11.71 10.77 2.4 0 0 1.55-1.31l3.12-3.19a.67.67 0 0 0-.83-1.03q-1.59 1-3.06.78-1.26-.2-2.1-.25" vector-effect="non-scaling-stroke"/><path stroke="#7a6848" d="M460.41 514.37q-3.16-1.7-7.1-1.05c-20.31 3.37-40.47 6.06-61.06 3.2q-8.23-1.15-15.86-5.04" vector-effect="non-scaling-stroke"/><path stroke="#817a68" d="M631.18 658.99c-1.76 3.85-3.56 7.57-5.98 11.06q-5.6 8.07-7.09 10.56-2.86 4.79-3.85 9.11a.9.9 0 0 0 1.43.91q4.27-3.33 9.37-6.06.9-.48 1.44-.54a.87.86-76.7 0 1 .82 1.33q-3.22 4.95-6.78 9.62c-1.47 1.94-3.76 6.04-1.61 8.01a1.27 1.25 62.3 0 0 1 .32q2.93-.36 4.82-1.55 4.55-2.86 9.88-6.38 1.3-.87 2.77-.9a.54.53 7.2 0 1 .53.68c-1.15 4.01-3.95 7.59-6.65 10.98a.47.47 0 0 0 .39.76q4.39-.17 9.06-1.94 12.06-4.58 23.34-11.78" vector-effect="non-scaling-stroke"/><path stroke="#784e1d" d="M725.01 648.03q-3.36 7.41-6.54 11.93c-9.48 13.46-22.33 24.98-35.13 33.61q-17.49 11.8-37.96 19.35" vector-effect="non-scaling-stroke"/><path stroke="#7a6848" d="M645.38 712.92c-6.61 2.36-15.86 4.96-21.52-.68a1.75 1.74-20.4 0 0-1.08-.49c-2.08-.15-4.67.22-6.87-.75q-6.85-2.99-6.33-11.19a1.48 1.4 33.9 0 0-.18-.8q-.51-.94-1.57-1.52" vector-effect="non-scaling-stroke"/><path stroke="#edb362" d="M605.98 560.55q1.72 4.95 5.07 9.15" vector-effect="non-scaling-stroke"/><path stroke="#f2c56a" d="m611.05 569.7.71 2.18" vector-effect="non-scaling-stroke"/><path stroke="#edb362" d="M581.2 794.19q14.46-8.81 26.29-19.41" vector-effect="non-scaling-stroke"/><path stroke="#f0ab3f" d="m697.29 303.71-3.57-2.94" vector-effect="non-scaling-stroke"/><path stroke="#f4b772" d="M693.72 300.77q.91.29 1.58 1.16a1.78 1.73 82.1 0 0 .63.49c3.29 1.42 5.2-.88 7.46-2.73a4.46 4.04-2.3 0 0 .58-.57q6.54-7.78 9.06-17.81 3.41-13.54-2.66-26.33" vector-effect="non-scaling-stroke"/><path stroke="#edb362" d="M424.68 773.35q8.17 7.34 13.64 11.59 8.31 6.45 18.92 10.16" vector-effect="non-scaling-stroke"/><path stroke="#784e1d" d="M460.41 514.37q-3.19 1.76-7.56 3.19c-21 6.9-43.44 10.44-65.14 6.68" vector-effect="non-scaling-stroke"/><path stroke="#f9d68a" d="M283.34 412.49q-3.78 4.18-7.36 8.49-5.4 6.49-15.54 10.26-11.42 4.25-25.37-.42" vector-effect="non-scaling-stroke"/><path stroke="#edb362" d="M642.17 721.44q.12-4.33 3.21-8.52" vector-effect="non-scaling-stroke"/><path stroke="#f0ab3f" d="m746.31 588.56-.71-.68a.37.36 20.5 0 0-.62.28q.09 1.79-.58 3.13a1.65 1.65 0 0 1-.95.81q-13.31 4.16-18.61 4.98-18.97 2.95-38.7.43-16.34-2.09-26.3-4.87-15.91-4.46-35.82-14.27c-2.97-1.47-5.43-3.31-8.39-4.23-2.45-.76-2.88-2.85-4.58-4.44" vector-effect="non-scaling-stroke"/><path stroke="#f2c56a" d="M716.32 240.73q.24 1.33-1.89.78a2.89 2.59-19.1 0 1-.69-.29q-10.4-6.4-22.74-4.71-8.55 1.17-14.87 3.65-12.25 4.8-19.19 16.28" vector-effect="non-scaling-stroke"/><path stroke="#817a68" d="M371.08 800.99q-5.91 2.23-11.3 6.04c-1.65 1.17-6.35 5.03-6.27 7.48a1.52 1.5 68.6 0 0 2.49 1.11q6.8-5.95 13.98-8.13 2.14-.65 1.51 1.29a.9.87-13.7 0 1-.26.41l-9.21 8.16a1.79 1.79 0 0 0 .98 3.12l3.54.4a5.49 5.48 24.5 0 0 4.67-1.74q5.56-6.03 16.44-8.43a.99.98-1.2 0 1 1.18 1.13q-.13.72-1.15 1.37-5.61 3.55-9.26 7.5a.44.44 0 0 0 .34.74q15.24-.53 32.27-5.19" vector-effect="non-scaling-stroke"/><path stroke="#7a6848" d="M411.03 816.25q11.89-2.47 24.66-9.21a.35.34 29.8 0 0-.18-.65q-21.65.83-42.38-5.01-5.07-1.43-12.68-4.03a1.79 1.77 42 0 0-1.31.06l-8.06 3.58" vector-effect="non-scaling-stroke"/><path stroke="#f6dfad" d="M411.03 816.25q-10.41-5.87-20.65-9.41-8.77-3.02-13.63-3.62-3.7-.45-5.67-2.23" vector-effect="non-scaling-stroke"/><path stroke="#817a68" d="M636.85 816.07q14.93 4.09 29.32 5.37 1.75.15 3.55-.1a.56.56 0 0 0 .3-.97q-2.16-1.99-9.36-7.44a1.14 1.13-50.9 0 1-.16-1.65q.51-.58 1.59-.37 6.81 1.32 12.85 6.3 3.15 2.6 3.82 3.38a1.21 1.19 68.8 0 0 .93.42q3.98-.05 6.94-1.48a.55.55 0 0 0 .23-.79c-2.44-3.89-5.96-6.72-9.95-10.01a.68.67-42.6 0 1 .05-1.07q.55-.39 1.31-.17 7.74 2.3 13.9 8.27a1.51 1.43 44.3 0 0 2.06.03q.88-.89.95-2.01a1.46 1.44 30.7 0 0-.24-.92c-4.01-6.07-11.96-10.12-18.95-12.65" vector-effect="non-scaling-stroke"/><path stroke="#7a6848" d="m675.99 800.21-5.42-2.16a1.52 1.48-43 0 0-1.06-.02q-27.12 9.8-55.62 8.78a.4.4 0 0 0-.2.75q11.59 6.04 23.16 8.51" vector-effect="non-scaling-stroke"/><path stroke="#f6dfad" d="M675.99 800.21q.19 2.49-3.73 3.03-18 2.5-35.41 12.83" vector-effect="non-scaling-stroke"/><path stroke="#7d6025" d="M502.162 294.81a10.05 6.73-129.1 0 0 1.115 12.044 10.05 6.73-129.1 0 0 11.561 3.555 10.05 6.73-129.1 0 0-1.115-12.043 10.05 6.73-129.1 0 0-11.561-3.555m103.718 17.65a10.04 6.72-32.8 0 0-12.08-.21 10.04 6.72-32.8 0 0-4.8 11.088 10.04 6.72-32.8 0 0 12.08.21 10.04 6.72-32.8 0 0 4.8-11.088" vector-effect="non-scaling-stroke"/><path stroke="#7d6025" d="M491.398 315.176a30.38 25.02-73.6 0 0-32.58 22.08 30.38 25.02-73.6 0 0 15.425 36.208 30.38 25.02-73.6 0 0 32.579-22.08 30.38 25.02-73.6 0 0-15.425-36.208m118.497 20.336a30.26 25.09-87 0 0-26.64 28.905 30.26 25.09-87 0 0 23.472 31.532 30.26 25.09-87 0 0 26.64-28.906 30.26 25.09-87 0 0-23.472-31.531" vector-effect="non-scaling-stroke"/><path stroke="#f9d68a" d="M383.602 345.454a14.42 6.32-153.8 0 0 10.148 12.037 14.42 6.32-153.8 0 0 15.728.696 14.42 6.32-153.8 0 0-10.148-12.038 14.42 6.32-153.8 0 0-15.728-.695m331.572 51.764a14.58 6.27-6.9 0 0-15.227-4.473 14.58 6.27-6.9 0 0-13.721 7.977 14.58 6.27-6.9 0 0 15.227 4.473 14.58 6.27-6.9 0 0 13.721-7.977" vector-effect="non-scaling-stroke"/><path stroke="#828181" d="M494.98 326.44a9.39 8.22-75 0 0-10.37 6.942 9.39 8.22-75 0 0 5.51 11.198 9.39 8.22-75 0 0 10.37-6.942 9.39 8.22-75 0 0-5.51-11.198m107.885 18.916a9.25 8.16-82.2 0 0-9.34 8.057 9.25 8.16-82.2 0 0 6.83 10.271 9.25 8.16-82.2 0 0 9.34-8.057 9.25 8.16-82.2 0 0-6.83-10.271" vector-effect="non-scaling-stroke"/><path stroke="#817a68" d="M514.59 406.16q-.72.1-1.25.73-.46.55-.5 1.36c-.36 7.47 6.34 14.96 12.35 18.55a.78.77-70.1 0 1 .37.8q-1.02 6.15-2 7.97c-4.25 7.88-13.84 10.89-22.46 8.52q-7.35-2.01-11.12-10.86-.6-1.4-1.66-1.79a1.51 1.45-74.5 0 0-1.94 1.15c-1.41 7.34 2.1 12.14 6.8 17.22a1.54 1.53 22.7 0 1 .41.99q.48 13.19 3.76 25.6c4.1 15.54 17.05 28.06 34.07 22.42 15.27-5.05 24.6-24.63 28.53-38.57a1.8 1.77 81.3 0 1 .71-.98q1.03-.72 2.71-1.62 6.84-3.67 8.75-11.04.51-1.94-.79-3.25a1.69 1.43-48.9 0 0-2.32.35q-2.44 3.13-5.04 5.24c-9.24 7.51-22.37 2.75-28.15-6.39-2.85-4.5-2.69-8.29-2.04-13.47a.89.89 0 0 1 .68-.75c7.48-1.71 13.39-4.5 17.63-11.22q1.76-2.79.49-4.7" vector-effect="non-scaling-stroke"/><path stroke="#f8d1b5" d="M552.58 412.42c-2.71-10.33-22.65-11-30.59-10.13q-4.46.48-7.4 3.87" vector-effect="non-scaling-stroke"/><path stroke="#7c5a50" d="M552.58 412.42q-3.05 1.74-5.75 3.68-3.51 2.51-10.55 4.43-5.68 1.55-10.38-1.94-6.5-4.83-11.31-12.43" vector-effect="non-scaling-stroke"/><path stroke="#f9d8ce" d="M520.56 406.404a5.24 3.1-170.6 0 0 4.664 3.914 5.24 3.1-170.6 0 0 5.676-2.202 5.24 3.1-170.6 0 0-4.664-3.914 5.24 3.1-170.6 0 0-5.676 2.202" vector-effect="non-scaling-stroke"/><path stroke="#828181" d="M511.87 454.52c.91 6.1 2.71 10.79 9.31 12.62 9.62 2.66 14.51.07 18.16-9.17a.58.58 0 0 0-.25-.72c-3.27-1.87-6.16-4.07-8.49-7.15q-2.04-2.7-2.93-3.68a.65.65 0 0 0-.93-.05q-5.94 5.39-14.27 7.26a.79.78 79.4 0 0-.6.89" vector-effect="non-scaling-stroke"/><path stroke="#784e1d" d="M541.87 479.18c-10.45-6.35-23.4-6.5-34.1-.75a1.05 1.05 0 0 0-.47 1.35q3.16 7.14 10.31 10.6c8.8 4.25 19.49-3.22 24.45-10.31a.63.62-57.3 0 0-.19-.89" vector-effect="non-scaling-stroke"/><path stroke="#7d6025" d="M317.29 655.13c.04 2.73.15 5.6 2.04 7.55q1.82 1.87 4.06 1c2.87-1.12 2.77-6.25 2.73-8.69-.03-2.44-.09-7.56-2.99-8.6q-2.27-.8-4.03 1.13c-1.83 2-1.85 4.87-1.81 7.61m7.413 20.513a8.68 4.32-100.4 0 0-2.682 9.317 8.68 4.32-100.4 0 0 5.816 7.757 8.68 4.32-100.4 0 0 2.682-9.317 8.68 4.32-100.4 0 0-5.816-7.757" vector-effect="non-scaling-stroke"/><path stroke="#7d6025" d="M331.955 703.923a8.22 4.42-115.7 0 0-.418 9.324 8.22 4.42-115.7 0 0 7.548 5.49 8.22 4.42-115.7 0 0 .418-9.324 8.22 4.42-115.7 0 0-7.548-5.49" vector-effect="non-scaling-stroke"/><path stroke="#828181" d="M526.248 449.362a5.02 1.03-83.5 0 0-1.591 4.871 5.02 1.03-83.5 0 0 .455 5.105 5.02 1.03-83.5 0 0 1.591-4.871 5.02 1.03-83.5 0 0-.455-5.105" vector-effect="non-scaling-stroke"/><path stroke="#7d6025" d="M730.53 657.395a9.11 4.58-83.7 0 0-5.552 8.552 9.11 4.58-83.7 0 0 3.552 9.558 9.11 4.58-83.7 0 0 5.552-8.552 9.11 4.58-83.7 0 0-3.552-9.558m-5.15 29.271a8.5 4.4-72.9 0 0-6.706 6.83 8.5 4.4-72.9 0 0 1.707 9.418 8.5 4.4-72.9 0 0 6.705-6.83 8.5 4.4-72.9 0 0-1.707-9.418m-9.976 27.378a8.09 4.33-58.2 0 0-7.943 4.594 8.09 4.33-58.2 0 0-.583 9.158 8.09 4.33-58.2 0 0 7.943-4.594 8.09 4.33-58.2 0 0 .583-9.158" vector-effect="non-scaling-stroke"/></g><path fill="#050303" d="M549.83 206.97q-.43-6.72 5.18-8.38c6.68-1.97 16.78 5.08 21.4 9.54a.73.72-51.2 0 0 1.1-.12c2.89-4.26 7.87-6.4 12.66-3.49a2.71 2.59 83.1 0 1 .56.46q3.01 3.22 5.26 7.8 2.59 5.28 7.25 15.25a3.88 3.85-3.7 0 0 2.35 2.05q20.42 6.33 39.64 17.8a.51.5-57.1 0 0 .67-.15c6.7-9.94 16.23-19.29 27.48-23.7 36.46-14.29 71.95 15.23 70.39 52.72q-1.18 28.25-25.11 45.27a1.14 1.14 0 0 0-.34 1.48q13.47 24.5 23.76 48.55a1.61 1.59-88.5 0 0 .74.79c3.36 1.7 7.08 3.04 11.08 5.21q28.14 15.24 41.05 45.01c13 29.95 13.09 64.68 1.61 94.5q-11.16 28.99-36.04 46.71-1.36.96-6.04 4.21a.82.8 66.6 0 0-.33.86q4.67 19.94 6.29 47.41 2.44 41.39-6.02 79.48c-9.36 42.14-32.09 78.41-72.42 96.84a.46.45 44.5 0 0 .01.83c8.02 3.57 22.45 11.36 22.05 21.68-.23 6.01-4.34 8.68-9.72 10.04a3.96 3.95 19.2 0 0-1.47.71q-4.24 3.19-11.63 3.9c-13.95 1.32-27.99-.72-42.13-3.82q-13.55-2.97-23.47-7.24c-6.61-2.85-12.43-5.88-15.87-12.12a1.06 1.04 76.2 0 0-.88-.54c-14.77-.44-26.55-2.52-45.4-5.68q-4.92-.82-18.08-2.21-16.01-1.69-33.01 1.01-14.06 2.23-31.67 4.8-3.84.56-19.97 1.72a1.03 1.03 0 0 0-.83.53q-3.62 6.23-11.82 10.2c-12.38 5.98-26.32 9.52-40.47 11.88q-15.09 2.52-29.64 1.31c-3.25-.27-7.49-1.03-10.66-2.82-2.6-1.46-6.44-2.2-8.65-3.87-7.14-5.41-4.31-14.3 1.51-19.53q7.77-6.98 17.97-10.86a.47.46 48 0 0 .04-.85q-47.99-23.75-63.71-75.45-6.69-21.99-8.63-42.22c-2.98-30.96-1.36-63.18 3.94-94.41a1.74 1.73-53.1 0 0-.15-1.07q-.94-1.89-1.79-2.86-5.95-6.84-12.79-16.69c-28.87-41.61-49.53-86.13-61.73-135.01-1.55-6.23-3.06-10.96-4.42-16.09q-1.68-6.37-1.57-15.23.11-8.33 5.19-12.55a1.63 1.62 71.1 0 0 .59-1.21q.17-4.12.51-5.14 3.46-10.22 13.94-7.81a.99.98-62.2 0 0 .95-.3c4.17-4.61 9.4-4.36 14.71-1.51 4.76 2.55 8.85 7.56 12.49 12.29a1.63 1.63 0 0 0 1.69.59q7.99-2.04 11.15 3.63a.66.66 0 0 0 1.2-.12c6.98-21.85 21.51-40.86 39.96-53.71 16.59-11.55 39.39-16.76 59.65-13.35a.97.96-65.9 0 0 .93-.36q11.74-14.73 24.58-28.28a.78.77-44.2 0 0 .02-1.05q-18.6-21.2-12.94-48.83c4.58-22.36 21.98-40.81 45.1-44.05q11.91-1.67 22.88 2.2c10.67 3.76 18.84 10.06 25.38 19.88q4.92 7.37 7.86 15.27a.66.66 0 0 0 .81.4q20.58-6.23 41.12-7.33a.31.31 0 0 0 .23-.49c-1.65-2.32-3.03-4.65-3-7.56q.07-7.23 7.83-7.42 5.29-.12 8.95 1.19a.52.51-81.8 0 0 .69-.52m-136.25 9.96c-14.58 17.32-15.51 44 .73 60.59a.65.65 0 0 0 .84.07q5.84-4.15 12.13-6.88 2.54-.26 2.62 2.08-2.98 5.89-7.63 10.73-15.58 16.23-30.06 33.9a.33.32 30.5 0 0 .14.51l9.68 3.71q7.81 3.77 13.68 9.4a.48.47-18.3 0 1-.41.81l-1.58-.27q-11.62-4.06-20.9-5.92c-24.1-4.81-49.42-.95-69.88 14.19-13.66 9.83-24.11 25.32-30.39 40.64q-4.4 10.8-6.14 22.2a.67.65 26.1 0 0 .21.58l16.57 15.07q12.24 11.47 24.26 23.2 18.32 17.86 33.76 38.24 4.47 5.9 7.87 12.37-.16.23.07.67-.9.37-1.91-.57-27.54-25.57-54.94-51.3-14.84-13.94-28.96-28.46-2.55-2.96-5.13-5.85c-3.34-3.75-4.64-6.16-5.22-10.9q-.59-4.88-1.16-8.82a1.66 1.66 0 0 0-1.52-1.42c-.88-.06-2.24.74-2.84 1.45q-5.68 6.71-7.34 16.3a1.07 1.06-57.4 0 1-1.93.43c-3.23-4.71-.86-13.28 1.88-17.91a1.22 1.22 0 0 0-.04-1.3q-4.84-7.18-11.8-12.66-.89-.7-1.79-.69a1.2 1.19-87.4 0 0-1.19 1.09c-.36 4.2 1.9 9.4 3.8 15.16a.86.86 0 0 1-1.17 1.05q-1.77-.81-3.39-2.84c-3.55-4.46-6.67-9.44-10.34-10.81a1.49 1.49 0 0 0-1.92.89q-1.58 4.33.48 8.96 3.41 7.68 4.85 12.19a.76.76 0 0 1-1.08.91c-3.37-1.73-6.67-5.6-9.15-8.7a.56.56 0 0 0-.98.23c-1.36 6.37.12 14.39 1.78 20.57q2.03 7.55 6.93 21 3.19 11.61 7.93 24.18 9.86 26.14 21.69 49.13 14.71 29.02 29.62 49.82 13.04 18.2 18.03 25.85l-2.95 11.72q-4.38 29.07-3.72 59.91.56 25.61 6.52 49.9l1.01 4.94q.69 3.94 1.38 5.88 3.77 10.56 8.71 20.62 10.52 21.43 29.07 36.32 9.72 7.81 22.2 13.68 13.5 6.36 24.43 9.04 27.42 6.74 58.25 3.29 13.46-1.45 26.88-3.62c11.96-1.92 23.09-3.57 32.4-4.15q12.92-.8 29.93 1.66 18.02 2.61 34.75 5.2 8.42.95 15.57 1.55 26.31 2.22 51.18-2.81 18.84-3.82 38.73-14.9c8.76-4.89 18.52-13.25 25-20.1q7.65-8.1 13.47-17.94c6.37-10.77 11.46-21.27 14.74-32.96q9.09-31.94 9.54-67.28.34-27.51-3.12-51.19l-2.25-13.46a.52.52 0 0 0-.72-.39c-16.69 7.47-34.36 11.22-52.95 11.1-20.05-.12-39.44-4.68-58.51-12.16-10.09-3.95-17.21-8.36-25.9-13.1q-9.55-6.46-12.7-8.83-11.56-8.72-21.17-19.96 2.31-.55 4.15.48 2.71 1.54 4.32 1.85 9.8 7.57 20.76 14.33c29.05 17.93 61.6 28.26 95.9 26.52 29.54-1.5 57.43-15.4 75.6-39.06 11.02-14.36 17.72-33.59 19.44-51.86 2.68-25.85-2.64-52.46-18.4-73.41q-7.71-10.82-19.31-18.42-20.46-13.39-45.19-16.03l-19.13-1.01a.54.53 29.2 0 1-.28-.97q.74-.52 1.8-.92 9.83-3.77 20.56-4.05 7.62-.44 14.96.97a.64.64 0 0 0 .7-.9c-5.52-12.01-12.09-25.7-19.84-39.8q-4.62-8.4-8.97-17.16c-.86-1.73-2.97-6.47-1.89-8.61 1.69-1.46 3.99.52 5.2 1.76q2.9 2.98 7.02 7.76a.97.97 0 0 0 1.25.19q7.76-4.89 12.77-12.17 12.18-17.72 6.8-38.57-3.33-12.88-14.01-21.95c-13.86-11.33-31.55-11.78-46.05-1.73q-8.83 6.12-14.94 15.36a.67.67 0 0 0 .14.88l1.47 1.2 10.81 8.62a.52.51-52.3 0 0 .73-.1q2.4-3.27 2.82-3.9c6.39-9.55 17.74-18.09 29.43-16.18q7.09 1.16 11.11 7.29.85 1.3.48 2-.4.76-1.95.81-2.82-2.26-3.8-2.61c-13.66-4.97-24.97 8.94-30.41 20.01a.81.8 38.8 0 0 .1.88q5.41 6.61 9.49 11.99 3.75 4.94 5.56 10.66-1.15.43-2.47-.5-6.84-4.87-12.89-10.59-5.95-5.63-21.17-16.84-22.88-16.84-49.98-26.25-6.76-2.34-10.53-9.01-5.04-8.94-8.41-18.54a.5.5 0 0 0-.86-.15q-1.19 1.41-1.56 3.16-1.07 5.2-2.5 9.25a1.32 1.32 0 0 1-2.22.46l-4.08-4.45q-5.31-7.59-13.02-12.92a.44.44 0 0 0-.65.55l1.61 3.65q2.09 5.33 2.42 10.8-.23 1.15-.7 1.82a1.35 1.35 0 0 1-1.9.34c-3.52-2.52-6.92-5.75-10.9-7.72q-2.72-1.34-6.29-2.54a.32.32 0 0 0-.35.51q2.81 3.42 3.84 4.86c3.38 4.71 3.06 10.66-4.01 11.01q-17.08.86-24.45 2.03c-25.09 3.99-49.83 13.92-71.59 27.1q-2.41 1.46-9.1 3.97-1.47.25-1.84-.36-.41-.68.09-1.32c5.39-6.95 12.48-12.57 19.66-17.43a.91.9-23.8 0 0 .37-.95c-1.98-8.73-7.03-18.85-14.78-23.67q-4.58-2.84-10.18-1.63-2.41.52-4.85 1.19-.75-.33-1-.85-.23-.48.27-1.19c5.1-7.28 14.86-6.87 21.81-2.78 9.01 5.32 14 13.9 17.67 23.29a.59.59 0 0 0 .81.32l13.93-6.48q.33-.14.55-.26a.6.6 0 0 0 .28-.71c-7.48-23.29-30.32-38-54.3-27.04q-8.31 3.8-14.46 10.89m-42.5 584.06q-5.91 2.23-11.3 6.04c-1.65 1.17-6.35 5.03-6.27 7.48a1.52 1.5 68.6 0 0 2.49 1.11q6.8-5.95 13.98-8.13 2.14-.65 1.51 1.29a.9.87-13.7 0 1-.26.41l-9.21 8.16a1.79 1.79 0 0 0 .98 3.12l3.54.4a5.49 5.48 24.5 0 0 4.67-1.74q5.56-6.03 16.44-8.43a.99.98-1.2 0 1 1.18 1.13q-.13.72-1.15 1.37-5.61 3.55-9.26 7.5a.44.44 0 0 0 .34.74q15.24-.53 32.27-5.19 11.89-2.47 24.66-9.21a.35.34 29.8 0 0-.18-.65q-21.65.83-42.38-5.01-5.07-1.43-12.68-4.03a1.79 1.77 42 0 0-1.31.06zm265.77 15.08q14.93 4.09 29.32 5.37 1.75.15 3.55-.1a.56.56 0 0 0 .3-.97q-2.16-1.99-9.36-7.44a1.14 1.13-50.9 0 1-.16-1.65q.51-.58 1.59-.37 6.81 1.32 12.85 6.3 3.15 2.6 3.82 3.38a1.21 1.19 68.8 0 0 .93.42q3.98-.05 6.94-1.48a.55.55 0 0 0 .23-.79c-2.44-3.89-5.96-6.72-9.95-10.01a.68.67-42.6 0 1 .05-1.07q.55-.39 1.31-.17 7.74 2.3 13.9 8.27a1.51 1.43 44.3 0 0 2.06.03q.88-.89.95-2.01a1.46 1.44 30.7 0 0-.24-.92c-4.01-6.07-11.96-10.12-18.95-12.65l-5.42-2.16a1.52 1.48-43 0 0-1.06-.02q-27.12 9.8-55.62 8.78a.4.4 0 0 0-.2.75q11.59 6.04 23.16 8.51"/><path fill="#efcd8d" d="M481.51 234.05q-5.72-13.64-18.06-20.61a5.77 5.41 67.4 0 0-.89-.4q-2.78-.92-5.16-2.27a3.22 3.1 64.5 0 0-.93-.35q-5.26-1.07-7.49-1.64c-6.91-1.78-13.64-1.27-20.35.36q-2.18.54-6.26 3.57c-2.43 1.81-5.63 2.31-7.74 4.82q-.29.34-.73.04-.26-.18-.32-.64 6.15-7.09 14.46-10.89c23.98-10.96 46.82 3.75 54.3 27.04a.6.6 0 0 1-.28.71q-.22.12-.55.26"/><path fill="#f4bc47" d="m481.51 234.05-13.93 6.48a.59.59 0 0 1-.81-.32c-3.67-9.39-8.66-17.97-17.67-23.29-6.95-4.09-16.71-4.5-21.81 2.78q-.5.71-.27 1.19.25.52 1 .85-6.87 10.81-7.92 23.76-.38 4.61 1.19 10.44 2.4 8.95 5.99 14.77-6.29 2.73-12.13 6.88a.65.65 0 0 1-.84-.07c-16.24-16.59-15.31-43.27-.73-60.59q.06.46.32.64.44.3.73-.04c2.11-2.51 5.31-3.01 7.74-4.82q4.08-3.03 6.26-3.57c6.71-1.63 13.44-2.14 20.35-.36q2.23.57 7.49 1.64a3.22 3.1 64.5 0 1 .93.35q2.38 1.35 5.16 2.27a5.77 5.41 67.4 0 1 .89.4q12.34 6.97 18.06 20.61"/><path fill="#efcd8d" d="M574.64 222.45q-.02 1.02-1.18.85-.67-.1-1.11-.61-4.19-4.79-9.77-8.96l-1.61-3.65a.44.44 0 0 1 .65-.55q7.71 5.33 13.02 12.92"/><path fill="#f4bc47" d="m574.64 222.45 4.08 4.45a1.32 1.32 0 0 0 2.22-.46q1.43-4.05 2.5-9.25.37-1.75 1.56-3.16a.5.5 0 0 1 .86.15q3.37 9.6 8.41 18.54 3.77 6.67 10.53 9.01 27.1 9.41 49.98 26.25 15.22 11.21 21.17 16.84 6.05 5.72 12.89 10.59 1.32.93 2.47.5.42 2.22 1.72 4.38 2.89 4.33 2.98 9.47a1.14 1.11 69.5 0 1-.38.87q-5.54 4.84-7.7 11.42-5.86 17.86-.94 37.77.81 3.28 3.35 10.6a.56.55 73 0 0 .66.36c7.2-1.88 14.5-3.75 21.33-1.57q-10.73.28-20.56 4.05-1.06.4-1.8.92a.54.53 29.2 0 0 .28.97l19.13 1.01q-1.22.24-.77 1.28a.97.96-7.1 0 0 .75.58q7.39 1.03 11.76 2.62 4.46 1.63 15.6 6.82c4.13 1.93 7.34 4.47 11.15 6.67q3.05 1.76 7.41 5.89 4.85 4.6 9.67 9.53 7.34 7.5 9.01 15.83-3.48 27.77-22.6 45.48-12.48 11.56-29.63 17.74-9.53-12.37-19.78-23.97-5.17-5.84-11.27-10.52c-19.42-14.89-41.63-6.41-60.18 4.48q-17.78-14.34-40.28-18.94-.03-.95-1.39-1.81a2.66 2.56-87.9 0 1-.95-1.06q-1.84-3.85-6.02-6.61 26.49-5.68 52.82-5.56a.33.33 0 0 0 .1-.65q-28.27-8.36-55.03 2.93-2.77-5.1-5.84-10.04c-8.12-13.03-21.32-24.39-36.7-26.79q-18.08-2.82-33.32 7.62-3.73 2.56-8.03 6.02a1.95 1.9-4.5 0 0-.36.41q-.53.81-5.33 5.05-.77.68-2.29 3.39c-13.34-13.94-33.82-22.65-52.92-23.03a.38.37-35 0 0-.13.73q26.27 8.94 50.26 23.94l-6.68 6.5q-13.37-2.93-27.88-1.52 3.56-.48 7.12-.72.86-.06.06-.13-14.43-1.32-25.26-4.65-4.19-1.28-17.49-5.87-19.55-6.73-37.98 3.62-14.4 8.08-24.85 16.83-14.44-10.37-23.22-25.09-5.39-9.04-7.85-18.85-2.46-9.79-2.35-20.31.05-4.63.83-7.84 6.19-7.42 14.02-11.84 1.16-.65 10.79-5.79 6.16-3.28 11.22-4.72c9.39-2.68 17.71-4.52 26.57-4.37 5.73.09 12.74-.48 18.92.43q5.11.75 10.79 2.8.97.35 1.68-.29.11-.09.19-.8l1.58.27a.48.47-18.3 0 0 .41-.81q-5.87-5.63-13.68-9.4 10.01-13.31 20.89-25.78 5.68-6.51 11.01-10.88 6.26-5.13 12.5-10.35 4.8-4.03 9.62-7.14 5.04-3.25 10.26-6.24 4.21-2.42 8.4-4.99 1.91-1.17 3.06-1.43a.87.87 0 0 1 1.06.93q-.14 1.64.75 2.91 3.24 4.65 9.11 3.95c8.47-1.01 19.43-5.33 18.72-15.55q-.09-1.29-1.36-2.03a.82.82 0 0 1 .25-1.51l10.27-2.03a.68.67 83.2 0 1 .81.64c.21 4.99 4.95 5.23 8.86 4.64q5.51-.84 6.2-6.08.26-1.93-1.21-3.22a.7.69-30.6 0 1 .31-1.2q1.5-.33 3.46-.39 6.6-.18 11.98-1.21 3.41-.65 4.9-3.16.92-1.56 1.3-3.47.24-1.16.09-1.62a.37.36-10.9 0 1 .33-.48c3.23-.16 6.06 1.1 9.45 2.24a2.18 2.04 9.6 0 0 2.86-1.9q-.01-.64-.91-1.76-.33-5.47-2.42-10.8 5.58 4.17 9.77 8.96.44.51 1.11.61 1.16.17 1.18-.85m-72.478 72.36a10.05 6.73-129.1 0 0 1.115 12.044 10.05 6.73-129.1 0 0 11.561 3.555 10.05 6.73-129.1 0 0-1.115-12.043 10.05 6.73-129.1 0 0-11.561-3.555m103.717 17.651a10.04 6.72-32.8 0 0-12.08-.21 10.04 6.72-32.8 0 0-4.798 11.088 10.04 6.72-32.8 0 0 12.08.21 10.04 6.72-32.8 0 0 4.798-11.088m-114.482 2.715a30.38 25.02-73.6 0 0-32.579 22.08 30.38 25.02-73.6 0 0 15.425 36.208 30.38 25.02-73.6 0 0 32.579-22.08 30.38 25.02-73.6 0 0-15.425-36.208m118.497 20.336a30.26 25.09-87 0 0-26.64 28.905 30.26 25.09-87 0 0 23.472 31.532 30.26 25.09-87 0 0 26.64-28.906 30.26 25.09-87 0 0-23.472-31.531M383.6 345.454a14.42 6.32-153.8 0 0 10.149 12.037 14.42 6.32-153.8 0 0 15.728.696 14.42 6.32-153.8 0 0-10.148-12.038 14.42 6.32-153.8 0 0-15.728-.695m331.573 51.764a14.58 6.27-6.9 0 0-15.227-4.473 14.58 6.27-6.9 0 0-13.721 7.977 14.58 6.27-6.9 0 0 15.227 4.473 14.58 6.27-6.9 0 0 13.721-7.977"/><path fill="#efcd8d" d="M565 224.53q.9 1.12.91 1.76a2.18 2.04 9.6 0 1-2.86 1.9c-3.39-1.14-6.22-2.4-9.45-2.24a.37.36-10.9 0 0-.33.48q.15.46-.09 1.62-.38 1.91-1.3 3.47-1.49 2.51-4.9 3.16-5.38 1.03-11.98 1.21-1.96.06-3.46.39a.7.69-30.6 0 0-.31 1.2q1.47 1.29 1.21 3.22-.69 5.24-6.2 6.08c-3.91.59-8.65.35-8.86-4.64a.68.67 83.2 0 0-.81-.64l-10.27 2.03a.82.82 0 0 0-.25 1.51q1.27.74 1.36 2.03c.71 10.22-10.25 14.54-18.72 15.55q-5.87.7-9.11-3.95-.89-1.27-.75-2.91a.87.87 0 0 0-1.06-.93q-1.15.26-3.06 1.43-4.19 2.57-8.4 4.99-5.22 2.99-10.26 6.24-4.82 3.11-9.62 7.14-6.24 5.22-12.5 10.35-5.33 4.37-11.01 10.88-10.88 12.47-20.89 25.78l-9.68-3.71a.33.32 30.5 0 1-.14-.51q14.48-17.67 30.06-33.9 4.65-4.84 7.63-10.73l9.65-6.88q6.69-2.51 9.1-3.97c21.76-13.18 46.5-23.11 71.59-27.1q7.37-1.17 24.45-2.03c7.07-.35 7.39-6.3 4.01-11.01q-1.03-1.44-3.84-4.86a.32.32 0 0 1 .35-.51q3.57 1.2 6.29 2.54c3.98 1.97 7.38 5.2 10.9 7.72a1.35 1.35 0 0 0 1.9-.34q.47-.67.7-1.82"/><path fill="#f3b19d" d="m439.55 265.91-9.65 6.88q-.08-2.34-2.62-2.08-3.59-5.82-5.99-14.77-1.57-5.83-1.19-10.44 1.05-12.95 7.92-23.76 2.44-.67 4.85-1.19 5.6-1.21 10.18 1.63c7.75 4.82 12.8 14.94 14.78 23.67a.91.9-23.8 0 1-.37.95c-7.18 4.86-14.27 10.48-19.66 17.43q-.5.64-.09 1.32.37.61 1.84.36"/><path fill="#efcd8d" d="M716.32 240.73q.24 1.33-1.89.78a2.89 2.59-19.1 0 1-.69-.29q-10.4-6.4-22.74-4.71-8.55 1.17-14.87 3.65-12.25 4.8-19.19 16.28l-1.47-1.2a.67.67 0 0 1-.14-.88q6.11-9.24 14.94-15.36c14.5-10.05 32.19-9.6 46.05 1.73"/><path fill="#f4bc47" d="M716.32 240.73q10.68 9.07 14.01 21.95 5.38 20.85-6.8 38.57-5.01 7.28-12.77 12.17a.97.97 0 0 1-1.25-.19q-4.12-4.78-7.02-7.76c-1.21-1.24-3.51-3.22-5.2-1.76l-3.57-2.94q.91.29 1.58 1.16a1.78 1.73 82.1 0 0 .63.49c3.29 1.42 5.2-.88 7.46-2.73a4.46 4.04-2.3 0 0 .58-.57q6.54-7.78 9.06-17.81 3.41-13.54-2.66-26.33 1.55-.05 1.95-.81.37-.7-.48-2-4.02-6.13-11.11-7.29c-11.69-1.91-23.04 6.63-29.43 16.18q-.42.63-2.82 3.9a.52.51-52.3 0 1-.73.1l-10.81-8.62q6.94-11.48 19.19-16.28 6.32-2.48 14.87-3.65 12.34-1.69 22.74 4.71a2.89 2.59-19.1 0 0 .69.29q2.13.55 1.89-.78"/><path fill="#f3b19d" d="M710.37 254.98q6.07 12.79 2.66 26.33-2.52 10.03-9.06 17.81a4.46 4.04-2.3 0 1-.58.57c-2.26 1.85-4.17 4.15-7.46 2.73a1.78 1.73 82.1 0 1-.63-.49q-.67-.87-1.58-1.16l-.69-.48q-1.3-2.16-1.72-4.38-1.81-5.72-5.56-10.66-4.08-5.38-9.49-11.99a.81.8 38.8 0 1-.1-.88c5.44-11.07 16.75-24.98 30.41-20.01q.98.35 3.8 2.61"/><ellipse fill="#050303" rx="10.05" ry="6.73" transform="rotate(230.9 326.257 30.306)"/><path fill="#eb9936" d="m693.03 300.29.69.48 3.57 2.94c-1.08 2.14 1.03 6.88 1.89 8.61q4.35 8.76 8.97 17.16c7.75 14.1 14.32 27.79 19.84 39.8a.64.64 0 0 1-.7.9q-7.34-1.41-14.96-.97c-6.83-2.18-14.13-.31-21.33 1.57a.56.55 73 0 1-.66-.36q-2.54-7.32-3.35-10.6-4.92-19.91.94-37.77 2.16-6.58 7.7-11.42a1.14 1.11 69.5 0 0 .38-.87q-.09-5.14-2.98-9.47"/><ellipse fill="#050303" rx="10.04" ry="6.72" transform="rotate(-32.8 838.786 -856.013)"/><path fill="#050303" d="M491.398 315.176a30.38 25.02-73.6 0 1 15.424 36.208 30.38 25.02-73.6 0 1-32.58 22.08 30.38 25.02-73.6 0 1-15.424-36.208 30.38 25.02-73.6 0 1 32.58-22.08m3.582 11.264a9.39 8.22-75 0 0-10.37 6.942 9.39 8.22-75 0 0 5.51 11.198 9.39 8.22-75 0 0 10.37-6.942 9.39 8.22-75 0 0-5.51-11.198"/><path fill="#efcd8d" d="M413.72 331.58q-.08.71-.19.8-.71.64-1.68.29-5.68-2.05-10.79-2.8c-6.18-.91-13.19-.34-18.92-.43-8.86-.15-17.18 1.69-26.57 4.37q-5.06 1.44-11.22 4.72-9.63 5.14-10.79 5.79-7.83 4.42-14.02 11.84c-.44-3.52.9-6.36 1.28-9.57q.37-3.04 2.69-5.29a.64.64 0 0 0 .15-.7q-.19-.5-.72-.75c20.46-15.14 45.78-19 69.88-14.19q9.28 1.86 20.9 5.92"/><ellipse rx="9.39" ry="8.22" transform="rotate(-75 464.898 -153.197)"/><path fill="#050303" d="M609.894 335.512a30.26 25.09-87 0 1 23.472 31.531 30.26 25.09-87 0 1-26.64 28.906 30.26 25.09-87 0 1-23.472-31.532 30.26 25.09-87 0 1 26.64-28.905m-7.029 9.844a9.25 8.16-82.2 0 0-9.34 8.057 9.25 8.16-82.2 0 0 6.83 10.271 9.25 8.16-82.2 0 0 9.34-8.057 9.25 8.16-82.2 0 0-6.83-10.271"/><path fill="#fdf0cd" d="M322.94 339.85q.53.25.72.75a.64.64 0 0 1-.15.7q-2.32 2.25-2.69 5.29c-.38 3.21-1.72 6.05-1.28 9.57q-.78 3.21-.83 7.84-.11 10.52 2.35 20.31 2.46 9.81 7.85 18.85 8.78 14.72 23.22 25.09 5 3.96 8.27 5.66 45.36 23.45 92.09 3.34 10.75-4.63 21.43-12.4l12.3.29a.81.81 0 0 0 .29-1.58l-8.1-2.87 6.68-6.5 3.94 2.15a.64.64 0 0 0 .9-.8q-.59-1.49-2.05-2.99 1.52-2.71 2.29-3.39 4.8-4.24 5.33-5.05a1.95 1.9-4.5 0 1 .36-.41q4.3-3.46 8.03-6.02 15.24-10.44 33.32-7.62c15.38 2.4 28.58 13.76 36.7 26.79q3.07 4.94 5.84 10.04-2.22 1.47-4.23 2.61-.81.46-.87.99a.87.87 0 0 0 1 .95q3.82-.6 6.21-1.27 4.18 2.76 6.02 6.61a2.66 2.56-87.9 0 0 .95 1.06q1.36.86 1.39 1.81l-13.19-1.2a.96.96 0 0 0-.61 1.76q1.71 1.13 4.13 1.76 7.91 2.06 14.09 4.46 4.68 5.32 9.05 10.25 5.49 6.2 9.7 9.61c23.85 19.36 52.82 29.18 83.61 27.38q12.74-.74 24.73-5.07 17.15-6.18 29.63-17.74 19.12-17.71 22.6-45.48l1.2-4.46a2.72 2.7-41.9 0 0 .06-1.03l-1.34-9.28c15.76 20.95 21.08 47.56 18.4 73.41q-.09-1.01-.15-1.05a.85.85 0 0 0-1.21.29l-12.07 20.99a1.69 1.34-76.7 0 1-.13.19q-10.7 12.76-15.46 17.32c-28.68 27.53-69.13 37.63-107.98 33.71q-12.09-1.22-25.85-4.51-9.46-2.27-24.62-7.85-11.93-4.4-24.23-9.02-1.61-.31-4.32-1.85-1.84-1.03-4.15-.48l-7.28-1.06a.28.28 0 0 0-.24.47c2.62 2.8 3.98 5.43 6.5 7.55q1.01.85 9.18 9.29 4.77 4.93 9.59 8.83 10.2 8.26 21.9 15.04 6.65 9.05 10.38 16.23 3.82 7.36 10.89 24.61-4.44 21.83-11.4 43.47c-1.36 4.23-2.52 8.37-4.98 11.71q-4.78 6.47-7.86 11.67-5.75 9.73-.96 17.92-2.54 3.43-1.71 5.69 1.02 2.8 2.3 6.92c2.63 8.48 14.52 11.72 22.08 12.7q2.61.34 10.29-.21.5.45.33.93-6.77 18.43-18.45 34.6-2.51 3.48-6.99 8.16-3.71 3.88-7.28 7.92-.59.24-.91.58-2.15-.72-2.99-.7-19.82.52-38.6-2.22c-20.12-2.93-36.99-5.42-56.21-3.89-12.68 1.02-26.73 3.93-39.64 5.03q-22.18 1.88-45.05-.31a2.01 1.96 66.8 0 1-1.04-.43l-2.2-1.79c-7.3-6.8-12.64-14.48-19-23.36q-4.3-5.98-9.43-18.08-13.98-33-11.35-69.27 2.26-31.21 13.03-58.56 14.13-35.89 42.27-63.16 3.24-3.14 5.91-5.06l4.52-2.72a1.1 1.06-60 0 1 .49-.14q.85-.01 1.31-.43a1.9.3-46 0 1 .77-.58q4.53-2.23 8.4-3.66c5.29-1.96 9.54-5.51 14.6-7.72q2.68-1.16 4.6-1.89a.34.34 0 0 0-.07-.66l-17.7-2.74a.42.38 61.7 0 1-.17-.06l-.25-.19a1.91 1.82-20.7 0 0-.92-.39c-3.86-.55-8.17-.07-12.67-.56q-.51-.05-8.09-.45-28.63-1.49-55.52-12.01-5.71-2.24-11.98-6.39-.39-.26-1.43-.24-3.4-6.47-7.87-12.37-15.44-20.38-33.76-38.24-12.02-11.73-24.26-23.2.22-1.14.52-1.08a.41.41 0 0 0 .47-.57q-5.49-12.12-9.34-23.55-.85-2.52-2.29-12.65c6.28-15.32 16.73-30.81 30.39-40.64m191.65 66.31q-.72.1-1.25.73-.46.55-.5 1.36c-.36 7.47 6.34 14.96 12.35 18.55a.78.77-70.1 0 1 .37.8q-1.02 6.15-2 7.97c-4.25 7.88-13.84 10.89-22.46 8.52q-7.35-2.01-11.12-10.86-.6-1.4-1.66-1.79a1.51 1.45-74.5 0 0-1.94 1.15c-1.41 7.34 2.1 12.14 6.8 17.22a1.54 1.53 22.7 0 1 .41.99q.48 13.19 3.76 25.6c4.1 15.54 17.05 28.06 34.07 22.42 15.27-5.05 24.6-24.63 28.53-38.57a1.8 1.77 81.3 0 1 .71-.98q1.03-.72 2.71-1.62 6.84-3.67 8.75-11.04.51-1.94-.79-3.25a1.69 1.43-48.9 0 0-2.32.35q-2.44 3.13-5.04 5.24c-9.24 7.51-22.37 2.75-28.15-6.39-2.85-4.5-2.69-8.29-2.04-13.47a.89.89 0 0 1 .68-.75c7.48-1.71 13.39-4.5 17.63-11.22q1.76-2.79.49-4.7c-2.71-10.33-22.65-11-30.59-10.13q-4.46.48-7.4 3.87"/><ellipse fill="#fdf0cd" rx="14.42" ry="6.32" transform="rotate(206.2 239.206 129.771)"/><ellipse rx="9.25" ry="8.16" transform="rotate(-82.2 504.002 -167.56)"/><path fill="#fdf0cd" d="M283.34 412.49q-3.78 4.18-7.36 8.49-5.4 6.49-15.54 10.26-11.42 4.25-25.37-.42-4.9-13.45-6.93-21c-1.66-6.18-3.14-14.2-1.78-20.57a.56.56 0 0 1 .98-.23c2.48 3.1 5.78 6.97 9.15 8.7a.76.76 0 0 0 1.08-.91q-1.44-4.51-4.85-12.19-2.06-4.63-.48-8.96a1.49 1.49 0 0 1 1.92-.89c3.67 1.37 6.79 6.35 10.34 10.81q1.62 2.03 3.39 2.84a.86.86 0 0 0 1.17-1.05c-1.9-5.76-4.16-10.96-3.8-15.16a1.2 1.19-87.4 0 1 1.19-1.09q.9-.01 1.79.69 6.96 5.48 11.8 12.66a1.22 1.22 0 0 1 .04 1.3c-2.74 4.63-5.11 13.2-1.88 17.91a1.07 1.06-57.4 0 0 1.93-.43q1.66-9.59 7.34-16.3c.6-.71 1.96-1.51 2.84-1.45a1.66 1.66 0 0 1 1.52 1.42q.57 3.94 1.16 8.82c.58 4.74 1.88 7.15 5.22 10.9q2.58 2.89 5.13 5.85"/><path fill="#efcd8d" d="M709.38 376.16q24.73 2.64 45.19 16.03 11.6 7.6 19.31 18.42l1.34 9.28a2.72 2.7-41.9 0 1-.06 1.03l-1.2 4.46q-1.67-8.33-9.01-15.83-4.82-4.93-9.67-9.53-4.36-4.13-7.41-5.89c-3.81-2.2-7.02-4.74-11.15-6.67q-11.14-5.19-15.6-6.82-4.37-1.59-11.76-2.62a.97.96-7.1 0 1-.75-.58q-.45-1.04.77-1.28m-406.19 42.18-16.57-15.07a.67.65 26.1 0 1-.21-.58q1.74-11.4 6.14-22.2 1.44 10.13 2.29 12.65 3.85 11.43 9.34 23.55a.41.41 0 0 1-.47.57q-.3-.06-.52 1.08"/><path fill="#050303" d="M487.88 412.55q1.46 1.5 2.05 2.99a.64.64 0 0 1-.9.8l-3.94-2.15q-23.99-15-50.26-23.94a.38.37-35 0 1 .13-.73c19.1.38 39.58 9.09 52.92 23.03"/><ellipse fill="#fdf0cd" rx="14.58" ry="6.27" transform="rotate(-6.9 3659.287 -5611.91)"/><path fill="#efcd8d" d="M450.53 419.17q-12.98 1.24-25 6.12a.33.32 30.8 0 0 .16.62q24.14-2.29 48.23-1.06-10.68 7.77-21.43 12.4-46.73 20.11-92.09-3.34-3.27-1.7-8.27-5.66 10.45-8.75 24.85-16.83 18.43-10.35 37.98-3.62 13.3 4.59 17.49 5.87 10.83 3.33 25.26 4.65.8.07-.06.13-3.56.24-7.12.72"/><path fill="#f3b19d" d="M552.58 412.42q-3.05 1.74-5.75 3.68-3.51 2.51-10.55 4.43-5.68 1.55-10.38-1.94-6.5-4.83-11.31-12.43 2.94-3.39 7.4-3.87c7.94-.87 27.88-.2 30.59 10.13m-32.02-6.016a5.24 3.1-170.6 0 0 4.664 3.914 5.24 3.1-170.6 0 0 5.676-2.202 5.24 3.1-170.6 0 0-4.664-3.914 5.24 3.1-170.6 0 0-5.676 2.202"/><ellipse rx="5.24" ry="3.1" transform="rotate(189.4 279.606 182.019)"/><path fill="#050303" d="M514.59 406.16q4.81 7.6 11.31 12.43 4.7 3.49 10.38 1.94 7.04-1.92 10.55-4.43 2.7-1.94 5.75-3.68 1.27 1.91-.49 4.7c-4.24 6.72-10.15 9.51-17.63 11.22a.89.89 0 0 0-.68.75c-.65 5.18-.81 8.97 2.04 13.47 5.78 9.14 18.91 13.9 28.15 6.39q2.6-2.11 5.04-5.24a1.69 1.43-48.9 0 1 2.32-.35q1.3 1.31.79 3.25-1.91 7.37-8.75 11.04-1.68.9-2.71 1.62a1.8 1.77 81.3 0 0-.71.98c-3.93 13.94-13.26 33.52-28.53 38.57-17.02 5.64-29.97-6.88-34.07-22.42q-3.28-12.41-3.76-25.6a1.54 1.53 22.7 0 0-.41-.99c-4.7-5.08-8.21-9.88-6.8-17.22a1.51 1.45-74.5 0 1 1.94-1.15q1.06.39 1.66 1.79 3.77 8.85 11.12 10.86c8.62 2.37 18.21-.64 22.46-8.52q.98-1.82 2-7.97a.78.77-70.1 0 0-.37-.8c-6.01-3.59-12.71-11.08-12.35-18.55q.04-.81.5-1.36.53-.63 1.25-.73m-2.72 48.36c.91 6.1 2.71 10.79 9.31 12.62 9.62 2.66 14.51.07 18.16-9.17a.58.58 0 0 0-.25-.72c-3.27-1.87-6.16-4.07-8.49-7.15q-2.04-2.7-2.93-3.68a.65.65 0 0 0-.93-.05q-5.94 5.39-14.27 7.26a.79.78 79.4 0 0-.6.89m30 24.66c-10.45-6.35-23.4-6.5-34.1-.75a1.05 1.05 0 0 0-.47 1.35q3.16 7.14 10.31 10.6c8.8 4.25 19.49-3.22 24.45-10.31a.63.62-57.3 0 0-.19-.89"/><path fill="#f4bc47" d="m369.15 492.82 7.24 18.66q3.4 9.31 11.32 12.76.36 1.1.97 2.04.55.86 1.68 1.42c17.76 8.81 36.39 8.53 55.14 3.04l-2.31 2.24q-2.67 1.92-5.91 5.06-28.14 27.27-42.27 63.16-10.77 27.35-13.03 58.56-2.63 36.27 11.35 69.27 5.13 12.1 9.43 18.08c6.36 8.88 11.7 16.56 19 23.36q1.52 2.28 2.92 2.88-21.4-2.08-42.14-8.69-11.97-3.82-26.07-12.67-21.57-13.54-34.24-33.31c-2.81-4.39-4.3-8.72-9.03-12.41l-1.01-4.94q1.42-5.82-.23-12.25-2-7.75-2-7.79-1.7-10-1.11-18.57l1.33-18.61q1.23-17.16 5.29-33.67 1.67-6.77 3.52-14.18.25-1.01 1.08-2.93a.52.52 0 0 0-.56-.72q-4.99.78-10.12-1.09l2.95-11.72 9.16-1.68a.56.56 0 0 1 .66.61l-1.49 13.05a.7.69-5.5 0 0 .9.74q1.1-.35 3.63-2.09c11.15-7.67 1.43-18.08-4.82-24.62q-14.55-15.22-27.55-27.68c-3.5-3.35-5.87-6.69-8.54-9.52q-2.51-2.66-6.05-7.54-3.77-5.19-6.27-8.98c-1.91-2.88-4.72-5.43-7.28-7.96Q252.86 481.14 243 455q-4.74-12.57-7.93-24.18 13.95 4.67 25.37.42 10.14-3.77 15.54-10.26 3.58-4.31 7.36-8.49 14.12 14.52 28.96 28.46 27.4 25.73 54.94 51.3 1.01.94 1.91.57m-51.86 162.31c.04 2.73.15 5.6 2.04 7.55q1.82 1.87 4.06 1c2.87-1.12 2.77-6.25 2.73-8.69-.03-2.44-.09-7.56-2.99-8.6q-2.27-.8-4.03 1.13c-1.83 2-1.85 4.87-1.81 7.61m7.413 20.513a8.68 4.32-100.4 0 0-2.682 9.317 8.68 4.32-100.4 0 0 5.816 7.757 8.68 4.32-100.4 0 0 2.682-9.317 8.68 4.32-100.4 0 0-5.816-7.757m7.252 28.28a8.22 4.42-115.7 0 0-.418 9.324 8.22 4.42-115.7 0 0 7.548 5.49 8.22 4.42-115.7 0 0 .418-9.324 8.22 4.42-115.7 0 0-7.548-5.49"/><path fill="#050303" d="m478.41 420.69 8.1 2.87a.81.81 0 0 1-.29 1.58l-12.3-.29q-24.09-1.23-48.23 1.06a.33.32 30.8 0 1-.16-.62q12.02-4.88 25-6.12 14.51-1.41 27.88 1.52m103.45 9.48q-2.39.67-6.21 1.27a.87.87 0 0 1-1-.95q.06-.53.87-.99 2.01-1.14 4.23-2.61 26.76-11.29 55.03-2.93a.33.33 0 0 1-.1.65q-26.33-.12-52.82 5.56m8.36 9.48q22.5 4.6 40.28 18.94 1.23.76 1.86 1.82a.22.22 0 0 1-.27.32q-10.51-4.54-26.15-10.64-5.73-2.23-11.3-3.66-6.18-2.4-14.09-4.46-2.42-.63-4.13-1.76a.96.96 0 0 1 .61-1.76z"/><path fill="#efcd8d" d="M721.73 488.6q-11.99 4.33-24.73 5.07c-30.79 1.8-59.76-8.02-83.61-27.38q-4.21-3.41-9.7-9.61-4.37-4.93-9.05-10.25 5.57 1.43 11.3 3.66 15.64 6.1 26.15 10.64a.22.22 0 0 0 .27-.32q-.63-1.06-1.86-1.82c18.55-10.89 40.76-19.37 60.18-4.48q6.1 4.68 11.27 10.52 10.25 11.6 19.78 23.97"/><ellipse fill="#050303" rx="5.02" ry="1.03" transform="rotate(-83.5 517.368 -67.312)"/><path fill="#eb9936" d="M541.87 479.18a.63.62-57.3 0 1 .19.89c-4.96 7.09-15.65 14.56-24.45 10.31q-7.15-3.46-10.31-10.6a1.05 1.05 0 0 1 .47-1.35c10.7-5.75 23.65-5.6 34.1.75"/><path fill="#efcd8d" d="M792.28 484.02c-1.72 18.27-8.42 37.5-19.44 51.86-18.17 23.66-46.06 37.56-75.6 39.06-34.3 1.74-66.85-8.59-95.9-26.52q-10.96-6.76-20.76-14.33 12.3 4.62 24.23 9.02 15.16 5.58 24.62 7.85 13.76 3.29 25.85 4.51c38.85 3.92 79.3-6.18 107.98-33.71q4.76-4.56 15.46-17.32a1.69 1.34-76.7 0 0 .13-.19l12.07-20.99a.85.85 0 0 1 1.21-.29q.06.04.15 1.05m-349.09 48.96 2.31-2.24 16.23-11.37a11.71 10.77 2.4 0 0 1.55-1.31l3.12-3.19a.67.67 0 0 0-.83-1.03q-1.59 1-3.06.78-1.26-.2-2.1-.25-3.16-1.7-7.1-1.05c-20.31 3.37-40.47 6.06-61.06 3.2q-8.23-1.15-15.86-5.04l-7.24-18.66q-.23-.44-.07-.67 1.04-.02 1.43.24 6.27 4.15 11.98 6.39 26.89 10.52 55.52 12.01 7.58.4 8.09.45c4.5.49 8.81.01 12.67.56a1.91 1.82-20.7 0 1 .92.39l.25.19a.42.38 61.7 0 0 .17.06l17.7 2.74a.34.34 0 0 1 .07.66q-1.92.73-4.6 1.89c-5.06 2.21-9.31 5.76-14.6 7.72q-3.87 1.43-8.4 3.66a1.9.3-46 0 0-.77.58q-.46.42-1.31.43a1.1 1.06-60 0 0-.49.14z"/><path fill="#eb9936" d="M312.34 579.8q-4.99-7.65-18.03-25.85-14.91-20.8-29.62-49.82c2.56 2.53 5.37 5.08 7.28 7.96q2.5 3.79 6.27 8.98 3.54 4.88 6.05 7.54c2.67 2.83 5.04 6.17 8.54 9.52q13 12.46 27.55 27.68c6.25 6.54 15.97 16.95 4.82 24.62q-2.53 1.74-3.63 2.09a.7.69-5.5 0 1-.9-.74l1.49-13.05a.56.56 0 0 0-.66-.61z"/><path fill="#050303" d="M460.41 514.37q-3.19 1.76-7.56 3.19c-21 6.9-43.44 10.44-65.14 6.68q-7.92-3.45-11.32-12.76 7.63 3.89 15.86 5.04c20.59 2.86 40.75.17 61.06-3.2q3.94-.65 7.1 1.05"/><path fill="#eb9936" d="M445.5 530.74c-18.75 5.49-37.38 5.77-55.14-3.04q-1.13-.56-1.68-1.42-.61-.94-.97-2.04c21.7 3.76 44.14.22 65.14-6.68q4.37-1.43 7.56-3.19.84.05 2.1.25 1.47.22 3.06-.78a.67.67 0 0 1 .83 1.03l-3.12 3.19a11.71 10.77 2.4 0 1-1.55 1.31z"/><path fill="#efcd8d" d="M572.11 531.76q9.61 11.24 21.17 19.96 3.15 2.37 12.7 8.83 1.72 4.95 5.07 9.15l.71 2.18q-11.7-6.78-21.9-15.04-4.82-3.9-9.59-8.83-8.17-8.44-9.18-9.29c-2.52-2.12-3.88-4.75-6.5-7.55a.28.28 0 0 1 .24-.47z"/><path fill="#eb9936" d="m746.31 588.56-.71-.68a.37.36 20.5 0 0-.62.28q.09 1.79-.58 3.13a1.65 1.65 0 0 1-.95.81q-13.31 4.16-18.61 4.98-18.97 2.95-38.7.43-16.34-2.09-26.3-4.87-15.91-4.46-35.82-14.27c-2.97-1.47-5.43-3.31-8.39-4.23-2.45-.76-2.88-2.85-4.58-4.44q-3.35-4.2-5.07-9.15c8.69 4.74 15.81 9.15 25.9 13.1 19.07 7.48 38.46 12.04 58.51 12.16 18.59.12 36.26-3.63 52.95-11.1a.52.52 0 0 1 .72.39z"/><path fill="#f4bc47" d="M746.31 588.56q3.46 23.68 3.12 51.19-.45 35.34-9.54 67.28-3.61 2.71-4.62 4.51-8.66 15.33-20.22 26.49-14.73 14.21-35.93 23.87-8.46 3.84-21.01 6.6-11.99 2.63-21.69 4.21c-9.47 1.55-18.65 1.11-28.02 1.49q3.57-4.04 7.28-7.92 4.48-4.68 6.99-8.16 11.68-16.17 18.45-34.6.17-.48-.33-.93l1.38-1.15q.15.99 1.44.75c17.03-3.3 30.12-10.73 45.07-21.48 5.73-4.11 10.05-9.29 15.97-15.23 5.09-5.12 9.36-12.99 13.34-18.57 1.09-1.52 1.82-3.79 3.38-5.55a3.03 2.57 85.3 0 0 .4-.56q3.26-5.97 3.24-12.77 4.05-8.53 5.05-17.88a.29.24 39.3 0 0-.02-.1l-.16-.34a.54.53-42.5 0 0-.94-.04c-8.86 14.71-19.35 28.08-32.36 39.67q-15.26 13.61-32.51 23.84-2.8-8.43-6.89-15.34-8.15-13.81-24.05-17.05a1.38 1.36-14.7 0 1-.78-.45l-1.17-1.35q6.38-16.87 8.41-34.98 1.43-12.76-1.64-25.2a.74.74 0 0 0-1.44 0l-3.48 13.91q-7.07-17.25-10.89-24.61-3.73-7.18-10.38-16.23l-.71-2.18c1.7 1.59 2.13 3.68 4.58 4.44 2.96.92 5.42 2.76 8.39 4.23q19.91 9.81 35.82 14.27 9.96 2.78 26.3 4.87 19.73 2.52 38.7-.43 5.3-.82 18.61-4.98a1.65 1.65 0 0 0 .95-.81q.67-1.34.58-3.13a.37.36 20.5 0 1 .62-.28zm-15.78 68.835a9.11 4.58-83.7 0 0-5.552 8.552 9.11 4.58-83.7 0 0 3.552 9.558 9.11 4.58-83.7 0 0 5.552-8.552 9.11 4.58-83.7 0 0-3.552-9.558m-5.15 29.27a8.5 4.4-72.9 0 0-6.706 6.831 8.5 4.4-72.9 0 0 1.707 9.418 8.5 4.4-72.9 0 0 6.705-6.83 8.5 4.4-72.9 0 0-1.707-9.418m-9.977 27.38a8.09 4.33-58.2 0 0-7.943 4.593 8.09 4.33-58.2 0 0-.583 9.158 8.09 4.33-58.2 0 0 7.943-4.594 8.09 4.33-58.2 0 0 .583-9.158"/><path fill="#efcd8d" d="M312.19 701.33q-5.96-24.29-6.52-49.9-.66-30.84 3.72-59.91 5.13 1.87 10.12 1.09a.52.52 0 0 1 .56.72q-.83 1.92-1.08 2.93-1.85 7.41-3.52 14.18-4.06 16.51-5.29 33.67l-1.33 18.61q-.59 8.57 1.11 18.57 0 .04 2 7.79 1.65 6.43.23 12.25"/><path fill="#050303" d="M631.18 658.99c-1.76 3.85-3.56 7.57-5.98 11.06q-5.6 8.07-7.09 10.56-2.86 4.79-3.85 9.11a.9.9 0 0 0 1.43.91q4.27-3.33 9.37-6.06.9-.48 1.44-.54a.87.86-76.7 0 1 .82 1.33q-3.22 4.95-6.78 9.62c-1.47 1.94-3.76 6.04-1.61 8.01a1.27 1.25 62.3 0 0 1 .32q2.93-.36 4.82-1.55 4.55-2.86 9.88-6.38 1.3-.87 2.77-.9a.54.53 7.2 0 1 .53.68c-1.15 4.01-3.95 7.59-6.65 10.98a.47.47 0 0 0 .39.76q4.39-.17 9.06-1.94 12.06-4.58 23.34-11.78 17.25-10.23 32.51-23.84c13.01-11.59 23.5-24.96 32.36-39.67a.54.53-42.5 0 1 .94.04l.16.34a.29.24 39.3 0 1 .02.1q-1 9.35-5.05 17.88-3.36 7.41-6.54 11.93c-9.48 13.46-22.33 24.98-35.13 33.61q-17.49 11.8-37.96 19.35c-6.61 2.36-15.86 4.96-21.52-.68a1.75 1.74-20.4 0 0-1.08-.49c-2.08-.15-4.67.22-6.87-.75q-6.85-2.99-6.33-11.19a1.48 1.4 33.9 0 0-.18-.8q-.51-.94-1.57-1.52-4.79-8.19.96-17.92 3.08-5.2 7.86-11.67c2.46-3.34 3.62-7.48 4.98-11.71q6.96-21.64 11.4-43.47l3.48-13.91a.74.74 0 0 1 1.44 0q3.07 12.44 1.64 25.2-2.03 18.11-8.41 34.98m-305.06-4c.04 2.44.14 7.57-2.73 8.69q-2.24.87-4.06-1c-1.89-1.95-2-4.82-2.04-7.55-.04-2.74-.02-5.61 1.81-7.61q1.76-1.93 4.03-1.13c2.9 1.04 2.96 6.16 2.99 8.6"/><path fill="#eb9936" d="M642.17 721.44q.12-4.33 3.21-8.52 20.47-7.55 37.96-19.35c12.8-8.63 25.65-20.15 35.13-33.61q3.18-4.52 6.54-11.93.02 6.8-3.24 12.77a3.03 2.57 85.3 0 1-.4.56c-1.56 1.76-2.29 4.03-3.38 5.55-3.98 5.58-8.25 13.45-13.34 18.57-5.92 5.94-10.24 11.12-15.97 15.23-14.95 10.75-28.04 18.18-45.07 21.48q-1.29.24-1.44-.75"/><ellipse fill="#050303" rx="9.11" ry="4.58" transform="rotate(-83.7 736.803 -74.027)"/><path fill="#fdf0cd" d="M664.07 693.18q-11.28 7.2-23.34 11.78-4.67 1.77-9.06 1.94a.47.47 0 0 1-.39-.76c2.7-3.39 5.5-6.97 6.65-10.98a.54.53 7.2 0 0-.53-.68q-1.47.03-2.77.9-5.33 3.52-9.88 6.38-1.89 1.19-4.82 1.55a1.27 1.25 62.3 0 1-1-.32c-2.15-1.97.14-6.07 1.61-8.01q3.56-4.67 6.78-9.62a.87.86-76.7 0 0-.82-1.33q-.54.06-1.44.54-5.1 2.73-9.37 6.06a.9.9 0 0 1-1.43-.91q.99-4.32 3.85-9.11 1.49-2.49 7.09-10.56c2.42-3.49 4.22-7.21 5.98-11.06l1.17 1.35a1.38 1.36-14.7 0 0 .78.45q15.9 3.24 24.05 17.05 4.09 6.91 6.89 15.34"/><ellipse fill="#050303" rx="8.68" ry="4.32" transform="rotate(259.6 448.154 206.171)"/><ellipse fill="#050303" rx="8.5" ry="4.4" transform="rotate(-72.9 831.775 -141.956)"/><path fill="#efcd8d" d="M645.38 712.92q-3.09 4.19-3.21 8.52l-1.38 1.15q-7.68.55-10.29.21c-7.56-.98-19.45-4.22-22.08-12.7q-1.28-4.12-2.3-6.92-.83-2.26 1.71-5.69 1.06.58 1.57 1.52a1.48 1.4 33.9 0 1 .18.8q-.52 8.2 6.33 11.19c2.2.97 4.79.6 6.87.75a1.75 1.74-20.4 0 1 1.08.49c5.66 5.64 14.91 3.04 21.52.68"/><ellipse fill="#050303" rx="8.22" ry="4.42" transform="rotate(244.3 391.301 250.225)"/><path fill="#eb9936" d="M424.68 773.35q8.17 7.34 13.64 11.59 8.31 6.45 18.92 10.16-30.83 3.45-58.25-3.29-10.93-2.68-24.43-9.04-12.48-5.87-22.2-13.68-18.55-14.89-29.07-36.32-4.94-10.06-8.71-20.62-.69-1.94-1.38-5.88c4.73 3.69 6.22 8.02 9.03 12.41q12.67 19.77 34.24 33.31 14.1 8.85 26.07 12.67 20.74 6.61 42.14 8.69m315.21-66.32c-3.28 11.69-8.37 22.19-14.74 32.96q-5.82 9.84-13.47 17.94c-6.48 6.85-16.24 15.21-25 20.1q-19.89 11.08-38.73 14.9-24.87 5.03-51.18 2.81-7.15-.6-15.57-1.55 14.46-8.81 26.29-19.41.32-.34.91-.58c9.37-.38 18.55.06 28.02-1.49q9.7-1.58 21.69-4.21 12.55-2.76 21.01-6.6 21.2-9.66 35.93-23.87 11.56-11.16 20.22-26.49 1.01-1.8 4.62-4.51"/><ellipse fill="#050303" rx="8.09" ry="4.33" transform="rotate(-58.2 1003.189 -278.373)"/><path fill="#efcd8d" d="M607.49 774.78q-11.83 10.6-26.29 19.41-16.73-2.59-34.75-5.2-17.01-2.46-29.93-1.66c-9.31.58-20.44 2.23-32.4 4.15q-13.42 2.17-26.88 3.62-10.61-3.71-18.92-10.16-5.47-4.25-13.64-11.59-1.4-.6-2.92-2.88l2.2 1.79a2.01 1.96 66.8 0 0 1.04.43q22.87 2.19 45.05.31c12.91-1.1 26.96-4.01 39.64-5.03 19.22-1.53 36.09.96 56.21 3.89q18.78 2.74 38.6 2.22.84-.02 2.99.7m-196.46 41.47q-10.41-5.87-20.65-9.41-8.77-3.02-13.63-3.62-3.7-.45-5.67-2.23l8.06-3.58a1.79 1.77 42 0 1 1.31-.06q7.61 2.6 12.68 4.03 20.73 5.84 42.38 5.01a.35.34 29.8 0 1 .18.65q-12.77 6.74-24.66 9.21m264.96-16.04q.19 2.49-3.73 3.03-18 2.5-35.41 12.83-11.57-2.47-23.16-8.51a.4.4 0 0 1 .2-.75q28.5 1.02 55.62-8.78a1.52 1.48-43 0 1 1.06.02z"/><path fill="#fdf0cd" d="M675.99 800.21c6.99 2.53 14.94 6.58 18.95 12.65a1.46 1.44 30.7 0 1 .24.92q-.07 1.12-.95 2.01a1.51 1.43 44.3 0 1-2.06-.03q-6.16-5.97-13.9-8.27-.76-.22-1.31.17a.68.67-42.6 0 0-.05 1.07c3.99 3.29 7.51 6.12 9.95 10.01a.55.55 0 0 1-.23.79q-2.96 1.43-6.94 1.48a1.21 1.19 68.8 0 1-.93-.42q-.67-.78-3.82-3.38-6.04-4.98-12.85-6.3-1.08-.21-1.59.37a1.14 1.13-50.9 0 0 .16 1.65q7.2 5.45 9.36 7.44a.56.56 0 0 1-.3.97q-1.8.25-3.55.1-14.39-1.28-29.32-5.37 17.41-10.33 35.41-12.83 3.92-.54 3.73-3.03m-304.91.78q1.97 1.78 5.67 2.23 4.86.6 13.63 3.62 10.24 3.54 20.65 9.41-17.03 4.66-32.27 5.19a.44.44 0 0 1-.34-.74q3.65-3.95 9.26-7.5 1.02-.65 1.15-1.37a.99.98-1.2 0 0-1.18-1.13q-10.88 2.4-16.44 8.43a5.49 5.48 24.5 0 1-4.67 1.74l-3.54-.4a1.79 1.79 0 0 1-.98-3.12l9.21-8.16a.9.87-13.7 0 0 .26-.41q.63-1.94-1.51-1.29-7.18 2.18-13.98 8.13a1.52 1.5 68.6 0 1-2.49-1.11c-.08-2.45 4.62-6.31 6.27-7.48q5.39-3.81 11.3-6.04"/></svg>