<svg xmlns="http://www.w3.org/2000/svg" viewBox="0 0 1024 1024"><g fill="none" stroke-width="2"><path stroke="gray" d="M477.21 225.31q-21.29 4.12-42.38 12.95a.9.9 0 0 1-1.15-.42q-4.02-7.92-9.67-14.79c-14.84-18.05-38.27-24.15-59.4-15.11-22.27 9.52-35.81 32.2-35.07 56.4q.79 25.74 20.02 42.95a.74.74 0 0 1 .1 1c-10.58 14.34-20.99 30.06-29.38 45.26a1.31 1.3 9.3 0 1-.91.65c-67.66 11.82-97.15 87.33-82.26 148.42 3.21 13.21 9.65 27.13 17.76 37.51q3.98 5.08 6.79 8.61a1.34 1.34 0 0 1 .25 1.14q-9.21 38.63-9.9 77.61-.66 36.72 8.8 71.42c.77 2.83 2.28 6.84 3.76 10.42a.89.88-19.1 0 1-.58 1.19c-21.71 5.96-44.7 14.27-63.1 24.62-13.36 7.52-29.97 21.74-25.31 39.13q2.31 8.59 9.15 15.27c9.76 9.53 22.98 16.43 35.14 21.34q23.04 9.3 49.63 15.85c61.44 15.14 125.05 20.95 188.41 23.5q91.8 3.71 181.84-4.83 45.43-4.3 85.46-12.02c26.57-5.12 56.26-12.59 81.86-23.53 12.63-5.4 26.8-13.03 35.57-23.76 13.42-16.39 5.54-33.51-9.57-44.43q-12.95-9.36-29.87-16.37-17.12-7.11-37.18-13.2a.9.9 0 0 1-.58-1.17c17.23-45.92 16.27-94.98 7.22-143.37q-2.95-15.77-3.62-18.32a.99.98-32.2 0 1 .21-.91c12.72-14.48 21.61-30.51 25.64-49.38 6.95-32.44 1.41-68.07-15.61-96.73-15.2-25.6-39.85-44.18-69.57-48.26a2.11 2.06 76 0 1-1.44-.89q-2.03-2.99-5.64-8.71-12.38-19.67-24.51-36.04a.68.68 0 0 1 .04-.87q2.97-3.26 4.31-4.7c21.65-23.35 20.89-59.84-1.18-82.6-21.15-21.81-55.15-22.7-76.3.38q-6.61 7.21-11.74 17.27a.6.6 0 0 1-.76.28q-20.77-8.63-41.49-12.85a4.63 4.62-10.1 0 1-3.01-2.1q-6.69-10.9-10.56-16.72c-5.74-8.61-12.87-9.67-18.91-.38a.5.49 37.9 0 1-.76.09c-4.64-4.26-12.67-8.03-19.27-7.98-6.2.04-8.85 4.36-8.04 10.13a.38.38 0 0 1-.5.41q-1.35-.47-8.23-.28-4.81.14-7 3.11c-3.25 4.4-.95 9.92 2.66 13.2a.36.35 60.9 0 1-.17.61" vector-effect="non-scaling-stroke"/><path stroke="#7c6025" d="M506.27 217.46c1.12 3.07 2.69 7.27 1.04 9.63a.58.58 0 0 1-.75.19l-4.96-2.57" vector-effect="non-scaling-stroke"/><path stroke="#7a6845" d="M501.6 224.71q-6.8-5.14-14.97-6.33a.45.45 0 0 0-.39.75l6.08 6.37" vector-effect="non-scaling-stroke"/><path stroke="#7c6025" d="M492.32 225.5q3.27 5.19-.58 8.64" vector-effect="non-scaling-stroke"/><path stroke="#7a6845" d="M491.74 234.14q-1.69 1.12-5.08 1.64-40.48 6.12-76.03 29.12-6.09 3.94-22.55 15.7-2.56 1.83-6.52 3.1" vector-effect="non-scaling-stroke"/><path stroke="#7b5a50" d="M381.56 283.7q-.76-1.03-.3-1.91c4.17-7.95 10.25-13.44 18.19-20.79a.92.92 0 0 0 .23-1c-3.75-9.66-10.75-22.89-22.33-24.46q-5.56-.76-10.72 2.75" vector-effect="non-scaling-stroke"/><path stroke="#784e1b" d="M366.63 238.29q-1.14-.19-1.47-.91a.63.61 40.6 0 1-.04-.43c1.37-4.94 8.31-7.76 13.02-8.16" vector-effect="non-scaling-stroke"/><path stroke="#7c6025" d="M378.14 228.79c13.92.14 24.85 12.79 29.89 24.52a.58.57 62.3 0 0 .84.27l10.56-6.7" vector-effect="non-scaling-stroke"/><path stroke="#7a6845" d="m419.43 246.88 3.59-1.77a.74.73-25.7 0 0 .34-.96c-5.76-12.81-16.94-24.27-30.49-27.49-15.1-3.59-31.08 3.71-40.48 15.8" vector-effect="non-scaling-stroke"/><path stroke="#784e1b" d="M352.39 232.46q-11.77 15.16-10.4 34.26c.9 12.52 6.92 24.65 16.76 32.57a.67.67 0 0 0 .9-.06q5.4-5.59 12.17-9.46" vector-effect="non-scaling-stroke"/><path stroke="#7b5a50" d="M371.82 289.77q1.02.03 1.79 1.24" vector-effect="non-scaling-stroke"/><path stroke="#7a6845" d="m373.61 291.01.01 1.25a2.74 2.63-37.1 0 1-.15.94c-2.1 5.93-6.88 12.44-10.49 17.29q-16.03 21.56-28.82 43.05a.33.33 0 0 0 .26.49l10.59.96" vector-effect="non-scaling-stroke"/><path stroke="#784e1b" d="M345.01 354.99q14.52 1.64 27.9 7.72" vector-effect="non-scaling-stroke"/><path stroke="#7c6025" d="m372.91 362.71 3.88 2.93a.83.83 0 0 1-.27 1.46q-2.04.58-4.5.22-10.01-1.47-19.93-2.52" vector-effect="non-scaling-stroke"/><path stroke="#7a6845" d="M352.09 364.8c-28.76-3.2-59.43 5.9-78.55 28.26" vector-effect="non-scaling-stroke"/><path stroke="#807a68" d="M273.54 393.06c-21.47 24.56-30.19 57.93-27.27 90.22" vector-effect="non-scaling-stroke"/><path stroke="#7a6845" d="M246.27 483.28q2.28 23.02 14.01 42.95c11.88 20.17 31.6 34.59 53.4 42.66 24.78 9.18 52.77 9.37 78.79 3.34 15.52-3.59 31.82-9.46 45.96-16.81q5.45-2.84 21.94-11.83" vector-effect="non-scaling-stroke"/><path stroke="#807a68" d="M460.37 543.59c2.46-1.22 6.51-2.87 9.45-1.64" vector-effect="non-scaling-stroke"/><path stroke="#7a6845" d="M469.82 541.95q-19.34 17.27-42.43 28.14-6.43 3.02-13.05 5.95" vector-effect="non-scaling-stroke"/><path stroke="#784e1b" d="M414.34 576.04q-31.79 11.83-65.88 11.38" vector-effect="non-scaling-stroke"/><path stroke="#7c6025" d="M348.46 587.42c-27.86-1.52-54.13-10.71-75.79-28.54a.35.35 0 0 0-.57.21l-3.61 18.76" vector-effect="non-scaling-stroke"/><path stroke="#7a6845" d="M268.49 577.85q-9.18 51.46-.24 102.07" vector-effect="non-scaling-stroke"/><path stroke="#784e1b" d="M268.25 679.92c1.66 8.85 3.53 14.48 6.72 23.96 9.81 29.19 28.89 52.53 55.37 67.93 15.03 8.74 33.68 15.08 50.4 18.19q26.91 5.01 55.04 3.06 1.26-.08 16.66-1.4 6.45-.56 15.57-1.98 7.84-1.23 15.54-2.46" vector-effect="non-scaling-stroke"/><path stroke="#807a68" d="M483.55 787.22q8 2.83 15.51 5.42 5.14 1.78 20.96 4.33c5.6.91 13.69 1.71 18.8-1.08a.82.81 35.8 0 0-.25-1.52c-4.48-.79-10.91-2.9-13.87-6.49a.67.67 0 0 1 .38-1.08q1.29-.26 2.42-.17 3.23.23 12.73 1 3.69.31 7.12-1.13a1.57 1.56 60.3 0 0 .65-2.38q-1.36-1.81-4.72-3.38-.77-.35-12.28-5.18-1.66-.69-2.26-1.78a.74.73-20.7 0 1 .49-1.08q7.44-1.59 14.74-.05a.51.51 0 0 0 .45-.87c-3.95-3.6-9.29-6.21-14.62-7.98-8.81-2.93-16.41-5.41-26.29-9.31q-6.33-2.49-12.34-4.47" vector-effect="non-scaling-stroke"/><path stroke="#7c6025" d="M491.17 750.02c-15.64-7.24-29.53-16.5-43.4-26.21" vector-effect="non-scaling-stroke"/><path stroke="#7d6636" d="M447.77 723.81q-15.76-11.32-33.04-19.78-13.75-6.73-28.9-8.01a.41.41 0 0 1-.06-.8l10.83-2.49" vector-effect="non-scaling-stroke"/><path stroke="#807a68" d="M396.6 692.73q13.83-.59 25.84 4.83 13.37 6.04 25.55 14.34" vector-effect="non-scaling-stroke"/><path stroke="#7a6845" d="M447.99 711.9c14.9 10.03 29.53 21.25 45.97 27.98a.28.27 14.5 0 0 .38-.22q.95-8.03 8.75-9.92a1.07 1.07 0 0 0 .68-.54l.87-1.67" vector-effect="non-scaling-stroke"/><path stroke="#807a68" d="M504.64 727.53q3.24-4.4 9.01-5.4 5.75-1.01 12.11.43 8.79 1.97 16.57 3.86" vector-effect="non-scaling-stroke"/><path stroke="#7a6845" d="m542.33 726.42 15.34 3.68a1.46 1.45-50.3 0 0 .95-.09c8.53-3.89 19.3-10.65 26.32-15.56" vector-effect="non-scaling-stroke"/><path stroke="#807a68" d="M584.94 714.45q9.06-5.61 18.69-11.33 14.39-8.56 31.11-11.9" vector-effect="non-scaling-stroke"/><path stroke="#7d6636" d="M634.74 691.22q2.25-.02 5.01-.21 8.07-.57 15.21 2.62a.38.38 0 0 1-.12.72q-17.15 1.37-32.31 9.69-17.11 9.38-22.07 12.57" vector-effect="non-scaling-stroke"/><path stroke="#7c6025" d="M600.46 716.61q-13.34 8.9-22.07 14.29-9.39 5.79-19.73 9.61" vector-effect="non-scaling-stroke"/><path stroke="#807a68" d="M558.66 740.51q-15.28-3.88-29.36-8.01c-5.04-1.48-10.82-2.67-15.49-.96a.48.47-42.1 0 0-.05.87q5.75 2.74 10.43 6.48 1.05.84 1.56 1.57a.82.82 0 0 1-.83 1.27q-7.61-1.47-14.65-3.01-3.11-.68-6.26.24a1.57 1.57 0 0 0-1.08 1.87c.65 2.65 5.47 5.18 8.38 6.37q6.73 2.73 21.14 7.6c8.29 2.79 24.58 9.75 21.71 21.33-.29 1.2.21 1.99 1.13 2.67" vector-effect="non-scaling-stroke"/><path stroke="#784e1b" d="m555.29 778.8 2.04 4.73a1.46 1.45-4.2 0 0 .96.82q27.77 7.15 56.21 7.69c26.31.49 52.33-3.99 76.51-15.54q25.37-12.12 43.67-34.71 4.76-5.88 10.3-15.68c7.09-12.52 9.25-19.32 15.03-35.07q2.04-5.57 3.56-18.65" vector-effect="non-scaling-stroke"/><path stroke="#7c6025" d="M763.57 672.39c5.53-30.92 4.06-62.64-.97-93.52" vector-effect="non-scaling-stroke"/><path stroke="#784e1b" d="m762.6 578.87-3.58-19.45a.47.47 0 0 0-.75-.28q-21.61 17.34-48.07 23.79c-13.3 3.23-26.48 4.85-40.2 4.14q-28.48-1.47-54.92-11.34" vector-effect="non-scaling-stroke"/><path stroke="#7a6845" d="M615.08 575.73q-28.04-10.7-51.84-30.71-2.16-1.82-2.17-3.24" vector-effect="non-scaling-stroke"/><path stroke="#807a68" d="M561.07 541.78q5.25-.15 9.53 2.7" vector-effect="non-scaling-stroke"/><path stroke="#7a6845" d="M570.6 544.48q15.48 8.55 24.12 12.8c28.84 14.21 61.55 21.37 93.83 18.16 15.24-1.51 29.72-6 42.65-12.73 30.51-15.87 50.36-44.64 53.82-79.23" vector-effect="non-scaling-stroke"/><path stroke="#807a68" d="M785.02 483.48q2.9-35.16-11.35-65.9-5.1-10.98-14.84-22.59" vector-effect="non-scaling-stroke"/><path stroke="#7a6845" d="M758.83 394.99Q740.37 372.3 710 366q-19.12-3.97-38.53-.87" vector-effect="non-scaling-stroke"/><path stroke="#7c6025" d="M671.47 365.13q-6.22.75-13.47 1.88-2.96.46-5.2-.17a1.04 1.04 0 0 1-.46-1.74q1.11-1.13 3.44-2.29 10.88-5.4 23.05-7.48" vector-effect="non-scaling-stroke"/><path stroke="#784e1b" d="m678.83 355.33 14.58-1.5a.33.33 0 0 0 .26-.49q-3.17-5.75-6.8-11.24-13.76-20.83-25.03-36.15-2.65-3.6-5.09-7.22" vector-effect="non-scaling-stroke"/><path stroke="#7c6025" d="M656.75 298.73q-2.52-3.56-3.36-7.37" vector-effect="non-scaling-stroke"/><path stroke="#7b5a50" d="M653.39 291.36q.63-2.5 2.71-1.72" vector-effect="non-scaling-stroke"/><path stroke="#784e1b" d="M656.1 289.64q6.24 3.59 11.52 9.01a.9.9 0 0 0 1.2.09q7.44-5.76 11.77-14.43 10.95-21.92-.09-44.17" vector-effect="non-scaling-stroke"/><path stroke="#7a6845" d="M680.5 240.14c-7.66-15.27-22.83-25.49-39.89-24.59-16.09.84-30.05 13.46-36.88 28.03a1 .99 26.7 0 0 .44 1.3l3.2 1.69" vector-effect="non-scaling-stroke"/><path stroke="#7c6025" d="m607.37 246.57 10.64 6.38a.46.46 0 0 0 .65-.19c6.02-12.57 15.86-24.47 31.08-24.33" vector-effect="non-scaling-stroke"/><path stroke="#784e1b" d="M649.74 228.43q8.48.92 12.52 7.59.51.84.19 1.27-.32.44-1.24.63" vector-effect="non-scaling-stroke"/><path stroke="#7b5a50" d="M661.21 237.92c-15.6-10.36-29.34 9.01-33.81 21.39a1.66 1.65-59.1 0 0 .44 1.78q7.08 6.43 13.14 12.93 3.74 4.01 5.24 9.09" vector-effect="non-scaling-stroke"/><path stroke="#7d6636" d="M646.22 283.11q-6.68-2.23-12.54-6.79-30.06-23.42-67.43-35.08-3.33-1.05-13.43-3.5c-6.49-1.58-10.28-3.94-13.96-8.94q-5.83-7.93-10.5-17.89a.7.7 0 0 0-1.31.12l-1.22 4.74" vector-effect="non-scaling-stroke"/><path stroke="#7c6025" d="M525.83 215.77q-.37 3.51-.97 7.76a1.87 1.87 0 0 1-2.06 1.59q-.67-.07-1.65-1.03-3.48-3.41-7.07-6.61" vector-effect="non-scaling-stroke"/><path stroke="#7a6845" d="M514.08 217.48q-4.65-4.93-11.11-8.27a.49.49 0 0 0-.66.67l3.96 7.58" vector-effect="non-scaling-stroke"/><path stroke="#f2c568" d="m514.08 217.48-7.81-.02" vector-effect="non-scaling-stroke"/><path stroke="#f3b773" d="m647.31 285.68 6.08 5.68" vector-effect="non-scaling-stroke"/><path stroke="#f1ab3e" d="M656.75 298.73c-2.53 6.65-5.59 12.87-6.79 19.8q-2.25 12.98-1.6 26.28c.44 9.16 4.27 14.94 14.33 12.96q7.99-1.57 16.14-2.44" vector-effect="non-scaling-stroke"/><path stroke="#f2c568" d="M671.47 365.13q5.28 1.8 11.18.77a4.25 4.17 42.7 0 1 1.29-.04q1.46.16 2.93.29 1.91.18 15.09 3.12 9.3 2.07 14.67 4.5c7.19 3.25 12.86 6.07 19.38 10.81q3.81 2.78 7.6 5.56 8.28 6.1 15.52 14.74" vector-effect="non-scaling-stroke"/><path stroke="#f9d78b" d="M759.13 404.88q.25 13.93-3.09 26.15c-5.33 19.52-18.48 35.61-35.49 46.28" vector-effect="non-scaling-stroke"/><path stroke="#f6c359" d="M720.55 477.31q-12.62-12.16-25.91-23.2c-20.13-16.74-43.53-23.9-68.6-13.13q-11.12 4.77-22.74 13.28" vector-effect="non-scaling-stroke"/><path stroke="#7c6025" d="M603.3 454.26q-16.22-5.61-32.43-5.6" vector-effect="non-scaling-stroke"/><path stroke="#f9d78b" d="M570.87 448.66q.21-.99-2.37-2.45a2.74 2.67 83.9 0 1-.75-.62l-4-4.78" vector-effect="non-scaling-stroke"/><path stroke="#7c6025" d="M563.75 440.81q26.1-10.84 53.6-15.02a.58.58 0 0 0-.03-1.16q-27.84-2.79-51.03 10.45-1.74 1-4.13 2.68" vector-effect="non-scaling-stroke"/><path stroke="#f9d78b" d="M562.16 437.76q-4.74-3.59-8.07-9.17a4.16 3.84-84.4 0 0-.59-.78q-.39-.41-3.46-3.77-17.88-19.67-44.78-15.56c-14.82 2.26-27.21 13.72-35.23 25.53q-.63.93-3.84 3.75" vector-effect="non-scaling-stroke"/><path stroke="#7c6025" d="M466.19 437.76q-24.55-15.5-53.95-13.13-.97.08-1.68.5a.51.51 0 0 0 .18.94q27.17 4.42 53.29 14.7" vector-effect="non-scaling-stroke"/><path stroke="#f9d78b" d="m464.03 440.77-5.55 8.27" vector-effect="non-scaling-stroke"/><path stroke="#7c6025" d="M458.48 449.04q-14.89-.32-30.15 4.51" vector-effect="non-scaling-stroke"/><path stroke="#f6c359" d="M428.33 453.55c-18.48-15.02-37.82-28.77-63.2-24.99q-19.93 2.96-35.41 16.7c-9.45 8.38-17.9 18.53-26.2 28.06" vector-effect="non-scaling-stroke"/><path stroke="#f9d78b" d="M303.52 473.32c-16.17-12.32-26.94-28.52-30.4-48.76-.27-1.63.02-3.84-.74-5.12a1.64 1.53 29 0 1-.22-.68l-.78-11.04" vector-effect="non-scaling-stroke"/><path stroke="#f2c568" d="M271.38 407.72q1.88-4.91 5.82-8.78c15.98-15.69 35.29-27.61 57.42-30.78a6.15 5.85-57.7 0 0 1.31-.33q5.81-2.12 11.75-1.56a2.26 2.23 36.4 0 0 1.04-.15l3.37-1.32" vector-effect="non-scaling-stroke"/><path stroke="#f1ab3e" d="M372.91 362.71c5.03-18.44 7.43-36.02 4.51-54.91" vector-effect="non-scaling-stroke"/><path stroke="#f2c568" d="M377.42 307.8c7.47-9.53 15.56-18.41 24.64-26.32 4.47-3.89 9.53-8.76 14.5-12.72q3.19-2.54 8.86-5.94.14-.09 14.14-8.74c3-1.85 8.18-4.41 12.57-5.93q10-3.46 17.13-6.55 3.64-1.58 15.26-2.86a5.71 5.43-54.6 0 0 .87-.17c1.84-.51 6.94-1.56 7.26-3.74q.07-.53-.91-.69m.58-8.64 9.28-.79" vector-effect="non-scaling-stroke"/><path stroke="#efb25e" d="M377.42 307.8q-7.75 9.02-9.96 12.91-5.1 8.99-10.99 17.49-2.78 4.03-6.45 11.3-1.87 3.73-5.01 5.49" vector-effect="non-scaling-stroke"/><path stroke="#f1be93" d="m373.61 291.01 7.95-7.31" vector-effect="non-scaling-stroke"/><path stroke="#f7dfab" d="m758.83 394.99.3 9.89m-487.75 2.84q-.82-3.86-.16-7.73.19-1.1 1.51-3.28 1.1-1.81.81-3.65" vector-effect="non-scaling-stroke"/><path stroke="#fadd9c" d="M303.52 473.32q24.09 17.67 53.98 19.59 11.5.73 20.97 0 15.79-1.23 31.22-7.37 25.22-10.02 43.67-30.82" vector-effect="non-scaling-stroke"/><path stroke="#807a68" d="M453.36 454.72q5.47-1.18 12.52-2.01 1.3-.16 1.77-.8a1.02 1.02 0 0 0-.52-1.57q-3.97-1.25-8.65-1.3m5.55-8.27 5.39 1.71a.52.52 0 0 0 .53-.85l-3.76-3.87m95.97 0-4.01 3.88a.46.46 0 0 0 .46.77l5.14-1.6m7.12 7.85-9.42 1.08a1 1 0 0 0-.07 1.98l13.91 2.6" vector-effect="non-scaling-stroke"/><path stroke="#fadd9c" d="M575.29 454.32q-.36 1.18 1.46 2.93 7.57 7.31 16.8 14.11c8.11 5.98 17.93 10.91 26.96 14.34 20.51 7.79 42.24 9.24 63.99 5.84q18.12-2.82 36.05-14.23" vector-effect="non-scaling-stroke"/><path stroke="#f7dfab" d="M785.02 483.48c-3.6 1.51-5.04 4.71-6.33 8.28q-1.63 4.5-2.23 5.69-3.79 7.54-7.74 11.75-3.27 3.48-12.11 12.91-3.68 3.92-8.59 7.41c-9.67 6.87-20.83 14.41-32.23 18.9q-25.68 10.11-48.04 11.33-35.48 1.92-71.2-8.58-17.56-5.16-21.57-6.26-2.31-.63-4.38-.43m-9.53-2.7-11.56-2.02a.5.49 73.9 0 0-.45.82c3.85 4.29 9.24 10.39 15.21 14.69 2.71 1.94 5.73 5.35 9.21 7.66 5.54 3.68 11.22 6.97 16.7 10.41 4.67 2.93 9.43 4.83 13.97 7.69q.63.4 2.17.84 1.47.42 2.01 1.18" vector-effect="non-scaling-stroke"/><path stroke="#f9d78b" d="m608.33 583.05-14.27 13.33" vector-effect="non-scaling-stroke"/><path stroke="#807a68" d="M594.06 596.38q-31.88 12.36-64.95 22.11-4.29 1.27-6.94 3.4-3.47 2.8-3.6 7.71a1.94 1.88-30.1 0 1-.26.92q-.77 1.31-2.86 2.86a.74.74 0 0 1-.87.01q-2.2-1.54-2.96-2.85a1.88 1.81 31.4 0 1-.25-.96c.24-7.05-7.14-10.3-12.98-11.96q-17.73-5.05-37.41-12.15l-26.01-9.38" vector-effect="non-scaling-stroke"/><path stroke="#f9d78b" d="M434.97 596.09q-2.26-4.6-6.98-7.16a1.81 1.58 75.5 0 1-.32-.22l-6.81-6.21" vector-effect="non-scaling-stroke"/><path stroke="#f7dfab" d="M420.86 582.5q3.66-1.51 6.7-3.28c4.59-2.68 8.72-4.02 13.12-6.93q5.71-3.78 12.81-8.03 2.4-1.44 14.44-11.44c4.53-3.77 8.23-7.94 11.47-12.11a.52.51-72 0 0-.42-.83q-5.44.11-9.16 2.07m-9.45 1.64q-4.09.28-7.93 1.99a5.35 4.72-59.9 0 1-.96.32q-6.37 1.47-14.47 4.12-6.14 2.01-14.18 3.96-18.63 4.52-37.25 5.89-23.27 1.71-46.46-3.7-29.57-6.89-54.39-25.03-6.7-4.9-11.81-10.13c-7.84-8.04-13.26-13.69-18.17-22.26q-4.3-7.49-7.15-12.8a2.76 2.62 28.8 0 1-.31-.97q-.4-3.19-1.02-1.7" vector-effect="non-scaling-stroke"/><path stroke="#7d6636" d="M575.29 454.32q23.65 3.18 45.62 9.47a.45.45 0 0 0 .36-.82q-9.01-5.5-17.97-8.71" vector-effect="non-scaling-stroke"/><path stroke="#f5bc84" d="m646.22 283.11 1.09 2.57" vector-effect="non-scaling-stroke"/><path stroke="#f6c359" d="M647.31 285.68q-6.57-3.74-13.55-6.63-2.15-.89-11.4-8.04-1.59-1.23-10.77-7.28c-3.53-2.32-6.84-3.69-11.03-5.57q-1.3-.59-8.19-4.29-10.78-5.8-18.25-8.02-17.16-5.12-24.37-7.16-8.89-2.53-14.56-10.14-4.72-6.33-9.36-12.78" vector-effect="non-scaling-stroke"/><path stroke="#7d6636" d="M428.33 453.55q-11.22 3.59-21.28 9.73-.42.26-.48.59a.38.37-2.9 0 0 .48.43q22.32-6.52 46.31-9.58" vector-effect="non-scaling-stroke"/><path stroke="#f1ab3e" d="M348.46 587.42q-5.35 1.35-7.56 1.25c-19.52-.84-35.96-7.33-54.23-16.51q-1.32-.67-4.41-1.18a.79.78 12.4 0 0-.88.56l-3.29 12.08a.87.86 21.2 0 0 .44.99c34.28 18.1 74.69 19.66 111.16 7.26q6.68-2.27 19.07-7.9c1.93-.87 4.18-1.59 6.19-2.53q2.06-.95 2.18-2.84" vector-effect="non-scaling-stroke"/><path stroke="#7c6025" d="m434.97 596.09-2.51-.24a.52.51-.9 0 0-.56.57q.06.53.54 1.39" vector-effect="non-scaling-stroke"/><path stroke="#f6c359" d="M432.44 597.81q-4.72 22.11-15.41 42.32c-5.73 10.81-14.51 13.97-26.33 14.51" vector-effect="non-scaling-stroke"/><path stroke="#7c6025" d="m390.7 654.64-6.64-2.63a.63.63 0 0 0-.77.91c3.3 5.41 9.02 9.52 14.54 12.46" vector-effect="non-scaling-stroke"/><path stroke="#f6c359" d="M397.83 665.38q-8.8 5.29-18.64 7.42c-14.72 3.19-29 5.46-38.56 18.6-7.28 9.99-9.38 23.44-5.78 35.07 4.26 13.72 15.72 21.5 29.66 22.91q22.29 2.25 38.83-11.45c8.51-7.05 16.09-20.42 28.18-19.05q6.79.78 16.25 4.93" vector-effect="non-scaling-stroke"/><path stroke="#f9d78b" d="M491.17 750.02q-6.26 2.12-10.34 6.32-8.88 9.13-5.44 21.53 1.3 4.69 6.45 8.01" vector-effect="non-scaling-stroke"/><path stroke="#f1ab3e" d="m481.84 785.88-3.33-1.84a1.33 1.29 55 0 0-.78-.15q-22.06 2.81-44.17 1.98-7.15-.26-17.31-1.53-14.01-1.75-17.22-2.36c-38.69-7.42-74.49-25.2-100.14-55.08q-9.36-10.91-11.43-14.1-4.97-7.67-12.28-20.42c-1.74-3.04-3.54-7.56-5.92-11.11" vector-effect="non-scaling-stroke"/><path stroke="#f2c568" d="M269.26 681.27q.65-4.47.06-6.95-3.86-16.18-2.23-32.82 1.17-12.02 1.47-15.75c.45-5.58 1.52-12.98 2.54-16.93q3.32-12.96 6.43-24.25a.78.77 20.5 0 0-.42-.91q-4.54-2.14-8.62-5.81" vector-effect="non-scaling-stroke"/><path stroke="#f1ab3e" d="M763.57 672.39q-.87 5.24-3.83 8.45a2.77 2.59-12.8 0 0-.48.71c-2.44 5.3-3.57 8.35-5.8 11.91q-3.2 5.13-7.89 13.46c-2.87 5.08-7.61 9.8-10.33 13.57q-2.96 4.11-8.31 9.76-13.66 14.42-30.64 24.98" vector-effect="non-scaling-stroke"/><path stroke="#f6c359" d="M696.29 755.23c7.93-8.51 14.03-16.76 16.85-28.16q2.23-8.97 2-21.7" vector-effect="non-scaling-stroke"/><path stroke="#7c6025" d="M715.14 705.37c4.32-.98 9.85-8.33 8.83-12.62-.8-3.36-4.18-2.89-6.47-1.19q-6.11 4.54-5.94 12.11" vector-effect="non-scaling-stroke"/><path stroke="#f6c359" d="M711.56 703.67q-4.34-6.7-9.4-13.68c-10.61-14.63-23.55-22.12-41.29-25.37q-14.3-2.63-20.97-3.56" vector-effect="non-scaling-stroke"/><path stroke="#7c6025" d="M639.9 661.06q4.68-3.39 7.7-7.99a.75.74 5.3 0 0-.91-1.09l-9.09 3.75" vector-effect="non-scaling-stroke"/><path stroke="#f6c359" d="M637.6 655.73c-10.34-1.45-17.86-4.71-23.28-13.99q-5.47-9.37-10.67-18.92-3.37-6.19-13.14-19.61" vector-effect="non-scaling-stroke"/><path stroke="#7c6025" d="m590.51 603.21 7.35-5.87a.67.67 0 0 0-.46-1.19l-3.34.23" vector-effect="non-scaling-stroke"/><path stroke="#efb25e" d="m615.08 575.73-3.53 4.07" vector-effect="non-scaling-stroke"/><path stroke="#f2c568" d="m611.55 579.8-3.22 3.25m-187.47-.55-3.73-3.9" vector-effect="non-scaling-stroke"/><path stroke="#efb25e" d="M417.13 578.6q-1.89-1.07-2.79-2.56" vector-effect="non-scaling-stroke"/><path stroke="#7d6636" d="M590.51 603.21q-11.5 8.32-24.93 13.31-3.95 1.47-7.77 2.94" vector-effect="non-scaling-stroke"/><path stroke="gray" d="M557.81 619.46q-10.82 2.77-21.58 5.4-4.93 1.21-8.13 3.96a.61.6 27.7 0 0 .33 1.06q6.81.71 12.43 2.83a1.09 1.08-38.3 0 1-.25 2.09l-15.91 1.98a1.41 1.4 19.7 0 0-.75.35l-1.71 1.59a1.07 1.07 0 0 0 .22 1.73c5.6 3.03 12.26 3.73 18.09 5.28a.96.96 0 0 1 .12 1.82c-4.27 1.76-9.18 1.37-13.68 1.43a.53.53 0 0 0-.45.79c1.93 3.44 6.54 5.52 9.91 6.62q4.71 1.54 22.22 3.56" vector-effect="non-scaling-stroke"/><path stroke="#7d6636" d="M558.67 659.95q13.77 2.27 25.02 3.16 27.29 2.17 53.91-7.38m2.3 5.33-8.65 5.24" vector-effect="non-scaling-stroke"/><path stroke="#7a6845" d="M631.25 666.3q-15.18 6.86-33.26 7.48-20.13.7-38.58-3.57-13.55-3.14-27.02-6.58-7.42-1.88-12.05-7.24" vector-effect="non-scaling-stroke"/><path stroke="#807a68" d="M520.34 656.39q-2.53-3.52-2.67-6.13-.18-3.43-1.97-4.62a.69.69 0 0 0-.88.09c-1.62 1.65-2.27 1.83-2.46 4.49q-.26 3.7-2.59 6.71" vector-effect="non-scaling-stroke"/><path stroke="#7a6845" d="M509.77 656.93q-4.78 5.01-12.03 6.8c-22.75 5.6-40.72 10.45-62.23 10.34q-19.49-.1-36.45-8.03" vector-effect="non-scaling-stroke"/><path stroke="#7d6636" d="m399.06 666.04-1.23-.66m-7.13-10.74q7.03 3.05 14.31 4.9 24.45 6.22 49.52 2.88 8.55-1.13 16.4-2.28" vector-effect="non-scaling-stroke"/><path stroke="gray" d="M470.93 660.14c8.41-1.05 17.61-1.81 25.07-4.88q3.87-1.59 6.57-4.8a.82.81-68.9 0 0-.59-1.34c-3.89-.14-9.58.29-13.07-1.62a.82.81-47.7 0 1-.06-1.4c1.71-1.16 7.98-2.08 14.21-3.48q2.73-.61 4.56-2.19a1.28 1.28 0 0 0-.04-1.97q-2.01-1.61-4.12-1.91-5.13-.73-12.51-1.19-1.29-.08-2.4-.69a1.01 1 48.9 0 1 .12-1.82q6.26-2.38 13.01-2.83a.74.74 0 0 0 .38-1.35q-4.24-3-10.07-4.32-9.54-2.15-19.07-4.82" vector-effect="non-scaling-stroke"/><path stroke="#7d6636" d="M472.92 619.53q-22.36-6.99-40.48-21.72" vector-effect="non-scaling-stroke"/><path stroke="#f0a469" d="M656.1 289.64q3.64-4.34 4.31-5.73.81-1.71 2.36-4.61 1.49-2.8 2.12-4.72 3.42-10.32 1.47-22.16-1.4-8.47-5.15-14.5m-294.58.37q-2.48 3.17-3.34 5.88-2.87 9.03-2.53 19.32.27 7.89 3.21 14.01 2.7 5.62 7.85 12.27" vector-effect="non-scaling-stroke"/><path stroke="#fae3b4" d="M472.92 619.53q-3.14 2.25-5.14 6.98-4.82 11.4-2.13 22.55 1.05 4.35 5.28 11.08" vector-effect="non-scaling-stroke"/><path stroke="#f5c581" d="m481.84 785.88 1.71 1.34" vector-effect="non-scaling-stroke"/><path stroke="#efb25e" d="M269.26 681.27q-.49-1.05-1.01-1.35" vector-effect="non-scaling-stroke"/><path stroke="#f1ab3e" d="m762.6 578.87-.31-.8a.78.78 0 0 0-1.46.01q-.62 1.72-2.4 2.86-13.4 8.61-28.43 12.86-37.07 10.47-74.46 2.13-16.18-3.61-31.2-10.34-1.09-.49-6.62-2.42-3.57-1.25-6.17-3.37" vector-effect="non-scaling-stroke"/><path stroke="#7d6636" d="M711.56 703.67q1.93 2.02 3.58 1.7" vector-effect="non-scaling-stroke"/><path stroke="#f2b04f" d="M696.29 755.23q-10.51 6.96-22.31 11.49" vector-effect="non-scaling-stroke"/><path stroke="#f6c359" d="M673.98 766.72c-18.63-1.24-36.42-4.9-50.24-18.17q-4.5-4.31-12.17-15.55-5.56-8.14-11.11-16.39" vector-effect="non-scaling-stroke"/><path stroke="#f5c581" d="M555.29 778.8q2.76.37 4.96-1.07" vector-effect="non-scaling-stroke"/><path stroke="#f1ab3e" d="M560.25 777.73q18.76 3.97 32.5 4.07 7.42.06 21.9-.87 13.04-.84 21.76-2.53 19.33-3.75 37.57-11.68" vector-effect="non-scaling-stroke"/><path stroke="#fae3b4" d="M558.67 659.95q6.88-7.44 7.02-19.2.13-11.93-7.88-21.29" vector-effect="non-scaling-stroke"/><path stroke="#f7dfab" d="M520.34 656.39q-.94 2.36.82 4.7 3.23 4.28 5.94 6.31c11.38 8.54 24.34 12.94 38.68 14.76q16.16 2.06 28.2 1.37 7.79-.45 17.35-3.19 10.61-3.04 20.48-6.87.36-.13 1.03-.03" vector-effect="non-scaling-stroke"/><path stroke="#fadd9c" d="m632.84 673.44 1.9 17.78" vector-effect="non-scaling-stroke"/><path stroke="#f7dfab" d="M584.94 714.45q-7.83 1.75-14.76 6.01-2.51 1.53-11.42 3.68a11.8 11.56-51.9 0 1-2.49.33q-6.93.18-13.94 1.95m-37.69 1.11q-5.14-.36-10.27-.4-7.49-.07-10.25-.6-9.59-1.86-18.47-6.23-3.22-1.58-5.16-3.27-5.42-4.75-12.5-5.13" vector-effect="non-scaling-stroke"/><path stroke="#fadd9c" d="m396.6 692.73 1.19-19.23" vector-effect="non-scaling-stroke"/><path stroke="#f7dfab" d="m397.79 673.5.29-.82a.57.56-67.6 0 1 .77-.33c12.67 6 25.37 10.46 39.4 10.95q18.8.66 36.59-3.2 10.7-2.33 18.08-6.26 8.78-4.68 15.46-11.33 1.45-1.45 1.96-2.66.9-2.12-.57-2.92" vector-effect="non-scaling-stroke"/><path stroke="#f4ca79" d="m631.25 666.3 1.59 7.14m-235.05.06 1.27-7.46" vector-effect="non-scaling-stroke"/><path stroke="#efb25e" d="m680.5 240.14-2.05-.34a1.33 1.3 74 0 1-.77-.44q-2.53-3.02-3.9-5.04c-2.77-4.08-5.76-7-9.38-8.74q-6.63-3.18-15.11-3.21" vector-effect="non-scaling-stroke"/><path stroke="#f2c568" d="M649.29 222.37q-12.68.88-23.65 6.65-5.23 2.75-9.89 7.63-4.49 4.69-8.38 9.92" vector-effect="non-scaling-stroke"/><path stroke="#f1ab3e" d="M649.29 222.37q-.6 3.22.45 6.06" vector-effect="non-scaling-stroke"/><path stroke="#f2c568" d="M419.43 246.88q-5.99-8.12-8.09-10.47c-7.19-8-20.07-12.4-30.61-13.36q-5.4-.5-11.76.91" vector-effect="non-scaling-stroke"/><path stroke="#efb25e" d="M368.97 223.96q-6.33.7-9.49 4.26-2.76 3.11-5.72 4.8-.93.53-1.37-.56" vector-effect="non-scaling-stroke"/><path stroke="#f1ab3e" d="M378.14 228.79q-4.12-3.34-9.17-4.83" vector-effect="non-scaling-stroke"/><path stroke="#f9d78b" d="M560.25 777.73q2.33-2.12 4.29-4.4 9.63-11.19 2.52-24.35-3.02-5.57-8.4-8.47" vector-effect="non-scaling-stroke"/><path stroke="#50654c" d="M738 756.06q-12.63 13.93-28.85 23.58c-13.96 8.3-28.72 14.19-45.14 18.13-36.18 8.69-74.98 6.13-110.47-3.76a1.6 1.59 37.5 0 0-1.23.16l-2.25 1.3a1.6 1.6 0 0 0-.75 1.03c-2.59 12.01-19.76 10.38-28.54 9.55q-11.37-1.07-21.84-4-9.56-2.69-14.68-4.05a5.97 5.93-42.1 0 0-2.55-.12q-14.08 2.45-26.62 4.2c-54.4 7.62-117.59-.85-158.34-41.57q-3.12-3.11-5.83-5.95" vector-effect="non-scaling-stroke"/><path stroke="#61765b" d="M290.91 754.56q-13.79-15.72-21.81-34.37a.42.42 0 0 0-.48-.24q-12.93 3.26-24.39 7.21c-16.27 5.59-29.84 10.76-42.89 19.4-13.33 8.83-24.34 22.3-9.01 36.63 10.94 10.23 25.57 16.93 39.82 22 37.4 13.32 77.16 20.99 116.64 26.19 13.77 1.81 33.38 4.28 50.42 5.53q57.9 4.24 106.54 4.53 60.67.35 128.45-5.43c17.18-1.47 37.1-4.09 52.1-6.19q39.01-5.47 75.28-14.97c16.56-4.33 96.26-26.93 74.54-56.68q-2.62-3.58-3.89-4.66-11.6-9.83-25.8-16.17-21.87-9.76-45.08-15.91a.61.6-70.5 0 0-.7.34q-8.32 18.64-22.65 34.29" vector-effect="non-scaling-stroke"/><path stroke="#aed8a5" d="M290.91 754.56q-3.24.19-6 1.38c-6.41 2.77-17.71 9.3-19.61 15.54-4.11 13.53 23.69 23.46 34.05 26.43q21.65 6.23 42.67 10.03c6.82 1.23 20.79 2.3 31.14 4.13q8.76 1.54 10.59 1.68c17.81 1.29 34.15 3.2 50.72 4.05q47.65 2.44 98.78 2.12c20.88-.13 38.69-1.45 59.99-2.26 11.72-.44 27.66-2.27 41-2.98q11.58-.61 24.16-2.73c11.21-1.88 18.91-2.99 31.07-4.76q7.26-1.06 32.32-7.67c11.75-3.09 23.51-7.06 33.13-14.06q3.78-2.75 5.53-5.48c6.14-9.61-6.07-17.05-12.91-20.51q-4.29-2.17-9.54-3.41" vector-effect="non-scaling-stroke"/><path stroke="#f2c568" d="M477.048 250.83a7.95 5.99-23.9 0 0-9.695-2.256 7.95 5.99-23.9 0 0-4.841 8.697 7.95 5.99-23.9 0 0 9.695 2.255 7.95 5.99-23.9 0 0 4.841-8.697m-23.722 11.081a15.42 8.98-32.7 0 0-17.827.773 15.42 8.98-32.7 0 0-8.125 15.887 15.42 8.98-32.7 0 0 17.827-.773 15.42 8.98-32.7 0 0 8.125-15.888" vector-effect="non-scaling-stroke"/><path stroke="#7c6025" d="M568.435 312.38a10.44 7.11-43 0 0-12.484 1.92 10.44 7.11-43 0 0-2.786 12.32 10.44 7.11-43 0 0 12.484-1.92 10.44 7.11-43 0 0 2.786-12.32m-109.118.621a10.44 6.95-138.2 0 0 3.15 12.14 10.44 6.95-138.2 0 0 12.416 1.778 10.44 6.95-138.2 0 0-3.15-12.14A10.44 6.95-138.2 0 0 459.316 313m157.724 77.07q.45-1.06-.07-2.76c-2.61-8.66-13.81-13.12-22.32-12.96q-20.26.38-32.27 15.17c-3.04 3.72-6.21 9.74-5.35 14.29.44 2.37 2.77 3.25 4.55 1.38q3.92-4.09 6.71-6.63c12.49-11.33 30.59-15.3 46.19-7.56a1.88 1.87-65 0 0 2.56-.93m-208.38.6a1.89 1.89 0 0 0 2.58.93c15.67-7.87 33.92-3.95 46.55 7.4q2.82 2.54 6.78 6.65c1.8 1.87 4.15.97 4.58-1.42.84-4.58-2.38-10.63-5.45-14.36q-12.17-14.84-32.57-15.13c-8.57-.12-19.83 4.42-22.42 13.15q-.51 1.72-.05 2.78" vector-effect="non-scaling-stroke"/><path stroke="#f9d78b" d="M692.84 385.124a15.07 6.74-15.1 0 0-16.306-2.581 15.07 6.74-15.1 0 0-12.794 10.433 15.07 6.74-15.1 0 0 16.306 2.581 15.07 6.74-15.1 0 0 12.794-10.433m-356.7.273a15.13 6.63-164.5 0 0 12.808 10.432 15.13 6.63-164.5 0 0 16.352-2.346 15.13 6.63-164.5 0 0-12.808-10.432 15.13 6.63-164.5 0 0-16.352 2.346" vector-effect="non-scaling-stroke"/><path stroke="#807a68" d="M494.86 428.44q-1.31-.21-1.46.81-.33 2.29.97 4.93c3.16 6.43 8.49 10.12 14.94 13.13a.93.92-77.4 0 1 .54.86l-.23 8.51a2.69 2.64-31 0 1-.29 1.12q-4.67 8.99-13.03 11.31c-8.69 2.41-13.98-2.46-19.57-8.06a1.41 1.41 0 0 0-2.4 1.04c.17 5.34 3.45 10.21 8.06 13.08 10.58 6.58 24.58 2.98 31.59-7.46a.42.42 0 0 1 .69-.02c7 9.3 18.76 13.86 29.24 8.9 5.38-2.54 9.2-7.04 10.36-12.82q.29-1.46-.16-2.43a1.4 1.4 0 0 0-2.26-.39q-2.69 2.72-4.51 4.36c-9.27 8.39-21.17 4.19-27.07-5.55-1.96-3.24-1.61-7.81-1.56-11.5a.94.93-13.9 0 1 .49-.8c6.5-3.38 11.05-5.83 14.73-12.5.97-1.73 2.63-5.99.13-7.14" vector-effect="non-scaling-stroke"/><path stroke="#f8d1b5" d="M534.06 427.82q.3-.79-.48-1.64c-6.04-6.55-19.91-6.12-27.83-4.61-3.14.6-11.12 3.33-10.89 6.87" vector-effect="non-scaling-stroke"/><path stroke="#7b5a50" d="M534.06 427.82q-2.35 2.13-4.58 4.41-2.07 2.12-9.18 6.32-4.75 2.8-9.54.91-5.32-2.1-11.05-6.94-2.4-2.03-4.85-4.08" vector-effect="non-scaling-stroke"/><path stroke="#f7dfab" d="M532.22 484.96c-4.31.58-9.23 3.08-13.26 3.64-7.21 1.01-11.76-.12-18.27-1.95a1.16 1.16 0 0 0-1.46.93c-.43 2.59 3.18 5.53 5.17 6.44q11.93 5.42 22.93-1.12 4.32-2.56 5.69-7a.73.73 0 0 0-.8-.94" vector-effect="non-scaling-stroke"/><path stroke="#f8d7cd" d="M510.96 427.095a5.04 2.98-3.7 0 0-5.222-2.649 5.04 2.98-3.7 0 0-4.837 3.3 5.04 2.98-3.7 0 0 5.221 2.648 5.04 2.98-3.7 0 0 4.837-3.3" vector-effect="non-scaling-stroke"/><path stroke="#7c6025" d="M287.573 632.862a9.52 4.59-99.9 0 0-2.885 10.167 9.52 4.59-99.9 0 0 6.159 8.59 9.52 4.59-99.9 0 0 2.885-10.168 9.52 4.59-99.9 0 0-6.159-8.59" vector-effect="non-scaling-stroke"/><path stroke="#7c6025" d="M295.549 663.294a9.03 4.52-110.9 0 0-1.002 10.048 9.03 4.52-110.9 0 0 7.444 6.824 9.03 4.52-110.9 0 0 1.002-10.049 9.03 4.52-110.9 0 0-7.444-6.823" vector-effect="non-scaling-stroke"/><path stroke="#7c6025" d="M307.99 691.37a8.6 4.52-124 0 0 1.063 9.658 8.6 4.52-124 0 0 8.556 4.602 8.6 4.52-124 0 0-1.062-9.658 8.6 4.52-124 0 0-8.556-4.602m435.314-59.123a9.48 4.64-78.9 0 0-6.378 8.41 9.48 4.64-78.9 0 0 2.728 10.196 9.48 4.64-78.9 0 0 6.378-8.41 9.48 4.64-78.9 0 0-2.728-10.196m-8.381 30.382a9.05 4.64-69.4 0 0-7.527 6.838 9.05 4.64-69.4 0 0 1.159 10.104 9.05 4.64-69.4 0 0 7.527-6.839 9.05 4.64-69.4 0 0-1.159-10.103" vector-effect="non-scaling-stroke"/></g><path fill="#fdfdfd" d="M1024 0v1024H0V0zM477.21 225.31q-21.29 4.12-42.38 12.95a.9.9 0 0 1-1.15-.42q-4.02-7.92-9.67-14.79c-14.84-18.05-38.27-24.15-59.4-15.11-22.27 9.52-35.81 32.2-35.07 56.4q.79 25.74 20.02 42.95a.74.74 0 0 1 .1 1c-10.58 14.34-20.99 30.06-29.38 45.26a1.31 1.3 9.3 0 1-.91.65c-67.66 11.82-97.15 87.33-82.26 148.42 3.21 13.21 9.65 27.13 17.76 37.51q3.98 5.08 6.79 8.61a1.34 1.34 0 0 1 .25 1.14q-9.21 38.63-9.9 77.61-.66 36.72 8.8 71.42c.77 2.83 2.28 6.84 3.76 10.42a.89.88-19.1 0 1-.58 1.19c-21.71 5.96-44.7 14.27-63.1 24.62-13.36 7.52-29.97 21.74-25.31 39.13q2.31 8.59 9.15 15.27c9.76 9.53 22.98 16.43 35.14 21.34q23.04 9.3 49.63 15.85c61.44 15.14 125.05 20.95 188.41 23.5q91.8 3.71 181.84-4.83 45.43-4.3 85.46-12.02c26.57-5.12 56.26-12.59 81.86-23.53 12.63-5.4 26.8-13.03 35.57-23.76 13.42-16.39 5.54-33.51-9.57-44.43q-12.95-9.36-29.87-16.37-17.12-7.11-37.18-13.2a.9.9 0 0 1-.58-1.17c17.23-45.92 16.27-94.98 7.22-143.37q-2.95-15.77-3.62-18.32a.99.98-32.2 0 1 .21-.91c12.72-14.48 21.61-30.51 25.64-49.38 6.95-32.44 1.41-68.07-15.61-96.73-15.2-25.6-39.85-44.18-69.57-48.26a2.11 2.06 76 0 1-1.44-.89q-2.03-2.99-5.64-8.71-12.38-19.67-24.51-36.04a.68.68 0 0 1 .04-.87q2.97-3.26 4.31-4.7c21.65-23.35 20.89-59.84-1.18-82.6-21.15-21.81-55.15-22.7-76.3.38q-6.61 7.21-11.74 17.27a.6.6 0 0 1-.76.28q-20.77-8.63-41.49-12.85a4.63 4.62-10.1 0 1-3.01-2.1q-6.69-10.9-10.56-16.72c-5.74-8.61-12.87-9.67-18.91-.38a.5.49 37.9 0 1-.76.09c-4.64-4.26-12.67-8.03-19.27-7.98-6.2.04-8.85 4.36-8.04 10.13a.38.38 0 0 1-.5.41q-1.35-.47-8.23-.28-4.81.14-7 3.11c-3.25 4.4-.95 9.92 2.66 13.2a.36.35 60.9 0 1-.17.61"/><path fill="#030302" d="M477.38 224.7c-3.61-3.28-5.91-8.8-2.66-13.2q2.19-2.97 7-3.11 6.88-.19 8.23.28a.38.38 0 0 0 .5-.41c-.81-5.77 1.84-10.09 8.04-10.13 6.6-.05 14.63 3.72 19.27 7.98a.5.49 37.9 0 0 .76-.09c6.04-9.29 13.17-8.23 18.91.38q3.87 5.82 10.56 16.72a4.63 4.62-10.1 0 0 3.01 2.1q20.72 4.22 41.49 12.85a.6.6 0 0 0 .76-.28q5.13-10.06 11.74-17.27c21.15-23.08 55.15-22.19 76.3-.38 22.07 22.76 22.83 59.25 1.18 82.6q-1.34 1.44-4.31 4.7a.68.68 0 0 0-.04.87q12.13 16.37 24.51 36.04 3.61 5.72 5.64 8.71a2.11 2.06 76 0 0 1.44.89c29.72 4.08 54.37 22.66 69.57 48.26 17.02 28.66 22.56 64.29 15.61 96.73-4.03 18.87-12.92 34.9-25.64 49.38a.99.98-32.2 0 0-.21.91q.67 2.55 3.62 18.32c9.05 48.39 10.01 97.45-7.22 143.37a.9.9 0 0 0 .58 1.17q20.06 6.09 37.18 13.2 16.92 7.01 29.87 16.37c15.11 10.92 22.99 28.04 9.57 44.43-8.77 10.73-22.94 18.36-35.57 23.76-25.6 10.94-55.29 18.41-81.86 23.53q-40.03 7.72-85.46 12.02-90.04 8.54-181.84 4.83c-63.36-2.55-126.97-8.36-188.41-23.5q-26.59-6.55-49.63-15.85c-12.16-4.91-25.38-11.81-35.14-21.34q-6.84-6.68-9.15-15.27c-4.66-17.39 11.95-31.61 25.31-39.13 18.4-10.35 41.39-18.66 63.1-24.62a.89.88-19.1 0 0 .58-1.19c-1.48-3.58-2.99-7.59-3.76-10.42q-9.46-34.7-8.8-71.42.69-38.98 9.9-77.61a1.34 1.34 0 0 0-.25-1.14q-2.81-3.53-6.79-8.61c-8.11-10.38-14.55-24.3-17.76-37.51-14.89-61.09 14.6-136.6 82.26-148.42a1.31 1.3 9.3 0 0 .91-.65c8.39-15.2 18.8-30.92 29.38-45.26a.74.74 0 0 0-.1-1q-19.23-17.21-20.02-42.95c-.74-24.2 12.8-46.88 35.07-56.4 21.13-9.04 44.56-2.94 59.4 15.11q5.65 6.87 9.67 14.79a.9.9 0 0 0 1.15.42q21.09-8.83 42.38-12.95a.36.35 60.9 0 0 .17-.61m28.89-7.24c1.12 3.07 2.69 7.27 1.04 9.63a.58.58 0 0 1-.75.19l-4.96-2.57q-6.8-5.14-14.97-6.33a.45.45 0 0 0-.39.75l6.08 6.37q3.27 5.19-.58 8.64-1.69 1.12-5.08 1.64-40.48 6.12-76.03 29.12-6.09 3.94-22.55 15.7-2.56 1.83-6.52 3.1-.76-1.03-.3-1.91c4.17-7.95 10.25-13.44 18.19-20.79a.92.92 0 0 0 .23-1c-3.75-9.66-10.75-22.89-22.33-24.46q-5.56-.76-10.72 2.75-1.14-.19-1.47-.91a.63.61 40.6 0 1-.04-.43c1.37-4.94 8.31-7.76 13.02-8.16 13.92.14 24.85 12.79 29.89 24.52a.58.57 62.3 0 0 .84.27l10.56-6.7 3.59-1.77a.74.73-25.7 0 0 .34-.96c-5.76-12.81-16.94-24.27-30.49-27.49-15.1-3.59-31.08 3.71-40.48 15.8q-11.77 15.16-10.4 34.26c.9 12.52 6.92 24.65 16.76 32.57a.67.67 0 0 0 .9-.06q5.4-5.59 12.17-9.46 1.02.03 1.79 1.24l.01 1.25a2.74 2.63-37.1 0 1-.15.94c-2.1 5.93-6.88 12.44-10.49 17.29q-16.03 21.56-28.82 43.05a.33.33 0 0 0 .26.49l10.59.96q14.52 1.64 27.9 7.72l3.88 2.93a.83.83 0 0 1-.27 1.46q-2.04.58-4.5.22-10.01-1.47-19.93-2.52c-28.76-3.2-59.43 5.9-78.55 28.26-21.47 24.56-30.19 57.93-27.27 90.22q2.28 23.02 14.01 42.95c11.88 20.17 31.6 34.59 53.4 42.66 24.78 9.18 52.77 9.37 78.79 3.34 15.52-3.59 31.82-9.46 45.96-16.81q5.45-2.84 21.94-11.83c2.46-1.22 6.51-2.87 9.45-1.64q-19.34 17.27-42.43 28.14-6.43 3.02-13.05 5.95-31.79 11.83-65.88 11.38c-27.86-1.52-54.13-10.71-75.79-28.54a.35.35 0 0 0-.57.21l-3.61 18.76q-9.18 51.46-.24 102.07c1.66 8.85 3.53 14.48 6.72 23.96 9.81 29.19 28.89 52.53 55.37 67.93 15.03 8.74 33.68 15.08 50.4 18.19q26.91 5.01 55.04 3.06 1.26-.08 16.66-1.4 6.45-.56 15.57-1.98 7.84-1.23 15.54-2.46 8 2.83 15.51 5.42 5.14 1.78 20.96 4.33c5.6.91 13.69 1.71 18.8-1.08a.82.81 35.8 0 0-.25-1.52c-4.48-.79-10.91-2.9-13.87-6.49a.67.67 0 0 1 .38-1.08q1.29-.26 2.42-.17 3.23.23 12.73 1 3.69.31 7.12-1.13a1.57 1.56 60.3 0 0 .65-2.38q-1.36-1.81-4.72-3.38-.77-.35-12.28-5.18-1.66-.69-2.26-1.78a.74.73-20.7 0 1 .49-1.08q7.44-1.59 14.74-.05a.51.51 0 0 0 .45-.87c-3.95-3.6-9.29-6.21-14.62-7.98-8.81-2.93-16.41-5.41-26.29-9.31q-6.33-2.49-12.34-4.47c-15.64-7.24-29.53-16.5-43.4-26.21q-15.76-11.32-33.04-19.78-13.75-6.73-28.9-8.01a.41.41 0 0 1-.06-.8l10.83-2.49q13.83-.59 25.84 4.83 13.37 6.04 25.55 14.34c14.9 10.03 29.53 21.25 45.97 27.98a.28.27 14.5 0 0 .38-.22q.95-8.03 8.75-9.92a1.07 1.07 0 0 0 .68-.54l.87-1.67q3.24-4.4 9.01-5.4 5.75-1.01 12.11.43 8.79 1.97 16.57 3.86l15.34 3.68a1.46 1.45-50.3 0 0 .95-.09c8.53-3.89 19.3-10.65 26.32-15.56q9.06-5.61 18.69-11.33 14.39-8.56 31.11-11.9 2.25-.02 5.01-.21 8.07-.57 15.21 2.62a.38.38 0 0 1-.12.72q-17.15 1.37-32.31 9.69-17.11 9.38-22.07 12.57-13.34 8.9-22.07 14.29-9.39 5.79-19.73 9.61-15.28-3.88-29.36-8.01c-5.04-1.48-10.82-2.67-15.49-.96a.48.47-42.1 0 0-.05.87q5.75 2.74 10.43 6.48 1.05.84 1.56 1.57a.82.82 0 0 1-.83 1.27q-7.61-1.47-14.65-3.01-3.11-.68-6.26.24a1.57 1.57 0 0 0-1.08 1.87c.65 2.65 5.47 5.18 8.38 6.37q6.73 2.73 21.14 7.6c8.29 2.79 24.58 9.75 21.71 21.33-.29 1.2.21 1.99 1.13 2.67l2.04 4.73a1.46 1.45-4.2 0 0 .96.82q27.77 7.15 56.21 7.69c26.31.49 52.33-3.99 76.51-15.54q25.37-12.12 43.67-34.71 4.76-5.88 10.3-15.68c7.09-12.52 9.25-19.32 15.03-35.07q2.04-5.57 3.56-18.65c5.53-30.92 4.06-62.64-.97-93.52l-3.58-19.45a.47.47 0 0 0-.75-.28q-21.61 17.34-48.07 23.79c-13.3 3.23-26.48 4.85-40.2 4.14q-28.48-1.47-54.92-11.34-28.04-10.7-51.84-30.71-2.16-1.82-2.17-3.24 5.25-.15 9.53 2.7 15.48 8.55 24.12 12.8c28.84 14.21 61.55 21.37 93.83 18.16 15.24-1.51 29.72-6 42.65-12.73 30.51-15.87 50.36-44.64 53.82-79.23q2.9-35.16-11.35-65.9-5.1-10.98-14.84-22.59Q740.37 372.3 710 366q-19.12-3.97-38.53-.87-6.22.75-13.47 1.88-2.96.46-5.2-.17a1.04 1.04 0 0 1-.46-1.74q1.11-1.13 3.44-2.29 10.88-5.4 23.05-7.48l14.58-1.5a.33.33 0 0 0 .26-.49q-3.17-5.75-6.8-11.24-13.76-20.83-25.03-36.15-2.65-3.6-5.09-7.22-2.52-3.56-3.36-7.37.63-2.5 2.71-1.72 6.24 3.59 11.52 9.01a.9.9 0 0 0 1.2.09q7.44-5.76 11.77-14.43 10.95-21.92-.09-44.17c-7.66-15.27-22.83-25.49-39.89-24.59-16.09.84-30.05 13.46-36.88 28.03a1 .99 26.7 0 0 .44 1.3l3.2 1.69 10.64 6.38a.46.46 0 0 0 .65-.19c6.02-12.57 15.86-24.47 31.08-24.33q8.48.92 12.52 7.59.51.84.19 1.27-.32.44-1.24.63c-15.6-10.36-29.34 9.01-33.81 21.39a1.66 1.65-59.1 0 0 .44 1.78q7.08 6.43 13.14 12.93 3.74 4.01 5.24 9.09-6.68-2.23-12.54-6.79-30.06-23.42-67.43-35.08-3.33-1.05-13.43-3.5c-6.49-1.58-10.28-3.94-13.96-8.94q-5.83-7.93-10.5-17.89a.7.7 0 0 0-1.31.12l-1.22 4.74q-.37 3.51-.97 7.76a1.87 1.87 0 0 1-2.06 1.59q-.67-.07-1.65-1.03-3.48-3.41-7.07-6.61-4.65-4.93-11.11-8.27a.49.49 0 0 0-.66.67zM738 756.06q-12.63 13.93-28.85 23.58c-13.96 8.3-28.72 14.19-45.14 18.13-36.18 8.69-74.98 6.13-110.47-3.76a1.6 1.59 37.5 0 0-1.23.16l-2.25 1.3a1.6 1.6 0 0 0-.75 1.03c-2.59 12.01-19.76 10.38-28.54 9.55q-11.37-1.07-21.84-4-9.56-2.69-14.68-4.05a5.97 5.93-42.1 0 0-2.55-.12q-14.08 2.45-26.62 4.2c-54.4 7.62-117.59-.85-158.34-41.57q-3.12-3.11-5.83-5.95-13.79-15.72-21.81-34.37a.42.42 0 0 0-.48-.24q-12.93 3.26-24.39 7.21c-16.27 5.59-29.84 10.76-42.89 19.4-13.33 8.83-24.34 22.3-9.01 36.63 10.94 10.23 25.57 16.93 39.82 22 37.4 13.32 77.16 20.99 116.64 26.19 13.77 1.81 33.38 4.28 50.42 5.53q57.9 4.24 106.54 4.53 60.67.35 128.45-5.43c17.18-1.47 37.1-4.09 52.1-6.19q39.01-5.47 75.28-14.97c16.56-4.33 96.26-26.93 74.54-56.68q-2.62-3.58-3.89-4.66-11.6-9.83-25.8-16.17-21.87-9.76-45.08-15.91a.61.6-70.5 0 0-.7.34q-8.32 18.64-22.65 34.29"/><path fill="#f0cc88" d="m514.08 217.48-7.81-.02-3.96-7.58a.49.49 0 0 1 .66-.67q6.46 3.34 11.11 8.27"/><path fill="#f7c86a" d="m646.22 283.11 1.09 2.57q-6.57-3.74-13.55-6.63-2.15-.89-11.4-8.04-1.59-1.23-10.77-7.28c-3.53-2.32-6.84-3.69-11.03-5.57q-1.3-.59-8.19-4.29-10.78-5.8-18.25-8.02-17.16-5.12-24.37-7.16-8.89-2.53-14.56-10.14-4.72-6.33-9.36-12.78l1.22-4.74a.7.7 0 0 1 1.31-.12q4.67 9.96 10.5 17.89c3.68 5 7.47 7.36 13.96 8.94q10.1 2.45 13.43 3.5 37.37 11.66 67.43 35.08 5.86 4.56 12.54 6.79"/><path fill="#f0cc88" d="m680.5 240.14-2.05-.34a1.33 1.3 74 0 1-.77-.44q-2.53-3.02-3.9-5.04c-2.77-4.08-5.76-7-9.38-8.74q-6.63-3.18-15.11-3.21-12.68.88-23.65 6.65-5.23 2.75-9.89 7.63-4.49 4.69-8.38 9.92l-3.2-1.69a1 .99 26.7 0 1-.44-1.3c6.83-14.57 20.79-27.19 36.88-28.03 17.06-.9 32.23 9.32 39.89 24.59m-261.07 6.74q-5.99-8.12-8.09-10.47c-7.19-8-20.07-12.4-30.61-13.36q-5.4-.5-11.76.91-6.33.7-9.49 4.26-2.76 3.11-5.72 4.8-.93.53-1.37-.56c9.4-12.09 25.38-19.39 40.48-15.8 13.55 3.22 24.73 14.68 30.49 27.49a.74.73-25.7 0 1-.34.96z"/><path fill="#f4bd48" d="m647.31 285.68 6.08 5.68q.84 3.81 3.36 7.37c-2.53 6.65-5.59 12.87-6.79 19.8q-2.25 12.98-1.6 26.28c.44 9.16 4.27 14.94 14.33 12.96q7.99-1.57 16.14-2.44-12.17 2.08-23.05 7.48-2.33 1.16-3.44 2.29a1.04 1.04 0 0 0 .46 1.74q2.24.63 5.2.17 7.25-1.13 13.47-1.88 5.28 1.8 11.18.77a4.25 4.17 42.7 0 1 1.29-.04q1.46.16 2.93.29 1.91.18 15.09 3.12 9.3 2.07 14.67 4.5c7.19 3.25 12.86 6.07 19.38 10.81q3.81 2.78 7.6 5.56 8.28 6.1 15.52 14.74.25 13.93-3.09 26.15c-5.33 19.52-18.48 35.61-35.49 46.28q-12.62-12.16-25.91-23.2c-20.13-16.74-43.53-23.9-68.6-13.13q-11.12 4.77-22.74 13.28-16.22-5.61-32.43-5.6.21-.99-2.37-2.45a2.74 2.67 83.9 0 1-.75-.62l-4-4.78q26.1-10.84 53.6-15.02a.58.58 0 0 0-.03-1.16q-27.84-2.79-51.03 10.45-1.74 1-4.13 2.68-4.74-3.59-8.07-9.17a4.16 3.84-84.4 0 0-.59-.78q-.39-.41-3.46-3.77-17.88-19.67-44.78-15.56c-14.82 2.26-27.21 13.72-35.23 25.53q-.63.93-3.84 3.75-24.55-15.5-53.95-13.13-.97.08-1.68.5a.51.51 0 0 0 .18.94q27.17 4.42 53.29 14.7l-5.55 8.27q-14.89-.32-30.15 4.51c-18.48-15.02-37.82-28.77-63.2-24.99q-19.93 2.96-35.41 16.7c-9.45 8.38-17.9 18.53-26.2 28.06-16.17-12.32-26.94-28.52-30.4-48.76-.27-1.63.02-3.84-.74-5.12a1.64 1.53 29 0 1-.22-.68l-.78-11.04q1.88-4.91 5.82-8.78c15.98-15.69 35.29-27.61 57.42-30.78a6.15 5.85-57.7 0 0 1.31-.33q5.81-2.12 11.75-1.56a2.26 2.23 36.4 0 0 1.04-.15l3.37-1.32q9.92 1.05 19.93 2.52 2.46.36 4.5-.22a.83.83 0 0 0 .27-1.46l-3.88-2.93c5.03-18.44 7.43-36.02 4.51-54.91 7.47-9.53 15.56-18.41 24.64-26.32 4.47-3.89 9.53-8.76 14.5-12.72q3.19-2.54 8.86-5.94.14-.09 14.14-8.74c3-1.85 8.18-4.41 12.57-5.93q10-3.46 17.13-6.55 3.64-1.58 15.26-2.86a5.71 5.43-54.6 0 0 .87-.17c1.84-.51 6.94-1.56 7.26-3.74q.07-.53-.91-.69 3.85-3.45.58-8.64l9.28-.79 4.96 2.57a.58.58 0 0 0 .75-.19c1.65-2.36.08-6.56-1.04-9.63l7.81.02q3.59 3.2 7.07 6.61.98.96 1.65 1.03a1.87 1.87 0 0 0 2.06-1.59q.6-4.25.97-7.76 4.64 6.45 9.36 12.78 5.67 7.61 14.56 10.14 7.21 2.04 24.37 7.16 7.47 2.22 18.25 8.02 6.89 3.7 8.19 4.29c4.19 1.88 7.5 3.25 11.03 5.57q9.18 6.05 10.77 7.28 9.25 7.15 11.4 8.04 6.98 2.89 13.55 6.63m-170.262-34.85a7.95 5.99-23.9 0 0-9.695-2.256 7.95 5.99-23.9 0 0-4.841 8.697 7.95 5.99-23.9 0 0 9.695 2.255 7.95 5.99-23.9 0 0 4.841-8.697m-23.722 11.08a15.42 8.98-32.7 0 0-17.827.773 15.42 8.98-32.7 0 0-8.125 15.887 15.42 8.98-32.7 0 0 17.827-.773 15.42 8.98-32.7 0 0 8.125-15.888m115.11 50.47a10.44 7.11-43 0 0-12.485 1.92 10.44 7.11-43 0 0-2.786 12.32 10.44 7.11-43 0 0 12.484-1.92 10.44 7.11-43 0 0 2.786-12.32M459.316 313a10.44 6.95-138.2 0 0 3.15 12.14 10.44 6.95-138.2 0 0 12.416 1.778 10.44 6.95-138.2 0 0-3.15-12.14A10.44 6.95-138.2 0 0 459.316 313m157.724 77.07q.45-1.06-.07-2.76c-2.61-8.66-13.81-13.12-22.32-12.96q-20.26.38-32.27 15.17c-3.04 3.72-6.21 9.74-5.35 14.29.44 2.37 2.77 3.25 4.55 1.38q3.92-4.09 6.71-6.63c12.49-11.33 30.59-15.3 46.19-7.56a1.88 1.87-65 0 0 2.56-.93m-208.38.6a1.89 1.89 0 0 0 2.58.93c15.67-7.87 33.92-3.95 46.55 7.4q2.82 2.54 6.78 6.65c1.8 1.87 4.15.97 4.58-1.42.84-4.58-2.38-10.63-5.45-14.36q-12.17-14.84-32.57-15.13c-8.57-.12-19.83 4.42-22.42 13.15q-.51 1.72-.05 2.78m284.18-5.546a15.07 6.74-15.1 0 0-16.306-2.581 15.07 6.74-15.1 0 0-12.794 10.433 15.07 6.74-15.1 0 0 16.306 2.581 15.07 6.74-15.1 0 0 12.794-10.433m-356.7.273a15.13 6.63-164.5 0 0 12.808 10.432 15.13 6.63-164.5 0 0 16.352-2.346 15.13 6.63-164.5 0 0-12.808-10.432 15.13 6.63-164.5 0 0-16.352 2.346"/><path fill="#f0cc88" d="m501.6 224.71-9.28.79-6.08-6.37a.45.45 0 0 1 .39-.75q8.17 1.19 14.97 6.33"/><path fill="#f4bd48" d="M649.29 222.37q-.6 3.22.45 6.06c-15.22-.14-25.06 11.76-31.08 24.33a.46.46 0 0 1-.65.19l-10.64-6.38q3.89-5.23 8.38-9.92 4.66-4.88 9.89-7.63 10.97-5.77 23.65-6.65"/><path fill="#ed9834" d="M680.5 240.14q11.04 22.25.09 44.17-4.33 8.67-11.77 14.43a.9.9 0 0 1-1.2-.09q-5.28-5.42-11.52-9.01 3.64-4.34 4.31-5.73.81-1.71 2.36-4.61 1.49-2.8 2.12-4.72 3.42-10.32 1.47-22.16-1.4-8.47-5.15-14.5.92-.19 1.24-.63.32-.43-.19-1.27-4.04-6.67-12.52-7.59-1.05-2.84-.45-6.06 8.48.03 15.11 3.21c3.62 1.74 6.61 4.66 9.38 8.74q1.37 2.02 3.9 5.04a1.33 1.3 74 0 0 .77.44z"/><path fill="#f4bd48" d="m419.43 246.88-10.56 6.7a.58.57 62.3 0 1-.84-.27c-5.04-11.73-15.97-24.38-29.89-24.52q-4.12-3.34-9.17-4.83 6.36-1.41 11.76-.91c10.54.96 23.42 5.36 30.61 13.36q2.1 2.35 8.09 10.47"/><path fill="#ed9834" d="M368.97 223.96q5.05 1.49 9.17 4.83c-4.71.4-11.65 3.22-13.02 8.16a.63.61 40.6 0 0 .04.43q.33.72 1.47.91-2.48 3.17-3.34 5.88-2.87 9.03-2.53 19.32.27 7.89 3.21 14.01 2.7 5.62 7.85 12.27-6.77 3.87-12.17 9.46a.67.67 0 0 1-.9.06c-9.84-7.92-15.86-20.05-16.76-32.57q-1.37-19.1 10.4-34.26.44 1.09 1.37.56 2.96-1.69 5.72-4.8 3.16-3.56 9.49-4.26"/><path fill="#f0cc88" d="M491.74 234.14q.98.16.91.69c-.32 2.18-5.42 3.23-7.26 3.74a5.71 5.43-54.6 0 1-.87.17q-11.62 1.28-15.26 2.86-7.13 3.09-17.13 6.55c-4.39 1.52-9.57 4.08-12.57 5.93q-14 8.65-14.14 8.74-5.67 3.4-8.86 5.94c-4.97 3.96-10.03 8.83-14.5 12.72-9.08 7.91-17.17 16.79-24.64 26.32q-7.75 9.02-9.96 12.91-5.1 8.99-10.99 17.49-2.78 4.03-6.45 11.3-1.87 3.73-5.01 5.49l-10.59-.96a.33.33 0 0 1-.26-.49q12.79-21.49 28.82-43.05c3.61-4.85 8.39-11.36 10.49-17.29a2.74 2.63-37.1 0 0 .15-.94l-.01-1.25 7.95-7.31q3.96-1.27 6.52-3.1 16.46-11.76 22.55-15.7 35.55-23 76.03-29.12 3.39-.52 5.08-1.64"/><path fill="#f2b09d" d="M661.21 237.92q3.75 6.03 5.15 14.5 1.95 11.84-1.47 22.16-.63 1.92-2.12 4.72-1.55 2.9-2.36 4.61-.67 1.39-4.31 5.73-2.08-.78-2.71 1.72l-6.08-5.68-1.09-2.57q-1.5-5.08-5.24-9.09-6.06-6.5-13.14-12.93a1.66 1.65-59.1 0 1-.44-1.78c4.47-12.38 18.21-31.75 33.81-21.39M381.56 283.7l-7.95 7.31q-.77-1.21-1.79-1.24-5.15-6.65-7.85-12.27-2.94-6.12-3.21-14.01-.34-10.29 2.53-19.32.86-2.71 3.34-5.88 5.16-3.51 10.72-2.75c11.58 1.57 18.58 14.8 22.33 24.46a.92.92 0 0 1-.23 1c-7.94 7.35-14.02 12.84-18.19 20.79q-.46.88.3 1.91"/><ellipse fill="#f0cc88" rx="7.95" ry="5.99" transform="rotate(-23.9 835.07 -982.807)"/><ellipse fill="#f0cc88" rx="15.42" ry="8.98" transform="rotate(-32.7 680.757 -615.388)"/><path fill="#ed9834" d="M656.75 298.73q2.44 3.62 5.09 7.22 11.27 15.32 25.03 36.15 3.63 5.49 6.8 11.24a.33.33 0 0 1-.26.49l-14.58 1.5q-8.15.87-16.14 2.44c-10.06 1.98-13.89-3.8-14.33-12.96q-.65-13.3 1.6-26.28c1.2-6.93 4.26-13.15 6.79-19.8m-283.84 63.98q-13.38-6.08-27.9-7.72 3.14-1.76 5.01-5.49 3.67-7.27 6.45-11.3 5.89-8.5 10.99-17.49 2.21-3.89 9.96-12.91c2.92 18.89.52 36.47-4.51 54.91"/><ellipse fill="#030302" rx="10.44" ry="7.11" transform="rotate(-43 685.949 -552.087)"/><ellipse fill="#030302" rx="10.44" ry="6.95" transform="rotate(221.8 294.64 70.796)"/><path fill="#f0cc88" d="m758.83 394.99.3 9.89q-7.24-8.64-15.52-14.74-3.79-2.78-7.6-5.56c-6.52-4.74-12.19-7.56-19.38-10.81q-5.37-2.43-14.67-4.5-13.18-2.94-15.09-3.12-1.47-.13-2.93-.29a4.25 4.17 42.7 0 0-1.29.04q-5.9 1.03-11.18-.77 19.41-3.1 38.53.87 30.37 6.3 48.83 28.99M352.09 364.8l-3.37 1.32a2.26 2.23 36.4 0 1-1.04.15q-5.94-.56-11.75 1.56a6.15 5.85-57.7 0 1-1.31.33c-22.13 3.17-41.44 15.09-57.42 30.78q-3.94 3.87-5.82 8.78-.82-3.86-.16-7.73.19-1.1 1.51-3.28 1.1-1.81.81-3.65c19.12-22.36 49.79-31.46 78.55-28.26"/><path fill="#030302" d="M617.04 390.07a1.88 1.87-65 0 1-2.56.93c-15.6-7.74-33.7-3.77-46.19 7.56q-2.79 2.54-6.71 6.63c-1.78 1.87-4.11.99-4.55-1.38-.86-4.55 2.31-10.57 5.35-14.29q12.01-14.79 32.27-15.17c8.51-.16 19.71 4.3 22.32 12.96q.52 1.7.07 2.76m-208.38.6q-.46-1.06.05-2.78c2.59-8.73 13.85-13.27 22.42-13.15q20.4.29 32.57 15.13c3.07 3.73 6.29 9.78 5.45 14.36-.43 2.39-2.78 3.29-4.58 1.42q-3.96-4.11-6.78-6.65c-12.63-11.35-30.88-15.27-46.55-7.4a1.89 1.89 0 0 1-2.58-.93"/><ellipse fill="#fdf1cd" rx="15.07" ry="6.74" transform="rotate(-15.1 1806.81 -2364.28)"/><ellipse fill="#fdf1cd" rx="15.13" ry="6.63" transform="rotate(195.5 201.86 170.855)"/><path fill="#fdf1cd" d="M273.54 393.06q.29 1.84-.81 3.65-1.32 2.18-1.51 3.28-.66 3.87.16 7.73l.78 11.04a1.64 1.53 29 0 0 .22.68c.76 1.28.47 3.49.74 5.12 3.46 20.24 14.23 36.44 30.4 48.76q24.09 17.67 53.98 19.59 11.5.73 20.97 0 15.79-1.23 31.22-7.37 25.22-10.02 43.67-30.82 5.47-1.18 12.52-2.01 1.3-.16 1.77-.8a1.02 1.02 0 0 0-.52-1.57q-3.97-1.25-8.65-1.3l5.55-8.27 5.39 1.71a.52.52 0 0 0 .53-.85l-3.76-3.87q3.21-2.82 3.84-3.75c8.02-11.81 20.41-23.27 35.23-25.53q26.9-4.11 44.78 15.56 3.07 3.36 3.46 3.77a4.16 3.84-84.4 0 1 .59.78q3.33 5.58 8.07 9.17l-4.01 3.88a.46.46 0 0 0 .46.77l5.14-1.6 4 4.78a2.74 2.67 83.9 0 0 .75.62q2.58 1.46 2.37 2.45l-9.42 1.08a1 1 0 0 0-.07 1.98l13.91 2.6q-.36 1.18 1.46 2.93 7.57 7.31 16.8 14.11c8.11 5.98 17.93 10.91 26.96 14.34 20.51 7.79 42.24 9.24 63.99 5.84q18.12-2.82 36.05-14.23c17.01-10.67 30.16-26.76 35.49-46.28q3.34-12.22 3.09-26.15l-.3-9.89q9.74 11.61 14.84 22.59 14.25 30.74 11.35 65.9c-3.6 1.51-5.04 4.71-6.33 8.28q-1.63 4.5-2.23 5.69-3.79 7.54-7.74 11.75-3.27 3.48-12.11 12.91-3.68 3.92-8.59 7.41c-9.67 6.87-20.83 14.41-32.23 18.9q-25.68 10.11-48.04 11.33-35.48 1.92-71.2-8.58-17.56-5.16-21.57-6.26-2.31-.63-4.38-.43-4.28-2.85-9.53-2.7l-11.56-2.02a.5.49 73.9 0 0-.45.82c3.85 4.29 9.24 10.39 15.21 14.69 2.71 1.94 5.73 5.35 9.21 7.66 5.54 3.68 11.22 6.97 16.7 10.41 4.67 2.93 9.43 4.83 13.97 7.69q.63.4 2.17.84 1.47.42 2.01 1.18l-14.27 13.33q-31.88 12.36-64.95 22.11-4.29 1.27-6.94 3.4-3.47 2.8-3.6 7.71a1.94 1.88-30.1 0 1-.26.92q-.77 1.31-2.86 2.86a.74.74 0 0 1-.87.01q-2.2-1.54-2.96-2.85a1.88 1.81 31.4 0 1-.25-.96c.24-7.05-7.14-10.3-12.98-11.96q-17.73-5.05-37.41-12.15l-26.01-9.38q-2.26-4.6-6.98-7.16a1.81 1.58 75.5 0 1-.32-.22l-6.81-6.21q3.66-1.51 6.7-3.28c4.59-2.68 8.72-4.02 13.12-6.93q5.71-3.78 12.81-8.03 2.4-1.44 14.44-11.44c4.53-3.77 8.23-7.94 11.47-12.11a.52.51-72 0 0-.42-.83q-5.44.11-9.16 2.07c-2.94-1.23-6.99.42-9.45 1.64q-4.09.28-7.93 1.99a5.35 4.72-59.9 0 1-.96.32q-6.37 1.47-14.47 4.12-6.14 2.01-14.18 3.96-18.63 4.52-37.25 5.89-23.27 1.71-46.46-3.7-29.57-6.89-54.39-25.03-6.7-4.9-11.81-10.13c-7.84-8.04-13.26-13.69-18.17-22.26q-4.3-7.49-7.15-12.8a2.76 2.62 28.8 0 1-.31-.97q-.4-3.19-1.02-1.7c-2.92-32.29 5.8-65.66 27.27-90.22m221.32 35.38q-1.31-.21-1.46.81-.33 2.29.97 4.93c3.16 6.43 8.49 10.12 14.94 13.13a.93.92-77.4 0 1 .54.86l-.23 8.51a2.69 2.64-31 0 1-.29 1.12q-4.67 8.99-13.03 11.31c-8.69 2.41-13.98-2.46-19.57-8.06a1.41 1.41 0 0 0-2.4 1.04c.17 5.34 3.45 10.21 8.06 13.08 10.58 6.58 24.58 2.98 31.59-7.46a.42.42 0 0 1 .69-.02c7 9.3 18.76 13.86 29.24 8.9 5.38-2.54 9.2-7.04 10.36-12.82q.29-1.46-.16-2.43a1.4 1.4 0 0 0-2.26-.39q-2.69 2.72-4.51 4.36c-9.27 8.39-21.17 4.19-27.07-5.55-1.96-3.24-1.61-7.81-1.56-11.5a.94.93-13.9 0 1 .49-.8c6.5-3.38 11.05-5.83 14.73-12.5.97-1.73 2.63-5.99.13-7.14q.3-.79-.48-1.64c-6.04-6.55-19.91-6.12-27.83-4.61-3.14.6-11.12 3.33-10.89 6.87m37.36 56.52c-4.31.58-9.23 3.08-13.26 3.64-7.21 1.01-11.76-.12-18.27-1.95a1.16 1.16 0 0 0-1.46.93c-.43 2.59 3.18 5.53 5.17 6.44q11.93 5.42 22.93-1.12 4.32-2.56 5.69-7a.73.73 0 0 0-.8-.94"/><path fill="#f2b09d" d="M534.06 427.82q-2.35 2.13-4.58 4.41-2.07 2.12-9.18 6.32-4.75 2.8-9.54.91-5.32-2.1-11.05-6.94-2.4-2.03-4.85-4.08c-.23-3.54 7.75-6.27 10.89-6.87 7.92-1.51 21.79-1.94 27.83 4.61q.78.85.48 1.64m-23.1-.725a5.04 2.98-3.7 0 0-5.222-2.649 5.04 2.98-3.7 0 0-4.837 3.3 5.04 2.98-3.7 0 0 5.221 2.648 5.04 2.98-3.7 0 0 4.837-3.3"/><path fill="#f7c86a" d="M428.33 453.55q-11.22 3.59-21.28 9.73-.42.26-.48.59a.38.37-2.9 0 0 .48.43q22.32-6.52 46.31-9.58-18.45 20.8-43.67 30.82-15.43 6.14-31.22 7.37-9.47.73-20.97 0-29.89-1.92-53.98-19.59c8.3-9.53 16.75-19.68 26.2-28.06q15.48-13.74 35.41-16.7c25.38-3.78 44.72 9.97 63.2 24.99"/><path fill="#030302" d="m563.75 440.81-5.14 1.6a.46.46 0 0 1-.46-.77l4.01-3.88q2.39-1.68 4.13-2.68 23.19-13.24 51.03-10.45a.58.58 0 0 1 .03 1.16q-27.5 4.18-53.6 15.02m-97.56-3.05 3.76 3.87a.52.52 0 0 1-.53.85l-5.39-1.71q-26.12-10.28-53.29-14.7a.51.51 0 0 1-.18-.94q.71-.42 1.68-.5 29.4-2.37 53.95 13.13"/><ellipse fill="#fdfdfd" rx="5.04" ry="2.98" transform="rotate(-3.7 6869.411 -7618.068)"/><path fill="#030302" d="M494.86 428.44q2.45 2.05 4.85 4.08 5.73 4.84 11.05 6.94 4.79 1.89 9.54-.91 7.11-4.2 9.18-6.32 2.23-2.28 4.58-4.41c2.5 1.15.84 5.41-.13 7.14-3.68 6.67-8.23 9.12-14.73 12.5a.94.93-13.9 0 0-.49.8c-.05 3.69-.4 8.26 1.56 11.5 5.9 9.74 17.8 13.94 27.07 5.55q1.82-1.64 4.51-4.36a1.4 1.4 0 0 1 2.26.39q.45.97.16 2.43c-1.16 5.78-4.98 10.28-10.36 12.82-10.48 4.96-22.24.4-29.24-8.9a.42.42 0 0 0-.69.02c-7.01 10.44-21.01 14.04-31.59 7.46-4.61-2.87-7.89-7.74-8.06-13.08a1.41 1.41 0 0 1 2.4-1.04c5.59 5.6 10.88 10.47 19.57 8.06q8.36-2.32 13.03-11.31a2.69 2.64-31 0 0 .29-1.12l.23-8.51a.93.92-77.4 0 0-.54-.86c-6.45-3.01-11.78-6.7-14.94-13.13q-1.3-2.64-.97-4.93.15-1.02 1.46-.81"/><path fill="#f7c86a" d="M720.55 477.31q-17.93 11.41-36.05 14.23c-21.75 3.4-43.48 1.95-63.99-5.84-9.03-3.43-18.85-8.36-26.96-14.34q-9.23-6.8-16.8-14.11-1.82-1.75-1.46-2.93 23.65 3.18 45.62 9.47a.45.45 0 0 0 .36-.82q-9.01-5.5-17.97-8.71 11.62-8.51 22.74-13.28c25.07-10.77 48.47-3.61 68.6 13.13q13.29 11.04 25.91 23.2"/><path fill="#030302" d="M570.87 448.66q16.21-.01 32.43 5.6 8.96 3.21 17.97 8.71a.45.45 0 0 1-.36.82q-21.97-6.29-45.62-9.47l-13.91-2.6a1 1 0 0 1 .07-1.98zm-112.39.38q4.68.05 8.65 1.3a1.02 1.02 0 0 1 .52 1.57q-.47.64-1.77.8-7.05.83-12.52 2.01-23.99 3.06-46.31 9.58a.38.37-2.9 0 1-.48-.43q.06-.33.48-.59 10.06-6.14 21.28-9.73 15.26-4.83 30.15-4.51"/><path fill="#f0cc88" d="M460.37 543.59q-16.49 8.99-21.94 11.83c-14.14 7.35-30.44 13.22-45.96 16.81-26.02 6.03-54.01 5.84-78.79-3.34-21.8-8.07-41.52-22.49-53.4-42.66q-11.73-19.93-14.01-42.95.62-1.49 1.02 1.7a2.76 2.62 28.8 0 0 .31.97q2.85 5.31 7.15 12.8c4.91 8.57 10.33 14.22 18.17 22.26q5.11 5.23 11.81 10.13 24.82 18.14 54.39 25.03 23.19 5.41 46.46 3.7 18.62-1.37 37.25-5.89 8.04-1.95 14.18-3.96 8.1-2.65 14.47-4.12a5.35 4.72-59.9 0 0 .96-.32q3.84-1.71 7.93-1.99m324.65-60.11c-3.46 34.59-23.31 63.36-53.82 79.23-12.93 6.73-27.41 11.22-42.65 12.73-32.28 3.21-64.99-3.95-93.83-18.16q-8.64-4.25-24.12-12.8 2.07-.2 4.38.43 4.01 1.1 21.57 6.26 35.72 10.5 71.2 8.58 22.36-1.22 48.04-11.33c11.4-4.49 22.56-12.03 32.23-18.9q4.91-3.49 8.59-7.41 8.84-9.43 12.11-12.91 3.95-4.21 7.74-11.75.6-1.19 2.23-5.69c1.29-3.57 2.73-6.77 6.33-8.28m-252.8 1.48a.73.73 0 0 1 .8.94q-1.37 4.44-5.69 7-11 6.54-22.93 1.12c-1.99-.91-5.6-3.85-5.17-6.44a1.16 1.16 0 0 1 1.46-.93c6.51 1.83 11.06 2.96 18.27 1.95 4.03-.56 8.95-3.06 13.26-3.64M420.86 582.5l-3.73-3.9q-1.89-1.07-2.79-2.56 6.62-2.93 13.05-5.95 23.09-10.87 42.43-28.14 3.72-1.96 9.16-2.07a.52.51-72 0 1 .42.83c-3.24 4.17-6.94 8.34-11.47 12.11q-12.04 10-14.44 11.44-7.1 4.25-12.81 8.03c-4.4 2.91-8.53 4.25-13.12 6.93q-3.04 1.77-6.7 3.28m140.21-40.72q.01 1.42 2.17 3.24 23.8 20.01 51.84 30.71l-3.53 4.07-3.22 3.25q-.54-.76-2.01-1.18-1.54-.44-2.17-.84c-4.54-2.86-9.3-4.76-13.97-7.69-5.48-3.44-11.16-6.73-16.7-10.41-3.48-2.31-6.5-5.72-9.21-7.66-5.97-4.3-11.36-10.4-15.21-14.69a.5.49 73.9 0 1 .45-.82z"/><path fill="#f4bd48" d="M348.46 587.42q-5.35 1.35-7.56 1.25c-19.52-.84-35.96-7.33-54.23-16.51q-1.32-.67-4.41-1.18a.79.78 12.4 0 0-.88.56l-3.29 12.08a.87.86 21.2 0 0 .44.99c34.28 18.1 74.69 19.66 111.16 7.26q6.68-2.27 19.07-7.9c1.93-.87 4.18-1.59 6.19-2.53q2.06-.95 2.18-2.84l3.73 3.9 6.81 6.21a1.81 1.58 75.5 0 0 .32.22q4.72 2.56 6.98 7.16l-2.51-.24a.52.51-.9 0 0-.56.57q.06.53.54 1.39-4.72 22.11-15.41 42.32c-5.73 10.81-14.51 13.97-26.33 14.51l-6.64-2.63a.63.63 0 0 0-.77.91c3.3 5.41 9.02 9.52 14.54 12.46q-8.8 5.29-18.64 7.42c-14.72 3.19-29 5.46-38.56 18.6-7.28 9.99-9.38 23.44-5.78 35.07 4.26 13.72 15.72 21.5 29.66 22.91q22.29 2.25 38.83-11.45c8.51-7.05 16.09-20.42 28.18-19.05q6.79.78 16.25 4.93c13.87 9.71 27.76 18.97 43.4 26.21q-6.26 2.12-10.34 6.32-8.88 9.13-5.44 21.53 1.3 4.69 6.45 8.01l-3.33-1.84a1.33 1.29 55 0 0-.78-.15q-22.06 2.81-44.17 1.98-7.15-.26-17.31-1.53-14.01-1.75-17.22-2.36c-38.69-7.42-74.49-25.2-100.14-55.08q-9.36-10.91-11.43-14.1-4.97-7.67-12.28-20.42c-1.74-3.04-3.54-7.56-5.92-11.11q.65-4.47.06-6.95-3.86-16.18-2.23-32.82 1.17-12.02 1.47-15.75c.45-5.58 1.52-12.98 2.54-16.93q3.32-12.96 6.43-24.25a.78.77 20.5 0 0-.42-.91q-4.54-2.14-8.62-5.81l3.61-18.76a.35.35 0 0 1 .57-.21c21.66 17.83 47.93 27.02 75.79 28.54m-60.887 45.442a9.52 4.59-99.9 0 0-2.885 10.167 9.52 4.59-99.9 0 0 6.159 8.59 9.52 4.59-99.9 0 0 2.885-10.168 9.52 4.59-99.9 0 0-6.159-8.59m7.976 30.432a9.03 4.52-110.9 0 0-1.002 10.048 9.03 4.52-110.9 0 0 7.444 6.824 9.03 4.52-110.9 0 0 1.002-10.049 9.03 4.52-110.9 0 0-7.444-6.823m12.442 28.076a8.6 4.52-124 0 0 1.062 9.658 8.6 4.52-124 0 0 8.556 4.602 8.6 4.52-124 0 0-1.062-9.658 8.6 4.52-124 0 0-8.556-4.602"/><path fill="#ed9834" d="m762.6 578.87-.31-.8a.78.78 0 0 0-1.46.01q-.62 1.72-2.4 2.86-13.4 8.61-28.43 12.86-37.07 10.47-74.46 2.13-16.18-3.61-31.2-10.34-1.09-.49-6.62-2.42-3.57-1.25-6.17-3.37l3.53-4.07q26.44 9.87 54.92 11.34c13.72.71 26.9-.91 40.2-4.14q26.46-6.45 48.07-23.79a.47.47 0 0 1 .75.28zm-414.14 8.55q34.09.45 65.88-11.38.9 1.49 2.79 2.56-.12 1.89-2.18 2.84c-2.01.94-4.26 1.66-6.19 2.53q-12.39 5.63-19.07 7.9c-36.47 12.4-76.88 10.84-111.16-7.26a.87.86 21.2 0 1-.44-.99l3.29-12.08a.79.78 12.4 0 1 .88-.56q3.09.51 4.41 1.18c18.27 9.18 34.71 15.67 54.23 16.51q2.21.1 7.56-1.25"/><path fill="#f4bd48" d="M762.6 578.87c5.03 30.88 6.5 62.6.97 93.52q-.87 5.24-3.83 8.45a2.77 2.59-12.8 0 0-.48.71c-2.44 5.3-3.57 8.35-5.8 11.91q-3.2 5.13-7.89 13.46c-2.87 5.08-7.61 9.8-10.33 13.57q-2.96 4.11-8.31 9.76-13.66 14.42-30.64 24.98c7.93-8.51 14.03-16.76 16.85-28.16q2.23-8.97 2-21.7c4.32-.98 9.85-8.33 8.83-12.62-.8-3.36-4.18-2.89-6.47-1.19q-6.11 4.54-5.94 12.11-4.34-6.7-9.4-13.68c-10.61-14.63-23.55-22.12-41.29-25.37q-14.3-2.63-20.97-3.56 4.68-3.39 7.7-7.99a.75.74 5.3 0 0-.91-1.09l-9.09 3.75c-10.34-1.45-17.86-4.71-23.28-13.99q-5.47-9.37-10.67-18.92-3.37-6.19-13.14-19.61l7.35-5.87a.67.67 0 0 0-.46-1.19l-3.34.23 14.27-13.33 3.22-3.25q2.6 2.12 6.17 3.37 5.53 1.93 6.62 2.42 15.02 6.73 31.2 10.34 37.39 8.34 74.46-2.13 15.03-4.25 28.43-12.86 1.78-1.14 2.4-2.86a.78.78 0 0 1 1.46-.01zm-19.295 53.377a9.48 4.64-78.9 0 0-6.378 8.41 9.48 4.64-78.9 0 0 2.728 10.196 9.48 4.64-78.9 0 0 6.378-8.41 9.48 4.64-78.9 0 0-2.728-10.196m-8.38 30.382a9.05 4.64-69.4 0 0-7.528 6.838 9.05 4.64-69.4 0 0 1.159 10.104 9.05 4.64-69.4 0 0 7.527-6.839 9.05 4.64-69.4 0 0-1.159-10.103"/><path fill="#f0cc88" d="M269.26 681.27q-.49-1.05-1.01-1.35-8.94-50.61.24-102.07 4.08 3.67 8.62 5.81a.78.77 20.5 0 1 .42.91q-3.11 11.29-6.43 24.25c-1.02 3.95-2.09 11.35-2.54 16.93q-.3 3.73-1.47 15.75-1.63 16.64 2.23 32.82.59 2.48-.06 6.95"/><path fill="#030302" d="m434.97 596.09 26.01 9.38q19.68 7.1 37.41 12.15c5.84 1.66 13.22 4.91 12.98 11.96a1.88 1.81 31.4 0 0 .25.96q.76 1.31 2.96 2.85a.74.74 0 0 0 .87-.01q2.09-1.55 2.86-2.86a1.94 1.88-30.1 0 0 .26-.92q.13-4.91 3.6-7.71 2.65-2.13 6.94-3.4 33.07-9.75 64.95-22.11l3.34-.23a.67.67 0 0 1 .46 1.19l-7.35 5.87q-11.5 8.32-24.93 13.31-3.95 1.47-7.77 2.94-10.82 2.77-21.58 5.4-4.93 1.21-8.13 3.96a.61.6 27.7 0 0 .33 1.06q6.81.71 12.43 2.83a1.09 1.08-38.3 0 1-.25 2.09l-15.91 1.98a1.41 1.4 19.7 0 0-.75.35l-1.71 1.59a1.07 1.07 0 0 0 .22 1.73c5.6 3.03 12.26 3.73 18.09 5.28a.96.96 0 0 1 .12 1.82c-4.27 1.76-9.18 1.37-13.68 1.43a.53.53 0 0 0-.45.79c1.93 3.44 6.54 5.52 9.91 6.62q4.71 1.54 22.22 3.56 13.77 2.27 25.02 3.16 27.29 2.17 53.91-7.38l9.09-3.75a.75.74 5.3 0 1 .91 1.09q-3.02 4.6-7.7 7.99l-8.65 5.24q-15.18 6.86-33.26 7.48-20.13.7-38.58-3.57-13.55-3.14-27.02-6.58-7.42-1.88-12.05-7.24-2.53-3.52-2.67-6.13-.18-3.43-1.97-4.62a.69.69 0 0 0-.88.09c-1.62 1.65-2.27 1.83-2.46 4.49q-.26 3.7-2.59 6.71-4.78 5.01-12.03 6.8c-22.75 5.6-40.72 10.45-62.23 10.34q-19.49-.1-36.45-8.03l-1.23-.66c-5.52-2.94-11.24-7.05-14.54-12.46a.63.63 0 0 1 .77-.91l6.64 2.63q7.03 3.05 14.31 4.9 24.45 6.22 49.52 2.88 8.55-1.13 16.4-2.28c8.41-1.05 17.61-1.81 25.07-4.88q3.87-1.59 6.57-4.8a.82.81-68.9 0 0-.59-1.34c-3.89-.14-9.58.29-13.07-1.62a.82.81-47.7 0 1-.06-1.4c1.71-1.16 7.98-2.08 14.21-3.48q2.73-.61 4.56-2.19a1.28 1.28 0 0 0-.04-1.97q-2.01-1.61-4.12-1.91-5.13-.73-12.51-1.19-1.29-.08-2.4-.69a1.01 1 48.9 0 1 .12-1.82q6.26-2.38 13.01-2.83a.74.74 0 0 0 .38-1.35q-4.24-3-10.07-4.32-9.54-2.15-19.07-4.82-22.36-6.99-40.48-21.72-.48-.86-.54-1.39a.52.51-.9 0 1 .56-.57z"/><path fill="#f7c86a" d="M432.44 597.81q18.12 14.73 40.48 21.72-3.14 2.25-5.14 6.98-4.82 11.4-2.13 22.55 1.05 4.35 5.28 11.08-7.85 1.15-16.4 2.28-25.07 3.34-49.52-2.88-7.28-1.85-14.31-4.9c11.82-.54 20.6-3.7 26.33-14.51q10.69-20.21 15.41-42.32m205.16 57.92q-26.62 9.55-53.91 7.38-11.25-.89-25.02-3.16 6.88-7.44 7.02-19.2.13-11.93-7.88-21.29 3.82-1.47 7.77-2.94 13.43-4.99 24.93-13.31 9.77 13.42 13.14 19.61 5.2 9.55 10.67 18.92c5.42 9.28 12.94 12.54 23.28 13.99"/><path fill="#fdfdfd" d="M557.81 619.46q8.01 9.36 7.88 21.29-.14 11.76-7.02 19.2-17.51-2.02-22.22-3.56c-3.37-1.1-7.98-3.18-9.91-6.62a.53.53 0 0 1 .45-.79c4.5-.06 9.41.33 13.68-1.43a.96.96 0 0 0-.12-1.82c-5.83-1.55-12.49-2.25-18.09-5.28a1.07 1.07 0 0 1-.22-1.73l1.71-1.59a1.41 1.4 19.7 0 1 .75-.35l15.91-1.98a1.09 1.08-38.3 0 0 .25-2.09q-5.62-2.12-12.43-2.83a.61.6 27.7 0 1-.33-1.06q3.2-2.75 8.13-3.96 10.76-2.63 21.58-5.4m-84.89.07q9.53 2.67 19.07 4.82 5.83 1.32 10.07 4.32a.74.74 0 0 1-.38 1.35q-6.75.45-13.01 2.83a1.01 1 48.9 0 0-.12 1.82q1.11.61 2.4.69 7.38.46 12.51 1.19 2.11.3 4.12 1.91a1.28 1.28 0 0 1 .04 1.97q-1.83 1.58-4.56 2.19c-6.23 1.4-12.5 2.32-14.21 3.48a.82.81-47.7 0 0 .06 1.4c3.49 1.91 9.18 1.48 13.07 1.62a.82.81-68.9 0 1 .59 1.34q-2.7 3.21-6.57 4.8c-7.46 3.07-16.66 3.83-25.07 4.88q-4.23-6.73-5.28-11.08-2.69-11.15 2.13-22.55 2-4.73 5.14-6.98"/><ellipse fill="#030302" rx="9.48" ry="4.64" transform="rotate(-78.9 760.564 -129.77)"/><ellipse fill="#030302" rx="9.52" ry="4.59" transform="rotate(-99.9 414.535 199.567)"/><path fill="#fdf1cd" d="M520.34 656.39q-.94 2.36.82 4.7 3.23 4.28 5.94 6.31c11.38 8.54 24.34 12.94 38.68 14.76q16.16 2.06 28.2 1.37 7.79-.45 17.35-3.19 10.61-3.04 20.48-6.87.36-.13 1.03-.03l1.9 17.78q-16.72 3.34-31.11 11.9-9.63 5.72-18.69 11.33-7.83 1.75-14.76 6.01-2.51 1.53-11.42 3.68a11.8 11.56-51.9 0 1-2.49.33q-6.93.18-13.94 1.95-7.78-1.89-16.57-3.86-6.36-1.44-12.11-.43-5.77 1-9.01 5.4-5.14-.36-10.27-.4-7.49-.07-10.25-.6-9.59-1.86-18.47-6.23-3.22-1.58-5.16-3.27-5.42-4.75-12.5-5.13-12.18-8.3-25.55-14.34-12.01-5.42-25.84-4.83l1.19-19.23.29-.82a.57.56-67.6 0 1 .77-.33c12.67 6 25.37 10.46 39.4 10.95q18.8.66 36.59-3.2 10.7-2.33 18.08-6.26 8.78-4.68 15.46-11.33 1.45-1.45 1.96-2.66.9-2.12-.57-2.92 2.33-3.01 2.59-6.71c.19-2.66.84-2.84 2.46-4.49a.69.69 0 0 1 .88-.09q1.79 1.19 1.97 4.62.14 2.61 2.67 6.13"/><path fill="#f0cc88" d="m631.25 666.3 1.59 7.14q-.67-.1-1.03.03-9.87 3.83-20.48 6.87-9.56 2.74-17.35 3.19-12.04.69-28.2-1.37c-14.34-1.82-27.3-6.22-38.68-14.76q-2.71-2.03-5.94-6.31-1.76-2.34-.82-4.7 4.63 5.36 12.05 7.24 13.47 3.44 27.02 6.58 18.45 4.27 38.58 3.57 18.08-.62 33.26-7.48m-121.48-9.37q1.47.8.57 2.92-.51 1.21-1.96 2.66-6.68 6.65-15.46 11.33-7.38 3.93-18.08 6.26-17.79 3.86-36.59 3.2c-14.03-.49-26.73-4.95-39.4-10.95a.57.56-67.6 0 0-.77.33l-.29.82 1.27-7.46q16.96 7.93 36.45 8.03c21.51.11 39.48-4.74 62.23-10.34q7.25-1.79 12.03-6.8"/><path fill="#f7c86a" d="M639.9 661.06q6.67.93 20.97 3.56c17.74 3.25 30.68 10.74 41.29 25.37q5.06 6.98 9.4 13.68 1.93 2.02 3.58 1.7.23 12.73-2 21.7c-2.82 11.4-8.92 19.65-16.85 28.16q-10.51 6.96-22.31 11.49c-18.63-1.24-36.42-4.9-50.24-18.17q-4.5-4.31-12.17-15.55-5.56-8.14-11.11-16.39 4.96-3.19 22.07-12.57 15.16-8.32 32.31-9.69a.38.38 0 0 0 .12-.72q-7.14-3.19-15.21-2.62-2.76.19-5.01.21l-1.9-17.78-1.59-7.14z"/><ellipse fill="#030302" rx="9.05" ry="4.64" transform="rotate(-69.4 850.466 -192.833)"/><ellipse fill="#030302" rx="9.03" ry="4.52" transform="rotate(249.1 380.65 233.003)"/><path fill="#f7c86a" d="m399.06 666.04-1.27 7.46-1.19 19.23-10.83 2.49a.41.41 0 0 0 .06.8q15.15 1.28 28.9 8.01 17.28 8.46 33.04 19.78-9.46-4.15-16.25-4.93c-12.09-1.37-19.67 12-28.18 19.05q-16.54 13.7-38.83 11.45c-13.94-1.41-25.4-9.19-29.66-22.91-3.6-11.63-1.5-25.08 5.78-35.07 9.56-13.14 23.84-15.41 38.56-18.6q9.84-2.13 18.64-7.42z"/><path fill="#ed9834" d="M763.57 672.39q-1.52 13.08-3.56 18.65c-5.78 15.75-7.94 22.55-15.03 35.07q-5.54 9.8-10.3 15.68-18.3 22.59-43.67 34.71c-24.18 11.55-50.2 16.03-76.51 15.54q-28.44-.54-56.21-7.69a1.46 1.45-4.2 0 1-.96-.82l-2.04-4.73q2.76.37 4.96-1.07 18.76 3.97 32.5 4.07 7.42.06 21.9-.87 13.04-.84 21.76-2.53 19.33-3.75 37.57-11.68 11.8-4.53 22.31-11.49 16.98-10.56 30.64-24.98 5.35-5.65 8.31-9.76c2.72-3.77 7.46-8.49 10.33-13.57q4.69-8.33 7.89-13.46c2.23-3.56 3.36-6.61 5.8-11.91a2.77 2.59-12.8 0 1 .48-.71q2.96-3.21 3.83-8.45m-494.31 8.88c2.38 3.55 4.18 8.07 5.92 11.11q7.31 12.75 12.28 20.42 2.07 3.19 11.43 14.1c25.65 29.88 61.45 47.66 100.14 55.08q3.21.61 17.22 2.36 10.16 1.27 17.31 1.53 22.11.83 44.17-1.98a1.33 1.29 55 0 1 .78.15l3.33 1.84 1.71 1.34q-7.7 1.23-15.54 2.46-9.12 1.42-15.57 1.98-15.4 1.32-16.66 1.4-28.13 1.95-55.04-3.06c-16.72-3.11-35.37-9.45-50.4-18.19-26.48-15.4-45.56-38.74-55.37-67.93-3.19-9.48-5.06-15.11-6.72-23.96q.52.3 1.01 1.35"/><path fill="#030302" d="M715.14 705.37q-1.65.32-3.58-1.7-.17-7.57 5.94-12.11c2.29-1.7 5.67-2.17 6.47 1.19 1.02 4.29-4.51 11.64-8.83 12.62"/><ellipse fill="#030302" rx="8.6" ry="4.52" transform="rotate(236 342.1 266.09)"/><path fill="#f0cc88" d="m504.64 727.53-.87 1.67a1.07 1.07 0 0 1-.68.54q-7.8 1.89-8.75 9.92a.28.27 14.5 0 1-.38.22c-16.44-6.73-31.07-17.95-45.97-27.98q7.08.38 12.5 5.13 1.94 1.69 5.16 3.27 8.88 4.37 18.47 6.23 2.76.53 10.25.6 5.13.04 10.27.4m80.3-13.08c-7.02 4.91-17.79 11.67-26.32 15.56a1.46 1.45-50.3 0 1-.95.09l-15.34-3.68q7.01-1.77 13.94-1.95a11.8 11.56-51.9 0 0 2.49-.33q8.91-2.15 11.42-3.68 6.93-4.26 14.76-6.01"/><path fill="#f4bd48" d="M600.46 716.61q5.55 8.25 11.11 16.39 7.67 11.24 12.17 15.55c13.82 13.27 31.61 16.93 50.24 18.17q-18.24 7.93-37.57 11.68-8.72 1.69-21.76 2.53-14.48.93-21.9.87-13.74-.1-32.5-4.07 2.33-2.12 4.29-4.4 9.63-11.19 2.52-24.35-3.02-5.57-8.4-8.47 10.34-3.82 19.73-9.61 8.73-5.39 22.07-14.29"/><path fill="#bfe9b4" d="M290.91 754.56q-3.24.19-6 1.38c-6.41 2.77-17.71 9.3-19.61 15.54-4.11 13.53 23.69 23.46 34.05 26.43q21.65 6.23 42.67 10.03c6.82 1.23 20.79 2.3 31.14 4.13q8.76 1.54 10.59 1.68c17.81 1.29 34.15 3.2 50.72 4.05q47.65 2.44 98.78 2.12c20.88-.13 38.69-1.45 59.99-2.26 11.72-.44 27.66-2.27 41-2.98q11.58-.61 24.16-2.73c11.21-1.88 18.91-2.99 31.07-4.76q7.26-1.06 32.32-7.67c11.75-3.09 23.51-7.06 33.13-14.06q3.78-2.75 5.53-5.48c6.14-9.61-6.07-17.05-12.91-20.51q-4.29-2.17-9.54-3.41 14.33-15.65 22.65-34.29a.61.6-70.5 0 1 .7-.34q23.21 6.15 45.08 15.91 14.2 6.34 25.8 16.17 1.27 1.08 3.89 4.66c21.72 29.75-57.98 52.35-74.54 56.68q-36.27 9.5-75.28 14.97c-15 2.1-34.92 4.72-52.1 6.19q-67.78 5.78-128.45 5.43-48.64-.29-106.54-4.53c-17.04-1.25-36.65-3.72-50.42-5.53-39.48-5.2-79.24-12.87-116.64-26.19-14.25-5.07-28.88-11.77-39.82-22-15.33-14.33-4.32-27.8 9.01-36.63 13.05-8.64 26.62-13.81 42.89-19.4q11.46-3.95 24.39-7.21a.42.42 0 0 1 .48.24q8.02 18.65 21.81 34.37"/><path fill="#fdf1cd" d="M558.66 740.51q5.38 2.9 8.4 8.47 7.11 13.16-2.52 24.35-1.96 2.28-4.29 4.4-2.2 1.44-4.96 1.07c-.92-.68-1.42-1.47-1.13-2.67 2.87-11.58-13.42-18.54-21.71-21.33q-14.41-4.87-21.14-7.6c-2.91-1.19-7.73-3.72-8.38-6.37a1.57 1.57 0 0 1 1.08-1.87q3.15-.92 6.26-.24 7.04 1.54 14.65 3.01a.82.82 0 0 0 .83-1.27q-.51-.73-1.56-1.57-4.68-3.74-10.43-6.48a.48.47-42.1 0 1 .05-.87c4.67-1.71 10.45-.52 15.49.96q14.08 4.13 29.36 8.01m-75.11 46.71-1.71-1.34q-5.15-3.32-6.45-8.01-3.44-12.4 5.44-21.53 4.08-4.2 10.34-6.32 6.01 1.98 12.34 4.47c9.88 3.9 17.48 6.38 26.29 9.31 5.33 1.77 10.67 4.38 14.62 7.98a.51.51 0 0 1-.45.87q-7.3-1.54-14.74.05a.74.73-20.7 0 0-.49 1.08q.6 1.09 2.26 1.78 11.51 4.83 12.28 5.18 3.36 1.57 4.72 3.38a1.57 1.56 60.3 0 1-.65 2.38q-3.43 1.44-7.12 1.13-9.5-.77-12.73-1-1.13-.09-2.42.17a.67.67 0 0 0-.38 1.08c2.96 3.59 9.39 5.7 13.87 6.49a.82.81 35.8 0 1 .25 1.52c-5.11 2.79-13.2 1.99-18.8 1.08q-15.82-2.55-20.96-4.33-7.51-2.59-15.51-5.42"/><path fill="#9cc796" d="M738 756.06q5.25 1.24 9.54 3.41c6.84 3.46 19.05 10.9 12.91 20.51q-1.75 2.73-5.53 5.48c-9.62 7-21.38 10.97-33.13 14.06q-25.06 6.61-32.32 7.67c-12.16 1.77-19.86 2.88-31.07 4.76q-12.58 2.12-24.16 2.73c-13.34.71-29.28 2.54-41 2.98-21.3.81-39.11 2.13-59.99 2.26q-51.13.32-98.78-2.12c-16.57-.85-32.91-2.76-50.72-4.05q-1.83-.14-10.59-1.68c-10.35-1.83-24.32-2.9-31.14-4.13q-21.02-3.8-42.67-10.03c-10.36-2.97-38.16-12.9-34.05-26.43 1.9-6.24 13.2-12.77 19.61-15.54q2.76-1.19 6-1.38 2.71 2.84 5.83 5.95c40.75 40.72 103.94 49.19 158.34 41.57q12.54-1.75 26.62-4.2a5.97 5.93-42.1 0 1 2.55.12q5.12 1.36 14.68 4.05 10.47 2.93 21.84 4c8.78.83 25.95 2.46 28.54-9.55a1.6 1.6 0 0 1 .75-1.03l2.25-1.3a1.6 1.59 37.5 0 1 1.23-.16c35.49 9.89 74.29 12.45 110.47 3.76 16.42-3.94 31.18-9.83 45.14-18.13q16.22-9.65 28.85-23.58"/></svg>