<svg xmlns="http://www.w3.org/2000/svg" viewBox="0 0 1024 1024"><g fill="none" stroke-width="2"><path stroke="#fdf2b4" d="M425.66 155.52q-.32 1.5-.22 2.23 1.29 10.21-3.26 18.37a1.38 1.37 35.5 0 0 .29 1.71c4.07 3.57 8.29 7.48 12.57 9.08a3.24 3.23 30.7 0 0 3.58-.91c6.8-7.87 7.4-20.12 5.22-29.77a2.61 2.6 83.6 0 0-2.54-2.03h-14.02a1.65 1.65 0 0 0-1.62 1.32" vector-effect="non-scaling-stroke"/><path stroke="#f7cc9b" d="M588.03 177.18a.62.62 0 0 0 .14.94c5.15 3.16 14.34 4.5 18.72-.83q7.31-8.9 8.1-21.1a1.09 1.09 0 0 0-1.09-1.16h-15.57a1.39 1.39 0 0 0-1.37 1.17c-1.42 8.54-3.04 14.3-8.93 20.98M260.54 493.06q.34.94-.72 2.75c-4.49 7.72-10.91 14.34-17.52 19.65a1.27 1.27 0 0 0 .11 2.06q7.6 4.86 15.35 6.88a3.55 3.54-59 0 0 3.28-.82l8.98-8.2" vector-effect="non-scaling-stroke"/><path stroke="#828281" d="M270.02 515.38q6.55 12.06 16.53 21.32 2.44 2.28 4.84 4.7a.79.77-57.9 0 1 .17.8q-14.94 41.62-19.49 83.31-3.43 31.54 1.42 64.57c3.87 26.29 13.92 51.96 30.93 71.81q25.8 30.09 64.84 38.28 1.47.31 5.32 1.19a.71.7.7 0 1 .54.55q3.76 17.8 14.38 31.03c4.19 5.21 11.91 11.77 18.84 8a3.43 3.42 40.4 0 1 2.78-.22q9.98 3.49 13.22-5.61a1.17 1.16-2 0 1 .62-.66q1.33-.59 3.17-1.31c9.37-3.72 1.87-27.08-.24-33.81a.53.52-15.9 0 1 .37-.66q4.72-1.25 21.06-5.75 8.86-2.44 26.55-5.05 7.21-1.07 28.43-2.21 16.86-.9 39.83 1.25 19.1 1.78 36.87 6.66 11.66 3.2 18.53 5.14a.53.53 0 0 1 .36.67q-3.56 10.67-4.94 18.58c-1.18 6.75-.62 14.21 7.41 16.02a1.73 1.71-5.5 0 1 1.2.98q4.19 9.38 13.63 5.31a1.27 1.27 0 0 1 1.13.06q6.23 3.45 12.37-.67c11.42-7.67 19.03-24.56 21.75-37.71a.88.88 0 0 1 .74-.7c49.7-7.58 84.72-45.83 96.86-92.49 7.24-27.82 8.48-57.54 5.16-85.75q-4.91-41.75-19.42-81.12a.94.93-30 0 1 .28-1.03c41.45-34.3 44.34-94.25 17.91-138.07q-11.93-19.77-33.27-31.74" vector-effect="non-scaling-stroke"/><path stroke="#f7cc9b" d="M720.7 371.05q1.16-1.24 2.09-2.51 4.97-6.85 8.6-14.49 1.29-2.71-1.14-3.38-8.34-2.26-16.12-4.21a2.14 2.14 0 0 0-2.44 1.14q-3.86 7.84-8.87 14.47-.75.99-2.05 1.37" vector-effect="non-scaling-stroke"/><path stroke="#828281" d="M700.77 363.44 689.92 362a2.6 2.6 0 0 1-1.88-1.22q-12.49-20.22-25.48-37.58a.92.92 0 0 1 .1-1.21c9.07-8.69 15.37-18.9 17.07-31.52q3.11-23.18-11.1-41.15c-18.02-22.78-51.85-24.5-71.53-2.77q-6.17 6.81-10.38 14.68a.52.52 0 0 1-.66.22q-18.73-8.27-38.95-12.11a.38.38 0 0 1-.22-.61c1.28-1.57 2.64-3.2 3.15-4.81q2.3-7.31-5.27-9.42a.88.77 48.9 0 0-.22-.03h-8.79a.68.67 4.1 0 1-.67-.77c.9-6.15-3.33-8.98-9.31-8.14-5.57.78-10.81 3.83-15.81 7.22a.53.53 0 0 1-.76-.18c-2.74-4.91-8.36-8.16-13.27-3.8q-2.13 1.89-2.88 3.04c-5.02 7.72-7.68 12.29-11.02 16.99a1.75 1.74-76.9 0 1-1.13.71q-20.13 3.59-39.2 12.09a.85.85 0 0 1-1.11-.39c-8.64-17.15-23.98-29.76-43.64-30-16.81-.2-33.23 9.37-41.7 23.71-12.95 21.92-10.04 49.81 9.66 66.88a.67.66-51.3 0 1 .09.9q-14.21 18.78-26.05 38.34a2.06 2.03 12.1 0 1-1.54.98c-48.34 5.16-76.94 47.97-80.53 93.29q-1.47 18.7 3.65 37.72" vector-effect="non-scaling-stroke"/><path stroke="#7a4f1d" d="M700.77 363.44q.51.18.43.8a.61.59-21.4 0 1-.16.35l-7.11 8" vector-effect="non-scaling-stroke"/><path stroke="#7a6847" d="M693.93 372.59q-5.81-.49-11.61-.86-8.88-.57-18.43.59" vector-effect="non-scaling-stroke"/><path stroke="#7d6127" d="M663.89 372.32q-2.09-.06-3.88.21-15.67 2.37-17.51 2.49-1.9.12-3.07-.18a.88.87-60 0 1-.39-1.47q1.62-1.6 3.44-2.46 8.89-4.18 19.79-6.01" vector-effect="non-scaling-stroke"/><path stroke="#7a4f1d" d="m662.27 364.9 13.82-1.52a.31.31 0 0 0 .22-.47q-12.16-19.99-26.36-38.59-2.93-3.84-6.87-10.59" vector-effect="non-scaling-stroke"/><path stroke="#7d6127" d="M643.08 313.73q-1.72-3.05-2.19-6.07" vector-effect="non-scaling-stroke"/><path stroke="#7c5a4f" d="M640.89 307.66q.64-.82 1.75-1.1" vector-effect="non-scaling-stroke"/><path stroke="#7d6127" d="M642.64 306.56q5.68 3.18 10.81 7.93a1.02 1.02 0 0 0 1.36.02c13.62-12.08 18.12-29.73 11.78-46.75q-4.46-11.97-15.68-19.8" vector-effect="non-scaling-stroke"/><path stroke="#7a6847" d="M650.91 247.96q-11.33-7.29-23.62-5.86c-14.23 1.64-24.68 11.81-30.91 24.12a.82.8-54 0 0 .14.93q1.2 1.26 2.87 1.74" vector-effect="non-scaling-stroke"/><path stroke="#7d6127" d="m599.39 268.89 9.98 6.03a.49.48 28.5 0 0 .69-.2q2.48-5.12 5.8-9.79c6.45-9.05 18.84-15.75 29.17-8.83q1.77 1.19 2.99 3.29.67 1.16.15 1.66-.47.46-1.76.3" vector-effect="non-scaling-stroke"/><path stroke="#7c5a4f" d="M646.41 261.35q-4.9-4.01-11.26-1.74c-8 2.85-14.14 12.37-17.23 20.79a1.22 1.21 30.4 0 0 .35 1.34q7.07 6.09 12.8 12.91 2.64 3.14 3.48 6.62" vector-effect="non-scaling-stroke"/><path stroke="#7d6127" d="M634.55 301.27q-4.72-1.24-7.33-3.2-16.03-12.04-33.02-21-26.26-13.86-56.47-18.53c-4.3-.66-7.31-4.16-4.78-8.37q2.15-3.57 5.5-6.04a.34.34 0 0 0-.24-.62c-6.24.72-10.32 3.82-17.26 7.67a1.27 1.26-19.2 0 1-1.86-.89l-.23-1.35a.3.3 0 0 1 0-.1q1.27-6.69 5.46-12.59a.44.44 0 0 0-.55-.65q-6.53 3.28-13.69 10.74-1.47 1.54-4.24 3.66a1.14 1.13 65.8 0 1-1.8-.69l-1.39-7.27" vector-effect="non-scaling-stroke"/><path stroke="#7a6847" d="m502.65 242.04-1.15-4.71a.4.4 0 0 0-.74-.09q-4.09 7.83-8.76 15.01-3.28 5.05-7.64 7a5.77 5.31 24.2 0 1-.87.29q-13.52 3.25-18.67 4.81-28.34 8.57-52.73 25.76-5.54 3.91-10.5 7.49-3.25 2.34-8.39 3.83" vector-effect="non-scaling-stroke"/><path stroke="#7c5a4f" d="M393.2 301.43q2.44-6.82 7.8-11.85c2.87-2.7 5.6-5.44 8.76-8.18a.8.79-31.8 0 0 .22-.91q-4.44-10.87-11.67-17.29-8.31-7.38-18.13-1.89" vector-effect="non-scaling-stroke"/><path stroke="#7d6127" d="M380.18 261.31q-2.01-.64-1.12-1.97 3.2-4.76 9.09-5.82c14.12-2.54 23.97 10.01 29.68 21.13a.45.45 0 0 0 .64.18l9.63-6.01" vector-effect="non-scaling-stroke"/><path stroke="#7a6847" d="m428.1 268.82 2.83-1.56a.64.64 0 0 0 .27-.83c-7.5-16.22-23.42-27.5-41.68-23.83-15.3 3.09-26.41 16.12-30.16 30.69" vector-effect="non-scaling-stroke"/><path stroke="#7d6127" d="M359.36 273.29q-4.83 24.63 13.37 41.3a1.16 1.15 43.9 0 0 1.59-.03q4.75-4.68 10.9-8.03" vector-effect="non-scaling-stroke"/><path stroke="#7c5a4f" d="m385.22 306.53 1.71 1.14" vector-effect="non-scaling-stroke"/><path stroke="#7a6847" d="M386.93 307.67q-1.34 5.7-4.89 10.6c-4.72 6.51-10.85 14.24-15.31 20.69q-7.96 11.54-15.72 23.95a.3.29-71.6 0 0 .22.45l10.94.91" vector-effect="non-scaling-stroke"/><path stroke="#7d6127" d="M362.17 364.27q11.52 1.56 21.97 6.3 2.67 1.21 4.48 2.95a.94.94 0 0 1-.59 1.62l-3.6.19" vector-effect="non-scaling-stroke"/><path stroke="#7a6847" d="M384.43 375.33c-20.57-4.1-43.93-6.02-63.93 1.87" vector-effect="non-scaling-stroke"/><path stroke="#817b69" d="M320.5 377.2c-19.7 7.78-34.44 23.32-43.09 42.49q-13.26 29.38-8.24 61.36.05.32-.04.88-.07.37-.08.9" vector-effect="non-scaling-stroke"/><path stroke="#7a4f1d" d="M269.05 482.83q-3.18-.67-3.9 1.05-2.76 6.6-4.61 9.18" vector-effect="non-scaling-stroke"/><path stroke="#f3b672" d="m634.55 301.27 3.48 3.84a1.57 1.46-81.7 0 1 .25.36l.67 1.24a1.61 1.59 85.8 0 0 .87.76q.56.2 1.07.19" vector-effect="non-scaling-stroke"/><path stroke="#f1ab40" d="M643.08 313.73q-.07 3.5.92 6.05c2.83 7.36 6.97 15.26 9.72 22.4q4.34 11.24 8.55 22.72" vector-effect="non-scaling-stroke"/><path stroke="#f2c56b" d="M663.89 372.32q.36 1.37 3.07 1.38 2.85.02 3.59.11 8.97 1.08 17.13 2.56" vector-effect="non-scaling-stroke"/><path stroke="#f1ab40" d="m687.68 376.37-.87 4.86a.93.92 26.2 0 0 .29.83q1.73 1.55 4.38 2.66 8.06 3.39 14.77-.55" vector-effect="non-scaling-stroke"/><path stroke="#f2c56b" d="M706.25 384.17q11.71 6.64 20.11 13.71 3.35 2.82 6.12 7.26" vector-effect="non-scaling-stroke"/><path stroke="#f9d78c" d="M732.48 405.14q-6.44 27.68-30.14 42.95" vector-effect="non-scaling-stroke"/><path stroke="#f6c35b" d="M702.34 448.09q-7.87-4.27-21.58-10.86c-11.2-5.37-22.94-8.97-35.07-8.68-14.51.34-28.22 5.05-41.68 11.2" vector-effect="non-scaling-stroke"/><path stroke="#7d6127" d="M604.01 439.75q-15.73-6.53-31.64-7.07" vector-effect="non-scaling-stroke"/><path stroke="#f9d78c" d="M572.37 432.68q-6.21-3.64-7.65-8.01" vector-effect="non-scaling-stroke"/><path stroke="#7d6127" d="M564.72 424.67q22.84-8.99 46.16-12.85a.36.36 0 0 0 .03-.7q-2.1-.55-4.39-.65-23.44-1.01-43.6 11.1" vector-effect="non-scaling-stroke"/><path stroke="#f9d78c" d="M562.92 421.57q-3.01-2.96-5.32-6.89a4.58 4.48 8.3 0 0-.67-.88q-3.14-3.25-7.53-8-1.28-1.38-6.73-5.34c-10.34-7.52-22.22-10.71-34.95-9.11q-10.48 1.32-20.96 8.36-12.86 8.63-21.35 22.3" vector-effect="non-scaling-stroke"/><path stroke="#7d6127" d="M465.41 422.01q-22.38-13.63-48.64-11.02a.37.37 0 0 0-.03.74c16.05 3.04 31.46 6.95 46.7 13.31" vector-effect="non-scaling-stroke"/><path stroke="#f9d78c" d="m463.44 425.04-7.35 7.72" vector-effect="non-scaling-stroke"/><path stroke="#7d6127" d="M456.09 432.76q-10.45.09-21.3 2.97" vector-effect="non-scaling-stroke"/><path stroke="#f6c35b" d="M434.79 435.73c-14.89-3.13-25.4-6.78-39.23-10.49q-22.66-6.09-43.71 3.16c-10.23 4.49-20.52 10.97-30.4 16.77" vector-effect="non-scaling-stroke"/><path stroke="#f9d78c" d="M321.45 445.17c-8.31-6.14-15.41-13.79-19.83-23.11q-1.71-3.61-3.45-7.18-.9-1.84-2.49-9.29" vector-effect="non-scaling-stroke"/><path stroke="#f2c56b" d="M295.68 405.59q.47-3.26 3.84-5.81 5.43-4.12 11.13-8.58 7.61-5.97 21.83-11.97 1.71-.73 7.67-1.79 3.43-.61 7.71-1.72c6.59-1.7 13.76-2.63 20.89-1.06 6.17 1.36 10.41 2.76 15.68.67m-22.26-11.06c4.08-5.71 7.48-12.96 10.87-17.65 5.09-7.04 9.16-14.35 14.77-21.07q11.93-14.27 24.22-25.01 1.03-.9 10-8.34 2.55-2.11 6.58-4.71 6.75-4.35 6.81-4.38 1.33-.6 6.12-3.87c7.65-5.2 16.44-7.83 24.63-11.64q6.79-3.15 14.92-5.07c3.62-.85 7.46-2.38 9.16-4.75q3.37-4.66 5.94-7.41a3.11 2.91 80.7 0 0 .55-.82c.63-1.4 1.81-5.45 3.97-5.45q1.68.01 1.94-2.06" vector-effect="non-scaling-stroke"/><path stroke="#efb361" d="m281.68 495.05-4.25 10.28" vector-effect="non-scaling-stroke"/><path stroke="#f2c56b" d="M428.1 268.82q-5.03-7.24-11.87-12.44-4.41-3.35-9.98-5.16-6.67-2.16-11.03-2.63-26.64-2.86-32.8 22.32a3.82 3.78-24.7 0 1-.33.88q-2.67 5.03-2.73 1.5" vector-effect="non-scaling-stroke"/><path stroke="#f6dfad" d="M295.68 405.59q-.79-2.81-.94-6.09-.08-1.84.77-3.45a1.82 1.75 86.9 0 1 .55-.64q2.73-2.02 5.9-5.21 1.04-1.04 4.97-3.49 6.56-4.1 13.32-8.28 1.64-1.02.25-1.23" vector-effect="non-scaling-stroke"/><path stroke="#f2c56b" d="M650.91 247.96q-4.07.71-10.41.22c-4.64-.36-11.5.35-16.9 2.34-5.14 1.89-8.96 3.04-11.86 5.47q-6.97 5.84-12.35 12.9" vector-effect="non-scaling-stroke"/><path stroke="#7a4f1d" d="m720.7 371.05-7.64 7.61a.58.56 61.5 0 0-.15.53q.04.17.08.29" vector-effect="non-scaling-stroke"/><path stroke="#efb361" d="m712.99 379.48-.82.22a1.53 1.42 16.2 0 0-.52.26l-5.4 4.21m-18.57-7.8q3.44.25 6.25-3.78" vector-effect="non-scaling-stroke"/><path stroke="#f1be93" d="m386.93 307.67 6.27-6.24" vector-effect="non-scaling-stroke"/><path stroke="#fadd9d" d="M321.45 445.17c30.94 22.28 73.19 23.89 107 7.3q10.18-4.99 20.12-13.88" vector-effect="non-scaling-stroke"/><path stroke="#817b69" d="M448.57 438.59q7.63-1.78 17.11-2.51 1.09-.08 1.61-.5a.99.98 33 0 0-.37-1.72q-4.79-1.25-10.83-1.1m7.35-7.72 6.14 2.13a.42.41 76.6 0 0 .42-.69l-4.59-4.47m97.51-.44-5.07 4.6a.56.55-76.6 0 0 .57.93l6.3-2.43m7.65 8.01-11.59.76a1.03 1.03 0 0 0-.1 2.04l17.9 2.95" vector-effect="non-scaling-stroke"/><path stroke="#fadd9d" d="M578.58 438.43q7.01 6.06 14.45 10.61 6.92 4.23 12.33 6.37 23.4 9.24 49.63 7.67 26.85-1.61 47.35-14.99" vector-effect="non-scaling-stroke"/><path stroke="#f6dfad" d="M732.48 405.14q1.1-4.61.82-11.04m26.23 76.48-4.65 9.14a.2.04-79.1 0 0-.02.05q-3.72 9.95-10.08 16.78-2.33 2.5-6.09 6.54c-4.77 5.13-10.57 10.49-14.72 14.18-1.44 1.29-3.27 2.26-5.11 3.59q-1.77 1.27-3.99 2.43-16.04 8.33-22.16 10.72c-23.52 9.18-47.14 10.21-72.12 6.56q-11.95-1.74-20.64-4.36-12.26-3.69-22.88-6.56a3.93 3.92-19.4 0 1-1.32-.63q-.5-.37-1.69-.55a1.3 1.22-46.7 0 0-.52.03q-.62.17-.99-.06a1.88 1.76 58.5 0 0-.98-.27q-.64 0-1.04.26m-7.13-.9q-3.55-.12-9.15.17-.57.03-.77.5-.19.44.23.66 3.99 2.14 8.51 6.04a10.88 10.53-8.4 0 0 1.52 1.09q7.41 4.46 14.77 9.98 1.68 1.26 8.93 5 2.17 1.12 6.12 4.18a1.73 1.15 0 0 0 .27.18l8.74 4.6" vector-effect="non-scaling-stroke"/><path stroke="#f9d78c" d="M602.57 559.93q3.32 4.17 5.94 9.05 2.74 5.08 5.5 9.99" vector-effect="non-scaling-stroke"/><path stroke="#817b69" d="M614.01 578.97q-25.07 13.19-45.46 32.84-3.86 3.71-7.87 8.66-3 3.7-1.97 8.19a2.61 2.56 50.7 0 1-.15 1.64q-3.92 8.97 4.25 14.55" vector-effect="non-scaling-stroke"/><path stroke="#f6dfad" d="M562.81 644.85q-1.14.93-1.8 1.13a1 .99 71.1 0 0-.65 1.34q3.07 7.65 9.89 12.37 10.68 7.4 21.99 9.25 11.8 1.92 23.08 1.31c7.11-.39 13.4-1.86 20.38-4.11q1.77-.58 2.74.37" vector-effect="non-scaling-stroke"/><path stroke="#fadd9d" d="M638.44 666.51q-.66 37.9-21.28 68.44-4.71 6.98-10.53 13-5.66 5.85-12.34 11.34-2.55 2.09-4.57 3.16" vector-effect="non-scaling-stroke"/><path stroke="#f6dfad" d="M589.72 762.45c-1.73.3-3.59.57-5.31.4q-10.18-1.04-28.92-3.25-54.05-6.39-108.55 3.82-3.51.66-8.25-.03" vector-effect="non-scaling-stroke"/><path stroke="#fadd9d" d="M438.69 763.39q-9.61-6.54-13.04-10.3-2.86-3.14-5.01-4.09" vector-effect="non-scaling-stroke"/><path stroke="#f6c582" d="m420.64 749 4.39-1.61a1.98 1.96 3.1 0 0 1.09-.97q2.04-4.07 2.8-9.03a.98.98 0 0 0-.39-.94q-3.77-2.76-5.56-4.15c-3.27-2.54-5.56-7.58-7.51-12.21a1.19 1.17-16 0 0-1.28-.7c-3.94.66-6.55 2.74-10.22 5.66" vector-effect="non-scaling-stroke"/><path stroke="#fadd9d" d="M403.96 725.05q-5.83-10.26-9.69-23.78-5.17-18.13-5.17-35.63" vector-effect="non-scaling-stroke"/><path stroke="#f6dfad" d="M389.1 665.64q4.59 1.05 8.95 2.21 5.67 1.5 9.01 1.81c19.93 1.89 47.28-.9 58.78-20.53q.82-1.41.54-2.52-.29-1.17-1.38-2.26" vector-effect="non-scaling-stroke"/><path stroke="#817b69" d="M465 644.35q4.96-2.65 5.07-7.83.05-2.21-1.29-6.03a2.02 1.97-45.7 0 1 0-1.29q1.51-4.46-2.38-9.27-5.63-6.96-11.24-12.1-18.34-16.79-41.36-28.77" vector-effect="non-scaling-stroke"/><path stroke="#f9d78c" d="M413.8 579.06q3.62-5.63 6.46-11.52 1.1-2.3 5.12-7.06" vector-effect="non-scaling-stroke"/><path stroke="#f6dfad" d="M425.38 560.48q2.14-1.33 3.6-3.38a2.32 2.22-84.9 0 1 .8-.7c6.96-3.62 13.51-6.91 19.4-11q7.87-5.45 9.37-6.32c5.09-2.96 9.2-6.93 14.14-10.27a.49.49 0 0 0-.26-.89l-8.69-.14m-6.94.32q-14.47 3.38-21.75 5.7-28.45 9.1-55.55 8.81-35.06-.38-66.37-19.23-17.84-10.74-31.45-28.33" vector-effect="non-scaling-stroke"/><path stroke="#f6c582" d="m281.68 495.05 2.52-8.16a.83.83 0 0 0-.41-.98c-2.48-1.29-6.47-1.67-13.11-2.93q-.08-.02-.57-.3-.27-.16-.48-.4a.29.29 0 0 0-.5.13l-.08.42" vector-effect="non-scaling-stroke"/><path stroke="#f3b672" d="M380.18 261.31q-4.73 11.45-5.25 15.18-.99 7.05.21 11.13 1.34 4.52 2.96 9.03a5.08 5.05-73.6 0 0 .72 1.33q1.31 1.74 2.11 3.73a2.43 2.42-77.7 0 0 .48.75l3.81 4.07m257.42.03q4.5-3.66 6.69-9.48.05-.13.2-.26.14-.11.21-.26 4.59-10.11 2.94-21.26-1.02-6.81-6.27-13.95" vector-effect="non-scaling-stroke"/><path stroke="#7e6638" d="M434.79 435.73q-10.61 3.09-20.09 8.46-1.17.66-2.09 1.5a.24.24 0 0 0 .22.41q16.9-4.72 35.74-7.51m130.01-.16q18.78 2.88 36.14 8.17a.35.35 0 0 0 .28-.64l-10.99-6.21" vector-effect="non-scaling-stroke"/><path stroke="#7a4f1d" d="m270.02 515.38 7.41-10.05" vector-effect="non-scaling-stroke"/><path stroke="#7a6847" d="M277.43 505.33q6.37 13.51 15.35 22.4c17.43 17.25 41.15 27.07 65.52 28.65 26.42 1.72 54.25-5.31 77.81-17q8.26-4.1 20.69-11.28" vector-effect="non-scaling-stroke"/><path stroke="#817b69" d="M456.8 528.1q4.19-1.5 6.94-.32" vector-effect="non-scaling-stroke"/><path stroke="#7a6847" d="M463.74 527.78c-9.55 9.48-21.41 16.71-33.31 22.72" vector-effect="non-scaling-stroke"/><path stroke="#7d6127" d="M430.43 550.5q-39.26 19.39-80.93 15.07-16.95-1.76-37.7-11.41-3.52-1.64-10.99-6.17a.49.49 0 0 0-.72.27l-4.85 14.87" vector-effect="non-scaling-stroke"/><path stroke="#7a6847" d="M295.24 563.13q-5.96 21.35-8.8 36.1-6.54 34.03-4.84 71.03.14 2.97 1.22 7.21" vector-effect="non-scaling-stroke"/><path stroke="#7d6127" d="M282.82 677.47q-.34 2.67.59 5.97" vector-effect="non-scaling-stroke"/><path stroke="#7a4f1d" d="M283.41 683.44c3.32 30.8 16.38 61.43 39.22 81.86q17.62 15.77 40.76 22.83c22.1 6.75 46.59 5.46 68.91-.62q5.85-1.59 17.41-5.35 3.46-1.13 16.61-3.3" vector-effect="non-scaling-stroke"/><path stroke="#7a6847" d="M466.32 778.86q47.15-7.93 94.39-.19" vector-effect="non-scaling-stroke"/><path stroke="#7a4f1d" d="M560.71 778.67c5.38.95 11.17 1.81 16.09 3.23q19.39 5.62 19.78 5.73 15.34 4.27 33.17 4.77 13.07.37 22.65-1.51c15.77-3.1 31.82-9.24 44.46-19.09 11.86-9.25 21.17-19.03 28.9-32.47q9.23-16.05 12.94-28.87 4.49-15.48 6.87-37.5" vector-effect="non-scaling-stroke"/><path stroke="#7d6127" d="M745.57 672.96q-.17 2.04 0 1.91a.15.15 0 0 0 .04-.07q3.69-57.49-13.48-111.06" vector-effect="non-scaling-stroke"/><path stroke="#7a4f1d" d="m732.13 563.74-4.7-15.16a.74.73-24.7 0 0-1.1-.4q-20.43 13-44.49 16.77c-22.35 3.5-48.09-.17-69.6-7.91q-6.48-2.33-15.17-6.46" vector-effect="non-scaling-stroke"/><path stroke="#7a6847" d="M597.07 550.58q-18.46-8.75-33.67-23.05" vector-effect="non-scaling-stroke"/><path stroke="#817b69" d="M563.4 527.53q3.85-1.01 7.13.9" vector-effect="non-scaling-stroke"/><path stroke="#7a6847" d="M570.53 528.43q14.59 7.96 24.36 12.67c23.4 11.29 52.23 17.47 78.38 14.93q29.91-2.92 54.25-21.79 10.28-7.96 18.82-21.38 12.56-19.72 13.19-42.28" vector-effect="non-scaling-stroke"/><path stroke="#817b69" d="M759.53 470.58c2-27.62-6.51-56.44-26.23-76.48" vector-effect="non-scaling-stroke"/><path stroke="#7a6847" d="M733.3 394.1q-8.56-8.89-20.31-14.62" vector-effect="non-scaling-stroke"/><path stroke="#f2c56b" d="M425.38 560.48q1.28-2.97 4.68-5.33a1.36 1.33-11.1 0 0 .53-.77q.44-1.82-.16-3.88" vector-effect="non-scaling-stroke"/><path stroke="#7d6127" d="m413.8 579.06-7.47-3.22a.62.62 0 0 0-.73.97l2.37 2.85" vector-effect="non-scaling-stroke"/><path stroke="#f6c35b" d="M407.97 579.66c3.57 7.89 4.44 14.29.45 22.01q-5.93 11.48-8.74 23.77c-2.2 9.67-5.03 16.76-16.08 16.14q-6.96-.4-9.49-.76" vector-effect="non-scaling-stroke"/><path stroke="#7d6127" d="M374.11 640.82q-8.18-3.4-15.8-8.09a.74.74 0 0 0-1.07.91q1.63 4.02 5.03 7.68" vector-effect="non-scaling-stroke"/><path stroke="#f1ab40" d="M362.27 641.32q.82 5.19 5.12 9.31" vector-effect="non-scaling-stroke"/><path stroke="#f6c35b" d="M367.39 650.63c-10.08 2.82-19.88 6.38-27.66 13.4q-4.28 3.86-10.84 13.05-7.3 10.23-12.96 16.76a2.03 1.96-20.8 0 0-.46.98c-.85 5.18-.55 8.79.6 13.4 2.1 8.46 2.28 17.18 1.08 25.87" vector-effect="non-scaling-stroke"/><path stroke="#f1ab40" d="M317.15 734.09q-10.84-11.41-17.75-21.74-7.72-11.52-13.17-26.79-.89-2.47-2.82-2.12" vector-effect="non-scaling-stroke"/><path stroke="#f2c56b" d="M282.82 677.47q.97-5.26 1.27-10.59.55-9.5.72-10.62c1.14-7.3 1.43-13.71 2.88-21.61 2.14-11.63 5.12-23.05 7.84-34.91q2.2-9.61 6.91-23.6.65-1.94 1.91-8.35" vector-effect="non-scaling-stroke"/><path stroke="#f1ab40" d="M304.35 567.79q.69.61 1.1.77 26.34 10.64 55.68 8.82c4.49-.28 10.36-.45 15.21-1.43q14.18-2.85 28.45-7.68 3.98-1.35 10.91-4.95a.3.29-43.3 0 0 .02-.52q-3.18-1.95-7.44-1.02-.79.17-17.12 4.17-5.83 1.43-22.49 2.93-6.63.6-14.47-.33-12.2-1.44-14.44-2.08-11.47-3.25-11.7-3.31c-6.92-1.85-13.29-4.87-18.79-7.37a.66.65-67.9 0 0-.89.38l-4.03 11.62" vector-effect="non-scaling-stroke"/><path stroke="#f2c56b" d="m304.35 567.79-9.11-4.66" vector-effect="non-scaling-stroke"/><path stroke="#f3ca7c" d="m389.1 665.64-.17-1.14" vector-effect="non-scaling-stroke"/><path stroke="#7e6638" d="m610.73 587.66-23.34 19.3" vector-effect="non-scaling-stroke"/><path stroke="#828281" d="M587.39 606.96q-10.18 8.02-18.84 16.85-1.07 1.1-1.55 2.65a.41.41 0 0 0 .51.52c2.72-.86 6.99-2.28 9.81-2.04a1.11 1.11 0 0 1 .52 2.04l-11.37 7.47a1.2 1.2 0 0 0-.36.36q-.83 1.26-.36 2.83a1.22 1.21-13.1 0 0 1.36.84l15.53-2.6a.53.52-11.1 0 1 .6.4q.16.72-.42 1.3-3.77 3.71-9.31 6.21a.62.61 48.4 0 0-.06 1.09q.81.49 2.09.78 10.56 2.43 21.58 2.97" vector-effect="non-scaling-stroke"/><path stroke="#7e6638" d="M597.12 648.63c18.3 1.57 37.3-.58 54.59-7.06m14.78-1.53-2.28 2.48" vector-effect="non-scaling-stroke"/><path stroke="#7a4f1d" d="M664.21 642.52q-11.84 9.22-26.56 12.6" vector-effect="non-scaling-stroke"/><path stroke="#7a6847" d="M637.65 655.12q-33.55 7.47-65.31-2.46-5.97-1.87-9.53-7.81" vector-effect="non-scaling-stroke"/><path stroke="#f3b151" d="M403.96 725.05q-.51 1.08-2.48 2.45-1.43 1-.72 3.26 5.06 16.17 19.88 18.24" vector-effect="non-scaling-stroke"/><path stroke="#f3ca7c" d="m438.69 763.39 2.01 2.2" vector-effect="non-scaling-stroke"/><path stroke="#f3b151" d="M440.7 765.59q-3.42-.85-5.46-.5-14.25 2.5-22.99 3.19c-20.45 1.6-44.12-2.17-62.75-11.54q-17.37-8.74-32.35-22.65" vector-effect="non-scaling-stroke"/><path stroke="#7e6638" d="M713.3 682.73q1.59 3.68 4.99 1.85 1.93-1.04 3.69-5.84" vector-effect="non-scaling-stroke"/><path stroke="#f3b151" d="M708.92 735.87c-6.33 6.12-11.48 9.72-19.52 15.01-22.47 14.78-50.7 19.31-77.08 16.45q-12.16-1.32-23.77-3.2" vector-effect="non-scaling-stroke"/><path stroke="#f3ca7c" d="M588.55 764.13q.22-.64 1.17-1.68m48.72-95.94.26-1.97" vector-effect="non-scaling-stroke"/><path stroke="#f3b151" d="M638.7 664.54q.79.33 1.58.02 15.05-6.08 24.12-19.52a1.18 1.17-34.6 0 0 .17-.91l-.36-1.61" vector-effect="non-scaling-stroke"/><path stroke="#efb361" d="M597.07 550.58q.71 5.2 5.29 8.73" vector-effect="non-scaling-stroke"/><path stroke="#f2c56b" d="m602.36 559.31.21.62" vector-effect="non-scaling-stroke"/><path stroke="#f1ab40" d="M745.57 672.96q-1.2 4.28-2.49 6.26a3.36 3.02 72.9 0 0-.36.78q-5.65 19.18-16.18 34.53-7.07 10.3-17.62 21.34" vector-effect="non-scaling-stroke"/><path stroke="#f6c35b" d="M708.92 735.87q.73-10.91 2.25-21.54 2.65-18.62 10.81-35.59" vector-effect="non-scaling-stroke"/><path stroke="#7d6127" d="M721.98 678.74q1.03-4.36.57-6.01c-.75-2.65-3.45-3.66-5.47-1.7-2.92 2.85-4.08 7.88-3.78 11.7" vector-effect="non-scaling-stroke"/><path stroke="#f6c35b" d="M713.3 682.73q-5.95-8.4-10.21-13.5c-10.13-12.12-22.8-21.11-36.6-29.19" vector-effect="non-scaling-stroke"/><path stroke="#7d6127" d="m666.49 640.04 3.94-6.2a.79.72 30.1 0 0-.33-1.05q-.02-.01-.37 0a.72.68-60.7 0 0-.32.1q-8.61 5.02-17.7 8.68" vector-effect="non-scaling-stroke"/><path stroke="#f6c35b" d="M651.71 641.57q-7.38.73-14.53 1.91c-7.96 1.31-13.04-1.45-14.52-9.87-1.36-7.84-2.4-13.87-5.62-19.24q-2.48-4.13-7.03-10.27c-4.34-5.85-3.11-10.61.72-16.44" vector-effect="non-scaling-stroke"/><path stroke="#7d6127" d="m610.73 587.66 10.47-10.07a.69.69 0 0 0-.48-1.19c-1.69-.01-4.94 1.98-6.71 2.57" vector-effect="non-scaling-stroke"/><path stroke="#7a6847" d="M465 644.35q-3.3 5.35-6.63 7.02-2.51 1.27-8.25 2.67-30.84 7.58-60.35 1.07" vector-effect="non-scaling-stroke"/><path stroke="#7a4f1d" d="M389.77 655.11q-15.67-3.57-27.5-13.79" vector-effect="non-scaling-stroke"/><path stroke="#7e6638" d="M374.11 640.82q26.08 10.17 55.11 7.71" vector-effect="non-scaling-stroke"/><path stroke="#828281" d="M429.22 648.53q7.17-.4 15.53-1.49 4.69-.61 9.32-2.38a.53.53 0 0 0 0-.99q-5.93-2.29-10.06-6.81a.81.81 0 0 1 .35-1.31q.39-.12.88-.01c6.4 1.44 11.51 2.93 15.44 2.72a1.52 1.52 0 0 0 1.36-2.02q-.28-.8-1.39-1.65-5.65-4.37-10.21-6.97-.83-.48-1.12-1.56a1.03 1.03 0 0 1 1.24-1.27l9.63 2.38a.49.48-6.6 0 0 .55-.69q-1.53-2.96-3.96-5.26-8.64-8.2-15.56-13.7-.19-.15-.79-.27" vector-effect="non-scaling-stroke"/><path stroke="#7e6638" d="m440.43 607.25-32.46-27.59" vector-effect="non-scaling-stroke"/><path stroke="#f1ab40" d="M732.13 563.74q-16.22 8.55-34.55 11.86c-8.96 1.62-19.35 1.86-27.34 1.69q-25.33-.53-49.69-9.88-2.34-.9-9.01-4.2-4.51-2.23-9.18-3.9" vector-effect="non-scaling-stroke"/><path stroke="#efb361" d="M560.71 778.67q12.53-4.83 15.74-7.23 5.4-4.02 12.1-7.31m-147.85 1.46q12.27 7.3 25.62 13.27" vector-effect="non-scaling-stroke"/><path stroke="#fbe4b6" d="M440.43 607.25q-7.63 5.6-11.22 15.23-4.72 12.61.01 26.05" vector-effect="non-scaling-stroke"/><path stroke="#efb361" d="m389.77 655.11-.84 9.39" vector-effect="non-scaling-stroke"/><path stroke="#f3b151" d="M388.93 664.5q-1.21.27-1.68.07-11.53-4.92-19.86-13.94" vector-effect="non-scaling-stroke"/><path stroke="#efb361" d="m638.7 664.54-1.05-9.42" vector-effect="non-scaling-stroke"/><path stroke="#fbe4b6" d="M597.12 648.63q3.74-5.26 3.93-12.13.51-18.39-13.66-29.54" vector-effect="non-scaling-stroke"/><path stroke="#fdf2b4" d="M261.82 261.34a1.29 1.28-57 0 0-.29-1.37q-8.05-8.05-11.33-19.67-1.7-6.04-1.88-7.37c-.28-2.1-1.12-2.95-3.32-2.7q-4.84.57-13.42 2.02a2.3 2.29 89.1 0 0-1.89 1.95c-.66 4.87 1.66 12.22 3.36 17.26 1.49 4.4 7.58 17.44 12.97 16.94q6.32-.59 14.33-5.51 1.15-.71 1.47-1.55" vector-effect="non-scaling-stroke"/><path stroke="#f7cc9b" d="M757.13 274.2c4.1 3.36 12.37 4.26 17.29 4.22a1.95 1.95 0 0 0 1.72-1.06c6.15-11.78 7.53-26.8 5.79-39.98a2.17 2.16 85.1 0 0-2.23-1.88l-17.49.7a1.58 1.58 0 0 0-1.5 1.85q1.71 9.99.51 19.19c-.66 4.99-2.65 10.59-4.47 15.59a1.24 1.24 0 0 0 .38 1.37m-444.17 27.56c-2.95 1.08-11.81 5.96-11.4 9.76.89 8.4 6.97 20.04 15.85 22.29a2.98 2.98 0 0 0 3.42-1.61l5.28-11.11a1.45 1.44-59.9 0 0-.48-1.81c-5.83-4.02-8.48-9.64-10.74-16.58a1.49 1.48 70.8 0 0-1.93-.94" vector-effect="non-scaling-stroke"/><path stroke="#fdf2b4" d="M840.6 356.82q6 6.16 14.01 9.59a3.62 3.6-49.1 0 0 3.34-.25q13.19-8.15 18.92-22.52 1.15-2.87 1.28-5.04a1.98 1.98 0 0 0-1.28-1.96q-3.71-1.4-13.79-4.75-2.95-.98-3.8 1.64c-2.41 7.39-6.89 14.51-13.35 18.66q-.35.22-5.18 3.31a.86.85 51.8 0 0-.15 1.32m-635.15-13.77q-1.07.11-2.7 1.21-4.02 2.7-8.28 5.76a2.83 2.83 0 0 0-1.12 2.84q.44 2.23 2.3 4.53 7.93 9.77 20.86 10.92 4.36.4 6.66-3.12c1.45-2.21 3.94-7.07 3.45-9.97a1.85 1.85 0 0 0-1.55-1.53q-10.82-1.64-18.12-10.05a1.75 1.73 66.1 0 0-1.5-.59" vector-effect="non-scaling-stroke"/><path stroke="#f7cc9b" d="M196.91 455.13q-9.19-9.01-13.74-21.46-.54-1.48-1.86-2.22a1.61 1.57 52.5 0 0-1.11-.16q-6.66 1.48-12.91 5.7a2.77 2.76 70 0 0-1.2 2.59c1.2 10.63 7.45 21.36 14.95 28.71a2.06 2.06 0 0 0 2.64.21q6.67-4.8 13.26-11.74a1.16 1.16 0 0 0-.03-1.63m628.83 26.24c.46 3.42 4.6 17.4 9.14 17.88 11.42 1.19 23.36-2.56 30.45-11.84a1.97 1.96-45.3 0 0-.01-2.39q-1.25-1.62-8.91-10.9-1.71-2.08-3.5-.67c-8.28 6.55-16.36 6.9-26.53 7.17a.66.66 0 0 0-.64.75m-9.43 79.22a1.53 1.53 0 0 0-2.1-.19q-10.08 7.89-22.66 11.4-1.84.51-8.57 2.28a1.14 1.14 0 0 0-.73 1.61q3.68 7.49 7.8 12.02 1.08 1.17 3.52.82 15.56-2.27 27.83-11.37 2.65-1.96 4.15-3.97a1.75 1.74-47.5 0 0-.09-2.2l-9.15-10.4M189.04 621.7q-8.04-9.68-10.44-21.87a1.8 1.79 79 0 0-2.09-1.42c-4.39.81-10.75 2.66-14.32 5.62a1.81 1.81 0 0 0-.65 1.62c1.14 9.19 5.06 20.67 12.07 27.1a1.75 1.75 0 0 0 2.23.11l13.06-9.88a.89.89 0 0 0 .14-1.28" vector-effect="non-scaling-stroke"/><path stroke="#fdf2b4" d="M784.98 723.59a1.2 1.18-45.4 0 0-1.5.02c-2.61 2.18-5.01 5.09-7.85 6.88q-4.13 2.59-9.81 4.82a1.04 1.03 70 0 0-.6 1.29l4.38 13.29a2.86 2.86 0 0 0 3.27 1.91q12.38-2.42 20.25-12.46 1.88-2.4 2.07-3.4a7.42 2.13-81.6 0 0 .18-1.03q.07-.47-1.63-2.52-4.38-5.29-8.76-8.8m-518.82 41.45a1.39 1.37-55 0 0-.28-1.65q-3.75-3.48-6.11-5.9c-4.23-4.32-7.17-11.01-9.39-17.42a2.51 2.51 0 0 0-2.93-1.62q-6.44 1.46-12.18 3.65-4.22 1.61-2.72 6.57 4.93 16.21 17.49 27.77 1.74 1.6 3.22.31 10.18-8.84 11.33-9.65.77-.54 1.57-2.06" vector-effect="non-scaling-stroke"/><path stroke="#f2c56b" d="M478.087 274.232a7.12 5.42-19.6 0 0-8.525-2.718 7.12 5.42-19.6 0 0-4.89 7.494 7.12 5.42-19.6 0 0 8.526 2.718 7.12 5.42-19.6 0 0 4.89-7.494m-21.423 9.225a14.19 8.08-33.7 0 0-16.288 1.15 14.19 8.08-33.7 0 0-7.322 14.596 14.19 8.08-33.7 0 0 16.288-1.15 14.19 8.08-33.7 0 0 7.322-14.596" vector-effect="non-scaling-stroke"/><path stroke="#7d6127" d="M462.404 318.768a9.53 6.24-139.4 0 0 3.175 10.94 9.53 6.24-139.4 0 0 11.297 1.464 9.53 6.24-139.4 0 0-3.175-10.94 9.53 6.24-139.4 0 0-11.297-1.464m102.738.048a9.39 6.28-41.6 0 0-11.192 1.538 9.39 6.28-41.6 0 0-2.852 10.93 9.39 6.28-41.6 0 0 11.192-1.538 9.39 6.28-41.6 0 0 2.852-10.93m-5.892 30.144q-5.77 7.28-6.64 16.78" vector-effect="non-scaling-stroke"/><path stroke="#f6c35b" d="M552.61 365.74c-2.6 11.47.96 20.64 9.63 28.56q4.99 4.56 11.21 2.72 16.34-4.82 28.22-6.07a.98.97-77.9 0 0 .75-.49c3.83-6.92 6.45-14.53 5.36-22.32q-.35-2.48-1.94-6.68-2.1-5.53-2.73-6.48c-3.21-4.84-6.25-9.26-10.24-11.79-7.77-4.94-17.07-5.03-25.62-1.15q-5.34 2.42-8 6.92" vector-effect="non-scaling-stroke"/><path stroke="#7e6638" d="M552.61 365.74q-.83 19.9 15.41 30.41a2.06 2.04-41.9 0 0 2.03.1q13.37-6.74 28.85-6.77a2.09 2.09 0 0 0 1.79-1.01q9.38-15.71 1.3-32.18c-8.16-16.62-29.67-22.18-42.74-7.33" vector-effect="non-scaling-stroke"/><path stroke="#7d6127" d="M443.96 391.32q6.98 1.52 14.62 4.86a1.95 1.93 39.9 0 0 1.83-.16c12.56-8.34 18-24.45 12.97-38.47-3.03-8.45-9.83-14.78-18.42-16.66-8.59-1.87-17.4 1.05-23.68 7.47-10.41 10.65-12.18 27.56-4.23 40.38a1.95 1.93-15.3 0 0 1.6.9q8.33.15 15.31 1.68" vector-effect="non-scaling-stroke"/><path stroke="#f9d78c" d="M355.58 384.637a12.02 5.7-164.1 0 0 9.998 8.775 12.02 5.7-164.1 0 0 13.122-2.189 12.02 5.7-164.1 0 0-9.998-8.775 12.02 5.7-164.1 0 0-13.122 2.189m316.624.221a11.91 5.59-15 0 0-12.95-2.317 11.91 5.59-15 0 0-10.058 8.481 11.91 5.59-15 0 0 12.95 2.317 11.91 5.59-15 0 0 10.058-8.481" vector-effect="non-scaling-stroke"/><path stroke="#828281" d="M568.735 350.272a8.88 8.3-97.8 0 0-7.018 9.924 8.88 8.3-97.8 0 0 9.428 7.672 8.88 8.3-97.8 0 0 7.018-9.924 8.88 8.3-97.8 0 0-9.428-7.672m25.478 29.767a4.29 3.93-10.9 0 0-4.956-3.048 4.29 3.93-10.9 0 0-3.47 4.67 4.29 3.93-10.9 0 0 4.956 3.048 4.29 3.93-10.9 0 0 3.47-4.67M458.84 350.325a8.9 8.27-83.1 0 0-9.28 7.841 8.9 8.27-83.1 0 0 7.14 9.83 8.9 8.27-83.1 0 0 9.28-7.842 8.9 8.27-83.1 0 0-7.14-9.83m-25.274 30.046a4.21 3.94-173.6 0 0 3.745 4.385 4.21 3.94-173.6 0 0 4.623-3.446 4.21 3.94-173.6 0 0-3.745-4.384 4.21 3.94-173.6 0 0-4.623 3.446" vector-effect="non-scaling-stroke"/><path stroke="#817b69" d="M387.61 813.55q3.37 8.65 9.94 16.41 2.51 2.97 5.2 4.7a.96.95-78.3 0 0 1.46-.96q-.82-5.08-1.59-8.28-.41-1.71 0-2.94a.97.96-53.2 0 1 1.71-.25c3.24 4.73 6.34 10.31 10.38 12.2a1.42 1.42 0 0 0 2.02-1.13c.47-4.49-2.19-11.2-2.99-14.79q-.24-1.09-.03-1.42a1.35 1.21 43.7 0 1 2.11.06q5.58 7.46 6.99 8.95a1 1 0 0 0 1.65-.3c1.05-2.46-.9-10.86-1.7-13.66" vector-effect="non-scaling-stroke"/><path stroke="#7a6847" d="m422.76 812.14-2.95-11.18a.96.95-13.1 0 0-1.12-.69q-17.36 3.51-34.72 1.95a.28.27 83 0 0-.28.37l3.92 10.96" vector-effect="non-scaling-stroke"/><path stroke="#f6dfad" d="M422.76 812.14q-7.58.87-15.01 1.71-7.75.88-20.14-.3" vector-effect="non-scaling-stroke"/><path stroke="#817b69" d="M605.15 811.81q-2.01 5.56-2.22 13.47a1.04 1.04 0 0 0 1.84.68l7.29-9a1.23 1.23 0 0 1 2.16 1c-.81 4.36-1.99 8.54-2.98 12.28q-.49 1.88.1 3.15a1.52 1.52 0 0 0 2.06.72q2.11-1.06 3.56-2.92 5.56-7.13 6.67-8.51a1.06 1.06 0 0 1 1.87.83l-1.67 10.44a.57.57 0 0 0 .81.6c6.64-3.18 12.83-14.91 15.5-21.69" vector-effect="non-scaling-stroke"/><path stroke="#7a6847" d="m640.14 812.86 3.61-10.14a.48.48 0 0 0-.5-.64c-11.61 1.15-22.65.15-34.07-1.72a.81.8-77.2 0 0-.91.58l-3.12 10.87" vector-effect="non-scaling-stroke"/><path stroke="#f6dfad" d="M640.14 812.86q-1.87.33-3.65.69-1.95.4-3.65.44-13.96.33-27.69-2.18" vector-effect="non-scaling-stroke"/><path stroke="#817b69" d="M496.66 407.58q-1.54.81-1.76 1.94-.38 1.91.55 3.85 4.33 9.04 13.8 12.38a.94.94 0 0 1 .63.89c.03 5.38.26 10.05-3.65 14.35-7.95 8.76-22.04 10.19-30.52 1.28q-.58-.62-2.89-3.24a1.38 1.38 0 0 0-2.36.54c-1.31 4.67 3.64 10.47 7.12 13.07a1.31 1.31 0 0 1 .52.96c1.16 14.42 4 28.74 9.56 41.71 6.15 14.34 19.61 26.33 35.6 19.14 18.95-8.53 25.02-42.91 26.27-60.73a1.23 1.21 73 0 1 .45-.86q2.58-2.07 4.09-3.77c1.68-1.89 5.98-8.65 2.44-10.53a.8.79-55.5 0 0-.98.19q-2.02 2.35-3.2 3.56c-8.79 8.91-22.35 7.44-30.77-1.61-3.68-3.95-3.54-8.4-3.48-13.71a1.33 1.33 0 0 1 .89-1.24q9.6-3.39 13.82-11.97 1.89-3.84-.55-6.05" vector-effect="non-scaling-stroke"/><path stroke="#f8d0b4" d="m532.24 407.73-1.04-1.94a1.74 1.73 1.6 0 0-.61-.64c-7.19-4.48-16.14-3.57-24.21-2.7q-6.98.75-9.72 5.13" vector-effect="non-scaling-stroke"/><path stroke="#7c5a4f" d="M532.24 407.73q-3.74 4.83-10.58 9.43c-9.53 6.41-19.59-1.43-25-9.58" vector-effect="non-scaling-stroke"/><path stroke="#f6c582" d="M694.02 489.1q4.57 5.81 11.13 9.02a1.76 1.75-49.3 0 0 1.8-.14q9.21-6.56 12.31-17.5a1.71 1.7 20.7 0 0-.91-2l-10.64-5.05a2.57 2.57 0 0 0-3.4 1.17l-3.8 7.57a2.81 2.72 82.7 0 1-.61.82l-5.81 5.29a.6.6 0 0 0-.07.82" vector-effect="non-scaling-stroke"/><path stroke="#fceb9b" d="M584.43 699.57q-9.07-.43-16.15 5.18c-1.61 1.28-1.78 2.58-1.9 4.55-.56 8.91 1.61 19.27 9.63 24.3a1.24 1.23-52.5 0 0 1.57-.21l12.14-12.97a1.26 1.25-45.2 0 0 0-1.71c-4.9-5.21-4.78-11.51-4.33-18.07a1.01 1 3.3 0 0-.96-1.07" vector-effect="non-scaling-stroke"/><path stroke="#f9d7cd" d="M511.608 407.605a4.78 2.81-1.5 0 0-4.852-2.684 4.78 2.81-1.5 0 0-4.704 2.934 4.78 2.81-1.5 0 0 4.852 2.684 4.78 2.81-1.5 0 0 4.704-2.934" vector-effect="non-scaling-stroke"/><path stroke="#828281" d="M514.91 446.89q.65 6.97-.04 12.23-.19 1.43-.48 1.75a.9.84 64.5 0 1-1.48-.58q-.63-5.71-.41-11.95a.37.37 0 0 0-.57-.32l-9.56 6.28a.52.51-26 0 0-.21.6l2.56 7.78a4.93 4.92 2.4 0 0 2.75 2.98q4.4 1.86 10.51.99c5.08-.72 6.56-8.46 6.91-12.22a.84.84 0 0 0-.45-.82q-4.91-2.61-9.15-6.89a.22.22 0 0 0-.38.17" vector-effect="non-scaling-stroke"/><path stroke="#420b07" d="M537.48 477.92q3.4-9.41 3.8-20.44a.62.62 0 0 0-.69-.63q-4.23.51-9.28-.54a1.22 1.21 12.7 0 0-1.42.89q-1.06 4.12-2.8 8.31-2.2 5.28-7.75 6.07-5.39.77-10.33.1c-4.11-.56-6.59-2.63-8.28-6.64q-1.99-4.7-2.82-8.16a.76.75 81.6 0 0-.77-.58l-10.57.42a.61.61 0 0 0-.57.72q1.2 6.37 1.98 12.13c.39 2.86 1.34 5.77 2.14 8.28a1.2 1.2 0 0 0 1.75.67q6.13-3.6 12.66-4.79 5.06-.93 16.15.13 8.08.78 15.11 4.69a1.18 1.18 0 0 0 1.69-.63" vector-effect="non-scaling-stroke"/><path stroke="#7a4f1d" d="M513.57 508.52c9.87.06 17.58-11.87 20.24-20.25a.93.92-61.6 0 0-.3-1c-4.88-4.05-13.75-5.93-19.78-5.97s-14.91 1.74-19.85 5.74a.93.92 62.3 0 0-.3.99c2.55 8.41 10.12 20.43 19.99 20.49" vector-effect="non-scaling-stroke"/><path stroke="#f7d159" d="M387.13 589.49c-4.52-1.89-11.32-4.56-16.43-4.48a2.6 2.59 12.2 0 0-2.29 1.47l-7.45 15.7a3.46 3.46 0 0 0 .25 3.42c3.05 4.57 13.46 7.57 19 6.37a1.8 1.79 89.5 0 0 1.38-1.41q1.79-9 5.55-16.79.72-1.48.44-3.68a.74.72-82.8 0 0-.45-.6" vector-effect="non-scaling-stroke"/><path stroke="#7d6127" d="M301.316 642.71a8.72 4.21-98.2 0 0-2.923 9.23 8.72 4.21-98.2 0 0 5.41 8.03 8.72 4.21-98.2 0 0 2.924-9.23 8.72 4.21-98.2 0 0-5.41-8.03" vector-effect="non-scaling-stroke"/><path stroke="#7d6127" d="M307.192 670.105a7.97 4.03-108.8 0 0-1.247 8.844 7.97 4.03-108.8 0 0 6.384 6.246 7.97 4.03-108.8 0 0 1.246-8.844 7.97 4.03-108.8 0 0-6.383-6.246" vector-effect="non-scaling-stroke"/><path stroke="#f7d159" d="M700.45 594.42a.98.97 8.8 0 0-.87-1.18c-8.05-.69-14.19-3.55-21.55-7.26q-2-1.01-3.41 1.12c-2.92 4.41-7.05 9.79-2.04 13.94q9.25 7.66 21.03 8.89a1.67 1.67 0 0 0 1.68-.94q3.61-7.65 5.16-14.57" vector-effect="non-scaling-stroke"/><path stroke="#7d6127" d="M726.56 642.92a8.73 4.25-80.1 0 0-5.687 7.87 8.73 4.25-80.1 0 0 2.686 9.33 8.73 4.25-80.1 0 0 5.688-7.87 8.73 4.25-80.1 0 0-2.686-9.33" vector-effect="non-scaling-stroke"/><path stroke="#7e6638" d="M710.277 695.773a7.92 3.97-56.8 0 0-7.659 4.453 7.92 3.97-56.8 0 0-1.015 8.801 7.92 3.97-56.8 0 0 7.659-4.453 7.92 3.97-56.8 0 0 1.015-8.801m-392.899-.106a7.98 4.11-122.2 0 0 .774 8.943 7.98 4.11-122.2 0 0 7.73 4.563 7.98 4.11-122.2 0 0-.774-8.943 7.98 4.11-122.2 0 0-7.73-4.563" vector-effect="non-scaling-stroke"/></g><path fill="#fff" d="M425.66 155.52q-.32 1.5-.22 2.23 1.29 10.21-3.26 18.37a1.38 1.37 35.5 0 0 .29 1.71c4.07 3.57 8.29 7.48 12.57 9.08a3.24 3.23 30.7 0 0 3.58-.91c6.8-7.87 7.4-20.12 5.22-29.77a2.61 2.6 83.6 0 0-2.54-2.03h-14.02a1.65 1.65 0 0 0-1.62 1.32m162.37 21.66a.62.62 0 0 0 .14.94c5.15 3.16 14.34 4.5 18.72-.83q7.31-8.9 8.1-21.1a1.09 1.09 0 0 0-1.09-1.16h-15.57a1.39 1.39 0 0 0-1.37 1.17c-1.42 8.54-3.04 14.3-8.93 20.98M260.54 493.06q.34.94-.72 2.75c-4.49 7.72-10.91 14.34-17.52 19.65a1.27 1.27 0 0 0 .11 2.06q7.6 4.86 15.35 6.88a3.55 3.54-59 0 0 3.28-.82l8.98-8.2q6.55 12.06 16.53 21.32 2.44 2.28 4.84 4.7a.79.77-57.9 0 1 .17.8q-14.94 41.62-19.49 83.31-3.43 31.54 1.42 64.57c3.87 26.29 13.92 51.96 30.93 71.81q25.8 30.09 64.84 38.28 1.47.31 5.32 1.19a.71.7.7 0 1 .54.55q3.76 17.8 14.38 31.03c4.19 5.21 11.91 11.77 18.84 8a3.43 3.42 40.4 0 1 2.78-.22q9.98 3.49 13.22-5.61a1.17 1.16-2 0 1 .62-.66q1.33-.59 3.17-1.31c9.37-3.72 1.87-27.08-.24-33.81a.53.52-15.9 0 1 .37-.66q4.72-1.25 21.06-5.75 8.86-2.44 26.55-5.05 7.21-1.07 28.43-2.21 16.86-.9 39.83 1.25 19.1 1.78 36.87 6.66 11.66 3.2 18.53 5.14a.53.53 0 0 1 .36.67q-3.56 10.67-4.94 18.58c-1.18 6.75-.62 14.21 7.41 16.02a1.73 1.71-5.5 0 1 1.2.98q4.19 9.38 13.63 5.31a1.27 1.27 0 0 1 1.13.06q6.23 3.45 12.37-.67c11.42-7.67 19.03-24.56 21.75-37.71a.88.88 0 0 1 .74-.7c49.7-7.58 84.72-45.83 96.86-92.49 7.24-27.82 8.48-57.54 5.16-85.75q-4.91-41.75-19.42-81.12a.94.93-30 0 1 .28-1.03c41.45-34.3 44.34-94.25 17.91-138.07q-11.93-19.77-33.27-31.74 1.16-1.24 2.09-2.51 4.97-6.85 8.6-14.49 1.29-2.71-1.14-3.38-8.34-2.26-16.12-4.21a2.14 2.14 0 0 0-2.44 1.14q-3.86 7.84-8.87 14.47-.75.99-2.05 1.37L689.92 362a2.6 2.6 0 0 1-1.88-1.22q-12.49-20.22-25.48-37.58a.92.92 0 0 1 .1-1.21c9.07-8.69 15.37-18.9 17.07-31.52q3.11-23.18-11.1-41.15c-18.02-22.78-51.85-24.5-71.53-2.77q-6.17 6.81-10.38 14.68a.52.52 0 0 1-.66.22q-18.73-8.27-38.95-12.11a.38.38 0 0 1-.22-.61c1.28-1.57 2.64-3.2 3.15-4.81q2.3-7.31-5.27-9.42a.88.77 48.9 0 0-.22-.03h-8.79a.68.67 4.1 0 1-.67-.77c.9-6.15-3.33-8.98-9.31-8.14-5.57.78-10.81 3.83-15.81 7.22a.53.53 0 0 1-.76-.18c-2.74-4.91-8.36-8.16-13.27-3.8q-2.13 1.89-2.88 3.04c-5.02 7.72-7.68 12.29-11.02 16.99a1.75 1.74-76.9 0 1-1.13.71q-20.13 3.59-39.2 12.09a.85.85 0 0 1-1.11-.39c-8.64-17.15-23.98-29.76-43.64-30-16.81-.2-33.23 9.37-41.7 23.71-12.95 21.92-10.04 49.81 9.66 66.88a.67.66-51.3 0 1 .09.9q-14.21 18.78-26.05 38.34a2.06 2.03 12.1 0 1-1.54.98c-48.34 5.16-76.94 47.97-80.53 93.29q-1.47 18.7 3.65 37.72m1.28-231.72a1.29 1.28-57 0 0-.29-1.37q-8.05-8.05-11.33-19.67-1.7-6.04-1.88-7.37c-.28-2.1-1.12-2.95-3.32-2.7q-4.84.57-13.42 2.02a2.3 2.29 89.1 0 0-1.89 1.95c-.66 4.87 1.66 12.22 3.36 17.26 1.49 4.4 7.58 17.44 12.97 16.94q6.32-.59 14.33-5.51 1.15-.71 1.47-1.55m495.31 12.86c4.1 3.36 12.37 4.26 17.29 4.22a1.95 1.95 0 0 0 1.72-1.06c6.15-11.78 7.53-26.8 5.79-39.98a2.17 2.16 85.1 0 0-2.23-1.88l-17.49.7a1.58 1.58 0 0 0-1.5 1.85q1.71 9.99.51 19.19c-.66 4.99-2.65 10.59-4.47 15.59a1.24 1.24 0 0 0 .38 1.37m-444.17 27.56c-2.95 1.08-11.81 5.96-11.4 9.76.89 8.4 6.97 20.04 15.85 22.29a2.98 2.98 0 0 0 3.42-1.61l5.28-11.11a1.45 1.44-59.9 0 0-.48-1.81c-5.83-4.02-8.48-9.64-10.74-16.58a1.49 1.48 70.8 0 0-1.93-.94m527.64 55.06q6 6.16 14.01 9.59a3.62 3.6-49.1 0 0 3.34-.25q13.19-8.15 18.92-22.52 1.15-2.87 1.28-5.04a1.98 1.98 0 0 0-1.28-1.96q-3.71-1.4-13.79-4.75-2.95-.98-3.8 1.64c-2.41 7.39-6.89 14.51-13.35 18.66q-.35.22-5.18 3.31a.86.85 51.8 0 0-.15 1.32m-635.15-13.77q-1.07.11-2.7 1.21-4.02 2.7-8.28 5.76a2.83 2.83 0 0 0-1.12 2.84q.44 2.23 2.3 4.53 7.93 9.77 20.86 10.92 4.36.4 6.66-3.12c1.45-2.21 3.94-7.07 3.45-9.97a1.85 1.85 0 0 0-1.55-1.53q-10.82-1.64-18.12-10.05a1.75 1.73 66.1 0 0-1.5-.59m-8.54 112.08q-9.19-9.01-13.74-21.46-.54-1.48-1.86-2.22a1.61 1.57 52.5 0 0-1.11-.16q-6.66 1.48-12.91 5.7a2.77 2.76 70 0 0-1.2 2.59c1.2 10.63 7.45 21.36 14.95 28.71a2.06 2.06 0 0 0 2.64.21q6.67-4.8 13.26-11.74a1.16 1.16 0 0 0-.03-1.63m628.83 26.24c.46 3.42 4.6 17.4 9.14 17.88 11.42 1.19 23.36-2.56 30.45-11.84a1.97 1.96-45.3 0 0-.01-2.39q-1.25-1.62-8.91-10.9-1.71-2.08-3.5-.67c-8.28 6.55-16.36 6.9-26.53 7.17a.66.66 0 0 0-.64.75m-9.43 79.22a1.53 1.53 0 0 0-2.1-.19q-10.08 7.89-22.66 11.4-1.84.51-8.57 2.28a1.14 1.14 0 0 0-.73 1.61q3.68 7.49 7.8 12.02 1.08 1.17 3.52.82 15.56-2.27 27.83-11.37 2.65-1.96 4.15-3.97a1.75 1.74-47.5 0 0-.09-2.2zM189.04 621.7q-8.04-9.68-10.44-21.87a1.8 1.79 79 0 0-2.09-1.42c-4.39.81-10.75 2.66-14.32 5.62a1.81 1.81 0 0 0-.65 1.62c1.14 9.19 5.06 20.67 12.07 27.1a1.75 1.75 0 0 0 2.23.11l13.06-9.88a.89.89 0 0 0 .14-1.28m595.94 101.89a1.2 1.18-45.4 0 0-1.5.02c-2.61 2.18-5.01 5.09-7.85 6.88q-4.13 2.59-9.81 4.82a1.04 1.03 70 0 0-.6 1.29l4.38 13.29a2.86 2.86 0 0 0 3.27 1.91q12.38-2.42 20.25-12.46 1.88-2.4 2.07-3.4a7.42 2.13-81.6 0 0 .18-1.03q.07-.47-1.63-2.52-4.38-5.29-8.76-8.8m-518.82 41.45a1.39 1.37-55 0 0-.28-1.65q-3.75-3.48-6.11-5.9c-4.23-4.32-7.17-11.01-9.39-17.42a2.51 2.51 0 0 0-2.93-1.62q-6.44 1.46-12.18 3.65-4.22 1.61-2.72 6.57 4.93 16.21 17.49 27.77 1.74 1.6 3.22.31 10.18-8.84 11.33-9.65.77-.54 1.57-2.06"/><path fill="#fae468" d="M425.66 155.52a1.65 1.65 0 0 1 1.62-1.32h14.02a2.61 2.6 83.6 0 1 2.54 2.03c2.18 9.65 1.58 21.9-5.22 29.77a3.24 3.23 30.7 0 1-3.58.91c-4.28-1.6-8.5-5.51-12.57-9.08a1.38 1.37 35.5 0 1-.29-1.71q4.55-8.16 3.26-18.37-.1-.73.22-2.23"/><path fill="#ee9936" d="M588.03 177.18c5.89-6.68 7.51-12.44 8.93-20.98a1.39 1.39 0 0 1 1.37-1.17h15.57a1.09 1.09 0 0 1 1.09 1.16q-.79 12.2-8.1 21.1c-4.38 5.33-13.57 3.99-18.72.83a.62.62 0 0 1-.14-.94"/><path fill="#050403" d="M700.77 363.44q.51.18.43.8a.61.59-21.4 0 1-.16.35l-7.11 8q-5.81-.49-11.61-.86-8.88-.57-18.43.59-2.09-.06-3.88.21-15.67 2.37-17.51 2.49-1.9.12-3.07-.18a.88.87-60 0 1-.39-1.47q1.62-1.6 3.44-2.46 8.89-4.18 19.79-6.01l13.82-1.52a.31.31 0 0 0 .22-.47q-12.16-19.99-26.36-38.59-2.93-3.84-6.87-10.59-1.72-3.05-2.19-6.07.64-.82 1.75-1.1 5.68 3.18 10.81 7.93a1.02 1.02 0 0 0 1.36.02c13.62-12.08 18.12-29.73 11.78-46.75q-4.46-11.97-15.68-19.8-11.33-7.29-23.62-5.86c-14.23 1.64-24.68 11.81-30.91 24.12a.82.8-54 0 0 .14.93q1.2 1.26 2.87 1.74l9.98 6.03a.49.48 28.5 0 0 .69-.2q2.48-5.12 5.8-9.79c6.45-9.05 18.84-15.75 29.17-8.83q1.77 1.19 2.99 3.29.67 1.16.15 1.66-.47.46-1.76.3-4.9-4.01-11.26-1.74c-8 2.85-14.14 12.37-17.23 20.79a1.22 1.21 30.4 0 0 .35 1.34q7.07 6.09 12.8 12.91 2.64 3.14 3.48 6.62-4.72-1.24-7.33-3.2-16.03-12.04-33.02-21-26.26-13.86-56.47-18.53c-4.3-.66-7.31-4.16-4.78-8.37q2.15-3.57 5.5-6.04a.34.34 0 0 0-.24-.62c-6.24.72-10.32 3.82-17.26 7.67a1.27 1.26-19.2 0 1-1.86-.89l-.23-1.35a.3.3 0 0 1 0-.1q1.27-6.69 5.46-12.59a.44.44 0 0 0-.55-.65q-6.53 3.28-13.69 10.74-1.47 1.54-4.24 3.66a1.14 1.13 65.8 0 1-1.8-.69l-1.39-7.27-1.15-4.71a.4.4 0 0 0-.74-.09q-4.09 7.83-8.76 15.01-3.28 5.05-7.64 7a5.77 5.31 24.2 0 1-.87.29q-13.52 3.25-18.67 4.81-28.34 8.57-52.73 25.76-5.54 3.91-10.5 7.49-3.25 2.34-8.39 3.83 2.44-6.82 7.8-11.85c2.87-2.7 5.6-5.44 8.76-8.18a.8.79-31.8 0 0 .22-.91q-4.44-10.87-11.67-17.29-8.31-7.38-18.13-1.89-2.01-.64-1.12-1.97 3.2-4.76 9.09-5.82c14.12-2.54 23.97 10.01 29.68 21.13a.45.45 0 0 0 .64.18l9.63-6.01 2.83-1.56a.64.64 0 0 0 .27-.83c-7.5-16.22-23.42-27.5-41.68-23.83-15.3 3.09-26.41 16.12-30.16 30.69q-4.83 24.63 13.37 41.3a1.16 1.15 43.9 0 0 1.59-.03q4.75-4.68 10.9-8.03l1.71 1.14q-1.34 5.7-4.89 10.6c-4.72 6.51-10.85 14.24-15.31 20.69q-7.96 11.54-15.72 23.95a.3.29-71.6 0 0 .22.45l10.94.91q11.52 1.56 21.97 6.3 2.67 1.21 4.48 2.95a.94.94 0 0 1-.59 1.62l-3.6.19c-20.57-4.1-43.93-6.02-63.93 1.87-19.7 7.78-34.44 23.32-43.09 42.49q-13.26 29.38-8.24 61.36.05.32-.04.88-.07.37-.08.9-3.18-.67-3.9 1.05-2.76 6.6-4.61 9.18-5.12-19.02-3.65-37.72c3.59-45.32 32.19-88.13 80.53-93.29a2.06 2.03 12.1 0 0 1.54-.98q11.84-19.56 26.05-38.34a.67.66-51.3 0 0-.09-.9c-19.7-17.07-22.61-44.96-9.66-66.88 8.47-14.34 24.89-23.91 41.7-23.71 19.66.24 35 12.85 43.64 30a.85.85 0 0 0 1.11.39q19.07-8.5 39.2-12.09a1.75 1.74-76.9 0 0 1.13-.71c3.34-4.7 6-9.27 11.02-16.99q.75-1.15 2.88-3.04c4.91-4.36 10.53-1.11 13.27 3.8a.53.53 0 0 0 .76.18c5-3.39 10.24-6.44 15.81-7.22 5.98-.84 10.21 1.99 9.31 8.14a.68.67 4.1 0 0 .67.77h8.79a.88.77 48.9 0 1 .22.03q7.57 2.11 5.27 9.42c-.51 1.61-1.87 3.24-3.15 4.81a.38.38 0 0 0 .22.61q20.22 3.84 38.95 12.11a.52.52 0 0 0 .66-.22q4.21-7.87 10.38-14.68c19.68-21.73 53.51-20.01 71.53 2.77q14.21 17.97 11.1 41.15c-1.7 12.62-8 22.83-17.07 31.52a.92.92 0 0 0-.1 1.21q12.99 17.36 25.48 37.58a2.6 2.6 0 0 0 1.88 1.22z"/><path fill="#fae468" d="M261.82 261.34q-.32.84-1.47 1.55-8.01 4.92-14.33 5.51c-5.39.5-11.48-12.54-12.97-16.94-1.7-5.04-4.02-12.39-3.36-17.26a2.3 2.29 89.1 0 1 1.89-1.95q8.58-1.45 13.42-2.02c2.2-.25 3.04.6 3.32 2.7q.18 1.33 1.88 7.37 3.28 11.62 11.33 19.67a1.29 1.28-57 0 1 .29 1.37"/><path fill="#f4bd4a" d="m634.55 301.27 3.48 3.84a1.57 1.46-81.7 0 1 .25.36l.67 1.24a1.61 1.59 85.8 0 0 .87.76q.56.2 1.07.19.47 3.02 2.19 6.07-.07 3.5.92 6.05c2.83 7.36 6.97 15.26 9.72 22.4q4.34 11.24 8.55 22.72-10.9 1.83-19.79 6.01-1.82.86-3.44 2.46a.88.87-60 0 0 .39 1.47q1.17.3 3.07.18 1.84-.12 17.51-2.49 1.79-.27 3.88-.21.36 1.37 3.07 1.38 2.85.02 3.59.11 8.97 1.08 17.13 2.56l-.87 4.86a.93.92 26.2 0 0 .29.83q1.73 1.55 4.38 2.66 8.06 3.39 14.77-.55 11.71 6.64 20.11 13.71 3.35 2.82 6.12 7.26-6.44 27.68-30.14 42.95-7.87-4.27-21.58-10.86c-11.2-5.37-22.94-8.97-35.07-8.68-14.51.34-28.22 5.05-41.68 11.2q-15.73-6.53-31.64-7.07-6.21-3.64-7.65-8.01 22.84-8.99 46.16-12.85a.36.36 0 0 0 .03-.7q-2.1-.55-4.39-.65-23.44-1.01-43.6 11.1-3.01-2.96-5.32-6.89a4.58 4.48 8.3 0 0-.67-.88q-3.14-3.25-7.53-8-1.28-1.38-6.73-5.34c-10.34-7.52-22.22-10.71-34.95-9.11q-10.48 1.32-20.96 8.36-12.86 8.63-21.35 22.3-22.38-13.63-48.64-11.02a.37.37 0 0 0-.03.74c16.05 3.04 31.46 6.95 46.7 13.31l-7.35 7.72q-10.45.09-21.3 2.97c-14.89-3.13-25.4-6.78-39.23-10.49q-22.66-6.09-43.71 3.16c-10.23 4.49-20.52 10.97-30.4 16.77-8.31-6.14-15.41-13.79-19.83-23.11q-1.71-3.61-3.45-7.18-.9-1.84-2.49-9.29.47-3.26 3.84-5.81 5.43-4.12 11.13-8.58 7.61-5.97 21.83-11.97 1.71-.73 7.67-1.79 3.43-.61 7.71-1.72c6.59-1.7 13.76-2.63 20.89-1.06 6.17 1.36 10.41 2.76 15.68.67l3.6-.19a.94.94 0 0 0 .59-1.62q-1.81-1.74-4.48-2.95-10.45-4.74-21.97-6.3c4.08-5.71 7.48-12.96 10.87-17.65 5.09-7.04 9.16-14.35 14.77-21.07q11.93-14.27 24.22-25.01 1.03-.9 10-8.34 2.55-2.11 6.58-4.71 6.75-4.35 6.81-4.38 1.33-.6 6.12-3.87c7.65-5.2 16.44-7.83 24.63-11.64q6.79-3.15 14.92-5.07c3.62-.85 7.46-2.38 9.16-4.75q3.37-4.66 5.94-7.41a3.11 2.91 80.7 0 0 .55-.82c.63-1.4 1.81-5.45 3.97-5.45q1.68.01 1.94-2.06l1.39 7.27a1.14 1.13 65.8 0 0 1.8.69q2.77-2.12 4.24-3.66 7.16-7.46 13.69-10.74a.44.44 0 0 1 .55.65q-4.19 5.9-5.46 12.59a.3.3 0 0 0 0 .1l.23 1.35a1.27 1.26-19.2 0 0 1.86.89c6.94-3.85 11.02-6.95 17.26-7.67a.34.34 0 0 1 .24.62q-3.35 2.47-5.5 6.04c-2.53 4.21.48 7.71 4.78 8.37q30.21 4.67 56.47 18.53 16.99 8.96 33.02 21 2.61 1.96 7.33 3.2m-156.463-27.038a7.12 5.42-19.6 0 0-8.525-2.718 7.12 5.42-19.6 0 0-4.89 7.494 7.12 5.42-19.6 0 0 8.526 2.718 7.12 5.42-19.6 0 0 4.89-7.494m-21.422 9.225a14.19 8.08-33.7 0 0-16.288 1.15 14.19 8.08-33.7 0 0-7.322 14.596 14.19 8.08-33.7 0 0 16.288-1.15 14.19 8.08-33.7 0 0 7.322-14.596m5.74 35.311a9.53 6.24-139.4 0 0 3.174 10.94 9.53 6.24-139.4 0 0 11.297 1.464 9.53 6.24-139.4 0 0-3.175-10.94 9.53 6.24-139.4 0 0-11.297-1.464m102.737.048a9.39 6.28-41.6 0 0-11.192 1.538 9.39 6.28-41.6 0 0-2.852 10.93 9.39 6.28-41.6 0 0 11.192-1.538 9.39 6.28-41.6 0 0 2.852-10.93m-5.892 30.144q-5.77 7.28-6.64 16.78c-2.6 11.47.96 20.64 9.63 28.56q4.99 4.56 11.21 2.72 16.34-4.82 28.22-6.07a.98.97-77.9 0 0 .75-.49c3.83-6.92 6.45-14.53 5.36-22.32q-.35-2.48-1.94-6.68-2.1-5.53-2.73-6.48c-3.21-4.84-6.25-9.26-10.24-11.79-7.77-4.94-17.07-5.03-25.62-1.15q-5.34 2.42-8 6.92m-115.29 42.36q6.98 1.52 14.62 4.86a1.95 1.93 39.9 0 0 1.83-.16c12.56-8.34 18-24.45 12.97-38.47-3.03-8.45-9.83-14.78-18.42-16.66-8.59-1.87-17.4 1.05-23.68 7.47-10.41 10.65-12.18 27.56-4.23 40.38a1.95 1.93-15.3 0 0 1.6.9q8.33.15 15.31 1.68m-88.38-6.683a12.02 5.7-164.1 0 0 9.998 8.775 12.02 5.7-164.1 0 0 13.122-2.189 12.02 5.7-164.1 0 0-9.998-8.775 12.02 5.7-164.1 0 0-13.122 2.189m316.624.22a11.91 5.59-15 0 0-12.95-2.317 11.91 5.59-15 0 0-10.058 8.482 11.91 5.59-15 0 0 12.95 2.317 11.91 5.59-15 0 0 10.058-8.481"/><path fill="#ee9936" d="M757.13 274.2a1.24 1.24 0 0 1-.38-1.37c1.82-5 3.81-10.6 4.47-15.59q1.2-9.2-.51-19.19a1.58 1.58 0 0 1 1.5-1.85l17.49-.7a2.17 2.16 85.1 0 1 2.23 1.88c1.74 13.18.36 28.2-5.79 39.98a1.95 1.95 0 0 1-1.72 1.06c-4.92.04-13.19-.86-17.29-4.22"/><path fill="#efcc8b" d="M502.65 242.04q-.26 2.07-1.94 2.06c-2.16 0-3.34 4.05-3.97 5.45a3.11 2.91 80.7 0 1-.55.82q-2.57 2.75-5.94 7.41c-1.7 2.37-5.54 3.9-9.16 4.75q-8.13 1.92-14.92 5.07c-8.19 3.81-16.98 6.44-24.63 11.64q-4.79 3.27-6.12 3.87-.06.03-6.81 4.38-4.03 2.6-6.58 4.71-8.97 7.44-10 8.34-12.29 10.74-24.22 25.01c-5.61 6.72-9.68 14.03-14.77 21.07-3.39 4.69-6.79 11.94-10.87 17.65l-10.94-.91a.3.29-71.6 0 1-.22-.45q7.76-12.41 15.72-23.95c4.46-6.45 10.59-14.18 15.31-20.69q3.55-4.9 4.89-10.6l6.27-6.24q5.14-1.49 8.39-3.83 4.96-3.58 10.5-7.49 24.39-17.19 52.73-25.76 5.15-1.56 18.67-4.81a5.77 5.31 24.2 0 0 .87-.29q4.36-1.95 7.64-7 4.67-7.18 8.76-15.01a.4.4 0 0 1 .74.09zm-74.55 26.78q-5.03-7.24-11.87-12.44-4.41-3.35-9.98-5.16-6.67-2.16-11.03-2.63-26.64-2.86-32.8 22.32a3.82 3.78-24.7 0 1-.33.88q-2.67 5.03-2.73 1.5c3.75-14.57 14.86-27.6 30.16-30.69 18.26-3.67 34.18 7.61 41.68 23.83a.64.64 0 0 1-.27.83zm222.81-20.86q-4.07.71-10.41.22c-4.64-.36-11.5.35-16.9 2.34-5.14 1.89-8.96 3.04-11.86 5.47q-6.97 5.84-12.35 12.9-1.67-.48-2.87-1.74a.82.8-54 0 1-.14-.93c6.23-12.31 16.68-22.48 30.91-24.12q12.29-1.43 23.62 5.86"/><path fill="#f4bd4a" d="M642.64 306.56q4.5-3.66 6.69-9.48.05-.13.2-.26.14-.11.21-.26 4.59-10.11 2.94-21.26-1.02-6.81-6.27-13.95 1.29.16 1.76-.3.52-.5-.15-1.66-1.22-2.1-2.99-3.29c-10.33-6.92-22.72-.22-29.17 8.83q-3.32 4.67-5.8 9.79a.49.48 28.5 0 1-.69.2l-9.98-6.03q5.38-7.06 12.35-12.9c2.9-2.43 6.72-3.58 11.86-5.47 5.4-1.99 12.26-2.7 16.9-2.34q6.34.49 10.41-.22 11.22 7.83 15.68 19.8c6.34 17.02 1.84 34.67-11.78 46.75a1.02 1.02 0 0 1-1.36-.02q-5.13-4.75-10.81-7.93M428.1 268.82l-9.63 6.01a.45.45 0 0 1-.64-.18c-5.71-11.12-15.56-23.67-29.68-21.13q-5.89 1.06-9.09 5.82-.89 1.33 1.12 1.97-4.73 11.45-5.25 15.18-.99 7.05.21 11.13 1.34 4.52 2.96 9.03a5.08 5.05-73.6 0 0 .72 1.33q1.31 1.74 2.11 3.73a2.43 2.42-77.7 0 0 .48.75l3.81 4.07q-6.15 3.35-10.9 8.03a1.16 1.15 43.9 0 1-1.59.03q-18.2-16.67-13.37-41.3.06 3.53 2.73-1.5a3.82 3.78-24.7 0 0 .33-.88q6.16-25.18 32.8-22.32 4.36.47 11.03 2.63 5.57 1.81 9.98 5.16 6.84 5.2 11.87 12.44"/><path fill="#f2af9a" d="m393.2 301.43-6.27 6.24-1.71-1.14-3.81-4.07a2.43 2.42-77.7 0 1-.48-.75q-.8-1.99-2.11-3.73a5.08 5.05-73.6 0 1-.72-1.33q-1.62-4.51-2.96-9.03-1.2-4.08-.21-11.13.52-3.73 5.25-15.18 9.82-5.49 18.13 1.89 7.23 6.42 11.67 17.29a.8.79-31.8 0 1-.22.91c-3.16 2.74-5.89 5.48-8.76 8.18q-5.36 5.03-7.8 11.85m253.21-40.08q5.25 7.14 6.27 13.95 1.65 11.15-2.94 21.26-.07.15-.21.26-.15.13-.2.26-2.19 5.82-6.69 9.48-1.11.28-1.75 1.1-.51.01-1.07-.19a1.61 1.59 85.8 0 1-.87-.76l-.67-1.24a1.57 1.46-81.7 0 0-.25-.36l-3.48-3.84q-.84-3.48-3.48-6.62-5.73-6.82-12.8-12.91a1.22 1.21 30.4 0 1-.35-1.34c3.09-8.42 9.23-17.94 17.23-20.79q6.36-2.27 11.26 1.74"/><ellipse fill="#efcc8b" rx="7.12" ry="5.42" transform="rotate(-19.6 1036.42 -1226.19)"/><ellipse fill="#efcc8b" rx="14.19" ry="8.08" transform="rotate(-33.7 703.379 -588.742)"/><path fill="#ee9936" d="M312.96 301.76a1.49 1.48 70.8 0 1 1.93.94c2.26 6.94 4.91 12.56 10.74 16.58a1.45 1.44-59.9 0 1 .48 1.81l-5.28 11.11a2.98 2.98 0 0 1-3.42 1.61c-8.88-2.25-14.96-13.89-15.85-22.29-.41-3.8 8.45-8.68 11.4-9.76m349.31 63.14q-4.21-11.48-8.55-22.72c-2.75-7.14-6.89-15.04-9.72-22.4q-.99-2.55-.92-6.05 3.94 6.75 6.87 10.59 14.2 18.6 26.36 38.59a.31.31 0 0 1-.22.47z"/><ellipse fill="#050403" rx="9.53" ry="6.24" transform="rotate(220.6 294.925 75.622)"/><ellipse fill="#050403" rx="9.39" ry="6.28" transform="rotate(-41.6 706.91 -572.106)"/><path fill="#fae468" d="M840.6 356.82a.86.85 51.8 0 1 .15-1.32q4.83-3.09 5.18-3.31c6.46-4.15 10.94-11.27 13.35-18.66q.85-2.62 3.8-1.64 10.08 3.35 13.79 4.75a1.98 1.98 0 0 1 1.28 1.96q-.13 2.17-1.28 5.04-5.73 14.37-18.92 22.52a3.62 3.6-49.1 0 1-3.34.25q-8.01-3.43-14.01-9.59"/><path fill="#f7c86c" d="M552.61 365.74q-.83 19.9 15.41 30.41a2.06 2.04-41.9 0 0 2.03.1q13.37-6.74 28.85-6.77a2.09 2.09 0 0 0 1.79-1.01q9.38-15.71 1.3-32.18c-8.16-16.62-29.67-22.18-42.74-7.33q2.66-4.5 8-6.92c8.55-3.88 17.85-3.79 25.62 1.15 3.99 2.53 7.03 6.95 10.24 11.79q.63.95 2.73 6.48 1.59 4.2 1.94 6.68c1.09 7.79-1.53 15.4-5.36 22.32a.98.97-77.9 0 1-.75.49q-11.88 1.25-28.22 6.07-6.22 1.84-11.21-2.72c-8.67-7.92-12.23-17.09-9.63-28.56"/><path fill="#050403" d="M552.61 365.74q.87-9.5 6.64-16.78c13.07-14.85 34.58-9.29 42.74 7.33q8.08 16.47-1.3 32.18a2.09 2.09 0 0 1-1.79 1.01q-15.48.03-28.85 6.77a2.06 2.04-41.9 0 1-2.03-.1q-16.24-10.51-15.41-30.41m16.125-15.468a8.88 8.3-97.8 0 0-7.018 9.924 8.88 8.3-97.8 0 0 9.428 7.672 8.88 8.3-97.8 0 0 7.018-9.924 8.88 8.3-97.8 0 0-9.428-7.672m25.478 29.767a4.29 3.93-10.9 0 0-4.956-3.048 4.29 3.93-10.9 0 0-3.47 4.67 4.29 3.93-10.9 0 0 4.956 3.048 4.29 3.93-10.9 0 0 3.47-4.67M454.96 340.89c8.59 1.88 15.39 8.21 18.42 16.66 5.03 14.02-.41 30.13-12.97 38.47a1.95 1.93 39.9 0 1-1.83.16q-7.64-3.34-14.62-4.86-6.98-1.53-15.31-1.68a1.95 1.93-15.3 0 1-1.6-.9c-7.95-12.82-6.18-29.73 4.23-40.38 6.28-6.42 15.09-9.34 23.68-7.47m3.88 9.435a8.9 8.27-83.1 0 0-9.28 7.841 8.9 8.27-83.1 0 0 7.14 9.83 8.9 8.27-83.1 0 0 9.28-7.842 8.9 8.27-83.1 0 0-7.14-9.83m-25.274 30.046a4.21 3.94-173.6 0 0 3.745 4.384 4.21 3.94-173.6 0 0 4.623-3.446 4.21 3.94-173.6 0 0-3.745-4.384 4.21 3.94-173.6 0 0-4.623 3.446"/><path fill="#fae468" d="M205.45 343.05a1.75 1.73 66.1 0 1 1.5.59q7.3 8.41 18.12 10.05a1.85 1.85 0 0 1 1.55 1.53c.49 2.9-2 7.76-3.45 9.97q-2.3 3.52-6.66 3.12-12.93-1.15-20.86-10.92-1.86-2.3-2.3-4.53a2.83 2.83 0 0 1 1.12-2.84q4.26-3.06 8.28-5.76 1.63-1.1 2.7-1.21"/><path fill="#ee9936" d="m720.7 371.05-7.64 7.61a.58.56 61.5 0 0-.15.53q.04.17.08.29l-.82.22a1.53 1.42 16.2 0 0-.52.26l-5.4 4.21q-6.71 3.94-14.77.55-2.65-1.11-4.38-2.66a.93.92 26.2 0 1-.29-.83l.87-4.86q3.44.25 6.25-3.78l7.11-8a.61.59-21.4 0 0 .16-.35q.08-.62-.43-.8 1.3-.38 2.05-1.37 5.01-6.63 8.87-14.47a2.14 2.14 0 0 1 2.44-1.14q7.78 1.95 16.12 4.21 2.43.67 1.14 3.38-3.63 7.64-8.6 14.49-.93 1.27-2.09 2.51"/><ellipse fill="#fff" rx="8.9" ry="8.27" transform="rotate(-83.1 431.507 -78.673)"/><ellipse fill="#fff" rx="8.88" ry="8.3" transform="rotate(-97.8 441.588 -69.06)"/><path fill="#050403" d="M720.7 371.05q21.34 11.97 33.27 31.74c26.43 43.82 23.54 103.77-17.91 138.07a.94.93-30 0 0-.28 1.03q14.51 39.37 19.42 81.12c3.32 28.21 2.08 57.93-5.16 85.75-12.14 46.66-47.16 84.91-96.86 92.49a.88.88 0 0 0-.74.7c-2.72 13.15-10.33 30.04-21.75 37.71q-6.14 4.12-12.37.67a1.27 1.27 0 0 0-1.13-.06q-9.44 4.07-13.63-5.31a1.73 1.71-5.5 0 0-1.2-.98c-8.03-1.81-8.59-9.27-7.41-16.02q1.38-7.91 4.94-18.58a.53.53 0 0 0-.36-.67q-6.87-1.94-18.53-5.14-17.77-4.88-36.87-6.66-22.97-2.15-39.83-1.25-21.22 1.14-28.43 2.21-17.69 2.61-26.55 5.05-16.34 4.5-21.06 5.75a.53.52-15.9 0 0-.37.66c2.11 6.73 9.61 30.09.24 33.81q-1.84.72-3.17 1.31a1.17 1.16-2 0 0-.62.66q-3.24 9.1-13.22 5.61a3.43 3.42 40.4 0 0-2.78.22c-6.93 3.77-14.65-2.79-18.84-8q-10.62-13.23-14.38-31.03a.71.7.7 0 0-.54-.55q-3.85-.88-5.32-1.19-39.04-8.19-64.84-38.28c-17.01-19.85-27.06-45.52-30.93-71.81q-4.85-33.03-1.42-64.57 4.55-41.69 19.49-83.31a.79.77-57.9 0 0-.17-.8q-2.4-2.42-4.84-4.7-9.98-9.26-16.53-21.32l7.41-10.05q6.37 13.51 15.35 22.4c17.43 17.25 41.15 27.07 65.52 28.65 26.42 1.72 54.25-5.31 77.81-17q8.26-4.1 20.69-11.28 4.19-1.5 6.94-.32c-9.55 9.48-21.41 16.71-33.31 22.72q-39.26 19.39-80.93 15.07-16.95-1.76-37.7-11.41-3.52-1.64-10.99-6.17a.49.49 0 0 0-.72.27l-4.85 14.87q-5.96 21.35-8.8 36.1-6.54 34.03-4.84 71.03.14 2.97 1.22 7.21-.34 2.67.59 5.97c3.32 30.8 16.38 61.43 39.22 81.86q17.62 15.77 40.76 22.83c22.1 6.75 46.59 5.46 68.91-.62q5.85-1.59 17.41-5.35 3.46-1.13 16.61-3.3 47.15-7.93 94.39-.19c5.38.95 11.17 1.81 16.09 3.23q19.39 5.62 19.78 5.73 15.34 4.27 33.17 4.77 13.07.37 22.65-1.51c15.77-3.1 31.82-9.24 44.46-19.09 11.86-9.25 21.17-19.03 28.9-32.47q9.23-16.05 12.94-28.87 4.49-15.48 6.87-37.5-.17 2.04 0 1.91a.15.15 0 0 0 .04-.07q3.69-57.49-13.48-111.06l-4.7-15.16a.74.73-24.7 0 0-1.1-.4q-20.43 13-44.49 16.77c-22.35 3.5-48.09-.17-69.6-7.91q-6.48-2.33-15.17-6.46-18.46-8.75-33.67-23.05 3.85-1.01 7.13.9 14.59 7.96 24.36 12.67c23.4 11.29 52.23 17.47 78.38 14.93q29.91-2.92 54.25-21.79 10.28-7.96 18.82-21.38 12.56-19.72 13.19-42.28c2-27.62-6.51-56.44-26.23-76.48q-8.56-8.89-20.31-14.62-.04-.12-.08-.29a.58.56 61.5 0 1 .15-.53zm-333.09 442.5q3.37 8.65 9.94 16.41 2.51 2.97 5.2 4.7a.96.95-78.3 0 0 1.46-.96q-.82-5.08-1.59-8.28-.41-1.71 0-2.94a.97.96-53.2 0 1 1.71-.25c3.24 4.73 6.34 10.31 10.38 12.2a1.42 1.42 0 0 0 2.02-1.13c.47-4.49-2.19-11.2-2.99-14.79q-.24-1.09-.03-1.42a1.35 1.21 43.7 0 1 2.11.06q5.58 7.46 6.99 8.95a1 1 0 0 0 1.65-.3c1.05-2.46-.9-10.86-1.7-13.66l-2.95-11.18a.96.95-13.1 0 0-1.12-.69q-17.36 3.51-34.72 1.95a.28.27 83 0 0-.28.37zm217.54-1.74q-2.01 5.56-2.22 13.47a1.04 1.04 0 0 0 1.84.68l7.29-9a1.23 1.23 0 0 1 2.16 1c-.81 4.36-1.99 8.54-2.98 12.28q-.49 1.88.1 3.15a1.52 1.52 0 0 0 2.06.72q2.11-1.06 3.56-2.92 5.56-7.13 6.67-8.51a1.06 1.06 0 0 1 1.87.83l-1.67 10.44a.57.57 0 0 0 .81.6c6.64-3.18 12.83-14.91 15.5-21.69l3.61-10.14a.48.48 0 0 0-.5-.64c-11.61 1.15-22.65.15-34.07-1.72a.81.8-77.2 0 0-.91.58z"/><path fill="#efcc8b" d="M693.93 372.59q-2.81 4.03-6.25 3.78-8.16-1.48-17.13-2.56-.74-.09-3.59-.11-2.71-.01-3.07-1.38 9.55-1.16 18.43-.59 5.8.37 11.61.86m-309.5 2.74c-5.27 2.09-9.51.69-15.68-.67-7.13-1.57-14.3-.64-20.89 1.06q-4.28 1.11-7.71 1.72-5.96 1.06-7.67 1.79-14.22 6-21.83 11.97-5.7 4.46-11.13 8.58-3.37 2.55-3.84 5.81-.79-2.81-.94-6.09-.08-1.84.77-3.45a1.82 1.75 86.9 0 1 .55-.64q2.73-2.02 5.9-5.21 1.04-1.04 4.97-3.49 6.56-4.1 13.32-8.28 1.64-1.02.25-1.23c20-7.89 43.36-5.97 63.93-1.87"/><ellipse fill="#fff" rx="4.21" ry="3.94" transform="rotate(186.4 229.521 178.183)"/><ellipse fill="#fff" rx="4.29" ry="3.93" transform="rotate(-10.9 2290.894 -2901.547)"/><path fill="#fdf1ce" d="M320.5 377.2q1.39.21-.25 1.23-6.76 4.18-13.32 8.28-3.93 2.45-4.97 3.49-3.17 3.19-5.9 5.21a1.82 1.75 86.9 0 0-.55.64q-.85 1.61-.77 3.45.15 3.28.94 6.09 1.59 7.45 2.49 9.29 1.74 3.57 3.45 7.18c4.42 9.32 11.52 16.97 19.83 23.11 30.94 22.28 73.19 23.89 107 7.3q10.18-4.99 20.12-13.88 7.63-1.78 17.11-2.51 1.09-.08 1.61-.5a.99.98 33 0 0-.37-1.72q-4.79-1.25-10.83-1.1l7.35-7.72 6.14 2.13a.42.41 76.6 0 0 .42-.69l-4.59-4.47q8.49-13.67 21.35-22.3 10.48-7.04 20.96-8.36c12.73-1.6 24.61 1.59 34.95 9.11q5.45 3.96 6.73 5.34 4.39 4.75 7.53 8a4.58 4.48 8.3 0 1 .67.88q2.31 3.93 5.32 6.89l-5.07 4.6a.56.55-76.6 0 0 .57.93l6.3-2.43q1.44 4.37 7.65 8.01l-11.59.76a1.03 1.03 0 0 0-.1 2.04l17.9 2.95q7.01 6.06 14.45 10.61 6.92 4.23 12.33 6.37 23.4 9.24 49.63 7.67 26.85-1.61 47.35-14.99 23.7-15.27 30.14-42.95 1.1-4.61.82-11.04c19.72 20.04 28.23 48.86 26.23 76.48l-4.65 9.14a.2.04-79.1 0 0-.02.05q-3.72 9.95-10.08 16.78-2.33 2.5-6.09 6.54c-4.77 5.13-10.57 10.49-14.72 14.18-1.44 1.29-3.27 2.26-5.11 3.59q-1.77 1.27-3.99 2.43-16.04 8.33-22.16 10.72c-23.52 9.18-47.14 10.21-72.12 6.56q-11.95-1.74-20.64-4.36-12.26-3.69-22.88-6.56a3.93 3.92-19.4 0 1-1.32-.63q-.5-.37-1.69-.55a1.3 1.22-46.7 0 0-.52.03q-.62.17-.99-.06a1.88 1.76 58.5 0 0-.98-.27q-.64 0-1.04.26-3.28-1.91-7.13-.9-3.55-.12-9.15.17-.57.03-.77.5-.19.44.23.66 3.99 2.14 8.51 6.04a10.88 10.53-8.4 0 0 1.52 1.09q7.41 4.46 14.77 9.98 1.68 1.26 8.93 5 2.17 1.12 6.12 4.18a1.73 1.15 0 0 0 .27.18l8.74 4.6q3.32 4.17 5.94 9.05 2.74 5.08 5.5 9.99-25.07 13.19-45.46 32.84-3.86 3.71-7.87 8.66-3 3.7-1.97 8.19a2.61 2.56 50.7 0 1-.15 1.64q-3.92 8.97 4.25 14.55-1.14.93-1.8 1.13a1 .99 71.1 0 0-.65 1.34q3.07 7.65 9.89 12.37 10.68 7.4 21.99 9.25 11.8 1.92 23.08 1.31c7.11-.39 13.4-1.86 20.38-4.11q1.77-.58 2.74.37-.66 37.9-21.28 68.44-4.71 6.98-10.53 13-5.66 5.85-12.34 11.34-2.55 2.09-4.57 3.16c-1.73.3-3.59.57-5.31.4q-10.18-1.04-28.92-3.25-54.05-6.39-108.55 3.82-3.51.66-8.25-.03-9.61-6.54-13.04-10.3-2.86-3.14-5.01-4.09l4.39-1.61a1.98 1.96 3.1 0 0 1.09-.97q2.04-4.07 2.8-9.03a.98.98 0 0 0-.39-.94q-3.77-2.76-5.56-4.15c-3.27-2.54-5.56-7.58-7.51-12.21a1.19 1.17-16 0 0-1.28-.7c-3.94.66-6.55 2.74-10.22 5.66q-5.83-10.26-9.69-23.78-5.17-18.13-5.17-35.63 4.59 1.05 8.95 2.21 5.67 1.5 9.01 1.81c19.93 1.89 47.28-.9 58.78-20.53q.82-1.41.54-2.52-.29-1.17-1.38-2.26 4.96-2.65 5.07-7.83.05-2.21-1.29-6.03a2.02 1.97-45.7 0 1 0-1.29q1.51-4.46-2.38-9.27-5.63-6.96-11.24-12.1-18.34-16.79-41.36-28.77 3.62-5.63 6.46-11.52 1.1-2.3 5.12-7.06 2.14-1.33 3.6-3.38a2.32 2.22-84.9 0 1 .8-.7c6.96-3.62 13.51-6.91 19.4-11q7.87-5.45 9.37-6.32c5.09-2.96 9.2-6.93 14.14-10.27a.49.49 0 0 0-.26-.89l-8.69-.14q-2.75-1.18-6.94.32-14.47 3.38-21.75 5.7-28.45 9.1-55.55 8.81-35.06-.38-66.37-19.23-17.84-10.74-31.45-28.33l2.52-8.16a.83.83 0 0 0-.41-.98c-2.48-1.29-6.47-1.67-13.11-2.93q-.08-.02-.57-.3-.27-.16-.48-.4a.29.29 0 0 0-.5.13l-.08.42q.01-.53.08-.9.09-.56.04-.88-5.02-31.98 8.24-61.36c8.65-19.17 23.39-34.71 43.09-42.49m176.16 30.38q-1.54.81-1.76 1.94-.38 1.91.55 3.85 4.33 9.04 13.8 12.38a.94.94 0 0 1 .63.89c.03 5.38.26 10.05-3.65 14.35-7.95 8.76-22.04 10.19-30.52 1.28q-.58-.62-2.89-3.24a1.38 1.38 0 0 0-2.36.54c-1.31 4.67 3.64 10.47 7.12 13.07a1.31 1.31 0 0 1 .52.96c1.16 14.42 4 28.74 9.56 41.71 6.15 14.34 19.61 26.33 35.6 19.14 18.95-8.53 25.02-42.91 26.27-60.73a1.23 1.21 73 0 1 .45-.86q2.58-2.07 4.09-3.77c1.68-1.89 5.98-8.65 2.44-10.53a.8.79-55.5 0 0-.98.19q-2.02 2.35-3.2 3.56c-8.79 8.91-22.35 7.44-30.77-1.61-3.68-3.95-3.54-8.4-3.48-13.71a1.33 1.33 0 0 1 .89-1.24q9.6-3.39 13.82-11.97 1.89-3.84-.55-6.05l-1.04-1.94a1.74 1.73 1.6 0 0-.61-.64c-7.19-4.48-16.14-3.57-24.21-2.7q-6.98.75-9.72 5.13m197.36 81.52q4.57 5.81 11.13 9.02a1.76 1.75-49.3 0 0 1.8-.14q9.21-6.56 12.31-17.5a1.71 1.7 20.7 0 0-.91-2l-10.64-5.05a2.57 2.57 0 0 0-3.4 1.17l-3.8 7.57a2.81 2.72 82.7 0 1-.61.82l-5.81 5.29a.6.6 0 0 0-.07.82M584.43 699.57q-9.07-.43-16.15 5.18c-1.61 1.28-1.78 2.58-1.9 4.55-.56 8.91 1.61 19.27 9.63 24.3a1.24 1.23-52.5 0 0 1.57-.21l12.14-12.97a1.26 1.25-45.2 0 0 0-1.71c-4.9-5.21-4.78-11.51-4.33-18.07a1.01 1 3.3 0 0-.96-1.07"/><path fill="#efcc8b" d="M712.99 379.48q11.75 5.73 20.31 14.62.28 6.43-.82 11.04-2.77-4.44-6.12-7.26-8.4-7.07-20.11-13.71l5.4-4.21a1.53 1.42 16.2 0 1 .52-.26z"/><ellipse fill="#fdf1ce" rx="12.02" ry="5.7" transform="rotate(195.9 210.657 168.33)"/><ellipse fill="#fdf1ce" rx="11.91" ry="5.59" transform="rotate(-15 1803.698 -2315.287)"/><path fill="#f2af9a" d="M532.24 407.73q-3.74 4.83-10.58 9.43c-9.53 6.41-19.59-1.43-25-9.58q2.74-4.38 9.72-5.13c8.07-.87 17.02-1.78 24.21 2.7a1.74 1.73 1.6 0 1 .61.64zm-20.632-.125a4.78 2.81-1.5 0 0-4.852-2.684 4.78 2.81-1.5 0 0-4.704 2.934 4.78 2.81-1.5 0 0 4.852 2.684 4.78 2.81-1.5 0 0 4.704-2.934"/><ellipse fill="#fff" rx="4.78" ry="2.81" transform="rotate(-1.5 15826.664 -19154.51)"/><path fill="#050403" d="M496.66 407.58c5.41 8.15 15.47 15.99 25 9.58q6.84-4.6 10.58-9.43 2.44 2.21.55 6.05-4.22 8.58-13.82 11.97a1.33 1.33 0 0 0-.89 1.24c-.06 5.31-.2 9.76 3.48 13.71 8.42 9.05 21.98 10.52 30.77 1.61q1.18-1.21 3.2-3.56a.8.79-55.5 0 1 .98-.19c3.54 1.88-.76 8.64-2.44 10.53q-1.51 1.7-4.09 3.77a1.23 1.21 73 0 0-.45.86c-1.25 17.82-7.32 52.2-26.27 60.73-15.99 7.19-29.45-4.8-35.6-19.14-5.56-12.97-8.4-27.29-9.56-41.71a1.31 1.31 0 0 0-.52-.96c-3.48-2.6-8.43-8.4-7.12-13.07a1.38 1.38 0 0 1 2.36-.54q2.31 2.62 2.89 3.24c8.48 8.91 22.57 7.48 30.52-1.28 3.91-4.3 3.68-8.97 3.65-14.35a.94.94 0 0 0-.63-.89q-9.47-3.34-13.8-12.38-.93-1.94-.55-3.85.22-1.13 1.76-1.94m18.25 39.31q.65 6.97-.04 12.23-.19 1.43-.48 1.75a.9.84 64.5 0 1-1.48-.58q-.63-5.71-.41-11.95a.37.37 0 0 0-.57-.32l-9.56 6.28a.52.51-26 0 0-.21.6l2.56 7.78a4.93 4.92 2.4 0 0 2.75 2.98q4.4 1.86 10.51.99c5.08-.72 6.56-8.46 6.91-12.22a.84.84 0 0 0-.45-.82q-4.91-2.61-9.15-6.89a.22.22 0 0 0-.38.17m22.57 31.03q3.4-9.41 3.8-20.44a.62.62 0 0 0-.69-.63q-4.23.51-9.28-.54a1.22 1.21 12.7 0 0-1.42.89q-1.06 4.12-2.8 8.31-2.2 5.28-7.75 6.07-5.39.77-10.33.1c-4.11-.56-6.59-2.63-8.28-6.64q-1.99-4.7-2.82-8.16a.76.75 81.6 0 0-.77-.58l-10.57.42a.61.61 0 0 0-.57.72q1.2 6.37 1.98 12.13c.39 2.86 1.34 5.77 2.14 8.28a1.2 1.2 0 0 0 1.75.67q6.13-3.6 12.66-4.79 5.06-.93 16.15.13 8.08.78 15.11 4.69a1.18 1.18 0 0 0 1.69-.63m-23.91 30.6c9.87.06 17.58-11.87 20.24-20.25a.93.92-61.6 0 0-.3-1c-4.88-4.05-13.75-5.93-19.78-5.97s-14.91 1.74-19.85 5.74a.93.92 62.3 0 0-.3.99c2.55 8.41 10.12 20.43 19.99 20.49m51.15-83.85-6.3 2.43a.56.55-76.6 0 1-.57-.93l5.07-4.6q20.16-12.11 43.6-11.1 2.29.1 4.39.65a.36.36 0 0 1-.03.7q-23.32 3.86-46.16 12.85m-99.31-2.66 4.59 4.47a.42.41 76.6 0 1-.42.69l-6.14-2.13c-15.24-6.36-30.65-10.27-46.7-13.31a.37.37 0 0 1 .03-.74q26.26-2.61 48.64 11.02"/><path fill="#f7c86c" d="M434.79 435.73q-10.61 3.09-20.09 8.46-1.17.66-2.09 1.5a.24.24 0 0 0 .22.41q16.9-4.72 35.74-7.51-9.94 8.89-20.12 13.88c-33.81 16.59-76.06 14.98-107-7.3 9.88-5.8 20.17-12.28 30.4-16.77q21.05-9.25 43.71-3.16c13.83 3.71 24.34 7.36 39.23 10.49m267.55 12.36q-20.5 13.38-47.35 14.99-26.23 1.57-49.63-7.67-5.41-2.14-12.33-6.37-7.44-4.55-14.45-10.61 18.78 2.88 36.14 8.17a.35.35 0 0 0 .28-.64l-10.99-6.21c13.46-6.15 27.17-10.86 41.68-11.2 12.13-.29 23.87 3.31 35.07 8.68q13.71 6.59 21.58 10.86"/><path fill="#ee9936" d="M196.91 455.13a1.16 1.16 0 0 1 .03 1.63q-6.59 6.94-13.26 11.74a2.06 2.06 0 0 1-2.64-.21c-7.5-7.35-13.75-18.08-14.95-28.71a2.77 2.76 70 0 1 1.2-2.59q6.25-4.22 12.91-5.7a1.61 1.57 52.5 0 1 1.11.16q1.32.74 1.86 2.22 4.55 12.45 13.74 21.46"/><path fill="#050403" d="M456.09 432.76q6.04-.15 10.83 1.1a.99.98 33 0 1 .37 1.72q-.52.42-1.61.5-9.48.73-17.11 2.51-18.84 2.79-35.74 7.51a.24.24 0 0 1-.22-.41q.92-.84 2.09-1.5 9.48-5.37 20.09-8.46 10.85-2.88 21.3-2.97m116.28-.08q15.91.54 31.64 7.07l10.99 6.21a.35.35 0 0 1-.28.64q-17.36-5.29-36.14-8.17l-17.9-2.95a1.03 1.03 0 0 1 .1-2.04z"/><path fill="#fff" d="M515.29 446.72q4.24 4.28 9.15 6.89a.84.84 0 0 1 .45.82c-.35 3.76-1.83 11.5-6.91 12.22q-6.11.87-10.51-.99a4.93 4.92 2.4 0 1-2.75-2.98l-2.56-7.78a.52.51-26 0 1 .21-.6l9.56-6.28a.37.37 0 0 1 .57.32q-.22 6.24.41 11.95a.9.84 64.5 0 0 1.48.58q.29-.32.48-1.75.69-5.26.04-12.23a.22.22 0 0 1 .38-.17"/><path fill="#7e120b" d="M537.48 477.92a1.18 1.18 0 0 1-1.69.63q-7.03-3.91-15.11-4.69-11.09-1.06-16.15-.13-6.53 1.19-12.66 4.79a1.2 1.2 0 0 1-1.75-.67c-.8-2.51-1.75-5.42-2.14-8.28q-.78-5.76-1.98-12.13a.61.61 0 0 1 .57-.72l10.57-.42a.76.75 81.6 0 1 .77.58q.83 3.46 2.82 8.16c1.69 4.01 4.17 6.08 8.28 6.64q4.94.67 10.33-.1 5.55-.79 7.75-6.07 1.74-4.19 2.8-8.31a1.22 1.21 12.7 0 1 1.42-.89q5.05 1.05 9.28.54a.62.62 0 0 1 .69.63q-.4 11.03-3.8 20.44"/><path fill="#efcc8b" d="M759.53 470.58q-.63 22.56-13.19 42.28-8.54 13.42-18.82 21.38-24.34 18.87-54.25 21.79c-26.15 2.54-54.98-3.64-78.38-14.93q-9.77-4.71-24.36-12.67.4-.26 1.04-.26a1.88 1.76 58.5 0 1 .98.27q.37.23.99.06a1.3 1.22-46.7 0 1 .52-.03q1.19.18 1.69.55a3.93 3.92-19.4 0 0 1.32.63q10.62 2.87 22.88 6.56 8.69 2.62 20.64 4.36c24.98 3.65 48.6 2.62 72.12-6.56q6.12-2.39 22.16-10.72 2.22-1.16 3.99-2.43c1.84-1.33 3.67-2.3 5.11-3.59 4.15-3.69 9.95-9.05 14.72-14.18q3.76-4.04 6.09-6.54 6.36-6.83 10.08-16.78a.2.04-79.1 0 1 .02-.05z"/><path fill="#ee9936" d="M825.74 481.37a.66.66 0 0 1 .64-.75c10.17-.27 18.25-.62 26.53-7.17q1.79-1.41 3.5.67 7.66 9.28 8.91 10.9a1.97 1.96-45.3 0 1 .01 2.39c-7.09 9.28-19.03 13.03-30.45 11.84-4.54-.48-8.68-14.46-9.14-17.88m-131.72 7.73a.6.6 0 0 1 .07-.82l5.81-5.29a2.81 2.72 82.7 0 0 .61-.82l3.8-7.57a2.57 2.57 0 0 1 3.4-1.17l10.64 5.05a1.71 1.7 20.7 0 1 .91 2q-3.1 10.94-12.31 17.5a1.76 1.75-49.3 0 1-1.8.14q-6.56-3.21-11.13-9.02m-180.29-7.8c6.03.04 14.9 1.92 19.78 5.97a.93.92-61.6 0 1 .3 1c-2.66 8.38-10.37 20.31-20.24 20.25s-17.44-12.08-19.99-20.49a.93.92 62.3 0 1 .3-.99c4.94-4 13.82-5.78 19.85-5.74m-232.05 13.75-4.25 10.28-7.41 10.05-8.98 8.2a3.55 3.54-59 0 1-3.28.82q-7.75-2.02-15.35-6.88a1.27 1.27 0 0 1-.11-2.06c6.61-5.31 13.03-11.93 17.52-19.65q1.06-1.81.72-2.75 1.85-2.58 4.61-9.18.72-1.72 3.9-1.05l.08-.42a.29.29 0 0 1 .5-.13q.21.24.48.4.49.28.57.3c6.64 1.26 10.63 1.64 13.11 2.93a.83.83 0 0 1 .41.98z"/><path fill="#efcc8b" d="M281.68 495.05q13.61 17.59 31.45 28.33 31.31 18.85 66.37 19.23 27.1.29 55.55-8.81 7.28-2.32 21.75-5.7-12.43 7.18-20.69 11.28c-23.56 11.69-51.39 18.72-77.81 17-24.37-1.58-48.09-11.4-65.52-28.65q-8.98-8.89-15.35-22.4zm281.72 32.48q15.21 14.3 33.67 23.05.71 5.2 5.29 8.73l.21.62-8.74-4.6a1.73 1.15 0 0 1-.27-.18q-3.95-3.06-6.12-4.18-7.25-3.74-8.93-5-7.36-5.52-14.77-9.98a10.88 10.53-8.4 0 1-1.52-1.09q-4.52-3.9-8.51-6.04-.42-.22-.23-.66.2-.47.77-.5 5.6-.29 9.15-.17m-138.02 32.95q1.28-2.97 4.68-5.33a1.36 1.33-11.1 0 0 .53-.77q.44-1.82-.16-3.88c11.9-6.01 23.76-13.24 33.31-22.72l8.69.14a.49.49 0 0 1 .26.89c-4.94 3.34-9.05 7.31-14.14 10.27q-1.5.87-9.37 6.32c-5.89 4.09-12.44 7.38-19.4 11a2.32 2.22-84.9 0 0-.8.7q-1.46 2.05-3.6 3.38"/><path fill="#f4bd4a" d="M430.43 550.5q.6 2.06.16 3.88a1.36 1.33-11.1 0 1-.53.77q-3.4 2.36-4.68 5.33-4.02 4.76-5.12 7.06-2.84 5.89-6.46 11.52l-7.47-3.22a.62.62 0 0 0-.73.97l2.37 2.85c3.57 7.89 4.44 14.29.45 22.01q-5.93 11.48-8.74 23.77c-2.2 9.67-5.03 16.76-16.08 16.14q-6.96-.4-9.49-.76-8.18-3.4-15.8-8.09a.74.74 0 0 0-1.07.91q1.63 4.02 5.03 7.68.82 5.19 5.12 9.31c-10.08 2.82-19.88 6.38-27.66 13.4q-4.28 3.86-10.84 13.05-7.3 10.23-12.96 16.76a2.03 1.96-20.8 0 0-.46.98c-.85 5.18-.55 8.79.6 13.4 2.1 8.46 2.28 17.18 1.08 25.87q-10.84-11.41-17.75-21.74-7.72-11.52-13.17-26.79-.89-2.47-2.82-2.12-.93-3.3-.59-5.97.97-5.26 1.27-10.59.55-9.5.72-10.62c1.14-7.3 1.43-13.71 2.88-21.61 2.14-11.63 5.12-23.05 7.84-34.91q2.2-9.61 6.91-23.6.65-1.94 1.91-8.35.69.61 1.1.77 26.34 10.64 55.68 8.82c4.49-.28 10.36-.45 15.21-1.43q14.18-2.85 28.45-7.68 3.98-1.35 10.91-4.95a.3.29-43.3 0 0 .02-.52q-3.18-1.95-7.44-1.02-.79.17-17.12 4.17-5.83 1.43-22.49 2.93-6.63.6-14.47-.33-12.2-1.44-14.44-2.08-11.47-3.25-11.7-3.31c-6.92-1.85-13.29-4.87-18.79-7.37a.66.65-67.9 0 0-.89.38l-4.03 11.62-9.11-4.66 4.85-14.87a.49.49 0 0 1 .72-.27q7.47 4.53 10.99 6.17 20.75 9.65 37.7 11.41 41.67 4.32 80.93-15.07m-43.3 38.99c-4.52-1.89-11.32-4.56-16.43-4.48a2.6 2.59 12.2 0 0-2.29 1.47l-7.45 15.7a3.46 3.46 0 0 0 .25 3.42c3.05 4.57 13.46 7.57 19 6.37a1.8 1.79 89.5 0 0 1.38-1.41q1.79-9 5.55-16.79.72-1.48.44-3.68a.74.72-82.8 0 0-.45-.6m-85.814 53.22a8.72 4.21-98.2 0 0-2.923 9.23 8.72 4.21-98.2 0 0 5.41 8.03 8.72 4.21-98.2 0 0 2.924-9.23 8.72 4.21-98.2 0 0-5.41-8.03m5.876 27.395a7.97 4.03-108.8 0 0-1.247 8.844 7.97 4.03-108.8 0 0 6.384 6.246 7.97 4.03-108.8 0 0 1.246-8.844 7.97 4.03-108.8 0 0-6.383-6.246"/><path fill="#ee9936" d="M732.13 563.74q-16.22 8.55-34.55 11.86c-8.96 1.62-19.35 1.86-27.34 1.69q-25.33-.53-49.69-9.88-2.34-.9-9.01-4.2-4.51-2.23-9.18-3.9-4.58-3.53-5.29-8.73 8.69 4.13 15.17 6.46c21.51 7.74 47.25 11.41 69.6 7.91q24.06-3.77 44.49-16.77a.74.73-24.7 0 1 1.1.4zm-427.78 4.05 4.03-11.62a.66.65-67.9 0 1 .89-.38c5.5 2.5 11.87 5.52 18.79 7.37q.23.06 11.7 3.31 2.24.64 14.44 2.08 7.84.93 14.47.33 16.66-1.5 22.49-2.93 16.33-4 17.12-4.17 4.26-.93 7.44 1.02a.3.29-43.3 0 1-.02.52q-6.93 3.6-10.91 4.95-14.27 4.83-28.45 7.68c-4.85.98-10.72 1.15-15.21 1.43q-29.34 1.82-55.68-8.82-.41-.16-1.1-.77"/><path fill="#f4bd4a" d="M732.13 563.74q17.17 53.57 13.48 111.06a.15.15 0 0 1-.04.07q-.17.13 0-1.91-1.2 4.28-2.49 6.26a3.36 3.02 72.9 0 0-.36.78q-5.65 19.18-16.18 34.53-7.07 10.3-17.62 21.34.73-10.91 2.25-21.54 2.65-18.62 10.81-35.59 1.03-4.36.57-6.01c-.75-2.65-3.45-3.66-5.47-1.7-2.92 2.85-4.08 7.88-3.78 11.7q-5.95-8.4-10.21-13.5c-10.13-12.12-22.8-21.11-36.6-29.19l3.94-6.2a.79.72 30.1 0 0-.33-1.05q-.02-.01-.37 0a.72.68-60.7 0 0-.32.1q-8.61 5.02-17.7 8.68-7.38.73-14.53 1.91c-7.96 1.31-13.04-1.45-14.52-9.87-1.36-7.84-2.4-13.87-5.62-19.24q-2.48-4.13-7.03-10.27c-4.34-5.85-3.11-10.61.72-16.44l10.47-10.07a.69.69 0 0 0-.48-1.19c-1.69-.01-4.94 1.98-6.71 2.57q-2.76-4.91-5.5-9.99-2.62-4.88-5.94-9.05l-.21-.62q4.67 1.67 9.18 3.9 6.67 3.3 9.01 4.2 24.36 9.35 49.69 9.88c7.99.17 18.38-.07 27.34-1.69q18.33-3.31 34.55-11.86m-31.68 30.68a.98.97 8.8 0 0-.87-1.18c-8.05-.69-14.19-3.55-21.55-7.26q-2-1.01-3.41 1.12c-2.92 4.41-7.05 9.79-2.04 13.94q9.25 7.66 21.03 8.89a1.67 1.67 0 0 0 1.68-.94q3.61-7.65 5.16-14.57m26.11 48.5a8.73 4.25-80.1 0 0-5.687 7.87 8.73 4.25-80.1 0 0 2.686 9.33 8.73 4.25-80.1 0 0 5.688-7.87 8.73 4.25-80.1 0 0-2.686-9.33"/><path fill="#ee9936" d="m816.31 560.59 9.15 10.4a1.75 1.74-47.5 0 1 .09 2.2q-1.5 2.01-4.15 3.97-12.27 9.1-27.83 11.37-2.44.35-3.52-.82-4.12-4.53-7.8-12.02a1.14 1.14 0 0 1 .73-1.61q6.73-1.77 8.57-2.28 12.58-3.51 22.66-11.4a1.53 1.53 0 0 1 2.1.19"/><path fill="#efcc8b" d="M304.35 567.79q-1.26 6.41-1.91 8.35-4.71 13.99-6.91 23.6c-2.72 11.86-5.7 23.28-7.84 34.91-1.45 7.9-1.74 14.31-2.88 21.61q-.17 1.12-.72 10.62-.3 5.33-1.27 10.59-1.08-4.24-1.22-7.21-1.7-37 4.84-71.03 2.84-14.75 8.8-36.1z"/><path fill="#050403" d="M413.8 579.06q23.02 11.98 41.36 28.77 5.61 5.14 11.24 12.1 3.89 4.81 2.38 9.27a2.02 1.97-45.7 0 0 0 1.29q1.34 3.82 1.29 6.03-.11 5.18-5.07 7.83-3.3 5.35-6.63 7.02-2.51 1.27-8.25 2.67-30.84 7.58-60.35 1.07-15.67-3.57-27.5-13.79-3.4-3.66-5.03-7.68a.74.74 0 0 1 1.07-.91q7.62 4.69 15.8 8.09 26.08 10.17 55.11 7.71 7.17-.4 15.53-1.49 4.69-.61 9.32-2.38a.53.53 0 0 0 0-.99q-5.93-2.29-10.06-6.81a.81.81 0 0 1 .35-1.31q.39-.12.88-.01c6.4 1.44 11.51 2.93 15.44 2.72a1.52 1.52 0 0 0 1.36-2.02q-.28-.8-1.39-1.65-5.65-4.37-10.21-6.97-.83-.48-1.12-1.56a1.03 1.03 0 0 1 1.24-1.27l9.63 2.38a.49.48-6.6 0 0 .55-.69q-1.53-2.96-3.96-5.26-8.64-8.2-15.56-13.7-.19-.15-.79-.27l-32.46-27.59-2.37-2.85a.62.62 0 0 1 .73-.97zm196.93 8.6-23.34 19.3q-10.18 8.02-18.84 16.85-1.07 1.1-1.55 2.65a.41.41 0 0 0 .51.52c2.72-.86 6.99-2.28 9.81-2.04a1.11 1.11 0 0 1 .52 2.04l-11.37 7.47a1.2 1.2 0 0 0-.36.36q-.83 1.26-.36 2.83a1.22 1.21-13.1 0 0 1.36.84l15.53-2.6a.53.52-11.1 0 1 .6.4q.16.72-.42 1.3-3.77 3.71-9.31 6.21a.62.61 48.4 0 0-.06 1.09q.81.49 2.09.78 10.56 2.43 21.58 2.97c18.3 1.57 37.3-.58 54.59-7.06q9.09-3.66 17.7-8.68a.72.68-60.7 0 1 .32-.1q.35-.01.37 0a.79.72 30.1 0 1 .33 1.05l-3.94 6.2-2.28 2.48q-11.84 9.22-26.56 12.6-33.55 7.47-65.31-2.46-5.97-1.87-9.53-7.81-8.17-5.58-4.25-14.55a2.61 2.56 50.7 0 0 .15-1.64q-1.03-4.49 1.97-8.19 4.01-4.95 7.87-8.66 20.39-19.65 45.46-32.84c1.77-.59 5.02-2.58 6.71-2.57a.69.69 0 0 1 .48 1.19z"/><path fill="#f7c86c" d="m407.97 579.66 32.46 27.59q-7.63 5.6-11.22 15.23-4.72 12.61.01 26.05-29.03 2.46-55.11-7.71 2.53.36 9.49.76c11.05.62 13.88-6.47 16.08-16.14q2.81-12.29 8.74-23.77c3.99-7.72 3.12-14.12-.45-22.01"/><path fill="#fae468" d="M387.58 590.09q.28 2.2-.44 3.68-3.76 7.79-5.55 16.79a1.8 1.79 89.5 0 1-1.38 1.41c-5.54 1.2-15.95-1.8-19-6.37a3.46 3.46 0 0 1-.25-3.42l7.45-15.7a2.6 2.59 12.2 0 1 2.29-1.47c5.11-.08 11.91 2.59 16.43 4.48a.74.72-82.8 0 1 .45.6m312.87 4.33q-1.55 6.92-5.16 14.57a1.67 1.67 0 0 1-1.68.94q-11.78-1.23-21.03-8.89c-5.01-4.15-.88-9.53 2.04-13.94q1.41-2.13 3.41-1.12c7.36 3.71 13.5 6.57 21.55 7.26a.98.97 8.8 0 1 .87 1.18"/><path fill="#f7c86c" d="M610.73 587.66c-3.83 5.83-5.06 10.59-.72 16.44q4.55 6.14 7.03 10.27c3.22 5.37 4.26 11.4 5.62 19.24 1.48 8.42 6.56 11.18 14.52 9.87q7.15-1.18 14.53-1.91c-17.29 6.48-36.29 8.63-54.59 7.06q3.74-5.26 3.93-12.13.51-18.39-13.66-29.54z"/><path fill="#ee9936" d="M189.04 621.7a.89.89 0 0 1-.14 1.28l-13.06 9.88a1.75 1.75 0 0 1-2.23-.11c-7.01-6.43-10.93-17.91-12.07-27.1a1.81 1.81 0 0 1 .65-1.62c3.57-2.96 9.93-4.81 14.32-5.62a1.8 1.79 79 0 1 2.09 1.42q2.4 12.19 10.44 21.87"/><path fill="#fff" d="M429.22 648.53q-4.73-13.44-.01-26.05 3.59-9.63 11.22-15.23.6.12.79.27 6.92 5.5 15.56 13.7 2.43 2.3 3.96 5.26a.49.48-6.6 0 1-.55.69l-9.63-2.38a1.03 1.03 0 0 0-1.24 1.27q.29 1.08 1.12 1.56 4.56 2.6 10.21 6.97 1.11.85 1.39 1.65a1.52 1.52 0 0 1-1.36 2.02c-3.93.21-9.04-1.28-15.44-2.72q-.49-.11-.88.01a.81.81 0 0 0-.35 1.31q4.13 4.52 10.06 6.81a.53.53 0 0 1 0 .99q-4.63 1.77-9.32 2.38-8.36 1.09-15.53 1.49m158.17-41.57q14.17 11.15 13.66 29.54-.19 6.87-3.93 12.13-11.02-.54-21.58-2.97-1.28-.29-2.09-.78a.62.61 48.4 0 1 .06-1.09q5.54-2.5 9.31-6.21.58-.58.42-1.3a.53.52-11.1 0 0-.6-.4l-15.53 2.6a1.22 1.21-13.1 0 1-1.36-.84q-.47-1.57.36-2.83a1.2 1.2 0 0 1 .36-.36l11.37-7.47a1.11 1.11 0 0 0-.52-2.04c-2.82-.24-7.09 1.18-9.81 2.04a.41.41 0 0 1-.51-.52q.48-1.55 1.55-2.65 8.66-8.83 18.84-16.85"/><path fill="#f7c86c" d="M666.49 640.04c13.8 8.08 26.47 17.07 36.6 29.19q4.26 5.1 10.21 13.5 1.59 3.68 4.99 1.85 1.93-1.04 3.69-5.84-8.16 16.97-10.81 35.59-1.52 10.63-2.25 21.54c-6.33 6.12-11.48 9.72-19.52 15.01-22.47 14.78-50.7 19.31-77.08 16.45q-12.16-1.32-23.77-3.2.22-.64 1.17-1.68 2.02-1.07 4.57-3.16 6.68-5.49 12.34-11.34 5.82-6.02 10.53-13 20.62-30.54 21.28-68.44l.26-1.97q.79.33 1.58.02 15.05-6.08 24.12-19.52a1.18 1.17-34.6 0 0 .17-.91l-.36-1.61zm43.787 55.733a7.92 3.97-56.8 0 0-7.659 4.453 7.92 3.97-56.8 0 0-1.015 8.801 7.92 3.97-56.8 0 0 7.659-4.453 7.92 3.97-56.8 0 0 1.015-8.801"/><path fill="#ee9936" d="m389.77 655.11-.84 9.39q-1.21.27-1.68.07-11.53-4.92-19.86-13.94-4.3-4.12-5.12-9.31 11.83 10.22 27.5 13.79m274.44-12.59.36 1.61a1.18 1.17-34.6 0 1-.17.91q-9.07 13.44-24.12 19.52-.79.31-1.58-.02l-1.05-9.42q14.72-3.38 26.56-12.6"/><ellipse fill="#050403" rx="8.72" ry="4.21" transform="rotate(-98.2 433.384 194.627)"/><ellipse fill="#050403" rx="8.73" ry="4.25" transform="rotate(-80.1 750.068 -105.522)"/><path fill="#efcc8b" d="M465 644.35q1.09 1.09 1.38 2.26.28 1.11-.54 2.52c-11.5 19.63-38.85 22.42-58.78 20.53q-3.34-.31-9.01-1.81-4.36-1.16-8.95-2.21l-.17-1.14.84-9.39q29.51 6.51 60.35-1.07 5.74-1.4 8.25-2.67 3.33-1.67 6.63-7.02m172.65 10.77 1.05 9.42-.26 1.97q-.97-.95-2.74-.37c-6.98 2.25-13.27 3.72-20.38 4.11q-11.28.61-23.08-1.31-11.31-1.85-21.99-9.25-6.82-4.72-9.89-12.37a1 .99 71.1 0 1 .65-1.34q.66-.2 1.8-1.13 3.56 5.94 9.53 7.81 31.76 9.93 65.31 2.46"/><path fill="#f7c86c" d="M367.39 650.63q8.33 9.02 19.86 13.94.47.2 1.68-.07l.17 1.14q0 17.5 5.17 35.63 3.86 13.52 9.69 23.78-.51 1.08-2.48 2.45-1.43 1-.72 3.26 5.06 16.17 19.88 18.24 2.15.95 5.01 4.09 3.43 3.76 13.04 10.3l2.01 2.2q-3.42-.85-5.46-.5-14.25 2.5-22.99 3.19c-20.45 1.6-44.12-2.17-62.75-11.54q-17.37-8.74-32.35-22.65c1.2-8.69 1.02-17.41-1.08-25.87-1.15-4.61-1.45-8.22-.6-13.4a2.03 1.96-20.8 0 1 .46-.98q5.66-6.53 12.96-16.76 6.56-9.19 10.84-13.05c7.78-7.02 17.58-10.58 27.66-13.4m-50.012 45.037a7.98 4.11-122.2 0 0 .774 8.943 7.98 4.11-122.2 0 0 7.73 4.563 7.98 4.11-122.2 0 0-.774-8.943 7.98 4.11-122.2 0 0-7.73-4.563"/><ellipse fill="#050403" rx="7.97" ry="4.03" transform="rotate(251.2 397.455 227.942)"/><path fill="#050403" d="M721.98 678.74q-1.76 4.8-3.69 5.84-3.4 1.83-4.99-1.85c-.3-3.82.86-8.85 3.78-11.7 2.02-1.96 4.72-.95 5.47 1.7q.46 1.65-.57 6.01"/><path fill="#ee9936" d="M745.57 672.96q-2.38 22.02-6.87 37.5-3.71 12.82-12.94 28.87c-7.73 13.44-17.04 23.22-28.9 32.47-12.64 9.85-28.69 15.99-44.46 19.09q-9.58 1.88-22.65 1.51-17.83-.5-33.17-4.77-.39-.11-19.78-5.73c-4.92-1.42-10.71-2.28-16.09-3.23q12.53-4.83 15.74-7.23 5.4-4.02 12.1-7.31 11.61 1.88 23.77 3.2c26.38 2.86 54.61-1.67 77.08-16.45 8.04-5.29 13.19-8.89 19.52-15.01q10.55-11.04 17.62-21.34 10.53-15.35 16.18-34.53a3.36 3.02 72.9 0 1 .36-.78q1.29-1.98 2.49-6.26m-428.42 61.13q14.98 13.91 32.35 22.65c18.63 9.37 42.3 13.14 62.75 11.54q8.74-.69 22.99-3.19 2.04-.35 5.46.5 12.27 7.3 25.62 13.27-13.15 2.17-16.61 3.3-11.56 3.76-17.41 5.35c-22.32 6.08-46.81 7.37-68.91.62q-23.14-7.06-40.76-22.83c-22.84-20.43-35.9-51.06-39.22-81.86q1.93-.35 2.82 2.12 5.45 15.27 13.17 26.79 6.91 10.33 17.75 21.74"/><ellipse fill="#050403" rx="7.98" ry="4.11" transform="rotate(237.8 354.693 262.435)"/><ellipse fill="#050403" rx="7.92" ry="3.97" transform="rotate(-56.8 1002.5 -301.604)"/><path fill="#fae468" d="M584.43 699.57a1.01 1 3.3 0 1 .96 1.07c-.45 6.56-.57 12.86 4.33 18.07a1.26 1.25-45.2 0 1 0 1.71l-12.14 12.97a1.24 1.23-52.5 0 1-1.57.21c-8.02-5.03-10.19-15.39-9.63-24.3.12-1.97.29-3.27 1.9-4.55q7.08-5.61 16.15-5.18"/><path fill="#ee9936" d="M420.64 749q-14.82-2.07-19.88-18.24-.71-2.26.72-3.26 1.97-1.37 2.48-2.45c3.67-2.92 6.28-5 10.22-5.66a1.19 1.17-16 0 1 1.28.7c1.95 4.63 4.24 9.67 7.51 12.21q1.79 1.39 5.56 4.15a.98.98 0 0 1 .39.94q-.76 4.96-2.8 9.03a1.98 1.96 3.1 0 1-1.09.97z"/><path fill="#fae468" d="M784.98 723.59q4.38 3.51 8.76 8.8 1.7 2.05 1.63 2.52a7.42 2.13-81.6 0 1-.18 1.03q-.19 1-2.07 3.4-7.87 10.04-20.25 12.46a2.86 2.86 0 0 1-3.27-1.91l-4.38-13.29a1.04 1.03 70 0 1 .6-1.29q5.68-2.23 9.81-4.82c2.84-1.79 5.24-4.7 7.85-6.88a1.2 1.18-45.4 0 1 1.5-.02m-518.82 41.45q-.8 1.52-1.57 2.06-1.15.81-11.33 9.65-1.48 1.29-3.22-.31-12.56-11.56-17.49-27.77-1.5-4.96 2.72-6.57 5.74-2.19 12.18-3.65a2.51 2.51 0 0 1 2.93 1.62c2.22 6.41 5.16 13.1 9.39 17.42q2.36 2.42 6.11 5.9a1.39 1.37-55 0 1 .28 1.65"/><path fill="#efcc8b" d="M589.72 762.45q-.95 1.04-1.17 1.68-6.7 3.29-12.1 7.31-3.21 2.4-15.74 7.23-47.24-7.74-94.39.19-13.35-5.97-25.62-13.27l-2.01-2.2q4.74.69 8.25.03 54.5-10.21 108.55-3.82 18.74 2.21 28.92 3.25c1.72.17 3.58-.1 5.31-.4m-166.96 49.69q-7.58.87-15.01 1.71-7.75.88-20.14-.3l-3.92-10.96a.28.27 83 0 1 .28-.37q17.36 1.56 34.72-1.95a.96.95-13.1 0 1 1.12.69zm217.38.72q-1.87.33-3.65.69-1.95.4-3.65.44-13.96.33-27.69-2.18l3.12-10.87a.81.8-77.2 0 1 .91-.58c11.42 1.87 22.46 2.87 34.07 1.72a.48.48 0 0 1 .5.64z"/><path fill="#fdf1ce" d="M640.14 812.86c-2.67 6.78-8.86 18.51-15.5 21.69a.57.57 0 0 1-.81-.6l1.67-10.44a1.06 1.06 0 0 0-1.87-.83q-1.11 1.38-6.67 8.51-1.45 1.86-3.56 2.92a1.52 1.52 0 0 1-2.06-.72q-.59-1.27-.1-3.15c.99-3.74 2.17-7.92 2.98-12.28a1.23 1.23 0 0 0-2.16-1l-7.29 9a1.04 1.04 0 0 1-1.84-.68q.21-7.91 2.22-13.47 13.73 2.51 27.69 2.18 1.7-.04 3.65-.44 1.78-.36 3.65-.69m-217.38-.72c.8 2.8 2.75 11.2 1.7 13.66a1 1 0 0 1-1.65.3q-1.41-1.49-6.99-8.95a1.35 1.21 43.7 0 0-2.11-.06q-.21.33.03 1.42c.8 3.59 3.46 10.3 2.99 14.79a1.42 1.42 0 0 1-2.02 1.13c-4.04-1.89-7.14-7.47-10.38-12.2a.97.96-53.2 0 0-1.71.25q-.41 1.23 0 2.94.77 3.2 1.59 8.28a.96.95-78.3 0 1-1.46.96q-2.69-1.73-5.2-4.7-6.57-7.76-9.94-16.41 12.39 1.18 20.14.3 7.43-.84 15.01-1.71"/></svg>