<svg xmlns="http://www.w3.org/2000/svg" viewBox="0 0 1024 1024"><g fill="none" stroke-width="2"><path stroke="gray" d="M474.72 213.73q-22.97 4.04-45.37 13.96a.7.69 63.6 0 1-.9-.31c-5.5-10.27-12.1-19.09-21.5-25.78-17.27-12.27-38.44-13.49-57.24-3.75-16.22 8.4-28.25 25.44-31.03 43.7q-5.32 34.85 20.31 58.71a.55.55 0 0 1 .06.74q-17.38 22.42-31.05 47.09a1.18 1.16 6.6 0 1-.73.57q-2.03.52-5.01 1.12c-43.19 8.65-72.16 43.27-82.62 84.83-10.21 40.59-3.66 86.17 25.58 117.39a1.26 1.26 0 0 1 .32 1.15q-8.15 36.23-7.23 72.79a1.55 1.54-22.1 0 1-.51 1.19l-23.13 21.43a3.81 3.78-20.5 0 0-1.21 2.63q-.46 11.85-.57 21.31-.87 75.53-.51 140.95.02 4.2 1.05 5.33c2.62 2.89 7.35 2.55 11.07 2.54q296.95-.17 584.99-.04 7.34 0 7.4-6.79.71-69.08-.54-161.93c-.03-2.19-.57-3.13-2.04-4.59Q803 636.69 790.17 626.1a1.13 1.13 0 0 1-.41-.87q.03-7.27-.08-13.98-.31-20.46-4.78-44.68-.3-1.59-2.77-13.07a1.01 1 58.7 0 1 .2-.84c2.9-3.59 6.06-7.07 8.5-10.49q17.89-25.08 21.1-55.44c3.38-31.93-3.4-64.86-21.07-91.82q-24.95-38.09-69.4-46.05a2.53 2.51-10.3 0 1-1.73-1.19q-14.49-24.27-31.13-46.71a.59.58-41 0 1 .06-.76q9.3-9.16 13.4-16.5 11.94-21.33 6.29-45.69c-4.37-18.83-17.18-34.81-34.72-42.28-18.46-7.86-38.99-5.33-54.69 6.77q-11.73 9.04-19.84 24.83a.55.54 25 0 1-.7.25q-22.72-9.69-45.39-13.94a3.08 3.06-10.6 0 1-2.02-1.37c-4.55-7.23-9.23-15.84-15.08-22.42-5.55-6.24-12.98-3.36-16.82 3.32a.5.5 0 0 1-.73.15c-6.1-4.52-14.04-8.88-21.51-8.37q-9.18.63-7.93 10.58a.55.55 0 0 1-.68.6q-5.35-1.36-11.15-.23c-6.54 1.28-8.13 8.27-5.01 13.54q1.05 1.78 2.79 3.88a.25.25 0 0 1-.15.41" vector-effect="non-scaling-stroke"/><path stroke="#7b5950" d="M373.43 275.32q-2.07-1.2 1.2-5.67 7.15-9.79 17.13-17.99a.5.48 63.3 0 0 .16-.52q-4.11-14.18-15.93-22.74-9.29-6.72-18.96-.66-.71.45-1.68-.38" vector-effect="non-scaling-stroke"/><path stroke="#7c6025" d="M355.35 227.36q.42-6.03 8.45-8.57c10.99-3.46 22.87 3.73 29.46 12.3q4.58 5.94 7.88 12.69a.49.48-29.6 0 0 .7.19l10.8-7.02" vector-effect="non-scaling-stroke"/><path stroke="#796746" d="m412.64 236.95 4.46-2.49a.59.59 0 0 0 .24-.77c-7.85-16.01-22.21-29.02-40.74-29.62-10.97-.35-21.65 4.42-29.93 11.69" vector-effect="non-scaling-stroke"/><path stroke="#735c38" d="M346.67 215.76c-22.23 20.39-21.32 56.85 2.1 75.91a.42.41 41.7 0 0 .55-.03q5.6-5.6 12.53-9.66" vector-effect="non-scaling-stroke"/><path stroke="#7b5950" d="M361.85 281.98q.69-.41 2.59.72" vector-effect="non-scaling-stroke"/><path stroke="#796746" d="M364.44 282.7q-1.13 7.02-6.19 13.54c-12.24 15.77-24.72 33.77-35.44 51.76a.42.42 0 0 0 .31.63l12.64 1.22" vector-effect="non-scaling-stroke"/><path stroke="#7c6025" d="M335.76 349.85q9.9 1.62 19.62 4.77c4.06 1.32 9.48 3.34 12.44 6.19q.7.67.18 1.45-.41.63-1.3 1.03" vector-effect="non-scaling-stroke"/><path stroke="#796746" d="M366.7 363.29q-6.92-.36-9.71-.96c-28.59-6.09-59.65-3.04-84.09 13.75" vector-effect="non-scaling-stroke"/><path stroke="#807a68" d="M272.9 376.08q-23.42 17.42-34.45 43.88-13.44 32.25-8.92 67.16" vector-effect="non-scaling-stroke"/><path stroke="#796746" d="M229.53 487.12q2.71 24.58 16.02 44.55c20.85 31.3 58.38 47.78 94.81 49.21q37.26 1.46 72.59-12.46c15.82-6.23 28.3-12.71 43.59-21.14q1.17-.65 4.91-1.6" vector-effect="non-scaling-stroke"/><path stroke="#807a68" d="m461.45 545.68 2.33-.02" vector-effect="non-scaling-stroke"/><path stroke="#796746" d="M463.78 545.66q.56.04.79.22a.59.59 0 0 1 .04.9c-18.95 17.5-42.81 30.36-67.34 37.75a.44.44 0 0 0-.13.78q8.55 6.17 15.01 16.53" vector-effect="non-scaling-stroke"/><path stroke="#807a68" d="m412.15 601.84 6.63 12.94a.75.72-12.9 0 0 .66.4h186.77a.83.83 0 0 0 .74-.45l6.85-13.1" vector-effect="non-scaling-stroke"/><path stroke="#796746" d="M613.8 601.63q6.17-10.05 14.89-16.93a.32.32 0 0 0-.1-.55q-26.77-8.49-49.74-24.49-9.56-6.67-16.05-13.43" vector-effect="non-scaling-stroke"/><path stroke="#807a68" d="M562.8 546.23q4.44-.92 9.19 1.67" vector-effect="non-scaling-stroke"/><path stroke="#796746" d="M571.99 547.9q21.28 12.68 44.31 21.54 34.86 13.42 72.09 11.77c24.46-1.08 50.34-9.47 69.69-24.11q36.32-27.48 40.93-73.62" vector-effect="non-scaling-stroke"/><path stroke="#807a68" d="M799.01 483.48q-.13-.93.01-1.99.24-1.8.25-2c2.17-34.01-8.01-67.32-31.36-92.37" vector-effect="non-scaling-stroke"/><path stroke="#796746" d="M767.91 387.12q-8.97-9.69-21.15-16.11-20.39-10.75-43.51-11.59-5.69-.2-15.46.36" vector-effect="non-scaling-stroke"/><path stroke="#7c6025" d="M687.79 359.78q-9.91.93-20.07 2.76c-2.05.36-4.67.38-6.94.2a1.4 1.4 0 0 1-1.27-1.66q0-.01.4-.43 2.1-2.19 6.67-4.13 10.56-4.48 23.66-6.57" vector-effect="non-scaling-stroke"/><path stroke="#6b4c29" d="m690.24 349.95 14.06-1.28a.39.38 74.9 0 0 .31-.55q-1.31-2.76-2.29-4.28-13.4-20.97-18.34-27.58-7.93-10.61-15.59-21.22" vector-effect="non-scaling-stroke"/><path stroke="#7d6638" d="M668.39 295.04q-5.25-6.45-5.57-13.08" vector-effect="non-scaling-stroke"/><path stroke="#7b5950" d="M662.82 281.96q1.92-.61 3.17-.09" vector-effect="non-scaling-stroke"/><path stroke="#7c6025" d="M665.99 281.87q6.35 3.9 11.93 9.21a.82.8 47.9 0 0 1.06.06c13.16-10.25 19.9-27.4 17.95-43.82q-2.05-17.27-13.99-29.64" vector-effect="non-scaling-stroke"/><path stroke="#796746" d="M682.94 217.68c-11.53-11.8-27.31-16.69-43.11-11.83-12.99 4-23.68 15.38-29.51 27.65a.62.61-61.4 0 0 .23.79l3.46 2.11" vector-effect="non-scaling-stroke"/><path stroke="#7c6025" d="m614.01 236.4 12.04 7.59a.3.3 0 0 0 .44-.13c4.55-10.16 10.8-19.17 21.18-23.9 8.39-3.82 19.31-2.99 24.56 5.56q.75 1.21-.52 2.01" vector-effect="non-scaling-stroke"/><path stroke="#7b5950" d="M671.71 227.53q-.85.07-1.29-.21-8.49-5.28-17.13-.24c-8.71 5.08-14.1 13.94-17.69 23.43a1.17 1.17 0 0 0 .35 1.31c7.55 6.31 14.9 13.38 19.39 22.21" vector-effect="non-scaling-stroke"/><path stroke="#7d6638" d="M655.34 274.03q-2.96.77-7.66-2.46-5.02-3.44-16.86-11.61-27.99-19.29-58.87-28.61-9.84-2.97-20-5.56c-10.57-2.7-17.86-18.38-22.86-27.56a.38.38 0 0 0-.68.01q-1 2.02-1.36 4.47-.82 5.69-2.07 10.97" vector-effect="non-scaling-stroke"/><path stroke="#7c6025" d="m524.98 213.68-1.28-.07" vector-effect="non-scaling-stroke"/><path stroke="#796746" d="M523.7 213.61c-4.39-2.7-7.9-6.89-11.73-10.32q-4.67-4.18-10.07-6.9a.43.42-1.6 0 0-.56.59c3.02 5.26 6.6 11.71 6.25 17.37a1.35 1.35 0 0 1-1.62 1.23q-1.64-.34-2.03-.76-1.34-1.45-10.16-5.47-11.62-5.31-8.83-2 1.18 1.38 3.96 3.96c3.33 3.09 5.89 9.97-.38 12.57q-2.43 1.01-2.94 1.07c-31.38 3.9-62.32 17.11-88.43 34.98q-9.55 6.54-16.32 11.4-3.1 2.23-7.41 3.99" vector-effect="non-scaling-stroke"/><path stroke="#f2c569" d="M523.7 213.61q-2.99.42-5.9-.4a1.44 1.4 79 0 1-.75-.52q-2.17-2.91-5.83-3.93a1.37 1.36 13.6 0 0-1.71 1.04l-1.39 6.9a.65.65 0 0 1-.77.51l-11.08-2.23a1.18 1.18 0 0 0-1.4 1.01q-1.3 10.11-11.9 11.58-12.78 1.77-20.22 4.64c-14.82 5.72-20.81 7.29-30.2 13.64q-7.07 4.78-8.98 5.84c-6.88 3.83-11.33 6.16-15.97 10.15-8.22 7.08-19.4 16.09-28.05 25.65q-11.77 13.02-16.86 19.79-5.94 7.88-12.39 18.28-6.05 9.77-11.26 19.01-1.53 2.71-3.28 5.28" vector-effect="non-scaling-stroke"/><path stroke="#f1be93" d="m364.44 282.7 8.99-7.38" vector-effect="non-scaling-stroke"/><path stroke="#e3aa4c" d="M666.09 295.79q2.98 4.86 3.87 6.78c5.6 12.02 10.55 24.28 15.95 36.38q2.4 5.37 4.33 11" vector-effect="non-scaling-stroke"/><path stroke="#f2c569" d="M687.79 359.78q-.68.93 1.47 1.4.96.2 2.46.17c7.37-.18 13.31 1.94 21.08 3.79q6.32 1.51 10.04 2.86 11.51 4.18 21.07 10.01c5.26 3.21 11.93 8.84 16.81 12.77 3.73 3.01 10.65 8.78 10.52 13.21q-.2 6.63-.07 13.21" vector-effect="non-scaling-stroke"/><path stroke="#f9d78b" d="M771.17 417.2c-3.63 26.27-18.3 46.93-40.56 60.86" vector-effect="non-scaling-stroke"/><path stroke="#f6c35b" d="M730.61 478.06q-9.75-9.81-19.25-19.39c-9.21-9.31-18.19-17.1-29.08-21.78-26.38-11.32-51.52.9-74.28 15.68" vector-effect="non-scaling-stroke"/><path stroke="#7c6025" d="M608 452.57q-17.7-5.82-36.18-5.72" vector-effect="non-scaling-stroke"/><path stroke="#f9d78b" d="M571.82 446.85q1.46.25 1.55-.49a.3.29-68.6 0 0-.11-.27q-1.3-.92-1.87-1.76-1.24-1.79-3.78-6.22" vector-effect="non-scaling-stroke"/><path stroke="#7c6025" d="M567.61 438.11q28.06-11.04 57.03-15.84a.58.57-47 0 0-.04-1.14q-30.57-2.81-55.96 11.49-1.25.7-4.23 3.09" vector-effect="non-scaling-stroke"/><path stroke="#f9d78b" d="M564.41 435.71q-.96-2.23-3.45-4.67-1.33-1.29-4.52-5.27-8.04-9.99-19.07-16.41-9.17-5.33-21.36-5.94-17.91-.88-31.55 9.01-6.91 5.02-11.37 10.39-5.13 6.19-10.32 12.5" vector-effect="non-scaling-stroke"/><path stroke="#7c6025" d="M462.77 435.32q-5.18-3.83-12.03-6.81-22.9-9.92-46.99-7.31-.73.08-1.08.47a.36.36 0 0 0 .2.59c19.09 3.54 38.41 8.39 56.92 15.78" vector-effect="non-scaling-stroke"/><path stroke="#f9d78b" d="M459.79 438.04q-1.83 4.38-5.57 7.77" vector-effect="non-scaling-stroke"/><path stroke="#f6c35b" d="M454.22 445.81q-12.3-.82-22.47 1.67-1.8.44-13.03 3.67a1.5 1.47 49.9 0 1-1.05-.1q-16.46-8.23-27.48-13.17c-14.91-6.68-31.41-8.63-46.2-3.04q-16.38 6.19-29.16 18.89-10.94 10.86-21.82 21.85" vector-effect="non-scaling-stroke"/><path stroke="#f9d78b" d="M293.01 475.58q-22.15-14.88-31.83-39.23c-1.3-3.26-1.97-6.9-3.17-10.67a2.66 2.65 36.1 0 1-.13-.82v-1.45a.46.44-81.2 0 0-.3-.43q-.48-.17-.45-.69t.02-.59q-.51-4.89-1.18-9.71" vector-effect="non-scaling-stroke"/><path stroke="#f2c569" d="m255.97 411.99.15-7.59a3.5 3.47-28 0 1 .57-1.84q2.23-3.44 4.96-6.14 11.2-11.1 25.25-20.03 2.56-1.63 12.99-6.37c7.78-3.54 15.89-4.72 24.71-7.14q3.3-.9 6.47-1.17 5.33-.44 6.58-.31 10.05 1.08 20.67 3.18.41.08 4.89.51 3.17.3 3.49-1.8" vector-effect="non-scaling-stroke"/><path stroke="#ebb385" d="m360.3 279.27 1.55 2.71" vector-effect="non-scaling-stroke"/><path stroke="#f4b773" d="M355.35 227.36q-.36 5.31-2.92 10.25a3.88 3.8-23.8 0 0-.3.75q-3.72 12.98.11 25.56c1.54 5.06 5.19 10.42 8.06 15.35" vector-effect="non-scaling-stroke"/><path stroke="#ebb95b" d="M360.3 279.27q-4.42 4.54-9.87 7.62a1.12 1.11 39.6 0 1-.9.08c-7.11-2.49-11.59-10.78-14.13-18.18-4.62-13.43-3.89-28.07 3.54-40.28 2.28-3.76 6.26-7.53 9.54-11.04" vector-effect="non-scaling-stroke"/><path stroke="#f6dfab" d="M255.97 411.99q-1.32-9.94-.45-14.2.71-3.49 2.21-5.32 5.45-6.67 14.32-13.16 1.61-1.18.85-3.23" vector-effect="non-scaling-stroke"/><path stroke="#fadd9e" d="M293.01 475.58q20.11 13.71 42.42 17.03c28.25 4.2 55.54.42 80.6-13.62q19.44-10.89 32.86-26.15" vector-effect="non-scaling-stroke"/><path stroke="#807a68" d="m448.89 452.84 14.7-2.76a.6.6 0 0 0 .31-1.02c-2.08-1.97-6.97-1.83-9.67-1.91" vector-effect="non-scaling-stroke"/><path stroke="#fadd9e" d="M454.23 447.15q-.32-.01-.47-.17-.17-.17-.07-.48.14-.42.53-.69" vector-effect="non-scaling-stroke"/><path stroke="#807a68" d="M459.79 438.04q2.85 1.58 6.12 2.2a.61.61 0 0 0 .63-.92q-1.51-2.46-3.77-4m101.64.39-3.44 3.26a.76.75-76.5 0 0 .77 1.26l5.87-2.12m4.21 8.74c-1.86.15-6.78.18-8.02 1.56a1.22 1.22 0 0 0 .7 2.02l13.24 2.31" vector-effect="non-scaling-stroke"/><path stroke="#fadd9e" d="M577.74 452.74q3.38 4.01 8.44 8.58c28.64 25.8 67.51 36.88 105.57 31.14q20.86-3.15 38.86-14.4" vector-effect="non-scaling-stroke"/><path stroke="#f6dfab" d="M799.01 483.48q-3.19 5.12-6.34 10.1c-3.87 6.1-6.35 12.27-11.03 17.31q-3.52 3.8-9.79 10.46-8.83 9.38-19.93 16.58c-38.32 24.89-85.32 32.11-129.97 22.58q-19.48-4.16-35.93-9.18-.01-.01-5.35-1.96-4.41-1.62-8.68-1.47m-9.19-1.67q-11.36-5.03-25.23-3.32a.26.25 66.2 0 0-.16.42q2.44 2.91 6.22 6.64 8.17 8.06 13.23 12.45 10.53 9.15 27.53 21.69 6.01 4.43 29.41 17.52m-201.65.21q18.26-8.76 29.75-16.67 7.94-5.46 25.79-19.92 5.33-4.32 9.03-8.1c5.48-5.62 8.98-8.58 12.77-13.64a.56.56 0 0 0-.44-.89q-12.72-.36-25.27 3.04m-2.33.02q-5.16-.54-9.63 1.94-2.12 1.18-5.7 2.28-9.2 2.83-18.11 5.32-7.06 1.97-33.75 7.07-6.87 1.31-23.72 1.84c-.58.02-1.1-.21-1.79-.2q-22.66.49-43.49-4.69-34.53-8.57-61.48-29.99-7.65-6.08-20.1-20.2a2.06 1.92 9.4 0 1-.23-.3l-13.92-21.63" vector-effect="non-scaling-stroke"/><path stroke="#f5bd86" d="M655.34 274.03q3 4.54 7.48 7.93" vector-effect="non-scaling-stroke"/><path stroke="#e5b05f" d="M668.39 295.04q-1.14.83-2.3.75" vector-effect="non-scaling-stroke"/><path stroke="#f6c35b" d="M666.09 295.79q-4.35-5.69-6.29-12.72-1.16-4.17-4.84-6-9.65-4.81-20.55-11.64c-4.21-2.64-8.73-6.7-13.54-9.53q-8.44-4.96-24.94-13.08-7.69-3.78-16.26-6.28c-12.23-3.57-16.69-5.21-28.64-8.83q-6.89-2.09-12.43-9.26c-2.42-3.14-4.06-5.05-6.83-7.27a2.6 2.6 0 0 0-3.12-.1l-3.67 2.6" vector-effect="non-scaling-stroke"/><path stroke="#7d6638" d="M577.74 452.74q25.79 3.52 50.74 10.39a.35.35 0 0 0 .28-.63q-9.64-6.26-20.76-9.93m-153.77-5.42q-29.69-.14-54.67 15.4-.5.31-.49.69a.28.28 0 0 0 .36.27q24.77-6.78 49.46-10.67" vector-effect="non-scaling-stroke"/><path stroke="#f6dfab" d="m767.91 387.12 3.27 7.5a13.52 13.46 32.5 0 1 1.14 5.08q.26 8.76-1.15 17.5" vector-effect="non-scaling-stroke"/><path stroke="#f2c569" d="M412.64 236.95q-6.98-12.6-18.64-18.71-7.52-3.94-19.13-5.92c-4.16-.71-9.26-.27-13.48.16-5.17.52-9.67 1.45-12.91 4.99" vector-effect="non-scaling-stroke"/><path stroke="#e9c17b" d="M348.48 217.47q-1.08-.63-1.81-1.71" vector-effect="non-scaling-stroke"/><path stroke="#f4b773" d="M665.99 281.87q3.75-5.66 6.9-11.74 5.91-11.42 4.31-24.25-1.14-9.11-5.38-17.2-.26-.51-.11-1.15" vector-effect="non-scaling-stroke"/><path stroke="#f2c569" d="M682.94 217.68q-.7.55-1.65.47a1.51 1.49-22 0 1-.86-.36q-5.04-4.4-11.9-5.38c-14.36-2.06-30.19.55-41.43 10.19q-7.24 6.2-13.09 13.8" vector-effect="non-scaling-stroke"/><path stroke="#796746" d="M252.79 583.71q-1.88 16.04-1.74 31.65a.4.39 83.9 0 0 .47.38l4.01-.79" vector-effect="non-scaling-stroke"/><path stroke="#7c6025" d="M255.53 614.95h60.67a.28.28 0 0 0 .2-.47q-3.95-4.13-6.15-9.11a.74.74 0 0 1 .85-1.02q2.96.72 5.04 1.95 5.74 3.38 11.4 7.21" vector-effect="non-scaling-stroke"/><path stroke="#7d6638" d="M327.54 613.51c12.2 8.63 26.31 15.71 39.94 21.72" vector-effect="non-scaling-stroke"/><path stroke="gray" d="M367.48 635.23q11.09 5.47 22.7 8.36a.43.43 0 0 0 .44-.69q-3.65-4.56-5.15-9.55a.97.97 0 0 1 1.53-1.04q4.61 3.66 9.3 7.87c1.99 1.78 6.2 5.16 8.27 2.61a1.33 1.29 62.1 0 0 .28-.97c-.66-5.51-4.45-11.55-5.59-15.86a1.11 1.11 0 0 1 1.31-1.37q.59.13 1.18.65 3.11 2.76 9.06 10.32a.82.82 0 0 0 1.41-.21c1.7-4.32-.11-10.96-1.69-15.15q-2.28-6.04-4.93-11.17" vector-effect="non-scaling-stroke"/><path stroke="#7d6638" d="m405.6 609.03-9.52-17.4" vector-effect="non-scaling-stroke"/><path stroke="#6b4c29" d="m396.08 591.63-2.82-5.47a.63.62-21.1 0 0-.73-.32c-47.01 12.73-96.67 8.16-135.67-22.73a.45.45 0 0 0-.73.28l-3.34 20.32" vector-effect="non-scaling-stroke"/><path stroke="#e5b05f" d="M396.08 591.63q-10 4.68-22.53 8.15-13.94 3.87-26.56 5.23-3.68.39-7.51.25" vector-effect="non-scaling-stroke"/><path stroke="#e3aa4c" d="m339.48 605.26-16.28.41a10.48 10.46 51.1 0 1-2.8-.3l-7.19-1.77a6.02 6 50.8 0 0-1.54-.16l-5.88.19a1.63 1.35-36.3 0 1-.35-.02q-13.71-2.19-27.33-6.84c-5.01-1.71-10.23-4.43-15.22-6.85" vector-effect="non-scaling-stroke"/><path stroke="#e1b16d" d="m262.89 589.92-10.1-6.21" vector-effect="non-scaling-stroke"/><path stroke="#fae3b6" d="M405.6 609.03q-3.96-.42-7.33.16-3.79.65-3.8.65-3.89.52-5.87 1.33-10.74 4.37-16.36 12.29-3.35 4.73-4.76 11.77" vector-effect="non-scaling-stroke"/><path stroke="#f6c35b" d="m339.48 605.26-11.94 8.25" vector-effect="non-scaling-stroke"/><path stroke="#f2c569" d="M262.89 589.92q-3.34 11.9-4.62 23.84a.88.87 81.7 0 1-.52.7q-1.03.44-2.22.49" vector-effect="non-scaling-stroke"/><path stroke="#7d6638" d="m630.58 590.49-10.45 18.73" vector-effect="non-scaling-stroke"/><path stroke="gray" d="M620.13 609.22q-2.67 5.19-5.1 11.29c-1.55 3.87-3.14 10.4-1.69 14.8a.77.77 0 0 0 1.31.28c2.34-2.64 6.23-8.32 10.3-10.81a.97.97 0 0 1 1.47.95q-.14 1.21-.83 2.87c-2.41 5.83-4.04 9.15-4.49 12.25a2.38 2.25 9.5 0 0 1.93 2.56q1.5.28 3.02-.9 7.08-5.49 11.54-9.42.63-.55 1.53-.83a1.27 1.26-83.9 0 1 1.48 1.84l-5.29 9.16a.19.19 0 0 0 .22.28q11.51-3.22 22.41-8.51" vector-effect="non-scaling-stroke"/><path stroke="#7d6638" d="M657.94 635.03c15.55-7.01 28.41-13.04 41.69-22.2" vector-effect="non-scaling-stroke"/><path stroke="#7c6025" d="m699.63 612.83 11.83-7.27" vector-effect="non-scaling-stroke"/><path stroke="#6b4c29" d="M711.46 605.56q2.45-1.65 4.63-1.35" vector-effect="non-scaling-stroke"/><path stroke="#7c6025" d="M716.09 604.21q-2.52 5.82-6.7 10.39a.3.3 0 0 0 .22.5h67.08a.46.45 90 0 0 .45-.46q-.11-14.16-2.03-29.57" vector-effect="non-scaling-stroke"/><path stroke="#6b4c29" d="m775.11 585.07-3.39-20.99a.61.61 0 0 0-.98-.38c-30.85 24.47-71.39 33.07-110.27 27.63q-16.5-2.3-27-5.55a.59.58 21.7 0 0-.7.3l-2.19 4.41" vector-effect="non-scaling-stroke"/><path stroke="#e3aa4c" d="M775.11 585.07q-11.93 6.16-22.29 10.49-15.4 6.44-32.51 8.71-1.7.22-4.22-.06m-4.63 1.35q.01-.81-.03-.84a1.85 1.85 0 0 0-1.84-.34q-6.16 2.26-12.33 1.8-9.28-.69-18.54-1.36" vector-effect="non-scaling-stroke"/><path stroke="#e5b05f" d="M678.72 604.82q-20.34-2.5-39.52-9.75-4.58-1.73-8.62-4.58" vector-effect="non-scaling-stroke"/><path stroke="#f6c35b" d="M678.72 604.82c2.49 5.69 5.97 11.39 12.94 9.7q3.87-.94 7.97-1.69" vector-effect="non-scaling-stroke"/><path stroke="#fae3b6" d="M657.94 635.03q-.58-7.11-4.18-11.8-2.37-3.1-6.26-6.37-3.64-3.06-7.59-4.64-9.25-3.69-19.78-3" vector-effect="non-scaling-stroke"/><path stroke="#735c38" d="m285.2 624-28.01.15a2.41 2.36 23.6 0 0-1.55.59l-25.73 22.66a.24.24 0 0 0 .16.43l88.96.06" vector-effect="non-scaling-stroke"/><path stroke="#6b4c29" d="m319.03 647.89 52.33-.01a.36.35-35.2 0 0 .12-.69c-15.56-5.48-29.95-12.79-43.03-22.64a2.59 2.57 63.3 0 0-1.55-.52l-41.7-.03" vector-effect="non-scaling-stroke"/><path stroke="#daa65f" d="M319.03 647.89q18.36-.43 36.72-.02 2.27.05 4.2-1.01a.55.54 30.9 0 0-.26-1.02q-4.74-.04-8.02-.4c-4.7-.51-11.49-2.75-16.06-2.87-11.91-.32-26.58-.23-41.62-1.2q-15.91-1.02-36.24-1.46a.39.39 0 0 1-.1-.76q4.15-1.17 9.01-1.08 10.71.21 32.75 2c11.12.9 20.93.73 32.81.28a.57.56 58.4 0 0 .25-1.06c-7.04-3.95-14.29-5.86-22.7-6.46-5.83-.42-12.9-1.1-20.19-2.06q-12.32-1.63-24.04-.06c-4.17.56-8.67.57-12.3.42a.36.36 0 0 1-.05-.72q4.37-.79 9.59-1.12 19.44-1.23 43.5.6 1.39.1 3.86.01a.36.35 57.7 0 0 .15-.67c-7.27-3.79-17.03-4.57-25.09-5.23" vector-effect="non-scaling-stroke"/><path stroke="#6b4c29" d="m421.44 637.46-.92 2.59" vector-effect="non-scaling-stroke"/><path stroke="#735c38" d="M420.52 640.05c-2.25 4.45-5.55 4.66-8.63 7.2a.4.4 0 0 0 .26.71h201.6a.66.65 56.4 0 0 .25-1.26l-4.4-1.89a4.54 4.44 79.3 0 1-1.46-1.02c-5.01-5.27-4.45-12.71-3.46-19.26a.49.49 0 0 0-.48-.56l-153.8.03" vector-effect="non-scaling-stroke"/><path stroke="#6b4c29" d="m450.4 624-18.94.1" vector-effect="non-scaling-stroke"/><path stroke="#735c38" d="m431.46 624.1-9.63.01a.67.67 0 0 0-.66.8q1.25 6.23.27 12.55" vector-effect="non-scaling-stroke"/><path stroke="#daa65f" d="M431.46 624.1q2.49.6 5.01 1.03 13.87 2.42 28.08 4.92 7.47 1.32 10.99 1.64c9.79.88 17.96 2.07 27.65 2.24q19.58.36 32.8.35 8.61-.01 17.87-1.19 20.32-2.59 38.82-3.64 3.63-.2 6.9-.81a.38.38 0 0 0-.05-.75c-12.23-.66-25.77 1.71-38.95 2.83q-3.14.26-26.75 1.52-15.36.82-26.77.16-27.35-1.57-52.08-5.58-1.03-.17-2.41-.37-6.22-.93-2.17-2.45m-29.88 16.05c11.19.91 21.83.48 27.9.86 17.38 1.1 30.78 1.24 50.64 2.13q24.85 1.12 47.16-.83 11.33-.99 28.29-2.42 8.23-.7 13.88-.7 12.25-.01 14.29-.37a.28.26-5.2 0 0 .23-.26v-.34a.67.67 0 0 0-.58-.66q-5.5-.81-14.49-.11-3.91.3-42.53 3.33c-21.97 1.71-42.14.46-62.61-.17-4.91-.15-9.37-.65-14.63-.83q-23.38-.79-42.2-1.66-2.31-.11-4.43-.56" vector-effect="non-scaling-stroke"/><path stroke="#735c38" d="m661.45 644.15-7.25 3.23a.21.2 32.4 0 0 .09.39h145.7a.29.29 0 0 0 .19-.51l-25.13-22.06a4.03 4.01 65.5 0 0-2.65-1l-44.86-.05" vector-effect="non-scaling-stroke"/><path stroke="#6b4c29" d="m727.54 624.15-28.43.17a2.74 2.73-62.3 0 0-1.5.47q-16.99 11.74-36.16 19.36" vector-effect="non-scaling-stroke"/><path stroke="#daa65f" d="M727.54 624.15q-4.97 1.14-9.46 3.98a.23.23 0 0 0 0 .39q.03.02.08.08a.31.15-10.1 0 0 .2.06q23.15-1.19 46.52.56a.34.34 0 0 1 .01.68c-5.13.55-8.07.23-16.42-.17-9.23-.45-20.59.6-27.59.41-9.66-.26-19.6 3.33-27.76 7.18a.56.56 0 0 0 .08 1.04q4.5 1.34 9.44 1.61 10 .55 29.96-.02 24.71-.7 40.03-1.91a.26.25 88 0 1 .27.26v.28a.34.33-6.7 0 1-.26.32q-19.58 3.86-40.83 3.32-21.42-.54-33.91-1.18c-2.54-.13-6.67.08-8.49.62-6.7 2-10.93 3.57-17.12 3.02q-5.39-.49-10.84-.53" vector-effect="non-scaling-stroke"/><path stroke="#6b4c29" d="m222.91 692.21.19 9.33" vector-effect="non-scaling-stroke"/><path stroke="#735c38" d="m223.1 701.54.03 26.85a1.27 1.26.9 0 0 1.23 1.26q26.71.92 62.28 3.23 1.01.06 1.66.41a.18.17-34.9 0 1-.06.33l-64.39 7.9a.75.73 86.1 0 0-.64.75l.14 11.9" vector-effect="non-scaling-stroke"/><path stroke="#6b4c29" d="m223.35 754.17.04 3.01" vector-effect="non-scaling-stroke"/><path stroke="#735c38" d="m223.39 757.18-.05 37.55" vector-effect="non-scaling-stroke"/><path stroke="#6b4c29" d="m223.34 794.73.01 15.57a.85.84-90 0 0 .84.85h580.82a.92.91-89.7 0 0 .91-.91l.03-59.7" vector-effect="non-scaling-stroke"/><path stroke="#735c38" d="m805.95 750.54.18-14.03a.33.32 3.8 0 0-.3-.33q-28.12-2.26-56.04-6.01" vector-effect="non-scaling-stroke"/><path stroke="#6b4c29" d="m749.79 730.17 40.76-6.43" vector-effect="non-scaling-stroke"/><path stroke="#735c38" d="m790.55 723.74 15.05-2.29a.78.78 0 0 0 .66-.76l.21-30.93" vector-effect="non-scaling-stroke"/><path stroke="#6b4c29" d="M806.47 689.76v-2.74" vector-effect="non-scaling-stroke"/><path stroke="#735c38" d="m806.47 687.02.68-30.91a.49.49 0 0 0-.49-.5l-353.37-.03" vector-effect="non-scaling-stroke"/><path stroke="#6b4c29" d="m453.29 655.58-3.15-.09" vector-effect="non-scaling-stroke"/><path stroke="#735c38" d="m450.14 655.49-168.42-.02" vector-effect="non-scaling-stroke"/><path stroke="#6b4c29" d="m281.72 655.47-9.02-.04" vector-effect="non-scaling-stroke"/><path stroke="#735c38" d="m272.7 655.43-49.88-.06a.41.4 0 0 0-.41.4l.5 36.44" vector-effect="non-scaling-stroke"/><path stroke="#daa65f" d="M272.7 655.43q.67.73.37 1.48a.64.63 87.7 0 1-.32.35q-4.57 2.12-4.5 7.3c.34 23.66 61.41 24.62 76.58 24.54 20.13-.11 38.43-1.09 56.36-4.9q13.55-2.87 22.19-5.75 9.16-3.04 20.66-9.9 8.76-5.21 9.25-12.97" vector-effect="non-scaling-stroke"/><path stroke="#daa65f" d="m806.47 687.02-4.1-1.08a2.87 2.66-33.2 0 0-.47-.08c-7.76-.53-15.42-.72-23.6-1.77q-57.93-7.38-103.77-11.52-24.96-2.26-60.93-.72c-7.97.34-21.53 1.9-27.81 2.76-22.95 3.15-44.36 7.17-65.98 11.76q-41.37 8.79-70.06 13.8-36.03 6.3-59.91 7.85-22.56 1.46-49.22.78-21.57-.55-40.61-2.75-28.68-3.31-40.41-4.97-11.96-1.69-17.06-2.91-15.08-3.61-17.84-4.14a1.25 1.23-7.3 0 1-.87-.66q-.7-1.4-.37-3.27a.21.21 0 0 0-.17-.24h-.01a.25.22 6.7 0 0-.29.2l-.08 2.15" vector-effect="non-scaling-stroke"/><path stroke="#daa65f" d="M806.47 689.76c-3.4 1.77-9.61.53-12.05.02q-8.5-1.76-18.43-2.54-14.33-1.13-18.41-1.62-27.62-3.28-58.86-6.52c-34.47-3.57-67.19-5.06-100.27-1.6q-18.37 1.92-31.1 4.15c-35.21 6.19-72 14.18-106.25 20.94q-32 6.32-63.52 9.23-38.21 3.52-83.03.08-26.55-2.03-45.92-4.89-4.36-.64-16.13-2.81-7.03-1.29-16.24-2.48-5.32-.68-12.25-2.85a.57.57 0 0 0-.74.5l-.17 2.17m567.45 22.2c-7.21.38-14.64 1.23-21.56 1.06q-10.96-.25-21.37.73c-2.75.26-6.13-.37-8.46-.43q-67.39-1.59-112.66-.09-41.41 1.36-78.97 7.56-15.03 2.48-43.88 8.17c-8.5 1.67-15.53 2.44-25.07 4.12-20.52 3.63-40.88 5.68-62.83 7.34-55.88 4.23-113.21 4.31-166.88 2.02q-7.64-.32-25.52-.05m226.79-98.68q-5.77 10.24-16.49 14.95-7.77 3.41-17.35 6.1-23.83 6.68-48.48 8.16c-18.09 1.09-37.94 1-56.24-.99-8.49-.92-16.14-2.61-23.9-5.15-7.57-2.48-16.72-6.37-14.15-16.14.66-2.51 2.73-3.39 3.19-5.79a.73.72-88.3 0 1 .61-.58l4.39-.58" vector-effect="non-scaling-stroke"/><path stroke="#daa65f" d="M749.79 730.17q-13.08-1.81-26.54-1.84c-46.51-.13-78.34-.51-117.54 2q-15.28.97-30.1 2.74-21.61 2.59-29.96 4.14-6.57 1.23-44.41 8.5c-49.65 9.54-101.82 13.6-154.24 13.92q-29.14.17-56.5.1-12.67-.03-43.76-1.25c-5.45-.21-11.45.03-16.98.11q-3.33.04-6.37-1.41m582.56-6.64q-21.49 13.27-49.61 23-3.89 1.35-4.57 1.21a3.22 3.1 64.5 0 1-.93-.35c-3.88-2.3-7.23-4.54-11.01-5.73-17.64-5.59-35.91-8.02-54.83-8.56q-45.81-1.32-88.49 2.4-16.48 1.44-41.5 5.26c-14.09 2.16-30.14 6.33-42.42 8.6-12.03 2.22-23.11 4.49-34.65 5.55-24.99 2.29-47.25 2.51-75.58 1.45q-35.96-1.35-64.11-.5-19.2.57-34.75 2.18-17.56 1.83-35.93 7.29-4.66 1.38-6.39 2.39a2.43 2.33 24.4 0 1-.82.29q-6.36 1.05-7.75.93-14.61-1.18-29.27-1.22" vector-effect="non-scaling-stroke"/><path stroke="#f2c569" d="M474.106 241.116a8.46 6.18-21.6 0 0-10.141-2.632 8.46 6.18-21.6 0 0-5.59 8.86 8.46 6.18-21.6 0 0 10.14 2.632 8.46 6.18-21.6 0 0 5.59-8.86M429.04 253.25q-4.55 3.1-7.79 9.26c-2.23 4.26-1.99 9.33 3.79 10.53 5.45 1.14 10.04-1.31 14.52-4.37s8.43-6.43 9.36-11.92c.99-5.82-3.64-7.9-8.43-7.37q-6.91.77-11.45 3.87" vector-effect="non-scaling-stroke"/><path stroke="#7c6025" d="M589.65 307.5a1.55 1.54-79.7 0 0-1.25-1.81c-7.23-1.28-13.83-2.76-19.31-7.75-2.39-2.17-3.87-5.06-5.61-7.88a2.46 2.46 0 0 0-3.29-.87q-1.24.69-1.85 2.66c-4.59 14.82 19.15 28.17 30.26 17.49q.86-.83 1.05-1.84m-152.49-.14q.18 1.01 1.03 1.85c10.97 10.78 34.81-2.29 30.39-17.13q-.59-1.97-1.82-2.67a2.46 2.45-59.2 0 0-3.29.83c-1.77 2.8-3.28 5.66-5.69 7.8-5.52 4.92-12.12 6.33-19.35 7.53a1.54 1.54 0 0 0-1.27 1.79m20.59 25.6q-6.63-4.19-14.47-3.76" vector-effect="non-scaling-stroke"/><path stroke="#f6c35b" d="M443.28 329.2q-7.52-.77-14.2 3.65c-6.54 4.32-9.52 9.19-12.34 16.58q-6.09 15.94 1.12 32.45 2.9 6.63 8.51 10.75c7.73 5.67 18.73 8.15 27.36 2.87 7.08-4.34 12.02-9.12 15.58-17.11q5.17-11.62 3.47-23.91c-.62-4.52-2.4-7.91-4.74-12.56q-3.41-6.8-10.29-8.96" vector-effect="non-scaling-stroke"/><path stroke="#7d6638" d="M443.28 329.2c-11.82.99-20.91 9.97-24.74 20.81-4.33 12.3-3.13 27.13 5.52 37.16 8.61 9.98 22.15 12.18 32.96 4.43 18.5-13.27 20.18-45.23.73-58.64" vector-effect="non-scaling-stroke"/><path stroke="#f6c35b" d="M556.43 353.23q-7.35 23.17 12.77 40.04 5.98 5.02 13.04 5.18c9.41.21 20.09-4.15 25.11-12.89q9.22-16.07 3.42-31.92" vector-effect="non-scaling-stroke"/><path stroke="#7c6025" d="M610.77 353.64q-3.37-10.13-9.38-16.27c-9.9-10.11-25-11.3-35.41-1.15q-6.7 6.55-9.55 17.01" vector-effect="non-scaling-stroke"/><path stroke="#7d6638" d="M610.77 353.64q1.88 9.6-.07 19.08c-4.19 20.38-26.01 31.97-42.96 16.78q-5.51-4.93-8.48-12.26-4.71-11.6-2.83-24.01" vector-effect="non-scaling-stroke"/><path stroke="#f9d78b" d="M703.304 381.556a16.19 6.97-15.6 0 0-17.468-2.36 16.19 6.97-15.6 0 0-13.72 11.068 16.19 6.97-15.6 0 0 17.468 2.36 16.19 6.97-15.6 0 0 13.72-11.068m-378.778.013a16.15 6.94-164 0 0 13.611 11.122 16.15 6.94-164 0 0 17.437-2.22 16.15 6.94-164 0 0-13.611-11.122 16.15 6.94-164 0 0-17.437 2.22" vector-effect="non-scaling-stroke"/><path stroke="gray" d="M454.064 341.289a10.39 9.09-83.4 0 0-10.224 9.276 10.39 9.09-83.4 0 0 7.836 11.366 10.39 9.09-83.4 0 0 10.224-9.276 10.39 9.09-83.4 0 0-7.836-11.366m119.349-.075a10.45 9.11-96.8 0 0-7.809 11.455 10.45 9.11-96.8 0 0 10.283 9.298 10.45 9.11-96.8 0 0 7.809-11.456 10.45 9.11-96.8 0 0-10.283-9.298" vector-effect="non-scaling-stroke"/><path stroke="#807a68" d="M492.59 424.35c-2.14 1.15-1.62 3.75-.79 5.65 3.39 7.75 8.94 11.72 16.51 15.02a.77.76 11.8 0 1 .46.7v12.48a1.02.98 64 0 1-.19.59q-2.47 3.45-3.88 4.67-7.57 6.56-11.37 10.11c-2.99 2.79-5.95 7.46-4.27 10.94.7 1.47 2.35 2.78 3.89 1.6q12.92-9.96 20.43-16.81a.32.31-45.7 0 1 .4-.01l20.28 16.82a2.34 2.34 0 0 0 3.01-.03c4.02-3.46.12-9.55-3.06-12.52q-2.03-1.9-12.07-10.79-.5-.44-2.89-3.58a2.03 2.02-64.1 0 1-.43-1.25v-12.17a.87.85-11.3 0 1 .54-.79c8.1-3.26 14.53-8.54 17.08-16.96q.54-1.79-1.35-4.13" vector-effect="non-scaling-stroke"/><path stroke="#f8d1b5" d="M534.89 423.89q-7.03-7.68-20.15-6.99-5.52.29-10.99 1.15c-3.31.53-9.54 2.8-11.16 6.3" vector-effect="non-scaling-stroke"/><path stroke="#7b5950" d="M534.89 423.89q-3.2 3.61-4.62 4.88-3.42 3.03-7.29 5.33c-4.52 2.69-8.5 4.91-13.14 2.83q-5.88-2.64-10.84-6.59c-1.98-1.58-4.15-4.08-6.41-5.99" vector-effect="non-scaling-stroke"/><path stroke="#f8d7cd" d="M510.472 423.506a5.43 3.36-3.1 0 0-5.604-3.061 5.43 3.36-3.1 0 0-5.24 3.649 5.43 3.36-3.1 0 0 5.604 3.061 5.43 3.36-3.1 0 0 5.24-3.649" vector-effect="non-scaling-stroke"/><path stroke="#daa65f" d="M402.98 665.03q-4.11-2.29-7.92-2.8c-6.32-.84-16.49-2.67-24.63-3.03q-14.85-.65-28.37.86c-7.13.8-13.8 1.8-19.64 4.19-1.69.69-2.1 2.58-1.44 3.98a1.63 1.59 1.6 0 0 .71.73q4.36 2.21 11.19 3.15 15.58 2.16 27.28 2.01a.32.31-84.5 0 0 .31-.26l.05-.26a.55.54-82.5 0 0-.49-.65q-13.33-.83-27.2-3.08-3.24-.53-6.08-2.2a.64.63 48.7 0 1 .07-1.13q3.2-1.37 7.41-1.81 18.68-1.98 41.35-1.02c8.96.38 15.1 1.7 25.1 3.09q1.2.17 1.91.1a1 1 0 0 0 .39-1.87m-66.27 68.94a.01.01 0 0 0 .01.01q31.94.12 63.03-2.79c9.25-.87 21.54-2.72 27.86-3.5q10.91-1.35 20.84-2.93 29.4-4.7 46.18-7.06 25.73-3.61 33.36-4.43c38.13-4.06 75.88-5.7 117.51-6.02q26.75-.2 50.02 1.28 13.79.88 15.3.71a.28.27-2.5 0 0 .24-.26l.01-.11a.24.24 0 0 0-.22-.25q-32.33-3.24-58.04-3.96-64.83-1.81-132.91 5.71-16.9 1.87-46.52 6.59-13.71 2.19-46.46 7.2c-18.98 2.9-39.65 5.61-54.15 6.84q-11.65.99-36.11 1.9a.12.11 85.6 0 0-.11.14l.16.93m291.8 62.36q-15.75-.82-30.21-2.31c-4.49-.47-9.39-1.61-13.52-2.44a.21.21 0 0 1-.17-.25l.06-.27a.35.34-82.4 0 1 .36-.28q49.32 2.64 62.72 2.92 16.33.34 23.74-.78 10.08-1.51 24.13-4.12c16.6-3.07 36.33-8.3 51.05-12.02a.54.53-34.5 0 0 .18-.95q-1.01-.71-2.92-1.48-14.7-5.94-30.3-7.92-30.48-3.87-61.87-3.32-45.55.78-83.76 6.47-17.05 2.54-25.93 4.46-28.89 6.27-35.95 7.54-29.86 5.37-58.62 6.15-19.85.53-28.25.24-39.33-1.4-80.5-.94-11.9.13-28.3 1.6c-15.72 1.42-29.27 3.42-41.5 6.96a.47.47 0 0 0 .11.92q9.96.53 12.4.63 45.44 1.81 61.8 2.4 94.88 3.39 180.99 1.95 14.11-.24 28.49-.84 48.9-2.03 53.91-2.35 10.29-.65 22.02-1.24a.11.1-82.8 0 0 .1-.08l.05-.25a.33.33 0 0 0-.31-.4" vector-effect="non-scaling-stroke"/></g><path fill="#fdfdfd" d="M1024 0v1024H0V0zM474.72 213.73q-22.97 4.04-45.37 13.96a.7.69 63.6 0 1-.9-.31c-5.5-10.27-12.1-19.09-21.5-25.78-17.27-12.27-38.44-13.49-57.24-3.75-16.22 8.4-28.25 25.44-31.03 43.7q-5.32 34.85 20.31 58.71a.55.55 0 0 1 .06.74q-17.38 22.42-31.05 47.09a1.18 1.16 6.6 0 1-.73.57q-2.03.52-5.01 1.12c-43.19 8.65-72.16 43.27-82.62 84.83-10.21 40.59-3.66 86.17 25.58 117.39a1.26 1.26 0 0 1 .32 1.15q-8.15 36.23-7.23 72.79a1.55 1.54-22.1 0 1-.51 1.19l-23.13 21.43a3.81 3.78-20.5 0 0-1.21 2.63q-.46 11.85-.57 21.31-.87 75.53-.51 140.95.02 4.2 1.05 5.33c2.62 2.89 7.35 2.55 11.07 2.54q296.95-.17 584.99-.04 7.34 0 7.4-6.79.71-69.08-.54-161.93c-.03-2.19-.57-3.13-2.04-4.59Q803 636.69 790.17 626.1a1.13 1.13 0 0 1-.41-.87q.03-7.27-.08-13.98-.31-20.46-4.78-44.68-.3-1.59-2.77-13.07a1.01 1 58.7 0 1 .2-.84c2.9-3.59 6.06-7.07 8.5-10.49q17.89-25.08 21.1-55.44c3.38-31.93-3.4-64.86-21.07-91.82q-24.95-38.09-69.4-46.05a2.53 2.51-10.3 0 1-1.73-1.19q-14.49-24.27-31.13-46.71a.59.58-41 0 1 .06-.76q9.3-9.16 13.4-16.5 11.94-21.33 6.29-45.69c-4.37-18.83-17.18-34.81-34.72-42.28-18.46-7.86-38.99-5.33-54.69 6.77q-11.73 9.04-19.84 24.83a.55.54 25 0 1-.7.25q-22.72-9.69-45.39-13.94a3.08 3.06-10.6 0 1-2.02-1.37c-4.55-7.23-9.23-15.84-15.08-22.42-5.55-6.24-12.98-3.36-16.82 3.32a.5.5 0 0 1-.73.15c-6.1-4.52-14.04-8.88-21.51-8.37q-9.18.63-7.93 10.58a.55.55 0 0 1-.68.6q-5.35-1.36-11.15-.23c-6.54 1.28-8.13 8.27-5.01 13.54q1.05 1.78 2.79 3.88a.25.25 0 0 1-.15.41"/><path fill="#030202" d="M474.72 213.73a.25.25 0 0 0 .15-.41q-1.74-2.1-2.79-3.88c-3.12-5.27-1.53-12.26 5.01-13.54q5.8-1.13 11.15.23a.55.55 0 0 0 .68-.6q-1.25-9.95 7.93-10.58c7.47-.51 15.41 3.85 21.51 8.37a.5.5 0 0 0 .73-.15c3.84-6.68 11.27-9.56 16.82-3.32 5.85 6.58 10.53 15.19 15.08 22.42a3.08 3.06-10.6 0 0 2.02 1.37q22.67 4.25 45.39 13.94a.55.54 25 0 0 .7-.25q8.11-15.79 19.84-24.83c15.7-12.1 36.23-14.63 54.69-6.77 17.54 7.47 30.35 23.45 34.72 42.28q5.65 24.36-6.29 45.69-4.1 7.34-13.4 16.5a.59.58-41 0 0-.06.76q16.64 22.44 31.13 46.71a2.53 2.51-10.3 0 0 1.73 1.19q44.45 7.96 69.4 46.05c17.67 26.96 24.45 59.89 21.07 91.82q-3.21 30.36-21.1 55.44c-2.44 3.42-5.6 6.9-8.5 10.49a1.01 1 58.7 0 0-.2.84q2.47 11.48 2.77 13.07 4.47 24.22 4.78 44.68.11 6.71.08 13.98a1.13 1.13 0 0 0 .41.87q12.83 10.59 24.14 21.87c1.47 1.46 2.01 2.4 2.04 4.59q1.25 92.85.54 161.93-.06 6.79-7.4 6.79-288.04-.13-584.99.04c-3.72.01-8.45.35-11.07-2.54q-1.03-1.13-1.05-5.33-.36-65.42.51-140.95.11-9.46.57-21.31a3.81 3.78-20.5 0 1 1.21-2.63l23.13-21.43a1.55 1.54-22.1 0 0 .51-1.19q-.92-36.56 7.23-72.79a1.26 1.26 0 0 0-.32-1.15c-29.24-31.22-35.79-76.8-25.58-117.39 10.46-41.56 39.43-76.18 82.62-84.83q2.98-.6 5.01-1.12a1.18 1.16 6.6 0 0 .73-.57q13.67-24.67 31.05-47.09a.55.55 0 0 0-.06-.74q-25.63-23.86-20.31-58.71c2.78-18.26 14.81-35.3 31.03-43.7 18.8-9.74 39.97-8.52 57.24 3.75 9.4 6.69 16 15.51 21.5 25.78a.7.69 63.6 0 0 .9.31q22.4-9.92 45.37-13.96m-101.29 61.59q-2.07-1.2 1.2-5.67 7.15-9.79 17.13-17.99a.5.48 63.3 0 0 .16-.52q-4.11-14.18-15.93-22.74-9.29-6.72-18.96-.66-.71.45-1.68-.38.42-6.03 8.45-8.57c10.99-3.46 22.87 3.73 29.46 12.3q4.58 5.94 7.88 12.69a.49.48-29.6 0 0 .7.19l10.8-7.02 4.46-2.49a.59.59 0 0 0 .24-.77c-7.85-16.01-22.21-29.02-40.74-29.62-10.97-.35-21.65 4.42-29.93 11.69-22.23 20.39-21.32 56.85 2.1 75.91a.42.41 41.7 0 0 .55-.03q5.6-5.6 12.53-9.66.69-.41 2.59.72-1.13 7.02-6.19 13.54c-12.24 15.77-24.72 33.77-35.44 51.76a.42.42 0 0 0 .31.63l12.64 1.22q9.9 1.62 19.62 4.77c4.06 1.32 9.48 3.34 12.44 6.19q.7.67.18 1.45-.41.63-1.3 1.03-6.92-.36-9.71-.96c-28.59-6.09-59.65-3.04-84.09 13.75q-23.42 17.42-34.45 43.88-13.44 32.25-8.92 67.16 2.71 24.58 16.02 44.55c20.85 31.3 58.38 47.78 94.81 49.21q37.26 1.46 72.59-12.46c15.82-6.23 28.3-12.71 43.59-21.14q1.17-.65 4.91-1.6l2.33-.02q.56.04.79.22a.59.59 0 0 1 .04.9c-18.95 17.5-42.81 30.36-67.34 37.75a.44.44 0 0 0-.13.78q8.55 6.17 15.01 16.53l6.63 12.94a.75.72-12.9 0 0 .66.4h186.77a.83.83 0 0 0 .74-.45l6.85-13.1q6.17-10.05 14.89-16.93a.32.32 0 0 0-.1-.55q-26.77-8.49-49.74-24.49-9.56-6.67-16.05-13.43 4.44-.92 9.19 1.67 21.28 12.68 44.31 21.54 34.86 13.42 72.09 11.77c24.46-1.08 50.34-9.47 69.69-24.11q36.32-27.48 40.93-73.62-.13-.93.01-1.99.24-1.8.25-2c2.17-34.01-8.01-67.32-31.36-92.37q-8.97-9.69-21.15-16.11-20.39-10.75-43.51-11.59-5.69-.2-15.46.36-9.91.93-20.07 2.76c-2.05.36-4.67.38-6.94.2a1.4 1.4 0 0 1-1.27-1.66q0-.01.4-.43 2.1-2.19 6.67-4.13 10.56-4.48 23.66-6.57l14.06-1.28a.39.38 74.9 0 0 .31-.55q-1.31-2.76-2.29-4.28-13.4-20.97-18.34-27.58-7.93-10.61-15.59-21.22-5.25-6.45-5.57-13.08 1.92-.61 3.17-.09 6.35 3.9 11.93 9.21a.82.8 47.9 0 0 1.06.06c13.16-10.25 19.9-27.4 17.95-43.82q-2.05-17.27-13.99-29.64c-11.53-11.8-27.31-16.69-43.11-11.83-12.99 4-23.68 15.38-29.51 27.65a.62.61-61.4 0 0 .23.79l3.46 2.11 12.04 7.59a.3.3 0 0 0 .44-.13c4.55-10.16 10.8-19.17 21.18-23.9 8.39-3.82 19.31-2.99 24.56 5.56q.75 1.21-.52 2.01-.85.07-1.29-.21-8.49-5.28-17.13-.24c-8.71 5.08-14.1 13.94-17.69 23.43a1.17 1.17 0 0 0 .35 1.31c7.55 6.31 14.9 13.38 19.39 22.21q-2.96.77-7.66-2.46-5.02-3.44-16.86-11.61-27.99-19.29-58.87-28.61-9.84-2.97-20-5.56c-10.57-2.7-17.86-18.38-22.86-27.56a.38.38 0 0 0-.68.01q-1 2.02-1.36 4.47-.82 5.69-2.07 10.97l-1.28-.07c-4.39-2.7-7.9-6.89-11.73-10.32q-4.67-4.18-10.07-6.9a.43.42-1.6 0 0-.56.59c3.02 5.26 6.6 11.71 6.25 17.37a1.35 1.35 0 0 1-1.62 1.23q-1.64-.34-2.03-.76-1.34-1.45-10.16-5.47-11.62-5.31-8.83-2 1.18 1.38 3.96 3.96c3.33 3.09 5.89 9.97-.38 12.57q-2.43 1.01-2.94 1.07c-31.38 3.9-62.32 17.11-88.43 34.98q-9.55 6.54-16.32 11.4-3.1 2.23-7.41 3.99M252.79 583.71q-1.88 16.04-1.74 31.65a.4.39 83.9 0 0 .47.38l4.01-.79h60.67a.28.28 0 0 0 .2-.47q-3.95-4.13-6.15-9.11a.74.74 0 0 1 .85-1.02q2.96.72 5.04 1.95 5.74 3.38 11.4 7.21c12.2 8.63 26.31 15.71 39.94 21.72q11.09 5.47 22.7 8.36a.43.43 0 0 0 .44-.69q-3.65-4.56-5.15-9.55a.97.97 0 0 1 1.53-1.04q4.61 3.66 9.3 7.87c1.99 1.78 6.2 5.16 8.27 2.61a1.33 1.29 62.1 0 0 .28-.97c-.66-5.51-4.45-11.55-5.59-15.86a1.11 1.11 0 0 1 1.31-1.37q.59.13 1.18.65 3.11 2.76 9.06 10.32a.82.82 0 0 0 1.41-.21c1.7-4.32-.11-10.96-1.69-15.15q-2.28-6.04-4.93-11.17l-9.52-17.4-2.82-5.47a.63.62-21.1 0 0-.73-.32c-47.01 12.73-96.67 8.16-135.67-22.73a.45.45 0 0 0-.73.28zm377.79 6.78-10.45 18.73q-2.67 5.19-5.1 11.29c-1.55 3.87-3.14 10.4-1.69 14.8a.77.77 0 0 0 1.31.28c2.34-2.64 6.23-8.32 10.3-10.81a.97.97 0 0 1 1.47.95q-.14 1.21-.83 2.87c-2.41 5.83-4.04 9.15-4.49 12.25a2.38 2.25 9.5 0 0 1.93 2.56q1.5.28 3.02-.9 7.08-5.49 11.54-9.42.63-.55 1.53-.83a1.27 1.26-83.9 0 1 1.48 1.84l-5.29 9.16a.19.19 0 0 0 .22.28q11.51-3.22 22.41-8.51c15.55-7.01 28.41-13.04 41.69-22.2l11.83-7.27q2.45-1.65 4.63-1.35-2.52 5.82-6.7 10.39a.3.3 0 0 0 .22.5h67.08a.46.45 90 0 0 .45-.46q-.11-14.16-2.03-29.57l-3.39-20.99a.61.61 0 0 0-.98-.38c-30.85 24.47-71.39 33.07-110.27 27.63q-16.5-2.3-27-5.55a.59.58 21.7 0 0-.7.3zM285.2 624l-28.01.15a2.41 2.36 23.6 0 0-1.55.59l-25.73 22.66a.24.24 0 0 0 .16.43l88.96.06 52.33-.01a.36.35-35.2 0 0 .12-.69c-15.56-5.48-29.95-12.79-43.03-22.64a2.59 2.57 63.3 0 0-1.55-.52zm136.24 13.46-.92 2.59c-2.25 4.45-5.55 4.66-8.63 7.2a.4.4 0 0 0 .26.71h201.6a.66.65 56.4 0 0 .25-1.26l-4.4-1.89a4.54 4.44 79.3 0 1-1.46-1.02c-5.01-5.27-4.45-12.71-3.46-19.26a.49.49 0 0 0-.48-.56l-153.8.03-18.94.1-9.63.01a.67.67 0 0 0-.66.8q1.25 6.23.27 12.55m240.01 6.69-7.25 3.23a.21.2 32.4 0 0 .09.39h145.7a.29.29 0 0 0 .19-.51l-25.13-22.06a4.03 4.01 65.5 0 0-2.65-1l-44.86-.05-28.43.17a2.74 2.73-62.3 0 0-1.5.47q-16.99 11.74-36.16 19.36m-438.54 48.06.19 9.33.03 26.85a1.27 1.26.9 0 0 1.23 1.26q26.71.92 62.28 3.23 1.01.06 1.66.41a.18.17-34.9 0 1-.06.33l-64.39 7.9a.75.73 86.1 0 0-.64.75l.14 11.9.04 3.01-.05 37.55.01 15.57a.85.84-90 0 0 .84.85h580.82a.92.91-89.7 0 0 .91-.91l.03-59.7.18-14.03a.33.32 3.8 0 0-.3-.33q-28.12-2.26-56.04-6.01l40.76-6.43 15.05-2.29a.78.78 0 0 0 .66-.76l.21-30.93v-2.74l.68-30.91a.49.49 0 0 0-.49-.5l-353.37-.03-3.15-.09-168.42-.02-9.02-.04-49.88-.06a.41.4 0 0 0-.41.4z"/><path fill="#efcc89" d="M523.7 213.61q-2.99.42-5.9-.4a1.44 1.4 79 0 1-.75-.52q-2.17-2.91-5.83-3.93a1.37 1.36 13.6 0 0-1.71 1.04l-1.39 6.9a.65.65 0 0 1-.77.51l-11.08-2.23a1.18 1.18 0 0 0-1.4 1.01q-1.3 10.11-11.9 11.58-12.78 1.77-20.22 4.64c-14.82 5.72-20.81 7.29-30.2 13.64q-7.07 4.78-8.98 5.84c-6.88 3.83-11.33 6.16-15.97 10.15-8.22 7.08-19.4 16.09-28.05 25.65q-11.77 13.02-16.86 19.79-5.94 7.88-12.39 18.28-6.05 9.77-11.26 19.01-1.53 2.71-3.28 5.28l-12.64-1.22a.42.42 0 0 1-.31-.63c10.72-17.99 23.2-35.99 35.44-51.76q5.06-6.52 6.19-13.54l8.99-7.38q4.31-1.76 7.41-3.99 6.77-4.86 16.32-11.4c26.11-17.87 57.05-31.08 88.43-34.98q.51-.06 2.94-1.07c6.27-2.6 3.71-9.48.38-12.57q-2.78-2.58-3.96-3.96-2.79-3.31 8.83 2 8.82 4.02 10.16 5.47.39.42 2.03.76a1.35 1.35 0 0 0 1.62-1.23c.35-5.66-3.23-12.11-6.25-17.37a.43.42-1.6 0 1 .56-.59q5.4 2.72 10.07 6.9c3.83 3.43 7.34 7.62 11.73 10.32"/><path fill="#f7c96e" d="M655.34 274.03q3 4.54 7.48 7.93.32 6.63 5.57 13.08-1.14.83-2.3.75-4.35-5.69-6.29-12.72-1.16-4.17-4.84-6-9.65-4.81-20.55-11.64c-4.21-2.64-8.73-6.7-13.54-9.53q-8.44-4.96-24.94-13.08-7.69-3.78-16.26-6.28c-12.23-3.57-16.69-5.21-28.64-8.83q-6.89-2.09-12.43-9.26c-2.42-3.14-4.06-5.05-6.83-7.27a2.6 2.6 0 0 0-3.12-.1l-3.67 2.6q1.25-5.28 2.07-10.97.36-2.45 1.36-4.47a.38.38 0 0 1 .68-.01c5 9.18 12.29 24.86 22.86 27.56q10.16 2.59 20 5.56 30.88 9.32 58.87 28.61 11.84 8.17 16.86 11.61 4.7 3.23 7.66 2.46"/><path fill="#efcc89" d="M412.64 236.95q-6.98-12.6-18.64-18.71-7.52-3.94-19.13-5.92c-4.16-.71-9.26-.27-13.48.16-5.17.52-9.67 1.45-12.91 4.99q-1.08-.63-1.81-1.71c8.28-7.27 18.96-12.04 29.93-11.69 18.53.6 32.89 13.61 40.74 29.62a.59.59 0 0 1-.24.77zm270.3-19.27q-.7.55-1.65.47a1.51 1.49-22 0 1-.86-.36q-5.04-4.4-11.9-5.38c-14.36-2.06-30.19.55-41.43 10.19q-7.24 6.2-13.09 13.8l-3.46-2.11a.62.61-61.4 0 1-.23-.79c5.83-12.27 16.52-23.65 29.51-27.65 15.8-4.86 31.58.03 43.11 11.83"/><path fill="#f4bd48" d="m523.7 213.61 1.28.07 3.67-2.6a2.6 2.6 0 0 1 3.12.1c2.77 2.22 4.41 4.13 6.83 7.27q5.54 7.17 12.43 9.26c11.95 3.62 16.41 5.26 28.64 8.83q8.57 2.5 16.26 6.28 16.5 8.12 24.94 13.08c4.81 2.83 9.33 6.89 13.54 9.53q10.9 6.83 20.55 11.64 3.68 1.83 4.84 6 1.94 7.03 6.29 12.72 2.98 4.86 3.87 6.78c5.6 12.02 10.55 24.28 15.95 36.38q2.4 5.37 4.33 11-13.1 2.09-23.66 6.57-4.57 1.94-6.67 4.13-.4.42-.4.43a1.4 1.4 0 0 0 1.27 1.66c2.27.18 4.89.16 6.94-.2q10.16-1.83 20.07-2.76-.68.93 1.47 1.4.96.2 2.46.17c7.37-.18 13.31 1.94 21.08 3.79q6.32 1.51 10.04 2.86 11.51 4.18 21.07 10.01c5.26 3.21 11.93 8.84 16.81 12.77 3.73 3.01 10.65 8.78 10.52 13.21q-.2 6.63-.07 13.21c-3.63 26.27-18.3 46.93-40.56 60.86q-9.75-9.81-19.25-19.39c-9.21-9.31-18.19-17.1-29.08-21.78-26.38-11.32-51.52.9-74.28 15.68q-17.7-5.82-36.18-5.72 1.46.25 1.55-.49a.3.29-68.6 0 0-.11-.27q-1.3-.92-1.87-1.76-1.24-1.79-3.78-6.22 28.06-11.04 57.03-15.84a.58.57-47 0 0-.04-1.14q-30.57-2.81-55.96 11.49-1.25.7-4.23 3.09-.96-2.23-3.45-4.67-1.33-1.29-4.52-5.27-8.04-9.99-19.07-16.41-9.17-5.33-21.36-5.94-17.91-.88-31.55 9.01-6.91 5.02-11.37 10.39-5.13 6.19-10.32 12.5-5.18-3.83-12.03-6.81-22.9-9.92-46.99-7.31-.73.08-1.08.47a.36.36 0 0 0 .2.59c19.09 3.54 38.41 8.39 56.92 15.78q-1.83 4.38-5.57 7.77-12.3-.82-22.47 1.67-1.8.44-13.03 3.67a1.5 1.47 49.9 0 1-1.05-.1q-16.46-8.23-27.48-13.17c-14.91-6.68-31.41-8.63-46.2-3.04q-16.38 6.19-29.16 18.89-10.94 10.86-21.82 21.85-22.15-14.88-31.83-39.23c-1.3-3.26-1.97-6.9-3.17-10.67a2.66 2.65 36.1 0 1-.13-.82v-1.45a.46.44-81.2 0 0-.3-.43q-.48-.17-.45-.69t.02-.59q-.51-4.89-1.18-9.71l.15-7.59a3.5 3.47-28 0 1 .57-1.84q2.23-3.44 4.96-6.14 11.2-11.1 25.25-20.03 2.56-1.63 12.99-6.37c7.78-3.54 15.89-4.72 24.71-7.14q3.3-.9 6.47-1.17 5.33-.44 6.58-.31 10.05 1.08 20.67 3.18.41.08 4.89.51 3.17.3 3.49-1.8.89-.4 1.3-1.03.52-.78-.18-1.45c-2.96-2.85-8.38-4.87-12.44-6.19q-9.72-3.15-19.62-4.77 1.75-2.57 3.28-5.28 5.21-9.24 11.26-19.01 6.45-10.4 12.39-18.28 5.09-6.77 16.86-19.79c8.65-9.56 19.83-18.57 28.05-25.65 4.64-3.99 9.09-6.32 15.97-10.15q1.91-1.06 8.98-5.84c9.39-6.35 15.38-7.92 30.2-13.64q7.44-2.87 20.22-4.64 10.6-1.47 11.9-11.58a1.18 1.18 0 0 1 1.4-1.01l11.08 2.23a.65.65 0 0 0 .77-.51l1.39-6.9a1.37 1.36 13.6 0 1 1.71-1.04q3.66 1.02 5.83 3.93a1.44 1.4 79 0 0 .75.52q2.91.82 5.9.4m-49.594 27.506a8.46 6.18-21.6 0 0-10.141-2.632 8.46 6.18-21.6 0 0-5.59 8.86 8.46 6.18-21.6 0 0 10.14 2.632 8.46 6.18-21.6 0 0 5.59-8.86M429.04 253.25q-4.55 3.1-7.79 9.26c-2.23 4.26-1.99 9.33 3.79 10.53 5.45 1.14 10.04-1.31 14.52-4.37s8.43-6.43 9.36-11.92c.99-5.82-3.64-7.9-8.43-7.37q-6.91.77-11.45 3.87m160.61 54.25a1.55 1.54-79.7 0 0-1.25-1.81c-7.23-1.28-13.83-2.76-19.31-7.75-2.39-2.17-3.87-5.06-5.61-7.88a2.46 2.46 0 0 0-3.29-.87q-1.24.69-1.85 2.66c-4.59 14.82 19.15 28.17 30.26 17.49q.86-.83 1.05-1.84m-152.49-.14q.18 1.01 1.03 1.85c10.97 10.78 34.81-2.29 30.39-17.13q-.59-1.97-1.82-2.67a2.46 2.45-59.2 0 0-3.29.83c-1.77 2.8-3.28 5.66-5.69 7.8-5.52 4.92-12.12 6.33-19.35 7.53a1.54 1.54 0 0 0-1.27 1.79m20.59 25.6q-6.63-4.19-14.47-3.76-7.52-.77-14.2 3.65c-6.54 4.32-9.52 9.19-12.34 16.58q-6.09 15.94 1.12 32.45 2.9 6.63 8.51 10.75c7.73 5.67 18.73 8.15 27.36 2.87 7.08-4.34 12.02-9.12 15.58-17.11q5.17-11.62 3.47-23.91c-.62-4.52-2.4-7.91-4.74-12.56q-3.41-6.8-10.29-8.96m98.68 20.27q-7.35 23.17 12.77 40.04 5.98 5.02 13.04 5.18c9.41.21 20.09-4.15 25.11-12.89q9.22-16.07 3.42-31.92-3.37-10.13-9.38-16.27c-9.9-10.11-25-11.3-35.41-1.15q-6.7 6.55-9.55 17.01m146.874 28.326a16.19 6.97-15.6 0 0-17.468-2.36 16.19 6.97-15.6 0 0-13.72 11.068 16.19 6.97-15.6 0 0 17.468 2.36 16.19 6.97-15.6 0 0 13.72-11.068m-378.778.012a16.15 6.94-164 0 0 13.611 11.123 16.15 6.94-164 0 0 17.437-2.22 16.15 6.94-164 0 0-13.611-11.122 16.15 6.94-164 0 0-17.437 2.22M682.94 217.68q11.94 12.37 13.99 29.64c1.95 16.42-4.79 33.57-17.95 43.82a.82.8 47.9 0 1-1.06-.06q-5.58-5.31-11.93-9.21 3.75-5.66 6.9-11.74 5.91-11.42 4.31-24.25-1.14-9.11-5.38-17.2-.26-.51-.11-1.15 1.27-.8.52-2.01c-5.25-8.55-16.17-9.38-24.56-5.56-10.38 4.73-16.63 13.74-21.18 23.9a.3.3 0 0 1-.44.13l-12.04-7.59q5.85-7.6 13.09-13.8c11.24-9.64 27.07-12.25 41.43-10.19q6.86.98 11.9 5.38a1.51 1.49-22 0 0 .86.36q.95.08 1.65-.47m-270.3 19.27-10.8 7.02a.49.48-29.6 0 1-.7-.19q-3.3-6.75-7.88-12.69c-6.59-8.57-18.47-15.76-29.46-12.3q-8.03 2.54-8.45 8.57-.36 5.31-2.92 10.25a3.88 3.8-23.8 0 0-.3.75q-3.72 12.98.11 25.56c1.54 5.06 5.19 10.42 8.06 15.35q-4.42 4.54-9.87 7.62a1.12 1.11 39.6 0 1-.9.08c-7.11-2.49-11.59-10.78-14.13-18.18-4.62-13.43-3.89-28.07 3.54-40.28 2.28-3.76 6.26-7.53 9.54-11.04 3.24-3.54 7.74-4.47 12.91-4.99 4.22-.43 9.32-.87 13.48-.16q11.61 1.98 19.13 5.92 11.66 6.11 18.64 18.71"/><path fill="#e2b56d" d="M346.67 215.76q.73 1.08 1.81 1.71c-3.28 3.51-7.26 7.28-9.54 11.04-7.43 12.21-8.16 26.85-3.54 40.28 2.54 7.4 7.02 15.69 14.13 18.18a1.12 1.11 39.6 0 0 .9-.08q5.45-3.08 9.87-7.62l1.55 2.71q-6.93 4.06-12.53 9.66a.42.41 41.7 0 1-.55.03c-23.42-19.06-24.33-55.52-2.1-75.91"/><path fill="#f3b09d" d="M671.71 227.53q-.15.64.11 1.15 4.24 8.09 5.38 17.2 1.6 12.83-4.31 24.25-3.15 6.08-6.9 11.74-1.25-.52-3.17.09-4.48-3.39-7.48-7.93c-4.49-8.83-11.84-15.9-19.39-22.21a1.17 1.17 0 0 1-.35-1.31c3.59-9.49 8.98-18.35 17.69-23.43q8.64-5.04 17.13.24.44.28 1.29.21m-298.28 47.79-8.99 7.38q-1.9-1.13-2.59-.72l-1.55-2.71c-2.87-4.93-6.52-10.29-8.06-15.35q-3.83-12.58-.11-25.56a3.88 3.8-23.8 0 1 .3-.75q2.56-4.94 2.92-10.25.97.83 1.68.38 9.67-6.06 18.96.66 11.82 8.56 15.93 22.74a.5.48 63.3 0 1-.16.52q-9.98 8.2-17.13 17.99-3.27 4.47-1.2 5.67"/><ellipse fill="#efcc89" rx="8.46" ry="6.18" transform="rotate(-21.6 873.27 -1099.943)"/><path fill="#efcc89" d="M439.56 268.67c-4.48 3.06-9.07 5.51-14.52 4.37-5.78-1.2-6.02-6.27-3.79-10.53q3.24-6.16 7.79-9.26 4.54-3.1 11.45-3.87c4.79-.53 9.42 1.55 8.43 7.37-.93 5.49-4.88 8.86-9.36 11.92"/><path fill="#030202" d="M589.65 307.5q-.19 1.01-1.05 1.84c-11.11 10.68-34.85-2.67-30.26-17.49q.61-1.97 1.85-2.66a2.46 2.46 0 0 1 3.29.87c1.74 2.82 3.22 5.71 5.61 7.88 5.48 4.99 12.08 6.47 19.31 7.75a1.55 1.54-79.7 0 1 1.25 1.81m-152.49-.14a1.54 1.54 0 0 1 1.27-1.79c7.23-1.2 13.83-2.61 19.35-7.53 2.41-2.14 3.92-5 5.69-7.8a2.46 2.45-59.2 0 1 3.29-.83q1.23.7 1.82 2.67c4.42 14.84-19.42 27.91-30.39 17.13q-.85-.84-1.03-1.85"/><path fill="#d29650" d="M690.24 349.95q-1.93-5.63-4.33-11c-5.4-12.1-10.35-24.36-15.95-36.38q-.89-1.92-3.87-6.78 1.16.08 2.3-.75 7.66 10.61 15.59 21.22 4.94 6.61 18.34 27.58.98 1.52 2.29 4.28a.39.38 74.9 0 1-.31.55z"/><path fill="#f7c96e" d="M443.28 329.2c-11.82.99-20.91 9.97-24.74 20.81-4.33 12.3-3.13 27.13 5.52 37.16 8.61 9.98 22.15 12.18 32.96 4.43 18.5-13.27 20.18-45.23.73-58.64q6.88 2.16 10.29 8.96c2.34 4.65 4.12 8.04 4.74 12.56q1.7 12.29-3.47 23.91c-3.56 7.99-8.5 12.77-15.58 17.11-8.63 5.28-19.63 2.8-27.36-2.87q-5.61-4.12-8.51-10.75-7.21-16.51-1.12-32.45c2.82-7.39 5.8-12.26 12.34-16.58q6.68-4.42 14.2-3.65"/><path fill="#030202" d="M443.28 329.2q7.84-.43 14.47 3.76c19.45 13.41 17.77 45.37-.73 58.64-10.81 7.75-24.35 5.55-32.96-4.43-8.65-10.03-9.85-24.86-5.52-37.16 3.83-10.84 12.92-19.82 24.74-20.81m10.784 12.089a10.39 9.09-83.4 0 0-10.224 9.276 10.39 9.09-83.4 0 0 7.836 11.366 10.39 9.09-83.4 0 0 10.224-9.276 10.39 9.09-83.4 0 0-7.836-11.366M610.77 353.64q1.88 9.6-.07 19.08c-4.19 20.38-26.01 31.97-42.96 16.78q-5.51-4.93-8.48-12.26-4.71-11.6-2.83-24.01 2.85-10.46 9.55-17.01c10.41-10.15 25.51-8.96 35.41 1.15q6.01 6.14 9.38 16.27m-37.357-12.426a10.45 9.11-96.8 0 0-7.809 11.455 10.45 9.11-96.8 0 0 10.283 9.298 10.45 9.11-96.8 0 0 7.809-11.456 10.45 9.11-96.8 0 0-10.283-9.298"/><ellipse fill="#fdfdfd" rx="10.39" ry="9.09" transform="rotate(-83.4 423.754 -78.34)"/><ellipse fill="#fdfdfd" rx="10.45" ry="9.11" transform="rotate(-96.8 443.403 -79.304)"/><path fill="#f7c96e" d="M556.43 353.23q-1.88 12.41 2.83 24.01 2.97 7.33 8.48 12.26c16.95 15.19 38.77 3.6 42.96-16.78q1.95-9.48.07-19.08 5.8 15.85-3.42 31.92c-5.02 8.74-15.7 13.1-25.11 12.89q-7.06-.16-13.04-5.18-20.12-16.87-12.77-40.04"/><path fill="#efcc89" d="M366.7 363.29q-.32 2.1-3.49 1.8-4.48-.43-4.89-.51-10.62-2.1-20.67-3.18-1.25-.13-6.58.31-3.17.27-6.47 1.17c-8.82 2.42-16.93 3.6-24.71 7.14q-10.43 4.74-12.99 6.37-14.05 8.93-25.25 20.03-2.73 2.7-4.96 6.14a3.5 3.47-28 0 0-.57 1.84l-.15 7.59q-1.32-9.94-.45-14.2.71-3.49 2.21-5.32 5.45-6.67 14.32-13.16 1.61-1.18.85-3.23c24.44-16.79 55.5-19.84 84.09-13.75q2.79.6 9.71.96m401.21 23.83 3.27 7.5a13.52 13.46 32.5 0 1 1.14 5.08q.26 8.76-1.15 17.5-.13-6.58.07-13.21c.13-4.43-6.79-10.2-10.52-13.21-4.88-3.93-11.55-9.56-16.81-12.77q-9.56-5.83-21.07-10.01-3.72-1.35-10.04-2.86c-7.77-1.85-13.71-3.97-21.08-3.79q-1.5.03-2.46-.17-2.15-.47-1.47-1.4 9.77-.56 15.46-.36 23.12.84 43.51 11.59 12.18 6.42 21.15 16.11"/><path fill="#fdf1cd" d="M272.9 376.08q.76 2.05-.85 3.23-8.87 6.49-14.32 13.16-1.5 1.83-2.21 5.32-.87 4.26.45 14.2.67 4.82 1.18 9.71.01.07-.02.59t.45.69a.46.44-81.2 0 1 .3.43v1.45a2.66 2.65 36.1 0 0 .13.82c1.2 3.77 1.87 7.41 3.17 10.67q9.68 24.35 31.83 39.23 20.11 13.71 42.42 17.03c28.25 4.2 55.54.42 80.6-13.62q19.44-10.89 32.86-26.15l14.7-2.76a.6.6 0 0 0 .31-1.02c-2.08-1.97-6.97-1.83-9.67-1.91q-.32-.01-.47-.17-.17-.17-.07-.48.14-.42.53-.69 3.74-3.39 5.57-7.77 2.85 1.58 6.12 2.2a.61.61 0 0 0 .63-.92q-1.51-2.46-3.77-4 5.19-6.31 10.32-12.5 4.46-5.37 11.37-10.39 13.64-9.89 31.55-9.01 12.19.61 21.36 5.94 11.03 6.42 19.07 16.41 3.19 3.98 4.52 5.27 2.49 2.44 3.45 4.67l-3.44 3.26a.76.75-76.5 0 0 .77 1.26l5.87-2.12q2.54 4.43 3.78 6.22.57.84 1.87 1.76a.3.29-68.6 0 1 .11.27q-.09.74-1.55.49c-1.86.15-6.78.18-8.02 1.56a1.22 1.22 0 0 0 .7 2.02l13.24 2.31q3.38 4.01 8.44 8.58c28.64 25.8 67.51 36.88 105.57 31.14q20.86-3.15 38.86-14.4c22.26-13.93 36.93-34.59 40.56-60.86q1.41-8.74 1.15-17.5a13.52 13.46 32.5 0 0-1.14-5.08l-3.27-7.5c23.35 25.05 33.53 58.36 31.36 92.37q-.01.2-.25 2-.14 1.06-.01 1.99-3.19 5.12-6.34 10.1c-3.87 6.1-6.35 12.27-11.03 17.31q-3.52 3.8-9.79 10.46-8.83 9.38-19.93 16.58c-38.32 24.89-85.32 32.11-129.97 22.58q-19.48-4.16-35.93-9.18-.01-.01-5.35-1.96-4.41-1.62-8.68-1.47-4.75-2.59-9.19-1.67-11.36-5.03-25.23-3.32a.26.25 66.2 0 0-.16.42q2.44 2.91 6.22 6.64 8.17 8.06 13.23 12.45 10.53 9.15 27.53 21.69 6.01 4.43 29.41 17.52l-6.85 13.1a.83.83 0 0 1-.74.45H419.44a.75.72-12.9 0 1-.66-.4l-6.63-12.94q18.26-8.76 29.75-16.67 7.94-5.46 25.79-19.92 5.33-4.32 9.03-8.1c5.48-5.62 8.98-8.58 12.77-13.64a.56.56 0 0 0-.44-.89q-12.72-.36-25.27 3.04l-2.33.02q-5.16-.54-9.63 1.94-2.12 1.18-5.7 2.28-9.2 2.83-18.11 5.32-7.06 1.97-33.75 7.07-6.87 1.31-23.72 1.84c-.58.02-1.1-.21-1.79-.2q-22.66.49-43.49-4.69-34.53-8.57-61.48-29.99-7.65-6.08-20.1-20.2a2.06 1.92 9.4 0 1-.23-.3l-13.92-21.63q-4.52-34.91 8.92-67.16 11.03-26.46 34.45-43.88m219.69 48.27c-2.14 1.15-1.62 3.75-.79 5.65 3.39 7.75 8.94 11.72 16.51 15.02a.77.76 11.8 0 1 .46.7v12.48a1.02.98 64 0 1-.19.59q-2.47 3.45-3.88 4.67-7.57 6.56-11.37 10.11c-2.99 2.79-5.95 7.46-4.27 10.94.7 1.47 2.35 2.78 3.89 1.6q12.92-9.96 20.43-16.81a.32.31-45.7 0 1 .4-.01l20.28 16.82a2.34 2.34 0 0 0 3.01-.03c4.02-3.46.12-9.55-3.06-12.52q-2.03-1.9-12.07-10.79-.5-.44-2.89-3.58a2.03 2.02-64.1 0 1-.43-1.25v-12.17a.87.85-11.3 0 1 .54-.79c8.1-3.26 14.53-8.54 17.08-16.96q.54-1.79-1.35-4.13-7.03-7.68-20.15-6.99-5.52.29-10.99 1.15c-3.31.53-9.54 2.8-11.16 6.3"/><ellipse fill="#fdf1cd" rx="16.19" ry="6.97" transform="rotate(-15.6 1752.46 -2317.248)"/><ellipse fill="#fdf1cd" rx="16.15" ry="6.94" transform="rotate(196 197.15 169.115)"/><path fill="#f3b09d" d="M534.89 423.89q-3.2 3.61-4.62 4.88-3.42 3.03-7.29 5.33c-4.52 2.69-8.5 4.91-13.14 2.83q-5.88-2.64-10.84-6.59c-1.98-1.58-4.15-4.08-6.41-5.99 1.62-3.5 7.85-5.77 11.16-6.3q5.47-.86 10.99-1.15 13.12-.69 20.15 6.99m-24.418-.384a5.43 3.36-3.1 0 0-5.604-3.061 5.43 3.36-3.1 0 0-5.24 3.649 5.43 3.36-3.1 0 0 5.604 3.061 5.43 3.36-3.1 0 0 5.24-3.649"/><ellipse fill="#fdfdfd" rx="5.43" ry="3.36" transform="rotate(-3.1 8083.502 -9120.414)"/><path fill="#030202" d="m567.61 438.11-5.87 2.12a.76.75-76.5 0 1-.77-1.26l3.44-3.26q2.98-2.39 4.23-3.09 25.39-14.3 55.96-11.49a.58.57-47 0 1 .04 1.14q-28.97 4.8-57.03 15.84m-104.84-2.79q2.26 1.54 3.77 4a.61.61 0 0 1-.63.92q-3.27-.62-6.12-2.2c-18.51-7.39-37.83-12.24-56.92-15.78a.36.36 0 0 1-.2-.59q.35-.39 1.08-.47 24.09-2.61 46.99 7.31 6.85 2.98 12.03 6.81m29.82-10.97c2.26 1.91 4.43 4.41 6.41 5.99q4.96 3.95 10.84 6.59c4.64 2.08 8.62-.14 13.14-2.83q3.87-2.3 7.29-5.33 1.42-1.27 4.62-4.88 1.89 2.34 1.35 4.13c-2.55 8.42-8.98 13.7-17.08 16.96a.87.85-11.3 0 0-.54.79v12.17a2.03 2.02-64.1 0 0 .43 1.25q2.39 3.14 2.89 3.58 10.04 8.89 12.07 10.79c3.18 2.97 7.08 9.06 3.06 12.52a2.34 2.34 0 0 1-3.01.03l-20.28-16.82a.32.31-45.7 0 0-.4.01q-7.51 6.85-20.43 16.81c-1.54 1.18-3.19-.13-3.89-1.6-1.68-3.48 1.28-8.15 4.27-10.94q3.8-3.55 11.37-10.11 1.41-1.22 3.88-4.67a1.02.98 64 0 0 .19-.59v-12.48a.77.76 11.8 0 0-.46-.7c-7.57-3.3-13.12-7.27-16.51-15.02-.83-1.9-1.35-4.5.79-5.65"/><path fill="#f7c96e" d="M454.22 445.81q-.39.27-.53.69-.1.31.07.48.15.16.47.17-29.69-.14-54.67 15.4-.5.31-.49.69a.28.28 0 0 0 .36.27q24.77-6.78 49.46-10.67-13.42 15.26-32.86 26.15c-25.06 14.04-52.35 17.82-80.6 13.62q-22.31-3.32-42.42-17.03 10.88-10.99 21.82-21.85 12.78-12.7 29.16-18.89c14.79-5.59 31.29-3.64 46.2 3.04q11.02 4.94 27.48 13.17a1.5 1.47 49.9 0 0 1.05.1q11.23-3.23 13.03-3.67 10.17-2.49 22.47-1.67m276.39 32.25q-18 11.25-38.86 14.4c-38.06 5.74-76.93-5.34-105.57-31.14q-5.06-4.57-8.44-8.58 25.79 3.52 50.74 10.39a.35.35 0 0 0 .28-.63q-9.64-6.26-20.76-9.93c22.76-14.78 47.9-27 74.28-15.68 10.89 4.68 19.87 12.47 29.08 21.78q9.5 9.58 19.25 19.39"/><path fill="#030202" d="M571.82 446.85q18.48-.1 36.18 5.72 11.12 3.67 20.76 9.93a.35.35 0 0 1-.28.63q-24.95-6.87-50.74-10.39l-13.24-2.31a1.22 1.22 0 0 1-.7-2.02c1.24-1.38 6.16-1.41 8.02-1.56m-117.59.3c2.7.08 7.59-.06 9.67 1.91a.6.6 0 0 1-.31 1.02l-14.7 2.76q-24.69 3.89-49.46 10.67a.28.28 0 0 1-.36-.27q-.01-.38.49-.69 24.98-15.54 54.67-15.4"/><path fill="#efcc89" d="M799.01 483.48q-4.61 46.14-40.93 73.62c-19.35 14.64-45.23 23.03-69.69 24.11q-37.23 1.65-72.09-11.77-23.03-8.86-44.31-21.54 4.27-.15 8.68 1.47 5.34 1.95 5.35 1.96 16.45 5.02 35.93 9.18c44.65 9.53 91.65 2.31 129.97-22.58q11.1-7.2 19.93-16.58 6.27-6.66 9.79-10.46c4.68-5.04 7.16-11.21 11.03-17.31q3.15-4.98 6.34-10.1m-337.56 62.2q-3.74.95-4.91 1.6c-15.29 8.43-27.77 14.91-43.59 21.14q-35.33 13.92-72.59 12.46c-36.43-1.43-73.96-17.91-94.81-49.21q-13.31-19.97-16.02-44.55l13.92 21.63a2.06 1.92 9.4 0 0 .23.3q12.45 14.12 20.1 20.2 26.95 21.42 61.48 29.99 20.83 5.18 43.49 4.69c.69-.01 1.21.22 1.79.2q16.85-.53 23.72-1.84 26.69-5.1 33.75-7.07 8.91-2.49 18.11-5.32 3.58-1.1 5.7-2.28 4.47-2.48 9.63-1.94m-49.3 56.16q-6.46-10.36-15.01-16.53a.44.44 0 0 1 .13-.78c24.53-7.39 48.39-20.25 67.34-37.75a.59.59 0 0 0-.04-.9q-.23-.18-.79-.22 12.55-3.4 25.27-3.04a.56.56 0 0 1 .44.89c-3.79 5.06-7.29 8.02-12.77 13.64q-3.7 3.78-9.03 8.1-17.85 14.46-25.79 19.92-11.49 7.91-29.75 16.67m150.65-55.61q6.49 6.76 16.05 13.43 22.97 16 49.74 24.49a.32.32 0 0 1 .1.55q-8.72 6.88-14.89 16.93-23.4-13.09-29.41-17.52-17-12.54-27.53-21.69-5.06-4.39-13.23-12.45-3.78-3.73-6.22-6.64a.26.25 66.2 0 1 .16-.42q13.87-1.71 25.23 3.32"/><path fill="#d29650" d="M396.08 591.63q-10 4.68-22.53 8.15-13.94 3.87-26.56 5.23-3.68.39-7.51.25l-16.28.41a10.48 10.46 51.1 0 1-2.8-.3l-7.19-1.77a6.02 6 50.8 0 0-1.54-.16l-5.88.19a1.63 1.35-36.3 0 1-.35-.02q-13.71-2.19-27.33-6.84c-5.01-1.71-10.23-4.43-15.22-6.85l-10.1-6.21 3.34-20.32a.45.45 0 0 1 .73-.28c39 30.89 88.66 35.46 135.67 22.73a.63.62-21.1 0 1 .73.32zm379.03-6.56q-11.93 6.16-22.29 10.49-15.4 6.44-32.51 8.71-1.7.22-4.22-.06-2.18-.3-4.63 1.35.01-.81-.03-.84a1.85 1.85 0 0 0-1.84-.34q-6.16 2.26-12.33 1.8-9.28-.69-18.54-1.36-20.34-2.5-39.52-9.75-4.58-1.73-8.62-4.58l2.19-4.41a.59.58 21.7 0 1 .7-.3q10.5 3.25 27 5.55c38.88 5.44 79.42-3.16 110.27-27.63a.61.61 0 0 1 .98.38z"/><path fill="#efcc89" d="M262.89 589.92q-3.34 11.9-4.62 23.84a.88.87 81.7 0 1-.52.7q-1.03.44-2.22.49l-4.01.79a.4.39 83.9 0 1-.47-.38q-.14-15.61 1.74-31.65z"/><path fill="#f4bd48" d="M775.11 585.07q1.92 15.41 2.03 29.57a.46.45 90 0 1-.45.46h-67.08a.3.3 0 0 1-.22-.5q4.18-4.57 6.7-10.39 2.52.28 4.22.06 17.11-2.27 32.51-8.71 10.36-4.33 22.29-10.49m-435.63 20.19-11.94 8.25q-5.66-3.83-11.4-7.21-2.08-1.23-5.04-1.95a.74.74 0 0 0-.85 1.02q2.2 4.98 6.15 9.11a.28.28 0 0 1-.2.47h-60.67q1.19-.05 2.22-.49a.88.87 81.7 0 0 .52-.7q1.28-11.94 4.62-23.84c4.99 2.42 10.21 5.14 15.22 6.85q13.62 4.65 27.33 6.84a1.63 1.35-36.3 0 0 .35.02l5.88-.19a6.02 6 50.8 0 1 1.54.16l7.19 1.77a10.48 10.46 51.1 0 0 2.8.3z"/><path fill="#f7c96e" d="M678.72 604.82c2.49 5.69 5.97 11.39 12.94 9.7q3.87-.94 7.97-1.69c-13.28 9.16-26.14 15.19-41.69 22.2q-.58-7.11-4.18-11.8-2.37-3.1-6.26-6.37-3.64-3.06-7.59-4.64-9.25-3.69-19.78-3l10.45-18.73q4.04 2.85 8.62 4.58 19.18 7.25 39.52 9.75m-282.64-13.19 9.52 17.4q-3.96-.42-7.33.16-3.79.65-3.8.65-3.89.52-5.87 1.33-10.74 4.37-16.36 12.29-3.35 4.73-4.76 11.77c-13.63-6.01-27.74-13.09-39.94-21.72l11.94-8.25q3.83.14 7.51-.25 12.62-1.36 26.56-5.23 12.53-3.47 22.53-8.15"/><path fill="#f4bd48" d="m711.46 605.56-11.83 7.27q-4.1.75-7.97 1.69c-6.97 1.69-10.45-4.01-12.94-9.7q9.26.67 18.54 1.36 6.17.46 12.33-1.8a1.85 1.85 0 0 1 1.84.34q.04.03.03.84"/><path fill="#fdfdfd" d="M405.6 609.03q2.65 5.13 4.93 11.17c1.58 4.19 3.39 10.83 1.69 15.15a.82.82 0 0 1-1.41.21q-5.95-7.56-9.06-10.32-.59-.52-1.18-.65a1.11 1.11 0 0 0-1.31 1.37c1.14 4.31 4.93 10.35 5.59 15.86a1.33 1.29 62.1 0 1-.28.97c-2.07 2.55-6.28-.83-8.27-2.61q-4.69-4.21-9.3-7.87a.97.97 0 0 0-1.53 1.04q1.5 4.99 5.15 9.55a.43.43 0 0 1-.44.69q-11.61-2.89-22.7-8.36 1.41-7.04 4.76-11.77 5.62-7.92 16.36-12.29 1.98-.81 5.87-1.33.01 0 3.8-.65 3.37-.58 7.33-.16m252.34 26q-10.9 5.29-22.41 8.51a.19.19 0 0 1-.22-.28l5.29-9.16a1.27 1.26-83.9 0 0-1.48-1.84q-.9.28-1.53.83-4.46 3.93-11.54 9.42-1.52 1.18-3.02.9a2.38 2.25 9.5 0 1-1.93-2.56c.45-3.1 2.08-6.42 4.49-12.25q.69-1.66.83-2.87a.97.97 0 0 0-1.47-.95c-4.07 2.49-7.96 8.17-10.3 10.81a.77.77 0 0 1-1.31-.28c-1.45-4.4.14-10.93 1.69-14.8q2.43-6.1 5.1-11.29 10.53-.69 19.78 3 3.95 1.58 7.59 4.64 3.89 3.27 6.26 6.37 3.6 4.69 4.18 11.8"/><path fill="#d29650" d="M319.03 647.89q18.36-.43 36.72-.02 2.27.05 4.2-1.01a.55.54 30.9 0 0-.26-1.02q-4.74-.04-8.02-.4c-4.7-.51-11.49-2.75-16.06-2.87-11.91-.32-26.58-.23-41.62-1.2q-15.91-1.02-36.24-1.46a.39.39 0 0 1-.1-.76q4.15-1.17 9.01-1.08 10.71.21 32.75 2c11.12.9 20.93.73 32.81.28a.57.56 58.4 0 0 .25-1.06c-7.04-3.95-14.29-5.86-22.7-6.46-5.83-.42-12.9-1.1-20.19-2.06q-12.32-1.63-24.04-.06c-4.17.56-8.67.57-12.3.42a.36.36 0 0 1-.05-.72q4.37-.79 9.59-1.12 19.44-1.23 43.5.6 1.39.1 3.86.01a.36.35 57.7 0 0 .15-.67c-7.27-3.79-17.03-4.57-25.09-5.23l41.7.03a2.59 2.57 63.3 0 1 1.55.52c13.08 9.85 27.47 17.16 43.03 22.64a.36.35-35.2 0 1-.12.69z"/><path fill="#e2b56d" d="M285.2 624c8.06.66 17.82 1.44 25.09 5.23a.36.35 57.7 0 1-.15.67q-2.47.09-3.86-.01-24.06-1.83-43.5-.6-5.22.33-9.59 1.12a.36.36 0 0 0 .05.72c3.63.15 8.13.14 12.3-.42q11.72-1.57 24.04.06c7.29.96 14.36 1.64 20.19 2.06 8.41.6 15.66 2.51 22.7 6.46a.57.56 58.4 0 1-.25 1.06c-11.88.45-21.69.62-32.81-.28q-22.04-1.79-32.75-2-4.86-.09-9.01 1.08a.39.39 0 0 0 .1.76q20.33.44 36.24 1.46c15.04.97 29.71.88 41.62 1.2 4.57.12 11.36 2.36 16.06 2.87q3.28.36 8.02.4a.55.54 30.9 0 1 .26 1.02q-1.93 1.06-4.2 1.01-18.36-.41-36.72.02l-88.96-.06a.24.24 0 0 1-.16-.43l25.73-22.66a2.41 2.36 23.6 0 1 1.55-.59zm146.26.1q2.49.6 5.01 1.03 13.87 2.42 28.08 4.92 7.47 1.32 10.99 1.64c9.79.88 17.96 2.07 27.65 2.24q19.58.36 32.8.35 8.61-.01 17.87-1.19 20.32-2.59 38.82-3.64 3.63-.2 6.9-.81a.38.38 0 0 0-.05-.75c-12.23-.66-25.77 1.71-38.95 2.83q-3.14.26-26.75 1.52-15.36.82-26.77.16-27.35-1.57-52.08-5.58-1.03-.17-2.41-.37-6.22-.93-2.17-2.45l153.8-.03a.49.49 0 0 1 .48.56c-.99 6.55-1.55 13.99 3.46 19.26a4.54 4.44 79.3 0 0 1.46 1.02l4.4 1.89a.66.65 56.4 0 1-.25 1.26h-201.6a.4.4 0 0 1-.26-.71c3.08-2.54 6.38-2.75 8.63-7.2 11.19.91 21.83.48 27.9.86 17.38 1.1 30.78 1.24 50.64 2.13q24.85 1.12 47.16-.83 11.33-.99 28.29-2.42 8.23-.7 13.88-.7 12.25-.01 14.29-.37a.28.26-5.2 0 0 .23-.26v-.34a.67.67 0 0 0-.58-.66q-5.5-.81-14.49-.11-3.91.3-42.53 3.33c-21.97 1.71-42.14.46-62.61-.17-4.91-.15-9.37-.65-14.63-.83q-23.38-.79-42.2-1.66-2.31-.11-4.43-.56.98-6.32-.27-12.55a.67.67 0 0 1 .66-.8z"/><path fill="#d29650" d="M450.4 624q-4.05 1.52 2.17 2.45 1.38.2 2.41.37 24.73 4.01 52.08 5.58 11.41.66 26.77-.16 23.61-1.26 26.75-1.52c13.18-1.12 26.72-3.49 38.95-2.83a.38.38 0 0 1 .05.75q-3.27.61-6.9.81-18.5 1.05-38.82 3.64-9.26 1.18-17.87 1.19-13.22.01-32.8-.35c-9.69-.17-17.86-1.36-27.65-2.24q-3.52-.32-10.99-1.64-14.21-2.5-28.08-4.92-2.52-.43-5.01-1.03zm277.14.15q-4.97 1.14-9.46 3.98a.23.23 0 0 0 0 .39q.03.02.08.08a.31.15-10.1 0 0 .2.06q23.15-1.19 46.52.56a.34.34 0 0 1 .01.68c-5.13.55-8.07.23-16.42-.17-9.23-.45-20.59.6-27.59.41-9.66-.26-19.6 3.33-27.76 7.18a.56.56 0 0 0 .08 1.04q4.5 1.34 9.44 1.61 10 .55 29.96-.02 24.71-.7 40.03-1.91a.26.25 88 0 1 .27.26v.28a.34.33-6.7 0 1-.26.32q-19.58 3.86-40.83 3.32-21.42-.54-33.91-1.18c-2.54-.13-6.67.08-8.49.62-6.7 2-10.93 3.57-17.12 3.02q-5.39-.49-10.84-.53 19.17-7.62 36.16-19.36a2.74 2.73-62.3 0 1 1.5-.47z"/><path fill="#e2b56d" d="M661.45 644.15q5.45.04 10.84.53c6.19.55 10.42-1.02 17.12-3.02 1.82-.54 5.95-.75 8.49-.62q12.49.64 33.91 1.18 21.25.54 40.83-3.32a.34.33-6.7 0 0 .26-.32v-.28a.26.25 88 0 0-.27-.26q-15.32 1.21-40.03 1.91-19.96.57-29.96.02-4.94-.27-9.44-1.61a.56.56 0 0 1-.08-1.04c8.16-3.85 18.1-7.44 27.76-7.18 7 .19 18.36-.86 27.59-.41 8.35.4 11.29.72 16.42.17a.34.34 0 0 0-.01-.68q-23.37-1.75-46.52-.56a.31.15-10.1 0 1-.2-.06q-.05-.06-.08-.08a.23.23 0 0 1 0-.39q4.49-2.84 9.46-3.98l44.86.05a4.03 4.01 65.5 0 1 2.65 1l25.13 22.06a.29.29 0 0 1-.19.51h-145.7a.21.2 32.4 0 1-.09-.39z"/><path fill="#d29650" d="m420.52 640.05.92-2.59q2.12.45 4.43.56 18.82.87 42.2 1.66c5.26.18 9.72.68 14.63.83 20.47.63 40.64 1.88 62.61.17q38.62-3.03 42.53-3.33 8.99-.7 14.49.11a.67.67 0 0 1 .58.66v.34a.28.26-5.2 0 1-.23.26q-2.04.36-14.29.37-5.65 0-13.88.7-16.96 1.43-28.29 2.42-22.31 1.95-47.16.83c-19.86-.89-33.26-1.03-50.64-2.13-6.07-.38-16.71.05-27.9-.86"/><path fill="#e2b56d" d="M272.7 655.43q.67.73.37 1.48a.64.63 87.7 0 1-.32.35q-4.57 2.12-4.5 7.3c.34 23.66 61.41 24.62 76.58 24.54 20.13-.11 38.43-1.09 56.36-4.9q13.55-2.87 22.19-5.75 9.16-3.04 20.66-9.9 8.76-5.21 9.25-12.97l353.37.03a.49.49 0 0 1 .49.5l-.68 30.91-4.1-1.08a2.87 2.66-33.2 0 0-.47-.08c-7.76-.53-15.42-.72-23.6-1.77q-57.93-7.38-103.77-11.52-24.96-2.26-60.93-.72c-7.97.34-21.53 1.9-27.81 2.76-22.95 3.15-44.36 7.17-65.98 11.76q-41.37 8.79-70.06 13.8-36.03 6.3-59.91 7.85-22.56 1.46-49.22.78-21.57-.55-40.61-2.75-28.68-3.31-40.41-4.97-11.96-1.69-17.06-2.91-15.08-3.61-17.84-4.14a1.25 1.23-7.3 0 1-.87-.66q-.7-1.4-.37-3.27a.21.21 0 0 0-.17-.24h-.01a.25.22 6.7 0 0-.29.2l-.08 2.15-.5-36.44a.41.4 0 0 1 .41-.4z"/><path fill="#e2b56d" d="M450.14 655.49q-5.77 10.24-16.49 14.95-7.77 3.41-17.35 6.1-23.83 6.68-48.48 8.16c-18.09 1.09-37.94 1-56.24-.99-8.49-.92-16.14-2.61-23.9-5.15-7.57-2.48-16.72-6.37-14.15-16.14.66-2.51 2.73-3.39 3.19-5.79a.73.72-88.3 0 1 .61-.58l4.39-.58zm-47.16 9.54q-4.11-2.29-7.92-2.8c-6.32-.84-16.49-2.67-24.63-3.03q-14.85-.65-28.37.86c-7.13.8-13.8 1.8-19.64 4.19-1.69.69-2.1 2.58-1.44 3.98a1.63 1.59 1.6 0 0 .71.73q4.36 2.21 11.19 3.15 15.58 2.16 27.28 2.01a.32.31-84.5 0 0 .31-.26l.05-.26a.55.54-82.5 0 0-.49-.65q-13.33-.83-27.2-3.08-3.24-.53-6.08-2.2a.64.63 48.7 0 1 .07-1.13q3.2-1.37 7.41-1.81 18.68-1.98 41.35-1.02c8.96.38 15.1 1.7 25.1 3.09q1.2.17 1.91.1a1 1 0 0 0 .39-1.87"/><path fill="#d29650" d="m281.72 655.47-4.39.58a.73.72-88.3 0 0-.61.58c-.46 2.4-2.53 3.28-3.19 5.79-2.57 9.77 6.58 13.66 14.15 16.14 7.76 2.54 15.41 4.23 23.9 5.15 18.3 1.99 38.15 2.08 56.24.99q24.65-1.48 48.48-8.16 9.58-2.69 17.35-6.1 10.72-4.71 16.49-14.95l3.15.09q-.49 7.76-9.25 12.97-11.5 6.86-20.66 9.9-8.64 2.88-22.19 5.75c-17.93 3.81-36.23 4.79-56.36 4.9-15.17.08-76.24-.88-76.58-24.54q-.07-5.18 4.5-7.3a.64.63 87.7 0 0 .32-.35q.3-.75-.37-1.48z"/><path fill="#d29650" d="M402.98 665.03a1 1 0 0 1-.39 1.87q-.71.07-1.91-.1c-10-1.39-16.14-2.71-25.1-3.09q-22.67-.96-41.35 1.02-4.21.44-7.41 1.81a.64.63 48.7 0 0-.07 1.13q2.84 1.67 6.08 2.2 13.87 2.25 27.2 3.08a.55.54-82.5 0 1 .49.65l-.05.26a.32.31-84.5 0 1-.31.26q-11.7.15-27.28-2.01-6.83-.94-11.19-3.15a1.63 1.59 1.6 0 1-.71-.73c-.66-1.4-.25-3.29 1.44-3.98 5.84-2.39 12.51-3.39 19.64-4.19q13.52-1.51 28.37-.86c8.14.36 18.31 2.19 24.63 3.03q3.81.51 7.92 2.8m403.49 21.99v2.74c-3.4 1.77-9.61.53-12.05.02q-8.5-1.76-18.43-2.54-14.33-1.13-18.41-1.62-27.62-3.28-58.86-6.52c-34.47-3.57-67.19-5.06-100.27-1.6q-18.37 1.92-31.1 4.15c-35.21 6.19-72 14.18-106.25 20.94q-32 6.32-63.52 9.23-38.21 3.52-83.03.08-26.55-2.03-45.92-4.89-4.36-.64-16.13-2.81-7.03-1.29-16.24-2.48-5.32-.68-12.25-2.85a.57.57 0 0 0-.74.5l-.17 2.17-.19-9.33.08-2.15a.25.22 6.7 0 1 .29-.2h.01a.21.21 0 0 1 .17.24q-.33 1.87.37 3.27a1.25 1.23-7.3 0 0 .87.66q2.76.53 17.84 4.14 5.1 1.22 17.06 2.91 11.73 1.66 40.41 4.97 19.04 2.2 40.61 2.75 26.66.68 49.22-.78 23.88-1.55 59.91-7.85 28.69-5.01 70.06-13.8c21.62-4.59 43.03-8.61 65.98-11.76 6.28-.86 19.84-2.42 27.81-2.76q35.97-1.54 60.93.72 45.84 4.14 103.77 11.52c8.18 1.05 15.84 1.24 23.6 1.77a2.87 2.66-33.2 0 1 .47.08z"/><path fill="#e2b56d" d="m806.47 689.76-.21 30.93a.78.78 0 0 1-.66.76l-15.05 2.29c-7.21.38-14.64 1.23-21.56 1.06q-10.96-.25-21.37.73c-2.75.26-6.13-.37-8.46-.43q-67.39-1.59-112.66-.09-41.41 1.36-78.97 7.56-15.03 2.48-43.88 8.17c-8.5 1.67-15.53 2.44-25.07 4.12-20.52 3.63-40.88 5.68-62.83 7.34-55.88 4.23-113.21 4.31-166.88 2.02q-7.64-.32-25.52-.05l-.14-11.9a.75.73 86.1 0 1 .64-.75l64.39-7.9a.18.17-34.9 0 0 .06-.33q-.65-.35-1.66-.41-35.57-2.31-62.28-3.23a1.27 1.26.9 0 1-1.23-1.26l-.03-26.85.17-2.17a.57.57 0 0 1 .74-.5q6.93 2.17 12.25 2.85 9.21 1.19 16.24 2.48 11.77 2.17 16.13 2.81 19.37 2.86 45.92 4.89 44.82 3.44 83.03-.08 31.52-2.91 63.52-9.23c34.25-6.76 71.04-14.75 106.25-20.94q12.73-2.23 31.1-4.15c33.08-3.46 65.8-1.97 100.27 1.6q31.24 3.24 58.86 6.52 4.08.49 18.41 1.62 9.93.78 18.43 2.54c2.44.51 8.65 1.75 12.05-.02m-469.76 44.21a.01.01 0 0 0 .01.01q31.94.12 63.03-2.79c9.25-.87 21.54-2.72 27.86-3.5q10.91-1.35 20.84-2.93 29.4-4.7 46.18-7.06 25.73-3.61 33.36-4.43c38.13-4.06 75.88-5.7 117.51-6.02q26.75-.2 50.02 1.28 13.79.88 15.3.71a.28.27-2.5 0 0 .24-.26l.01-.11a.24.24 0 0 0-.22-.25q-32.33-3.24-58.04-3.96-64.83-1.81-132.91 5.71-16.9 1.87-46.52 6.59-13.71 2.19-46.46 7.2c-18.98 2.9-39.65 5.61-54.15 6.84q-11.65.99-36.11 1.9a.12.11 85.6 0 0-.11.14z"/><path fill="#d29650" d="m336.71 733.97-.16-.93a.12.11 85.6 0 1 .11-.14q24.46-.91 36.11-1.9c14.5-1.23 35.17-3.94 54.15-6.84q32.75-5.01 46.46-7.2 29.62-4.72 46.52-6.59 68.08-7.52 132.91-5.71 25.71.72 58.04 3.96a.24.24 0 0 1 .22.25l-.01.11a.28.27-2.5 0 1-.24.26q-1.51.17-15.3-.71-23.27-1.48-50.02-1.28c-41.63.32-79.38 1.96-117.51 6.02q-7.63.82-33.36 4.43-16.78 2.36-46.18 7.06-9.93 1.58-20.84 2.93c-6.32.78-18.61 2.63-27.86 3.5q-31.09 2.91-63.03 2.79a.01.01 0 0 1-.01-.01m453.84-10.23-40.76 6.43q-13.08-1.81-26.54-1.84c-46.51-.13-78.34-.51-117.54 2q-15.28.97-30.1 2.74-21.61 2.59-29.96 4.14-6.57 1.23-44.41 8.5c-49.65 9.54-101.82 13.6-154.24 13.92q-29.14.17-56.5.1-12.67-.03-43.76-1.25c-5.45-.21-11.45.03-16.98.11q-3.33.04-6.37-1.41l-.04-3.01q17.88-.27 25.52.05c53.67 2.29 111 2.21 166.88-2.02 21.95-1.66 42.31-3.71 62.83-7.34 9.54-1.68 16.57-2.45 25.07-4.12q28.85-5.69 43.88-8.17 37.56-6.2 78.97-7.56 45.27-1.5 112.66.09c2.33.06 5.71.69 8.46.43q10.41-.98 21.37-.73c6.92.17 14.35-.68 21.56-1.06"/><path fill="#e2b56d" d="M749.79 730.17q27.92 3.75 56.04 6.01a.33.32 3.8 0 1 .3.33l-.18 14.03q-21.49 13.27-49.61 23-3.89 1.35-4.57 1.21a3.22 3.1 64.5 0 1-.93-.35c-3.88-2.3-7.23-4.54-11.01-5.73-17.64-5.59-35.91-8.02-54.83-8.56q-45.81-1.32-88.49 2.4-16.48 1.44-41.5 5.26c-14.09 2.16-30.14 6.33-42.42 8.6-12.03 2.22-23.11 4.49-34.65 5.55-24.99 2.29-47.25 2.51-75.58 1.45q-35.96-1.35-64.11-.5-19.2.57-34.75 2.18-17.56 1.83-35.93 7.29-4.66 1.38-6.39 2.39a2.43 2.33 24.4 0 1-.82.29q-6.36 1.05-7.75.93-14.61-1.18-29.27-1.22l.05-37.55q3.04 1.45 6.37 1.41c5.53-.08 11.53-.32 16.98-.11q31.09 1.22 43.76 1.25 27.36.07 56.5-.1c52.42-.32 104.59-4.38 154.24-13.92q37.84-7.27 44.41-8.5 8.35-1.55 29.96-4.14 14.82-1.77 30.1-2.74c39.2-2.51 71.03-2.13 117.54-2q13.46.03 26.54 1.84"/><path fill="#d29650" d="m805.95 750.54-.03 59.7a.92.91-89.7 0 1-.91.91H224.19a.85.84-90 0 1-.84-.85l-.01-15.57q14.66.04 29.27 1.22 1.39.12 7.75-.93a2.43 2.33 24.4 0 0 .82-.29q1.73-1.01 6.39-2.39 18.37-5.46 35.93-7.29 15.55-1.61 34.75-2.18 28.15-.85 64.11.5c28.33 1.06 50.59.84 75.58-1.45 11.54-1.06 22.62-3.33 34.65-5.55 12.28-2.27 28.33-6.44 42.42-8.6q25.02-3.82 41.5-5.26 42.68-3.72 88.49-2.4c18.92.54 37.19 2.97 54.83 8.56 3.78 1.19 7.13 3.43 11.01 5.73a3.22 3.1 64.5 0 0 .93.35q.68.14 4.57-1.21 28.12-9.73 49.61-23m-177.44 45.79q-15.75-.82-30.21-2.31c-4.49-.47-9.39-1.61-13.52-2.44a.21.21 0 0 1-.17-.25l.06-.27a.35.34-82.4 0 1 .36-.28q49.32 2.64 62.72 2.92 16.33.34 23.74-.78 10.08-1.51 24.13-4.12c16.6-3.07 36.33-8.3 51.05-12.02a.54.53-34.5 0 0 .18-.95q-1.01-.71-2.92-1.48-14.7-5.94-30.3-7.92-30.48-3.87-61.87-3.32-45.55.78-83.76 6.47-17.05 2.54-25.93 4.46-28.89 6.27-35.95 7.54-29.86 5.37-58.62 6.15-19.85.53-28.25.24-39.33-1.4-80.5-.94-11.9.13-28.3 1.6c-15.72 1.42-29.27 3.42-41.5 6.96a.47.47 0 0 0 .11.92q9.96.53 12.4.63 45.44 1.81 61.8 2.4 94.88 3.39 180.99 1.95 14.11-.24 28.49-.84 48.9-2.03 53.91-2.35 10.29-.65 22.02-1.24a.11.1-82.8 0 0 .1-.08l.05-.25a.33.33 0 0 0-.31-.4"/><path fill="#e2b56d" d="M628.51 796.33a.33.33 0 0 1 .31.4l-.05.25a.11.1-82.8 0 1-.1.08q-11.73.59-22.02 1.24-5.01.32-53.91 2.35-14.38.6-28.49.84-86.11 1.44-180.99-1.95-16.36-.59-61.8-2.4-2.44-.1-12.4-.63a.47.47 0 0 1-.11-.92c12.23-3.54 25.78-5.54 41.5-6.96q16.4-1.47 28.3-1.6 41.17-.46 80.5.94 8.4.29 28.25-.24 28.76-.78 58.62-6.15 7.06-1.27 35.95-7.54 8.88-1.92 25.93-4.46 38.21-5.69 83.76-6.47 31.39-.55 61.87 3.32 15.6 1.98 30.3 7.92 1.91.77 2.92 1.48a.54.53-34.5 0 1-.18.95c-14.72 3.72-34.45 8.95-51.05 12.02q-14.05 2.61-24.13 4.12-7.41 1.12-23.74.78-13.4-.28-62.72-2.92a.35.34-82.4 0 0-.36.28l-.06.27a.21.21 0 0 0 .17.25c4.13.83 9.03 1.97 13.52 2.44q14.46 1.49 30.21 2.31"/></svg>