<svg xmlns="http://www.w3.org/2000/svg" viewBox="0 0 1024 1024"><g fill="none" stroke-width="2"><path stroke="#818080" d="M485.8 234.48q3.49 4.15 8.09 4.97a2.81 2.8-9.5 0 1 1.98 1.41c3.36 6.08 8.16 9.01 14.97 8.68q8.7-.44 12.44-8.52a1.39 1.36 6.3 0 1 .98-.77q5.97-1.14 10.21-5.59" vector-effect="non-scaling-stroke"/><path stroke="#fefcf4" d="M534.47 234.66c15.29-.95 26.63-5.58 38.96-14.42 15.31-10.96 27.4-24.78 34.59-42.46 14.54-35.78 8.01-73.65-15.6-103.9-39.55-50.66-130.33-49.21-166.6 3.94-15.17 22.22-22.86 50.67-17.89 77.71 6.53 35.54 31.13 63.46 65.39 75.3q2.52.88 12.48 3.65" vector-effect="non-scaling-stroke"/><path stroke="#827f77" d="M534.47 234.66q1.52-2.21 2.03-4.99" vector-effect="non-scaling-stroke"/><path stroke="#fef6dc" d="M536.5 229.67c31.01-15.64 56.79-36.4 64.83-72.02q2.26-10 3.35-20.42" vector-effect="non-scaling-stroke"/><path stroke="#f9dc9a" d="m604.68 137.23 6.42-1.18a.76.76 0 0 0 .3-1.37c-3.41-2.37-8.61-2.19-12.56-2.48" vector-effect="non-scaling-stroke"/><path stroke="#fef6dc" d="M598.84 132.2q-9.41-27.39-20.2-54.22" vector-effect="non-scaling-stroke"/><path stroke="#f9dc9a" d="M578.64 77.98c1.76-1.85 5.83-6.63 5.95-9.11a.47.47 0 0 0-.62-.47c-4.59 1.59-8.76 5.68-12.33 8.93" vector-effect="non-scaling-stroke"/><path stroke="#fef6dc" d="M571.64 77.33q-6.96-4.88-14.13-9.16c-13.56-8.12-27.52-12.01-43.14-14.92a.59.57-83.8 0 1-.47-.6q.05-1.12-.4-1.91" vector-effect="non-scaling-stroke"/><path stroke="#f9dc9a" d="M513.5 50.74q.05-4.43-1.2-8.74-.25-.89-.83-1.26a.72.71-61 0 0-1.04.3c-2.23 4.88-2.02 11.59-2.2 16.97" vector-effect="non-scaling-stroke"/><path stroke="#fef6dc" d="M508.23 58.01c-20.53 4.44-37.99 11.44-55.45 23.16" vector-effect="non-scaling-stroke"/><path stroke="#f9dc9a" d="M452.78 81.17q-6.85-7.07-15.18-12.58a.95.95 0 0 0-1.46.6q-.06.3.37 1 3.03 4.93 6.83 9.09" vector-effect="non-scaling-stroke"/><path stroke="#fef6dc" d="M443.34 79.28q-13.11 25.85-22.84 53.06" vector-effect="non-scaling-stroke"/><path stroke="#f9dc9a" d="M420.5 132.34q-5.84.09-10.82 1.88a.63.63 0 0 0-.05 1.16q2.74 1.28 5.73 1.55" vector-effect="non-scaling-stroke"/><path stroke="#fef6dc" d="M415.36 136.93q2.81 18.11 7.41 30.76c10.73 29.51 34.42 47.64 61.39 61.94" vector-effect="non-scaling-stroke"/><path stroke="#827f77" d="M484.16 229.63q.08 2.69 1.64 4.85" vector-effect="non-scaling-stroke"/><path stroke="#f9d78b" d="M513.5 50.74q.29 6.58.12 13.02-.05 2.01-1.15 3.28a2.12 2.11-44 0 1-3.26-.05c-1.57-1.96-1.09-6.59-.98-8.98m63.41 19.32-7.05 6.76a2.97 2.86 45.2 0 0 .06 4.2l.09.09a3 2.91 43.6 0 0 4.23-.04l9.67-10.36m20.2 54.22q-4.6.05-9.09.09-2.13.02-3.49.99a2.26 2.06 47.1 0 0 .03 3.4q1.81 1.56 4.47 1.41 6.99-.37 13.92-.86" vector-effect="non-scaling-stroke"/><path stroke="#817a68" d="m536.5 229.67-.12-3a2.35 2.34-32.1 0 1 .27-1.17c1.64-3.1.69-5.81-.28-8.74a1.56 1.55-35.6 0 1 .24-1.42q3.69-4.86 1.14-10.41a3.19 3.17 35.9 0 1-.27-1.65q.78-7.14 4.21-12.79 1.34-2.21 7.73-8.39c11.03-10.65 18.14-23.44 19.5-38.47q1.42-15.72-4.75-29.62c-8.4-18.93-27.87-32.25-48.47-33.95-28.16-2.32-56 15.6-62.48 43.98q-5.58 24.45 7.89 45.67c4.4 6.92 8.5 10.69 15.51 17.57 4.57 4.48 5.84 8.84 6.89 15.76a1.94 1.87-37.4 0 1-.17 1.12q-2.93 6.01.9 11.56a1.34 1.33 44.3 0 1 .02 1.49q-2.81 4.38-.05 8.59a1.92 1.9 32.6 0 1 .29 1.28l-.34 2.55" vector-effect="non-scaling-stroke"/><path stroke="#f9d78b" d="M415.36 136.93q8.46 1.31 17.66.85a2.8 2.8 0 0 0 2.65-2.64v-.1a2.61 2.38-88.4 0 0-2.37-2.75l-12.8.05m22.84-53.06q3.55 4.01 7.24 7.69 1.74 1.73 2.81 1.96c2.24.48 4.26-2.34 2.76-4.26q-1.64-2.1-3.37-3.5" vector-effect="non-scaling-stroke"/><path stroke="#818080" d="M512.48 266.83q-5.14-3.35-10.78-5.5c-5.93-2.25-15.82-3.23-16.07 5.86q0 .23-.05 2.3a.52.52 0 0 1-.55.51q-3.69-.25-7.41.19c-9.56 1.14-10.38 10.43-3.51 15.93a.34.34 0 0 1-.14.6q-17.44 3.57-33.95 10.81-6.98 3.06-8.46 3.7a.62.62 0 0 1-.77-.24q-1.95-3.01-3.83-5.95c-10.23-15.94-27.42-26.68-46.24-25.48-18.61 1.18-34.66 12.13-43.34 28.55q-10.85 20.52-4.4 43.4c3.21 11.37 9.87 19.76 19.01 27.84a.81.81 0 0 1 .12 1.08c-9.51 12.91-19.09 29.09-26.52 43.26a1.44 1.42 7.4 0 1-.98.74c-58.33 12.88-86.44 72.86-78.69 128.18q3.25 23.16 18.27 45.16c2.13 3.12 5.76 6.72 8.19 9.86a1.23 1.22 33 0 1 .22 1.02c-5.54 24.14-6.98 49.24-5.94 74.6q.93 22.8 7.92 46.22 15.45 51.74 58.42 81.52c17.54 12.15 39.82 21.1 60.81 25.4a2.17 2.16 74.5 0 1 1.18.67q3.42 3.77 4.26 4.7c9.79 10.93 26.37 11.48 34.46-1.89a.95.94-72.2 0 1 .87-.45c28.83 2.01 60 1.49 90.18-.69 11.96-.87 27.06-.56 36-.57 28.48-.05 57.35-1.21 85.37-6.69a.52.52 0 0 1 .57.29q1.65 3.82 4.33 7.2c6.03 7.6 16.31 8.68 24.86 4.67 10.55-4.95 18.89-17.62 23.51-28.57a3.01 2.97 86.2 0 1 1.21-1.4q47.48-28.73 67.35-79.05c17.52-44.36 13.9-91.23 2.94-136.8a.92.9 60 0 1 .21-.82c21.22-23.67 29.78-54.45 26.21-85.6-2.74-23.84-11.01-46.75-26.13-65.54q-26.24-32.62-68.05-36.19a1.67 1.65-14.5 0 1-1.22-.71q-14.86-21.99-29.99-41.06a.56.55 48.3 0 1 .04-.74q12.79-13.03 16.23-29.89c4.12-20.21-3.63-41.85-19.34-55.07-17.24-14.52-42.13-16.46-60.87-3.17-9.51 6.75-15.34 15.42-21.08 25.74a.62.61-65.1 0 1-.75.28q-21.07-7.86-41.46-11a3.44 3.4 77.6 0 1-2.35-1.52q-7.43-11.34-10.84-15.9-3.29-4.38-5.25-5.3-6.28-2.93-10.59 1.83c-1.01 1.12-1.5 2.62-2.23 3.53a.72.72 0 0 1-.96.15" vector-effect="non-scaling-stroke"/><path stroke="#7e6535" d="m500.76 187.96-.26-9.63" vector-effect="non-scaling-stroke"/><path stroke="#7a6847" d="m500.5 178.33-1.75-14.93a.93.92-3.1 0 0-.92-.82q-4.91.01-9.4-2.2c-6.04-2.97-8.43-12.35-.42-14.59" vector-effect="non-scaling-stroke"/><path stroke="#817a68" d="M488.01 145.79c7.3-.34 10.81 6.63 12.76 12.66a1.37 1.36-24 0 0 1.98.76l4.66-2.69a1.16 1.16 0 0 0 .44-1.55q-2.81-5.15-.78-10.33c1.3-3.32 5.19-3.82 7.19-.77 2.21 3.37 1.04 8.4-1.1 11.23a1.31 1.31 0 0 0 .53 1.99l4.74 2.05a1.44 1.44 0 0 0 1.94-.88q3.8-11.55 10.87-12.55" vector-effect="non-scaling-stroke"/><path stroke="#7a6847" d="M531.24 145.71q5.24.02 6.45 4.16 1.58 5.45-3.66 9.68-4.18 3.37-10.68 3.19a.69.68 5.2 0 0-.7.58l-1.56 10.58" vector-effect="non-scaling-stroke"/><path stroke="#7e6535" d="m521.09 173.9-.76 13.11" vector-effect="non-scaling-stroke"/><path stroke="#7d6026" d="m520.33 187.01-.36 14.18a.46.46 0 0 0 .46.47h10.87a.88.87 3.7 0 0 .87-.76q1.6-11.61 9.85-19.62c9.34-9.09 16.71-18.41 19.71-31.27q5.52-23.64-8.7-43.03c-16.24-22.15-47.14-27.66-70.39-13.57-15.09 9.15-25.38 25.82-25.2 43.58q.23 22.7 16.2 39.14c7.67 7.89 13.81 13.14 15.06 24.42a1.11 1.1-3.2 0 0 1.1.98h10.59a.45.45 0 0 0 .45-.45l-.08-13.12" vector-effect="non-scaling-stroke"/><path stroke="#f6c258" d="M520.33 187.01c17.97-11.4 33.27-24.53 33.88-47.63.53-20.02-14.38-35.76-33.17-40.29q-13.22-3.19-27.05-4.01" vector-effect="non-scaling-stroke"/><path stroke="#f9dc9a" d="M493.99 95.08c-7.03 1.19-19.01 7.41-18.01 15.74a1.77 1.74 22.7 0 0 .37.88q.96 1.16 3.01 2.38" vector-effect="non-scaling-stroke"/><path stroke="#f6c258" d="m479.36 114.08-5.8 5.73" vector-effect="non-scaling-stroke"/><path stroke="#f9d78b" d="M473.56 119.81q-4.31-2.09-5.44 3.18" vector-effect="non-scaling-stroke"/><path stroke="#f6c258" d="M468.12 122.99q-1.69 3.77-1.72 5.14-.12 4.66 1.68 15.93c3.34 20.97 15.22 33.16 32.68 43.9" vector-effect="non-scaling-stroke"/><path stroke="#f3ca78" d="M521.09 173.9q4.14-7.33 11.52-10.71 1.5-.69 6.76-5.84a1.61 1.57-16.7 0 0 .45-.81q1.27-6.21 1.47-12.23c.44-13.74-6.94-27.1-19.75-32.37-12.2-5.02-26.47-1.76-34.17 9.32-6.59 9.51-7.5 21.51-7.19 33.19a1.83 1.76-62.3 0 0 .26.9l2.6 4.35a2.3 2.08-87.1 0 0 .35.43q9.18 8.36 17.11 18.2" vector-effect="non-scaling-stroke"/><path stroke="#fadc9a" d="M468.12 122.99c-.75 2.53-1.75 7.05-.77 9.83.87 2.46 2.9.88 3.69-.52q3.65-6.5 2.52-12.49" vector-effect="non-scaling-stroke"/><path stroke="#fbe0a8" d="M479.36 114.08q10.45-5.4 18.6-10.85 3.23-2.17 1.72-5.75a1.79 1.78 7.2 0 0-.6-.77q-2.18-1.59-5.09-1.63" vector-effect="non-scaling-stroke"/><path stroke="#f6dfac" d="M531.24 145.71c-2.07-6.18-5.32-13.75-10.74-18.13-8.92-7.18-19.39-2.83-25.41 5.66q-3.93 5.54-7.08 12.55" vector-effect="non-scaling-stroke"/><path stroke="#817a68" d="M510.92 145.092a3.8 1.55-88.2 0 0-1.67 3.75 3.8 1.55-88.2 0 0 1.43 3.846 3.8 1.55-88.2 0 0 1.67-3.75 3.8 1.55-88.2 0 0-1.43-3.846" vector-effect="non-scaling-stroke"/><path stroke="#7a6847" d="M496.9 159.16a.52.52 0 0 0 .43-.67c-1.07-3.27-4.2-9.68-8.03-9.59-2.13.05-3.19 1.84-2.92 3.91.57 4.31 6.94 6.81 10.52 6.35m27.17.25c3.66.4 10.12-2.26 10.62-6.67.24-2.12-.87-3.93-3.05-3.94-3.91-.02-6.99 6.58-8.02 9.93a.53.53 0 0 0 .45.68" vector-effect="non-scaling-stroke"/><path stroke="#7d6026" d="m504.03 179.27.32 21.68a.64.64 0 0 0 .64.63h10.8a.6.6 0 0 0 .6-.58l.78-20.48" vector-effect="non-scaling-stroke"/><path stroke="#7a6847" d="m517.17 180.52 1.92-17.47a.69.68 8 0 0-.57-.75q-3.97-.67-7.13-3.55a.77.76-41.7 0 0-.97-.05q-3.32 2.43-7.94 3.59a.69.69 0 0 0-.52.76l2.07 16.22" vector-effect="non-scaling-stroke"/><path stroke="#f1c56a" d="m517.17 180.52-13.14-1.25" vector-effect="non-scaling-stroke"/><path stroke="#555553" d="m530.83 206.46-40.85-.33a1.84 1.76 30.8 0 0-.79.18q-1.92.93-1.78 3.74a1.85 1.76-66.1 0 0 .35.98q1.68 2.26 2.9 2.61 3.48 1.01 7.97.06a.88.77-48.9 0 1 .22-.03l30.39-.54a3.93 3.93 0 0 0 3.8-3.24l.08-.45a2.39 2.38 7.6 0 0-2.29-2.98m.998 13.762a2.96 2.96 0 0 0-2.986-2.934l-37.159.324a2.96 2.96 0 0 0-2.934 2.986l.003.34a2.96 2.96 0 0 0 2.986 2.934l37.159-.324a2.96 2.96 0 0 0 2.934-2.986l-.003-.34M490 230.74l.35.62a7.52 7.5 77.8 0 0 5.76 3.72q12.23 1.23 23.61.89c4.01-.12 11.48-2.75 11.27-7.61a.93.93 0 0 0-.93-.89h-38.17a2.18 2.18 0 0 0-1.89 3.27m25.81 10.8-13.05-.36a.03.03 0 0 0-.03.03l-.01.06a6.44 3.07 1.6 0 0 6.36 3.25h.24a6.44 3.07 1.6 0 0 6.52-2.89v-.06a.03.03 0 0 0-.03-.03" vector-effect="non-scaling-stroke"/><path stroke="#7a6847" d="M437.06 311.47q-16.07 6.9-28.03 15.81-16.27 12.12-27.84 19.72" vector-effect="non-scaling-stroke"/><path stroke="#7d5b51" d="M381.19 347q1.84-7.97 7.48-13.59c2.94-2.92 5.77-5.9 9.61-9.81a.67.67 0 0 0 .15-.69q-3.6-10.13-11.56-17.46c-6.26-5.77-13.65-7.64-21.3-2.61" vector-effect="non-scaling-stroke"/><path stroke="#7d6026" d="M365.57 302.84q-.88-.22-1.28-.71-.45-.56.03-1.33c4.46-7.22 13.33-8.63 20.9-5.68 9.74 3.8 16.43 12.23 21.27 21.33a.34.33 58.3 0 0 .48.12l11.97-7.98" vector-effect="non-scaling-stroke"/><path stroke="#7a6847" d="M418.94 308.59q.77-.2 1.61-.97a.69.66-35.3 0 0 .15-.79q-4.81-9.57-13.01-16.54-15.38-13.07-35.38-7.76-4.54 1.2-11.35 6.02" vector-effect="non-scaling-stroke"/><path stroke="#7d6026" d="M360.96 288.55c-13.53 9.43-20.23 26.35-18.18 42.5q2.42 18.99 17.66 30.47a.59.59 0 0 0 .8-.09q4.84-5.77 11.42-9.31" vector-effect="non-scaling-stroke"/><path stroke="#7d5b51" d="M372.66 352.12q.97.38 2.09 1.75" vector-effect="non-scaling-stroke"/><path stroke="#7a6847" d="M374.75 353.87q-2.7 7.83-8.82 16.57-14.42 20.59-26.65 42.49a.33.33 0 0 0 .29.49l8.05-.17" vector-effect="non-scaling-stroke"/><path stroke="#784e1e" d="M347.62 413.25q13.92.51 26.32 4.55 5.23 1.7 9.47 4.65" vector-effect="non-scaling-stroke"/><path stroke="#7d6026" d="M383.41 422.45q.46 1.27-.45 1.67-.68.29-1.54.53" vector-effect="non-scaling-stroke"/><path stroke="#7a6847" d="M381.42 424.65c-9.18-.85-19.23-2.4-27.58-2.43-16.35-.06-31.85 3-46.64 10.3" vector-effect="non-scaling-stroke"/><path stroke="#817a68" d="M307.2 432.52c-17.32 8.6-31.84 24.82-40.1 42.85q-11.13 24.29-10.72 50.79" vector-effect="non-scaling-stroke"/><path stroke="#7a6847" d="M256.38 526.16q.07 28.98 15.84 52.63c18.34 27.49 52.14 43.14 85.04 43.96 17.08.43 33.61-2.18 50.25-6.31a3.1 3.1 0 0 0 1.66-1.03q6.19-7.32 15.15-14.22" vector-effect="non-scaling-stroke"/><path stroke="#817a68" d="M424.32 601.19q4.03-2.74 8.52-5.75 4.51-3.02 8.69-5.47 16.63-9.74 33.01-20.06a3.74 3.71-7.5 0 0 1.57-2.03c2.36-7.44 7.68-22.34 16.72-23.22 3.6-.35 6.59 1.54 9.03 4.15a1.03 1.01-28.4 0 0 1 .29q5.26-1.4 8.76 1.21a1.62 1.59 60 0 0 1.11.31q2.55-.24 2.77-.24 6.29.01 9.01 4.5c.94 1.54 1.13 2.96 1.65 5.17a3.1 2.97-71.3 0 0 .55 1.17q3.95 5.29 2.92 11.31-1.76 10.39-7.19 20.34" vector-effect="non-scaling-stroke"/><path stroke="#7a6847" d="M522.44 592.87q-3.66 6.76-4.39 10.23c-7.65 36.63-29.17 70.79-62.19 89.26q-9.52 5.33-21.44 7.62" vector-effect="non-scaling-stroke"/><path stroke="#784e1e" d="M434.42 699.98c-4.4.68-11.94 1.64-16.08-.37a.46.46 0 0 1 .08-.86c14.09-3.99 26.91-9.59 39.22-18.35q14.82-10.56 27.88-28.84" vector-effect="non-scaling-stroke"/><path stroke="#7e6535" d="M485.52 651.56q9.9-13.64 17.17-31.83 5.35-13.41 6.56-17.04" vector-effect="non-scaling-stroke"/><path stroke="#818080" d="M509.25 602.69c4.55-13.2 11.44-21.62 12.26-32.19q.07-.94-.15-1.5a.68.68 0 0 0-1.15-.2q-4.96 5.6-10.11 9.31a1.01 1.01 0 0 1-1.6-.94q.15-1.3 1.41-3.52 6.37-11.22 6.85-12.82a1.82 1.81-88.5 0 0-2.17-2.29q-1.44.36-2.71 1.34-3.68 2.82-11.79 9.1a.93.93 0 0 1-1.49-.67c-.2-3.08 3.98-8.06 6.01-10.69a.46.46 0 0 0-.48-.72c-3.39.87-6.29 2.13-9.29 4.27q-10.52 7.51-19.08 17.07" vector-effect="non-scaling-stroke"/><path stroke="#7e6535" d="M475.76 578.24c-10.98 9.99-24.4 17.69-37.07 25.24" vector-effect="non-scaling-stroke"/><path stroke="#7d6026" d="M438.69 603.48q-15.65 9.14-31.18 21.79-3.04 2.48-4.68 5.33" vector-effect="non-scaling-stroke"/><path stroke="#784e1e" d="M402.83 630.6q-1.24-1.65-1.1-2.14a.46.45-89.5 0 0-.55-.57q-20.36 5.31-40.9 5.33-39 .05-70.38-21.12-3.45-2.32-6.67-5.18a.3.3 0 0 0-.5.18l-3.24 19.33" vector-effect="non-scaling-stroke"/><path stroke="#7a6847" d="M279.49 626.43q-4.76 39.75 2.48 76.83 1.33 6.76 4.36 15.4" vector-effect="non-scaling-stroke"/><path stroke="#7d6026" d="M286.33 718.66q.18 2.1 1.42 4.59" vector-effect="non-scaling-stroke"/><path stroke="#784e1e" d="M287.75 723.25q7.57 21.37 20.92 39.01c19.11 25.27 45.36 41.88 75.74 49.84a.25.25 0 0 0 .3-.34q-4.85-11.05-7.06-21.75" vector-effect="non-scaling-stroke"/><path stroke="#7e6535" d="M377.65 790.01c-2.29-10.89-3.65-24.07 1.85-33.74q2.32-4.08 8.55-4.47a.85.84 11.8 0 0 .7-.45c3.01-5.94 8.17-8.52 14.38-5.52.98.47 2.23 1.69 2.76 1.86a1.83 1.83 0 0 0 1.01.03q3.99-1 7.07.07c3.38 1.18 6.87 5.73 8.63 8.64q7.03 11.62 10.5 25.45 2.11 8.38 3.41 16.49" vector-effect="non-scaling-stroke"/><path stroke="#784e1e" d="M436.51 798.37q1.85 9.51.83 18.6a1.12 1.12 0 0 0 1.04 1.25q19.36 1.31 39.18 1.11" vector-effect="non-scaling-stroke"/><path stroke="#7a6847" d="M477.56 819.33c15.29-.49 30.72-1.23 41.84-1.88q16.37-.96 32.17-.99c24.92-.05 37.23-.32 55.96-1.38" vector-effect="non-scaling-stroke"/><path stroke="#784e1e" d="M607.53 815.08q18.59-.85 36.65-5.43a.37.36-5.9 0 0 .27-.32q.51-11.24 3.06-21.98" vector-effect="non-scaling-stroke"/><path stroke="#7e6535" d="M647.51 787.35q3.37-18.72 13.17-34.85a.28.28 0 0 0-.4-.38q-9.15 6.41-19.29 5.42" vector-effect="non-scaling-stroke"/><path stroke="#817a68" d="m640.99 757.54-2.21-1.81a1.05 1.02 58.6 0 0-.85-.22c-6.16 1.1-11.8-1.79-12.53-8.29a1.17 1.16-76.7 0 0-.52-.85c-7.42-4.99-5.2-15.5-1.96-22.52q1.29-2.77 5.06-9.96a11.56 11.45 62.3 0 0 1.24-4.06q2.88-25.46 4.33-53.56.28-5.27 1.81-9.4" vector-effect="non-scaling-stroke"/><path stroke="#7e6535" d="M635.36 646.87q3.11 5.23 4.51 14 3.97 24.99-1.89 47.15" vector-effect="non-scaling-stroke"/><path stroke="#818080" d="M637.98 708.02q-3.02 8.93-6.92 17.63c-1.71 3.8-2.9 7.38-2.97 11.29a.84.84 0 0 0 1.45.6l8.55-8.77a1.2 1.19-21.7 0 1 2.05.88c0 1.52-2.9 6.74-5.17 11.3q-1.3 2.6-1.41 5.04a1.54 1.54 0 0 0 1.97 1.55q2.06-.6 4.14-2.37 2.12-1.81 8.89-7.96a1.49 1.42-31.7 0 1 2.37.5q.19.54-.3 1.68-1.55 3.6-4.99 9.22a.7.7 0 0 0 .66 1.06c4.02-.36 8.75-3.87 11.81-6.56q7.15-6.31 14.58-13.03" vector-effect="non-scaling-stroke"/><path stroke="#7e6535" d="M672.69 730.08q22.35-17.77 35.9-43.12" vector-effect="non-scaling-stroke"/><path stroke="#7d6026" d="m708.59 686.96 9.55-20.72a.74.74 0 0 1 1.4.2l.34 2.22" vector-effect="non-scaling-stroke"/><path stroke="#7e6535" d="M719.88 668.66q-.47 13.31-5.3 25.29" vector-effect="non-scaling-stroke"/><path stroke="#784e1e" d="M714.58 693.95q-3.25 7.93-6.38 12.75-8.68 13.36-21.04 23.69-7.29 6.08-15.55 11.46-1.37.89-1.84 1.66a.33.33 0 0 0 .32.5q3.16-.38 6.59.92a1.16 1.16 0 0 0 1-.08l4.59-2.67" vector-effect="non-scaling-stroke"/><path stroke="#7e6535" d="M682.27 742.18q8.71-.6 11.59 6.65a1.12 1.12 0 0 0 .78.66c.82.18 1.91.05 2.65.21 6.02 1.27 7.88 7.06 9.21 12.3" vector-effect="non-scaling-stroke"/><path stroke="#784e1e" d="M706.5 762q1.62 11.85-1.13 23.71a.41.41 0 0 0 .64.43q32.34-23.72 48.15-58.72c5.78-12.78 9.66-26.92 12.36-41.16q1.41-7.45 1.56-15.01" vector-effect="non-scaling-stroke"/><path stroke="#7d6026" d="M768.08 671.25c.84-18.03.49-37.45-3.12-55.38" vector-effect="non-scaling-stroke"/><path stroke="#784e1e" d="m764.96 615.87-3.99-18.2a.58.58 0 0 0-.93-.32Q741.67 612.27 718.7 619q-28.15 8.25-56.44 4.5-25.1-3.32-46.05-11.43" vector-effect="non-scaling-stroke"/><path stroke="#7a6847" d="M616.21 612.07q-15.5-6.62-33.79-18.5-6.08-3.95-9.51-8.05" vector-effect="non-scaling-stroke"/><path stroke="#817a68" d="M572.91 585.52q5.51.22 9.04 1.83" vector-effect="non-scaling-stroke"/><path stroke="#7a6847" d="M581.95 587.35q8.79 4.32 17.45 8.39 19.45 9.14 38.58 13.83c16.33 4 30.95 5.37 47.4 4.56q33.86-1.65 61.77-21.26 12.6-8.86 20.44-19.5c14.01-19.02 20.53-43.14 18.37-66.75" vector-effect="non-scaling-stroke"/><path stroke="#817a68" d="M785.96 506.62c-1.3-22.23-10.06-46.24-24.16-63.67q-8.08-9.99-16.79-16.17" vector-effect="non-scaling-stroke"/><path stroke="#7a6847" d="M745.01 426.78q-2.43-2.45-6.4-4.68-19.98-11.29-43.37-12.19-18.65-.72-36.89 4.52" vector-effect="non-scaling-stroke"/><path stroke="#7d6026" d="m658.35 414.43-7.46-.04a.94.93-65.9 0 1-.62-1.63c4.85-4.39 13.39-7.01 19.74-8.95" vector-effect="non-scaling-stroke"/><path stroke="#784e1e" d="M670.01 403.81q8.44-2.66 17.58-3.48a.4.4 0 0 0 .3-.62q-6.06-9.16-15.09-21.57c-7.66-10.52-14.79-18.61-22.1-28.56q-2.34-3.18-2.86-5.4-.46-1.96 1.09-2.62" vector-effect="non-scaling-stroke"/><path stroke="#7d5b51" d="M648.93 341.56q.31-.19.8-.1" vector-effect="non-scaling-stroke"/><path stroke="#7d6026" d="M649.73 341.46c4.67 1.77 8.22 5.18 12.34 8.55a.54.53 42.9 0 0 .71-.02c14.96-14.12 18.84-34.86 10.4-53.3q-5.99-13.07-19.48-20.75" vector-effect="non-scaling-stroke"/><path stroke="#7a6847" d="M653.7 275.94q-7.14-4.03-14.82-4.37-18.46-.8-31.17 12.89-6.55 7.05-10.47 15.78a.63.63 0 0 0 .29.82l3.2 1.59" vector-effect="non-scaling-stroke"/><path stroke="#7d6026" d="m600.73 302.65 11.48 6.41a.44.44 0 0 0 .62-.22c3.79-9.44 9.55-17.78 18.72-22.38 8.11-4.08 17.31-3.23 22.79 4.5a.61.6-61.6 0 1 .11.38q-.04 1.04-1.51 1.17" vector-effect="non-scaling-stroke"/><path stroke="#7d5b51" d="M652.94 292.51c-10.63-6.52-20.37 1.66-26.2 10.73q-3.31 5.14-5.47 11.58a.67.67 0 0 0 .22.74q7.11 5.52 13.37 11.82 3.8 3.81 5.78 8.6" vector-effect="non-scaling-stroke"/><path stroke="#784e1e" d="m640.64 335.98-1.83-.28" vector-effect="non-scaling-stroke"/><path stroke="#7d6026" d="M638.81 335.7c-7.44-3.32-13.34-7.54-20.59-12.13q-33.29-21.08-72.84-28.18c-10.6-1.91-17.71-15.98-22.85-24.43a.63.63 0 0 0-1.06-.02c-1.34 1.99-1.33 7.01-1.8 12.37a1.61 1.61 0 0 1-2.58 1.13q-1.29-1-8.19-6.99c-3.79-3.31-7.34-5.5-11.46-7.54a.37.37 0 0 0-.47.53c3.08 4.9 6.57 9.92 6.79 15.69a1.43 1.43 0 0 1-2.13 1.3c-7.45-4.25-11.94-7.3-19.25-7.89a.28.28 0 0 0-.22.47c2.34 2.42 5.09 4.34 7.48 8a2.36 2.36 0 0 1 .39 1.23q.19 5.89-5.29 6.82-26.4 4.47-47.68 15.41" vector-effect="non-scaling-stroke"/><path stroke="#f0ab41" d="M638.81 335.7c6.3 6.43 8.17 15.61 12.24 23.48 1.69 3.28 2.77 7.21 4.46 10.81 1.77 3.75 3.33 6.65 4.73 10.48 2.47 6.71 4.88 14.06 8.36 20.09q.91 1.59 1.41 3.25" vector-effect="non-scaling-stroke"/><path stroke="#f1c56a" d="M658.35 414.43q16.31-1.7 32.06-1.97 7.25-.13 13.1 1.15 20.57 4.5 37.33 17.06 8.1 6.07 16.72 14.48" vector-effect="non-scaling-stroke"/><path stroke="#f9d78b" d="M757.56 445.15q1.15 4.14.83 8.86c-.43 6.08-.81 12.7-2.32 18.34q-5.43 20.16-21.27 34.7" vector-effect="non-scaling-stroke"/><path stroke="#f6c258" d="M734.8 507.05c-12.89-9.99-25.5-20.43-39.69-28.71-20.62-12.03-44.52-13.26-65.3-.5q-9.05 5.56-18.26 13.64" vector-effect="non-scaling-stroke"/><path stroke="#7d6026" d="M611.55 491.48q-15.16-3.04-29.93-1.75" vector-effect="non-scaling-stroke"/><path stroke="#f9d78b" d="m581.62 489.73-4.92-7.02" vector-effect="non-scaling-stroke"/><path stroke="#7d6026" d="M576.7 482.71q26.26-12.14 54.35-18.29a.36.36 0 0 0-.05-.71c-19.41-1.59-39.79 4.41-55.35 15.59" vector-effect="non-scaling-stroke"/><path stroke="#f9d78b" d="M575.65 479.3q-2.22-1.95-3.49-3.91c-6.76-10.38-16.59-19.09-28.95-21.8q-10.15-2.22-18.47-.58c-9.35 1.85-16.63 4.09-23.81 10.67q-11.22 10.28-19.22 22.36" vector-effect="non-scaling-stroke"/><path stroke="#7d6026" d="M481.71 486.04q-4.59-2.97-9.64-4.86-21.7-8.12-44.4-4.04a.48.48 0 0 0 .04.95q26.38 2.54 51.74 10.75" vector-effect="non-scaling-stroke"/><path stroke="#f9d78b" d="M479.45 488.84c-1.9 2.16-3.42 4.58-5.43 6.39q-1.6 1.45-3.58 3.04" vector-effect="non-scaling-stroke"/><path stroke="#7d6026" d="M470.44 498.27q-10.88 1.31-21.76 5" vector-effect="non-scaling-stroke"/><path stroke="#f6c258" d="M448.68 503.27q-15.22-4.38-22.52-7.73-12.6-5.79-19.56-8.1-21.59-7.17-43.44-.23c-12.04 3.82-21.98 10.55-31.5 18.58q-9.6 8.09-19.46 16.13" vector-effect="non-scaling-stroke"/><path stroke="#f9d78b" d="M312.2 521.92q-14.02-11.66-21.2-27.88" vector-effect="non-scaling-stroke"/><path stroke="#f1c56a" d="M291 494.04q-3.71-11.35-4.51-23.05a1.45 1.43-30 0 1 .25-.9c7.1-10.42 16.47-19.45 26.48-27.13q7.26-5.56 15.69-9.03 11.34-4.68 21.29-7.21c6.15-1.57 15.36-2.64 22.29-1.26q4.44.88 7.47 1.19a1.36 1.36 0 0 0 1.49-1.41l-.03-.59" vector-effect="non-scaling-stroke"/><path stroke="#f0ab41" d="M383.41 422.45q5.72-11.51 7.57-22.34c2.45-14.35-.87-29.38-6.05-43.63" vector-effect="non-scaling-stroke"/><path stroke="#f1c56a" d="M384.93 356.48q4.76-5.33 9.42-10.63 4.82-5.49 17.32-16.13 4.43-3.78 11.18-8.21 7.15-4.7 14.21-10.04" vector-effect="non-scaling-stroke"/><path stroke="#7e6535" d="M448.68 503.27c-7.86 3.05-15.47 6.87-22.1 12.05a.37.37 0 0 0 .36.64q15.66-6.06 33.41-9.78" vector-effect="non-scaling-stroke"/><path stroke="#f6dfac" d="M291 494.04c-3.4-6.57-4.28-13.02-5.57-20.43a1.17.99-51.5 0 1-.01-.33l.21-2.3a1.82 1.73 33.2 0 0-.26-1.11q-.75-1.22-.73-3.25.05-6.68.29-12.49a3.68 3.66-18.9 0 1 1.31-2.65q7.93-6.68 16.05-12.44 2.57-1.83 4.91-6.52m437.81-5.74q1.94 4.98 6.45 9 2.99 2.66 3.88 4.12 1.43 2.39 2.22 5.25" vector-effect="non-scaling-stroke"/><path stroke="#7e6535" d="M584.51 493.99q25.68 1.7 50.41 7.12a.37.37 0 0 0 .26-.69q-11.41-6.02-23.63-8.94" vector-effect="non-scaling-stroke"/><path stroke="#f6dfac" d="M785.96 506.62q-1.89 8.24-4.97 15.86-1.03 2.52-1.31 3.89-.6 2.83-1.09 3.99c-4.26 10.05-10.3 16.64-17.96 26.45q-3.63 4.65-7.99 8.18-9.8 7.94-16.8 12.3-41.06 25.58-89.57 21.49c-10.46-.88-24.75-2.53-36.78-5.34q-9.6-2.24-18.44-4.33a3.5 3.5 0 0 1-.91-.35q-4.18-2.31-8.19-1.41m-9.04-1.83q-6.17-.07-13.78 3.15-5.49 2.32-11.19 4-6.48 1.92-11.66 2-6.87.12-13.84-1.8m-98.12 8.32q-7.08.26-13.73 1.84-7.54 1.78-10.43 2.15-19.4 2.49-35.42.8-32.15-3.4-60.04-20.12-10.9-6.53-18.35-13.7-9.7-9.35-15.54-17.1-6.88-9.12-12.45-23.74a1.23 1.21 7.6 0 0-.42-.54q-.03-.02-.21-.15a.92.88-79.8 0 1-.34-.51l-1.01-3.96" vector-effect="non-scaling-stroke"/><path stroke="#fadc9a" d="M312.2 521.92q23.8 18.91 54.56 20.71 19.22 1.13 37.75-4.09 20.36-5.73 37.77-17.76 6.16-4.26 18.07-14.6" vector-effect="non-scaling-stroke"/><path stroke="#817a68" d="M460.35 506.18q9.99-3.14 21.63-5.05 1.47-.24 2.02-.47a.98.97 43.5 0 0-.05-1.82c-4.23-1.5-8.85-.58-13.51-.57m9.01-9.43 6.32 1.79a.6.6 0 0 0 .53-1.06l-4.59-3.53m93.94-6.74-4.45 4.48a.4.39 12.9 0 0 .41.65l5.09-1.72m4.92 7.02-6 1.42a.98.94 56 0 0-.29 1.71q.2.15.75.22 4.26.48 8.43.91" vector-effect="non-scaling-stroke"/><path stroke="#fadc9a" d="M584.51 493.99c11.7 13.87 26.76 23.69 43.61 30.05q35.77 13.52 72.6 2.71 18.7-5.49 34.08-19.7" vector-effect="non-scaling-stroke"/><path stroke="#edb361" d="M384.93 356.48c-5.1 4.83-8.29 9.6-13.41 16.41-5.26 7.01-8.75 13.83-13.9 22.12q-2.02 3.26-5.04 9.09-2.35 4.54-4.96 9.15" vector-effect="non-scaling-stroke"/><path stroke="#f0a66c" d="M648.93 341.56q-4.76-1.85-8.29-5.58" vector-effect="non-scaling-stroke"/><path stroke="#edb361" d="m616.21 612.07 13.95 19.65" vector-effect="non-scaling-stroke"/><path stroke="#f1c56a" d="M630.16 631.72q-.3.7.39 2.42" vector-effect="non-scaling-stroke"/><path stroke="#f6dfac" d="M630.55 634.14q-3.13-1.41-8.27-2.49c-5.04-1.05-12-3.39-18.42-6.06q-13.28-5.5-28.46-10.1c-11.62-3.51-22.09-4.43-33.59-3.12q-8.82 1-17.68 2.47-3.25.54-5.01 1.38a3.79 3.78 80.9 0 0-2.12 2.94q-1.86 14.49-6.42 26.4c-10.11 26.4-28.39 49.9-54.84 60.9q-10.18 4.23-22.82 4.8" vector-effect="non-scaling-stroke"/><path stroke="#f1c56a" d="m432.92 711.26-.25-1.29" vector-effect="non-scaling-stroke"/><path stroke="#edb361" d="m432.67 709.97 1.75-9.99" vector-effect="non-scaling-stroke"/><path stroke="#f1c095" d="m381.19 347-6.44 6.87" vector-effect="non-scaling-stroke"/><path stroke="#f4b874" d="M649.73 341.46q-.1-.49.19-.77c4.33-4.14 6.49-8.95 8.3-15.03q2.2-7.41 1.6-12.61-.92-8.01-4.56-17.03-.45-1.1-2.32-3.51" vector-effect="non-scaling-stroke"/><path stroke="#f0ab41" d="M764.96 615.87q-1.24.68-5.61 3.5-2.78 1.78-12.43 6.55-7 3.46-13.05 5.24-16.6 4.89-26.25 5.98c-19.54 2.2-39.67.69-59.29-1.43q-4.15-.45-9.14-1.66-4.74-1.15-9.03-2.33m-149.91 23.62q-7.68 6.36-12.36 9.8-7.29 5.36-15.72 9.75-18.05 9.38-36.38 14.64-4.56 1.3-5.69 5.84a.83.82-67.9 0 0 .38.9q2.47 1.48 2.99 4.18a2.42 2.37 18.5 0 0 .61 1.19q7.06 7.51 17.45 8.92a.86.86 0 0 0 .7-.21l.44-.38" vector-effect="non-scaling-stroke"/><path stroke="#f9d78b" d="M432.92 711.26q-.6 1.08-.67 3.24-.39 13.19.34 24.56" vector-effect="non-scaling-stroke"/><path stroke="#f6c258" d="M432.59 739.06q-15.2-12.7-23.4-18.32-6.55-4.5-14.06-7.79c-21.8-9.55-41.52-.77-47.31 22.69-3.22 13.05-3.66 26.23-3.77 39.48" vector-effect="non-scaling-stroke"/><path stroke="#f0ab41" d="M344.05 775.12q-11.15-6.25-16.61-11.31-7.78-7.22-15.97-14.78-4.65-4.29-6.9-7.33-7.28-9.78-14.52-20.33a.73.72 24.5 0 0-1.32.49q.18 1.55-.98 1.39" vector-effect="non-scaling-stroke"/><path stroke="#f1c56a" d="M286.33 718.66q-.31-18.74-.52-37.16-.08-6.38 1.25-15.24 2.6-17.31 6.27-31.48" vector-effect="non-scaling-stroke"/><path stroke="#f0ab41" d="M293.33 634.78c2.23.62 4.55 1.91 6.43 2.7q13.16 5.57 26.02 7.41 26.53 3.78 52.86-1.73 15.29-3.2 24.19-12.56m365.25 40.65q-4.89 16.56-12.21 32.33" vector-effect="non-scaling-stroke"/><path stroke="#f6c258" d="M755.87 703.58q-7.85-4.61-15.1-9.56-13.98-9.54-20.89-25.36m-11.29 18.3c-10.77-8.21-21.51-15-32.88-18.44-14.45-4.37-22.88-6.16-33.87-13.86a2.01 1.97 3.4 0 1-.59-.65c-2.78-4.98-5.75-9.12-8.51-15.23" vector-effect="non-scaling-stroke"/><path stroke="#f9d78b" d="M630.55 634.14q1.71 2.06 2.19 4.64" vector-effect="non-scaling-stroke"/><path stroke="#fadc9a" d="m632.74 638.78 2.62 8.09m5.63 110.67q-1.54 1.15-1.85 3.08-2.52 15.71-10.56 28.22" vector-effect="non-scaling-stroke"/><path stroke="#f6dfac" d="M628.58 788.84q-2.34 1.62-4.61 3.1-1.89 1.24-4.74 1.79c-12.96 2.47-26.79 3.4-38.39 3.96-13.21.65-26.32.46-39.8.39-11.6-.07-27.59 1.5-36.54 1.71q-17.56.42-41.25-.53-5.29-.21-8.66-2.46" vector-effect="non-scaling-stroke"/><path stroke="#fadc9a" d="M454.59 796.8q-8.58-10.98-11.4-18.25c-5-12.88-9.36-25.69-10.6-39.49" vector-effect="non-scaling-stroke"/><path stroke="#f4b874" d="M365.57 302.84q-6.76 12.71-4.84 26.43 1.28 9.12 7.03 17.97a1.21.91 86.5 0 0 .18.21l4.72 4.67" vector-effect="non-scaling-stroke"/><path stroke="#f1c56a" d="M653.7 275.94q-.6.66-1.42 1a1.12 1.1-41.5 0 1-.93-.05q-1.48-.81-2.27-.93c-13.02-1.92-25.9 3.47-35.79 11.31-3.77 2.98-6.93 7.51-10.38 11.62q-1.33 1.59-2.18 3.76" vector-effect="non-scaling-stroke"/><path stroke="#f3ca78" d="m454.59 796.8 1.03 2.65" vector-effect="non-scaling-stroke"/><path stroke="#f1b04f" d="M455.62 799.45q-9.47-1.78-19.11-1.08m-58.86-8.36q-6.15-2.94-11.77-4.88-11.54-3.98-21.83-10.01" vector-effect="non-scaling-stroke"/><path stroke="#edb361" d="m293.33 634.78-13.84-8.35" vector-effect="non-scaling-stroke"/><path stroke="#f1b04f" d="M485.52 651.56q-3.02 1.38-5.27 3.78" vector-effect="non-scaling-stroke"/><path stroke="#f6c258" d="M480.25 655.34q-12.21-6.2-19.68-13.79c-10.03-10.19-16.46-24.49-21.88-38.07" vector-effect="non-scaling-stroke"/><path stroke="#fae2b2" d="M672.69 730.08q-4.6-7.84-6.26-9.53-11.6-11.89-28.45-12.53" vector-effect="non-scaling-stroke"/><path stroke="#f1b04f" d="M755.87 703.58c-5.35 10.17-11.3 21.14-19.46 29.33-5.19 5.21-7.89 9.33-13.57 14.44-3.52 3.16-7.41 7.45-12.01 10.96q-.36.27-1.95 2.1-1.11 1.27-2.38 1.59m-24.23-19.82q7.2-5.02 10.24-7.91 5.86-5.57 12.55-14.69 4.07-5.55 8.79-18.25.93-2.5.73-7.38m-67.07 93.4q-6.24 2.21-8.83 2.56-5.44.74-11.51 2.69" vector-effect="non-scaling-stroke"/><path stroke="#f3ca78" d="m627.17 792.6 1.41-3.76" vector-effect="non-scaling-stroke"/><path stroke="#edb361" d="M477.56 819.33q-2.03-1.63-4.11-3.02c-6.74-4.52-12.67-10.55-17.83-16.86" vector-effect="non-scaling-stroke"/><path stroke="#f1c56a" d="M418.94 308.59q-3.89-6.13-8.33-10.44c-4-3.9-9.23-7.17-14.83-8.86-5.03-1.52-9.6-3.42-14-3.88q-7.31-.78-14.37 1.14a4.53 4.21-63.8 0 0-.89.34l-4.86 2.5a.48.47-36.3 0 1-.54-.08q-.33-.33-.16-.76" vector-effect="non-scaling-stroke"/><path stroke="#fae2b2" d="M509.25 602.69q-14.38-.34-24.26-9.21-6.35-5.71-9.23-15.24" vector-effect="non-scaling-stroke"/><path stroke="#edb361" d="M607.53 815.08q6.97-3.63 11.58-10.44 4.23-6.25 8.06-12.04" vector-effect="non-scaling-stroke"/><path stroke="#817a68" d="M488.13 559.13q2.75-2.1 5.01-4.24a1.16 1.04 35.6 0 0-.39-1.76q-.47-.24-.8.07-2.78 2.57-4.13 5.68a.21.2 83.4 0 0 .31.25" vector-effect="non-scaling-stroke"/><path stroke="#7a6847" d="M653.87 804.74c-.79 9.24 2.2 23.75 14.61 21.69 7.61-1.27 13.61-8.55 17.48-15.57" vector-effect="non-scaling-stroke"/><path stroke="#817a68" d="M685.96 810.86q11.41-19.87 12.47-44.12.21-4.71-1.01-7.98a1.25 1.25 0 0 0-1.98-.52c-2.16 1.82-3.46 9.28-7.57 12.36a.78.78 0 0 1-1.25-.59q-.22-4.77.71-11 .52-3.49-.48-6.51a2.39 1.98 72.7 0 0-2.54-1.66q-1.64.47-2.69 2.62-2.79 5.77-5.03 10.14-.94 1.84-1.93 2.93a1.06 1.06 0 0 1-1.84-.69l-.22-12.28a.81.81 0 0 0-1.46-.48q-6.04 8.11-9.29 17.31c-3.79 10.73-7.36 23.03-7.98 34.35" vector-effect="non-scaling-stroke"/><path stroke="#f6dfac" d="M685.96 810.86q-4.33 1.15-8.38 3.95a3.13 2.81 14.5 0 1-.58.3c-7.46 2.83-15.92 1.58-20.45-5.66q-2.11-3.36-2.68-4.71" vector-effect="non-scaling-stroke"/><path stroke="#7a6847" d="M395.74 812.56q4.62 10.14 12.11 15.1c8.92 5.9 17 1.71 19.74-7.6q1.35-4.6.94-9.58" vector-effect="non-scaling-stroke"/><path stroke="#817a68" d="M428.53 810.48q.04-3.23-.4-6.61-2.16-16.57-8.07-32.38-3.32-8.86-7.58-14.38-.43-.56-1.09-.75a.84.83-80.2 0 0-1.07.76l-.68 12.46a.91.91 0 0 1-1.55.59c-1.44-1.26-3.36-6.62-6.54-13.63q-.87-1.92-2.26-3a1.67 1.66-55.6 0 0-2.45.47q-1.43 2.4-1.37 5.5.08 4.19.38 13.34a.79.78 15.5 0 1-1.21.68c-2.46-1.57-5.27-8.96-6.9-12.65a1.15 1.15 0 0 0-2.11.01q-.97 2.3-1.14 4.88-.78 12.41 2.72 25.74 3.13 11.92 8.53 21.05" vector-effect="non-scaling-stroke"/><path stroke="#f6dfac" d="M428.53 810.48q-1.99.96-3.2 2.98a3.19 3.14-2.2 0 1-.95 1.01c-3.13 2.1-5.46 4.05-9.63 4.34q-9.8.69-19.01-6.25" vector-effect="non-scaling-stroke"/><path stroke="#f1c56a" d="M457.585 314.245a15.01 8.69-35.4 0 0-17.269 1.611 15.01 8.69-35.4 0 0-7.201 15.779 15.01 8.69-35.4 0 0 17.269-1.611 15.01 8.69-35.4 0 0 7.201-15.779" vector-effect="non-scaling-stroke"/><path stroke="#7d6026" d="M574.19 359.829a10.01 6.79-46.5 0 0-11.815 2.587 10.01 6.79-46.5 0 0-1.965 11.935 10.01 6.79-46.5 0 0 11.815-2.587 10.01 6.79-46.5 0 0 1.965-11.935m-105.654 6.788a10.16 6.75-141.8 0 0 3.81 11.587 10.16 6.75-141.8 0 0 12.158.979 10.16 6.75-141.8 0 0-3.81-11.587 10.16 6.75-141.8 0 0-12.158-.979m115.113 15.458a30.63 25.34-100.1 0 0-19.576 34.599 30.63 25.34-100.1 0 0 30.318 25.711 30.63 25.34-100.1 0 0 19.576-34.599 30.63 25.34-100.1 0 0-30.318-25.711m-121.497 7.504a30.71 25.15-88 0 0-26.207 29.813 30.71 25.15-88 0 0 24.063 31.57 30.71 25.15-88 0 0 26.207-29.814 30.71 25.15-88 0 0-24.063-31.57" vector-effect="non-scaling-stroke"/><path stroke="#f9d78b" d="M690.745 429.997a14.99 6.39-17 0 0-16.203-1.728 14.99 6.39-17 0 0-12.467 10.494 14.99 6.39-17 0 0 16.203 1.728 14.99 6.39-17 0 0 12.467-10.494m-346.982 12.708a14.96 6.32-167 0 0 13.155 9.523 14.96 6.32-167 0 0 15.999-2.793 14.96 6.32-167 0 0-13.155-9.523 14.96 6.32-167 0 0-15.999 2.793" vector-effect="non-scaling-stroke"/><path stroke="#f1c56a" d="M332.699 447.439a10.12 6.74-35.6 0 0-12.153.41 10.12 6.74-35.6 0 0-4.305 11.372 10.12 6.74-35.6 0 0 12.153-.41 10.12 6.74-35.6 0 0 4.305-11.372" vector-effect="non-scaling-stroke"/><path stroke="#818080" d="M579.128 393.543a9.34 8.29-94.8 0 0-7.479 10 9.34 8.29-94.8 0 0 9.043 8.614 9.34 8.29-94.8 0 0 7.479-10 9.34 8.29-94.8 0 0-9.043-8.614m-110.468 6.819a9.56 8.37-88.8 0 0-8.568 9.383 9.56 8.37-88.8 0 0 8.168 9.733 9.56 8.37-88.8 0 0 8.568-9.383 9.56 8.37-88.8 0 0-8.168-9.733" vector-effect="non-scaling-stroke"/><path stroke="#817a68" d="M512.59 473.43q-1.7-.28-1.67 1.91.02 1.43.77 2.89c3.07 6.02 9.45 10.77 15.83 12.56a.95.93-88.6 0 1 .67.72q2.53 12.89-8.02 19.64c-6.44 4.13-13.45 3.52-19.19-1.35q-1.32-1.11-3.74-3.46a1.42 1.42 0 0 0-2.37.7q-.39 1.65.37 3.44c6.66 15.72 25.36 14.99 35.52 3.28q1.23-1.42 2.65-3.31a.53.52 41 0 1 .79-.05q1.33 1.35 2.75 2.64c11.05 10.04 28.19 9.24 34.5-5.63.54-1.26.86-3.7.62-5.25a1.43 1.43 0 0 0-2.48-.74q-2.48 2.78-2.68 3.01-9.68 11.55-22.84 2.97c-6.01-3.92-6.93-9.02-7.36-16.37a.84.82-14.4 0 1 .49-.81c6.51-2.96 13.02-8.91 14.53-16.23q.5-2.42-1.46-3.5" vector-effect="non-scaling-stroke"/><path stroke="#f9d2b6" d="M550.27 470.49q-1.85-3.12-5.39-4.15-13.98-4.05-27.61 2.21-3.13 1.44-4.68 4.88" vector-effect="non-scaling-stroke"/><path stroke="#7d5b51" d="M550.27 470.49q-4.33 5.53-10.52 9.99c-3.72 2.68-7.61 3.96-11.99 2.55-5.62-1.81-10.91-5.49-15.17-9.6" vector-effect="non-scaling-stroke"/><path stroke="#817a68" d="M544.41 527.42c3.06-2.83 1.6-6.8-2.58-6.8a2.54 2.5-58.6 0 0-1.19.3q-4.51 2.46-9.77 4.14c-1.79.56-3.46 2.02-2.95 3.87.51 1.89 2.74 2.29 4.58 2.38q7.35.34 11.91-3.89" vector-effect="non-scaling-stroke"/><path stroke="#f9d8ce" d="M528.572 471.455a5.1 3-3.2 0 0-5.26-2.71 5.1 3-3.2 0 0-4.924 3.28 5.1 3-3.2 0 0 5.26 2.71 5.1 3-3.2 0 0 4.924-3.28" vector-effect="non-scaling-stroke"/><path stroke="#7d6026" d="M303.451 685.006a8.97 4.47-101.7 0 0-2.558 9.69 8.97 4.47-101.7 0 0 6.196 7.878 8.97 4.47-101.7 0 0 2.558-9.69 8.97 4.47-101.7 0 0-6.196-7.878" vector-effect="non-scaling-stroke"/><path stroke="#7d6026" d="M311.66 713.238a8.67 4.38-112.3 0 0-.762 9.684 8.67 4.38-112.3 0 0 7.342 6.36 8.67 4.38-112.3 0 0 .762-9.684 8.67 4.38-112.3 0 0-7.342-6.36" vector-effect="non-scaling-stroke"/><path stroke="#7d6026" d="M324.044 740.199a8.25 4.52-125.8 0 0 1.16 9.335 8.25 4.52-125.8 0 0 8.492 4.047 8.25 4.52-125.8 0 0-1.16-9.335 8.25 4.52-125.8 0 0-8.492-4.047m421.101-73.822a9.22 4.63-80.1 0 0-6.146 8.287 9.22 4.63-80.1 0 0 2.976 9.879 9.22 4.63-80.1 0 0 6.146-8.287 9.22 4.63-80.1 0 0-2.976-9.879" vector-effect="non-scaling-stroke"/><path stroke="#7e6535" d="M737.877 695.466a8.64 4.46-70.9 0 0-7.041 6.705 8.64 4.46-70.9 0 0 1.387 9.623 8.64 4.46-70.9 0 0 7.042-6.705 8.64 4.46-70.9 0 0-1.388-9.623m-11.124 26.894a8.29 4.52-57.1 0 0-8.298 4.505 8.29 4.52-57.1 0 0-.708 9.415 8.29 4.52-57.1 0 0 8.298-4.505 8.29 4.52-57.1 0 0 .708-9.415" vector-effect="non-scaling-stroke"/></g><path fill="#fdfdfd" d="M485.8 234.48q3.49 4.15 8.09 4.97a2.81 2.8-9.5 0 1 1.98 1.41c3.36 6.08 8.16 9.01 14.97 8.68q8.7-.44 12.44-8.52a1.39 1.36 6.3 0 1 .98-.77q5.97-1.14 10.21-5.59c15.29-.95 26.63-5.58 38.96-14.42 15.31-10.96 27.4-24.78 34.59-42.46 14.54-35.78 8.01-73.65-15.6-103.9-39.55-50.66-130.33-49.21-166.6 3.94-15.17 22.22-22.86 50.67-17.89 77.71 6.53 35.54 31.13 63.46 65.39 75.3q2.52.88 12.48 3.65m26.68 32.35q-5.14-3.35-10.78-5.5c-5.93-2.25-15.82-3.23-16.07 5.86q0 .23-.05 2.3a.52.52 0 0 1-.55.51q-3.69-.25-7.41.19c-9.56 1.14-10.38 10.43-3.51 15.93a.34.34 0 0 1-.14.6q-17.44 3.57-33.95 10.81-6.98 3.06-8.46 3.7a.62.62 0 0 1-.77-.24q-1.95-3.01-3.83-5.95c-10.23-15.94-27.42-26.68-46.24-25.48-18.61 1.18-34.66 12.13-43.34 28.55q-10.85 20.52-4.4 43.4c3.21 11.37 9.87 19.76 19.01 27.84a.81.81 0 0 1 .12 1.08c-9.51 12.91-19.09 29.09-26.52 43.26a1.44 1.42 7.4 0 1-.98.74c-58.33 12.88-86.44 72.86-78.69 128.18q3.25 23.16 18.27 45.16c2.13 3.12 5.76 6.72 8.19 9.86a1.23 1.22 33 0 1 .22 1.02c-5.54 24.14-6.98 49.24-5.94 74.6q.93 22.8 7.92 46.22 15.45 51.74 58.42 81.52c17.54 12.15 39.82 21.1 60.81 25.4a2.17 2.16 74.5 0 1 1.18.67q3.42 3.77 4.26 4.7c9.79 10.93 26.37 11.48 34.46-1.89a.95.94-72.2 0 1 .87-.45c28.83 2.01 60 1.49 90.18-.69 11.96-.87 27.06-.56 36-.57 28.48-.05 57.35-1.21 85.37-6.69a.52.52 0 0 1 .57.29q1.65 3.82 4.33 7.2c6.03 7.6 16.31 8.68 24.86 4.67 10.55-4.95 18.89-17.62 23.51-28.57a3.01 2.97 86.2 0 1 1.21-1.4q47.48-28.73 67.35-79.05c17.52-44.36 13.9-91.23 2.94-136.8a.92.9 60 0 1 .21-.82c21.22-23.67 29.78-54.45 26.21-85.6-2.74-23.84-11.01-46.75-26.13-65.54q-26.24-32.62-68.05-36.19a1.67 1.65-14.5 0 1-1.22-.71q-14.86-21.99-29.99-41.06a.56.55 48.3 0 1 .04-.74q12.79-13.03 16.23-29.89c4.12-20.21-3.63-41.85-19.34-55.07-17.24-14.52-42.13-16.46-60.87-3.17-9.51 6.75-15.34 15.42-21.08 25.74a.62.61-65.1 0 1-.75.28q-21.07-7.86-41.46-11a3.44 3.4 77.6 0 1-2.35-1.52q-7.43-11.34-10.84-15.9-3.29-4.38-5.25-5.3-6.28-2.93-10.59 1.83c-1.01 1.12-1.5 2.62-2.23 3.53a.72.72 0 0 1-.96.15"/><path fill="#fefaea" d="M534.47 234.66q1.52-2.21 2.03-4.99c31.01-15.64 56.79-36.4 64.83-72.02q2.26-10 3.35-20.42l6.42-1.18a.76.76 0 0 0 .3-1.37c-3.41-2.37-8.61-2.19-12.56-2.48q-9.41-27.39-20.2-54.22c1.76-1.85 5.83-6.63 5.95-9.11a.47.47 0 0 0-.62-.47c-4.59 1.59-8.76 5.68-12.33 8.93q-6.96-4.88-14.13-9.16c-13.56-8.12-27.52-12.01-43.14-14.92a.59.57-83.8 0 1-.47-.6q.05-1.12-.4-1.91.05-4.43-1.2-8.74-.25-.89-.83-1.26a.72.71-61 0 0-1.04.3c-2.23 4.88-2.02 11.59-2.2 16.97-20.53 4.44-37.99 11.44-55.45 23.16q-6.85-7.07-15.18-12.58a.95.95 0 0 0-1.46.6q-.06.3.37 1 3.03 4.93 6.83 9.09-13.11 25.85-22.84 53.06-5.84.09-10.82 1.88a.63.63 0 0 0-.05 1.16q2.74 1.28 5.73 1.55 2.81 18.11 7.41 30.76c10.73 29.51 34.42 47.64 61.39 61.94q.08 2.69 1.64 4.85-9.96-2.77-12.48-3.65c-34.26-11.84-58.86-39.76-65.39-75.3-4.97-27.04 2.72-55.49 17.89-77.71 36.27-53.15 127.05-54.6 166.6-3.94 23.61 30.25 30.14 68.12 15.6 103.9-7.19 17.68-19.28 31.5-34.59 42.46-12.33 8.84-23.67 13.47-38.96 14.42"/><path fill="#f4bd49" d="M513.5 50.74q.29 6.58.12 13.02-.05 2.01-1.15 3.28a2.12 2.11-44 0 1-3.26-.05c-1.57-1.96-1.09-6.59-.98-8.98.18-5.38-.03-12.09 2.2-16.97a.72.71-61 0 1 1.04-.3q.58.37.83 1.26 1.25 4.31 1.2 8.74"/><path fill="#fdf1cd" d="m571.64 77.33-7.05 6.76a2.97 2.86 45.2 0 0 .06 4.2l.09.09a3 2.91 43.6 0 0 4.23-.04l9.67-10.36q10.79 26.83 20.2 54.22-4.6.05-9.09.09-2.13.02-3.49.99a2.26 2.06 47.1 0 0 .03 3.4q1.81 1.56 4.47 1.41 6.99-.37 13.92-.86-1.09 10.42-3.35 20.42c-8.04 35.62-33.82 56.38-64.83 72.02l-.12-3a2.35 2.34-32.1 0 1 .27-1.17c1.64-3.1.69-5.81-.28-8.74a1.56 1.55-35.6 0 1 .24-1.42q3.69-4.86 1.14-10.41a3.19 3.17 35.9 0 1-.27-1.65q.78-7.14 4.21-12.79 1.34-2.21 7.73-8.39c11.03-10.65 18.14-23.44 19.5-38.47q1.42-15.72-4.75-29.62c-8.4-18.93-27.87-32.25-48.47-33.95-28.16-2.32-56 15.6-62.48 43.98q-5.58 24.45 7.89 45.67c4.4 6.92 8.5 10.69 15.51 17.57 4.57 4.48 5.84 8.84 6.89 15.76a1.94 1.87-37.4 0 1-.17 1.12q-2.93 6.01.9 11.56a1.34 1.33 44.3 0 1 .02 1.49q-2.81 4.38-.05 8.59a1.92 1.9 32.6 0 1 .29 1.28l-.34 2.55c-26.97-14.3-50.66-32.43-61.39-61.94q-4.6-12.65-7.41-30.76 8.46 1.31 17.66.85a2.8 2.8 0 0 0 2.65-2.64v-.1a2.61 2.38-88.4 0 0-2.37-2.75l-12.8.05q9.73-27.21 22.84-53.06 3.55 4.01 7.24 7.69 1.74 1.73 2.81 1.96c2.24.48 4.26-2.34 2.76-4.26q-1.64-2.1-3.37-3.5c17.46-11.72 34.92-18.72 55.45-23.16-.11 2.39-.59 7.02.98 8.98a2.12 2.11-44 0 0 3.26.05q1.1-1.27 1.15-3.28.17-6.44-.12-13.02.45.79.4 1.91a.59.57-83.8 0 0 .47.6c15.62 2.91 29.58 6.8 43.14 14.92q7.17 4.28 14.13 9.16"/><path fill="#f4bd49" d="M452.78 81.17q1.73 1.4 3.37 3.5c1.5 1.92-.52 4.74-2.76 4.26q-1.07-.23-2.81-1.96-3.69-3.68-7.24-7.69-3.8-4.16-6.83-9.09-.43-.7-.37-1a.95.95 0 0 1 1.46-.6q8.33 5.51 15.18 12.58m125.86-3.19-9.67 10.36a3 2.91 43.6 0 1-4.23.04l-.09-.09a2.97 2.86 45.2 0 1-.06-4.2l7.05-6.76c3.57-3.25 7.74-7.34 12.33-8.93a.47.47 0 0 1 .62.47c-.12 2.48-4.19 7.26-5.95 9.11"/><path fill="#050303" d="M536.5 229.67q-.51 2.78-2.03 4.99-4.24 4.45-10.21 5.59a1.39 1.36 6.3 0 0-.98.77q-3.74 8.08-12.44 8.52c-6.81.33-11.61-2.6-14.97-8.68a2.81 2.8-9.5 0 0-1.98-1.41q-4.6-.82-8.09-4.97-1.56-2.16-1.64-4.85l.34-2.55a1.92 1.9 32.6 0 0-.29-1.28q-2.76-4.21.05-8.59a1.34 1.33 44.3 0 0-.02-1.49q-3.83-5.55-.9-11.56a1.94 1.87-37.4 0 0 .17-1.12c-1.05-6.92-2.32-11.28-6.89-15.76-7.01-6.88-11.11-10.65-15.51-17.57q-13.47-21.22-7.89-45.67c6.48-28.38 34.32-46.3 62.48-43.98 20.6 1.7 40.07 15.02 48.47 33.95q6.17 13.9 4.75 29.62c-1.36 15.03-8.47 27.82-19.5 38.47q-6.39 6.18-7.73 8.39-3.43 5.65-4.21 12.79a3.19 3.17 35.9 0 0 .27 1.65q2.55 5.55-1.14 10.41a1.56 1.55-35.6 0 0-.24 1.42c.97 2.93 1.92 5.64.28 8.74a2.35 2.34-32.1 0 0-.27 1.17zm-35.74-41.71-.26-9.63-1.75-14.93a.93.92-3.1 0 0-.92-.82q-4.91.01-9.4-2.2c-6.04-2.97-8.43-12.35-.42-14.59 7.3-.34 10.81 6.63 12.76 12.66a1.37 1.36-24 0 0 1.98.76l4.66-2.69a1.16 1.16 0 0 0 .44-1.55q-2.81-5.15-.78-10.33c1.3-3.32 5.19-3.82 7.19-.77 2.21 3.37 1.04 8.4-1.1 11.23a1.31 1.31 0 0 0 .53 1.99l4.74 2.05a1.44 1.44 0 0 0 1.94-.88q3.8-11.55 10.87-12.55 5.24.02 6.45 4.16 1.58 5.45-3.66 9.68-4.18 3.37-10.68 3.19a.69.68 5.2 0 0-.7.58l-1.56 10.58-.76 13.11-.36 14.18a.46.46 0 0 0 .46.47h10.87a.88.87 3.7 0 0 .87-.76q1.6-11.61 9.85-19.62c9.34-9.09 16.71-18.41 19.71-31.27q5.52-23.64-8.7-43.03c-16.24-22.15-47.14-27.66-70.39-13.57-15.09 9.15-25.38 25.82-25.2 43.58q.23 22.7 16.2 39.14c7.67 7.89 13.81 13.14 15.06 24.42a1.11 1.1-3.2 0 0 1.1.98h10.59a.45.45 0 0 0 .45-.45zm10.16-42.868a3.8 1.55-88.2 0 0-1.67 3.75 3.8 1.55-88.2 0 0 1.43 3.846 3.8 1.55-88.2 0 0 1.67-3.75 3.8 1.55-88.2 0 0-1.43-3.846M496.9 159.16a.52.52 0 0 0 .43-.67c-1.07-3.27-4.2-9.68-8.03-9.59-2.13.05-3.19 1.84-2.92 3.91.57 4.31 6.94 6.81 10.52 6.35m27.17.25c3.66.4 10.12-2.26 10.62-6.67.24-2.12-.87-3.93-3.05-3.94-3.91-.02-6.99 6.58-8.02 9.93a.53.53 0 0 0 .45.68m-20.04 19.86.32 21.68a.64.64 0 0 0 .64.63h10.8a.6.6 0 0 0 .6-.58l.78-20.48 1.92-17.47a.69.68 8 0 0-.57-.75q-3.97-.67-7.13-3.55a.77.76-41.7 0 0-.97-.05q-3.32 2.43-7.94 3.59a.69.69 0 0 0-.52.76zm26.8 27.19-40.85-.33a1.84 1.76 30.8 0 0-.79.18q-1.92.93-1.78 3.74a1.85 1.76-66.1 0 0 .35.98q1.68 2.26 2.9 2.61 3.48 1.01 7.97.06a.88.77-48.9 0 1 .22-.03l30.39-.54a3.93 3.93 0 0 0 3.8-3.24l.08-.45a2.39 2.38 7.6 0 0-2.29-2.98m.998 13.762a2.96 2.96 0 0 0-2.986-2.934l-37.159.324a2.96 2.96 0 0 0-2.934 2.986l.003.34a2.96 2.96 0 0 0 2.986 2.934l37.159-.324a2.96 2.96 0 0 0 2.934-2.986zM490 230.74l.35.62a7.52 7.5 77.8 0 0 5.76 3.72q12.23 1.23 23.61.89c4.01-.12 11.48-2.75 11.27-7.61a.93.93 0 0 0-.93-.89h-38.17a2.18 2.18 0 0 0-1.89 3.27m25.81 10.8-13.05-.36a.03.03 0 0 0-.03.03l-.01.06a6.44 3.07 1.6 0 0 6.36 3.25h.24a6.44 3.07 1.6 0 0 6.52-2.89v-.06a.03.03 0 0 0-.03-.03"/><path fill="#f4bd49" d="M520.33 187.01c17.97-11.4 33.27-24.53 33.88-47.63.53-20.02-14.38-35.76-33.17-40.29q-13.22-3.19-27.05-4.01c-7.03 1.19-19.01 7.41-18.01 15.74a1.77 1.74 22.7 0 0 .37.88q.96 1.16 3.01 2.38l-5.8 5.73q-4.31-2.09-5.44 3.18-1.69 3.77-1.72 5.14-.12 4.66 1.68 15.93c3.34 20.97 15.22 33.16 32.68 43.9l.08 13.12a.45.45 0 0 1-.45.45H489.8a1.11 1.1-3.2 0 1-1.1-.98c-1.25-11.28-7.39-16.53-15.06-24.42q-15.97-16.44-16.2-39.14c-.18-17.76 10.11-34.43 25.2-43.58 23.25-14.09 54.15-8.58 70.39 13.57q14.22 19.39 8.7 43.03c-3 12.86-10.37 22.18-19.71 31.27q-8.25 8.01-9.85 19.62a.88.87 3.7 0 1-.87.76h-10.87a.46.46 0 0 1-.46-.47z"/><path fill="#f7c666" d="m520.33 187.01.76-13.11q4.14-7.33 11.52-10.71 1.5-.69 6.76-5.84a1.61 1.57-16.7 0 0 .45-.81q1.27-6.21 1.47-12.23c.44-13.74-6.94-27.1-19.75-32.37-12.2-5.02-26.47-1.76-34.17 9.32-6.59 9.51-7.5 21.51-7.19 33.19a1.83 1.76-62.3 0 0 .26.9l2.6 4.35a2.3 2.08-87.1 0 0 .35.43q9.18 8.36 17.11 18.2l.26 9.63c-17.46-10.74-29.34-22.93-32.68-43.9q-1.8-11.27-1.68-15.93.03-1.37 1.72-5.14c-.75 2.53-1.75 7.05-.77 9.83.87 2.46 2.9.88 3.69-.52q3.65-6.5 2.52-12.49l5.8-5.73q10.45-5.4 18.6-10.85 3.23-2.17 1.72-5.75a1.79 1.78 7.2 0 0-.6-.77q-2.18-1.59-5.09-1.63 13.83.82 27.05 4.01c18.79 4.53 33.7 20.27 33.17 40.29-.61 23.1-15.91 36.23-33.88 47.63"/><path fill="#fefaea" d="M493.99 95.08q2.91.04 5.09 1.63a1.79 1.78 7.2 0 1 .6.77q1.51 3.58-1.72 5.75-8.15 5.45-18.6 10.85-2.05-1.22-3.01-2.38a1.77 1.74 22.7 0 1-.37-.88c-1-8.33 10.98-14.55 18.01-15.74"/><path fill="#eecd8a" d="m521.09 173.9 1.56-10.58a.69.68 5.2 0 1 .7-.58q6.5.18 10.68-3.19 5.24-4.23 3.66-9.68-1.21-4.14-6.45-4.16c-2.07-6.18-5.32-13.75-10.74-18.13-8.92-7.18-19.39-2.83-25.41 5.66q-3.93 5.54-7.08 12.55c-8.01 2.24-5.62 11.62.42 14.59q4.49 2.21 9.4 2.2a.93.92-3.1 0 1 .92.82l1.75 14.93q-7.93-9.84-17.11-18.2a2.3 2.08-87.1 0 1-.35-.43l-2.6-4.35a1.83 1.76-62.3 0 1-.26-.9c-.31-11.68.6-23.68 7.19-33.19 7.7-11.08 21.97-14.34 34.17-9.32 12.81 5.27 20.19 18.63 19.75 32.37q-.2 6.02-1.47 12.23a1.61 1.57-16.7 0 1-.45.81q-5.26 5.15-6.76 5.84-7.38 3.38-11.52 10.71"/><path fill="#fdf1cd" d="M531.24 145.71q-7.07 1-10.87 12.55a1.44 1.44 0 0 1-1.94.88l-4.74-2.05a1.31 1.31 0 0 1-.53-1.99c2.14-2.83 3.31-7.86 1.1-11.23-2-3.05-5.89-2.55-7.19.77q-2.03 5.18.78 10.33a1.16 1.16 0 0 1-.44 1.55l-4.66 2.69a1.37 1.36-24 0 1-1.98-.76c-1.95-6.03-5.46-13-12.76-12.66q3.15-7.01 7.08-12.55c6.02-8.49 16.49-12.84 25.41-5.66 5.42 4.38 8.67 11.95 10.74 18.13m-57.68-25.9q1.13 5.99-2.52 12.49c-.79 1.4-2.82 2.98-3.69.52-.98-2.78.02-7.3.77-9.83q1.13-5.27 5.44-3.18"/><path fill="#f4bd49" d="M415.36 136.93q-2.99-.27-5.73-1.55a.63.63 0 0 1 .05-1.16q4.98-1.79 10.82-1.88l12.8-.05a2.61 2.38-88.4 0 1 2.37 2.75v.1a2.8 2.8 0 0 1-2.65 2.64q-9.2.46-17.66-.85m183.48-4.73c3.95.29 9.15.11 12.56 2.48a.76.76 0 0 1-.3 1.37l-6.42 1.18q-6.93.49-13.92.86-2.66.15-4.47-1.41a2.26 2.06 47.1 0 1-.03-3.4q1.36-.97 3.49-.99 4.49-.04 9.09-.09"/><ellipse fill="#fdf1cd" rx="3.8" ry="1.55" transform="rotate(-88.2 332.221 -189.107)"/><path fill="#eecd8a" d="M496.9 159.16c-3.58.46-9.95-2.04-10.52-6.35-.27-2.07.79-3.86 2.92-3.91 3.83-.09 6.96 6.32 8.03 9.59a.52.52 0 0 1-.43.67m26.72-.43c1.03-3.35 4.11-9.95 8.02-9.93 2.18.01 3.29 1.82 3.05 3.94-.5 4.41-6.96 7.07-10.62 6.67a.53.53 0 0 1-.45-.68m-6.45 21.79-13.14-1.25-2.07-16.22a.69.69 0 0 1 .52-.76q4.62-1.16 7.94-3.59a.77.76-41.7 0 1 .97.05q3.16 2.88 7.13 3.55a.69.68 8 0 1 .57.75z"/><path fill="#f4bd49" d="m517.17 180.52-.78 20.48a.6.6 0 0 1-.6.58h-10.8a.64.64 0 0 1-.64-.63l-.32-21.68z"/><path fill="#a5a7a3" d="M530.83 206.46a2.39 2.38 7.6 0 1 2.29 2.98l-.08.45a3.93 3.93 0 0 1-3.8 3.24l-30.39.54a.88.77-48.9 0 0-.22.03q-4.49.95-7.97-.06-1.22-.35-2.9-2.61a1.85 1.76-66.1 0 1-.35-.98q-.14-2.81 1.78-3.74a1.84 1.76 30.8 0 1 .79-.18z"/><rect width="43.08" height="6.26" x="-21.54" y="-3.13" fill="#a5a7a3" rx="2.96" transform="rotate(-.5 25531.59 -58364.266)"/><path fill="#a5a7a3" d="M490 230.74a2.18 2.18 0 0 1 1.89-3.27h38.17a.93.93 0 0 1 .93.89c.21 4.86-7.26 7.49-11.27 7.61q-11.38.34-23.61-.89a7.52 7.5 77.8 0 1-5.76-3.72zm25.81 10.8a.03.03 0 0 1 .03.03v.06a6.44 3.07 1.6 0 1-6.52 2.89h-.24a6.44 3.07 1.6 0 1-6.36-3.25l.01-.06a.03.03 0 0 1 .03-.03z"/><path fill="#050303" d="M513.44 266.68c.73-.91 1.22-2.41 2.23-3.53q4.31-4.76 10.59-1.83 1.96.92 5.25 5.3 3.41 4.56 10.84 15.9a3.44 3.4 77.6 0 0 2.35 1.52q20.39 3.14 41.46 11a.62.61-65.1 0 0 .75-.28c5.74-10.32 11.57-18.99 21.08-25.74 18.74-13.29 43.63-11.35 60.87 3.17 15.71 13.22 23.46 34.86 19.34 55.07q-3.44 16.86-16.23 29.89a.56.55 48.3 0 0-.04.74q15.13 19.07 29.99 41.06a1.67 1.65-14.5 0 0 1.22.71q41.81 3.57 68.05 36.19c15.12 18.79 23.39 41.7 26.13 65.54 3.57 31.15-4.99 61.93-26.21 85.6a.92.9 60 0 0-.21.82c10.96 45.57 14.58 92.44-2.94 136.8q-19.87 50.32-67.35 79.05a3.01 2.97 86.2 0 0-1.21 1.4c-4.62 10.95-12.96 23.62-23.51 28.57-8.55 4.01-18.83 2.93-24.86-4.67q-2.68-3.38-4.33-7.2a.52.52 0 0 0-.57-.29c-28.02 5.48-56.89 6.64-85.37 6.69-8.94.01-24.04-.3-36 .57-30.18 2.18-61.35 2.7-90.18.69a.95.94-72.2 0 0-.87.45c-8.09 13.37-24.67 12.82-34.46 1.89q-.84-.93-4.26-4.7a2.17 2.16 74.5 0 0-1.18-.67c-20.99-4.3-43.27-13.25-60.81-25.4q-42.97-29.78-58.42-81.52-6.99-23.42-7.92-46.22c-1.04-25.36.4-50.46 5.94-74.6a1.23 1.22 33 0 0-.22-1.02c-2.43-3.14-6.06-6.74-8.19-9.86q-15.02-22-18.27-45.16c-7.75-55.32 20.36-115.3 78.69-128.18a1.44 1.42 7.4 0 0 .98-.74c7.43-14.17 17.01-30.35 26.52-43.26a.81.81 0 0 0-.12-1.08c-9.14-8.08-15.8-16.47-19.01-27.84q-6.45-22.88 4.4-43.4c8.68-16.42 24.73-27.37 43.34-28.55 18.82-1.2 36.01 9.54 46.24 25.48q1.88 2.94 3.83 5.95a.62.62 0 0 0 .77.24q1.48-.64 8.46-3.7 16.51-7.24 33.95-10.81a.34.34 0 0 0 .14-.6c-6.87-5.5-6.05-14.79 3.51-15.93q3.72-.44 7.41-.19a.52.52 0 0 0 .55-.51q.05-2.07.05-2.3c.25-9.09 10.14-8.11 16.07-5.86q5.64 2.15 10.78 5.5a.72.72 0 0 0 .96-.15m-76.38 44.79q-16.07 6.9-28.03 15.81-16.27 12.12-27.84 19.72 1.84-7.97 7.48-13.59c2.94-2.92 5.77-5.9 9.61-9.81a.67.67 0 0 0 .15-.69q-3.6-10.13-11.56-17.46c-6.26-5.77-13.65-7.64-21.3-2.61q-.88-.22-1.28-.71-.45-.56.03-1.33c4.46-7.22 13.33-8.63 20.9-5.68 9.74 3.8 16.43 12.23 21.27 21.33a.34.33 58.3 0 0 .48.12l11.97-7.98q.77-.2 1.61-.97a.69.66-35.3 0 0 .15-.79q-4.81-9.57-13.01-16.54-15.38-13.07-35.38-7.76-4.54 1.2-11.35 6.02c-13.53 9.43-20.23 26.35-18.18 42.5q2.42 18.99 17.66 30.47a.59.59 0 0 0 .8-.09q4.84-5.77 11.42-9.31.97.38 2.09 1.75-2.7 7.83-8.82 16.57-14.42 20.59-26.65 42.49a.33.33 0 0 0 .29.49l8.05-.17q13.92.51 26.32 4.55 5.23 1.7 9.47 4.65.46 1.27-.45 1.67-.68.29-1.54.53c-9.18-.85-19.23-2.4-27.58-2.43-16.35-.06-31.85 3-46.64 10.3-17.32 8.6-31.84 24.82-40.1 42.85q-11.13 24.29-10.72 50.79.07 28.98 15.84 52.63c18.34 27.49 52.14 43.14 85.04 43.96 17.08.43 33.61-2.18 50.25-6.31a3.1 3.1 0 0 0 1.66-1.03q6.19-7.32 15.15-14.22 4.03-2.74 8.52-5.75 4.51-3.02 8.69-5.47 16.63-9.74 33.01-20.06a3.74 3.71-7.5 0 0 1.57-2.03c2.36-7.44 7.68-22.34 16.72-23.22 3.6-.35 6.59 1.54 9.03 4.15a1.03 1.01-28.4 0 0 1 .29q5.26-1.4 8.76 1.21a1.62 1.59 60 0 0 1.11.31q2.55-.24 2.77-.24 6.29.01 9.01 4.5c.94 1.54 1.13 2.96 1.65 5.17a3.1 2.97-71.3 0 0 .55 1.17q3.95 5.29 2.92 11.31-1.76 10.39-7.19 20.34-3.66 6.76-4.39 10.23c-7.65 36.63-29.17 70.79-62.19 89.26q-9.52 5.33-21.44 7.62c-4.4.68-11.94 1.64-16.08-.37a.46.46 0 0 1 .08-.86c14.09-3.99 26.91-9.59 39.22-18.35q14.82-10.56 27.88-28.84 9.9-13.64 17.17-31.83 5.35-13.41 6.56-17.04c4.55-13.2 11.44-21.62 12.26-32.19q.07-.94-.15-1.5a.68.68 0 0 0-1.15-.2q-4.96 5.6-10.11 9.31a1.01 1.01 0 0 1-1.6-.94q.15-1.3 1.41-3.52 6.37-11.22 6.85-12.82a1.82 1.81-88.5 0 0-2.17-2.29q-1.44.36-2.71 1.34-3.68 2.82-11.79 9.1a.93.93 0 0 1-1.49-.67c-.2-3.08 3.98-8.06 6.01-10.69a.46.46 0 0 0-.48-.72c-3.39.87-6.29 2.13-9.29 4.27q-10.52 7.51-19.08 17.07c-10.98 9.99-24.4 17.69-37.07 25.24q-15.65 9.14-31.18 21.79-3.04 2.48-4.68 5.33-1.24-1.65-1.1-2.14a.46.45-89.5 0 0-.55-.57q-20.36 5.31-40.9 5.33-39 .05-70.38-21.12-3.45-2.32-6.67-5.18a.3.3 0 0 0-.5.18l-3.24 19.33q-4.76 39.75 2.48 76.83 1.33 6.76 4.36 15.4.18 2.1 1.42 4.59 7.57 21.37 20.92 39.01c19.11 25.27 45.36 41.88 75.74 49.84a.25.25 0 0 0 .3-.34q-4.85-11.05-7.06-21.75c-2.29-10.89-3.65-24.07 1.85-33.74q2.32-4.08 8.55-4.47a.85.84 11.8 0 0 .7-.45c3.01-5.94 8.17-8.52 14.38-5.52.98.47 2.23 1.69 2.76 1.86a1.83 1.83 0 0 0 1.01.03q3.99-1 7.07.07c3.38 1.18 6.87 5.73 8.63 8.64q7.03 11.62 10.5 25.45 2.11 8.38 3.41 16.49 1.85 9.51.83 18.6a1.12 1.12 0 0 0 1.04 1.25q19.36 1.31 39.18 1.11c15.29-.49 30.72-1.23 41.84-1.88q16.37-.96 32.17-.99c24.92-.05 37.23-.32 55.96-1.38q18.59-.85 36.65-5.43a.37.36-5.9 0 0 .27-.32q.51-11.24 3.06-21.98 3.37-18.72 13.17-34.85a.28.28 0 0 0-.4-.38q-9.15 6.41-19.29 5.42l-2.21-1.81a1.05 1.02 58.6 0 0-.85-.22c-6.16 1.1-11.8-1.79-12.53-8.29a1.17 1.16-76.7 0 0-.52-.85c-7.42-4.99-5.2-15.5-1.96-22.52q1.29-2.77 5.06-9.96a11.56 11.45 62.3 0 0 1.24-4.06q2.88-25.46 4.33-53.56.28-5.27 1.81-9.4 3.11 5.23 4.51 14 3.97 24.99-1.89 47.15-3.02 8.93-6.92 17.63c-1.71 3.8-2.9 7.38-2.97 11.29a.84.84 0 0 0 1.45.6l8.55-8.77a1.2 1.19-21.7 0 1 2.05.88c0 1.52-2.9 6.74-5.17 11.3q-1.3 2.6-1.41 5.04a1.54 1.54 0 0 0 1.97 1.55q2.06-.6 4.14-2.37 2.12-1.81 8.89-7.96a1.49 1.42-31.7 0 1 2.37.5q.19.54-.3 1.68-1.55 3.6-4.99 9.22a.7.7 0 0 0 .66 1.06c4.02-.36 8.75-3.87 11.81-6.56q7.15-6.31 14.58-13.03 22.35-17.77 35.9-43.12l9.55-20.72a.74.74 0 0 1 1.4.2l.34 2.22q-.47 13.31-5.3 25.29-3.25 7.93-6.38 12.75-8.68 13.36-21.04 23.69-7.29 6.08-15.55 11.46-1.37.89-1.84 1.66a.33.33 0 0 0 .32.5q3.16-.38 6.59.92a1.16 1.16 0 0 0 1-.08l4.59-2.67q8.71-.6 11.59 6.65a1.12 1.12 0 0 0 .78.66c.82.18 1.91.05 2.65.21 6.02 1.27 7.88 7.06 9.21 12.3q1.62 11.85-1.13 23.71a.41.41 0 0 0 .64.43q32.34-23.72 48.15-58.72c5.78-12.78 9.66-26.92 12.36-41.16q1.41-7.45 1.56-15.01c.84-18.03.49-37.45-3.12-55.38l-3.99-18.2a.58.58 0 0 0-.93-.32Q741.67 612.27 718.7 619q-28.15 8.25-56.44 4.5-25.1-3.32-46.05-11.43-15.5-6.62-33.79-18.5-6.08-3.95-9.51-8.05 5.51.22 9.04 1.83 8.79 4.32 17.45 8.39 19.45 9.14 38.58 13.83c16.33 4 30.95 5.37 47.4 4.56q33.86-1.65 61.77-21.26 12.6-8.86 20.44-19.5c14.01-19.02 20.53-43.14 18.37-66.75-1.3-22.23-10.06-46.24-24.16-63.67q-8.08-9.99-16.79-16.17-2.43-2.45-6.4-4.68-19.98-11.29-43.37-12.19-18.65-.72-36.89 4.52l-7.46-.04a.94.93-65.9 0 1-.62-1.63c4.85-4.39 13.39-7.01 19.74-8.95q8.44-2.66 17.58-3.48a.4.4 0 0 0 .3-.62q-6.06-9.16-15.09-21.57c-7.66-10.52-14.79-18.61-22.1-28.56q-2.34-3.18-2.86-5.4-.46-1.96 1.09-2.62.31-.19.8-.1c4.67 1.77 8.22 5.18 12.34 8.55a.54.53 42.9 0 0 .71-.02c14.96-14.12 18.84-34.86 10.4-53.3q-5.99-13.07-19.48-20.75-7.14-4.03-14.82-4.37-18.46-.8-31.17 12.89-6.55 7.05-10.47 15.78a.63.63 0 0 0 .29.82l3.2 1.59 11.48 6.41a.44.44 0 0 0 .62-.22c3.79-9.44 9.55-17.78 18.72-22.38 8.11-4.08 17.31-3.23 22.79 4.5a.61.6-61.6 0 1 .11.38q-.04 1.04-1.51 1.17c-10.63-6.52-20.37 1.66-26.2 10.73q-3.31 5.14-5.47 11.58a.67.67 0 0 0 .22.74q7.11 5.52 13.37 11.82 3.8 3.81 5.78 8.6l-1.83-.28c-7.44-3.32-13.34-7.54-20.59-12.13q-33.29-21.08-72.84-28.18c-10.6-1.91-17.71-15.98-22.85-24.43a.63.63 0 0 0-1.06-.02c-1.34 1.99-1.33 7.01-1.8 12.37a1.61 1.61 0 0 1-2.58 1.13q-1.29-1-8.19-6.99c-3.79-3.31-7.34-5.5-11.46-7.54a.37.37 0 0 0-.47.53c3.08 4.9 6.57 9.92 6.79 15.69a1.43 1.43 0 0 1-2.13 1.3c-7.45-4.25-11.94-7.3-19.25-7.89a.28.28 0 0 0-.22.47c2.34 2.42 5.09 4.34 7.48 8a2.36 2.36 0 0 1 .39 1.23q.19 5.89-5.29 6.82-26.4 4.47-47.68 15.41m51.07 247.66q2.75-2.1 5.01-4.24a1.16 1.04 35.6 0 0-.39-1.76q-.47-.24-.8.07-2.78 2.57-4.13 5.68a.21.2 83.4 0 0 .31.25m165.74 245.61c-.79 9.24 2.2 23.75 14.61 21.69 7.61-1.27 13.61-8.55 17.48-15.57q11.41-19.87 12.47-44.12.21-4.71-1.01-7.98a1.25 1.25 0 0 0-1.98-.52c-2.16 1.82-3.46 9.28-7.57 12.36a.78.78 0 0 1-1.25-.59q-.22-4.77.71-11 .52-3.49-.48-6.51a2.39 1.98 72.7 0 0-2.54-1.66q-1.64.47-2.69 2.62-2.79 5.77-5.03 10.14-.94 1.84-1.93 2.93a1.06 1.06 0 0 1-1.84-.69l-.22-12.28a.81.81 0 0 0-1.46-.48q-6.04 8.11-9.29 17.31c-3.79 10.73-7.36 23.03-7.98 34.35m-258.13 7.82q4.62 10.14 12.11 15.1c8.92 5.9 17 1.71 19.74-7.6q1.35-4.6.94-9.58.04-3.23-.4-6.61-2.16-16.57-8.07-32.38-3.32-8.86-7.58-14.38-.43-.56-1.09-.75a.84.83-80.2 0 0-1.07.76l-.68 12.46a.91.91 0 0 1-1.55.59c-1.44-1.26-3.36-6.62-6.54-13.63q-.87-1.92-2.26-3a1.67 1.66-55.6 0 0-2.45.47q-1.43 2.4-1.37 5.5.08 4.19.38 13.34a.79.78 15.5 0 1-1.21.68c-2.46-1.57-5.27-8.96-6.9-12.65a1.15 1.15 0 0 0-2.11.01q-.97 2.3-1.14 4.88-.78 12.41 2.72 25.74 3.13 11.92 8.53 21.05"/><path fill="#f4bd49" d="M638.81 335.7c6.3 6.43 8.17 15.61 12.24 23.48 1.69 3.28 2.77 7.21 4.46 10.81 1.77 3.75 3.33 6.65 4.73 10.48 2.47 6.71 4.88 14.06 8.36 20.09q.91 1.59 1.41 3.25c-6.35 1.94-14.89 4.56-19.74 8.95a.94.93-65.9 0 0 .62 1.63l7.46.04q16.31-1.7 32.06-1.97 7.25-.13 13.1 1.15 20.57 4.5 37.33 17.06 8.1 6.07 16.72 14.48 1.15 4.14.83 8.86c-.43 6.08-.81 12.7-2.32 18.34q-5.43 20.16-21.27 34.7c-12.89-9.99-25.5-20.43-39.69-28.71-20.62-12.03-44.52-13.26-65.3-.5q-9.05 5.56-18.26 13.64-15.16-3.04-29.93-1.75l-4.92-7.02q26.26-12.14 54.35-18.29a.36.36 0 0 0-.05-.71c-19.41-1.59-39.79 4.41-55.35 15.59q-2.22-1.95-3.49-3.91c-6.76-10.38-16.59-19.09-28.95-21.8q-10.15-2.22-18.47-.58c-9.35 1.85-16.63 4.09-23.81 10.67q-11.22 10.28-19.22 22.36-4.59-2.97-9.64-4.86-21.7-8.12-44.4-4.04a.48.48 0 0 0 .04.95q26.38 2.54 51.74 10.75c-1.9 2.16-3.42 4.58-5.43 6.39q-1.6 1.45-3.58 3.04-10.88 1.31-21.76 5-15.22-4.38-22.52-7.73-12.6-5.79-19.56-8.1-21.59-7.17-43.44-.23c-12.04 3.82-21.98 10.55-31.5 18.58q-9.6 8.09-19.46 16.13-14.02-11.66-21.2-27.88-3.71-11.35-4.51-23.05a1.45 1.43-30 0 1 .25-.9c7.1-10.42 16.47-19.45 26.48-27.13q7.26-5.56 15.69-9.03 11.34-4.68 21.29-7.21c6.15-1.57 15.36-2.64 22.29-1.26q4.44.88 7.47 1.19a1.36 1.36 0 0 0 1.49-1.41l-.03-.59q.86-.24 1.54-.53.91-.4.45-1.67 5.72-11.51 7.57-22.34c2.45-14.35-.87-29.38-6.05-43.63q4.76-5.33 9.42-10.63 4.82-5.49 17.32-16.13 4.43-3.78 11.18-8.21 7.15-4.7 14.21-10.04 21.28-10.94 47.68-15.41 5.48-.93 5.29-6.82a2.36 2.36 0 0 0-.39-1.23c-2.39-3.66-5.14-5.58-7.48-8a.28.28 0 0 1 .22-.47c7.31.59 11.8 3.64 19.25 7.89a1.43 1.43 0 0 0 2.13-1.3c-.22-5.77-3.71-10.79-6.79-15.69a.37.37 0 0 1 .47-.53c4.12 2.04 7.67 4.23 11.46 7.54q6.9 5.99 8.19 6.99a1.61 1.61 0 0 0 2.58-1.13c.47-5.36.46-10.38 1.8-12.37a.63.63 0 0 1 1.06.02c5.14 8.45 12.25 22.52 22.85 24.43q39.55 7.1 72.84 28.18c7.25 4.59 13.15 8.81 20.59 12.13m-181.225-21.455a15.01 8.69-35.4 0 0-17.269 1.611 15.01 8.69-35.4 0 0-7.201 15.779 15.01 8.69-35.4 0 0 17.269-1.611 15.01 8.69-35.4 0 0 7.201-15.779m116.605 45.584a10.01 6.79-46.5 0 0-11.815 2.587 10.01 6.79-46.5 0 0-1.965 11.935 10.01 6.79-46.5 0 0 11.815-2.587 10.01 6.79-46.5 0 0 1.965-11.935m-105.654 6.788a10.16 6.75-141.8 0 0 3.81 11.587 10.16 6.75-141.8 0 0 12.158.979 10.16 6.75-141.8 0 0-3.81-11.587 10.16 6.75-141.8 0 0-12.158-.979m115.113 15.458a30.63 25.34-100.1 0 0-19.576 34.599 30.63 25.34-100.1 0 0 30.318 25.711 30.63 25.34-100.1 0 0 19.576-34.599 30.63 25.34-100.1 0 0-30.318-25.711m-121.497 7.504a30.71 25.15-88 0 0-26.207 29.813 30.71 25.15-88 0 0 24.063 31.57 30.71 25.15-88 0 0 26.207-29.814 30.71 25.15-88 0 0-24.063-31.57m228.593 40.418a14.99 6.39-17 0 0-16.203-1.728 14.99 6.39-17 0 0-12.467 10.494 14.99 6.39-17 0 0 16.203 1.728 14.99 6.39-17 0 0 12.467-10.494m-346.982 12.708a14.96 6.32-167 0 0 13.155 9.523 14.96 6.32-167 0 0 15.999-2.793 14.96 6.32-167 0 0-13.155-9.523 14.96 6.32-167 0 0-15.999 2.793m-11.064 4.734a10.12 6.74-35.6 0 0-12.153.41 10.12 6.74-35.6 0 0-4.305 11.372 10.12 6.74-35.6 0 0 12.153-.41 10.12 6.74-35.6 0 0 4.305-11.372"/><path fill="#eecd8a" d="M653.7 275.94q-.6.66-1.42 1a1.12 1.1-41.5 0 1-.93-.05q-1.48-.81-2.27-.93c-13.02-1.92-25.9 3.47-35.79 11.31-3.77 2.98-6.93 7.51-10.38 11.62q-1.33 1.59-2.18 3.76l-3.2-1.59a.63.63 0 0 1-.29-.82q3.92-8.73 10.47-15.78 12.71-13.69 31.17-12.89 7.68.34 14.82 4.37"/><path fill="#f4bd49" d="M653.7 275.94q13.49 7.68 19.48 20.75c8.44 18.44 4.56 39.18-10.4 53.3a.54.53 42.9 0 1-.71.02c-4.12-3.37-7.67-6.78-12.34-8.55q-.1-.49.19-.77c4.33-4.14 6.49-8.95 8.3-15.03q2.2-7.41 1.6-12.61-.92-8.01-4.56-17.03-.45-1.1-2.32-3.51 1.47-.13 1.51-1.17a.61.6-61.6 0 0-.11-.38c-5.48-7.73-14.68-8.58-22.79-4.5-9.17 4.6-14.93 12.94-18.72 22.38a.44.44 0 0 1-.62.22l-11.48-6.41q.85-2.17 2.18-3.76c3.45-4.11 6.61-8.64 10.38-11.62 9.89-7.84 22.77-13.23 35.79-11.31q.79.12 2.27.93a1.12 1.1-41.5 0 0 .93.05q.82-.34 1.42-1"/><path fill="#eecd8a" d="M418.94 308.59q-3.89-6.13-8.33-10.44c-4-3.9-9.23-7.17-14.83-8.86-5.03-1.52-9.6-3.42-14-3.88q-7.31-.78-14.37 1.14a4.53 4.21-63.8 0 0-.89.34l-4.86 2.5a.48.47-36.3 0 1-.54-.08q-.33-.33-.16-.76 6.81-4.82 11.35-6.02 20-5.31 35.38 7.76 8.2 6.97 13.01 16.54a.69.66-35.3 0 1-.15.79q-.84.77-1.61.97"/><path fill="#f4bd49" d="m418.94 308.59-11.97 7.98a.34.33 58.3 0 1-.48-.12c-4.84-9.1-11.53-17.53-21.27-21.33-7.57-2.95-16.44-1.54-20.9 5.68q-.48.77-.03 1.33.4.49 1.28.71-6.76 12.71-4.84 26.43 1.28 9.12 7.03 17.97a1.21.91 86.5 0 0 .18.21l4.72 4.67q-6.58 3.54-11.42 9.31a.59.59 0 0 1-.8.09q-15.24-11.48-17.66-30.47c-2.05-16.15 4.65-33.07 18.18-42.5q-.17.43.16.76a.48.47-36.3 0 0 .54.08l4.86-2.5a4.53 4.21-63.8 0 1 .89-.34q7.06-1.92 14.37-1.14c4.4.46 8.97 2.36 14 3.88 5.6 1.69 10.83 4.96 14.83 8.86q4.44 4.31 8.33 10.44"/><path fill="#f4b39f" d="M652.94 292.51q1.87 2.41 2.32 3.51 3.64 9.02 4.56 17.03.6 5.2-1.6 12.61c-1.81 6.08-3.97 10.89-8.3 15.03q-.29.28-.19.77-.49-.09-.8.1-4.76-1.85-8.29-5.58-1.98-4.79-5.78-8.6-6.26-6.3-13.37-11.82a.67.67 0 0 1-.22-.74q2.16-6.44 5.47-11.58c5.83-9.07 15.57-17.25 26.2-10.73M381.19 347l-6.44 6.87q-1.12-1.37-2.09-1.75l-4.72-4.67a1.21.91 86.5 0 1-.18-.21q-5.75-8.85-7.03-17.97-1.92-13.72 4.84-26.43c7.65-5.03 15.04-3.16 21.3 2.61q7.96 7.33 11.56 17.46a.67.67 0 0 1-.15.69c-3.84 3.91-6.67 6.89-9.61 9.81q-5.64 5.62-7.48 13.59"/><path fill="#eecd8a" d="M437.06 311.47q-7.06 5.34-14.21 10.04-6.75 4.43-11.18 8.21-12.5 10.64-17.32 16.13-4.66 5.3-9.42 10.63c-5.1 4.83-8.29 9.6-13.41 16.41-5.26 7.01-8.75 13.83-13.9 22.12q-2.02 3.26-5.04 9.09-2.35 4.54-4.96 9.15l-8.05.17a.33.33 0 0 1-.29-.49q12.23-21.9 26.65-42.49 6.12-8.74 8.82-16.57l6.44-6.87q11.57-7.6 27.84-19.72 11.96-8.91 28.03-15.81"/><ellipse fill="#eecd8a" rx="15.01" ry="8.69" transform="rotate(-35.4 728.627 -536.263)"/><path fill="#eb9938" d="M640.64 335.98q3.53 3.73 8.29 5.58-1.55.66-1.09 2.62.52 2.22 2.86 5.4c7.31 9.95 14.44 18.04 22.1 28.56q9.03 12.41 15.09 21.57a.4.4 0 0 1-.3.62q-9.14.82-17.58 3.48-.5-1.66-1.41-3.25c-3.48-6.03-5.89-13.38-8.36-20.09-1.4-3.83-2.96-6.73-4.73-10.48-1.69-3.6-2.77-7.53-4.46-10.81-4.07-7.87-5.94-17.05-12.24-23.48zm-257.23 86.47q-4.24-2.95-9.47-4.65-12.4-4.04-26.32-4.55 2.61-4.61 4.96-9.15 3.02-5.83 5.04-9.09c5.15-8.29 8.64-15.11 13.9-22.12 5.12-6.81 8.31-11.58 13.41-16.41 5.18 14.25 8.5 29.28 6.05 43.63q-1.85 10.83-7.57 22.34"/><ellipse fill="#050303" rx="10.01" ry="6.79" transform="rotate(-46.5 710.863 -476.668)"/><ellipse fill="#050303" rx="10.16" ry="6.75" transform="rotate(218.2 302.824 103.945)"/><path fill="#050303" d="M583.649 382.075a30.63 25.34-100.1 0 1 30.318 25.711 30.63 25.34-100.1 0 1-19.576 34.6 30.63 25.34-100.1 0 1-30.318-25.712 30.63 25.34-100.1 0 1 19.576-34.6m-4.52 11.468a9.34 8.29-94.8 0 0-7.48 10 9.34 8.29-94.8 0 0 9.043 8.614 9.34 8.29-94.8 0 0 7.479-10 9.34 8.29-94.8 0 0-9.043-8.614m-116.976-3.963a30.71 25.15-88 0 1 24.063 31.569 30.71 25.15-88 0 1-26.207 29.813 30.71 25.15-88 0 1-24.063-31.569 30.71 25.15-88 0 1 26.207-29.813m6.508 10.783a9.56 8.37-88.8 0 0-8.568 9.383 9.56 8.37-88.8 0 0 8.168 9.733 9.56 8.37-88.8 0 0 8.568-9.383 9.56 8.37-88.8 0 0-8.168-9.733"/><ellipse fill="#fdfdfd" rx="9.34" ry="8.29" transform="rotate(-94.8 475.175 -65.202)"/><ellipse fill="#fdfdfd" rx="9.56" ry="8.37" transform="rotate(-88.8 443.528 -34.228)"/><path fill="#eecd8a" d="M745.01 426.78q1.94 4.98 6.45 9 2.99 2.66 3.88 4.12 1.43 2.39 2.22 5.25-8.62-8.41-16.72-14.48-16.76-12.56-37.33-17.06-5.85-1.28-13.1-1.15-15.75.27-32.06 1.97 18.24-5.24 36.89-4.52 23.39.9 43.37 12.19 3.97 2.23 6.4 4.68m-363.59-2.13.03.59a1.36 1.36 0 0 1-1.49 1.41q-3.03-.31-7.47-1.19c-6.93-1.38-16.14-.31-22.29 1.26q-9.95 2.53-21.29 7.21-8.43 3.47-15.69 9.03c-10.01 7.68-19.38 16.71-26.48 27.13a1.45 1.43-30 0 0-.25.9q.8 11.7 4.51 23.05c-3.4-6.57-4.28-13.02-5.57-20.43a1.17.99-51.5 0 1-.01-.33l.21-2.3a1.82 1.73 33.2 0 0-.26-1.11q-.75-1.22-.73-3.25.05-6.68.29-12.49a3.68 3.66-18.9 0 1 1.31-2.65q7.93-6.68 16.05-12.44 2.57-1.83 4.91-6.52c14.79-7.3 30.29-10.36 46.64-10.3 8.35.03 18.4 1.58 27.58 2.43"/><ellipse fill="#fdf1cd" rx="14.99" ry="6.39" transform="rotate(-17 1791.457 -2045.792)"/><path fill="#fdf1cd" d="M745.01 426.78q8.71 6.18 16.79 16.17c14.1 17.43 22.86 41.44 24.16 63.67q-1.89 8.24-4.97 15.86-1.03 2.52-1.31 3.89-.6 2.83-1.09 3.99c-4.26 10.05-10.3 16.64-17.96 26.45q-3.63 4.65-7.99 8.18-9.8 7.94-16.8 12.3-41.06 25.58-89.57 21.49c-10.46-.88-24.75-2.53-36.78-5.34q-9.6-2.24-18.44-4.33a3.5 3.5 0 0 1-.91-.35q-4.18-2.31-8.19-1.41-3.53-1.61-9.04-1.83-6.17-.07-13.78 3.15-5.49 2.32-11.19 4-6.48 1.92-11.66 2-6.87.12-13.84-1.8 5.43-9.95 7.19-20.34 1.03-6.02-2.92-11.31a3.1 2.97-71.3 0 1-.55-1.17c-.52-2.21-.71-3.63-1.65-5.17q-2.72-4.49-9.01-4.5-.22 0-2.77.24a1.62 1.59 60 0 1-1.11-.31q-3.5-2.61-8.76-1.21a1.03 1.01-28.4 0 1-1-.29c-2.44-2.61-5.43-4.5-9.03-4.15-9.04.88-14.36 15.78-16.72 23.22a3.74 3.71-7.5 0 1-1.57 2.03q-16.38 10.32-33.01 20.06-4.18 2.45-8.69 5.47-4.49 3.01-8.52 5.75-7.08.26-13.73 1.84-7.54 1.78-10.43 2.15-19.4 2.49-35.42.8-32.15-3.4-60.04-20.12-10.9-6.53-18.35-13.7-9.7-9.35-15.54-17.1-6.88-9.12-12.45-23.74a1.23 1.21 7.6 0 0-.42-.54q-.03-.02-.21-.15a.92.88-79.8 0 1-.34-.51l-1.01-3.96q-.41-26.5 10.72-50.79c8.26-18.03 22.78-34.25 40.1-42.85q-2.34 4.69-4.91 6.52-8.12 5.76-16.05 12.44a3.68 3.66-18.9 0 0-1.31 2.65q-.24 5.81-.29 12.49-.02 2.03.73 3.25a1.82 1.73 33.2 0 1 .26 1.11l-.21 2.3a1.17.99-51.5 0 0 .01.33c1.29 7.41 2.17 13.86 5.57 20.43q7.18 16.22 21.2 27.88 23.8 18.91 54.56 20.71 19.22 1.13 37.75-4.09 20.36-5.73 37.77-17.76 6.16-4.26 18.07-14.6 9.99-3.14 21.63-5.05 1.47-.24 2.02-.47a.98.97 43.5 0 0-.05-1.82c-4.23-1.5-8.85-.58-13.51-.57q1.98-1.59 3.58-3.04c2.01-1.81 3.53-4.23 5.43-6.39l6.32 1.79a.6.6 0 0 0 .53-1.06l-4.59-3.53q8-12.08 19.22-22.36c7.18-6.58 14.46-8.82 23.81-10.67q8.32-1.64 18.47.58c12.36 2.71 22.19 11.42 28.95 21.8q1.27 1.96 3.49 3.91l-4.45 4.48a.4.39 12.9 0 0 .41.65l5.09-1.72 4.92 7.02-6 1.42a.98.94 56 0 0-.29 1.71q.2.15.75.22 4.26.48 8.43.91c11.7 13.87 26.76 23.69 43.61 30.05q35.77 13.52 72.6 2.71 18.7-5.49 34.08-19.7 15.84-14.54 21.27-34.7c1.51-5.64 1.89-12.26 2.32-18.34q.32-4.72-.83-8.86-.79-2.86-2.22-5.25-.89-1.46-3.88-4.12-4.51-4.02-6.45-9m-232.42 46.65q-1.7-.28-1.67 1.91.02 1.43.77 2.89c3.07 6.02 9.45 10.77 15.83 12.56a.95.93-88.6 0 1 .67.72q2.53 12.89-8.02 19.64c-6.44 4.13-13.45 3.52-19.19-1.35q-1.32-1.11-3.74-3.46a1.42 1.42 0 0 0-2.37.7q-.39 1.65.37 3.44c6.66 15.72 25.36 14.99 35.52 3.28q1.23-1.42 2.65-3.31a.53.52 41 0 1 .79-.05q1.33 1.35 2.75 2.64c11.05 10.04 28.19 9.24 34.5-5.63.54-1.26.86-3.7.62-5.25a1.43 1.43 0 0 0-2.48-.74q-2.48 2.78-2.68 3.01-9.68 11.55-22.84 2.97c-6.01-3.92-6.93-9.02-7.36-16.37a.84.82-14.4 0 1 .49-.81c6.51-2.96 13.02-8.91 14.53-16.23q.5-2.42-1.46-3.5-1.85-3.12-5.39-4.15-13.98-4.05-27.61 2.21-3.13 1.44-4.68 4.88m31.82 53.99c3.06-2.83 1.6-6.8-2.58-6.8a2.54 2.5-58.6 0 0-1.19.3q-4.51 2.46-9.77 4.14c-1.79.56-3.46 2.02-2.95 3.87.51 1.89 2.74 2.29 4.58 2.38q7.35.34 11.91-3.89"/><ellipse fill="#fdf1cd" rx="14.96" ry="6.32" transform="rotate(193 204.582 202.621)"/><ellipse fill="#eecd8a" rx="10.12" ry="6.74" transform="rotate(-35.6 868.214 -278.638)"/><path fill="#050303" d="m576.7 482.71-5.09 1.72a.4.39 12.9 0 1-.41-.65l4.45-4.48c15.56-11.18 35.94-17.18 55.35-15.59a.36.36 0 0 1 .05.71q-28.09 6.15-54.35 18.29"/><path fill="#f4b39f" d="M550.27 470.49q-4.33 5.53-10.52 9.99c-3.72 2.68-7.61 3.96-11.99 2.55-5.62-1.81-10.91-5.49-15.17-9.6q1.55-3.44 4.68-4.88 13.63-6.26 27.61-2.21 3.54 1.03 5.39 4.15m-21.698.965a5.1 3-3.2 0 0-5.26-2.71 5.1 3-3.2 0 0-4.924 3.28 5.1 3-3.2 0 0 5.26 2.71 5.1 3-3.2 0 0 4.924-3.28"/><path fill="#f7c666" d="M734.8 507.05q-15.38 14.21-34.08 19.7-36.83 10.81-72.6-2.71c-16.85-6.36-31.91-16.18-43.61-30.05q25.68 1.7 50.41 7.12a.37.37 0 0 0 .26-.69q-11.41-6.02-23.63-8.94 9.21-8.08 18.26-13.64c20.78-12.76 44.68-11.53 65.3.5 14.19 8.28 26.8 18.72 39.69 28.71"/><ellipse fill="#fdfdfd" rx="5.1" ry="3" transform="rotate(-3.2 8706.017 -9134.567)"/><path fill="#050303" d="M512.59 473.43c4.26 4.11 9.55 7.79 15.17 9.6 4.38 1.41 8.27.13 11.99-2.55q6.19-4.46 10.52-9.99 1.96 1.08 1.46 3.5c-1.51 7.32-8.02 13.27-14.53 16.23a.84.82-14.4 0 0-.49.81c.43 7.35 1.35 12.45 7.36 16.37q13.16 8.58 22.84-2.97.2-.23 2.68-3.01a1.43 1.43 0 0 1 2.48.74c.24 1.55-.08 3.99-.62 5.25-6.31 14.87-23.45 15.67-34.5 5.63q-1.42-1.29-2.75-2.64a.53.52 41 0 0-.79.05q-1.42 1.89-2.65 3.31c-10.16 11.71-28.86 12.44-35.52-3.28q-.76-1.79-.37-3.44a1.42 1.42 0 0 1 2.37-.7q2.42 2.35 3.74 3.46c5.74 4.87 12.75 5.48 19.19 1.35q10.55-6.75 8.02-19.64a.95.93-88.6 0 0-.67-.72c-6.38-1.79-12.76-6.54-15.83-12.56q-.75-1.46-.77-2.89-.03-2.19 1.67-1.91m-30.88 12.61 4.59 3.53a.6.6 0 0 1-.53 1.06l-6.32-1.79q-25.36-8.21-51.74-10.75a.48.48 0 0 1-.04-.95q22.7-4.08 44.4 4.04 5.05 1.89 9.64 4.86"/><path fill="#f7c666" d="M448.68 503.27c-7.86 3.05-15.47 6.87-22.1 12.05a.37.37 0 0 0 .36.64q15.66-6.06 33.41-9.78-11.91 10.34-18.07 14.6-17.41 12.03-37.77 17.76-18.53 5.22-37.75 4.09-30.76-1.8-54.56-20.71 9.86-8.04 19.46-16.13c9.52-8.03 19.46-14.76 31.5-18.58q21.85-6.94 43.44.23 6.96 2.31 19.56 8.1 7.3 3.35 22.52 7.73"/><path fill="#050303" d="M611.55 491.48q12.22 2.92 23.63 8.94a.37.37 0 0 1-.26.69q-24.73-5.42-50.41-7.12-4.17-.43-8.43-.91-.55-.07-.75-.22a.98.94 56 0 1 .29-1.71l6-1.42q14.77-1.29 29.93 1.75m-151.2 14.7q-17.75 3.72-33.41 9.78a.37.37 0 0 1-.36-.64c6.63-5.18 14.24-9 22.1-12.05q10.88-3.69 21.76-5c4.66-.01 9.28-.93 13.51.57a.98.97 43.5 0 1 .05 1.82q-.55.23-2.02.47-11.64 1.91-21.63 5.05"/><path fill="#eecd8a" d="M785.96 506.62c2.16 23.61-4.36 47.73-18.37 66.75q-7.84 10.64-20.44 19.5-27.91 19.61-61.77 21.26c-16.45.81-31.07-.56-47.4-4.56q-19.13-4.69-38.58-13.83-8.66-4.07-17.45-8.39 4.01-.9 8.19 1.41a3.5 3.5 0 0 0 .91.35q8.84 2.09 18.44 4.33c12.03 2.81 26.32 4.46 36.78 5.34q48.51 4.09 89.57-21.49 7-4.36 16.8-12.3 4.36-3.53 7.99-8.18c7.66-9.81 13.7-16.4 17.96-26.45q.49-1.16 1.09-3.99.28-1.37 1.31-3.89 3.08-7.62 4.97-15.86"/><path fill="#050303" d="M541.83 520.62c4.18 0 5.64 3.97 2.58 6.8q-4.56 4.23-11.91 3.89c-1.84-.09-4.07-.49-4.58-2.38-.51-1.85 1.16-3.31 2.95-3.87q5.26-1.68 9.77-4.14a2.54 2.5-58.6 0 1 1.19-.3"/><path fill="#eecd8a" d="M424.32 601.19q-8.96 6.9-15.15 14.22a3.1 3.1 0 0 1-1.66 1.03c-16.64 4.13-33.17 6.74-50.25 6.31-32.9-.82-66.7-16.47-85.04-43.96q-15.77-23.65-15.84-52.63l1.01 3.96a.92.88-79.8 0 0 .34.51q.18.13.21.15a1.23 1.21 7.6 0 1 .42.54q5.57 14.62 12.45 23.74 5.84 7.75 15.54 17.1 7.45 7.17 18.35 13.7 27.89 16.72 60.04 20.12 16.02 1.69 35.42-.8 2.89-.37 10.43-2.15 6.65-1.58 13.73-1.84"/><path fill="#fdf1cd" d="M487.82 558.88q1.35-3.11 4.13-5.68.33-.31.8-.07a1.16 1.04 35.6 0 1 .39 1.76q-2.26 2.14-5.01 4.24a.21.2 83.4 0 1-.31-.25"/><path fill="#fdfdfd" d="M509.25 602.69q-14.38-.34-24.26-9.21-6.35-5.71-9.23-15.24 8.56-9.56 19.08-17.07c3-2.14 5.9-3.4 9.29-4.27a.46.46 0 0 1 .48.72c-2.03 2.63-6.21 7.61-6.01 10.69a.93.93 0 0 0 1.49.67q8.11-6.28 11.79-9.1 1.27-.98 2.71-1.34a1.82 1.81-88.5 0 1 2.17 2.29q-.48 1.6-6.85 12.82-1.26 2.22-1.41 3.52a1.01 1.01 0 0 0 1.6.94q5.15-3.71 10.11-9.31a.68.68 0 0 1 1.15.2q.22.56.15 1.5c-.82 10.57-7.71 18.99-12.26 32.19"/><path fill="#f7c666" d="M475.76 578.24q2.88 9.53 9.23 15.24 9.88 8.87 24.26 9.21-1.21 3.63-6.56 17.04-7.27 18.19-17.17 31.83-3.02 1.38-5.27 3.78-12.21-6.2-19.68-13.79c-10.03-10.19-16.46-24.49-21.88-38.07 12.67-7.55 26.09-15.25 37.07-25.24"/><path fill="#eecd8a" d="M572.91 585.52q3.43 4.1 9.51 8.05 18.29 11.88 33.79 18.5l13.95 19.65q-.3.7.39 2.42-3.13-1.41-8.27-2.49c-5.04-1.05-12-3.39-18.42-6.06q-13.28-5.5-28.46-10.1c-11.62-3.51-22.09-4.43-33.59-3.12q-8.82 1-17.68 2.47-3.25.54-5.01 1.38a3.79 3.78 80.9 0 0-2.12 2.94q-1.86 14.49-6.42 26.4c-10.11 26.4-28.39 49.9-54.84 60.9q-10.18 4.23-22.82 4.8l-.25-1.29 1.75-9.99q11.92-2.29 21.44-7.62c33.02-18.47 54.54-52.63 62.19-89.26q.73-3.47 4.39-10.23 6.97 1.92 13.84 1.8 5.18-.08 11.66-2 5.7-1.68 11.19-4 7.61-3.22 13.78-3.15"/><path fill="#eb9938" d="M764.96 615.87q-1.24.68-5.61 3.5-2.78 1.78-12.43 6.55-7 3.46-13.05 5.24-16.6 4.89-26.25 5.98c-19.54 2.2-39.67.69-59.29-1.43q-4.15-.45-9.14-1.66-4.74-1.15-9.03-2.33l-13.95-19.65q20.95 8.11 46.05 11.43 28.29 3.75 56.44-4.5 22.97-6.73 41.34-21.65a.58.58 0 0 1 .93.32z"/><path fill="#f4bd49" d="M438.69 603.48c5.42 13.58 11.85 27.88 21.88 38.07q7.47 7.59 19.68 13.79-7.68 6.36-12.36 9.8-7.29 5.36-15.72 9.75-18.05 9.38-36.38 14.64-4.56 1.3-5.69 5.84a.83.82-67.9 0 0 .38.9q2.47 1.48 2.99 4.18a2.42 2.37 18.5 0 0 .61 1.19q7.06 7.51 17.45 8.92a.86.86 0 0 0 .7-.21l.44-.38.25 1.29q-.6 1.08-.67 3.24-.39 13.19.34 24.56-15.2-12.7-23.4-18.32-6.55-4.5-14.06-7.79c-21.8-9.55-41.52-.77-47.31 22.69-3.22 13.05-3.66 26.23-3.77 39.48q-11.15-6.25-16.61-11.31-7.78-7.22-15.97-14.78-4.65-4.29-6.9-7.33-7.28-9.78-14.52-20.33a.73.72 24.5 0 0-1.32.49q.18 1.55-.98 1.39-1.24-2.49-1.42-4.59-.31-18.74-.52-37.16-.08-6.38 1.25-15.24 2.6-17.31 6.27-31.48c2.23.62 4.55 1.91 6.43 2.7q13.16 5.57 26.02 7.41 26.53 3.78 52.86-1.73 15.29-3.2 24.19-12.56 1.64-2.85 4.68-5.33 15.53-12.65 31.18-21.79m-135.239 81.526a8.97 4.47-101.7 0 0-2.558 9.69 8.97 4.47-101.7 0 0 6.196 7.878 8.97 4.47-101.7 0 0 2.558-9.69 8.97 4.47-101.7 0 0-6.196-7.878m8.21 28.232a8.67 4.38-112.3 0 0-.763 9.684 8.67 4.38-112.3 0 0 7.342 6.36 8.67 4.38-112.3 0 0 .762-9.684 8.67 4.38-112.3 0 0-7.342-6.36m12.383 26.96a8.25 4.52-125.8 0 0 1.16 9.336 8.25 4.52-125.8 0 0 8.492 4.047 8.25 4.52-125.8 0 0-1.16-9.335 8.25 4.52-125.8 0 0-8.492-4.047"/><path fill="#eb9938" d="M402.83 630.6q-8.9 9.36-24.19 12.56-26.33 5.51-52.86 1.73-12.86-1.84-26.02-7.41c-1.88-.79-4.2-2.08-6.43-2.7l-13.84-8.35 3.24-19.33a.3.3 0 0 1 .5-.18q3.22 2.86 6.67 5.18 31.38 21.17 70.38 21.12 20.54-.02 40.9-5.33a.46.45-89.5 0 1 .55.57q-.14.49 1.1 2.14"/><path fill="#fdf1cd" d="M630.55 634.14q1.71 2.06 2.19 4.64l2.62 8.09q-1.53 4.13-1.81 9.4-1.45 28.1-4.33 53.56a11.56 11.45 62.3 0 1-1.24 4.06q-3.77 7.19-5.06 9.96c-3.24 7.02-5.46 17.53 1.96 22.52a1.17 1.16-76.7 0 1 .52.85c.73 6.5 6.37 9.39 12.53 8.29a1.05 1.02 58.6 0 1 .85.22l2.21 1.81q-1.54 1.15-1.85 3.08-2.52 15.71-10.56 28.22-2.34 1.62-4.61 3.1-1.89 1.24-4.74 1.79c-12.96 2.47-26.79 3.4-38.39 3.96-13.21.65-26.32.46-39.8.39-11.6-.07-27.59 1.5-36.54 1.71q-17.56.42-41.25-.53-5.29-.21-8.66-2.46-8.58-10.98-11.4-18.25c-5-12.88-9.36-25.69-10.6-39.49q-.73-11.37-.34-24.56.07-2.16.67-3.24 12.64-.57 22.82-4.8c26.45-11 44.73-34.5 54.84-60.9q4.56-11.91 6.42-26.4a3.79 3.78 80.9 0 1 2.12-2.94q1.76-.84 5.01-1.38 8.86-1.47 17.68-2.47c11.5-1.31 21.97-.39 33.59 3.12q15.18 4.6 28.46 10.1c6.42 2.67 13.38 5.01 18.42 6.06q5.14 1.08 8.27 2.49"/><path fill="#f4bd49" d="M764.96 615.87c3.61 17.93 3.96 37.35 3.12 55.38q-4.89 16.56-12.21 32.33-7.85-4.61-15.1-9.56-13.98-9.54-20.89-25.36l-.34-2.22a.74.74 0 0 0-1.4-.2l-9.55 20.72c-10.77-8.21-21.51-15-32.88-18.44-14.45-4.37-22.88-6.16-33.87-13.86a2.01 1.97 3.4 0 1-.59-.65c-2.78-4.98-5.75-9.12-8.51-15.23q-.48-2.58-2.19-4.64-.69-1.72-.39-2.42 4.29 1.18 9.03 2.33 4.99 1.21 9.14 1.66c19.62 2.12 39.75 3.63 59.29 1.43q9.65-1.09 26.25-5.98 6.05-1.78 13.05-5.24 9.65-4.77 12.43-6.55 4.37-2.82 5.61-3.5m-19.815 50.507a9.22 4.63-80.1 0 0-6.146 8.287 9.22 4.63-80.1 0 0 2.976 9.879 9.22 4.63-80.1 0 0 6.146-8.287 9.22 4.63-80.1 0 0-2.976-9.879"/><path fill="#eecd8a" d="M293.33 634.78q-3.67 14.17-6.27 31.48-1.33 8.86-1.25 15.24.21 18.42.52 37.16-3.03-8.64-4.36-15.4-7.24-37.08-2.48-76.83z"/><path fill="#f7c666" d="M708.59 686.96q-13.55 25.35-35.9 43.12-4.6-7.84-6.26-9.53-11.6-11.89-28.45-12.53 5.86-22.16 1.89-47.15-1.4-8.77-4.51-14l-2.62-8.09c2.76 6.11 5.73 10.25 8.51 15.23a2.01 1.97 3.4 0 0 .59.65c10.99 7.7 19.42 9.49 33.87 13.86 11.37 3.44 22.11 10.23 32.88 18.44"/><path fill="#eb9938" d="M485.52 651.56q-13.06 18.28-27.88 28.84c-12.31 8.76-25.13 14.36-39.22 18.35a.46.46 0 0 0-.08.86c4.14 2.01 11.68 1.05 16.08.37l-1.75 9.99-.44.38a.86.86 0 0 1-.7.21q-10.39-1.41-17.45-8.92a2.42 2.37 18.5 0 1-.61-1.19q-.52-2.7-2.99-4.18a.83.82-67.9 0 1-.38-.9q1.13-4.54 5.69-5.84 18.33-5.26 36.38-14.64 8.43-4.39 15.72-9.75 4.68-3.44 12.36-9.8 2.25-2.4 5.27-3.78"/><ellipse fill="#050303" rx="9.22" ry="4.63" transform="rotate(-80.1 773.558 -104.556)"/><path fill="#f7c666" d="M755.87 703.58c-5.35 10.17-11.3 21.14-19.46 29.33-5.19 5.21-7.89 9.33-13.57 14.44-3.52 3.16-7.41 7.45-12.01 10.96q-.36.27-1.95 2.1-1.11 1.27-2.38 1.59c-1.33-5.24-3.19-11.03-9.21-12.3-.74-.16-1.83-.03-2.65-.21a1.12 1.12 0 0 1-.78-.66q-2.88-7.25-11.59-6.65 7.2-5.02 10.24-7.91 5.86-5.57 12.55-14.69 4.07-5.55 8.79-18.25.93-2.5.73-7.38 4.83-11.98 5.3-25.29 6.91 15.82 20.89 25.36 7.25 4.95 15.1 9.56m-17.993-8.114a8.64 4.46-70.9 0 0-7.041 6.705 8.64 4.46-70.9 0 0 1.387 9.623 8.64 4.46-70.9 0 0 7.042-6.705 8.64 4.46-70.9 0 0-1.388-9.623m-11.124 26.894a8.29 4.52-57.1 0 0-8.298 4.505 8.29 4.52-57.1 0 0-.708 9.415 8.29 4.52-57.1 0 0 8.298-4.505 8.29 4.52-57.1 0 0 .708-9.415"/><path fill="#eb9938" d="M768.08 671.25q-.15 7.56-1.56 15.01c-2.7 14.24-6.58 28.38-12.36 41.16q-15.81 35-48.15 58.72a.41.41 0 0 1-.64-.43q2.75-11.86 1.13-23.71 1.27-.32 2.38-1.59 1.59-1.83 1.95-2.1c4.6-3.51 8.49-7.8 12.01-10.96 5.68-5.11 8.38-9.23 13.57-14.44 8.16-8.19 14.11-19.16 19.46-29.33q7.32-15.77 12.21-32.33"/><ellipse fill="#050303" rx="8.97" ry="4.47" transform="rotate(258.3 435.052 222.63)"/><path fill="#eb9938" d="m682.27 742.18-4.59 2.67a1.16 1.16 0 0 1-1 .08q-3.43-1.3-6.59-.92a.33.33 0 0 1-.32-.5q.47-.77 1.84-1.66 8.26-5.38 15.55-11.46 12.36-10.33 21.04-23.69 3.13-4.82 6.38-12.75.2 4.88-.73 7.38-4.72 12.7-8.79 18.25-6.69 9.12-12.55 14.69-3.04 2.89-10.24 7.91"/><ellipse fill="#050303" rx="8.64" ry="4.46" transform="rotate(-70.9 861.663 -164.388)"/><path fill="#f7c666" d="M432.59 739.06c1.24 13.8 5.6 26.61 10.6 39.49q2.82 7.27 11.4 18.25l1.03 2.65q-9.47-1.78-19.11-1.08-1.3-8.11-3.41-16.49-3.47-13.83-10.5-25.45c-1.76-2.91-5.25-7.46-8.63-8.64q-3.08-1.07-7.07-.07a1.83 1.83 0 0 1-1.01-.03c-.53-.17-1.78-1.39-2.76-1.86-6.21-3-11.37-.42-14.38 5.52a.85.84 11.8 0 1-.7.45q-6.23.39-8.55 4.47c-5.5 9.67-4.14 22.85-1.85 33.74q-6.15-2.94-11.77-4.88-11.54-3.98-21.83-10.01c.11-13.25.55-26.43 3.77-39.48 5.79-23.46 25.51-32.24 47.31-22.69q7.51 3.29 14.06 7.79 8.2 5.62 23.4 18.32"/><path fill="#fdfdfd" d="M672.69 730.08q-7.43 6.72-14.58 13.03c-3.06 2.69-7.79 6.2-11.81 6.56a.7.7 0 0 1-.66-1.06q3.44-5.62 4.99-9.22.49-1.14.3-1.68a1.49 1.42-31.7 0 0-2.37-.5q-6.77 6.15-8.89 7.96-2.08 1.77-4.14 2.37a1.54 1.54 0 0 1-1.97-1.55q.11-2.44 1.41-5.04c2.27-4.56 5.17-9.78 5.17-11.3a1.2 1.19-21.7 0 0-2.05-.88l-8.55 8.77a.84.84 0 0 1-1.45-.6c.07-3.91 1.26-7.49 2.97-11.29q3.9-8.7 6.92-17.63 16.85.64 28.45 12.53 1.66 1.69 6.26 9.53"/><ellipse fill="#050303" rx="8.67" ry="4.38" transform="rotate(247.7 399.352 255.01)"/><path fill="#eb9938" d="M344.05 775.12q10.29 6.03 21.83 10.01 5.62 1.94 11.77 4.88 2.21 10.7 7.06 21.75a.25.25 0 0 1-.3.34c-30.38-7.96-56.63-24.57-75.74-49.84q-13.35-17.64-20.92-39.01 1.16.16.98-1.39a.73.72 24.5 0 1 1.32-.49q7.24 10.55 14.52 20.33 2.25 3.04 6.9 7.33 8.19 7.56 15.97 14.78 5.46 5.06 16.61 11.31"/><ellipse fill="#050303" rx="8.29" ry="4.52" transform="rotate(-57.1 1031.35 -299.068)"/><ellipse fill="#050303" rx="8.25" ry="4.52" transform="rotate(234.2 355.536 289.3)"/><path fill="#fdf1cd" d="M685.96 810.86q-4.33 1.15-8.38 3.95a3.13 2.81 14.5 0 1-.58.3c-7.46 2.83-15.92 1.58-20.45-5.66q-2.11-3.36-2.68-4.71c.62-11.32 4.19-23.62 7.98-34.35q3.25-9.2 9.29-17.31a.81.81 0 0 1 1.46.48l.22 12.28a1.06 1.06 0 0 0 1.84.69q.99-1.09 1.93-2.93 2.24-4.37 5.03-10.14 1.05-2.15 2.69-2.62a2.39 1.98 72.7 0 1 2.54 1.66q1 3.02.48 6.51-.93 6.23-.71 11a.78.78 0 0 0 1.25.59c4.11-3.08 5.41-10.54 7.57-12.36a1.25 1.25 0 0 1 1.98.52q1.22 3.27 1.01 7.98-1.06 24.25-12.47 44.12"/><path fill="#f7c666" d="M647.51 787.35q-6.24 2.21-8.83 2.56-5.44.74-11.51 2.69l1.41-3.76q8.04-12.51 10.56-28.22.31-1.93 1.85-3.08 10.14.99 19.29-5.42a.28.28 0 0 1 .4.38q-9.8 16.13-13.17 34.85"/><path fill="#fdf1cd" d="M428.53 810.48q-1.99.96-3.2 2.98a3.19 3.14-2.2 0 1-.95 1.01c-3.13 2.1-5.46 4.05-9.63 4.34q-9.8.69-19.01-6.25-5.4-9.13-8.53-21.05-3.5-13.33-2.72-25.74.17-2.58 1.14-4.88a1.15 1.15 0 0 1 2.11-.01c1.63 3.69 4.44 11.08 6.9 12.65a.79.78 15.5 0 0 1.21-.68q-.3-9.15-.38-13.34-.06-3.1 1.37-5.5a1.67 1.66-55.6 0 1 2.45-.47q1.39 1.08 2.26 3c3.18 7.01 5.1 12.37 6.54 13.63a.91.91 0 0 0 1.55-.59l.68-12.46a.84.83-80.2 0 1 1.07-.76q.66.19 1.09.75 4.26 5.52 7.58 14.38 5.91 15.81 8.07 32.38.44 3.38.4 6.61"/><path fill="#eb9938" d="M647.51 787.35q-2.55 10.74-3.06 21.98a.37.36-5.9 0 1-.27.32q-18.06 4.58-36.65 5.43 6.97-3.63 11.58-10.44 4.23-6.25 8.06-12.04 6.07-1.95 11.51-2.69 2.59-.35 8.83-2.56"/><path fill="#eecd8a" d="m628.58 788.84-1.41 3.76q-3.83 5.79-8.06 12.04-4.61 6.81-11.58 10.44c-18.73 1.06-31.04 1.33-55.96 1.38q-15.8.03-32.17.99c-11.12.65-26.55 1.39-41.84 1.88q-2.03-1.63-4.11-3.02c-6.74-4.52-12.67-10.55-17.83-16.86l-1.03-2.65q3.37 2.25 8.66 2.46 23.69.95 41.25.53c8.95-.21 24.94-1.78 36.54-1.71 13.48.07 26.59.26 39.8-.39 11.6-.56 25.43-1.49 38.39-3.96q2.85-.55 4.74-1.79 2.27-1.48 4.61-3.1"/><path fill="#eb9938" d="M455.62 799.45c5.16 6.31 11.09 12.34 17.83 16.86q2.08 1.39 4.11 3.02-19.82.2-39.18-1.11a1.12 1.12 0 0 1-1.04-1.25q1.02-9.09-.83-18.6 9.64-.7 19.11 1.08"/><path fill="#eecd8a" d="M685.96 810.86c-3.87 7.02-9.87 14.3-17.48 15.57-12.41 2.06-15.4-12.45-14.61-21.69q.57 1.35 2.68 4.71c4.53 7.24 12.99 8.49 20.45 5.66a3.13 2.81 14.5 0 0 .58-.3q4.05-2.8 8.38-3.95m-257.43-.38q.41 4.98-.94 9.58c-2.74 9.31-10.82 13.5-19.74 7.6q-7.49-4.96-12.11-15.1 9.21 6.94 19.01 6.25c4.17-.29 6.5-2.24 9.63-4.34a3.19 3.14-2.2 0 0 .95-1.01q1.21-2.02 3.2-2.98"/></svg>