<svg xmlns="http://www.w3.org/2000/svg" viewBox="0 0 1024 1024"><g fill="none" stroke-width="2"><path stroke="#818080" d="M682.99 557.29q.44.12 2.68 4.54 3.95 7.79 5.62 15.66a.39.39 0 0 0 .74.09c2.72-5.79 5.38-11.02 6.94-16.58q7.41-26.59-.97-53.76c-4.56-14.79-12.45-30.87-16.67-42.06q-2.35-6.24-3.14-12.45a.28.28 0 0 1 .47-.24c11.66 10.68 25.89 15.62 41.69 13.83a.75.75 0 0 0 .64-.96c-4.03-13.88-3.57-27.2 1.54-41.15q3.35-9.14 7.46-17.89a.23.23 0 0 1 .43.04l3.08 12.11a.52.52 0 0 0 .91.19q11.77-14.81 21.2-29.26c10.1-15.49 17.96-34.49 11.75-53.01-3.66-10.93-11.65-22.96-19.28-30.98-19.59-20.59-38.04-41.47-55.08-64.41a.29.29 0 0 1 .32-.44l14.86 4.91a.23.23 0 0 0 .28-.31q-8.7-19.8-27.43-29.92a.28.28 0 0 1 .08-.52l6.77-1.25a.27.26-26.5 0 0 .15-.44c-13.75-15.39-36.43-20.07-56.55-18.24q-6.82.61-16.89 2.43a.9.9 0 0 1-.74-.21q-27.48-24.69-60.44-34.42-33.45-9.88-69.85-3.51c-26.21 4.58-54.61 19.76-73.22 37.96a1.09 1.07 29.7 0 1-1.02.27c-23.58-5.78-55.8-4.67-72.71 15.54a.54.54 0 0 0 .34.88l6.29.95a.35.35 0 0 1 .12.65q-18.21 10.21-26.68 29.69a.38.38 0 0 0 .47.52l14.3-4.72a.21.21 0 0 1 .23.33q-18.68 25.28-39.34 47.44c-10.83 11.62-20.51 21.52-28.72 35.3q-12.11 20.35-4.81 42.57 4.02 12.22 11.94 24.05 7.68 11.49 20.14 27.91.26.34.59.35.36.02.5-.38 1.92-5.64 3.27-12.07a.35.35 0 0 1 .66-.09q4.23 8.78 7.21 16.41 8.23 21.07 2.06 42.59a.66.66 0 0 0 .55.84c15.97 2.16 29.7-3.49 41.75-13.68a.3.29 74.1 0 1 .48.27c-1.54 10.27-5.94 19.46-10.83 29.71q-4.63 9.73-8.97 22.96c-7.73 23.53-7.52 50.66 4.92 72.1a.47.47 0 0 0 .86-.13q2.48-10.47 8.01-19.84a.4.4 0 0 1 .75.18q.09 1.73-.09 2.63-1.88 9.67-2.87 17.22-3.93 30.03 2.6 59.01a.32.31 69.7 0 1-.15.34c-35.37 20.03-30.98 63.41-12.13 93.37q13.08 20.8 31.84 37.44a.39.39 0 0 1-.07.63c-9.86 5.54-18.37 15.73-18.94 27.3-.53 10.95 7.26 16.18 16.49 19.3q10.52 3.55 21.38 3.94a.73.72-4.5 0 1 .69.58q.37 1.76.73 3.43c3.63 16.71 19.78 21.74 34.73 24.69 16.69 3.3 34.05 2.02 50.3-1.69 13.74-3.14 25.41-10.6 28.51-24.85q.15-.66.87-4.29a.65.64-81.8 0 1 .7-.53q15.68 1.59 30.62.1a.68.68 0 0 1 .73.54q.26 1.22.68 3.68c4.11 24.24 32.71 27.86 52.99 28.99 14.64.81 29.5-1.12 43.27-6.62q15.97-6.37 18.05-22.74a.74.73 2.7 0 1 .71-.64c10.47-.26 21.69-2.45 30.55-8.01 8.6-5.4 9.58-14.94 5.95-23.84q-4.13-10.12-13.28-16.68l-2.88-2.06a.48.48 0 0 1-.05-.75c19.67-17.78 38.18-40.49 44.56-66.79 6.09-25.12-1.54-53.04-25.69-65a.74.74 0 0 1-.4-.81q7.69-37.5-.5-74.98-.24-1.11-.13-2.88a.42.41-80.9 0 1 .52-.38" vector-effect="non-scaling-stroke"/><path stroke="#7a5926" d="M397.99 215.52q-.2-.86 1.09-2.75" vector-effect="non-scaling-stroke"/><path stroke="#7e6f48" d="m399.08 212.77 5.7-9.06a.26.25-71.5 0 0-.19-.39c-17.37-1.82-35.81-1.88-51.67 5.93a.3.3 0 0 0-.02.52q6.74 4.04 7.96 4.86.2.14.23.42a.32.31-9.9 0 1-.24.33q-16.59 4.5-27.9 17.56a.22.22 0 0 0 .21.35l9.61-2.06" vector-effect="non-scaling-stroke"/><path stroke="#7a5926" d="M342.77 231.23q7.85-.86 15.6.65a.64.64 0 0 1 .01 1.25l-8.81 1.77" vector-effect="non-scaling-stroke"/><path stroke="#7e6f48" d="m349.57 234.9-7 2.18a1.16 1.15-82.9 0 0-.66.52q-13.22 22.18-30.02 42.82c-9.09 11.17-20.13 22.53-30 33.95q-8.31 9.61-12.88 20.14-6.09 14.04-1.4 28.87 4.48 14.19 15 29.31" vector-effect="non-scaling-stroke"/><path stroke="#70471b" d="m282.61 392.69 6.26 10.35a.46.46 0 0 0 .84-.15q1.63-8.72 1.19-17.33-.02-.48.19-.82a.17.17 0 0 1 .28-.01q11.06 15.5 18.64 32.5c5.68 12.74 8.58 25.49 6.51 39.08a.87.87 0 0 0 1.07.98c11.49-2.79 20.42-8.92 28.94-16.94a.54.53 52.1 0 0 .08-.67q-4.14-6.58-5.82-15.01" vector-effect="non-scaling-stroke"/><path stroke="#7a5926" d="M340.79 424.67q-3.33-20.41 10.55-35.87" vector-effect="non-scaling-stroke"/><path stroke="#70471b" d="M351.34 388.8q6.4-6.56 14.45-9.99a1.3 1.29 75.8 0 0 .77-1.3q-1.5-17.37-3.72-35.49c-4.16-34.01 1.7-72.99 25.81-99.23" vector-effect="non-scaling-stroke"/><path stroke="#7a5926" d="M388.65 242.79q.39-.74.99-1.15a.21.21 0 0 1 .31.25l-1.06 2.53" vector-effect="non-scaling-stroke"/><path stroke="#70471b" d="M388.89 244.42q-19 34.88-18.06 73.57.46 18.97 4.03 43.84c.7 4.85.96 8.72 1.15 13.67a.78.78 0 0 0 .78.75l9.87.07" vector-effect="non-scaling-stroke"/><path stroke="#7a5926" d="M386.66 376.32q14.08 2.15 24.91 12.57a.57.57 0 0 0 .8-.01q3.28-3.34 5.91-4.57c7.51-3.53 15.68-.76 20.82 5.41a.34.34 0 0 1-.26.56h-9.66a.71.7-6.5 0 0-.69.86q1.94 8.33 5.14 17.22 4.99 13.89 16.01 22.71c19.23 15.38 41.72 5.32 57.97-8.12a1.32 1.3 70.5 0 0 .47-1.01v-12.73a.56.56 0 0 0-.42-.54q-14.73-3.73-26.01-14.33c-7.43-7-13.96-17.22-13.85-27.61.15-14.58 15.5-21.22 27.7-23.02q16.51-2.45 32.63-.08c9.84 1.44 24.31 6.33 27.54 17.25 2.74 9.28-1.33 19.18-6.99 26.58q-11.29 14.73-29.08 20.6c-.5.16-1.99.21-2.77.36a.49.48-5.9 0 0-.39.47v12.92a1.8 1.8 0 0 0 .67 1.4c12.84 10.37 30.65 19.9 47.57 13.7 14.4-5.28 23.45-18.64 28.14-33.12q2.63-8.12 3.49-12.91a.78.77-85 0 0-.76-.91h-9.09a.38.38 0 0 1-.3-.62c6.07-7.77 16.9-9.33 24.34-2.35q1.55 1.46 2.96 3.02a.56.55 45.3 0 0 .82.01q9.91-10.52 23.21-13.33" vector-effect="non-scaling-stroke"/><path stroke="#70471b" d="m637.49 376.7 9.67-.61a.65.65 0 0 0 .61-.58q2.12-18.51 4.24-37.23c3.36-29.55.06-60.29-13.18-87.4" vector-effect="non-scaling-stroke"/><path stroke="#7a5926" d="m638.83 250.88-4.31-8.67a.16.16 0 0 1 .25-.18l1.5 1.4" vector-effect="non-scaling-stroke"/><path stroke="#70471b" d="M636.27 243.43c11.61 12.79 19.42 29.61 22.77 46.55q5.27 26.54 2.04 53.5-2.02 16.79-3.37 33.65a1.07 1.07 0 0 0 .71 1.09q6.37 2.21 12.21 6.61" vector-effect="non-scaling-stroke"/><path stroke="#7a5926" d="M670.63 384.83q18.32 15.71 15.32 39.57" vector-effect="non-scaling-stroke"/><path stroke="#70471b" d="M685.95 424.4q-1.54 8.64-6.03 15.75a.58.57 40.4 0 0 .06.7q11.88 12.79 28.88 16.67a.6.6 0 0 0 .72-.68q-2.27-13.43 1.57-25.72 3.89-12.44 6.36-17.12 2.65-5.03 5.9-11.36c3.56-6.95 7.17-11.97 11.17-18.23a.36.36 0 0 1 .66.21q-.62 9.82.7 18.13.04.27.21.37.42.26.69-.15 3.52-5.39 6.39-10.59" vector-effect="non-scaling-stroke"/><path stroke="#7e6f48" d="M743.23 392.38q9.27-12.74 14.24-27.15c9.93-28.75-11.87-48.79-29.32-67.5-17.19-18.44-32.34-38.8-45.54-60.21a1.86 1.81 84.2 0 0-.87-.73q-7.4-2.88-15.45-3.48" vector-effect="non-scaling-stroke"/><path stroke="#7a5926" d="M666.29 233.31q-.51-.13-.53-.18a.75.75 0 0 1 .52-1.05q6.92-1.51 14.74-1.11" vector-effect="non-scaling-stroke"/><path stroke="#7e6f48" d="m681.02 230.97 10.85 2.34a.17.17 0 0 0 .16-.28q-11.65-13.27-28.5-17.55a.52.52 0 0 1-.13-.95l7.94-4.58a.31.31 0 0 0-.02-.54c-15.99-7.66-34.39-8.08-51.51-5.88a.37.36-20.3 0 0-.26.56l5.1 7.9" vector-effect="non-scaling-stroke"/><path stroke="#7a5926" d="M624.65 211.99q.97 1.38 1.23 3.04" vector-effect="non-scaling-stroke"/><path stroke="#7e6f48" d="M625.88 215.03q-14.53-11.92-20.15-16.01-16.85-12.24-35.06-20.44-30.47-13.72-65.19-12.47c-31.62 1.14-61 13.58-86.22 32.42q-10.84 8.1-21.27 16.99" vector-effect="non-scaling-stroke"/><path stroke="#f3c46c" d="m625.88 215.03 2.91 3.99a.31.31 0 0 1-.43.44c-7.33-5.02-13.17-9.46-20.33-13.6-10.18-5.9-15.5-9.45-24.54-13.77q-11.77-5.64-24.61-9.96-47.21-15.87-93.21-.21c-12.16 4.14-25.57 9.76-36.29 16.22-11.11 6.7-21.89 13.12-32.59 21.08a.53.53 0 0 1-.76-.72l1.96-2.98M624.65 211.99q12.19-2.59 19.6-2.9 8.47-.36 17.04 1.37a.45.44-58.7 0 1 .19.78l-6.91 5.58a.66.65-61.4 0 0 .34 1.16q9.94 1.09 17.75 7.02 1.14.87 4.3 2.79 2.2 1.33 4.06 3.18M666.29 233.31q2.82 2.56 6.84 2.72a1.99 1.93-27.5 0 1 .94.28q1.41.87 2.17 2.27 1.93 3.58 4.04 6.61 4.18 6.02 8.12 12.79c7.09 12.19 15.45 23.44 23.65 33.67q7.5 9.36 13.46 15.03 9.08 8.65 13.63 14.15c6.87 8.3 12.62 19.82 12.72 31.14.07 6.91.54 13.46-2.08 19.51" vector-effect="non-scaling-stroke"/><path stroke="#e59c3f" d="M749.78 371.48c-.87-8.31-1.97-14.66-6.34-21.3a.82.82 0 0 0-1.48.26c-1.85 7.69-5.2 11.91-10.88 19.24q-6.28 8.1-11.68 14.96-.06.08-1.08 1.76a.38.38 0 0 1-.71-.22q.75-16.52-10.02-28.92a.2.2 0 0 0-.34.17c2.19 11.05 1.29 24.14.05 33.34-2.66 19.73-3.55 35.73-1.3 52.99q.07.57-.21.92a.84.8 38.6 0 1-1.16.1q-7.32-5.89-14.38-13.78-1.12-1.25-2.14-2.93-.04-.07-1.44-1.51-.72-.75-.72-2.16M670.63 384.83q-1.28-13.13-1.05-19.33.25-6.73 1.01-16.88 1.2-16.17.42-31.62c-.45-8.96-2.74-17.96-5-28.42-1.47-6.84-4.25-13.4-7.07-18.78q-.54-1.03-7.28-11.7-5.12-8.1-12.14-14.62-1.26-1.17-3.25-.05" vector-effect="non-scaling-stroke"/><path stroke="#e59c3f" d="M638.83 250.88q-1.23 2.75-.47 4.95 6.03 17.48 6.56 32.6.47 13.51-.1 26.98-.27 6.48-3.04 25.43-2.61 17.78-4.29 35.86M386.66 376.32q-1.43-17.07-3.92-33.9c-1.75-11.86-3.11-22.3-3.68-31.17q-.5-7.92.72-27.43c.56-8.93 3.05-19.33 5.61-26.17q2.79-7.48 3.5-13.23" vector-effect="non-scaling-stroke"/><path stroke="#e59c3f" d="M388.65 242.79q-2.17-.42-4.09 1.28c-8.04 7.1-12.15 14.45-19.01 25.72-6.2 10.18-9.03 24.57-11.33 37.66q-1.18 6.71-1.26 15.06-.17 17.77 1.55 39.47.76 9.65-1.15 23.49a1.92 1.9-24.4 0 1-.31.81l-1.71 2.52M340.79 424.67q-8.79 10.84-19.21 19.59a1.32 1.32 0 0 1-2.14-1.28c.75-3.65 1.36-6.59 1.44-10.92q.29-15.79-.54-23.88-2.29-22.28-2.52-24.93c-.84-9.58-1.34-18.17.81-25.96a.27.27 0 0 0-.47-.24c-6.55 8.09-10.82 18.73-10.03 29.2a.31.31 0 0 1-.55.22q-8.65-10.31-17.28-21.98-4.99-6.75-6.92-14.5a.66.66 0 0 0-1.17-.24q-3.18 4.17-4.22 9.9-.9 4.97-2.58 9.48" vector-effect="non-scaling-stroke"/><path stroke="#f3c46c" d="M275.41 369.13c-2.58-10.94-2.72-23.53 1.85-33.72 5.22-11.61 13.08-19.24 23.21-29.69 9.68-9.99 17.25-20.46 26.63-33.6q4.24-5.93 11.95-19.02l5.42-8.3q3-4.59 5.1-9.9M342.77 231.23q1-.93 2.26-1.1a1.29 1.28-71.7 0 0 .75-.38q.28-.3.4-.72a.99.99 0 0 1 .62-.66c2.32-.82 5.11-3.68 7.2-4.94q6.6-3.96 15.18-5.37a.78.78 0 0 0 .36-1.37l-7.18-5.86a.41.41 0 0 1 .26-.72q3.96.03 6.62-.38 15.31-2.38 29.84 3.04" vector-effect="non-scaling-stroke"/><path stroke="#e9b261" d="M275.41 369.13q2.11 9.35 5.55 17.9a3.63 3.51 17.5 0 0 .38.7q2.26 3.08 1.27 4.96M743.23 392.38q.8-4.55 3.14-8.82a7.72 7.63 66.9 0 0 .7-1.77l2.71-10.31" vector-effect="non-scaling-stroke"/><path stroke="#818080" d="M512.16 362.09q10.52.01 18.35-.96 4.1-.51 7.44-2.02a1.26 1.25 62.2 0 0 .55-1.79q-.62-1.04-2.27-1.75c-7.52-3.23-15.66-4.1-24.06-4.11-8.41-.01-16.55.85-24.07 4.06q-1.66.71-2.28 1.75a1.26 1.25-62.1 0 0 .55 1.79q3.33 1.52 7.43 2.03 7.84.99 18.36 1" vector-effect="non-scaling-stroke"/><path stroke="#716f69" d="M354.97 477.26q-2.63 20.05 13.49 30.31c12.11 7.7 28.05 6.92 39.53-2.11 8.79-6.91 13.35-16.75 15.97-27.27a.79.78 11.1 0 0-.65-.96l-4.65-.7a.4.4 0 0 1-.08-.78c6.26-2.29 11.79-2.99 19.03-3.13q72.24-1.41 155.14.06 7.83.14 16.17 3.08a.31.3 49.1 0 1-.04.59l-5.21.96a.69.69 0 0 0-.55.82c2.22 11.03 7.75 21.78 17.21 28.36 24.37 16.96 58.2-2.36 50.11-32.88" vector-effect="non-scaling-stroke"/><path stroke="#818080" d="M670.44 473.61q-2.95-9.54-9.49-17.32a.37.36 54.4 0 0-.46-.08l-10.76 6.21a.31.31 0 0 1-.43-.41c4.25-7.91 8.47-12.5 16.42-20.53 5.02-5.08 9.35-12.19 10.15-19.69q1.61-15.14-8.25-25.53c-15.13-15.94-38.32-12.37-49.97 5.4q-3.01 4.58-6.11 12.82a.84.84 0 0 0 .66 1.13l9.33 1.4a.42.42 0 0 1 .22.73q-.24.22-.88.41-12.86 3.65-26.46 4.23a1.39 1.37 12.7 0 0-1.17.73c-14.26 26.61-42.35 31.12-67.61 17.09" vector-effect="non-scaling-stroke"/><path stroke="#716f69" d="m525.63 440.2-13.22-8.48a.74.72 44.5 0 0-.81 0l-15.86 10.37" vector-effect="non-scaling-stroke"/><path stroke="#818080" d="M495.74 442.09q-1.13.11-5.03 1.87-9.36 4.23-20.96 3.96c-16.68-.39-30.43-10.03-37.93-24.43a1.26 1.25-11.3 0 0-1.03-.68q-13.31-1-25.79-5.03a.37.37 0 0 1 .05-.72l9.54-1.76a.66.65-14.7 0 0 .5-.85q-2.37-7.09-5.78-12.47c-4.06-6.42-11.8-12.77-19.83-14.82-19.99-5.1-37.98 9.45-39.07 29.56-.42 7.88 2.72 15.06 7.47 21.56q1.27 1.72 7.38 7.36 7.33 6.75 12.05 16.66a.26.26 0 0 1-.38.32l-10.57-6.8a.47.47 0 0 0-.6.09q-8.33 9.27-10.79 21.35" vector-effect="non-scaling-stroke"/><path stroke="#edece6" d="M495.74 442.09q15.28 2.48 29.89-1.89M670.44 473.61q-.73 3.58-1.74 6.82c-.95 3.02-2.61 5.82-5.2 7.99-14.7 12.25-34.59 8.34-45.25-6.93q-4.33-6.2-4.91-7.09c-5.51-8.5-16.31-12.77-26.11-12.9q-62.73-.77-140.23-.24-7.76.05-14.4 1.12-13.22 2.13-20.68 13.64c-3.55 5.47-8.03 11.63-14.41 15.5q-11.99 7.25-25.17 2.29-10.73-4.04-15.32-14.79a1.34 1.33-88.9 0 0-.68-.71q-.78-.35-1.37-1.05" vector-effect="non-scaling-stroke"/><path stroke="#7a5926" d="M601 411.81a1.79 1.79 0 0 0 1.5-1.16q3.26-8.79 7.95-15.76a.67.66 26.1 0 0-.35-1l-7.22-2.38a.4.39 11.6 0 0-.52.34q-.7 10-3.93 18.94a.88.88 0 0 0 .91 1.18l1.66-.16M416.37 394.76q5.01 7.21 8.12 16.83a1.15 1.15 0 0 0 1.05.79l.49.02a.53.52-8.3 0 0 .52-.69q-3.23-9.35-4.01-19.73a.32.32 0 0 0-.42-.28l-5.31 1.75a.86.86 0 0 0-.44 1.31M512.4 496.68q8.11.01 13.57-.98 15.84-2.88 29-12.53a.4.4 0 0 0-.23-.72q-33.63-.21-42.32-.22-8.7-.01-42.32.13a.4.4 0 0 0-.24.73q13.14 9.67 28.97 12.58 5.46 1 13.57 1.01M429.75 492.22q-4.63 10.94-12.68 18.86c-8.25 8.11-18 11.07-29.59 12.09" vector-effect="non-scaling-stroke"/><path stroke="#70471b" d="m387.48 523.17-6.15-.27" vector-effect="non-scaling-stroke"/><path stroke="#7a5926" d="M381.33 522.9q-11.25-1.45-21.06-8.43-7.75-5.52-12.22-14.87" vector-effect="non-scaling-stroke"/><path stroke="#7e6f48" d="m348.05 499.6-2.97-9.84a.29.29 0 0 0-.54-.03q-7.7 16.94-10.99 33.74-2.81 14.31.32 31.38a.25.25 0 0 0 .46.09l6.8-10.27" vector-effect="non-scaling-stroke"/><path stroke="#7a5926" d="M341.13 544.67q5.28-6.05 11.25-10.63a.48.48 0 0 1 .77.46c-6.77 41.9 20.11 84.42 51.01 109.65" vector-effect="non-scaling-stroke"/><path stroke="#70471b" d="M404.16 644.15q1.03 1.3 3.29 2.58a.32.32 0 0 0 .47-.33q-1.53-8.99-.9-17.81a.22.22 0 0 1 .42-.07q11.11 28.29 34.93 47.36c9.93 7.94 22.16 15.04 33.48 21.65 7.37 4.31 16.2 10.42 21.26 14.86q9.01 7.89 14.94 18.2a.34.34 0 0 0 .59 0q7.61-13.37 19.92-22.27 8.68-6.28 11.39-7.88c17.28-10.22 30.28-17.31 42.99-28.3 12.35-10.68 21.83-23.41 28.7-38.01q.76-1.63 1.92-5.19a.41.41 0 0 1 .8.11q.26 8.73-1.19 17.73a.27.26-13.8 0 0 .42.25l4.72-3.45" vector-effect="non-scaling-stroke"/><path stroke="#7a5926" d="M622.31 643.58q16.17-13.88 29.28-32.99c15.4-22.46 24.45-49.07 20.73-76.38a.29.28-75.7 0 1 .45-.27q5.66 4.15 11.16 10.42" vector-effect="non-scaling-stroke"/><path stroke="#7e6f48" d="m683.93 544.36 6.99 11.18a.21.2-55 0 0 .37-.07q4.24-19.86-.82-39.45-3.41-13.15-8.9-25.6a.29.29 0 0 0-.55.08q-1.19 8.43-6.7 16.09" vector-effect="non-scaling-stroke"/><path stroke="#7a5926" d="M674.32 506.59q-11.69 14.8-30.02 16.57" vector-effect="non-scaling-stroke"/><path stroke="#70471b" d="m644.3 523.16-7.12.09" vector-effect="non-scaling-stroke"/><path stroke="#7a5926" d="M637.18 523.25q-29.09-3.74-40.36-31.56" vector-effect="non-scaling-stroke"/><path stroke="#70471b" d="m596.82 491.69-3.09-8.17a1 .99-9.9 0 0-.92-.64l-27.68-.51a1.75 1.74 18.8 0 0-1.41.69c-11 14.54-29.33 22.13-47.46 22.8-21.58.8-41.44-6.25-55.54-22.6a1.71 1.7 69.3 0 0-1.28-.58h-25.29a1.17 1.15 10.1 0 0-1.09.75l-3.31 8.79" vector-effect="non-scaling-stroke"/><path stroke="#e59c3f" d="M596.82 491.69q-5.16 1.85-12.01 3.62-7.29 1.89-14.61 6.1-5.74 3.3-12.13 10.14-13.81 14.77-23.25 29.29-.5.77-.83.9a.6.6 0 0 1-.81-.64q.82-6.45 2.28-11.28.13-.43-.3-.57-.26-.08-.46.17-3.69 4.59-10.23 14.04-4.85 7-10.8 21.22-.42 1-.44 1.03a.67.67 0 0 1-1.2-.1q-8.02-20.56-22.14-36.52a.4.4 0 0 0-.69.34l2.2 11.87a.44.44 0 0 1-.81.32q-6.6-10.28-15.02-20.7c-8.43-10.46-16.62-18.53-28.55-23.35q-1.83-.74-8.69-2.59-4.36-1.17-8.58-2.76M637.18 523.25q.16 14.54-7.6 25.96a.31.31 0 0 1-.57-.17c-.04-6.42-3.17-12.29-6.79-17.45a.39.39 0 0 0-.7.25c1.08 15.31-1.36 31.11-8.45 45.13a.45.45 0 0 0 .71.54q7.43-6.71 11.99-15.25.57-1.05 4.33-3.9 7.33-5.56 11-15.04 3.13-8.08 3.2-20.16M622.31 643.58l-.37.01a.53.53 0 0 1-.52-.8c1.59-2.62 2.38-5.54 3.57-8.28 9.4-21.68 13.24-44.6 5.97-67.7a.59.59 0 0 0-1.15.06c-2.06 10.1-5.51 17.33-11.11 28.1q-9.13 17.57-24.04 32.45-10.82 10.8-18.59 16.49a3.33 3.22-87.6 0 0-.64.61q-1.93 2.38-3.18 1.92" vector-effect="non-scaling-stroke"/><path stroke="#7a5926" d="M572.25 646.44c10.95-15.14 16.2-30.98 14.26-48.98a.39.38-42.5 0 0-.76-.03c-4.76 23.39-15.94 45.09-35.14 59.9a.19.19 0 0 1-.29-.22q3.73-8.69 4.04-18.18a.46.46 0 0 0-.88-.21c-3.38 7.01-5.83 11.93-10.17 17.73-6.71 8.97-13.94 17.12-18.79 28.65" vector-effect="non-scaling-stroke"/><path stroke="#e59c3f" d="M524.52 685.1q-7.16 8.85-11.59 19.81a.53.53 0 0 1-.97.02q-4.59-10.37-11.48-19.1" vector-effect="non-scaling-stroke"/><path stroke="#7a5926" d="M500.48 685.83q-3.01-7.83-7.34-13.97-2.68-3.79-11.73-15.76-5.22-6.9-9.56-17.2-.14-.33-.55-.63a.3.3 0 0 0-.48.25q.27 9.93 4.33 18.78a.25.25 0 0 1-.37.3c-19.34-14.68-30.04-36.18-35.17-59.42q-.07-.34-.4-.49a.21.2 14.4 0 0-.28.16q-1.85 13.31 2.54 26.24 3.75 11.07 11.09 22.21" vector-effect="non-scaling-stroke"/><path stroke="#e59c3f" d="M452.56 646.3q-8.92-5.53-12.95-9.66-11.9-12.18-11.98-12.27-23.76-25.1-32.6-57.83a.41.41 0 0 0-.78-.02c-3.38 10.76-4.72 21.13-3.27 32.72q2 15.88 5.44 24.84 3.68 9.57 7.74 20.07M381.33 522.9q-.3 7.74 1.48 15.3 2.49 10.57 10.16 18.25c1.55 1.54 3.47 2.56 4.84 3.75a5.7 5.7 0 0 1 1.3 1.62q4.84 8.95 12.11 15.22a.38.38 0 0 0 .59-.44q-9.84-21.27-7.88-44.59a.25.25 0 0 0-.44-.19q-6.32 7.42-7.1 17.12a.43.43 0 0 1-.78.21q-7.23-10.65-6.93-23.69.02-.96-.96-1.21-.51-.12-.53-.42-.03-.3.29-.66" vector-effect="non-scaling-stroke"/><path stroke="#70471b" d="M452.56 646.3q4.32 5.29 7.83 8.56c5.38 5.02 12.57 10.21 20.28 14.87 8.58 5.19 13.54 8.67 19.81 16.1M524.52 685.1q6.81-6.66 8.98-8.36 4.55-3.58 16.65-10.59 12.13-7.02 22.1-19.71" vector-effect="non-scaling-stroke"/><path stroke="#f3c46c" d="M683.93 544.36q2.62-20.74-5.17-40.64a.45.45 0 0 0-.8-.08q-1.36 2.1-3.64 2.95M348.05 499.6q-4.29 11.97-5.91 19.62-2.4 11.35-1.01 25.45" vector-effect="non-scaling-stroke"/><path stroke="#7a5926" d="M415.39 776.73c14.23-3.31 27.8-1.58 39.46 7.57a.36.36 0 0 1-.3.63l-5.02-1.18" vector-effect="non-scaling-stroke"/><path stroke="#7e6f48" d="M449.53 783.75q-13.27-2.97-22.76-1.47c-12.28 1.94-24.52 8.83-31.27 19.42-4.81 7.53-6.41 16.33-1.55 24.08" vector-effect="non-scaling-stroke"/><path stroke="#70471b" d="M393.95 825.78c2.85 4.93 10.21 8.33 15.45 9.94a.3.3 0 0 0 .39-.33l-1.35-9.1" vector-effect="non-scaling-stroke"/><path stroke="#7a5926" d="M408.44 826.29q.77-16.88 14.15-26.68 1.2-.88 1.8-1.15a.36.35 4.9 0 1 .44.52q-3.51 5.33-5.77 12-3.06 8.98-2.06 17.4" vector-effect="non-scaling-stroke"/><path stroke="#70471b" d="m417 828.38 2.31 8.63a2.05 2.04-4.2 0 0 1.74 1.5q13.69 1.53 28.47.54a.71.71 0 0 0 .65-.83l-1.6-8.92" vector-effect="non-scaling-stroke"/><path stroke="#7a5926" d="M448.57 829.3q.27-15.69 11.86-25.86a.37.37 0 0 1 .58.44q-5.46 11.45-4.27 24.39" vector-effect="non-scaling-stroke"/><path stroke="#70471b" d="m456.74 828.27 1.99 8.62a.6.59-11 0 0 .69.46c10.39-1.93 22.88-5.95 26.48-16.68q1.27-3.8.53-16.42c-1.01-16.98-1.6-40.49-2.51-63.39q-.48-11.96-.09-26.38a1.05 1.04-70 0 0-.38-.83q-1.87-1.52-3.71-2.63-8.49-5.14-21.83-13.19-3.17-1.91-14.55-9.66-14.37-9.79-25.84-24.31a6.88 6.82-6.8 0 0-2.58-2.01c-5.26-2.34-9.4-4.71-13.97-8.27-20.47-15.97-37.55-36.92-48.33-60.91" vector-effect="non-scaling-stroke"/><path stroke="#7e6f48" d="m352.64 592.67-4.18-10.39a.27.26-53.7 0 0-.51.08q-2.97 37.89 9.74 73.49 6.87 19.21 15 35.74c6.79 13.79 19.65 38.79 27.87 57.56q5.48 12.51 9.58 28.78a.5.5 0 0 0 .65.35l4.6-1.55" vector-effect="non-scaling-stroke"/><path stroke="#e9b261" d="M352.64 592.67q-.55 5.95.9 10.77" vector-effect="non-scaling-stroke"/><path stroke="#f3c46c" d="M353.54 603.44q1.3 13.12 3.64 25.17c.55 2.87.75 4.47 1.55 6.57q3.24 8.47 4.67 13.53c2.6 9.15 5.33 14.91 8.77 24.55 2.89 8.11 8.16 16.84 10.76 23.41 1.85 4.67 3.19 8.51 5.25 12.6q.48.96 6.95 13.8c5.52 10.98 10.02 23.09 14.87 34.68q2.72 6.52 5.39 18.98" vector-effect="non-scaling-stroke"/><path stroke="#e59c3f" d="M456.74 828.27q4.84-1.34 9.39-2.96 4.2-1.49 6.42-3.98c5.38-6.06 6.53-12.77 6.33-21.95q-.71-30.9-.83-33.14-.63-11.81-5.96-23.34-4.09-8.84-11.7-14.54c-6.81-5.1-18.05-11.34-25.08-16.74q-18.4-14.15-30.1-26.59-2.54-2.7-11.16-12.17-5.91-6.48-10.29-12.87-9.98-14.58-17.83-29.64-4.13-7.92-4.73-9.83-3.38-10.74-7.66-17.08M448.57 829.3q-15.53 3.96-31.57-.92M408.44 826.29q-6.74-.81-12.16-4.15" vector-effect="non-scaling-stroke"/><path stroke="#f3c46c" d="M396.28 822.14c1.27-6.7 2.2-11.36 5.51-16.12q4.69-6.74 11.57-12.9 6.18-5.53 12.34-7.98 5.55-2.21 13.42-.79 4.2.75 10.41-.6" vector-effect="non-scaling-stroke"/><path stroke="#e9b261" d="M396.28 822.14q-.76 1.08-1.17 3.36-.11.59-1.16.28" vector-effect="non-scaling-stroke"/><path stroke="#70471b" d="M673.08 591.48q-2.07 4.18-4.14 8.26-12.66 24.86-32.4 43.35c-7.31 6.84-12.67 11.77-20.38 16.1-2.15 1.21-4.53 1.88-6.56 3.02a4.78 4.68 4.1 0 0-1.37 1.16q-9.7 12.23-20.06 20.08c-14.56 11.02-30.11 19.75-45.29 28.89a2.81 2.81 0 0 0-1.36 2.44q.13 12.95-.34 26.22-.92 25.93-1.62 48.24c-.27 8.75-1.33 17.83-1.08 25.99q.36 11.88 10.79 17.27 7.52 3.89 16.14 5.39a.51.5-77.1 0 0 .58-.37l2.07-8.41" vector-effect="non-scaling-stroke"/><path stroke="#7a5926" d="M568.06 829.11q1.39-12.92-3.74-24.4a.38.38 0 0 1 .6-.44q11.21 9.9 11.49 25.53" vector-effect="non-scaling-stroke"/><path stroke="#70471b" d="m576.41 829.8-1.79 8.88a.51.51 0 0 0 .42.61c9.1 1.53 19.93.65 28.55-.49a2.73 2.73 0 0 0 2.11-1.55q1.99-4.22 2.33-8.12" vector-effect="non-scaling-stroke"/><path stroke="#7a5926" d="M608.03 829.13c1.24-11-2.07-20.99-8.09-30.08a.29.29 0 0 1 .4-.41q15.57 9.83 16.33 28.59" vector-effect="non-scaling-stroke"/><path stroke="#70471b" d="m616.67 827.23-1.18 8.3a.39.39 0 0 0 .49.43q8.16-2.41 13.64-7.53" vector-effect="non-scaling-stroke"/><path stroke="#7e6f48" d="M629.62 828.43q5.95-6.84 4.49-15.28c-3.12-17.91-23.82-30.53-40.87-30.68" vector-effect="non-scaling-stroke"/><path stroke="#7a5926" d="M593.24 782.47q-11.66-.38-22.77 3.03a.31.31 0 0 1-.29-.54c10.97-9.01 24.79-11.12 39.05-7.56" vector-effect="non-scaling-stroke"/><path stroke="#7e6f48" d="m609.23 777.4 5.23 1.82a.47.47 0 0 0 .61-.33q5.3-20.1 13.14-37.19 4.16-9.05 24.25-49.5 3.82-7.69 11.46-26.27 16.44-39.97 13.2-83.45a.29.29 0 0 0-.56-.08l-3.48 9.08" vector-effect="non-scaling-stroke"/><path stroke="#f3c46c" d="M609.23 777.4q2.22-7.88 4.68-15.64 2.62-8.28 5.47-14.15 2.81-5.78 6.06-13.94 2.3-5.77 8.52-17.88 5.3-10.29 8.36-17.93c2.58-6.43 7.38-16.26 10.54-24.73 2.75-7.39 6.12-13.15 7.85-20.23q1.8-7.38 4.14-13.62 2.12-5.65 3.6-13.72 2.33-12.62 3.74-23.08.18-1.35.2-5.28" vector-effect="non-scaling-stroke"/><path stroke="#e9b261" d="m672.39 597.2.69-5.72" vector-effect="non-scaling-stroke"/><path stroke="#e59c3f" d="M672.39 597.2q-1.63 8.42-3.47 11.79-3.02 5.51-5.24 12.72c-1.42 4.61-5.08 10.03-7.83 15.21-2.16 4.07-3.57 7.49-6.34 11.58q-10.48 15.44-15.57 21.44c-13.77 16.2-29.69 31.45-47.51 44.19-5.31 3.81-13.06 8.49-17.09 10.92-16.34 9.88-21.75 26.8-22.39 44.95q-.79 22.31-.62 36c.06 5.12 2.72 13.23 7.28 16.87q3.3 2.62 6.46 3.56 5.22 1.55 7.99 2.68" vector-effect="non-scaling-stroke"/><path stroke="#f3c46c" d="M593.24 782.47q-.46.42-.59.82a.65.64 16 0 0 .46.82q12.95 3.34 21.95 12.95 5.65 6.04 8.47 10.05c2.82 4.02 3.83 7.62 4.41 12.44.3 2.5 2.6 3.46 1.65 6.98" vector-effect="non-scaling-stroke"/><path stroke="#e59c3f" d="m629.59 826.53-.18-2.2a1.11 1.11 0 0 0-1.46-.96l-11.28 3.86M608.03 829.13q-5.84.76-11.41 1.6-10.5 1.59-20.21-.93" vector-effect="non-scaling-stroke"/><path stroke="#e9b261" d="M629.62 828.43q-.44-.86-.03-1.9" vector-effect="non-scaling-stroke"/><path stroke="#7a5926" d="m672.45 670.73-6.77 15.3" vector-effect="non-scaling-stroke"/><path stroke="#70471b" d="M665.68 686.03q-5.87 12.67-12.05 25.18-13.21 26.74-13.6 27.58-8.38 18.09-11.41 27.3-2.36 7.17-4.7 16.37a1.16 1.14-64.2 0 0 .41 1.2c8.95 6.82 15.95 14.6 18.61 25.66a.94.94 0 0 0 1.01.72l8.01-.8a1.56 1.55-87.8 0 0 1.37-1.27c1.61-8.87-1.21-16.63-5.91-24.12a.34.34 0 0 1 .44-.49q13.26 6.89 14.09 22.92a.63.63 0 0 0 .78.58q4.76-1.17 8.05-3.79" vector-effect="non-scaling-stroke"/><path stroke="#7e6f48" d="M670.78 803.07c5.92-4.55 2.04-13.9-1.59-18.52q-9.77-12.41-26.32-13.59" vector-effect="non-scaling-stroke"/><path stroke="#70471b" d="M642.87 770.96q-5.65-.97-12.33.83a.31.31 0 0 1-.26-.56q8.67-5.92 18.68-5.91" vector-effect="non-scaling-stroke"/><path stroke="#7a5926" d="m648.96 765.32 5.57.65" vector-effect="non-scaling-stroke"/><path stroke="#7e6f48" d="M654.53 765.97q1.41.56 3.25-1.45c15.67-17.14 30.21-33.59 38.59-53.85 8.54-20.64 8.04-44.5-8.93-60.72q-2.45-2.34-6.32-3.87a.47.47 0 0 0-.62.29l-8.05 24.36" vector-effect="non-scaling-stroke"/><path stroke="#f3c46c" d="M654.53 765.97q8.83-10.86 17.46-21.43c2.43-2.99 4.04-6.16 6.23-8.88a4.12 4.02-13.3 0 0 .52-.82q4.63-9.7 8.6-19.45 4.86-11.95 5.6-19.81.99-10.58-1.2-20.58-2.47-11.3-11.5-19.03a.95.95 0 0 0-1.57.61q-.93 7.88-4.68 14.62a.92.92 0 0 1-1.48.17q-.07-.08-.06-.64" vector-effect="non-scaling-stroke"/><path stroke="#e59c3f" d="M648.96 765.32q.75-1.06 2-1.81a3.16 3.15 3.1 0 0 .96-.86c1.43-1.89 2.97-3.93 4.19-6.32q1.23-2.41 3.75-6.9c9.79-17.47 14.14-38.04 7.4-57.84a.62.22-82.8 0 1-.03-.14l-.75-3.89a.06.06 0 0 0-.06-.05l-.26.05a.44.43-4.3 0 1-.52-.44l.04-1.09" vector-effect="non-scaling-stroke"/><path stroke="#e9b261" d="M642.87 770.96q3.11 2.11 6.31 3.57 4.36 1.99 5.51 2.78c6.62 4.6 11.57 11.89 14.79 19.48a4.84 4.58 29.4 0 1 .26.84l1.04 5.44" vector-effect="non-scaling-stroke"/><path stroke="#70471b" d="M375.99 765.01q10.68-.77 19.3 5.75a.27.27 0 0 1-.21.48q-6.63-1.12-13.15-.57" vector-effect="non-scaling-stroke"/><path stroke="#7e6f48" d="M381.93 770.67c-13.05.87-28.21 10.19-30.09 24.57q-.61 4.58 3.22 7.37" vector-effect="non-scaling-stroke"/><path stroke="#70471b" d="M355.06 802.61q3.05 2.43 7.93 3.65a.45.45 0 0 0 .56-.41c.59-9.44 5.49-18.98 14.65-22.48a.23.23 0 0 1 .28.33c-3.91 6.53-6.63 12.01-6.75 19.54q-.07 4.26 1.52 5.32a.99.91 64 0 0 .41.16l7.67 1.15a.75.74-79.3 0 0 .84-.58c2.51-11.09 9.67-20.05 18.77-26.41a.98.97-23.7 0 0 .39-.99q-1.93-9.15-5.04-17.44-7.58-20.21-17.45-38.8-5.57-10.5-19.38-40.02" vector-effect="non-scaling-stroke"/><path stroke="#7a5926" d="M359.46 685.63q-6.56-14.73-11.54-30.01" vector-effect="non-scaling-stroke"/><path stroke="#7e6f48" d="m347.92 655.62-2.77-8.65a.46.46 0 0 0-.64-.27q-2.04 1.03-2.62 1.45c-18.48 13.41-20.11 39.15-12.78 58.73q5.45 14.56 13.89 26.37 12.28 17.2 26.27 31.9a2.02 2.02 0 0 0 1.75.6l4.97-.74" vector-effect="non-scaling-stroke"/><path stroke="#f3c46c" d="M347.92 655.62q-4.26 3.73-7.75 8.2-2.73 3.5-4.07 7.28c-3.2 8.98-2.94 19.73-1.58 28.93q1.17 8 6.1 18.74 5.1 11.11 8.97 17.77 4.05 6.98 6.73 10.04 4.33 4.96 9.04 11.29 2.08 2.8 5.01 5.11a1.35 1.33 61.8 0 0 .9.28l3.46-.22" vector-effect="non-scaling-stroke"/><path stroke="#e9b261" d="M374.73 763.04q1.01.89 1.26 1.97M355.06 802.61q1.09-6.43 2.48-9.32 1.77-3.64 6.87-10.16c4.43-5.67 9.86-8.97 16.7-11.01q3.1-.93.82-1.45" vector-effect="non-scaling-stroke"/><path stroke="#e59c3f" d="M359.46 685.63q-1.89 1.69-2.38 6.89-.71 7.68-1.07 16.14c-.19 4.56.51 10.31 1.07 14.31 2.08 14.63 9.16 26.57 17.65 40.07" vector-effect="non-scaling-stroke"/><path stroke="#70471b" d="M512.54 807.63q9.16 0 15.68-1.01a1 .99 86.6 0 0 .84-.95l3.11-83.78a.34.34 0 0 0-.57-.26q-12.03 10.9-18.65 25.63-.07.15-.41.15-.35 0-.42-.15-6.62-14.73-18.65-25.63a.34.34 0 0 0-.57.26l3.12 83.78a1 .99-86.6 0 0 .84.95q6.53 1.01 15.68 1.01" vector-effect="non-scaling-stroke"/><path stroke="#7a5926" d="M402.05 325.36q3.41 7.46 10.38 11.44" vector-effect="non-scaling-stroke"/><path stroke="#f6d6a4" d="M412.43 336.8q.91 1.35 3.05 1.79 6.61 1.38 13.56 1.1" vector-effect="non-scaling-stroke"/><path stroke="#b27731" d="M429.04 339.69q7.37 1.13 14.87.09" vector-effect="non-scaling-stroke"/><path stroke="#7a5926" d="m443.91 339.78 13.95-.35a1.33 1.31-71 0 0 1.01-.5q1.05-1.32 1.47-3.12" vector-effect="non-scaling-stroke"/><path stroke="#e59c3f" d="M460.34 335.81q5.79-2.5 8.02-9.62 5.52-17.54 5.54-30.15.03-16.54-8.8-28.85c-11.89-16.57-33.51-21-51.04-10.19-20.45 12.6-27.78 34.84-19.69 57.44q2.56 7.15 7.68 10.92" vector-effect="non-scaling-stroke"/><path stroke="#70471b" d="M460.34 335.81c5.7-15.91 7.61-32.68-.29-47.13-7.88-14.41-24.15-19.12-39.1-12.37q-14.37 6.49-19.67 22.75-4.08 12.54.77 26.3" vector-effect="non-scaling-stroke"/><path stroke="#3d220d" d="M443.91 339.78q-6.29-.81-8.42-2.03-9.55-5.5-11.45-15.98-1.2-6.64-.3-11.08 3.3-16.2 19.79-18.71 4.46-.67 6.25-.16 4.01 1.15 7.08 2.01a.3.3 0 0 0 .31-.47l-3.63-4.5" vector-effect="non-scaling-stroke"/><path stroke="#818080" d="M453.54 288.86q-13.22-12.5-29.28-4.09-14.86 7.78-17.79 25.43-2.3 13.83 5.96 26.6" vector-effect="non-scaling-stroke"/><path stroke="#b99f8b" d="M453.54 288.86q-1.63-.36-3.2-.87-2.05-.65-3.23-.77c-16.62-1.73-29.15 9.04-31.26 25.29q-1.61 12.47 6.25 21.62 2.62 3.04 6.94 5.56" vector-effect="non-scaling-stroke"/><path stroke="#7a5926" d="M559.56 335.49q-7.26-5.14-14.79-7.02a.4.39-20.9 0 0-.32.71c12.04 8.16 20.51 18.57 28.8 30.7a.36.36 0 0 0 .64-.3c-2.38-8.09-5.39-15.85-11.61-21.84" vector-effect="non-scaling-stroke"/><path stroke="#e59c3f" d="M562.28 337.74q.38-1.43 1.88-1.97" vector-effect="non-scaling-stroke"/><path stroke="#7a5926" d="M564.16 335.77q.34 1.96 1.5 3.31a1.17 1.13 70 0 0 .82.4l11.07.35" vector-effect="non-scaling-stroke"/><path stroke="#b27731" d="m577.55 339.83 10.15.47a1.73 1.29 34.9 0 0 .31-.01q3.63-.47 6.7-.25" vector-effect="non-scaling-stroke"/><path stroke="#f6d6a4" d="M594.71 340.04q8.91.13 16.4-2.31" vector-effect="non-scaling-stroke"/><path stroke="#7a5926" d="M611.11 337.73q6.01-4.23 10.22-10.37" vector-effect="non-scaling-stroke"/><path stroke="#e59c3f" d="M621.33 327.36q11.25-12.59 11.46-29.11c.21-16.26-7.19-30.54-20.68-39.86-8.14-5.63-17.5-8.12-27.12-6.93-21.4 2.62-34.01 21.76-34.43 42.36q-.27 13.15 3.9 26.52 2.3 7.35 5.1 15.15" vector-effect="non-scaling-stroke"/><path stroke="#70471b" d="M621.33 327.36q4.29-11.1 3.14-20.84c-1.62-13.74-10.43-26.33-23.71-31.03-15.94-5.65-31.95.75-38.19 16.58-5.48 13.92-3.86 29.63 1.59 43.7M562.28 337.74l-2.72-2.25" vector-effect="non-scaling-stroke"/><path stroke="#818080" d="M611.11 337.73q8.91-13.63 6.58-27.92-2.56-15.66-16.61-24.11c-10.21-6.15-22.4-5.52-30.56 3.59" vector-effect="non-scaling-stroke"/><path stroke="#3d220d" d="M570.52 289.29q-2.16 1.86-3.5 4.27a.24.24 0 0 0 .31.34q6.37-2.87 14.45-1.57c15.95 2.56 21.45 18.71 17.53 32.78-2.6 9.35-12.63 15.34-21.76 14.72" vector-effect="non-scaling-stroke"/><path stroke="#b99f8b" d="M594.71 340.04q12.44-7.24 13.7-20.29c1.4-14.45-6.77-27.97-20.89-31.52q-8.33-2.1-17 1.06" vector-effect="non-scaling-stroke"/><path stroke="#7a5926" d="M460.43 339.26c-5.07 5.35-8.42 12.85-9.97 19.96a.41.4 67 0 0 .74.29c3.69-5.99 7.77-11.33 12.91-16.76 5.15-5.43 10.26-9.79 16.04-13.8a.41.4 19.9 0 0-.34-.73c-7.01 1.94-14.31 5.69-19.38 11.04" vector-effect="non-scaling-stroke"/><path stroke="#818080" d="M445.934 295.565a8 7.78-97.3 0 0-6.7 8.924 8 7.78-97.3 0 0 8.733 6.946 8 7.78-97.3 0 0 6.7-8.924 8 7.78-97.3 0 0-8.733-6.946M434.93 322.54a3.8 3.8 0 0 0-3.8-3.8 3.8 3.8 0 0 0-3.8 3.8 3.8 3.8 0 0 0 3.8 3.8 3.8 3.8 0 0 0 3.8-3.8M585.2 303.71a7.81 7.81 0 0 0-7.81-7.81 7.81 7.81 0 0 0-7.81 7.81 7.81 7.81 0 0 0 7.81 7.81 7.81 7.81 0 0 0 7.81-7.81M597.12 322.7a3.71 3.71 0 0 0-3.71-3.71 3.71 3.71 0 0 0-3.71 3.71 3.71 3.71 0 0 0 3.71 3.71 3.71 3.71 0 0 0 3.71-3.71" vector-effect="non-scaling-stroke"/><path stroke="#f3c46c" d="M571.01 565.41q.34 13.37-5.16 25.78-2.37 5.34-3.03 6.41c-2.66 4.37-6.24 7.53-10.81 11.88a.33.33 0 0 1-.55-.32q3.88-15.76.39-32.27a.35.35 0 0 0-.33-.27h-.28a.5.5 0 0 0-.51.54q.67 9.12-1.77 19.81-3.21 14.14-9.63 25.71a.49.49 0 0 0 .61.69q7.21-2.91 13.89-7.29c8.6-5.65 13.69-14.82 18.47-24.35a1.95 1.9 82.1 0 1 .39-.53l4.92-4.64.04-.04q17.35-22.59 9.19-50.86a.31.3 38.8 0 0-.6.06q-.07 1.53-.04 6.76.09 18.21-8.35 33.62-1.02 1.86-2.22 3.12a.37.37 0 0 1-.64-.21q-.91-6.92-3.65-13.66a.17.17 0 0 0-.33.06M454.26 565.67a.17.17 0 0 0-.33-.06q-2.69 6.79-3.55 13.74a.37.37 0 0 1-.64.21q-1.21-1.25-2.25-3.11-8.59-15.39-8.66-33.65-.01-5.25-.09-6.78a.31.3-39.2 0 0-.6-.06q-7.95 28.43 9.64 50.94l.04.04 4.97 4.62a1.96 1.91-82.6 0 1 .4.52c4.87 9.52 10.05 18.68 18.73 24.27q6.74 4.34 13.99 7.2a.49.49 0 0 0 .61-.7q-6.54-11.55-9.88-25.71-2.53-10.7-1.94-19.85a.51.5-88.9 0 0-.51-.54h-.28a.35.35 0 0 0-.33.28q-3.37 16.59.66 32.36a.33.33 0 0 1-.55.33c-4.62-4.33-8.24-7.47-10.94-11.83q-.67-1.07-3.1-6.4-5.62-12.4-5.39-25.82" vector-effect="non-scaling-stroke"/></g><path fill="#fdfdfd" d="M682.99 557.29q.44.12 2.68 4.54 3.95 7.79 5.62 15.66a.39.39 0 0 0 .74.09c2.72-5.79 5.38-11.02 6.94-16.58q7.41-26.59-.97-53.76c-4.56-14.79-12.45-30.87-16.67-42.06q-2.35-6.24-3.14-12.45a.28.28 0 0 1 .47-.24c11.66 10.68 25.89 15.62 41.69 13.83a.75.75 0 0 0 .64-.96c-4.03-13.88-3.57-27.2 1.54-41.15q3.35-9.14 7.46-17.89a.23.23 0 0 1 .43.04l3.08 12.11a.52.52 0 0 0 .91.19q11.77-14.81 21.2-29.26c10.1-15.49 17.96-34.49 11.75-53.01-3.66-10.93-11.65-22.96-19.28-30.98-19.59-20.59-38.04-41.47-55.08-64.41a.29.29 0 0 1 .32-.44l14.86 4.91a.23.23 0 0 0 .28-.31q-8.7-19.8-27.43-29.92a.28.28 0 0 1 .08-.52l6.77-1.25a.27.26-26.5 0 0 .15-.44c-13.75-15.39-36.43-20.07-56.55-18.24q-6.82.61-16.89 2.43a.9.9 0 0 1-.74-.21q-27.48-24.69-60.44-34.42-33.45-9.88-69.85-3.51c-26.21 4.58-54.61 19.76-73.22 37.96a1.09 1.07 29.7 0 1-1.02.27c-23.58-5.78-55.8-4.67-72.71 15.54a.54.54 0 0 0 .34.88l6.29.95a.35.35 0 0 1 .12.65q-18.21 10.21-26.68 29.69a.38.38 0 0 0 .47.52l14.3-4.72a.21.21 0 0 1 .23.33q-18.68 25.28-39.34 47.44c-10.83 11.62-20.51 21.52-28.72 35.3q-12.11 20.35-4.81 42.57 4.02 12.22 11.94 24.05 7.68 11.49 20.14 27.91.26.34.59.35.36.02.5-.38 1.92-5.64 3.27-12.07a.35.35 0 0 1 .66-.09q4.23 8.78 7.21 16.41 8.23 21.07 2.06 42.59a.66.66 0 0 0 .55.84c15.97 2.16 29.7-3.49 41.75-13.68a.3.29 74.1 0 1 .48.27c-1.54 10.27-5.94 19.46-10.83 29.71q-4.63 9.73-8.97 22.96c-7.73 23.53-7.52 50.66 4.92 72.1a.47.47 0 0 0 .86-.13q2.48-10.47 8.01-19.84a.4.4 0 0 1 .75.18q.09 1.73-.09 2.63-1.88 9.67-2.87 17.22-3.93 30.03 2.6 59.01a.32.31 69.7 0 1-.15.34c-35.37 20.03-30.98 63.41-12.13 93.37q13.08 20.8 31.84 37.44a.39.39 0 0 1-.07.63c-9.86 5.54-18.37 15.73-18.94 27.3-.53 10.95 7.26 16.18 16.49 19.3q10.52 3.55 21.38 3.94a.73.72-4.5 0 1 .69.58q.37 1.76.73 3.43c3.63 16.71 19.78 21.74 34.73 24.69 16.69 3.3 34.05 2.02 50.3-1.69 13.74-3.14 25.41-10.6 28.51-24.85q.15-.66.87-4.29a.65.64-81.8 0 1 .7-.53q15.68 1.59 30.62.1a.68.68 0 0 1 .73.54q.26 1.22.68 3.68c4.11 24.24 32.71 27.86 52.99 28.99 14.64.81 29.5-1.12 43.27-6.62q15.97-6.37 18.05-22.74a.74.73 2.7 0 1 .71-.64c10.47-.26 21.69-2.45 30.55-8.01 8.6-5.4 9.58-14.94 5.95-23.84q-4.13-10.12-13.28-16.68l-2.88-2.06a.48.48 0 0 1-.05-.75c19.67-17.78 38.18-40.49 44.56-66.79 6.09-25.12-1.54-53.04-25.69-65a.74.74 0 0 1-.4-.81q7.69-37.5-.5-74.98-.24-1.11-.13-2.88a.42.41-80.9 0 1 .52-.38"/><path fill="#050302" d="M682.47 557.67q-.11 1.77.13 2.88 8.19 37.48.5 74.98a.74.74 0 0 0 .4.81c24.15 11.96 31.78 39.88 25.69 65-6.38 26.3-24.89 49.01-44.56 66.79a.48.48 0 0 0 .05.75l2.88 2.06q9.15 6.56 13.28 16.68c3.63 8.9 2.65 18.44-5.95 23.84-8.86 5.56-20.08 7.75-30.55 8.01a.74.73 2.7 0 0-.71.64q-2.08 16.37-18.05 22.74c-13.77 5.5-28.63 7.43-43.27 6.62-20.28-1.13-48.88-4.75-52.99-28.99q-.42-2.46-.68-3.68a.68.68 0 0 0-.73-.54q-14.94 1.49-30.62-.1a.65.64-81.8 0 0-.7.53q-.72 3.63-.87 4.29c-3.1 14.25-14.77 21.71-28.51 24.85-16.25 3.71-33.61 4.99-50.3 1.69-14.95-2.95-31.1-7.98-34.73-24.69q-.36-1.67-.73-3.43a.73.72-4.5 0 0-.69-.58q-10.86-.39-21.38-3.94c-9.23-3.12-17.02-8.35-16.49-19.3.57-11.57 9.08-21.76 18.94-27.3a.39.39 0 0 0 .07-.63q-18.76-16.64-31.84-37.44c-18.85-29.96-23.24-73.34 12.13-93.37a.32.31 69.7 0 0 .15-.34q-6.53-28.98-2.6-59.01.99-7.55 2.87-17.22.18-.9.09-2.63a.4.4 0 0 0-.75-.18q-5.53 9.37-8.01 19.84a.47.47 0 0 1-.86.13c-12.44-21.44-12.65-48.57-4.92-72.1q4.34-13.23 8.97-22.96c4.89-10.25 9.29-19.44 10.83-29.71a.3.29 74.1 0 0-.48-.27c-12.05 10.19-25.78 15.84-41.75 13.68a.66.66 0 0 1-.55-.84q6.17-21.52-2.06-42.59-2.98-7.63-7.21-16.41a.35.35 0 0 0-.66.09q-1.35 6.43-3.27 12.07-.14.4-.5.38-.33-.01-.59-.35-12.46-16.42-20.14-27.91-7.92-11.83-11.94-24.05-7.3-22.22 4.81-42.57c8.21-13.78 17.89-23.68 28.72-35.3q20.66-22.16 39.34-47.44a.21.21 0 0 0-.23-.33l-14.3 4.72a.38.38 0 0 1-.47-.52q8.47-19.48 26.68-29.69a.35.35 0 0 0-.12-.65l-6.29-.95a.54.54 0 0 1-.34-.88c16.91-20.21 49.13-21.32 72.71-15.54a1.09 1.07 29.7 0 0 1.02-.27c18.61-18.2 47.01-33.38 73.22-37.96q36.4-6.37 69.85 3.51 32.96 9.73 60.44 34.42a.9.9 0 0 0 .74.21q10.07-1.82 16.89-2.43c20.12-1.83 42.8 2.85 56.55 18.24a.27.26-26.5 0 1-.15.44l-6.77 1.25a.28.28 0 0 0-.08.52q18.73 10.12 27.43 29.92a.23.23 0 0 1-.28.31l-14.86-4.91a.29.29 0 0 0-.32.44c17.04 22.94 35.49 43.82 55.08 64.41 7.63 8.02 15.62 20.05 19.28 30.98 6.21 18.52-1.65 37.52-11.75 53.01q-9.43 14.45-21.2 29.26a.52.52 0 0 1-.91-.19l-3.08-12.11a.23.23 0 0 0-.43-.04q-4.11 8.75-7.46 17.89c-5.11 13.95-5.57 27.27-1.54 41.15a.75.75 0 0 1-.64.96c-15.8 1.79-30.03-3.15-41.69-13.83a.28.28 0 0 0-.47.24q.79 6.21 3.14 12.45c4.22 11.19 12.11 27.27 16.67 42.06q8.38 27.17.97 53.76c-1.56 5.56-4.22 10.79-6.94 16.58a.39.39 0 0 1-.74-.09q-1.67-7.87-5.62-15.66-2.24-4.42-2.68-4.54a.42.41-80.9 0 0-.52.38M397.99 215.52q-.2-.86 1.09-2.75l5.7-9.06a.26.25-71.5 0 0-.19-.39c-17.37-1.82-35.81-1.88-51.67 5.93a.3.3 0 0 0-.02.52q6.74 4.04 7.96 4.86.2.14.23.42a.32.31-9.9 0 1-.24.33q-16.59 4.5-27.9 17.56a.22.22 0 0 0 .21.35l9.61-2.06q7.85-.86 15.6.65a.64.64 0 0 1 .01 1.25l-8.81 1.77-7 2.18a1.16 1.15-82.9 0 0-.66.52q-13.22 22.18-30.02 42.82c-9.09 11.17-20.13 22.53-30 33.95q-8.31 9.61-12.88 20.14-6.09 14.04-1.4 28.87 4.48 14.19 15 29.31l6.26 10.35a.46.46 0 0 0 .84-.15q1.63-8.72 1.19-17.33-.02-.48.19-.82a.17.17 0 0 1 .28-.01q11.06 15.5 18.64 32.5c5.68 12.74 8.58 25.49 6.51 39.08a.87.87 0 0 0 1.07.98c11.49-2.79 20.42-8.92 28.94-16.94a.54.53 52.1 0 0 .08-.67q-4.14-6.58-5.82-15.01-3.33-20.41 10.55-35.87 6.4-6.56 14.45-9.99a1.3 1.29 75.8 0 0 .77-1.3q-1.5-17.37-3.72-35.49c-4.16-34.01 1.7-72.99 25.81-99.23q.39-.74.99-1.15a.21.21 0 0 1 .31.25l-1.06 2.53q-19 34.88-18.06 73.57.46 18.97 4.03 43.84c.7 4.85.96 8.72 1.15 13.67a.78.78 0 0 0 .78.75l9.87.07q14.08 2.15 24.91 12.57a.57.57 0 0 0 .8-.01q3.28-3.34 5.91-4.57c7.51-3.53 15.68-.76 20.82 5.41a.34.34 0 0 1-.26.56h-9.66a.71.7-6.5 0 0-.69.86q1.94 8.33 5.14 17.22 4.99 13.89 16.01 22.71c19.23 15.38 41.72 5.32 57.97-8.12a1.32 1.3 70.5 0 0 .47-1.01v-12.73a.56.56 0 0 0-.42-.54q-14.73-3.73-26.01-14.33c-7.43-7-13.96-17.22-13.85-27.61.15-14.58 15.5-21.22 27.7-23.02q16.51-2.45 32.63-.08c9.84 1.44 24.31 6.33 27.54 17.25 2.74 9.28-1.33 19.18-6.99 26.58q-11.29 14.73-29.08 20.6c-.5.16-1.99.21-2.77.36a.49.48-5.9 0 0-.39.47v12.92a1.8 1.8 0 0 0 .67 1.4c12.84 10.37 30.65 19.9 47.57 13.7 14.4-5.28 23.45-18.64 28.14-33.12q2.63-8.12 3.49-12.91a.78.77-85 0 0-.76-.91h-9.09a.38.38 0 0 1-.3-.62c6.07-7.77 16.9-9.33 24.34-2.35q1.55 1.46 2.96 3.02a.56.55 45.3 0 0 .82.01q9.91-10.52 23.21-13.33l9.67-.61a.65.65 0 0 0 .61-.58q2.12-18.51 4.24-37.23c3.36-29.55.06-60.29-13.18-87.4l-4.31-8.67a.16.16 0 0 1 .25-.18l1.5 1.4c11.61 12.79 19.42 29.61 22.77 46.55q5.27 26.54 2.04 53.5-2.02 16.79-3.37 33.65a1.07 1.07 0 0 0 .71 1.09q6.37 2.21 12.21 6.61 18.32 15.71 15.32 39.57-1.54 8.64-6.03 15.75a.58.57 40.4 0 0 .06.7q11.88 12.79 28.88 16.67a.6.6 0 0 0 .72-.68q-2.27-13.43 1.57-25.72 3.89-12.44 6.36-17.12 2.65-5.03 5.9-11.36c3.56-6.95 7.17-11.97 11.17-18.23a.36.36 0 0 1 .66.21q-.62 9.82.7 18.13.04.27.21.37.42.26.69-.15 3.52-5.39 6.39-10.59 9.27-12.74 14.24-27.15c9.93-28.75-11.87-48.79-29.32-67.5-17.19-18.44-32.34-38.8-45.54-60.21a1.86 1.81 84.2 0 0-.87-.73q-7.4-2.88-15.45-3.48-.51-.13-.53-.18a.75.75 0 0 1 .52-1.05q6.92-1.51 14.74-1.11l10.85 2.34a.17.17 0 0 0 .16-.28q-11.65-13.27-28.5-17.55a.52.52 0 0 1-.13-.95l7.94-4.58a.31.31 0 0 0-.02-.54c-15.99-7.66-34.39-8.08-51.51-5.88a.37.36-20.3 0 0-.26.56l5.1 7.9q.97 1.38 1.23 3.04-14.53-11.92-20.15-16.01-16.85-12.24-35.06-20.44-30.47-13.72-65.19-12.47c-31.62 1.14-61 13.58-86.22 32.42q-10.84 8.1-21.27 16.99m114.17 146.57q10.52.01 18.35-.96 4.1-.51 7.44-2.02a1.26 1.25 62.2 0 0 .55-1.79q-.62-1.04-2.27-1.75c-7.52-3.23-15.66-4.1-24.06-4.11-8.41-.01-16.55.85-24.07 4.06q-1.66.71-2.28 1.75a1.26 1.25-62.1 0 0 .55 1.79q3.33 1.52 7.43 2.03 7.84.99 18.36 1M354.97 477.26q-2.63 20.05 13.49 30.31c12.11 7.7 28.05 6.92 39.53-2.11 8.79-6.91 13.35-16.75 15.97-27.27a.79.78 11.1 0 0-.65-.96l-4.65-.7a.4.4 0 0 1-.08-.78c6.26-2.29 11.79-2.99 19.03-3.13q72.24-1.41 155.14.06 7.83.14 16.17 3.08a.31.3 49.1 0 1-.04.59l-5.21.96a.69.69 0 0 0-.55.82c2.22 11.03 7.75 21.78 17.21 28.36 24.37 16.96 58.2-2.36 50.11-32.88q-2.95-9.54-9.49-17.32a.37.36 54.4 0 0-.46-.08l-10.76 6.21a.31.31 0 0 1-.43-.41c4.25-7.91 8.47-12.5 16.42-20.53 5.02-5.08 9.35-12.19 10.15-19.69q1.61-15.14-8.25-25.53c-15.13-15.94-38.32-12.37-49.97 5.4q-3.01 4.58-6.11 12.82a.84.84 0 0 0 .66 1.13l9.33 1.4a.42.42 0 0 1 .22.73q-.24.22-.88.41-12.86 3.65-26.46 4.23a1.39 1.37 12.7 0 0-1.17.73c-14.26 26.61-42.35 31.12-67.61 17.09l-13.22-8.48a.74.72 44.5 0 0-.81 0l-15.86 10.37q-1.13.11-5.03 1.87-9.36 4.23-20.96 3.96c-16.68-.39-30.43-10.03-37.93-24.43a1.26 1.25-11.3 0 0-1.03-.68q-13.31-1-25.79-5.03a.37.37 0 0 1 .05-.72l9.54-1.76a.66.65-14.7 0 0 .5-.85q-2.37-7.09-5.78-12.47c-4.06-6.42-11.8-12.77-19.83-14.82-19.99-5.1-37.98 9.45-39.07 29.56-.42 7.88 2.72 15.06 7.47 21.56q1.27 1.72 7.38 7.36 7.33 6.75 12.05 16.66a.26.26 0 0 1-.38.32l-10.57-6.8a.47.47 0 0 0-.6.09q-8.33 9.27-10.79 21.35M601 411.81a1.79 1.79 0 0 0 1.5-1.16q3.26-8.79 7.95-15.76a.67.66 26.1 0 0-.35-1l-7.22-2.38a.4.39 11.6 0 0-.52.34q-.7 10-3.93 18.94a.88.88 0 0 0 .91 1.18zm-184.63-17.05q5.01 7.21 8.12 16.83a1.15 1.15 0 0 0 1.05.79l.49.02a.53.52-8.3 0 0 .52-.69q-3.23-9.35-4.01-19.73a.32.32 0 0 0-.42-.28l-5.31 1.75a.86.86 0 0 0-.44 1.31m96.03 101.92q8.11.01 13.57-.98 15.84-2.88 29-12.53a.4.4 0 0 0-.23-.72q-33.63-.21-42.32-.22-8.7-.01-42.32.13a.4.4 0 0 0-.24.73q13.14 9.67 28.97 12.58 5.46 1 13.57 1.01m-82.65-4.46q-4.63 10.94-12.68 18.86c-8.25 8.11-18 11.07-29.59 12.09l-6.15-.27q-11.25-1.45-21.06-8.43-7.75-5.52-12.22-14.87l-2.97-9.84a.29.29 0 0 0-.54-.03q-7.7 16.94-10.99 33.74-2.81 14.31.32 31.38a.25.25 0 0 0 .46.09l6.8-10.27q5.28-6.05 11.25-10.63a.48.48 0 0 1 .77.46c-6.77 41.9 20.11 84.42 51.01 109.65q1.03 1.3 3.29 2.58a.32.32 0 0 0 .47-.33q-1.53-8.99-.9-17.81a.22.22 0 0 1 .42-.07q11.11 28.29 34.93 47.36c9.93 7.94 22.16 15.04 33.48 21.65 7.37 4.31 16.2 10.42 21.26 14.86q9.01 7.89 14.94 18.2a.34.34 0 0 0 .59 0q7.61-13.37 19.92-22.27 8.68-6.28 11.39-7.88c17.28-10.22 30.28-17.31 42.99-28.3 12.35-10.68 21.83-23.41 28.7-38.01q.76-1.63 1.92-5.19a.41.41 0 0 1 .8.11q.26 8.73-1.19 17.73a.27.26-13.8 0 0 .42.25l4.72-3.45q16.17-13.88 29.28-32.99c15.4-22.46 24.45-49.07 20.73-76.38a.29.28-75.7 0 1 .45-.27q5.66 4.15 11.16 10.42l6.99 11.18a.21.2-55 0 0 .37-.07q4.24-19.86-.82-39.45-3.41-13.15-8.9-25.6a.29.29 0 0 0-.55.08q-1.19 8.43-6.7 16.09-11.69 14.8-30.02 16.57l-7.12.09q-29.09-3.74-40.36-31.56l-3.09-8.17a1 .99-9.9 0 0-.92-.64l-27.68-.51a1.75 1.74 18.8 0 0-1.41.69c-11 14.54-29.33 22.13-47.46 22.8-21.58.8-41.44-6.25-55.54-22.6a1.71 1.7 69.3 0 0-1.28-.58h-25.29a1.17 1.15 10.1 0 0-1.09.75zm-14.36 284.51c14.23-3.31 27.8-1.58 39.46 7.57a.36.36 0 0 1-.3.63l-5.02-1.18q-13.27-2.97-22.76-1.47c-12.28 1.94-24.52 8.83-31.27 19.42-4.81 7.53-6.41 16.33-1.55 24.08 2.85 4.93 10.21 8.33 15.45 9.94a.3.3 0 0 0 .39-.33l-1.35-9.1q.77-16.88 14.15-26.68 1.2-.88 1.8-1.15a.36.35 4.9 0 1 .44.52q-3.51 5.33-5.77 12-3.06 8.98-2.06 17.4l2.31 8.63a2.05 2.04-4.2 0 0 1.74 1.5q13.69 1.53 28.47.54a.71.71 0 0 0 .65-.83l-1.6-8.92q.27-15.69 11.86-25.86a.37.37 0 0 1 .58.44q-5.46 11.45-4.27 24.39l1.99 8.62a.6.59-11 0 0 .69.46c10.39-1.93 22.88-5.95 26.48-16.68q1.27-3.8.53-16.42c-1.01-16.98-1.6-40.49-2.51-63.39q-.48-11.96-.09-26.38a1.05 1.04-70 0 0-.38-.83q-1.87-1.52-3.71-2.63-8.49-5.14-21.83-13.19-3.17-1.91-14.55-9.66-14.37-9.79-25.84-24.31a6.88 6.82-6.8 0 0-2.58-2.01c-5.26-2.34-9.4-4.71-13.97-8.27-20.47-15.97-37.55-36.92-48.33-60.91l-4.18-10.39a.27.26-53.7 0 0-.51.08q-2.97 37.89 9.74 73.49 6.87 19.21 15 35.74c6.79 13.79 19.65 38.79 27.87 57.56q5.48 12.51 9.58 28.78a.5.5 0 0 0 .65.35zm257.69-185.25q-2.07 4.18-4.14 8.26-12.66 24.86-32.4 43.35c-7.31 6.84-12.67 11.77-20.38 16.1-2.15 1.21-4.53 1.88-6.56 3.02a4.78 4.68 4.1 0 0-1.37 1.16q-9.7 12.23-20.06 20.08c-14.56 11.02-30.11 19.75-45.29 28.89a2.81 2.81 0 0 0-1.36 2.44q.13 12.95-.34 26.22-.92 25.93-1.62 48.24c-.27 8.75-1.33 17.83-1.08 25.99q.36 11.88 10.79 17.27 7.52 3.89 16.14 5.39a.51.5-77.1 0 0 .58-.37l2.07-8.41q1.39-12.92-3.74-24.4a.38.38 0 0 1 .6-.44q11.21 9.9 11.49 25.53l-1.79 8.88a.51.51 0 0 0 .42.61c9.1 1.53 19.93.65 28.55-.49a2.73 2.73 0 0 0 2.11-1.55q1.99-4.22 2.33-8.12c1.24-11-2.07-20.99-8.09-30.08a.29.29 0 0 1 .4-.41q15.57 9.83 16.33 28.59l-1.18 8.3a.39.39 0 0 0 .49.43q8.16-2.41 13.64-7.53 5.95-6.84 4.49-15.28c-3.12-17.91-23.82-30.53-40.87-30.68q-11.66-.38-22.77 3.03a.31.31 0 0 1-.29-.54c10.97-9.01 24.79-11.12 39.05-7.56l5.23 1.82a.47.47 0 0 0 .61-.33q5.3-20.1 13.14-37.19 4.16-9.05 24.25-49.5 3.82-7.69 11.46-26.27 16.44-39.97 13.2-83.45a.29.29 0 0 0-.56-.08zm-.63 79.25-6.77 15.3q-5.87 12.67-12.05 25.18-13.21 26.74-13.6 27.58-8.38 18.09-11.41 27.3-2.36 7.17-4.7 16.37a1.16 1.14-64.2 0 0 .41 1.2c8.95 6.82 15.95 14.6 18.61 25.66a.94.94 0 0 0 1.01.72l8.01-.8a1.56 1.55-87.8 0 0 1.37-1.27c1.61-8.87-1.21-16.63-5.91-24.12a.34.34 0 0 1 .44-.49q13.26 6.89 14.09 22.92a.63.63 0 0 0 .78.58q4.76-1.17 8.05-3.79c5.92-4.55 2.04-13.9-1.59-18.52q-9.77-12.41-26.32-13.59-5.65-.97-12.33.83a.31.31 0 0 1-.26-.56q8.67-5.92 18.68-5.91l5.57.65q1.41.56 3.25-1.45c15.67-17.14 30.21-33.59 38.59-53.85 8.54-20.64 8.04-44.5-8.93-60.72q-2.45-2.34-6.32-3.87a.47.47 0 0 0-.62.29zm-296.46 94.28q10.68-.77 19.3 5.75a.27.27 0 0 1-.21.48q-6.63-1.12-13.15-.57c-13.05.87-28.21 10.19-30.09 24.57q-.61 4.58 3.22 7.37 3.05 2.43 7.93 3.65a.45.45 0 0 0 .56-.41c.59-9.44 5.49-18.98 14.65-22.48a.23.23 0 0 1 .28.33c-3.91 6.53-6.63 12.01-6.75 19.54q-.07 4.26 1.52 5.32a.99.91 64 0 0 .41.16l7.67 1.15a.75.74-79.3 0 0 .84-.58c2.51-11.09 9.67-20.05 18.77-26.41a.98.97-23.7 0 0 .39-.99q-1.93-9.15-5.04-17.44-7.58-20.21-17.45-38.8-5.57-10.5-19.38-40.02-6.56-14.73-11.54-30.01l-2.77-8.65a.46.46 0 0 0-.64-.27q-2.04 1.03-2.62 1.45c-18.48 13.41-20.11 39.15-12.78 58.73q5.45 14.56 13.89 26.37 12.28 17.2 26.27 31.9a2.02 2.02 0 0 0 1.75.6zm136.55 42.62q9.16 0 15.68-1.01a1 .99 86.6 0 0 .84-.95l3.11-83.78a.34.34 0 0 0-.57-.26q-12.03 10.9-18.65 25.63-.07.15-.41.15-.35 0-.42-.15-6.62-14.73-18.65-25.63a.34.34 0 0 0-.57.26l3.12 83.78a1 .99-86.6 0 0 .84.95q6.53 1.01 15.68 1.01"/><path fill="#f7da8e" d="m625.88 215.03 2.91 3.99a.31.31 0 0 1-.43.44c-7.33-5.02-13.17-9.46-20.33-13.6-10.18-5.9-15.5-9.45-24.54-13.77q-11.77-5.64-24.61-9.96-47.21-15.87-93.21-.21c-12.16 4.14-25.57 9.76-36.29 16.22-11.11 6.7-21.89 13.12-32.59 21.08a.53.53 0 0 1-.76-.72l1.96-2.98q10.43-8.89 21.27-16.99c25.22-18.84 54.6-31.28 86.22-32.42q34.72-1.25 65.19 12.47 18.21 8.2 35.06 20.44 5.62 4.09 20.15 16.01"/><path fill="#eeae4a" d="M625.88 215.03q-.26-1.66-1.23-3.04 12.19-2.59 19.6-2.9 8.47-.36 17.04 1.37a.45.44-58.7 0 1 .19.78l-6.91 5.58a.66.65-61.4 0 0 .34 1.16q9.94 1.09 17.75 7.02 1.14.87 4.3 2.79 2.2 1.33 4.06 3.18-7.82-.4-14.74 1.11a.75.75 0 0 0-.52 1.05q.02.05.53.18 2.82 2.56 6.84 2.72a1.99 1.93-27.5 0 1 .94.28q1.41.87 2.17 2.27 1.93 3.58 4.04 6.61 4.18 6.02 8.12 12.79c7.09 12.19 15.45 23.44 23.65 33.67q7.5 9.36 13.46 15.03 9.08 8.65 13.63 14.15c6.87 8.3 12.62 19.82 12.72 31.14.07 6.91.54 13.46-2.08 19.51-.87-8.31-1.97-14.66-6.34-21.3a.82.82 0 0 0-1.48.26c-1.85 7.69-5.2 11.91-10.88 19.24q-6.28 8.1-11.68 14.96-.06.08-1.08 1.76a.38.38 0 0 1-.71-.22q.75-16.52-10.02-28.92a.2.2 0 0 0-.34.17c2.19 11.05 1.29 24.14.05 33.34-2.66 19.73-3.55 35.73-1.3 52.99q.07.57-.21.92a.84.8 38.6 0 1-1.16.1q-7.32-5.89-14.38-13.78-1.12-1.25-2.14-2.93-.04-.07-1.44-1.51-.72-.75-.72-2.16 3-23.86-15.32-39.57-1.28-13.13-1.05-19.33.25-6.73 1.01-16.88 1.2-16.17.42-31.62c-.45-8.96-2.74-17.96-5-28.42-1.47-6.84-4.25-13.4-7.07-18.78q-.54-1.03-7.28-11.7-5.12-8.1-12.14-14.62-1.26-1.17-3.25-.05l-1.5-1.4a.16.16 0 0 0-.25.18l4.31 8.67q-1.23 2.75-.47 4.95 6.03 17.48 6.56 32.6.47 13.51-.1 26.98-.27 6.48-3.04 25.43-2.61 17.78-4.29 35.86-13.3 2.81-23.21 13.33a.56.55 45.3 0 1-.82-.01q-1.41-1.56-2.96-3.02c-7.44-6.98-18.27-5.42-24.34 2.35a.38.38 0 0 0 .3.62h9.09a.78.77-85 0 1 .76.91q-.86 4.79-3.49 12.91c-4.69 14.48-13.74 27.84-28.14 33.12-16.92 6.2-34.73-3.33-47.57-13.7a1.8 1.8 0 0 1-.67-1.4v-12.92a.49.48-5.9 0 1 .39-.47c.78-.15 2.27-.2 2.77-.36q17.79-5.87 29.08-20.6c5.66-7.4 9.73-17.3 6.99-26.58-3.23-10.92-17.7-15.81-27.54-17.25q-16.12-2.37-32.63.08c-12.2 1.8-27.55 8.44-27.7 23.02-.11 10.39 6.42 20.61 13.85 27.61q11.28 10.6 26.01 14.33a.56.56 0 0 1 .42.54v12.73a1.32 1.3 70.5 0 1-.47 1.01c-16.25 13.44-38.74 23.5-57.97 8.12q-11.02-8.82-16.01-22.71-3.2-8.89-5.14-17.22a.71.7-6.5 0 1 .69-.86h9.66a.34.34 0 0 0 .26-.56c-5.14-6.17-13.31-8.94-20.82-5.41q-2.63 1.23-5.91 4.57a.57.57 0 0 1-.8.01q-10.83-10.42-24.91-12.57-1.43-17.07-3.92-33.9c-1.75-11.86-3.11-22.3-3.68-31.17q-.5-7.92.72-27.43c.56-8.93 3.05-19.33 5.61-26.17q2.79-7.48 3.5-13.23l1.06-2.53a.21.21 0 0 0-.31-.25q-.6.41-.99 1.15-2.17-.42-4.09 1.28c-8.04 7.1-12.15 14.45-19.01 25.72-6.2 10.18-9.03 24.57-11.33 37.66q-1.18 6.71-1.26 15.06-.17 17.77 1.55 39.47.76 9.65-1.15 23.49a1.92 1.9-24.4 0 1-.31.81l-1.71 2.52q-13.88 15.46-10.55 35.87-8.79 10.84-19.21 19.59a1.32 1.32 0 0 1-2.14-1.28c.75-3.65 1.36-6.59 1.44-10.92q.29-15.79-.54-23.88-2.29-22.28-2.52-24.93c-.84-9.58-1.34-18.17.81-25.96a.27.27 0 0 0-.47-.24c-6.55 8.09-10.82 18.73-10.03 29.2a.31.31 0 0 1-.55.22q-8.65-10.31-17.28-21.98-4.99-6.75-6.92-14.5a.66.66 0 0 0-1.17-.24q-3.18 4.17-4.22 9.9-.9 4.97-2.58 9.48c-2.58-10.94-2.72-23.53 1.85-33.72 5.22-11.61 13.08-19.24 23.21-29.69 9.68-9.99 17.25-20.46 26.63-33.6q4.24-5.93 11.95-19.02l5.42-8.3q3-4.59 5.1-9.9l8.81-1.77a.64.64 0 0 0-.01-1.25q-7.75-1.51-15.6-.65 1-.93 2.26-1.1a1.29 1.28-71.7 0 0 .75-.38q.28-.3.4-.72a.99.99 0 0 1 .62-.66c2.32-.82 5.11-3.68 7.2-4.94q6.6-3.96 15.18-5.37a.78.78 0 0 0 .36-1.37l-7.18-5.86a.41.41 0 0 1 .26-.72q3.96.03 6.62-.38 15.31-2.38 29.84 3.04-1.29 1.89-1.09 2.75l-1.96 2.98a.53.53 0 0 0 .76.72c10.7-7.96 21.48-14.38 32.59-21.08 10.72-6.46 24.13-12.08 36.29-16.22q46-15.66 93.21.21 12.84 4.32 24.61 9.96c9.04 4.32 14.36 7.87 24.54 13.77 7.16 4.14 13 8.58 20.33 13.6a.31.31 0 0 0 .43-.44zM402.05 325.36q3.41 7.46 10.38 11.44.91 1.35 3.05 1.79 6.61 1.38 13.56 1.1 7.37 1.13 14.87.09l13.95-.35a1.33 1.31-71 0 0 1.01-.5q1.05-1.32 1.47-3.12 5.79-2.5 8.02-9.62 5.52-17.54 5.54-30.15.03-16.54-8.8-28.85c-11.89-16.57-33.51-21-51.04-10.19-20.45 12.6-27.78 34.84-19.69 57.44q2.56 7.15 7.68 10.92m157.51 10.13q-7.26-5.14-14.79-7.02a.4.39-20.9 0 0-.32.71c12.04 8.16 20.51 18.57 28.8 30.7a.36.36 0 0 0 .64-.3c-2.38-8.09-5.39-15.85-11.61-21.84q.38-1.43 1.88-1.97.34 1.96 1.5 3.31a1.17 1.13 70 0 0 .82.4l11.07.35 10.15.47a1.73 1.29 34.9 0 0 .31-.01q3.63-.47 6.7-.25 8.91.13 16.4-2.31 6.01-4.23 10.22-10.37 11.25-12.59 11.46-29.11c.21-16.26-7.19-30.54-20.68-39.86-8.14-5.63-17.5-8.12-27.12-6.93-21.4 2.62-34.01 21.76-34.43 42.36q-.27 13.15 3.9 26.52 2.3 7.35 5.1 15.15m-99.13 3.77c-5.07 5.35-8.42 12.85-9.97 19.96a.41.4 67 0 0 .74.29c3.69-5.99 7.77-11.33 12.91-16.76 5.15-5.43 10.26-9.79 16.04-13.8a.41.4 19.9 0 0-.34-.73c-7.01 1.94-14.31 5.69-19.38 11.04"/><path fill="#f7da8e" d="M399.08 212.77q-14.53-5.42-29.84-3.04-2.66.41-6.62.38a.41.41 0 0 0-.26.72l7.18 5.86a.78.78 0 0 1-.36 1.37q-8.58 1.41-15.18 5.37c-2.09 1.26-4.88 4.12-7.2 4.94a.99.99 0 0 0-.62.66q-.12.42-.4.72a1.29 1.28-71.7 0 1-.75.38q-1.26.17-2.26 1.1l-9.61 2.06a.22.22 0 0 1-.21-.35q11.31-13.06 27.9-17.56a.32.31-9.9 0 0 .24-.33q-.03-.28-.23-.42-1.22-.82-7.96-4.86a.3.3 0 0 1 .02-.52c15.86-7.81 34.3-7.75 51.67-5.93a.26.25-71.5 0 1 .19.39zM681.02 230.97q-1.86-1.85-4.06-3.18-3.16-1.92-4.3-2.79-7.81-5.93-17.75-7.02a.66.65-61.4 0 1-.34-1.16l6.91-5.58a.45.44-58.7 0 0-.19-.78q-8.57-1.73-17.04-1.37-7.41.31-19.6 2.9l-5.1-7.9a.37.36-20.3 0 1 .26-.56c17.12-2.2 35.52-1.78 51.51 5.88a.31.31 0 0 1 .02.54l-7.94 4.58a.52.52 0 0 0 .13.95q16.85 4.28 28.5 17.55a.17.17 0 0 1-.16.28zM743.23 392.38q.8-4.55 3.14-8.82a7.72 7.63 66.9 0 0 .7-1.77l2.71-10.31c2.62-6.05 2.15-12.6 2.08-19.51-.1-11.32-5.85-22.84-12.72-31.14q-4.55-5.5-13.63-14.15-5.96-5.67-13.46-15.03c-8.2-10.23-16.56-21.48-23.65-33.67q-3.94-6.77-8.12-12.79-2.11-3.03-4.04-6.61-.76-1.4-2.17-2.27a1.99 1.93-27.5 0 0-.94-.28q-4.02-.16-6.84-2.72 8.05.6 15.45 3.48a1.86 1.81 84.2 0 1 .87.73c13.2 21.41 28.35 41.77 45.54 60.21 17.45 18.71 39.25 38.75 29.32 67.5q-4.97 14.41-14.24 27.15M349.57 234.9q-2.1 5.31-5.1 9.9l-5.42 8.3q-7.71 13.09-11.95 19.02c-9.38 13.14-16.95 23.61-26.63 33.6-10.13 10.45-17.99 18.08-23.21 29.69-4.57 10.19-4.43 22.78-1.85 33.72q2.11 9.35 5.55 17.9a3.63 3.51 17.5 0 0 .38.7q2.26 3.08 1.27 4.96-10.52-15.12-15-29.31-4.69-14.83 1.4-28.87 4.57-10.53 12.88-20.14c9.87-11.42 20.91-22.78 30-33.95q16.8-20.64 30.02-42.82a1.16 1.15-82.9 0 1 .66-.52z"/><path fill="#db8a33" d="M388.65 242.79c-24.11 26.24-29.97 65.22-25.81 99.23q2.22 18.12 3.72 35.49a1.3 1.29 75.8 0 1-.77 1.3q-8.05 3.43-14.45 9.99l1.71-2.52a1.92 1.9-24.4 0 0 .31-.81q1.91-13.84 1.15-23.49-1.72-21.7-1.55-39.47.08-8.35 1.26-15.06c2.3-13.09 5.13-27.48 11.33-37.66 6.86-11.27 10.97-18.62 19.01-25.72q1.92-1.7 4.09-1.28M670.63 384.83q-5.84-4.4-12.21-6.61a1.07 1.07 0 0 1-.71-1.09q1.35-16.86 3.37-33.65 3.23-26.96-2.04-53.5c-3.35-16.94-11.16-33.76-22.77-46.55q1.99-1.12 3.25.05 7.02 6.52 12.14 14.62 6.74 10.67 7.28 11.7c2.82 5.38 5.6 11.94 7.07 18.78 2.26 10.46 4.55 19.46 5 28.42q.78 15.45-.42 31.62-.76 10.15-1.01 16.88-.23 6.2 1.05 19.33"/><path fill="#db8a33" d="m386.66 376.32-9.87-.07a.78.78 0 0 1-.78-.75c-.19-4.95-.45-8.82-1.15-13.67q-3.57-24.87-4.03-43.84-.94-38.69 18.06-73.57-.71 5.75-3.5 13.23c-2.56 6.84-5.05 17.24-5.61 26.17q-1.22 19.51-.72 27.43c.57 8.87 1.93 19.31 3.68 31.17q2.49 16.83 3.92 33.9M638.83 250.88c13.24 27.11 16.54 57.85 13.18 87.4q-2.12 18.72-4.24 37.23a.65.65 0 0 1-.61.58l-9.67.61q1.68-18.08 4.29-35.86 2.77-18.95 3.04-25.43.57-13.47.1-26.98-.53-15.12-6.56-32.6-.76-2.2.47-4.95M460.34 335.81c5.7-15.91 7.61-32.68-.29-47.13-7.88-14.41-24.15-19.12-39.1-12.37q-14.37 6.49-19.67 22.75-4.08 12.54.77 26.3-5.12-3.77-7.68-10.92c-8.09-22.6-.76-44.84 19.69-57.44 17.53-10.81 39.15-6.38 51.04 10.19q8.83 12.31 8.8 28.85-.02 12.61-5.54 30.15-2.23 7.12-8.02 9.62M621.33 327.36q4.29-11.1 3.14-20.84c-1.62-13.74-10.43-26.33-23.71-31.03-15.94-5.65-31.95.75-38.19 16.58-5.48 13.92-3.86 29.63 1.59 43.7q-1.5.54-1.88 1.97l-2.72-2.25q-2.8-7.8-5.1-15.15-4.17-13.37-3.9-26.52c.42-20.6 13.03-39.74 34.43-42.36 9.62-1.19 18.98 1.3 27.12 6.93 13.49 9.32 20.89 23.6 20.68 39.86q-.21 16.52-11.46 29.11"/><path fill="#050302" d="M460.34 335.81q-.42 1.8-1.47 3.12a1.33 1.31-71 0 1-1.01.5l-13.95.35q-6.29-.81-8.42-2.03-9.55-5.5-11.45-15.98-1.2-6.64-.3-11.08 3.3-16.2 19.79-18.71 4.46-.67 6.25-.16 4.01 1.15 7.08 2.01a.3.3 0 0 0 .31-.47l-3.63-4.5q-13.22-12.5-29.28-4.09-14.86 7.78-17.79 25.43-2.3 13.83 5.96 26.6-6.97-3.98-10.38-11.44-4.85-13.76-.77-26.3 5.3-16.26 19.67-22.75c14.95-6.75 31.22-2.04 39.1 12.37 7.9 14.45 5.99 31.22.29 47.13m-14.406-40.245a8 7.78-97.3 0 0-6.7 8.924 8 7.78-97.3 0 0 8.733 6.946 8 7.78-97.3 0 0 6.7-8.924 8 7.78-97.3 0 0-8.733-6.946M434.93 322.54a3.8 3.8 0 0 0-3.8-3.8 3.8 3.8 0 0 0-3.8 3.8 3.8 3.8 0 0 0 3.8 3.8 3.8 3.8 0 0 0 3.8-3.8M621.33 327.36q-4.21 6.14-10.22 10.37 8.91-13.63 6.58-27.92-2.56-15.66-16.61-24.11c-10.21-6.15-22.4-5.52-30.56 3.59q-2.16 1.86-3.5 4.27a.24.24 0 0 0 .31.34q6.37-2.87 14.45-1.57c15.95 2.56 21.45 18.71 17.53 32.78-2.6 9.35-12.63 15.34-21.76 14.72l-11.07-.35a1.17 1.13 70 0 1-.82-.4q-1.16-1.35-1.5-3.31c-5.45-14.07-7.07-29.78-1.59-43.7 6.24-15.83 22.25-22.23 38.19-16.58 13.28 4.7 22.09 17.29 23.71 31.03q1.15 9.74-3.14 20.84m-36.13-23.65a7.81 7.81 0 0 0-7.81-7.81 7.81 7.81 0 0 0-7.81 7.81 7.81 7.81 0 0 0 7.81 7.81 7.81 7.81 0 0 0 7.81-7.81m11.92 18.99a3.71 3.71 0 0 0-3.71-3.71 3.71 3.71 0 0 0-3.71 3.71 3.71 3.71 0 0 0 3.71 3.71 3.71 3.71 0 0 0 3.71-3.71"/><path fill="#fdfdfd" d="M453.54 288.86q-1.63-.36-3.2-.87-2.05-.65-3.23-.77c-16.62-1.73-29.15 9.04-31.26 25.29q-1.61 12.47 6.25 21.62 2.62 3.04 6.94 5.56-6.95.28-13.56-1.1-2.14-.44-3.05-1.79-8.26-12.77-5.96-26.6 2.93-17.65 17.79-25.43 16.06-8.41 29.28 4.09M611.11 337.73q-7.49 2.44-16.4 2.31 12.44-7.24 13.7-20.29c1.4-14.45-6.77-27.97-20.89-31.52q-8.33-2.1-17 1.06c8.16-9.11 20.35-9.74 30.56-3.59q14.05 8.45 16.61 24.11 2.33 14.29-6.58 27.92"/><path fill="#754018" d="m453.54 288.86 3.63 4.5a.3.3 0 0 1-.31.47q-3.07-.86-7.08-2.01-1.79-.51-6.25.16-16.49 2.51-19.79 18.71-.9 4.44.3 11.08 1.9 10.48 11.45 15.98 2.13 1.22 8.42 2.03-7.5 1.04-14.87-.09-4.32-2.52-6.94-5.56-7.86-9.15-6.25-21.62c2.11-16.25 14.64-27.02 31.26-25.29q1.18.12 3.23.77 1.57.51 3.2.87M594.71 340.04q-3.07-.22-6.7.25a1.73 1.29 34.9 0 1-.31.01l-10.15-.47c9.13.62 19.16-5.37 21.76-14.72 3.92-14.07-1.58-30.22-17.53-32.78q-8.08-1.3-14.45 1.57a.24.24 0 0 1-.31-.34q1.34-2.41 3.5-4.27 8.67-3.16 17-1.06c14.12 3.55 22.29 17.07 20.89 31.52q-1.26 13.05-13.7 20.29"/><ellipse fill="#fdfdfd" rx="8" ry="7.78" transform="rotate(-97.3 357.025 -44.923)"/><circle cx="577.39" cy="303.71" r="7.81" fill="#fdfdfd"/><circle cx="431.13" cy="322.54" r="3.8" fill="#fdfdfd"/><circle cx="593.41" cy="322.7" r="3.71" fill="#fdfdfd"/><path fill="#050302" d="M464.11 342.75c-5.14 5.43-9.22 10.77-12.91 16.76a.41.4 67 0 1-.74-.29c1.55-7.11 4.9-14.61 9.97-19.96s12.37-9.1 19.38-11.04a.41.4 19.9 0 1 .34.73c-5.78 4.01-10.89 8.37-16.04 13.8M559.56 335.49l2.72 2.25c6.22 5.99 9.23 13.75 11.61 21.84a.36.36 0 0 1-.64.3c-8.29-12.13-16.76-22.54-28.8-30.7a.4.39-20.9 0 1 .32-.71q7.53 1.88 14.79 7.02"/><path fill="#db8a33" d="M340.79 424.67q1.68 8.43 5.82 15.01a.54.53 52.1 0 1-.08.67c-8.52 8.02-17.45 14.15-28.94 16.94a.87.87 0 0 1-1.07-.98c2.07-13.59-.83-26.34-6.51-39.08q-7.58-17-18.64-32.5a.17.17 0 0 0-.28.01q-.21.34-.19.82.44 8.61-1.19 17.33a.46.46 0 0 1-.84.15l-6.26-10.35q.99-1.88-1.27-4.96a3.63 3.51 17.5 0 1-.38-.7q-3.44-8.55-5.55-17.9 1.68-4.51 2.58-9.48 1.04-5.73 4.22-9.9a.66.66 0 0 1 1.17.24q1.93 7.75 6.92 14.5 8.63 11.67 17.28 21.98a.31.31 0 0 0 .55-.22c-.79-10.47 3.48-21.11 10.03-29.2a.27.27 0 0 1 .47.24c-2.15 7.79-1.65 16.38-.81 25.96q.23 2.65 2.52 24.93.83 8.09.54 23.88c-.08 4.33-.69 7.27-1.44 10.92a1.32 1.32 0 0 0 2.14 1.28q10.42-8.75 19.21-19.59M749.78 371.48l-2.71 10.31a7.72 7.63 66.9 0 1-.7 1.77q-2.34 4.27-3.14 8.82-2.87 5.2-6.39 10.59-.27.41-.69.15-.17-.1-.21-.37-1.32-8.31-.7-18.13a.36.36 0 0 0-.66-.21c-4 6.26-7.61 11.28-11.17 18.23q-3.25 6.33-5.9 11.36-2.47 4.68-6.36 17.12-3.84 12.29-1.57 25.72a.6.6 0 0 1-.72.68q-17-3.88-28.88-16.67a.58.57 40.4 0 1-.06-.7q4.49-7.11 6.03-15.75 0 1.41.72 2.16 1.4 1.44 1.44 1.51 1.02 1.68 2.14 2.93 7.06 7.89 14.38 13.78a.84.8 38.6 0 0 1.16-.1q.28-.35.21-.92c-2.25-17.26-1.36-33.26 1.3-52.99 1.24-9.2 2.14-22.29-.05-33.34a.2.2 0 0 1 .34-.17q10.77 12.4 10.02 28.92a.38.38 0 0 0 .71.22q1.02-1.68 1.08-1.76 5.4-6.86 11.68-14.96c5.68-7.33 9.03-11.55 10.88-19.24a.82.82 0 0 1 1.48-.26c4.37 6.64 5.47 12.99 6.34 21.3"/><path fill="#fdfdfd" d="M512.17 351.46c8.4.01 16.54.88 24.06 4.11q1.65.71 2.27 1.75a1.26 1.25 62.2 0 1-.55 1.79q-3.34 1.51-7.44 2.02-7.83.97-18.35.96t-18.36-1q-4.1-.51-7.43-2.03a1.26 1.25-62.1 0 1-.55-1.79q.62-1.04 2.28-1.75c7.52-3.21 15.66-4.07 24.07-4.06M495.74 442.09q15.28 2.48 29.89-1.89c25.26 14.03 53.35 9.52 67.61-17.09a1.39 1.37 12.7 0 1 1.17-.73q13.6-.58 26.46-4.23.64-.19.88-.41a.42.42 0 0 0-.22-.73l-9.33-1.4a.84.84 0 0 1-.66-1.13q3.1-8.24 6.11-12.82c11.65-17.77 34.84-21.34 49.97-5.4q9.86 10.39 8.25 25.53c-.8 7.5-5.13 14.61-10.15 19.69-7.95 8.03-12.17 12.62-16.42 20.53a.31.31 0 0 0 .43.41l10.76-6.21a.37.36 54.4 0 1 .46.08q6.54 7.78 9.49 17.32-.73 3.58-1.74 6.82c-.95 3.02-2.61 5.82-5.2 7.99-14.7 12.25-34.59 8.34-45.25-6.93q-4.33-6.2-4.91-7.09c-5.51-8.5-16.31-12.77-26.11-12.9q-62.73-.77-140.23-.24-7.76.05-14.4 1.12-13.22 2.13-20.68 13.64c-3.55 5.47-8.03 11.63-14.41 15.5q-11.99 7.25-25.17 2.29-10.73-4.04-15.32-14.79a1.34 1.33-88.9 0 0-.68-.71q-.78-.35-1.37-1.05 2.46-12.08 10.79-21.35a.47.47 0 0 1 .6-.09l10.57 6.8a.26.26 0 0 0 .38-.32q-4.72-9.91-12.05-16.66-6.11-5.64-7.38-7.36c-4.75-6.5-7.89-13.68-7.47-21.56 1.09-20.11 19.08-34.66 39.07-29.56 8.03 2.05 15.77 8.4 19.83 14.82q3.41 5.38 5.78 12.47a.66.65-14.7 0 1-.5.85l-9.54 1.76a.37.37 0 0 0-.05.72q12.48 4.03 25.79 5.03a1.26 1.25-11.3 0 1 1.03.68c7.5 14.4 21.25 24.04 37.93 24.43q11.6.27 20.96-3.96 3.9-1.76 5.03-1.87"/><path fill="#eeae4a" d="m601 411.81-1.66.16a.88.88 0 0 1-.91-1.18q3.23-8.94 3.93-18.94a.4.39 11.6 0 1 .52-.34l7.22 2.38a.67.66 26.1 0 1 .35 1q-4.69 6.97-7.95 15.76a1.79 1.79 0 0 1-1.5 1.16M416.81 393.45l5.31-1.75a.32.32 0 0 1 .42.28q.78 10.38 4.01 19.73a.53.52-8.3 0 1-.52.69l-.49-.02a1.15 1.15 0 0 1-1.05-.79q-3.11-9.62-8.12-16.83a.86.86 0 0 1 .44-1.31"/><path fill="#dddacf" d="M525.63 440.2q-14.61 4.37-29.89 1.89l15.86-10.37a.74.72 44.5 0 1 .81 0zM670.44 473.61c8.09 30.52-25.74 49.84-50.11 32.88-9.46-6.58-14.99-17.33-17.21-28.36a.69.69 0 0 1 .55-.82l5.21-.96a.31.3 49.1 0 0 .04-.59q-8.34-2.94-16.17-3.08-82.9-1.47-155.14-.06c-7.24.14-12.77.84-19.03 3.13a.4.4 0 0 0 .08.78l4.65.7a.79.78 11.1 0 1 .65.96c-2.62 10.52-7.18 20.36-15.97 27.27-11.48 9.03-27.42 9.81-39.53 2.11q-16.12-10.26-13.49-30.31.59.7 1.37 1.05a1.34 1.33-88.9 0 1 .68.71q4.59 10.75 15.32 14.79 13.18 4.96 25.17-2.29c6.38-3.87 10.86-10.03 14.41-15.5q7.46-11.51 20.68-13.64 6.64-1.07 14.4-1.12 77.5-.53 140.23.24c9.8.13 20.6 4.4 26.11 12.9q.58.89 4.91 7.09c10.66 15.27 30.55 19.18 45.25 6.93 2.59-2.17 4.25-4.97 5.2-7.99q1.01-3.24 1.74-6.82"/><path fill="#eeae4a" d="M512.42 482.23q8.69.01 42.32.22a.4.4 0 0 1 .23.72q-13.16 9.65-29 12.53-5.46.99-13.57.98t-13.57-1.01q-15.83-2.91-28.97-12.58a.4.4 0 0 1 .24-.73q33.62-.14 42.32-.13"/><path fill="#db8a33" d="M596.82 491.69q-5.16 1.85-12.01 3.62-7.29 1.89-14.61 6.1-5.74 3.3-12.13 10.14-13.81 14.77-23.25 29.29-.5.77-.83.9a.6.6 0 0 1-.81-.64q.82-6.45 2.28-11.28.13-.43-.3-.57-.26-.08-.46.17-3.69 4.59-10.23 14.04-4.85 7-10.8 21.22-.42 1-.44 1.03a.67.67 0 0 1-1.2-.1q-8.02-20.56-22.14-36.52a.4.4 0 0 0-.69.34l2.2 11.87a.44.44 0 0 1-.81.32q-6.6-10.28-15.02-20.7c-8.43-10.46-16.62-18.53-28.55-23.35q-1.83-.74-8.69-2.59-4.36-1.17-8.58-2.76l3.31-8.79a1.17 1.15 10.1 0 1 1.09-.75h25.29a1.71 1.7 69.3 0 1 1.28.58c14.1 16.35 33.96 23.4 55.54 22.6 18.13-.67 36.46-8.26 47.46-22.8a1.75 1.74 18.8 0 1 1.41-.69l27.68.51a1 .99-9.9 0 1 .92.64z"/><path fill="#f7da8e" d="M348.05 499.6q-4.29 11.97-5.91 19.62-2.4 11.35-1.01 25.45l-6.8 10.27a.25.25 0 0 1-.46-.09q-3.13-17.07-.32-31.38 3.29-16.8 10.99-33.74a.29.29 0 0 1 .54.03zM683.93 544.36q2.62-20.74-5.17-40.64a.45.45 0 0 0-.8-.08q-1.36 2.1-3.64 2.95 5.51-7.66 6.7-16.09a.29.29 0 0 1 .55-.08q5.49 12.45 8.9 25.6 5.06 19.59.82 39.45a.21.2-55 0 1-.37.07z"/><path fill="#eeae4a" d="M596.82 491.69q11.27 27.82 40.36 31.56.16 14.54-7.6 25.96a.31.31 0 0 1-.57-.17c-.04-6.42-3.17-12.29-6.79-17.45a.39.39 0 0 0-.7.25c1.08 15.31-1.36 31.11-8.45 45.13a.45.45 0 0 0 .71.54q7.43-6.71 11.99-15.25.57-1.05 4.33-3.9 7.33-5.56 11-15.04 3.13-8.08 3.2-20.16 18.33-1.77 30.02-16.57 2.28-.85 3.64-2.95a.45.45 0 0 1 .8.08q7.79 19.9 5.17 40.64-5.5-6.27-11.16-10.42a.29.28-75.7 0 0-.45.27c3.72 27.31-5.33 53.92-20.73 76.38q-13.11 19.11-29.28 32.99l-.37.01a.53.53 0 0 1-.52-.8c1.59-2.62 2.38-5.54 3.57-8.28 9.4-21.68 13.24-44.6 5.97-67.7a.59.59 0 0 0-1.15.06c-2.06 10.1-5.51 17.33-11.11 28.1q-9.13 17.57-24.04 32.45-10.82 10.8-18.59 16.49a3.33 3.22-87.6 0 0-.64.61q-1.93 2.38-3.18 1.92c10.95-15.14 16.2-30.98 14.26-48.98a.39.38-42.5 0 0-.76-.03c-4.76 23.39-15.94 45.09-35.14 59.9a.19.19 0 0 1-.29-.22q3.73-8.69 4.04-18.18a.46.46 0 0 0-.88-.21c-3.38 7.01-5.83 11.93-10.17 17.73-6.71 8.97-13.94 17.12-18.79 28.65q-7.16 8.85-11.59 19.81a.53.53 0 0 1-.97.02q-4.59-10.37-11.48-19.1-3.01-7.83-7.34-13.97-2.68-3.79-11.73-15.76-5.22-6.9-9.56-17.2-.14-.33-.55-.63a.3.3 0 0 0-.48.25q.27 9.93 4.33 18.78a.25.25 0 0 1-.37.3c-19.34-14.68-30.04-36.18-35.17-59.42q-.07-.34-.4-.49a.21.2 14.4 0 0-.28.16q-1.85 13.31 2.54 26.24 3.75 11.07 11.09 22.21-8.92-5.53-12.95-9.66-11.9-12.18-11.98-12.27-23.76-25.1-32.6-57.83a.41.41 0 0 0-.78-.02c-3.38 10.76-4.72 21.13-3.27 32.72q2 15.88 5.44 24.84 3.68 9.57 7.74 20.07c-30.9-25.23-57.78-67.75-51.01-109.65a.48.48 0 0 0-.77-.46q-5.97 4.58-11.25 10.63-1.39-14.1 1.01-25.45 1.62-7.65 5.91-19.62 4.47 9.35 12.22 14.87 9.81 6.98 21.06 8.43-.3 7.74 1.48 15.3 2.49 10.57 10.16 18.25c1.55 1.54 3.47 2.56 4.84 3.75a5.7 5.7 0 0 1 1.3 1.62q4.84 8.95 12.11 15.22a.38.38 0 0 0 .59-.44q-9.84-21.27-7.88-44.59a.25.25 0 0 0-.44-.19q-6.32 7.42-7.1 17.12a.43.43 0 0 1-.78.21q-7.23-10.65-6.93-23.69.02-.96-.96-1.21-.51-.12-.53-.42-.03-.3.29-.66c11.59-1.02 21.34-3.98 29.59-12.09q8.05-7.92 12.68-18.86 4.22 1.59 8.58 2.76 6.86 1.85 8.69 2.59c11.93 4.82 20.12 12.89 28.55 23.35q8.42 10.42 15.02 20.7a.44.44 0 0 0 .81-.32l-2.2-11.87a.4.4 0 0 1 .69-.34q14.12 15.96 22.14 36.52a.67.67 0 0 0 1.2.1q.02-.03.44-1.03 5.95-14.22 10.8-21.22 6.54-9.45 10.23-14.04.2-.25.46-.17.43.14.3.57-1.46 4.83-2.28 11.28a.6.6 0 0 0 .81.64q.33-.13.83-.9 9.44-14.52 23.25-29.29 6.39-6.84 12.13-10.14 7.32-4.21 14.61-6.1 6.85-1.77 12.01-3.62m-25.81 73.72q.34 13.37-5.16 25.78-2.37 5.34-3.03 6.41c-2.66 4.37-6.24 7.53-10.81 11.88a.33.33 0 0 1-.55-.32q3.88-15.76.39-32.27a.35.35 0 0 0-.33-.27h-.28a.5.5 0 0 0-.51.54q.67 9.12-1.77 19.81-3.21 14.14-9.63 25.71a.49.49 0 0 0 .61.69q7.21-2.91 13.89-7.29c8.6-5.65 13.69-14.82 18.47-24.35a1.95 1.9 82.1 0 1 .39-.53l4.92-4.64.04-.04q17.35-22.59 9.19-50.86a.31.3 38.8 0 0-.6.06q-.07 1.53-.04 6.76.09 18.21-8.35 33.62-1.02 1.86-2.22 3.12a.37.37 0 0 1-.64-.21q-.91-6.92-3.65-13.66a.17.17 0 0 0-.33.06m-116.75.26a.17.17 0 0 0-.33-.06q-2.69 6.79-3.55 13.74a.37.37 0 0 1-.64.21q-1.21-1.25-2.25-3.11-8.59-15.39-8.66-33.65-.01-5.25-.09-6.78a.31.3-39.2 0 0-.6-.06q-7.95 28.43 9.64 50.94l.04.04 4.97 4.62a1.96 1.91-82.6 0 1 .4.52c4.87 9.52 10.05 18.68 18.73 24.27q6.74 4.34 13.99 7.2a.49.49 0 0 0 .61-.7q-6.54-11.55-9.88-25.71-2.53-10.7-1.94-19.85a.51.5-88.9 0 0-.51-.54h-.28a.35.35 0 0 0-.33.28q-3.37 16.59.66 32.36a.33.33 0 0 1-.55.33c-4.62-4.33-8.24-7.47-10.94-11.83q-.67-1.07-3.1-6.4-5.62-12.4-5.39-25.82"/><path fill="#db8a33" d="M387.48 523.17q-.32.36-.29.66.02.3.53.42.98.25.96 1.21-.3 13.04 6.93 23.69a.43.43 0 0 0 .78-.21q.78-9.7 7.1-17.12a.25.25 0 0 1 .44.19q-1.96 23.32 7.88 44.59a.38.38 0 0 1-.59.44q-7.27-6.27-12.11-15.22a5.7 5.7 0 0 0-1.3-1.62c-1.37-1.19-3.29-2.21-4.84-3.75q-7.67-7.68-10.16-18.25-1.78-7.56-1.48-15.3zM644.3 523.16q-.07 12.08-3.2 20.16-3.67 9.48-11 15.04-3.76 2.85-4.33 3.9-4.56 8.54-11.99 15.25a.45.45 0 0 1-.71-.54c7.09-14.02 9.53-29.82 8.45-45.13a.39.39 0 0 1 .7-.25c3.62 5.16 6.75 11.03 6.79 17.45a.31.31 0 0 0 .57.17q7.76-11.42 7.6-25.96z"/><path fill="#f7da8e" d="M571.01 565.41a.17.17 0 0 1 .33-.06q2.74 6.74 3.65 13.66a.37.37 0 0 0 .64.21q1.2-1.26 2.22-3.12 8.44-15.41 8.35-33.62-.03-5.23.04-6.76a.31.3 38.8 0 1 .6-.06q8.16 28.27-9.19 50.86l-.04.04-4.92 4.64a1.95 1.9 82.1 0 0-.39.53c-4.78 9.53-9.87 18.7-18.47 24.35q-6.68 4.38-13.89 7.29a.49.49 0 0 1-.61-.69q6.42-11.57 9.63-25.71 2.44-10.69 1.77-19.81a.5.5 0 0 1 .51-.54h.28a.35.35 0 0 1 .33.27q3.49 16.51-.39 32.27a.33.33 0 0 0 .55.32c4.57-4.35 8.15-7.51 10.81-11.88q.66-1.07 3.03-6.41 5.5-12.41 5.16-25.78M454.26 565.67q-.23 13.42 5.39 25.82 2.43 5.33 3.1 6.4c2.7 4.36 6.32 7.5 10.94 11.83a.33.33 0 0 0 .55-.33q-4.03-15.77-.66-32.36a.35.35 0 0 1 .33-.28h.28a.51.5-88.9 0 1 .51.54q-.59 9.15 1.94 19.85 3.34 14.16 9.88 25.71a.49.49 0 0 1-.61.7q-7.25-2.86-13.99-7.2c-8.68-5.59-13.86-14.75-18.73-24.27a1.96 1.91-82.6 0 0-.4-.52l-4.97-4.62-.04-.04q-17.59-22.51-9.64-50.94a.31.3-39.2 0 1 .6.06q.08 1.53.09 6.78.07 18.26 8.66 33.65 1.04 1.86 2.25 3.11a.37.37 0 0 0 .64-.21q.86-6.95 3.55-13.74a.17.17 0 0 1 .33.06"/><path fill="#db8a33" d="M452.56 646.3q4.32 5.29 7.83 8.56c5.38 5.02 12.57 10.21 20.28 14.87 8.58 5.19 13.54 8.67 19.81 16.1q6.89 8.73 11.48 19.1a.53.53 0 0 0 .97-.02q4.43-10.96 11.59-19.81 6.81-6.66 8.98-8.36 4.55-3.58 16.65-10.59 12.13-7.02 22.1-19.71 1.25.46 3.18-1.92a3.33 3.22-87.6 0 1 .64-.61q7.77-5.69 18.59-16.49 14.91-14.88 24.04-32.45c5.6-10.77 9.05-18 11.11-28.1a.59.59 0 0 1 1.15-.06c7.27 23.1 3.43 46.02-5.97 67.7-1.19 2.74-1.98 5.66-3.57 8.28a.53.53 0 0 0 .52.8l.37-.01-4.72 3.45a.27.26-13.8 0 1-.42-.25q1.45-9 1.19-17.73a.41.41 0 0 0-.8-.11q-1.16 3.56-1.92 5.19c-6.87 14.6-16.35 27.33-28.7 38.01-12.71 10.99-25.71 18.08-42.99 28.3q-2.71 1.6-11.39 7.88-12.31 8.9-19.92 22.27a.34.34 0 0 1-.59 0q-5.93-10.31-14.94-18.2c-5.06-4.44-13.89-10.55-21.26-14.86-11.32-6.61-23.55-13.71-33.48-21.65q-23.82-19.07-34.93-47.36a.22.22 0 0 0-.42.07q-.63 8.82.9 17.81a.32.32 0 0 1-.47.33q-2.26-1.28-3.29-2.58-4.06-10.5-7.74-20.07-3.44-8.96-5.44-24.84c-1.45-11.59-.11-21.96 3.27-32.72a.41.41 0 0 1 .78.02q8.84 32.73 32.6 57.83.08.09 11.98 12.27 4.03 4.13 12.95 9.66"/><path fill="#f7da8e" d="M352.64 592.67q-.55 5.95.9 10.77 1.3 13.12 3.64 25.17c.55 2.87.75 4.47 1.55 6.57q3.24 8.47 4.67 13.53c2.6 9.15 5.33 14.91 8.77 24.55 2.89 8.11 8.16 16.84 10.76 23.41 1.85 4.67 3.19 8.51 5.25 12.6q.48.96 6.95 13.8c5.52 10.98 10.02 23.09 14.87 34.68q2.72 6.52 5.39 18.98l-4.6 1.55a.5.5 0 0 1-.65-.35q-4.1-16.27-9.58-28.78c-8.22-18.77-21.08-43.77-27.87-57.56q-8.13-16.53-15-35.74-12.71-35.6-9.74-73.49a.27.26-53.7 0 1 .51-.08zM609.23 777.4q2.22-7.88 4.68-15.64 2.62-8.28 5.47-14.15 2.81-5.78 6.06-13.94 2.3-5.77 8.52-17.88 5.3-10.29 8.36-17.93c2.58-6.43 7.38-16.26 10.54-24.73 2.75-7.39 6.12-13.15 7.85-20.23q1.8-7.38 4.14-13.62 2.12-5.65 3.6-13.72 2.33-12.62 3.74-23.08.18-1.35.2-5.28l.69-5.72 3.48-9.08a.29.29 0 0 1 .56.08q3.24 43.48-13.2 83.45-7.64 18.58-11.46 26.27-20.09 40.45-24.25 49.5-7.84 17.09-13.14 37.19a.47.47 0 0 1-.61.33z"/><path fill="#db8a33" d="M672.39 597.2q-1.63 8.42-3.47 11.79-3.02 5.51-5.24 12.72c-1.42 4.61-5.08 10.03-7.83 15.21-2.16 4.07-3.57 7.49-6.34 11.58q-10.48 15.44-15.57 21.44c-13.77 16.2-29.69 31.45-47.51 44.19-5.31 3.81-13.06 8.49-17.09 10.92-16.34 9.88-21.75 26.8-22.39 44.95q-.79 22.31-.62 36c.06 5.12 2.72 13.23 7.28 16.87q3.3 2.62 6.46 3.56 5.22 1.55 7.99 2.68l-2.07 8.41a.51.5-77.1 0 1-.58.37q-8.62-1.5-16.14-5.39-10.43-5.39-10.79-17.27c-.25-8.16.81-17.24 1.08-25.99q.7-22.31 1.62-48.24.47-13.27.34-26.22a2.81 2.81 0 0 1 1.36-2.44c15.18-9.14 30.73-17.87 45.29-28.89q10.36-7.85 20.06-20.08a4.78 4.68 4.1 0 1 1.37-1.16c2.03-1.14 4.41-1.81 6.56-3.02 7.71-4.33 13.07-9.26 20.38-16.1q19.74-18.49 32.4-43.35 2.07-4.08 4.14-8.26zM456.74 828.27q4.84-1.34 9.39-2.96 4.2-1.49 6.42-3.98c5.38-6.06 6.53-12.77 6.33-21.95q-.71-30.9-.83-33.14-.63-11.81-5.96-23.34-4.09-8.84-11.7-14.54c-6.81-5.1-18.05-11.34-25.08-16.74q-18.4-14.15-30.1-26.59-2.54-2.7-11.16-12.17-5.91-6.48-10.29-12.87-9.98-14.58-17.83-29.64-4.13-7.92-4.73-9.83-3.38-10.74-7.66-17.08-1.45-4.82-.9-10.77c10.78 23.99 27.86 44.94 48.33 60.91 4.57 3.56 8.71 5.93 13.97 8.27a6.88 6.82-6.8 0 1 2.58 2.01q11.47 14.52 25.84 24.31 11.38 7.75 14.55 9.66 13.34 8.05 21.83 13.19 1.84 1.11 3.71 2.63a1.05 1.04-70 0 1 .38.83q-.39 14.42.09 26.38c.91 22.9 1.5 46.41 2.51 63.39q.74 12.62-.53 16.42c-3.6 10.73-16.09 14.75-26.48 16.68a.6.59-11 0 1-.69-.46z"/><path fill="#050302" d="M572.25 646.44q-9.97 12.69-22.1 19.71-12.1 7.01-16.65 10.59-2.17 1.7-8.98 8.36c4.85-11.53 12.08-19.68 18.79-28.65 4.34-5.8 6.79-10.72 10.17-17.73a.46.46 0 0 1 .88.21q-.31 9.49-4.04 18.18a.19.19 0 0 0 .29.22c19.2-14.81 30.38-36.51 35.14-59.9a.39.38-42.5 0 1 .76.03c1.94 18-3.31 33.84-14.26 48.98"/><path fill="#eeae4a" d="M672.39 597.2q-.02 3.93-.2 5.28-1.41 10.46-3.74 23.08-1.48 8.07-3.6 13.72-2.34 6.24-4.14 13.62c-1.73 7.08-5.1 12.84-7.85 20.23-3.16 8.47-7.96 18.3-10.54 24.73q-3.06 7.64-8.36 17.93-6.22 12.11-8.52 17.88-3.25 8.16-6.06 13.94-2.85 5.87-5.47 14.15-2.46 7.76-4.68 15.64c-14.26-3.56-28.08-1.45-39.05 7.56a.31.31 0 0 0 .29.54q11.11-3.41 22.77-3.03-.46.42-.59.82a.65.64 16 0 0 .46.82q12.95 3.34 21.95 12.95 5.65 6.04 8.47 10.05c2.82 4.02 3.83 7.62 4.41 12.44.3 2.5 2.6 3.46 1.65 6.98l-.18-2.2a1.11 1.11 0 0 0-1.46-.96l-11.28 3.86q-.76-18.76-16.33-28.59a.29.29 0 0 0-.4.41c6.02 9.09 9.33 19.08 8.09 30.08q-5.84.76-11.41 1.6-10.5 1.59-20.21-.93-.28-15.63-11.49-25.53a.38.38 0 0 0-.6.44q5.13 11.48 3.74 24.4-2.77-1.13-7.99-2.68-3.16-.94-6.46-3.56c-4.56-3.64-7.22-11.75-7.28-16.87q-.17-13.69.62-36c.64-18.15 6.05-35.07 22.39-44.95 4.03-2.43 11.78-7.11 17.09-10.92 17.82-12.74 33.74-27.99 47.51-44.19q5.09-6 15.57-21.44c2.77-4.09 4.18-7.51 6.34-11.58 2.75-5.18 6.41-10.6 7.83-15.21q2.22-7.21 5.24-12.72 1.84-3.37 3.47-11.79"/><path fill="#050302" d="M500.48 685.83c-6.27-7.43-11.23-10.91-19.81-16.1-7.71-4.66-14.9-9.85-20.28-14.87q-3.51-3.27-7.83-8.56-7.34-11.14-11.09-22.21-4.39-12.93-2.54-26.24a.21.2 14.4 0 1 .28-.16q.33.15.4.49c5.13 23.24 15.83 44.74 35.17 59.42a.25.25 0 0 0 .37-.3q-4.06-8.85-4.33-18.78a.3.3 0 0 1 .48-.25q.41.3.55.63 4.34 10.3 9.56 17.2 9.05 11.97 11.73 15.76 4.33 6.14 7.34 13.97"/><path fill="#eeae4a" d="M456.74 828.27q-1.19-12.94 4.27-24.39a.37.37 0 0 0-.58-.44q-11.59 10.17-11.86 25.86-15.53 3.96-31.57-.92-1-8.42 2.06-17.4 2.26-6.67 5.77-12a.36.35 4.9 0 0-.44-.52q-.6.27-1.8 1.15-13.38 9.8-14.15 26.68-6.74-.81-12.16-4.15c1.27-6.7 2.2-11.36 5.51-16.12q4.69-6.74 11.57-12.9 6.18-5.53 12.34-7.98 5.55-2.21 13.42-.79 4.2.75 10.41-.6l5.02 1.18a.36.36 0 0 0 .3-.63c-11.66-9.15-25.23-10.88-39.46-7.57q-2.67-12.46-5.39-18.98c-4.85-11.59-9.35-23.7-14.87-34.68q-6.47-12.84-6.95-13.8c-2.06-4.09-3.4-7.93-5.25-12.6-2.6-6.57-7.87-15.3-10.76-23.41-3.44-9.64-6.17-15.4-8.77-24.55q-1.43-5.06-4.67-13.53c-.8-2.1-1-3.7-1.55-6.57q-2.34-12.05-3.64-25.17 4.28 6.34 7.66 17.08.6 1.91 4.73 9.83 7.85 15.06 17.83 29.64 4.38 6.39 10.29 12.87 8.62 9.47 11.16 12.17 11.7 12.44 30.1 26.59c7.03 5.4 18.27 11.64 25.08 16.74q7.61 5.7 11.7 14.54 5.33 11.53 5.96 23.34.12 2.24.83 33.14c.2 9.18-.95 15.89-6.33 21.95q-2.22 2.49-6.42 3.98-4.55 1.62-9.39 2.96"/><path fill="#f7da8e" d="M654.53 765.97q8.83-10.86 17.46-21.43c2.43-2.99 4.04-6.16 6.23-8.88a4.12 4.02-13.3 0 0 .52-.82q4.63-9.7 8.6-19.45 4.86-11.95 5.6-19.81.99-10.58-1.2-20.58-2.47-11.3-11.5-19.03a.95.95 0 0 0-1.57.61q-.93 7.88-4.68 14.62a.92.92 0 0 1-1.48.17q-.07-.08-.06-.64l8.05-24.36a.47.47 0 0 1 .62-.29q3.87 1.53 6.32 3.87c16.97 16.22 17.47 40.08 8.93 60.72-8.38 20.26-22.92 36.71-38.59 53.85q-1.84 2.01-3.25 1.45M347.92 655.62q-4.26 3.73-7.75 8.2-2.73 3.5-4.07 7.28c-3.2 8.98-2.94 19.73-1.58 28.93q1.17 8 6.1 18.74 5.1 11.11 8.97 17.77 4.05 6.98 6.73 10.04 4.33 4.96 9.04 11.29 2.08 2.8 5.01 5.11a1.35 1.33 61.8 0 0 .9.28l3.46-.22q1.01.89 1.26 1.97l-4.97.74a2.02 2.02 0 0 1-1.75-.6q-13.99-14.7-26.27-31.9-8.44-11.81-13.89-26.37c-7.33-19.58-5.7-45.32 12.78-58.73q.58-.42 2.62-1.45a.46.46 0 0 1 .64.27z"/><path fill="#eeae4a" d="M359.46 685.63q-1.89 1.69-2.38 6.89-.71 7.68-1.07 16.14c-.19 4.56.51 10.31 1.07 14.31 2.08 14.63 9.16 26.57 17.65 40.07l-3.46.22a1.35 1.33 61.8 0 1-.9-.28q-2.93-2.31-5.01-5.11-4.71-6.33-9.04-11.29-2.68-3.06-6.73-10.04-3.87-6.66-8.97-17.77-4.93-10.74-6.1-18.74c-1.36-9.2-1.62-19.95 1.58-28.93q1.34-3.78 4.07-7.28 3.49-4.47 7.75-8.2 4.98 15.28 11.54 30.01M654.53 765.97l-5.57-.65q.75-1.06 2-1.81a3.16 3.15 3.1 0 0 .96-.86c1.43-1.89 2.97-3.93 4.19-6.32q1.23-2.41 3.75-6.9c9.79-17.47 14.14-38.04 7.4-57.84a.62.22-82.8 0 1-.03-.14l-.75-3.89a.06.06 0 0 0-.06-.05l-.26.05a.44.43-4.3 0 1-.52-.44l.04-1.09 6.77-15.3q-.01.56.06.64a.92.92 0 0 0 1.48-.17q3.75-6.74 4.68-14.62a.95.95 0 0 1 1.57-.61q9.03 7.73 11.5 19.03 2.19 10 1.2 20.58-.74 7.86-5.6 19.81-3.97 9.75-8.6 19.45a4.12 4.02-13.3 0 1-.52.82c-2.19 2.72-3.8 5.89-6.23 8.88q-8.63 10.57-17.46 21.43"/><path fill="#db8a33" d="M355.06 802.61q1.09-6.43 2.48-9.32 1.77-3.64 6.87-10.16c4.43-5.67 9.86-8.97 16.7-11.01q3.1-.93.82-1.45 6.52-.55 13.15.57a.27.27 0 0 0 .21-.48q-8.62-6.52-19.3-5.75-.25-1.08-1.26-1.97c-8.49-13.5-15.57-25.44-17.65-40.07-.56-4-1.26-9.75-1.07-14.31q.36-8.46 1.07-16.14.49-5.2 2.38-6.89 13.81 29.52 19.38 40.02 9.87 18.59 17.45 38.8 3.11 8.29 5.04 17.44a.98.97-23.7 0 1-.39.99c-9.1 6.36-16.26 15.32-18.77 26.41a.75.74-79.3 0 1-.84.58l-7.67-1.15a.99.91 64 0 1-.41-.16q-1.59-1.06-1.52-5.32c.12-7.53 2.84-13.01 6.75-19.54a.23.23 0 0 0-.28-.33c-9.16 3.5-14.06 13.04-14.65 22.48a.45.45 0 0 1-.56.41q-4.88-1.22-7.93-3.65M665.68 686.03l-.04 1.09a.44.43-4.3 0 0 .52.44l.26-.05a.06.06 0 0 1 .06.05l.75 3.89a.62.22-82.8 0 0 .03.14c6.74 19.8 2.39 40.37-7.4 57.84q-2.52 4.49-3.75 6.9c-1.22 2.39-2.76 4.43-4.19 6.32a3.16 3.15 3.1 0 1-.96.86q-1.25.75-2 1.81-10.01-.01-18.68 5.91a.31.31 0 0 0 .26.56q6.68-1.8 12.33-.83 3.11 2.11 6.31 3.57 4.36 1.99 5.51 2.78c6.62 4.6 11.57 11.89 14.79 19.48a4.84 4.58 29.4 0 1 .26.84l1.04 5.44q-3.29 2.62-8.05 3.79a.63.63 0 0 1-.78-.58q-.83-16.03-14.09-22.92a.34.34 0 0 0-.44.49c4.7 7.49 7.52 15.25 5.91 24.12a1.56 1.55-87.8 0 1-1.37 1.27l-8.01.8a.94.94 0 0 1-1.01-.72c-2.66-11.06-9.66-18.84-18.61-25.66a1.16 1.14-64.2 0 1-.41-1.2q2.34-9.2 4.7-16.37 3.03-9.21 11.41-27.3.39-.84 13.6-27.58 6.18-12.51 12.05-25.18M512.54 747.41q.34 0 .41-.15 6.62-14.73 18.65-25.63a.34.34 0 0 1 .57.26l-3.11 83.78a1 .99 86.6 0 1-.84.95q-6.52 1.01-15.68 1.01-9.15 0-15.68-1.01a1 .99-86.6 0 1-.84-.95l-3.12-83.78a.34.34 0 0 1 .57-.26q12.03 10.9 18.65 25.63.07.15.42.15"/><path fill="#f7da8e" d="M381.93 770.67q2.28.52-.82 1.45c-6.84 2.04-12.27 5.34-16.7 11.01q-5.1 6.52-6.87 10.16-1.39 2.89-2.48 9.32-3.83-2.79-3.22-7.37c1.88-14.38 17.04-23.7 30.09-24.57M642.87 770.96q16.55 1.18 26.32 13.59c3.63 4.62 7.51 13.97 1.59 18.52l-1.04-5.44a4.84 4.58 29.4 0 0-.26-.84c-3.22-7.59-8.17-14.88-14.79-19.48q-1.15-.79-5.51-2.78-3.2-1.46-6.31-3.57M449.53 783.75q-6.21 1.35-10.41.6-7.87-1.42-13.42.79-6.16 2.45-12.34 7.98-6.88 6.16-11.57 12.9c-3.31 4.76-4.24 9.42-5.51 16.12q-.76 1.08-1.17 3.36-.11.59-1.16.28c-4.86-7.75-3.26-16.55 1.55-24.08 6.75-10.59 18.99-17.48 31.27-19.42q9.49-1.5 22.76 1.47M629.62 828.43q-.44-.86-.03-1.9c.95-3.52-1.35-4.48-1.65-6.98-.58-4.82-1.59-8.42-4.41-12.44q-2.82-4.01-8.47-10.05-9-9.61-21.95-12.95a.65.64 16 0 1-.46-.82q.13-.4.59-.82c17.05.15 37.75 12.77 40.87 30.68q1.46 8.44-4.49 15.28"/><path fill="#db8a33" d="m408.44 826.29 1.35 9.1a.3.3 0 0 1-.39.33c-5.24-1.61-12.6-5.01-15.45-9.94q1.05.31 1.16-.28.41-2.28 1.17-3.36 5.42 3.34 12.16 4.15M629.59 826.53q-.41 1.04.03 1.9-5.48 5.12-13.64 7.53a.39.39 0 0 1-.49-.43l1.18-8.3 11.28-3.86a1.11 1.11 0 0 1 1.46.96zM448.57 829.3l1.6 8.92a.71.71 0 0 1-.65.83q-14.78.99-28.47-.54a2.05 2.04-4.2 0 1-1.74-1.5l-2.31-8.63q16.04 4.88 31.57.92M608.03 829.13q-.34 3.9-2.33 8.12a2.73 2.73 0 0 1-2.11 1.55c-8.62 1.14-19.45 2.02-28.55.49a.51.51 0 0 1-.42-.61l1.79-8.88q9.71 2.52 20.21.93 5.57-.84 11.41-1.6"/></svg>