<svg xmlns="http://www.w3.org/2000/svg" viewBox="0 0 1024 1024"><g fill="none" stroke-width="2"><path stroke="#818180" d="M610.48 230.61c.97-9.36-8.34-8.99-14.48-7.11q-7.05 2.16-12.64 5.86a.48.48 0 0 1-.74-.29q-1.6-7.01-7.94-7.03c-5.63-.01-10.92 6.53-14.73 10.91q-2.51 2.88-7.15 7.08a4.16 4.1 18.8 0 1-2.11 1.02q-22.87 3.82-45.31 11.86a.85.83-22.2 0 1-1.05-.43c-8.26-17.69-23.11-31.35-42.42-35.68-17.42-3.91-36.23 1.27-49.77 13.07-18.29 15.96-26.27 40.79-19.95 64.46q5.05 18.96 22.29 29.46a.83.82-57.2 0 1 .25 1.17q-1.43 2.12-17.95 24.81-1.94 2.67-3.27 3.2-45.11 17.87-62.36 63.21-6.08 15.99-7.16 33.25a2.5 2.5 0 0 1-.98 1.83c-20.34 15.36-38.26 34.53-53.3 55.14a.69.69 0 0 1-.92.19c-10.99-6.65-25.47-9.06-37.17-2.74-11.4 6.14-17.96 17.73-19.6 30.42q-2.61 20.1 8.48 36.99c4.11 6.26 8.68 9.17 14.78 12.85a.83.83 0 0 1 .38.89q-14.88 70.43 14.61 135.82a.72.72 0 0 1-.18.83q-3.34 3.05-5.05 5.88-6.94 11.5-13.08 27.88-4.17 11.11-3.9 23.06.14 6.28 4.86 8.91a1.64 1.62 3 0 1 .71.78q4.62 10.47 15.78 6.65a4.21 4.14 35.2 0 1 1.34-.22c5.83-.02 10.36-2.44 14.44-6.93q9.9-10.91 16.48-24.08a.48.47 32.7 0 1 .73-.15c36.34 29.61 84.44 27.46 126.89 15.28a3.17 3.09 36.3 0 1 .86-.12q1.83-.01 6.73.49c42.64 4.34 81.67.11 127.68-8.22q5.56-1.01 10.47-.89c31.96.74 63.09 9.04 95.19 19.79q8.87 2.97 19.19.96a.63.63 0 0 1 .71.41q3.51 9.86 12.76 12.19c8.81 2.22 18.02-1.31 26.61-5.59q19.33-9.64 35.85-23.41c8.32-6.94 20.19-18.04 16.99-30.28-1.31-5.01-6.6-8.18-11.44-8.53a2.14 2.13 64.9 0 1-1.04-.38q-3.28-2.35-5.27-2.28c-10.44.35-18.81 4.4-28.06 9.05a.34.33 80.2 0 1-.48-.34q.14-1.32.55-2.92c5.58-21.79-1.73-45.36-16-62.09a.91.91 0 0 1-.02-1.16q9.47-11.93 15.76-25.17a1.38 1.37 8.9 0 1 1.05-.76q50.24-6.22 88.75-38.84 8.26-7 12.63-15.84c5.06-10.23 5.14-23.45-5.91-29.62-7.82-4.37-19.31-1.69-27.6.05q-5.31 1.11-9.33 1.21a.27.27 0 0 1-.14-.5c12.08-6.9 22.68-14.86 32.15-25.44 28.96-32.38 30.97-81.45 9.05-117.66-7.31-12.08-17.54-22.96-29.38-30.43q-11.51-7.25-24.84-12.36-4.1-1.57-5.67-5.64-2.16-5.6-6.69-17.06-9.23-23.37-23.45-43.52a.73.72-45.5 0 1 0-.83q12.1-17.33 9.71-37.98c-2.46-21.23-18.03-41.71-39.95-45.39-20.1-3.37-36 6.5-46.61 22.82a.27.26-64.7 0 1-.3.11l-21.01-6.88a.38.38 0 0 1-.17-.61q1.91-2.22 2.32-3.15c2.73-6.19-1.73-10.21-7.47-11.09q-5.83-.89-12.37.37a.53.53 0 0 1-.62-.57" vector-effect="non-scaling-stroke"/><path stroke="#818180" d="M255.18 364.68q.02.28 2.07.28 37.14.1 84.4-.31c5.72-.05 14.8.89 14.47-5.27-.32-6.17-9.25-4.29-14.94-3.74q-47.05 4.55-83.97 8.54-2.04.22-2.03.5m25.59 20.73q.02.4 1.73.49 17.62.94 35.27 1.94 7.13.4 6.96-4.08t-7.24-3.54q-17.53 2.31-35.03 4.57-1.7.21-1.69.62M128.39 577.14q.01.22.35.24 33.95 1.52 71.49 1.93c3.07.03 6.03-1.75 5.91-5.1-.13-3.35-3.22-4.91-6.28-4.65q-37.4 3.24-71.14 7.32-.34.04-.33.26m48.49 24.34q.01.36.27.4 12.54 1.9 26.07 2.91c2.45.19 4.66-1.31 4.6-3.98s-2.33-4.06-4.77-3.77q-13.47 1.59-25.91 4.04-.27.05-.26.4m31.96 176.29-8.27-10.08c-7.68-9.32-14.02-22.79-13.9-35.16.04-4.21.9-8.91 4.47-11.29 2.52-1.67 6.88-.82 9.5.59a.3.29 4.1 0 0 .42-.36c-1.63-4.39-5.7-9.02-10.53-9.29-7.48-.42-11.94 7.22-12.82 13.79q-1.36 10.31 2.71 20.91 7.91 20.61 28.07 31.31a.28.28 0 0 0 .35-.42m-27.13 2.15q-.28-.75-.57-1.06c-6.89-7.41-11.24-12.64-14.67-21.03-1.18-2.88-5.27-3.88-7.06-.9q-1.31 2.18-.38 4.84c3.12 8.9 13.76 15.8 22.26 18.59a.34.34 0 0 0 .42-.44m458.74 33.44q-2.76-1.57-6.35-3.47-12.58-6.65-19.63-18.11-1.13-1.85-2.04-2.4c-2.5-1.52-5.43-.81-6.52 2.04-1.49 3.95 2.91 8.76 6.03 11.37q12.29 10.28 28.25 11.45a.47.47 0 0 0 .26-.88m-26.71 1.31q-.04-.49-.52-.68-10.93-4.27-19.57-10.59-2.48-1.82-4.64-2.01c-4.44-.41-6.5 3.44-3.7 6.85q1.72 2.1 5.43 3.52 10.83 4.15 22.58 3.4.46-.02.42-.49" vector-effect="non-scaling-stroke"/><path stroke="#7d5f24" d="M406.4 254.57q-7.65 13.75-5.83 29.43c1.49 12.79 8.14 24.53 19.18 31.43" vector-effect="non-scaling-stroke"/><path stroke="#784c1c" d="M419.75 315.43q3.06 1.96 6.6 3.49 7.49 3.24 15.17 6.04.64.24.75 1.34" vector-effect="non-scaling-stroke"/><path stroke="#7d5f24" d="m442.27 326.3-.75.75" vector-effect="non-scaling-stroke"/><path stroke="#784c1c" d="M441.52 327.05q-7.27 2.16-13.67 1.07a2.78 2.77 22.9 0 0-2.69 1.09l-14.28 19.35a.52.51 14.2 0 0 .49.81q8.6-1.21 17.42-.94" vector-effect="non-scaling-stroke"/><path stroke="#7d5f24" d="M428.79 348.43q13.69.34 26.64 4.69 4.46 1.49 7.13 3.53a.86.86 0 0 1 .19 1.16q-.35.5-1.28.51-5.33.08-10.71-.57" vector-effect="non-scaling-stroke"/><path stroke="#7a6948" d="M450.76 357.75q-19.16-2.51-37.51.98-12.07 2.3-23.26 7.76" vector-effect="non-scaling-stroke"/><path stroke="#817a68" d="M389.99 366.49c-29.07 13.66-48.05 41.46-53.35 72.83q-2.32 13.8-1.5 26.89" vector-effect="non-scaling-stroke"/><path stroke="#7a6948" d="M335.14 466.21q.09 4.21 1.02 9.46 3.8 21.56 14.98 38.72c14.28 21.9 37 37.46 62.44 44.24q20.44 5.45 35.35 5.24 14.75-.21 24.07 1.02" vector-effect="non-scaling-stroke"/><path stroke="#784c1c" d="M473 564.89q-.42 1.34-1.4 1.72-4.94 1.87-10.1 2.7c-24.31 3.92-50.85.96-73.62-9.7q-41.13-19.26-57.12-61.55-5.7-15.06-6.87-32.85a.53.52-6.5 0 0-.61-.48q-1.05.18-1.99 1.5" vector-effect="non-scaling-stroke"/><path stroke="#7a6948" d="M321.29 466.23q-23.82 20.88-40.97 44.84c-32.47 45.35-46.04 103.66-34.76 158.98" vector-effect="non-scaling-stroke"/><path stroke="#7d5f24" d="M245.56 670.05q4.74 27.76 18.61 53.18" vector-effect="non-scaling-stroke"/><path stroke="#784c1c" d="M264.17 723.23c9.35 16.56 23.87 33.75 40.83 42.08q26.61 13.07 57.75 10.3 13.5-1.2 19.36-2.33" vector-effect="non-scaling-stroke"/><path stroke="#7a6948" d="M382.11 773.28q12.85-1.55 23.38-4.29 15.36-3.99 37.79-10.18 4.93-1.36 8.73-1.35a.46.46 0 0 1 .29.82c-5.35 4.48-11.52 7.42-17.82 10.14a.29.29 0 0 0 .03.54q.52.17 1.27.23 9.91.85 25.22.37 43.62-1.37 88.12-10.92 26.86-5.77 62.17-16.69" vector-effect="non-scaling-stroke"/><path stroke="#7d5f24" d="m611.29 741.95 10.72-1.92a.56.56 0 0 1 .49.96c-3.52 3.41-8.86 5.91-13.24 8.08" vector-effect="non-scaling-stroke"/><path stroke="#784c1c" d="M609.26 749.07q-13.06 6.47-26.79 11.34a.31.3 39.7 0 0 .06.59c5.6.93 10.51 1.41 16.09 2.72 12.55 2.95 25.75 5.71 38.05 10.12q11.4 4.09 15.75 5.49 6.23 2 12.29 1.42 4.69-.44 11.33-4.64 5.22-3.3 9.95-7.35" vector-effect="non-scaling-stroke"/><path stroke="#7d5f24" d="M685.99 768.76q.5.75.93.83" vector-effect="non-scaling-stroke"/><path stroke="#817a68" d="m686.92 769.59-3.29 6.36" vector-effect="non-scaling-stroke"/><path stroke="#7a6948" d="m683.63 775.95-4.15 9.19a1.8 1.66-35.2 0 0-.15.7c.1 8.4 7.99 10.46 14.92 8.56q5.31-1.45 10.71-4.19 18.08-9.17 35.36-22.88 6.21-4.91 11.39-11.27a.22.22 0 0 0-.3-.32q-3.32 2.38-7.66 4.2a1.26 1.26 0 0 1-1.58-.54q-.33-.58-.02-1.11.88-1.53 2.05-2.81" vector-effect="non-scaling-stroke"/><path stroke="#817a68" d="M744.2 755.48q4.05-3.51 8.32-6.71.58-.44 1.52-1.98a1.1 1.1 0 0 0-.28-1.46l-1.65-1.21a1.27 1.27 0 0 0-1.76.25q-5.68 7.46-16.53 11.2-1.11.39-2.08-.17a1.23 1.23 0 0 1-.11-2.05c5.28-3.89 9.25-6.15 11.72-9.99a1.01 1 13.4 0 0-.95-1.54q-2.59.25-4.52.81c-15.29 4.41-29.86 13.42-43.24 22.02q-1.39.9-2.27-.35" vector-effect="non-scaling-stroke"/><path stroke="#7d5f24" d="M692.37 764.3q2.68-5.91 7.44-10.71a4.47 4.14-10.1 0 0 .72-.95q4.91-8.97 6.34-19.42" vector-effect="non-scaling-stroke"/><path stroke="#7a6948" d="M706.87 733.22c2.11-17.18-2.7-35.98-14.03-49.4a.72.72 0 0 0-1.03-.06l-3.47 3.2" vector-effect="non-scaling-stroke"/><path stroke="#7d5f24" d="M688.34 686.96c-2.05 1.66-5.72 4.78-8.34 5.26a.99.99 0 0 1-1.08-1.38q1.6-3.59 3.92-7 13.16-19.32 25.21-40.25c7.24-12.57 13.49-25.29 20.5-38.3a.73.73 0 0 1 1.37.4q-.65 8.62-3.36 17.36" vector-effect="non-scaling-stroke"/><path stroke="#784c1c" d="m726.56 623.05-5.51 15.44a.63.63 0 0 0 .72.83q14.48-2.97 28.82-7.51 6.29-1.98 12.81-5.14 13.09-6.34 25.28-14.12" vector-effect="non-scaling-stroke"/><path stroke="#7a6948" d="M788.68 612.55c9.11-5.38 19.4-13.96 23.15-24.12" vector-effect="non-scaling-stroke"/><path stroke="#817a68" d="M811.83 588.43c2.72-6.55 2.06-14.94-6.26-16.53-7.69-1.46-17.28 1.92-25.08 3.54" vector-effect="non-scaling-stroke"/><path stroke="#7d5f24" d="m780.49 575.44-7.54.38" vector-effect="non-scaling-stroke"/><path stroke="#784c1c" d="m772.95 575.82-18.57-.9a3.87 3.67-52.5 0 0-1.45.23q-14.11 5.25-27.86 6.89" vector-effect="non-scaling-stroke"/><path stroke="#7a6948" d="M725.07 582.04q-17.42 2.25-33.25.33-2.75-.34-4.8-1.37a.97.97 0 0 1 .1-1.77q1.56-.6 4.13-.94 13.63-1.83 15.28-2.03 33.42-3.96 62.9-19.31c19.25-10.03 36.62-27.38 44.98-47.9" vector-effect="non-scaling-stroke"/><path stroke="#817a68" d="M814.41 509.05c7.02-16.94 7.77-35.99 3.99-53.78" vector-effect="non-scaling-stroke"/><path stroke="#7a6948" d="M818.4 455.27q-9.62-38.42-42.91-57.72c-4.96-2.87-10.53-5.24-16.73-8.05q-8.11-3.67-11.77-11.76c-5.14-11.34-9.02-22.51-14.54-33.31q-7.51-14.7-12.92-22.43-31.27-44.67-82.85-62.51c-7.09-2.45-13.72-3.95-20.28-5.56q-3.46-.85-4.17-3.49c-1.16-4.31 4.04-8.16 7.1-10.07a.29.29 0 0 0-.17-.54q-9.46.56-17.93 5.17-2.63 1.44-5.42 3.51" vector-effect="non-scaling-stroke"/><path stroke="#7d5f24" d="M595.81 248.51q-1.66-1.28-1.33-2.5 1.12-4.19 3.47-9.08" vector-effect="non-scaling-stroke"/><path stroke="#7a6948" d="m597.95 236.93 2.23-3.92a.32.32 0 0 0-.36-.47q-9.21 2.4-16.3 8.26-4.09 3.38-6.79 5.46a1.28 1.28 0 0 1-2.06-.91l-.26-3.45" vector-effect="non-scaling-stroke"/><path stroke="#7d5f24" d="M574.41 241.9q.58-1.11.28-3.21" vector-effect="non-scaling-stroke"/><path stroke="#7a6948" d="m574.69 238.69-.31-6.4a.45.45 0 0 0-.8-.26c-5.26 6.69-11.54 14.13-19.57 18.98a4.38 4.27-64.2 0 1-1.54.56q-21.13 3.36-44.33 11.7a.79.78-11.5 0 0-.51.76l.2 4.2" vector-effect="non-scaling-stroke"/><path stroke="#7d5f24" d="M507.83 268.23q.36 2.82-1.09 3.8" vector-effect="non-scaling-stroke"/><path stroke="#7a6948" d="M506.74 272.03q-2.66-1.25-4.22-4.07c-6.17-11.19-11.01-19.89-20.56-29.07-18.11-17.41-45.21-16.45-63.39-.82q-8.17 7.03-12.17 16.5" vector-effect="non-scaling-stroke"/><path stroke="#f1c469" d="M506.74 272.03q.47-.36.55.01a.83.82 89 0 1-.94.99q-2.18-.37-3.95-1.11a3.1 3.1 0 0 1-1-.7q-9.56-10.16-17.38-19.99c-6.56-8.24-13.57-11.27-23.81-15.96q-5.98-2.74-13.45-2.87c-9.3-.16-17.24 1.17-24.46 6.9q-8.09 6.44-15.9 15.27m168.01-12.67q-1.81 1.46-1.26 5.35a.82.82 0 0 0 .56.67q2.88.94 5.29-.68 2.64-1.77 6.12-3.59 1.29-.67 3.12-2.17 3.7-3.03 9.71-4.55m-2.14 11.58q4.66-.5 9.16-3.42a1.13.97-63.4 0 1 .38-.16l5.75-1.32a.84.83 63.9 0 1 .84.29l.1.11a.68.68 0 0 1-.33 1.03q-1.23.43-2.36 1.84a1.14 1.13 61.9 0 0-.23.77l.32 3.53a.61.59-62.8 0 0 .08.26q.92 1.44 2.16 2.13 4.92 2.69 10.54 4.3 13.59 3.9 27.23 9.41c3.03 1.23 5.98 3.81 9.24 5.38q4.83 2.34 11.94 6.43c3.15 1.81 5.04 3.69 8.12 5.56q2.49 1.51 5.65 4.41c5.04 4.64 10.54 10.31 17.13 16.06q6.04 5.26 10.56 11.62a4.94 4.51 18.4 0 1 .47.84q1.61 3.62 3.66 6.46 4.59 6.34 9.16 13.29 2.93 4.46 7.03 15.32a21.33 19.64 61.2 0 0 1.26 2.74q4.03 7.43 6.44 15.54c1.85 6.21 3.36 12.54 6.35 15.84q2.99 3.27 9.04 5.73 6.82 2.76 8.66 3.99 16.83 11.28 22.29 16.48 6.29 5.99 7.89 8.25c5.16 7.25 11.2 15.19 15.04 23.29q.76 1.6 2.75 8.15 1.28 4.21 3.52 8.73" vector-effect="non-scaling-stroke"/><path stroke="#f9d589" d="M815.65 461.39q-2.65 5.3-9.69 9.82c-8.98 5.74-17.61 9.58-27.92 10.84q-15.7 1.91-32.09-3.01c-8.36-2.51-14.95-6.92-22.16-11.98q-2-1.41-4.02-3.58-4.7-5.09-9.26-10.57" vector-effect="non-scaling-stroke"/><path stroke="#7d5f24" d="M710.51 452.91q27.4 3.72 54 11.82a.27.26 82.9 0 0 .3-.39q-.21-.34-.71-.69c-16.42-11.36-37.75-16.07-57.55-14.55" vector-effect="non-scaling-stroke"/><path stroke="#f9d589" d="m706.55 449.1-4.96-7.07" vector-effect="non-scaling-stroke"/><path stroke="#7d5f24" d="m701.59 442.03 2.42-.41a7.07 7.02 28.5 0 0 1.64-.48q12.03-5.09 20.24-7.49c10.05-2.94 23.1-6.45 34.98-7.78q.48-.06.9-.32a.48.48 0 0 0-.2-.88q-25.62-2.88-48.32 8.09c-3.03 1.47-10.4 5.68-11.69 8.75" vector-effect="non-scaling-stroke"/><path stroke="#f9d589" d="M701.56 441.51q-5.03-11.03-13.18-19.88-4.86-5.28-7.74-6.76c-16.88-8.66-35.3-8.99-51.05 1.96q-10.95 7.61-22.41 19.56" vector-effect="non-scaling-stroke"/><path stroke="#7d5f24" d="M607.18 436.39q-25.52-16.88-56.39-13.17a.4.39-25.3 0 0-.24.66q.23.24.75.32 27.28 4.05 53.61 14.97" vector-effect="non-scaling-stroke"/><path stroke="#f9d589" d="M604.91 439.17q-3.39 4.42-9.47 8.29" vector-effect="non-scaling-stroke"/><path stroke="#7d5f24" d="M595.44 447.46q-25.91.48-48.17 14.24a.32.31 22.5 0 0 .24.57l37.47-8.24" vector-effect="non-scaling-stroke"/><path stroke="#f9d589" d="M584.98 454.03q-5.13 3.02-10.1 6.02-4.94 2.99-9.7 4.63c-6.98 2.42-15.52 5.56-23.82 7.47-32.91 7.57-67.07 5.17-97.25-9.65-26.89-13.2-46.24-38.03-52.51-66.96q-1.7-7.87-1.91-15.79" vector-effect="non-scaling-stroke"/><path stroke="#f1c469" d="m389.69 379.75.4-3.19a.98.96 78.5 0 1 .46-.71q5.83-3.46 11.7-5.67c2.79-1.06 4.76-2.9 7.53-3.36a3.3 3.29-61.8 0 0 .79-.24q9.24-4.03 11.81-4.45 8.49-1.37 21.62-3.23a.35.31-48.6 0 1 .08-.01l6.02.2a.72.7 15.2 0 0 .66-.37q.23-.43 0-.97" vector-effect="non-scaling-stroke"/><path stroke="#efa73d" d="m428.79 348.43-.77-.76a.51.5-42.4 0 1 .04-.75q3.21-2.66 4.86-5.27 4.51-7.13 8.6-14.6m.75-.75 8.62-11.63" vector-effect="non-scaling-stroke"/><path stroke="#aa7630" d="M450.89 314.67q8.08-5.31 14.56-13.23" vector-effect="non-scaling-stroke"/><path stroke="#7d5f24" d="M465.45 301.44q1.33-.13 1.9-1.08a2.12 2.12 0 0 0-.53-2.77q-1.28-.98-4.21-3.01a1.29 1.29 0 0 1 .16-2.21q.66-.32 1.58-.26 4.27.27 7.85-.41a1.31 1.29 13.6 0 0 .78-.47q1.19-1.5-.35-3.41-2.97-3.68-4.56-6.84a.58.58 0 0 1 .64-.83q4 .86 7.22 3.32l.04.04 3.52 4.33a1.74 1.74 0 0 0 3.08-.93c1.18-12.22-7.55-25.71-15.92-33.78q-7.72-7.45-14.56-9.73-19.09-6.36-28.49 9.42" vector-effect="non-scaling-stroke"/><path stroke="#aa7630" d="M423.6 252.82q-1.45 3.55-3.19 6.74-2.42 4.44-3 6.79c-4.94 20.11 3.79 39.66 23.59 46.99" vector-effect="non-scaling-stroke"/><path stroke="#efa73d" d="M441 313.34c-4.32.17-8.94-.79-12.6-.38q-4.42.5-8.65 2.47" vector-effect="non-scaling-stroke"/><path stroke="#321b0f" d="M465.45 301.44c-3.14-1.35-8.36-4.55-9.44-7.93q-1.19-3.7 2.24-6.11a.7.63-66.6 0 1 .26-.12l4.25-.97a.65.65 0 0 0 .43-.94q-1.15-2.14-1.71-5.07c-1.04-5.46 4.57-7.79 9.03-6.7a.37.37 0 0 0 .41-.54q-4.06-7.48-10.48-14.07c-5.97-6.12-10.38-9.76-18.32-10.56q-8.9-.89-15.75 4.7-1.61 1.32-2.77-.31" vector-effect="non-scaling-stroke"/><path stroke="#a56328" d="m450.89 314.67-9.89-1.33" vector-effect="non-scaling-stroke"/><path stroke="#f6dfad" d="M818.4 455.27q-2.42 2.27-2.75 6.12" vector-effect="non-scaling-stroke"/><path stroke="#817a68" d="M584.98 454.03q10.36-1.87 20.95-2.87 1.29-.12 1.9-.68a.93.93 0 0 0-.13-1.48c-2.78-1.75-8.7-1.47-12.26-1.54m9.47-8.29 5.02 1.69a.52.52 0 0 0 .55-.84l-3.3-3.63m94.38 5.12q.55.55.03.52m4.96 7.07q-5.98 2.25 3.96 3.81" vector-effect="non-scaling-stroke"/><path stroke="#f6dfad" d="M814.41 509.05q-.61-.7-1.06 1.05-.29 1.13-1.33 1.38a.77.73-73.3 0 0-.38.22l-4.35 4.5a2.38 2.11 86.6 0 0-.22.28q-4.78 7.7-11.31 12.02-10.25 6.8-20.34 12.4c-8.33 4.62-15.28 6.76-26.2 10.62q-7.2 2.54-13.17 3.94-9.21 2.16-15.59 3.1c-9.09 1.34-17.08 3.66-26.72 6.46q-19.76 5.75-36.14 17.17a.41.4 44.3 0 0 .01.67q18.68 12.19 40 13.65c7.16.5 13.88 1.14 21.51-.54a1.09 1.08 81.1 0 1 1.31.96l.05.6" vector-effect="non-scaling-stroke"/><path stroke="#f9d589" d="M720.48 597.53q-6.06 15.46-11.9 31.03-1.36 3.61-5.08 10.16-4.04 7.11-5.51 9.92-7.53 14.39-15.78 25.83c-4.23 5.86-7.33 10.88-11.13 15.58q-7.05 8.73-11.15 13.38-18.04 20.43-42.16 34.06-2.28 1.29-5.06 2.29" vector-effect="non-scaling-stroke"/><path stroke="#f6dfad" d="M612.71 739.78q-13.46.1-26.98.35-14.03.26-26.94 1.19-37.92 2.74-79.79 6.02-.89.07-18.98 1.02c-10.61.56-23.97 2.06-34.02 2.17q-15.66.18-21.83.57" vector-effect="non-scaling-stroke"/><path stroke="#f9d589" d="M404.17 751.1q7.48-11.12 15.22-21.59.14-.19 14.37-19.78 16.33-22.48 36.26-41.95 2.01-1.96 4.69-4.36" vector-effect="non-scaling-stroke"/><path stroke="#f6dfad" d="M474.71 663.42q26.92 7.19 53.37 1.19 12.18-2.76 23.87-8.87 11.2-5.85 21.41-13.88 9.09-7.15 14.13-17.61" vector-effect="non-scaling-stroke"/><path stroke="#817a68" d="M587.49 624.25q4.71-2.38 10.22-6.31c9.12-6.51 15.13-16.16 13.4-27.78-1.76-11.8-12.47-16.06-23.16-16.16" vector-effect="non-scaling-stroke"/><path stroke="#f6dfad" d="m587.95 574-1.58-.62a1.23 1.22.7 0 1-.69-.7q-.46-1.22-1.88-2.12c-4.28-2.7-9.49-5.82-15.15-7.6-7.58-2.39-12.23-4.14-18.48-5.53q-5.01-1.12-6.39-1.28-26.58-3.15-34.47-3.49-12.82-.54-40.06-2.84-27.61-2.32-53.24-11.32-24.33-8.53-44.75-24.61c-7.05-5.55-13.5-12.5-18.94-19.71q-8.09-10.72-11.38-15.88-1.52-2.39-3.76-8.16a2.89 2.54-78.1 0 0-.36-.64q-.91-1.18-1.68-3.29m54.55-86.46q-1.12-6.3.3-13.26" vector-effect="non-scaling-stroke"/><path stroke="#f1c469" d="M574.69 238.69q-.21.42-.5.64-.22.16-.76.13c-1.66-.09-2.76 2.32-3.5 3.61a.81.54-19.8 0 1-.14.19l-6.47 6.4-.04.04q-2.68 2.28-8.98 3.85c-15.67 3.92-30.29 7.96-45 14.16q-.28.11-.38.42-.26.78-1.09.1" vector-effect="non-scaling-stroke"/><path stroke="#ecb161" d="m474.94 662.05 12.89-9.11" vector-effect="non-scaling-stroke"/><path stroke="#7a6948" d="M587.95 574q-17.37-.47-34.42-4.11-17.29-3.7-34.59-7.31-6.28-1.31-12.69-1.69-1.49-.09-1.16 1.09m82.4 62.27q-19.25 10.89-39.93 18.57-29.55 10.97-59.73 10.12" vector-effect="non-scaling-stroke"/><path stroke="#784c1c" d="M487.83 652.94q-20.33-.79-37.44-9.51m-3.1-3.87q24.28 4.28 43.21 3.77 29.23-.79 59.1-12.37 8.77-3.4 17.47-7.21" vector-effect="non-scaling-stroke"/><path stroke="#7a6948" d="M567.07 623.75c10.83-3.66 25.07-9.94 32.2-19.26a.88.87 27.3 0 0-.44-1.37q-2.64-.81-3.8-.12" vector-effect="non-scaling-stroke"/><path stroke="#817a68" d="M595.03 603q-4.18-.51-7.95.42a1.56 1.56 0 0 1-1.53-2.56c2.96-3.26 11.67-3.14 14.83-2.28a1.58 1.58 0 0 0 1.92-1.03l.78-2.37a2.26 2.26 0 0 0-1.69-2.91q-6.22-1.29-14.37-1.09a1.24 1.24 0 0 1-1.12-1.83q.16-.3 1.44-.77 6.2-2.26 13.22-1.36a.42.42 0 0 0 .33-.74q-4.65-4.03-11.08-4.55c-8.31-.67-15.39.74-22.65.14" vector-effect="non-scaling-stroke"/><path stroke="#ecb161" d="m725.07 582.04-3.42 12.63" vector-effect="non-scaling-stroke"/><path stroke="#f1c469" d="M721.65 594.67q.11.79-1.17 2.86m60.57 7.68q-.1 1.19.57 1.89" vector-effect="non-scaling-stroke"/><path stroke="#efa73d" d="M781.62 607.1q-11.39 4.57-22.96 8.95-5.3 2-9.38 3.19c-8.05 2.34-15.06 2.71-22.72 3.81" vector-effect="non-scaling-stroke"/><path stroke="#f1c469" d="M688.34 686.96q7.25 7.26 10.53 15.17c4.46 10.78 8.01 18.77 6.18 30.54q-.18 1.18.87 1.61.5.2.95-1.06" vector-effect="non-scaling-stroke"/><path stroke="#f9d589" d="M692.37 764.3q-1.24-.56-2.38 1.2-1.9 2.95-3.07 4.09" vector-effect="non-scaling-stroke"/><path stroke="#efa73d" d="m685.99 768.76-.9-.64a1.45 1.42-31.7 0 0-1.07-.24c-4.23.71-6.64 1.25-11.84.41-5.56-.89-11.79-3.51-17.58-6.36q-15.22-7.5-32.08-13c-2.22-.73-4.76-2.09-7.13-1.12q-3.78 1.54-6.13 1.26" vector-effect="non-scaling-stroke"/><path stroke="#f1c469" d="M611.29 741.95q.68-1.51 1.42-2.17" vector-effect="non-scaling-stroke"/><path stroke="#7d5f24" d="M513.07 566.03q25.99 11.86 54.09 16.04" vector-effect="non-scaling-stroke"/><path stroke="#f9d589" d="M567.16 582.07q-11.33 9.89-8.86 27.56" vector-effect="non-scaling-stroke"/><path stroke="#f1c469" d="M558.3 609.63q.58 4.61 3.07 9.23" vector-effect="non-scaling-stroke"/><path stroke="#efa73d" d="M561.37 618.86q-4.9.8-7.2 1.81-12.86 5.67-24.81 8.44-18.36 4.26-23.35 5.12-24.75 4.26-51.01 3.63-3.69-.09-7.71 1.7" vector-effect="non-scaling-stroke"/><path stroke="#7d5f24" d="M447.29 639.56q-2.12.74 3.1 3.87" vector-effect="non-scaling-stroke"/><path stroke="#efa73d" d="M450.39 643.43c-1.92 3.53 10.78 12.14 13.31 13.86q5.32 3.6 11.24 4.76" vector-effect="non-scaling-stroke"/><path stroke="#f1c469" d="m474.94 662.05-.23 1.37m-70.54 87.68q-.61.4-1.32 1.51" vector-effect="non-scaling-stroke"/><path stroke="#efa73d" d="M402.85 752.61q.2-1.57-1.34-1.35-24.17 3.46-45.76 4.17-18.69.61-36.53-3.13c-13.34-2.8-25.26-8.37-36.72-15.31q-8.39-5.09-13.86-11.87-.87-1.08-4.47-1.89" vector-effect="non-scaling-stroke"/><path stroke="#ecb161" d="M473 564.89q15.88-.67 32.09-2.91" vector-effect="non-scaling-stroke"/><path stroke="#784c1c" d="M505.09 561.98q2.67 2.26 7.98 4.05" vector-effect="non-scaling-stroke"/><path stroke="#efa73d" d="M513.07 566.03q-13.54 6.08-23.8 9.5c-36.19 12.07-76.22 12.5-111.4-2.38-22.65-9.58-42.43-28.15-51.4-51.33q-5.87-15.16-5.76-32.07.02-3.88-.32-7.86" vector-effect="non-scaling-stroke"/><path stroke="#ecb161" d="M320.39 481.89c2.85-4.91 1.31-9.41 2.02-14.56q.08-.62-.37-1.05-.33-.32-.75-.05" vector-effect="non-scaling-stroke"/><path stroke="#f6dfad" d="M595.03 603q-8.35 2.6-10.82 4.47c-5.91 4.45-11.72 6.51-18.5 9.53q-2.87 1.28-4.58-.36a1.93 1.77-80.7 0 1-.44-.67l-2.39-6.34" vector-effect="non-scaling-stroke"/><path stroke="#ecb161" d="m567.07 623.75-5.7-4.89" vector-effect="non-scaling-stroke"/><path stroke="#efa73d" d="m772.95 575.82-4.9.9a1.01.98-67.5 0 0-.42.18q-5.89 4.14-12.1 7.8-7.91 4.66-19.35 8.29-7.19 2.28-14.53 1.68" vector-effect="non-scaling-stroke"/><path stroke="#f6dfad" d="M811.83 588.43q-3.18.47-5.64 3.52a3.4 3.31-86.3 0 1-.82.74q-8.75 5.76-20.52 11.64-1.97.98-3.8.88" vector-effect="non-scaling-stroke"/><path stroke="#f9d589" d="M781.05 605.21q-2.07-3.86-3.06-8.5-2.31-10.88 2.5-21.27" vector-effect="non-scaling-stroke"/><path stroke="#ecb161" d="m788.68 612.55-7.06-5.45" vector-effect="non-scaling-stroke"/><path stroke="#f6dfad" d="M744.2 755.48q-2.93.03-4.65 1.07-15.04 9.04-33.97 20.31c-3.39 2.02-6.49 3.26-10.08 3.91q-7.88 1.44-11.87-4.82" vector-effect="non-scaling-stroke"/><path stroke="#ecb161" d="M402.85 752.61q-6.47 6.85-13.03 13.71-2.44 2.54-7.71 6.96" vector-effect="non-scaling-stroke"/><path stroke="#f1c469" d="M320.39 481.89q-7.33 7.55-14.46 15.21-7.47 8.02-12.79 15.27-9.73 13.26-11.57 16.2-3.19 5.08-10.19 17.73-5.93 10.73-8.88 18.42-5.08 13.28-9.33 26.17-1.22 3.67-2.15 8.35-3.28 16.46-5.49 30.96c-1.16 7.57-.41 15.08-.46 22.36q-.01 1.54.81 7.33.74 5.19-.32 10.16" vector-effect="non-scaling-stroke"/><path stroke="#7d5f24" d="M662.38 259.25q10.63 4.99 20.6 11.99a.52.51-66.6 0 0 .8-.32q1.75-8.43 6.91-14.7 5.57-6.77 14.98-4.55" vector-effect="non-scaling-stroke"/><path stroke="#7a6948" d="m705.67 251.67 4.06 3.43" vector-effect="non-scaling-stroke"/><path stroke="#7d5f24" d="M709.73 255.1q.86 1.34.97 2.18" vector-effect="non-scaling-stroke"/><path stroke="#321b0f" d="M710.7 257.28q-.09.9-1.19 1.19a1.38 1.36 48.9 0 1-.92-.07c-4.28-1.89-7.63-3.13-11.43.52-4.29 4.12-5.74 11.8-5.68 17.52a2.08 2.07 20.6 0 0 .71 1.56q3.18 2.79 16.24 14.39 1.13 1.01 3.14 3.24 1.55 1.73 3.26 3.18" vector-effect="non-scaling-stroke"/><path stroke="#7d5f24" d="m714.83 298.81 4.85 5.79a.28.28 0 0 0 .45-.03q6.44-10.75 6.27-23.34" vector-effect="non-scaling-stroke"/><path stroke="#7a6948" d="M726.4 281.23q-.29-21.03-16.12-33.99-9.47-7.75-21.23-7.75c-11.82-.01-23.05 7.7-29.64 17.45a.5.49 32 0 0 .17.71l2.8 1.6" vector-effect="non-scaling-stroke"/><path stroke="#f1c469" d="M726.4 281.23q-.02.51-.11.66a.61.61 0 0 1-1.13-.23c-.64-5.2-2.2-12.26-5.41-16.89q-2.77-3.99-5.62-7.3a2.32 2.21-6.1 0 0-.69-.53l-3.71-1.84m-4.06-3.43q-4.92-4.32-12.73-5.87-9.4-1.86-17.09 1.27-4.23 1.73-7.41 6.51a3.42 3.37 86.3 0 1-.59.68l-5.47 4.99" vector-effect="non-scaling-stroke"/><path stroke="#aa7630" d="M714.83 298.81q4.01-6.43 4.26-13.81.52-15.32-8.39-27.72" vector-effect="non-scaling-stroke"/><path stroke="#817a68" d="M226.27 523.07c-7.53 12.66-5.31 29.45 1.91 41.7" vector-effect="non-scaling-stroke"/><path stroke="#7a6948" d="M228.18 564.77q3.95 5.94 9.78 9.47a.52.51-66.9 0 0 .76-.31l2.92-10.46" vector-effect="non-scaling-stroke"/><path stroke="#784c1c" d="M241.64 563.47q6.94-23.32 20.23-43.85" vector-effect="non-scaling-stroke"/><path stroke="#7a6948" d="m261.87 519.62 1.99-3.23a.55.55 0 0 0-.14-.73q-5.41-3.9-12.11-4.96-17.08-2.71-25.34 12.37" vector-effect="non-scaling-stroke"/><path stroke="#ecb161" d="m261.87 519.62-4.83-.47" vector-effect="non-scaling-stroke"/><path stroke="#f1c469" d="M257.04 519.15q-12.68-2.74-24.17 2.21-1.83.79-4.8 3.47" vector-effect="non-scaling-stroke"/><path stroke="#f6dfad" d="M228.07 524.83q-.16-.8-1.8-1.76m10.63 27.51q-5.68 6.41-8.72 14.19" vector-effect="non-scaling-stroke"/><path stroke="#efa73d" d="M257.04 519.15q-8.78 10.04-12.63 16.77-3.48 6.09-3.92 8.34-.7 3.55-1.8 7.08" vector-effect="non-scaling-stroke"/><path stroke="#f1c469" d="m238.69 551.34-1.79-.76" vector-effect="non-scaling-stroke"/><path stroke="#f9d589" d="M236.9 550.58q-10.67-10.74-8.83-25.75" vector-effect="non-scaling-stroke"/><path stroke="#ecb161" d="M241.64 563.47q-.54-3.63-.59-7.32-.01-1.19-2.36-4.81" vector-effect="non-scaling-stroke"/><path stroke="#817a68" d="M250.56 736.91q-7 11.91-11.15 24.81c-1.24 3.86-3.65 12.49-2.25 16.85a1.45 1.44-33.3 0 0 2.46.51l6.62-7.57a1.25 1.25 0 0 1 2.09.33q.17.42-.2 1.82-1.58 5.92-5.77 10.56-.72.79-.58 1.56c.68 4.01 5.61 1.01 7.1-.47q3.74-3.71 7.33-9.11.68-1.02 1.75-1.12.41-.04.89 1.22" vector-effect="non-scaling-stroke"/><path stroke="#7a6948" d="M258.85 776.3q-.39 3.6-1.96 6.8a.29.29 0 0 0 .45.34q3.67-3.38 6.18-7.22 5.94-9.07 11.3-19.73a.83.81-53.8 0 0-.13-.93q-10.48-11.17-18.52-24.29a.92.92 0 0 0-1.54-.05l-4.07 5.69" vector-effect="non-scaling-stroke"/><path stroke="#f6dfad" d="m258.85 776.3 4.19-3.9a1.4 1.36-16.9 0 0 .43-.78q.4-2.41-1.06-5.93-5.44-13.08-11.05-23.94a1.74 1.65-64 0 1-.16-.51l-.64-4.33" vector-effect="non-scaling-stroke"/><path stroke="#f1c469" d="M641.164 273.475a6.94 5.22-148.8 0 0 3.232 8.06 6.94 5.22-148.8 0 0 8.64-.87 6.94 5.22-148.8 0 0-3.232-8.06 6.94 5.22-148.8 0 0-8.64.87" vector-effect="non-scaling-stroke"/><path stroke="#f1c469" d="M661.226 283.847a13.58 7.08-140.8 0 0 6.05 14.07 13.58 7.08-140.8 0 0 14.998 3.096 13.58 7.08-140.8 0 0-6.05-14.07 13.58 7.08-140.8 0 0-14.998-3.096" vector-effect="non-scaling-stroke"/><path stroke="#7d5f24" d="M595.816 321.279a10.72 6.94-138.3 0 0 3.387 12.313 10.72 6.94-138.3 0 0 12.621 1.95 10.72 6.94-138.3 0 0-3.387-12.314 10.72 6.94-138.3 0 0-12.621-1.95m99.347 2.982a10.06 6.55-49.5 0 0-11.514 3.396 10.06 6.55-49.5 0 0-1.552 11.904 10.06 6.55-49.5 0 0 11.514-3.396 10.06 6.55-49.5 0 0 1.552-11.904m-109.984 19.381a31.76 27.1-84.6 0 0-29.969 29.069 31.76 27.1-84.6 0 0 23.991 34.169 31.76 27.1-84.6 0 0 29.969-29.069 31.76 27.1-84.6 0 0-23.991-34.169m114.227 6.406a29.99 20.96-94.1 0 0-18.762 31.412 29.99 20.96-94.1 0 0 23.05 28.414 29.99 20.96-94.1 0 0 18.762-31.412 29.99 20.96-94.1 0 0-23.05-28.414" vector-effect="non-scaling-stroke"/><path stroke="#f9d589" d="M449.339 378.07a14.9 6.31-160.8 0 0 11.996 10.859 14.9 6.31-160.8 0 0 16.146-1.059 14.9 6.31-160.8 0 0-11.996-10.859 14.9 6.31-160.8 0 0-16.146 1.059m321.705 30.057a12.6 5.47-6.3 0 0-13.124-4.054 12.6 5.47-6.3 0 0-11.924 6.82 12.6 5.47-6.3 0 0 13.124 4.054 12.6 5.47-6.3 0 0 11.924-6.82" vector-effect="non-scaling-stroke"/><path stroke="#818180" d="M591.522 355.621a9.69 8.64-89.1 0 0-8.79 9.553 9.69 8.64-89.1 0 0 8.486 9.825 9.69 8.64-89.1 0 0 8.79-9.553 9.69 8.64-89.1 0 0-8.486-9.825m103.666 3.919a9.75 7.54-92.6 0 0-7.09 10.082 9.75 7.54-92.6 0 0 7.974 9.398 9.75 7.54-92.6 0 0 7.09-10.082 9.75 7.54-92.6 0 0-7.974-9.398" vector-effect="non-scaling-stroke"/><path stroke="#817a68" d="M644.81 426.28q-1.16.86-1.02 2.02c.97 8.11 8.83 14.32 16.13 17.58a.8.79 13.3 0 1 .47.75q-.2 6.2-1.76 8.68c-7.03 11.14-24.08 13.83-32.87 2.92q-1.4-1.73-2.99-4.4a1.29 1.29 0 0 0-2.28.13q-.47 1.04-.38 2.58c.32 5.62 3.08 9.53 7.1 13.3a1.69 1.68 22.2 0 1 .53 1.25c-.19 12.14-.93 23.43 3.74 34.42 3.73 8.79 12.36 15.38 21.98 12.57 9.21-2.69 15.15-10.68 19.22-19.18q5.49-11.47 8.74-24.02a.88.87-88.2 0 1 .66-.63q5.36-1.11 7.23-2.16 10.11-5.67 8.53-17.33-.21-1.54-1.25-2.3a1.04 1.04 0 0 0-1.63.57c-3.75 14.26-20.23 17.47-26.6 3.14a3.2 3.17 35.3 0 1-.26-1.48l.53-7.82a.99.98-9 0 1 .62-.85c6.18-2.36 15.25-9.67 14.67-17.36a.92.9-75.4 0 0-.38-.66q-.54-.39-1.02-.12" vector-effect="non-scaling-stroke"/><path stroke="#f6dfad" d="M682.52 427.88q-.21-1.86-2.39-3.01-11.49-6.08-24.08-4.41-4.19.56-7.98 2.38-2.82 1.35-3.26 3.44" vector-effect="non-scaling-stroke"/><path stroke="#7a6948" d="M682.52 427.88q-2.45 2.61-9.95 8.41-5.44 4.21-11.3 2.01-5.88-2.21-11.69-7.88-2.1-2.05-4.77-4.14" vector-effect="non-scaling-stroke"/><path stroke="#f6e5c5" d="M666.895 426.518a4.72 2.86-177.3 0 0 4.58 3.079 4.72 2.86-177.3 0 0 4.85-2.635 4.72 2.86-177.3 0 0-4.58-3.079 4.72 2.86-177.3 0 0-4.85 2.635" vector-effect="non-scaling-stroke"/><path stroke="#321b0f" d="M639.04 474.81q.28.09 6.36 1.72c2.6.69 8.37 3.85 10.98 6.31 2.13 2.01 4.94 3.61 7.37 6.07q1.83 1.84 2.49 2.62a.54.54 0 0 0 .87-.08q4.65-7.81 6.59-17.3a1.01 1 19.5 0 0-.52-1.09q-4.66-2.46-8.69-7.03a1.93 1.92 48.5 0 0-2.72-.17c-4.32 3.86-11.46 8.56-17.29 8.4q-4.32-.12-5.34-.07a.32.32 0 0 0-.1.62" vector-effect="non-scaling-stroke"/><path stroke="#79463b" d="M635.57 481.15c-.05 8.76 1.59 29.15 13.86 28.95 5.12-.08 9.89-4.57 12.45-8.74a1.06 1.04-44.5 0 0 .02-1.06q-8.62-14.98-25.72-19.61a.48.48 0 0 0-.61.46" vector-effect="non-scaling-stroke"/><path stroke="#817a68" d="M795.18 577.79c1.55 6.15-3.62 12.25-7.44 17.08a1.01 1.01 0 0 0 .45 1.58q1.63.58 3.45-.3c6.49-3.16 11.2-10.94 8.22-17.88a3.21 3.21 0 0 0-2.73-1.92l-.7-.05a1.2 1.2 0 0 0-1.25 1.49" vector-effect="non-scaling-stroke"/></g><path fill="#fdfdfd" d="M610.48 230.61c.97-9.36-8.34-8.99-14.48-7.11q-7.05 2.16-12.64 5.86a.48.48 0 0 1-.74-.29q-1.6-7.01-7.94-7.03c-5.63-.01-10.92 6.53-14.73 10.91q-2.51 2.88-7.15 7.08a4.16 4.1 18.8 0 1-2.11 1.02q-22.87 3.82-45.31 11.86a.85.83-22.2 0 1-1.05-.43c-8.26-17.69-23.11-31.35-42.42-35.68-17.42-3.91-36.23 1.27-49.77 13.07-18.29 15.96-26.27 40.79-19.95 64.46q5.05 18.96 22.29 29.46a.83.82-57.2 0 1 .25 1.17q-1.43 2.12-17.95 24.81-1.94 2.67-3.27 3.2-45.11 17.87-62.36 63.21-6.08 15.99-7.16 33.25a2.5 2.5 0 0 1-.98 1.83c-20.34 15.36-38.26 34.53-53.3 55.14a.69.69 0 0 1-.92.19c-10.99-6.65-25.47-9.06-37.17-2.74-11.4 6.14-17.96 17.73-19.6 30.42q-2.61 20.1 8.48 36.99c4.11 6.26 8.68 9.17 14.78 12.85a.83.83 0 0 1 .38.89q-14.88 70.43 14.61 135.82a.72.72 0 0 1-.18.83q-3.34 3.05-5.05 5.88-6.94 11.5-13.08 27.88-4.17 11.11-3.9 23.06.14 6.28 4.86 8.91a1.64 1.62 3 0 1 .71.78q4.62 10.47 15.78 6.65a4.21 4.14 35.2 0 1 1.34-.22c5.83-.02 10.36-2.44 14.44-6.93q9.9-10.91 16.48-24.08a.48.47 32.7 0 1 .73-.15c36.34 29.61 84.44 27.46 126.89 15.28a3.17 3.09 36.3 0 1 .86-.12q1.83-.01 6.73.49c42.64 4.34 81.67.11 127.68-8.22q5.56-1.01 10.47-.89c31.96.74 63.09 9.04 95.19 19.79q8.87 2.97 19.19.96a.63.63 0 0 1 .71.41q3.51 9.86 12.76 12.19c8.81 2.22 18.02-1.31 26.61-5.59q19.33-9.64 35.85-23.41c8.32-6.94 20.19-18.04 16.99-30.28-1.31-5.01-6.6-8.18-11.44-8.53a2.14 2.13 64.9 0 1-1.04-.38q-3.28-2.35-5.27-2.28c-10.44.35-18.81 4.4-28.06 9.05a.34.33 80.2 0 1-.48-.34q.14-1.32.55-2.92c5.58-21.79-1.73-45.36-16-62.09a.91.91 0 0 1-.02-1.16q9.47-11.93 15.76-25.17a1.38 1.37 8.9 0 1 1.05-.76q50.24-6.22 88.75-38.84 8.26-7 12.63-15.84c5.06-10.23 5.14-23.45-5.91-29.62-7.82-4.37-19.31-1.69-27.6.05q-5.31 1.11-9.33 1.21a.27.27 0 0 1-.14-.5c12.08-6.9 22.68-14.86 32.15-25.44 28.96-32.38 30.97-81.45 9.05-117.66-7.31-12.08-17.54-22.96-29.38-30.43q-11.51-7.25-24.84-12.36-4.1-1.57-5.67-5.64-2.16-5.6-6.69-17.06-9.23-23.37-23.45-43.52a.73.72-45.5 0 1 0-.83q12.1-17.33 9.71-37.98c-2.46-21.23-18.03-41.71-39.95-45.39-20.1-3.37-36 6.5-46.61 22.82a.27.26-64.7 0 1-.3.11l-21.01-6.88a.38.38 0 0 1-.17-.61q1.91-2.22 2.32-3.15c2.73-6.19-1.73-10.21-7.47-11.09q-5.83-.89-12.37.37a.53.53 0 0 1-.62-.57m-355.3 134.07q.02.28 2.07.28 37.14.1 84.4-.31c5.72-.05 14.8.89 14.47-5.27-.32-6.17-9.25-4.29-14.94-3.74q-47.05 4.55-83.97 8.54-2.04.22-2.03.5m25.59 20.73q.02.4 1.73.49 17.62.94 35.27 1.94 7.13.4 6.96-4.08t-7.24-3.54q-17.53 2.31-35.03 4.57-1.7.21-1.69.62M128.39 577.14q.01.22.35.24 33.95 1.52 71.49 1.93c3.07.03 6.03-1.75 5.91-5.1-.13-3.35-3.22-4.91-6.28-4.65q-37.4 3.24-71.14 7.32-.34.04-.33.26m48.49 24.34q.01.36.27.4 12.54 1.9 26.07 2.91c2.45.19 4.66-1.31 4.6-3.98s-2.33-4.06-4.77-3.77q-13.47 1.59-25.91 4.04-.27.05-.26.4m31.96 176.29-8.27-10.08c-7.68-9.32-14.02-22.79-13.9-35.16.04-4.21.9-8.91 4.47-11.29 2.52-1.67 6.88-.82 9.5.59a.3.29 4.1 0 0 .42-.36c-1.63-4.39-5.7-9.02-10.53-9.29-7.48-.42-11.94 7.22-12.82 13.79q-1.36 10.31 2.71 20.91 7.91 20.61 28.07 31.31a.28.28 0 0 0 .35-.42m-27.13 2.15q-.28-.75-.57-1.06c-6.89-7.41-11.24-12.64-14.67-21.03-1.18-2.88-5.27-3.88-7.06-.9q-1.31 2.18-.38 4.84c3.12 8.9 13.76 15.8 22.26 18.59a.34.34 0 0 0 .42-.44m458.74 33.44q-2.76-1.57-6.35-3.47-12.58-6.65-19.63-18.11-1.13-1.85-2.04-2.4c-2.5-1.52-5.43-.81-6.52 2.04-1.49 3.95 2.91 8.76 6.03 11.37q12.29 10.28 28.25 11.45a.47.47 0 0 0 .26-.88m-26.71 1.31q-.04-.49-.52-.68-10.93-4.27-19.57-10.59-2.48-1.82-4.64-2.01c-4.44-.41-6.5 3.44-3.7 6.85q1.72 2.1 5.43 3.52 10.83 4.15 22.58 3.4.46-.02.42-.49"/><path fill="#050403" d="M611.1 231.18q6.54-1.26 12.37-.37c5.74.88 10.2 4.9 7.47 11.09q-.41.93-2.32 3.15a.38.38 0 0 0 .17.61l21.01 6.88a.27.26-64.7 0 0 .3-.11c10.61-16.32 26.51-26.19 46.61-22.82 21.92 3.68 37.49 24.16 39.95 45.39q2.39 20.65-9.71 37.98a.73.72-45.5 0 0 0 .83q14.22 20.15 23.45 43.52 4.53 11.46 6.69 17.06 1.57 4.07 5.67 5.64 13.33 5.11 24.84 12.36c11.84 7.47 22.07 18.35 29.38 30.43 21.92 36.21 19.91 85.28-9.05 117.66-9.47 10.58-20.07 18.54-32.15 25.44a.27.27 0 0 0 .14.5q4.02-.1 9.33-1.21c8.29-1.74 19.78-4.42 27.6-.05 11.05 6.17 10.97 19.39 5.91 29.62q-4.37 8.84-12.63 15.84-38.51 32.62-88.75 38.84a1.38 1.37 8.9 0 0-1.05.76q-6.29 13.24-15.76 25.17a.91.91 0 0 0 .02 1.16c14.27 16.73 21.58 40.3 16 62.09q-.41 1.6-.55 2.92a.34.33 80.2 0 0 .48.34c9.25-4.65 17.62-8.7 28.06-9.05q1.99-.07 5.27 2.28a2.14 2.13 64.9 0 0 1.04.38c4.84.35 10.13 3.52 11.44 8.53 3.2 12.24-8.67 23.34-16.99 30.28q-16.52 13.77-35.85 23.41c-8.59 4.28-17.8 7.81-26.61 5.59q-9.25-2.33-12.76-12.19a.63.63 0 0 0-.71-.41q-10.32 2.01-19.19-.96c-32.1-10.75-63.23-19.05-95.19-19.79q-4.91-.12-10.47.89c-46.01 8.33-85.04 12.56-127.68 8.22q-4.9-.5-6.73-.49a3.17 3.09 36.3 0 0-.86.12c-42.45 12.18-90.55 14.33-126.89-15.28a.48.47 32.7 0 0-.73.15q-6.58 13.17-16.48 24.08c-4.08 4.49-8.61 6.91-14.44 6.93a4.21 4.14 35.2 0 0-1.34.22q-11.16 3.82-15.78-6.65a1.64 1.62 3 0 0-.71-.78q-4.72-2.63-4.86-8.91-.27-11.95 3.9-23.06 6.14-16.38 13.08-27.88 1.71-2.83 5.05-5.88a.72.72 0 0 0 .18-.83Q220.78 655.43 235.66 585a.83.83 0 0 0-.38-.89c-6.1-3.68-10.67-6.59-14.78-12.85q-11.09-16.89-8.48-36.99c1.64-12.69 8.2-24.28 19.6-30.42 11.7-6.32 26.18-3.91 37.17 2.74a.69.69 0 0 0 .92-.19c15.04-20.61 32.96-39.78 53.3-55.14a2.5 2.5 0 0 0 .98-1.83q1.08-17.26 7.16-33.25 17.25-45.34 62.36-63.21 1.33-.53 3.27-3.2 16.52-22.69 17.95-24.81a.83.82-57.2 0 0-.25-1.17q-17.24-10.5-22.29-29.46c-6.32-23.67 1.66-48.5 19.95-64.46 13.54-11.8 32.35-16.98 49.77-13.07 19.31 4.33 34.16 17.99 42.42 35.68a.85.83-22.2 0 0 1.05.43q22.44-8.04 45.31-11.86a4.16 4.1 18.8 0 0 2.11-1.02q4.64-4.2 7.15-7.08c3.81-4.38 9.1-10.92 14.73-10.91q6.34.02 7.94 7.03a.48.48 0 0 0 .74.29q5.59-3.7 12.64-5.86c6.14-1.88 15.45-2.25 14.48 7.11a.53.53 0 0 0 .62.57m-204.7 23.39q-7.65 13.75-5.83 29.43c1.49 12.79 8.14 24.53 19.18 31.43q3.06 1.96 6.6 3.49 7.49 3.24 15.17 6.04.64.24.75 1.34l-.75.75q-7.27 2.16-13.67 1.07a2.78 2.77 22.9 0 0-2.69 1.09l-14.28 19.35a.52.51 14.2 0 0 .49.81q8.6-1.21 17.42-.94 13.69.34 26.64 4.69 4.46 1.49 7.13 3.53a.86.86 0 0 1 .19 1.16q-.35.5-1.28.51-5.33.08-10.71-.57-19.16-2.51-37.51.98-12.07 2.3-23.26 7.76c-29.07 13.66-48.05 41.46-53.35 72.83q-2.32 13.8-1.5 26.89.09 4.21 1.02 9.46 3.8 21.56 14.98 38.72c14.28 21.9 37 37.46 62.44 44.24q20.44 5.45 35.35 5.24 14.75-.21 24.07 1.02-.42 1.34-1.4 1.72-4.94 1.87-10.1 2.7c-24.31 3.92-50.85.96-73.62-9.7q-41.13-19.26-57.12-61.55-5.7-15.06-6.87-32.85a.53.52-6.5 0 0-.61-.48q-1.05.18-1.99 1.5-23.82 20.88-40.97 44.84c-32.47 45.35-46.04 103.66-34.76 158.98q4.74 27.76 18.61 53.18c9.35 16.56 23.87 33.75 40.83 42.08q26.61 13.07 57.75 10.3 13.5-1.2 19.36-2.33 12.85-1.55 23.38-4.29 15.36-3.99 37.79-10.18 4.93-1.36 8.73-1.35a.46.46 0 0 1 .29.82c-5.35 4.48-11.52 7.42-17.82 10.14a.29.29 0 0 0 .03.54q.52.17 1.27.23 9.91.85 25.22.37 43.62-1.37 88.12-10.92 26.86-5.77 62.17-16.69l10.72-1.92a.56.56 0 0 1 .49.96c-3.52 3.41-8.86 5.91-13.24 8.08q-13.06 6.47-26.79 11.34a.31.3 39.7 0 0 .06.59c5.6.93 10.51 1.41 16.09 2.72 12.55 2.95 25.75 5.71 38.05 10.12q11.4 4.09 15.75 5.49 6.23 2 12.29 1.42 4.69-.44 11.33-4.64 5.22-3.3 9.95-7.35.5.75.93.83l-3.29 6.36-4.15 9.19a1.8 1.66-35.2 0 0-.15.7c.1 8.4 7.99 10.46 14.92 8.56q5.31-1.45 10.71-4.19 18.08-9.17 35.36-22.88 6.21-4.91 11.39-11.27a.22.22 0 0 0-.3-.32q-3.32 2.38-7.66 4.2a1.26 1.26 0 0 1-1.58-.54q-.33-.58-.02-1.11.88-1.53 2.05-2.81 4.05-3.51 8.32-6.71.58-.44 1.52-1.98a1.1 1.1 0 0 0-.28-1.46l-1.65-1.21a1.27 1.27 0 0 0-1.76.25q-5.68 7.46-16.53 11.2-1.11.39-2.08-.17a1.23 1.23 0 0 1-.11-2.05c5.28-3.89 9.25-6.15 11.72-9.99a1.01 1 13.4 0 0-.95-1.54q-2.59.25-4.52.81c-15.29 4.41-29.86 13.42-43.24 22.02q-1.39.9-2.27-.35 2.68-5.91 7.44-10.71a4.47 4.14-10.1 0 0 .72-.95q4.91-8.97 6.34-19.42c2.11-17.18-2.7-35.98-14.03-49.4a.72.72 0 0 0-1.03-.06l-3.47 3.2c-2.05 1.66-5.72 4.78-8.34 5.26a.99.99 0 0 1-1.08-1.38q1.6-3.59 3.92-7 13.16-19.32 25.21-40.25c7.24-12.57 13.49-25.29 20.5-38.3a.73.73 0 0 1 1.37.4q-.65 8.62-3.36 17.36l-5.51 15.44a.63.63 0 0 0 .72.83q14.48-2.97 28.82-7.51 6.29-1.98 12.81-5.14 13.09-6.34 25.28-14.12c9.11-5.38 19.4-13.96 23.15-24.12 2.72-6.55 2.06-14.94-6.26-16.53-7.69-1.46-17.28 1.92-25.08 3.54l-7.54.38-18.57-.9a3.87 3.67-52.5 0 0-1.45.23q-14.11 5.25-27.86 6.89-17.42 2.25-33.25.33-2.75-.34-4.8-1.37a.97.97 0 0 1 .1-1.77q1.56-.6 4.13-.94 13.63-1.83 15.28-2.03 33.42-3.96 62.9-19.31c19.25-10.03 36.62-27.38 44.98-47.9 7.02-16.94 7.77-35.99 3.99-53.78q-9.62-38.42-42.91-57.72c-4.96-2.87-10.53-5.24-16.73-8.05q-8.11-3.67-11.77-11.76c-5.14-11.34-9.02-22.51-14.54-33.31q-7.51-14.7-12.92-22.43-31.27-44.67-82.85-62.51c-7.09-2.45-13.72-3.95-20.28-5.56q-3.46-.85-4.17-3.49c-1.16-4.31 4.04-8.16 7.1-10.07a.29.29 0 0 0-.17-.54q-9.46.56-17.93 5.17-2.63 1.44-5.42 3.51-1.66-1.28-1.33-2.5 1.12-4.19 3.47-9.08l2.23-3.92a.32.32 0 0 0-.36-.47q-9.21 2.4-16.3 8.26-4.09 3.38-6.79 5.46a1.28 1.28 0 0 1-2.06-.91l-.26-3.45q.58-1.11.28-3.21l-.31-6.4a.45.45 0 0 0-.8-.26c-5.26 6.69-11.54 14.13-19.57 18.98a4.38 4.27-64.2 0 1-1.54.56q-21.13 3.36-44.33 11.7a.79.78-11.5 0 0-.51.76l.2 4.2q.36 2.82-1.09 3.8-2.66-1.25-4.22-4.07c-6.17-11.19-11.01-19.89-20.56-29.07-18.11-17.41-45.21-16.45-63.39-.82q-8.17 7.03-12.17 16.5m255.98 4.68q10.63 4.99 20.6 11.99a.52.51-66.6 0 0 .8-.32q1.75-8.43 6.91-14.7 5.57-6.77 14.98-4.55l4.06 3.43q.86 1.34.97 2.18-.09.9-1.19 1.19a1.38 1.36 48.9 0 1-.92-.07c-4.28-1.89-7.63-3.13-11.43.52-4.29 4.12-5.74 11.8-5.68 17.52a2.08 2.07 20.6 0 0 .71 1.56q3.18 2.79 16.24 14.39 1.13 1.01 3.14 3.24 1.55 1.73 3.26 3.18l4.85 5.79a.28.28 0 0 0 .45-.03q6.44-10.75 6.27-23.34-.29-21.03-16.12-33.99-9.47-7.75-21.23-7.75c-11.82-.01-23.05 7.7-29.64 17.45a.5.49 32 0 0 .17.71zM226.27 523.07c-7.53 12.66-5.31 29.45 1.91 41.7q3.95 5.94 9.78 9.47a.52.51-66.9 0 0 .76-.31l2.92-10.46q6.94-23.32 20.23-43.85l1.99-3.23a.55.55 0 0 0-.14-.73q-5.41-3.9-12.11-4.96-17.08-2.71-25.34 12.37m24.29 213.84q-7 11.91-11.15 24.81c-1.24 3.86-3.65 12.49-2.25 16.85a1.45 1.44-33.3 0 0 2.46.51l6.62-7.57a1.25 1.25 0 0 1 2.09.33q.17.42-.2 1.82-1.58 5.92-5.77 10.56-.72.79-.58 1.56c.68 4.01 5.61 1.01 7.1-.47q3.74-3.71 7.33-9.11.68-1.02 1.75-1.12.41-.04.89 1.22-.39 3.6-1.96 6.8a.29.29 0 0 0 .45.34q3.67-3.38 6.18-7.22 5.94-9.07 11.3-19.73a.83.81-53.8 0 0-.13-.93q-10.48-11.17-18.52-24.29a.92.92 0 0 0-1.54-.05z"/><path fill="#eecd8d" d="M506.74 272.03q.47-.36.55.01a.83.82 89 0 1-.94.99q-2.18-.37-3.95-1.11a3.1 3.1 0 0 1-1-.7q-9.56-10.16-17.38-19.99c-6.56-8.24-13.57-11.27-23.81-15.96q-5.98-2.74-13.45-2.87c-9.3-.16-17.24 1.17-24.46 6.9q-8.09 6.44-15.9 15.27 4-9.47 12.17-16.5c18.18-15.63 45.28-16.59 63.39.82 9.55 9.18 14.39 17.88 20.56 29.07q1.56 2.82 4.22 4.07m67.95-33.34q-.21.42-.5.64-.22.16-.76.13c-1.66-.09-2.76 2.32-3.5 3.61a.81.54-19.8 0 1-.14.19l-6.47 6.4-.04.04q-2.68 2.28-8.98 3.85c-15.67 3.92-30.29 7.96-45 14.16q-.28.11-.38.42-.26.78-1.09.1l-.2-4.2a.79.78-11.5 0 1 .51-.76q23.2-8.34 44.33-11.7a4.38 4.27-64.2 0 0 1.54-.56c8.03-4.85 14.31-12.29 19.57-18.98a.45.45 0 0 1 .8.26z"/><path fill="#f4ba45" d="M506.74 272.03q1.45-.98 1.09-3.8.83.68 1.09-.1.1-.31.38-.42c14.71-6.2 29.33-10.24 45-14.16q6.3-1.57 8.98-3.85l.04-.04 6.47-6.4a.81.54-19.8 0 0 .14-.19c.74-1.29 1.84-3.7 3.5-3.61q.54.03.76-.13.29-.22.5-.64.3 2.1-.28 3.21-1.81 1.46-1.26 5.35a.82.82 0 0 0 .56.67q2.88.94 5.29-.68 2.64-1.77 6.12-3.59 1.29-.67 3.12-2.17 3.7-3.03 9.71-4.55-2.35 4.89-3.47 9.08-.33 1.22 1.33 2.5 4.66-.5 9.16-3.42a1.13.97-63.4 0 1 .38-.16l5.75-1.32a.84.83 63.9 0 1 .84.29l.1.11a.68.68 0 0 1-.33 1.03q-1.23.43-2.36 1.84a1.14 1.13 61.9 0 0-.23.77l.32 3.53a.61.59-62.8 0 0 .08.26q.92 1.44 2.16 2.13 4.92 2.69 10.54 4.3 13.59 3.9 27.23 9.41c3.03 1.23 5.98 3.81 9.24 5.38q4.83 2.34 11.94 6.43c3.15 1.81 5.04 3.69 8.12 5.56q2.49 1.51 5.65 4.41c5.04 4.64 10.54 10.31 17.13 16.06q6.04 5.26 10.56 11.62a4.94 4.51 18.4 0 1 .47.84q1.61 3.62 3.66 6.46 4.59 6.34 9.16 13.29 2.93 4.46 7.03 15.32a21.33 19.64 61.2 0 0 1.26 2.74q4.03 7.43 6.44 15.54c1.85 6.21 3.36 12.54 6.35 15.84q2.99 3.27 9.04 5.73 6.82 2.76 8.66 3.99 16.83 11.28 22.29 16.48 6.29 5.99 7.89 8.25c5.16 7.25 11.2 15.19 15.04 23.29q.76 1.6 2.75 8.15 1.28 4.21 3.52 8.73-2.65 5.3-9.69 9.82c-8.98 5.74-17.61 9.58-27.92 10.84q-15.7 1.91-32.09-3.01c-8.36-2.51-14.95-6.92-22.16-11.98q-2-1.41-4.02-3.58-4.7-5.09-9.26-10.57 27.4 3.72 54 11.82a.27.26 82.9 0 0 .3-.39q-.21-.34-.71-.69c-16.42-11.36-37.75-16.07-57.55-14.55l-4.96-7.07 2.42-.41a7.07 7.02 28.5 0 0 1.64-.48q12.03-5.09 20.24-7.49c10.05-2.94 23.1-6.45 34.98-7.78q.48-.06.9-.32a.48.48 0 0 0-.2-.88q-25.62-2.88-48.32 8.09c-3.03 1.47-10.4 5.68-11.69 8.75q-5.03-11.03-13.18-19.88-4.86-5.28-7.74-6.76c-16.88-8.66-35.3-8.99-51.05 1.96q-10.95 7.61-22.41 19.56-25.52-16.88-56.39-13.17a.4.39-25.3 0 0-.24.66q.23.24.75.32 27.28 4.05 53.61 14.97-3.39 4.42-9.47 8.29-25.91.48-48.17 14.24a.32.31 22.5 0 0 .24.57l37.47-8.24q-5.13 3.02-10.1 6.02-4.94 2.99-9.7 4.63c-6.98 2.42-15.52 5.56-23.82 7.47-32.91 7.57-67.07 5.17-97.25-9.65-26.89-13.2-46.24-38.03-52.51-66.96q-1.7-7.87-1.91-15.79l.4-3.19a.98.96 78.5 0 1 .46-.71q5.83-3.46 11.7-5.67c2.79-1.06 4.76-2.9 7.53-3.36a3.3 3.29-61.8 0 0 .79-.24q9.24-4.03 11.81-4.45 8.49-1.37 21.62-3.23a.35.31-48.6 0 1 .08-.01l6.02.2a.72.7 15.2 0 0 .66-.37q.23-.43 0-.97 5.38.65 10.71.57.93-.01 1.28-.51a.86.86 0 0 0-.19-1.16q-2.67-2.04-7.13-3.53-12.95-4.35-26.64-4.69l-.77-.76a.51.5-42.4 0 1 .04-.75q3.21-2.66 4.86-5.27 4.51-7.13 8.6-14.6l.75-.75 8.62-11.63q8.08-5.31 14.56-13.23 1.33-.13 1.9-1.08a2.12 2.12 0 0 0-.53-2.77q-1.28-.98-4.21-3.01a1.29 1.29 0 0 1 .16-2.21q.66-.32 1.58-.26 4.27.27 7.85-.41a1.31 1.29 13.6 0 0 .78-.47q1.19-1.5-.35-3.41-2.97-3.68-4.56-6.84a.58.58 0 0 1 .64-.83q4 .86 7.22 3.32l.04.04 3.52 4.33a1.74 1.74 0 0 0 3.08-.93c1.18-12.22-7.55-25.71-15.92-33.78q-7.72-7.45-14.56-9.73-19.09-6.36-28.49 9.42-1.45 3.55-3.19 6.74-2.42 4.44-3 6.79c-4.94 20.11 3.79 39.66 23.59 46.99-4.32.17-8.94-.79-12.6-.38q-4.42.5-8.65 2.47c-11.04-6.9-17.69-18.64-19.18-31.43q-1.82-15.68 5.83-29.43 7.81-8.83 15.9-15.27c7.22-5.73 15.16-7.06 24.46-6.9q7.47.13 13.45 2.87c10.24 4.69 17.25 7.72 23.81 15.96q7.82 9.83 17.38 19.99a3.1 3.1 0 0 0 1 .7q1.77.74 3.95 1.11a.83.82 89 0 0 .94-.99q-.08-.37-.55-.01m134.424 1.445a6.94 5.22-148.8 0 0 3.232 8.06 6.94 5.22-148.8 0 0 8.64-.87 6.94 5.22-148.8 0 0-3.232-8.06 6.94 5.22-148.8 0 0-8.64.87m20.062 10.372a13.58 7.08-140.8 0 0 6.05 14.07 13.58 7.08-140.8 0 0 14.998 3.096 13.58 7.08-140.8 0 0-6.05-14.07 13.58 7.08-140.8 0 0-14.998-3.096m-65.41 37.432a10.72 6.94-138.3 0 0 3.387 12.313 10.72 6.94-138.3 0 0 12.621 1.95 10.72 6.94-138.3 0 0-3.387-12.314 10.72 6.94-138.3 0 0-12.621-1.95m99.347 2.981a10.06 6.55-49.5 0 0-11.514 3.396 10.06 6.55-49.5 0 0-1.552 11.904 10.06 6.55-49.5 0 0 11.514-3.396 10.06 6.55-49.5 0 0 1.552-11.904M585.18 343.641a31.76 27.1-84.6 0 0-29.969 29.069 31.76 27.1-84.6 0 0 23.991 34.169 31.76 27.1-84.6 0 0 29.969-29.069 31.76 27.1-84.6 0 0-23.991-34.169m114.227 6.406a29.99 20.96-94.1 0 0-18.762 31.412 29.99 20.96-94.1 0 0 23.05 28.414 29.99 20.96-94.1 0 0 18.762-31.412 29.99 20.96-94.1 0 0-23.05-28.414M449.339 378.07a14.9 6.31-160.8 0 0 11.996 10.859 14.9 6.31-160.8 0 0 16.146-1.059 14.9 6.31-160.8 0 0-11.996-10.859 14.9 6.31-160.8 0 0-16.146 1.059m321.705 30.057a12.6 5.47-6.3 0 0-13.124-4.054 12.6 5.47-6.3 0 0-11.924 6.82 12.6 5.47-6.3 0 0 13.124 4.054 12.6 5.47-6.3 0 0 11.924-6.82"/><path fill="#eecd8d" d="M597.95 236.93q-6.01 1.52-9.71 4.55-1.83 1.5-3.12 2.17-3.48 1.82-6.12 3.59-2.41 1.62-5.29.68a.82.82 0 0 1-.56-.67q-.55-3.89 1.26-5.35l.26 3.45a1.28 1.28 0 0 0 2.06.91q2.7-2.08 6.79-5.46 7.09-5.86 16.3-8.26a.32.32 0 0 1 .36.47zm128.45 44.3q-.02.51-.11.66a.61.61 0 0 1-1.13-.23c-.64-5.2-2.2-12.26-5.41-16.89q-2.77-3.99-5.62-7.3a2.32 2.21-6.1 0 0-.69-.53l-3.71-1.84-4.06-3.43q-4.92-4.32-12.73-5.87-9.4-1.86-17.09 1.27-4.23 1.73-7.41 6.51a3.42 3.37 86.3 0 1-.59.68l-5.47 4.99-2.8-1.6a.5.49 32 0 1-.17-.71c6.59-9.75 17.82-17.46 29.64-17.45q11.76 0 21.23 7.75 15.83 12.96 16.12 33.99m92 174.04q-2.42 2.27-2.75 6.12-2.24-4.52-3.52-8.73-1.99-6.55-2.75-8.15c-3.84-8.1-9.88-16.04-15.04-23.29q-1.6-2.26-7.89-8.25-5.46-5.2-22.29-16.48-1.84-1.23-8.66-3.99-6.05-2.46-9.04-5.73c-2.99-3.3-4.5-9.63-6.35-15.84q-2.41-8.11-6.44-15.54a21.33 19.64 61.2 0 1-1.26-2.74q-4.1-10.86-7.03-15.32-4.57-6.95-9.16-13.29-2.05-2.84-3.66-6.46a4.94 4.51 18.4 0 0-.47-.84q-4.52-6.36-10.56-11.62c-6.59-5.75-12.09-11.42-17.13-16.06q-3.16-2.9-5.65-4.41c-3.08-1.87-4.97-3.75-8.12-5.56q-7.11-4.09-11.94-6.43c-3.26-1.57-6.21-4.15-9.24-5.38q-13.64-5.51-27.23-9.41-5.62-1.61-10.54-4.3-1.24-.69-2.16-2.13a.61.59-62.8 0 1-.08-.26l-.32-3.53a1.14 1.13 61.9 0 1 .23-.77q1.13-1.41 2.36-1.84a.68.68 0 0 0 .33-1.03l-.1-.11a.84.83 63.9 0 0-.84-.29l-5.75 1.32a1.13.97-63.4 0 0-.38.16q-4.5 2.92-9.16 3.42 2.79-2.07 5.42-3.51 8.47-4.61 17.93-5.17a.29.29 0 0 1 .17.54c-3.06 1.91-8.26 5.76-7.1 10.07q.71 2.64 4.17 3.49c6.56 1.61 13.19 3.11 20.28 5.56q51.58 17.84 82.85 62.51 5.41 7.73 12.92 22.43c5.52 10.8 9.4 21.97 14.54 33.31q3.66 8.09 11.77 11.76c6.2 2.81 11.77 5.18 16.73 8.05q33.29 19.3 42.91 57.72"/><path fill="#050403" d="M465.45 301.44c-3.14-1.35-8.36-4.55-9.44-7.93q-1.19-3.7 2.24-6.11a.7.63-66.6 0 1 .26-.12l4.25-.97a.65.65 0 0 0 .43-.94q-1.15-2.14-1.71-5.07c-1.04-5.46 4.57-7.79 9.03-6.7a.37.37 0 0 0 .41-.54q-4.06-7.48-10.48-14.07c-5.97-6.12-10.38-9.76-18.32-10.56q-8.9-.89-15.75 4.7-1.61 1.32-2.77-.31 9.4-15.78 28.49-9.42 6.84 2.28 14.56 9.73c8.37 8.07 17.1 21.56 15.92 33.78a1.74 1.74 0 0 1-3.08.93l-3.52-4.33-.04-.04q-3.22-2.46-7.22-3.32a.58.58 0 0 0-.64.83q1.59 3.16 4.56 6.84 1.54 1.91.35 3.41a1.31 1.29 13.6 0 1-.78.47q-3.58.68-7.85.41-.92-.06-1.58.26a1.29 1.29 0 0 0-.16 2.21q2.93 2.03 4.21 3.01a2.12 2.12 0 0 1 .53 2.77q-.57.95-1.9 1.08"/><path fill="#f4ba45" d="M705.67 251.67q-9.41-2.22-14.98 4.55-5.16 6.27-6.91 14.7a.52.51-66.6 0 1-.8.32q-9.97-7-20.6-11.99l5.47-4.99a3.42 3.37 86.3 0 0 .59-.68q3.18-4.78 7.41-6.51 7.69-3.13 17.09-1.27 7.81 1.55 12.73 5.87"/><path fill="#5f311b" d="M465.45 301.44q-6.48 7.92-14.56 13.23l-9.89-1.33c-19.8-7.33-28.53-26.88-23.59-46.99q.58-2.35 3-6.79 1.74-3.19 3.19-6.74 1.16 1.63 2.77.31 6.85-5.59 15.75-4.7c7.94.8 12.35 4.44 18.32 10.56q6.42 6.59 10.48 14.07a.37.37 0 0 1-.41.54c-4.46-1.09-10.07 1.24-9.03 6.7q.56 2.93 1.71 5.07a.65.65 0 0 1-.43.94l-4.25.97a.7.63-66.6 0 0-.26.12q-3.43 2.41-2.24 6.11c1.08 3.38 6.3 6.58 9.44 7.93"/><path fill="#f4ba45" d="M726.4 281.23q.17 12.59-6.27 23.34a.28.28 0 0 1-.45.03l-4.85-5.79q4.01-6.43 4.26-13.81.52-15.32-8.39-27.72-.11-.84-.97-2.18l3.71 1.84a2.32 2.21-6.1 0 1 .69.53q2.85 3.31 5.62 7.3c3.21 4.63 4.77 11.69 5.41 16.89a.61.61 0 0 0 1.13.23q.09-.15.11-.66"/><path fill="#5f311b" d="M710.7 257.28q8.91 12.4 8.39 27.72-.25 7.38-4.26 13.81-1.71-1.45-3.26-3.18-2.01-2.23-3.14-3.24-13.06-11.6-16.24-14.39a2.08 2.07 20.6 0 1-.71-1.56c-.06-5.72 1.39-13.4 5.68-17.52 3.8-3.65 7.15-2.41 11.43-.52a1.38 1.36 48.9 0 0 .92.07q1.1-.29 1.19-1.19"/><ellipse fill="#eecd8d" rx="6.94" ry="5.22" transform="rotate(211.2 362.23 48.198)"/><ellipse fill="#eecd8d" rx="13.58" ry="7.08" transform="rotate(219.2 387.94 26.615)"/><path fill="#ea9434" d="m441 313.34 9.89 1.33-8.62 11.63q-.11-1.1-.75-1.34-7.68-2.8-15.17-6.04-3.54-1.53-6.6-3.49 4.23-1.97 8.65-2.47c3.66-.41 8.28.55 12.6.38"/><ellipse fill="#050403" rx="10.72" ry="6.94" transform="rotate(221.7 364.45 49.219)"/><ellipse fill="#050403" rx="10.06" ry="6.55" transform="rotate(-49.5 704.3 -580.922)"/><path fill="#ea9434" d="M441.52 327.05q-4.09 7.47-8.6 14.6-1.65 2.61-4.86 5.27a.51.5-42.4 0 0-.04.75l.77.76q-8.82-.27-17.42.94a.52.51 14.2 0 1-.49-.81l14.28-19.35a2.78 2.77 22.9 0 1 2.69-1.09q6.4 1.09 13.67-1.07"/><path fill="#050403" d="M585.179 343.641a31.76 27.1-84.6 0 1 23.99 34.17 31.76 27.1-84.6 0 1-29.968 29.068 31.76 27.1-84.6 0 1-23.99-34.17 31.76 27.1-84.6 0 1 29.968-29.068m6.343 11.98a9.69 8.64-89.1 0 0-8.79 9.553 9.69 8.64-89.1 0 0 8.486 9.825 9.69 8.64-89.1 0 0 8.79-9.553 9.69 8.64-89.1 0 0-8.486-9.825m107.884-5.574a29.99 20.96-94.1 0 1 23.05 28.414 29.99 20.96-94.1 0 1-18.762 31.412 29.99 20.96-94.1 0 1-23.05-28.414 29.99 20.96-94.1 0 1 18.762-31.412m-4.218 9.493a9.75 7.54-92.6 0 0-7.09 10.082 9.75 7.54-92.6 0 0 7.974 9.398 9.75 7.54-92.6 0 0 7.09-10.082 9.75 7.54-92.6 0 0-7.974-9.398m-339.068-.16c.33 6.16-8.75 5.22-14.47 5.27q-47.26.41-84.4.31-2.05 0-2.07-.28-.01-.28 2.03-.5 36.92-3.99 83.97-8.54c5.69-.55 14.62-2.43 14.94 3.74"/><ellipse fill="#fdfdfd" rx="9.69" ry="8.64" transform="rotate(-89.1 481.232 -117.711)"/><path fill="#eecd8d" d="M450.76 357.75q.23.54 0 .97a.72.7 15.2 0 1-.66.37l-6.02-.2a.35.31-48.6 0 0-.08.01q-13.13 1.86-21.62 3.23-2.57.42-11.81 4.45a3.3 3.29-61.8 0 1-.79.24c-2.77.46-4.74 2.3-7.53 3.36q-5.87 2.21-11.7 5.67a.98.96 78.5 0 0-.46.71l-.4 3.19q-1.12-6.3.3-13.26 11.19-5.46 23.26-7.76 18.35-3.49 37.51-.98"/><ellipse fill="#fdfdfd" rx="9.75" ry="7.54" transform="rotate(-92.6 524.26 -147.74)"/><path fill="#fdf0cd" d="M389.99 366.49q-1.42 6.96-.3 13.26.21 7.92 1.91 15.79c6.27 28.93 25.62 53.76 52.51 66.96 30.18 14.82 64.34 17.22 97.25 9.65 8.3-1.91 16.84-5.05 23.82-7.47q4.76-1.64 9.7-4.63 4.97-3 10.1-6.02 10.36-1.87 20.95-2.87 1.29-.12 1.9-.68a.93.93 0 0 0-.13-1.48c-2.78-1.75-8.7-1.47-12.26-1.54q6.08-3.87 9.47-8.29l5.02 1.69a.52.52 0 0 0 .55-.84l-3.3-3.63q11.46-11.95 22.41-19.56c15.75-10.95 34.17-10.62 51.05-1.96q2.88 1.48 7.74 6.76 8.15 8.85 13.18 19.88.55.55.03.52l4.96 7.07q-5.98 2.25 3.96 3.81 4.56 5.48 9.26 10.57 2.02 2.17 4.02 3.58c7.21 5.06 13.8 9.47 22.16 11.98q16.39 4.92 32.09 3.01c10.31-1.26 18.94-5.1 27.92-10.84q7.04-4.52 9.69-9.82.33-3.85 2.75-6.12c3.78 17.79 3.03 36.84-3.99 53.78q-.61-.7-1.06 1.05-.29 1.13-1.33 1.38a.77.73-73.3 0 0-.38.22l-4.35 4.5a2.38 2.11 86.6 0 0-.22.28q-4.78 7.7-11.31 12.02-10.25 6.8-20.34 12.4c-8.33 4.62-15.28 6.76-26.2 10.62q-7.2 2.54-13.17 3.94-9.21 2.16-15.59 3.1c-9.09 1.34-17.08 3.66-26.72 6.46q-19.76 5.75-36.14 17.17a.41.4 44.3 0 0 .01.67q18.68 12.19 40 13.65c7.16.5 13.88 1.14 21.51-.54a1.09 1.08 81.1 0 1 1.31.96l.05.6q-6.06 15.46-11.9 31.03-1.36 3.61-5.08 10.16-4.04 7.11-5.51 9.92-7.53 14.39-15.78 25.83c-4.23 5.86-7.33 10.88-11.13 15.58q-7.05 8.73-11.15 13.38-18.04 20.43-42.16 34.06-2.28 1.29-5.06 2.29-13.46.1-26.98.35-14.03.26-26.94 1.19-37.92 2.74-79.79 6.02-.89.07-18.98 1.02c-10.61.56-23.97 2.06-34.02 2.17q-15.66.18-21.83.57 7.48-11.12 15.22-21.59.14-.19 14.37-19.78 16.33-22.48 36.26-41.95 2.01-1.96 4.69-4.36 26.92 7.19 53.37 1.19 12.18-2.76 23.87-8.87 11.2-5.85 21.41-13.88 9.09-7.15 14.13-17.61 4.71-2.38 10.22-6.31c9.12-6.51 15.13-16.16 13.4-27.78-1.76-11.8-12.47-16.06-23.16-16.16l-1.58-.62a1.23 1.22.7 0 1-.69-.7q-.46-1.22-1.88-2.12c-4.28-2.7-9.49-5.82-15.15-7.6-7.58-2.39-12.23-4.14-18.48-5.53q-5.01-1.12-6.39-1.28-26.58-3.15-34.47-3.49-12.82-.54-40.06-2.84-27.61-2.32-53.24-11.32-24.33-8.53-44.75-24.61c-7.05-5.55-13.5-12.5-18.94-19.71q-8.09-10.72-11.38-15.88-1.52-2.39-3.76-8.16a2.89 2.54-78.1 0 0-.36-.64q-.91-1.18-1.68-3.29-.82-13.09 1.5-26.89c5.3-31.37 24.28-59.17 53.35-72.83m254.82 59.79q-1.16.86-1.02 2.02c.97 8.11 8.83 14.32 16.13 17.58a.8.79 13.3 0 1 .47.75q-.2 6.2-1.76 8.68c-7.03 11.14-24.08 13.83-32.87 2.92q-1.4-1.73-2.99-4.4a1.29 1.29 0 0 0-2.28.13q-.47 1.04-.38 2.58c.32 5.62 3.08 9.53 7.1 13.3a1.69 1.68 22.2 0 1 .53 1.25c-.19 12.14-.93 23.43 3.74 34.42 3.73 8.79 12.36 15.38 21.98 12.57 9.21-2.69 15.15-10.68 19.22-19.18q5.49-11.47 8.74-24.02a.88.87-88.2 0 1 .66-.63q5.36-1.11 7.23-2.16 10.11-5.67 8.53-17.33-.21-1.54-1.25-2.3a1.04 1.04 0 0 0-1.63.57c-3.75 14.26-20.23 17.47-26.6 3.14a3.2 3.17 35.3 0 1-.26-1.48l.53-7.82a.99.98-9 0 1 .62-.85c6.18-2.36 15.25-9.67 14.67-17.36a.92.9-75.4 0 0-.38-.66q-.54-.39-1.02-.12-.21-1.86-2.39-3.01-11.49-6.08-24.08-4.41-4.19.56-7.98 2.38-2.82 1.35-3.26 3.44"/><ellipse fill="#fdf0cd" rx="14.9" ry="6.31" transform="rotate(199.2 264.092 152.295)"/><path fill="#050403" d="M324.73 383.76q.17 4.48-6.96 4.08-17.65-1-35.27-1.94-1.71-.09-1.73-.49-.01-.41 1.69-.62 17.5-2.26 35.03-4.57 7.07-.94 7.24 3.54"/><ellipse fill="#fdf0cd" rx="12.6" ry="5.47" transform="rotate(-6.3 4099.824 -6686.705)"/><path fill="#eecd8d" d="M682.52 427.88q-2.45 2.61-9.95 8.41-5.44 4.21-11.3 2.01-5.88-2.21-11.69-7.88-2.1-2.05-4.77-4.14.44-2.09 3.26-3.44 3.79-1.82 7.98-2.38 12.59-1.67 24.08 4.41 2.18 1.15 2.39 3.01m-15.625-1.362a4.72 2.86-177.3 0 0 4.58 3.079 4.72 2.86-177.3 0 0 4.85-2.635 4.72 2.86-177.3 0 0-4.58-3.079 4.72 2.86-177.3 0 0-4.85 2.635"/><path fill="#050403" d="m607.18 436.39 3.3 3.63a.52.52 0 0 1-.55.84l-5.02-1.69q-26.33-10.92-53.61-14.97-.52-.08-.75-.32a.4.39-25.3 0 1 .24-.66q30.87-3.71 56.39 13.17"/><ellipse fill="#fdfdfd" rx="4.72" ry="2.86" transform="rotate(182.7 340.833 205.456)"/><path fill="#050403" d="M701.59 442.03q.52.03-.03-.52c1.29-3.07 8.66-7.28 11.69-8.75q22.7-10.97 48.32-8.09a.48.48 0 0 1 .2.88q-.42.26-.9.32c-11.88 1.33-24.93 4.84-34.98 7.78q-8.21 2.4-20.24 7.49a7.07 7.02 28.5 0 1-1.64.48zm-56.78-15.75q2.67 2.09 4.77 4.14 5.81 5.67 11.69 7.88 5.86 2.2 11.3-2.01 7.5-5.8 9.95-8.41.48-.27 1.02.12a.92.9-75.4 0 1 .38.66c.58 7.69-8.49 15-14.67 17.36a.99.98-9 0 0-.62.85l-.53 7.82a3.2 3.17 35.3 0 0 .26 1.48c6.37 14.33 22.85 11.12 26.6-3.14a1.04 1.04 0 0 1 1.63-.57q1.04.76 1.25 2.3 1.58 11.66-8.53 17.33-1.87 1.05-7.23 2.16a.88.87-88.2 0 0-.66.63q-3.25 12.55-8.74 24.02c-4.07 8.5-10.01 16.49-19.22 19.18-9.62 2.81-18.25-3.78-21.98-12.57-4.67-10.99-3.93-22.28-3.74-34.42a1.69 1.68 22.2 0 0-.53-1.25c-4.02-3.77-6.78-7.68-7.1-13.3q-.09-1.54.38-2.58a1.29 1.29 0 0 1 2.28-.13q1.59 2.67 2.99 4.4c8.79 10.91 25.84 8.22 32.87-2.92q1.56-2.48 1.76-8.68a.8.79 13.3 0 0-.47-.75c-7.3-3.26-15.16-9.47-16.13-17.58q-.14-1.16 1.02-2.02m-5.77 48.53q.28.09 6.36 1.72c2.6.69 8.37 3.85 10.98 6.31 2.13 2.01 4.94 3.61 7.37 6.07q1.83 1.84 2.49 2.62a.54.54 0 0 0 .87-.08q4.65-7.81 6.59-17.3a1.01 1 19.5 0 0-.52-1.09q-4.66-2.46-8.69-7.03a1.93 1.92 48.5 0 0-2.72-.17c-4.32 3.86-11.46 8.56-17.29 8.4q-4.32-.12-5.34-.07a.32.32 0 0 0-.1.62m-3.47 6.34c-.05 8.76 1.59 29.15 13.86 28.95 5.12-.08 9.89-4.57 12.45-8.74a1.06 1.04-44.5 0 0 .02-1.06q-8.62-14.98-25.72-19.61a.48.48 0 0 0-.61.46m-40.13-33.69c3.56.07 9.48-.21 12.26 1.54a.93.93 0 0 1 .13 1.48q-.61.56-1.9.68-10.59 1-20.95 2.87l-37.47 8.24a.32.31 22.5 0 1-.24-.57q22.26-13.76 48.17-14.24m115.07 5.45q-9.94-1.56-3.96-3.81c19.8-1.52 41.13 3.19 57.55 14.55q.5.35.71.69a.27.26 82.9 0 1-.3.39q-26.6-8.1-54-11.82"/><path fill="#ea9434" d="M473 564.89q15.88-.67 32.09-2.91 2.67 2.26 7.98 4.05-13.54 6.08-23.8 9.5c-36.19 12.07-76.22 12.5-111.4-2.38-22.65-9.58-42.43-28.15-51.4-51.33q-5.87-15.16-5.76-32.07.02-3.88-.32-7.86c2.85-4.91 1.31-9.41 2.02-14.56q.08-.62-.37-1.05-.33-.32-.75-.05.94-1.32 1.99-1.5a.53.52-6.5 0 1 .61.48q1.17 17.79 6.87 32.85 15.99 42.29 57.12 61.55c22.77 10.66 49.31 13.62 73.62 9.7q5.16-.83 10.1-2.7.98-.38 1.4-1.72"/><path fill="#5f311b" d="M639.04 474.81a.32.32 0 0 1 .1-.62q1.02-.05 5.34.07c5.83.16 12.97-4.54 17.29-8.4a1.93 1.92 48.5 0 1 2.72.17q4.03 4.57 8.69 7.03a1.01 1 19.5 0 1 .52 1.09q-1.94 9.49-6.59 17.3a.54.54 0 0 1-.87.08q-.66-.78-2.49-2.62c-2.43-2.46-5.24-4.06-7.37-6.07-2.61-2.46-8.38-5.62-10.98-6.31q-6.08-1.63-6.36-1.72"/><path fill="#eecd8d" d="M587.95 574q-17.37-.47-34.42-4.11-17.29-3.7-34.59-7.31-6.28-1.31-12.69-1.69-1.49-.09-1.16 1.09-16.21 2.24-32.09 2.91-9.32-1.23-24.07-1.02-14.91.21-35.35-5.24c-25.44-6.78-48.16-22.34-62.44-44.24q-11.18-17.16-14.98-38.72-.93-5.25-1.02-9.46.77 2.11 1.68 3.29a2.89 2.54-78.1 0 1 .36.64q2.24 5.77 3.76 8.16 3.29 5.16 11.38 15.88c5.44 7.21 11.89 14.16 18.94 19.71q20.42 16.08 44.75 24.61 25.63 9 53.24 11.32 27.24 2.3 40.06 2.84 7.89.34 34.47 3.49 1.38.16 6.39 1.28c6.25 1.39 10.9 3.14 18.48 5.53 5.66 1.78 10.87 4.9 15.15 7.6q1.42.9 1.88 2.12a1.23 1.22.7 0 0 .69.7zM321.29 466.23q.42-.27.75.05.45.43.37 1.05c-.71 5.15.83 9.65-2.02 14.56q-7.33 7.55-14.46 15.21-7.47 8.02-12.79 15.27-9.73 13.26-11.57 16.2-3.19 5.08-10.19 17.73-5.93 10.73-8.88 18.42-5.08 13.28-9.33 26.17-1.22 3.67-2.15 8.35-3.28 16.46-5.49 30.96c-1.16 7.57-.41 15.08-.46 22.36q-.01 1.54.81 7.33.74 5.19-.32 10.16c-11.28-55.32 2.29-113.63 34.76-158.98q17.15-23.96 40.97-44.84"/><path fill="#ec8873" d="M635.57 481.15a.48.48 0 0 1 .61-.46q17.1 4.63 25.72 19.61a1.06 1.04-44.5 0 1-.02 1.06c-2.56 4.17-7.33 8.66-12.45 8.74-12.27.2-13.91-20.19-13.86-28.95"/><path fill="#f4ba45" d="M320.39 481.89q.34 3.98.32 7.86-.11 16.91 5.76 32.07c8.97 23.18 28.75 41.75 51.4 51.33 35.18 14.88 75.21 14.45 111.4 2.38q10.26-3.42 23.8-9.5 25.99 11.86 54.09 16.04-11.33 9.89-8.86 27.56.58 4.61 3.07 9.23-4.9.8-7.2 1.81-12.86 5.67-24.81 8.44-18.36 4.26-23.35 5.12-24.75 4.26-51.01 3.63-3.69-.09-7.71 1.7-2.12.74 3.1 3.87c-1.92 3.53 10.78 12.14 13.31 13.86q5.32 3.6 11.24 4.76l-.23 1.37q-2.68 2.4-4.69 4.36-19.93 19.47-36.26 41.95-14.23 19.59-14.37 19.78-7.74 10.47-15.22 21.59-.61.4-1.32 1.51.2-1.57-1.34-1.35-24.17 3.46-45.76 4.17-18.69.61-36.53-3.13c-13.34-2.8-25.26-8.37-36.72-15.31q-8.39-5.09-13.86-11.87-.87-1.08-4.47-1.89-13.87-25.42-18.61-53.18 1.06-4.97.32-10.16-.82-5.79-.81-7.33c.05-7.28-.7-14.79.46-22.36q2.21-14.5 5.49-30.96.93-4.68 2.15-8.35 4.25-12.89 9.33-26.17 2.95-7.69 8.88-18.42 7-12.65 10.19-17.73 1.84-2.94 11.57-16.2 5.32-7.25 12.79-15.27 7.13-7.66 14.46-15.21"/><path fill="#eecd8d" d="M814.41 509.05c-8.36 20.52-25.73 37.87-44.98 47.9q-29.48 15.35-62.9 19.31-1.65.2-15.28 2.03-2.57.34-4.13.94a.97.97 0 0 0-.1 1.77q2.05 1.03 4.8 1.37 15.83 1.92 33.25-.33l-3.42 12.63q.11.79-1.17 2.86l-.05-.6a1.09 1.08 81.1 0 0-1.31-.96c-7.63 1.68-14.35 1.04-21.51.54q-21.32-1.46-40-13.65a.41.4 44.3 0 1-.01-.67q16.38-11.42 36.14-17.17c9.64-2.8 17.63-5.12 26.72-6.46q6.38-.94 15.59-3.1 5.97-1.4 13.17-3.94c10.92-3.86 17.87-6 26.2-10.62q10.09-5.6 20.34-12.4 6.53-4.32 11.31-12.02a2.38 2.11 86.6 0 1 .22-.28l4.35-4.5a.77.73-73.3 0 1 .38-.22q1.04-.25 1.33-1.38.45-1.75 1.06-1.05m-552.54 10.57-4.83-.47q-12.68-2.74-24.17 2.21-1.83.79-4.8 3.47-.16-.8-1.8-1.76 8.26-15.08 25.34-12.37 6.7 1.06 12.11 4.96a.55.55 0 0 1 .14.73z"/><path fill="#f4ba45" d="M257.04 519.15q-8.78 10.04-12.63 16.77-3.48 6.09-3.92 8.34-.7 3.55-1.8 7.08l-1.79-.76q-10.67-10.74-8.83-25.75 2.97-2.68 4.8-3.47 11.49-4.95 24.17-2.21"/><path fill="#ea9434" d="M261.87 519.62q-13.29 20.53-20.23 43.85-.54-3.63-.59-7.32-.01-1.19-2.36-4.81 1.1-3.53 1.8-7.08.44-2.25 3.92-8.34 3.85-6.73 12.63-16.77z"/><path fill="#fdf0cd" d="M228.07 524.83q-1.84 15.01 8.83 25.75-5.68 6.41-8.72 14.19c-7.22-12.25-9.44-29.04-1.91-41.7q1.64.96 1.8 1.76"/><path fill="#eecd8d" d="M238.69 551.34q2.35 3.62 2.36 4.81.05 3.69.59 7.32l-2.92 10.46a.52.51-66.9 0 1-.76.31q-5.83-3.53-9.78-9.47 3.04-7.78 8.72-14.19z"/><path fill="#050403" d="M587.95 574c10.69.1 21.4 4.36 23.16 16.16 1.73 11.62-4.28 21.27-13.4 27.78q-5.51 3.93-10.22 6.31-19.25 10.89-39.93 18.57-29.55 10.97-59.73 10.12-20.33-.79-37.44-9.51-5.22-3.13-3.1-3.87 24.28 4.28 43.21 3.77 29.23-.79 59.1-12.37 8.77-3.4 17.47-7.21c10.83-3.66 25.07-9.94 32.2-19.26a.88.87 27.3 0 0-.44-1.37q-2.64-.81-3.8-.12-4.18-.51-7.95.42a1.56 1.56 0 0 1-1.53-2.56c2.96-3.26 11.67-3.14 14.83-2.28a1.58 1.58 0 0 0 1.92-1.03l.78-2.37a2.26 2.26 0 0 0-1.69-2.91q-6.22-1.29-14.37-1.09a1.24 1.24 0 0 1-1.12-1.83q.16-.3 1.44-.77 6.2-2.26 13.22-1.36a.42.42 0 0 0 .33-.74q-4.65-4.03-11.08-4.55c-8.31-.67-15.39.74-22.65.14q-28.1-4.18-54.09-16.04-5.31-1.79-7.98-4.05-.33-1.18 1.16-1.09 6.41.38 12.69 1.69 17.3 3.61 34.59 7.31 17.05 3.64 34.42 4.11m-381.81.21c.12 3.35-2.84 5.13-5.91 5.1q-37.54-.41-71.49-1.93-.34-.02-.35-.24t.33-.26q33.74-4.08 71.14-7.32c3.06-.26 6.15 1.3 6.28 4.65"/><path fill="#fdf0cd" d="M811.83 588.43q-3.18.47-5.64 3.52a3.4 3.31-86.3 0 1-.82.74q-8.75 5.76-20.52 11.64-1.97.98-3.8.88-2.07-3.86-3.06-8.5-2.31-10.88 2.5-21.27c7.8-1.62 17.39-5 25.08-3.54 8.32 1.59 8.98 9.98 6.26 16.53m-16.65-10.64c1.55 6.15-3.62 12.25-7.44 17.08a1.01 1.01 0 0 0 .45 1.58q1.63.58 3.45-.3c6.49-3.16 11.2-10.94 8.22-17.88a3.21 3.21 0 0 0-2.73-1.92l-.7-.05a1.2 1.2 0 0 0-1.25 1.49"/><path fill="#ea9434" d="m772.95 575.82-4.9.9a1.01.98-67.5 0 0-.42.18q-5.89 4.14-12.1 7.8-7.91 4.66-19.35 8.29-7.19 2.28-14.53 1.68l3.42-12.63q13.75-1.64 27.86-6.89a3.87 3.67-52.5 0 1 1.45-.23z"/><path fill="#f4ba45" d="M780.49 575.44q-4.81 10.39-2.5 21.27.99 4.64 3.06 8.5-.1 1.19.57 1.89-11.39 4.57-22.96 8.95-5.3 2-9.38 3.19c-8.05 2.34-15.06 2.71-22.72 3.81q2.71-8.74 3.36-17.36a.73.73 0 0 0-1.37-.4c-7.01 13.01-13.26 25.73-20.5 38.3q-12.05 20.93-25.21 40.25-2.32 3.41-3.92 7a.99.99 0 0 0 1.08 1.38c2.62-.48 6.29-3.6 8.34-5.26q7.25 7.26 10.53 15.17c4.46 10.78 8.01 18.77 6.18 30.54q-.18 1.18.87 1.61.5.2.95-1.06-1.43 10.45-6.34 19.42a4.47 4.14-10.1 0 1-.72.95q-4.76 4.8-7.44 10.71-1.24-.56-2.38 1.2-1.9 2.95-3.07 4.09-.43-.08-.93-.83l-.9-.64a1.45 1.42-31.7 0 0-1.07-.24c-4.23.71-6.64 1.25-11.84.41-5.56-.89-11.79-3.51-17.58-6.36q-15.22-7.5-32.08-13c-2.22-.73-4.76-2.09-7.13-1.12q-3.78 1.54-6.13 1.26c4.38-2.17 9.72-4.67 13.24-8.08a.56.56 0 0 0-.49-.96l-10.72 1.92q.68-1.51 1.42-2.17 2.78-1 5.06-2.29 24.12-13.63 42.16-34.06 4.1-4.65 11.15-13.38c3.8-4.7 6.9-9.72 11.13-15.58q8.25-11.44 15.78-25.83 1.47-2.81 5.51-9.92 3.72-6.55 5.08-10.16 5.84-15.57 11.9-31.03 1.28-2.07 1.17-2.86 7.34.6 14.53-1.68 11.44-3.63 19.35-8.29 6.21-3.66 12.1-7.8a1.01.98-67.5 0 1 .42-.18l4.9-.9z"/><path fill="#050403" d="M795.18 577.79a1.2 1.2 0 0 1 1.25-1.49l.7.05a3.21 3.21 0 0 1 2.73 1.92c2.98 6.94-1.73 14.72-8.22 17.88q-1.82.88-3.45.3a1.01 1.01 0 0 1-.45-1.58c3.82-4.83 8.99-10.93 7.44-17.08"/><path fill="#fdf0cd" d="M595.03 603q-8.35 2.6-10.82 4.47c-5.91 4.45-11.72 6.51-18.5 9.53q-2.87 1.28-4.58-.36a1.93 1.77-80.7 0 1-.44-.67l-2.39-6.34q-2.47-17.67 8.86-27.56c7.26.6 14.34-.81 22.65-.14q6.43.52 11.08 4.55a.42.42 0 0 1-.33.74q-7.02-.9-13.22 1.36-1.28.47-1.44.77a1.24 1.24 0 0 0 1.12 1.83q8.15-.2 14.37 1.09a2.26 2.26 0 0 1 1.69 2.91l-.78 2.37a1.58 1.58 0 0 1-1.92 1.03c-3.16-.86-11.87-.98-14.83 2.28a1.56 1.56 0 0 0 1.53 2.56q3.77-.93 7.95-.42"/><path fill="#eecd8d" d="M811.83 588.43c-3.75 10.16-14.04 18.74-23.15 24.12l-7.06-5.45q-.67-.7-.57-1.89 1.83.1 3.8-.88 11.77-5.88 20.52-11.64a3.4 3.31-86.3 0 0 .82-.74q2.46-3.05 5.64-3.52"/><path fill="#050403" d="M207.82 600.81c.06 2.67-2.15 4.17-4.6 3.98q-13.53-1.01-26.07-2.91-.26-.04-.27-.4-.01-.35.26-.4 12.44-2.45 25.91-4.04c2.44-.29 4.71 1.1 4.77 3.77"/><path fill="#eecd8d" d="m567.07 623.75-5.7-4.89q-2.49-4.62-3.07-9.23l2.39 6.34a1.93 1.77-80.7 0 0 .44.67q1.71 1.64 4.58.36c6.78-3.02 12.59-5.08 18.5-9.53q2.47-1.87 10.82-4.47 1.16-.69 3.8.12a.88.87 27.3 0 1 .44 1.37c-7.13 9.32-21.37 15.6-32.2 19.26"/><path fill="#ea9434" d="m781.62 607.1 7.06 5.45q-12.19 7.78-25.28 14.12-6.52 3.16-12.81 5.14-14.34 4.54-28.82 7.51a.63.63 0 0 1-.72-.83l5.51-15.44c7.66-1.1 14.67-1.47 22.72-3.81q4.08-1.19 9.38-3.19 11.57-4.38 22.96-8.95m-220.25 11.76 5.7 4.89q-8.7 3.81-17.47 7.21-29.87 11.58-59.1 12.37-18.93.51-43.21-3.77 4.02-1.79 7.71-1.7 26.26.63 51.01-3.63 4.99-.86 23.35-5.12 11.95-2.77 24.81-8.44 2.3-1.01 7.2-1.81"/><path fill="#eecd8d" d="M587.49 624.25q-5.04 10.46-14.13 17.61-10.21 8.03-21.41 13.88-11.69 6.11-23.87 8.87-26.45 6-53.37-1.19l.23-1.37 12.89-9.11q30.18.85 59.73-10.12 20.68-7.68 39.93-18.57"/><path fill="#ea9434" d="m487.83 652.94-12.89 9.11q-5.92-1.16-11.24-4.76c-2.53-1.72-15.23-10.33-13.31-13.86q17.11 8.72 37.44 9.51"/><path fill="#eecd8d" d="M706.87 733.22q-.45 1.26-.95 1.06-1.05-.43-.87-1.61c1.83-11.77-1.72-19.76-6.18-30.54q-3.28-7.91-10.53-15.17l3.47-3.2a.72.72 0 0 1 1.03.06c11.33 13.42 16.14 32.22 14.03 49.4"/><path fill="#050403" d="M208.84 777.77a.28.28 0 0 1-.35.42q-20.16-10.7-28.07-31.31-4.07-10.6-2.71-20.91c.88-6.57 5.34-14.21 12.82-13.79 4.83.27 8.9 4.9 10.53 9.29a.3.29 4.1 0 1-.42.36c-2.62-1.41-6.98-2.26-9.5-.59-3.57 2.38-4.43 7.08-4.47 11.29-.12 12.37 6.22 25.84 13.9 35.16z"/><path fill="#ea9434" d="M402.85 752.61q-6.47 6.85-13.03 13.71-2.44 2.54-7.71 6.96-5.86 1.13-19.36 2.33-31.14 2.77-57.75-10.3c-16.96-8.33-31.48-25.52-40.83-42.08q3.6.81 4.47 1.89 5.47 6.78 13.86 11.87c11.46 6.94 23.38 12.51 36.72 15.31q17.84 3.74 36.53 3.13 21.59-.71 45.76-4.17 1.54-.22 1.34 1.35"/><path fill="#eecd8d" d="m258.85 776.3 4.19-3.9a1.4 1.36-16.9 0 0 .43-.78q.4-2.41-1.06-5.93-5.44-13.08-11.05-23.94a1.74 1.65-64 0 1-.16-.51l-.64-4.33 4.07-5.69a.92.92 0 0 1 1.54.05q8.04 13.12 18.52 24.29a.83.81-53.8 0 1 .13.93q-5.36 10.66-11.3 19.73-2.51 3.84-6.18 7.22a.29.29 0 0 1-.45-.34q1.57-3.2 1.96-6.8"/><path fill="#fdf0cd" d="M258.85 776.3q-.48-1.26-.89-1.22-1.07.1-1.75 1.12-3.59 5.4-7.33 9.11c-1.49 1.48-6.42 4.48-7.1.47q-.14-.77.58-1.56 4.19-4.64 5.77-10.56.37-1.4.2-1.82a1.25 1.25 0 0 0-2.09-.33l-6.62 7.57a1.45 1.44-33.3 0 1-2.46-.51c-1.4-4.36 1.01-12.99 2.25-16.85q4.15-12.9 11.15-24.81l.64 4.33a1.74 1.65-64 0 0 .16.51q5.61 10.86 11.05 23.94 1.46 3.52 1.06 5.93a1.4 1.36-16.9 0 1-.43.78z"/><path fill="#eecd8d" d="M612.71 739.78q-.74.66-1.42 2.17-35.31 10.92-62.17 16.69-44.5 9.55-88.12 10.92-15.31.48-25.22-.37-.75-.06-1.27-.23a.29.29 0 0 1-.03-.54c6.3-2.72 12.47-5.66 17.82-10.14a.46.46 0 0 0-.29-.82q-3.8-.01-8.73 1.35-22.43 6.19-37.79 10.18-10.53 2.74-23.38 4.29 5.27-4.42 7.71-6.96 6.56-6.86 13.03-13.71.71-1.11 1.32-1.51 6.17-.39 21.83-.57c10.05-.11 23.41-1.61 34.02-2.17q18.09-.95 18.98-1.02 41.87-3.28 79.79-6.02 12.91-.93 26.94-1.19 13.52-.25 26.98-.35"/><path fill="#fdf0cd" d="M744.2 755.48q-2.93.03-4.65 1.07-15.04 9.04-33.97 20.31c-3.39 2.02-6.49 3.26-10.08 3.91q-7.88 1.44-11.87-4.82l3.29-6.36q1.17-1.14 3.07-4.09 1.14-1.76 2.38-1.2.88 1.25 2.27.35c13.38-8.6 27.95-17.61 43.24-22.02q1.93-.56 4.52-.81a1.01 1 13.4 0 1 .95 1.54c-2.47 3.84-6.44 6.1-11.72 9.99a1.23 1.23 0 0 0 .11 2.05q.97.56 2.08.17 10.85-3.74 16.53-11.2a1.27 1.27 0 0 1 1.76-.25l1.65 1.21a1.1 1.1 0 0 1 .28 1.46q-.94 1.54-1.52 1.98-4.27 3.2-8.32 6.71"/><path fill="#ea9434" d="M685.99 768.76q-4.73 4.05-9.95 7.35-6.64 4.2-11.33 4.64-6.06.58-12.29-1.42-4.35-1.4-15.75-5.49c-12.3-4.41-25.5-7.17-38.05-10.12-5.58-1.31-10.49-1.79-16.09-2.72a.31.3 39.7 0 1-.06-.59q13.73-4.87 26.79-11.34 2.35.28 6.13-1.26c2.37-.97 4.91.39 7.13 1.12q16.86 5.5 32.08 13c5.79 2.85 12.02 5.47 17.58 6.36 5.2.84 7.61.3 11.84-.41a1.45 1.42-31.7 0 1 1.07.24z"/><path fill="#050403" d="M181.71 779.92a.34.34 0 0 1-.42.44c-8.5-2.79-19.14-9.69-22.26-18.59q-.93-2.66.38-4.84c1.79-2.98 5.88-1.98 7.06.9 3.43 8.39 7.78 13.62 14.67 21.03q.29.31.57 1.06"/><path fill="#eecd8d" d="M744.2 755.48q-1.17 1.28-2.05 2.81-.31.53.02 1.11a1.26 1.26 0 0 0 1.58.54q4.34-1.82 7.66-4.2a.22.22 0 0 1 .3.32q-5.18 6.36-11.39 11.27-17.28 13.71-35.36 22.88-5.4 2.74-10.71 4.19c-6.93 1.9-14.82-.16-14.92-8.56a1.8 1.66-35.2 0 1 .15-.7l4.15-9.19q3.99 6.26 11.87 4.82c3.59-.65 6.69-1.89 10.08-3.91q18.93-11.27 33.97-20.31 1.72-1.04 4.65-1.07"/><path fill="#050403" d="M640.45 813.36a.47.47 0 0 1-.26.88q-15.96-1.17-28.25-11.45c-3.12-2.61-7.52-7.42-6.03-11.37 1.09-2.85 4.02-3.56 6.52-2.04q.91.55 2.04 2.4 7.05 11.46 19.63 18.11 3.59 1.9 6.35 3.47m-26.71 1.31q.04.47-.42.49-11.75.75-22.58-3.4-3.71-1.42-5.43-3.52c-2.8-3.41-.74-7.26 3.7-6.85q2.16.19 4.64 2.01 8.64 6.32 19.57 10.59.48.19.52.68"/></svg>