<svg xmlns="http://www.w3.org/2000/svg" viewBox="0 0 1024 1024"><g fill="none" stroke-width="2"><path stroke="#838181" d="M320.05 352.29a.35.35 0 0 1 .28.55q-9.26 12.86-18.82 24.42-14.89 17.98-31.29 35.21c-16.09 16.9-33.71 38.34-29.48 63.66q2.23 13.39 9.77 26.13 11.1 18.79 26.51 37.62a.45.45 0 0 0 .79-.17l3.42-12.86a.29.29 0 0 1 .53-.06q7.39 14.17 10.74 28.94 2.78 12.26.71 23.3-1.14 6.08-1.91 9.62a.53.52 10.2 0 0 .44.63q19.7 2.6 36.69-8.43 11.65-7.56 20.99-19.56a.34.34 0 0 1 .6.25l-2.48 17.73a1.07 1.06-14.1 0 1-.44.73q-20.33 14.69-28.32 38.55c-9.51 28.45 1.25 58.4 17.39 82.06a.45.45 0 0 1-.2.67q-9.72 3.97-15.9 10.81c-4.39 4.85-7.95 12.26-8.34 18.44-.85 13.46 9.6 19.19 20.87 21.93q21.89 5.3 46.2 1.8c3.28-.47 7.42-1.77 10.03-2.09a2.53 2.43-35.2 0 1 1.31.2q6.27 2.83 13.53 2.8a.99.98-16.2 0 1 .83.45q5.48 8.26 12.72 12.14c15.04 8.06 35.06 9.13 51.94 6.32 16.6-2.76 34.66-10.67 39.06-28.39a.49.48 6.8 0 1 .47-.36h12.88a1.01 1-5.6 0 1 .99.81c2.04 10.46 11.52 18.51 21.41 22.61q26.21 10.89 55.05 4.3c11.47-2.62 20.83-7.71 27.66-17.39a1.16 1.16 0 0 1 .92-.48q8.16-.02 15.75-3.33a1.8 1.79-49.4 0 1 1.15-.09q28.88 7.51 56.8.54c13.81-3.45 24.67-11.19 19.86-27.36q-4.21-14.12-18.59-21.53-3.88-1.99-5.63-2.52a.41.41 0 0 1-.21-.63c15.86-21.88 26.54-50.91 19.1-78.05q-7.59-27.69-31.63-43.31a1.23 1.21-77.9 0 1-.54-.85l-1.79-12.28a.18.18 0 0 1 .31-.14c13.86 15.63 33.12 25.62 54.35 22.86a.38.37 79.6 0 0 .31-.46q-1.5-6.17-2.02-9.07c-3.25-18.22 3.43-36.01 11.45-53.15a.37.37 0 0 1 .69.07l3.38 12.53a.59.58 57 0 0 1.02.22c6.55-8.06 13.81-18.12 18.92-25.72q9.03-13.43 13.87-26.02 8.02-20.82-1.67-41.43-5.79-12.32-15.14-22.83-10.63-11.92-24.71-27.23-15.66-17.02-33.54-40.74-1.38-1.83-2.15-3.24a.18.17-14.5 0 1 .16-.26h7.34a.54.54 0 0 0 .5-.76c-4.27-9.84-12.69-18-22.06-23.06a.48.48 0 0 1 .15-.9l6.19-.89a.54.54 0 0 0 .34-.88c-16.78-20.72-53.83-22.38-76.98-16.2a1.18 1.17-30.9 0 1-1.09-.27q-28.42-26.21-66.42-37.26-18.97-5.52-42.57-5.5-36.41.03-67.45 15.35-23.64 11.65-40.64 27.75a1.04 1.04 0 0 1-.94.26c-25.85-5.53-57.88-5.48-76.74 16.23a.54.54 0 0 0 .33.89l6.11.85a.55.54-55.8 0 1 .19 1.01q-14.86 8.63-21.96 23.87a.45.45 0 0 0 .41.64h8.24" vector-effect="non-scaling-stroke"/><path stroke="#7a5927" d="M389.93 330.05q.81-3.15 2.79-6" vector-effect="non-scaling-stroke"/><path stroke="#806f48" d="m392.72 324.05 5.19-8.29a.38.38 0 0 0-.27-.58c-15.97-1.79-33.17-1.7-48.73 3.93q-3 1.09-5.27 2.58a.33.32 42.3 0 0 .03.56l7.88 4.15" vector-effect="non-scaling-stroke"/><path stroke="#7a5927" d="M351.55 326.4q.39 1.15-.31 1.59" vector-effect="non-scaling-stroke"/><path stroke="#806f48" d="M351.24 327.99q-15.53 3.98-26.35 15.5a.23.22 17.3 0 0 .2.37l10.41-1.38" vector-effect="non-scaling-stroke"/><path stroke="#7a5927" d="M335.5 342.48q7.42-.15 14.41 1.39a.57.57 0 0 1-.02 1.11l-12.49 2.36" vector-effect="non-scaling-stroke"/><path stroke="#806f48" d="m337.4 347.34-5.28 1.6a1.38 1.36 7.2 0 0-.76.58q-18.2 29.17-38.44 52.68-14.28 16.6-21.99 24.71-10.13 10.64-16.32 23.43-6.96 14.39-2.63 29.91c3.83 13.74 10.8 24.82 19.04 37.78" vector-effect="non-scaling-stroke"/><path stroke="#6f451b" d="m271.02 518.03 3.46 5.41a.18.18 0 0 0 .33-.06q1.91-9.96 1.06-19.9a.16.15 26.1 0 1 .28-.09q10.96 15.5 19.02 32.43c6.5 13.63 10.49 28.72 7.71 43.36a.56.56 0 0 0 .66.66c18.65-3.63 34.15-16.67 43.25-33.08q10.92-19.7 11.27-42.77c.2-13.14-1.2-25.53-3.01-39.74-2.61-20.41-2.45-41.46 1.83-60.86q5.78-26.21 24.37-47.12" vector-effect="non-scaling-stroke"/><path stroke="#7a5927" d="m381.25 356.27 1.18-1.09a.3.3 0 0 1 .5.22q.01.89-.84 2.01" vector-effect="non-scaling-stroke"/><path stroke="#6f451b" d="M382.09 357.41q-21.46 38.16-19.06 82.36.81 14.9 1.43 19.49 2.37 17.6 2.9 22.31 1.11 9.96.92 24.18-.21 15.22-6.5 33.3a1.17 1.16 41.5 0 0 .06.88q8.79 17.17 21.86 30.63c9.87 10.16 22.97 17.55 35.88 23.49 12.56 5.78 23.59 11.32 34.38 17.82a.15.15 0 0 0 .21-.2l-4.23-8.38" vector-effect="non-scaling-stroke"/><path stroke="#7a5927" d="m449.94 603.29-2.32-6.09a.26.26 0 0 1 .44-.25q12.53 15.72 27.45 27.74 20.5 16.51 46.98 12.76c15.23-2.16 28.44-9.81 39.05-20.67q11.3-11.56 18.14-19.63a.29.29 0 0 1 .5.28l-2.1 6.28" vector-effect="non-scaling-stroke"/><path stroke="#6f451b" d="m578.08 603.71-3.24 7.18a.18.18 0 0 0 .26.23q14.58-8.59 34.9-18.15 8.33-3.92 17.63-9.87c16.22-10.38 28.44-25.38 37.44-42.61a2.85 2.84 48.9 0 0 .15-2.29q-5.47-15.07-6.17-30.69-.84-18.88 2.56-42.56 1.77-12.34 2.54-28.07c1.27-25.67-4.54-52.55-16.87-75.08" vector-effect="non-scaling-stroke"/><path stroke="#7a5927" d="m647.28 361.8-3.18-6.44a.16.16 0 0 1 .26-.19l2.27 2.08" vector-effect="non-scaling-stroke"/><path stroke="#6f451b" d="M646.63 357.25c23.41 26.28 29.59 60.33 26.44 95.14q-.51 5.66-2.62 23.61-1.3 11.11-1.38 24.75c-.11 19.56 5.12 38.33 16.98 53.89 9.52 12.49 23.1 21.77 38.61 24.41a.39.39 0 0 0 .45-.45q-2.34-13.59 1.35-26.39 2.93-10.16 5.37-15.4 8.51-18.22 19.41-34.09a.35.34 63.4 0 1 .63.21q-.45 9.48 1.16 19.15a.31.31 0 0 0 .57.1l3.42-5.72" vector-effect="non-scaling-stroke"/><path stroke="#806f48" d="M757.02 516.46q8.5-12.31 14.57-25.26c5.56-11.86 8.28-25.04 3.38-37.69q-4.83-12.47-14.88-24.12c-8.59-9.96-23.18-24.98-32.48-36.47q-17.19-21.24-31.61-43.99a1.18 1.16-7 0 0-.65-.5l-9.6-2.97" vector-effect="non-scaling-stroke"/><path stroke="#7a5927" d="m685.75 345.46-7.57-1.86a.19.19 0 0 1-.02-.37q3.01-1.03 6.09-1.04 3.74-.02 7.46.02" vector-effect="non-scaling-stroke"/><path stroke="#806f48" d="m691.71 342.21 11.09 1.32a.17.17 0 0 0 .14-.3q-7.24-6.79-15.8-11.55c-3.12-1.73-8.26-3.4-11.06-4.81a.63.63 0 0 1-.03-1.11l6.84-3.95a.36.35-48 0 0-.03-.63q-16.38-7.34-34.62-7.15-10.49.1-20.27.89a.29.28 70.9 0 0-.21.44l6.61 10.08" vector-effect="non-scaling-stroke"/><path stroke="#7a5927" d="m634.37 325.44 1.87 4.08" vector-effect="non-scaling-stroke"/><path stroke="#806f48" d="M636.24 329.52c-19.81-18.01-41.44-33.2-65.93-43.08q-37.33-15.06-77.49-9.78-22.39 2.95-42.13 12.01-33.08 15.19-60.76 41.38" vector-effect="non-scaling-stroke"/><path stroke="#f4c56d" d="M636.24 329.52q1.07.98 1.62 2.29a.4.39-83.8 0 1-.59.48q-4.84-3.5-10.98-7.92-4.14-2.97-11.51-7.08c-8.69-4.85-18.21-11.26-27.25-15.26q-19.26-8.51-38.31-13.71-13.95-3.81-33.69-4.11-25.45-.39-46.96 6.65-21.3 6.97-37.44 15.27-5.56 2.86-25.84 15.36c-5.51 3.4-10.57 7.16-15.52 10.91a.37.36 87.4 0 1-.53-.49q.6-.97.69-1.86M634.37 325.44q2.2-1.93 7.69-2.8 17.34-2.77 29.99.61 2.92.77 2.6 2.68a1.29 1.23 35.9 0 0 .15.82c2.45 4.33 9.74 3.56 11.17 8.19.65 2.12 1.62 2.96 2.55 4.51.66 1.09 2.42 1 3.19 2.76M685.75 345.46q.69 1.46 2.36 2.63a3.86 3.5 86.9 0 1 .87.86q6.52 9.09 11.44 18.46c3.39 6.45 6.61 11.61 10.13 16.16q4.8 6.21 13.34 17.96c6.63 9.11 13.03 15.37 22.41 24.61 5.38 5.32 8.27 9.24 13.29 15.87 7.2 9.51 9.89 19.65 9.38 31.27q-.56 12.58-4.6 26.16a1.36.92-34.1 0 1-.08.2l-5.85 10.57" vector-effect="non-scaling-stroke"/><path stroke="#e39b40" d="M758.44 510.21q-.2.07-.1-.41 1.7-7.9 2.6-13.28c.79-4.77.46-8.13.11-13.68q-.39-6.36-3.02-13.15a.52.52 0 0 0-.98.04c-1.4 4.69-3.05 8.4-6.22 12.17-2.43 2.9-4.54 6.45-7.43 9.85q-7.45 8.78-10.48 13.7-4.43 7.19-9.23 19.49c-2.94 7.54-3.28 15.88-3.72 24.17-.24 4.39.96 9.13 1.41 13.57a3.5 3.46 28.4 0 0 .38 1.25q.47.91.27 2.78a.81.81 0 0 1-1.35.51c-4.45-4.09-10.3-7.89-14.2-12.03q-7.78-8.25-12.25-17.15c-5.3-10.5-9.77-20.35-11.29-30.79q-2.02-13.9-1.23-30.07.26-5.3 1.39-28.18 1.47-29.75-9.26-57.1c-4.22-10.74-11.13-20.22-18.78-29.22q-2.77-3.26-6.08-5.78a.93.92-35.4 0 0-.86-.14l-1.49.49" vector-effect="non-scaling-stroke"/><path stroke="#e39b40" d="M647.28 361.8q-.86 3.48-.48 4.42 5.17 13.01 6.99 25.73 1.19 8.29 1.78 23.06.4 10.07-.94 23.1-2.21 21.42-3.3 28.95-2.44 16.84-2.47 26.26-.06 24.56 3.67 42.51 1.06 5.07-1.5 9.71-7.11 12.88-16.06 22.44c-6.28 6.71-14.47 12.31-20.9 16.74q-3.42 2.36-9.58 5.47-12.97 6.54-26.41 13.52M449.94 603.29q-1.4-.08-2.88-.95-2.63-1.54-2.64-1.54-10.31-5.05-15.87-7.62-10.03-4.64-15.48-8.3c-8.11-5.44-16.26-11.1-22.8-18.72-5.54-6.46-11.74-14.74-14.85-23.15a6.94 6.92 38.7 0 1-.37-3.33c1.8-13.71 3.4-24.85 3.39-37.28q-.03-20.56-3.78-43.41-2.44-14.84-2.79-32.73-.4-20.55.94-31.47 1.92-15.66 8.01-30.38 1.51-3.67 1.27-7" vector-effect="non-scaling-stroke"/><path stroke="#e39b40" d="m381.25 356.27-2.16-.15a1.15 1.12-64 0 0-.87.31c-8.5 8.07-15.28 17.96-21.21 28.31q-4.57 7.96-6.82 16.7-3.33 12.93-3.94 16.01-2.12 10.62-2.28 14.81-.42 11.08.79 30.01.75 11.56.73 26.96-.03 22.52-8.43 41.06-5.75 12.69-12.13 20.62c-2.92 3.63-5.31 5.6-9.77 9.26q-5.39 4.43-7.53 6.83a1.04 1.04 0 0 1-1.76-1.02q2.14-6.44 2.3-11.96.69-24.13-11.15-43.75c-5.6-9.3-11.82-16.95-18.95-26.6q-5.02-6.81-7.51-14.22a.87.86-39.7 0 0-1.58-.14c-4.37 7.81-4.27 17.51-3.46 26.49.3 3.31 1.63 7.4 2.19 11.16" vector-effect="non-scaling-stroke"/><path stroke="#f4c56d" d="M267.71 506.96c-3.26-2.96-4.2-6.9-5.09-11.16-1.22-5.78-3.11-10.64-3.71-16.24q-.56-5.31.27-14.92c1.1-12.51 9.85-24.02 18.44-33.53q3.35-3.71 10.8-10.7c2.45-2.31 4.51-5.14 6.58-7.39q2.11-2.29 4.75-5.75c10.9-14.3 21.99-28.65 30.33-44.52 2.13-4.05 4.92-7.81 7.18-11.77q1.55-2.71.14-3.64M335.5 342.48q.18-.55.14-.98-.06-.5-.58-.65-.8-.24-.95-1a.73.71-25.5 0 1 .26-.71q5.05-4.09 7.32-5.19 6.24-3.02 9.55-5.96M351.55 326.4q.74-.25.44-1.49a1.16 1.16 0 0 1 .95-1.41c6.94-1.1 14.16-2.3 20.78-2.15q9.55.22 19 2.7" vector-effect="non-scaling-stroke"/><path stroke="#e9b161" d="M757.02 516.46q-.16-2.59 1.42-6.25M267.71 506.96q2.83 5.35 3.31 11.07" vector-effect="non-scaling-stroke"/><path stroke="#6f451b" d="M663.92 562.08q-14.23 19.12-35.5 30.33-11.68 6.16-20.86 9.63-12.5 4.73-18.91 7.63-8.8 3.97-19.18 11.1a15.11 14.61 3.7 0 0-2.26 1.92q-8.38 8.77-10.1 10.16-16.22 13.14-37.25 14.74c-17.69 1.35-34.85-3.16-48.35-14.35q-3.92-3.24-9.83-9.92a16.41 16.25-3 0 0-2.84-2.53q-11.98-8.33-23.17-12.7-17.01-6.63-28.39-11.57-23.09-10.02-40.38-29.55" vector-effect="non-scaling-stroke"/><path stroke="#806f48" d="m366.9 566.97-6.19-9.17a.39.39 0 0 0-.71.15q-5.05 26.25-5.67 52.2c-.58 24.39.47 49.22 4.55 73.17q1.5 8.85 4.5 19.63" vector-effect="non-scaling-stroke"/><path stroke="#7a5927" d="M363.38 702.95q.21-.01.14.56" vector-effect="non-scaling-stroke"/><path stroke="#6f451b" d="M363.52 703.51c4.99 19.22 16.17 36.8 36.4 42.24a.35.34-88.5 0 0 .43-.41q-2.69-11.41-.44-21.95" vector-effect="non-scaling-stroke"/><path stroke="#7a5927" d="M399.91 723.39q2.96-12.74 11.31-21.8a.39.39 0 0 1 .65.4c-3.84 10.07-6.62 21.39-5.11 32.2" vector-effect="non-scaling-stroke"/><path stroke="#6f451b" d="M406.76 734.19c1.78 16.07 10.72 24.36 25.7 28.7a.41.4-84 0 0 .51-.42l-.67-9.07" vector-effect="non-scaling-stroke"/><path stroke="#7a5927" d="M432.3 753.4c.39-9.07 3.51-20.13 10.2-26.71a.4.4 0 0 1 .67.2q.04.22-.1.69-4.32 13.84-3.29 27.73" vector-effect="non-scaling-stroke"/><path stroke="#6f451b" d="m439.78 755.31 1.59 8.61a1.16 1.16 0 0 0 1.05.95q12.03 1.01 24.12-.77 1.78-.27 3.36-1.03c3.02-1.46 4.89-7.31 5.56-10.33" vector-effect="non-scaling-stroke"/><path stroke="#7a5927" d="M475.46 752.74c1.84-9.02-.12-19.98-3.5-28.53a.3.29-79.9 0 1 .47-.33q2.13 1.92 3.7 4.28 6.88 10.32 6.44 23.41" vector-effect="non-scaling-stroke"/><path stroke="#6f451b" d="m482.57 751.57-1.22 7.56a.54.54 0 0 0 .72.59c8.97-3.41 16.07-10.81 17.36-20.51" vector-effect="non-scaling-stroke"/><path stroke="#7a5927" d="M499.43 739.21q.71-5.43-.09-10.28-2.3-14.01-9.02-28.73c-6.79-14.86-17.54-27.48-32.91-33.88-22.48-9.36-43.09-3.58-62.63 9.11a.49.49 0 0 1-.67-.68c6.3-9.34 14.55-14.86 25.07-18.93a.4.4 0 0 0 .16-.63q-8.5-9.8-12.36-21.94a.36.36 0 0 1 .62-.35q5.64 6.58 12.27 12.99 4.07 3.94 9.39 6.83a1.91 1.89 57.9 0 0 .98.23c13.09-.47 24.74.91 36.26 7.32q10.46 5.82 17.3 12.19" vector-effect="non-scaling-stroke"/><path stroke="#6f451b" d="M483.8 672.46c13.24 14.92 20.49 32.28 24.8 51.19q.9 3.94 1.29 10.78a.58.57 87.8 0 0 .57.54h9.89a.39.39 0 0 0 .39-.38q.54-10.98 3.29-19.78c4.97-15.91 11.94-30.8 23.26-42.51" vector-effect="non-scaling-stroke"/><path stroke="#7a5927" d="M547.29 672.3q18.21-18.07 43.7-19.35 6.42-.32 10.42-.24a3.14 3.14 0 0 0 1.69-.45q4.05-2.47 7.63-6.03 6.69-6.65 12.85-13.84a.31.31 0 0 1 .53.3c-2.8 8.17-6.4 16.44-12.42 22.7a.37.37 0 0 0 .15.6q15.91 5.39 25.18 19.03a.26.26 0 0 1-.37.36q-1.94-1.32-9.26-5.26c-15.32-8.26-31.93-11.21-48.74-5.78q-12.75 4.12-21.23 11.84c-11.3 10.29-17.86 24.29-22.91 38.81q-3.7 10.6-3.42 22.13" vector-effect="non-scaling-stroke"/><path stroke="#6f451b" d="M531.09 737.12q.61 7.8 4.36 12.67 5.28 6.83 13.32 10a.3.29 7.2 0 0 .41-.31l-1.14-8.65" vector-effect="non-scaling-stroke"/><path stroke="#7a5927" d="M548.04 750.83q.01-15.02 9.01-26.29.72-.89 1.26-1.25a.45.45 0 0 1 .67.55q-4.87 11.77-4.23 24.91.13 2.64.64 4.13" vector-effect="non-scaling-stroke"/><path stroke="#6f451b" d="M555.39 752.88q1.12 5.8 4.2 9.73a2.48 2.45-9.1 0 0 1.15.82q2.32.77 5.01 1.1 11.29 1.35 22.13.12a1.68 1.67-88.1 0 0 1.46-1.37l1.57-8.79" vector-effect="non-scaling-stroke"/><path stroke="#7a5927" d="M590.91 754.49q1.22-14.16-3.28-27.56a.35.35 0 0 1 .47-.43q.25.11.61.54 9.35 11.32 9.65 26.17" vector-effect="non-scaling-stroke"/><path stroke="#6f451b" d="m598.36 753.21-.89 9.02a.59.59 0 0 0 .76.62c13.55-4.09 23.01-11.2 25.64-26.02" vector-effect="non-scaling-stroke"/><path stroke="#7a5927" d="M623.87 736.83q2.03-10.67-.92-22.23-1.49-5.83-4.28-12.89a.32.31 10.9 0 1 .51-.34c6.5 6.09 10.45 14.85 12.33 23.42" vector-effect="non-scaling-stroke"/><path stroke="#6f451b" d="M631.51 724.79q1.9 9.92-.12 19.44a.62.62 0 0 0 .75.74q10.96-2.69 18.52-10.07 11.91-11.63 16.41-28.95" vector-effect="non-scaling-stroke"/><path stroke="#7a5927" d="M667.07 705.95q1.28-2.16.85-3.58" vector-effect="non-scaling-stroke"/><path stroke="#806f48" d="M667.92 702.37q4-11.12 5.57-23.37 6.48-50.53 1.6-96.92-1.51-14.35-4.67-28.22a.59.58 55.1 0 0-1.06-.19l-5.44 8.41" vector-effect="non-scaling-stroke"/><path stroke="#f4c56d" d="M667.92 702.37q.38-6.54 1.15-12.77 1.04-8.38 1.24-12.75.92-20.02 1.7-30.35c.64-8.55-.66-19.72-.87-26.93q-.5-17.52-3.14-37.08-.32-2.41-.79-3.98" vector-effect="non-scaling-stroke"/><path stroke="#e9b161" d="m667.21 578.51-3.29-16.43" vector-effect="non-scaling-stroke"/><path stroke="#e39b40" d="M667.07 705.95q-2.85 1.93-5.23 4.71-3.51 4.09-4.79 5.1c-5.58 4.4-11.52 6.89-18.6 7.92q-3.44.5-6.94 1.11M623.87 736.83q-7.48 9.85-17.63 13.91-2.56 1.02-7.88 2.47M590.91 754.49q-17.72 4.37-35.52-1.61M548.04 750.83q-11.18-4.65-16.95-13.71M667.21 578.51q-2.14 3.31-4.61 5.34c-8.24 6.77-20.03 15.19-31.17 20.09l-25.51 11.25q-7.9 3.49-16.13 9.87-11.23 8.71-19.92 19.88c-2 2.57-6.16 7.17-7.96 8.81q-1.69 1.54-5.7 6.6c-3.06 3.86-7.18 6.51-8.92 11.95M483.8 672.46c-1.84-4.43-4.51-6.42-8.7-10.11a3.59 3.51-84.9 0 1-.72-.88l-1.3-2.25a6.19 6.13-85.3 0 0-1.36-1.62q-9.92-8.39-11.74-10.62-7.6-9.34-10.63-12.07t-13-9.92q-4.3-3.1-8.42-5.07-7.98-3.82-8.93-4.18c-17.71-6.67-35.46-15.85-50.54-28.94q-1.9-1.65-4.92-5.52" vector-effect="non-scaling-stroke"/><path stroke="#e9b161" d="M366.9 566.97q-2.7 6.19-3.36 14.31" vector-effect="non-scaling-stroke"/><path stroke="#f4c56d" d="M363.54 581.28q-1.17 10.47-2.43 21.15-.59 5.02-1.77 31.07-.54 11.98.32 19.48.58 5.12.68 7.47c.29 7.23 1.3 15.62 1.45 20.81.21 7.17 1.77 14.4 3.02 20.82a.61.6 65.8 0 1-.23.61q-.42.31-1.2.26" vector-effect="non-scaling-stroke"/><path stroke="#e39b40" d="m499.43 739.21-1.42.13a1.05 1.04 14.3 0 0-.79.46q-5.5 8.07-14.65 11.77M475.46 752.74c-4.56 1.78-8.05 2.28-13.51 3.24q-4.17.73-7.69.66-7.24-.15-14.48-1.33M432.3 753.4q-9.71-3.06-14.55-6.12-6.38-4.04-10.99-13.09M399.91 723.39q-17.25.6-28.6-11.6c-2.18-2.34-3.7-5.02-5.71-7.44a1.23 1.22-10.9 0 0-.61-.41l-1.47-.43" vector-effect="non-scaling-stroke"/><path stroke="#6f451b" d="M685.35 602.46q-.08 9.71.07 13.29 1.39 32.11-2.55 64.53-1.17 9.6-3.54 18.79a.51.5 89.7 0 0 .61.61q2.9-.74 6.06.17" vector-effect="non-scaling-stroke"/><path stroke="#806f48" d="M686 699.85q12.22-15.53 18.18-34.25 2.62-8.22 3.64-15.03c3.31-22.15-5.52-45.25-22.79-59.56a.25.25 0 0 0-.41.21l.73 11.24" vector-effect="non-scaling-stroke"/><path stroke="#e9b161" d="M686 699.85q5.39-12.22 9.63-24.09 4.1-11.48 4.92-19.13 1.49-14.14-.85-28.37-.84-5.07-4.35-11.37-4.86-8.7-10-14.43" vector-effect="non-scaling-stroke"/><path stroke="#6f451b" d="M349.23 699.22q1.32.4 2.7.21a.48.48 0 0 0 .4-.57q-6.74-32.61-6.45-66.86.16-18.26.42-27.08" vector-effect="non-scaling-stroke"/><path stroke="#806f48" d="m346.3 604.92.76-12.01a.34.33-20.2 0 0-.57-.26Q325.3 613.31 325 641.23c-.21 19.54 9.58 41.26 20.7 57.52a1.48 1.46-10.5 0 0 .87.59q1.31.3 2.66-.12" vector-effect="non-scaling-stroke"/><path stroke="#e9b161" d="M346.3 604.92q-13.03 15.79-13.62 36.58-.4 14.14 2.75 26.36c1.55 6.04 4.27 12.05 7.03 19.42q2.48 6.63 6.77 11.94" vector-effect="non-scaling-stroke"/><path stroke="#6f451b" d="M322.97 737.57q4.8 3.66 9.48 4.92a.42.41 8.2 0 0 .53-.39q.51-16.25 14.77-23.72a.31.3 1.2 0 1 .41.42c-4.27 7.24-7.15 15.83-6.8 24.43a1.79 1.79 0 0 0 1.54 1.7q10.03 1.4 19.07 1.11a.47.46 86.1 0 0 .45-.52q-.95-7.53 1.56-14.64a1.63 1.62-46.2 0 0-.02-1.13q-.9-2.22-3.37-6.84c-2.46-4.59-4.13-9.6-5.76-14.57" vector-effect="non-scaling-stroke"/><path stroke="#806f48" d="m354.83 708.34-.43-1.5a.71.7-7.1 0 0-.67-.51q-17.89-.19-28.29 14.09-6.7 9.2-2.47 17.15" vector-effect="non-scaling-stroke"/><path stroke="#e9b161" d="M354.83 708.34q0 1.2-1.93.18a2.83 2.79 56 0 0-1.59-.32q-3.49.34-7.47 2.12-13.43 5.98-18.55 19.46-1.1 2.89-.83 7.21.08 1.3-1.49.58" vector-effect="non-scaling-stroke"/><path stroke="#806f48" d="M712.28 735.49q1.82-8.76-4.06-15.96-10.38-12.74-26.08-13.1" vector-effect="non-scaling-stroke"/><path stroke="#6f451b" d="M682.14 706.43q-2.04-.29-4.33.49a1.06 1.04-1.8 0 0-.67.7q-2.92 10.07-8.13 19.66a1.82 1.79-42.4 0 0-.08 1.57q3.32 7.78 2.37 16.05a.86.86 0 0 0 .85.95q10.29.04 19.29-1.35a1.24 1.23-1.6 0 0 1.04-1.09c.96-9.06-2.01-16.94-6.4-24.76a.38.37 89.3 0 1 .5-.52q14.08 7.48 14.14 23.45a.46.45-6.6 0 0 .56.44q7.53-1.68 11-6.53" vector-effect="non-scaling-stroke"/><path stroke="#e9b161" d="M682.14 706.43q.65 2.22 5.27 2.69a3.89 3.86 59.8 0 1 1.3.35c8.78 4.09 16.17 9.3 20.64 18.16q.48.95 1.22 4.02.55 2.28 1.71 3.84" vector-effect="non-scaling-stroke"/><path stroke="#6f451b" d="M663.92 735.8a.11.11 0 0 0-.18-.07l-8.13 8.14a.76.75 22.5 0 0 .54 1.29h6.47a.68.68 0 0 0 .67-.55q.89-4.3.63-8.81M369.07 737.73l1 6.93a1.01 1.01 0 0 0 1 .86h5.15a.6.6 0 0 0 .43-1.02l-7.05-7.04a.31.31 0 0 0-.53.27" vector-effect="non-scaling-stroke"/><path stroke="#7a5927" d="M399.41 456.76q3.91 5.24 9.44 8.08" vector-effect="non-scaling-stroke"/><path stroke="#f7d7a6" d="M408.85 464.84q2.64 1.58 6.64 1.91 5.24.45 11.03.91" vector-effect="non-scaling-stroke"/><path stroke="#b37732" d="M426.52 467.66q8.46.83 17.21-.22" vector-effect="non-scaling-stroke"/><path stroke="#7a5927" d="m443.73 467.44 12.15-.72a1.71 1.7-79.1 0 0 1.44-.98l1.5-3.14" vector-effect="non-scaling-stroke"/><path stroke="#e39b40" d="M458.82 462.6c6.03-1.52 7.01-7 9.71-13.73 3.09-7.72 4.01-16.87 4.44-24.35q1.19-20.51-9.47-37.41c-3.44-5.45-8.8-10.1-14.2-13.25-7.7-4.5-16.42-5.72-25.15-4.2-19.11 3.35-32.28 17.93-36.93 36.56-2.44 9.74-3.09 20.42.28 30.27q.52 1.52 5.05 12.43 1.99 4.81 6.86 7.84" vector-effect="non-scaling-stroke"/><path stroke="#6f451b" d="M458.82 462.6c5.27-14.17 7.5-30.01 2.24-44.3-4.65-12.61-13.65-20.75-27.02-22.14-12.24-1.27-24.98 5.47-31.83 15.05q-15.27 21.37-2.8 45.55" vector-effect="non-scaling-stroke"/><path stroke="#3f220d" d="M443.73 467.44q-9.44-.36-15.89-6.06c-4.57-4.05-8.4-11.38-8.5-18.12q-.08-5.58.22-7.28 2.46-13.73 15.39-18.76c6.76-2.62 12.59-1.63 19.38.2a.42.42 0 0 0 .44-.67l-2.96-3.74" vector-effect="non-scaling-stroke"/><path stroke="#783533" d="m451.81 413.01-.44-.58" vector-effect="non-scaling-stroke"/><path stroke="#838181" d="M451.37 412.43c-8.66-8.48-21.43-9.75-31.75-3.57-20.02 11.98-24.37 36.92-10.77 55.98" vector-effect="non-scaling-stroke"/><path stroke="#f5b3b1" d="m451.37 412.43-.4.35" vector-effect="non-scaling-stroke"/><path stroke="#bca08c" d="M450.97 412.78q-6.64-2.99-13.22-2.08c-16.21 2.22-26.71 15.06-26.72 31.12q-.01 10.93 8.01 20.14 2.36 2.71 7.48 5.7" vector-effect="non-scaling-stroke"/><path stroke="#b1533e" d="M450.97 412.78q.31.25.84.23" vector-effect="non-scaling-stroke"/><path stroke="#7a5927" d="M562.47 461.89q-8.05-5.38-15.67-7.32a.39.39 0 0 0-.32.7q18.84 13.03 30.67 32.24a.42.42 0 0 0 .7.02q.08-.12 0-.49-1.99-8.84-6.98-16.44" vector-effect="non-scaling-stroke"/><path stroke="#e39b40" d="M570.87 470.6q-.45-2.53 1.97-2.78 4.55-.46 8.33-.27 7.14.35 7.22.35 4.04-.01 8.11-.06" vector-effect="non-scaling-stroke"/><path stroke="#b37732" d="m596.5 467.84 5.09-1.14" vector-effect="non-scaling-stroke"/><path stroke="#f7d7a6" d="M601.59 466.7q8.81 1.02 16.41-1.98" vector-effect="non-scaling-stroke"/><path stroke="#7a5927" d="M618 464.72q4.95-3.27 8.21-7.94" vector-effect="non-scaling-stroke"/><path stroke="#e39b40" d="M626.21 456.78q1.87-.6 3.06-2.56a1.6 1.6 0 0 1 .69-.63q1.13-.54 1.71-1.69c3.53-6.95 7.81-15.23 8.8-22.87q2.8-21.49-9.03-39.17c-9.24-13.82-24.06-22.03-40.63-20.47-14.36 1.35-26.74 11.95-32.3 24.89q-5.65 13.12-5.24 26.97.23 7.7 2.25 18.37.66 3.48 3.02 9.7 2.28 5.98 3.93 12.57" vector-effect="non-scaling-stroke"/><path stroke="#6f451b" d="M626.21 456.78c13.92-20.64 2.81-51.14-20.47-58.9-14.94-4.98-30.08.21-37.76 14.05-8.78 15.83-6.47 34.99-.1 51.76q.63 1.64 1.43 2.56a1.24 1.24 0 0 0 .85.41l13.83.66" vector-effect="non-scaling-stroke"/><path stroke="#a86426" d="m583.99 467.32 12.51.52" vector-effect="non-scaling-stroke"/><path stroke="#6f451b" d="M570.87 470.6q-3.92-5.42-8.4-8.71" vector-effect="non-scaling-stroke"/><path stroke="#838181" d="M618 464.72q.84-1.97 1.87-3.56c6.77-10.46 7.19-23.57 2.6-34.62-7.53-18.15-32.17-30.65-48.07-13.57" vector-effect="non-scaling-stroke"/><path stroke="#783533" d="M574.4 412.97q-.28.21-.48.53" vector-effect="non-scaling-stroke"/><path stroke="#3f220d" d="M573.92 413.5q-1.67 1.53-2.61 3.42a.27.27 0 0 0 .33.37q8.06-2.67 15.13-1.62 3.77.56 9.98 4.43c5.38 3.37 8.94 9.82 9.8 15.63q1.2 8.11-1.69 16.37c-3.04 8.72-11.62 15-20.87 15.22" vector-effect="non-scaling-stroke"/><path stroke="#b1533e" d="M573.92 413.5q.31.67.81-.31" vector-effect="non-scaling-stroke"/><path stroke="#bca08c" d="M601.59 466.7q7.73-5.17 10.73-11.92 4.73-10.62 2.05-20.94-2.91-11.25-11.29-17.46c-7.7-5.71-19.18-7.78-28.35-3.19" vector-effect="non-scaling-stroke"/><path stroke="#f5b3b1" d="M574.73 413.19q-.1-.11-.33-.22" vector-effect="non-scaling-stroke"/><path stroke="#7a5927" d="M447.98 487.14a.42.42 0 0 0 .76.33q8.78-13.48 20.55-24.43 4.45-4.15 9.89-7.21a.59.58 38.7 0 0-.12-1.07q-.3-.09-.75.03-11.62 3.14-19.64 11.26c-5.33 5.39-8.87 13.68-10.69 21.09M509 539.92v13.39a1.26 1.24 76.3 0 1-.66 1.11q-5.73 3.05-10.27 6.88c-12.41 10.48-19.32 33-7.46 46.49q12.22 13.89 31.27 9.51c10.1-2.32 19.53-10.79 21.5-21.08q1.92-10.01-2.33-19.47c-2.92-6.49-7.33-12.63-12.56-16.27q-3.63-2.53-10.26-6.24a.83.81-76 0 1-.42-.72v-13.74a.63.62 84.5 0 1 .5-.62c16.8-3.4 33.1-17.93 39.42-33.87 8.07-20.38-9.25-31.28-26.46-34.11q-10.94-1.8-24.28-1.22c-11.08.49-20.88 2.01-29.72 7.49-8.96 5.57-12.59 15.37-9.47 25.42 5.02 16.16 18.45 27.93 34.32 34.43 1.72.7 4.64 1.21 6.34 1.84a.85.83 10.8 0 1 .54.78" vector-effect="non-scaling-stroke"/><path stroke="#838181" d="M452.63 428.06a8.34 8.34 0 0 0-8.34-8.34 8.34 8.34 0 0 0-8.34 8.34 8.34 8.34 0 0 0 8.34 8.34 8.34 8.34 0 0 0 8.34-8.34M431.45 448.3a3.95 3.95 0 0 0-3.95-3.95 3.95 3.95 0 0 0-3.95 3.95 3.95 3.95 0 0 0 3.95 3.95 3.95 3.95 0 0 0 3.95-3.95M581.8 419.64a8.51 8.3-89.8 0 0-8.33 8.481 8.51 8.3-89.8 0 0 8.27 8.539 8.51 8.3-89.8 0 0 8.33-8.481 8.51 8.3-89.8 0 0-8.27-8.539M602.66 448.35a3.86 3.86 0 0 0-3.86-3.86 3.86 3.86 0 0 0-3.86 3.86 3.86 3.86 0 0 0 3.86 3.86 3.86 3.86 0 0 0 3.86-3.86M513.17 490.27c7.43-.01 15.69-.17 23.48-1.82q2.19-.47 3.63-1.6a1.29 1.29 0 0 0 .02-2.02c-5.99-4.89-18.93-5.63-27.14-5.62-8.22.01-21.15.76-27.13 5.67a1.29 1.29 0 0 0 .02 2.02q1.44 1.12 3.64 1.59c7.78 1.64 16.04 1.78 23.48 1.78" vector-effect="non-scaling-stroke"/><path stroke="#783533" d="M533.78 597.95a1 .98-54.3 0 0-.2-1.26c-6.39-5.54-15.84-7.37-24.15-6.74-5.28.39-10.67 2.55-14.73 5.55a1.5 1.49 64.6 0 0-.56 1.59q.73 2.76 2.84 4.85 12.52 12.44 28.24 4.06 5.57-2.96 8.56-8.05" vector-effect="non-scaling-stroke"/></g><path fill="#fff" d="M320.05 352.29a.35.35 0 0 1 .28.55q-9.26 12.86-18.82 24.42-14.89 17.98-31.29 35.21c-16.09 16.9-33.71 38.34-29.48 63.66q2.23 13.39 9.77 26.13 11.1 18.79 26.51 37.62a.45.45 0 0 0 .79-.17l3.42-12.86a.29.29 0 0 1 .53-.06q7.39 14.17 10.74 28.94 2.78 12.26.71 23.3-1.14 6.08-1.91 9.62a.53.52 10.2 0 0 .44.63q19.7 2.6 36.69-8.43 11.65-7.56 20.99-19.56a.34.34 0 0 1 .6.25l-2.48 17.73a1.07 1.06-14.1 0 1-.44.73q-20.33 14.69-28.32 38.55c-9.51 28.45 1.25 58.4 17.39 82.06a.45.45 0 0 1-.2.67q-9.72 3.97-15.9 10.81c-4.39 4.85-7.95 12.26-8.34 18.44-.85 13.46 9.6 19.19 20.87 21.93q21.89 5.3 46.2 1.8c3.28-.47 7.42-1.77 10.03-2.09a2.53 2.43-35.2 0 1 1.31.2q6.27 2.83 13.53 2.8a.99.98-16.2 0 1 .83.45q5.48 8.26 12.72 12.14c15.04 8.06 35.06 9.13 51.94 6.32 16.6-2.76 34.66-10.67 39.06-28.39a.49.48 6.8 0 1 .47-.36h12.88a1.01 1-5.6 0 1 .99.81c2.04 10.46 11.52 18.51 21.41 22.61q26.21 10.89 55.05 4.3c11.47-2.62 20.83-7.71 27.66-17.39a1.16 1.16 0 0 1 .92-.48q8.16-.02 15.75-3.33a1.8 1.79-49.4 0 1 1.15-.09q28.88 7.51 56.8.54c13.81-3.45 24.67-11.19 19.86-27.36q-4.21-14.12-18.59-21.53-3.88-1.99-5.63-2.52a.41.41 0 0 1-.21-.63c15.86-21.88 26.54-50.91 19.1-78.05q-7.59-27.69-31.63-43.31a1.23 1.21-77.9 0 1-.54-.85l-1.79-12.28a.18.18 0 0 1 .31-.14c13.86 15.63 33.12 25.62 54.35 22.86a.38.37 79.6 0 0 .31-.46q-1.5-6.17-2.02-9.07c-3.25-18.22 3.43-36.01 11.45-53.15a.37.37 0 0 1 .69.07l3.38 12.53a.59.58 57 0 0 1.02.22c6.55-8.06 13.81-18.12 18.92-25.72q9.03-13.43 13.87-26.02 8.02-20.82-1.67-41.43-5.79-12.32-15.14-22.83-10.63-11.92-24.71-27.23-15.66-17.02-33.54-40.74-1.38-1.83-2.15-3.24a.18.17-14.5 0 1 .16-.26h7.34a.54.54 0 0 0 .5-.76c-4.27-9.84-12.69-18-22.06-23.06a.48.48 0 0 1 .15-.9l6.19-.89a.54.54 0 0 0 .34-.88c-16.78-20.72-53.83-22.38-76.98-16.2a1.18 1.17-30.9 0 1-1.09-.27q-28.42-26.21-66.42-37.26-18.97-5.52-42.57-5.5-36.41.03-67.45 15.35-23.64 11.65-40.64 27.75a1.04 1.04 0 0 1-.94.26c-25.85-5.53-57.88-5.48-76.74 16.23a.54.54 0 0 0 .33.89l6.11.85a.55.54-55.8 0 1 .19 1.01q-14.86 8.63-21.96 23.87a.45.45 0 0 0 .41.64z"/><path fill="#060302" d="M320.05 352.29h-8.24a.45.45 0 0 1-.41-.64q7.1-15.24 21.96-23.87a.55.54-55.8 0 0-.19-1.01l-6.11-.85a.54.54 0 0 1-.33-.89c18.86-21.71 50.89-21.76 76.74-16.23a1.04 1.04 0 0 0 .94-.26q17-16.1 40.64-27.75 31.04-15.32 67.45-15.35 23.6-.02 42.57 5.5 38 11.05 66.42 37.26a1.18 1.17-30.9 0 0 1.09.27c23.15-6.18 60.2-4.52 76.98 16.2a.54.54 0 0 1-.34.88l-6.19.89a.48.48 0 0 0-.15.9c9.37 5.06 17.79 13.22 22.06 23.06a.54.54 0 0 1-.5.76h-7.34a.18.17-14.5 0 0-.16.26q.77 1.41 2.15 3.24 17.88 23.72 33.54 40.74 14.08 15.31 24.71 27.23 9.35 10.51 15.14 22.83 9.69 20.61 1.67 41.43-4.84 12.59-13.87 26.02c-5.11 7.6-12.37 17.66-18.92 25.72a.59.58 57 0 1-1.02-.22l-3.38-12.53a.37.37 0 0 0-.69-.07c-8.02 17.14-14.7 34.93-11.45 53.15q.52 2.9 2.02 9.07a.38.37 79.6 0 1-.31.46c-21.23 2.76-40.49-7.23-54.35-22.86a.18.18 0 0 0-.31.14l1.79 12.28a1.23 1.21-77.9 0 0 .54.85q24.04 15.62 31.63 43.31c7.44 27.14-3.24 56.17-19.1 78.05a.41.41 0 0 0 .21.63q1.75.53 5.63 2.52 14.38 7.41 18.59 21.53c4.81 16.17-6.05 23.91-19.86 27.36q-27.92 6.97-56.8-.54a1.8 1.79-49.4 0 0-1.15.09q-7.59 3.31-15.75 3.33a1.16 1.16 0 0 0-.92.48c-6.83 9.68-16.19 14.77-27.66 17.39q-28.84 6.59-55.05-4.3c-9.89-4.1-19.37-12.15-21.41-22.61a1.01 1-5.6 0 0-.99-.81h-12.88a.49.48 6.8 0 0-.47.36c-4.4 17.72-22.46 25.63-39.06 28.39-16.88 2.81-36.9 1.74-51.94-6.32q-7.24-3.88-12.72-12.14a.99.98-16.2 0 0-.83-.45q-7.26.03-13.53-2.8a2.53 2.43-35.2 0 0-1.31-.2c-2.61.32-6.75 1.62-10.03 2.09q-24.31 3.5-46.2-1.8c-11.27-2.74-21.72-8.47-20.87-21.93.39-6.18 3.95-13.59 8.34-18.44q6.18-6.84 15.9-10.81a.45.45 0 0 0 .2-.67c-16.14-23.66-26.9-53.61-17.39-82.06q7.99-23.86 28.32-38.55a1.07 1.06-14.1 0 0 .44-.73l2.48-17.73a.34.34 0 0 0-.6-.25q-9.34 12-20.99 19.56-16.99 11.03-36.69 8.43a.53.52 10.2 0 1-.44-.63q.77-3.54 1.91-9.62 2.07-11.04-.71-23.3-3.35-14.77-10.74-28.94a.29.29 0 0 0-.53.06l-3.42 12.86a.45.45 0 0 1-.79.17q-15.41-18.83-26.51-37.62-7.54-12.74-9.77-26.13c-4.23-25.32 13.39-46.76 29.48-63.66q16.4-17.23 31.29-35.21 9.56-11.56 18.82-24.42a.35.35 0 0 0-.28-.55m69.88-22.24q.81-3.15 2.79-6l5.19-8.29a.38.38 0 0 0-.27-.58c-15.97-1.79-33.17-1.7-48.73 3.93q-3 1.09-5.27 2.58a.33.32 42.3 0 0 .03.56l7.88 4.15q.39 1.15-.31 1.59-15.53 3.98-26.35 15.5a.23.22 17.3 0 0 .2.37l10.41-1.38q7.42-.15 14.41 1.39a.57.57 0 0 1-.02 1.11l-12.49 2.36-5.28 1.6a1.38 1.36 7.2 0 0-.76.58q-18.2 29.17-38.44 52.68-14.28 16.6-21.99 24.71-10.13 10.64-16.32 23.43-6.96 14.39-2.63 29.91c3.83 13.74 10.8 24.82 19.04 37.78l3.46 5.41a.18.18 0 0 0 .33-.06q1.91-9.96 1.06-19.9a.16.15 26.1 0 1 .28-.09q10.96 15.5 19.02 32.43c6.5 13.63 10.49 28.72 7.71 43.36a.56.56 0 0 0 .66.66c18.65-3.63 34.15-16.67 43.25-33.08q10.92-19.7 11.27-42.77c.2-13.14-1.2-25.53-3.01-39.74-2.61-20.41-2.45-41.46 1.83-60.86q5.78-26.21 24.37-47.12l1.18-1.09a.3.3 0 0 1 .5.22q.01.89-.84 2.01-21.46 38.16-19.06 82.36.81 14.9 1.43 19.49 2.37 17.6 2.9 22.31 1.11 9.96.92 24.18-.21 15.22-6.5 33.3a1.17 1.16 41.5 0 0 .06.88q8.79 17.17 21.86 30.63c9.87 10.16 22.97 17.55 35.88 23.49 12.56 5.78 23.59 11.32 34.38 17.82a.15.15 0 0 0 .21-.2l-4.23-8.38-2.32-6.09a.26.26 0 0 1 .44-.25q12.53 15.72 27.45 27.74 20.5 16.51 46.98 12.76c15.23-2.16 28.44-9.81 39.05-20.67q11.3-11.56 18.14-19.63a.29.29 0 0 1 .5.28l-2.1 6.28-3.24 7.18a.18.18 0 0 0 .26.23q14.58-8.59 34.9-18.15 8.33-3.92 17.63-9.87c16.22-10.38 28.44-25.38 37.44-42.61a2.85 2.84 48.9 0 0 .15-2.29q-5.47-15.07-6.17-30.69-.84-18.88 2.56-42.56 1.77-12.34 2.54-28.07c1.27-25.67-4.54-52.55-16.87-75.08l-3.18-6.44a.16.16 0 0 1 .26-.19l2.27 2.08c23.41 26.28 29.59 60.33 26.44 95.14q-.51 5.66-2.62 23.61-1.3 11.11-1.38 24.75c-.11 19.56 5.12 38.33 16.98 53.89 9.52 12.49 23.1 21.77 38.61 24.41a.39.39 0 0 0 .45-.45q-2.34-13.59 1.35-26.39 2.93-10.16 5.37-15.4 8.51-18.22 19.41-34.09a.35.34 63.4 0 1 .63.21q-.45 9.48 1.16 19.15a.31.31 0 0 0 .57.1l3.42-5.72q8.5-12.31 14.57-25.26c5.56-11.86 8.28-25.04 3.38-37.69q-4.83-12.47-14.88-24.12c-8.59-9.96-23.18-24.98-32.48-36.47q-17.19-21.24-31.61-43.99a1.18 1.16-7 0 0-.65-.5l-9.6-2.97-7.57-1.86a.19.19 0 0 1-.02-.37q3.01-1.03 6.09-1.04 3.74-.02 7.46.02l11.09 1.32a.17.17 0 0 0 .14-.3q-7.24-6.79-15.8-11.55c-3.12-1.73-8.26-3.4-11.06-4.81a.63.63 0 0 1-.03-1.11l6.84-3.95a.36.35-48 0 0-.03-.63q-16.38-7.34-34.62-7.15-10.49.1-20.27.89a.29.28 70.9 0 0-.21.44l6.61 10.08 1.87 4.08c-19.81-18.01-41.44-33.2-65.93-43.08q-37.33-15.06-77.49-9.78-22.39 2.95-42.13 12.01-33.08 15.19-60.76 41.38m273.99 232.03q-14.23 19.12-35.5 30.33-11.68 6.16-20.86 9.63-12.5 4.73-18.91 7.63-8.8 3.97-19.18 11.1a15.11 14.61 3.7 0 0-2.26 1.92q-8.38 8.77-10.1 10.16-16.22 13.14-37.25 14.74c-17.69 1.35-34.85-3.16-48.35-14.35q-3.92-3.24-9.83-9.92a16.41 16.25-3 0 0-2.84-2.53q-11.98-8.33-23.17-12.7-17.01-6.63-28.39-11.57-23.09-10.02-40.38-29.55l-6.19-9.17a.39.39 0 0 0-.71.15q-5.05 26.25-5.67 52.2c-.58 24.39.47 49.22 4.55 73.17q1.5 8.85 4.5 19.63.21-.01.14.56c4.99 19.22 16.17 36.8 36.4 42.24a.35.34-88.5 0 0 .43-.41q-2.69-11.41-.44-21.95 2.96-12.74 11.31-21.8a.39.39 0 0 1 .65.4c-3.84 10.07-6.62 21.39-5.11 32.2 1.78 16.07 10.72 24.36 25.7 28.7a.41.4-84 0 0 .51-.42l-.67-9.07c.39-9.07 3.51-20.13 10.2-26.71a.4.4 0 0 1 .67.2q.04.22-.1.69-4.32 13.84-3.29 27.73l1.59 8.61a1.16 1.16 0 0 0 1.05.95q12.03 1.01 24.12-.77 1.78-.27 3.36-1.03c3.02-1.46 4.89-7.31 5.56-10.33 1.84-9.02-.12-19.98-3.5-28.53a.3.29-79.9 0 1 .47-.33q2.13 1.92 3.7 4.28 6.88 10.32 6.44 23.41l-1.22 7.56a.54.54 0 0 0 .72.59c8.97-3.41 16.07-10.81 17.36-20.51q.71-5.43-.09-10.28-2.3-14.01-9.02-28.73c-6.79-14.86-17.54-27.48-32.91-33.88-22.48-9.36-43.09-3.58-62.63 9.11a.49.49 0 0 1-.67-.68c6.3-9.34 14.55-14.86 25.07-18.93a.4.4 0 0 0 .16-.63q-8.5-9.8-12.36-21.94a.36.36 0 0 1 .62-.35q5.64 6.58 12.27 12.99 4.07 3.94 9.39 6.83a1.91 1.89 57.9 0 0 .98.23c13.09-.47 24.74.91 36.26 7.32q10.46 5.82 17.3 12.19c13.24 14.92 20.49 32.28 24.8 51.19q.9 3.94 1.29 10.78a.58.57 87.8 0 0 .57.54h9.89a.39.39 0 0 0 .39-.38q.54-10.98 3.29-19.78c4.97-15.91 11.94-30.8 23.26-42.51q18.21-18.07 43.7-19.35 6.42-.32 10.42-.24a3.14 3.14 0 0 0 1.69-.45q4.05-2.47 7.63-6.03 6.69-6.65 12.85-13.84a.31.31 0 0 1 .53.3c-2.8 8.17-6.4 16.44-12.42 22.7a.37.37 0 0 0 .15.6q15.91 5.39 25.18 19.03a.26.26 0 0 1-.37.36q-1.94-1.32-9.26-5.26c-15.32-8.26-31.93-11.21-48.74-5.78q-12.75 4.12-21.23 11.84c-11.3 10.29-17.86 24.29-22.91 38.81q-3.7 10.6-3.42 22.13.61 7.8 4.36 12.67 5.28 6.83 13.32 10a.3.29 7.2 0 0 .41-.31l-1.14-8.65q.01-15.02 9.01-26.29.72-.89 1.26-1.25a.45.45 0 0 1 .67.55q-4.87 11.77-4.23 24.91.13 2.64.64 4.13 1.12 5.8 4.2 9.73a2.48 2.45-9.1 0 0 1.15.82q2.32.77 5.01 1.1 11.29 1.35 22.13.12a1.68 1.67-88.1 0 0 1.46-1.37l1.57-8.79q1.22-14.16-3.28-27.56a.35.35 0 0 1 .47-.43q.25.11.61.54 9.35 11.32 9.65 26.17l-.89 9.02a.59.59 0 0 0 .76.62c13.55-4.09 23.01-11.2 25.64-26.02q2.03-10.67-.92-22.23-1.49-5.83-4.28-12.89a.32.31 10.9 0 1 .51-.34c6.5 6.09 10.45 14.85 12.33 23.42q1.9 9.92-.12 19.44a.62.62 0 0 0 .75.74q10.96-2.69 18.52-10.07 11.91-11.63 16.41-28.95 1.28-2.16.85-3.58 4-11.12 5.57-23.37 6.48-50.53 1.6-96.92-1.51-14.35-4.67-28.22a.59.58 55.1 0 0-1.06-.19zm21.43 40.38q-.08 9.71.07 13.29 1.39 32.11-2.55 64.53-1.17 9.6-3.54 18.79a.51.5 89.7 0 0 .61.61q2.9-.74 6.06.17 12.22-15.53 18.18-34.25 2.62-8.22 3.64-15.03c3.31-22.15-5.52-45.25-22.79-59.56a.25.25 0 0 0-.41.21zm-336.12 96.76q1.32.4 2.7.21a.48.48 0 0 0 .4-.57q-6.74-32.61-6.45-66.86.16-18.26.42-27.08l.76-12.01a.34.33-20.2 0 0-.57-.26Q325.3 613.31 325 641.23c-.21 19.54 9.58 41.26 20.7 57.52a1.48 1.46-10.5 0 0 .87.59q1.31.3 2.66-.12m-26.26 38.35q4.8 3.66 9.48 4.92a.42.41 8.2 0 0 .53-.39q.51-16.25 14.77-23.72a.31.3 1.2 0 1 .41.42c-4.27 7.24-7.15 15.83-6.8 24.43a1.79 1.79 0 0 0 1.54 1.7q10.03 1.4 19.07 1.11a.47.46 86.1 0 0 .45-.52q-.95-7.53 1.56-14.64a1.63 1.62-46.2 0 0-.02-1.13q-.9-2.22-3.37-6.84c-2.46-4.59-4.13-9.6-5.76-14.57l-.43-1.5a.71.7-7.1 0 0-.67-.51q-17.89-.19-28.29 14.09-6.7 9.2-2.47 17.15m389.31-2.08q1.82-8.76-4.06-15.96-10.38-12.74-26.08-13.1-2.04-.29-4.33.49a1.06 1.04-1.8 0 0-.67.7q-2.92 10.07-8.13 19.66a1.82 1.79-42.4 0 0-.08 1.57q3.32 7.78 2.37 16.05a.86.86 0 0 0 .85.95q10.29.04 19.29-1.35a1.24 1.23-1.6 0 0 1.04-1.09c.96-9.06-2.01-16.94-6.4-24.76a.38.37 89.3 0 1 .5-.52q14.08 7.48 14.14 23.45a.46.45-6.6 0 0 .56.44q7.53-1.68 11-6.53m-48.36.31a.11.11 0 0 0-.18-.07l-8.13 8.14a.76.75 22.5 0 0 .54 1.29h6.47a.68.68 0 0 0 .67-.55q.89-4.3.63-8.81m-294.85 1.93 1 6.93a1.01 1.01 0 0 0 1 .86h5.15a.6.6 0 0 0 .43-1.02l-7.05-7.04a.31.31 0 0 0-.53.27"/><path fill="#fadb8d" d="M636.24 329.52q1.07.98 1.62 2.29a.4.39-83.8 0 1-.59.48q-4.84-3.5-10.98-7.92-4.14-2.97-11.51-7.08c-8.69-4.85-18.21-11.26-27.25-15.26q-19.26-8.51-38.31-13.71-13.95-3.81-33.69-4.11-25.45-.39-46.96 6.65-21.3 6.97-37.44 15.27-5.56 2.86-25.84 15.36c-5.51 3.4-10.57 7.16-15.52 10.91a.37.36 87.4 0 1-.53-.49q.6-.97.69-1.86 27.68-26.19 60.76-41.38 19.74-9.06 42.13-12.01 40.16-5.28 77.49 9.78c24.49 9.88 46.12 25.07 65.93 43.08"/><path fill="#eeae4c" d="m636.24 329.52-1.87-4.08q2.2-1.93 7.69-2.8 17.34-2.77 29.99.61 2.92.77 2.6 2.68a1.29 1.23 35.9 0 0 .15.82c2.45 4.33 9.74 3.56 11.17 8.19.65 2.12 1.62 2.96 2.55 4.51.66 1.09 2.42 1 3.19 2.76q-3.72-.04-7.46-.02-3.08.01-6.09 1.04a.19.19 0 0 0 .02.37l7.57 1.86q.69 1.46 2.36 2.63a3.86 3.5 86.9 0 1 .87.86q6.52 9.09 11.44 18.46c3.39 6.45 6.61 11.61 10.13 16.16q4.8 6.21 13.34 17.96c6.63 9.11 13.03 15.37 22.41 24.61 5.38 5.32 8.27 9.24 13.29 15.87 7.2 9.51 9.89 19.65 9.38 31.27q-.56 12.58-4.6 26.16a1.36.92-34.1 0 1-.08.2l-5.85 10.57q-.2.07-.1-.41 1.7-7.9 2.6-13.28c.79-4.77.46-8.13.11-13.68q-.39-6.36-3.02-13.15a.52.52 0 0 0-.98.04c-1.4 4.69-3.05 8.4-6.22 12.17-2.43 2.9-4.54 6.45-7.43 9.85q-7.45 8.78-10.48 13.7-4.43 7.19-9.23 19.49c-2.94 7.54-3.28 15.88-3.72 24.17-.24 4.39.96 9.13 1.41 13.57a3.5 3.46 28.4 0 0 .38 1.25q.47.91.27 2.78a.81.81 0 0 1-1.35.51c-4.45-4.09-10.3-7.89-14.2-12.03q-7.78-8.25-12.25-17.15c-5.3-10.5-9.77-20.35-11.29-30.79q-2.02-13.9-1.23-30.07.26-5.3 1.39-28.18 1.47-29.75-9.26-57.1c-4.22-10.74-11.13-20.22-18.78-29.22q-2.77-3.26-6.08-5.78a.93.92-35.4 0 0-.86-.14l-1.49.49-2.27-2.08a.16.16 0 0 0-.26.19l3.18 6.44q-.86 3.48-.48 4.42 5.17 13.01 6.99 25.73 1.19 8.29 1.78 23.06.4 10.07-.94 23.1-2.21 21.42-3.3 28.95-2.44 16.84-2.47 26.26-.06 24.56 3.67 42.51 1.06 5.07-1.5 9.71-7.11 12.88-16.06 22.44c-6.28 6.71-14.47 12.31-20.9 16.74q-3.42 2.36-9.58 5.47-12.97 6.54-26.41 13.52l2.1-6.28a.29.29 0 0 0-.5-.28q-6.84 8.07-18.14 19.63c-10.61 10.86-23.82 18.51-39.05 20.67q-26.48 3.75-46.98-12.76-14.92-12.02-27.45-27.74a.26.26 0 0 0-.44.25l2.32 6.09q-1.4-.08-2.88-.95-2.63-1.54-2.64-1.54-10.31-5.05-15.87-7.62-10.03-4.64-15.48-8.3c-8.11-5.44-16.26-11.1-22.8-18.72-5.54-6.46-11.74-14.74-14.85-23.15a6.94 6.92 38.7 0 1-.37-3.33c1.8-13.71 3.4-24.85 3.39-37.28q-.03-20.56-3.78-43.41-2.44-14.84-2.79-32.73-.4-20.55.94-31.47 1.92-15.66 8.01-30.38 1.51-3.67 1.27-7 .85-1.12.84-2.01a.3.3 0 0 0-.5-.22l-1.18 1.09-2.16-.15a1.15 1.12-64 0 0-.87.31c-8.5 8.07-15.28 17.96-21.21 28.31q-4.57 7.96-6.82 16.7-3.33 12.93-3.94 16.01-2.12 10.62-2.28 14.81-.42 11.08.79 30.01.75 11.56.73 26.96-.03 22.52-8.43 41.06-5.75 12.69-12.13 20.62c-2.92 3.63-5.31 5.6-9.77 9.26q-5.39 4.43-7.53 6.83a1.04 1.04 0 0 1-1.76-1.02q2.14-6.44 2.3-11.96.69-24.13-11.15-43.75c-5.6-9.3-11.82-16.95-18.95-26.6q-5.02-6.81-7.51-14.22a.87.86-39.7 0 0-1.58-.14c-4.37 7.81-4.27 17.51-3.46 26.49.3 3.31 1.63 7.4 2.19 11.16-3.26-2.96-4.2-6.9-5.09-11.16-1.22-5.78-3.11-10.64-3.71-16.24q-.56-5.31.27-14.92c1.1-12.51 9.85-24.02 18.44-33.53q3.35-3.71 10.8-10.7c2.45-2.31 4.51-5.14 6.58-7.39q2.11-2.29 4.75-5.75c10.9-14.3 21.99-28.65 30.33-44.52 2.13-4.05 4.92-7.81 7.18-11.77q1.55-2.71.14-3.64l12.49-2.36a.57.57 0 0 0 .02-1.11q-6.99-1.54-14.41-1.39.18-.55.14-.98-.06-.5-.58-.65-.8-.24-.95-1a.73.71-25.5 0 1 .26-.71q5.05-4.09 7.32-5.19 6.24-3.02 9.55-5.96.7-.44.31-1.59.74-.25.44-1.49a1.16 1.16 0 0 1 .95-1.41c6.94-1.1 14.16-2.3 20.78-2.15q9.55.22 19 2.7-1.98 2.85-2.79 6-.09.89-.69 1.86a.37.36 87.4 0 0 .53.49c4.95-3.75 10.01-7.51 15.52-10.91q20.28-12.5 25.84-15.36 16.14-8.3 37.44-15.27 21.51-7.04 46.96-6.65 19.74.3 33.69 4.11 19.05 5.2 38.31 13.71c9.04 4 18.56 10.41 27.25 15.26q7.37 4.11 11.51 7.08 6.14 4.42 10.98 7.92a.4.39-83.8 0 0 .59-.48q-.55-1.31-1.62-2.29M399.41 456.76q3.91 5.24 9.44 8.08 2.64 1.58 6.64 1.91 5.24.45 11.03.91 8.46.83 17.21-.22l12.15-.72a1.71 1.7-79.1 0 0 1.44-.98l1.5-3.14c6.03-1.52 7.01-7 9.71-13.73 3.09-7.72 4.01-16.87 4.44-24.35q1.19-20.51-9.47-37.41c-3.44-5.45-8.8-10.1-14.2-13.25-7.7-4.5-16.42-5.72-25.15-4.2-19.11 3.35-32.28 17.93-36.93 36.56-2.44 9.74-3.09 20.42.28 30.27q.52 1.52 5.05 12.43 1.99 4.81 6.86 7.84m163.06 5.13q-8.05-5.38-15.67-7.32a.39.39 0 0 0-.32.7q18.84 13.03 30.67 32.24a.42.42 0 0 0 .7.02q.08-.12 0-.49-1.99-8.84-6.98-16.44-.45-2.53 1.97-2.78 4.55-.46 8.33-.27 7.14.35 7.22.35 4.04-.01 8.11-.06l5.09-1.14q8.81 1.02 16.41-1.98 4.95-3.27 8.21-7.94 1.87-.6 3.06-2.56a1.6 1.6 0 0 1 .69-.63q1.13-.54 1.71-1.69c3.53-6.95 7.81-15.23 8.8-22.87q2.8-21.49-9.03-39.17c-9.24-13.82-24.06-22.03-40.63-20.47-14.36 1.35-26.74 11.95-32.3 24.89q-5.65 13.12-5.24 26.97.23 7.7 2.25 18.37.66 3.48 3.02 9.7 2.28 5.98 3.93 12.57m-114.49 25.25a.42.42 0 0 0 .76.33q8.78-13.48 20.55-24.43 4.45-4.15 9.89-7.21a.59.58 38.7 0 0-.12-1.07q-.3-.09-.75.03-11.62 3.14-19.64 11.26c-5.33 5.39-8.87 13.68-10.69 21.09M509 539.92v13.39a1.26 1.24 76.3 0 1-.66 1.11q-5.73 3.05-10.27 6.88c-12.41 10.48-19.32 33-7.46 46.49q12.22 13.89 31.27 9.51c10.1-2.32 19.53-10.79 21.5-21.08q1.92-10.01-2.33-19.47c-2.92-6.49-7.33-12.63-12.56-16.27q-3.63-2.53-10.26-6.24a.83.81-76 0 1-.42-.72v-13.74a.63.62 84.5 0 1 .5-.62c16.8-3.4 33.1-17.93 39.42-33.87 8.07-20.38-9.25-31.28-26.46-34.11q-10.94-1.8-24.28-1.22c-11.08.49-20.88 2.01-29.72 7.49-8.96 5.57-12.59 15.37-9.47 25.42 5.02 16.16 18.45 27.93 34.32 34.43 1.72.7 4.64 1.21 6.34 1.84a.85.83 10.8 0 1 .54.78"/><path fill="#fadb8d" d="M691.71 342.21c-.77-1.76-2.53-1.67-3.19-2.76-.93-1.55-1.9-2.39-2.55-4.51-1.43-4.63-8.72-3.86-11.17-8.19a1.29 1.23 35.9 0 1-.15-.82q.32-1.91-2.6-2.68-12.65-3.38-29.99-.61-5.49.87-7.69 2.8l-6.61-10.08a.29.28 70.9 0 1 .21-.44q9.78-.79 20.27-.89 18.24-.19 34.62 7.15a.36.35-48 0 1 .03.63l-6.84 3.95a.63.63 0 0 0 .03 1.11c2.8 1.41 7.94 3.08 11.06 4.81q8.56 4.76 15.8 11.55a.17.17 0 0 1-.14.3zM392.72 324.05q-9.45-2.48-19-2.7c-6.62-.15-13.84 1.05-20.78 2.15a1.16 1.16 0 0 0-.95 1.41q.3 1.24-.44 1.49l-7.88-4.15a.33.32 42.3 0 1-.03-.56q2.27-1.49 5.27-2.58c15.56-5.63 32.76-5.72 48.73-3.93a.38.38 0 0 1 .27.58zM351.24 327.99q-3.31 2.94-9.55 5.96-2.27 1.1-7.32 5.19a.73.71-25.5 0 0-.26.71q.15.76.95 1 .52.15.58.65.04.43-.14.98l-10.41 1.38a.23.22 17.3 0 1-.2-.37q10.82-11.52 26.35-15.5M757.02 516.46q-.16-2.59 1.42-6.25l5.85-10.57a1.36.92-34.1 0 0 .08-.2q4.04-13.58 4.6-26.16c.51-11.62-2.18-21.76-9.38-31.27-5.02-6.63-7.91-10.55-13.29-15.87-9.38-9.24-15.78-15.5-22.41-24.61q-8.54-11.75-13.34-17.96c-3.52-4.55-6.74-9.71-10.13-16.16q-4.92-9.37-11.44-18.46a3.86 3.5 86.9 0 0-.87-.86q-1.67-1.17-2.36-2.63l9.6 2.97a1.18 1.16-7 0 1 .65.5q14.42 22.75 31.61 43.99c9.3 11.49 23.89 26.51 32.48 36.47q10.05 11.65 14.88 24.12c4.9 12.65 2.18 25.83-3.38 37.69q-6.07 12.95-14.57 25.26M337.4 347.34q1.41.93-.14 3.64c-2.26 3.96-5.05 7.72-7.18 11.77-8.34 15.87-19.43 30.22-30.33 44.52q-2.64 3.46-4.75 5.75c-2.07 2.25-4.13 5.08-6.58 7.39q-7.45 6.99-10.8 10.7c-8.59 9.51-17.34 21.02-18.44 33.53q-.83 9.61-.27 14.92c.6 5.6 2.49 10.46 3.71 16.24.89 4.26 1.83 8.2 5.09 11.16q2.83 5.35 3.31 11.07c-8.24-12.96-15.21-24.04-19.04-37.78q-4.33-15.52 2.63-29.91 6.19-12.79 16.32-23.43 7.71-8.11 21.99-24.71 20.24-23.51 38.44-52.68a1.38 1.36 7.2 0 1 .76-.58z"/><path fill="#d88734" d="M381.25 356.27q-18.59 20.91-24.37 47.12c-4.28 19.4-4.44 40.45-1.83 60.86 1.81 14.21 3.21 26.6 3.01 39.74q-.35 23.07-11.27 42.77c-9.1 16.41-24.6 29.45-43.25 33.08a.56.56 0 0 1-.66-.66c2.78-14.64-1.21-29.73-7.71-43.36q-8.06-16.93-19.02-32.43a.16.15 26.1 0 0-.28.09q.85 9.94-1.06 19.9a.18.18 0 0 1-.33.06l-3.46-5.41q-.48-5.72-3.31-11.07c-.56-3.76-1.89-7.85-2.19-11.16-.81-8.98-.91-18.68 3.46-26.49a.87.86-39.7 0 1 1.58.14q2.49 7.41 7.51 14.22c7.13 9.65 13.35 17.3 18.95 26.6q11.84 19.62 11.15 43.75-.16 5.52-2.3 11.96a1.04 1.04 0 0 0 1.76 1.02q2.14-2.4 7.53-6.83c4.46-3.66 6.85-5.63 9.77-9.26q6.38-7.93 12.13-20.62 8.4-18.54 8.43-41.06.02-15.4-.73-26.96-1.21-18.93-.79-30.01.16-4.19 2.28-14.81.61-3.08 3.94-16.01 2.25-8.74 6.82-16.7c5.93-10.35 12.71-20.24 21.21-28.31a1.15 1.12-64 0 1 .87-.31zM758.44 510.21q-1.58 3.66-1.42 6.25l-3.42 5.72a.31.31 0 0 1-.57-.1q-1.61-9.67-1.16-19.15a.35.34 63.4 0 0-.63-.21q-10.9 15.87-19.41 34.09-2.44 5.24-5.37 15.4-3.69 12.8-1.35 26.39a.39.39 0 0 1-.45.45c-15.51-2.64-29.09-11.92-38.61-24.41-11.86-15.56-17.09-34.33-16.98-53.89q.08-13.64 1.38-24.75 2.11-17.95 2.62-23.61c3.15-34.81-3.03-68.86-26.44-95.14l1.49-.49a.93.92-35.4 0 1 .86.14q3.31 2.52 6.08 5.78c7.65 9 14.56 18.48 18.78 29.22q10.73 27.35 9.26 57.1-1.13 22.88-1.39 28.18-.79 16.17 1.23 30.07c1.52 10.44 5.99 20.29 11.29 30.79q4.47 8.9 12.25 17.15c3.9 4.14 9.75 7.94 14.2 12.03a.81.81 0 0 0 1.35-.51q.2-1.87-.27-2.78a3.5 3.46 28.4 0 1-.38-1.25c-.45-4.44-1.65-9.18-1.41-13.57.44-8.29.78-16.63 3.72-24.17q4.8-12.3 9.23-19.49 3.03-4.92 10.48-13.7c2.89-3.4 5-6.95 7.43-9.85 3.17-3.77 4.82-7.48 6.22-12.17a.52.52 0 0 1 .98-.04q2.63 6.79 3.02 13.15c.35 5.55.68 8.91-.11 13.68q-.9 5.38-2.6 13.28-.1.48.1.41"/><path fill="#d88734" d="M382.09 357.41q.24 3.33-1.27 7-6.09 14.72-8.01 30.38-1.34 10.92-.94 31.47.35 17.89 2.79 32.73 3.75 22.85 3.78 43.41c.01 12.43-1.59 23.57-3.39 37.28a6.94 6.92 38.7 0 0 .37 3.33c3.11 8.41 9.31 16.69 14.85 23.15 6.54 7.62 14.69 13.28 22.8 18.72q5.45 3.66 15.48 8.3 5.56 2.57 15.87 7.62.01 0 2.64 1.54 1.48.87 2.88.95l4.23 8.38a.15.15 0 0 1-.21.2c-10.79-6.5-21.82-12.04-34.38-17.82-12.91-5.94-26.01-13.33-35.88-23.49q-13.07-13.46-21.86-30.63a1.17 1.16 41.5 0 1-.06-.88q6.29-18.08 6.5-33.3.19-14.22-.92-24.18-.53-4.71-2.9-22.31-.62-4.59-1.43-19.49-2.4-44.2 19.06-82.36M578.08 603.71q13.44-6.98 26.41-13.52 6.16-3.11 9.58-5.47c6.43-4.43 14.62-10.03 20.9-16.74q8.95-9.56 16.06-22.44 2.56-4.64 1.5-9.71-3.73-17.95-3.67-42.51.03-9.42 2.47-26.26 1.09-7.53 3.3-28.95 1.34-13.03.94-23.1-.59-14.77-1.78-23.06-1.82-12.72-6.99-25.73-.38-.94.48-4.42c12.33 22.53 18.14 49.41 16.87 75.08q-.77 15.73-2.54 28.07-3.4 23.68-2.56 42.56.7 15.62 6.17 30.69a2.85 2.84 48.9 0 1-.15 2.29c-9 17.23-21.22 32.23-37.44 42.61q-9.3 5.95-17.63 9.87-20.32 9.56-34.9 18.15a.18.18 0 0 1-.26-.23z"/><path fill="#d88734" d="M458.82 462.6c5.27-14.17 7.5-30.01 2.24-44.3-4.65-12.61-13.65-20.75-27.02-22.14-12.24-1.27-24.98 5.47-31.83 15.05q-15.27 21.37-2.8 45.55-4.87-3.03-6.86-7.84-4.53-10.91-5.05-12.43c-3.37-9.85-2.72-20.53-.28-30.27 4.65-18.63 17.82-33.21 36.93-36.56 8.73-1.52 17.45-.3 25.15 4.2 5.4 3.15 10.76 7.8 14.2 13.25q10.66 16.9 9.47 37.41c-.43 7.48-1.35 16.63-4.44 24.35-2.7 6.73-3.68 12.21-9.71 13.73M626.21 456.78c13.92-20.64 2.81-51.14-20.47-58.9-14.94-4.98-30.08.21-37.76 14.05-8.78 15.83-6.47 34.99-.1 51.76q.63 1.64 1.43 2.56a1.24 1.24 0 0 0 .85.41l13.83.66 12.51.52q-4.07.05-8.11.06-.08 0-7.22-.35-3.78-.19-8.33.27-2.42.25-1.97 2.78-3.92-5.42-8.4-8.71-1.65-6.59-3.93-12.57-2.36-6.22-3.02-9.7-2.02-10.67-2.25-18.37-.41-13.85 5.24-26.97c5.56-12.94 17.94-23.54 32.3-24.89 16.57-1.56 31.39 6.65 40.63 20.47q11.83 17.68 9.03 39.17c-.99 7.64-5.27 15.92-8.8 22.87q-.58 1.15-1.71 1.69a1.6 1.6 0 0 0-.69.63q-1.19 1.96-3.06 2.56"/><path fill="#060302" d="m458.82 462.6-1.5 3.14a1.71 1.7-79.1 0 1-1.44.98l-12.15.72q-9.44-.36-15.89-6.06c-4.57-4.05-8.4-11.38-8.5-18.12q-.08-5.58.22-7.28 2.46-13.73 15.39-18.76c6.76-2.62 12.59-1.63 19.38.2a.42.42 0 0 0 .44-.67l-2.96-3.74-.44-.58c-8.66-8.48-21.43-9.75-31.75-3.57-20.02 11.98-24.37 36.92-10.77 55.98q-5.53-2.84-9.44-8.08-12.47-24.18 2.8-45.55c6.85-9.58 19.59-16.32 31.83-15.05 13.37 1.39 22.37 9.53 27.02 22.14 5.26 14.29 3.03 30.13-2.24 44.3m-6.19-34.54a8.34 8.34 0 0 0-8.34-8.34 8.34 8.34 0 0 0-8.34 8.34 8.34 8.34 0 0 0 8.34 8.34 8.34 8.34 0 0 0 8.34-8.34m-21.18 20.24a3.95 3.95 0 0 0-3.95-3.95 3.95 3.95 0 0 0-3.95 3.95 3.95 3.95 0 0 0 3.95 3.95 3.95 3.95 0 0 0 3.95-3.95M626.21 456.78q-3.26 4.67-8.21 7.94.84-1.97 1.87-3.56c6.77-10.46 7.19-23.57 2.6-34.62-7.53-18.15-32.17-30.65-48.07-13.57q-.28.21-.48.53-1.67 1.53-2.61 3.42a.27.27 0 0 0 .33.37q8.06-2.67 15.13-1.62 3.77.56 9.98 4.43c5.38 3.37 8.94 9.82 9.8 15.63q1.2 8.11-1.69 16.37c-3.04 8.72-11.62 15-20.87 15.22l-13.83-.66a1.24 1.24 0 0 1-.85-.41q-.8-.92-1.43-2.56c-6.37-16.77-8.68-35.93.1-51.76 7.68-13.84 22.82-19.03 37.76-14.05 23.28 7.76 34.39 38.26 20.47 58.9m-44.41-37.14a8.51 8.3-89.8 0 0-8.33 8.481 8.51 8.3-89.8 0 0 8.27 8.539 8.51 8.3-89.8 0 0 8.33-8.481 8.51 8.3-89.8 0 0-8.27-8.539m20.86 28.71a3.86 3.86 0 0 0-3.86-3.86 3.86 3.86 0 0 0-3.86 3.86 3.86 3.86 0 0 0 3.86 3.86 3.86 3.86 0 0 0 3.86-3.86"/><path fill="#fff" d="m451.37 412.43-.4.35q-6.64-2.99-13.22-2.08c-16.21 2.22-26.71 15.06-26.72 31.12q-.01 10.93 8.01 20.14 2.36 2.71 7.48 5.7-5.79-.46-11.03-.91-4-.33-6.64-1.91c-13.6-19.06-9.25-44 10.77-55.98 10.32-6.18 23.09-4.91 31.75 3.57M618 464.72q-7.6 3-16.41 1.98 7.73-5.17 10.73-11.92 4.73-10.62 2.05-20.94-2.91-11.25-11.29-17.46c-7.7-5.71-19.18-7.78-28.35-3.19q-.1-.11-.33-.22c15.9-17.08 40.54-4.58 48.07 13.57 4.59 11.05 4.17 24.16-2.6 34.62q-1.03 1.59-1.87 3.56"/><path fill="#784018" d="M450.97 412.78q.31.25.84.23l2.96 3.74a.42.42 0 0 1-.44.67c-6.79-1.83-12.62-2.82-19.38-.2q-12.93 5.03-15.39 18.76-.3 1.7-.22 7.28c.1 6.74 3.93 14.07 8.5 18.12q6.45 5.7 15.89 6.06-8.75 1.05-17.21.22-5.12-2.99-7.48-5.7-8.02-9.21-8.01-20.14c.01-16.06 10.51-28.9 26.72-31.12q6.58-.91 13.22 2.08M601.59 466.7l-5.09 1.14-12.51-.52c9.25-.22 17.83-6.5 20.87-15.22q2.89-8.26 1.69-16.37c-.86-5.81-4.42-12.26-9.8-15.63q-6.21-3.87-9.98-4.43-7.07-1.05-15.13 1.62a.27.27 0 0 1-.33-.37q.94-1.89 2.61-3.42.31.67.81-.31c9.17-4.59 20.65-2.52 28.35 3.19q8.38 6.21 11.29 17.46 2.68 10.32-2.05 20.94-3 6.75-10.73 11.92"/><path fill="#ea6663" d="M451.81 413.01q-.53.02-.84-.23l.4-.35zM574.4 412.97q.23.11.33.22-.5.98-.81.31.2-.32.48-.53"/><circle cx="444.29" cy="428.06" r="8.34" fill="#fff"/><ellipse fill="#fff" rx="8.51" ry="8.3" transform="rotate(-89.8 505.709 -77.827)"/><circle cx="427.5" cy="448.3" r="3.95" fill="#fff"/><circle cx="598.8" cy="448.35" r="3.86" fill="#fff"/><path fill="#060302" d="M562.47 461.89q4.48 3.29 8.4 8.71 4.99 7.6 6.98 16.44.08.37 0 .49a.42.42 0 0 1-.7-.02q-11.83-19.21-30.67-32.24a.39.39 0 0 1 .32-.7q7.62 1.94 15.67 7.32M447.98 487.14c1.82-7.41 5.36-15.7 10.69-21.09q8.02-8.12 19.64-11.26.45-.12.75-.03a.59.58 38.7 0 1 .12 1.07q-5.44 3.06-9.89 7.21-11.77 10.95-20.55 24.43a.42.42 0 0 1-.76-.33M508.46 539.14c-1.7-.63-4.62-1.14-6.34-1.84-15.87-6.5-29.3-18.27-34.32-34.43-3.12-10.05.51-19.85 9.47-25.42 8.84-5.48 18.64-7 29.72-7.49q13.34-.58 24.28 1.22c17.21 2.83 34.53 13.73 26.46 34.11-6.32 15.94-22.62 30.47-39.42 33.87a.63.62 84.5 0 0-.5.62v13.74a.83.81-76 0 0 .42.72q6.63 3.71 10.26 6.24c5.23 3.64 9.64 9.78 12.56 16.27q4.25 9.46 2.33 19.47c-1.97 10.29-11.4 18.76-21.5 21.08q-19.05 4.38-31.27-9.51c-11.86-13.49-4.95-36.01 7.46-46.49q4.54-3.83 10.27-6.88a1.26 1.24 76.3 0 0 .66-1.11v-13.39a.85.83 10.8 0 0-.54-.78m4.71-48.87c7.43-.01 15.69-.17 23.48-1.82q2.19-.47 3.63-1.6a1.29 1.29 0 0 0 .02-2.02c-5.99-4.89-18.93-5.63-27.14-5.62-8.22.01-21.15.76-27.13 5.67a1.29 1.29 0 0 0 .02 2.02q1.44 1.12 3.64 1.59c7.78 1.64 16.04 1.78 23.48 1.78m20.61 107.68a1 .98-54.3 0 0-.2-1.26c-6.39-5.54-15.84-7.37-24.15-6.74-5.28.39-10.67 2.55-14.73 5.55a1.5 1.49 64.6 0 0-.56 1.59q.73 2.76 2.84 4.85 12.52 12.44 28.24 4.06 5.57-2.96 8.56-8.05"/><path fill="#fff" d="M513.16 479.21c8.21-.01 21.15.73 27.14 5.62a1.29 1.29 0 0 1-.02 2.02q-1.44 1.13-3.63 1.6c-7.79 1.65-16.05 1.81-23.48 1.82-7.44 0-15.7-.14-23.48-1.78q-2.2-.47-3.64-1.59a1.29 1.29 0 0 1-.02-2.02c5.98-4.91 18.91-5.66 27.13-5.67"/><path fill="#fadb8d" d="M667.92 702.37q.38-6.54 1.15-12.77 1.04-8.38 1.24-12.75.92-20.02 1.7-30.35c.64-8.55-.66-19.72-.87-26.93q-.5-17.52-3.14-37.08-.32-2.41-.79-3.98l-3.29-16.43 5.44-8.41a.59.58 55.1 0 1 1.06.19q3.16 13.87 4.67 28.22 4.88 46.39-1.6 96.92-1.57 12.25-5.57 23.37M366.9 566.97q-2.7 6.19-3.36 14.31-1.17 10.47-2.43 21.15-.59 5.02-1.77 31.07-.54 11.98.32 19.48.58 5.12.68 7.47c.29 7.23 1.3 15.62 1.45 20.81.21 7.17 1.77 14.4 3.02 20.82a.61.6 65.8 0 1-.23.61q-.42.31-1.2.26-3-10.78-4.5-19.63c-4.08-23.95-5.13-48.78-4.55-73.17q.62-25.95 5.67-52.2a.39.39 0 0 1 .71-.15z"/><path fill="#d88734" d="m663.92 562.08 3.29 16.43q-2.14 3.31-4.61 5.34c-8.24 6.77-20.03 15.19-31.17 20.09l-25.51 11.25q-7.9 3.49-16.13 9.87-11.23 8.71-19.92 19.88c-2 2.57-6.16 7.17-7.96 8.81q-1.69 1.54-5.7 6.6c-3.06 3.86-7.18 6.51-8.92 11.95-11.32 11.71-18.29 26.6-23.26 42.51q-2.75 8.8-3.29 19.78a.39.39 0 0 1-.39.38h-9.89a.58.57 87.8 0 1-.57-.54q-.39-6.84-1.29-10.78c-4.31-18.91-11.56-36.27-24.8-51.19-1.84-4.43-4.51-6.42-8.7-10.11a3.59 3.51-84.9 0 1-.72-.88l-1.3-2.25a6.19 6.13-85.3 0 0-1.36-1.62q-9.92-8.39-11.74-10.62-7.6-9.34-10.63-12.07t-13-9.92q-4.3-3.1-8.42-5.07-7.98-3.82-8.93-4.18c-17.71-6.67-35.46-15.85-50.54-28.94q-1.9-1.65-4.92-5.52.66-8.12 3.36-14.31 17.29 19.53 40.38 29.55 11.38 4.94 28.39 11.57 11.19 4.37 23.17 12.7a16.41 16.25-3 0 1 2.84 2.53q5.91 6.68 9.83 9.92c13.5 11.19 30.66 15.7 48.35 14.35q21.03-1.6 37.25-14.74 1.72-1.39 10.1-10.16a15.11 14.61 3.7 0 1 2.26-1.92q10.38-7.13 19.18-11.1 6.41-2.9 18.91-7.63 9.18-3.47 20.86-9.63 21.27-11.21 35.5-30.33"/><path fill="#eeae4c" d="M667.92 702.37q.43 1.42-.85 3.58-2.85 1.93-5.23 4.71-3.51 4.09-4.79 5.1c-5.58 4.4-11.52 6.89-18.6 7.92q-3.44.5-6.94 1.11c-1.88-8.57-5.83-17.33-12.33-23.42a.32.31 10.9 0 0-.51.34q2.79 7.06 4.28 12.89 2.95 11.56.92 22.23-7.48 9.85-17.63 13.91-2.56 1.02-7.88 2.47-.3-14.85-9.65-26.17-.36-.43-.61-.54a.35.35 0 0 0-.47.43q4.5 13.4 3.28 27.56-17.72 4.37-35.52-1.61-.51-1.49-.64-4.13-.64-13.14 4.23-24.91a.45.45 0 0 0-.67-.55q-.54.36-1.26 1.25-9 11.27-9.01 26.29-11.18-4.65-16.95-13.71-.28-11.53 3.42-22.13c5.05-14.52 11.61-28.52 22.91-38.81q8.48-7.72 21.23-11.84c16.81-5.43 33.42-2.48 48.74 5.78q7.32 3.94 9.26 5.26a.26.26 0 0 0 .37-.36q-9.27-13.64-25.18-19.03a.37.37 0 0 1-.15-.6c6.02-6.26 9.62-14.53 12.42-22.7a.31.31 0 0 0-.53-.3q-6.16 7.19-12.85 13.84-3.58 3.56-7.63 6.03a3.14 3.14 0 0 1-1.69.45q-4-.08-10.42.24-25.49 1.28-43.7 19.35c1.74-5.44 5.86-8.09 8.92-11.95q4.01-5.06 5.7-6.6c1.8-1.64 5.96-6.24 7.96-8.81q8.69-11.17 19.92-19.88 8.23-6.38 16.13-9.87l25.51-11.25c11.14-4.9 22.93-13.32 31.17-20.09q2.47-2.03 4.61-5.34.47 1.57.79 3.98 2.64 19.56 3.14 37.08c.21 7.21 1.51 18.38.87 26.93q-.78 10.33-1.7 30.35-.2 4.37-1.24 12.75-.77 6.23-1.15 12.77M363.54 581.28q3.02 3.87 4.92 5.52c15.08 13.09 32.83 22.27 50.54 28.94q.95.36 8.93 4.18 4.12 1.97 8.42 5.07 9.97 7.19 13 9.92t10.63 12.07q1.82 2.23 11.74 10.62a6.19 6.13-85.3 0 1 1.36 1.62l1.3 2.25a3.59 3.51-84.9 0 0 .72.88c4.19 3.69 6.86 5.68 8.7 10.11q-6.84-6.37-17.3-12.19c-11.52-6.41-23.17-7.79-36.26-7.32a1.91 1.89 57.9 0 1-.98-.23q-5.32-2.89-9.39-6.83-6.63-6.41-12.27-12.99a.36.36 0 0 0-.62.35q3.86 12.14 12.36 21.94a.4.4 0 0 1-.16.63c-10.52 4.07-18.77 9.59-25.07 18.93a.49.49 0 0 0 .67.68c19.54-12.69 40.15-18.47 62.63-9.11 15.37 6.4 26.12 19.02 32.91 33.88q6.72 14.72 9.02 28.73.8 4.85.09 10.28l-1.42.13a1.05 1.04 14.3 0 0-.79.46q-5.5 8.07-14.65 11.77.44-13.09-6.44-23.41-1.57-2.36-3.7-4.28a.3.29-79.9 0 0-.47.33c3.38 8.55 5.34 19.51 3.5 28.53-4.56 1.78-8.05 2.28-13.51 3.24q-4.17.73-7.69.66-7.24-.15-14.48-1.33-1.03-13.89 3.29-27.73.14-.47.1-.69a.4.4 0 0 0-.67-.2c-6.69 6.58-9.81 17.64-10.2 26.71q-9.71-3.06-14.55-6.12-6.38-4.04-10.99-13.09c-1.51-10.81 1.27-22.13 5.11-32.2a.39.39 0 0 0-.65-.4q-8.35 9.06-11.31 21.8-17.25.6-28.6-11.6c-2.18-2.34-3.7-5.02-5.71-7.44a1.23 1.22-10.9 0 0-.61-.41l-1.47-.43q.07-.57-.14-.56.78.05 1.2-.26a.61.6 65.8 0 0 .23-.61c-1.25-6.42-2.81-13.65-3.02-20.82-.15-5.19-1.16-13.58-1.45-20.81q-.1-2.35-.68-7.47-.86-7.5-.32-19.48 1.18-26.05 1.77-31.07 1.26-10.68 2.43-21.15"/><path fill="#ea6663" d="M533.78 597.95q-2.99 5.09-8.56 8.05-15.72 8.38-28.24-4.06-2.11-2.09-2.84-4.85a1.5 1.49 64.6 0 1 .56-1.59c4.06-3 9.45-5.16 14.73-5.55 8.31-.63 17.76 1.2 24.15 6.74a1 .98-54.3 0 1 .2 1.26"/><path fill="#fadb8d" d="M686 699.85q5.39-12.22 9.63-24.09 4.1-11.48 4.92-19.13 1.49-14.14-.85-28.37-.84-5.07-4.35-11.37-4.86-8.7-10-14.43l-.73-11.24a.25.25 0 0 1 .41-.21c17.27 14.31 26.1 37.41 22.79 59.56q-1.02 6.81-3.64 15.03-5.96 18.72-18.18 34.25M346.3 604.92q-13.03 15.79-13.62 36.58-.4 14.14 2.75 26.36c1.55 6.04 4.27 12.05 7.03 19.42q2.48 6.63 6.77 11.94-1.35.42-2.66.12a1.48 1.46-10.5 0 1-.87-.59c-11.12-16.26-20.91-37.98-20.7-57.52q.3-27.92 21.49-48.58a.34.33-20.2 0 1 .57.26z"/><path fill="#d88734" d="M686 699.85q-3.16-.91-6.06-.17a.51.5 89.7 0 1-.61-.61q2.37-9.19 3.54-18.79 3.94-32.42 2.55-64.53-.15-3.58-.07-13.29 5.14 5.73 10 14.43 3.51 6.3 4.35 11.37 2.34 14.23.85 28.37-.82 7.65-4.92 19.13-4.24 11.87-9.63 24.09M346.3 604.92q-.26 8.82-.42 27.08-.29 34.25 6.45 66.86a.48.48 0 0 1-.4.57q-1.38.19-2.7-.21-4.29-5.31-6.77-11.94c-2.76-7.37-5.48-13.38-7.03-19.42q-3.15-12.22-2.75-26.36.59-20.79 13.62-36.58M399.91 723.39q-2.25 10.54.44 21.95a.35.34-88.5 0 1-.43.41c-20.23-5.44-31.41-23.02-36.4-42.24l1.47.43a1.23 1.22-10.9 0 1 .61.41c2.01 2.42 3.53 5.1 5.71 7.44q11.35 12.2 28.6 11.6"/><path fill="#fadb8d" d="M354.83 708.34q0 1.2-1.93.18a2.83 2.79 56 0 0-1.59-.32q-3.49.34-7.47 2.12-13.43 5.98-18.55 19.46-1.1 2.89-.83 7.21.08 1.3-1.49.58-4.23-7.95 2.47-17.15 10.4-14.28 28.29-14.09a.71.7-7.1 0 1 .67.51z"/><path fill="#d88734" d="M667.07 705.95q-4.5 17.32-16.41 28.95-7.56 7.38-18.52 10.07a.62.62 0 0 1-.75-.74q2.02-9.52.12-19.44 3.5-.61 6.94-1.11c7.08-1.03 13.02-3.52 18.6-7.92q1.28-1.01 4.79-5.1 2.38-2.78 5.23-4.71M682.14 706.43q.65 2.22 5.27 2.69a3.89 3.86 59.8 0 1 1.3.35c8.78 4.09 16.17 9.3 20.64 18.16q.48.95 1.22 4.02.55 2.28 1.71 3.84-3.47 4.85-11 6.53a.46.45-6.6 0 1-.56-.44q-.06-15.97-14.14-23.45a.38.37 89.3 0 0-.5.52c4.39 7.82 7.36 15.7 6.4 24.76a1.24 1.23-1.6 0 1-1.04 1.09q-9 1.39-19.29 1.35a.86.86 0 0 1-.85-.95q.95-8.27-2.37-16.05a1.82 1.79-42.4 0 1 .08-1.57q5.21-9.59 8.13-19.66a1.06 1.04-1.8 0 1 .67-.7q2.29-.78 4.33-.49"/><path fill="#fadb8d" d="M712.28 735.49q-1.16-1.56-1.71-3.84-.74-3.07-1.22-4.02c-4.47-8.86-11.86-14.07-20.64-18.16a3.89 3.86 59.8 0 0-1.3-.35q-4.62-.47-5.27-2.69 15.7.36 26.08 13.1 5.88 7.2 4.06 15.96"/><path fill="#d88734" d="M354.83 708.34c1.63 4.97 3.3 9.98 5.76 14.57q2.47 4.62 3.37 6.84a1.63 1.62-46.2 0 1 .02 1.13q-2.51 7.11-1.56 14.64a.47.46 86.1 0 1-.45.52q-9.04.29-19.07-1.11a1.79 1.79 0 0 1-1.54-1.7c-.35-8.6 2.53-17.19 6.8-24.43a.31.3 1.2 0 0-.41-.42q-14.26 7.47-14.77 23.72a.42.41 8.2 0 1-.53.39q-4.68-1.26-9.48-4.92 1.57.72 1.49-.58-.27-4.32.83-7.21 5.12-13.48 18.55-19.46 3.98-1.78 7.47-2.12a2.83 2.79 56 0 1 1.59.32q1.93 1.02 1.93-.18M432.3 753.4l.67 9.07a.41.4-84 0 1-.51.42c-14.98-4.34-23.92-12.63-25.7-28.7q4.61 9.05 10.99 13.09 4.84 3.06 14.55 6.12M663.92 735.8q.26 4.51-.63 8.81a.68.68 0 0 1-.67.55h-6.47a.76.75 22.5 0 1-.54-1.29l8.13-8.14a.11.11 0 0 1 .18.07M548.04 750.83l1.14 8.65a.3.29 7.2 0 1-.41.31q-8.04-3.17-13.32-10-3.75-4.87-4.36-12.67 5.77 9.06 16.95 13.71M623.87 736.83c-2.63 14.82-12.09 21.93-25.64 26.02a.59.59 0 0 1-.76-.62l.89-9.02q5.32-1.45 7.88-2.47 10.15-4.06 17.63-13.91M369.07 737.73a.31.31 0 0 1 .53-.27l7.05 7.04a.6.6 0 0 1-.43 1.02h-5.15a1.01 1.01 0 0 1-1-.86zM499.43 739.21c-1.29 9.7-8.39 17.1-17.36 20.51a.54.54 0 0 1-.72-.59l1.22-7.56q9.15-3.7 14.65-11.77a1.05 1.04 14.3 0 1 .79-.46zM475.46 752.74c-.67 3.02-2.54 8.87-5.56 10.33q-1.58.76-3.36 1.03-12.09 1.78-24.12.77a1.16 1.16 0 0 1-1.05-.95l-1.59-8.61q7.24 1.18 14.48 1.33 3.52.07 7.69-.66c5.46-.96 8.95-1.46 13.51-3.24M590.91 754.49l-1.57 8.79a1.68 1.67-88.1 0 1-1.46 1.37q-10.84 1.23-22.13-.12-2.69-.33-5.01-1.1a2.48 2.45-9.1 0 1-1.15-.82q-3.08-3.93-4.2-9.73 17.8 5.98 35.52 1.61"/></svg>