<svg xmlns="http://www.w3.org/2000/svg" viewBox="0 0 1024 1024"><g fill="none" stroke-width="2"><path stroke="#838180" d="M375.663 57.774a3.11 3.11 0 0 0-2.554-3.58l-.217-.037a3.11 3.11 0 0 0-3.58 2.554l-2.955 17.655a3.11 3.11 0 0 0 2.554 3.58l.217.037a3.11 3.11 0 0 0 3.58-2.554l2.955-17.655M323.442 66.28a3.2 3.2 0 0 0-4.427-.942l-.134.087a3.2 3.2 0 0 0-.94 4.427L328.037 85.4a3.2 3.2 0 0 0 4.427.94l.134-.086a3.2 3.2 0 0 0 .94-4.427L323.443 66.28M419.147 81.458a3.09 3.09 0 0 0-4.348-.434L400.9 92.399a3.09 3.09 0 0 0-.434 4.349l.127.154a3.09 3.09 0 0 0 4.348.434l13.899-11.375a3.09 3.09 0 0 0 .434-4.349l-.127-.154M410.34 186.59c3.09-4.17 2.68-8.23-.62-12.16q-1.45-1.73-2.05-4.33c-.59-2.55-2.66-5.04-4.14-6.8a1.35 1.31 17.6 0 1-.28-.52l-2.77-10.17a4.53 4.21 38.1 0 1-.16-1.01c-.33-6.53.73-12.86 1.33-18.85 1.57-15.92-5.25-30.8-18.62-39.36-22.36-14.32-51.31-4.87-61.72 18.89-10.51 23.98 1.9 48.96 25.9 57.77 6.48 2.37 11.26 3.66 14.69 7.82q2.43 2.94 5.24 5.76a2.75 2.73-71.3 0 1 .78 1.59q.62 4.77 4.89 7.63a2.4 2.38-82.5 0 1 .96 1.26c1.68 5.16 4.81 8.12 10.76 7.77q.89-.06 2.25.89 7.19 4.98 15.27.85 8.31-4.26 7.44-14.36-.12-1.38.85-2.67M310.552 117.31a3.09 3.09 0 0 0-2.145-3.807l-17.164-4.792a3.09 3.09 0 0 0-3.807 2.145l-.048.174a3.09 3.09 0 0 0 2.145 3.807l17.164 4.792a3.09 3.09 0 0 0 3.807-2.145l.048-.174M314.242 152.592a3.14 3.14 0 0 0-4.247-1.298l-15.363 8.168a3.14 3.14 0 0 0-1.298 4.247l.084.159a3.14 3.14 0 0 0 4.247 1.298l15.363-8.168a3.14 3.14 0 0 0 1.298-4.247l-.084-.159M393.05 541.84q-1.93 12.2-6.45 21.32-3.85 7.77-11.77 20.63a.7.7 0 0 0 .66 1.06l7.8-.79a.49.49 0 0 1 .49.71q-6.85 13.94-17.12 31.91-7.52 13.18-30.8 52.68c-11.36 19.27-20.53 40.13-25.31 62.17q-2.85 13.17-3.96 26.83a.35.35 0 0 1-.56.25q-8.84-6.84-14.26-16.6c-13.28-23.89-13.63-51.18-8.21-77.81a.42.42 0 0 0-.64-.44q-6.05 4.01-10.19 7.04c-22.98 16.82-37.62 46.71-37.32 75.25a.3.3 0 0 1-.56.15l-6.54-11.32a.32.32 0 0 0-.58.05c-1.02 2.82-1.92 6.46-2.29 9.56q-4.11 35.24 18.42 63.21a.25.25 0 0 1-.27.39l-6.72-2.18a.33.32-2.9 0 0-.4.44q6.76 14.97 19.13 26.06c21.24 19.04 49 27.61 77.65 28.11q2.26.04 10.03-.08a2.32 2.31-20.2 0 1 1.83.84c5.89 7.13 13.08 9.9 22.22 12.65q11.55 3.49 26.67 4.82 19.69 1.73 36.77-1.98c6.63-1.44 13.59-4.23 16.29-10.99a1.09 1.09 0 0 1 2.02-.01c3.92 9.64 9.37 16.23 19.22 19.93q7.3 2.74 16 3.73c20.16 2.3 42.12 1.96 60.52-4.37 10.48-3.61 14.58-10.76 13.82-21.76a.31.3-.8 0 1 .32-.32q32.96 1.69 48.79 2.3c17.55.67 33.76.79 49.64-2.92 7.81-1.82 13.98-5.21 15.2-13.83q1.1-7.73-2.48-15.23-8.61-18.07-28.79-22.02a.19.18-59.6 0 1-.08-.32c29.14-24.94 51.93-68.01 31.88-105.76-3.86-7.28-12.55-17.27-21.69-21.07q-1.03-.43-2.23-1.18a.79.79 0 0 1-.34-.87c2.1-7.66 4.15-15.46 5-23.12a.77.76 85.5 0 1 .55-.65q6.98-2.04 7.29-2.14 21.95-6.73 36.89-24.23a.58.58 0 0 1 1.02.38v8.74a.31.31 0 0 0 .49.25c8.08-6.08 13.89-15.23 15.15-25.27a.54.54 0 0 1 1-.2l3.12 5.41a.53.53 0 0 0 .95-.07q5.01-12.99 5.96-28.2c2.29-36.47-4.94-77.21-22.69-110.19-2.72-5.05-5.11-10.96-6.62-14.43a.42.42 0 0 1 .4-.58q5.61.15 10.81-1.81a.88.87-32.9 0 0 .31-1.44q-16.96-16.95-26.46-39.48c-1.95-4.62-3.66-8.38-4.82-12.11q-3.16-10.13-4.7-14.61a.26.26 0 0 1 .35-.32c19.2 8.79 40.73 10.01 58.59-2.43a.54.54 0 0 0 .08-.81q-14.79-15.37-17.9-36.65-1.22-8.34-2.29-17.83a.5.5 0 0 1 .85-.41l9.12 9.11a.48.48 0 0 0 .82-.27q2.23-15.09 3.36-28.97c.93-11.34.62-22.52-1.98-33.6-5.98-25.53-29.64-36.77-52.11-44.38-29.82-10.11-47.28-18.6-77.8-32.48a.48.48 0 0 1 .06-.9q9.16-2.7 19.11-3.95a.44.43 59.8 0 0 .2-.78c-11.96-8.98-27.04-11.25-41.38-8.11a.38.38 0 0 1-.46-.44q.06-.36.44-.79 4-4.6 6.78-7.11a.44.44 0 0 0-.28-.76q-9.09-.22-16.83.73c-15.55 1.93-31.73 11.95-44.06 22.98a1.57 1.56-58.7 0 1-1.42.35c-30.78-7.62-64.75-6-93.96 6.86q-23.71 10.44-40.75 25.68-25.83 23.12-39.82 58.66a1.2 1.2 0 0 1-.71.68q-1.68.6-5.86 1.79c-21.06 5.99-46.65 21.14-50.8 44.91a.46.46 0 0 0 .63.5l10.63-4.4a.26.26 0 0 1 .32.37c-6.32 10.25-6.91 23.86-7.66 37.11-.7 12.21-2.9 23.53-6.45 34.9q-7.92 25.36-9.63 31.37-3.12 10.98-3.8 19.51-1.83 22.81 13.19 39.53 5.87 6.53 12.32 11.37 16.5 12.38 34.39 22.41a.44.44 0 0 0 .65-.43l-1.27-12.61a.31.31 0 0 1 .51-.27q12.24 10.28 20.88 23.21c5.46 8.17 6.59 15.76 8.14 24.99a.35.35 0 0 0 .46.27q21.78-7.63 32.36-28.61.4-.79 3.24-6.56a.15.15 0 0 1 .28.09" vector-effect="non-scaling-stroke"/><path stroke="#81661e" d="M373.05 176.34q2.11-.68 4.02-2.23a.58.56-35.6 0 0 .13-.74q-7.77-12.57-16.79-23.62a.75.75 0 0 0-.9-.2c-3.31 1.54-8.31 2.26-10.88-.67q-2.05-2.31-1.43-5.14c.9-4.13 6.22-3.92 9.19-2.36q1.71.9 3.81 2.56a.58.58 0 0 0 .78-.05q3-3.09 2.02-5.74a1.86 1.86 0 0 1 2.86-2.13l2 1.5a1.57 1.53 60.1 0 0 1.09.31l2.76-.28a.83.83 0 0 0 .73-1.02q-1.8-7.72 2.47-10.77a2.83 2.77-70.4 0 1 .8-.39q3.33-1.01 4.93 1.53c2.72 4.3-.02 9.47-3.78 12.28a.58.57-27.9 0 0-.2.64q4.53 12.74 12.38 26.29a.82.81 59.2 0 0 1.12.29l2.41-1.46" vector-effect="non-scaling-stroke"/><path stroke="#838180" d="m392.57 164.94 3.52-2.56a1.06 1.05-29.3 0 0 .36-1.25c-2.66-6.59-3.17-11.89-2.04-19.22q.48-3.12.97-8.44c2.06-22.36-13.8-41.66-36.89-40.42-19.39 1.05-35.1 17.55-34.49 37.25.48 15.27 10.4 27.93 24.51 33.28q9 3.41 12.68 5.51c3.47 1.98 6.47 5.63 8.88 8.53a.67.67 0 0 0 .89.13l2.09-1.41" vector-effect="non-scaling-stroke"/><path stroke="#fbe39b" d="M392.57 164.94q-1.67-6.88-2.15-13.93-.33-4.93.34-12.01c.98-10.38.99-20.07-5.47-28.55q-5.63-7.41-14.31-10.95-13.73-5.61-26.31 2.36-3.69 2.34-7.76 6.56-10.24 10.62-8.09 25.8c1.43 10.12 9.88 19.55 18.15 24.47 5.15 3.06 13.86 5.64 19.11 9.93q4.03 3.29 6.97 7.72" vector-effect="non-scaling-stroke"/><path stroke="#81661e" d="M375.92 135.39q.23.05.91-.81 1.53-1.95 1.68-4.32.1-1.64-1.11-1.89-1.21-.26-1.78 1.28-.83 2.23-.21 4.63.27 1.06.51 1.11M366.75 141.11q-.4 2.15-3.61 5.64a.69.67-44.4 0 0-.02.9c6.36 7.32 11.23 15.2 17.13 24.07a.73.73 0 0 0 .97.23l4.88-2.82a.73.73 0 0 0 .27-1q-7.81-13.34-13.06-26.79a.76.75-16.5 0 0-.87-.47q-2.93.63-5.08-.12a.46.46 0 0 0-.61.36M350.48 144.91c-.47 1.81 1.49 2.55 2.91 2.52q3.34-.07 3.55-.87.2-.8-2.69-2.47c-1.24-.71-3.3-1-3.77.82" vector-effect="non-scaling-stroke"/><path stroke="#4d4b4d" d="m395.92 169.28-21.39 13.31a1.78 1.78 0 0 0-.6 2.4l1.3 2.24a1.81 1.81 0 0 0 2.51.65L400 174.46" vector-effect="non-scaling-stroke"/><path stroke="#838180" d="m400 174.46 1.92-2.09a.82.81 51.2 0 0 .1-.96l-2.1-3.63a.66.65 60.1 0 0-.89-.25l-3.11 1.75" vector-effect="non-scaling-stroke"/><path stroke="#c8c8ca" d="M400 174.46q-3.33-1.27-4.08-5.18" vector-effect="non-scaling-stroke"/><path stroke="#4d4b4d" d="m398.18 180.48-17.22 10.68a2.38 2.37-39 0 0-.4 3.73l.05.05a4.2 4.12 51.9 0 0 4.93.64l15.52-8.81" vector-effect="non-scaling-stroke"/><path stroke="#806f49" d="m401.06 186.77 4.45-3.25a2.76 2.75-29.4 0 0 .92-3.28l-.84-2.04a1.75 1.75 0 0 0-2.55-.81l-4.86 3.09" vector-effect="non-scaling-stroke"/><path stroke="#c5b693" d="M401.06 186.77q-3.01-2.45-2.88-6.29" vector-effect="non-scaling-stroke"/><path stroke="#4d4b4d" d="M398.17 195.78q-3.01 1.78-6.35 3.01a.4.4 0 0 0-.08.72c2.45 1.55 5.52.34 7.98-1.11 2.45-1.45 4.99-3.56 4.81-6.46a.4.4 0 0 0-.67-.27q-2.68 2.33-5.69 4.11" vector-effect="non-scaling-stroke"/><path stroke="#7b5928" d="M532.77 218.21q2.43 1.04 2.56 2.03" vector-effect="non-scaling-stroke"/><path stroke="#806f49" d="M535.33 220.24q-19.47-3.87-29.82-5.06-16.02-1.85-36.26-.41c-45.26 3.23-85.48 29.5-109.68 67.05-9.02 14-15.32 27.04-21.2 42.24" vector-effect="non-scaling-stroke"/><path stroke="#7b5928" d="m338.37 324.06-.3.47a.23.23 0 0 1-.43-.14l.38-5.54" vector-effect="non-scaling-stroke"/><path stroke="#806f49" d="m338.02 318.85 1.17-7.91a.27.27 0 0 0-.35-.29c-16.31 5.22-32.16 14.02-42.96 27.7a.24.23 15.1 0 0 .22.38c3.79-.6 10.7-1.22 14.83.14a.33.33 0 0 1 .04.61c-13.52 6.48-13.72 24.05-14.32 36.73-.77 16.41-3.96 34.42-7.81 47.62q-2.08 7.15-8.02 25.95-4.23 13.4-3.6 26.72c.88 18.8 16.17 32.6 30.29 42.88" vector-effect="non-scaling-stroke"/><path stroke="#70471d" d="m307.51 519.38 12.65 9a.28.27 12.6 0 0 .44-.27q-1.77-9.25-6.18-17.71a.23.23 0 0 1 .33-.29q12.27 8.74 18.03 13.21c13.7 10.65 26.57 22.91 30.45 40.66a.37.36-23.6 0 0 .57.22c8.75-6.27 14.91-13.93 19.33-24.09q10.08-23.17 2.24-49c-6.14-20.26-21.69-43.39-29.61-58.35-7.35-13.87-13.16-29.72-15.37-45.75q-2.53-18.3.15-36.85" vector-effect="non-scaling-stroke"/><path stroke="#7b5928" d="m340.54 350.16 1.32-5.82a.39.38 51.7 0 1 .76.09l-.04 11.66" vector-effect="non-scaling-stroke"/><path stroke="#70471d" d="M342.58 356.09q1.62 23.18 9.06 45.36c5.9 17.56 15.83 34.38 25.76 50.35q7.78 12.51 14.18 28.49c4.65 11.62 6.64 22.45 6.33 33.98a1.15 1.14-72.5 0 0 .51.99c13.02 8.62 26.48 15.37 41.7 20.1q10.4 3.23 18.81 5.57a.27.27 0 0 1-.05.52q-24.92 2.17-48.22-8.46-2.5-1.14-5.42-2.69" vector-effect="non-scaling-stroke"/><path stroke="#806f49" d="m405.24 530.3-3.35-2.21a.47.46-77.8 0 0-.71.46c2.45 16.97-3.48 32.14-12.56 47.46a.43.43 0 0 0 .53.62l7.38-3.06a.62.61-2.1 0 1 .82.76c-4.56 13.96-11.19 25.49-20.4 42.13q-9.35 16.89-25.91 44.58-10 16.72-16.46 29.53c-12.49 24.76-19.9 52.46-19.01 80.68q.56 17.81 4.13 29.83" vector-effect="non-scaling-stroke"/><path stroke="#70471d" d="M319.7 801.08q.19.92.28 1.31 7.75 30.63 30.95 52.19 7.54 7.01 17.47 9.91c5.59 1.64 11.1 2.8 16.85 3.94a.6.58 14.4 0 0 .68-.39q.85-2.47.85-5.01" vector-effect="non-scaling-stroke"/><path stroke="#7b5928" d="M386.78 863.03q.65-8.8-1.9-16.89a.46.46 0 0 1 .75-.47q7.93 7.49 8.05 18.27" vector-effect="non-scaling-stroke"/><path stroke="#70471d" d="m393.68 863.94-.15 4.47a1.52 1.52 0 0 0 1.52 1.57h20.14a2.18 2.16-79.3 0 0 2.02-1.39q.86-2.25.65-5.33" vector-effect="non-scaling-stroke"/><path stroke="#7b5928" d="M417.86 863.26q.89-12.76-4.91-23.41a.42.42 0 0 1 .64-.52q11.59 9.81 12.13 24.58" vector-effect="non-scaling-stroke"/><path stroke="#70471d" d="m425.72 863.91-.15 3.89a.73.72 85.8 0 0 .85.74q3.97-.73 7.9-2.13 5.04-1.78 4.59-6.93" vector-effect="non-scaling-stroke"/><path stroke="#7b5928" d="M438.91 859.48c-.72-12.15-10.77-22.59-21.19-27-15.51-6.57-32.62-1.06-44.92 9.34" vector-effect="non-scaling-stroke"/><path stroke="#70471d" d="M372.8 841.82q.08-2.27 1.63-4.62 4.78-7.25 13.2-11.58c9.89-5.09 19.08-4.72 29.68-2.08a.62.62 0 0 0 .74-.39q4.53-12.71 4.79-25.64.09-4.86-.8-6.81l-9.47-20.79q-6.69-14.7-8.46-29.87a.31.31 0 0 0-.59-.08l-3.68 8.95a.39.39 0 0 1-.7.04l-3.35-6.14" vector-effect="non-scaling-stroke"/><path stroke="#7b5928" d="m395.79 742.81-3.19-9.3" vector-effect="non-scaling-stroke"/><path stroke="#806f49" d="M392.6 733.51q-1.5-7.56-.85-15.28a.9.9 0 0 0-.34-.78q-8.49-6.72-14.54-9.25-7.16-2.98-11.11-3.26-4.47-.31-9.48-1.07" vector-effect="non-scaling-stroke"/><path stroke="#7b5928" d="M356.28 703.87q14.21-5.41 28.06-.26" vector-effect="non-scaling-stroke"/><path stroke="#70471d" d="m384.34 703.61 7.86 4.36a.28.28 0 0 0 .41-.21q1.07-6.67.52-13.49-.79-9.84-4.22-19.9" vector-effect="non-scaling-stroke"/><path stroke="#7b5928" d="m388.91 674.37-.24-1.03a.59.59 0 0 1 1.01-.53l6.07 6.85" vector-effect="non-scaling-stroke"/><path stroke="#70471d" d="M395.75 679.66q6.39 10.78 5.26 23.59c-.88 9.89-2.48 19.59-.91 29.31a.34.33 58.8 0 0 .6.15l7.71-10.26a.42.42 0 0 1 .75.25q.12 13.57 4.35 26.04 3.18 9.38 4.69 12.55 9.09 19.09 16.92 37.74c2.81 6.69 4.6 13.24 7.52 20.58q2.59 6.53 5.15 15.58.12.43 6.42 19.34c2.9 8.72 6.85 18.29 16.35 21.94q11.7 4.5 25.15 4.94a.62.61 5.9 0 0 .63-.51l1.04-5.69" vector-effect="non-scaling-stroke"/><path stroke="#7b5928" d="M497.38 875.21q1.32-11.5-2.72-21.49a.26.25-86.1 0 1 .36-.32q1.76 1.06 3.07 2.78 6.02 7.93 6.78 17.84" vector-effect="non-scaling-stroke"/><path stroke="#70471d" d="m504.87 874.02-.23 7.1a.49.48.5 0 0 .5.5q13.45-.29 24.95-1.99a1.69 1.69 0 0 0 1.43-1.39l.74-4.22" vector-effect="non-scaling-stroke"/><path stroke="#7b5928" d="M532.26 874.02c.44-10.23-2.55-19.51-7.86-28.12a.22.22 0 0 1 .31-.29q13.34 8.98 14.98 25.22" vector-effect="non-scaling-stroke"/><path stroke="#70471d" d="m539.69 870.83.13 5.58a.43.42-9.7 0 0 .56.39q2.85-.96 5.55-2.66 4.12-2.59 3.74-7.39" vector-effect="non-scaling-stroke"/><path stroke="#806f49" d="M549.67 866.75q.68-7.71-2.99-13.91c-12.52-21.16-40.51-21.07-59.48-10.4" vector-effect="non-scaling-stroke"/><path stroke="#7b5928" d="M487.2 842.44q-1.07.6-1.96.72a.32.32 0 0 1-.29-.52l3.59-4.38" vector-effect="non-scaling-stroke"/><path stroke="#806f49" d="M488.54 838.26q14.54-13.1 34.28-10.04a.49.48-1.2 0 0 .55-.57q-2.94-15.54-4.07-31.42-2.89-40.48 3.5-80.52" vector-effect="non-scaling-stroke"/><path stroke="#70471d" d="m522.8 715.71 1.37-5.3a.92.91-65.6 0 0-.36-.97q-5.74-4.06-12.68-7.58-9.21-4.66-21.98-11.52-22.05-11.84-36.72-32.25-2.23-3.11-4.5-7.66a.32.32 0 0 0-.61.14l-.53 16.38a.19.19 0 0 1-.29.15c-9.55-6.79-15.8-14.79-22.23-24.78q-7.56-11.77-12.09-27.7-5.16-18.2.03-35.08" vector-effect="non-scaling-stroke"/><path stroke="#7b5928" d="m412.21 579.54.94-1.25a.46.46 0 0 1 .83.24c1.67 24.37 8.46 46.96 22.71 67.22" vector-effect="non-scaling-stroke"/><path stroke="#70471d" d="m436.69 645.75 3.83 5.48a.23.23 0 0 0 .42-.11q.81-11.23 4.48-22.29a.38.37-44.6 0 1 .71 0q1.32 4.2 3.3 8.24 14.71 29.9 43.65 45.68c10.29 5.61 22.65 11.23 33.85 18.57 16.71 10.97 21.62 28.3 19.15 47.43a.22.22 0 0 1-.44.02q-.25-1.05-.95-4.74c-1.63-8.61-6.67-21.72-13.89-28.05a.29.29 0 0 0-.47.17q-1.55 10.38-2.27 20.85-1.68 24.62-.75 47.72c.62 15.59 2.36 28.47 5 44.53a2.1 2.09-83.2 0 0 1.24 1.58q6.41 2.75 11.57 6.67a.61.6-43 0 0 .7.02c7.17-4.74 13.15-10.67 19.44-16.77q4.99-4.84 9.39-10.07 17.26-20.5 28.84-40.94 17.5-30.88 30.3-67.45 1.77-5.04 4.27-14.74c1.01-3.88 3-7.83 3.43-11.62a.29.29 0 0 0-.45-.28q-.34.22-.65.75-4.84 8.08-11.84 14.99a.57.57 0 0 1-.96-.3l-1.43-7.73a.48.48 0 0 0-.94-.05q-5.31 18.3-18.46 32.73-12.38 13.58-25.16 22.8-9.2 6.64-25.98 13.79c-2.18.92-5.14 1.67-8.23 2.61a.34.34 0 0 1-.28-.62q11.09-7.14 18.23-12.79 4.59-3.64 17.83-14.91c15.7-13.37 29.97-30.7 36.21-49.54q3.17-9.59 4.76-17.76a.36.36 0 0 1 .68-.08q3.58 7.94 5.77 16.24a.25.25 0 0 0 .45.06l3.67-6.09" vector-effect="non-scaling-stroke"/><path stroke="#7b5928" d="M634.71 669.75q7.95-14.19 11.06-28.24 4.71-21.29 1.01-45.68" vector-effect="non-scaling-stroke"/><path stroke="#70471d" d="m646.78 595.83-1.26-8.77a.3.3 0 0 1 .56-.2q13.57 22.59 9.23 49.41-1.11 6.89-2.51 12.45a.58.58 0 0 0 .72.7q11-3 21.3-8.4" vector-effect="non-scaling-stroke"/><path stroke="#7b5928" d="M674.82 641.02c9.58-5.32 21.23-14.94 26.23-25.45a.44.44 0 0 1 .69-.14q.43.39.67 1.28" vector-effect="non-scaling-stroke"/><path stroke="#806f49" d="m702.41 616.71 1.61 7.95a.45.45 0 0 0 .85.11q5.37-11.02 4.33-23.8a.43.43 0 0 1 .73-.34l6.49 6.5a.34.33-64.2 0 0 .57-.2c4.81-42.72-2.58-88.16-23.95-125.95-6.1-10.78-24.98-40.03-39.79-21.95" vector-effect="non-scaling-stroke"/><path stroke="#7b5928" d="m653.25 459.03-2.26 3a.36.36 0 0 1-.64-.27l.85-5.36" vector-effect="non-scaling-stroke"/><path stroke="#806f49" d="m651.2 456.4 2.81-5.8a.43.42 23.8 0 0-.23-.58c-12.96-5.31-29.61-2.32-33.81 12.87" vector-effect="non-scaling-stroke"/><path stroke="#7b5928" d="m619.97 462.89-1.76 5.83a.69.69 0 0 1-1.35-.13l-.79-7.93a.41.41 0 0 0-.68-.26q-8.43 7.56-8.69 17.79" vector-effect="non-scaling-stroke"/><path stroke="#70471d" d="M606.7 478.19q-4.94 5.61-5.57 9.24-2.25 13.08 5.34 23.33c2.8 3.76 6.82 6.5 11.08 8.92q7.86 4.47 15.82 7.24c7.16 2.49 12.18 5.98 16.86 11.42a.62.62 0 0 1-.71.97l-6.23-2.56a.65.64 7.1 0 0-.89.69q1.03 6.98.7 14.27c-.36 7.79-2.03 16.81-2.06 25.04a.34.34 0 0 1-.67.1q-3.16-11.06-4.01-22.59a.28.27 60.3 0 0-.5-.14q-5.81 8.25-6.61 19.52" vector-effect="non-scaling-stroke"/><path stroke="#7b5928" d="M629.25 573.64q-3.2-8.84-1.49-17.39 1.42-7.14 6.78-13.12a1.25 1.22 64.2 0 0 .31-.92q-.26-3.36-1.43-5.85a1.8 1.8 0 0 0-.71-.8q-.55-.35-12.37-5.11-4.78-1.93-11-5.95" vector-effect="non-scaling-stroke"/><path stroke="#70471d" d="M609.34 524.5q-8.67-6.05-13.01-14.1-3.39-6.29-3.86-13.42a.58.58 0 0 0-1.03-.33q-9.95 11.97-23.64 19.39-19.22 10.42-41.05 8.19-8.16-.84-15.54-4.03" vector-effect="non-scaling-stroke"/><path stroke="#7b5928" d="m511.21 520.2-7.18-3.7a.42.42 0 0 1 .26-.79c9.03 1.51 18.85 2.68 28.04 1.56" vector-effect="non-scaling-stroke"/><path stroke="#70471d" d="M532.33 517.27q11.17-.59 23.15-5.54 16.7-6.89 27.54-18.42c4.73-5.02 10.3-13.01 13.4-18.38 3.31-5.74 5.98-13.81 9.63-19.56q6.24-9.86 15.69-16.79a.25.25 0 0 1 .34.37c-2.88 3.22-5.4 6.32-6.24 9.95a.42.42 0 0 0 .69.42c4.18-3.62 8.22-6.55 13.65-8.35 6.36-2.11 13.03-1.88 20.21-.88a.66.66 0 0 0 .7-.41q8.59-22.25 10.14-47.03a1.92 1.92 0 0 0-.75-1.64q-17.89-13.54-28.71-33.27-5.6-10.22-8.31-16.95-5.54-13.76-14.23-34.5-4.02-9.62-13.54-24.49-11.13-17.39-24.89-30.17" vector-effect="non-scaling-stroke"/><path stroke="#7b5928" d="m570.8 251.63-16.32-15.07" vector-effect="non-scaling-stroke"/><path stroke="#70471d" d="M554.48 236.56q22.43 10.82 38.79 28.74 9.44 10.34 17.48 24.47 7.14 12.56 13.01 27.21c7.13 17.79 11.96 30.65 21.21 44.55 15.65 23.52 44.2 40.27 72.83 31.64a.56.56 0 0 0 .28-.88c-9.31-12.35-13.3-27.54-13.63-43.03q-.25-12.14.24-30.01.01-.28.25-.37a.75.72-22.2 0 1 .98.39q3.03 7.66 8.58 13.98" vector-effect="non-scaling-stroke"/><path stroke="#806f49" d="M714.5 333.25q.69 1.06 1.51 1.65a.29.28 20.3 0 0 .45-.2q1.57-19.58.59-32.45-.94-12.48-5.09-21.61c-6.64-14.61-22.16-22.62-36.52-27.83q-19.12-6.93-28.25-10.49c-18.97-7.41-41.25-19.65-62.7-31.54a1.41 1.39-39.6 0 0-1.13-.1l-7.7 2.74" vector-effect="non-scaling-stroke"/><path stroke="#7b5928" d="m575.66 213.42-3.77 1.55a.17.17 0 0 1-.21-.26q4.05-5.47 10.04-8.81" vector-effect="non-scaling-stroke"/><path stroke="#806f49" d="m581.72 205.9 8.3-3.22a.6.59-47.7 0 0-.05-1.13q-2.39-.66-5.45-.59c-9.1.21-17.44.6-24.73 4.34a.24.24 0 0 1-.34-.27q1.44-5.56 4.35-10.38a.33.33 0 0 0-.36-.49c-14.45 3.54-26.86 10.26-38.62 19.08a.41.41 0 0 0 .05.69l7.9 4.28" vector-effect="non-scaling-stroke"/><path stroke="#f3c46e" d="M581.72 205.9q-8.56.75-17.1 1.71-5.31.6-8.63 1.78a.67.67 0 0 1-.89-.63q-.03-3.46 1.27-6.29.29-.63-.25-1.02-.22-.15-.43-.02-.23.14-.29.17-13.39 5.19-22.63 16.61M575.66 213.42c2.35.93 4.45-.36 6.35.95 7.78 5.35 11.44 8.27 18.37 11.98q5.06 2.71 11.14 6.95a8.41 8.21-19.1 0 0 2.51 1.18q.91.25 2.16 1.34a9.83 9.75 78.1 0 0 2.34 1.54q14.35 6.76 24.74 12.05c9.11 4.64 17.26 6.57 26.93 9.44 19.26 5.74 35.4 17.3 40.27 37.47q.67 2.76 1.58 6 1.9 6.72 1.09 13.58" vector-effect="non-scaling-stroke"/><path stroke="#e39c42" d="M713.14 315.9q-.81-1.8-1.86-3.65-1.13-2-1.79-3.65c-2.89-7.24-8.18-14.71-14.9-18.96a.44.44 0 0 0-.66.51q2.52 7.49 2.62 15.34.09 6.92-1.85 23.47c-.41 3.52-.41 6.51-.79 8.94a.46.46 0 0 1-.86.15c-4.99-9.1-14-19.94-23.95-23.67a.48.48 0 0 0-.56.74c4.87 6.62 8.73 13.63 12.29 22.13 6.12 14.58 8.47 20.94 13.7 30.65 2.66 4.93 6.45 8.97 10.56 14.19a.78.78 0 0 1-.51 1.25c-2.38.3-6.85-1.55-11.46-3.35q-6.22-2.43-9.69-4.06c-13.73-6.43-25.26-16.33-33.35-29.06-3.11-4.9-5.91-8.61-8.72-13.9q-4.21-7.94-8.89-19.43-4.35-10.69-17.59-32.45c-5.06-8.33-10.22-14.46-18.41-22.15q-3.55-3.34-4.95-4.3c-4.17-2.83-7.01-6-11.77-8.56q-12.21-6.55-14.82-7.48c-4.77-1.7-6.97-3-10.45-2.04" vector-effect="non-scaling-stroke"/><path stroke="#e39c42" d="m570.8 251.63-.19 2.13a1.25 1.25 0 0 0 .24.85q3.53 4.73 8.12 10.03c1.88 2.18 4 5.36 5.06 7.36q12.07 22.57 13.81 26.13 1.93 3.94 5.3 13.18c4.16 11.38 9.35 24.42 11.99 30.81q1.11 2.7 8.48 18.17 2.72 5.71 6.92 12.1 5.63 8.57 7.35 11.81 4.97 9.41 5.78 12.15 2.99 10.11.15 22.44c-.86 3.73-5.29 12.38-9.06 13.15-4.87 1-9.39 3.24-14.17 5.02a4.45 4.43 18.6 0 0-.89.44q-2.84 1.82-7.41 5.07c-2.82 2.01-5 4.53-7.04 7.25q-4.77 6.38-8.88 14.14-5.2 9.79-7.37 12.82c-7.01 9.83-12.5 17.37-21.2 23.12q-6.72 4.44-18.33 10c-4.66 2.24-10.51 3.7-14.97 4.81q-1.9.48-2.16 2.66M511.21 520.2q.21 2.1-3.41 1.49a3.63 3.43 43.9 0 0-1.21-.01c-18.77 3.03-37.86 5.83-56.79 3.58q-16.77-1.99-30.85-14.03c-3.71-3.17-7.33-8.15-8.88-12.13q-8.02-20.61-11.66-27.57-8.97-17.19-16-28.25c-9.86-15.54-17.37-29.16-24.76-43.71q-2.61-5.14-8.84-23.66c-1.95-5.8-3.07-13.42-4.55-18.66q-.41-1.43-1.68-1.16M340.54 350.16q-2.61 1.35-3.32 5.08c-.97 5.11-2.44 10.7-2.84 15.82q-.7 8.9.48 21.78c1.01 11.02 4.96 23.76 8.54 32.79q3.66 9.22 11.62 24.55 5.63 10.83 7.4 14.79 6.05 13.49 6.59 15.04 6.87 20.03 3.53 40.51-2.24 13.73-8.04 25.86a.94.94 0 0 1-1.78-.31q-1.51-14.4-9.53-27.05c-8.49-13.39-16.32-25.44-20.71-39.97a.33.33 0 0 0-.56-.13q-.29.32-.47 1.24-3.21 16.44 3.41 31.26a.48.48 0 0 1-.71.6q-1.45-.97-2.89-2.28a5.99 5.39 79 0 0-.65-.49q-6.17-4.01-22.6-14.24c-5.38-3.35-10.04-10.44-12.58-14.15a.63.63 0 0 0-1.14.31c-.37 4.72.54 9.91 2.54 14.56q2 4.66 4.24 11.63a3.65 3.55 21 0 0 .31.67l2.68 4.45" vector-effect="non-scaling-stroke"/><path stroke="#f3c46e" d="M304.06 512.48q-.53-.2-1.01-.58c-.89-.72-1.9-.55-2.82-1.16a1.88 1.82 4.9 0 1-.66-.76q-2.07-4.35-5.63-9.16c-6.1-8.25-8.93-17.66-9.37-27.88q-.21-5.13 1.54-12.21c2.95-11.97 7.31-24.9 10.4-34.94 1.63-5.27 2.64-12.68 3.42-16.8q1.29-6.75 4.51-41.72.18-1.9.57-10.74.46-10.51 8.4-17.14a.78.74 17.5 0 1 .35-.17l1.81-.36a.84.83-89.4 0 0 .64-.63l.35-1.67a.5.49 12 0 0-.39-.59l-8.18-1.75a.55.55 0 0 1-.27-.93q2.22-2.19 5.43-4.14 11.57-7.03 24.87-10.3M338.37 324.06q.42.76 1.22.6a.81.79 9.6 0 0 .52-.36q10.8-17.41 14.36-23.33 7.59-12.63 13.48-19.77 11.17-13.54 21.53-23.23c9.54-8.92 21.13-15.69 32.61-22.1q5.54-3.08 12.54-5.47c11.21-3.82 21.77-7 32.79-8.41 11.85-1.53 20.1-1.68 31.76-1.35q5.14.14 12.63.09c7.76-.05 16.07.91 23.71 1.75a1.01 1.01 0 0 0 1.04-1.4q-.15-.35-1.23-.84" vector-effect="non-scaling-stroke"/><path stroke="#e39c42" d="M609.34 524.5q-6.19 6.74-11.22 10.85-20.91 17.07-48.37 16.92c-14.3-.08-27.74-3.31-40.8-7.02q-8.94-2.54-15.02-2.68c-10.61-.24-19.86 2.21-31.68 4.96-4.45 1.04-8.54 1.19-13.26 1.9-8.78 1.31-17.08.4-25.8-1.62a1.43 1.42-67.2 0 0-1.51.62c-2.85 4.5-4.34 7.63-7.37 10.39q-3.77 3.42-5.05 4.22-4.31 2.66-10.32 5.7a.3.3 0 0 1-.42-.35l1.09-3.71" vector-effect="non-scaling-stroke"/><path stroke="#e8b262" d="M399.61 564.68q4.14-8.47 5.09-14.61 1.02-6.54.54-19.77M714.5 333.25q1.88-8.73-1.36-17.35M304.06 512.48l4.36 5.68a.53.51-59.6 0 1 .1.41q-.11.61-1.01.81M401.42 576.53l-6.26 21.63" vector-effect="non-scaling-stroke"/><path stroke="#f3c46e" d="M395.16 598.16q-2.46 7.58-8.11 12.76a3.28 3.13 82.6 0 0-.77 1.05c-2.56 5.54-5.52 12.55-8.99 18.29-4.34 7.2-8.23 15.61-12.66 23.1q-10.35 17.56-14.94 25.34-4.99 8.46-12.38 24.59-6.6 14.41-9.41 25.82c-4.21 17.05-7.15 35.36-5 52.65q1.11 8.98 2.68 21.34a.29.24 39.3 0 0 .02.1l2.36 8.44" vector-effect="non-scaling-stroke"/><path stroke="#e8b262" d="m327.96 811.64-8.26-10.56" vector-effect="non-scaling-stroke"/><path stroke="#e39c42" d="M634.71 669.75q-1.05.39-1.48-.58-.45-1.03-.45-2.24.09-18.46-9.85-33.91a1.47 1.47 0 0 0-2.38-.13q-.16.18-.39 1.2c-1.93 8.27-4.26 16.46-8.56 24.19-2.04 3.65-4.82 12.1-8.46 17.36q-4.52 6.53-10.48 14.79a.34.34 0 0 1-.61-.24q1.17-9.2-1.7-17.57a.67.67 0 0 0-1.28.06q-1.84 7.41-4.54 13.86-8.53 20.43-22.61 37.32a.46.46 0 0 1-.74-.06q-.29-.47-.29-.92.13-14.38-5.17-27.12c-3.34-8.02-6.22-13.36-11.14-19.03q-2.59-2.98-4.71-5.92a.66.66 0 0 0-1.19.47q.14.96 1.36 2.6a.23.23 0 0 1-.34.31q-3.54-3.05-6.34-6.69a5.38 5.16-88.8 0 0-.69-.75q-6.74-6.19-16.19-13.18c-4.59-3.39-9.06-7.49-12.51-11.41a.41.4-63.5 0 0-.71.24q-.44 5.77 1.1 11.22 3.06 10.89 9.32 20.53a.39.39 0 0 1-.42.59q-1.57-.39-3.94-1.57-2.76-1.36-11.93-7.08c-11.88-7.42-22.65-16.48-30.9-27.61q-6.9-9.3-8.04-11.2-6.11-10.28-10.13-22.49a.69.68 54.5 0 0-1.19-.2q-9.11 11.66-9.64 26.68-.01.51.14 5.54.14 4.51-.94 8.94M412.21 579.54c-4.15 1.29-5.1-2.86-5.8-6.02q-.69-3.16-1.07-4.89a.4.4 0 0 0-.76-.06l-3.16 7.96" vector-effect="non-scaling-stroke"/><path stroke="#f3c46e" d="m401.42 576.53 2.17-8.45a.52.51-8 0 0-.76-.57l-4.79 2.77a.43.42 64.5 0 1-.61-.22q-.13-.33.05-.76.99-2.32 2.13-4.62" vector-effect="non-scaling-stroke"/><path stroke="#e39c42" d="M372.8 841.82q-1.06 2.55-3.21 5.24-2.81 3.53-3.11 7.35a2.12 2.1-73.1 0 0 1.06 2.01c4.93 2.8 8.43 3.82 13.83 4.9 1.53.3 3.35 1.56 5.41 1.71" vector-effect="non-scaling-stroke"/><path stroke="#e8b262" d="m522.8 715.71-.25-.81a.63.63 0 0 0-1.21.04l-3.2 12.76" vector-effect="non-scaling-stroke"/><path stroke="#e39c42" d="M518.14 727.7q-.45 1.58-1.45 2.23a.43.43 0 0 1-.65-.25c-2.71-10.26-10.49-18.07-19.74-22.96-15.15-8-30.19-17.94-40.52-30.44q-1.06-1.29-2.47-3.46-.82-1.26-1.61-1.04a1.16 1.16 0 0 0-.84.88l-2.43 11.37a.87.87 0 0 1-1.32.55q-1.96-1.25-2.86-2.08c-5.9-5.44-13.03-11.35-18.2-18.38-9-12.23-17.57-28.78-18.88-43.7q-1.13-12.92-1.34-21.3a.75.75 0 0 0-1.24-.55q-3.95 3.41-8.62 8.63-1.23 1.38-3.01 2.26a.22.22 0 0 1-.32-.25l2.52-11.05" vector-effect="non-scaling-stroke"/><path stroke="#f3c46e" d="M518.14 727.7q-4.69 17.6-5.15 34.05-.69 23.99 2.27 50.02.81 7.1 2.54 13.05a.97.97 0 0 1-.95 1.23q-10.64-.3-20.34 4.02c-3.54 1.58-7.69 3.89-7.97 8.19M487.2 842.44q1.5.92 3.25.43 5.92-1.66 10.77-3.91a4.77 4.49-62 0 1 .97-.33q10.37-2.39 20.85 1.89 1.8.74 10.92 6.04a1.8 1.29 72.8 0 1 .25.19l4.43 4.06a.47.43 9.1 0 1 .11.14q4.9 7.71 6.83 16.94" vector-effect="non-scaling-stroke"/><path stroke="#e39c42" d="M545.58 867.89q-2.05 2.1-5.89 2.94M532.26 874.02c-4.96.59-10.09 1.9-14.7 1.94-3.67.03-8.01.55-11.56-.43q-1.05-.29-1.13-1.51M497.38 875.21q-4.38-.28-8.84-.75-9.96-1.06-17.75-7.48-4.72-3.89-6.8-9.72-.02-.03-10.49-29.03c-2.62-7.25-5.84-14.59-8.54-22.44-3.82-11.15-9.34-22.07-13.25-32.46-3.44-9.15-9.21-20.69-12.57-29.97q-3.19-8.77-4.55-19.17-.81-6.17-2.86-10.74a1.49 1.47 62.7 0 0-2.09-.68l-3.84 2.22a.54.54 0 0 1-.8-.55q1.48-9.16.44-18.71c-.53-4.94-3.33-9.48-5.9-13.56q-1.27-2.03-3.79-2.51M388.91 674.37q-1.03 11.75-1.77 22.71-.12 1.81-2.8 6.53" vector-effect="non-scaling-stroke"/><path stroke="#f3c46e" d="M356.28 703.87q0 1.81 1.4 2.14 12.78 3.02 23.64 11.18 7.49 5.63 9.55 15.31.25 1.17 1.73 1.01" vector-effect="non-scaling-stroke"/><path stroke="#e39c42" d="M395.79 742.81q-2.96-1.52-3.84-5.11a.19.13-89.6 0 0-.09-.13q-.04-.02-.07-.1a.1.07-72 0 0-.14.1c1.98 6.38 6.08 13.07 7.8 17.79q1.98 5.46 2.71 12.68 1.42 14.18-1.36 28.76c-1.34 7.06-4.84 13.08-9.5 18.78q-5.22 6.38-13.59 9.68-10.13 3.99-21.17 2.54-18.19-2.39-28.58-16.16" vector-effect="non-scaling-stroke"/><path stroke="#70471d" d="M614.22 492.08c-5.21-1.47-10.56 1.59-9.61 7.42 1.09 6.71 7.9 12.22 14.72 10.59M628.28 516.3q3.82 10.61 15.43 6.56" vector-effect="non-scaling-stroke"/><path stroke="#e39c42" d="M646.78 595.83q-2.02 7.47-3.69 14.27-1.87 7.61-2.74 9.97-1.73 4.73-3.55 9.75-.34.93-.87 1.29a.64.63 70.2 0 1-.99-.47c-.57-6.32-1.49-12.91-3.74-19.64q-1.34-4.01-3.08-9.68a.51.51 0 0 1 .83-.53q5.49 4.9 7.24 10.68a.28.28 0 0 0 .55-.07c.33-6.75.27-14.25-2.07-21.84q-2.22-7.17-3.35-10.15-1.62-4.28-2.07-5.77M438.91 859.48q-6.2 3.31-13.19 4.43M417.86 863.26q-11.96 2.33-24.18.68" vector-effect="non-scaling-stroke"/><path stroke="#e8b262" d="M549.67 866.75q-2.37-.08-4.09 1.14" vector-effect="non-scaling-stroke"/><path stroke="#f3c46e" d="M653.25 459.03q8.44-2.4 14.65 1.31c8.03 4.79 15.41 12.8 19.3 21.74 2.23 5.12 4.91 10.92 7.73 16.38 4.1 7.94 6.37 18.07 8.55 24.94q2.56 8.04 4.25 15.61c3.26 14.57 5.25 27.61 5.63 41.17q.25 9.09.5 11.65a.3.3 0 0 1 0 .1l-.25 2.96a.75.74-65.1 0 1-1.27.47l-4.92-4.93a.37.36-73.8 0 0-.61.34l.25 1.22a2.97 2.87-47.8 0 1 .03.93l-2.16 16.67a1.8 1.8 0 0 1-.32.8q-.56.8-.59 1.17-.26 2.8-1.61 5.15" vector-effect="non-scaling-stroke"/><path stroke="#e39c42" d="M674.82 641.02q-2.79.54-4.02-.79a.56.56 0 0 1 .04-.8q8.98-7.9 18.03-17.06c3.03-3.05 11.14-12.69 10.17-17a.29.28-28.5 0 0-.48-.14c-5.31 5.15-10.49 7.82-17.07 10.5-9.04 3.69-18.6-3.36-22.36-11.17-2.22-4.64-4.03-11.47-4.96-14.03-2.94-8.08-3.35-16.14-2.96-24.29q.41-8.66 1.55-22.48.08-.98.46-2.49a1.49 1.44 52.2 0 0 .05-.45l-1.15-19.34a.17.17 0 0 0-.2-.16l-8.21 1.54" vector-effect="non-scaling-stroke"/><path stroke="#7b5928" d="m643.71 522.86 3.32-2.08a.49.43 3.6 0 0 .09-.07l6.35-5.55a3.7 3.67 19.6 0 1 1.83-.86q4.28-.69 7.68-1.55c6.98-1.76 12.41-8.87 6.85-15.57q-2.07-2.49-4.2-3.52-3.76-1.83-14.5-6.05c-6.02-2.36-13.54-2.43-17.78 2.98q-1.77 2.26-2.94 9.44-.57 3.47-2.17 10.72-.32 1.41.04 5.55" vector-effect="non-scaling-stroke"/><path stroke="#e39c42" d="M628.28 516.3q-5.07-2-8.95-6.21" vector-effect="non-scaling-stroke"/><path stroke="#7b5928" d="M619.33 510.09q4.88-2.14 4.23-7.1-1.04-7.87-9.34-10.91" vector-effect="non-scaling-stroke"/><path stroke="#e39c42" d="M614.22 492.08q-1.85-.89-4.05-1a.78.78 0 0 1-.69-.48q-2.62-6.15-2.78-12.41" vector-effect="non-scaling-stroke"/><path stroke="#f3c46e" d="M651.2 456.4q-3.13-2.71-4.44-2.94-10.55-1.85-18.95 2.59-3.28 1.73-7.84 6.84" vector-effect="non-scaling-stroke"/><path stroke="#70471d" d="M666.34 416.8q-3.9 12.75-11.45 23.73a.58.58 0 0 0 .26.86l5.25 2.16a2.53 2.37 58.1 0 0 .68.18q3.9.47 6.85 1.13c5.24 1.19 10.23 5.39 14.59 8.99" vector-effect="non-scaling-stroke"/><path stroke="#806f49" d="M682.52 453.85c2.16 2.16 5.02 5.09 7.66 6.12q2.25.87 4.5 1.4a.21.21 0 0 0 .2-.34q-15.62-16.75-23.11-38.57-1.51-4.38-3.29-10.46a.37.37 0 0 0-.72 0l-1.42 4.8" vector-effect="non-scaling-stroke"/><path stroke="#e8b262" d="M682.52 453.85q.19-2.9-1.85-5.08c-2.12-2.26-3.73-4.46-5.12-7.35q-4.03-8.36-7.61-16.89-.64-1.53-1.6-7.73" vector-effect="non-scaling-stroke"/><path stroke="#7b5928" d="M234.55 766.74q1.34 9.95 5.72 17.96" vector-effect="non-scaling-stroke"/><path stroke="#70471d" d="M240.27 784.7c2.91 8.6 8.59 15.69 14.55 22.74q5.63 6.65 13.29 10.83a.74.74 0 0 1-.45 1.38l-13.7-1.78a.31.3 72.4 0 0-.26.51c5.07 5.57 12.21 12.45 18.99 16.42q19.3 11.3 38.82 14.96 7.96 1.49 22.83 2.12a.3.3 0 0 0 .26-.46q-1.4-2.03-3.66-5.07-11.17-15.02-17.38-32.57" vector-effect="non-scaling-stroke"/><path stroke="#7b5928" d="M313.56 813.78q-6.06-18.94-6.99-38.73" vector-effect="non-scaling-stroke"/><path stroke="#806f49" d="m306.57 775.05-.17-6.13a.96.94-76.1 0 0-.46-.78c-15.3-8.78-25.97-25.37-30.3-42.04q-5.61-21.61-3.11-43.65a.31.3 71.6 0 0-.51-.26q-10.09 9.46-17.17 22.25-16.87 30.47-8.55 65.25a.33.33 0 0 1-.53.33c-4.33-3.63-8.21-7.94-11.93-12.55a.3.3 0 0 0-.53.23l1.24 9.04" vector-effect="non-scaling-stroke"/><path stroke="#f3c46e" d="M306.57 775.05q.13.52-.01.78a.69.69 0 0 1-1.26-.14c-.62-2.11-6.65-6.22-13.09-11.34q-6.6-5.25-11.44-12.46c-2.08-3.11-3.41-6.47-5.24-9.89-2.28-4.26-3.67-10.05-5.29-14.34q-1.31-3.48-1.86-6.69-1.88-10.9-2.46-19.45a.38.38 0 0 0-.68-.21q-5.46 6.77-9.02 14.96c-3.18 7.33-6.32 14.75-7.1 23.36q-1.53 16.7 3.63 32.8c1.27 3.97 3.62 7.33 4.85 10.9a.63.63 0 0 1-.76.81q-1.65-.42-2.96-1.16-7.23-4.07-14.49-10.58a.73.33 24.4 0 1-.07-.08l-4.77-5.58" vector-effect="non-scaling-stroke"/><path stroke="#e39c42" d="m313.56 813.78-.84.71a.47.47 0 0 1-.76-.25q-.23-.94-1.21-1.41c-16.51-8-29.23-15.9-37.34-31.33a.44.43-57.9 0 0-.82.19q-.12 3.57.69 6.78 3.31 13.21 11.64 23.36a.34.34 0 0 1-.33.55q-3.17-.57-5.97-1.77c-5.27-2.26-10.74-4.09-15.4-7.08q-5.8-3.71-11.11-7.85-1.05-.82-4.84-5.16-3.05-3.49-7-5.82" vector-effect="non-scaling-stroke"/><path stroke="#7b5928" d="m644.51 697.91-2.84 8.71" vector-effect="non-scaling-stroke"/><path stroke="#70471d" d="M641.67 706.62q-9.95 29.77-25.31 58.74-16.81 31.69-39.84 56.78c-7.65 8.34-15.58 15.21-24.45 21.79a.46.45 58.2 0 0-.13.58l4.99 9.54a.24.23 78.4 0 0 .19.13c12.58.4 25.77 1.62 38.54 1.93q14.78.35 26.85.45a.48.48 0 0 0 .47-.4q.64-3.61.04-7.16" vector-effect="non-scaling-stroke"/><path stroke="#7b5928" d="M623.02 849q-.95-7.63-5.36-14.17a.57.56 87.7 0 1 .74-.81q8.59 4.95 11.72 14.45" vector-effect="non-scaling-stroke"/><path stroke="#70471d" d="m630.12 848.47.95 7.42a1.03 1.03 0 0 0 1.12.9l15.92-1.61a1.28 1.27-1.8 0 0 1.15-1.22l.15-4.07" vector-effect="non-scaling-stroke"/><path stroke="#7b5928" d="M649.41 849.89c-.34-7.64-3.71-14.93-8.53-20.86a.3.29-21.5 0 1 .21-.48q.43-.02.75.11c9.79 4.01 15.1 13.68 15.33 23.96a.46.46 0 0 0 .57.43c2.95-.73 5.35-2.16 6.19-5.44" vector-effect="non-scaling-stroke"/><path stroke="#806f49" d="M663.93 847.61q.38-12.23-8.37-19.93c-12.76-11.22-31.96-12.09-47.63-7.58" vector-effect="non-scaling-stroke"/><path stroke="#7b5928" d="m607.93 820.1-5.97 1.94" vector-effect="non-scaling-stroke"/><path stroke="#70471d" d="M601.96 822.04q-.45.15-.72.1a.29.29 0 0 1-.14-.5q4.68-4.27 10.38-7.06" vector-effect="non-scaling-stroke"/><path stroke="#7b5928" d="M611.48 814.58q7.77-3.46 16.52-4.13" vector-effect="non-scaling-stroke"/><path stroke="#806f49" d="m628 810.45 2.55-.24a1.26 1.25-69.3 0 0 .76-.35c14.82-13.96 28.43-30.58 35.72-49.55 4.78-12.42 6.52-27.11 2.73-39.73-3.43-11.41-11.56-23.99-22.7-28.98a.48.48 0 0 0-.66.3l-1.89 6.01" vector-effect="non-scaling-stroke"/><path stroke="#f3c46e" d="M628 810.45q-.44-.36-.78-.42a.43.43 0 0 1 .05-.86q2.01-.09 3.61-1.81 18.52-19.87 27.53-44.92 6.04-16.8 3.72-34.85-1.06-8.3-4.82-14.95-4.8-8.52-12.8-14.73" vector-effect="non-scaling-stroke"/><path stroke="#e39c42" d="M611.48 814.58q-.93.14-1.03-.54a.47.46-29.8 0 1 .11-.39q9.5-10.97 13-15.59 12.86-16.99 19.53-40.31c2.55-8.89 3.77-19.72 2.89-28.42q-.83-8.2-4.31-22.71M601.96 822.04l.17.7a.92.9-28.9 0 1-.26.85c-3.04 2.88-6.65 6.81-7.24 10.72-.9 5.91 13.68 11.03 17.95 12.07q5.21 1.28 10.44 2.62M649.41 849.89q-9.78.98-19.29-1.42" vector-effect="non-scaling-stroke"/><path stroke="#f3c46e" d="M663.93 847.61q-1.12.84-1.93.13a.99.94 15.4 0 1-.29-.48q-.45-1.97-1.39-3.57-2.24-3.82-4.28-7.74c-3.45-6.62-9.28-11.02-16.7-13.34q-13.08-4.1-26.72-2.06a2.31.25-20.3 0 0-.96.24q-2.47.75-3.73-.69" vector-effect="non-scaling-stroke"/><path stroke="#70471d" d="M439.04 836.82q-3.89-13.69-8.47-24.78a.32.32 0 0 0-.62.07q-1.13 6.44-4.65 13.59a.94.93-63.2 0 0 .4 1.24q6.79 3.61 12.82 10.17a.31.31 0 0 0 .52-.29" vector-effect="non-scaling-stroke"/><path stroke="#7b5928" d="M533.36 348.09q.57-1.37 1.07-4.18c2.08-11.68 10.57-25.21 23.11-28q13.69-3.03 27.06 3.01a.45.45 0 0 0 .64-.43q-.05-1.08-.86-2.54" vector-effect="non-scaling-stroke"/><path stroke="#e39c42" d="M584.38 315.95q.38-.65 1.36-.85a.62.62 0 0 0 .5-.62q-.1-7.17-.72-12.23-1.32-10.81-7.97-19.48-13.27-17.33-34.25-19.41c-17.48-1.73-34.01 7.52-39.75 24.25-7.62 22.21 7.4 46.38 24.31 59.27q.96.74 3.29 1.82a1.58 1.57 53.9 0 0 .88.14q.97-.12 1.33-.75" vector-effect="non-scaling-stroke"/><path stroke="#70471d" d="M584.38 315.95q-4.27-7-11.17-10.13c-15.9-7.2-34.28-.85-41.83 15.12q-4.05 8.57-2.44 17.76 1.01 5.76 4.42 9.39" vector-effect="non-scaling-stroke"/><path stroke="#7b5928" d="M393.61 417.18q.66 1.28 1.85 1.8a.43.43 0 0 0 .6-.33c2.55-19.42 17.63-33.58 37.94-30.73q6.27.88 14.19 4.81" vector-effect="non-scaling-stroke"/><path stroke="#e39c42" d="M448.19 392.73q1.13.1 2.82-.5a1.31 1.31 0 0 0 .86-1.42q-1.72-11.62-4.23-19.83c-5.98-19.6-19.68-35.53-41.03-36.86-23.69-1.48-40.09 19.79-40.07 41.87q.01 17.21 12.04 31.18 6.25 7.26 15.03 10.01" vector-effect="non-scaling-stroke"/><path stroke="#70471d" d="M448.19 392.73q-3.19-9.1-12.15-13.79c-24.3-12.71-54.64 11.44-42.43 38.24" vector-effect="non-scaling-stroke"/><path stroke="#7b5928" d="M538.02 359.04q8.68 2.84 18.14 8.14.44.25.74.11a.31.31 0 0 0 .1-.49c-4.77-5.28-10.64-9.75-17.59-12.02s-14.32-2.13-21.3-.68a.31.31 0 0 0-.2.45q.16.29.65.35 10.78 1.3 19.46 4.14M613.72 392.84c-6.5-11.9-21.19-11.6-27.69.16a.61.61 0 0 0 .65.9l8.01-1.47a.72.71-8.2 0 1 .84.62c2.21 20.08-3.41 42.72-24.43 50.57-10.41 3.89-22.36 3.95-32.95 1.82a1.12 1.11-8.8 0 1-.76-.55l-5.99-10.37a.73.73 0 0 1 .11-.88c11.15-11.35 17.69-26.37 16.82-42.36-1.07-19.62-17.79-23.48-33.95-18.13q-13.18 4.36-25.99 13.23c-7.49 5.2-15.89 12.75-17.91 21.66q-2.47 10.96 6.07 18.85c12.42 11.48 30.89 14.49 47.03 10.88a.57.56 68.4 0 1 .61.27l5.93 10.27a1.53 1.49-50.2 0 1 .1 1.26c-4.79 13.05-13.58 26.42-27 31.81-15.91 6.38-33.08.79-46.05-9.62a.68.67-48 0 1-.05-1l5.22-5.22a.66.65-64.4 0 0-.39-1.12c-13.04-1.32-20.56 11.11-14.3 22.5a.6.6 0 0 0 1.09-.06l3.63-8.81a.78.77-56 0 1 1.26-.25q9.3 9.46 22.39 13.3c27.73 8.13 52.8-10.39 61.71-36.06a.69.68-73.2 0 1 .81-.44c10.12 2.65 22.22 1.5 32.31-1.52q22.74-6.79 30.44-29.77 4.19-12.52 1.88-30.44a.65.65 0 0 1 .73-.73l9.46 1.23a.36.36 0 0 0 .36-.53M464.67 382.77q-16.93 15.56-11.75 38.46.1.46.44.6a.34.34 0 0 0 .47-.29q1.94-20.67 11.14-38.54a.19.19 0 0 0-.3-.23" vector-effect="non-scaling-stroke"/><path stroke="#838180" d="M501.69 388.3c-5.33 3.03-16.85 10.1-18.92 16.79a1.16 1.16 0 0 0 1.13 1.5q2.93-.05 6.13-1.28c5.74-2.2 11.11-5.02 16.68-8.18 5.56-3.16 10.74-6.33 15.56-10.13q2.7-2.12 4.24-4.62a1.16 1.16 0 0 0-.71-1.73c-6.8-1.65-18.77 4.62-24.11 7.65" vector-effect="non-scaling-stroke"/><path stroke="#7b5928" d="M634.544 459.739a11.58 8.59-113.6 0 0-3.236 14.05 11.58 8.59-113.6 0 0 12.508 7.173 11.58 8.59-113.6 0 0 3.236-14.051 11.58 8.59-113.6 0 0-12.508-7.173" vector-effect="non-scaling-stroke"/><path stroke="#7b5928" d="M659.017 464.54a11.35 8.61-108.4 0 0-4.587 13.488 11.35 8.61-108.4 0 0 11.753 8.052 11.35 8.61-108.4 0 0 4.587-13.488 11.35 8.61-108.4 0 0-11.753-8.052M612.364 471.956a11.51 8.33-129.4 0 0 .87 14.181 11.51 8.33-129.4 0 0 13.742 3.607 11.51 8.33-129.4 0 0-.87-14.181 11.51 8.33-129.4 0 0-13.742-3.607M598.63 600.53c2.87 17.65.76 34.26-4.24 51.4a.3.29-89.8 0 0 .36.37q.26-.08.57-.47 6.2-7.8 12.21-18.87c12.53-23.08 13.3-52.44-2.09-74.54a.28.28 0 0 0-.5.22c2.7 11.86 5.55 25.15 5.33 37.6q-.22 12.46-4.24 23.97a.21.21 0 0 1-.41-.06q-.45-9.99-6.47-19.81a.28.28 0 0 0-.52.19" vector-effect="non-scaling-stroke"/><path stroke="#e39c42" d="M480.6 619.77a.52.52 0 0 0 .57-.82c-7.81-9.68-13.75-21.3-14.94-34.25q-.25-2.66-.7-6.09a.4.4 0 0 0-.76-.11q-4.06 9.35-2.23 19.51a.41.4-74.8 0 1-.66.38q-2.39-2.05-4.2-4.8-10.28-15.67-10.96-34.37a.58.58 0 0 0-1.05-.32q-.49.66-.65 1.36-3.78 16.75 4.24 32.52c3.32 6.54 8.61 10.4 15.34 14.05a4.39 4.33 84 0 1 1.28 1.05c4.45 5.35 8.23 9.77 14.72 11.89" vector-effect="non-scaling-stroke"/><path stroke="#f3c46e" d="M559.6 636.54q-5.7-2.58-9.17-5.2-3.21-2.42-7-7.88-6.6-9.48-8.67-20.33a.31.31 0 0 0-.61 0q-1.25 6.79-.14 13.86a.52.52 0 0 1-.8.51c-10.36-6.97-17.29-20.73-19.53-32.55q-.11-.53-.69-.38-.31.08-.32.42-.5 18.15 11.47 31.88 5.29 6.07 12.8 8.44a2.68 2.65-11.2 0 1 1.21.8q2.06 2.44 3.73 4.51c6.85 8.49 17.69 12.91 28.69 14.5a.7.7 0 0 0 .8-.67q.01-.22-.27-.57-12.42-15.7-15.63-34.98a.4.4 0 0 0-.8.02c-1.16 10.16 1.26 18.25 5.32 27.24a.29.29 0 0 1-.39.38" vector-effect="non-scaling-stroke"/></g><path fill="#fdfdfd" d="M375.663 57.774a3.11 3.11 0 0 0-2.554-3.58l-.217-.037a3.11 3.11 0 0 0-3.58 2.554l-2.955 17.655a3.11 3.11 0 0 0 2.554 3.58l.217.037a3.11 3.11 0 0 0 3.58-2.554zm-52.221 8.505a3.2 3.2 0 0 0-4.427-.94l-.134.086a3.2 3.2 0 0 0-.94 4.427L328.037 85.4a3.2 3.2 0 0 0 4.427.94l.134-.086a3.2 3.2 0 0 0 .94-4.427zm95.705 15.179a3.09 3.09 0 0 0-4.348-.434L400.9 92.399a3.09 3.09 0 0 0-.434 4.349l.127.154a3.09 3.09 0 0 0 4.348.434l13.899-11.375a3.09 3.09 0 0 0 .434-4.349zM410.34 186.59c3.09-4.17 2.68-8.23-.62-12.16q-1.45-1.73-2.05-4.33c-.59-2.55-2.66-5.04-4.14-6.8a1.35 1.31 17.6 0 1-.28-.52l-2.77-10.17a4.53 4.21 38.1 0 1-.16-1.01c-.33-6.53.73-12.86 1.33-18.85 1.57-15.92-5.25-30.8-18.62-39.36-22.36-14.32-51.31-4.87-61.72 18.89-10.51 23.98 1.9 48.96 25.9 57.77 6.48 2.37 11.26 3.66 14.69 7.82q2.43 2.94 5.24 5.76a2.75 2.73-71.3 0 1 .78 1.59q.62 4.77 4.89 7.63a2.4 2.38-82.5 0 1 .96 1.26c1.68 5.16 4.81 8.12 10.76 7.77q.89-.06 2.25.89 7.19 4.98 15.27.85 8.31-4.26 7.44-14.36-.12-1.38.85-2.67m-99.788-69.28a3.09 3.09 0 0 0-2.145-3.807l-17.164-4.792a3.09 3.09 0 0 0-3.807 2.145l-.048.174a3.09 3.09 0 0 0 2.145 3.807l17.164 4.792a3.09 3.09 0 0 0 3.807-2.145zm3.69 35.282a3.14 3.14 0 0 0-4.247-1.298l-15.363 8.168a3.14 3.14 0 0 0-1.298 4.247l.084.159a3.14 3.14 0 0 0 4.247 1.298l15.363-8.168a3.14 3.14 0 0 0 1.298-4.247zM393.05 541.84q-1.93 12.2-6.45 21.32-3.85 7.77-11.77 20.63a.7.7 0 0 0 .66 1.06l7.8-.79a.49.49 0 0 1 .49.71q-6.85 13.94-17.12 31.91-7.52 13.18-30.8 52.68c-11.36 19.27-20.53 40.13-25.31 62.17q-2.85 13.17-3.96 26.83a.35.35 0 0 1-.56.25q-8.84-6.84-14.26-16.6c-13.28-23.89-13.63-51.18-8.21-77.81a.42.42 0 0 0-.64-.44q-6.05 4.01-10.19 7.04c-22.98 16.82-37.62 46.71-37.32 75.25a.3.3 0 0 1-.56.15l-6.54-11.32a.32.32 0 0 0-.58.05c-1.02 2.82-1.92 6.46-2.29 9.56q-4.11 35.24 18.42 63.21a.25.25 0 0 1-.27.39l-6.72-2.18a.33.32-2.9 0 0-.4.44q6.76 14.97 19.13 26.06c21.24 19.04 49 27.61 77.65 28.11q2.26.04 10.03-.08a2.32 2.31-20.2 0 1 1.83.84c5.89 7.13 13.08 9.9 22.22 12.65q11.55 3.49 26.67 4.82 19.69 1.73 36.77-1.98c6.63-1.44 13.59-4.23 16.29-10.99a1.09 1.09 0 0 1 2.02-.01c3.92 9.64 9.37 16.23 19.22 19.93q7.3 2.74 16 3.73c20.16 2.3 42.12 1.96 60.52-4.37 10.48-3.61 14.58-10.76 13.82-21.76a.31.3-.8 0 1 .32-.32q32.96 1.69 48.79 2.3c17.55.67 33.76.79 49.64-2.92 7.81-1.82 13.98-5.21 15.2-13.83q1.1-7.73-2.48-15.23-8.61-18.07-28.79-22.02a.19.18-59.6 0 1-.08-.32c29.14-24.94 51.93-68.01 31.88-105.76-3.86-7.28-12.55-17.27-21.69-21.07q-1.03-.43-2.23-1.18a.79.79 0 0 1-.34-.87c2.1-7.66 4.15-15.46 5-23.12a.77.76 85.5 0 1 .55-.65q6.98-2.04 7.29-2.14 21.95-6.73 36.89-24.23a.58.58 0 0 1 1.02.38v8.74a.31.31 0 0 0 .49.25c8.08-6.08 13.89-15.23 15.15-25.27a.54.54 0 0 1 1-.2l3.12 5.41a.53.53 0 0 0 .95-.07q5.01-12.99 5.96-28.2c2.29-36.47-4.94-77.21-22.69-110.19-2.72-5.05-5.11-10.96-6.62-14.43a.42.42 0 0 1 .4-.58q5.61.15 10.81-1.81a.88.87-32.9 0 0 .31-1.44q-16.96-16.95-26.46-39.48c-1.95-4.62-3.66-8.38-4.82-12.11q-3.16-10.13-4.7-14.61a.26.26 0 0 1 .35-.32c19.2 8.79 40.73 10.01 58.59-2.43a.54.54 0 0 0 .08-.81q-14.79-15.37-17.9-36.65-1.22-8.34-2.29-17.83a.5.5 0 0 1 .85-.41l9.12 9.11a.48.48 0 0 0 .82-.27q2.23-15.09 3.36-28.97c.93-11.34.62-22.52-1.98-33.6-5.98-25.53-29.64-36.77-52.11-44.38-29.82-10.11-47.28-18.6-77.8-32.48a.48.48 0 0 1 .06-.9q9.16-2.7 19.11-3.95a.44.43 59.8 0 0 .2-.78c-11.96-8.98-27.04-11.25-41.38-8.11a.38.38 0 0 1-.46-.44q.06-.36.44-.79 4-4.6 6.78-7.11a.44.44 0 0 0-.28-.76q-9.09-.22-16.83.73c-15.55 1.93-31.73 11.95-44.06 22.98a1.57 1.56-58.7 0 1-1.42.35c-30.78-7.62-64.75-6-93.96 6.86q-23.71 10.44-40.75 25.68-25.83 23.12-39.82 58.66a1.2 1.2 0 0 1-.71.68q-1.68.6-5.86 1.79c-21.06 5.99-46.65 21.14-50.8 44.91a.46.46 0 0 0 .63.5l10.63-4.4a.26.26 0 0 1 .32.37c-6.32 10.25-6.91 23.86-7.66 37.11-.7 12.21-2.9 23.53-6.45 34.9q-7.92 25.36-9.63 31.37-3.12 10.98-3.8 19.51-1.83 22.81 13.19 39.53 5.87 6.53 12.32 11.37 16.5 12.38 34.39 22.41a.44.44 0 0 0 .65-.43l-1.27-12.61a.31.31 0 0 1 .51-.27q12.24 10.28 20.88 23.21c5.46 8.17 6.59 15.76 8.14 24.99a.35.35 0 0 0 .46.27q21.78-7.63 32.36-28.61.4-.79 3.24-6.56a.15.15 0 0 1 .28.09"/><rect width="6.44" height="24.12" x="-3.22" y="-12.06" fill="#080403" rx="3.11" transform="rotate(9.5 -212.059 2265.518)"/><rect width="6.56" height="24.94" x="-3.28" y="-12.47" fill="#080403" rx="3.2" transform="rotate(-33 290.886 -511.92)"/><rect width="24.14" height="6.38" x="-12.07" y="-3.19" fill="#080403" rx="3.09" transform="rotate(-39.3 329.813 -529.349)"/><path fill="#080403" d="M410.34 186.59q-.97 1.29-.85 2.67.87 10.1-7.44 14.36-8.08 4.13-15.27-.85-1.36-.95-2.25-.89c-5.95.35-9.08-2.61-10.76-7.77a2.4 2.38-82.5 0 0-.96-1.26q-4.27-2.86-4.89-7.63a2.75 2.73-71.3 0 0-.78-1.59q-2.81-2.82-5.24-5.76c-3.43-4.16-8.21-5.45-14.69-7.82-24-8.81-36.41-33.79-25.9-57.77 10.41-23.76 39.36-33.21 61.72-18.89 13.37 8.56 20.19 23.44 18.62 39.36-.6 5.99-1.66 12.32-1.33 18.85a4.53 4.21 38.1 0 0 .16 1.01l2.77 10.17a1.35 1.31 17.6 0 0 .28.52c1.48 1.76 3.55 4.25 4.14 6.8q.6 2.6 2.05 4.33c3.3 3.93 3.71 7.99.62 12.16m-37.29-10.25q2.11-.68 4.02-2.23a.58.56-35.6 0 0 .13-.74q-7.77-12.57-16.79-23.62a.75.75 0 0 0-.9-.2c-3.31 1.54-8.31 2.26-10.88-.67q-2.05-2.31-1.43-5.14c.9-4.13 6.22-3.92 9.19-2.36q1.71.9 3.81 2.56a.58.58 0 0 0 .78-.05q3-3.09 2.02-5.74a1.86 1.86 0 0 1 2.86-2.13l2 1.5a1.57 1.53 60.1 0 0 1.09.31l2.76-.28a.83.83 0 0 0 .73-1.02q-1.8-7.72 2.47-10.77a2.83 2.77-70.4 0 1 .8-.39q3.33-1.01 4.93 1.53c2.72 4.3-.02 9.47-3.78 12.28a.58.57-27.9 0 0-.2.64q4.53 12.74 12.38 26.29a.82.81 59.2 0 0 1.12.29l2.41-1.46 3.52-2.56a1.06 1.05-29.3 0 0 .36-1.25c-2.66-6.59-3.17-11.89-2.04-19.22q.48-3.12.97-8.44c2.06-22.36-13.8-41.66-36.89-40.42-19.39 1.05-35.1 17.55-34.49 37.25.48 15.27 10.4 27.93 24.51 33.28q9 3.41 12.68 5.51c3.47 1.98 6.47 5.63 8.88 8.53a.67.67 0 0 0 .89.13zm2.87-40.95q.23.05.91-.81 1.53-1.95 1.68-4.32.1-1.64-1.11-1.89-1.21-.26-1.78 1.28-.83 2.23-.21 4.63.27 1.06.51 1.11m-9.17 5.72q-.4 2.15-3.61 5.64a.69.67-44.4 0 0-.02.9c6.36 7.32 11.23 15.2 17.13 24.07a.73.73 0 0 0 .97.23l4.88-2.82a.73.73 0 0 0 .27-1q-7.81-13.34-13.06-26.79a.76.75-16.5 0 0-.87-.47q-2.93.63-5.08-.12a.46.46 0 0 0-.61.36m-16.27 3.8c-.47 1.81 1.49 2.55 2.91 2.52q3.34-.07 3.55-.87.2-.8-2.69-2.47c-1.24-.71-3.3-1-3.77.82m45.44 24.37-21.39 13.31a1.78 1.78 0 0 0-.6 2.4l1.3 2.24a1.81 1.81 0 0 0 2.51.65L400 174.46l1.92-2.09a.82.81 51.2 0 0 .1-.96l-2.1-3.63a.66.65 60.1 0 0-.89-.25zm2.26 11.2-17.22 10.68a2.38 2.37-39 0 0-.4 3.73l.05.05a4.2 4.12 51.9 0 0 4.93.64l15.52-8.81 4.45-3.25a2.76 2.75-29.4 0 0 .92-3.28l-.84-2.04a1.75 1.75 0 0 0-2.55-.81zm-.01 15.3q-3.01 1.78-6.35 3.01a.4.4 0 0 0-.08.72c2.45 1.55 5.52.34 7.98-1.11 2.45-1.45 4.99-3.56 4.81-6.46a.4.4 0 0 0-.67-.27q-2.68 2.33-5.69 4.11"/><path fill="#fdfdfd" d="M392.57 164.94q-1.67-6.88-2.15-13.93-.33-4.93.34-12.01c.98-10.38.99-20.07-5.47-28.55q-5.63-7.41-14.31-10.95-13.73-5.61-26.31 2.36-3.69 2.34-7.76 6.56-10.24 10.62-8.09 25.8c1.43 10.12 9.88 19.55 18.15 24.47 5.15 3.06 13.86 5.64 19.11 9.93q4.03 3.29 6.97 7.72l-2.09 1.41a.67.67 0 0 1-.89-.13c-2.41-2.9-5.41-6.55-8.88-8.53q-3.68-2.1-12.68-5.51c-14.11-5.35-24.03-18.01-24.51-33.28-.61-19.7 15.1-36.2 34.49-37.25 23.09-1.24 38.95 18.06 36.89 40.42q-.49 5.32-.97 8.44c-1.13 7.33-.62 12.63 2.04 19.22a1.06 1.05-29.3 0 1-.36 1.25z"/><path fill="#f9c839" d="m392.57 164.94-2.41 1.46a.82.81 59.2 0 1-1.12-.29q-7.85-13.55-12.38-26.29a.58.57-27.9 0 1 .2-.64c3.76-2.81 6.5-7.98 3.78-12.28q-1.6-2.54-4.93-1.53a2.83 2.77-70.4 0 0-.8.39q-4.27 3.05-2.47 10.77a.83.83 0 0 1-.73 1.02l-2.76.28a1.57 1.53 60.1 0 1-1.09-.31l-2-1.5a1.86 1.86 0 0 0-2.86 2.13q.98 2.65-2.02 5.74a.58.58 0 0 1-.78.05q-2.1-1.66-3.81-2.56c-2.97-1.56-8.29-1.77-9.19 2.36q-.62 2.83 1.43 5.14c2.57 2.93 7.57 2.21 10.88.67a.75.75 0 0 1 .9.2q9.02 11.05 16.79 23.62a.58.56-35.6 0 1-.13.74q-1.91 1.55-4.02 2.23-2.94-4.43-6.97-7.72c-5.25-4.29-13.96-6.87-19.11-9.93-8.27-4.92-16.72-14.35-18.15-24.47q-2.15-15.18 8.09-25.8 4.07-4.22 7.76-6.56 12.58-7.97 26.31-2.36 8.68 3.54 14.31 10.95c6.46 8.48 6.45 18.17 5.47 28.55q-.67 7.08-.34 12.01.48 7.05 2.15 13.93"/><rect width="24" height="6.36" x="-12" y="-3.18" fill="#080403" rx="3.09" transform="rotate(15.6 -267.246 1148.352)"/><path fill="#f9c839" d="M377.4 128.37q1.21.25 1.11 1.89-.15 2.37-1.68 4.32-.68.86-.91.81-.24-.05-.51-1.11-.62-2.4.21-4.63.57-1.54 1.78-1.28M367.36 140.75q2.15.75 5.08.12a.76.75-16.5 0 1 .87.47q5.25 13.45 13.06 26.79a.73.73 0 0 1-.27 1l-4.88 2.82a.73.73 0 0 1-.97-.23c-5.9-8.87-10.77-16.75-17.13-24.07a.69.67-44.4 0 1 .02-.9q3.21-3.49 3.61-5.64a.46.46 0 0 1 .61-.36M356.94 146.56q-.21.8-3.55.87c-1.42.03-3.38-.71-2.91-2.52.47-1.82 2.53-1.53 3.77-.82q2.89 1.67 2.69 2.47"/><rect width="23.68" height="6.46" x="-11.84" y="-3.23" fill="#080403" rx="3.14" transform="rotate(-28 469.228 -530.183)"/><path fill="#fdfdfd" d="M400 174.46q-3.33-1.27-4.08-5.18l3.11-1.75a.66.65 60.1 0 1 .89.25l2.1 3.63a.82.81 51.2 0 1-.1.96z"/><path fill="#929297" d="M395.92 169.28q.75 3.91 4.08 5.18l-22.26 13.42a1.81 1.81 0 0 1-2.51-.65l-1.3-2.24a1.78 1.78 0 0 1 .6-2.4z"/><path fill="#f8da8e" d="M401.06 186.77q-3.01-2.45-2.88-6.29l4.86-3.09a1.75 1.75 0 0 1 2.55.81l.84 2.04a2.76 2.75-29.4 0 1-.92 3.28z"/><path fill="#929297" d="M398.18 180.48q-.13 3.84 2.88 6.29l-15.52 8.81a4.2 4.12 51.9 0 1-4.93-.64l-.05-.05a2.38 2.37-39 0 1 .4-3.73z"/><path fill="#080403" d="M392.77 541.75q-2.84 5.77-3.24 6.56-10.58 20.98-32.36 28.61a.35.35 0 0 1-.46-.27c-1.55-9.23-2.68-16.82-8.14-24.99q-8.64-12.93-20.88-23.21a.31.31 0 0 0-.51.27l1.27 12.61a.44.44 0 0 1-.65.43q-17.89-10.03-34.39-22.41-6.45-4.84-12.32-11.37-15.02-16.72-13.19-39.53.68-8.53 3.8-19.51 1.71-6.01 9.63-31.37c3.55-11.37 5.75-22.69 6.45-34.9.75-13.25 1.34-26.86 7.66-37.11a.26.26 0 0 0-.32-.37l-10.63 4.4a.46.46 0 0 1-.63-.5c4.15-23.77 29.74-38.92 50.8-44.91q4.18-1.19 5.86-1.79a1.2 1.2 0 0 0 .71-.68q13.99-35.54 39.82-58.66 17.04-15.24 40.75-25.68c29.21-12.86 63.18-14.48 93.96-6.86a1.57 1.56-58.7 0 0 1.42-.35c12.33-11.03 28.51-21.05 44.06-22.98q7.74-.95 16.83-.73a.44.44 0 0 1 .28.76q-2.78 2.51-6.78 7.11-.38.43-.44.79a.38.38 0 0 0 .46.44c14.34-3.14 29.42-.87 41.38 8.11a.44.43 59.8 0 1-.2.78q-9.95 1.25-19.11 3.95a.48.48 0 0 0-.06.9c30.52 13.88 47.98 22.37 77.8 32.48 22.47 7.61 46.13 18.85 52.11 44.38 2.6 11.08 2.91 22.26 1.98 33.6q-1.13 13.88-3.36 28.97a.48.48 0 0 1-.82.27l-9.12-9.11a.5.5 0 0 0-.85.41q1.07 9.49 2.29 17.83 3.11 21.28 17.9 36.65a.54.54 0 0 1-.08.81c-17.86 12.44-39.39 11.22-58.59 2.43a.26.26 0 0 0-.35.32q1.54 4.48 4.7 14.61c1.16 3.73 2.87 7.49 4.82 12.11q9.5 22.53 26.46 39.48a.88.87-32.9 0 1-.31 1.44q-5.2 1.96-10.81 1.81a.42.42 0 0 0-.4.58c1.51 3.47 3.9 9.38 6.62 14.43 17.75 32.98 24.98 73.72 22.69 110.19q-.95 15.21-5.96 28.2a.53.53 0 0 1-.95.07l-3.12-5.41a.54.54 0 0 0-1 .2c-1.26 10.04-7.07 19.19-15.15 25.27a.31.31 0 0 1-.49-.25v-8.74a.58.58 0 0 0-1.02-.38q-14.94 17.5-36.89 24.23-.31.1-7.29 2.14a.77.76 85.5 0 0-.55.65c-.85 7.66-2.9 15.46-5 23.12a.79.79 0 0 0 .34.87q1.2.75 2.23 1.18c9.14 3.8 17.83 13.79 21.69 21.07 20.05 37.75-2.74 80.82-31.88 105.76a.19.18-59.6 0 0 .08.32q20.18 3.95 28.79 22.02 3.58 7.5 2.48 15.23c-1.22 8.62-7.39 12.01-15.2 13.83-15.88 3.71-32.09 3.59-49.64 2.92q-15.83-.61-48.79-2.3a.31.3-.8 0 0-.32.32c.76 11-3.34 18.15-13.82 21.76-18.4 6.33-40.36 6.67-60.52 4.37q-8.7-.99-16-3.73c-9.85-3.7-15.3-10.29-19.22-19.93a1.09 1.09 0 0 0-2.02.01c-2.7 6.76-9.66 9.55-16.29 10.99q-17.08 3.71-36.77 1.98-15.12-1.33-26.67-4.82c-9.14-2.75-16.33-5.52-22.22-12.65a2.32 2.31-20.2 0 0-1.83-.84q-7.77.12-10.03.08c-28.65-.5-56.41-9.07-77.65-28.11q-12.37-11.09-19.13-26.06a.33.32-2.9 0 1 .4-.44l6.72 2.18a.25.25 0 0 0 .27-.39q-22.53-27.97-18.42-63.21c.37-3.1 1.27-6.74 2.29-9.56a.32.32 0 0 1 .58-.05l6.54 11.32a.3.3 0 0 0 .56-.15c-.3-28.54 14.34-58.43 37.32-75.25q4.14-3.03 10.19-7.04a.42.42 0 0 1 .64.44c-5.42 26.63-5.07 53.92 8.21 77.81q5.42 9.76 14.26 16.6a.35.35 0 0 0 .56-.25q1.11-13.66 3.96-26.83c4.78-22.04 13.95-42.9 25.31-62.17q23.28-39.5 30.8-52.68 10.27-17.97 17.12-31.91a.49.49 0 0 0-.49-.71l-7.8.79a.7.7 0 0 1-.66-1.06q7.92-12.86 11.77-20.63 4.52-9.12 6.45-21.32a.15.15 0 0 0-.28-.09m140-323.54q2.43 1.04 2.56 2.03-19.47-3.87-29.82-5.06-16.02-1.85-36.26-.41c-45.26 3.23-85.48 29.5-109.68 67.05-9.02 14-15.32 27.04-21.2 42.24l-.3.47a.23.23 0 0 1-.43-.14l.38-5.54 1.17-7.91a.27.27 0 0 0-.35-.29c-16.31 5.22-32.16 14.02-42.96 27.7a.24.23 15.1 0 0 .22.38c3.79-.6 10.7-1.22 14.83.14a.33.33 0 0 1 .04.61c-13.52 6.48-13.72 24.05-14.32 36.73-.77 16.41-3.96 34.42-7.81 47.62q-2.08 7.15-8.02 25.95-4.23 13.4-3.6 26.72c.88 18.8 16.17 32.6 30.29 42.88l12.65 9a.28.27 12.6 0 0 .44-.27q-1.77-9.25-6.18-17.71a.23.23 0 0 1 .33-.29q12.27 8.74 18.03 13.21c13.7 10.65 26.57 22.91 30.45 40.66a.37.36-23.6 0 0 .57.22c8.75-6.27 14.91-13.93 19.33-24.09q10.08-23.17 2.24-49c-6.14-20.26-21.69-43.39-29.61-58.35-7.35-13.87-13.16-29.72-15.37-45.75q-2.53-18.3.15-36.85l1.32-5.82a.39.38 51.7 0 1 .76.09l-.04 11.66q1.62 23.18 9.06 45.36c5.9 17.56 15.83 34.38 25.76 50.35q7.78 12.51 14.18 28.49c4.65 11.62 6.64 22.45 6.33 33.98a1.15 1.14-72.5 0 0 .51.99c13.02 8.62 26.48 15.37 41.7 20.1q10.4 3.23 18.81 5.57a.27.27 0 0 1-.05.52q-24.92 2.17-48.22-8.46-2.5-1.14-5.42-2.69l-3.35-2.21a.47.46-77.8 0 0-.71.46c2.45 16.97-3.48 32.14-12.56 47.46a.43.43 0 0 0 .53.62l7.38-3.06a.62.61-2.1 0 1 .82.76c-4.56 13.96-11.19 25.49-20.4 42.13q-9.35 16.89-25.91 44.58-10 16.72-16.46 29.53c-12.49 24.76-19.9 52.46-19.01 80.68q.56 17.81 4.13 29.83.19.92.28 1.31 7.75 30.63 30.95 52.19 7.54 7.01 17.47 9.91c5.59 1.64 11.1 2.8 16.85 3.94a.6.58 14.4 0 0 .68-.39q.85-2.47.85-5.01.65-8.8-1.9-16.89a.46.46 0 0 1 .75-.47q7.93 7.49 8.05 18.27l-.15 4.47a1.52 1.52 0 0 0 1.52 1.57h20.14a2.18 2.16-79.3 0 0 2.02-1.39q.86-2.25.65-5.33.89-12.76-4.91-23.41a.42.42 0 0 1 .64-.52q11.59 9.81 12.13 24.58l-.15 3.89a.73.72 85.8 0 0 .85.74q3.97-.73 7.9-2.13 5.04-1.78 4.59-6.93c-.72-12.15-10.77-22.59-21.19-27-15.51-6.57-32.62-1.06-44.92 9.34q.08-2.27 1.63-4.62 4.78-7.25 13.2-11.58c9.89-5.09 19.08-4.72 29.68-2.08a.62.62 0 0 0 .74-.39q4.53-12.71 4.79-25.64.09-4.86-.8-6.81l-9.47-20.79q-6.69-14.7-8.46-29.87a.31.31 0 0 0-.59-.08l-3.68 8.95a.39.39 0 0 1-.7.04l-3.35-6.14-3.19-9.3q-1.5-7.56-.85-15.28a.9.9 0 0 0-.34-.78q-8.49-6.72-14.54-9.25-7.16-2.98-11.11-3.26-4.47-.31-9.48-1.07 14.21-5.41 28.06-.26l7.86 4.36a.28.28 0 0 0 .41-.21q1.07-6.67.52-13.49-.79-9.84-4.22-19.9l-.24-1.03a.59.59 0 0 1 1.01-.53l6.07 6.85q6.39 10.78 5.26 23.59c-.88 9.89-2.48 19.59-.91 29.31a.34.33 58.8 0 0 .6.15l7.71-10.26a.42.42 0 0 1 .75.25q.12 13.57 4.35 26.04 3.18 9.38 4.69 12.55 9.09 19.09 16.92 37.74c2.81 6.69 4.6 13.24 7.52 20.58q2.59 6.53 5.15 15.58.12.43 6.42 19.34c2.9 8.72 6.85 18.29 16.35 21.94q11.7 4.5 25.15 4.94a.62.61 5.9 0 0 .63-.51l1.04-5.69q1.32-11.5-2.72-21.49a.26.25-86.1 0 1 .36-.32q1.76 1.06 3.07 2.78 6.02 7.93 6.78 17.84l-.23 7.1a.49.48.5 0 0 .5.5q13.45-.29 24.95-1.99a1.69 1.69 0 0 0 1.43-1.39l.74-4.22c.44-10.23-2.55-19.51-7.86-28.12a.22.22 0 0 1 .31-.29q13.34 8.98 14.98 25.22l.13 5.58a.43.42-9.7 0 0 .56.39q2.85-.96 5.55-2.66 4.12-2.59 3.74-7.39.68-7.71-2.99-13.91c-12.52-21.16-40.51-21.07-59.48-10.4q-1.07.6-1.96.72a.32.32 0 0 1-.29-.52l3.59-4.38q14.54-13.1 34.28-10.04a.49.48-1.2 0 0 .55-.57q-2.94-15.54-4.07-31.42-2.89-40.48 3.5-80.52l1.37-5.3a.92.91-65.6 0 0-.36-.97q-5.74-4.06-12.68-7.58-9.21-4.66-21.98-11.52-22.05-11.84-36.72-32.25-2.23-3.11-4.5-7.66a.32.32 0 0 0-.61.14l-.53 16.38a.19.19 0 0 1-.29.15c-9.55-6.79-15.8-14.79-22.23-24.78q-7.56-11.77-12.09-27.7-5.16-18.2.03-35.08l.94-1.25a.46.46 0 0 1 .83.24c1.67 24.37 8.46 46.96 22.71 67.22l3.83 5.48a.23.23 0 0 0 .42-.11q.81-11.23 4.48-22.29a.38.37-44.6 0 1 .71 0q1.32 4.2 3.3 8.24 14.71 29.9 43.65 45.68c10.29 5.61 22.65 11.23 33.85 18.57 16.71 10.97 21.62 28.3 19.15 47.43a.22.22 0 0 1-.44.02q-.25-1.05-.95-4.74c-1.63-8.61-6.67-21.72-13.89-28.05a.29.29 0 0 0-.47.17q-1.55 10.38-2.27 20.85-1.68 24.62-.75 47.72c.62 15.59 2.36 28.47 5 44.53a2.1 2.09-83.2 0 0 1.24 1.58q6.41 2.75 11.57 6.67a.61.6-43 0 0 .7.02c7.17-4.74 13.15-10.67 19.44-16.77q4.99-4.84 9.39-10.07 17.26-20.5 28.84-40.94 17.5-30.88 30.3-67.45 1.77-5.04 4.27-14.74c1.01-3.88 3-7.83 3.43-11.62a.29.29 0 0 0-.45-.28q-.34.22-.65.75-4.84 8.08-11.84 14.99a.57.57 0 0 1-.96-.3l-1.43-7.73a.48.48 0 0 0-.94-.05q-5.31 18.3-18.46 32.73-12.38 13.58-25.16 22.8-9.2 6.64-25.98 13.79c-2.18.92-5.14 1.67-8.23 2.61a.34.34 0 0 1-.28-.62q11.09-7.14 18.23-12.79 4.59-3.64 17.83-14.91c15.7-13.37 29.97-30.7 36.21-49.54q3.17-9.59 4.76-17.76a.36.36 0 0 1 .68-.08q3.58 7.94 5.77 16.24a.25.25 0 0 0 .45.06l3.67-6.09q7.95-14.19 11.06-28.24 4.71-21.29 1.01-45.68l-1.26-8.77a.3.3 0 0 1 .56-.2q13.57 22.59 9.23 49.41-1.11 6.89-2.51 12.45a.58.58 0 0 0 .72.7q11-3 21.3-8.4c9.58-5.32 21.23-14.94 26.23-25.45a.44.44 0 0 1 .69-.14q.43.39.67 1.28l1.61 7.95a.45.45 0 0 0 .85.11q5.37-11.02 4.33-23.8a.43.43 0 0 1 .73-.34l6.49 6.5a.34.33-64.2 0 0 .57-.2c4.81-42.72-2.58-88.16-23.95-125.95-6.1-10.78-24.98-40.03-39.79-21.95l-2.26 3a.36.36 0 0 1-.64-.27l.85-5.36 2.81-5.8a.43.42 23.8 0 0-.23-.58c-12.96-5.31-29.61-2.32-33.81 12.87l-1.76 5.83a.69.69 0 0 1-1.35-.13l-.79-7.93a.41.41 0 0 0-.68-.26q-8.43 7.56-8.69 17.79-4.94 5.61-5.57 9.24-2.25 13.08 5.34 23.33c2.8 3.76 6.82 6.5 11.08 8.92q7.86 4.47 15.82 7.24c7.16 2.49 12.18 5.98 16.86 11.42a.62.62 0 0 1-.71.97l-6.23-2.56a.65.64 7.1 0 0-.89.69q1.03 6.98.7 14.27c-.36 7.79-2.03 16.81-2.06 25.04a.34.34 0 0 1-.67.1q-3.16-11.06-4.01-22.59a.28.27 60.3 0 0-.5-.14q-5.81 8.25-6.61 19.52-3.2-8.84-1.49-17.39 1.42-7.14 6.78-13.12a1.25 1.22 64.2 0 0 .31-.92q-.26-3.36-1.43-5.85a1.8 1.8 0 0 0-.71-.8q-.55-.35-12.37-5.11-4.78-1.93-11-5.95-8.67-6.05-13.01-14.1-3.39-6.29-3.86-13.42a.58.58 0 0 0-1.03-.33q-9.95 11.97-23.64 19.39-19.22 10.42-41.05 8.19-8.16-.84-15.54-4.03l-7.18-3.7a.42.42 0 0 1 .26-.79c9.03 1.51 18.85 2.68 28.04 1.56q11.17-.59 23.15-5.54 16.7-6.89 27.54-18.42c4.73-5.02 10.3-13.01 13.4-18.38 3.31-5.74 5.98-13.81 9.63-19.56q6.24-9.86 15.69-16.79a.25.25 0 0 1 .34.37c-2.88 3.22-5.4 6.32-6.24 9.95a.42.42 0 0 0 .69.42c4.18-3.62 8.22-6.55 13.65-8.35 6.36-2.11 13.03-1.88 20.21-.88a.66.66 0 0 0 .7-.41q8.59-22.25 10.14-47.03a1.92 1.92 0 0 0-.75-1.64q-17.89-13.54-28.71-33.27-5.6-10.22-8.31-16.95-5.54-13.76-14.23-34.5-4.02-9.62-13.54-24.49-11.13-17.39-24.89-30.17l-16.32-15.07q22.43 10.82 38.79 28.74 9.44 10.34 17.48 24.47 7.14 12.56 13.01 27.21c7.13 17.79 11.96 30.65 21.21 44.55 15.65 23.52 44.2 40.27 72.83 31.64a.56.56 0 0 0 .28-.88c-9.31-12.35-13.3-27.54-13.63-43.03q-.25-12.14.24-30.01.01-.28.25-.37a.75.72-22.2 0 1 .98.39q3.03 7.66 8.58 13.98.69 1.06 1.51 1.65a.29.28 20.3 0 0 .45-.2q1.57-19.58.59-32.45-.94-12.48-5.09-21.61c-6.64-14.61-22.16-22.62-36.52-27.83q-19.12-6.93-28.25-10.49c-18.97-7.41-41.25-19.65-62.7-31.54a1.41 1.39-39.6 0 0-1.13-.1l-7.7 2.74-3.77 1.55a.17.17 0 0 1-.21-.26q4.05-5.47 10.04-8.81l8.3-3.22a.6.59-47.7 0 0-.05-1.13q-2.39-.66-5.45-.59c-9.1.21-17.44.6-24.73 4.34a.24.24 0 0 1-.34-.27q1.44-5.56 4.35-10.38a.33.33 0 0 0-.36-.49c-14.45 3.54-26.86 10.26-38.62 19.08a.41.41 0 0 0 .05.69zM666.34 416.8q-3.9 12.75-11.45 23.73a.58.58 0 0 0 .26.86l5.25 2.16a2.53 2.37 58.1 0 0 .68.18q3.9.47 6.85 1.13c5.24 1.19 10.23 5.39 14.59 8.99 2.16 2.16 5.02 5.09 7.66 6.12q2.25.87 4.5 1.4a.21.21 0 0 0 .2-.34q-15.62-16.75-23.11-38.57-1.51-4.38-3.29-10.46a.37.37 0 0 0-.72 0zM234.55 766.74q1.34 9.95 5.72 17.96c2.91 8.6 8.59 15.69 14.55 22.74q5.63 6.65 13.29 10.83a.74.74 0 0 1-.45 1.38l-13.7-1.78a.31.3 72.4 0 0-.26.51c5.07 5.57 12.21 12.45 18.99 16.42q19.3 11.3 38.82 14.96 7.96 1.49 22.83 2.12a.3.3 0 0 0 .26-.46q-1.4-2.03-3.66-5.07-11.17-15.02-17.38-32.57-6.06-18.94-6.99-38.73l-.17-6.13a.96.94-76.1 0 0-.46-.78c-15.3-8.78-25.97-25.37-30.3-42.04q-5.61-21.61-3.11-43.65a.31.3 71.6 0 0-.51-.26q-10.09 9.46-17.17 22.25-16.87 30.47-8.55 65.25a.33.33 0 0 1-.53.33c-4.33-3.63-8.21-7.94-11.93-12.55a.3.3 0 0 0-.53.23zm409.96-68.83-2.84 8.71q-9.95 29.77-25.31 58.74-16.81 31.69-39.84 56.78c-7.65 8.34-15.58 15.21-24.45 21.79a.46.45 58.2 0 0-.13.58l4.99 9.54a.24.23 78.4 0 0 .19.13c12.58.4 25.77 1.62 38.54 1.93q14.78.35 26.85.45a.48.48 0 0 0 .47-.4q.64-3.61.04-7.16-.95-7.63-5.36-14.17a.57.56 87.7 0 1 .74-.81q8.59 4.95 11.72 14.45l.95 7.42a1.03 1.03 0 0 0 1.12.9l15.92-1.61a1.28 1.27-1.8 0 0 1.15-1.22l.15-4.07c-.34-7.64-3.71-14.93-8.53-20.86a.3.29-21.5 0 1 .21-.48q.43-.02.75.11c9.79 4.01 15.1 13.68 15.33 23.96a.46.46 0 0 0 .57.43c2.95-.73 5.35-2.16 6.19-5.44q.38-12.23-8.37-19.93c-12.76-11.22-31.96-12.09-47.63-7.58l-5.97 1.94q-.45.15-.72.1a.29.29 0 0 1-.14-.5q4.68-4.27 10.38-7.06 7.77-3.46 16.52-4.13l2.55-.24a1.26 1.25-69.3 0 0 .76-.35c14.82-13.96 28.43-30.58 35.72-49.55 4.78-12.42 6.52-27.11 2.73-39.73-3.43-11.41-11.56-23.99-22.7-28.98a.48.48 0 0 0-.66.3zM439.04 836.82q-3.89-13.69-8.47-24.78a.32.32 0 0 0-.62.07q-1.13 6.44-4.65 13.59a.94.93-63.2 0 0 .4 1.24q6.79 3.61 12.82 10.17a.31.31 0 0 0 .52-.29"/><path fill="#929297" d="M399.72 198.4c-2.46 1.45-5.53 2.66-7.98 1.11a.4.4 0 0 1 .08-.72q3.34-1.23 6.35-3.01t5.69-4.11a.4.4 0 0 1 .67.27c.18 2.9-2.36 5.01-4.81 6.46"/><path fill="#f8da8e" d="M581.72 205.9q-8.56.75-17.1 1.71-5.31.6-8.63 1.78a.67.67 0 0 1-.89-.63q-.03-3.46 1.27-6.29.29-.63-.25-1.02-.22-.15-.43-.02-.23.14-.29.17-13.39 5.19-22.63 16.61l-7.9-4.28a.41.41 0 0 1-.05-.69c11.76-8.82 24.17-15.54 38.62-19.08a.33.33 0 0 1 .36.49q-2.91 4.82-4.35 10.38a.24.24 0 0 0 .34.27c7.29-3.74 15.63-4.13 24.73-4.34q3.06-.07 5.45.59a.6.59-47.7 0 1 .05 1.13z"/><path fill="#edae4d" d="M581.72 205.9q-5.99 3.34-10.04 8.81a.17.17 0 0 0 .21.26l3.77-1.55c2.35.93 4.45-.36 6.35.95 7.78 5.35 11.44 8.27 18.37 11.98q5.06 2.71 11.14 6.95a8.41 8.21-19.1 0 0 2.51 1.18q.91.25 2.16 1.34a9.83 9.75 78.1 0 0 2.34 1.54q14.35 6.76 24.74 12.05c9.11 4.64 17.26 6.57 26.93 9.44 19.26 5.74 35.4 17.3 40.27 37.47q.67 2.76 1.58 6 1.9 6.72 1.09 13.58-.81-1.8-1.86-3.65-1.13-2-1.79-3.65c-2.89-7.24-8.18-14.71-14.9-18.96a.44.44 0 0 0-.66.51q2.52 7.49 2.62 15.34.09 6.92-1.85 23.47c-.41 3.52-.41 6.51-.79 8.94a.46.46 0 0 1-.86.15c-4.99-9.1-14-19.94-23.95-23.67a.48.48 0 0 0-.56.74c4.87 6.62 8.73 13.63 12.29 22.13 6.12 14.58 8.47 20.94 13.7 30.65 2.66 4.93 6.45 8.97 10.56 14.19a.78.78 0 0 1-.51 1.25c-2.38.3-6.85-1.55-11.46-3.35q-6.22-2.43-9.69-4.06c-13.73-6.43-25.26-16.33-33.35-29.06-3.11-4.9-5.91-8.61-8.72-13.9q-4.21-7.94-8.89-19.43-4.35-10.69-17.59-32.45c-5.06-8.33-10.22-14.46-18.41-22.15q-3.55-3.34-4.95-4.3c-4.17-2.83-7.01-6-11.77-8.56q-12.21-6.55-14.82-7.48c-4.77-1.7-6.97-3-10.45-2.04l16.32 15.07-.19 2.13a1.25 1.25 0 0 0 .24.85q3.53 4.73 8.12 10.03c1.88 2.18 4 5.36 5.06 7.36q12.07 22.57 13.81 26.13 1.93 3.94 5.3 13.18c4.16 11.38 9.35 24.42 11.99 30.81q1.11 2.7 8.48 18.17 2.72 5.71 6.92 12.1 5.63 8.57 7.35 11.81 4.97 9.41 5.78 12.15 2.99 10.11.15 22.44c-.86 3.73-5.29 12.38-9.06 13.15-4.87 1-9.39 3.24-14.17 5.02a4.45 4.43 18.6 0 0-.89.44q-2.84 1.82-7.41 5.07c-2.82 2.01-5 4.53-7.04 7.25q-4.77 6.38-8.88 14.14-5.2 9.79-7.37 12.82c-7.01 9.83-12.5 17.37-21.2 23.12q-6.72 4.44-18.33 10c-4.66 2.24-10.51 3.7-14.97 4.81q-1.9.48-2.16 2.66c-9.19 1.12-19.01-.05-28.04-1.56a.42.42 0 0 0-.26.79l7.18 3.7q.21 2.1-3.41 1.49a3.63 3.43 43.9 0 0-1.21-.01c-18.77 3.03-37.86 5.83-56.79 3.58q-16.77-1.99-30.85-14.03c-3.71-3.17-7.33-8.15-8.88-12.13q-8.02-20.61-11.66-27.57-8.97-17.19-16-28.25c-9.86-15.54-17.37-29.16-24.76-43.71q-2.61-5.14-8.84-23.66c-1.95-5.8-3.07-13.42-4.55-18.66q-.41-1.43-1.68-1.16l.04-11.66a.39.38 51.7 0 0-.76-.09l-1.32 5.82q-2.61 1.35-3.32 5.08c-.97 5.11-2.44 10.7-2.84 15.82q-.7 8.9.48 21.78c1.01 11.02 4.96 23.76 8.54 32.79q3.66 9.22 11.62 24.55 5.63 10.83 7.4 14.79 6.05 13.49 6.59 15.04 6.87 20.03 3.53 40.51-2.24 13.73-8.04 25.86a.94.94 0 0 1-1.78-.31q-1.51-14.4-9.53-27.05c-8.49-13.39-16.32-25.44-20.71-39.97a.33.33 0 0 0-.56-.13q-.29.32-.47 1.24-3.21 16.44 3.41 31.26a.48.48 0 0 1-.71.6q-1.45-.97-2.89-2.28a5.99 5.39 79 0 0-.65-.49q-6.17-4.01-22.6-14.24c-5.38-3.35-10.04-10.44-12.58-14.15a.63.63 0 0 0-1.14.31c-.37 4.72.54 9.91 2.54 14.56q2 4.66 4.24 11.63a3.65 3.55 21 0 0 .31.67l2.68 4.45q-.53-.2-1.01-.58c-.89-.72-1.9-.55-2.82-1.16a1.88 1.82 4.9 0 1-.66-.76q-2.07-4.35-5.63-9.16c-6.1-8.25-8.93-17.66-9.37-27.88q-.21-5.13 1.54-12.21c2.95-11.97 7.31-24.9 10.4-34.94 1.63-5.27 2.64-12.68 3.42-16.8q1.29-6.75 4.51-41.72.18-1.9.57-10.74.46-10.51 8.4-17.14a.78.74 17.5 0 1 .35-.17l1.81-.36a.84.83-89.4 0 0 .64-.63l.35-1.67a.5.49 12 0 0-.39-.59l-8.18-1.75a.55.55 0 0 1-.27-.93q2.22-2.19 5.43-4.14 11.57-7.03 24.87-10.3l-.38 5.54a.23.23 0 0 0 .43.14l.3-.47q.42.76 1.22.6a.81.79 9.6 0 0 .52-.36q10.8-17.41 14.36-23.33 7.59-12.63 13.48-19.77 11.17-13.54 21.53-23.23c9.54-8.92 21.13-15.69 32.61-22.1q5.54-3.08 12.54-5.47c11.21-3.82 21.77-7 32.79-8.41 11.85-1.53 20.1-1.68 31.76-1.35q5.14.14 12.63.09c7.76-.05 16.07.91 23.71 1.75a1.01 1.01 0 0 0 1.04-1.4q-.15-.35-1.23-.84-.13-.99-2.56-2.03 9.24-11.42 22.63-16.61.06-.03.29-.17.21-.13.43.02.54.39.25 1.02-1.3 2.83-1.27 6.29a.67.67 0 0 0 .89.63q3.32-1.18 8.63-1.78 8.54-.96 17.1-1.71m-48.36 142.19q.57-1.37 1.07-4.18c2.08-11.68 10.57-25.21 23.11-28q13.69-3.03 27.06 3.01a.45.45 0 0 0 .64-.43q-.05-1.08-.86-2.54.38-.65 1.36-.85a.62.62 0 0 0 .5-.62q-.1-7.17-.72-12.23-1.32-10.81-7.97-19.48-13.27-17.33-34.25-19.41c-17.48-1.73-34.01 7.52-39.75 24.25-7.62 22.21 7.4 46.38 24.31 59.27q.96.74 3.29 1.82a1.58 1.57 53.9 0 0 .88.14q.97-.12 1.33-.75m-139.75 69.09q.66 1.28 1.85 1.8a.43.43 0 0 0 .6-.33c2.55-19.42 17.63-33.58 37.94-30.73q6.27.88 14.19 4.81 1.13.1 2.82-.5a1.31 1.31 0 0 0 .86-1.42q-1.72-11.62-4.23-19.83c-5.98-19.6-19.68-35.53-41.03-36.86-23.69-1.48-40.09 19.79-40.07 41.87q.01 17.21 12.04 31.18 6.25 7.26 15.03 10.01m144.41-58.14q8.68 2.84 18.14 8.14.44.25.74.11a.31.31 0 0 0 .1-.49c-4.77-5.28-10.64-9.75-17.59-12.02s-14.32-2.13-21.3-.68a.31.31 0 0 0-.2.45q.16.29.65.35 10.78 1.3 19.46 4.14m75.7 33.8c-6.5-11.9-21.19-11.6-27.69.16a.61.61 0 0 0 .65.9l8.01-1.47a.72.71-8.2 0 1 .84.62c2.21 20.08-3.41 42.72-24.43 50.57-10.41 3.89-22.36 3.95-32.95 1.82a1.12 1.11-8.8 0 1-.76-.55l-5.99-10.37a.73.73 0 0 1 .11-.88c11.15-11.35 17.69-26.37 16.82-42.36-1.07-19.62-17.79-23.48-33.95-18.13q-13.18 4.36-25.99 13.23c-7.49 5.2-15.89 12.75-17.91 21.66q-2.47 10.96 6.07 18.85c12.42 11.48 30.89 14.49 47.03 10.88a.57.56 68.4 0 1 .61.27l5.93 10.27a1.53 1.49-50.2 0 1 .1 1.26c-4.79 13.05-13.58 26.42-27 31.81-15.91 6.38-33.08.79-46.05-9.62a.68.67-48 0 1-.05-1l5.22-5.22a.66.65-64.4 0 0-.39-1.12c-13.04-1.32-20.56 11.11-14.3 22.5a.6.6 0 0 0 1.09-.06l3.63-8.81a.78.77-56 0 1 1.26-.25q9.3 9.46 22.39 13.3c27.73 8.13 52.8-10.39 61.71-36.06a.69.68-73.2 0 1 .81-.44c10.12 2.65 22.22 1.5 32.31-1.52q22.74-6.79 30.44-29.77 4.19-12.52 1.88-30.44a.65.65 0 0 1 .73-.73l9.46 1.23a.36.36 0 0 0 .36-.53m-149.05-10.07q-16.93 15.56-11.75 38.46.1.46.44.6a.34.34 0 0 0 .47-.29q1.94-20.67 11.14-38.54a.19.19 0 0 0-.3-.23"/><path fill="#f8da8e" d="M714.5 333.25q1.88-8.73-1.36-17.35.81-6.86-1.09-13.58-.91-3.24-1.58-6c-4.87-20.17-21.01-31.73-40.27-37.47-9.67-2.87-17.82-4.8-26.93-9.44q-10.39-5.29-24.74-12.05a9.83 9.75 78.1 0 1-2.34-1.54q-1.25-1.09-2.16-1.34a8.41 8.21-19.1 0 1-2.51-1.18q-6.08-4.24-11.14-6.95c-6.93-3.71-10.59-6.63-18.37-11.98-1.9-1.31-4-.02-6.35-.95l7.7-2.74a1.41 1.39-39.6 0 1 1.13.1c21.45 11.89 43.73 24.13 62.7 31.54q9.13 3.56 28.25 10.49c14.36 5.21 29.88 13.22 36.52 27.83q4.15 9.13 5.09 21.61.98 12.87-.59 32.45a.29.28 20.3 0 1-.45.2q-.82-.59-1.51-1.65M535.33 220.24q1.08.49 1.23.84a1.01 1.01 0 0 1-1.04 1.4c-7.64-.84-15.95-1.8-23.71-1.75q-7.49.05-12.63-.09c-11.66-.33-19.91-.18-31.76 1.35-11.02 1.41-21.58 4.59-32.79 8.41q-7 2.39-12.54 5.47c-11.48 6.41-23.07 13.18-32.61 22.1q-10.36 9.69-21.53 23.23-5.89 7.14-13.48 19.77-3.56 5.92-14.36 23.33a.81.79 9.6 0 1-.52.36q-.8.16-1.22-.6c5.88-15.2 12.18-28.24 21.2-42.24 24.2-37.55 64.42-63.82 109.68-67.05q20.24-1.44 36.26.41 10.35 1.19 29.82 5.06"/><path fill="#d88936" d="M713.14 315.9q3.24 8.62 1.36 17.35-5.55-6.32-8.58-13.98a.75.72-22.2 0 0-.98-.39q-.24.09-.25.37-.49 17.87-.24 30.01c.33 15.49 4.32 30.68 13.63 43.03a.56.56 0 0 1-.28.88c-28.63 8.63-57.18-8.12-72.83-31.64-9.25-13.9-14.08-26.76-21.21-44.55q-5.87-14.65-13.01-27.21-8.04-14.13-17.48-24.47-16.36-17.92-38.79-28.74c3.48-.96 5.68.34 10.45 2.04q2.61.93 14.82 7.48c4.76 2.56 7.6 5.73 11.77 8.56q1.4.96 4.95 4.3c8.19 7.69 13.35 13.82 18.41 22.15q13.24 21.76 17.59 32.45 4.68 11.49 8.89 19.43c2.81 5.29 5.61 9 8.72 13.9 8.09 12.73 19.62 22.63 33.35 29.06q3.47 1.63 9.69 4.06c4.61 1.8 9.08 3.65 11.46 3.35a.78.78 0 0 0 .51-1.25c-4.11-5.22-7.9-9.26-10.56-14.19-5.23-9.71-7.58-16.07-13.7-30.65-3.56-8.5-7.42-15.51-12.29-22.13a.48.48 0 0 1 .56-.74c9.95 3.73 18.96 14.57 23.95 23.67a.46.46 0 0 0 .86-.15c.38-2.43.38-5.42.79-8.94q1.94-16.55 1.85-23.47-.1-7.85-2.62-15.34a.44.44 0 0 1 .66-.51c6.72 4.25 12.01 11.72 14.9 18.96q.66 1.65 1.79 3.65 1.05 1.85 1.86 3.65"/><path fill="#d88936" d="M532.33 517.27q.26-2.18 2.16-2.66c4.46-1.11 10.31-2.57 14.97-4.81q11.61-5.56 18.33-10c8.7-5.75 14.19-13.29 21.2-23.12q2.17-3.03 7.37-12.82 4.11-7.76 8.88-14.14c2.04-2.72 4.22-5.24 7.04-7.25q4.57-3.25 7.41-5.07a4.45 4.43 18.6 0 1 .89-.44c4.78-1.78 9.3-4.02 14.17-5.02 3.77-.77 8.2-9.42 9.06-13.15q2.84-12.33-.15-22.44-.81-2.74-5.78-12.15-1.72-3.24-7.35-11.81-4.2-6.39-6.92-12.1-7.37-15.47-8.48-18.17c-2.64-6.39-7.83-19.43-11.99-30.81q-3.37-9.24-5.3-13.18-1.74-3.56-13.81-26.13c-1.06-2-3.18-5.18-5.06-7.36q-4.59-5.3-8.12-10.03a1.25 1.25 0 0 1-.24-.85l.19-2.13q13.76 12.78 24.89 30.17 9.52 14.87 13.54 24.49 8.69 20.74 14.23 34.5 2.71 6.73 8.31 16.95 10.82 19.73 28.71 33.27a1.92 1.92 0 0 1 .75 1.64q-1.55 24.78-10.14 47.03a.66.66 0 0 1-.7.41c-7.18-1-13.85-1.23-20.21.88-5.43 1.8-9.47 4.73-13.65 8.35a.42.42 0 0 1-.69-.42c.84-3.63 3.36-6.73 6.24-9.95a.25.25 0 0 0-.34-.37q-9.45 6.93-15.69 16.79c-3.65 5.75-6.32 13.82-9.63 19.56-3.1 5.37-8.67 13.36-13.4 18.38q-10.84 11.53-27.54 18.42-11.98 4.95-23.15 5.54"/><path fill="#d88936" d="M584.38 315.95q-4.27-7-11.17-10.13c-15.9-7.2-34.28-.85-41.83 15.12q-4.05 8.57-2.44 17.76 1.01 5.76 4.42 9.39-.36.63-1.33.75a1.58 1.57 53.9 0 1-.88-.14q-2.33-1.08-3.29-1.82c-16.91-12.89-31.93-37.06-24.31-59.27 5.74-16.73 22.27-25.98 39.75-24.25q20.98 2.08 34.25 19.41 6.65 8.67 7.97 19.48.62 5.06.72 12.23a.62.62 0 0 1-.5.62q-.98.2-1.36.85"/><path fill="#080403" d="M584.38 315.95q.81 1.46.86 2.54a.45.45 0 0 1-.64.43q-13.37-6.04-27.06-3.01c-12.54 2.79-21.03 16.32-23.11 28q-.5 2.81-1.07 4.18-3.41-3.63-4.42-9.39-1.61-9.19 2.44-17.76c7.55-15.97 25.93-22.32 41.83-15.12q6.9 3.13 11.17 10.13"/><path fill="#f8da8e" d="M338.02 318.85q-13.3 3.27-24.87 10.3-3.21 1.95-5.43 4.14a.55.55 0 0 0 .27.93l8.18 1.75a.5.49 12 0 1 .39.59l-.35 1.67a.84.83-89.4 0 1-.64.63l-1.81.36a.78.74 17.5 0 0-.35.17q-7.94 6.63-8.4 17.14-.39 8.84-.57 10.74-3.22 34.97-4.51 41.72c-.78 4.12-1.79 11.53-3.42 16.8-3.09 10.04-7.45 22.97-10.4 34.94q-1.75 7.08-1.54 12.21c.44 10.22 3.27 19.63 9.37 27.88q3.56 4.81 5.63 9.16a1.88 1.82 4.9 0 0 .66.76c.92.61 1.93.44 2.82 1.16q.48.38 1.01.58l4.36 5.68a.53.51-59.6 0 1 .1.41q-.11.61-1.01.81c-14.12-10.28-29.41-24.08-30.29-42.88q-.63-13.32 3.6-26.72 5.94-18.8 8.02-25.95c3.85-13.2 7.04-31.21 7.81-47.62.6-12.68.8-30.25 14.32-36.73a.33.33 0 0 0-.04-.61c-4.13-1.36-11.04-.74-14.83-.14a.24.23 15.1 0 1-.22-.38c10.8-13.68 26.65-22.48 42.96-27.7a.27.27 0 0 1 .35.29z"/><path fill="#d88936" d="M448.19 392.73q-3.19-9.1-12.15-13.79c-24.3-12.71-54.64 11.44-42.43 38.24q-8.78-2.75-15.03-10.01-12.03-13.97-12.04-31.18c-.02-22.08 16.38-43.35 40.07-41.87 21.35 1.33 35.05 17.26 41.03 36.86q2.51 8.21 4.23 19.83a1.31 1.31 0 0 1-.86 1.42q-1.69.6-2.82.5M340.54 350.16q-2.68 18.55-.15 36.85c2.21 16.03 8.02 31.88 15.37 45.75 7.92 14.96 23.47 38.09 29.61 58.35q7.84 25.83-2.24 49c-4.42 10.16-10.58 17.82-19.33 24.09a.37.36-23.6 0 1-.57-.22c-3.88-17.75-16.75-30.01-30.45-40.66q-5.76-4.47-18.03-13.21a.23.23 0 0 0-.33.29q4.41 8.46 6.18 17.71a.28.27 12.6 0 1-.44.27l-12.65-9q.9-.2 1.01-.81a.53.51-59.6 0 0-.1-.41l-4.36-5.68-2.68-4.45a3.65 3.55 21 0 1-.31-.67q-2.24-6.97-4.24-11.63c-2-4.65-2.91-9.84-2.54-14.56a.63.63 0 0 1 1.14-.31c2.54 3.71 7.2 10.8 12.58 14.15q16.43 10.23 22.6 14.24a5.99 5.39 79 0 1 .65.49q1.44 1.31 2.89 2.28a.48.48 0 0 0 .71-.6q-6.62-14.82-3.41-31.26.18-.92.47-1.24a.33.33 0 0 1 .56.13c4.39 14.53 12.22 26.58 20.71 39.97q8.02 12.65 9.53 27.05a.94.94 0 0 0 1.78.31q5.8-12.13 8.04-25.86 3.34-20.48-3.53-40.51-.54-1.55-6.59-15.04-1.77-3.96-7.4-14.79-7.96-15.33-11.62-24.55c-3.58-9.03-7.53-21.77-8.54-32.79q-1.18-12.88-.48-21.78c.4-5.12 1.87-10.71 2.84-15.82q.71-3.73 3.32-5.08"/><path fill="#080403" d="M539.41 354.78c6.95 2.27 12.82 6.74 17.59 12.02a.31.31 0 0 1-.1.49q-.3.14-.74-.11-9.46-5.3-18.14-8.14t-19.46-4.14q-.49-.06-.65-.35a.31.31 0 0 1 .2-.45c6.98-1.45 14.35-1.59 21.3.68"/><path fill="#d88936" d="M511.21 520.2q7.38 3.19 15.54 4.03 21.83 2.23 41.05-8.19 13.69-7.42 23.64-19.39a.58.58 0 0 1 1.03.33q.47 7.13 3.86 13.42 4.34 8.05 13.01 14.1-6.19 6.74-11.22 10.85-20.91 17.07-48.37 16.92c-14.3-.08-27.74-3.31-40.8-7.02q-8.94-2.54-15.02-2.68c-10.61-.24-19.86 2.21-31.68 4.96-4.45 1.04-8.54 1.19-13.26 1.9-8.78 1.31-17.08.4-25.8-1.62a1.43 1.42-67.2 0 0-1.51.62c-2.85 4.5-4.34 7.63-7.37 10.39q-3.77 3.42-5.05 4.22-4.31 2.66-10.32 5.7a.3.3 0 0 1-.42-.35l1.09-3.71q4.14-8.47 5.09-14.61 1.02-6.54.54-19.77 2.92 1.55 5.42 2.69 23.3 10.63 48.22 8.46a.27.27 0 0 0 .05-.52q-8.41-2.34-18.81-5.57c-15.22-4.73-28.68-11.48-41.7-20.1a1.15 1.14-72.5 0 1-.51-.99c.31-11.53-1.68-22.36-6.33-33.98q-6.4-15.98-14.18-28.49c-9.93-15.97-19.86-32.79-25.76-50.35q-7.44-22.18-9.06-45.36 1.27-.27 1.68 1.16c1.48 5.24 2.6 12.86 4.55 18.66q6.23 18.52 8.84 23.66c7.39 14.55 14.9 28.17 24.76 43.71q7.03 11.06 16 28.25 3.64 6.96 11.66 27.57c1.55 3.98 5.17 8.96 8.88 12.13q14.08 12.04 30.85 14.03c18.93 2.25 38.02-.55 56.79-3.58a3.63 3.43 43.9 0 1 1.21.01q3.62.61 3.41-1.49"/><path fill="#080403" d="M613.72 392.84a.36.36 0 0 1-.36.53l-9.46-1.23a.65.65 0 0 0-.73.73q2.31 17.92-1.88 30.44-7.7 22.98-30.44 29.77c-10.09 3.02-22.19 4.17-32.31 1.52a.69.68-73.2 0 0-.81.44c-8.91 25.67-33.98 44.19-61.71 36.06q-13.09-3.84-22.39-13.3a.78.77-56 0 0-1.26.25l-3.63 8.81a.6.6 0 0 1-1.09.06c-6.26-11.39 1.26-23.82 14.3-22.5a.66.65-64.4 0 1 .39 1.12l-5.22 5.22a.68.67-48 0 0 .05 1c12.97 10.41 30.14 16 46.05 9.62 13.42-5.39 22.21-18.76 27-31.81a1.53 1.49-50.2 0 0-.1-1.26l-5.93-10.27a.57.56 68.4 0 0-.61-.27c-16.14 3.61-34.61.6-47.03-10.88q-8.54-7.89-6.07-18.85c2.02-8.91 10.42-16.46 17.91-21.66q12.81-8.87 25.99-13.23c16.16-5.35 32.88-1.49 33.95 18.13.87 15.99-5.67 31.01-16.82 42.36a.73.73 0 0 0-.11.88l5.99 10.37a1.12 1.11-8.8 0 0 .76.55c10.59 2.13 22.54 2.07 32.95-1.82 21.02-7.85 26.64-30.49 24.43-50.57a.72.71-8.2 0 0-.84-.62l-8.01 1.47a.61.61 0 0 1-.65-.9c6.5-11.76 21.19-12.06 27.69-.16m-112.03-4.54c-5.33 3.03-16.85 10.1-18.92 16.79a1.16 1.16 0 0 0 1.13 1.5q2.93-.05 6.13-1.28c5.74-2.2 11.11-5.02 16.68-8.18 5.56-3.16 10.74-6.33 15.56-10.13q2.7-2.12 4.24-4.62a1.16 1.16 0 0 0-.71-1.73c-6.8-1.65-18.77 4.62-24.11 7.65M448.19 392.73q-7.92-3.93-14.19-4.81c-20.31-2.85-35.39 11.31-37.94 30.73a.43.43 0 0 1-.6.33q-1.19-.52-1.85-1.8c-12.21-26.8 18.13-50.95 42.43-38.24q8.96 4.69 12.15 13.79"/><path fill="#fdfdfd" d="M506.71 397.13c-5.57 3.16-10.94 5.98-16.68 8.18q-3.2 1.23-6.13 1.28a1.16 1.16 0 0 1-1.13-1.5c2.07-6.69 13.59-13.76 18.92-16.79 5.34-3.03 17.31-9.3 24.11-7.65a1.16 1.16 0 0 1 .71 1.73q-1.54 2.5-4.24 4.62c-4.82 3.8-10 6.97-15.56 10.13"/><path fill="#080403" d="M464.67 382.77a.19.19 0 0 1 .3.23q-9.2 17.87-11.14 38.54a.34.34 0 0 1-.47.29q-.34-.14-.44-.6-5.18-22.9 11.75-38.46"/><path fill="#f8da8e" d="M682.52 453.85q.19-2.9-1.85-5.08c-2.12-2.26-3.73-4.46-5.12-7.35q-4.03-8.36-7.61-16.89-.64-1.53-1.6-7.73l1.42-4.8a.37.37 0 0 1 .72 0q1.78 6.08 3.29 10.46 7.49 21.82 23.11 38.57a.21.21 0 0 1-.2.34q-2.25-.53-4.5-1.4c-2.64-1.03-5.5-3.96-7.66-6.12"/><path fill="#d88936" d="M666.34 416.8q.96 6.2 1.6 7.73 3.58 8.53 7.61 16.89c1.39 2.89 3 5.09 5.12 7.35q2.04 2.18 1.85 5.08c-4.36-3.6-9.35-7.8-14.59-8.99q-2.95-.66-6.85-1.13a2.53 2.37 58.1 0 1-.68-.18l-5.25-2.16a.58.58 0 0 1-.26-.86q7.55-10.98 11.45-23.73"/><path fill="#f8da8e" d="M651.2 456.4q-3.13-2.71-4.44-2.94-10.55-1.85-18.95 2.59-3.28 1.73-7.84 6.84c4.2-15.19 20.85-18.18 33.81-12.87a.43.42 23.8 0 1 .23.58z"/><path fill="#edae4d" d="m651.2 456.4-.85 5.36a.36.36 0 0 0 .64.27l2.26-3q8.44-2.4 14.65 1.31c8.03 4.79 15.41 12.8 19.3 21.74 2.23 5.12 4.91 10.92 7.73 16.38 4.1 7.94 6.37 18.07 8.55 24.94q2.56 8.04 4.25 15.61c3.26 14.57 5.25 27.61 5.63 41.17q.25 9.09.5 11.65a.3.3 0 0 1 0 .1l-.25 2.96a.75.74-65.1 0 1-1.27.47l-4.92-4.93a.37.36-73.8 0 0-.61.34l.25 1.22a2.97 2.87-47.8 0 1 .03.93l-2.16 16.67a1.8 1.8 0 0 1-.32.8q-.56.8-.59 1.17-.26 2.8-1.61 5.15-.24-.89-.67-1.28a.44.44 0 0 0-.69.14c-5 10.51-16.65 20.13-26.23 25.45q-2.79.54-4.02-.79a.56.56 0 0 1 .04-.8q8.98-7.9 18.03-17.06c3.03-3.05 11.14-12.69 10.17-17a.29.28-28.5 0 0-.48-.14c-5.31 5.15-10.49 7.82-17.07 10.5-9.04 3.69-18.6-3.36-22.36-11.17-2.22-4.64-4.03-11.47-4.96-14.03-2.94-8.08-3.35-16.14-2.96-24.29q.41-8.66 1.55-22.48.08-.98.46-2.49a1.49 1.44 52.2 0 0 .05-.45l-1.15-19.34a.17.17 0 0 0-.2-.16l-8.21 1.54 3.32-2.08a.49.43 3.6 0 0 .09-.07l6.35-5.55a3.7 3.67 19.6 0 1 1.83-.86q4.28-.69 7.68-1.55c6.98-1.76 12.41-8.87 6.85-15.57q-2.07-2.49-4.2-3.52-3.76-1.83-14.5-6.05c-6.02-2.36-13.54-2.43-17.78 2.98q-1.77 2.26-2.94 9.44-.57 3.47-2.17 10.72-.32 1.41.04 5.55-5.07-2-8.95-6.21 4.88-2.14 4.23-7.1-1.04-7.87-9.34-10.91-1.85-.89-4.05-1a.78.78 0 0 1-.69-.48q-2.62-6.15-2.78-12.41.26-10.23 8.69-17.79a.41.41 0 0 1 .68.26l.79 7.93a.69.69 0 0 0 1.35.13l1.76-5.83q4.56-5.11 7.84-6.84 8.4-4.44 18.95-2.59 1.31.23 4.44 2.94m-16.656 3.339a11.58 8.59-113.6 0 0-3.236 14.05 11.58 8.59-113.6 0 0 12.508 7.173 11.58 8.59-113.6 0 0 3.236-14.051 11.58 8.59-113.6 0 0-12.508-7.173m24.473 4.801a11.35 8.61-108.4 0 0-4.587 13.488 11.35 8.61-108.4 0 0 11.753 8.052 11.35 8.61-108.4 0 0 4.587-13.488 11.35 8.61-108.4 0 0-11.753-8.052m-46.653 7.416a11.51 8.33-129.4 0 0 .87 14.181 11.51 8.33-129.4 0 0 13.742 3.607 11.51 8.33-129.4 0 0-.87-14.181 11.51 8.33-129.4 0 0-13.742-3.607"/><path fill="#f8da8e" d="M702.41 616.71q1.35-2.35 1.61-5.15.03-.37.59-1.17a1.8 1.8 0 0 0 .32-.8l2.16-16.67a2.97 2.87-47.8 0 0-.03-.93l-.25-1.22a.37.36-73.8 0 1 .61-.34l4.92 4.93a.75.74-65.1 0 0 1.27-.47l.25-2.96a.3.3 0 0 0 0-.1q-.25-2.56-.5-11.65c-.38-13.56-2.37-26.6-5.63-41.17q-1.69-7.57-4.25-15.61c-2.18-6.87-4.45-17-8.55-24.94-2.82-5.46-5.5-11.26-7.73-16.38-3.89-8.94-11.27-16.95-19.3-21.74q-6.21-3.71-14.65-1.31c14.81-18.08 33.69 11.17 39.79 21.95 21.37 37.79 28.76 83.23 23.95 125.95a.34.33-64.2 0 1-.57.2l-6.49-6.5a.43.43 0 0 0-.73.34q1.04 12.78-4.33 23.8a.45.45 0 0 1-.85-.11z"/><ellipse fill="#080403" rx="11.58" ry="8.59" transform="rotate(246.4 473.484 26.041)"/><ellipse fill="#080403" rx="11.35" ry="8.61" transform="rotate(251.6 502.702 -1.286)"/><ellipse fill="#080403" rx="11.51" ry="8.33" transform="rotate(230.6 423.483 93.967)"/><path fill="#d88936" d="M614.22 492.08c-5.21-1.47-10.56 1.59-9.61 7.42 1.09 6.71 7.9 12.22 14.72 10.59q3.88 4.21 8.95 6.21 3.82 10.61 15.43 6.56l8.21-1.54a.17.17 0 0 1 .2.16l1.15 19.34a1.49 1.44 52.2 0 1-.05.45q-.38 1.51-.46 2.49-1.14 13.82-1.55 22.48c-.39 8.15.02 16.21 2.96 24.29.93 2.56 2.74 9.39 4.96 14.03 3.76 7.81 13.32 14.86 22.36 11.17 6.58-2.68 11.76-5.35 17.07-10.5a.29.28-28.5 0 1 .48.14c.97 4.31-7.14 13.95-10.17 17q-9.05 9.16-18.03 17.06a.56.56 0 0 0-.04.8q1.23 1.33 4.02.79-10.3 5.4-21.3 8.4a.58.58 0 0 1-.72-.7q1.4-5.56 2.51-12.45 4.34-26.82-9.23-49.41a.3.3 0 0 0-.56.2l1.26 8.77q-2.02 7.47-3.69 14.27-1.87 7.61-2.74 9.97-1.73 4.73-3.55 9.75-.34.93-.87 1.29a.64.63 70.2 0 1-.99-.47c-.57-6.32-1.49-12.91-3.74-19.64q-1.34-4.01-3.08-9.68a.51.51 0 0 1 .83-.53q5.49 4.9 7.24 10.68a.28.28 0 0 0 .55-.07c.33-6.75.27-14.25-2.07-21.84q-2.22-7.17-3.35-10.15-1.62-4.28-2.07-5.77.8-11.27 6.61-19.52a.28.27 60.3 0 1 .5.14q.85 11.53 4.01 22.59a.34.34 0 0 0 .67-.1c.03-8.23 1.7-17.25 2.06-25.04q.33-7.29-.7-14.27a.65.64 7.1 0 1 .89-.69l6.23 2.56a.62.62 0 0 0 .71-.97c-4.68-5.44-9.7-8.93-16.86-11.42q-7.96-2.77-15.82-7.24c-4.26-2.42-8.28-5.16-11.08-8.92q-7.59-10.25-5.34-23.33.63-3.63 5.57-9.24.16 6.26 2.78 12.41a.78.78 0 0 0 .69.48q2.2.11 4.05 1"/><path fill="#080403" d="M643.71 522.86q-11.61 4.05-15.43-6.56-.36-4.14-.04-5.55 1.6-7.25 2.17-10.72 1.17-7.18 2.94-9.44c4.24-5.41 11.76-5.34 17.78-2.98q10.74 4.22 14.5 6.05 2.13 1.03 4.2 3.52c5.56 6.7.13 13.81-6.85 15.57q-3.4.86-7.68 1.55a3.7 3.67 19.6 0 0-1.83.86l-6.35 5.55a.49.43 3.6 0 1-.09.07zM614.22 492.08q8.3 3.04 9.34 10.91.65 4.96-4.23 7.1c-6.82 1.63-13.63-3.88-14.72-10.59-.95-5.83 4.4-8.89 9.61-7.42"/><path fill="#edae4d" d="M609.34 524.5q6.22 4.02 11 5.95 11.82 4.76 12.37 5.11a1.8 1.8 0 0 1 .71.8q1.17 2.49 1.43 5.85a1.25 1.22 64.2 0 1-.31.92q-5.36 5.98-6.78 13.12-1.71 8.55 1.49 17.39.45 1.49 2.07 5.77 1.13 2.98 3.35 10.15c2.34 7.59 2.4 15.09 2.07 21.84a.28.28 0 0 1-.55.07q-1.75-5.78-7.24-10.68a.51.51 0 0 0-.83.53q1.74 5.67 3.08 9.68c2.25 6.73 3.17 13.32 3.74 19.64a.64.63 70.2 0 0 .99.47q.53-.36.87-1.29 1.82-5.02 3.55-9.75.87-2.36 2.74-9.97 1.67-6.8 3.69-14.27 3.7 24.39-1.01 45.68-3.11 14.05-11.06 28.24-1.05.39-1.48-.58-.45-1.03-.45-2.24.09-18.46-9.85-33.91a1.47 1.47 0 0 0-2.38-.13q-.16.18-.39 1.2c-1.93 8.27-4.26 16.46-8.56 24.19-2.04 3.65-4.82 12.1-8.46 17.36q-4.52 6.53-10.48 14.79a.34.34 0 0 1-.61-.24q1.17-9.2-1.7-17.57a.67.67 0 0 0-1.28.06q-1.84 7.41-4.54 13.86-8.53 20.43-22.61 37.32a.46.46 0 0 1-.74-.06q-.29-.47-.29-.92.13-14.38-5.17-27.12c-3.34-8.02-6.22-13.36-11.14-19.03q-2.59-2.98-4.71-5.92a.66.66 0 0 0-1.19.47q.14.96 1.36 2.6a.23.23 0 0 1-.34.31q-3.54-3.05-6.34-6.69a5.38 5.16-88.8 0 0-.69-.75q-6.74-6.19-16.19-13.18c-4.59-3.39-9.06-7.49-12.51-11.41a.41.4-63.5 0 0-.71.24q-.44 5.77 1.1 11.22 3.06 10.89 9.32 20.53a.39.39 0 0 1-.42.59q-1.57-.39-3.94-1.57-2.76-1.36-11.93-7.08c-11.88-7.42-22.65-16.48-30.9-27.61q-6.9-9.3-8.04-11.2-6.11-10.28-10.13-22.49a.69.68 54.5 0 0-1.19-.2q-9.11 11.66-9.64 26.68-.01.51.14 5.54.14 4.51-.94 8.94c-14.25-20.26-21.04-42.85-22.71-67.22a.46.46 0 0 0-.83-.24l-.94 1.25c-4.15 1.29-5.1-2.86-5.8-6.02q-.69-3.16-1.07-4.89a.4.4 0 0 0-.76-.06l-3.16 7.96 2.17-8.45a.52.51-8 0 0-.76-.57l-4.79 2.77a.43.42 64.5 0 1-.61-.22q-.13-.33.05-.76.99-2.32 2.13-4.62l-1.09 3.71a.3.3 0 0 0 .42.35q6.01-3.04 10.32-5.7 1.28-.8 5.05-4.22c3.03-2.76 4.52-5.89 7.37-10.39a1.43 1.42-67.2 0 1 1.51-.62c8.72 2.02 17.02 2.93 25.8 1.62 4.72-.71 8.81-.86 13.26-1.9 11.82-2.75 21.07-5.2 31.68-4.96q6.08.14 15.02 2.68c13.06 3.71 26.5 6.94 40.8 7.02q27.46.15 48.37-16.92 5.03-4.11 11.22-10.85m-10.71 76.03c2.87 17.65.76 34.26-4.24 51.4a.3.29-89.8 0 0 .36.37q.26-.08.57-.47 6.2-7.8 12.21-18.87c12.53-23.08 13.3-52.44-2.09-74.54a.28.28 0 0 0-.5.22c2.7 11.86 5.55 25.15 5.33 37.6q-.22 12.46-4.24 23.97a.21.21 0 0 1-.41-.06q-.45-9.99-6.47-19.81a.28.28 0 0 0-.52.19M480.6 619.77a.52.52 0 0 0 .57-.82c-7.81-9.68-13.75-21.3-14.94-34.25q-.25-2.66-.7-6.09a.4.4 0 0 0-.76-.11q-4.06 9.35-2.23 19.51a.41.4-74.8 0 1-.66.38q-2.39-2.05-4.2-4.8-10.28-15.67-10.96-34.37a.58.58 0 0 0-1.05-.32q-.49.66-.65 1.36-3.78 16.75 4.24 32.52c3.32 6.54 8.61 10.4 15.34 14.05a4.39 4.33 84 0 1 1.28 1.05c4.45 5.35 8.23 9.77 14.72 11.89m79 16.77q-5.7-2.58-9.17-5.2-3.21-2.42-7-7.88-6.6-9.48-8.67-20.33a.31.31 0 0 0-.61 0q-1.25 6.79-.14 13.86a.52.52 0 0 1-.8.51c-10.36-6.97-17.29-20.73-19.53-32.55q-.11-.53-.69-.38-.31.08-.32.42-.5 18.15 11.47 31.88 5.29 6.07 12.8 8.44a2.68 2.65-11.2 0 1 1.21.8q2.06 2.44 3.73 4.51c6.85 8.49 17.69 12.91 28.69 14.5a.7.7 0 0 0 .8-.67q.01-.22-.27-.57-12.42-15.7-15.63-34.98a.4.4 0 0 0-.8.02c-1.16 10.16 1.26 18.25 5.32 27.24a.29.29 0 0 1-.39.38"/><path fill="#f8da8e" d="M405.24 530.3q.48 13.23-.54 19.77-.95 6.14-5.09 14.61-1.14 2.3-2.13 4.62-.18.43-.05.76a.43.42 64.5 0 0 .61.22l4.79-2.77a.52.51-8 0 1 .76.57l-2.17 8.45-6.26 21.63q-2.46 7.58-8.11 12.76a3.28 3.13 82.6 0 0-.77 1.05c-2.56 5.54-5.52 12.55-8.99 18.29-4.34 7.2-8.23 15.61-12.66 23.1q-10.35 17.56-14.94 25.34-4.99 8.46-12.38 24.59-6.6 14.41-9.41 25.82c-4.21 17.05-7.15 35.36-5 52.65q1.11 8.98 2.68 21.34a.29.24 39.3 0 0 .02.1l2.36 8.44-8.26-10.56q-3.57-12.02-4.13-29.83c-.89-28.22 6.52-55.92 19.01-80.68q6.46-12.81 16.46-29.53 16.56-27.69 25.91-44.58c9.21-16.64 15.84-28.17 20.4-42.13a.62.61-2.1 0 0-.82-.76l-7.38 3.06a.43.43 0 0 1-.53-.62c9.08-15.32 15.01-30.49 12.56-47.46a.47.46-77.8 0 1 .71-.46z"/><path fill="#080403" d="M598.63 600.53a.28.28 0 0 1 .52-.19q6.02 9.82 6.47 19.81a.21.21 0 0 0 .41.06q4.02-11.51 4.24-23.97c.22-12.45-2.63-25.74-5.33-37.6a.28.28 0 0 1 .5-.22c15.39 22.1 14.62 51.46 2.09 74.54q-6.01 11.07-12.21 18.87-.31.39-.57.47a.3.29-89.8 0 1-.36-.37c5-17.14 7.11-33.75 4.24-51.4"/><path fill="#d88936" d="M480.6 619.77c-6.49-2.12-10.27-6.54-14.72-11.89a4.39 4.33 84 0 0-1.28-1.05c-6.73-3.65-12.02-7.51-15.34-14.05q-8.02-15.77-4.24-32.52.16-.7.65-1.36a.58.58 0 0 1 1.05.32q.68 18.7 10.96 34.37 1.81 2.75 4.2 4.8a.41.4-74.8 0 0 .66-.38q-1.83-10.16 2.23-19.51a.4.4 0 0 1 .76.11q.45 3.43.7 6.09c1.19 12.95 7.13 24.57 14.94 34.25a.52.52 0 0 1-.57.82M412.21 579.54q-5.19 16.88-.03 35.08 4.53 15.93 12.09 27.7c6.43 9.99 12.68 17.99 22.23 24.78a.19.19 0 0 0 .29-.15l.53-16.38a.32.32 0 0 1 .61-.14q2.27 4.55 4.5 7.66 14.67 20.41 36.72 32.25 12.77 6.86 21.98 11.52 6.94 3.52 12.68 7.58a.92.91-65.6 0 1 .36.97l-1.37 5.3-.25-.81a.63.63 0 0 0-1.21.04l-3.2 12.76q-.45 1.58-1.45 2.23a.43.43 0 0 1-.65-.25c-2.71-10.26-10.49-18.07-19.74-22.96-15.15-8-30.19-17.94-40.52-30.44q-1.06-1.29-2.47-3.46-.82-1.26-1.61-1.04a1.16 1.16 0 0 0-.84.88l-2.43 11.37a.87.87 0 0 1-1.32.55q-1.96-1.25-2.86-2.08c-5.9-5.44-13.03-11.35-18.2-18.38-9-12.23-17.57-28.78-18.88-43.7q-1.13-12.92-1.34-21.3a.75.75 0 0 0-1.24-.55q-3.95 3.41-8.62 8.63-1.23 1.38-3.01 2.26a.22.22 0 0 1-.32-.25l2.52-11.05 6.26-21.63 3.16-7.96a.4.4 0 0 1 .76.06q.38 1.73 1.07 4.89c.7 3.16 1.65 7.31 5.8 6.02"/><path fill="#f8da8e" d="M559.6 636.54a.29.29 0 0 0 .39-.38c-4.06-8.99-6.48-17.08-5.32-27.24a.4.4 0 0 1 .8-.02q3.21 19.28 15.63 34.98.28.35.27.57a.7.7 0 0 1-.8.67c-11-1.59-21.84-6.01-28.69-14.5q-1.67-2.07-3.73-4.51a2.68 2.65-11.2 0 0-1.21-.8q-7.51-2.37-12.8-8.44-11.97-13.73-11.47-31.88.01-.34.32-.42.58-.15.69.38c2.24 11.82 9.17 25.58 19.53 32.55a.52.52 0 0 0 .8-.51q-1.11-7.07.14-13.86a.31.31 0 0 1 .61 0q2.07 10.85 8.67 20.33 3.79 5.46 7 7.88 3.47 2.62 9.17 5.2"/><path fill="#edae4d" d="m395.16 598.16-2.52 11.05a.22.22 0 0 0 .32.25q1.78-.88 3.01-2.26 4.67-5.22 8.62-8.63a.75.75 0 0 1 1.24.55q.21 8.38 1.34 21.3c1.31 14.92 9.88 31.47 18.88 43.7 5.17 7.03 12.3 12.94 18.2 18.38q.9.83 2.86 2.08a.87.87 0 0 0 1.32-.55l2.43-11.37a1.16 1.16 0 0 1 .84-.88q.79-.22 1.61 1.04 1.41 2.17 2.47 3.46c10.33 12.5 25.37 22.44 40.52 30.44 9.25 4.89 17.03 12.7 19.74 22.96a.43.43 0 0 0 .65.25q1-.65 1.45-2.23-4.69 17.6-5.15 34.05-.69 23.99 2.27 50.02.81 7.1 2.54 13.05a.97.97 0 0 1-.95 1.23q-10.64-.3-20.34 4.02c-3.54 1.58-7.69 3.89-7.97 8.19l-3.59 4.38a.32.32 0 0 0 .29.52q.89-.12 1.96-.72 1.5.92 3.25.43 5.92-1.66 10.77-3.91a4.77 4.49-62 0 1 .97-.33q10.37-2.39 20.85 1.89 1.8.74 10.92 6.04a1.8 1.29 72.8 0 1 .25.19l4.43 4.06a.47.43 9.1 0 1 .11.14q4.9 7.71 6.83 16.94-2.05 2.1-5.89 2.94-1.64-16.24-14.98-25.22a.22.22 0 0 0-.31.29c5.31 8.61 8.3 17.89 7.86 28.12-4.96.59-10.09 1.9-14.7 1.94-3.67.03-8.01.55-11.56-.43q-1.05-.29-1.13-1.51-.76-9.91-6.78-17.84-1.31-1.72-3.07-2.78a.26.25-86.1 0 0-.36.32q4.04 9.99 2.72 21.49-4.38-.28-8.84-.75-9.96-1.06-17.75-7.48-4.72-3.89-6.8-9.72-.02-.03-10.49-29.03c-2.62-7.25-5.84-14.59-8.54-22.44-3.82-11.15-9.34-22.07-13.25-32.46-3.44-9.15-9.21-20.69-12.57-29.97q-3.19-8.77-4.55-19.17-.81-6.17-2.86-10.74a1.49 1.47 62.7 0 0-2.09-.68l-3.84 2.22a.54.54 0 0 1-.8-.55q1.48-9.16.44-18.71c-.53-4.94-3.33-9.48-5.9-13.56q-1.27-2.03-3.79-2.51l-6.07-6.85a.59.59 0 0 0-1.01.53l.24 1.03q-1.03 11.75-1.77 22.71-.12 1.81-2.8 6.53-13.85-5.15-28.06.26 0 1.81 1.4 2.14 12.78 3.02 23.64 11.18 7.49 5.63 9.55 15.31.25 1.17 1.73 1.01l3.19 9.3q-2.96-1.52-3.84-5.11a.19.13-89.6 0 0-.09-.13q-.04-.02-.07-.1a.1.07-72 0 0-.14.1c1.98 6.38 6.08 13.07 7.8 17.79q1.98 5.46 2.71 12.68 1.42 14.18-1.36 28.76c-1.34 7.06-4.84 13.08-9.5 18.78q-5.22 6.38-13.59 9.68-10.13 3.99-21.17 2.54-18.19-2.39-28.58-16.16l-2.36-8.44a.29.24 39.3 0 1-.02-.1q-1.57-12.36-2.68-21.34c-2.15-17.29.79-35.6 5-52.65q2.81-11.41 9.41-25.82 7.39-16.13 12.38-24.59 4.59-7.78 14.94-25.34c4.43-7.49 8.32-15.9 12.66-23.1 3.47-5.74 6.43-12.75 8.99-18.29a3.28 3.13 82.6 0 1 .77-1.05q5.65-5.18 8.11-12.76"/><path fill="#d88936" d="m634.71 669.75-3.67 6.09a.25.25 0 0 1-.45-.06q-2.19-8.3-5.77-16.24a.36.36 0 0 0-.68.08q-1.59 8.17-4.76 17.76c-6.24 18.84-20.51 36.17-36.21 49.54q-13.24 11.27-17.83 14.91-7.14 5.65-18.23 12.79a.34.34 0 0 0 .28.62c3.09-.94 6.05-1.69 8.23-2.61q16.78-7.15 25.98-13.79 12.78-9.22 25.16-22.8 13.15-14.43 18.46-32.73a.48.48 0 0 1 .94.05l1.43 7.73a.57.57 0 0 0 .96.3q7-6.91 11.84-14.99.31-.53.65-.75a.29.29 0 0 1 .45.28c-.43 3.79-2.42 7.74-3.43 11.62q-2.5 9.7-4.27 14.74-12.8 36.57-30.3 67.45-11.58 20.44-28.84 40.94-4.4 5.23-9.39 10.07c-6.29 6.1-12.27 12.03-19.44 16.77a.61.6-43 0 1-.7-.02q-5.16-3.92-11.57-6.67a2.1 2.09-83.2 0 1-1.24-1.58c-2.64-16.06-4.38-28.94-5-44.53q-.93-23.1.75-47.72.72-10.47 2.27-20.85a.29.29 0 0 1 .47-.17c7.22 6.33 12.26 19.44 13.89 28.05q.7 3.69.95 4.74a.22.22 0 0 0 .44-.02c2.47-19.13-2.44-36.46-19.15-47.43-11.2-7.34-23.56-12.96-33.85-18.57q-28.94-15.78-43.65-45.68-1.98-4.04-3.3-8.24a.38.37-44.6 0 0-.71 0q-3.67 11.06-4.48 22.29a.23.23 0 0 1-.42.11l-3.83-5.48q1.08-4.43.94-8.94-.15-5.03-.14-5.54.53-15.02 9.64-26.68a.69.68 54.5 0 1 1.19.2q4.02 12.21 10.13 22.49 1.14 1.9 8.04 11.2c8.25 11.13 19.02 20.19 30.9 27.61q9.17 5.72 11.93 7.08 2.37 1.18 3.94 1.57a.39.39 0 0 0 .42-.59q-6.26-9.64-9.32-20.53-1.54-5.45-1.1-11.22a.41.4-63.5 0 1 .71-.24c3.45 3.92 7.92 8.02 12.51 11.41q9.45 6.99 16.19 13.18a5.38 5.16-88.8 0 1 .69.75q2.8 3.64 6.34 6.69a.23.23 0 0 0 .34-.31q-1.22-1.64-1.36-2.6a.66.66 0 0 1 1.19-.47q2.12 2.94 4.71 5.92c4.92 5.67 7.8 11.01 11.14 19.03q5.3 12.74 5.17 27.12 0 .45.29.92a.46.46 0 0 0 .74.06q14.08-16.89 22.61-37.32 2.7-6.45 4.54-13.86a.67.67 0 0 1 1.28-.06q2.87 8.37 1.7 17.57a.34.34 0 0 0 .61.24q5.96-8.26 10.48-14.79c3.64-5.26 6.42-13.71 8.46-17.36 4.3-7.73 6.63-15.92 8.56-24.19q.23-1.02.39-1.2a1.47 1.47 0 0 1 2.38.13q9.94 15.45 9.85 33.91 0 1.21.45 2.24.43.97 1.48.58M384.34 703.61q2.68-4.72 2.8-6.53.74-10.96 1.77-22.71 3.43 10.06 4.22 19.9.55 6.82-.52 13.49a.28.28 0 0 1-.41.21zM497.38 875.21l-1.04 5.69a.62.61 5.9 0 1-.63.51q-13.45-.44-25.15-4.94c-9.5-3.65-13.45-13.22-16.35-21.94q-6.3-18.91-6.42-19.34-2.56-9.05-5.15-15.58c-2.92-7.34-4.71-13.89-7.52-20.58q-7.83-18.65-16.92-37.74-1.51-3.17-4.69-12.55-4.23-12.47-4.35-26.04a.42.42 0 0 0-.75-.25l-7.71 10.26a.34.33 58.8 0 1-.6-.15c-1.57-9.72.03-19.42.91-29.31q1.13-12.81-5.26-23.59 2.52.48 3.79 2.51c2.57 4.08 5.37 8.62 5.9 13.56q1.04 9.55-.44 18.71a.54.54 0 0 0 .8.55l3.84-2.22a1.49 1.47 62.7 0 1 2.09.68q2.05 4.57 2.86 10.74 1.36 10.4 4.55 19.17c3.36 9.28 9.13 20.82 12.57 29.97 3.91 10.39 9.43 21.31 13.25 32.46 2.7 7.85 5.92 15.19 8.54 22.44q10.47 29 10.49 29.03 2.08 5.83 6.8 9.72 7.79 6.42 17.75 7.48 4.46.47 8.84.75"/><path fill="#f8da8e" d="M306.57 775.05q.13.52-.01.78a.69.69 0 0 1-1.26-.14c-.62-2.11-6.65-6.22-13.09-11.34q-6.6-5.25-11.44-12.46c-2.08-3.11-3.41-6.47-5.24-9.89-2.28-4.26-3.67-10.05-5.29-14.34q-1.31-3.48-1.86-6.69-1.88-10.9-2.46-19.45a.38.38 0 0 0-.68-.21q-5.46 6.77-9.02 14.96c-3.18 7.33-6.32 14.75-7.1 23.36q-1.53 16.7 3.63 32.8c1.27 3.97 3.62 7.33 4.85 10.9a.63.63 0 0 1-.76.81q-1.65-.42-2.96-1.16-7.23-4.07-14.49-10.58a.73.33 24.4 0 1-.07-.08l-4.77-5.58-1.24-9.04a.3.3 0 0 1 .53-.23c3.72 4.61 7.6 8.92 11.93 12.55a.33.33 0 0 0 .53-.33q-8.32-34.78 8.55-65.25 7.08-12.79 17.17-22.25a.31.3 71.6 0 1 .51.26q-2.5 22.04 3.11 43.65c4.33 16.67 15 33.26 30.3 42.04a.96.94-76.1 0 1 .46.78zM628 810.45q-.44-.36-.78-.42a.43.43 0 0 1 .05-.86q2.01-.09 3.61-1.81 18.52-19.87 27.53-44.92 6.04-16.8 3.72-34.85-1.06-8.3-4.82-14.95-4.8-8.52-12.8-14.73l1.89-6.01a.48.48 0 0 1 .66-.3c11.14 4.99 19.27 17.57 22.7 28.98 3.79 12.62 2.05 27.31-2.73 39.73-7.29 18.97-20.9 35.59-35.72 49.55a1.26 1.25-69.3 0 1-.76.35z"/><path fill="#edae4d" d="M644.51 697.91q8 6.21 12.8 14.73 3.76 6.65 4.82 14.95 2.32 18.05-3.72 34.85-9.01 25.05-27.53 44.92-1.6 1.72-3.61 1.81a.43.43 0 0 0-.05.86q.34.06.78.42-8.75.67-16.52 4.13-.93.14-1.03-.54a.47.46-29.8 0 1 .11-.39q9.5-10.97 13-15.59 12.86-16.99 19.53-40.31c2.55-8.89 3.77-19.72 2.89-28.42q-.83-8.2-4.31-22.71zM306.57 775.05q.93 19.79 6.99 38.73l-.84.71a.47.47 0 0 1-.76-.25q-.23-.94-1.21-1.41c-16.51-8-29.23-15.9-37.34-31.33a.44.43-57.9 0 0-.82.19q-.12 3.57.69 6.78 3.31 13.21 11.64 23.36a.34.34 0 0 1-.33.55q-3.17-.57-5.97-1.77c-5.27-2.26-10.74-4.09-15.4-7.08q-5.8-3.71-11.11-7.85-1.05-.82-4.84-5.16-3.05-3.49-7-5.82-4.38-8.01-5.72-17.96l4.77 5.58a.73.33 24.4 0 0 .07.08q7.26 6.51 14.49 10.58 1.31.74 2.96 1.16a.63.63 0 0 0 .76-.81c-1.23-3.57-3.58-6.93-4.85-10.9q-5.16-16.1-3.63-32.8c.78-8.61 3.92-16.03 7.1-23.36q3.56-8.19 9.02-14.96a.38.38 0 0 1 .68.21q.58 8.55 2.46 19.45.55 3.21 1.86 6.69c1.62 4.29 3.01 10.08 5.29 14.34 1.83 3.42 3.16 6.78 5.24 9.89q4.84 7.21 11.44 12.46c6.44 5.12 12.47 9.23 13.09 11.34a.69.69 0 0 0 1.26.14q.14-.26.01-.78"/><path fill="#f8da8e" d="M392.6 733.51q-1.48.16-1.73-1.01-2.06-9.68-9.55-15.31-10.86-8.16-23.64-11.18-1.4-.33-1.4-2.14 5.01.76 9.48 1.07 3.95.28 11.11 3.26 6.05 2.53 14.54 9.25a.9.9 0 0 1 .34.78q-.65 7.72.85 15.28"/><path fill="#d88936" d="M641.67 706.62q3.48 14.51 4.31 22.71c.88 8.7-.34 19.53-2.89 28.42q-6.67 23.32-19.53 40.31-3.5 4.62-13 15.59a.47.46-29.8 0 0-.11.39q.1.68 1.03.54-5.7 2.79-10.38 7.06a.29.29 0 0 0 .14.5q.27.05.72-.1l.17.7a.92.9-28.9 0 1-.26.85c-3.04 2.88-6.65 6.81-7.24 10.72-.9 5.91 13.68 11.03 17.95 12.07q5.21 1.28 10.44 2.62.6 3.55-.04 7.16a.48.48 0 0 1-.47.4q-12.07-.1-26.85-.45c-12.77-.31-25.96-1.53-38.54-1.93a.24.23 78.4 0 1-.19-.13l-4.99-9.54a.46.45 58.2 0 1 .13-.58c8.87-6.58 16.8-13.45 24.45-21.79q23.03-25.09 39.84-56.78 15.36-28.97 25.31-58.74"/><path fill="#f8da8e" d="M522.8 715.71q-6.39 40.04-3.5 80.52 1.13 15.88 4.07 31.42a.49.48-1.2 0 1-.55.57q-19.74-3.06-34.28 10.04c.28-4.3 4.43-6.61 7.97-8.19q9.7-4.32 20.34-4.02a.97.97 0 0 0 .95-1.23q-1.73-5.95-2.54-13.05-2.96-26.03-2.27-50.02.46-16.45 5.15-34.05l3.2-12.76a.63.63 0 0 1 1.21-.04z"/><path fill="#d88936" d="m395.79 742.81 3.35 6.14a.39.39 0 0 0 .7-.04l3.68-8.95a.31.31 0 0 1 .59.08q1.77 15.17 8.46 29.87l9.47 20.79q.89 1.95.8 6.81-.26 12.93-4.79 25.64a.62.62 0 0 1-.74.39c-10.6-2.64-19.79-3.01-29.68 2.08q-8.42 4.33-13.2 11.58-1.55 2.35-1.63 4.62-1.06 2.55-3.21 5.24-2.81 3.53-3.11 7.35a2.12 2.1-73.1 0 0 1.06 2.01c4.93 2.8 8.43 3.82 13.83 4.9 1.53.3 3.35 1.56 5.41 1.71q0 2.54-.85 5.01a.6.58 14.4 0 1-.68.39c-5.75-1.14-11.26-2.3-16.85-3.94q-9.93-2.9-17.47-9.91-23.2-21.56-30.95-52.19-.09-.39-.28-1.31l8.26 10.56q10.39 13.77 28.58 16.16 11.04 1.45 21.17-2.54 8.37-3.3 13.59-9.68c4.66-5.7 8.16-11.72 9.5-18.78q2.78-14.58 1.36-28.76-.73-7.22-2.71-12.68c-1.72-4.72-5.82-11.41-7.8-17.79a.1.07-72 0 1 .14-.1q.03.08.07.1a.19.13-89.6 0 1 .09.13q.88 3.59 3.84 5.11M313.56 813.78q6.21 17.55 17.38 32.57 2.26 3.04 3.66 5.07a.3.3 0 0 1-.26.46q-14.87-.63-22.83-2.12-19.52-3.66-38.82-14.96c-6.78-3.97-13.92-10.85-18.99-16.42a.31.3 72.4 0 1 .26-.51l13.7 1.78a.74.74 0 0 0 .45-1.38q-7.66-4.18-13.29-10.83c-5.96-7.05-11.64-14.14-14.55-22.74q3.95 2.33 7 5.82 3.79 4.34 4.84 5.16 5.31 4.14 11.11 7.85c4.66 2.99 10.13 4.82 15.4 7.08q2.8 1.2 5.97 1.77a.34.34 0 0 0 .33-.55q-8.33-10.15-11.64-23.36-.81-3.21-.69-6.78a.44.43-57.9 0 1 .82-.19c8.11 15.43 20.83 23.33 37.34 31.33q.98.47 1.21 1.41a.47.47 0 0 0 .76.25zM438.52 837.11q-6.03-6.56-12.82-10.17a.94.93-63.2 0 1-.4-1.24q3.52-7.15 4.65-13.59a.32.32 0 0 1 .62-.07q4.58 11.09 8.47 24.78a.31.31 0 0 1-.52.29"/><path fill="#f8da8e" d="M663.93 847.61q-1.12.84-1.93.13a.99.94 15.4 0 1-.29-.48q-.45-1.97-1.39-3.57-2.24-3.82-4.28-7.74c-3.45-6.62-9.28-11.02-16.7-13.34q-13.08-4.1-26.72-2.06a2.31.25-20.3 0 0-.96.24q-2.47.75-3.73-.69c15.67-4.51 34.87-3.64 47.63 7.58q8.75 7.7 8.37 19.93"/><path fill="#edae4d" d="M663.93 847.61c-.84 3.28-3.24 4.71-6.19 5.44a.46.46 0 0 1-.57-.43c-.23-10.28-5.54-19.95-15.33-23.96q-.32-.13-.75-.11a.3.29-21.5 0 0-.21.48c4.82 5.93 8.19 13.22 8.53 20.86q-9.78.98-19.29-1.42-3.13-9.5-11.72-14.45a.57.56 87.7 0 0-.74.81q4.41 6.54 5.36 14.17-5.23-1.34-10.44-2.62c-4.27-1.04-18.85-6.16-17.95-12.07.59-3.91 4.2-7.84 7.24-10.72a.92.9-28.9 0 0 .26-.85l-.17-.7 5.97-1.94q1.26 1.44 3.73.69a2.31.25-20.3 0 1 .96-.24q13.64-2.04 26.72 2.06c7.42 2.32 13.25 6.72 16.7 13.34q2.04 3.92 4.28 7.74.94 1.6 1.39 3.57a.99.94 15.4 0 0 .29.48q.81.71 1.93-.13M438.91 859.48q-6.2 3.31-13.19 4.43-.54-14.77-12.13-24.58a.42.42 0 0 0-.64.52q5.8 10.65 4.91 23.41-11.96 2.33-24.18.68-.12-10.78-8.05-18.27a.46.46 0 0 0-.75.47q2.55 8.09 1.9 16.89c-2.06-.15-3.88-1.41-5.41-1.71-5.4-1.08-8.9-2.1-13.83-4.9a2.12 2.1-73.1 0 1-1.06-2.01q.3-3.82 3.11-7.35 2.15-2.69 3.21-5.24c12.3-10.4 29.41-15.91 44.92-9.34 10.42 4.41 20.47 14.85 21.19 27"/><path fill="#f8da8e" d="M549.67 866.75q-2.37-.08-4.09 1.14-1.93-9.23-6.83-16.94a.47.43 9.1 0 0-.11-.14l-4.43-4.06a1.8 1.29 72.8 0 0-.25-.19q-9.12-5.3-10.92-6.04-10.48-4.28-20.85-1.89a4.77 4.49-62 0 0-.97.33q-4.85 2.25-10.77 3.91-1.75.49-3.25-.43c18.97-10.67 46.96-10.76 59.48 10.4q3.67 6.2 2.99 13.91"/><path fill="#d88936" d="m649.41 849.89-.15 4.07a1.28 1.27-1.8 0 1-1.15 1.22l-15.92 1.61a1.03 1.03 0 0 1-1.12-.9l-.95-7.42q9.51 2.4 19.29 1.42M438.91 859.48q.45 5.15-4.59 6.93-3.93 1.4-7.9 2.13a.73.72 85.8 0 1-.85-.74l.15-3.89q6.99-1.12 13.19-4.43M417.86 863.26q.21 3.08-.65 5.33a2.18 2.16-79.3 0 1-2.02 1.39h-20.14a1.52 1.52 0 0 1-1.52-1.57l.15-4.47q12.22 1.65 24.18-.68M549.67 866.75q.38 4.8-3.74 7.39-2.7 1.7-5.55 2.66a.43.42-9.7 0 1-.56-.39l-.13-5.58q3.84-.84 5.89-2.94 1.72-1.22 4.09-1.14M532.26 874.02l-.74 4.22a1.69 1.69 0 0 1-1.43 1.39q-11.5 1.7-24.95 1.99a.49.48.5 0 1-.5-.5l.23-7.1q.08 1.22 1.13 1.51c3.55.98 7.89.46 11.56.43 4.61-.04 9.74-1.35 14.7-1.94"/></svg>