<svg xmlns="http://www.w3.org/2000/svg" viewBox="0 0 1024 1024"><g fill="none" stroke-width="2"><path stroke="#838281" d="M589.72 145.3q.48 1.38 1.92 2.81 3.07 3.03 12.07 10.73 1.85 1.58 3.35.79 16.72-8.83 21.5-27.66 1.13-4.46-2.32-6.32-7.18-3.87-9.71-5.11c-2.75-1.34-3.71-.71-4.44 2.12q-.71 2.72-1.21 4.22c-3.1 9.21-11.15 14.28-20.33 16.85a1.22 1.22 0 0 0-.83 1.57M442.41 142.326a1.11 1.11 0 0 0-.305-1.54l-26.509-17.746a1.11 1.11 0 0 0-1.54.305l-17.745 26.509a1.11 1.11 0 0 0 .304 1.54l26.509 17.745a1.11 1.11 0 0 0 1.54-.304l17.745-26.509M814.19 211.23a19.66 19.66 0 0 0-19.66-19.66 19.66 19.66 0 0 0-19.66 19.66 19.66 19.66 0 0 0 19.66 19.66 19.66 19.66 0 0 0 19.66-19.66M303.62 658.18c-3.4.76-7.74-.37-10.76-.66a.6.6 0 0 0-.57.91c11.72 18.69 34.1 26.3 55.41 22.8a.3.3 0 0 1 .2.55l-4.88 3.01a.63.63 0 0 0 .02 1.08q3.24 1.9 7.94 2.75 18.91 3.46 35.21-7.28a.29.29 0 0 1 .44.28l-3.54 27.12a.62.62 0 0 1-.69.53c-11.38-1.49-18.89 6.3-23.95 15.46q-10.91 19.75-20.85 43.88c-5.22 12.65-9.41 25.79-7.02 39.63 2.71 15.63 14.74 26.03 30.59 26 24.82-.04 40.06-26.34 45.53-47.11a.65.65 0 0 1 .86-.44q35.52 13.66 66.01-7.57 12.37-8.62 20.46-19.59 3.57-4.84 6.42-9.08a4.41 4.39-78 0 1 2.86-1.87q11.4-2.06 24.98-1.88a.09.09 0 0 1 .02.17q-10.96 2.77-13.39 14.3c-1.83 8.67-2.51 16.44-4.09 25.27q-2.31 12.92-3.51 24.11c-1.37 12.79-1.17 26.91 8.72 36.58 8.07 7.88 19.66 9.06 30 4.74q13.28-5.56 20.36-19.27 8.51-16.5 9.27-35.58a.57.57 0 0 1 .63-.55c25.04 2.79 50.07-3.87 67.24-23.24 7.62-8.58 13.12-21.51 15.51-32.43 4.69-21.42 3.6-44.21-1.09-65.94a1.36 1.36 0 0 1 .17-1.01q10.69-17.55 17.17-38.04 2.92-9.25 4.11-19.32a1.21 1.2 78.7 0 1 .6-.91q4.98-2.85 8.57-7a.83.82 28.7 0 1 .87-.25q.02.01 3.11 1.09c12.43 4.36 23.93-1.95 31.99-11.83 9-11.04 12.35-27.33 10.91-41.59q-1.5-14.9-7.18-27.79c-6.09-13.83-14.21-26.59-21.78-39.28a4.89 4.83 31 0 1-.68-2.65q.29-9.21-4.12-17.48a.35.35 0 0 1 .39-.51l7.71 1.89a.73.73 0 0 0 .88-.91q-2.42-8.49-7.89-15.05-6.49-7.79-9.15-11.89-5.28-8.12-7.37-19.38a1.28 1.26-34.8 0 1 .17-.9q3.32-5.35 5.34-8.76 8.68-14.67 12.75-31.29a.36.36 0 0 1 .62-.14c12.16 14.53 33.71 24.67 51.86 14.39a1.24 1.23-24.9 0 0 .56-1.5c-3.22-8.75-5.32-18.62-5.19-28.24q.11-7.87.42-14.09a.14.14 0 0 1 .24-.08l4.79 5.35a.58.58 0 0 0 .97-.19q5.3-14.23 7.46-30.5c2.65-19.93-3.02-38.66-19.35-50.25q-3.02-2.14-8.89-5.3c-7.43-4-15.73-7.99-22.55-12.61q-11.34-7.67-21.47-18.1c-8.83-9.1-15.18-15.93-25.81-20.03a.62.61 43.2 0 1-.04-1.13l4.7-2.12a.69.69 0 0 0 .15-1.17c-13.9-11.05-33.55-7.94-47.94.8a.79.78 44.1 0 1-.81.01c-36.37-21.64-81.9-23.5-120.2-5.29q-33.24 15.81-54.55 45.61a.62.61-65.9 0 1-.64.25q-16.31-3.52-32.01 1.39-9.07 2.84-14.65 10.08a.77.77 0 0 0 .51 1.23l5.36.7a.43.43 0 0 1 .19.78q-10.56 7.14-14.92 19.49-6.56 18.6-7.93 22.32-5.68 15.38-16.5 29.77c-11.44 15.23-28.45 29.47-23.02 51.08 1.89 7.52 7.4 16.13 12.56 21.79q12.47 13.68 26.21 26.84a.47.47 0 0 0 .78-.23l2.58-10.51a.21.2 37.1 0 1 .38-.05c7.95 14.3 12.33 27.76 10.59 43.95a.92.92 0 0 0 .93 1.02q15.55-.2 27.69-9.21 13.68-10.14 21.01-24.84a.34.34 0 0 1 .55-.08l3.88 4.34a1.44 1.43-61.5 0 1 .35 1.19q-2.03 13.56-11.1 24.62c-8.78 10.72-16.59 19.88-16 34.29a.44.44 0 0 0 .7.33l7.12-5.32a.25.25 0 0 1 .37.3q-5.38 11.84-6.07 24.76-.5 9.31.46 18.31a8.79 8.75 52.7 0 1-.53 4.01q-.62 1.59-1.48 4.77-4.64 17-5.82 20.21-8.79 23.88-16.82 42.83a.78.77-77.3 0 1-.74.47c-21.52-.95-42.48-10.21-60.33-22.97-22.95-16.41-40.88-40.16-52.44-65.77a.38.38 0 0 0-.54-.18c-8.83 4.97-12.02 11.64-13.97 21.86a.84.84 0 0 1-.72.68l-.47.07a1.25 1.23-72 0 0-.73.38c-5.7 6.09-7.81 16.31-7.97 24.64q-.27 14.31 6.44 26.77a.47.47 0 0 1-.72.58l-5.21-4.61a.52.52 0 0 0-.87.38q-.23 16.02 6.87 28.98c7.13 13.02 17.06 22.9 30.84 28.48a.31.31 0 0 1-.05.59M329.44 297.07q-.32-.43-3.37-3.5c-8.14-8.21-9.79-19.25-7.3-30.3a1.45 1.45 0 0 0-1.49-1.77q-8.64.43-19.57 2.61a1.6 1.6 0 0 0-1.27 1.33q-3.78 25.61 13.02 44.76a1.5 1.49 53.2 0 0 1.91.28l17.62-10.89a1.72 1.71-34.9 0 0 .45-2.52M229.23 368.58a15.87 15.87 0 0 0-15.87-15.87 15.87 15.87 0 0 0-15.87 15.87 15.87 15.87 0 0 0 15.87 15.87 15.87 15.87 0 0 0 15.87-15.87M786.82 436.53q18.33 4.07 31.16-9.6 3.37-3.58 4.8-7.69a2.97 2.96-57.4 0 0-.66-3.03q-4.66-4.84-10.17-9.31-2.05-1.66-3.26.39-1.68 2.85-3.41 5.73a5.13 5.09 84.9 0 1-1.01 1.22q-8.59 7.54-19.6 3.24a1.45 1.45 0 0 0-1.96 1.13q-.24 1.57.02 3.39.93 6.32 2.42 12.86a2.21 2.19.3 0 0 1.67 1.67M273 479.46c4.54-4.79 10.99-7.88 17.76-5.21q2.52 1 3.31-1.46 1.87-5.84 3.74-13.29a2.2 2.19 23.1 0 0-.98-2.41c-1.33-.81-3.17-.86-4.67-1.11q-13.6-2.35-24.67 5.98-1.74 1.31-2.39 2.76a1.7 1.7 0 0 0-.13 1q1.41 7.73 4.53 13.3a2.19 2.19 0 0 0 3.5.44M823.74 531.24a.83.82 24.4 0 0 1.1-.41q2.23-4.92 2.98-7.26 4.98-15.73 1.54-31.8a2.52 2.51-3.7 0 0-2.26-1.98l-17.16-1.42a1.08 1.07-61.4 0 0-.77.23q-1.18.95-.6 2.83c3.41 11.07 1.41 19.46-3.48 29.14a1.72 1.71 25.9 0 0 .81 2.33l17.84 8.34" vector-effect="non-scaling-stroke"/><path stroke="#838281" d="M341.78 509.93a.95.94 19.6 0 0 .5 1.05c8.52 4.24 14.58 10.32 15.44 20.3a2.22 2.22 0 0 0 2.24 2.03q6.87-.11 14.06-.47 2.26-.11 3.43-.65a1.87 1.86 73.6 0 0 1.07-1.98q-2.37-15.34-14.17-24.37-2.69-2.06-4.29-2.12-6.37-.2-15.5 3.4-.94.37-1.64 1.2-1.05 1.25-1.14 1.61M190.22 563.44l10.05-17.42a1.15 1.14 37.9 0 0-.18-1.39q-1.56-1.57-4.11-2.87-8.49-4.38-17.77-7.13a2.5 2.49-64.4 0 0-2.76.98c-4.44 6.41-8.42 12.06-10.91 18.08a1.61 1.61 0 0 0 1.22 2.21c8.12 1.35 15.92 3.61 22.82 7.95a1.18 1.18 0 0 0 1.64-.41M807.2 630.19a14.05 14.05 0 0 0-14.05-14.05 14.05 14.05 0 0 0-14.05 14.05 14.05 14.05 0 0 0 14.05 14.05 14.05 14.05 0 0 0 14.05-14.05M713.7 704.76a1.91 1.91 0 0 0 .39 2.38l20.39 18.06a1.91 1.91 0 0 0 2.92-.47l9.76-16.9a1.91 1.91 0 0 0-.39-2.38l-20.4-18.06a1.91 1.91 0 0 0-2.92.48l-9.75 16.89M288.63 728.23a17.44 17.44 0 0 0-17.44-17.44 17.44 17.44 0 0 0-17.44 17.44 17.44 17.44 0 0 0 17.44 17.44 17.44 17.44 0 0 0 17.44-17.44" vector-effect="non-scaling-stroke"/><path stroke="#71481d" d="M596.17 146.01a.62.61-32.7 0 0-.23 1.05l8.8 7.79a1.43 1.42-38.1 0 0 1.62.19q14.41-7.77 18-24.13a1.99 1.98 21.4 0 0-.94-2.14l-6.35-3.66a1.12 1.11-68.2 0 0-1.64.71c-2.35 9.95-9.75 17.32-19.26 20.19" vector-effect="non-scaling-stroke"/><path stroke="#2d6378" d="M435.877 142.801a.53.53 0 0 0-.15-.734l-19.27-12.705a.53.53 0 0 0-.733.15l-12.98 19.687a.53.53 0 0 0 .15.734l19.268 12.705a.53.53 0 0 0 .734-.15l12.98-19.687" vector-effect="non-scaling-stroke"/><path stroke="#80792c" d="M805.511 201.24a14.83 14.6-42.4 0 0-20.796-.781 14.83 14.6-42.4 0 0-1.106 20.78 14.83 14.6-42.4 0 0 20.796.782 14.83 14.6-42.4 0 0 1.106-20.78" vector-effect="non-scaling-stroke"/><path stroke="#7b5a29" d="m360.32 406.61 4.99 6.47" vector-effect="non-scaling-stroke"/><path stroke="#71481d" d="M365.31 413.08c4.62 6.41 10.56 12.06 17.02 18.92a.29.29 0 0 0 .5-.16q1.21-8.29-.29-17.02a.25.25 0 0 1 .44-.21q10.06 12.09 16.57 24.59 7.5 14.4 6.25 30.47a.67.67 0 0 0 .85.69c17.61-5.08 31.49-19.38 37.87-36.59q5.29-14.26 4.73-27.26-.39-9.33-.99-13.52c-2.15-15.12-7.52-30.61-9.51-45.98q-3.48-26.96 8.84-52.12" vector-effect="non-scaling-stroke"/><path stroke="#7b5a29" d="M447.59 294.89q2.72-3.55.22 3.37" vector-effect="non-scaling-stroke"/><path stroke="#71481d" d="M447.81 298.26q-7.03 24.89-2 50.48 1.26 6.4 3.39 14.87c2.79 11.09 4.8 19.73 6.34 29.63q3.23 20.79-3.05 40.39a1.85 1.84-54.7 0 0 .28 1.67c7.8 10.48 19.52 19.38 30.77 25.68q8.73 4.88 14.73 8.1c4.98 2.66 10.63 4.73 15.34 6.94a.34.33 24.1 0 1 .17.42v.02a.34.34 0 0 1-.41.21q-12.9-3.45-20.81-6-16.49-5.31-31-15.88" vector-effect="non-scaling-stroke"/><path stroke="#817049" d="m461.56 454.79-2.41-1.83a.38.38 0 0 0-.6.24c-1.85 10.94-7.2 19.93-13.74 27.63-5.07 5.97-8.58 10-10.39 15.63a.3.3 0 0 0 .43.36l11.03-5.77a.33.33 0 0 1 .42.49q-2.76 3.7-4.51 8.26c-2.56 6.7-5.32 14.35-6.29 21.56-2.08 15.44-.94 32.05.2 46.54a.29.29 0 0 1-.55.14l-3.07-6.8a.1.1 0 0 0-.19.02c-2.24 10.76-5.7 20.35-10.74 33.95-4.08 11.02-8.66 21.19-12.69 31.51q-9.2 23.58-13.4 49.69-1.86 11.53-5 29.9-1.88 10.93-7.02 19.95" vector-effect="non-scaling-stroke"/><path stroke="#7b5a29" d="M383.04 726.26q-.42.45-.72.39-.46-.09-.4-.57.63-4.82.5-9.91a.6.59 86.4 0 0-.65-.58c-9.01.87-13.62 6.68-17.69 14.02-6.56 11.84-11.73 23.99-17.41 36.03-5.75 12.19-10.57 26.54-9.23 40.11q.26 2.62 1.25 5.03a1.23 1.22-12.6 0 0 1.21.76q5.58-.36 10.05-3.86 4.52-3.54 7.03-6.56a.34.34 0 0 1 .58.34q-3.33 8.43-10.67 14.42" vector-effect="non-scaling-stroke"/><path stroke="#71481d" d="m346.89 815.88-4.78 1.74a.38.38 0 0 0-.18.58q4.53 6.45 12.03 8.83 4.07 1.28 6.68-.09 5.76-3.03 11.71-9.82" vector-effect="non-scaling-stroke"/><path stroke="#7b5a29" d="m372.35 817.12 4.93-7.12a.43.43 0 0 1 .78.31q-1.2 7.08-5.5 13.56a.24.24 0 0 0 .28.36q4.02-1.47 8.29-5.38c7.23-6.62 12.19-15.25 16.25-24.15" vector-effect="non-scaling-stroke"/><path stroke="#71481d" d="m397.38 794.7 3.29-10.12a.93.93 0 0 0-.45-1.12q-14.65-7.81-23.41-21.16" vector-effect="non-scaling-stroke"/><path stroke="#7b5a29" d="m376.81 762.3-.71-1.35a.32.32 0 0 1 .45-.42l3.97 2.5" vector-effect="non-scaling-stroke"/><path stroke="#71481d" d="M380.52 763.03q16.41 12.95 35.71 18.56 8.12 2.37 14.08 2.6c15.98.62 32.1-5.22 44.22-15.71q14.06-12.19 23.26-28.44c7-12.37 11.1-19.86 14.99-29.63a.27.26-32.6 0 1 .51.11q-.85 14.91-7.3 29.02a.56.55-81.9 0 0 .58.78c6.54-.9 12.88-1.42 20.6-1.47 23.72-.17 49.65-5.64 70.38-17.19 18.98-10.58 36.04-26.01 48.64-43.44" vector-effect="non-scaling-stroke"/><path stroke="#7b5a29" d="m646.19 678.22 1.96-2.68" vector-effect="non-scaling-stroke"/><path stroke="#817049" d="M648.15 675.54q11.05-17.34 18.65-36.5.85-2.16 2.03-6.81" vector-effect="non-scaling-stroke"/><path stroke="#71481d" d="m668.83 632.23 3.38-11.98a.5.5 0 0 0-.61-.62q-10.15 2.91-20.19.98-14.17-2.72-22.82-14.58a.51.51 0 0 0-.83.02q-7.65 11.27-19.86 15.49a.63.63 0 0 1-.83-.65l.73-8.8a.41.41 0 0 0-.72-.3c-5.34 6.42-14.21 11.83-22.65 12.78q-8.95 1-15.81-.42c-9.78-2.02-20.3-9.54-25.73-17.77q-4.73-7.15-5.76-8.69a.31.31 0 0 0-.47-.06l-9.09 8.13a5.81 5.73 81.5 0 0-1.4 1.92c-2.84 6.33-5.52 10.97-9.74 17.31q-2.11 3.17-4.13 6.85" vector-effect="non-scaling-stroke"/><path stroke="#7b5a29" d="M512.3 631.84q-4.55 6.62-8.28 14.75a.07.07 0 0 1-.13-.03q.91-6.43 4.91-13.88" vector-effect="non-scaling-stroke"/><path stroke="#71481d" d="m508.8 632.68 10.64-19.75a.27.27 0 0 0-.39-.34c-11.79 8.44-26.73 16.14-40.76 7.57a.36.36 0 0 0-.55.28q-.26 3.01.46 5.76a.51.51 0 0 1-.65.61q-8.93-2.96-14.6-10.44a3.25 3.13-1.1 0 0-.79-.73q-6.15-3.94-10.13-10.47" vector-effect="non-scaling-stroke"/><path stroke="#7b5a29" d="M452.03 605.17q-7.86-13.34-4.51-29.88a.49.48 47.8 0 1 .96.05q1.27 11.56 6.18 22.55" vector-effect="non-scaling-stroke"/><path stroke="#71481d" d="M454.66 597.89q1.31 3 3.44 5.21a.36.36 0 0 0 .62-.2l.27-2.12a.67.67 0 0 1 1.29-.17q4.29 10.45 12.63 17.77a.36.36 0 0 0 .59-.22l.87-6.67a.54.54 0 0 1 .85-.36q2.89 2.15 6.56 4.05c7.34 3.8 16.58 2.26 23.36-1.81q15.4-9.23 28.58-22.04a1.23 1.23 0 0 0 .31-1.25q-2.54-8.1-3.17-17.39" vector-effect="non-scaling-stroke"/><path stroke="#7b5a29" d="m530.86 572.69.08-3.32a.41.4 36.9 0 1 .79-.11l2.12 6.52" vector-effect="non-scaling-stroke"/><path stroke="#71481d" d="M533.85 575.78q4.86 12.62 9.77 20.36c6.56 10.35 16.53 19.87 28.85 21.75a2.08 2.06 21.4 0 0 2.01-.87q2.55-3.72 3-7.9" vector-effect="non-scaling-stroke"/><path stroke="#7b5a29" d="M577.48 609.12q1.07-8.07-2.01-15.86-.21-.52-.08-.78a.42.42 0 0 1 .71-.07q5.79 7.48 6.31 16.53" vector-effect="non-scaling-stroke"/><path stroke="#71481d" d="M582.41 608.94q.21 4.91-1.87 8.94a.52.52 0 0 0 .5.76q9.11-.8 15.93-6.39 3.09-2.53 3.71-4.33 1.25-3.61.71-9.58" vector-effect="non-scaling-stroke"/><path stroke="#7b5a29" d="M601.39 598.34q-1-9.64-6.34-17.5a.28.28 0 0 1 .41-.37q5.85 4.94 9.18 12.14c.97 2.11 1.34 5.22 1.94 7.62a.25.25 0 0 0 .48.03q3.72-9.84 1.25-20.28" vector-effect="non-scaling-stroke"/><path stroke="#817049" d="M608.31 579.98c-2.5-15.07-12.47-30.38-22.71-41.33q-5.86-6.27-9.98-9.47c-9.16-7.15-20.47-10.93-32.14-9.63-10.58 1.18-18.92 3.81-29.84 8.04-6.74 2.61-13.07 6.03-20.25 9.55q-2.96 1.45-13.39 8.38" vector-effect="non-scaling-stroke"/><path stroke="#7b5a29" d="M480 545.52q10.48-14.6 26.9-21.57a.58.57-25.9 0 0 .28-.8c-3.19-5.91-5.97-13.23-6.12-19.87a.31.31 0 0 1 .58-.16l8.07 13.93" vector-effect="non-scaling-stroke"/><path stroke="#71481d" d="M509.71 517.05q1.15 2.23 2.89 3.73a.86.84-33.5 0 0 .85.16l11.04-3.97" vector-effect="non-scaling-stroke"/><path stroke="#7b5a29" d="M524.49 516.97q9.65-3.38 21.51-4.08c17.03-1.01 31.81 7.14 43.03 19.1q13.27 14.16 19.89 28.33c6.92 14.85 10.25 30.76 2.02 45.68a1.26 1.25 55 0 0-.14.81l1.19 6.84a.14.14 0 0 0 .22.09q6.44-4.39 12.12-12.01a1.78 1.78 0 0 0 .23-1.73c-5.28-13.26-3.36-26.39 1.28-40.19q7.4-21.93 24-38.02" vector-effect="non-scaling-stroke"/><path stroke="#71481d" d="M649.84 521.79q6.42-6.31 12.88-9.73" vector-effect="non-scaling-stroke"/><path stroke="#7b5a29" d="M662.72 512.06q12-5.8 23.95-4.04" vector-effect="non-scaling-stroke"/><path stroke="#817049" d="m686.67 508.02 5.16 1.16a.71.7-80.2 0 0 .84-.6q2.16-16.83-4.71-31.54" vector-effect="non-scaling-stroke"/><path stroke="#7b5a29" d="M687.96 477.04q.03-.16.08-.28a.38.38 0 0 1 .6-.14q4.38 3.91 6.99 9.45" vector-effect="non-scaling-stroke"/><path stroke="#817049" d="m695.63 486.07 3.16 7.06a.28.27-53.5 0 0 .52-.08c.76-5.46.9-10.95-1.14-16.67q-2.65-7.42-4.82-10.71-3.16-4.77-6.01-9.85" vector-effect="non-scaling-stroke"/><path stroke="#7b5a29" d="M687.34 455.82q.3-.43 2.08.81" vector-effect="non-scaling-stroke"/><path stroke="#817049" d="M689.42 456.63q4.28 3.7 11 5.4a.3.3 0 0 0 .31-.48c-3.55-4.54-11.13-12.04-14.33-18.5q-3.31-6.71-4.87-13.03a.51.51 0 0 0-.83-.27q-1.22 1.01-1.94 2.43" vector-effect="non-scaling-stroke"/><path stroke="#71481d" d="m678.76 432.18-16.13 16.69a.51.5 57.2 0 1-.83-.19q-.04-.12.18-.46 5.16-7.85 9.9-15.99" vector-effect="non-scaling-stroke"/><path stroke="#817049" d="M671.88 432.23c5.94-9.62 12.71-19.72 17.27-29.65 4.75-10.35 8.36-19.99 9.8-31.16q1.43-10.99-.22-18.81-1.76-8.39-5.75-16.14c-4.15-8.05-10.79-14.59-14.54-22.55-3.89-8.23-5-14.26-8.11-26.28-4.3-16.61-12.95-31.11-24.36-44.72" vector-effect="non-scaling-stroke"/><path stroke="#7b5a29" d="M645.97 242.92q1.3.27 2.35 1.32" vector-effect="non-scaling-stroke"/><path stroke="#71481d" d="M648.32 244.24q7.56 5.95 9.3 7.65c11.09 10.77 18.5 28.03 21.97 43.32 1.53 6.77 2.46 14.38 6.82 20.12q9.17 12.07 13.81 19.97c6.61 11.26 7.25 24.46 5.88 37.09a1.34 1.32 29.3 0 0 .28.97q8.28 10.2 19.82 16.2 10.78 5.6 22.7 2.67a.58.58 0 0 0 .4-.78q-1.92-4.62-2.7-10.21-2.49-17.64 1.08-36.12 1.18-6.12 1.54-10.37a.28.28 0 0 1 .53-.09l5.3 11.73a.54.54 0 0 0 1.02-.12l2.25-11.55" vector-effect="non-scaling-stroke"/><path stroke="#817049" d="M758.32 334.72q2.06-12.03.66-24.22c-1.82-15.9-11.71-26.65-25.49-33.5q-9.07-4.5-14.85-7.65c-14.78-8.04-25.7-19.54-38.71-32.95-7.11-7.32-14.95-13.23-25.19-13.23a.58.58 0 0 1-.39-1.01l5.71-5.11a.51.51 0 0 0-.27-.88q-15.73-2.16-29.98 4.45a.42.42 0 0 0-.14.66l2.42 2.76" vector-effect="non-scaling-stroke"/><path stroke="#7b5a29" d="M632.09 224.04q3.63 3.36 5.45 7.45" vector-effect="non-scaling-stroke"/><path stroke="#817049" d="M637.54 231.49q-15.21-10.67-32.38-16.75-12.15-4.31-22.96-6.34c-23.2-4.37-48.68-1.54-70.06 7.53-24.57 10.43-44.65 27.19-60.87 47.89a.64.63 24.5 0 1-.63.23c-11.14-2.41-24.59-2.37-35.16 2.37a.13.13 0 0 0 0 .24l7.46 3.49a.36.36 0 0 1-.02.66q-.79.31-4.71 1.92-13.1 5.37-17.68 19.2-.54 1.64-7.28 21.1-5.35 15.45-14.54 29.42c-4.39 6.67-12.16 15.49-16.91 21.34-7.58 9.32-11.98 20.03-7.75 31.43q2.23 6.02 6.27 11.39" vector-effect="non-scaling-stroke"/><path stroke="#f3c46e" d="m637.54 231.49 1.58 2.23a.53.53 0 0 1-.67.78q-4.55-2.39-9.29-4.96-4.85-2.62-9.59-4.31-9.27-3.31-19.09-7.03c-3-1.14-5.85-1.62-8.88-2.39q-2.91-.74-6.8-1.23c-15.29-1.94-30.76-3.42-45.34-.36q-13.85 2.9-30.54 9.7-6.28 2.56-11.63 6.13-13.75 9.16-23.36 16.64-4.18 3.25-6.37 5.36-9.14 8.81-17.55 18.54a.78.77-58.1 0 1-.89.21q-10.35-4.34-22.2-2.84a.53.53 0 0 0-.2.99l4.82 2.78a.7.7 0 0 1-.3 1.3q-11.78.88-18.79 9.91-1.37 1.77-4.33 5.93-.46.65-.63 1.41-.28 1.29-.39 1.48-2.85 5.08-6.62 17.24-1.17 3.75-6.16 16.45-2.1 5.34-4.38 9.5c-3.88 7.04-7.23 13-12.07 19.97q-1.14 1.64-6.99 7.94-7.77 8.35-11.45 18.01-1.71 4.5-1.54 7.66.39 7.07.78 11.89a6.75 6.63-59.6 0 0 .55 2.18q.92 2.05 1.1 4.01M632.09 224.04l13.89-3.63a1.04.92-48.6 0 1 .24-.03l3.64-.02a1.05 1.05 0 0 1 .92 1.58l-1.19 2.07a.86.86 0 0 0 .62 1.28q5.92.84 11.62 3.4 3.62 1.62 11.1 7.87 2.18 1.83 8.88 9.65c5.37 6.27 10.32 11.27 15.94 15.84q6.68 5.44 14.97 11.3c7.06 4.99 15.45 9.03 21.19 12.01 8.02 4.16 13.67 9.88 17.01 17.93 2.89 6.96 5.39 12.7 5.46 20.41" vector-effect="non-scaling-stroke"/><path stroke="#e39c42" d="m756.38 323.7-8.24-13.58a.57.57 0 0 0-1.06.26q-.62 8.78-3.58 17.07c-1.93 5.4-2.68 7.99-3.88 12.72a.32.32 0 0 1-.61.02q-3.2-8.96-10.19-15.35a.22.22 0 0 0-.31.01q-.14.16-.04.41 1.92 5.06 2.81 10.98 1.75 11.6 3.83 21.88 2.79 13.76 9.86 26.65.32.57.29.74a1.14 1.14 0 0 1-1.57.86c-16.95-7.14-29.09-27.34-33.23-43.85-.56-2.23-1.98-4.87-2.94-7.17q-.79-1.91-2.55-5.24-8.18-15.4-14.13-31.57-3.81-10.37-6.31-15.28-4.36-8.53-8.1-14.44-8.53-13.45-21.44-22.31-3.33-2.28-6.67-2.27" vector-effect="non-scaling-stroke"/><path stroke="#f3c46e" d="M645.97 242.92q-1.34-1.05-2.06-.87a.84.84 0 0 0-.44 1.36q6.98 8.31 12.33 17.87 3.1 5.54 5.18 12.57 2.38 8.01 5.83 18.02c1.51 4.39 2.9 10.6 3.95 14.78 1.37 5.51 3.53 9.87 6.97 13.99q9.73 11.67 14.29 25.92 2.16 6.77 1.9 13.48-.41 10.58-1.52 15.7-1.23 5.68-3.82 15.61-1.44 5.52-6.79 14.03a4.7 4.33-20.8 0 0-.44.88q-4.45 12.46-11.14 23.75" vector-effect="non-scaling-stroke"/><path stroke="#e39c42" d="M670.21 430.01q-1.77 2.05-6.21 8.46-4.44 6.4-13.77 14.42" vector-effect="non-scaling-stroke"/><path stroke="#7b5a29" d="M650.23 452.89q1.95-10.11 1.01-20.43a.3.29 48.7 0 0-.58-.04q-.66 3.03-1.05 6.07-1.03 8.02-5.23 17.9-6.59 15.5-21 24.06c-26.88 15.97-62 2.14-83.88-15.51a.06.05-40.3 0 0-.07 0l-.19.17a.45.45 0 0 0-.04.63q6.4 7.52 14.16 13.71" vector-effect="non-scaling-stroke"/><path stroke="#e39c42" d="M553.36 479.45q-3.22-.43-6.16-1.37-5.56-1.76-6.03-1.86-7.45-1.59-13.09-2.77c-6.12-1.28-10.43-3.15-16.09-4.92-8.03-2.51-16.49-8.11-21.78-11.75q-18.17-12.5-23.3-33.53c-1.88-7.73-2.08-16.5-2.37-24.25q-.26-6.84-2.15-16.21-3.46-17.2-7.11-29.47-4.7-15.78-5.42-20.77-2.18-15.12-1.45-28.29a1.66.74-69 0 0-.01-.19l-.59-5.81M447.59 294.89q-4.6 3.01-7.48 8.11-1.29 2.3-4.36 10.22-7.36 19.02-4.75 39.79 1.8 14.3 3.87 26.53 2.27 13.46 2.42 18.27c.45 13.94-1.19 27.12-7.41 39.09q-2.45 4.72-8.52 13.21c-2.79 3.91-7.25 7.29-10.85 11.15a.81.8-18.1 0 1-1.38-.7q1.13-5.87 1.67-9.77c.78-5.6-.3-12.72-1.99-20.62-1.57-7.34-4.19-15.2-6.15-22.15-1.93-6.85-2.56-11.46-3.04-18.25a.29.28 56.4 0 0-.54-.11c-3.97 8.08-4.69 18.52-3.42 27.09a.41.41 0 0 1-.72.33l-4.04-4.86a.37.28 79.1 0 0-.09-.08q-15.3-10.63-24.82-25.9a.29.29 0 0 0-.54.1q-1.67 10.21-1.71 21.24a1.58 1.51 30.8 0 0 .22.79q1.3 2.28 1.35 4.71" vector-effect="non-scaling-stroke"/><path stroke="#71481d" d="M553.36 479.45q10.49 7.5 22.44 11.45c22.66 7.49 51.96 2.43 65.93-18.42q5.99-8.95 8.5-19.59" vector-effect="non-scaling-stroke"/><path stroke="#e8b162" d="m678.76 432.18 2.83 8.75" vector-effect="non-scaling-stroke"/><path stroke="#e39c42" d="M681.59 440.93Q671 452.7 667.26 456.01q-6.24 5.53-12.82 10.7-2.45 1.93-3.67 4.31-3.09 6.06-6.11 12.37c-3.43 7.15-10.14 13.72-17.29 18.68-12.93 8.96-28.4 10.44-43.27 6.58-8.21-2.14-16.11-7.31-23.6-12.37q-3.72-2.51-6.76-2.97-7.84-1.19-18.61-4.09c-5.38-1.45-12.4-2.26-18.26-3.96-4.79-1.39-11.91-1.75-17.64-4.09-3.71-1.51-8.38-2.76-10.86-3.4-4.84-1.25-9.76-4.12-13.73-5.65q-2.53-.97-3.8-.04-7.68 5.64-15.87 10.37-1.76 1.03-2.98 2.95" vector-effect="non-scaling-stroke"/><path stroke="#e8b162" d="M451.99 485.4q-3.86 2.31-7.67 2.71a.44.44 0 0 1-.48-.46q.07-.88.79-1.77 2.28-2.83 4.67-5.49c6.51-7.24 10.66-15.92 12.26-25.6M758.32 334.72q-1.56.32-1.45-.72.6-5.58-.49-10.3M671.88 432.23l-2.95 2.76a.74.74 0 0 1-1.21-.76q.68-2.24 2.49-4.22" vector-effect="non-scaling-stroke"/><path stroke="#f3c46e" d="m689.42 456.63-7.83-15.7M687.34 455.82q-.96-.61-1.37.21-.26.53.04 1.24 2.14 5.13 4.74 9.92c3.27 6.03 4.73 12.15 4.88 18.88M687.96 477.04q-.95-.75-1.63-.73a.5.49 82.9 0 0-.47.61q3.63 15.21.81 31.1" vector-effect="non-scaling-stroke"/><path stroke="#e39c42" d="M662.72 512.06q1.87-3.16 2.22-5.57c.64-4.32.94-9.25-.54-13.54q-2.16-6.21-5.82-11.2a.41.41 0 0 0-.72.38c2.97 8.03 4.45 19.83-.18 27.48a.74.74 0 0 1-1.34-.17q-1.62-5.36-5.06-8.9-.21-.21-.67-.26a.45.45 0 0 0-.49.52q1.5 9.86-.28 20.99M524.49 516.97q-8.09-1.85-10.07-8.13-2.61-8.31-3.12-17.2a.47.46 55.1 0 0-.89-.16q-5.12 11.9-.17 23.41.55 1.28-.53 2.16" vector-effect="non-scaling-stroke"/><path stroke="#f3c46e" d="M480 545.52q.07 2.31.74 1.91 4.8-2.84 8.87-4.34 4.01-1.47 7.61-3.58 5.67-3.33 12.68-5.38c3.91-1.14 7.05-3.24 11.3-4.38q12.72-3.42 13.72-3.7c9.62-2.69 22.47-2.25 31.58 3.97 3.75 2.56 7.04 4.2 10.49 7.32q6.66 6.03 12.45 12.48 2.49 2.78 6.36 8.69 5.83 8.92 5.91 9.05 2.64 4.39 5.11 12.6a1.05 1.03-82.2 0 0 .44.59q.99.65 1.05-.77" vector-effect="non-scaling-stroke"/><path stroke="#e39c42" d="M601.39 598.34c-3.12 3.25-4.21 5.9-8.32 7.71-4.72 2.09-6.28 3.11-10.66 2.89M577.48 609.12c-6.53 1.16-12.15-.22-17.29-4.26-3.9-3.06-8.34-5.58-11.63-9.08-4.95-5.26-7.18-9.45-11.98-17.32q-.39-.64-.74-.86-.45-.27-.39-.89a.82.81 10.4 0 0-.61-.87q-.42-.11-.99-.06M530.86 572.69q-4.6 6.03-6.81 8.1-2.05 1.93-11.5 9.6-4.02 3.25-8.4 5.77c-7.9 4.55-16.07 8.39-24.91 7.29q-6.19-.78-9.42-1.11a2.52 2.52 0 0 1-1.51-.71q-.45-.43-6.44-6.68-1.47-1.53-2.65-4.23a.59.58-41.9 0 0-1.04-.05l-1.97 3.42a1.05 1.05 0 0 0-.14.56q.05.75.34 1.29a.8.79 54.9 0 1-.16.95q-.64.61-1.59 1M452.03 605.17l-.98 2.55a1.16 1.15 41.9 0 0 .06.96q3.78 7.2 9.5 14.91c7.92 10.7 19.29 15.58 32.34 13.72q2.41-.35 7.94-2.19 3.74-1.25 7.91-2.44M512.3 631.84q3.1-1.54 5.87-3.26 3.36-2.07 5.8-3.39 5.91-3.19 10.37-7.93a1.68 1.68 0 0 1 2.61.19c5.57 8.03 15.02 15.57 24.4 18.32q15.77 4.64 31.49-1.61c3.16-1.26 6.8-3.79 9.88-5.77a8.96 8.91-63.6 0 1 4.03-1.37c6.9-.6 12.85-3.64 18.24-7.53a.84.83 53.8 0 1 1.15.18c9.1 12.27 22.63 15.79 37.54 13.56" vector-effect="non-scaling-stroke"/><path stroke="#f3c46e" d="M663.68 633.23q-3.68 15.89-12.28 31.64-2.41 4.42-3.25 10.67" vector-effect="non-scaling-stroke"/><path stroke="#e39c42" d="M646.19 678.22q-2.23-1.05-3.95.77-3.6 3.79-6.98 6.28-10.23 7.51-21.26 13.94-8.89 5.18-25.67 11.05-30.05 10.52-61.87 6.61-3.21-.39-5.57-2.21a2.89 2.72 5.4 0 1-.74-.84q-4.41-7.72-5.72-15.65a.47.47 0 0 0-.92-.03c-.76 3.15-1.33 5.83-2.91 8.82q-7.07 13.34-8.65 15.48c-4.21 5.71-6.89 10.48-11.05 15.68q-7 8.76-14.24 14.84-9.15 7.69-14.31 11.01c-11.63 7.49-27.39 11.72-41.1 10.06q-.15-.02-9.75-1.15-4.26-.51-9.51-2.26-10.49-3.5-21.47-7.59M376.81 762.3q-1.36 2.86.06 5.83 7.51 15.77 20.51 26.57M372.35 817.12q-5.4 3.07-12.09 4.43-9.44 1.93-13.37-5.67" vector-effect="non-scaling-stroke"/><path stroke="#f3c46e" d="M383.04 726.26q.76.96 1.73.26 1.66-1.19 2.87-3.23c1.83-3.07 3.77-6.16 5.16-9.25q1.39-3.11 2.18-7.83 1.82-10.9 6.39-35.91 1.58-8.64 4.09-16.35c3.35-10.29 5.42-17.44 9.99-27.51q2.97-6.54 4.87-11.43 9-23.06 9.5-24.47c2.4-6.67 3.3-10.3 4.25-18.04q.23-1.9.74-3.04a.35.35 0 0 1 .64-.01l2.12 4.69a.23.23 0 0 0 .44-.04l1.44-6.03a4.39 3.97 56.2 0 0 .12-.82q.55-11.24.27-19.51-.28-8.09.6-14.43c.76-5.44 1-18.38 4.08-26.82 1.72-4.73 2.59-9.62 4.49-14.27q1.35-3.31 2.98-6.82" vector-effect="non-scaling-stroke"/><path stroke="#e8b162" d="M668.83 632.23q-.42-1.48-1.58-1.06-.98.36-3.57 2.06" vector-effect="non-scaling-stroke"/><path stroke="#71481d" d="M703.22 500.32q-1.09 3.8-3.89 6.08a1.66 1.64-16.5 0 0-.59 1.07l-.46 3.48a1.18 1.17-71.5 0 0 .58 1.17q10.72 6.24 17.48 17.07" vector-effect="non-scaling-stroke"/><path stroke="#817049" d="M716.34 529.19q2.24 4.3 3.99 9.2.19.52.16.79a.34.34 0 0 1-.62.17q-7.26-10.4-16.99-17.7c-10.85-8.15-24.97-10.71-36.92-3.9-12.22 6.97-19.7 16.94-27.1 29.6q-7.34 12.55-9.73 25.9" vector-effect="non-scaling-stroke"/><path stroke="#7b5a29" d="M629.13 573.25c-1.82 8.8-1.67 19.69 3.57 27.4a.25.24 29.8 0 0 .45-.12q.57-12.19 9.02-21.54a.32.32 0 0 1 .53.34q-3.28 7.57-4.37 15.9" vector-effect="non-scaling-stroke"/><path stroke="#71481d" d="M638.33 595.23q-.77 4.83-.04 9.7c1.19 7.99 16.29 9.93 22.49 9.4a.4.4 0 0 0 .34-.54q-1.82-4.66-1.8-9.01" vector-effect="non-scaling-stroke"/><path stroke="#7b5a29" d="M659.32 604.78q-.01-9.05 4.46-16.99a.35.35 0 0 1 .65.24q-1.53 7.57-.3 16.5" vector-effect="non-scaling-stroke"/><path stroke="#71481d" d="M664.13 604.53q.36 3.35 2.54 7.92a1.65 1.65 0 0 0 1.89.89q7.07-1.78 12.76-7.04c9.99-9.24 16.02-21.91 18.74-35.36" vector-effect="non-scaling-stroke"/><path stroke="#7b5a29" d="m700.06 570.94 2.82-14.66a.22.22 0 0 1 .43 0l.95 4.67" vector-effect="non-scaling-stroke"/><path stroke="#71481d" d="M704.26 560.95c.21 3.88.69 8.16.3 11.74q-1.78 16.24-10.57 29.93a.61.61 0 0 0 .28.89q2.83 1.13 6.23.89 12.41-.87 19.26-11.63 6.8-10.66 8.2-21.39" vector-effect="non-scaling-stroke"/><path stroke="#7b5a29" d="M727.96 571.38q2.27-14.38-1.7-28.49" vector-effect="non-scaling-stroke"/><path stroke="#817049" d="M726.26 542.89q-2.91-10.95-5.26-15.61-7.74-15.3-16.48-29.89a.38.37 35.8 0 0-.69.11l-.61 2.82" vector-effect="non-scaling-stroke"/><path stroke="#f3c46e" d="m726.26 542.89-2.48 4.41a.6.59-44.4 0 1-1.04-.01q-.82-1.52-2.24-3.04-3.93-4.2-7.57-8.34c-2.88-3.27-6.85-7.18-9.68-9.09q-3.71-2.48-11.99-5.69-.21-.08-.29-.21a.35.35 0 0 0-.23-.16q-15.29-3.27-28.09 5.44c-2.41 1.63-4.23 3.79-6.51 5.6q-1.98 1.57-4.45 4.69c-2.57 3.23-5.37 5.64-7.91 9.31q-4.06 5.83-4.73 7.25c-3.04 6.43-6.42 13.63-8.62 21.74a.48.48 0 0 1-.72.28q-.69-.43-.58-1.82" vector-effect="non-scaling-stroke"/><path stroke="#e8b162" d="M716.34 529.19q-.23-4.55-2.75-9.57-2.5-4.95-4.9-8.3a8.77 8.45 15.3 0 1-.75-1.26l-4.72-9.74" vector-effect="non-scaling-stroke"/><path stroke="#e39c42" d="M727.96 571.38q-2.29 7.42-9.5 8.9-4.93 1.01-7.25-3.51-2.66-5.19-3.85-9.87-.67-2.63-3.1-5.95M700.06 570.94c-1.33.54-1.53 3.02-2.1 3.99q-2.73 4.65-5.64 9.13-3.36 5.15-9.91 11.6-8.09 7.99-18.28 8.87M659.32 604.78q-6.56 1.41-11.94.12-4.1-.99-7.32-4.72a3.88 3.84-73.2 0 1-.81-1.53l-.92-3.42" vector-effect="non-scaling-stroke"/><path stroke="#71481d" d="M273.65 570.04q-1.84 11.68 2.12 23.69 5 15.13 15.12 26.72a.3.3 0 0 1-.34.48q-8.83-3.36-16.76-8.81a.17.17 0 0 0-.26.18c6.32 26.1 28.76 42.48 55.12 47.17a.32.31-76.7 0 1 .24.4q-.12.43-.76.55-13.47 2.42-16.44 3.01-3 .61-6.52.4a.22.22 0 0 0-.15.39q9.37 7.85 20.48 9.77 20.66 3.57 40.06-4.2.5-.2.6.33.06.29-.15.6-3.76 5.55-9.53 10.99a.56.55 25.4 0 0 .35.96c11.64.85 22.17-3.25 31.03-10.3a2.73 2.71-13.6 0 0 .96-1.56l4.56-22.22" vector-effect="non-scaling-stroke"/><path stroke="#7b5a29" d="m393.38 648.59 5.52-17.57" vector-effect="non-scaling-stroke"/><path stroke="#817049" d="m398.9 631.02 2.29-6.01a.31.31 0 0 0-.28-.42c-26.92-1.1-54.1-15.24-73.97-33.1q-22.73-20.43-36.57-48.88-.77-1.58-1.38-3.78a.49.49 0 0 0-.85-.19c-3.11 3.8-5.32 8.5-5.75 13.54-1 11.75 2.22 22.59 8.51 32.46a.16.16 0 0 1-.24.21q-10.52-9.25-14.67-22.23a.37.37 0 0 0-.52-.22q-.34.18-.46.59-1.03 3.46-1.36 7.05" vector-effect="non-scaling-stroke"/><path stroke="#f3c46e" d="M398.9 631.02q-2.15-1.9-3.89-1.94-12.38-.26-23.44-4.13-1.98-.7-17.08-7.41c-6.98-3.1-12.11-6.78-18.24-11.26-6.35-4.65-13.42-9.51-18.21-15.08q-8.84-10.28-17.62-20.61-5.41-6.36-7.16-10.09-2.48-5.26-5.47-9.52a.39.39 0 0 0-.71.16q-.98 5.72.02 11.04 3.09 16.49 10.79 31.08-11.3-5.88-21.13-15.94" vector-effect="non-scaling-stroke"/><path stroke="#e8b162" d="m276.76 577.32-1.7-4.52a.75.74 12.6 0 0-.2-.31q-1.19-1.1-1.21-2.45" vector-effect="non-scaling-stroke"/><path stroke="#e39c42" d="M393.38 648.59q-25.69 8.2-51.63 2.39a.9.9 0 0 1-.4-1.55l2.16-1.94a.89.89 0 0 0-.48-1.55q-13.03-1.66-25.48-6.5-2.76-1.07-4.89-2.57a.61.6 53.6 0 1 .16-1.07l6.89-2.23a.81.81 0 0 0 .39-1.27q-.03-.05-.24-.16c-12.25-6.26-23.59-14.16-31.02-25.74q-8.63-13.46-12.08-29.08" vector-effect="non-scaling-stroke"/><path stroke="#71481d" d="M650.72 684.89q-10.09 12.3-12.86 15.22-7.22 7.63-19.73 17.22-10.62 8.15-21.77 13.37c-15.76 7.39-31.35 12.58-48.09 13.97a4.92 4.91-69.7 0 0-3.05 1.41q-3.9 3.9-9.65 5.71-5.77 1.82-8.45 3.61c-4.96 3.3-6.52 12.24-7.19 17.73q-2.14 17.67-4.68 33.27c-1.07 6.59-1.25 12.36-1.05 18.56q.32 9.72 5.9 16.54a2.55 2.55 0 0 0 3.3.57c6.04-3.67 8.83-9.59 11.8-16.33a.27.27 0 0 1 .52.11c-.12 6.82-2.45 15.96-7.96 20.44a.35.35 0 0 0 .16.61c7.51 1.43 15.31 1.35 19.48-5.97q3.91-6.87 5.58-14.94a.51.51 0 0 1 1 .06q.66 6.6-.96 12.26a.32.32 0 0 0 .55.29l3.87-4.61" vector-effect="non-scaling-stroke"/><path stroke="#817049" d="M557.44 833.99c7.75-10.62 10.85-24.56 11.62-37.51a1.2 1.2 0 0 0-.94-1.25l-3.96-.85" vector-effect="non-scaling-stroke"/><path stroke="#71481d" d="M564.16 794.38q-8.97-2.32-16.35-8.96a.28.27-16.5 0 1 .26-.47c13.23 3.36 27.4 5.46 40.93 4.76q14.29-.73 27.48-6.14" vector-effect="non-scaling-stroke"/><path stroke="#7b5a29" d="M616.48 783.57q1.26-.34 1.5-.72" vector-effect="non-scaling-stroke"/><path stroke="#817049" d="M617.98 782.85c14.52-6.09 25.6-19.1 30.78-33.58 7.32-20.44 7.53-44.57 3.92-66.16a.32.32 0 0 0-.51-.2q-.97.77-1.45 1.98" vector-effect="non-scaling-stroke"/><path stroke="#f3c46e" d="M617.98 782.85q3.37-4.53 8-8.11 2.05-1.58 2.87-2.65c2.05-2.68 4.46-4.49 6.4-7.46q3.28-5.03 4.61-8.76 4.08-11.52 6.33-20.68 2.74-11.13 3.06-17.69.37-7.46.14-23.17" vector-effect="non-scaling-stroke"/><path stroke="#e8b162" d="m649.39 694.33 1.33-9.44" vector-effect="non-scaling-stroke"/><path stroke="#e39c42" d="M649.39 694.33q-1.85 2.39-2.82 4.86c-.51 1.3-1.48 1.97-1.9 3.01q-2.96 7.41-5.43 10.81-4.93 6.77-8.73 12.42c-4.72 7.02-11.43 14.28-16.85 19.63-5.85 5.77-10.66 12.73-11.79 19.73-1.59 9.78 3.42 16.38 13.29 16.53a.63.63 0 0 1 .62.63q0 1.22.7 1.62" vector-effect="non-scaling-stroke"/><path stroke="#e8b162" d="M564.16 794.38q.69 8.96-.33 13.05-2.5 9.97-3.69 16.07a5.62 4.27-37.3 0 1-.19.68l-3.43 9.16a.5.49 8.9 0 0 .49.67l.43-.02" vector-effect="non-scaling-stroke"/><path stroke="#7b5a29" d="M608.06 313.7q1.8 1.51 2.92 4.02a.36.35-7.1 0 1-.39.49q-5.92-.98-11.79-.39a.4.4 0 0 0-.03.79q16.93 2.97 31.84 11.9a.42.42 0 0 0 .53-.64q-3.81-4.19-9.4-7.36a.59.59 0 0 1-.11-.94c9.61-9.04 19.81-11.28 32.65-12.79a.31.31 0 0 0 .15-.56q-.22-.15-.64-.21a.78.77 4.4 0 1-.66-.76q0-1.36.57-2.72" vector-effect="non-scaling-stroke"/><path stroke="#e39c42" d="M653.7 304.53q.87.43 1.2-.52 2.31-6.79 1.7-14.66-.54-7.12-2.7-14.63c-4.09-14.27-17.5-25.9-32.66-27.96-12.35-1.68-22.86 5.96-26.54 17.43q-2.98 9.27-1.39 18.58 3.15 18.44 14.75 30.93" vector-effect="non-scaling-stroke"/><path stroke="#71481d" d="M653.7 304.53c1.96-15.17-7.72-28.35-22.5-31.49-11.43-2.43-23.63 3.53-26.65 15.29q-1.84 7.15.18 14.32 1.54 5.47 3.33 11.05" vector-effect="non-scaling-stroke"/><path stroke="#7b5a29" d="M483.96 349.16q-1.06.45-1.41.87a.34.33 11.2 0 0 .36.53q2.6-.79 4.88-1.48 19.67-6.02 38.73.24a1.12 1.12 0 0 0 1.3-.48q2.46-3.95 3.38-8.53" vector-effect="non-scaling-stroke"/><path stroke="#e39c42" d="m531.2 340.31 4.5-2.29a1.08 1.07 83.9 0 0 .56-.7q5.18-21.77-4.54-41.01c-4.08-8.08-11-15.04-19.24-17.94q-18.02-6.32-31.98 6.94c-10.08 9.59-13.74 25.12-11.18 38.72q2.03 10.78 6.19 16.79a.49.43-86.4 0 0 .07.09l8.38 8.25" vector-effect="non-scaling-stroke"/><path stroke="#71481d" d="M531.2 340.31c2.15-12.53-.65-26.08-11.15-34.1-8.99-6.86-20.29-5.97-29.26.49-6.12 4.4-9.8 11.51-11.25 18.85q-2.5 12.67 6.02 22.03a.53.52 48.4 0 1-.04.75q-.76.68-1.56.83" vector-effect="non-scaling-stroke"/><path stroke="#f5d6a6" d="M663.58 320.23a.32.32 0 0 1-.21-.13l-4.38-6.13a.32.32 0 0 0-.58.14l-1.09 7.46a.32.32 0 0 1-.13.21l-6.13 4.38a.32.32 0 0 0 .14.58l7.46 1.09a.32.32 0 0 1 .21.13l4.38 6.13a.32.32 0 0 0 .58-.14l1.09-7.46a.32.32 0 0 1 .13-.21l6.13-4.38a.32.32 0 0 0-.14-.58l-7.46-1.09" vector-effect="non-scaling-stroke"/><path stroke="#7b5a29" d="M644.71 358.5a.57.57 0 0 0 .55.91l5.76-1a.67.67 0 0 1 .78.68c-.5 11.55-2.81 22.99-11.4 31.05-10.51 9.87-27.93 5.05-39.19-1.33a1.5 1.49 10.1 0 1-.73-1.04l-1.72-9.85a.94.94 0 0 1 .45-.97q13.3-7.94 19.66-22.05c3.79-8.41 4.69-21.16-4.43-26.13q-6.28-3.43-14.46-3.3-20.8.34-38.77 11c-10.76 6.38-14.54 17.24-5.19 27.3 9.07 9.77 22.22 14.83 35.34 15.05a1.01 1-4.2 0 1 .97.83l1.61 9.26a1.87 1.86 57.9 0 1-.32 1.42q-7.14 9.86-17.52 16.7-15.51 10.22-33.42 3.75c-10.79-3.89-18.47-10.32-26.2-18.42a.62.62 0 0 1 .29-1.03l8.18-2.04a.64.63 51.9 0 0 .14-1.18q-7.52-3.93-14.56-.58-9.39 4.46-9.42 15.06a.65.65 0 0 0 1.16.41q3.67-4.66 8.23-8.17a.68.67-34.4 0 1 .99.18c3.73 6.04 9.75 11.62 13.66 17.68 9.01 13.97 18.75 27.12 30.18 38.58 4.19 4.2 10.08 8.88 14.95 11.96q9.27 5.86 20.67 7.64c13.07 2.05 28.46-2.14 37.04-12.63 7.83-9.58 10.51-20.81 11.21-33.25q.72-12.95.96-25.07a2.22 2.21 74.2 0 1 1.02-1.83c13.08-8.28 15.24-24.1 15.7-38.37a.62.62 0 0 1 .77-.58l8.65 2.12a.3.3 0 0 0 .35-.41c-4.71-10.32-15.29-10.86-21.94-2.35" vector-effect="non-scaling-stroke"/><path stroke="#f3c46e" d="M528.31 356.31q.99.61 1.83.54a1.1 1.09-75.5 0 0 .8-.48q1.33-1.9 2.99-3.65 8.15-8.6 16.33-16.68 1.56-1.54 3.12-2.6a1.5 1.48 59.5 0 0 .48-1.9q-.16-.32-.85-.29" vector-effect="non-scaling-stroke"/><path stroke="#7b5a29" d="m553.01 331.25.82-.75a.32.31 14.4 0 0-.32-.53q-19.68 6.42-25.2 26.34" vector-effect="non-scaling-stroke"/><path stroke="#817049" d="M553.01 331.25q-14.3 9.39-24.7 25.06" vector-effect="non-scaling-stroke"/><path stroke="#f5d6a6" d="M484.09 363.1a.35.35 0 0 1-.23-.15l-4.4-6.23a.35.35 0 0 0-.63.15l-1.3 7.51a.35.35 0 0 1-.15.23l-6.23 4.4a.35.35 0 0 0 .15.63l7.51 1.3a.35.35 0 0 1 .23.15l4.4 6.23a.35.35 0 0 0 .63-.15l1.3-7.51a.35.35 0 0 1 .15-.23l6.23-4.4a.35.35 0 0 0-.15-.63l-7.51-1.3" vector-effect="non-scaling-stroke"/><path stroke="#80792c" d="m312.81 265.91-11.44 1.99a1.04 1.04 0 0 0-.86.95q-1.68 20.17 10.03 36a1.04 1.03-33.9 0 0 1.37.26l11.14-6.89a.57.57 0 0 0 .11-.88c-7.02-7.34-11.29-17.64-10.04-27.83q.36-2.93.36-3.06a.57.57 0 0 0-.67-.54" vector-effect="non-scaling-stroke"/><path stroke="#3d2615" d="M609.05 290.3q.88.18 2.17-.14a.18.17 85 0 1 .21.18q-.02.38.08.41a.56.52-42.6 0 0 .35 0q9.94-3.31 18.85 2.84c4.34 2.99 5.95 9.76 6.14 14.54a.74.73 81.4 0 0 .92.68l4.28-1.14" vector-effect="non-scaling-stroke"/><path stroke="#838281" d="m642.05 307.67 7.9-.75a.55.55 0 0 0 .5-.56q-.5-16.75-15.07-24.4-6.91-3.62-14.36-2.18-8.82 1.72-11.97 10.52" vector-effect="non-scaling-stroke"/><path stroke="#b7a292" d="M642.05 307.67q-.23-16.03-14.47-20.75-10.05-3.33-18.53 3.38" vector-effect="non-scaling-stroke"/><path stroke="#838281" d="M622.72 297.56a5.71 5.71 0 0 0-5.71-5.71 5.71 5.71 0 0 0-5.71 5.71 5.71 5.71 0 0 0 5.71 5.71 5.71 5.71 0 0 0 5.71-5.71M634.59 305.67a3.06 3.06 0 0 0-3.06-3.06 3.06 3.06 0 0 0-3.06 3.06 3.06 3.06 0 0 0 3.06 3.06 3.06 3.06 0 0 0 3.06-3.06" vector-effect="non-scaling-stroke"/><path stroke="#3d2615" d="m494.54 343.91 4.25-1.12a.87.86 73.5 0 0 .6-1.12c-3.39-9.9-1.13-21.7 9.81-25.21q5.24-1.69 10.96.94a2.56 2.52 62.2 0 0 .69.22q1.58.27 4.22 1.56" vector-effect="non-scaling-stroke"/><path stroke="#838281" d="M525.07 319.18q-5.15-9.79-15.14-10.72c-13.42-1.24-23.77 10.01-24.76 22.76q-.61 7.81 2.48 14.82a.6.6 0 0 0 .77.32l6.12-2.45" vector-effect="non-scaling-stroke"/><path stroke="#b7a292" d="M525.07 319.18q-4.15-4.85-9.61-5.9-7.13-1.37-13.03 2.22c-8.64 5.27-11.58 14.82-9.04 24.21l1.15 4.2" vector-effect="non-scaling-stroke"/><path stroke="#838281" d="M521.26 323.12a5.81 5.81 0 0 0-5.81-5.81 5.81 5.81 0 0 0-5.81 5.81 5.81 5.81 0 0 0 5.81 5.81 5.81 5.81 0 0 0 5.81-5.81M505.74 336.72a2.86 2.86 0 0 0-2.86-2.86 2.86 2.86 0 0 0-2.86 2.86 2.86 2.86 0 0 0 2.86 2.86 2.86 2.86 0 0 0 2.86-2.86M583.74 334.65q-8.89 2.21-15.48 6.09-2.55 1.5-3.69 2.95a1.24 1.24 0 0 0 .57 1.93q1.5.52 3.62.38c5.77-.39 11.29-1.5 17.08-2.94 5.78-1.45 11.18-3.06 16.45-5.43q1.94-.87 3.02-2.03a1.24 1.24 0 0 0-.4-1.97q-1.69-.75-4.65-.88-7.64-.32-16.52 1.9" vector-effect="non-scaling-stroke"/><path stroke="#783634" d="M603.21 440.87q-6.38-5.38-13.79-8.54c-11.9-5.07-25.96-3-36.7 4.41a1.16 1.16 0 0 0-.18 1.77q4.94 5.11 11.18 10.85c10.1 9.28 22.03 15.05 36.01 14.44q6.79-.3 12.61-3.01 14.5-6.77 18.28-23.19a1.81 1.8 27.8 0 0-.55-1.76c-6.32-5.68-15.24-10.75-23.95-10.32q-5.94.3-11.9 2.86a.71.71 0 0 0-.17 1.2q6.28 5.07 9.81 10.73a.43.43 0 0 1-.65.56" vector-effect="non-scaling-stroke"/><path stroke="#2d6378" d="M224.35 368.56a10.97 10.97 0 0 0-10.97-10.97 10.97 10.97 0 0 0-10.97 10.97 10.97 10.97 0 0 0 10.97 10.97 10.97 10.97 0 0 0 10.97-10.97" vector-effect="non-scaling-stroke"/><path stroke="#7b5a29" d="M812.29 412.33a.91.9 38.9 0 0-1.46.15c-4.83 8.38-13.26 12.69-22.98 10.23a.7.7 0 0 0-.86.8l1.38 7.94a1.91 1.9 88.2 0 0 1.66 1.56c11.25 1.28 21.83-2.61 27.69-13.14a1.47 1.46-51.6 0 0-.19-1.68l-5.24-5.86" vector-effect="non-scaling-stroke"/><path stroke="#f3c46e" d="M627.79 545.98a3.19 3.17-76.8 0 0 2.17-1.36q4.39-6.44 4.11-14.89-.22-6.98-3.81-14.24-.94-1.93-2.39-2.89a.34.34 0 0 0-.51.4q4.99 13.19 1.46 26.79c-.58 2.25-1.81 4.41-2.59 5.55a.51.51 0 0 0 .49.79l1.07-.15M637.96 531.73q3.38-3.2 4-4.19a6.08 4.97-61.7 0 1 .48-.71c1.62-2.16-.58-9.91-1.94-12.49a.66.64 51.1 0 0-1.07-.13q-.18.21-.18.57-.07 8.58-2.6 15.95-.22.62.54 1.11.39.26.77-.11" vector-effect="non-scaling-stroke"/><path stroke="#7b5a29" d="M290.36 469.85a.71.71 0 0 0 .83-.53l2.21-9.01a.47.46 11.1 0 0-.38-.56c-8.04-1.18-16.8-.47-23.03 5.22a2.06 2.05-28.3 0 0-.61 2.02l1.8 7.21a.87.87 0 0 0 1.43.44q7.47-6.8 17.75-4.79" vector-effect="non-scaling-stroke"/><path stroke="#752c56" d="M813.82 493.78q.1 1.1.55 3.5c1.39 7.42.07 14.96-3.3 21.85a1.14 1.13 25.6 0 0 .54 1.52l9.89 4.62a.76.76 0 0 0 1.03-.41q5.75-14.52 2.56-30.27a.82.82 0 0 0-.74-.66l-9.86-.82a.62.62 0 0 0-.67.67M350.43 509.04a1.12 1.12 0 0 0-.38 2.06q8.87 5.28 11.16 17.06a1.18 1.18 0 0 0 1.16.95h11.07a.47.46 84.3 0 0 .45-.56q-2.31-11.87-11.87-19.56a5.68 5.67 59.4 0 0-4.55-1.17l-7.04 1.22" vector-effect="non-scaling-stroke"/><path stroke="#80792c" d="m188.15 557.92 6.59-11.41a.36.36 0 0 0-.13-.49q-7.83-4.37-16.1-6.56a.94.94 0 0 0-1.06.44l-7 12.11a.51.51 0 0 0 .37.76q8.49 1.36 16.42 5.42a.69.68-61.3 0 0 .91-.27M802.57 630.14a9.35 9.35 0 0 0-9.35-9.35 9.35 9.35 0 0 0-9.35 9.35 9.35 9.35 0 0 0 9.35 9.35 9.35 9.35 0 0 0 9.35-9.35" vector-effect="non-scaling-stroke"/><path stroke="#2d6378" d="M742.1 707.82a.64.64 0 0 0-.13-.8l-15.57-13.78a.64.64 0 0 0-.98.16l-6.55 11.34a.64.64 0 0 0 .13.8l15.58 13.77a.64.64 0 0 0 .98-.16l6.54-11.33" vector-effect="non-scaling-stroke"/><path stroke="#752c56" d="M283.72 728.15a12.61 12.61 0 0 0-12.61-12.61 12.61 12.61 0 0 0-12.61 12.61 12.61 12.61 0 0 0 12.61 12.61 12.61 12.61 0 0 0 12.61-12.61" vector-effect="non-scaling-stroke"/></g><path fill="#fdfefe" d="M589.72 145.3q.48 1.38 1.92 2.81 3.07 3.03 12.07 10.73 1.85 1.58 3.35.79 16.72-8.83 21.5-27.66 1.13-4.46-2.32-6.32-7.18-3.87-9.71-5.11c-2.75-1.34-3.71-.71-4.44 2.12q-.71 2.72-1.21 4.22c-3.1 9.21-11.15 14.28-20.33 16.85a1.22 1.22 0 0 0-.83 1.57m-147.31-2.974a1.11 1.11 0 0 0-.305-1.54l-26.509-17.746a1.11 1.11 0 0 0-1.54.305l-17.745 26.509a1.11 1.11 0 0 0 .304 1.54l26.509 17.745a1.11 1.11 0 0 0 1.54-.304zm371.78 68.904a19.66 19.66 0 0 0-19.66-19.66 19.66 19.66 0 0 0-19.66 19.66 19.66 19.66 0 0 0 19.66 19.66 19.66 19.66 0 0 0 19.66-19.66M303.62 658.18c-3.4.76-7.74-.37-10.76-.66a.6.6 0 0 0-.57.91c11.72 18.69 34.1 26.3 55.41 22.8a.3.3 0 0 1 .2.55l-4.88 3.01a.63.63 0 0 0 .02 1.08q3.24 1.9 7.94 2.75 18.91 3.46 35.21-7.28a.29.29 0 0 1 .44.28l-3.54 27.12a.62.62 0 0 1-.69.53c-11.38-1.49-18.89 6.3-23.95 15.46q-10.91 19.75-20.85 43.88c-5.22 12.65-9.41 25.79-7.02 39.63 2.71 15.63 14.74 26.03 30.59 26 24.82-.04 40.06-26.34 45.53-47.11a.65.65 0 0 1 .86-.44q35.52 13.66 66.01-7.57 12.37-8.62 20.46-19.59 3.57-4.84 6.42-9.08a4.41 4.39-78 0 1 2.86-1.87q11.4-2.06 24.98-1.88a.09.09 0 0 1 .02.17q-10.96 2.77-13.39 14.3c-1.83 8.67-2.51 16.44-4.09 25.27q-2.31 12.92-3.51 24.11c-1.37 12.79-1.17 26.91 8.72 36.58 8.07 7.88 19.66 9.06 30 4.74q13.28-5.56 20.36-19.27 8.51-16.5 9.27-35.58a.57.57 0 0 1 .63-.55c25.04 2.79 50.07-3.87 67.24-23.24 7.62-8.58 13.12-21.51 15.51-32.43 4.69-21.42 3.6-44.21-1.09-65.94a1.36 1.36 0 0 1 .17-1.01q10.69-17.55 17.17-38.04 2.92-9.25 4.11-19.32a1.21 1.2 78.7 0 1 .6-.91q4.98-2.85 8.57-7a.83.82 28.7 0 1 .87-.25q.02.01 3.11 1.09c12.43 4.36 23.93-1.95 31.99-11.83 9-11.04 12.35-27.33 10.91-41.59q-1.5-14.9-7.18-27.79c-6.09-13.83-14.21-26.59-21.78-39.28a4.89 4.83 31 0 1-.68-2.65q.29-9.21-4.12-17.48a.35.35 0 0 1 .39-.51l7.71 1.89a.73.73 0 0 0 .88-.91q-2.42-8.49-7.89-15.05-6.49-7.79-9.15-11.89-5.28-8.12-7.37-19.38a1.28 1.26-34.8 0 1 .17-.9q3.32-5.35 5.34-8.76 8.68-14.67 12.75-31.29a.36.36 0 0 1 .62-.14c12.16 14.53 33.71 24.67 51.86 14.39a1.24 1.23-24.9 0 0 .56-1.5c-3.22-8.75-5.32-18.62-5.19-28.24q.11-7.87.42-14.09a.14.14 0 0 1 .24-.08l4.79 5.35a.58.58 0 0 0 .97-.19q5.3-14.23 7.46-30.5c2.65-19.93-3.02-38.66-19.35-50.25q-3.02-2.14-8.89-5.3c-7.43-4-15.73-7.99-22.55-12.61q-11.34-7.67-21.47-18.1c-8.83-9.1-15.18-15.93-25.81-20.03a.62.61 43.2 0 1-.04-1.13l4.7-2.12a.69.69 0 0 0 .15-1.17c-13.9-11.05-33.55-7.94-47.94.8a.79.78 44.1 0 1-.81.01c-36.37-21.64-81.9-23.5-120.2-5.29q-33.24 15.81-54.55 45.61a.62.61-65.9 0 1-.64.25q-16.31-3.52-32.01 1.39-9.07 2.84-14.65 10.08a.77.77 0 0 0 .51 1.23l5.36.7a.43.43 0 0 1 .19.78q-10.56 7.14-14.92 19.49-6.56 18.6-7.93 22.32-5.68 15.38-16.5 29.77c-11.44 15.23-28.45 29.47-23.02 51.08 1.89 7.52 7.4 16.13 12.56 21.79q12.47 13.68 26.21 26.84a.47.47 0 0 0 .78-.23l2.58-10.51a.21.2 37.1 0 1 .38-.05c7.95 14.3 12.33 27.76 10.59 43.95a.92.92 0 0 0 .93 1.02q15.55-.2 27.69-9.21 13.68-10.14 21.01-24.84a.34.34 0 0 1 .55-.08l3.88 4.34a1.44 1.43-61.5 0 1 .35 1.19q-2.03 13.56-11.1 24.62c-8.78 10.72-16.59 19.88-16 34.29a.44.44 0 0 0 .7.33l7.12-5.32a.25.25 0 0 1 .37.3q-5.38 11.84-6.07 24.76-.5 9.31.46 18.31a8.79 8.75 52.7 0 1-.53 4.01q-.62 1.59-1.48 4.77-4.64 17-5.82 20.21-8.79 23.88-16.82 42.83a.78.77-77.3 0 1-.74.47c-21.52-.95-42.48-10.21-60.33-22.97-22.95-16.41-40.88-40.16-52.44-65.77a.38.38 0 0 0-.54-.18c-8.83 4.97-12.02 11.64-13.97 21.86a.84.84 0 0 1-.72.68l-.47.07a1.25 1.23-72 0 0-.73.38c-5.7 6.09-7.81 16.31-7.97 24.64q-.27 14.31 6.44 26.77a.47.47 0 0 1-.72.58l-5.21-4.61a.52.52 0 0 0-.87.38q-.23 16.02 6.87 28.98c7.13 13.02 17.06 22.9 30.84 28.48a.31.31 0 0 1-.05.59m25.82-361.11q-.32-.43-3.37-3.5c-8.14-8.21-9.79-19.25-7.3-30.3a1.45 1.45 0 0 0-1.49-1.77q-8.64.43-19.57 2.61a1.6 1.6 0 0 0-1.27 1.33q-3.78 25.61 13.02 44.76a1.5 1.49 53.2 0 0 1.91.28l17.62-10.89a1.72 1.71-34.9 0 0 .45-2.52m-100.21 71.51a15.87 15.87 0 0 0-15.87-15.87 15.87 15.87 0 0 0-15.87 15.87 15.87 15.87 0 0 0 15.87 15.87 15.87 15.87 0 0 0 15.87-15.87m557.59 67.95q18.33 4.07 31.16-9.6 3.37-3.58 4.8-7.69a2.97 2.96-57.4 0 0-.66-3.03q-4.66-4.84-10.17-9.31-2.05-1.66-3.26.39-1.68 2.85-3.41 5.73a5.13 5.09 84.9 0 1-1.01 1.22q-8.59 7.54-19.6 3.24a1.45 1.45 0 0 0-1.96 1.13q-.24 1.57.02 3.39.93 6.32 2.42 12.86a2.21 2.19.3 0 0 1.67 1.67M273 479.46c4.54-4.79 10.99-7.88 17.76-5.21q2.52 1 3.31-1.46 1.87-5.84 3.74-13.29a2.2 2.19 23.1 0 0-.98-2.41c-1.33-.81-3.17-.86-4.67-1.11q-13.6-2.35-24.67 5.98-1.74 1.31-2.39 2.76a1.7 1.7 0 0 0-.13 1q1.41 7.73 4.53 13.3a2.19 2.19 0 0 0 3.5.44m550.74 51.78a.83.82 24.4 0 0 1.1-.41q2.23-4.92 2.98-7.26 4.98-15.73 1.54-31.8a2.52 2.51-3.7 0 0-2.26-1.98l-17.16-1.42a1.08 1.07-61.4 0 0-.77.23q-1.18.95-.6 2.83c3.41 11.07 1.41 19.46-3.48 29.14a1.72 1.71 25.9 0 0 .81 2.33zm-481.96-21.31a.95.94 19.6 0 0 .5 1.05c8.52 4.24 14.58 10.32 15.44 20.3a2.22 2.22 0 0 0 2.24 2.03q6.87-.11 14.06-.47 2.26-.11 3.43-.65a1.87 1.86 73.6 0 0 1.07-1.98q-2.37-15.34-14.17-24.37-2.69-2.06-4.29-2.12-6.37-.2-15.5 3.4-.94.37-1.64 1.2-1.05 1.25-1.14 1.61m-151.56 53.51 10.05-17.42a1.15 1.14 37.9 0 0-.18-1.39q-1.56-1.57-4.11-2.87-8.49-4.38-17.77-7.13a2.5 2.49-64.4 0 0-2.76.98c-4.44 6.41-8.42 12.06-10.91 18.08a1.61 1.61 0 0 0 1.22 2.21c8.12 1.35 15.92 3.61 22.82 7.95a1.18 1.18 0 0 0 1.64-.41m616.98 66.75a14.05 14.05 0 0 0-14.05-14.05 14.05 14.05 0 0 0-14.05 14.05 14.05 14.05 0 0 0 14.05 14.05 14.05 14.05 0 0 0 14.05-14.05m-93.5 74.57a1.91 1.91 0 0 0 .39 2.38l20.39 18.06a1.91 1.91 0 0 0 2.92-.47l9.76-16.9a1.91 1.91 0 0 0-.39-2.38l-20.4-18.06a1.91 1.91 0 0 0-2.92.48zm-425.07 23.47a17.44 17.44 0 0 0-17.44-17.44 17.44 17.44 0 0 0-17.44 17.44 17.44 17.44 0 0 0 17.44 17.44 17.44 17.44 0 0 0 17.44-17.44"/><path fill="#090604" d="M589.72 145.3a1.22 1.22 0 0 1 .83-1.57c9.18-2.57 17.23-7.64 20.33-16.85q.5-1.5 1.21-4.22c.73-2.83 1.69-3.46 4.44-2.12q2.53 1.24 9.71 5.11 3.45 1.86 2.32 6.32-4.78 18.83-21.5 27.66-1.5.79-3.35-.79-9-7.7-12.07-10.73-1.44-1.43-1.92-2.81m6.45.71a.62.61-32.7 0 0-.23 1.05l8.8 7.79a1.43 1.42-38.1 0 0 1.62.19q14.41-7.77 18-24.13a1.99 1.98 21.4 0 0-.94-2.14l-6.35-3.66a1.12 1.11-68.2 0 0-1.64.71c-2.35 9.95-9.75 17.32-19.26 20.19M424.664 168.835a1.11 1.11 0 0 1-1.54.304l-26.509-17.745a1.11 1.11 0 0 1-.305-1.54l17.746-26.509a1.11 1.11 0 0 1 1.54-.305l26.509 17.746a1.11 1.11 0 0 1 .304 1.54zm11.213-26.034a.53.53 0 0 0-.15-.734l-19.27-12.705a.53.53 0 0 0-.733.15l-12.98 19.687a.53.53 0 0 0 .15.734l19.268 12.705a.53.53 0 0 0 .734-.15z"/><path fill="#d88936" d="M596.17 146.01c9.51-2.87 16.91-10.24 19.26-20.19a1.12 1.11-68.2 0 1 1.64-.71l6.35 3.66a1.99 1.98 21.4 0 1 .94 2.14q-3.59 16.36-18 24.13a1.43 1.42-38.1 0 1-1.62-.19l-8.8-7.79a.62.61-32.7 0 1 .23-1.05"/><rect width="24.14" height="24.64" x="-12.07" y="-12.32" fill="#51c0ec" rx=".53" transform="rotate(33.4 -33.667 771.817)"/><path fill="#090604" d="M814.19 211.23a19.66 19.66 0 0 1-19.66 19.66 19.66 19.66 0 0 1-19.66-19.66 19.66 19.66 0 0 1 19.66-19.66 19.66 19.66 0 0 1 19.66 19.66m-8.679-9.99a14.83 14.6-42.4 0 0-20.796-.781 14.83 14.6-42.4 0 0-1.106 20.78 14.83 14.6-42.4 0 0 20.796.782 14.83 14.6-42.4 0 0 1.106-20.78"/><ellipse fill="#f6eb54" rx="14.83" ry="14.6" transform="rotate(-42.4 669.585 -918.629)"/><path fill="#090604" d="M303.62 658.18a.31.31 0 0 0 .05-.59c-13.78-5.58-23.71-15.46-30.84-28.48q-7.1-12.96-6.87-28.98a.52.52 0 0 1 .87-.38l5.21 4.61a.47.47 0 0 0 .72-.58q-6.71-12.46-6.44-26.77c.16-8.33 2.27-18.55 7.97-24.64a1.25 1.23-72 0 1 .73-.38l.47-.07a.84.84 0 0 0 .72-.68c1.95-10.22 5.14-16.89 13.97-21.86a.38.38 0 0 1 .54.18c11.56 25.61 29.49 49.36 52.44 65.77 17.85 12.76 38.81 22.02 60.33 22.97a.78.77-77.3 0 0 .74-.47q8.03-18.95 16.82-42.83 1.18-3.21 5.82-20.21.86-3.18 1.48-4.77a8.79 8.75 52.7 0 0 .53-4.01q-.96-9-.46-18.31.69-12.92 6.07-24.76a.25.25 0 0 0-.37-.3l-7.12 5.32a.44.44 0 0 1-.7-.33c-.59-14.41 7.22-23.57 16-34.29q9.07-11.06 11.1-24.62a1.44 1.43-61.5 0 0-.35-1.19l-3.88-4.34a.34.34 0 0 0-.55.08q-7.33 14.7-21.01 24.84-12.14 9.01-27.69 9.21a.92.92 0 0 1-.93-1.02c1.74-16.19-2.64-29.65-10.59-43.95a.21.2 37.1 0 0-.38.05l-2.58 10.51a.47.47 0 0 1-.78.23q-13.74-13.16-26.21-26.84c-5.16-5.66-10.67-14.27-12.56-21.79-5.43-21.61 11.58-35.85 23.02-51.08q10.82-14.39 16.5-29.77 1.37-3.72 7.93-22.32 4.36-12.35 14.92-19.49a.43.43 0 0 0-.19-.78l-5.36-.7a.77.77 0 0 1-.51-1.23q5.58-7.24 14.65-10.08 15.7-4.91 32.01-1.39a.62.61-65.9 0 0 .64-.25q21.31-29.8 54.55-45.61c38.3-18.21 83.83-16.35 120.2 5.29a.79.78 44.1 0 0 .81-.01c14.39-8.74 34.04-11.85 47.94-.8a.69.69 0 0 1-.15 1.17l-4.7 2.12a.62.61 43.2 0 0 .04 1.13c10.63 4.1 16.98 10.93 25.81 20.03q10.13 10.43 21.47 18.1c6.82 4.62 15.12 8.61 22.55 12.61q5.87 3.16 8.89 5.3c16.33 11.59 22 30.32 19.35 50.25q-2.16 16.27-7.46 30.5a.58.58 0 0 1-.97.19l-4.79-5.35a.14.14 0 0 0-.24.08q-.31 6.22-.42 14.09c-.13 9.62 1.97 19.49 5.19 28.24a1.24 1.23-24.9 0 1-.56 1.5c-18.15 10.28-39.7.14-51.86-14.39a.36.36 0 0 0-.62.14q-4.07 16.62-12.75 31.29-2.02 3.41-5.34 8.76a1.28 1.26-34.8 0 0-.17.9q2.09 11.26 7.37 19.38 2.66 4.1 9.15 11.89 5.47 6.56 7.89 15.05a.73.73 0 0 1-.88.91l-7.71-1.89a.35.35 0 0 0-.39.51q4.41 8.27 4.12 17.48a4.89 4.83 31 0 0 .68 2.65c7.57 12.69 15.69 25.45 21.78 39.28q5.68 12.89 7.18 27.79c1.44 14.26-1.91 30.55-10.91 41.59-8.06 9.88-19.56 16.19-31.99 11.83q-3.09-1.08-3.11-1.09a.83.82 28.7 0 0-.87.25q-3.59 4.15-8.57 7a1.21 1.2 78.7 0 0-.6.91q-1.19 10.07-4.11 19.32-6.48 20.49-17.17 38.04a1.36 1.36 0 0 0-.17 1.01c4.69 21.73 5.78 44.52 1.09 65.94-2.39 10.92-7.89 23.85-15.51 32.43-17.17 19.37-42.2 26.03-67.24 23.24a.57.57 0 0 0-.63.55q-.76 19.08-9.27 35.58-7.08 13.71-20.36 19.27c-10.34 4.32-21.93 3.14-30-4.74-9.89-9.67-10.09-23.79-8.72-36.58q1.2-11.19 3.51-24.11c1.58-8.83 2.26-16.6 4.09-25.27q2.43-11.53 13.39-14.3a.09.09 0 0 0-.02-.17q-13.58-.18-24.98 1.88a4.41 4.39-78 0 0-2.86 1.87q-2.85 4.24-6.42 9.08-8.09 10.97-20.46 19.59-30.49 21.23-66.01 7.57a.65.65 0 0 0-.86.44c-5.47 20.77-20.71 47.07-45.53 47.11-15.85.03-27.88-10.37-30.59-26-2.39-13.84 1.8-26.98 7.02-39.63q9.94-24.13 20.85-43.88c5.06-9.16 12.57-16.95 23.95-15.46a.62.62 0 0 0 .69-.53l3.54-27.12a.29.29 0 0 0-.44-.28q-16.3 10.74-35.21 7.28-4.7-.85-7.94-2.75a.63.63 0 0 1-.02-1.08l4.88-3.01a.3.3 0 0 0-.2-.55c-21.31 3.5-43.69-4.11-55.41-22.8a.6.6 0 0 1 .57-.91c3.02.29 7.36 1.42 10.76.66m56.7-251.57 4.99 6.47c4.62 6.41 10.56 12.06 17.02 18.92a.29.29 0 0 0 .5-.16q1.21-8.29-.29-17.02a.25.25 0 0 1 .44-.21q10.06 12.09 16.57 24.59 7.5 14.4 6.25 30.47a.67.67 0 0 0 .85.69c17.61-5.08 31.49-19.38 37.87-36.59q5.29-14.26 4.73-27.26-.39-9.33-.99-13.52c-2.15-15.12-7.52-30.61-9.51-45.98q-3.48-26.96 8.84-52.12 2.72-3.55.22 3.37-7.03 24.89-2 50.48 1.26 6.4 3.39 14.87c2.79 11.09 4.8 19.73 6.34 29.63q3.23 20.79-3.05 40.39a1.85 1.84-54.7 0 0 .28 1.67c7.8 10.48 19.52 19.38 30.77 25.68q8.73 4.88 14.73 8.1c4.98 2.66 10.63 4.73 15.34 6.94a.34.33 24.1 0 1 .17.42v.02a.34.34 0 0 1-.41.21q-12.9-3.45-20.81-6-16.49-5.31-31-15.88l-2.41-1.83a.38.38 0 0 0-.6.24c-1.85 10.94-7.2 19.93-13.74 27.63-5.07 5.97-8.58 10-10.39 15.63a.3.3 0 0 0 .43.36l11.03-5.77a.33.33 0 0 1 .42.49q-2.76 3.7-4.51 8.26c-2.56 6.7-5.32 14.35-6.29 21.56-2.08 15.44-.94 32.05.2 46.54a.29.29 0 0 1-.55.14l-3.07-6.8a.1.1 0 0 0-.19.02c-2.24 10.76-5.7 20.35-10.74 33.95-4.08 11.02-8.66 21.19-12.69 31.51q-9.2 23.58-13.4 49.69-1.86 11.53-5 29.9-1.88 10.93-7.02 19.95-.42.45-.72.39-.46-.09-.4-.57.63-4.82.5-9.91a.6.59 86.4 0 0-.65-.58c-9.01.87-13.62 6.68-17.69 14.02-6.56 11.84-11.73 23.99-17.41 36.03-5.75 12.19-10.57 26.54-9.23 40.11q.26 2.62 1.25 5.03a1.23 1.22-12.6 0 0 1.21.76q5.58-.36 10.05-3.86 4.52-3.54 7.03-6.56a.34.34 0 0 1 .58.34q-3.33 8.43-10.67 14.42l-4.78 1.74a.38.38 0 0 0-.18.58q4.53 6.45 12.03 8.83 4.07 1.28 6.68-.09 5.76-3.03 11.71-9.82l4.93-7.12a.43.43 0 0 1 .78.31q-1.2 7.08-5.5 13.56a.24.24 0 0 0 .28.36q4.02-1.47 8.29-5.38c7.23-6.62 12.19-15.25 16.25-24.15l3.29-10.12a.93.93 0 0 0-.45-1.12q-14.65-7.81-23.41-21.16l-.71-1.35a.32.32 0 0 1 .45-.42l3.97 2.5q16.41 12.95 35.71 18.56 8.12 2.37 14.08 2.6c15.98.62 32.1-5.22 44.22-15.71q14.06-12.19 23.26-28.44c7-12.37 11.1-19.86 14.99-29.63a.27.26-32.6 0 1 .51.11q-.85 14.91-7.3 29.02a.56.55-81.9 0 0 .58.78c6.54-.9 12.88-1.42 20.6-1.47 23.72-.17 49.65-5.64 70.38-17.19 18.98-10.58 36.04-26.01 48.64-43.44l1.96-2.68q11.05-17.34 18.65-36.5.85-2.16 2.03-6.81l3.38-11.98a.5.5 0 0 0-.61-.62q-10.15 2.91-20.19.98-14.17-2.72-22.82-14.58a.51.51 0 0 0-.83.02q-7.65 11.27-19.86 15.49a.63.63 0 0 1-.83-.65l.73-8.8a.41.41 0 0 0-.72-.3c-5.34 6.42-14.21 11.83-22.65 12.78q-8.95 1-15.81-.42c-9.78-2.02-20.3-9.54-25.73-17.77q-4.73-7.15-5.76-8.69a.31.31 0 0 0-.47-.06l-9.09 8.13a5.81 5.73 81.5 0 0-1.4 1.92c-2.84 6.33-5.52 10.97-9.74 17.31q-2.11 3.17-4.13 6.85-4.55 6.62-8.28 14.75a.07.07 0 0 1-.13-.03q.91-6.43 4.91-13.88l10.64-19.75a.27.27 0 0 0-.39-.34c-11.79 8.44-26.73 16.14-40.76 7.57a.36.36 0 0 0-.55.28q-.26 3.01.46 5.76a.51.51 0 0 1-.65.61q-8.93-2.96-14.6-10.44a3.25 3.13-1.1 0 0-.79-.73q-6.15-3.94-10.13-10.47-7.86-13.34-4.51-29.88a.49.48 47.8 0 1 .96.05q1.27 11.56 6.18 22.55 1.31 3 3.44 5.21a.36.36 0 0 0 .62-.2l.27-2.12a.67.67 0 0 1 1.29-.17q4.29 10.45 12.63 17.77a.36.36 0 0 0 .59-.22l.87-6.67a.54.54 0 0 1 .85-.36q2.89 2.15 6.56 4.05c7.34 3.8 16.58 2.26 23.36-1.81q15.4-9.23 28.58-22.04a1.23 1.23 0 0 0 .31-1.25q-2.54-8.1-3.17-17.39l.08-3.32a.41.4 36.9 0 1 .79-.11l2.12 6.52q4.86 12.62 9.77 20.36c6.56 10.35 16.53 19.87 28.85 21.75a2.08 2.06 21.4 0 0 2.01-.87q2.55-3.72 3-7.9 1.07-8.07-2.01-15.86-.21-.52-.08-.78a.42.42 0 0 1 .71-.07q5.79 7.48 6.31 16.53.21 4.91-1.87 8.94a.52.52 0 0 0 .5.76q9.11-.8 15.93-6.39 3.09-2.53 3.71-4.33 1.25-3.61.71-9.58-1-9.64-6.34-17.5a.28.28 0 0 1 .41-.37q5.85 4.94 9.18 12.14c.97 2.11 1.34 5.22 1.94 7.62a.25.25 0 0 0 .48.03q3.72-9.84 1.25-20.28c-2.5-15.07-12.47-30.38-22.71-41.33q-5.86-6.27-9.98-9.47c-9.16-7.15-20.47-10.93-32.14-9.63-10.58 1.18-18.92 3.81-29.84 8.04-6.74 2.61-13.07 6.03-20.25 9.55q-2.96 1.45-13.39 8.38 10.48-14.6 26.9-21.57a.58.57-25.9 0 0 .28-.8c-3.19-5.91-5.97-13.23-6.12-19.87a.31.31 0 0 1 .58-.16l8.07 13.93q1.15 2.23 2.89 3.73a.86.84-33.5 0 0 .85.16l11.04-3.97q9.65-3.38 21.51-4.08c17.03-1.01 31.81 7.14 43.03 19.1q13.27 14.16 19.89 28.33c6.92 14.85 10.25 30.76 2.02 45.68a1.26 1.25 55 0 0-.14.81l1.19 6.84a.14.14 0 0 0 .22.09q6.44-4.39 12.12-12.01a1.78 1.78 0 0 0 .23-1.73c-5.28-13.26-3.36-26.39 1.28-40.19q7.4-21.93 24-38.02 6.42-6.31 12.88-9.73 12-5.8 23.95-4.04l5.16 1.16a.71.7-80.2 0 0 .84-.6q2.16-16.83-4.71-31.54.03-.16.08-.28a.38.38 0 0 1 .6-.14q4.38 3.91 6.99 9.45l3.16 7.06a.28.27-53.5 0 0 .52-.08c.76-5.46.9-10.95-1.14-16.67q-2.65-7.42-4.82-10.71-3.16-4.77-6.01-9.85.3-.43 2.08.81 4.28 3.7 11 5.4a.3.3 0 0 0 .31-.48c-3.55-4.54-11.13-12.04-14.33-18.5q-3.31-6.71-4.87-13.03a.51.51 0 0 0-.83-.27q-1.22 1.01-1.94 2.43l-16.13 16.69a.51.5 57.2 0 1-.83-.19q-.04-.12.18-.46 5.16-7.85 9.9-15.99c5.94-9.62 12.71-19.72 17.27-29.65 4.75-10.35 8.36-19.99 9.8-31.16q1.43-10.99-.22-18.81-1.76-8.39-5.75-16.14c-4.15-8.05-10.79-14.59-14.54-22.55-3.89-8.23-5-14.26-8.11-26.28-4.3-16.61-12.95-31.11-24.36-44.72q1.3.27 2.35 1.32 7.56 5.95 9.3 7.65c11.09 10.77 18.5 28.03 21.97 43.32 1.53 6.77 2.46 14.38 6.82 20.12q9.17 12.07 13.81 19.97c6.61 11.26 7.25 24.46 5.88 37.09a1.34 1.32 29.3 0 0 .28.97q8.28 10.2 19.82 16.2 10.78 5.6 22.7 2.67a.58.58 0 0 0 .4-.78q-1.92-4.62-2.7-10.21-2.49-17.64 1.08-36.12 1.18-6.12 1.54-10.37a.28.28 0 0 1 .53-.09l5.3 11.73a.54.54 0 0 0 1.02-.12l2.25-11.55q2.06-12.03.66-24.22c-1.82-15.9-11.71-26.65-25.49-33.5q-9.07-4.5-14.85-7.65c-14.78-8.04-25.7-19.54-38.71-32.95-7.11-7.32-14.95-13.23-25.19-13.23a.58.58 0 0 1-.39-1.01l5.71-5.11a.51.51 0 0 0-.27-.88q-15.73-2.16-29.98 4.45a.42.42 0 0 0-.14.66l2.42 2.76q3.63 3.36 5.45 7.45-15.21-10.67-32.38-16.75-12.15-4.31-22.96-6.34c-23.2-4.37-48.68-1.54-70.06 7.53-24.57 10.43-44.65 27.19-60.87 47.89a.64.63 24.5 0 1-.63.23c-11.14-2.41-24.59-2.37-35.16 2.37a.13.13 0 0 0 0 .24l7.46 3.49a.36.36 0 0 1-.02.66q-.79.31-4.71 1.92-13.1 5.37-17.68 19.2-.54 1.64-7.28 21.1-5.35 15.45-14.54 29.42c-4.39 6.67-12.16 15.49-16.91 21.34-7.58 9.32-11.98 20.03-7.75 31.43q2.23 6.02 6.27 11.39m342.9 93.71q-1.09 3.8-3.89 6.08a1.66 1.64-16.5 0 0-.59 1.07l-.46 3.48a1.18 1.17-71.5 0 0 .58 1.17q10.72 6.24 17.48 17.07 2.24 4.3 3.99 9.2.19.52.16.79a.34.34 0 0 1-.62.17q-7.26-10.4-16.99-17.7c-10.85-8.15-24.97-10.71-36.92-3.9-12.22 6.97-19.7 16.94-27.1 29.6q-7.34 12.55-9.73 25.9c-1.82 8.8-1.67 19.69 3.57 27.4a.25.24 29.8 0 0 .45-.12q.57-12.19 9.02-21.54a.32.32 0 0 1 .53.34q-3.28 7.57-4.37 15.9-.77 4.83-.04 9.7c1.19 7.99 16.29 9.93 22.49 9.4a.4.4 0 0 0 .34-.54q-1.82-4.66-1.8-9.01-.01-9.05 4.46-16.99a.35.35 0 0 1 .65.24q-1.53 7.57-.3 16.5.36 3.35 2.54 7.92a1.65 1.65 0 0 0 1.89.89q7.07-1.78 12.76-7.04c9.99-9.24 16.02-21.91 18.74-35.36l2.82-14.66a.22.22 0 0 1 .43 0l.95 4.67c.21 3.88.69 8.16.3 11.74q-1.78 16.24-10.57 29.93a.61.61 0 0 0 .28.89q2.83 1.13 6.23.89 12.41-.87 19.26-11.63 6.8-10.66 8.2-21.39 2.27-14.38-1.7-28.49-2.91-10.95-5.26-15.61-7.74-15.3-16.48-29.89a.38.37 35.8 0 0-.69.11zm-429.57 69.72q-1.84 11.68 2.12 23.69 5 15.13 15.12 26.72a.3.3 0 0 1-.34.48q-8.83-3.36-16.76-8.81a.17.17 0 0 0-.26.18c6.32 26.1 28.76 42.48 55.12 47.17a.32.31-76.7 0 1 .24.4q-.12.43-.76.55-13.47 2.42-16.44 3.01-3 .61-6.52.4a.22.22 0 0 0-.15.39q9.37 7.85 20.48 9.77 20.66 3.57 40.06-4.2.5-.2.6.33.06.29-.15.6-3.76 5.55-9.53 10.99a.56.55 25.4 0 0 .35.96c11.64.85 22.17-3.25 31.03-10.3a2.73 2.71-13.6 0 0 .96-1.56l4.56-22.22 5.52-17.57 2.29-6.01a.31.31 0 0 0-.28-.42c-26.92-1.1-54.1-15.24-73.97-33.1q-22.73-20.43-36.57-48.88-.77-1.58-1.38-3.78a.49.49 0 0 0-.85-.19c-3.11 3.8-5.32 8.5-5.75 13.54-1 11.75 2.22 22.59 8.51 32.46a.16.16 0 0 1-.24.21q-10.52-9.25-14.67-22.23a.37.37 0 0 0-.52-.22q-.34.18-.46.59-1.03 3.46-1.36 7.05m377.07 114.85q-10.09 12.3-12.86 15.22-7.22 7.63-19.73 17.22-10.62 8.15-21.77 13.37c-15.76 7.39-31.35 12.58-48.09 13.97a4.92 4.91-69.7 0 0-3.05 1.41q-3.9 3.9-9.65 5.71-5.77 1.82-8.45 3.61c-4.96 3.3-6.52 12.24-7.19 17.73q-2.14 17.67-4.68 33.27c-1.07 6.59-1.25 12.36-1.05 18.56q.32 9.72 5.9 16.54a2.55 2.55 0 0 0 3.3.57c6.04-3.67 8.83-9.59 11.8-16.33a.27.27 0 0 1 .52.11c-.12 6.82-2.45 15.96-7.96 20.44a.35.35 0 0 0 .16.61c7.51 1.43 15.31 1.35 19.48-5.97q3.91-6.87 5.58-14.94a.51.51 0 0 1 1 .06q.66 6.6-.96 12.26a.32.32 0 0 0 .55.29l3.87-4.61c7.75-10.62 10.85-24.56 11.62-37.51a1.2 1.2 0 0 0-.94-1.25l-3.96-.85q-8.97-2.32-16.35-8.96a.28.27-16.5 0 1 .26-.47c13.23 3.36 27.4 5.46 40.93 4.76q14.29-.73 27.48-6.14 1.26-.34 1.5-.72c14.52-6.09 25.6-19.1 30.78-33.58 7.32-20.44 7.53-44.57 3.92-66.16a.32.32 0 0 0-.51-.2q-.97.77-1.45 1.98"/><path fill="#f8d98e" d="m637.54 231.49 1.58 2.23a.53.53 0 0 1-.67.78q-4.55-2.39-9.29-4.96-4.85-2.62-9.59-4.31-9.27-3.31-19.09-7.03c-3-1.14-5.85-1.62-8.88-2.39q-2.91-.74-6.8-1.23c-15.29-1.94-30.76-3.42-45.34-.36q-13.85 2.9-30.54 9.7-6.28 2.56-11.63 6.13-13.75 9.16-23.36 16.64-4.18 3.25-6.37 5.36-9.14 8.81-17.55 18.54a.78.77-58.1 0 1-.89.21q-10.35-4.34-22.2-2.84a.53.53 0 0 0-.2.99l4.82 2.78a.7.7 0 0 1-.3 1.3q-11.78.88-18.79 9.91-1.37 1.77-4.33 5.93-.46.65-.63 1.41-.28 1.29-.39 1.48-2.85 5.08-6.62 17.24-1.17 3.75-6.16 16.45-2.1 5.34-4.38 9.5c-3.88 7.04-7.23 13-12.07 19.97q-1.14 1.64-6.99 7.94-7.77 8.35-11.45 18.01-1.71 4.5-1.54 7.66.39 7.07.78 11.89a6.75 6.63-59.6 0 0 .55 2.18q.92 2.05 1.1 4.01-4.04-5.37-6.27-11.39c-4.23-11.4.17-22.11 7.75-31.43 4.75-5.85 12.52-14.67 16.91-21.34q9.19-13.97 14.54-29.42 6.74-19.46 7.28-21.1 4.58-13.83 17.68-19.2 3.92-1.61 4.71-1.92a.36.36 0 0 0 .02-.66l-7.46-3.49a.13.13 0 0 1 0-.24c10.57-4.74 24.02-4.78 35.16-2.37a.64.63 24.5 0 0 .63-.23c16.22-20.7 36.3-37.46 60.87-47.89 21.38-9.07 46.86-11.9 70.06-7.53q10.81 2.03 22.96 6.34 17.17 6.08 32.38 16.75"/><path fill="#edae4e" d="M637.54 231.49q-1.82-4.09-5.45-7.45l13.89-3.63a1.04.92-48.6 0 1 .24-.03l3.64-.02a1.05 1.05 0 0 1 .92 1.58l-1.19 2.07a.86.86 0 0 0 .62 1.28q5.92.84 11.62 3.4 3.62 1.62 11.1 7.87 2.18 1.83 8.88 9.65c5.37 6.27 10.32 11.27 15.94 15.84q6.68 5.44 14.97 11.3c7.06 4.99 15.45 9.03 21.19 12.01 8.02 4.16 13.67 9.88 17.01 17.93 2.89 6.96 5.39 12.7 5.46 20.41l-8.24-13.58a.57.57 0 0 0-1.06.26q-.62 8.78-3.58 17.07c-1.93 5.4-2.68 7.99-3.88 12.72a.32.32 0 0 1-.61.02q-3.2-8.96-10.19-15.35a.22.22 0 0 0-.31.01q-.14.16-.04.41 1.92 5.06 2.81 10.98 1.75 11.6 3.83 21.88 2.79 13.76 9.86 26.65.32.57.29.74a1.14 1.14 0 0 1-1.57.86c-16.95-7.14-29.09-27.34-33.23-43.85-.56-2.23-1.98-4.87-2.94-7.17q-.79-1.91-2.55-5.24-8.18-15.4-14.13-31.57-3.81-10.37-6.31-15.28-4.36-8.53-8.1-14.44-8.53-13.45-21.44-22.31-3.33-2.28-6.67-2.27-1.05-1.05-2.35-1.32-1.34-1.05-2.06-.87a.84.84 0 0 0-.44 1.36q6.98 8.31 12.33 17.87 3.1 5.54 5.18 12.57 2.38 8.01 5.83 18.02c1.51 4.39 2.9 10.6 3.95 14.78 1.37 5.51 3.53 9.87 6.97 13.99q9.73 11.67 14.29 25.92 2.16 6.77 1.9 13.48-.41 10.58-1.52 15.7-1.23 5.68-3.82 15.61-1.44 5.52-6.79 14.03a4.7 4.33-20.8 0 0-.44.88q-4.45 12.46-11.14 23.75-1.77 2.05-6.21 8.46-4.44 6.4-13.77 14.42 1.95-10.11 1.01-20.43a.3.29 48.7 0 0-.58-.04q-.66 3.03-1.05 6.07-1.03 8.02-5.23 17.9-6.59 15.5-21 24.06c-26.88 15.97-62 2.14-83.88-15.51a.06.05-40.3 0 0-.07 0l-.19.17a.45.45 0 0 0-.04.63q6.4 7.52 14.16 13.71-3.22-.43-6.16-1.37-5.56-1.76-6.03-1.86-7.45-1.59-13.09-2.77c-6.12-1.28-10.43-3.15-16.09-4.92-8.03-2.51-16.49-8.11-21.78-11.75q-18.17-12.5-23.3-33.53c-1.88-7.73-2.08-16.5-2.37-24.25q-.26-6.84-2.15-16.21-3.46-17.2-7.11-29.47-4.7-15.78-5.42-20.77-2.18-15.12-1.45-28.29a1.66.74-69 0 0-.01-.19l-.59-5.81q2.5-6.92-.22-3.37-4.6 3.01-7.48 8.11-1.29 2.3-4.36 10.22-7.36 19.02-4.75 39.79 1.8 14.3 3.87 26.53 2.27 13.46 2.42 18.27c.45 13.94-1.19 27.12-7.41 39.09q-2.45 4.72-8.52 13.21c-2.79 3.91-7.25 7.29-10.85 11.15a.81.8-18.1 0 1-1.38-.7q1.13-5.87 1.67-9.77c.78-5.6-.3-12.72-1.99-20.62-1.57-7.34-4.19-15.2-6.15-22.15-1.93-6.85-2.56-11.46-3.04-18.25a.29.28 56.4 0 0-.54-.11c-3.97 8.08-4.69 18.52-3.42 27.09a.41.41 0 0 1-.72.33l-4.04-4.86a.37.28 79.1 0 0-.09-.08q-15.3-10.63-24.82-25.9a.29.29 0 0 0-.54.1q-1.67 10.21-1.71 21.24a1.58 1.51 30.8 0 0 .22.79q1.3 2.28 1.35 4.71l-4.99-6.47q-.18-1.96-1.1-4.01a6.75 6.63-59.6 0 1-.55-2.18q-.39-4.82-.78-11.89-.17-3.16 1.54-7.66 3.68-9.66 11.45-18.01 5.85-6.3 6.99-7.94c4.84-6.97 8.19-12.93 12.07-19.97q2.28-4.16 4.38-9.5 4.99-12.7 6.16-16.45 3.77-12.16 6.62-17.24.11-.19.39-1.48.17-.76.63-1.41 2.96-4.16 4.33-5.93 7.01-9.03 18.79-9.91a.7.7 0 0 0 .3-1.3l-4.82-2.78a.53.53 0 0 1 .2-.99q11.85-1.5 22.2 2.84a.78.77-58.1 0 0 .89-.21q8.41-9.73 17.55-18.54 2.19-2.11 6.37-5.36 9.61-7.48 23.36-16.64 5.35-3.57 11.63-6.13 16.69-6.8 30.54-9.7c14.58-3.06 30.05-1.58 45.34.36q3.89.49 6.8 1.23c3.03.77 5.88 1.25 8.88 2.39q9.82 3.72 19.09 7.03 4.74 1.69 9.59 4.31 4.74 2.57 9.29 4.96a.53.53 0 0 0 .67-.78zm-29.48 82.21q1.8 1.51 2.92 4.02a.36.35-7.1 0 1-.39.49q-5.92-.98-11.79-.39a.4.4 0 0 0-.03.79q16.93 2.97 31.84 11.9a.42.42 0 0 0 .53-.64q-3.81-4.19-9.4-7.36a.59.59 0 0 1-.11-.94c9.61-9.04 19.81-11.28 32.65-12.79a.31.31 0 0 0 .15-.56q-.22-.15-.64-.21a.78.77 4.4 0 1-.66-.76q0-1.36.57-2.72.87.43 1.2-.52 2.31-6.79 1.7-14.66-.54-7.12-2.7-14.63c-4.09-14.27-17.5-25.9-32.66-27.96-12.35-1.68-22.86 5.96-26.54 17.43q-2.98 9.27-1.39 18.58 3.15 18.44 14.75 30.93m-124.1 35.46q-1.06.45-1.41.87a.34.33 11.2 0 0 .36.53q2.6-.79 4.88-1.48 19.67-6.02 38.73.24a1.12 1.12 0 0 0 1.3-.48q2.46-3.95 3.38-8.53l4.5-2.29a1.08 1.07 83.9 0 0 .56-.7q5.18-21.77-4.54-41.01c-4.08-8.08-11-15.04-19.24-17.94q-18.02-6.32-31.98 6.94c-10.08 9.59-13.74 25.12-11.18 38.72q2.03 10.78 6.19 16.79a.49.43-86.4 0 0 .07.09zm179.62-28.93a.32.32 0 0 1-.21-.13l-4.38-6.13a.32.32 0 0 0-.58.14l-1.09 7.46a.32.32 0 0 1-.13.21l-6.13 4.38a.32.32 0 0 0 .14.58l7.46 1.09a.32.32 0 0 1 .21.13l4.38 6.13a.32.32 0 0 0 .58-.14l1.09-7.46a.32.32 0 0 1 .13-.21l6.13-4.38a.32.32 0 0 0-.14-.58zm-18.87 38.27a.57.57 0 0 0 .55.91l5.76-1a.67.67 0 0 1 .78.68c-.5 11.55-2.81 22.99-11.4 31.05-10.51 9.87-27.93 5.05-39.19-1.33a1.5 1.49 10.1 0 1-.73-1.04l-1.72-9.85a.94.94 0 0 1 .45-.97q13.3-7.94 19.66-22.05c3.79-8.41 4.69-21.16-4.43-26.13q-6.28-3.43-14.46-3.3-20.8.34-38.77 11c-10.76 6.38-14.54 17.24-5.19 27.3 9.07 9.77 22.22 14.83 35.34 15.05a1.01 1-4.2 0 1 .97.83l1.61 9.26a1.87 1.86 57.9 0 1-.32 1.42q-7.14 9.86-17.52 16.7-15.51 10.22-33.42 3.75c-10.79-3.89-18.47-10.32-26.2-18.42a.62.62 0 0 1 .29-1.03l8.18-2.04a.64.63 51.9 0 0 .14-1.18q-7.52-3.93-14.56-.58-9.39 4.46-9.42 15.06a.65.65 0 0 0 1.16.41q3.67-4.66 8.23-8.17a.68.67-34.4 0 1 .99.18c3.73 6.04 9.75 11.62 13.66 17.68 9.01 13.97 18.75 27.12 30.18 38.58 4.19 4.2 10.08 8.88 14.95 11.96q9.27 5.86 20.67 7.64c13.07 2.05 28.46-2.14 37.04-12.63 7.83-9.58 10.51-20.81 11.21-33.25q.72-12.95.96-25.07a2.22 2.21 74.2 0 1 1.02-1.83c13.08-8.28 15.24-24.1 15.7-38.37a.62.62 0 0 1 .77-.58l8.65 2.12a.3.3 0 0 0 .35-.41c-4.71-10.32-15.29-10.86-21.94-2.35m-116.4-2.19q.99.61 1.83.54a1.1 1.09-75.5 0 0 .8-.48q1.33-1.9 2.99-3.65 8.15-8.6 16.33-16.68 1.56-1.54 3.12-2.6a1.5 1.48 59.5 0 0 .48-1.9q-.16-.32-.85-.29l.82-.75a.32.31 14.4 0 0-.32-.53q-19.68 6.42-25.2 26.34m-44.22 6.79a.35.35 0 0 1-.23-.15l-4.4-6.23a.35.35 0 0 0-.63.15l-1.3 7.51a.35.35 0 0 1-.15.23l-6.23 4.4a.35.35 0 0 0 .15.63l7.51 1.3a.35.35 0 0 1 .23.15l4.4 6.23a.35.35 0 0 0 .63-.15l1.3-7.51a.35.35 0 0 1 .15-.23l6.23-4.4a.35.35 0 0 0-.15-.63z"/><path fill="#f8d98e" d="M758.32 334.72q-1.56.32-1.45-.72.6-5.58-.49-10.3c-.07-7.71-2.57-13.45-5.46-20.41-3.34-8.05-8.99-13.77-17.01-17.93-5.74-2.98-14.13-7.02-21.19-12.01q-8.29-5.86-14.97-11.3c-5.62-4.57-10.57-9.57-15.94-15.84q-6.7-7.82-8.88-9.65-7.48-6.25-11.1-7.87-5.7-2.56-11.62-3.4a.86.86 0 0 1-.62-1.28l1.19-2.07a1.05 1.05 0 0 0-.92-1.58l-3.64.02a1.04.92-48.6 0 0-.24.03l-13.89 3.63-2.42-2.76a.42.42 0 0 1 .14-.66q14.25-6.61 29.98-4.45a.51.51 0 0 1 .27.88l-5.71 5.11a.58.58 0 0 0 .39 1.01c10.24 0 18.08 5.91 25.19 13.23 13.01 13.41 23.93 24.91 38.71 32.95q5.78 3.15 14.85 7.65c13.78 6.85 23.67 17.6 25.49 33.5q1.4 12.19-.66 24.22M645.97 242.92c11.41 13.61 20.06 28.11 24.36 44.72 3.11 12.02 4.22 18.05 8.11 26.28 3.75 7.96 10.39 14.5 14.54 22.55q3.99 7.75 5.75 16.14 1.65 7.82.22 18.81c-1.44 11.17-5.05 20.81-9.8 31.16-4.56 9.93-11.33 20.03-17.27 29.65l-2.95 2.76a.74.74 0 0 1-1.21-.76q.68-2.24 2.49-4.22 6.69-11.29 11.14-23.75a4.7 4.33-20.8 0 1 .44-.88q5.35-8.51 6.79-14.03 2.59-9.93 3.82-15.61 1.11-5.12 1.52-15.7.26-6.71-1.9-13.48-4.56-14.25-14.29-25.92c-3.44-4.12-5.6-8.48-6.97-13.99-1.05-4.18-2.44-10.39-3.95-14.78q-3.45-10.01-5.83-18.02-2.08-7.03-5.18-12.57-5.35-9.56-12.33-17.87a.84.84 0 0 1 .44-1.36q.72-.18 2.06.87"/><path fill="#d88936" d="M756.38 323.7q1.09 4.72.49 10.3-.11 1.04 1.45.72l-2.25 11.55a.54.54 0 0 1-1.02.12l-5.3-11.73a.28.28 0 0 0-.53.09q-.36 4.25-1.54 10.37-3.57 18.48-1.08 36.12.78 5.59 2.7 10.21a.58.58 0 0 1-.4.78q-11.92 2.93-22.7-2.67-11.54-6-19.82-16.2a1.34 1.32 29.3 0 1-.28-.97c1.37-12.63.73-25.83-5.88-37.09q-4.64-7.9-13.81-19.97c-4.36-5.74-5.29-13.35-6.82-20.12-3.47-15.29-10.88-32.55-21.97-43.32q-1.74-1.7-9.3-7.65 3.34-.01 6.67 2.27 12.91 8.86 21.44 22.31 3.74 5.91 8.1 14.44 2.5 4.91 6.31 15.28 5.95 16.17 14.13 31.57 1.76 3.33 2.55 5.24c.96 2.3 2.38 4.94 2.94 7.17 4.14 16.51 16.28 36.71 33.23 43.85a1.14 1.14 0 0 0 1.57-.86q.03-.17-.29-.74-7.07-12.89-9.86-26.65-2.08-10.28-3.83-21.88-.89-5.92-2.81-10.98-.1-.25.04-.41a.22.22 0 0 1 .31-.01q6.99 6.39 10.19 15.35a.32.32 0 0 0 .61-.02c1.2-4.73 1.95-7.32 3.88-12.72q2.96-8.29 3.58-17.07a.57.57 0 0 1 1.06-.26zM653.7 304.53c1.96-15.17-7.72-28.35-22.5-31.49-11.43-2.43-23.63 3.53-26.65 15.29q-1.84 7.15.18 14.32 1.54 5.47 3.33 11.05-11.6-12.49-14.75-30.93-1.59-9.31 1.39-18.58c3.68-11.47 14.19-19.11 26.54-17.43 15.16 2.06 28.57 13.69 32.66 27.96q2.16 7.51 2.7 14.63.61 7.87-1.7 14.66-.33.95-1.2.52"/><path fill="#090604" d="M329.44 297.07a1.72 1.71-34.9 0 1-.45 2.52l-17.62 10.89a1.5 1.49 53.2 0 1-1.91-.28q-16.8-19.15-13.02-44.76a1.6 1.6 0 0 1 1.27-1.33q10.93-2.18 19.57-2.61a1.45 1.45 0 0 1 1.49 1.77c-2.49 11.05-.84 22.09 7.3 30.3q3.05 3.07 3.37 3.5m-16.63-31.16-11.44 1.99a1.04 1.04 0 0 0-.86.95q-1.68 20.17 10.03 36a1.04 1.03-33.9 0 0 1.37.26l11.14-6.89a.57.57 0 0 0 .11-.88c-7.02-7.34-11.29-17.64-10.04-27.83q.36-2.93.36-3.06a.57.57 0 0 0-.67-.54"/><path fill="#f6eb54" d="M313.48 266.45q0 .13-.36 3.06c-1.25 10.19 3.02 20.49 10.04 27.83a.57.57 0 0 1-.11.88l-11.14 6.89a1.04 1.03-33.9 0 1-1.37-.26q-11.71-15.83-10.03-36a1.04 1.04 0 0 1 .86-.95l11.44-1.99a.57.57 0 0 1 .67.54"/><path fill="#090604" d="M653.7 304.53q-.57 1.36-.57 2.72a.78.77 4.4 0 0 .66.76q.42.06.64.21a.31.31 0 0 1-.15.56c-12.84 1.51-23.04 3.75-32.65 12.79a.59.59 0 0 0 .11.94q5.59 3.17 9.4 7.36a.42.42 0 0 1-.53.64q-14.91-8.93-31.84-11.9a.4.4 0 0 1 .03-.79q5.87-.59 11.79.39a.36.35-7.1 0 0 .39-.49q-1.12-2.51-2.92-4.02-1.79-5.58-3.33-11.05-2.02-7.17-.18-14.32c3.02-11.76 15.22-17.72 26.65-15.29 14.78 3.14 24.46 16.32 22.5 31.49m-44.65-14.23q.88.18 2.17-.14a.18.17 85 0 1 .21.18q-.02.38.08.41a.56.52-42.6 0 0 .35 0q9.94-3.31 18.85 2.84c4.34 2.99 5.95 9.76 6.14 14.54a.74.73 81.4 0 0 .92.68l4.28-1.14 7.9-.75a.55.55 0 0 0 .5-.56q-.5-16.75-15.07-24.4-6.91-3.62-14.36-2.18-8.82 1.72-11.97 10.52m13.67 7.26a5.71 5.71 0 0 0-5.71-5.71 5.71 5.71 0 0 0-5.71 5.71 5.71 5.71 0 0 0 5.71 5.71 5.71 5.71 0 0 0 5.71-5.71m11.87 8.11a3.06 3.06 0 0 0-3.06-3.06 3.06 3.06 0 0 0-3.06 3.06 3.06 3.06 0 0 0 3.06 3.06 3.06 3.06 0 0 0 3.06-3.06"/><path fill="#d88936" d="M531.2 340.31c2.15-12.53-.65-26.08-11.15-34.1-8.99-6.86-20.29-5.97-29.26.49-6.12 4.4-9.8 11.51-11.25 18.85q-2.5 12.67 6.02 22.03a.53.52 48.4 0 1-.04.75q-.76.68-1.56.83l-8.38-8.25a.49.43-86.4 0 1-.07-.09q-4.16-6.01-6.19-16.79c-2.56-13.6 1.1-29.13 11.18-38.72q13.96-13.26 31.98-6.94c8.24 2.9 15.16 9.86 19.24 17.94q9.72 19.24 4.54 41.01a1.08 1.07 83.9 0 1-.56.7z"/><path fill="#fdfefe" d="M642.05 307.67q-.23-16.03-14.47-20.75-10.05-3.33-18.53 3.38 3.15-8.8 11.97-10.52 7.45-1.44 14.36 2.18 14.57 7.65 15.07 24.4a.55.55 0 0 1-.5.56z"/><path fill="#714526" d="m642.05 307.67-4.28 1.14a.74.73 81.4 0 1-.92-.68c-.19-4.78-1.8-11.55-6.14-14.54q-8.91-6.15-18.85-2.84a.56.52-42.6 0 1-.35 0q-.1-.03-.08-.41a.18.17 85 0 0-.21-.18q-1.29.32-2.17.14 8.48-6.71 18.53-3.38 14.24 4.72 14.47 20.75"/><circle cx="617.01" cy="297.56" r="5.71" fill="#fdfefe"/><path fill="#d88936" d="M447.59 294.89q-12.32 25.16-8.84 52.12c1.99 15.37 7.36 30.86 9.51 45.98q.6 4.19.99 13.52.56 13-4.73 27.26c-6.38 17.21-20.26 31.51-37.87 36.59a.67.67 0 0 1-.85-.69q1.25-16.07-6.25-30.47-6.51-12.5-16.57-24.59a.25.25 0 0 0-.44.21q1.5 8.73.29 17.02a.29.29 0 0 1-.5.16c-6.46-6.86-12.4-12.51-17.02-18.92q-.05-2.43-1.35-4.71a1.58 1.51 30.8 0 1-.22-.79q.04-11.03 1.71-21.24a.29.29 0 0 1 .54-.1q9.52 15.27 24.82 25.9a.37.28 79.1 0 1 .09.08l4.04 4.86a.41.41 0 0 0 .72-.33c-1.27-8.57-.55-19.01 3.42-27.09a.29.28 56.4 0 1 .54.11c.48 6.79 1.11 11.4 3.04 18.25 1.96 6.95 4.58 14.81 6.15 22.15 1.69 7.9 2.77 15.02 1.99 20.62q-.54 3.9-1.67 9.77a.81.8-18.1 0 0 1.38.7c3.6-3.86 8.06-7.24 10.85-11.15q6.07-8.49 8.52-13.21c6.22-11.97 7.86-25.15 7.41-39.09q-.15-4.81-2.42-18.27-2.07-12.23-3.87-26.53-2.61-20.77 4.75-39.79 3.07-7.92 4.36-10.22 2.88-5.1 7.48-8.11"/><path fill="#d88936" d="M553.36 479.45q10.49 7.5 22.44 11.45c22.66 7.49 51.96 2.43 65.93-18.42q5.99-8.95 8.5-19.59 9.33-8.02 13.77-14.42 4.44-6.41 6.21-8.46-1.81 1.98-2.49 4.22a.74.74 0 0 0 1.21.76l2.95-2.76q-4.74 8.14-9.9 15.99-.22.34-.18.46a.51.5 57.2 0 0 .83.19l16.13-16.69 2.83 8.75Q671 452.7 667.26 456.01q-6.24 5.53-12.82 10.7-2.45 1.93-3.67 4.31-3.09 6.06-6.11 12.37c-3.43 7.15-10.14 13.72-17.29 18.68-12.93 8.96-28.4 10.44-43.27 6.58-8.21-2.14-16.11-7.31-23.6-12.37q-3.72-2.51-6.76-2.97-7.84-1.19-18.61-4.09c-5.38-1.45-12.4-2.26-18.26-3.96-4.79-1.39-11.91-1.75-17.64-4.09-3.71-1.51-8.38-2.76-10.86-3.4-4.84-1.25-9.76-4.12-13.73-5.65q-2.53-.97-3.8-.04-7.68 5.64-15.87 10.37-1.76 1.03-2.98 2.95-3.86 2.31-7.67 2.71a.44.44 0 0 1-.48-.46q.07-.88.79-1.77 2.28-2.83 4.67-5.49c6.51-7.24 10.66-15.92 12.26-25.6q14.51 10.57 31 15.88 7.91 2.55 20.81 6a.34.34 0 0 0 .41-.21v-.02a.34.33 24.1 0 0-.17-.42c-4.71-2.21-10.36-4.28-15.34-6.94q-6-3.22-14.73-8.1c-11.25-6.3-22.97-15.2-30.77-25.68a1.85 1.84-54.7 0 1-.28-1.67q6.28-19.6 3.05-40.39c-1.54-9.9-3.55-18.54-6.34-29.63q-2.13-8.47-3.39-14.87-5.03-25.59 2-50.48l.59 5.81a1.66.74-69 0 1 .01.19q-.73 13.17 1.45 28.29.72 4.99 5.42 20.77 3.65 12.27 7.11 29.47 1.89 9.37 2.15 16.21c.29 7.75.49 16.52 2.37 24.25q5.13 21.03 23.3 33.53c5.29 3.64 13.75 9.24 21.78 11.75 5.66 1.77 9.97 3.64 16.09 4.92q5.64 1.18 13.09 2.77.47.1 6.03 1.86 2.94.94 6.16 1.37"/><path fill="#090604" d="M531.2 340.31q-.92 4.58-3.38 8.53a1.12 1.12 0 0 1-1.3.48q-19.06-6.26-38.73-.24-2.28.69-4.88 1.48a.34.33 11.2 0 1-.36-.53q.35-.42 1.41-.87.8-.15 1.56-.83a.53.52 48.4 0 0 .04-.75q-8.52-9.36-6.02-22.03c1.45-7.34 5.13-14.45 11.25-18.85 8.97-6.46 20.27-7.35 29.26-.49 10.5 8.02 13.3 21.57 11.15 34.1m-36.66 3.6 4.25-1.12a.87.86 73.5 0 0 .6-1.12c-3.39-9.9-1.13-21.7 9.81-25.21q5.24-1.69 10.96.94a2.56 2.52 62.2 0 0 .69.22q1.58.27 4.22 1.56-5.15-9.79-15.14-10.72c-13.42-1.24-23.77 10.01-24.76 22.76q-.61 7.81 2.48 14.82a.6.6 0 0 0 .77.32zm26.72-20.79a5.81 5.81 0 0 0-5.81-5.81 5.81 5.81 0 0 0-5.81 5.81 5.81 5.81 0 0 0 5.81 5.81 5.81 5.81 0 0 0 5.81-5.81m-15.52 13.6a2.86 2.86 0 0 0-2.86-2.86 2.86 2.86 0 0 0-2.86 2.86 2.86 2.86 0 0 0 2.86 2.86 2.86 2.86 0 0 0 2.86-2.86"/><circle cx="631.53" cy="305.67" r="3.06" fill="#fdfefe"/><path fill="#fdfefe" d="M525.07 319.18q-4.15-4.85-9.61-5.9-7.13-1.37-13.03 2.22c-8.64 5.27-11.58 14.82-9.04 24.21l1.15 4.2-6.12 2.45a.6.6 0 0 1-.77-.32q-3.09-7.01-2.48-14.82c.99-12.75 11.34-24 24.76-22.76q9.99.93 15.14 10.72"/><path fill="#714526" d="M525.07 319.18q-2.64-1.29-4.22-1.56a2.56 2.52 62.2 0 1-.69-.22q-5.72-2.63-10.96-.94c-10.94 3.51-13.2 15.31-9.81 25.21a.87.86 73.5 0 1-.6 1.12l-4.25 1.12-1.15-4.2c-2.54-9.39.4-18.94 9.04-24.21q5.9-3.59 13.03-2.22 5.46 1.05 9.61 5.9"/><path fill="#fdfefe" d="m663.58 320.23 7.46 1.09a.32.32 0 0 1 .14.58l-6.13 4.38a.32.32 0 0 0-.13.21l-1.09 7.46a.32.32 0 0 1-.58.14l-4.38-6.13a.32.32 0 0 0-.21-.13l-7.46-1.09a.32.32 0 0 1-.14-.58l6.13-4.38a.32.32 0 0 0 .13-.21l1.09-7.46a.32.32 0 0 1 .58-.14l4.38 6.13a.32.32 0 0 0 .21.13"/><circle cx="515.45" cy="323.12" r="5.81" fill="#fdfefe"/><path fill="#090604" d="M644.71 358.5c6.65-8.51 17.23-7.97 21.94 2.35a.3.3 0 0 1-.35.41l-8.65-2.12a.62.62 0 0 0-.77.58c-.46 14.27-2.62 30.09-15.7 38.37a2.22 2.21 74.2 0 0-1.02 1.83q-.24 12.12-.96 25.07c-.7 12.44-3.38 23.67-11.21 33.25-8.58 10.49-23.97 14.68-37.04 12.63q-11.4-1.78-20.67-7.64c-4.87-3.08-10.76-7.76-14.95-11.96-11.43-11.46-21.17-24.61-30.18-38.58-3.91-6.06-9.93-11.64-13.66-17.68a.68.67-34.4 0 0-.99-.18q-4.56 3.51-8.23 8.17a.65.65 0 0 1-1.16-.41q.03-10.6 9.42-15.06 7.04-3.35 14.56.58a.64.63 51.9 0 1-.14 1.18l-8.18 2.04a.62.62 0 0 0-.29 1.03c7.73 8.1 15.41 14.53 26.2 18.42q17.91 6.47 33.42-3.75 10.38-6.84 17.52-16.7a1.87 1.86 57.9 0 0 .32-1.42l-1.61-9.26a1.01 1-4.2 0 0-.97-.83c-13.12-.22-26.27-5.28-35.34-15.05-9.35-10.06-5.57-20.92 5.19-27.3q17.97-10.66 38.77-11 8.18-.13 14.46 3.3c9.12 4.97 8.22 17.72 4.43 26.13q-6.36 14.11-19.66 22.05a.94.94 0 0 0-.45.97l1.72 9.85a1.5 1.49 10.1 0 0 .73 1.04c11.26 6.38 28.68 11.2 39.19 1.33 8.59-8.06 10.9-19.5 11.4-31.05a.67.67 0 0 0-.78-.68l-5.76 1a.57.57 0 0 1-.55-.91m-60.97-23.85q-8.89 2.21-15.48 6.09-2.55 1.5-3.69 2.95a1.24 1.24 0 0 0 .57 1.93q1.5.52 3.62.38c5.77-.39 11.29-1.5 17.08-2.94 5.78-1.45 11.18-3.06 16.45-5.43q1.94-.87 3.02-2.03a1.24 1.24 0 0 0-.4-1.97q-1.69-.75-4.65-.88-7.64-.32-16.52 1.9m19.47 106.22q-6.38-5.38-13.79-8.54c-11.9-5.07-25.96-3-36.7 4.41a1.16 1.16 0 0 0-.18 1.77q4.94 5.11 11.18 10.85c10.1 9.28 22.03 15.05 36.01 14.44q6.79-.3 12.61-3.01 14.5-6.77 18.28-23.19a1.81 1.8 27.8 0 0-.55-1.76c-6.32-5.68-15.24-10.75-23.95-10.32q-5.94.3-11.9 2.86a.71.71 0 0 0-.17 1.2q6.28 5.07 9.81 10.73a.43.43 0 0 1-.65.56M553.01 331.25q-14.3 9.39-24.7 25.06 5.52-19.92 25.2-26.34a.32.31 14.4 0 1 .32.53z"/><path fill="#f8d98e" d="M553.01 331.25q.69-.03.85.29a1.5 1.48 59.5 0 1-.48 1.9q-1.56 1.06-3.12 2.6-8.18 8.08-16.33 16.68-1.66 1.75-2.99 3.65a1.1 1.09-75.5 0 1-.8.48q-.84.07-1.83-.54 10.4-15.67 24.7-25.06"/><path fill="#fdfefe" d="M585.84 343.06c-5.79 1.44-11.31 2.55-17.08 2.94q-2.12.14-3.62-.38a1.24 1.24 0 0 1-.57-1.93q1.14-1.45 3.69-2.95 6.59-3.88 15.48-6.09 8.88-2.22 16.52-1.9 2.96.13 4.65.88a1.24 1.24 0 0 1 .4 1.97q-1.08 1.16-3.02 2.03c-5.27 2.37-10.67 3.98-16.45 5.43"/><circle cx="502.88" cy="336.72" r="2.86" fill="#fdfefe"/><path fill="#090604" d="M229.23 368.58a15.87 15.87 0 0 1-15.87 15.87 15.87 15.87 0 0 1-15.87-15.87 15.87 15.87 0 0 1 15.87-15.87 15.87 15.87 0 0 1 15.87 15.87m-4.88-.02a10.97 10.97 0 0 0-10.97-10.97 10.97 10.97 0 0 0-10.97 10.97 10.97 10.97 0 0 0 10.97 10.97 10.97 10.97 0 0 0 10.97-10.97"/><path fill="#fdfefe" d="m484.09 363.1 7.51 1.3a.35.35 0 0 1 .15.63l-6.23 4.4a.35.35 0 0 0-.15.23l-1.3 7.51a.35.35 0 0 1-.63.15l-4.4-6.23a.35.35 0 0 0-.23-.15l-7.51-1.3a.35.35 0 0 1-.15-.63l6.23-4.4a.35.35 0 0 0 .15-.23l1.3-7.51a.35.35 0 0 1 .63-.15l4.4 6.23a.35.35 0 0 0 .23.15"/><circle cx="213.38" cy="368.56" r="10.97" fill="#51c0ec"/><path fill="#090604" d="M786.82 436.53a2.21 2.19.3 0 1-1.67-1.67q-1.49-6.54-2.42-12.86-.26-1.82-.02-3.39a1.45 1.45 0 0 1 1.96-1.13q11.01 4.3 19.6-3.24a5.13 5.09 84.9 0 0 1.01-1.22q1.73-2.88 3.41-5.73 1.21-2.05 3.26-.39 5.51 4.47 10.17 9.31a2.97 2.96-57.4 0 1 .66 3.03q-1.43 4.11-4.8 7.69-12.83 13.67-31.16 9.6m25.47-24.2a.91.9 38.9 0 0-1.46.15c-4.83 8.38-13.26 12.69-22.98 10.23a.7.7 0 0 0-.86.8l1.38 7.94a1.91 1.9 88.2 0 0 1.66 1.56c11.25 1.28 21.83-2.61 27.69-13.14a1.47 1.46-51.6 0 0-.19-1.68z"/><path fill="#edae4e" d="m812.29 412.33 5.24 5.86a1.47 1.46-51.6 0 1 .19 1.68c-5.86 10.53-16.44 14.42-27.69 13.14a1.91 1.9 88.2 0 1-1.66-1.56l-1.38-7.94a.7.7 0 0 1 .86-.8c9.72 2.46 18.15-1.85 22.98-10.23a.91.9 38.9 0 1 1.46-.15"/><path fill="#e66564" d="M603.21 440.87a.43.43 0 0 0 .65-.56q-3.53-5.66-9.81-10.73a.71.71 0 0 1 .17-1.2q5.96-2.56 11.9-2.86c8.71-.43 17.63 4.64 23.95 10.32a1.81 1.8 27.8 0 1 .55 1.76q-3.78 16.42-18.28 23.19-5.82 2.71-12.61 3.01c-13.98.61-25.91-5.16-36.01-14.44q-6.24-5.74-11.18-10.85a1.16 1.16 0 0 1 .18-1.77c10.74-7.41 24.8-9.48 36.7-4.41q7.41 3.16 13.79 8.54"/><path fill="#f8d98e" d="m689.42 456.63-7.83-15.7-2.83-8.75q.72-1.42 1.94-2.43a.51.51 0 0 1 .83.27q1.56 6.32 4.87 13.03c3.2 6.46 10.78 13.96 14.33 18.5a.3.3 0 0 1-.31.48q-6.72-1.7-11-5.4"/><path fill="#090604" d="M650.23 452.89q-2.51 10.64-8.5 19.59c-13.97 20.85-43.27 25.91-65.93 18.42q-11.95-3.95-22.44-11.45-7.76-6.19-14.16-13.71a.45.45 0 0 1 .04-.63l.19-.17a.06.05-40.3 0 1 .07 0c21.88 17.65 57 31.48 83.88 15.51q14.41-8.56 21-24.06 4.2-9.88 5.23-17.9.39-3.04 1.05-6.07a.3.29 48.7 0 1 .58.04q.94 10.32-1.01 20.43"/><path fill="#edae4e" d="M689.42 456.63q-1.78-1.24-2.08-.81-.96-.61-1.37.21-.26.53.04 1.24 2.14 5.13 4.74 9.92c3.27 6.03 4.73 12.15 4.88 18.88q-2.61-5.54-6.99-9.45a.38.38 0 0 0-.6.14q-.05.12-.08.28-.95-.75-1.63-.73a.5.49 82.9 0 0-.47.61q3.63 15.21.81 31.1-11.95-1.76-23.95 4.04 1.87-3.16 2.22-5.57c.64-4.32.94-9.25-.54-13.54q-2.16-6.21-5.82-11.2a.41.41 0 0 0-.72.38c2.97 8.03 4.45 19.83-.18 27.48a.74.74 0 0 1-1.34-.17q-1.62-5.36-5.06-8.9-.21-.21-.67-.26a.45.45 0 0 0-.49.52q1.5 9.86-.28 20.99-16.6 16.09-24 38.02c-4.64 13.8-6.56 26.93-1.28 40.19a1.78 1.78 0 0 1-.23 1.73q-5.68 7.62-12.12 12.01a.14.14 0 0 1-.22-.09l-1.19-6.84a1.26 1.25 55 0 1 .14-.81c8.23-14.92 4.9-30.83-2.02-45.68q-6.62-14.17-19.89-28.33c-11.22-11.96-26-20.11-43.03-19.1q-11.86.7-21.51 4.08-8.09-1.85-10.07-8.13-2.61-8.31-3.12-17.2a.47.46 55.1 0 0-.89-.16q-5.12 11.9-.17 23.41.55 1.28-.53 2.16l-8.07-13.93a.31.31 0 0 0-.58.16c.15 6.64 2.93 13.96 6.12 19.87a.58.57-25.9 0 1-.28.8q-16.42 6.97-26.9 21.57.07 2.31.74 1.91 4.8-2.84 8.87-4.34 4.01-1.47 7.61-3.58 5.67-3.33 12.68-5.38c3.91-1.14 7.05-3.24 11.3-4.38q12.72-3.42 13.72-3.7c9.62-2.69 22.47-2.25 31.58 3.97 3.75 2.56 7.04 4.2 10.49 7.32q6.66 6.03 12.45 12.48 2.49 2.78 6.36 8.69 5.83 8.92 5.91 9.05 2.64 4.39 5.11 12.6a1.05 1.03-82.2 0 0 .44.59q.99.65 1.05-.77 2.47 10.44-1.25 20.28a.25.25 0 0 1-.48-.03c-.6-2.4-.97-5.51-1.94-7.62q-3.33-7.2-9.18-12.14a.28.28 0 0 0-.41.37q5.34 7.86 6.34 17.5c-3.12 3.25-4.21 5.9-8.32 7.71-4.72 2.09-6.28 3.11-10.66 2.89q-.52-9.05-6.31-16.53a.42.42 0 0 0-.71.07q-.13.26.08.78 3.08 7.79 2.01 15.86c-6.53 1.16-12.15-.22-17.29-4.26-3.9-3.06-8.34-5.58-11.63-9.08-4.95-5.26-7.18-9.45-11.98-17.32q-.39-.64-.74-.86-.45-.27-.39-.89a.82.81 10.4 0 0-.61-.87q-.42-.11-.99-.06l-2.12-6.52a.41.4 36.9 0 0-.79.11l-.08 3.32q-4.6 6.03-6.81 8.1-2.05 1.93-11.5 9.6-4.02 3.25-8.4 5.77c-7.9 4.55-16.07 8.39-24.91 7.29q-6.19-.78-9.42-1.11a2.52 2.52 0 0 1-1.51-.71q-.45-.43-6.44-6.68-1.47-1.53-2.65-4.23a.59.58-41.9 0 0-1.04-.05l-1.97 3.42a1.05 1.05 0 0 0-.14.56q.05.75.34 1.29a.8.79 54.9 0 1-.16.95q-.64.61-1.59 1-4.91-10.99-6.18-22.55a.49.48 47.8 0 0-.96-.05q-3.35 16.54 4.51 29.88l-.98 2.55a1.16 1.15 41.9 0 0 .06.96q3.78 7.2 9.5 14.91c7.92 10.7 19.29 15.58 32.34 13.72q2.41-.35 7.94-2.19 3.74-1.25 7.91-2.44-4 7.45-4.91 13.88a.07.07 0 0 0 .13.03q3.73-8.13 8.28-14.75 3.1-1.54 5.87-3.26 3.36-2.07 5.8-3.39 5.91-3.19 10.37-7.93a1.68 1.68 0 0 1 2.61.19c5.57 8.03 15.02 15.57 24.4 18.32q15.77 4.64 31.49-1.61c3.16-1.26 6.8-3.79 9.88-5.77a8.96 8.91-63.6 0 1 4.03-1.37c6.9-.6 12.85-3.64 18.24-7.53a.84.83 53.8 0 1 1.15.18c9.1 12.27 22.63 15.79 37.54 13.56q-3.68 15.89-12.28 31.64-2.41 4.42-3.25 10.67l-1.96 2.68q-2.23-1.05-3.95.77-3.6 3.79-6.98 6.28-10.23 7.51-21.26 13.94-8.89 5.18-25.67 11.05-30.05 10.52-61.87 6.61-3.21-.39-5.57-2.21a2.89 2.72 5.4 0 1-.74-.84q-4.41-7.72-5.72-15.65a.47.47 0 0 0-.92-.03c-.76 3.15-1.33 5.83-2.91 8.82q-7.07 13.34-8.65 15.48c-4.21 5.71-6.89 10.48-11.05 15.68q-7 8.76-14.24 14.84-9.15 7.69-14.31 11.01c-11.63 7.49-27.39 11.72-41.1 10.06q-.15-.02-9.75-1.15-4.26-.51-9.51-2.26-10.49-3.5-21.47-7.59l-3.97-2.5a.32.32 0 0 0-.45.42l.71 1.35q-1.36 2.86.06 5.83 7.51 15.77 20.51 26.57c-4.06 8.9-9.02 17.53-16.25 24.15q-4.27 3.91-8.29 5.38a.24.24 0 0 1-.28-.36q4.3-6.48 5.5-13.56a.43.43 0 0 0-.78-.31l-4.93 7.12q-5.4 3.07-12.09 4.43-9.44 1.93-13.37-5.67 7.34-5.99 10.67-14.42a.34.34 0 0 0-.58-.34q-2.51 3.02-7.03 6.56-4.47 3.5-10.05 3.86a1.23 1.22-12.6 0 1-1.21-.76q-.99-2.41-1.25-5.03c-1.34-13.57 3.48-27.92 9.23-40.11 5.68-12.04 10.85-24.19 17.41-36.03 4.07-7.34 8.68-13.15 17.69-14.02a.6.59 86.4 0 1 .65.58q.13 5.09-.5 9.91-.06.48.4.57.3.06.72-.39.76.96 1.73.26 1.66-1.19 2.87-3.23c1.83-3.07 3.77-6.16 5.16-9.25q1.39-3.11 2.18-7.83 1.82-10.9 6.39-35.91 1.58-8.64 4.09-16.35c3.35-10.29 5.42-17.44 9.99-27.51q2.97-6.54 4.87-11.43 9-23.06 9.5-24.47c2.4-6.67 3.3-10.3 4.25-18.04q.23-1.9.74-3.04a.35.35 0 0 1 .64-.01l2.12 4.69a.23.23 0 0 0 .44-.04l1.44-6.03a4.39 3.97 56.2 0 0 .12-.82q.55-11.24.27-19.51-.28-8.09.6-14.43c.76-5.44 1-18.38 4.08-26.82 1.72-4.73 2.59-9.62 4.49-14.27q1.35-3.31 2.98-6.82 1.22-1.92 2.98-2.95 8.19-4.73 15.87-10.37 1.27-.93 3.8.04c3.97 1.53 8.89 4.4 13.73 5.65 2.48.64 7.15 1.89 10.86 3.4 5.73 2.34 12.85 2.7 17.64 4.09 5.86 1.7 12.88 2.51 18.26 3.96q10.77 2.9 18.61 4.09 3.04.46 6.76 2.97c7.49 5.06 15.39 10.23 23.6 12.37 14.87 3.86 30.34 2.38 43.27-6.58 7.15-4.96 13.86-11.53 17.29-18.68q3.02-6.31 6.11-12.37 1.22-2.38 3.67-4.31 6.58-5.17 12.82-10.7 3.74-3.31 14.33-15.08zm-61.63 89.35a3.19 3.17-76.8 0 0 2.17-1.36q4.39-6.44 4.11-14.89-.22-6.98-3.81-14.24-.94-1.93-2.39-2.89a.34.34 0 0 0-.51.4q4.99 13.19 1.46 26.79c-.58 2.25-1.81 4.41-2.59 5.55a.51.51 0 0 0 .49.79zm10.17-14.25q3.38-3.2 4-4.19a6.08 4.97-61.7 0 1 .48-.71c1.62-2.16-.58-9.91-1.94-12.49a.66.64 51.1 0 0-1.07-.13q-.18.21-.18.57-.07 8.58-2.6 15.95-.22.62.54 1.11.39.26.77-.11"/><path fill="#f8d98e" d="M461.56 454.79c-1.6 9.68-5.75 18.36-12.26 25.6q-2.39 2.66-4.67 5.49-.72.89-.79 1.77a.44.44 0 0 0 .48.46q3.81-.4 7.67-2.71-1.63 3.51-2.98 6.82c-1.9 4.65-2.77 9.54-4.49 14.27-3.08 8.44-3.32 21.38-4.08 26.82q-.88 6.34-.6 14.43.28 8.27-.27 19.51a4.39 3.97 56.2 0 1-.12.82l-1.44 6.03a.23.23 0 0 1-.44.04l-2.12-4.69a.35.35 0 0 0-.64.01q-.51 1.14-.74 3.04c-.95 7.74-1.85 11.37-4.25 18.04q-.5 1.41-9.5 24.47-1.9 4.89-4.87 11.43c-4.57 10.07-6.64 17.22-9.99 27.51q-2.51 7.71-4.09 16.35-4.57 25.01-6.39 35.91-.79 4.72-2.18 7.83c-1.39 3.09-3.33 6.18-5.16 9.25q-1.21 2.04-2.87 3.23-.97.7-1.73-.26 5.14-9.02 7.02-19.95 3.14-18.37 5-29.9 4.2-26.11 13.4-49.69c4.03-10.32 8.61-20.49 12.69-31.51 5.04-13.6 8.5-23.19 10.74-33.95a.1.1 0 0 1 .19-.02l3.07 6.8a.29.29 0 0 0 .55-.14c-1.14-14.49-2.28-31.1-.2-46.54.97-7.21 3.73-14.86 6.29-21.56q1.75-4.56 4.51-8.26a.33.33 0 0 0-.42-.49l-11.03 5.77a.3.3 0 0 1-.43-.36c1.81-5.63 5.32-9.66 10.39-15.63 6.54-7.7 11.89-16.69 13.74-27.63a.38.38 0 0 1 .6-.24z"/><path fill="#090604" d="M273 479.46a2.19 2.19 0 0 1-3.5-.44q-3.12-5.57-4.53-13.3a1.7 1.7 0 0 1 .13-1q.65-1.45 2.39-2.76 11.07-8.33 24.67-5.98c1.5.25 3.34.3 4.67 1.11a2.2 2.19 23.1 0 1 .98 2.41q-1.87 7.45-3.74 13.29-.79 2.46-3.31 1.46c-6.77-2.67-13.22.42-17.76 5.21m17.36-9.61a.71.71 0 0 0 .83-.53l2.21-9.01a.47.46 11.1 0 0-.38-.56c-8.04-1.18-16.8-.47-23.03 5.22a2.06 2.05-28.3 0 0-.61 2.02l1.8 7.21a.87.87 0 0 0 1.43.44q7.47-6.8 17.75-4.79"/><path fill="#f8d98e" d="M687.34 455.82q2.85 5.08 6.01 9.85 2.17 3.29 4.82 10.71c2.04 5.72 1.9 11.21 1.14 16.67a.28.27-53.5 0 1-.52.08l-3.16-7.06c-.15-6.73-1.61-12.85-4.88-18.88q-2.6-4.79-4.74-9.92-.3-.71-.04-1.24.41-.82 1.37-.21"/><path fill="#edae4e" d="M290.36 469.85q-10.28-2.01-17.75 4.79a.87.87 0 0 1-1.43-.44l-1.8-7.21a2.06 2.05-28.3 0 1 .61-2.02c6.23-5.69 14.99-6.4 23.03-5.22a.47.46 11.1 0 1 .38.56l-2.21 9.01a.71.71 0 0 1-.83.53"/><path fill="#f8d98e" d="M687.96 477.04q6.87 14.71 4.71 31.54a.71.7-80.2 0 1-.84.6l-5.16-1.16q2.82-15.89-.81-31.1a.5.49 82.9 0 1 .47-.61q.68-.02 1.63.73"/><path fill="#d88936" d="M662.72 512.06q-6.46 3.42-12.88 9.73 1.78-11.13.28-20.99a.45.45 0 0 1 .49-.52q.46.05.67.26 3.44 3.54 5.06 8.9a.74.74 0 0 0 1.34.17c4.63-7.65 3.15-19.45.18-27.48a.41.41 0 0 1 .72-.38q3.66 4.99 5.82 11.2c1.48 4.29 1.18 9.22.54 13.54q-.35 2.41-2.22 5.57"/><path fill="#090604" d="m823.74 531.24-17.84-8.34a1.72 1.71 25.9 0 1-.81-2.33c4.89-9.68 6.89-18.07 3.48-29.14q-.58-1.88.6-2.83a1.08 1.07-61.4 0 1 .77-.23l17.16 1.42a2.52 2.51-3.7 0 1 2.26 1.98q3.44 16.07-1.54 31.8-.75 2.34-2.98 7.26a.83.82 24.4 0 1-1.1.41m-9.92-37.46q.1 1.1.55 3.5c1.39 7.42.07 14.96-3.3 21.85a1.14 1.13 25.6 0 0 .54 1.52l9.89 4.62a.76.76 0 0 0 1.03-.41q5.75-14.52 2.56-30.27a.82.82 0 0 0-.74-.66l-9.86-.82a.62.62 0 0 0-.67.67"/><path fill="#d88936" d="m524.49 516.97-11.04 3.97a.86.84-33.5 0 1-.85-.16q-1.74-1.5-2.89-3.73 1.08-.88.53-2.16-4.95-11.51.17-23.41a.47.46 55.1 0 1 .89.16q.51 8.89 3.12 17.2 1.98 6.28 10.07 8.13"/><path fill="#e052a7" d="m814.49 493.11 9.86.82a.82.82 0 0 1 .74.66q3.19 15.75-2.56 30.27a.76.76 0 0 1-1.03.41l-9.89-4.62a1.14 1.13 25.6 0 1-.54-1.52c3.37-6.89 4.69-14.43 3.3-21.85q-.45-2.4-.55-3.5a.62.62 0 0 1 .67-.67"/><path fill="#f8d98e" d="m726.26 542.89-2.48 4.41a.6.59-44.4 0 1-1.04-.01q-.82-1.52-2.24-3.04-3.93-4.2-7.57-8.34c-2.88-3.27-6.85-7.18-9.68-9.09q-3.71-2.48-11.99-5.69-.21-.08-.29-.21a.35.35 0 0 0-.23-.16q-15.29-3.27-28.09 5.44c-2.41 1.63-4.23 3.79-6.51 5.6q-1.98 1.57-4.45 4.69c-2.57 3.23-5.37 5.64-7.91 9.31q-4.06 5.83-4.73 7.25c-3.04 6.43-6.42 13.63-8.62 21.74a.48.48 0 0 1-.72.28q-.69-.43-.58-1.82 2.39-13.35 9.73-25.9c7.4-12.66 14.88-22.63 27.1-29.6 11.95-6.81 26.07-4.25 36.92 3.9q9.73 7.3 16.99 17.7a.34.34 0 0 0 .62-.17q.03-.27-.16-.79-1.75-4.9-3.99-9.2-.23-4.55-2.75-9.57-2.5-4.95-4.9-8.3a8.77 8.45 15.3 0 1-.75-1.26l-4.72-9.74.61-2.82a.38.37 35.8 0 1 .69-.11q8.74 14.59 16.48 29.89 2.35 4.66 5.26 15.61"/><path fill="#d88936" d="m703.22 500.32 4.72 9.74a8.77 8.45 15.3 0 0 .75 1.26q2.4 3.35 4.9 8.3 2.52 5.02 2.75 9.57-6.76-10.83-17.48-17.07a1.18 1.17-71.5 0 1-.58-1.17l.46-3.48a1.66 1.64-16.5 0 1 .59-1.07q2.8-2.28 3.89-6.08"/><path fill="#090604" d="M341.78 509.93q.09-.36 1.14-1.61.7-.83 1.64-1.2 9.13-3.6 15.5-3.4 1.6.06 4.29 2.12 11.8 9.03 14.17 24.37a1.87 1.86 73.6 0 1-1.07 1.98q-1.17.54-3.43.65-7.19.36-14.06.47a2.22 2.22 0 0 1-2.24-2.03c-.86-9.98-6.92-16.06-15.44-20.3a.95.94 19.6 0 1-.5-1.05m8.65-.89a1.12 1.12 0 0 0-.38 2.06q8.87 5.28 11.16 17.06a1.18 1.18 0 0 0 1.16.95h11.07a.47.46 84.3 0 0 .45-.56q-2.31-11.87-11.87-19.56a5.68 5.67 59.4 0 0-4.55-1.17z"/><path fill="#e052a7" d="m350.43 509.04 7.04-1.22a5.68 5.67 59.4 0 1 4.55 1.17q9.56 7.69 11.87 19.56a.47.46 84.3 0 1-.45.56h-11.07a1.18 1.18 0 0 1-1.16-.95q-2.29-11.78-11.16-17.06a1.12 1.12 0 0 1 .38-2.06"/><path fill="#f8d98e" d="M626.23 545.34c.78-1.14 2.01-3.3 2.59-5.55q3.53-13.6-1.46-26.79a.34.34 0 0 1 .51-.4q1.45.96 2.39 2.89 3.59 7.26 3.81 14.24.28 8.45-4.11 14.89a3.19 3.17-76.8 0 1-2.17 1.36l-1.07.15a.51.51 0 0 1-.49-.79M637.96 531.73q-.38.37-.77.11-.76-.49-.54-1.11 2.53-7.37 2.6-15.95 0-.36.18-.57a.66.64 51.1 0 1 1.07.13c1.36 2.58 3.56 10.33 1.94 12.49a6.08 4.97-61.7 0 0-.48.71q-.62.99-4 4.19M608.31 579.98q-.06 1.42-1.05.77a1.05 1.03-82.2 0 1-.44-.59q-2.47-8.21-5.11-12.6-.08-.13-5.91-9.05-3.87-5.91-6.36-8.69-5.79-6.45-12.45-12.48c-3.45-3.12-6.74-4.76-10.49-7.32-9.11-6.22-21.96-6.66-31.58-3.97q-1 .28-13.72 3.7c-4.25 1.14-7.39 3.24-11.3 4.38q-7.01 2.05-12.68 5.38-3.6 2.11-7.61 3.58-4.07 1.5-8.87 4.34-.67.4-.74-1.91 10.43-6.93 13.39-8.38c7.18-3.52 13.51-6.94 20.25-9.55 10.92-4.23 19.26-6.86 29.84-8.04 11.67-1.3 22.98 2.48 32.14 9.63q4.12 3.2 9.98 9.47c10.24 10.95 20.21 26.26 22.71 41.33"/><path fill="#edae4e" d="M726.26 542.89q3.97 14.11 1.7 28.49-2.29 7.42-9.5 8.9-4.93 1.01-7.25-3.51-2.66-5.19-3.85-9.87-.67-2.63-3.1-5.95l-.95-4.67a.22.22 0 0 0-.43 0l-2.82 14.66c-1.33.54-1.53 3.02-2.1 3.99q-2.73 4.65-5.64 9.13-3.36 5.15-9.91 11.6-8.09 7.99-18.28 8.87-1.23-8.93.3-16.5a.35.35 0 0 0-.65-.24q-4.47 7.94-4.46 16.99-6.56 1.41-11.94.12-4.1-.99-7.32-4.72a3.88 3.84-73.2 0 1-.81-1.53l-.92-3.42q1.09-8.33 4.37-15.9a.32.32 0 0 0-.53-.34q-8.45 9.35-9.02 21.54a.25.24 29.8 0 1-.45.12c-5.24-7.71-5.39-18.6-3.57-27.4q-.11 1.39.58 1.82a.48.48 0 0 0 .72-.28c2.2-8.11 5.58-15.31 8.62-21.74q.67-1.42 4.73-7.25c2.54-3.67 5.34-6.08 7.91-9.31q2.47-3.12 4.45-4.69c2.28-1.81 4.1-3.97 6.51-5.6q12.8-8.71 28.09-5.44a.35.35 0 0 1 .23.16q.08.13.29.21 8.28 3.21 11.99 5.69c2.83 1.91 6.8 5.82 9.68 9.09q3.64 4.14 7.57 8.34 1.42 1.52 2.24 3.04a.6.59-44.4 0 0 1.04.01z"/><path fill="#090604" d="M190.22 563.44a1.18 1.18 0 0 1-1.64.41c-6.9-4.34-14.7-6.6-22.82-7.95a1.61 1.61 0 0 1-1.22-2.21c2.49-6.02 6.47-11.67 10.91-18.08a2.5 2.49-64.4 0 1 2.76-.98q9.28 2.75 17.77 7.13 2.55 1.3 4.11 2.87a1.15 1.14 37.9 0 1 .18 1.39zm-2.07-5.52 6.59-11.41a.36.36 0 0 0-.13-.49q-7.83-4.37-16.1-6.56a.94.94 0 0 0-1.06.44l-7 12.11a.51.51 0 0 0 .37.76q8.49 1.36 16.42 5.42a.69.68-61.3 0 0 .91-.27"/><path fill="#f8d98e" d="M398.9 631.02q-2.15-1.9-3.89-1.94-12.38-.26-23.44-4.13-1.98-.7-17.08-7.41c-6.98-3.1-12.11-6.78-18.24-11.26-6.35-4.65-13.42-9.51-18.21-15.08q-8.84-10.28-17.62-20.61-5.41-6.36-7.16-10.09-2.48-5.26-5.47-9.52a.39.39 0 0 0-.71.16q-.98 5.72.02 11.04 3.09 16.49 10.79 31.08-11.3-5.88-21.13-15.94l-1.7-4.52a.75.74 12.6 0 0-.2-.31q-1.19-1.1-1.21-2.45.33-3.59 1.36-7.05.12-.41.46-.59a.37.37 0 0 1 .52.22q4.15 12.98 14.67 22.23a.16.16 0 0 0 .24-.21c-6.29-9.87-9.51-20.71-8.51-32.46.43-5.04 2.64-9.74 5.75-13.54a.49.49 0 0 1 .85.19q.61 2.2 1.38 3.78 13.84 28.45 36.57 48.88c19.87 17.86 47.05 32 73.97 33.1a.31.31 0 0 1 .28.42z"/><path fill="#f6eb54" d="M188.15 557.92a.69.68-61.3 0 1-.91.27q-7.93-4.06-16.42-5.42a.51.51 0 0 1-.37-.76l7-12.11a.94.94 0 0 1 1.06-.44q8.27 2.19 16.1 6.56a.36.36 0 0 1 .13.49z"/><path fill="#edae4e" d="m398.9 631.02-5.52 17.57q-25.69 8.2-51.63 2.39a.9.9 0 0 1-.4-1.55l2.16-1.94a.89.89 0 0 0-.48-1.55q-13.03-1.66-25.48-6.5-2.76-1.07-4.89-2.57a.61.6 53.6 0 1 .16-1.07l6.89-2.23a.81.81 0 0 0 .39-1.27q-.03-.05-.24-.16c-12.25-6.26-23.59-14.16-31.02-25.74q-8.63-13.46-12.08-29.08 9.83 10.06 21.13 15.94-7.7-14.59-10.79-31.08-1-5.32-.02-11.04a.39.39 0 0 1 .71-.16q2.99 4.26 5.47 9.52 1.75 3.73 7.16 10.09 8.78 10.33 17.62 20.61c4.79 5.57 11.86 10.43 18.21 15.08 6.13 4.48 11.26 8.16 18.24 11.26q15.1 6.71 17.08 7.41 11.06 3.87 23.44 4.13 1.74.04 3.89 1.94"/><path fill="#d88936" d="M727.96 571.38q-1.4 10.73-8.2 21.39-6.85 10.76-19.26 11.63-3.4.24-6.23-.89a.61.61 0 0 1-.28-.89q8.79-13.69 10.57-29.93c.39-3.58-.09-7.86-.3-11.74q2.43 3.32 3.1 5.95 1.19 4.68 3.85 9.87 2.32 4.52 7.25 3.51 7.21-1.48 9.5-8.9M273.65 570.04q.02 1.35 1.21 2.45a.75.74 12.6 0 1 .2.31l1.7 4.52q3.45 15.62 12.08 29.08c7.43 11.58 18.77 19.48 31.02 25.74q.21.11.24.16a.81.81 0 0 1-.39 1.27l-6.89 2.23a.61.6 53.6 0 0-.16 1.07q2.13 1.5 4.89 2.57 12.45 4.84 25.48 6.5a.89.89 0 0 1 .48 1.55l-2.16 1.94a.9.9 0 0 0 .4 1.55q25.94 5.81 51.63-2.39l-4.56 22.22a2.73 2.71-13.6 0 1-.96 1.56c-8.86 7.05-19.39 11.15-31.03 10.3a.56.55 25.4 0 1-.35-.96q5.77-5.44 9.53-10.99.21-.31.15-.6-.1-.53-.6-.33-19.4 7.77-40.06 4.2-11.11-1.92-20.48-9.77a.22.22 0 0 1 .15-.39q3.52.21 6.52-.4 2.97-.59 16.44-3.01.64-.12.76-.55a.32.31-76.7 0 0-.24-.4c-26.36-4.69-48.8-21.07-55.12-47.17a.17.17 0 0 1 .26-.18q7.93 5.45 16.76 8.81a.3.3 0 0 0 .34-.48q-10.12-11.59-15.12-26.72-3.96-12.01-2.12-23.69M700.06 570.94c-2.72 13.45-8.75 26.12-18.74 35.36q-5.69 5.26-12.76 7.04a1.65 1.65 0 0 1-1.89-.89q-2.18-4.57-2.54-7.92 10.19-.88 18.28-8.87 6.55-6.45 9.91-11.6 2.91-4.48 5.64-9.13c.57-.97.77-3.45 2.1-3.99M530.86 572.69q.63 9.29 3.17 17.39a1.23 1.23 0 0 1-.31 1.25q-13.18 12.81-28.58 22.04c-6.78 4.07-16.02 5.61-23.36 1.81q-3.67-1.9-6.56-4.05a.54.54 0 0 0-.85.36l-.87 6.67a.36.36 0 0 1-.59.22q-8.34-7.32-12.63-17.77a.67.67 0 0 0-1.29.17l-.27 2.12a.36.36 0 0 1-.62.2q-2.13-2.21-3.44-5.21.95-.39 1.59-1a.8.79 54.9 0 0 .16-.95q-.29-.54-.34-1.29a1.05 1.05 0 0 1 .14-.56l1.97-3.42a.59.58-41.9 0 1 1.04.05q1.18 2.7 2.65 4.23 5.99 6.25 6.44 6.68a2.52 2.52 0 0 0 1.51.71q3.23.33 9.42 1.11c8.84 1.1 17.01-2.74 24.91-7.29q4.38-2.52 8.4-5.77 9.45-7.67 11.5-9.6 2.21-2.07 6.81-8.1M577.48 609.12q-.45 4.18-3 7.9a2.08 2.06 21.4 0 1-2.01.87c-12.32-1.88-22.29-11.4-28.85-21.75q-4.91-7.74-9.77-20.36.57-.05.99.06a.82.81 10.4 0 1 .61.87q-.06.62.39.89.35.22.74.86c4.8 7.87 7.03 12.06 11.98 17.32 3.29 3.5 7.73 6.02 11.63 9.08 5.14 4.04 10.76 5.42 17.29 4.26M659.32 604.78q-.02 4.35 1.8 9.01a.4.4 0 0 1-.34.54c-6.2.53-21.3-1.41-22.49-9.4q-.73-4.87.04-9.7l.92 3.42a3.88 3.84-73.2 0 0 .81 1.53q3.22 3.73 7.32 4.72 5.38 1.29 11.94-.12"/><path fill="#d88936" d="M668.83 632.23q-.42-1.48-1.58-1.06-.98.36-3.57 2.06c-14.91 2.23-28.44-1.29-37.54-13.56a.84.83 53.8 0 0-1.15-.18c-5.39 3.89-11.34 6.93-18.24 7.53a8.96 8.91-63.6 0 0-4.03 1.37c-3.08 1.98-6.72 4.51-9.88 5.77q-15.72 6.25-31.49 1.61c-9.38-2.75-18.83-10.29-24.4-18.32a1.68 1.68 0 0 0-2.61-.19q-4.46 4.74-10.37 7.93-2.44 1.32-5.8 3.39-2.77 1.72-5.87 3.26 2.02-3.68 4.13-6.85c4.22-6.34 6.9-10.98 9.74-17.31a5.81 5.73 81.5 0 1 1.4-1.92l9.09-8.13a.31.31 0 0 1 .47.06q1.03 1.54 5.76 8.69c5.43 8.23 15.95 15.75 25.73 17.77q6.86 1.42 15.81.42c8.44-.95 17.31-6.36 22.65-12.78a.41.41 0 0 1 .72.3l-.73 8.8a.63.63 0 0 0 .83.65q12.21-4.22 19.86-15.49a.51.51 0 0 1 .83-.02q8.65 11.86 22.82 14.58 10.04 1.93 20.19-.98a.5.5 0 0 1 .61.62z"/><path fill="#d88936" d="M601.39 598.34q.54 5.97-.71 9.58-.62 1.8-3.71 4.33-6.82 5.59-15.93 6.39a.52.52 0 0 1-.5-.76q2.08-4.03 1.87-8.94c4.38.22 5.94-.8 10.66-2.89 4.11-1.81 5.2-4.46 8.32-7.71M508.8 632.68q-4.17 1.19-7.91 2.44-5.53 1.84-7.94 2.19c-13.05 1.86-24.42-3.02-32.34-13.72q-5.72-7.71-9.5-14.91a1.16 1.15 41.9 0 1-.06-.96l.98-2.55q3.98 6.53 10.13 10.47a3.25 3.13-1.1 0 1 .79.73q5.67 7.48 14.6 10.44a.51.51 0 0 0 .65-.61q-.72-2.75-.46-5.76a.36.36 0 0 1 .55-.28c14.03 8.57 28.97.87 40.76-7.57a.27.27 0 0 1 .39.34z"/><path fill="#090604" d="M807.2 630.19a14.05 14.05 0 0 1-14.05 14.05 14.05 14.05 0 0 1-14.05-14.05 14.05 14.05 0 0 1 14.05-14.05 14.05 14.05 0 0 1 14.05 14.05m-4.63-.05a9.35 9.35 0 0 0-9.35-9.35 9.35 9.35 0 0 0-9.35 9.35 9.35 9.35 0 0 0 9.35 9.35 9.35 9.35 0 0 0 9.35-9.35"/><circle cx="793.22" cy="630.14" r="9.35" fill="#f6eb54"/><path fill="#f8d98e" d="M668.83 632.23q-1.18 4.65-2.03 6.81-7.6 19.16-18.65 36.5.84-6.25 3.25-10.67 8.6-15.75 12.28-31.64 2.59-1.7 3.57-2.06 1.16-.42 1.58 1.06"/><path fill="#d88936" d="M646.19 678.22c-12.6 17.43-29.66 32.86-48.64 43.44-20.73 11.55-46.66 17.02-70.38 17.19-7.72.05-14.06.57-20.6 1.47a.56.55-81.9 0 1-.58-.78q6.45-14.11 7.3-29.02a.27.26-32.6 0 0-.51-.11c-3.89 9.77-7.99 17.26-14.99 29.63q-9.2 16.25-23.26 28.44c-12.12 10.49-28.24 16.33-44.22 15.71q-5.96-.23-14.08-2.6-19.3-5.61-35.71-18.56 10.98 4.09 21.47 7.59 5.25 1.75 9.51 2.26 9.6 1.13 9.75 1.15c13.71 1.66 29.47-2.57 41.1-10.06q5.16-3.32 14.31-11.01 7.24-6.08 14.24-14.84c4.16-5.2 6.84-9.97 11.05-15.68q1.58-2.14 8.65-15.48c1.58-2.99 2.15-5.67 2.91-8.82a.47.47 0 0 1 .92.03q1.31 7.93 5.72 15.65a2.89 2.72 5.4 0 0 .74.84q2.36 1.82 5.57 2.21 31.82 3.91 61.87-6.61 16.78-5.87 25.67-11.05 11.03-6.43 21.26-13.94 3.38-2.49 6.98-6.28 1.72-1.82 3.95-.77"/><path fill="#f8d98e" d="M617.98 782.85q3.37-4.53 8-8.11 2.05-1.58 2.87-2.65c2.05-2.68 4.46-4.49 6.4-7.46q3.28-5.03 4.61-8.76 4.08-11.52 6.33-20.68 2.74-11.13 3.06-17.69.37-7.46.14-23.17l1.33-9.44q.48-1.21 1.45-1.98a.32.32 0 0 1 .51.2c3.61 21.59 3.4 45.72-3.92 66.16-5.18 14.48-16.26 27.49-30.78 33.58"/><path fill="#d88936" d="m650.72 684.89-1.33 9.44q-1.85 2.39-2.82 4.86c-.51 1.3-1.48 1.97-1.9 3.01q-2.96 7.41-5.43 10.81-4.93 6.77-8.73 12.42c-4.72 7.02-11.43 14.28-16.85 19.63-5.85 5.77-10.66 12.73-11.79 19.73-1.59 9.78 3.42 16.38 13.29 16.53a.63.63 0 0 1 .62.63q0 1.22.7 1.62-13.19 5.41-27.48 6.14c-13.53.7-27.7-1.4-40.93-4.76a.28.27-16.5 0 0-.26.47q7.38 6.64 16.35 8.96.69 8.96-.33 13.05-2.5 9.97-3.69 16.07a5.62 4.27-37.3 0 1-.19.68l-3.43 9.16a.5.49 8.9 0 0 .49.67l.43-.02-3.87 4.61a.32.32 0 0 1-.55-.29q1.62-5.66.96-12.26a.51.51 0 0 0-1-.06q-1.67 8.07-5.58 14.94c-4.17 7.32-11.97 7.4-19.48 5.97a.35.35 0 0 1-.16-.61c5.51-4.48 7.84-13.62 7.96-20.44a.27.27 0 0 0-.52-.11c-2.97 6.74-5.76 12.66-11.8 16.33a2.55 2.55 0 0 1-3.3-.57q-5.58-6.82-5.9-16.54c-.2-6.2-.02-11.97 1.05-18.56q2.54-15.6 4.68-33.27c.67-5.49 2.23-14.43 7.19-17.73q2.68-1.79 8.45-3.61 5.75-1.81 9.65-5.71a4.92 4.91-69.7 0 1 3.05-1.41c16.74-1.39 32.33-6.58 48.09-13.97q11.15-5.22 21.77-13.37 12.51-9.59 19.73-17.22 2.77-2.92 12.86-15.22"/><path fill="#090604" d="m713.7 704.76 9.75-16.89a1.91 1.91 0 0 1 2.92-.48l20.4 18.06a1.91 1.91 0 0 1 .39 2.38l-9.76 16.9a1.91 1.91 0 0 1-2.92.47l-20.39-18.06a1.91 1.91 0 0 1-.39-2.38m28.4 3.06a.64.64 0 0 0-.13-.8l-15.57-13.78a.64.64 0 0 0-.98.16l-6.55 11.34a.64.64 0 0 0 .13.8l15.58 13.77a.64.64 0 0 0 .98-.16z"/><path fill="#51c0ec" d="m742.1 707.82-6.54 11.33a.64.64 0 0 1-.98.16L719 705.54a.64.64 0 0 1-.13-.8l6.55-11.34a.64.64 0 0 1 .98-.16l15.57 13.78a.64.64 0 0 1 .13.8"/><path fill="#edae4e" d="M649.39 694.33q.23 15.71-.14 23.17-.32 6.56-3.06 17.69-2.25 9.16-6.33 20.68-1.33 3.73-4.61 8.76c-1.94 2.97-4.35 4.78-6.4 7.46q-.82 1.07-2.87 2.65-4.63 3.58-8 8.11-.24.38-1.5.72-.7-.4-.7-1.62a.63.63 0 0 0-.62-.63c-9.87-.15-14.88-6.75-13.29-16.53 1.13-7 5.94-13.96 11.79-19.73 5.42-5.35 12.13-12.61 16.85-19.63q3.8-5.65 8.73-12.42 2.47-3.4 5.43-10.81c.42-1.04 1.39-1.71 1.9-3.01q.97-2.47 2.82-4.86"/><path fill="#090604" d="M288.63 728.23a17.44 17.44 0 0 1-17.44 17.44 17.44 17.44 0 0 1-17.44-17.44 17.44 17.44 0 0 1 17.44-17.44 17.44 17.44 0 0 1 17.44 17.44m-4.91-.08a12.61 12.61 0 0 0-12.61-12.61 12.61 12.61 0 0 0-12.61 12.61 12.61 12.61 0 0 0 12.61 12.61 12.61 12.61 0 0 0 12.61-12.61"/><circle cx="271.11" cy="728.15" r="12.61" fill="#e052a7"/><path fill="#d88936" d="M397.38 794.7q-13-10.8-20.51-26.57-1.42-2.97-.06-5.83 8.76 13.35 23.41 21.16a.93.93 0 0 1 .45 1.12z"/><path fill="#f8d98e" d="m564.16 794.38 3.96.85a1.2 1.2 0 0 1 .94 1.25c-.77 12.95-3.87 26.89-11.62 37.51l-.43.02a.5.49 8.9 0 1-.49-.67l3.43-9.16a5.62 4.27-37.3 0 0 .19-.68q1.19-6.1 3.69-16.07 1.02-4.09.33-13.05"/><path fill="#d88936" d="M346.89 815.88q3.93 7.6 13.37 5.67 6.69-1.36 12.09-4.43-5.95 6.79-11.71 9.82-2.61 1.37-6.68.09-7.5-2.38-12.03-8.83a.38.38 0 0 1 .18-.58z"/></svg>