<svg xmlns="http://www.w3.org/2000/svg" viewBox="0 0 1024 1024"><g fill="none" stroke-width="2"><path stroke="#818180" d="M636.49 328.29q-6.94-2.07-12.5 2.01c-6.44 4.74-6.94 14.19-1.07 19.77 7.23 6.87 21.73 3.36 22.76-7.72q.46-4.93-2.08-9.08a.26.26 0 0 1 .3-.38c16.89 5.8 32.75-9.7 23.9-26.22a.36.36 0 0 1 .31-.53q19.18.02 35.16-9.53a1.02 1.01-47.7 0 1 .94-.05q15.51 7.3 30.72-.01c2.78-1.33 5.44-3.76 7.85-5.85a1.67 1.66-67.7 0 1 .92-.39q1.03-.1 4.05-.34c13.67-1.1 25.3-10.22 31.75-22.45q8.26-15.67 5.06-32.8-.28-1.46-1.1-5.59a3.77 3.68-44.3 0 1 .04-1.66c.59-2.33 1.82-6.13 2.11-8.15q3.64-25.7-12.56-43.79-12.25-13.68-32.01-16.91a3.57 3.41 63.2 0 1-1.21-.43c-12.4-7.14-25.14-10.56-39.13-11.98-13.3-1.35-27.93-1.34-41.66 1.84q-10.67 2.48-20.39 10.47a1 .97 28.1 0 1-.77.22q-25.22-3.12-41.47 13.25-18.36 18.48-12.48 46.3a1.07 1.06-38.3 0 1-.09.73q-2.87 5.78-3.67 7.88-3.46 9.06-2.25 19.25c3.06 25.96 25.81 44.65 51.73 43.74a1.31 1.3 69.2 0 1 1.05.48q4.22 5.18 10.7 8.87a.29.29 0 0 1-.02.52c-11.09 5.24-12.66 19.5-4.65 28.15a.23.23 0 0 1-.24.38m-92.23 35.98a.17.16-67.7 0 1-.11-.27q2.63-3.26 2.9-6.52c.88-10.3-10.78-8.93-16.93-7.48a.62.62 0 0 1-.77-.63c.23-3.86-2.27-6.83-6.13-7.03-6.14-.32-11.95 2.34-17.04 6.02a.65.65 0 0 1-.98-.29c-3.27-8.16-11.4-6.42-16.07-.93q-4.97 5.85-10.69 13.55a4.28 4.25 12.6 0 1-2.6 1.64q-17.4 3.41-36.11 9.76a.67.66 62.9 0 1-.76-.25q-.97-1.37-2.67-3.9c-22.47-33.42-69.84-29.82-86.98 6.49-8.23 17.44-6.58 38.39 5.82 53.5a.39.39 0 0 1-.03.52q-17.6 18.07-32.11 39.56-18.67 27.65-31.04 53.94-13.87 29.49-23.12 59.2c-2.48 7.96-4.09 15.86-5.96 23.19-5.02 19.68-7.37 40.93-7.94 60.67-.9 31.29 4.26 62.94 16.41 92.63q21.16 51.7 67.86 79.14c33.8 19.86 72.29 27.56 111.04 30.45q15.8 1.18 34-1.47 1.76-.25 4.75-.24 47.61.14 95.5-6.26 31.39-4.2 57.55-11.25 20.01-5.39 37.32-13.91 8.96-4.41 20.24-12.5a.54.53 56.6 0 1 .77.16c5.26 8.83 16.58 7.52 23.82 2.41 12.44-8.8 21.3-24.17 26.94-38.41 3.14-7.95 5.74-15.87 5.01-23.57q-.46-4.86-4.95-7.44a1.47 1.45 8.1 0 1-.69-.91q-1.94-7.38-10.09-5.16a.93.88 46.6 0 1-.54-.03l-4.85-1.94a.74.73-75.7 0 1-.45-.76c2.89-25.17-3.32-50.8-15.67-72.87q-3.44-6.15-4.4-7.91a1.28 1.26 41.1 0 1-.08-1.07c6.17-16.49 4.27-32.28-2.11-49.34q-.93-2.49-5.33-11.28a.8.8 0 0 1 .12-.9q5.13-5.68 6.65-7.58 7.12-8.85 11.07-20.7 9.79-29.4-.64-58.25-7.29-20.15-23.53-33.97c-9.26-7.88-20.91-12.23-30.82-20.63a10.86 10.71-84.4 0 1-2.56-3.16c-7.9-14.75-16.35-28.4-26.97-40.98-4.48-5.31-10.86-10.89-14.59-14.74a.89.87 31.7 0 1-.21-.85c7.3-24.09-4.89-49.36-29.52-56.4-18.85-5.39-36.19 2.72-46.06 19.35a.35.35 0 0 1-.34.18l-5.33-.58" vector-effect="non-scaling-stroke"/><path stroke="#818180" d="M640.68 167.89q-8.22-1.53-11.18-1.34-14.38.88-24.39 9.35c-13.2 11.16-16.01 27.46-12.01 43.87a1.9 1.85-35.2 0 1-.28 1.51c-9.77 14.08-7.78 31.33 2.72 44.34 9.62 11.92 22.42 15.7 37.5 15.62a2.17 2.16 70.9 0 1 1.74.85c7.82 10.2 19.98 14.96 32.7 15.27q19.47.46 35.23-10.67a1.77 1.77 0 0 1 1.88-.1q18.66 10.51 34.17-3.49a2.79 2.76 22.2 0 1 1.72-.71q19.63-.87 29.45-16.1c6.69-10.38 8.19-23.66 4.74-35.85a7.1 7.09-44.1 0 1 .07-4.12c4.59-14.17 3.66-28.35-4.96-40.68q-9.53-13.62-26.52-17.99-.26-.06-5.45-1.11a6.33 6.25 66.1 0 1-2.06-.81q-10.24-6.22-25.32-9.13-22.25-4.3-43.86-.99-11.73 1.79-19.81 7.31a3.17 2.76-20 0 0-.34.28l-4.61 4.36a1.31 1.3 28.6 0 1-1.13.33m-1.097 147.188a11.54 10.79-178.7 0 0 11.292 11.05 11.54 10.79-178.7 0 0 11.782-10.526 11.54 10.79-178.7 0 0-11.292-11.05 11.54 10.79-178.7 0 0-11.782 10.526M638.44 340.6a6.05 6.05 0 0 0-6.05-6.05 6.05 6.05 0 0 0-6.05 6.05 6.05 6.05 0 0 0 6.05 6.05 6.05 6.05 0 0 0 6.05-6.05" vector-effect="non-scaling-stroke"/><path stroke="#818180" d="M681.88 266.63c36.63-.18 27.27-45.29 18.76-65.46q-4.52-10.73-12.28-17.29-2.62-2.21-6.9-2.19t-6.87 2.26q-7.7 6.63-12.11 17.41c-8.31 20.25-17.23 65.45 19.4 65.27" vector-effect="non-scaling-stroke"/><path stroke="#817a68" d="M675.24 188.89q-15.88 25.24-13.18 55.15.6 6.67 4.11 11.25 2.83 3.7 7.88 5.24" vector-effect="non-scaling-stroke"/><path stroke="#1f1c17" d="m674.05 260.53 5.78.67a14.11 13.86 45.5 0 0 2.84.05l3.81-.33" vector-effect="non-scaling-stroke"/><path stroke="#817a68" d="M686.48 260.92q2.39.56 4.17-1.96" vector-effect="non-scaling-stroke"/><path stroke="#1f1c17" d="M690.65 258.96q2.85.01 5.34-2.25" vector-effect="non-scaling-stroke"/><path stroke="#817a68" d="M695.99 256.71q7.38-8.8 6.36-22.83c-1.08-15.05-4.38-30.38-12.82-42.41" vector-effect="non-scaling-stroke"/><path stroke="#794d1c" d="m689.53 191.47-.51-.77" vector-effect="non-scaling-stroke"/><path stroke="#1f1c17" d="M689.02 190.7q-1.88-2.15-4.29-2.82" vector-effect="non-scaling-stroke"/><path stroke="#817a68" d="m684.73 187.88-.94-1.27" vector-effect="non-scaling-stroke"/><path stroke="#1f1c17" d="M683.79 186.61q-1.44-.79-3.22-.29-2.78.79-5.33 2.57" vector-effect="non-scaling-stroke"/><path stroke="#9b927c" d="M683.79 186.61q-.53-.05-.7.49a.73.66 50 0 0-.01.31q3.83 16.01 5.52 31.82c1.34 12.46 2.04 21.75.21 33.13q-.7 4.36-2.33 8.56m-12.43-.39c-1.1-2.18-2.43-4.3-3.22-6.49-5.43-15.05-4.07-30.49-1.1-45.76q.63-3.21 2.73-9.71 1.53-4.73 2.78-9.68" vector-effect="non-scaling-stroke"/><path stroke="#9b927c" d="M684.73 187.88c7.6 18.76 11.89 38.22 10.14 57.19q-.62 6.75-4.22 13.89" vector-effect="non-scaling-stroke"/><path stroke="#926530" d="M689.02 190.7q-1.19-.87.1 1.27" vector-effect="non-scaling-stroke"/><path stroke="#9b927c" d="M689.12 191.97q7.69 19.22 10.07 39.05 1.56 13.05-3.2 25.69" vector-effect="non-scaling-stroke"/><path stroke="#f5c380" d="M689.53 191.47q-.14.31-.41.5" vector-effect="non-scaling-stroke"/><path stroke="#7d6026" d="M501.17 365.86q-3.67.08-3.72-7.21" vector-effect="non-scaling-stroke"/><path stroke="#7a6949" d="m497.45 358.65-.59-4.39a.3.3 0 0 0-.49-.2q-1.3 1.05-2.1 2.21c-4.25 6.15-7.92 11.63-13.49 15.01q-2.12 1.29-6.01 2.13-15.19 3.29-28.71 7.63-1.01.32-3.13 1.22a.73.72-14.3 0 0-.43.72l.25 3.04" vector-effect="non-scaling-stroke"/><path stroke="#7d6026" d="m442.75 386.02-.4 7.95" vector-effect="non-scaling-stroke"/><path stroke="#7a6949" d="M442.35 393.97c-1.73 1.44-3.64-.79-4.37-2.23q-4.27-8.48-6.97-13.22c-6.49-11.4-18.4-21.76-32.3-23q-20.49-1.81-34.09 14.13" vector-effect="non-scaling-stroke"/><path stroke="#794d1c" d="M364.62 369.65c-11.74 14.27-13.98 35.74-2.26 50.98q7.12 9.24 14.66 13.11 4.66 2.38 9.26 5.04" vector-effect="non-scaling-stroke"/><path stroke="#7d6026" d="M386.28 438.78q.23 1.08-.07 1.99a1.02 1.02 0 0 1-.65.65q-2.02.69-3.82.54-6.58-.53-12.33-3.24" vector-effect="non-scaling-stroke"/><path stroke="#7a6949" d="m369.41 438.72-5.66-3.39a.55.55 0 0 0-.68.08c-12.83 12.93-25.08 29.11-35.74 45.17q-6.67 10.03-15.83 26.62-24.59 44.55-37.42 95.6-9.19 36.55-8.31 76.7.39 17.81 3.71 33.64" vector-effect="non-scaling-stroke"/><path stroke="#7d6026" d="M269.48 713.14q-.21 1.79.75 3.1" vector-effect="non-scaling-stroke"/><path stroke="#794d1c" d="M270.23 716.24q0 3.14.96 7.07 5.03 20.47 13.67 38.58c17.37 36.4 46.38 62.92 83.79 77.51q15.97 6.23 28.67 9.01 23.54 5.15 36.12 6.71 15.24 1.88 33.49 1.76c15.51-.1 31.12-4.53 44.77-11.67q5.12-2.68 9.62-6.39a1.52 1.51 66.1 0 0 .53-1.38q-.84-5.78.97-11.41" vector-effect="non-scaling-stroke"/><path stroke="#7d6026" d="M522.82 826.03q1.04-2.44 2.46-1.65" vector-effect="non-scaling-stroke"/><path stroke="#7a6949" d="M525.28 824.38q1.79 3.05 2.9 6.45c1.98 6.09 6.58 12.35 13.52 8.8q5.67-2.89 9.14-9.12 4.72-8.49 8.3-17.85" vector-effect="non-scaling-stroke"/><path stroke="#817a68" d="m559.14 812.66 6.76-17.95" vector-effect="non-scaling-stroke"/><path stroke="#7a5b50" d="M565.9 794.71q3.04-7.35 5.03-15.03.24-.92.3-1.94a1.12 1.12 0 0 0-1.71-1c-2.85 1.8-4.35 5.78-7.54 11.55a1.58 1.56 27.5 0 1-2.07.64c-2.07-1-.65-4.94.23-7.09q2.37-5.77 2.9-8.33.27-1.33-.2-2a1.86 1.65-34.1 0 0-2.42-.32c-4.91 3.19-7.62 10.67-10.1 15.88" vector-effect="non-scaling-stroke"/><path stroke="#817a68" d="M550.32 787.07q-1.15.95-1.58.81a2.82 2.5-76.8 0 1-1.62-3q.91-5.91 3.26-11.24a.66.66 0 0 0-.97-.81c-12.45 8.47-18.25 25.92-23.24 39.04q-.26.66-1.26.91" vector-effect="non-scaling-stroke"/><path stroke="#7a6949" d="M524.91 812.78q-.16-.09-.5-.13" vector-effect="non-scaling-stroke"/><path stroke="#7d6026" d="M524.41 812.65c-1.92-3.53-1.17-9.14-.43-12.92q3.94-20.08 19.67-32.7" vector-effect="non-scaling-stroke"/><path stroke="#7a6949" d="m543.65 767.03 4.01-2.14a.67.65 70.4 0 0 .33-.72c-3.01-14.01-6.67-27-14.85-39.57q-14.88-22.89-41.62-31.6-9.35-3.04-18.94-4.66" vector-effect="non-scaling-stroke"/><path stroke="#7d6026" d="M472.58 688.34q-.64-.35-.9-.7a.49.49 0 0 1 .29-.77q2.24-.51 5.74-.72c17.56-1.02 33.9 5.01 47.13 16.47a2.75 2.72 69.1 0 0 1.43.65q25.89 3.68 50.09-4.95" vector-effect="non-scaling-stroke"/><path stroke="#817a68" d="M576.36 698.32q5.45-1.88 7.65-1.23c7.32 2.13 14.71 3.85 22.05 2.03a.69.68-36.4 0 0 .19-1.25l-6.84-4.14" vector-effect="non-scaling-stroke"/><path stroke="#818180" d="M599.41 693.73q-1.42-.92-1.96-1.92a.82.82 0 0 1 .74-1.22c5.54.16 12.03 4.14 16.06 2.33a1.7 1.69 61.7 0 0 .73-2.45q-1.51-2.38-4.3-4.17-2.44-1.57-7.25-4.95a.96.96 0 0 1 .26-1.7q1.1-.35 1.96-.05 4.31 1.54 8.41 2.88a.78.77-2.1 0 0 .96-1.03c-2.46-6.13-13.71-11.61-19.81-14.27a4.45 4.04 69.6 0 1-.6-.31l-7.33-4.59" vector-effect="non-scaling-stroke"/><path stroke="#7d6026" d="M587.28 662.28q-5.14-3.42-11.4-6.66-15.38-7.96-34.65-13.69-1.49-.44-2.34-1.54a.62.62 0 0 1 .38-.98l3.57-.65" vector-effect="non-scaling-stroke"/><path stroke="#7a6949" d="M542.84 638.76c13.2.29 25.46 3.95 37.66 10.01" vector-effect="non-scaling-stroke"/><path stroke="#817a68" d="M580.5 648.77q8.46 4.16 12.81 7.42 3.97 2.99 6.74 4.83a9.75 9.5-16.7 0 0 1.76.92c6.15 2.45 12.43 6.28 16.88 11.35q3.02 3.45 3.78 8.1.69 4.15-.27 9.01" vector-effect="non-scaling-stroke"/><path stroke="#7a6949" d="M622.2 690.4q1.28 4.2-1.85 7.34c-1.78 1.78-4.31 2.18-5.45 4.04-5.39 8.83-22.33 5.96-30.12 2.97a2.71 2.68 44.6 0 0-1.93 0c-15.53 6.03-30.55 9.6-47.42 7.55a.29.29 0 0 0-.27.45l7 10.1" vector-effect="non-scaling-stroke"/><path stroke="#817a68" d="M542.16 722.85q10.52 18.93 11.09 40.02a1.09 1.08-79.5 0 0 .66.97l2.31 1.01a1.31 1.3-48.1 0 0 1.19-.07c4.36-2.57 10.25-2.62 12.4 3.11a.82.81 80.8 0 0 .73.53c10.65.41 8.32 11.97 6.22 18.86q-6.56 21.48-15.07 40.61" vector-effect="non-scaling-stroke"/><path stroke="#7a6949" d="M561.69 827.89q-2.56 5.21-6.81 10.99c-6.22 8.46-16.97 14.15-26.79 7.17a.82.82 0 0 0-1.04.08q-4.28 4.2-10.57 8.03a.23.23 0 0 0 .13.42q20.24-.71 38.18-2.4c12.94-1.22 31.22-3.91 43.73-5.69q20.5-2.93 45.18-10.11 14.08-4.09 26.49-10.02" vector-effect="non-scaling-stroke"/><path stroke="#794d1c" d="M670.19 826.36q15.4-6.33 27.28-16.57a1.9 1.89 71 0 0 .65-1.34q.19-5.14 2.12-11.4" vector-effect="non-scaling-stroke"/><path stroke="#7d6026" d="M700.24 797.05q5.54-24.16 22.46-43.29a2.09 2.05-16.5 0 0 .43-.77q.25-.89.5-3 .87-7.29.99-17.16c.21-17.99-5.31-36.27-13.93-52.15" vector-effect="non-scaling-stroke"/><path stroke="#794d1c" d="m710.69 680.68-3.19-5.8a.83.82 46.2 0 0-1.43-.03q-1.62 2.67-4.23 4.99-7.13 6.33-15.37 10.54" vector-effect="non-scaling-stroke"/><path stroke="#7a6949" d="M686.47 690.38q-2.51 3.11-5.06 5.28c-5.55 4.75-14.74 8.44-21.71 4.49a4.02 3.86 63.1 0 0-1.29-.45q-.6-.09-1.99-.13c-3.8-.12-6.82-2.79-7.95-6.29a1.6 1.6 0 0 0-.74-.91l-3.36-1.92" vector-effect="non-scaling-stroke"/><path stroke="#817a68" d="M644.37 690.45q-2.48-4.51-2.44-9.7c.06-7.15 1.94-12.96 5.52-19.48 3.84-7.01 6.27-15.25 8.41-22.91" vector-effect="non-scaling-stroke"/><path stroke="#7a6949" d="m655.86 638.36 3.49-10.92" vector-effect="non-scaling-stroke"/><path stroke="#794d1c" d="M659.35 627.44q1.83.87 2.35 2.09" vector-effect="non-scaling-stroke"/><path stroke="#7d6026" d="M661.7 629.53c2.58 8.23.62 17.53-2.15 25.31" vector-effect="non-scaling-stroke"/><path stroke="#818180" d="M659.55 654.84q-1.85 4.4-4.29 8.66c-3.33 5.77-6.7 13.08-5.47 19.77a.61.61 0 0 0 1.06.28l6.73-8.01a1.32 1.32 0 0 1 2.32.64q.14.67-.39 1.85-3.04 6.8-4.13 11.88a1.6 1.59 9.8 0 0 1.36 1.92q1.64.2 3.21-1.15c2.51-2.16 5.62-5.89 9.39-8.58a.93.93 0 0 1 1.39 1.12l-4.32 9.91a.56.56 0 0 0 .52.79c6.59-.1 13.46-7.48 18.16-12.34a5.54 5.34-82.9 0 1 .99-.8l4.08-2.52" vector-effect="non-scaling-stroke"/><path stroke="#7d6026" d="M690.16 678.26c8.24-6.38 15.5-17.21 16.76-27.78.62-5.25.82-11.6-.25-16.92q-1.41-7.04-4.52-15.66" vector-effect="non-scaling-stroke"/><path stroke="#794d1c" d="m702.15 617.9-3.81-7.69a.92.92 0 0 0-1.35-.34q-17.26 12.17-38.53 14.61" vector-effect="non-scaling-stroke"/><path stroke="#7a6949" d="M658.46 624.48c-4.34.72-10.37 1.4-14.59.01a.63.63 0 0 1-.1-1.15c1.73-.91 3.65-1.73 5.47-2.19 17.81-4.53 35.01-11.9 48.61-24.57q12.16-11.34 17.59-28.11 1.34-4.15 1.74-6.72" vector-effect="non-scaling-stroke"/><path stroke="#817a68" d="M717.18 561.75q3.85-19.25-1.92-38.26" vector-effect="non-scaling-stroke"/><path stroke="#7a6949" d="M715.26 523.49q-6.31-21.05-23.4-34.34c-5.29-4.12-13.67-8.65-20.11-13.11q-4.29-2.97-8.82-6.05" vector-effect="non-scaling-stroke"/><path stroke="#7d6026" d="M662.93 469.99q-3.75-3.93-4.71-5.71-2.31-4.26-4.64-8.47" vector-effect="non-scaling-stroke"/><path stroke="#7a6949" d="M653.58 455.81c-12.87-23.97-30.99-45.4-54.42-59.74-18.52-11.34-40.19-19.92-61.05-21.96a4.89 4.84-49 0 0-1.72.13c-1.53.4-3.2 1.03-4.51.61-7.29-2.36 1.7-12.43 4.01-15.49a.28.28 0 0 0-.26-.45q-9.79 1.15-17.97 7.04" vector-effect="non-scaling-stroke"/><path stroke="#7d6026" d="M517.66 365.95q-3.09 2.1-3.8-.55-.74-2.79 2.08-8.65" vector-effect="non-scaling-stroke"/><path stroke="#7a6949" d="M515.94 356.75q.92-.86 1.85-3.15a.25.25 0 0 0-.31-.33c-6.45 2.11-10.8 6.7-16.31 12.59" vector-effect="non-scaling-stroke"/><path stroke="#f1c56b" d="M515.94 356.75q-6.22 3.18-10.8 8.13-.8.87-3.97.98m16.49.09q3.17.07 7.71-1.25 1.17-.35 3.42.16a.28.28 0 0 1 .16.44q-3.71 4.86-1.04 8.57 1.28 1.77 4.38 2.28 2.08.34 7.16.21 3.26-.09 7.09.68 7.47 1.52 15 4.24 5.2 1.88 10.15 3.43a3.64 3.55 71.1 0 1 1.09.55q1.21.88 3.07 1.19a1.5 1.37-23.6 0 1 .5.17q10.5 5.87 12.21 6.7 6.52 3.17 10.94 6.79 2.24 1.82 10.92 7.68 2.07 1.4 4.96 4.22c4.2 4.09 6.12 6.07 10.13 9.51q3.84 3.29 5.24 5.22 7.55 10.46 14.37 18.8c2.3 2.82 3.78 5.64 6.01 9.19q.65 1.03 2.45 1.08m9.35 14.18q2.35 5.77 9.61 9.43c3.06 1.55 5.92 4.06 8.66 5.57q4.5 2.49 7.91 5.62 10.96 10.07 19.11 22.66 2.58 3.98 4.97 11.44" vector-effect="non-scaling-stroke"/><path stroke="#f9d68a" d="M713.19 524.71q-4.79 8.68-13.14 13.51c-16.14 9.34-37.41 4.86-50.71-7.05q-.36-.32-1.33-1.87" vector-effect="non-scaling-stroke"/><path stroke="#7d6026" d="M648.01 529.3q.63-1.4-.02-3.3-2.56-7.5-8.06-10.66-1.49-.85-2.44-.6a2.04 2.01-24.1 0 0-1.19 3.06q1 1.53 1.96 2.66" vector-effect="non-scaling-stroke"/><path stroke="#f9d68a" d="M638.26 520.46q-20-8.97-38.47 2.39-9.22 5.66-13.07 9.36-12.14 11.65-23.4 19.09-30.52 20.19-68.25 22.82" vector-effect="non-scaling-stroke"/><path stroke="#f1c56b" d="M495.07 574.12q-8.2-8.52-15.57-17.54-4.54-5.57-9.42-9.62c-12.61-10.48-27.19-9.21-39.17 1.01q-6.37 5.44-12.84 13.37" vector-effect="non-scaling-stroke"/><path stroke="#f9d68a" d="M418.07 561.34q-34.2-16.44-45.36-52.08-2.04-6.52-1.87-14.79" vector-effect="non-scaling-stroke"/><path stroke="#7d6026" d="m370.84 494.47 12.01-7.39a.69.69 0 0 0-.22-1.27q-1.74-.36-4.15.15-9.73 2.04-19.16 8.39-23.83 16.03-33.19 43.79-8.76 26.01-1.56 53.18" vector-effect="non-scaling-stroke"/><path stroke="#f0a93e" d="M324.57 591.32q-1.28 5.14.33 10.93.01.05 3.82 10.39 2.74 7.42 4.82 11.54 10.4 20.62 26.88 32.66 19.19 14.02 44.05 18.47c23.2 4.15 50.3 1.73 72.58-6.59q10.06-3.75 21.28-8.41c12.97-5.37 22.09-11.64 35.35-20.41q.66-.43 2.23-.89a.26.25-39.2 0 0 .05-.47l-3.79-2.05" vector-effect="non-scaling-stroke"/><path stroke="#7d6026" d="m532.17 636.49 3.55-1.99" vector-effect="non-scaling-stroke"/><path stroke="#f1c56b" d="m535.72 634.5 7.12 4.26" vector-effect="non-scaling-stroke"/><path stroke="#f9dda3" d="M587.28 662.28q-14.45 10.4-12.31 29.18" vector-effect="non-scaling-stroke"/><path stroke="#f9d68a" d="M574.97 691.46q-.5 3.59 1.39 6.86" vector-effect="non-scaling-stroke"/><path stroke="#f1c56b" d="M472.58 688.34q-.26 1.95 1.44 2.36 10.86 2.62 18.52 7.25 14.86 9 26.34 21.16 11.01 11.65 15.57 22.21 2.75 6.35 5.13 10.81 1.6 3 3.67 10.98a1.12.34 61.8 0 1 .03.15l.37 3.77m-19.24 45.62q-.49 2.83.08 5.84.57 2.99.79 5.89" vector-effect="non-scaling-stroke"/><path stroke="#f0a93e" d="m522.82 826.03-.23-6.86a.39.39 0 0 0-.53-.35q-17.33 6.73-34.99 9.73-14.64 2.48-25.33 3.17-14.39.92-33.66-1.47c-9.85-1.22-15.73-2.2-24.95-4.62q-29.61-7.76-56.16-24.11c-12.14-7.48-22.56-16.07-33.24-25.52q-1.75-1.55-7.19-7.3-4.98-5.26-7.2-7.94-1.03-1.25-8.92-11.16-12.02-15.13-20.19-33.36" vector-effect="non-scaling-stroke"/><path stroke="#f1c56b" d="M269.48 713.14q1.21-4.44.21-9.19-.84-3.95-.83-5.02c.01-4.17-.78-8.24-.7-12.77.14-7.58.15-16.3 1.61-24.39q.68-3.81 1.24-10.01c.81-9 2.69-19.99 5.56-30.58q1.93-7.1 5.29-20.91c2.05-8.43 4.43-14.97 7.79-24.03q1.3-3.51 10.59-28.31 2.95-7.87 5.6-13.1 5.97-11.78 16.62-33.96c1.51-3.12 3.5-6.5 5.69-9.53q7.55-10.45 9.7-14.74.62-1.24 1.81-3.03.64-.96 1.29-2.01 3.8-6.17 7.91-11.98 2.27-3.2 7.61-8.88 4.15-4.41 7.69-9.25a1.3 1.3 0 0 1 .48-.4l4.77-2.33" vector-effect="non-scaling-stroke"/><path stroke="#f0a93e" d="m386.28 438.78 8-9.37a.61.61 0 0 0-.13-.91l-2.4-1.56" vector-effect="non-scaling-stroke"/><path stroke="#f2b772" d="M391.75 426.94c2.42.78 4.54 1.53 6.72-.46q2.62-2.39 5.26-4.75.35-.3.51-1.26" vector-effect="non-scaling-stroke"/><path stroke="#7d6026" d="M404.24 420.47q1.45-.22 2.02-.69 7.4-6.07 15.5-12.26 1.6-1.23 2.04-3.5a2.19 2.03 45.4 0 0-.03-.93q-.78-3.09-4.42-10.19-5.23-10.19-13.73-16.99-9.15-7.32-20.12-6.38" vector-effect="non-scaling-stroke"/><path stroke="#f0a93e" d="m385.5 369.53-8.34-4.73" vector-effect="non-scaling-stroke"/><path stroke="#fdf7e5" d="M599.41 693.73q-13.75 3.2-24.44-2.27" vector-effect="non-scaling-stroke"/><path stroke="#794d1c" d="M385.5 369.53q-8.85 1.48-12.4 8.58-.84 1.68 1.02 2.49" vector-effect="non-scaling-stroke"/><path stroke="#eea468" d="M374.12 380.6q-4.88 10.14-2.66 20.88.92 4.42 3.64 9.51c3.94 7.37 8.51 12.9 16.65 15.95" vector-effect="non-scaling-stroke"/><path stroke="#f1c56b" d="M497.45 358.65q-1.91 2.75-3.8 5.38-2.23 3.1-4.4 4.87-4.88 3.98-10.7 5.62-12.73 3.58-31.83 8.39a3.02 2.99-72.7 0 0-1.26.67l-2.71 2.44" vector-effect="non-scaling-stroke"/><path stroke="#edb261" d="M658.46 624.48q-.11 1.72.89 2.96" vector-effect="non-scaling-stroke"/><path stroke="#f6dfad" d="M655.86 638.36q-13.34 1.52-16.92 2.8-22.03 7.82-44.95 9.45-3.64.26-5.94-.27-2.49-.58-5.65-1.97-1.01-.43-1.9.4m134.76-125.28q-1.99.33-2.07 1.22" vector-effect="non-scaling-stroke"/><path stroke="#f1c56b" d="M442.35 393.97q1.29.62.11 1.79a1.31 1.29-69 0 1-.84.38q-3.4.26-4.99-2.66-3.49-6.43-6.37-10.12-1.26-1.61-8.67-9.47c-2.3-2.44-5.26-4.5-7.95-5.77-11.46-5.37-23.79-7.41-36.48-3.32" vector-effect="non-scaling-stroke"/><path stroke="#edb261" d="m377.16 364.8-9.15 3.84a2.55 2.5 10.3 0 0-.84.57q-2.12 2.15-2.55.44" vector-effect="non-scaling-stroke"/><path stroke="#817a68" d="M370.84 494.47c-20.13 13.35-34.9 34.18-38.23 58.08" vector-effect="non-scaling-stroke"/><path stroke="#7a6949" d="M332.61 552.55q-3.73 22.47 3.91 42.64c9.69 25.57 31.24 46.72 57.66 55.37q18.95 6.2 38.55 5.98 28.36-.33 56.71-9.68 14.81-4.88 22.75-8.21 20.99-8.81 22.55-9.41 4.98-1.93 11.5-3.7a.74.74 0 0 1 .61 1.32l-11.13 7.64" vector-effect="non-scaling-stroke"/><path stroke="#794d1c" d="M532.17 636.49q-30.05 17.46-65.96 25.64c-28.99 6.61-61.6 5.92-87.91-7.11-26.85-13.3-44.81-34.67-53.73-63.7" vector-effect="non-scaling-stroke"/><path stroke="#7a5b50" d="M404.24 420.47c-.94-.37-1.36-1.12-1.05-2.13 1.61-5.16 6.7-10.06 10.97-13.18a.64.61 63.6 0 0 .22-.7q-1.75-5.35-5.08-11.23c-5.02-8.83-15.81-18.68-26.68-17.19q-4.1.56-8.5 4.56" vector-effect="non-scaling-stroke"/><path stroke="#f6dfad" d="M418.07 561.34c23.8 11.52 50.79 14.57 77 12.78" vector-effect="non-scaling-stroke"/><path stroke="#817a68" d="M638.26 520.46q4.24 4.06 8.4 8.38.37.38 1.35.46" vector-effect="non-scaling-stroke"/><path stroke="#f6dfad" d="m717.18 561.75-5.48 7.64a.81.78 1.4 0 1-.22.2q-.6.34-1.08 1.05c-5.8 8.72-13.08 15.63-22.58 21.62q-8.05 5.09-11.03 6.78-1.84 1.04-10.47 4.14-4.51 1.62-10.56 3.94-10.02 3.85-20.9 4.89a2.88 2.71 25.9 0 0-1.06.33q-2.81 1.54-5.16.88a2.04 2.03 41.4 0 0-1.33.08q-4.52 1.93-10.34 1.86a4.42 4.22-50.7 0 0-1.05.13q-2.97.79-3.5 1.1-13.95 8.42-30.36 6.74-13.25-1.36-20.81-1.11-4.74.16-13.51.23-8.27.07-17.23 3.05-19.85 6.61-35.77 10.46c-37.95 9.16-77.94 6.27-111.78-13.51q-16.48-9.63-30.03-26.75c-4.06-5.12-6.65-10.69-10-16.25q-2.99-4.97-5.67-12.62-2.46-7-4.65-14.08m311.76 137.9q2.19 12.55 15.05 14.93 7.86 1.46 16.51-.55 2.99-.7 6.99-2.65 3.35-1.63 6.78-3.22" vector-effect="non-scaling-stroke"/><path stroke="#f9d68a" d="M689.7 698.96q1.34 3.2 2.09 5.74c5.1 17.28 8.91 34.47 7.48 52.55q-1.03 12.99-3.06 22.48-2.07 9.72-7.72 19.97" vector-effect="non-scaling-stroke"/><path stroke="#f6dfad" d="m688.49 799.7-1.93 2.72a1.89 1.85-86.5 0 1-.63.57c-2.58 1.44-4.47 2.91-7.56 4.22q-6.33 2.67-13.55 4.56c-9.37 2.46-14.48 4.11-23.19 6.9q-5.25 1.68-14.52 2.89-10.33 1.35-14.69 2.03-21.6 3.38-22.17 3.44-12.22 1.27-23.83.88-.65-.03-2.37.13-1.38.12-2.36-.15m-19.53-105.04q7 .5 16.84.07 10.16-.45 17.82-3.01c3.8-1.27 8.12-3.62 11.67-4.9a9.47 9.44-54.1 0 1 3.4-.55c12.93.34 23.18-2.39 30.3-13.76q1.78-2.84 1.45-4.83a.78.74-72.5 0 0-.17-.35q-.05-.05-.23-.08a.38.37-83.9 0 1-.33-.42q.23-2.45-.71-4.62" vector-effect="non-scaling-stroke"/><path stroke="#f0a93e" d="M702.15 617.9c-2.62 1.55-5.01 3.37-7.71 4.52q-15.44 6.57-32.74 7.11" vector-effect="non-scaling-stroke"/><path stroke="#f6dfad" d="M559.14 812.66q-1.71 2.32-3.67 3.28a2.05 1.97 5.3 0 0-.69.55c-2.23 2.81-4.05 5.06-7.12 7.26-5.87 4.21-12.56 3.96-17.95-1.09a3.67 3.17 8.8 0 1-.52-.61q-2.27-3.34-4.18-5.78-1.24-1.58-.1-3.49" vector-effect="non-scaling-stroke"/><path stroke="#f0a93e" d="M700.24 797.05q-5.74 1.22-11.97 5.16" vector-effect="non-scaling-stroke"/><path stroke="#f1c56b" d="M688.27 802.21q.42-1.27.22-2.51m1.21-100.74q.12-.24-.29-1.18" vector-effect="non-scaling-stroke"/><path stroke="#f9dda3" d="M690.16 678.26q-1.53-6.18-3.89-10.08-7.12-11.76-21.56-12.81-2.51-.18-5.16-.53" vector-effect="non-scaling-stroke"/><path stroke="#f6d1b4" d="M565.9 794.71q-.29-1.55-1.96-1.02a1.41 1.39 49.6 0 1-1.03-.09l-12.59-6.53" vector-effect="non-scaling-stroke"/><path stroke="#f0a93e" d="M710.69 680.68q-2.48 4.92-3.63 6.13-5.91 6.24-15.84 11.01a1.47 1.47 0 0 1-.94.12l-.87-.16" vector-effect="non-scaling-stroke"/><path stroke="#edb261" d="m689.41 697.78-2.94-7.4m-16.28 135.98q4.78-5.16 8.82-10.22 1.86-2.33 4.57-6.99 2.22-3.81 4.69-6.94" vector-effect="non-scaling-stroke"/><path stroke="#7d6026" d="m564.03 369.42 12.81 4.06a.77.76 23.2 0 0 .89-.35q2.4-4.16 6.89-6.9c3.63-2.22 9.03-2.74 12.64-1.04q2.93 1.37 1.9 4.15" vector-effect="non-scaling-stroke"/><path stroke="#7a5b50" d="M599.16 369.34q-2.12-.14-4.16-.23c-4.51-.21-8.09 3.5-9.9 7.28a.38.38 0 0 0 .18.5q10.59 4.94 21.58 11.72" vector-effect="non-scaling-stroke"/><path stroke="#7d6026" d="m606.86 388.61 8.82 5.97a.53.53 0 0 0 .82-.32q1.79-8.15-.81-15.99-2.37-7.13-4.79-9.84" vector-effect="non-scaling-stroke"/><path stroke="#7a6949" d="M610.9 368.43q-1.1-2.18-2.64-3.69c-8.12-7.98-18.51-12.65-29.74-9.97q-11.48 2.74-18.05 12.78a.42.42 0 0 0 .21.62l3.35 1.25" vector-effect="non-scaling-stroke"/><path stroke="#f1c56b" d="M610.9 368.43q-4.57-2.52-8.22-5.33-2.86-2.21-6.99-3.2-18.62-4.49-31.66 9.52" vector-effect="non-scaling-stroke"/><path stroke="#f2b772" d="M606.86 388.61q.08-5.39-1.37-10.53-.71-2.48-2.36-4.46-1.92-2.3-3.97-4.28" vector-effect="non-scaling-stroke"/><path stroke="#7a6949" d="M710.06 792.45c-2.19 5.6-6.86 23.06.02 26.35 4.28 2.04 10.27-2.09 13.34-4.88q5.03-4.56 9.14-11.47" vector-effect="non-scaling-stroke"/><path stroke="#817a68" d="M732.56 802.45q8.92-12.72 14.69-28.69 1.8-4.99 1.97-9.81a.51.51 0 0 0-.96-.27q-3.01 5.24-5.33 8.73-.88 1.32-1.53 1.52a1.6 1.52-88.2 0 1-1.86-2.08c1.49-4.24 4.58-10.45 3.99-14.78a.66.66 0 0 0-.64-.58q-1.83-.03-2.83 1.61c-2.23 3.64-4.4 8.96-7.92 12.82a.89.89 0 0 1-.9.26q-1.87-.51-1.54-2.19.58-2.88 3.26-9.03.86-1.96.44-3.47a.89.89 0 0 0-1.45-.42c-10.46 9.37-17.28 23.34-21.89 36.38" vector-effect="non-scaling-stroke"/><path stroke="#f6dfad" d="M732.56 802.45q-9.07 7.09-17.05 4.22a3.4 3.4 0 0 1-.87-.47c-4.65-3.51-4.26-8.52-4.58-13.75" vector-effect="non-scaling-stroke"/><path stroke="#f1c56b" d="M576.792 394.962a8.54 5.91-144.1 0 0 3.452 9.795 8.54 5.91-144.1 0 0 10.384.22 8.54 5.91-144.1 0 0-3.452-9.794 8.54 5.91-144.1 0 0-10.384-.22" vector-effect="non-scaling-stroke"/><path stroke="#7d6026" d="M623.933 431.757a9.24 5.84-64.4 0 0-9.26 5.81 9.24 5.84-64.4 0 0 1.274 10.856 9.24 5.84-64.4 0 0 9.26-5.81 9.24 5.84-64.4 0 0-1.274-10.856m-78.737 8.077a10.33 6.04-146.6 0 0 5.3 10.728 10.33 6.04-146.6 0 0 11.948.644 10.33 6.04-146.6 0 0-5.3-10.728 10.33 6.04-146.6 0 0-11.948-.644m88.634 62.336a1.93 1.93 0 0 0 2.52-.84q.2-.36 2.77-5.21 5.23-9.81 13.94-15.61 3.43-2.28 3.9-3.43c2.11-5.16-3.27-8.48-7.89-7.94q-3.67.43-5.23 1.4-14.12 8.79-13.92 24.8.06 5.05 3.91 6.83m-79.12 8.62q2.85-1.19 2.9-5.05.1-7.35-4.89-13.23c-9.38-11.05-23.3-16.95-37.41-17.19-6.19-.11-20.54 2.16-19.96 10.82q.21 3.11 2.84 4.18a2.46 2.4-33.2 0 0 .92.18q8.58.07 12.37.5 23.38 2.6 39.69 19.02a3.34 3.18 55.9 0 0 3.54.77" vector-effect="non-scaling-stroke"/><path stroke="#f9d68a" d="M688.974 492.918a7.64 4.89-22 0 0-8.916-1.672 7.64 4.89-22 0 0-5.252 7.396 7.64 4.89-22 0 0 8.916 1.672 7.64 4.89-22 0 0 5.252-7.396" vector-effect="non-scaling-stroke"/><path stroke="#7d6026" d="M292.26 704.197a8.46 4.27-107.4 0 0-1.545 9.35 8.46 4.27-107.4 0 0 6.605 6.796 8.46 4.27-107.4 0 0 1.545-9.35 8.46 4.27-107.4 0 0-6.605-6.796m12.957 29.869a8.21 4.18-119.1 0 0 .34 9.207 8.21 4.18-119.1 0 0 7.646 5.14 8.21 4.18-119.1 0 0-.34-9.206 8.21 4.18-119.1 0 0-7.646-5.14m20.634 30.995a8.13 4.27-135.5 0 0 2.806 8.744 8.13 4.27-135.5 0 0 8.792 2.652 8.13 4.27-135.5 0 0-2.806-8.744 8.13 4.27-135.5 0 0-8.792-2.652" vector-effect="non-scaling-stroke"/><path stroke="#817a68" d="M608.32 537.52q-2.08 2.59.15 5.8c3.7 5.3 9 8.16 15.25 10.49a.83.83 0 0 1 .54.78q-.01 8.16-3.35 12.92c-5.57 7.94-15.98 12.57-25.67 10.09-3.56-.92-5.85-2.94-9.42-5.69a1.33 1.33 0 0 0-2.09.67q-.44 1.48.24 3.22c3.09 7.87 12.15 11.5 20.34 10.74q13.51-1.26 22.02-12.32a.56.56 0 0 1 .79-.11q.73.55 2.33 1.66c9.16 6.36 21.71.7 23.22-10.3q.31-2.27-.39-4.33a1.44 1.44 0 0 0-2.46-.46l-.52.63a.9.88-13.4 0 0-.17.27q-1.66 3.91-2.27 4.69-5.94 7.58-13.39 2.17-1.35-.98-2.09-2.48a1.16 1.09 36.5 0 1-.11-.6l1.25-11.56a1.05 1.03-17.1 0 1 .39-.72c5.07-4.04 11.04-9.45 10.59-16.07q-.17-2.54-1.97-2.27" vector-effect="non-scaling-stroke"/><path stroke="#f6d1b4" d="M641.53 534.74q0-.69-.48-1.54a1.49 1.45-2.1 0 0-.7-.63q-6.6-2.98-13.87-2.89-11.34.14-18.16 7.84" vector-effect="non-scaling-stroke"/><path stroke="#7a5b50" d="M641.53 534.74c-2.36 3.58-9.56 12.83-14.03 12.66-6.24-.25-14.35-6-19.18-9.88" vector-effect="non-scaling-stroke"/><path stroke="#817a68" d="M608.48 612.87c9.7 3.02 23.95-2.17 27.82-11.8q.56-1.39.31-2.74a1.03 1.03 0 0 0-1.65-.63q-10.66 8.35-24.67 11.96-2.42.62-2.42 2.38a.86.85 9.1 0 0 .61.83" vector-effect="non-scaling-stroke"/><path stroke="#f6d7cd" d="M626.22 535.36a4.13 2.44-3.9 0 0-4.286-2.154 4.13 2.44-3.9 0 0-3.954 2.715 4.13 2.44-3.9 0 0 4.286 2.153 4.13 2.44-3.9 0 0 3.954-2.715" vector-effect="non-scaling-stroke"/></g><path fill="#fdfdfd" d="M636.49 328.29q-6.94-2.07-12.5 2.01c-6.44 4.74-6.94 14.19-1.07 19.77 7.23 6.87 21.73 3.36 22.76-7.72q.46-4.93-2.08-9.08a.26.26 0 0 1 .3-.38c16.89 5.8 32.75-9.7 23.9-26.22a.36.36 0 0 1 .31-.53q19.18.02 35.16-9.53a1.02 1.01-47.7 0 1 .94-.05q15.51 7.3 30.72-.01c2.78-1.33 5.44-3.76 7.85-5.85a1.67 1.66-67.7 0 1 .92-.39q1.03-.1 4.05-.34c13.67-1.1 25.3-10.22 31.75-22.45q8.26-15.67 5.06-32.8-.28-1.46-1.1-5.59a3.77 3.68-44.3 0 1 .04-1.66c.59-2.33 1.82-6.13 2.11-8.15q3.64-25.7-12.56-43.79-12.25-13.68-32.01-16.91a3.57 3.41 63.2 0 1-1.21-.43c-12.4-7.14-25.14-10.56-39.13-11.98-13.3-1.35-27.93-1.34-41.66 1.84q-10.67 2.48-20.39 10.47a1 .97 28.1 0 1-.77.22q-25.22-3.12-41.47 13.25-18.36 18.48-12.48 46.3a1.07 1.06-38.3 0 1-.09.73q-2.87 5.78-3.67 7.88-3.46 9.06-2.25 19.25c3.06 25.96 25.81 44.65 51.73 43.74a1.31 1.3 69.2 0 1 1.05.48q4.22 5.18 10.7 8.87a.29.29 0 0 1-.02.52c-11.09 5.24-12.66 19.5-4.65 28.15a.23.23 0 0 1-.24.38m-92.23 35.98a.17.16-67.7 0 1-.11-.27q2.63-3.26 2.9-6.52c.88-10.3-10.78-8.93-16.93-7.48a.62.62 0 0 1-.77-.63c.23-3.86-2.27-6.83-6.13-7.03-6.14-.32-11.95 2.34-17.04 6.02a.65.65 0 0 1-.98-.29c-3.27-8.16-11.4-6.42-16.07-.93q-4.97 5.85-10.69 13.55a4.28 4.25 12.6 0 1-2.6 1.64q-17.4 3.41-36.11 9.76a.67.66 62.9 0 1-.76-.25q-.97-1.37-2.67-3.9c-22.47-33.42-69.84-29.82-86.98 6.49-8.23 17.44-6.58 38.39 5.82 53.5a.39.39 0 0 1-.03.52q-17.6 18.07-32.11 39.56-18.67 27.65-31.04 53.94-13.87 29.49-23.12 59.2c-2.48 7.96-4.09 15.86-5.96 23.19-5.02 19.68-7.37 40.93-7.94 60.67-.9 31.29 4.26 62.94 16.41 92.63q21.16 51.7 67.86 79.14c33.8 19.86 72.29 27.56 111.04 30.45q15.8 1.18 34-1.47 1.76-.25 4.75-.24 47.61.14 95.5-6.26 31.39-4.2 57.55-11.25 20.01-5.39 37.32-13.91 8.96-4.41 20.24-12.5a.54.53 56.6 0 1 .77.16c5.26 8.83 16.58 7.52 23.82 2.41 12.44-8.8 21.3-24.17 26.94-38.41 3.14-7.95 5.74-15.87 5.01-23.57q-.46-4.86-4.95-7.44a1.47 1.45 8.1 0 1-.69-.91q-1.94-7.38-10.09-5.16a.93.88 46.6 0 1-.54-.03l-4.85-1.94a.74.73-75.7 0 1-.45-.76c2.89-25.17-3.32-50.8-15.67-72.87q-3.44-6.15-4.4-7.91a1.28 1.26 41.1 0 1-.08-1.07c6.17-16.49 4.27-32.28-2.11-49.34q-.93-2.49-5.33-11.28a.8.8 0 0 1 .12-.9q5.13-5.68 6.65-7.58 7.12-8.85 11.07-20.7 9.79-29.4-.64-58.25-7.29-20.15-23.53-33.97c-9.26-7.88-20.91-12.23-30.82-20.63a10.86 10.71-84.4 0 1-2.56-3.16c-7.9-14.75-16.35-28.4-26.97-40.98-4.48-5.31-10.86-10.89-14.59-14.74a.89.87 31.7 0 1-.21-.85c7.3-24.09-4.89-49.36-29.52-56.4-18.85-5.39-36.19 2.72-46.06 19.35a.35.35 0 0 1-.34.18z"/><path fill="#050403" d="M636.49 328.29a.23.23 0 0 0 .24-.38c-8.01-8.65-6.44-22.91 4.65-28.15a.29.29 0 0 0 .02-.52q-6.48-3.69-10.7-8.87a1.31 1.3 69.2 0 0-1.05-.48c-25.92.91-48.67-17.78-51.73-43.74q-1.21-10.19 2.25-19.25.8-2.1 3.67-7.88a1.07 1.06-38.3 0 0 .09-.73q-5.88-27.82 12.48-46.3 16.25-16.37 41.47-13.25a1 .97 28.1 0 0 .77-.22q9.72-7.99 20.39-10.47c13.73-3.18 28.36-3.19 41.66-1.84 13.99 1.42 26.73 4.84 39.13 11.98a3.57 3.41 63.2 0 0 1.21.43q19.76 3.23 32.01 16.91 16.2 18.09 12.56 43.79c-.29 2.02-1.52 5.82-2.11 8.15a3.77 3.68-44.3 0 0-.04 1.66q.82 4.13 1.1 5.59 3.2 17.13-5.06 32.8c-6.45 12.23-18.08 21.35-31.75 22.45q-3.02.24-4.05.34a1.67 1.66-67.7 0 0-.92.39c-2.41 2.09-5.07 4.52-7.85 5.85q-15.21 7.31-30.72.01a1.02 1.01-47.7 0 0-.94.05q-15.98 9.55-35.16 9.53a.36.36 0 0 0-.31.53c8.85 16.52-7.01 32.02-23.9 26.22a.26.26 0 0 0-.3.38q2.54 4.15 2.08 9.08c-1.03 11.08-15.53 14.59-22.76 7.72-5.87-5.58-5.37-15.03 1.07-19.77q5.56-4.08 12.5-2.01m4.19-160.4q-8.22-1.53-11.18-1.34-14.38.88-24.39 9.35c-13.2 11.16-16.01 27.46-12.01 43.87a1.9 1.85-35.2 0 1-.28 1.51c-9.77 14.08-7.78 31.33 2.72 44.34 9.62 11.92 22.42 15.7 37.5 15.62a2.17 2.16 70.9 0 1 1.74.85c7.82 10.2 19.98 14.96 32.7 15.27q19.47.46 35.23-10.67a1.77 1.77 0 0 1 1.88-.1q18.66 10.51 34.17-3.49a2.79 2.76 22.2 0 1 1.72-.71q19.63-.87 29.45-16.1c6.69-10.38 8.19-23.66 4.74-35.85a7.1 7.09-44.1 0 1 .07-4.12c4.59-14.17 3.66-28.35-4.96-40.68q-9.53-13.62-26.52-17.99-.26-.06-5.45-1.11a6.33 6.25 66.1 0 1-2.06-.81q-10.24-6.22-25.32-9.13-22.25-4.3-43.86-.99-11.73 1.79-19.81 7.31a3.17 2.76-20 0 0-.34.28l-4.61 4.36a1.31 1.3 28.6 0 1-1.13.33m-1.097 147.188a11.54 10.79-178.7 0 0 11.292 11.05 11.54 10.79-178.7 0 0 11.782-10.526 11.54 10.79-178.7 0 0-11.292-11.05 11.54 10.79-178.7 0 0-11.782 10.526M638.44 340.6a6.05 6.05 0 0 0-6.05-6.05 6.05 6.05 0 0 0-6.05 6.05 6.05 6.05 0 0 0 6.05 6.05 6.05 6.05 0 0 0 6.05-6.05"/><path fill="#fdfdfd" d="m641.81 167.56 4.61-4.36a3.17 2.76-20 0 1 .34-.28q8.08-5.52 19.81-7.31 21.61-3.31 43.86.99 15.08 2.91 25.32 9.13a6.33 6.25 66.1 0 0 2.06.81q5.19 1.05 5.45 1.11 16.99 4.37 26.52 17.99c8.62 12.33 9.55 26.51 4.96 40.68a7.1 7.09-44.1 0 0-.07 4.12c3.45 12.19 1.95 25.47-4.74 35.85q-9.82 15.23-29.45 16.1a2.79 2.76 22.2 0 0-1.72.71q-15.51 14-34.17 3.49a1.77 1.77 0 0 0-1.88.1q-15.76 11.13-35.23 10.67c-12.72-.31-24.88-5.07-32.7-15.27a2.17 2.16 70.9 0 0-1.74-.85c-15.08.08-27.88-3.7-37.5-15.62-10.5-13.01-12.49-30.26-2.72-44.34a1.9 1.85-35.2 0 0 .28-1.51c-4-16.41-1.19-32.71 12.01-43.87q10.01-8.47 24.39-9.35 2.96-.19 11.18 1.34a1.31 1.3 28.6 0 0 1.13-.33m40.07 99.07c36.63-.18 27.27-45.29 18.76-65.46q-4.52-10.73-12.28-17.29-2.62-2.21-6.9-2.19t-6.87 2.26q-7.7 6.63-12.11 17.41c-8.31 20.25-17.23 65.45 19.4 65.27"/><path fill="#050403" d="M681.46 181.69q4.28-.02 6.9 2.19 7.76 6.56 12.28 17.29c8.51 20.17 17.87 65.28-18.76 65.46s-27.71-45.02-19.4-65.27q4.41-10.78 12.11-17.41 2.59-2.24 6.87-2.26m-6.22 7.2q-15.88 25.24-13.18 55.15.6 6.67 4.11 11.25 2.83 3.7 7.88 5.24l5.78.67a14.11 13.86 45.5 0 0 2.84.05l3.81-.33q2.39.56 4.17-1.96 2.85.01 5.34-2.25 7.38-8.8 6.36-22.83c-1.08-15.05-4.38-30.38-12.82-42.41l-.51-.77q-1.88-2.15-4.29-2.82l-.94-1.27q-1.44-.79-3.22-.29-2.78.79-5.33 2.57"/><path fill="#38342b" d="M683.79 186.61q-.53-.05-.7.49a.73.66 50 0 0-.01.31q3.83 16.01 5.52 31.82c1.34 12.46 2.04 21.75.21 33.13q-.7 4.36-2.33 8.56l-3.81.33a14.11 13.86 45.5 0 1-2.84-.05l-5.78-.67c-1.1-2.18-2.43-4.3-3.22-6.49-5.43-15.05-4.07-30.49-1.1-45.76q.63-3.21 2.73-9.71 1.53-4.73 2.78-9.68 2.55-1.78 5.33-2.57 1.78-.5 3.22.29"/><path fill="#fdf0cc" d="m683.79 186.61.94 1.27c7.6 18.76 11.89 38.22 10.14 57.19q-.62 6.75-4.22 13.89-1.78 2.52-4.17 1.96 1.63-4.2 2.33-8.56c1.83-11.38 1.13-20.67-.21-33.13q-1.69-15.81-5.52-31.82a.73.66 50 0 1 .01-.31q.17-.54.7-.49"/><path fill="#38342b" d="M689.02 190.7q-1.19-.87.1 1.27 7.69 19.22 10.07 39.05 1.56 13.05-3.2 25.69-2.49 2.26-5.34 2.25 3.6-7.14 4.22-13.89c1.75-18.97-2.54-38.43-10.14-57.19q2.41.67 4.29 2.82"/><path fill="#fdf0cc" d="M675.24 188.89q-1.25 4.95-2.78 9.68-2.1 6.5-2.73 9.71c-2.97 15.27-4.33 30.71 1.1 45.76.79 2.19 2.12 4.31 3.22 6.49q-5.05-1.54-7.88-5.24-3.51-4.58-4.11-11.25-2.7-29.91 13.18-55.15"/><path fill="#ec9634" d="m689.02 190.7.51.77q-.14.31-.41.5-1.29-2.14-.1-1.27"/><path fill="#fdf0cc" d="M689.53 191.47c8.44 12.03 11.74 27.36 12.82 42.41q1.02 14.03-6.36 22.83 4.76-12.64 3.2-25.69-2.38-19.83-10.07-39.05.27-.19.41-.5"/><ellipse fill="#fdfdfd" rx="11.54" ry="10.79" transform="rotate(181.3 327.349 153.976)"/><circle cx="632.39" cy="340.6" r="6.05" fill="#fdfdfd"/><path fill="#050403" d="m544.26 364.27 5.33.58a.35.35 0 0 0 .34-.18c9.87-16.63 27.21-24.74 46.06-19.35 24.63 7.04 36.82 32.31 29.52 56.4a.89.87 31.7 0 0 .21.85c3.73 3.85 10.11 9.43 14.59 14.74 10.62 12.58 19.07 26.23 26.97 40.98a10.86 10.71-84.4 0 0 2.56 3.16c9.91 8.4 21.56 12.75 30.82 20.63q16.24 13.82 23.53 33.97 10.43 28.85.64 58.25-3.95 11.85-11.07 20.7-1.52 1.9-6.65 7.58a.8.8 0 0 0-.12.9q4.4 8.79 5.33 11.28c6.38 17.06 8.28 32.85 2.11 49.34a1.28 1.26 41.1 0 0 .08 1.07q.96 1.76 4.4 7.91c12.35 22.07 18.56 47.7 15.67 72.87a.74.73-75.7 0 0 .45.76l4.85 1.94a.93.88 46.6 0 0 .54.03q8.15-2.22 10.09 5.16a1.47 1.45 8.1 0 0 .69.91q4.49 2.58 4.95 7.44c.73 7.7-1.87 15.62-5.01 23.57-5.64 14.24-14.5 29.61-26.94 38.41-7.24 5.11-18.56 6.42-23.82-2.41a.54.53 56.6 0 0-.77-.16q-11.28 8.09-20.24 12.5-17.31 8.52-37.32 13.91-26.16 7.05-57.55 11.25-47.89 6.4-95.5 6.26-2.99-.01-4.75.24-18.2 2.65-34 1.47c-38.75-2.89-77.24-10.59-111.04-30.45q-46.7-27.44-67.86-79.14c-12.15-29.69-17.31-61.34-16.41-92.63.57-19.74 2.92-40.99 7.94-60.67 1.87-7.33 3.48-15.23 5.96-23.19q9.25-29.71 23.12-59.2 12.37-26.29 31.04-53.94 14.51-21.49 32.11-39.56a.39.39 0 0 0 .03-.52c-12.4-15.11-14.05-36.06-5.82-53.5 17.14-36.31 64.51-39.91 86.98-6.49q1.7 2.53 2.67 3.9a.67.66 62.9 0 0 .76.25q18.71-6.35 36.11-9.76a4.28 4.25 12.6 0 0 2.6-1.64q5.72-7.7 10.69-13.55c4.67-5.49 12.8-7.23 16.07.93a.65.65 0 0 0 .98.29c5.09-3.68 10.9-6.34 17.04-6.02 3.86.2 6.36 3.17 6.13 7.03a.62.62 0 0 0 .77.63c6.15-1.45 17.81-2.82 16.93 7.48q-.27 3.26-2.9 6.52a.17.16-67.7 0 0 .11.27m-43.09 1.59q-3.67.08-3.72-7.21l-.59-4.39a.3.3 0 0 0-.49-.2q-1.3 1.05-2.1 2.21c-4.25 6.15-7.92 11.63-13.49 15.01q-2.12 1.29-6.01 2.13-15.19 3.29-28.71 7.63-1.01.32-3.13 1.22a.73.72-14.3 0 0-.43.72l.25 3.04-.4 7.95c-1.73 1.44-3.64-.79-4.37-2.23q-4.27-8.48-6.97-13.22c-6.49-11.4-18.4-21.76-32.3-23q-20.49-1.81-34.09 14.13c-11.74 14.27-13.98 35.74-2.26 50.98q7.12 9.24 14.66 13.11 4.66 2.38 9.26 5.04.23 1.08-.07 1.99a1.02 1.02 0 0 1-.65.65q-2.02.69-3.82.54-6.58-.53-12.33-3.24l-5.66-3.39a.55.55 0 0 0-.68.08c-12.83 12.93-25.08 29.11-35.74 45.17q-6.67 10.03-15.83 26.62-24.59 44.55-37.42 95.6-9.19 36.55-8.31 76.7.39 17.81 3.71 33.64-.21 1.79.75 3.1 0 3.14.96 7.07 5.03 20.47 13.67 38.58c17.37 36.4 46.38 62.92 83.79 77.51q15.97 6.23 28.67 9.01 23.54 5.15 36.12 6.71 15.24 1.88 33.49 1.76c15.51-.1 31.12-4.53 44.77-11.67q5.12-2.68 9.62-6.39a1.52 1.51 66.1 0 0 .53-1.38q-.84-5.78.97-11.41 1.04-2.44 2.46-1.65 1.79 3.05 2.9 6.45c1.98 6.09 6.58 12.35 13.52 8.8q5.67-2.89 9.14-9.12 4.72-8.49 8.3-17.85l6.76-17.95q3.04-7.35 5.03-15.03.24-.92.3-1.94a1.12 1.12 0 0 0-1.71-1c-2.85 1.8-4.35 5.78-7.54 11.55a1.58 1.56 27.5 0 1-2.07.64c-2.07-1-.65-4.94.23-7.09q2.37-5.77 2.9-8.33.27-1.33-.2-2a1.86 1.65-34.1 0 0-2.42-.32c-4.91 3.19-7.62 10.67-10.1 15.88q-1.15.95-1.58.81a2.82 2.5-76.8 0 1-1.62-3q.91-5.91 3.26-11.24a.66.66 0 0 0-.97-.81c-12.45 8.47-18.25 25.92-23.24 39.04q-.26.66-1.26.91-.16-.09-.5-.13c-1.92-3.53-1.17-9.14-.43-12.92q3.94-20.08 19.67-32.7l4.01-2.14a.67.65 70.4 0 0 .33-.72c-3.01-14.01-6.67-27-14.85-39.57q-14.88-22.89-41.62-31.6-9.35-3.04-18.94-4.66-.64-.35-.9-.7a.49.49 0 0 1 .29-.77q2.24-.51 5.74-.72c17.56-1.02 33.9 5.01 47.13 16.47a2.75 2.72 69.1 0 0 1.43.65q25.89 3.68 50.09-4.95 5.45-1.88 7.65-1.23c7.32 2.13 14.71 3.85 22.05 2.03a.69.68-36.4 0 0 .19-1.25l-6.84-4.14q-1.42-.92-1.96-1.92a.82.82 0 0 1 .74-1.22c5.54.16 12.03 4.14 16.06 2.33a1.7 1.69 61.7 0 0 .73-2.45q-1.51-2.38-4.3-4.17-2.44-1.57-7.25-4.95a.96.96 0 0 1 .26-1.7q1.1-.35 1.96-.05 4.31 1.54 8.41 2.88a.78.77-2.1 0 0 .96-1.03c-2.46-6.13-13.71-11.61-19.81-14.27a4.45 4.04 69.6 0 1-.6-.31l-7.33-4.59q-5.14-3.42-11.4-6.66-15.38-7.96-34.65-13.69-1.49-.44-2.34-1.54a.62.62 0 0 1 .38-.98l3.57-.65c13.2.29 25.46 3.95 37.66 10.01q8.46 4.16 12.81 7.42 3.97 2.99 6.74 4.83a9.75 9.5-16.7 0 0 1.76.92c6.15 2.45 12.43 6.28 16.88 11.35q3.02 3.45 3.78 8.1.69 4.15-.27 9.01 1.28 4.2-1.85 7.34c-1.78 1.78-4.31 2.18-5.45 4.04-5.39 8.83-22.33 5.96-30.12 2.97a2.71 2.68 44.6 0 0-1.93 0c-15.53 6.03-30.55 9.6-47.42 7.55a.29.29 0 0 0-.27.45l7 10.1q10.52 18.93 11.09 40.02a1.09 1.08-79.5 0 0 .66.97l2.31 1.01a1.31 1.3-48.1 0 0 1.19-.07c4.36-2.57 10.25-2.62 12.4 3.11a.82.81 80.8 0 0 .73.53c10.65.41 8.32 11.97 6.22 18.86q-6.56 21.48-15.07 40.61-2.56 5.21-6.81 10.99c-6.22 8.46-16.97 14.15-26.79 7.17a.82.82 0 0 0-1.04.08q-4.28 4.2-10.57 8.03a.23.23 0 0 0 .13.42q20.24-.71 38.18-2.4c12.94-1.22 31.22-3.91 43.73-5.69q20.5-2.93 45.18-10.11 14.08-4.09 26.49-10.02 15.4-6.33 27.28-16.57a1.9 1.89 71 0 0 .65-1.34q.19-5.14 2.12-11.4 5.54-24.16 22.46-43.29a2.09 2.05-16.5 0 0 .43-.77q.25-.89.5-3 .87-7.29.99-17.16c.21-17.99-5.31-36.27-13.93-52.15l-3.19-5.8a.83.82 46.2 0 0-1.43-.03q-1.62 2.67-4.23 4.99-7.13 6.33-15.37 10.54-2.51 3.11-5.06 5.28c-5.55 4.75-14.74 8.44-21.71 4.49a4.02 3.86 63.1 0 0-1.29-.45q-.6-.09-1.99-.13c-3.8-.12-6.82-2.79-7.95-6.29a1.6 1.6 0 0 0-.74-.91l-3.36-1.92q-2.48-4.51-2.44-9.7c.06-7.15 1.94-12.96 5.52-19.48 3.84-7.01 6.27-15.25 8.41-22.91l3.49-10.92q1.83.87 2.35 2.09c2.58 8.23.62 17.53-2.15 25.31q-1.85 4.4-4.29 8.66c-3.33 5.77-6.7 13.08-5.47 19.77a.61.61 0 0 0 1.06.28l6.73-8.01a1.32 1.32 0 0 1 2.32.64q.14.67-.39 1.85-3.04 6.8-4.13 11.88a1.6 1.59 9.8 0 0 1.36 1.92q1.64.2 3.21-1.15c2.51-2.16 5.62-5.89 9.39-8.58a.93.93 0 0 1 1.39 1.12l-4.32 9.91a.56.56 0 0 0 .52.79c6.59-.1 13.46-7.48 18.16-12.34a5.54 5.34-82.9 0 1 .99-.8l4.08-2.52c8.24-6.38 15.5-17.21 16.76-27.78.62-5.25.82-11.6-.25-16.92q-1.41-7.04-4.52-15.66l-3.81-7.69a.92.92 0 0 0-1.35-.34q-17.26 12.17-38.53 14.61c-4.34.72-10.37 1.4-14.59.01a.63.63 0 0 1-.1-1.15c1.73-.91 3.65-1.73 5.47-2.19 17.81-4.53 35.01-11.9 48.61-24.57q12.16-11.34 17.59-28.11 1.34-4.15 1.74-6.72 3.85-19.25-1.92-38.26-6.31-21.05-23.4-34.34c-5.29-4.12-13.67-8.65-20.11-13.11q-4.29-2.97-8.82-6.05-3.75-3.93-4.71-5.71-2.31-4.26-4.64-8.47c-12.87-23.97-30.99-45.4-54.42-59.74-18.52-11.34-40.19-19.92-61.05-21.96a4.89 4.84-49 0 0-1.72.13c-1.53.4-3.2 1.03-4.51.61-7.29-2.36 1.7-12.43 4.01-15.49a.28.28 0 0 0-.26-.45q-9.79 1.15-17.97 7.04-3.09 2.1-3.8-.55-.74-2.79 2.08-8.65.92-.86 1.85-3.15a.25.25 0 0 0-.31-.33c-6.45 2.11-10.8 6.7-16.31 12.59m62.86 3.56 12.81 4.06a.77.76 23.2 0 0 .89-.35q2.4-4.16 6.89-6.9c3.63-2.22 9.03-2.74 12.64-1.04q2.93 1.37 1.9 4.15-2.12-.14-4.16-.23c-4.51-.21-8.09 3.5-9.9 7.28a.38.38 0 0 0 .18.5q10.59 4.94 21.58 11.72l8.82 5.97a.53.53 0 0 0 .82-.32q1.79-8.15-.81-15.99-2.37-7.13-4.79-9.84-1.1-2.18-2.64-3.69c-8.12-7.98-18.51-12.65-29.74-9.97q-11.48 2.74-18.05 12.78a.42.42 0 0 0 .21.62zm146.03 423.03c-2.19 5.6-6.86 23.06.02 26.35 4.28 2.04 10.27-2.09 13.34-4.88q5.03-4.56 9.14-11.47 8.92-12.72 14.69-28.69 1.8-4.99 1.97-9.81a.51.51 0 0 0-.96-.27q-3.01 5.24-5.33 8.73-.88 1.32-1.53 1.52a1.6 1.52-88.2 0 1-1.86-2.08c1.49-4.24 4.58-10.45 3.99-14.78a.66.66 0 0 0-.64-.58q-1.83-.03-2.83 1.61c-2.23 3.64-4.4 8.96-7.92 12.82a.89.89 0 0 1-.9.26q-1.87-.51-1.54-2.19.58-2.88 3.26-9.03.86-1.96.44-3.47a.89.89 0 0 0-1.45-.42c-10.46 9.37-17.28 23.34-21.89 36.38"/><path fill="#eecd8e" d="M515.94 356.75q-6.22 3.18-10.8 8.13-.8.87-3.97.98c5.51-5.89 9.86-10.48 16.31-12.59a.25.25 0 0 1 .31.33q-.93 2.29-1.85 3.15m-18.49 1.9q-1.91 2.75-3.8 5.38-2.23 3.1-4.4 4.87-4.88 3.98-10.7 5.62-12.73 3.58-31.83 8.39a3.02 2.99-72.7 0 0-1.26.67l-2.71 2.44-.25-3.04a.73.72-14.3 0 1 .43-.72q2.12-.9 3.13-1.22 13.52-4.34 28.71-7.63 3.89-.84 6.01-2.13c5.57-3.38 9.24-8.86 13.49-15.01q.8-1.16 2.1-2.21a.3.3 0 0 1 .49.2zm113.45 9.78q-4.57-2.52-8.22-5.33-2.86-2.21-6.99-3.2-18.62-4.49-31.66 9.52l-3.35-1.25a.42.42 0 0 1-.21-.62q6.57-10.04 18.05-12.78c11.23-2.68 21.62 1.99 29.74 9.97q1.54 1.51 2.64 3.69m-168.55 25.54q1.29.62.11 1.79a1.31 1.29-69 0 1-.84.38q-3.4.26-4.99-2.66-3.49-6.43-6.37-10.12-1.26-1.61-8.67-9.47c-2.3-2.44-5.26-4.5-7.95-5.77-11.46-5.37-23.79-7.41-36.48-3.32l-9.15 3.84a2.55 2.5 10.3 0 0-.84.57q-2.12 2.15-2.55.44 13.6-15.94 34.09-14.13c13.9 1.24 25.81 11.6 32.3 23q2.7 4.74 6.97 13.22c.73 1.44 2.64 3.67 4.37 2.23"/><path fill="#f4bc48" d="M515.94 356.75q-2.82 5.86-2.08 8.65.71 2.65 3.8.55 3.17.07 7.71-1.25 1.17-.35 3.42.16a.28.28 0 0 1 .16.44q-3.71 4.86-1.04 8.57 1.28 1.77 4.38 2.28 2.08.34 7.16.21 3.26-.09 7.09.68 7.47 1.52 15 4.24 5.2 1.88 10.15 3.43a3.64 3.55 71.1 0 1 1.09.55q1.21.88 3.07 1.19a1.5 1.37-23.6 0 1 .5.17q10.5 5.87 12.21 6.7 6.52 3.17 10.94 6.79 2.24 1.82 10.92 7.68 2.07 1.4 4.96 4.22c4.2 4.09 6.12 6.07 10.13 9.51q3.84 3.29 5.24 5.22 7.55 10.46 14.37 18.8c2.3 2.82 3.78 5.64 6.01 9.19q.65 1.03 2.45 1.08 2.33 4.21 4.64 8.47.96 1.78 4.71 5.71 2.35 5.77 9.61 9.43c3.06 1.55 5.92 4.06 8.66 5.57q4.5 2.49 7.91 5.62 10.96 10.07 19.11 22.66 2.58 3.98 4.97 11.44-4.79 8.68-13.14 13.51c-16.14 9.34-37.41 4.86-50.71-7.05q-.36-.32-1.33-1.87.63-1.4-.02-3.3-2.56-7.5-8.06-10.66-1.49-.85-2.44-.6a2.04 2.01-24.1 0 0-1.19 3.06q1 1.53 1.96 2.66-20-8.97-38.47 2.39-9.22 5.66-13.07 9.36-12.14 11.65-23.4 19.09-30.52 20.19-68.25 22.82-8.2-8.52-15.57-17.54-4.54-5.57-9.42-9.62c-12.61-10.48-27.19-9.21-39.17 1.01q-6.37 5.44-12.84 13.37-34.2-16.44-45.36-52.08-2.04-6.52-1.87-14.79l12.01-7.39a.69.69 0 0 0-.22-1.27q-1.74-.36-4.15.15-9.73 2.04-19.16 8.39-23.83 16.03-33.19 43.79-8.76 26.01-1.56 53.18-1.28 5.14.33 10.93.01.05 3.82 10.39 2.74 7.42 4.82 11.54 10.4 20.62 26.88 32.66 19.19 14.02 44.05 18.47c23.2 4.15 50.3 1.73 72.58-6.59q10.06-3.75 21.28-8.41c12.97-5.37 22.09-11.64 35.35-20.41q.66-.43 2.23-.89a.26.25-39.2 0 0 .05-.47l-3.79-2.05 3.55-1.99 7.12 4.26-3.57.65a.62.62 0 0 0-.38.98q.85 1.1 2.34 1.54 19.27 5.73 34.65 13.69 6.26 3.24 11.4 6.66-14.45 10.4-12.31 29.18-.5 3.59 1.39 6.86-24.2 8.63-50.09 4.95a2.75 2.72 69.1 0 1-1.43-.65c-13.23-11.46-29.57-17.49-47.13-16.47q-3.5.21-5.74.72a.49.49 0 0 0-.29.77q.26.35.9.7-.26 1.95 1.44 2.36 10.86 2.62 18.52 7.25 14.86 9 26.34 21.16 11.01 11.65 15.57 22.21 2.75 6.35 5.13 10.81 1.6 3 3.67 10.98a1.12.34 61.8 0 1 .03.15l.37 3.77q-15.73 12.62-19.67 32.7c-.74 3.78-1.49 9.39.43 12.92q-.49 2.83.08 5.84.57 2.99.79 5.89-1.42-.79-2.46 1.65l-.23-6.86a.39.39 0 0 0-.53-.35q-17.33 6.73-34.99 9.73-14.64 2.48-25.33 3.17-14.39.92-33.66-1.47c-9.85-1.22-15.73-2.2-24.95-4.62q-29.61-7.76-56.16-24.11c-12.14-7.48-22.56-16.07-33.24-25.52q-1.75-1.55-7.19-7.3-4.98-5.26-7.2-7.94-1.03-1.25-8.92-11.16-12.02-15.13-20.19-33.36-.96-1.31-.75-3.1 1.21-4.44.21-9.19-.84-3.95-.83-5.02c.01-4.17-.78-8.24-.7-12.77.14-7.58.15-16.3 1.61-24.39q.68-3.81 1.24-10.01c.81-9 2.69-19.99 5.56-30.58q1.93-7.1 5.29-20.91c2.05-8.43 4.43-14.97 7.79-24.03q1.3-3.51 10.59-28.31 2.95-7.87 5.6-13.1 5.97-11.78 16.62-33.96c1.51-3.12 3.5-6.5 5.69-9.53q7.55-10.45 9.7-14.74.62-1.24 1.81-3.03.64-.96 1.29-2.01 3.8-6.17 7.91-11.98 2.27-3.2 7.61-8.88 4.15-4.41 7.69-9.25a1.3 1.3 0 0 1 .48-.4l4.77-2.33q5.75 2.71 12.33 3.24 1.8.15 3.82-.54a1.02 1.02 0 0 0 .65-.65q.3-.91.07-1.99l8-9.37a.61.61 0 0 0-.13-.91l-2.4-1.56c2.42.78 4.54 1.53 6.72-.46q2.62-2.39 5.26-4.75.35-.3.51-1.26 1.45-.22 2.02-.69 7.4-6.07 15.5-12.26 1.6-1.23 2.04-3.5a2.19 2.03 45.4 0 0-.03-.93q-.78-3.09-4.42-10.19-5.23-10.19-13.73-16.99-9.15-7.32-20.12-6.38l-8.34-4.73c12.69-4.09 25.02-2.05 36.48 3.32 2.69 1.27 5.65 3.33 7.95 5.77q7.41 7.86 8.67 9.47 2.88 3.69 6.37 10.12 1.59 2.92 4.99 2.66a1.31 1.29-69 0 0 .84-.38q1.18-1.17-.11-1.79l.4-7.95 2.71-2.44a3.02 2.99-72.7 0 1 1.26-.67q19.1-4.81 31.83-8.39 5.82-1.64 10.7-5.62 2.17-1.77 4.4-4.87 1.89-2.63 3.8-5.38.05 7.29 3.72 7.21 3.17-.11 3.97-.98 4.58-4.95 10.8-8.13m60.852 38.212a8.54 5.91-144.1 0 0 3.452 9.795 8.54 5.91-144.1 0 0 10.384.22 8.54 5.91-144.1 0 0-3.452-9.794 8.54 5.91-144.1 0 0-10.384-.22m47.14 36.795a9.24 5.84-64.4 0 0-9.259 5.81 9.24 5.84-64.4 0 0 1.274 10.856 9.24 5.84-64.4 0 0 9.26-5.81 9.24 5.84-64.4 0 0-1.274-10.856m-78.736 8.077a10.33 6.04-146.6 0 0 5.3 10.728 10.33 6.04-146.6 0 0 11.948.644 10.33 6.04-146.6 0 0-5.3-10.728 10.33 6.04-146.6 0 0-11.948-.644m88.634 62.336a1.93 1.93 0 0 0 2.52-.84q.2-.36 2.77-5.21 5.23-9.81 13.94-15.61 3.43-2.28 3.9-3.43c2.11-5.16-3.27-8.48-7.89-7.94q-3.67.43-5.23 1.4-14.12 8.79-13.92 24.8.06 5.05 3.91 6.83m-79.12 8.62q2.85-1.19 2.9-5.05.1-7.35-4.89-13.23c-9.38-11.05-23.3-16.95-37.41-17.19-6.19-.11-20.54 2.16-19.96 10.82q.21 3.11 2.84 4.18a2.46 2.4-33.2 0 0 .92.18q8.58.07 12.37.5 23.38 2.6 39.69 19.02a3.34 3.18 55.9 0 0 3.54.77m134.264-17.872a7.64 4.89-22 0 0-8.916-1.672 7.64 4.89-22 0 0-5.252 7.396 7.64 4.89-22 0 0 8.916 1.672 7.64 4.89-22 0 0 5.252-7.396M292.26 704.198a8.46 4.27-107.4 0 0-1.545 9.349 8.46 4.27-107.4 0 0 6.605 6.796 8.46 4.27-107.4 0 0 1.545-9.35 8.46 4.27-107.4 0 0-6.605-6.796m12.957 29.868a8.21 4.18-119.1 0 0 .34 9.207 8.21 4.18-119.1 0 0 7.646 5.14 8.21 4.18-119.1 0 0-.34-9.206 8.21 4.18-119.1 0 0-7.646-5.14m20.634 30.996a8.13 4.27-135.5 0 0 2.806 8.744 8.13 4.27-135.5 0 0 8.792 2.652 8.13 4.27-135.5 0 0-2.806-8.744 8.13 4.27-135.5 0 0-8.792-2.652M610.9 368.43q2.42 2.71 4.79 9.84 2.6 7.84.81 15.99a.53.53 0 0 1-.82.32l-8.82-5.97q.08-5.39-1.37-10.53-.71-2.48-2.36-4.46-1.92-2.3-3.97-4.28 1.03-2.78-1.9-4.15c-3.61-1.7-9.01-1.18-12.64 1.04q-4.49 2.74-6.89 6.9a.77.76 23.2 0 1-.89.35l-12.81-4.06q13.04-14.01 31.66-9.52 4.13.99 6.99 3.2 3.65 2.81 8.22 5.33"/><path fill="#eecd8e" d="M653.58 455.81q-1.8-.05-2.45-1.08c-2.23-3.55-3.71-6.37-6.01-9.19q-6.82-8.34-14.37-18.8-1.4-1.93-5.24-5.22c-4.01-3.44-5.93-5.42-10.13-9.51q-2.89-2.82-4.96-4.22-8.68-5.86-10.92-7.68-4.42-3.62-10.94-6.79-1.71-.83-12.21-6.7a1.5 1.37-23.6 0 0-.5-.17q-1.86-.31-3.07-1.19a3.64 3.55 71.1 0 0-1.09-.55q-4.95-1.55-10.15-3.43-7.53-2.72-15-4.24-3.83-.77-7.09-.68-5.08.13-7.16-.21-3.1-.51-4.38-2.28-2.67-3.71 1.04-8.57a.28.28 0 0 0-.16-.44q-2.25-.51-3.42-.16-4.54 1.32-7.71 1.25 8.18-5.89 17.97-7.04a.28.28 0 0 1 .26.45c-2.31 3.06-11.3 13.13-4.01 15.49 1.31.42 2.98-.21 4.51-.61a4.89 4.84-49 0 1 1.72-.13c20.86 2.04 42.53 10.62 61.05 21.96 23.43 14.34 41.55 35.77 54.42 59.74"/><path fill="#ec9634" d="m377.16 364.8 8.34 4.73q-8.85 1.48-12.4 8.58-.84 1.68 1.02 2.49-4.88 10.14-2.66 20.88.92 4.42 3.64 9.51c3.94 7.37 8.51 12.9 16.65 15.95l2.4 1.56a.61.61 0 0 1 .13.91l-8 9.37q-4.6-2.66-9.26-5.04-7.54-3.87-14.66-13.11c-11.72-15.24-9.48-36.71 2.26-50.98q.43 1.71 2.55-.44a2.55 2.5 10.3 0 1 .84-.57z"/><path fill="#efb19c" d="M599.16 369.34q2.05 1.98 3.97 4.28 1.65 1.98 2.36 4.46 1.45 5.14 1.37 10.53-10.99-6.78-21.58-11.72a.38.38 0 0 1-.18-.5c1.81-3.78 5.39-7.49 9.9-7.28q2.04.09 4.16.23"/><path fill="#050403" d="M404.24 420.47c-.94-.37-1.36-1.12-1.05-2.13 1.61-5.16 6.7-10.06 10.97-13.18a.64.61 63.6 0 0 .22-.7q-1.75-5.35-5.08-11.23c-5.02-8.83-15.81-18.68-26.68-17.19q-4.1.56-8.5 4.56-1.86-.81-1.02-2.49 3.55-7.1 12.4-8.58 10.97-.94 20.12 6.38 8.5 6.8 13.73 16.99 3.64 7.1 4.42 10.19a2.19 2.03 45.4 0 1 .03.93q-.44 2.27-2.04 3.5-8.1 6.19-15.5 12.26-.57.47-2.02.69"/><path fill="#efb19c" d="M404.24 420.47q-.16.96-.51 1.26-2.64 2.36-5.26 4.75c-2.18 1.99-4.3 1.24-6.72.46-8.14-3.05-12.71-8.58-16.65-15.95q-2.72-5.09-3.64-9.51-2.22-10.74 2.66-20.88 4.4-4 8.5-4.56c10.87-1.49 21.66 8.36 26.68 17.19q3.33 5.88 5.08 11.23a.64.61 63.6 0 1-.22.7c-4.27 3.12-9.36 8.02-10.97 13.18-.31 1.01.11 1.76 1.05 2.13"/><ellipse fill="#eecd8e" rx="8.54" ry="5.91" transform="rotate(215.9 356.641 105.437)"/><ellipse fill="#050403" rx="9.24" ry="5.84" transform="rotate(-64.4 659.396 -272.179)"/><path fill="#eecd8e" d="m369.41 438.72-4.77 2.33a1.3 1.3 0 0 0-.48.4q-3.54 4.84-7.69 9.25-5.34 5.68-7.61 8.88-4.11 5.81-7.91 11.98-.65 1.05-1.29 2.01-1.19 1.79-1.81 3.03-2.15 4.29-9.7 14.74a65.3 65.3 0 0 0-5.69 9.53q-10.65 22.18-16.62 33.96-2.65 5.23-5.6 13.1-9.29 24.8-10.59 28.31c-3.36 9.06-5.74 15.6-7.79 24.03q-3.36 13.81-5.29 20.91c-2.87 10.59-4.75 21.58-5.56 30.58q-.56 6.2-1.24 10.01c-1.46 8.09-1.47 16.81-1.61 24.39-.08 4.53.71 8.6.7 12.77q-.01 1.07.83 5.02 1 4.75-.21 9.19-3.32-15.83-3.71-33.64-.88-40.15 8.31-76.7 12.83-51.05 37.42-95.6 9.16-16.59 15.83-26.62c10.66-16.06 22.91-32.24 35.74-45.17a.55.55 0 0 1 .68-.08z"/><ellipse fill="#050403" rx="10.33" ry="6.04" transform="rotate(213.4 343.741 139.683)"/><path fill="#050403" d="M633.83 502.17q-3.85-1.78-3.91-6.83-.2-16.01 13.92-24.8 1.56-.97 5.23-1.4c4.62-.54 10 2.78 7.89 7.94q-.47 1.15-3.9 3.43-8.71 5.8-13.94 15.61-2.57 4.85-2.77 5.21a1.93 1.93 0 0 1-2.52.84"/><path fill="#eecd8e" d="M662.93 469.99q4.53 3.08 8.82 6.05c6.44 4.46 14.82 8.99 20.11 13.11q17.09 13.29 23.4 34.34-1.99.33-2.07 1.22-2.39-7.46-4.97-11.44-8.15-12.59-19.11-22.66-3.41-3.13-7.91-5.62c-2.74-1.51-5.6-4.02-8.66-5.57q-7.26-3.66-9.61-9.43"/><path fill="#050403" d="M554.71 510.79a3.34 3.18 55.9 0 1-3.54-.77Q534.86 493.6 511.48 491q-3.79-.43-12.37-.5a2.46 2.4-33.2 0 1-.92-.18q-2.63-1.07-2.84-4.18c-.58-8.66 13.77-10.93 19.96-10.82 14.11.24 28.03 6.14 37.41 17.19q4.99 5.88 4.89 13.23-.05 3.86-2.9 5.05m-183.87-16.32c-20.13 13.35-34.9 34.18-38.23 58.08q-3.73 22.47 3.91 42.64c9.69 25.57 31.24 46.72 57.66 55.37q18.95 6.2 38.55 5.98 28.36-.33 56.71-9.68 14.81-4.88 22.75-8.21 20.99-8.81 22.55-9.41 4.98-1.93 11.5-3.7a.74.74 0 0 1 .61 1.32l-11.13 7.64-3.55 1.99q-30.05 17.46-65.96 25.64c-28.99 6.61-61.6 5.92-87.91-7.11-26.85-13.3-44.81-34.67-53.73-63.7q-7.2-27.17 1.56-53.18 9.36-27.76 33.19-43.79 9.43-6.35 19.16-8.39 2.41-.51 4.15-.15a.69.69 0 0 1 .22 1.27z"/><ellipse fill="#fdf0cc" rx="7.64" ry="4.89" transform="rotate(-22 1616.228 -1506.12)"/><path fill="#fdf0cc" d="M370.84 494.47q-.17 8.27 1.87 14.79 11.16 35.64 45.36 52.08c23.8 11.52 50.79 14.57 77 12.78q37.73-2.63 68.25-22.82 11.26-7.44 23.4-19.09 3.85-3.7 13.07-9.36 18.47-11.36 38.47-2.39 4.24 4.06 8.4 8.38.37.38 1.35.46.97 1.55 1.33 1.87c13.3 11.91 34.57 16.39 50.71 7.05q8.35-4.83 13.14-13.51.08-.89 2.07-1.22 5.77 19.01 1.92 38.26l-5.48 7.64a.81.78 1.4 0 1-.22.2q-.6.34-1.08 1.05c-5.8 8.72-13.08 15.63-22.58 21.62q-8.05 5.09-11.03 6.78-1.84 1.04-10.47 4.14-4.51 1.62-10.56 3.94-10.02 3.85-20.9 4.89a2.88 2.71 25.9 0 0-1.06.33q-2.81 1.54-5.16.88a2.04 2.03 41.4 0 0-1.33.08q-4.52 1.93-10.34 1.86a4.42 4.22-50.7 0 0-1.05.13q-2.97.79-3.5 1.1-13.95 8.42-30.36 6.74-13.25-1.36-20.81-1.11-4.74.16-13.51.23-8.27.07-17.23 3.05-19.85 6.61-35.77 10.46c-37.95 9.16-77.94 6.27-111.78-13.51q-16.48-9.63-30.03-26.75c-4.06-5.12-6.65-10.69-10-16.25q-2.99-4.97-5.67-12.62-2.46-7-4.65-14.08c3.33-23.9 18.1-44.73 38.23-58.08m237.48 43.05q-2.08 2.59.15 5.8c3.7 5.3 9 8.16 15.25 10.49a.83.83 0 0 1 .54.78q-.01 8.16-3.35 12.92c-5.57 7.94-15.98 12.57-25.67 10.09-3.56-.92-5.85-2.94-9.42-5.69a1.33 1.33 0 0 0-2.09.67q-.44 1.48.24 3.22c3.09 7.87 12.15 11.5 20.34 10.74q13.51-1.26 22.02-12.32a.56.56 0 0 1 .79-.11q.73.55 2.33 1.66c9.16 6.36 21.71.7 23.22-10.3q.31-2.27-.39-4.33a1.44 1.44 0 0 0-2.46-.46l-.52.63a.9.88-13.4 0 0-.17.27q-1.66 3.91-2.27 4.69-5.94 7.58-13.39 2.17-1.35-.98-2.09-2.48a1.16 1.09 36.5 0 1-.11-.6l1.25-11.56a1.05 1.03-17.1 0 1 .39-.72c5.07-4.04 11.04-9.45 10.59-16.07q-.17-2.54-1.97-2.27 0-.69-.48-1.54a1.49 1.45-2.1 0 0-.7-.63q-6.6-2.98-13.87-2.89-11.34.14-18.16 7.84m.16 75.35c9.7 3.02 23.95-2.17 27.82-11.8q.56-1.39.31-2.74a1.03 1.03 0 0 0-1.65-.63q-10.66 8.35-24.67 11.96-2.42.62-2.42 2.38a.86.85 9.1 0 0 .61.83"/><path fill="#050403" d="M648.01 529.3q-.98-.08-1.35-.46-4.16-4.32-8.4-8.38-.96-1.13-1.96-2.66a2.04 2.01-24.1 0 1 1.19-3.06q.95-.25 2.44.6 5.5 3.16 8.06 10.66.65 1.9.02 3.3"/><path fill="#efb19c" d="M641.53 534.74c-2.36 3.58-9.56 12.83-14.03 12.66-6.24-.25-14.35-6-19.18-9.88q6.82-7.7 18.16-7.84 7.27-.09 13.87 2.89a1.49 1.45-2.1 0 1 .7.63q.48.85.48 1.54m-15.31.62a4.13 2.44-3.9 0 0-4.286-2.154 4.13 2.44-3.9 0 0-3.954 2.715 4.13 2.44-3.9 0 0 4.286 2.153 4.13 2.44-3.9 0 0 3.954-2.715"/><ellipse fill="#fdfdfd" rx="4.13" ry="2.44" transform="rotate(-3.9 8177.22 -8868.062)"/><path fill="#eecd8e" d="M495.07 574.12c-26.21 1.79-53.2-1.26-77-12.78q6.47-7.93 12.84-13.37c11.98-10.22 26.56-11.49 39.17-1.01q4.88 4.05 9.42 9.62 7.37 9.02 15.57 17.54"/><path fill="#050403" d="M608.32 537.52c4.83 3.88 12.94 9.63 19.18 9.88 4.47.17 11.67-9.08 14.03-12.66q1.8-.27 1.97 2.27c.45 6.62-5.52 12.03-10.59 16.07a1.05 1.03-17.1 0 0-.39.72l-1.25 11.56a1.16 1.09 36.5 0 0 .11.6q.74 1.5 2.09 2.48 7.45 5.41 13.39-2.17.61-.78 2.27-4.69a.9.88-13.4 0 1 .17-.27l.52-.63a1.44 1.44 0 0 1 2.46.46q.7 2.06.39 4.33c-1.51 11-14.06 16.66-23.22 10.3q-1.6-1.11-2.33-1.66a.56.56 0 0 0-.79.11q-8.51 11.06-22.02 12.32c-8.19.76-17.25-2.87-20.34-10.74q-.68-1.74-.24-3.22a1.33 1.33 0 0 1 2.09-.67c3.57 2.75 5.86 4.77 9.42 5.69 9.69 2.48 20.1-2.15 25.67-10.09q3.34-4.76 3.35-12.92a.83.83 0 0 0-.54-.78c-6.25-2.33-11.55-5.19-15.25-10.49q-2.23-3.21-.15-5.8"/><path fill="#eecd8e" d="M717.18 561.75q-.4 2.57-1.74 6.72-5.43 16.77-17.59 28.11c-13.6 12.67-30.8 20.04-48.61 24.57-1.82.46-3.74 1.28-5.47 2.19a.63.63 0 0 0 .1 1.15c4.22 1.39 10.25.71 14.59-.01q-.11 1.72.89 2.96l-3.49 10.92q-13.34 1.52-16.92 2.8-22.03 7.82-44.95 9.45-3.64.26-5.94-.27-2.49-.58-5.65-1.97-1.01-.43-1.9.4c-12.2-6.06-24.46-9.72-37.66-10.01l-7.12-4.26 11.13-7.64a.74.74 0 0 0-.61-1.32q-6.52 1.77-11.5 3.7-1.56.6-22.55 9.41-7.94 3.33-22.75 8.21-28.35 9.35-56.71 9.68-19.6.22-38.55-5.98c-26.42-8.65-47.97-29.8-57.66-55.37q-7.64-20.17-3.91-42.64 2.19 7.08 4.65 14.08 2.68 7.65 5.67 12.62c3.35 5.56 5.94 11.13 10 16.25q13.55 17.12 30.03 26.75c33.84 19.78 73.83 22.67 111.78 13.51q15.92-3.85 35.77-10.46 8.96-2.98 17.23-3.05 8.77-.07 13.51-.23 7.56-.25 20.81 1.11 16.41 1.68 30.36-6.74.53-.31 3.5-1.1a4.42 4.22-50.7 0 1 1.05-.13q5.82.07 10.34-1.86a2.04 2.03 41.4 0 1 1.33-.08q2.35.66 5.16-.88a2.88 2.71 25.9 0 1 1.06-.33q10.88-1.04 20.9-4.89 6.05-2.32 10.56-3.94 8.63-3.1 10.47-4.14 2.98-1.69 11.03-6.78c9.5-5.99 16.78-12.9 22.58-21.62q.48-.71 1.08-1.05a.81.78 1.4 0 0 .22-.2z"/><path fill="#ec9634" d="M324.57 591.32c8.92 29.03 26.88 50.4 53.73 63.7 26.31 13.03 58.92 13.72 87.91 7.11q35.91-8.18 65.96-25.64l3.79 2.05a.26.25-39.2 0 1-.05.47q-1.57.46-2.23.89c-13.26 8.77-22.38 15.04-35.35 20.41q-11.22 4.66-21.28 8.41c-22.28 8.32-49.38 10.74-72.58 6.59q-24.86-4.45-44.05-18.47-16.48-12.04-26.88-32.66-2.08-4.12-4.82-11.54-3.81-10.34-3.82-10.39-1.61-5.79-.33-10.93"/><path fill="#050403" d="M607.87 612.04q0-1.76 2.42-2.38 14.01-3.61 24.67-11.96a1.03 1.03 0 0 1 1.65.63q.25 1.35-.31 2.74c-3.87 9.63-18.12 14.82-27.82 11.8a.86.85 9.1 0 1-.61-.83"/><path fill="#ec9634" d="M702.15 617.9c-2.62 1.55-5.01 3.37-7.71 4.52q-15.44 6.57-32.74 7.11-.52-1.22-2.35-2.09-1-1.24-.89-2.96 21.27-2.44 38.53-14.61a.92.92 0 0 1 1.35.34z"/><path fill="#f4bc48" d="M702.15 617.9q3.11 8.62 4.52 15.66c1.07 5.32.87 11.67.25 16.92-1.26 10.57-8.52 21.4-16.76 27.78q-1.53-6.18-3.89-10.08-7.12-11.76-21.56-12.81-2.51-.18-5.16-.53c2.77-7.78 4.73-17.08 2.15-25.31q17.3-.54 32.74-7.11c2.7-1.15 5.09-2.97 7.71-4.52"/><path fill="#fdf0cc" d="M655.86 638.36c-2.14 7.66-4.57 15.9-8.41 22.91-3.58 6.52-5.46 12.33-5.52 19.48q-.04 5.19 2.44 9.7 2.19 12.55 15.05 14.93 7.86 1.46 16.51-.55 2.99-.7 6.99-2.65 3.35-1.63 6.78-3.22 1.34 3.2 2.09 5.74c5.1 17.28 8.91 34.47 7.48 52.55q-1.03 12.99-3.06 22.48-2.07 9.72-7.72 19.97l-1.93 2.72a1.89 1.85-86.5 0 1-.63.57c-2.58 1.44-4.47 2.91-7.56 4.22q-6.33 2.67-13.55 4.56c-9.37 2.46-14.48 4.11-23.19 6.9q-5.25 1.68-14.52 2.89-10.33 1.35-14.69 2.03-21.6 3.38-22.17 3.44-12.22 1.27-23.83.88-.65-.03-2.37.13-1.38.12-2.36-.15 8.51-19.13 15.07-40.61c2.1-6.89 4.43-18.45-6.22-18.86a.82.81 80.8 0 1-.73-.53c-2.15-5.73-8.04-5.68-12.4-3.11a1.31 1.3-48.1 0 1-1.19.07l-2.31-1.01a1.09 1.08-79.5 0 1-.66-.97q-.57-21.09-11.09-40.02 7 .5 16.84.07 10.16-.45 17.82-3.01c3.8-1.27 8.12-3.62 11.67-4.9a9.47 9.44-54.1 0 1 3.4-.55c12.93.34 23.18-2.39 30.3-13.76q1.78-2.84 1.45-4.83a.78.74-72.5 0 0-.17-.35q-.05-.05-.23-.08a.38.37-83.9 0 1-.33-.42q.23-2.45-.71-4.62.96-4.86.27-9.01-.76-4.65-3.78-8.1c-4.45-5.07-10.73-8.9-16.88-11.35a9.75 9.5-16.7 0 1-1.76-.92q-2.77-1.84-6.74-4.83-4.35-3.26-12.81-7.42.89-.83 1.9-.4 3.16 1.39 5.65 1.97 2.3.53 5.94.27 22.92-1.63 44.95-9.45 3.58-1.28 16.92-2.8"/><path fill="#fdfdfd" d="m690.16 678.26-4.08 2.52a5.54 5.34-82.9 0 0-.99.8c-4.7 4.86-11.57 12.24-18.16 12.34a.56.56 0 0 1-.52-.79l4.32-9.91a.93.93 0 0 0-1.39-1.12c-3.77 2.69-6.88 6.42-9.39 8.58q-1.57 1.35-3.21 1.15a1.6 1.59 9.8 0 1-1.36-1.92q1.09-5.08 4.13-11.88.53-1.18.39-1.85a1.32 1.32 0 0 0-2.32-.64l-6.73 8.01a.61.61 0 0 1-1.06-.28c-1.23-6.69 2.14-14 5.47-19.77q2.44-4.26 4.29-8.66 2.65.35 5.16.53 14.44 1.05 21.56 12.81 2.36 3.9 3.89 10.08m-102.88-15.98 7.33 4.59a4.45 4.04 69.6 0 0 .6.31c6.1 2.66 17.35 8.14 19.81 14.27a.78.77-2.1 0 1-.96 1.03q-4.1-1.34-8.41-2.88-.86-.3-1.96.05a.96.96 0 0 0-.26 1.7q4.81 3.38 7.25 4.95 2.79 1.79 4.3 4.17a1.7 1.69 61.7 0 1-.73 2.45c-4.03 1.81-10.52-2.17-16.06-2.33a.82.82 0 0 0-.74 1.22q.54 1 1.96 1.92-13.75 3.2-24.44-2.27-2.14-18.78 12.31-29.18"/><path fill="#ec9634" d="M710.69 680.68q-2.48 4.92-3.63 6.13-5.91 6.24-15.84 11.01a1.47 1.47 0 0 1-.94.12l-.87-.16-2.94-7.4q8.24-4.21 15.37-10.54 2.61-2.32 4.23-4.99a.83.82 46.2 0 1 1.43.03z"/><path fill="#f4bc48" d="M710.69 680.68c8.62 15.88 14.14 34.16 13.93 52.15q-.12 9.87-.99 17.16-.25 2.11-.5 3a2.09 2.05-16.5 0 1-.43.77q-16.92 19.13-22.46 43.29-5.74 1.22-11.97 5.16.42-1.27.22-2.51 5.65-10.25 7.72-19.97 2.03-9.49 3.06-22.48c1.43-18.08-2.38-35.27-7.48-52.55q-.75-2.54-2.09-5.74.12-.24-.29-1.18l.87.16a1.47 1.47 0 0 0 .94-.12q9.93-4.77 15.84-11.01 1.15-1.21 3.63-6.13"/><path fill="#eecd8e" d="m543.65 767.03-.37-3.77a1.12.34 61.8 0 0-.03-.15q-2.07-7.98-3.67-10.98-2.38-4.46-5.13-10.81-4.56-10.56-15.57-22.21-11.48-12.16-26.34-21.16-7.66-4.63-18.52-7.25-1.7-.41-1.44-2.36 9.59 1.62 18.94 4.66 26.74 8.71 41.62 31.6c8.18 12.57 11.84 25.56 14.85 39.57a.67.65 70.4 0 1-.33.72zm-1.49-44.18-7-10.1a.29.29 0 0 1 .27-.45c16.87 2.05 31.89-1.52 47.42-7.55a2.71 2.68 44.6 0 1 1.93 0c7.79 2.99 24.73 5.86 30.12-2.97 1.14-1.86 3.67-2.26 5.45-4.04q3.13-3.14 1.85-7.34.94 2.17.71 4.62a.38.37-83.9 0 0 .33.42q.18.03.23.08a.78.74-72.5 0 1 .17.35q.33 1.99-1.45 4.83c-7.12 11.37-17.37 14.1-30.3 13.76a9.47 9.44-54.1 0 0-3.4.55c-3.55 1.28-7.87 3.63-11.67 4.9q-7.66 2.56-17.82 3.01-9.84.43-16.84-.07m144.31-32.47 2.94 7.4q.41.94.29 1.18-3.43 1.59-6.78 3.22-4 1.95-6.99 2.65-8.65 2.01-16.51.55-12.86-2.38-15.05-14.93l3.36 1.92a1.6 1.6 0 0 1 .74.91c1.13 3.5 4.15 6.17 7.95 6.29q1.39.04 1.99.13a4.02 3.86 63.1 0 1 1.29.45c6.97 3.95 16.16.26 21.71-4.49q2.55-2.17 5.06-5.28"/><path fill="#fdf0cc" d="m599.41 693.73 6.84 4.14a.69.68-36.4 0 1-.19 1.25c-7.34 1.82-14.73.1-22.05-2.03q-2.2-.65-7.65 1.23-1.89-3.27-1.39-6.86 10.69 5.47 24.44 2.27"/><ellipse fill="#050403" rx="8.46" ry="4.27" transform="rotate(252.6 409.002 247.863)"/><path fill="#ec9634" d="M522.82 826.03q-1.81 5.63-.97 11.41a1.52 1.51 66.1 0 1-.53 1.38q-4.5 3.71-9.62 6.39c-13.65 7.14-29.26 11.57-44.77 11.67q-18.25.12-33.49-1.76-12.58-1.56-36.12-6.71-12.7-2.78-28.67-9.01c-37.41-14.59-66.42-41.11-83.79-77.51q-8.64-18.11-13.67-38.58-.96-3.93-.96-7.07 8.17 18.23 20.19 33.36 7.89 9.91 8.92 11.16 2.22 2.68 7.2 7.94 5.44 5.75 7.19 7.3c10.68 9.45 21.1 18.04 33.24 25.52q26.55 16.35 56.16 24.11c9.22 2.42 15.1 3.4 24.95 4.62q19.27 2.39 33.66 1.47 10.69-.69 25.33-3.17 17.66-3 34.99-9.73a.39.39 0 0 1 .53.35z"/><ellipse fill="#050403" rx="8.21" ry="4.18" transform="rotate(240.9 372.481 279.732)"/><path fill="#fdf0cc" d="M732.56 802.45q-9.07 7.09-17.05 4.22a3.4 3.4 0 0 1-.87-.47c-4.65-3.51-4.26-8.52-4.58-13.75 4.61-13.04 11.43-27.01 21.89-36.38a.89.89 0 0 1 1.45.42q.42 1.51-.44 3.47-2.68 6.15-3.26 9.03-.33 1.68 1.54 2.19a.89.89 0 0 0 .9-.26c3.52-3.86 5.69-9.18 7.92-12.82q1-1.64 2.83-1.61a.66.66 0 0 1 .64.58c.59 4.33-2.5 10.54-3.99 14.78a1.6 1.52-88.2 0 0 1.86 2.08q.65-.2 1.53-1.52 2.32-3.49 5.33-8.73a.51.51 0 0 1 .96.27q-.17 4.82-1.97 9.81-5.77 15.97-14.69 28.69"/><ellipse fill="#050403" rx="8.13" ry="4.27" transform="rotate(224.5 323.488 317.54)"/><path fill="#efb19c" d="M565.9 794.71q-.29-1.55-1.96-1.02a1.41 1.39 49.6 0 1-1.03-.09l-12.59-6.53c2.48-5.21 5.19-12.69 10.1-15.88a1.86 1.65-34.1 0 1 2.42.32q.47.67.2 2-.53 2.56-2.9 8.33c-.88 2.15-2.3 6.09-.23 7.09a1.58 1.56 27.5 0 0 2.07-.64c3.19-5.77 4.69-9.75 7.54-11.55a1.12 1.12 0 0 1 1.71 1q-.06 1.02-.3 1.94-1.99 7.68-5.03 15.03"/><path fill="#fdf0cc" d="m550.32 787.07 12.59 6.53a1.41 1.39 49.6 0 0 1.03.09q1.67-.53 1.96 1.02l-6.76 17.95q-1.71 2.32-3.67 3.28a2.05 1.97 5.3 0 0-.69.55c-2.23 2.81-4.05 5.06-7.12 7.26-5.87 4.21-12.56 3.96-17.95-1.09a3.67 3.17 8.8 0 1-.52-.61q-2.27-3.34-4.18-5.78-1.24-1.58-.1-3.49 1-.25 1.26-.91c4.99-13.12 10.79-30.57 23.24-39.04a.66.66 0 0 1 .97.81q-2.35 5.33-3.26 11.24a2.82 2.5-76.8 0 0 1.62 3q.43.14 1.58-.81"/><path fill="#eecd8e" d="M732.56 802.45q-4.11 6.91-9.14 11.47c-3.07 2.79-9.06 6.92-13.34 4.88-6.88-3.29-2.21-20.75-.02-26.35.32 5.23-.07 10.24 4.58 13.75a3.4 3.4 0 0 0 .87.47q7.98 2.87 17.05-4.22"/><path fill="#ec9634" d="M700.24 797.05q-1.93 6.26-2.12 11.4a1.9 1.89 71 0 1-.65 1.34q-11.88 10.24-27.28 16.57 4.78-5.16 8.82-10.22 1.86-2.33 4.57-6.99 2.22-3.81 4.69-6.94 6.23-3.94 11.97-5.16"/><path fill="#eecd8e" d="M688.49 799.7q.2 1.24-.22 2.51-2.47 3.13-4.69 6.94-2.71 4.66-4.57 6.99-4.04 5.06-8.82 10.22-12.41 5.93-26.49 10.02-24.68 7.18-45.18 10.11c-12.51 1.78-30.79 4.47-43.73 5.69q-17.94 1.69-38.18 2.4a.23.23 0 0 1-.13-.42q6.29-3.83 10.57-8.03a.82.82 0 0 1 1.04-.08c9.82 6.98 20.57 1.29 26.79-7.17q4.25-5.78 6.81-10.99.98.27 2.36.15 1.72-.16 2.37-.13 11.61.39 23.83-.88.57-.06 22.17-3.44 4.36-.68 14.69-2.03 9.27-1.21 14.52-2.89c8.71-2.79 13.82-4.44 23.19-6.9q7.22-1.89 13.55-4.56c3.09-1.31 4.98-2.78 7.56-4.22a1.89 1.85-86.5 0 0 .63-.57z"/><path fill="#eecd8e" d="M559.14 812.66q-3.58 9.36-8.3 17.85-3.47 6.23-9.14 9.12c-6.94 3.55-11.54-2.71-13.52-8.8q-1.11-3.4-2.9-6.45-.22-2.9-.79-5.89-.57-3.01-.08-5.84.34.04.5.13-1.14 1.91.1 3.49 1.91 2.44 4.18 5.78a3.67 3.17 8.8 0 0 .52.61c5.39 5.05 12.08 5.3 17.95 1.09 3.07-2.2 4.89-4.45 7.12-7.26a2.05 1.97 5.3 0 1 .69-.55q1.96-.96 3.67-3.28"/></svg>