<svg xmlns="http://www.w3.org/2000/svg" viewBox="0 0 1024 1024"><g fill="none" stroke-width="2"><path stroke="#848281" d="M475.06 360.46q16.37 5.73 30.28-4.44c10.33-7.54 12.54-21.58 5.58-32.36a1.42 1.4-54.6 0 1-.18-1.13q3.97-14.62-6.62-23.59c-5.66-4.8-12.9-6.42-19.94-4.1a.74.73-31.3 0 1-.73-.17q-13.98-13.45-32.31-7.17-12.58 4.31-17.19 17.93a.78.77 1.4 0 1-.53.5q-10.78 2.86-15.5 9.69-4.39 6.36-4.22 12.65.46 16.34 15.33 21.84a2.73 2.71-86.8 0 1 1.71 1.93c2.85 11.92 14.16 17.63 25.78 16.68q10.01-.81 17.55-8.04a.96.95-57.2 0 1 .99-.22M448.655 383.228a14.69 13.92-5.4 0 0-15.935-12.476 14.69 13.92-5.4 0 0-13.315 15.24 14.69 13.92-5.4 0 0 15.935 12.476 14.69 13.92-5.4 0 0 13.315-15.24" vector-effect="non-scaling-stroke"/><path stroke="#ecc59b" d="M386.86 661.96q.29.21.6-.01" vector-effect="non-scaling-stroke"/><path stroke="#848281" d="M387.46 661.95c-.95 8.59 3.08 15.1 10.67 18.55q.26.12 3.72 2.63c6.19 4.48 12.59 5.24 20.19 4.86a7.38 6.9-38.8 0 1 1.73.13q22.32 4.5 38.55-10.8c1.3-1.22 2.64-3.18 3.76-4.2a2.53 2.49-66.9 0 1 1.56-.64l48.26-1.96a1.07 1.07 0 0 1 .33 2.1l-14.49 4.08a.45.45 0 0 0-.2.74c14.58 15.45 34.05 25.08 54.54 30.72 37.61 10.34 80.06 10.02 116.29-4.98a.44.43 5.5 0 1 .53.64l-2.66 4.05a.61.61 0 0 0 .61.94q5.11-.8 11.03-2.92c31.89-11.43 61.14-39.02 66.46-73.82q2.93-19.22-2.08-36.82-1.1-3.85-1.46-5.53a6.6 6.45-46.5 0 1-.04-2.58q7.47-40.2-6.94-78.52c-24.44-65-88.34-105.34-156.07-109.87q-40.65-2.72-80.33 9.66-13.53 4.22-25.77 9.26-27.55 11.35-52.22 24.88a2.84 2.81-57.1 0 1-1.51.33q-7.37-.5-16.4-.11c-25 1.07-49.42 11.4-66.44 30.06q-2.93 3.22-3.67 3.95a1.35 1.33-67.9 0 1-.88.38q-7.39.38-14.03 1.38c-19.17 2.89-25.71 16.31-30.61 33.09-3.87 13.22-11.86 23.97-21.19 33.8-11.43 12.05-10.12 30.36-1.82 43.99a.54.54 0 0 0 .99-.19l.97-5.42a.3.3 0 0 1 .59-.03c2.09 7.51 6.14 14.6 9.98 22.07q7.86 15.25-.3 30.13a.83.82 19.1 0 0 .59 1.21q20.48 3.42 34.52-11.5 1.82-1.93 4.37-4.95a.43.43 0 0 1 .7.07l.96 1.65a.35.34-36.8 0 1-.07.42c-17.49 16.51-15.57 43.63 7.06 54.54q9.12 4.39 15.88 2.33a2.77 2.75 45.2 0 1 1.64.01q14.72 4.69 26.97-4.29a5.69 5.65-72.7 0 1 1.57-.83c6.24-2.22 11.55-6.1 13.56-12.68" vector-effect="non-scaling-stroke"/><path stroke="#72471d" d="M387.46 661.95q.42-2.09 1.17-4.26.19-.57-.45-.88a.71.71 0 0 0-1.02.65q.02 2.2-.3 4.5" vector-effect="non-scaling-stroke"/><path stroke="#848281" d="M429.71 411.73a8.7 8.7 0 0 0-8.7-8.7 8.7 8.7 0 0 0-8.7 8.7 8.7 8.7 0 0 0 8.7 8.7 8.7 8.7 0 0 0 8.7-8.7M473.77 353.82c11.21 5.07 27.35 2.59 33.36-9.6q4.98-10.1-2.21-20.14a.94.93 36.6 0 1-.13-.84q4.02-12.01-4.1-19.78c-3.91-3.75-9.73-5.34-15.07-4.72-1.22.15-2.51.68-3.7.72a1.5 1.5 0 0 1-1.03-.34q-1.46-1.2-2.88-2.39-6.57-5.49-16.12-5.3-17.99.36-24.2 17.4a1.18 1.16-85 0 1-.89.76c-20.54 3.75-23.26 30.39-2.9 37a1.61 1.59.8 0 1 1.04 1.06c5.53 18.05 26.22 19.28 37.68 6.42a1 .98-56.8 0 1 1.15-.25" vector-effect="non-scaling-stroke"/><path stroke="#848281" d="M460.2 318.38q-4.91 5.82-15.99 18.69c-1.47 1.71-1.79 2.7-1.64 4.81a.96.96 0 0 0 .96.9h27.98a.85.85 0 0 0 .85-.85v-4.16a.91.91 0 0 0-.91-.91h-18.4a.2.2 0 0 1-.15-.33q6.82-7.68 16.1-18.17c1.65-1.86 1.8-3.41 1.07-5.4a1.1 1.1 0 0 0-1.03-.71h-25.57a.78.77 0 0 0-.78.77v4.04a.85.85 0 0 0 .85.85h16.44a.29.28 20.1 0 1 .22.47M483.17 331.1a.39.38 20.8 0 1-.29-.64c3.58-4.03 8.12-8.54 8.23-10q.13-1.58-1.11-2.14a.77.61 51.6 0 0-.3-.07h-13.81a.95.94 90 0 0-.94.95v1.75a1.32 1.32 0 0 0 1.32 1.32h6.43a.54.54 0 0 1 .4.91q-6.2 6.76-7.05 7.77-1.44 1.71-.57 3.68a.87.85 77.6 0 0 .78.51h14.83a1.01 1 0 0 0 1.01-1v-2.27a.77.77 0 0 0-.77-.77h-8.16M443.095 382.739a9.17 8.62-11.2 0 0-10.67-6.675 9.17 8.62-11.2 0 0-7.32 10.237 9.17 8.62-11.2 0 0 10.67 6.675 9.17 8.62-11.2 0 0 7.32-10.237" vector-effect="non-scaling-stroke"/><path stroke="#72471d" d="m438.69 441.5-5.1 2.05a.46.46 0 0 0 .06.88c12.91 3.25 25.31 7.38 35.23 13.75q4.81 3.1 7.27 4.22a1.57 1.55-39.5 0 0 1.08.1q24.98-6.44 41.56 13.03 1.45 1.71 6.91 9.24 4.77 6.58 11.08 12.74c5.28 5.16 12.84 9.73 18.47 13.74 7.5 5.34 13.99 11.98 16.99 20.77a.36.36 0 0 0 .62.11q16-20.09 40.84-25.97 3.56-.84 8.53-1.74a9 9 0 0 0 2.95-1.08q12.31-7.2 27.81-7.18" vector-effect="non-scaling-stroke"/><path stroke="#7c5929" d="M652.99 496.16q.17.33 1.46.21" vector-effect="non-scaling-stroke"/><path stroke="#72471d" d="M654.45 496.37q.35.47-.03.85a.31.29-73.2 0 1-.14.08q-9.2 1.7-17.47 5.78a.22.22 0 0 0 .09.42q17.1.65 32.46 8.11" vector-effect="non-scaling-stroke"/><path stroke="#7c5929" d="M669.36 511.61q3.14 1.14 5.63 3.24" vector-effect="non-scaling-stroke"/><path stroke="#7f6e49" d="M674.99 514.85q-10.13-2.54-20.12-4c-27-3.92-56.5 2.44-74.81 24.21q-2.73 3.25-5.64 7.14a2.22 2.15-26.2 0 0-.43 1.2q-.3 7.3-2.03 14.38" vector-effect="non-scaling-stroke"/><path stroke="#7c5929" d="M571.96 557.78q-3.51 11.18-9.74 21.19-.36.58-.51 1.22" vector-effect="non-scaling-stroke"/><path stroke="#72471d" d="M561.71 580.19q-.89 1.44-.88 1.94.25 9.84.3 10.62 1.22 18.86 12.84 33.84 2.68 3.46 4.77 4.51 2.58 1.3 10.05 4.35a3.87 3.85-40.4 0 0 2.3.18c12.53-2.87 23.06-3.35 36.94-1.98 13.66 1.35 23.78 2.72 37.47 2.6q31.88-.28 52.94-23.54 3.24-3.58 4.47-6.28" vector-effect="non-scaling-stroke"/><path stroke="#7c5929" d="M722.91 606.43q.31-.46.75-.66a.32.31 83.3 0 1 .44.35q-.53 2.6-1.7 5.04c-6.05 12.61-16.77 21.56-29.41 27.23" vector-effect="non-scaling-stroke"/><path stroke="#7f6e49" d="M692.99 638.39c-13.4 5.2-26.54 5.41-41.48 4.63-16.04-.83-38.66-6.2-57.87-.83a.33.33 0 0 0 .05.65q9.34 1.14 17.05 6.28a.16.16 0 0 1-.1.3q-27.63-1.67-51.86 11.38-19.79 10.66-26.21 13.55-4.37 1.97-14.86 4.67" vector-effect="non-scaling-stroke"/><path stroke="#72471d" d="m517.71 679.02-3.15.64a.24.24 0 0 0-.1.43c16.6 12.49 35.96 19.76 56.29 23.92 28.72 5.88 57.78 4.88 85.81-2.51q9.6-2.53 22.64-8.55 3.45-1.59 7.46-4.75.26-.21.38-.2a.54.49-78.5 0 1 .42.71q-1.78 5.33-3.36 9.04a.34.34 0 0 0 .46.44c24.3-11.47 46-31.79 53.95-57.45q6.35-20.52.94-43.11" vector-effect="non-scaling-stroke"/><path stroke="#7c5929" d="m739.45 597.63-1.35-6.17a6.72 6.51 42.2 0 1-.13-2.01l.94-10.38" vector-effect="non-scaling-stroke"/><path stroke="#7f6e49" d="M738.91 579.07q4.33-44.78-15.57-83.65c-18.92-36.98-53.22-64.46-91.94-78.27q-42.63-15.21-88.16-9.69-25.92 3.14-51.18 11.87-27.93 9.66-53.37 22.17" vector-effect="non-scaling-stroke"/><path stroke="#f2c36f" d="M738.91 579.07q-1.55-2.12-1.32-5.32.67-9.63-.72-18.87c-1.07-7.1-1.58-14.32-4.16-21.13q-.35-.93-4.73-13.83c-3.81-11.2-9.62-19.71-15.9-30.68-2.56-4.46-6.07-9.46-8.94-12.62q-3.81-4.19-16-16.19c-11.62-11.45-24.43-18.76-38.03-26.27-12.19-6.74-25.63-10.86-40.16-14.48q-21.78-5.42-44.98-5.28c-14.3.08-28.87 1.21-42.86 3.97q-6.41 1.27-29.46 7.1-5.28 1.33-11.82 3.65-11.06 3.92-11.67 4.14-11.1 4.13-22.98 8.39" vector-effect="non-scaling-stroke"/><path stroke="#e8b163" d="M445.18 441.65q-2.52.31-5.83.66-.48.06-.64-.14-.18-.23-.02-.67" vector-effect="non-scaling-stroke"/><path stroke="#e49c43" d="M739.45 597.63q-1.59 9.38-2.83 18.58-.54 4.06-1.37 6.21c-3.06 8.01-7.02 15.62-11.86 23.74q-4.69 7.87-8.03 10.71c-7.08 6.02-12.51 11.32-19.15 14.58-10.26 5.03-18.88 9.06-29.87 12.13q-12.96 3.62-15.11 4.15-12.27 2.98-28.98 4.58-25.66 2.48-53.01-.52-5.5-.6-14.55-2.59-7.42-1.63-14.55-2.82-6.74-1.13-17.69-6.27" vector-effect="non-scaling-stroke"/><path stroke="#f2c36f" d="M522.45 680.11q13.22-1.62 22.17-5.5c4.2-1.83 10.9-6.15 15.61-8.33q12.76-5.9 27.61-9.8 8.89-2.34 18.54-2.45 12.45-.14 18.65.82a.6.6 0 0 0 .42-1.1l-10.73-7.03a.66.66 0 0 1 .1-1.16q.99-.43 2.37-.42c9.77.06 17.64.47 26.31 1.51q7.37.87 16.76.32 16.63-.99 31.82-6.38a1.51 1.47 6.1 0 0 .74-.58q.61-.92.17-1.62" vector-effect="non-scaling-stroke"/><path stroke="#e49c43" d="M722.91 606.43q-4 .58-7.75 3.43a5.27 5.2-75.7 0 1-1.03.62q-9.94 4.57-19.92 8.89c-2.81 1.21-6.56 2.28-9.55 2.82q-18.29 3.34-36.85 3.69l-17.62.33q-19.79.06-20.96-.06-20.67-2.01-33.77-16.61-4.17-4.65-6.04-8.7-4.32-9.32-6.15-19.45a1.24 1.17-72.4 0 0-.3-.62q-.53-.57-1.26-.58" vector-effect="non-scaling-stroke"/><path stroke="#f2c36f" d="M571.96 557.78q.61.31 1 .22.38-.09.59-.77c3.55-11.85 12.72-19.55 22.25-26.71 11.88-8.92 25.17-12.41 40.21-15.03q7.7-1.34 17.24-1.12 11.35.27 21.3 1.73a.51.51 0 0 0 .58-.47q.02-.4-.14-.78" vector-effect="non-scaling-stroke"/><path stroke="#e49c43" d="M669.36 511.61c-.46-3.03-1.55-4.47-4.31-6.25q-3.74-2.4-6.17-6.18-.75-1.16-4.43-2.81M652.99 496.16q-12.85-2.8-25.72-.86-4.43.67-10.67 2.59c-10.11 3.09-20.27 5.95-29.21 11q-3.63 2.06-8.93 4.56-1.61.76-3.73.22a1.73 1.65 74.5 0 1-.84-.5q-2.7-2.83-6.84-7.44c-4.24-4.72-12.42-9.43-17.9-17.16q-8.46-11.92-19.3-22.42-4.07-3.95-10.48-6.52-9.56-3.83-18.44-4.78c-6.52-.69-12.49-.56-18.44-2.66q-10.61-3.75-21.05-7.12-4.94-1.6-16.26-3.42" vector-effect="non-scaling-stroke"/><path stroke="#e8b163" d="M517.71 679.02q-.28.26-.28.4-.05.7.65.73 2.42.09 4.37-.04" vector-effect="non-scaling-stroke"/><path stroke="#7c5929" d="M329.49 490.45q-.18-1.39.35-3.21" vector-effect="non-scaling-stroke"/><path stroke="#7f6e49" d="M329.84 487.24q1.11-1.52 1.72-3.64a.34.34 0 0 0-.37-.43q-8.75 1.01-14.92 3.15c-14.07 4.89-16.57 17.08-21.39 30.83q-4.25 12.15-12.52 22.47-1.6 1.99-8.2 9.26-9.59 10.55-6.91 25.54a.26.25 55.6 0 0 .47.09l4-6.75" vector-effect="non-scaling-stroke"/><path stroke="#7c5929" d="M271.72 567.76q.18 13.81 9.14 26.27" vector-effect="non-scaling-stroke"/><path stroke="#72471d" d="M280.86 594.03q5.36 10.09 7.97 18.65 2.79 9.18-.52 18.17a.52.52 0 0 0 .58.69q16.76-2.93 25.51-17.58a3.18 3.06-25.5 0 0 .41-1.09c.38-2.3.78-6.52 1.74-9.41 2.72-8.16 4.42-15.2 2.52-24.77q-3.96-19.94-3.96-19.96c-3.11-16.34-1.94-33.19 6.78-48.2" vector-effect="non-scaling-stroke"/><path stroke="#7c5929" d="M321.89 510.53q1.17-2.97 2.9-3.73" vector-effect="non-scaling-stroke"/><path stroke="#7f6e49" d="M324.79 506.8q-6.54 18.97-4.94 38.3c.82 9.94 3.73 20.8 5.75 31.1 1.38 7.03 1.79 13.69-.31 20.87q-.64 2.17-2.18 8.57c-2.14 8.85 2.82 14.29 10.51 17.68" vector-effect="non-scaling-stroke"/><path stroke="#72471d" d="M333.62 623.32q7.46 2.89 15.79 3.96a.35.34 85.5 0 0 .37-.44l-1.8-5.89" vector-effect="non-scaling-stroke"/><path stroke="#7c5929" d="M347.98 620.95q-.65-1.64-.65-2.51a.26.26 0 0 1 .43-.19c3.99 3.72 6.73 7 10.49 12.23 6.38 8.89 15.2 15.73 26.34 8.85q4.22-2.6 10.01-7.29a.92.91-25.4 0 0 .32-.89l-1.57-8.07a.8.8 0 0 0-.62-.63c-9.92-1.96-19.92-7.84-24.49-17.05-4.78-9.62 1.63-15.87 10.05-19.08q16.2-6.16 31.99-2.42c6.2 1.46 11.39 5.68 10.56 12.62-1.34 11.22-11.52 21.92-21.12 25.47a.83.82 74.5 0 0-.53.94l1.27 6.55a1.72 1.72 0 0 0 1.1 1.28c10.15 3.72 16.51 6.05 25.44 6.33 17.88.55 27.24-13.04 37.69-25.43a.46.46 0 0 1 .81.35l-.35 3.26" vector-effect="non-scaling-stroke"/><path stroke="#72471d" d="m465.15 615.27-1.77 5.19a.32.32 0 0 0 .4.4q8.64-2.72 16.09-3.86c11.01-1.68 18.73-5.89 23.08-16.18a1.2 1.19 43.5 0 0-.03-1.01q-7.41-14.9-7.76-31.51-.12-5.78.04-16.55.24-15.17-4.54-31.1-3.06-10.19-10.64-19.22" vector-effect="non-scaling-stroke"/><path stroke="#7c5929" d="m480.02 501.43-4.01-6.32a.14.14 0 0 1 .2-.19l2.45 1.66" vector-effect="non-scaling-stroke"/><path stroke="#72471d" d="M478.66 496.58c12.08 8.91 19.87 23.18 22 38.53 1.86 13.45 1.6 27.66 1.95 38.09q.23 6.86 3.11 15.45c5.27 15.65 17.51 26.45 34.02 29.24a.53.53 0 0 0 .61-.47q1.94-19.84 10.59-32.71 5.58-8.32 7.08-11.2" vector-effect="non-scaling-stroke"/><path stroke="#7c5929" d="M558.02 573.51q3.9-5.43 4.61-9.73" vector-effect="non-scaling-stroke"/><path stroke="#7f6e49" d="M562.63 563.78q6.66-13.05 3.57-26.8-2.2-9.86-9.77-16.07c-7.48-6.14-16.05-11.36-21.5-16.06q-7.43-6.4-10.16-10.12-6.23-8.48-11.04-14.7c-6.22-8.04-14.47-12.24-24.57-12.48q-6.81-.16-8.17.11-6.43 1.27-12.99 2.14" vector-effect="non-scaling-stroke"/><path stroke="#7c5929" d="M468 469.8q.12-1.31 1.57-2.32" vector-effect="non-scaling-stroke"/><path stroke="#7f6e49" d="m469.57 467.48 2.13-1.15a.64.64 0 0 0-.02-1.13q-15.24-7.69-31.15-11.98c-27.15-7.33-56.26-4.41-80.44 10.36-11.72 7.15-21.4 16.4-30.6 26.87" vector-effect="non-scaling-stroke"/><path stroke="#f2c36f" d="M469.57 467.48q-.33-.24-.46-.8a.97.95 3.8 0 0-.59-.66q-15.59-5.81-26.52-7.91-11.98-2.31-26.25-3.09-15.73-.87-30.99 4.3-13.8 4.67-20.95 8.26-11.66 5.86-26.12 17.85-2.68 2.22-5.72 4.3a4.1 3.67-83.1 0 0-.73.64q-2.1 2.28-1.75.08M468 469.8l-1.53.82a.85.85 0 0 0 .33 1.59q3.06.28 3.95.08c6.06-1.33 14.67-2.33 21.3-.33q5.07 1.54 9.4 3.33c5.62 2.32 9.26 6.37 11.93 11.67 1.03 2.05 2.6 4.25 4.22 5.92q4.21 4.34 9.42 10.62 4.09 4.93 6.68 6.78c10.67 7.65 22.39 13.21 28 26.13q2.03 4.7 1.92 13.39-.09 6.81-.99 13.98" vector-effect="non-scaling-stroke"/><path stroke="#e49c43" d="M558.02 573.51q1.86-10.24-1.07-17.93a.42.42 0 0 0-.78 0c-1.93 5.18-3.61 10.71-6.21 15.44-2.52 4.57-5.83 9.56-7.49 13.97q-3.73 9.87-5.08 21.41a1.05 1.04 16.1 0 1-1.49.82c-12.01-5.72-19.76-16.29-23.56-28.72q-1.59-5.21-2.37-14.64-.86-10.51-1.33-14.82-.72-6.69-4.17-21.9-.95-4.18-3.83-9.41-6.14-11.13-15.29-18.54-3.47-2.82-6.69-2.61M480.02 501.43q7.06 16.67 8.83 32.59c.62 5.53 1.23 10.9 1.02 16.01-.44 10.69-1.54 22.68 2.19 32.51q2.31 6.09 2.48 8.43c.54 7.43-2.96 14.12-9.43 17.79q-3.8 2.16-6.46 2.7-8.41 1.69-13.5 3.81M347.98 620.95q-13.07 0-19.55-10.13a.31.31 0 0 0-.56.26q1.42 4.5 4.07 8.41" vector-effect="non-scaling-stroke"/><path stroke="#f2c36f" d="M331.94 619.49c-9.79-3.86-6.44-15.18-4.15-22.46q1.16-3.69 1.3-7.47.42-11.23-2.18-21.38-.31-1.21-2.29-10.49-4.35-20.33-.43-40.54c.68-3.51 2.2-6.53 2.02-10.23a.55.55 0 0 0-.7-.51q-.32.09-.72.39" vector-effect="non-scaling-stroke"/><path stroke="#e49c43" d="M321.89 510.53q-3.55 2.1-5.37 5.5-2.84 5.31-5.04 12.86c-1.1 3.79-1.26 7.03-2.02 10.63q-.64 3.04-.89 8.03-.39 7.9.84 30.95.64 11.91-3.79 25.42c-1.28 3.89-3.42 6.94-6.07 11.39q-1.32 2.22-7.12 8.25a.45.45 0 0 1-.58.07l-.25-.17a.57.56-52.4 0 1-.11-.85q1.52-1.7 1.57-2.87.7-14.38-5.08-26.94-1.67-3.63-3.8-7.64c-1.65-3.1-2.9-6.62-3.76-9.11a.39.39 0 0 0-.75.11q-.37 8.12 1.19 17.87" vector-effect="non-scaling-stroke"/><path stroke="#f2c36f" d="M271.72 567.76q-.14-6.99 1.7-10.56 1.48-2.9 10.26-12.52 6.13-6.72 11.87-18.3c2.44-4.92 4.69-13.14 6.77-18.08q4.58-10.89 12.7-16.29 5.94-3.95 14.82-4.77" vector-effect="non-scaling-stroke"/><path stroke="#e8b163" d="M331.94 619.49q1.79 1.99 1.68 3.83" vector-effect="non-scaling-stroke"/><path stroke="#848281" d="M391.73 589c-4.96.61-11.07 1.86-14.98 4.78a.98.98 0 0 0 .41 1.75c4.5.79 10.42.26 15.33-.35 4.92-.61 10.79-1.53 14.96-3.39a.98.98 0 0 0-.02-1.8c-4.51-1.88-10.74-1.6-15.7-.99" vector-effect="non-scaling-stroke"/><path stroke="#7c5929" d="m406.21 665.34-.94 2.78" vector-effect="non-scaling-stroke"/><path stroke="#72471d" d="M405.27 668.12q-1.04 3.21-.74 7.12a3.22 3.22 0 0 0 1.36 2.38c3.95 2.76 9.6 3.45 14.24 3.73a.54.54 0 0 0 .57-.5l.5-5.88" vector-effect="non-scaling-stroke"/><path stroke="#7c5929" d="M421.2 674.97q2.5-7.97 9.33-13.85a.54.54 0 0 1 .81.71q-3.65 5.51-4.55 13.49" vector-effect="non-scaling-stroke"/><path stroke="#72471d" d="M426.79 675.32q-.37 2.34.16 5.47a1.58 1.57-3.4 0 0 1.48 1.31q14.79.69 26.04-7.28c4.85-3.43 9.58-9.1 13.49-13.94a.33.33 0 0 1 .59.21v3.84a.69.68 86.3 0 0 .77.68c3.43-.45 7.04-1.04 10.94-1.08q9.36-.1 29.91-.05a.41.41 0 0 0 .37-.59q-3.17-6.46-.66-13.3c4.85-13.23 17.99-21.65 31.9-22.82q11.54-.98 23.68.49a.14.14 0 0 0 .13-.21q-10.17-15.14-11.65-33.35a.3.3 0 0 0-.56-.13c-5.17 8.53-6.79 18.29-6.94 28.44a1.16 1.16 0 0 1-1.08 1.14c-15.27 1.1-27.47-5.61-37.33-16.59a.29.29 0 0 0-.46.05q-6.14 10.06-17.29 14.07c-5.01 1.8-10.3 2.05-16.34 2.97-5.19.79-9.06 1.98-13.64 3.29a2.73 2.71-72.9 0 0-.99.53q-1.78 1.52-5.19 5.15-3.63 3.86-9.93 7c-1.93.96-3.99 1.28-5.81 2.24a3.94 3.61-80.5 0 0-1.05.82q-7.23 8.08-14.91 11.22-4.4 1.8-12.35 3.8a1.27 1.26-83.7 0 0-.83.67l-3.03 5.97" vector-effect="non-scaling-stroke"/><path stroke="#e49c43" d="M426.79 675.32q14.07.57 25.68-6.95 2.63-1.7 6.57-5.28 3.03-2.77 6.69-5.32a5.63 5.62 25.3 0 1 2.77-.99c6.23-.53 13.44-.52 18.94-1.88q15.35-3.79 21.77-19.35a1.55 1.55 0 0 0 .06-.94q-.68-2.7-2.1-7.15-.56-1.75-2.42-2.41a2.05 2.01-37.5 0 0-.91-.11c-3.89.39-7.65 1.65-10.6 2.74q-1.99.73-6.7 1.74c-12.6 2.69-22.03 4.09-31.74 12.1q-3.73 3.07-13.31 8.44c-4.03 2.25-6.78 4.33-10.73 6.99a2.16 1.96-68.3 0 1-.53.26l-24.02 8.13M421.2 674.97q-4.62-.15-9.06-1.15-5.5-1.24-6.87-5.7" vector-effect="non-scaling-stroke"/><path stroke="#7c5929" d="M321.43 630.78c-6.19 7.76-8.15 19.14-3.75 28.29" vector-effect="non-scaling-stroke"/><path stroke="#72471d" d="M317.68 659.07q7.12 13.28 22.24 14.61a1.69 1.69 0 0 0 1.83-1.54l.41-5.04" vector-effect="non-scaling-stroke"/><path stroke="#7c5929" d="M342.16 667.1q-.3-6.22-3.15-11.72a.35.35 0 0 1 .54-.42q6.41 5.52 8.45 14.1" vector-effect="non-scaling-stroke"/><path stroke="#72471d" d="m348 669.06.17 4.06a.74.74 0 0 0 .6.7q9.66 2.01 17.88-3.25a1.3 1.29-8.9 0 0 .55-.75q.96-3.73-.19-8.15" vector-effect="non-scaling-stroke"/><path stroke="#7c5929" d="M367.01 661.67q-.98-5.21-4.18-10.19" vector-effect="non-scaling-stroke"/><path stroke="#72471d" d="M362.83 651.48q-.73-.98-.7-1.07a.94.93-60.6 0 1 1.45-.41q9.19 7.16 10.24 16.4a.47.47 0 0 0 .69.36q6.84-3.57 7.51-11.16a.7.68 23.8 0 0-.24-.6l-6.44-5.64a1.07 1.02-21.7 0 0-.64-.26c-9.57-.47-15.08-6.46-20.66-13.4a3.07 3.05-14.2 0 0-1.86-1.1c-8.76-1.57-18.27-2.94-26.27-7.47a.81.79 42.4 0 0-.85.03q-2.09 1.44-3.63 3.62" vector-effect="non-scaling-stroke"/><path stroke="#e49c43" d="M362.83 651.48c-1.94-1.31-3.77-2.6-5.36-4.29q-4.38-4.66-8.17-6.15-11.28-4.42-26.58-8.36a.74.74 0 0 1-.55-.87q.19-.9-.74-1.03M367.01 661.67l-4.01 4.35a3.11 3.06 12.2 0 1-1.39.88q-6.75 2.12-13.61 2.16M342.16 667.1q-12.17 1.86-20.04-6.71-2.13-2.32-4.44-1.32" vector-effect="non-scaling-stroke"/><path stroke="#72471d" d="M529.82 658.83q-1.92 3.43-1.34 8.74a.51.5 74.7 0 0 .7.41c7.6-3.35 13.58-6.54 21.42-11.09q11.97-6.97 25.44-10.4a.68.68 0 0 0 .47-.88q-.16-.44-1.2-1.24a.66.66 0 0 1 .07-1.1l6.76-3.9a.64.64 0 0 0-.21-1.19l-12.63-2.25" vector-effect="non-scaling-stroke"/><path stroke="#7c5929" d="M569.3 635.93q-13.65-2.67-28.03-1.1-14.55 1.59-21.86 12.49c-4.49 6.69-5.97 13.79 1.83 18.6a.35.35 0 0 0 .53-.26c.78-7.82 7.1-15.41 14.47-18.29a.39.39 0 0 1 .42.63q-4.15 4.31-6.84 10.83" vector-effect="non-scaling-stroke"/><path stroke="#e49c43" d="M569.3 635.93q-1.7-.19-2.32 1.15a.73.73 0 0 1-.85.39q-.92-.26-1.67.15a1.37 1.36 87.5 0 0-.63.69q-1.19 2.84-4.3 4.47-9.88 5.17-18.4 11.12-2.64 1.84-11.31 4.93" vector-effect="non-scaling-stroke"/><path stroke="#7c5929" d="m391.26 642.91-7.8 4.49a.32.32 0 0 0-.01.54q4.52 2.99 11.61 3.98 17.37 2.42 31.75-7.63a.29.28-62.2 0 0-.16-.52l-4.48.02" vector-effect="non-scaling-stroke"/><path stroke="#72471d" d="M422.17 643.79q-11.61-1.96-22.49-6.43a1.29 1.29 0 0 0-1.25.16l-7.17 5.39" vector-effect="non-scaling-stroke"/><path stroke="#e49c43" d="M422.17 643.79q-5 1.79-6.73 1.42-10.49-2.22-21.7-.84-2.18.27-2.48-1.46" vector-effect="non-scaling-stroke"/><path stroke="#72471d" d="M405.38 658.81h-10.44a.33.33 0 0 0-.31.21q-3 7.79 3.28 13.63a.66.66 0 0 0 1.1-.4q.96-7.24 6.62-12.84a.35.35 0 0 0-.25-.6" vector-effect="non-scaling-stroke"/><path stroke="#848281" d="M416.861 411.433a4.19 3.95-175.8 0 0 3.89 4.246 4.19 3.95-175.8 0 0 4.468-3.632 4.19 3.95-175.8 0 0-3.89-4.246 4.19 3.95-175.8 0 0-4.468 3.632" vector-effect="non-scaling-stroke"/><path stroke="#e49c43" d="M464.34 524.48a.4.39-8.3 0 0 .46-.61q-3.77-4.88-9.46-7.45c-13.26-6.02-25.95-4.89-31.48 10.08a.7.7 0 0 0 1 .86q8.17-4.48 18.61-5.92c7.36-1.01 14.05.53 20.87 3.04M331.1 539.8q15.79-12.22 35.3-5.13a.41.41 0 0 0 .51-.55c-3.13-7.15-10.02-11.01-17.9-9.85-5.37.79-10.01 3.65-13.8 7.25q-3.04 2.9-5.06 7.53a.63.62 83.1 0 0 .95.75" vector-effect="non-scaling-stroke"/><path stroke="#7c5929" d="M449.02 557.55q-10.42.91-20.9-4.4a.49.49 0 0 0-.66.67c4.44 8.22 12.84 13.19 22.31 12.36 9.48-.83 16.88-7.17 19.84-16.04a.49.49 0 0 0-.76-.54q-9.41 7.05-19.83 7.95" vector-effect="non-scaling-stroke"/><path stroke="#f2c36f" d="M365.37 586.46q1 .53 1.83.61a.91.91 0 0 0 .81-.35c5.48-7.14 10.29-12.51 9.08-21.48q-.51-3.8-1.38-6.95-.15-.56-.66-.64-.47-.08-.92.28" vector-effect="non-scaling-stroke"/><path stroke="#7c5929" d="M374.13 557.93q-1.25-7.26-1.65 3.81-.09 2.65-3.21 10.3-.63 1.54-3.96 6.68c-3.93 6.06-6.01 11.64-7.04 18.97a.31.31 0 0 0 .57.2l6.53-11.43" vector-effect="non-scaling-stroke"/><path stroke="#7f6e49" d="M374.13 557.93q1.34 10.13-2.77 18.44-2.05 4.13-5.99 10.09" vector-effect="non-scaling-stroke"/><path stroke="#7c5929" d="M351.62 567.32c-6.54 1-12.73-.46-18.99-2.88a.41.41 0 0 0-.51.58c4.21 7.43 12.19 11.75 20.75 10.44s14.88-7.82 16.67-16.17a.41.41 0 0 0-.66-.41c-5.25 4.19-10.71 7.43-17.26 8.44" vector-effect="non-scaling-stroke"/></g><path fill="#090403" d="M475.06 360.46a.96.95-57.2 0 0-.99.22q-7.54 7.23-17.55 8.04c-11.62.95-22.93-4.76-25.78-16.68a2.73 2.71-86.8 0 0-1.71-1.93q-14.87-5.5-15.33-21.84-.17-6.29 4.22-12.65 4.72-6.83 15.5-9.69a.78.77 1.4 0 0 .53-.5q4.61-13.62 17.19-17.93 18.33-6.28 32.31 7.17a.74.73-31.3 0 0 .73.17c7.04-2.32 14.28-.7 19.94 4.1q10.59 8.97 6.62 23.59a1.42 1.4-54.6 0 0 .18 1.13c6.96 10.78 4.75 24.82-5.58 32.36q-13.91 10.17-30.28 4.44m-1.29-6.64c11.21 5.07 27.35 2.59 33.36-9.6q4.98-10.1-2.21-20.14a.94.93 36.6 0 1-.13-.84q4.02-12.01-4.1-19.78c-3.91-3.75-9.73-5.34-15.07-4.72-1.22.15-2.51.68-3.7.72a1.5 1.5 0 0 1-1.03-.34q-1.46-1.2-2.88-2.39-6.57-5.49-16.12-5.3-17.99.36-24.2 17.4a1.18 1.16-85 0 1-.89.76c-20.54 3.75-23.26 30.39-2.9 37a1.61 1.59.8 0 1 1.04 1.06c5.53 18.05 26.22 19.28 37.68 6.42a1 .98-56.8 0 1 1.15-.25"/><path fill="#090403" d="M460.2 318.38a.29.28 20.1 0 0-.22-.47h-16.44a.85.85 0 0 1-.85-.85v-4.04a.78.77 0 0 1 .78-.77h25.57a1.1 1.1 0 0 1 1.03.71c.73 1.99.58 3.54-1.07 5.4q-9.28 10.49-16.1 18.17a.2.2 0 0 0 .15.33h18.4a.91.91 0 0 1 .91.91v4.16a.85.85 0 0 1-.85.85h-27.98a.96.96 0 0 1-.96-.9c-.15-2.11.17-3.1 1.64-4.81q11.08-12.87 15.99-18.69M483.17 331.1h8.16a.77.77 0 0 1 .77.77v2.27a1.01 1 0 0 1-1.01 1h-14.83a.87.85 77.6 0 1-.78-.51q-.87-1.97.57-3.68.85-1.01 7.05-7.77a.54.54 0 0 0-.4-.91h-6.43a1.32 1.32 0 0 1-1.32-1.32v-1.75a.95.94-90 0 1 .94-.95h13.81a.77.61 51.6 0 1 .3.07q1.24.56 1.11 2.14c-.11 1.46-4.65 5.97-8.23 10a.39.38 20.8 0 0 .29.64M448.655 383.228a14.69 13.92-5.4 0 1-13.315 15.24 14.69 13.92-5.4 0 1-15.935-12.476 14.69 13.92-5.4 0 1 13.315-15.24 14.69 13.92-5.4 0 1 15.935 12.476m-5.56-.49a9.17 8.62-11.2 0 0-10.67-6.674 9.17 8.62-11.2 0 0-7.32 10.237 9.17 8.62-11.2 0 0 10.67 6.675 9.17 8.62-11.2 0 0 7.32-10.237"/><ellipse rx="9.17" ry="8.62" transform="rotate(-11.2 2177.87 -2021.387)"/><path fill="#090403" d="M387.46 661.95q.42-2.09 1.17-4.26.19-.57-.45-.88a.71.71 0 0 0-1.02.65q.02 2.2-.3 4.5c-2.01 6.58-7.32 10.46-13.56 12.68a5.69 5.65-72.7 0 0-1.57.83q-12.25 8.98-26.97 4.29a2.77 2.75 45.2 0 0-1.64-.01q-6.76 2.06-15.88-2.33c-22.63-10.91-24.55-38.03-7.06-54.54a.35.34-36.8 0 0 .07-.42l-.96-1.65a.43.43 0 0 0-.7-.07q-2.55 3.02-4.37 4.95-14.04 14.92-34.52 11.5a.83.82 19.1 0 1-.59-1.21q8.16-14.88.3-30.13c-3.84-7.47-7.89-14.56-9.98-22.07a.3.3 0 0 0-.59.03l-.97 5.42a.54.54 0 0 1-.99.19c-8.3-13.63-9.61-31.94 1.82-43.99 9.33-9.83 17.32-20.58 21.19-33.8 4.9-16.78 11.44-30.2 30.61-33.09q6.64-1 14.03-1.38a1.35 1.33-67.9 0 0 .88-.38q.74-.73 3.67-3.95c17.02-18.66 41.44-28.99 66.44-30.06q9.03-.39 16.4.11a2.84 2.81-57.1 0 0 1.51-.33q24.67-13.53 52.22-24.88 12.24-5.04 25.77-9.26 39.68-12.38 80.33-9.66c67.73 4.53 131.63 44.87 156.07 109.87q14.41 38.32 6.94 78.52a6.6 6.45-46.5 0 0 .04 2.58q.36 1.68 1.46 5.53 5.01 17.6 2.08 36.82c-5.32 34.8-34.57 62.39-66.46 73.82q-5.92 2.12-11.03 2.92a.61.61 0 0 1-.61-.94l2.66-4.05a.44.43 5.5 0 0-.53-.64c-36.23 15-78.68 15.32-116.29 4.98-20.49-5.64-39.96-15.27-54.54-30.72a.45.45 0 0 1 .2-.74l14.49-4.08a1.07 1.07 0 0 0-.33-2.1l-48.26 1.96a2.53 2.49-66.9 0 0-1.56.64c-1.12 1.02-2.46 2.98-3.76 4.2q-16.23 15.3-38.55 10.8a7.38 6.9-38.8 0 0-1.73-.13c-7.6.38-14-.38-20.19-4.86q-3.46-2.51-3.72-2.63c-7.59-3.45-11.62-9.96-10.67-18.55m51.23-220.45-5.1 2.05a.46.46 0 0 0 .06.88c12.91 3.25 25.31 7.38 35.23 13.75q4.81 3.1 7.27 4.22a1.57 1.55-39.5 0 0 1.08.1q24.98-6.44 41.56 13.03 1.45 1.71 6.91 9.24 4.77 6.58 11.08 12.74c5.28 5.16 12.84 9.73 18.47 13.74 7.5 5.34 13.99 11.98 16.99 20.77a.36.36 0 0 0 .62.11q16-20.09 40.84-25.97 3.56-.84 8.53-1.74a9 9 0 0 0 2.95-1.08q12.31-7.2 27.81-7.18.17.33 1.46.21.35.47-.03.85a.31.29-73.2 0 1-.14.08q-9.2 1.7-17.47 5.78a.22.22 0 0 0 .09.42q17.1.65 32.46 8.11 3.14 1.14 5.63 3.24-10.13-2.54-20.12-4c-27-3.92-56.5 2.44-74.81 24.21q-2.73 3.25-5.64 7.14a2.22 2.15-26.2 0 0-.43 1.2q-.3 7.3-2.03 14.38-3.51 11.18-9.74 21.19-.36.58-.51 1.22-.89 1.44-.88 1.94.25 9.84.3 10.62 1.22 18.86 12.84 33.84 2.68 3.46 4.77 4.51 2.58 1.3 10.05 4.35a3.87 3.85-40.4 0 0 2.3.18c12.53-2.87 23.06-3.35 36.94-1.98 13.66 1.35 23.78 2.72 37.47 2.6q31.88-.28 52.94-23.54 3.24-3.58 4.47-6.28.31-.46.75-.66a.32.31 83.3 0 1 .44.35q-.53 2.6-1.7 5.04c-6.05 12.61-16.77 21.56-29.41 27.23-13.4 5.2-26.54 5.41-41.48 4.63-16.04-.83-38.66-6.2-57.87-.83a.33.33 0 0 0 .05.65q9.34 1.14 17.05 6.28a.16.16 0 0 1-.1.3q-27.63-1.67-51.86 11.38-19.79 10.66-26.21 13.55-4.37 1.97-14.86 4.67l-3.15.64a.24.24 0 0 0-.1.43c16.6 12.49 35.96 19.76 56.29 23.92 28.72 5.88 57.78 4.88 85.81-2.51q9.6-2.53 22.64-8.55 3.45-1.59 7.46-4.75.26-.21.38-.2a.54.49-78.5 0 1 .42.71q-1.78 5.33-3.36 9.04a.34.34 0 0 0 .46.44c24.3-11.47 46-31.79 53.95-57.45q6.35-20.52.94-43.11l-1.35-6.17a6.72 6.51 42.2 0 1-.13-2.01l.94-10.38q4.33-44.78-15.57-83.65c-18.92-36.98-53.22-64.46-91.94-78.27q-42.63-15.21-88.16-9.69-25.92 3.14-51.18 11.87-27.93 9.66-53.37 22.17m-109.2 48.95q-.18-1.39.35-3.21 1.11-1.52 1.72-3.64a.34.34 0 0 0-.37-.43q-8.75 1.01-14.92 3.15c-14.07 4.89-16.57 17.08-21.39 30.83q-4.25 12.15-12.52 22.47-1.6 1.99-8.2 9.26-9.59 10.55-6.91 25.54a.26.25 55.6 0 0 .47.09l4-6.75q.18 13.81 9.14 26.27 5.36 10.09 7.97 18.65 2.79 9.18-.52 18.17a.52.52 0 0 0 .58.69q16.76-2.93 25.51-17.58a3.18 3.06-25.5 0 0 .41-1.09c.38-2.3.78-6.52 1.74-9.41 2.72-8.16 4.42-15.2 2.52-24.77q-3.96-19.94-3.96-19.96c-3.11-16.34-1.94-33.19 6.78-48.2q1.17-2.97 2.9-3.73-6.54 18.97-4.94 38.3c.82 9.94 3.73 20.8 5.75 31.1 1.38 7.03 1.79 13.69-.31 20.87q-.64 2.17-2.18 8.57c-2.14 8.85 2.82 14.29 10.51 17.68q7.46 2.89 15.79 3.96a.35.34 85.5 0 0 .37-.44l-1.8-5.89q-.65-1.64-.65-2.51a.26.26 0 0 1 .43-.19c3.99 3.72 6.73 7 10.49 12.23 6.38 8.89 15.2 15.73 26.34 8.85q4.22-2.6 10.01-7.29a.92.91-25.4 0 0 .32-.89l-1.57-8.07a.8.8 0 0 0-.62-.63c-9.92-1.96-19.92-7.84-24.49-17.05-4.78-9.62 1.63-15.87 10.05-19.08q16.2-6.16 31.99-2.42c6.2 1.46 11.39 5.68 10.56 12.62-1.34 11.22-11.52 21.92-21.12 25.47a.83.82 74.5 0 0-.53.94l1.27 6.55a1.72 1.72 0 0 0 1.1 1.28c10.15 3.72 16.51 6.05 25.44 6.33 17.88.55 27.24-13.04 37.69-25.43a.46.46 0 0 1 .81.35l-.35 3.26-1.77 5.19a.32.32 0 0 0 .4.4q8.64-2.72 16.09-3.86c11.01-1.68 18.73-5.89 23.08-16.18a1.2 1.19 43.5 0 0-.03-1.01q-7.41-14.9-7.76-31.51-.12-5.78.04-16.55.24-15.17-4.54-31.1-3.06-10.19-10.64-19.22l-4.01-6.32a.14.14 0 0 1 .2-.19l2.45 1.66c12.08 8.91 19.87 23.18 22 38.53 1.86 13.45 1.6 27.66 1.95 38.09q.23 6.86 3.11 15.45c5.27 15.65 17.51 26.45 34.02 29.24a.53.53 0 0 0 .61-.47q1.94-19.84 10.59-32.71 5.58-8.32 7.08-11.2 3.9-5.43 4.61-9.73 6.66-13.05 3.57-26.8-2.2-9.86-9.77-16.07c-7.48-6.14-16.05-11.36-21.5-16.06q-7.43-6.4-10.16-10.12-6.23-8.48-11.04-14.7c-6.22-8.04-14.47-12.24-24.57-12.48q-6.81-.16-8.17.11-6.43 1.27-12.99 2.14.12-1.31 1.57-2.32l2.13-1.15a.64.64 0 0 0-.02-1.13q-15.24-7.69-31.15-11.98c-27.15-7.33-56.26-4.41-80.44 10.36-11.72 7.15-21.4 16.4-30.6 26.87M391.73 589c-4.96.61-11.07 1.86-14.98 4.78a.98.98 0 0 0 .41 1.75c4.5.79 10.42.26 15.33-.35 4.92-.61 10.79-1.53 14.96-3.39a.98.98 0 0 0-.02-1.8c-4.51-1.88-10.74-1.6-15.7-.99m14.48 76.34-.94 2.78q-1.04 3.21-.74 7.12a3.22 3.22 0 0 0 1.36 2.38c3.95 2.76 9.6 3.45 14.24 3.73a.54.54 0 0 0 .57-.5l.5-5.88q2.5-7.97 9.33-13.85a.54.54 0 0 1 .81.71q-3.65 5.51-4.55 13.49-.37 2.34.16 5.47a1.58 1.57-3.4 0 0 1.48 1.31q14.79.69 26.04-7.28c4.85-3.43 9.58-9.1 13.49-13.94a.33.33 0 0 1 .59.21v3.84a.69.68 86.3 0 0 .77.68c3.43-.45 7.04-1.04 10.94-1.08q9.36-.1 29.91-.05a.41.41 0 0 0 .37-.59q-3.17-6.46-.66-13.3c4.85-13.23 17.99-21.65 31.9-22.82q11.54-.98 23.68.49a.14.14 0 0 0 .13-.21q-10.17-15.14-11.65-33.35a.3.3 0 0 0-.56-.13c-5.17 8.53-6.79 18.29-6.94 28.44a1.16 1.16 0 0 1-1.08 1.14c-15.27 1.1-27.47-5.61-37.33-16.59a.29.29 0 0 0-.46.05q-6.14 10.06-17.29 14.07c-5.01 1.8-10.3 2.05-16.34 2.97-5.19.79-9.06 1.98-13.64 3.29a2.73 2.71-72.9 0 0-.99.53q-1.78 1.52-5.19 5.15-3.63 3.86-9.93 7c-1.93.96-3.99 1.28-5.81 2.24a3.94 3.61-80.5 0 0-1.05.82q-7.23 8.08-14.91 11.22-4.4 1.8-12.35 3.8a1.27 1.26-83.7 0 0-.83.67zm-84.78-34.56c-6.19 7.76-8.15 19.14-3.75 28.29q7.12 13.28 22.24 14.61a1.69 1.69 0 0 0 1.83-1.54l.41-5.04q-.3-6.22-3.15-11.72a.35.35 0 0 1 .54-.42q6.41 5.52 8.45 14.1l.17 4.06a.74.74 0 0 0 .6.7q9.66 2.01 17.88-3.25a1.3 1.29-8.9 0 0 .55-.75q.96-3.73-.19-8.15-.98-5.21-4.18-10.19-.73-.98-.7-1.07a.94.93-60.6 0 1 1.45-.41q9.19 7.16 10.24 16.4a.47.47 0 0 0 .69.36q6.84-3.57 7.51-11.16a.7.68 23.8 0 0-.24-.6l-6.44-5.64a1.07 1.02-21.7 0 0-.64-.26c-9.57-.47-15.08-6.46-20.66-13.4a3.07 3.05-14.2 0 0-1.86-1.1c-8.76-1.57-18.27-2.94-26.27-7.47a.81.79 42.4 0 0-.85.03q-2.09 1.44-3.63 3.62m208.39 28.05q-1.92 3.43-1.34 8.74a.51.5 74.7 0 0 .7.41c7.6-3.35 13.58-6.54 21.42-11.09q11.97-6.97 25.44-10.4a.68.68 0 0 0 .47-.88q-.16-.44-1.2-1.24a.66.66 0 0 1 .07-1.1l6.76-3.9a.64.64 0 0 0-.21-1.19l-12.63-2.25q-13.65-2.67-28.03-1.1-14.55 1.59-21.86 12.49c-4.49 6.69-5.97 13.79 1.83 18.6a.35.35 0 0 0 .53-.26c.78-7.82 7.1-15.41 14.47-18.29a.39.39 0 0 1 .42.63q-4.15 4.31-6.84 10.83m-138.56-15.92-7.8 4.49a.32.32 0 0 0-.01.54q4.52 2.99 11.61 3.98 17.37 2.42 31.75-7.63a.29.28-62.2 0 0-.16-.52l-4.48.02q-11.61-1.96-22.49-6.43a1.29 1.29 0 0 0-1.25.16zm14.12 15.9h-10.44a.33.33 0 0 0-.31.21q-3 7.79 3.28 13.63a.66.66 0 0 0 1.1-.4q.96-7.24 6.62-12.84a.35.35 0 0 0-.25-.6M429.71 411.73a8.7 8.7 0 0 1-8.7 8.7 8.7 8.7 0 0 1-8.7-8.7 8.7 8.7 0 0 1 8.7-8.7 8.7 8.7 0 0 1 8.7 8.7m-12.849-.297a4.19 3.95-175.8 0 0 3.89 4.246 4.19 3.95-175.8 0 0 4.468-3.632 4.19 3.95-175.8 0 0-3.89-4.246 4.19 3.95-175.8 0 0-4.468 3.632"/><path fill="#f5d78f" d="M738.91 579.07q-1.55-2.12-1.32-5.32.67-9.63-.72-18.87c-1.07-7.1-1.58-14.32-4.16-21.13q-.35-.93-4.73-13.83c-3.81-11.2-9.62-19.71-15.9-30.68-2.56-4.46-6.07-9.46-8.94-12.62q-3.81-4.19-16-16.19c-11.62-11.45-24.43-18.76-38.03-26.27-12.19-6.74-25.63-10.86-40.16-14.48q-21.78-5.42-44.98-5.28c-14.3.08-28.87 1.21-42.86 3.97q-6.41 1.27-29.46 7.1-5.28 1.33-11.82 3.65-11.06 3.92-11.67 4.14-11.1 4.13-22.98 8.39-2.52.31-5.83.66-.48.06-.64-.14-.18-.23-.02-.67 25.44-12.51 53.37-22.17 25.26-8.73 51.18-11.87 45.53-5.52 88.16 9.69c38.72 13.81 73.02 41.29 91.94 78.27q19.9 38.87 15.57 83.65"/><ellipse rx="4.19" ry="3.95" transform="rotate(184.2 218.069 198.15)"/><path fill="#eeae4e" d="m738.91 579.07-.94 10.38a6.72 6.51 42.2 0 0 .13 2.01l1.35 6.17q-1.59 9.38-2.83 18.58-.54 4.06-1.37 6.21c-3.06 8.01-7.02 15.62-11.86 23.74q-4.69 7.87-8.03 10.71c-7.08 6.02-12.51 11.32-19.15 14.58-10.26 5.03-18.88 9.06-29.87 12.13q-12.96 3.62-15.11 4.15-12.27 2.98-28.98 4.58-25.66 2.48-53.01-.52-5.5-.6-14.55-2.59-7.42-1.63-14.55-2.82-6.74-1.13-17.69-6.27 13.22-1.62 22.17-5.5c4.2-1.83 10.9-6.15 15.61-8.33q12.76-5.9 27.61-9.8 8.89-2.34 18.54-2.45 12.45-.14 18.65.82a.6.6 0 0 0 .42-1.1l-10.73-7.03a.66.66 0 0 1 .1-1.16q.99-.43 2.37-.42c9.77.06 17.64.47 26.31 1.51q7.37.87 16.76.32 16.63-.99 31.82-6.38a1.51 1.47 6.1 0 0 .74-.58q.61-.92.17-1.62c12.64-5.67 23.36-14.62 29.41-27.23q1.17-2.44 1.7-5.04a.32.31 83.3 0 0-.44-.35q-.44.2-.75.66-4 .58-7.75 3.43a5.27 5.2-75.7 0 1-1.03.62q-9.94 4.57-19.92 8.89c-2.81 1.21-6.56 2.28-9.55 2.82q-18.29 3.34-36.85 3.69l-17.62.33q-19.79.06-20.96-.06-20.67-2.01-33.77-16.61-4.17-4.65-6.04-8.7-4.32-9.32-6.15-19.45a1.24 1.17-72.4 0 0-.3-.62q-.53-.57-1.26-.58.15-.64.51-1.22 6.23-10.01 9.74-21.19.61.31 1 .22.38-.09.59-.77c3.55-11.85 12.72-19.55 22.25-26.71 11.88-8.92 25.17-12.41 40.21-15.03q7.7-1.34 17.24-1.12 11.35.27 21.3 1.73a.51.51 0 0 0 .58-.47q.02-.4-.14-.78-2.49-2.1-5.63-3.24c-.46-3.03-1.55-4.47-4.31-6.25q-3.74-2.4-6.17-6.18-.75-1.16-4.43-2.81-1.29.12-1.46-.21-12.85-2.8-25.72-.86-4.43.67-10.67 2.59c-10.11 3.09-20.27 5.95-29.21 11q-3.63 2.06-8.93 4.56-1.61.76-3.73.22a1.73 1.65 74.5 0 1-.84-.5q-2.7-2.83-6.84-7.44c-4.24-4.72-12.42-9.43-17.9-17.16q-8.46-11.92-19.3-22.42-4.07-3.95-10.48-6.52-9.56-3.83-18.44-4.78c-6.52-.69-12.49-.56-18.44-2.66q-10.61-3.75-21.05-7.12-4.94-1.6-16.26-3.42 11.88-4.26 22.98-8.39.61-.22 11.67-4.14 6.54-2.32 11.82-3.65 23.05-5.83 29.46-7.1c13.99-2.76 28.56-3.89 42.86-3.97q23.2-.14 44.98 5.28c14.53 3.62 27.97 7.74 40.16 14.48 13.6 7.51 26.41 14.82 38.03 26.27q12.19 12 16 16.19c2.87 3.16 6.38 8.16 8.94 12.62 6.28 10.97 12.09 19.48 15.9 30.68q4.38 12.9 4.73 13.83c2.58 6.81 3.09 14.03 4.16 21.13q1.39 9.24.72 18.87-.23 3.2 1.32 5.32"/><path fill="#da8a37" d="M438.69 441.5q-.16.44.02.67.16.2.64.14 3.31-.35 5.83-.66 11.32 1.82 16.26 3.42 10.44 3.37 21.05 7.12c5.95 2.1 11.92 1.97 18.44 2.66q8.88.95 18.44 4.78 6.41 2.57 10.48 6.52 10.84 10.5 19.3 22.42c5.48 7.73 13.66 12.44 17.9 17.16q4.14 4.61 6.84 7.44a1.73 1.65 74.5 0 0 .84.5q2.12.54 3.73-.22 5.3-2.5 8.93-4.56c8.94-5.05 19.1-7.91 29.21-11q6.24-1.92 10.67-2.59 12.87-1.94 25.72.86-15.5-.02-27.81 7.18a9 9 0 0 1-2.95 1.08q-4.97.9-8.53 1.74-24.84 5.88-40.84 25.97a.36.36 0 0 1-.62-.11c-3-8.79-9.49-15.43-16.99-20.77-5.63-4.01-13.19-8.58-18.47-13.74q-6.31-6.16-11.08-12.74-5.46-7.53-6.91-9.24-16.58-19.47-41.56-13.03a1.57 1.55-39.5 0 1-1.08-.1q-2.46-1.12-7.27-4.22c-9.92-6.37-22.32-10.5-35.23-13.75a.46.46 0 0 1-.06-.88z"/><path fill="#f5d78f" d="M469.57 467.48q-.33-.24-.46-.8a.97.95 3.8 0 0-.59-.66q-15.59-5.81-26.52-7.91-11.98-2.31-26.25-3.09-15.73-.87-30.99 4.3-13.8 4.67-20.95 8.26-11.66 5.86-26.12 17.85-2.68 2.22-5.72 4.3a4.1 3.67-83.1 0 0-.73.64q-2.1 2.28-1.75.08c9.2-10.47 18.88-19.72 30.6-26.87 24.18-14.77 53.29-17.69 80.44-10.36q15.91 4.29 31.15 11.98a.64.64 0 0 1 .02 1.13z"/><path fill="#eeae4e" d="M469.57 467.48q-1.45 1.01-1.57 2.32l-1.53.82a.85.85 0 0 0 .33 1.59q3.06.28 3.95.08c6.06-1.33 14.67-2.33 21.3-.33q5.07 1.54 9.4 3.33c5.62 2.32 9.26 6.37 11.93 11.67 1.03 2.05 2.6 4.25 4.22 5.92q4.21 4.34 9.42 10.62 4.09 4.93 6.68 6.78c10.67 7.65 22.39 13.21 28 26.13q2.03 4.7 1.92 13.39-.09 6.81-.99 13.98-.71 4.3-4.61 9.73 1.86-10.24-1.07-17.93a.42.42 0 0 0-.78 0c-1.93 5.18-3.61 10.71-6.21 15.44-2.52 4.57-5.83 9.56-7.49 13.97q-3.73 9.87-5.08 21.41a1.05 1.04 16.1 0 1-1.49.82c-12.01-5.72-19.76-16.29-23.56-28.72q-1.59-5.21-2.37-14.64-.86-10.51-1.33-14.82-.72-6.69-4.17-21.9-.95-4.18-3.83-9.41-6.14-11.13-15.29-18.54-3.47-2.82-6.69-2.61l-2.45-1.66a.14.14 0 0 0-.2.19l4.01 6.32q7.06 16.67 8.83 32.59c.62 5.53 1.23 10.9 1.02 16.01-.44 10.69-1.54 22.68 2.19 32.51q2.31 6.09 2.48 8.43c.54 7.43-2.96 14.12-9.43 17.79q-3.8 2.16-6.46 2.7-8.41 1.69-13.5 3.81l.35-3.26a.46.46 0 0 0-.81-.35c-10.45 12.39-19.81 25.98-37.69 25.43-8.93-.28-15.29-2.61-25.44-6.33a1.72 1.72 0 0 1-1.1-1.28l-1.27-6.55a.83.82 74.5 0 1 .53-.94c9.6-3.55 19.78-14.25 21.12-25.47.83-6.94-4.36-11.16-10.56-12.62q-15.79-3.74-31.99 2.42c-8.42 3.21-14.83 9.46-10.05 19.08 4.57 9.21 14.57 15.09 24.49 17.05a.8.8 0 0 1 .62.63l1.57 8.07a.92.91-25.4 0 1-.32.89q-5.79 4.69-10.01 7.29c-11.14 6.88-19.96.04-26.34-8.85-3.76-5.23-6.5-8.51-10.49-12.23a.26.26 0 0 0-.43.19q0 .87.65 2.51-13.07 0-19.55-10.13a.31.31 0 0 0-.56.26q1.42 4.5 4.07 8.41c-9.79-3.86-6.44-15.18-4.15-22.46q1.16-3.69 1.3-7.47.42-11.23-2.18-21.38-.31-1.21-2.29-10.49-4.35-20.33-.43-40.54c.68-3.51 2.2-6.53 2.02-10.23a.55.55 0 0 0-.7-.51q-.32.09-.72.39-1.73.76-2.9 3.73-3.55 2.1-5.37 5.5-2.84 5.31-5.04 12.86c-1.1 3.79-1.26 7.03-2.02 10.63q-.64 3.04-.89 8.03-.39 7.9.84 30.95.64 11.91-3.79 25.42c-1.28 3.89-3.42 6.94-6.07 11.39q-1.32 2.22-7.12 8.25a.45.45 0 0 1-.58.07l-.25-.17a.57.56-52.4 0 1-.11-.85q1.52-1.7 1.57-2.87.7-14.38-5.08-26.94-1.67-3.63-3.8-7.64c-1.65-3.1-2.9-6.62-3.76-9.11a.39.39 0 0 0-.75.11q-.37 8.12 1.19 17.87-8.96-12.46-9.14-26.27-.14-6.99 1.7-10.56 1.48-2.9 10.26-12.52 6.13-6.72 11.87-18.3c2.44-4.92 4.69-13.14 6.77-18.08q4.58-10.89 12.7-16.29 5.94-3.95 14.82-4.77-.53 1.82-.35 3.21-.35 2.2 1.75-.08a4.1 3.67-83.1 0 1 .73-.64q3.04-2.08 5.72-4.3 14.46-11.99 26.12-17.85 7.15-3.59 20.95-8.26 15.26-5.17 30.99-4.3 14.27.78 26.25 3.09 10.93 2.1 26.52 7.91a.97.95 3.8 0 1 .59.66q.13.56.46.8m-5.23 57a.4.39-8.3 0 0 .46-.61q-3.77-4.88-9.46-7.45c-13.26-6.02-25.95-4.89-31.48 10.08a.7.7 0 0 0 1 .86q8.17-4.48 18.61-5.92c7.36-1.01 14.05.53 20.87 3.04M331.1 539.8q15.79-12.22 35.3-5.13a.41.41 0 0 0 .51-.55c-3.13-7.15-10.02-11.01-17.9-9.85-5.37.79-10.01 3.65-13.8 7.25q-3.04 2.9-5.06 7.53a.63.62 83.1 0 0 .95.75m117.92 17.75q-10.42.91-20.9-4.4a.49.49 0 0 0-.66.67c4.44 8.22 12.84 13.19 22.31 12.36 9.48-.83 16.88-7.17 19.84-16.04a.49.49 0 0 0-.76-.54q-9.41 7.05-19.83 7.95m-83.65 28.91q1 .53 1.83.61a.91.91 0 0 0 .81-.35c5.48-7.14 10.29-12.51 9.08-21.48q-.51-3.8-1.38-6.95-.15-.56-.66-.64-.47-.08-.92.28-1.25-7.26-1.65 3.81-.09 2.65-3.21 10.3-.63 1.54-3.96 6.68c-3.93 6.06-6.01 11.64-7.04 18.97a.31.31 0 0 0 .57.2zm-13.75-19.14c-6.54 1-12.73-.46-18.99-2.88a.41.41 0 0 0-.51.58c4.21 7.43 12.19 11.75 20.75 10.44s14.88-7.82 16.67-16.17a.41.41 0 0 0-.66-.41c-5.25 4.19-10.71 7.43-17.26 8.44"/><path fill="#f5d78f" d="M562.63 563.78q.9-7.17.99-13.98.11-8.69-1.92-13.39c-5.61-12.92-17.33-18.48-28-26.13q-2.59-1.85-6.68-6.78-5.21-6.28-9.42-10.62c-1.62-1.67-3.19-3.87-4.22-5.92-2.67-5.3-6.31-9.35-11.93-11.67q-4.33-1.79-9.4-3.33c-6.63-2-15.24-1-21.3.33q-.89.2-3.95-.08a.85.85 0 0 1-.33-1.59l1.53-.82q6.56-.87 12.99-2.14 1.36-.27 8.17-.11c10.1.24 18.35 4.44 24.57 12.48q4.81 6.22 11.04 14.7 2.73 3.72 10.16 10.12c5.45 4.7 14.02 9.92 21.5 16.06q7.57 6.21 9.77 16.07 3.09 13.75-3.57 26.8M329.84 487.24q-8.88.82-14.82 4.77-8.12 5.4-12.7 16.29c-2.08 4.94-4.33 13.16-6.77 18.08q-5.74 11.58-11.87 18.3-8.78 9.62-10.26 12.52-1.84 3.57-1.7 10.56l-4 6.75a.26.25 55.6 0 1-.47-.09q-2.68-14.99 6.91-25.54 6.6-7.27 8.2-9.26 8.27-10.32 12.52-22.47c4.82-13.75 7.32-25.94 21.39-30.83q6.17-2.14 14.92-3.15a.34.34 0 0 1 .37.43q-.61 2.12-1.72 3.64"/><path fill="#da8a37" d="M669.36 511.61q-15.36-7.46-32.46-8.11a.22.22 0 0 1-.09-.42q8.27-4.08 17.47-5.78a.31.29-73.2 0 0 .14-.08q.38-.38.03-.85 3.68 1.65 4.43 2.81 2.43 3.78 6.17 6.18c2.76 1.78 3.85 3.22 4.31 6.25M558.02 573.51q-1.5 2.88-7.08 11.2-8.65 12.87-10.59 32.71a.53.53 0 0 1-.61.47c-16.51-2.79-28.75-13.59-34.02-29.24q-2.88-8.59-3.11-15.45c-.35-10.43-.09-24.64-1.95-38.09-2.13-15.35-9.92-29.62-22-38.53q3.22-.21 6.69 2.61 9.15 7.41 15.29 18.54 2.88 5.23 3.83 9.41 3.45 15.21 4.17 21.9.47 4.31 1.33 14.82.78 9.43 2.37 14.64c3.8 12.43 11.55 23 23.56 28.72a1.05 1.04 16.1 0 0 1.49-.82q1.35-11.54 5.08-21.41c1.66-4.41 4.97-9.4 7.49-13.97 2.6-4.73 4.28-10.26 6.21-15.44a.42.42 0 0 1 .78 0q2.93 7.69 1.07 17.93"/><path fill="#da8a37" d="M465.15 615.27q5.09-2.12 13.5-3.81 2.66-.54 6.46-2.7c6.47-3.67 9.97-10.36 9.43-17.79q-.17-2.34-2.48-8.43c-3.73-9.83-2.63-21.82-2.19-32.51.21-5.11-.4-10.48-1.02-16.01q-1.77-15.92-8.83-32.59 7.58 9.03 10.64 19.22 4.78 15.93 4.54 31.1-.16 10.77-.04 16.55.35 16.61 7.76 31.51a1.2 1.19 43.5 0 1 .03 1.01c-4.35 10.29-12.07 14.5-23.08 16.18q-7.45 1.14-16.09 3.86a.32.32 0 0 1-.4-.4z"/><path fill="#f5d78f" d="M331.94 619.49q1.79 1.99 1.68 3.83c-7.69-3.39-12.65-8.83-10.51-17.68q1.54-6.4 2.18-8.57c2.1-7.18 1.69-13.84.31-20.87-2.02-10.3-4.93-21.16-5.75-31.1q-1.6-19.33 4.94-38.3.4-.3.72-.39a.55.55 0 0 1 .7.51c.18 3.7-1.34 6.72-2.02 10.23q-3.92 20.21.43 40.54 1.98 9.28 2.29 10.49 2.6 10.15 2.18 21.38-.14 3.78-1.3 7.47c-2.29 7.28-5.64 18.6 4.15 22.46M674.99 514.85q.16.38.14.78a.51.51 0 0 1-.58.47q-9.95-1.46-21.3-1.73-9.54-.22-17.24 1.12c-15.04 2.62-28.33 6.11-40.21 15.03-9.53 7.16-18.7 14.86-22.25 26.71q-.21.68-.59.77-.39.09-1-.22 1.73-7.08 2.03-14.38a2.22 2.15-26.2 0 1 .43-1.2q2.91-3.89 5.64-7.14c18.31-21.77 47.81-28.13 74.81-24.21q9.99 1.46 20.12 4"/><path fill="#da8a37" d="M321.89 510.53c-8.72 15.01-9.89 31.86-6.78 48.2q0 .02 3.96 19.96c1.9 9.57.2 16.61-2.52 24.77-.96 2.89-1.36 7.11-1.74 9.41a3.18 3.06-25.5 0 1-.41 1.09q-8.75 14.65-25.51 17.58a.52.52 0 0 1-.58-.69q3.31-8.99.52-18.17-2.61-8.56-7.97-18.65-1.56-9.75-1.19-17.87a.39.39 0 0 1 .75-.11c.86 2.49 2.11 6.01 3.76 9.11q2.13 4.01 3.8 7.64 5.78 12.56 5.08 26.94-.05 1.17-1.57 2.87a.57.56-52.4 0 0 .11.85l.25.17a.45.45 0 0 0 .58-.07q5.8-6.03 7.12-8.25c2.65-4.45 4.79-7.5 6.07-11.39q4.43-13.51 3.79-25.42-1.23-23.05-.84-30.95.25-4.99.89-8.03c.76-3.6.92-6.84 2.02-10.63q2.2-7.55 5.04-12.86 1.82-3.4 5.37-5.5M464.34 524.48c-6.82-2.51-13.51-4.05-20.87-3.04q-10.44 1.44-18.61 5.92a.7.7 0 0 1-1-.86c5.53-14.97 18.22-16.1 31.48-10.08q5.69 2.57 9.46 7.45a.4.39-8.3 0 1-.46.61M331.1 539.8a.63.62 83.1 0 1-.95-.75q2.02-4.63 5.06-7.53c3.79-3.6 8.43-6.46 13.8-7.25 7.88-1.16 14.77 2.7 17.9 9.85a.41.41 0 0 1-.51.55q-19.51-7.09-35.3 5.13"/><path fill="#090403" d="M449.77 566.18c-9.47.83-17.87-4.14-22.31-12.36a.49.49 0 0 1 .66-.67q10.48 5.31 20.9 4.4 10.42-.9 19.83-7.95a.49.49 0 0 1 .76.54c-2.96 8.87-10.36 15.21-19.84 16.04M374.13 557.93q1.34 10.13-2.77 18.44-2.05 4.13-5.99 10.09l-6.53 11.43a.31.31 0 0 1-.57-.2c1.03-7.33 3.11-12.91 7.04-18.97q3.33-5.14 3.96-6.68 3.12-7.65 3.21-10.3.4-11.07 1.65-3.81"/><path fill="#f5d78f" d="M365.37 586.46q3.94-5.96 5.99-10.09 4.11-8.31 2.77-18.44.45-.36.92-.28.51.08.66.64.87 3.15 1.38 6.95c1.21 8.97-3.6 14.34-9.08 21.48a.91.91 0 0 1-.81.35q-.83-.08-1.83-.61"/><path fill="#090403" d="M352.87 575.46c-8.56 1.31-16.54-3.01-20.75-10.44a.41.41 0 0 1 .51-.58c6.26 2.42 12.45 3.88 18.99 2.88 6.55-1.01 12.01-4.25 17.26-8.44a.41.41 0 0 1 .66.41c-1.79 8.35-8.11 14.86-16.67 16.17"/><path fill="#da8a37" d="M561.71 580.19q.73.01 1.26.58a1.24 1.17-72.4 0 1 .3.62q1.83 10.13 6.15 19.45 1.87 4.05 6.04 8.7 13.1 14.6 33.77 16.61 1.17.12 20.96.06l17.62-.33q18.56-.35 36.85-3.69c2.99-.54 6.74-1.61 9.55-2.82q9.98-4.32 19.92-8.89a5.27 5.2-75.7 0 0 1.03-.62q3.75-2.85 7.75-3.43-1.23 2.7-4.47 6.28-21.06 23.26-52.94 23.54c-13.69.12-23.81-1.25-37.47-2.6-13.88-1.37-24.41-.89-36.94 1.98a3.87 3.85-40.4 0 1-2.3-.18q-7.47-3.05-10.05-4.35-2.09-1.05-4.77-4.51-11.62-14.98-12.84-33.84-.05-.78-.3-10.62-.01-.5.88-1.94"/><path fill="#da8a37" d="M426.79 675.32q14.07.57 25.68-6.95 2.63-1.7 6.57-5.28 3.03-2.77 6.69-5.32a5.63 5.62 25.3 0 1 2.77-.99c6.23-.53 13.44-.52 18.94-1.88q15.35-3.79 21.77-19.35a1.55 1.55 0 0 0 .06-.94q-.68-2.7-2.1-7.15-.56-1.75-2.42-2.41a2.05 2.01-37.5 0 0-.91-.11c-3.89.39-7.65 1.65-10.6 2.74q-1.99.73-6.7 1.74c-12.6 2.69-22.03 4.09-31.74 12.1q-3.73 3.07-13.31 8.44c-4.03 2.25-6.78 4.33-10.73 6.99a2.16 1.96-68.3 0 1-.53.26l-24.02 8.13 3.03-5.97a1.27 1.26-83.7 0 1 .83-.67q7.95-2 12.35-3.8 7.68-3.14 14.91-11.22a3.94 3.61-80.5 0 1 1.05-.82c1.82-.96 3.88-1.28 5.81-2.24q6.3-3.14 9.93-7 3.41-3.63 5.19-5.15a2.73 2.71-72.9 0 1 .99-.53c4.58-1.31 8.45-2.5 13.64-3.29 6.04-.92 11.33-1.17 16.34-2.97q11.15-4.01 17.29-14.07a.29.29 0 0 1 .46-.05c9.86 10.98 22.06 17.69 37.33 16.59a1.16 1.16 0 0 0 1.08-1.14c.15-10.15 1.77-19.91 6.94-28.44a.3.3 0 0 1 .56.13q1.48 18.21 11.65 33.35a.14.14 0 0 1-.13.21q-12.14-1.47-23.68-.49c-13.91 1.17-27.05 9.59-31.9 22.82q-2.51 6.84.66 13.3a.41.41 0 0 1-.37.59q-20.55-.05-29.91.05c-3.9.04-7.51.63-10.94 1.08a.69.68 86.3 0 1-.77-.68v-3.84a.33.33 0 0 0-.59-.21c-3.91 4.84-8.64 10.51-13.49 13.94q-11.25 7.97-26.04 7.28a1.58 1.57-3.4 0 1-1.48-1.31q-.53-3.13-.16-5.47M517.71 679.02q-.28.26-.28.4-.05.7.65.73 2.42.09 4.37-.04 10.95 5.14 17.69 6.27 7.13 1.19 14.55 2.82 9.05 1.99 14.55 2.59 27.35 3 53.01.52 16.71-1.6 28.98-4.58 2.15-.53 15.11-4.15c10.99-3.07 19.61-7.1 29.87-12.13 6.64-3.26 12.07-8.56 19.15-14.58q3.34-2.84 8.03-10.71c4.84-8.12 8.8-15.73 11.86-23.74q.83-2.15 1.37-6.21 1.24-9.2 2.83-18.58 5.41 22.59-.94 43.11c-7.95 25.66-29.65 45.98-53.95 57.45a.34.34 0 0 1-.46-.44q1.58-3.71 3.36-9.04a.54.49-78.5 0 0-.42-.71q-.12-.01-.38.2-4.01 3.16-7.46 4.75-13.04 6.02-22.64 8.55c-28.03 7.39-57.09 8.39-85.81 2.51-20.33-4.16-39.69-11.43-56.29-23.92a.24.24 0 0 1 .1-.43zM347.98 620.95l1.8 5.89a.35.34 85.5 0 1-.37.44q-8.33-1.07-15.79-3.96.11-1.84-1.68-3.83-2.65-3.91-4.07-8.41a.31.31 0 0 1 .56-.26q6.48 10.13 19.55 10.13"/><path fill="#eeae4e" d="M426.79 675.32q.9-7.98 4.55-13.49a.54.54 0 0 0-.81-.71q-6.83 5.88-9.33 13.85-4.62-.15-9.06-1.15-5.5-1.24-6.87-5.7l.94-2.78 24.02-8.13a2.16 1.96-68.3 0 0 .53-.26c3.95-2.66 6.7-4.74 10.73-6.99q9.58-5.37 13.31-8.44c9.71-8.01 19.14-9.41 31.74-12.1q4.71-1.01 6.7-1.74c2.95-1.09 6.71-2.35 10.6-2.74a2.05 2.01-37.5 0 1 .91.11q1.86.66 2.42 2.41 1.42 4.45 2.1 7.15a1.55 1.55 0 0 1-.06.94q-6.42 15.56-21.77 19.35c-5.5 1.36-12.71 1.35-18.94 1.88a5.63 5.62 25.3 0 0-2.77.99q-3.66 2.55-6.69 5.32-3.94 3.58-6.57 5.28-11.61 7.52-25.68 6.95"/><path fill="#da8a37" d="M362.83 651.48c-1.94-1.31-3.77-2.6-5.36-4.29q-4.38-4.66-8.17-6.15-11.28-4.42-26.58-8.36a.74.74 0 0 1-.55-.87q.19-.9-.74-1.03 1.54-2.18 3.63-3.62a.81.79 42.4 0 1 .85-.03c8 4.53 17.51 5.9 26.27 7.47a3.07 3.05-14.2 0 1 1.86 1.1c5.58 6.94 11.09 12.93 20.66 13.4a1.07 1.02-21.7 0 1 .64.26l6.44 5.64a.7.68 23.8 0 1 .24.6q-.67 7.59-7.51 11.16a.47.47 0 0 1-.69-.36q-1.05-9.24-10.24-16.4a.94.93-60.6 0 0-1.45.41q-.03.09.7 1.07"/><path fill="#eeae4e" d="M321.43 630.78q.93.13.74 1.03a.74.74 0 0 0 .55.87q15.3 3.94 26.58 8.36 3.79 1.49 8.17 6.15c1.59 1.69 3.42 2.98 5.36 4.29q3.2 4.98 4.18 10.19l-4.01 4.35a3.11 3.06 12.2 0 1-1.39.88q-6.75 2.12-13.61 2.16-2.04-8.58-8.45-14.1a.35.35 0 0 0-.54.42q2.85 5.5 3.15 11.72-12.17 1.86-20.04-6.71-2.13-2.32-4.44-1.32c-4.4-9.15-2.44-20.53 3.75-28.29M569.3 635.93q-1.7-.19-2.32 1.15a.73.73 0 0 1-.85.39q-.92-.26-1.67.15a1.37 1.36 87.5 0 0-.63.69q-1.19 2.84-4.3 4.47-9.88 5.17-18.4 11.12-2.64 1.84-11.31 4.93 2.69-6.52 6.84-10.83a.39.39 0 0 0-.42-.63c-7.37 2.88-13.69 10.47-14.47 18.29a.35.35 0 0 1-.53.26c-7.8-4.81-6.32-11.91-1.83-18.6q7.31-10.9 21.86-12.49 14.38-1.57 28.03 1.1"/><path fill="#da8a37" d="m569.3 635.93 12.63 2.25a.64.64 0 0 1 .21 1.19l-6.76 3.9a.66.66 0 0 0-.07 1.1q1.04.8 1.2 1.24a.68.68 0 0 1-.47.88q-13.47 3.43-25.44 10.4c-7.84 4.55-13.82 7.74-21.42 11.09a.51.5 74.7 0 1-.7-.41q-.58-5.31 1.34-8.74 8.67-3.09 11.31-4.93 8.52-5.95 18.4-11.12 3.11-1.63 4.3-4.47a1.37 1.36 87.5 0 1 .63-.69q.75-.41 1.67-.15a.73.73 0 0 0 .85-.39q.62-1.34 2.32-1.15M422.17 643.79q-5 1.79-6.73 1.42-10.49-2.22-21.7-.84-2.18.27-2.48-1.46l7.17-5.39a1.29 1.29 0 0 1 1.25-.16q10.88 4.47 22.49 6.43"/><path fill="#f5d78f" d="M692.99 638.39q.44.7-.17 1.62a1.51 1.47 6.1 0 1-.74.58q-15.19 5.39-31.82 6.38-9.39.55-16.76-.32c-8.67-1.04-16.54-1.45-26.31-1.51q-1.38-.01-2.37.42a.66.66 0 0 0-.1 1.16l10.73 7.03a.6.6 0 0 1-.42 1.1q-6.2-.96-18.65-.82-9.65.11-18.54 2.45-14.85 3.9-27.61 9.8c-4.71 2.18-11.41 6.5-15.61 8.33q-8.95 3.88-22.17 5.5-1.95.13-4.37.04-.7-.03-.65-.73 0-.14.28-.4 10.49-2.7 14.86-4.67 6.42-2.89 26.21-13.55 24.23-13.05 51.86-11.38a.16.16 0 0 0 .1-.3q-7.71-5.14-17.05-6.28a.33.33 0 0 1-.05-.65c19.21-5.37 41.83 0 57.87.83 14.94.78 28.08.57 41.48-4.63"/><path fill="#eeae4e" d="M391.26 642.91q.3 1.73 2.48 1.46 11.21-1.38 21.7.84 1.73.37 6.73-1.42l4.48-.02a.29.28-62.2 0 1 .16.52q-14.38 10.05-31.75 7.63-7.09-.99-11.61-3.98a.32.32 0 0 1 .01-.54z"/><path fill="#da8a37" d="M387.46 661.95q-.31.22-.6.01.32-2.3.3-4.5a.71.71 0 0 1 1.02-.65q.64.31.45.88-.75 2.17-1.17 4.26M342.16 667.1l-.41 5.04a1.69 1.69 0 0 1-1.83 1.54q-15.12-1.33-22.24-14.61 2.31-1 4.44 1.32 7.87 8.57 20.04 6.71M405.38 658.81a.35.35 0 0 1 .25.6q-5.66 5.6-6.62 12.84a.66.66 0 0 1-1.1.4q-6.28-5.84-3.28-13.63a.33.33 0 0 1 .31-.21zM348 669.06q6.86-.04 13.61-2.16a3.11 3.06 12.2 0 0 1.39-.88l4.01-4.35q1.15 4.42.19 8.15a1.3 1.29-8.9 0 1-.55.75q-8.22 5.26-17.88 3.25a.74.74 0 0 1-.6-.7zM421.2 674.97l-.5 5.88a.54.54 0 0 1-.57.5c-4.64-.28-10.29-.97-14.24-3.73a3.22 3.22 0 0 1-1.36-2.38q-.3-3.91.74-7.12 1.37 4.46 6.87 5.7 4.44 1 9.06 1.15"/></svg>