<svg xmlns="http://www.w3.org/2000/svg" viewBox="0 0 1024 1024"><g fill="none" stroke-width="2"><path stroke="#818080" d="M325.75 744.94c-4.73 3.19-9.03 6.17-12.27 10.81-3.11 4.47-3.91 10.85.57 14.78 3.12 2.75 6.71 2.82 10.75 3.27a2 1.95-22.5 0 1 1 .4c4.65 3.61 9.63 3.11 15.21 1.74a2.34 2.32-40.4 0 1 1.44.11q5.23 2.11 13.87.29 19.86-4.19 37.35-13.45a.49.48-7.7 0 1 .7.53q-.57 2.49 1.44 4.29 3 2.68 12.41 8.85 3.2 2.1 5.02 2.39a4.23 4.22-61 0 0 3.44-.99l7.1-6.16a1.54 1.53-56.5 0 1 1.49-.31l12.5 4.09a.83.83 0 0 1 .55.55q.42 1.33 2.79 9.25 1.2 3.97 5.02 4.24 5.89.41 14.12.06c4.6-.19 7.61-.13 8.48-4.96q1.19-6.61 1.83-8.67a.93.91 89.5 0 1 .57-.59l12.62-4.52a.77.75-35 0 1 .74.12q5.44 4.43 6.4 5.3 4.1 3.66 8.46.53 7.85-5.62 10.43-7.74c2.9-2.39 5.49-3.88 3.78-7.63a.81.81 0 0 1 .71-1.14q17.63-.58 37.98.77 17.31 1.14 37.5 2.67 23 1.75 45 .6a.52.51-75.4 0 1 .46.79c-1.48 2.4-2.75 5.15-2.76 8.06-.03 7.72 6.27 9.53 12.89 9.67a2.61 2.6 64.5 0 1 1.54.55c4.95 3.92 11.01 3.22 16.37.94a1.47 1.46 43.8 0 1 1.07-.02q6.2 2.41 12.93.3 21.21-6.65 37.34-21.87 6.71-6.32 9.73-14.9a1.36 1.33-1.8 0 1 .77-.8c37.59-15.16 65.82-45.37 79.59-83.45 10.26-28.35 13.74-59.53 11.46-89.36-2.92-38.21-13.71-76.24-31.2-111.01-25.91-51.52-63.1-94.64-110-128.53a1.17 1.17 0 0 1-.49-1.01c1.27-27.1-13.45-51.72-38.3-62.36-21.99-9.41-46.52-3.9-63.65 12.14a1.1 1.08 30.8 0 1-1.03.25q-12.99-3.5-24.71-5.8-44.89-8.82-89.91-3.14-10.77 1.36-16.08 2.88a4.32 4.26 37.3 0 1-1.33.17c-8.53-.21-16.61-.37-23.37 5.13a5.62 5.57 17 0 1-2 1.05c-14.94 4.33-30.53 11.94-44.1 20.71a.64.64 0 0 1-.86-.15q-2.62-3.56-6.41-8.35c-14.39-18.17-37.75-26.35-59.9-18.46-47.24 16.84-52.47 89.83-5.63 110.99a.61.6-63 0 1 .27.85c-.99 1.73-2.45 4.23-2.96 5.34q-8.94 19.28-12.48 26.45c-4.8 9.73-10.12 16.6-19.2 24.33q-9.74 8.3-12.27 10.46c-22.34 19.06-37.77 44.85-42.49 73.8-5.5 33.77 4.15 69.4 26.86 94.8q14.67 16.41 36.11 28.14a.87.86-75.4 0 1 .45.78c-.59 18.96 3.97 38.46 14.32 54.71q14.75 23.17 39.94 36.01a.25.25 0 0 1 .03.43" vector-effect="non-scaling-stroke"/><path stroke="#7c6027" d="m556.3 319.54-2.21.68a.47.47 0 0 1-.6-.38c-1.23-7.54 4.84-18.71 9.3-24.64a.26.26 0 0 0-.14-.41q-38.78-10.64-78.86-9.32" vector-effect="non-scaling-stroke"/><path stroke="#796848" d="M483.79 285.47q-11.3.24-22.05 1.88a.62.62 0 0 0-.4 1l1.22 1.59a.68.68 0 0 1-.12.94q-1.48 1.17-2.96.85c-11.15-2.47-23.85-6.47-34.57-2.82a.64.64 0 0 0-.2 1.1q.88.72 1.53 1c5.1 2.25 10.7 5.69 13.55 11.32a1.55 1.55 0 0 1-.92 2.18l-3.11.97" vector-effect="non-scaling-stroke"/><path stroke="#7c6027" d="M435.76 305.48q-8.89 1.52-16.03 7.24a.62.62 0 0 0 .3 1.1c3.32.47 15.78 1.17 15.17 6.41q-.14 1.21-2.55 2.96c-3.48 2.54-6.96 5.42-8.95 9a.51.51 0 0 0 .49.75c3.47-.3 9.19-1.05 11.52 1.18a1.78 1.53-46.5 0 1-.12 2.34c-3.74 3.98-14.51 6.51-19.28 4.7-3.23-1.22-4.07-5.77-3.21-9.01q1.36-5.13 5.06-9.03a.3.3 0 0 0-.22-.51c-13.38.09-13.06-11.86-4.3-17.98q4.67-3.25 8.92-4.68a.11.11 0 0 0 .04-.19l-4.17-3.37a.57.56-34.1 0 0-.54-.1q-32.37 10.58-57.22 32.07" vector-effect="non-scaling-stroke"/><path stroke="#796848" d="M360.67 328.36q-21.38 18.21-38.02 43.53-14.7 22.37-26.79 49.49-7.97 17.88-22.41 31.05-3.66 3.34-12.87 11.13-19.07 16.12-30.14 38.32" vector-effect="non-scaling-stroke"/><path stroke="#817a68" d="M230.44 501.88q-13.78 27.5-10.42 58.13" vector-effect="non-scaling-stroke"/><path stroke="#796848" d="M220.02 560.01q-.23 2.56.08 4.32 8.38 46.27 46.9 71.98 29.31 19.57 65.24 23.26 18.72 1.92 35.02.42 14.31-1.32 29.65-2.12a.39.39 0 0 0 .34-.53l-2.77-6.97" vector-effect="non-scaling-stroke"/><path stroke="#817a68" d="M394.48 650.37q-2.17-5.07.19-7.19 1.72-1.55 13.8-10.4c3.37-2.47 5.49-2.52 8.71.07q1.17.93 6.7 5.74a.85.84 54.7 0 0 .84.15l12-4.3a.6.59.8 0 0 .36-.34q1.03-2.52 1.12-4.95a.56.56 0 0 0-.58-.59q-12.23.5-18.9-9.15-2.02-2.92-1.91-5.92a1.69 1.53-88.5 0 1 1.56-1.63q1.44.02 2.78 1.53c7.56 8.49 20.86 8.54 26.64-2.05a1.03 1.02 56.1 0 0 .12-.62l-.63-6.41a.85.84-84.5 0 0-.6-.74q-10.28-2.99-16.09-11.04-1.31-1.82-1.75-3.69-.67-2.86 1.33-3.33" vector-effect="non-scaling-stroke"/><path stroke="#7b594f" d="M430.17 585.51q6.13 5.16 10.96 7.91 10.22 5.83 19.87-1.44 5.57-4.19 10.43-9.33" vector-effect="non-scaling-stroke"/><path stroke="#817a68" d="M471.43 582.65q1.93 2.91.16 6.43-4.68 9.34-14.83 13.8a.82.81 81.2 0 0-.48.66q-.75 6.38 4.23 10.39c6.93 5.6 16.97 6.76 23.56.14q1.5-1.5 4.39-5.11.7-.87 1.37-.95a2.23 2.08 87 0 1 2.32 2.24c-.05 6.41-3.94 11.4-9.37 14.59a.57.56-15.2 0 0-.27.46l-.26 12.54a.66.66 0 0 0 1.09.51q7.61-6.63 8.06-6.97 2.52-1.95 5.13-.39 5.12 3.05 15.12 10.35 1.72 1.25 2.04 3.46" vector-effect="non-scaling-stroke"/><path stroke="#796848" d="m513.69 644.8-4.39 11.72a1.92 1.91-53.8 0 0 .28 1.84l7.38 9.56a.94.92-21 0 0 .83.36q4.37-.48 8.73-.81c6.67-.52 7.94 5.88 9.25 10.76a.67.67 0 0 0 1.08.34q8.45-7.08 17.09-16.66a.39.39 0 0 0-.22-.65c-5.77-1.14-9.55-1.63-13.58-3.66a.56.56 0 0 1 .04-1.02q1.79-.73 4.85-1.07 7.72-.86 15.74-.16 25.75 2.25 53.99 1.27c17.48-.61 33.87-3.47 49.28-8.31 26.59-8.34 51.87-24.48 68.92-46.58q21.89-28.39 24.01-64.48.51-8.82-.86-17.42" vector-effect="non-scaling-stroke"/><path stroke="#817a68" d="M756.11 519.83q-3.47-27.15-18.4-49.87" vector-effect="non-scaling-stroke"/><path stroke="#7c6027" d="M737.71 469.96q-10.33-16.19-24.98-28.68-13.02-11.11-31.19-22.64-8.23-5.23-13.68-10.02-2.98-2.63-4.67-5.88a.68.67-13.3 0 1 .61-.98q.25.01.77.19 11.93 4.3 29.36 14.44c13.62 7.92 24.44 15.13 35.21 25.48q33.63 32.32 39.52 78.62" vector-effect="non-scaling-stroke"/><path stroke="#784f1e" d="M768.66 520.49q2.45 27.49-6.17 52.55c-18.6 54.05-70.6 85.88-125.28 92.14q-32.21 3.69-63.41-.81-3.29-.47-12.35-1.69a.96.95 23.4 0 0-.84.33q-.85 1-1.46 2.81" vector-effect="non-scaling-stroke"/><path stroke="#7c6027" d="M559.15 665.82q-5.3 8.67-12.58 15.75-2.92 2.85-8.4 7.33" vector-effect="non-scaling-stroke"/><path stroke="#817a68" d="M538.17 688.9q-7.35 5.24-15.78 10.26-4.39 2.62-7.27 5.76a.8.79 20.2 0 0 .62 1.33l11.41-.4a1.06 1.06 0 0 1 .84 1.75q-.99 1.17-2.78 1.88-8.17 3.23-10.96 4.51-1.31.6-1.59 1.32a1.79 1.6 25.6 0 0 .87 2.08c4.43 2.38 8.63 2.07 16.14 3.02q.71.08 1.1.46a.83.83 0 0 1-.02 1.19c-2.47 2.33-7.55 3.04-10.41 3.29a.5.5 0 0 0-.22.92q2.16 1.38 6.06 2.55 10.59 3.21 21.44 3.39" vector-effect="non-scaling-stroke"/><path stroke="#7c6027" d="M547.62 732.21q40.48 2.12 75.82-15.52c8.54-4.26 17-9.88 25.08-15.42q1.28-.88 3.5-1.42.43-.11.68 1.03" vector-effect="non-scaling-stroke"/><path stroke="#784f1e" d="M652.7 700.88q-3.7 8.46-10.46 14.36-13.16 11.48-29.88 18.13" vector-effect="non-scaling-stroke"/><path stroke="#796848" d="M612.36 733.37q-38.8 14.89-79.62 6.32a.92.92 0 0 0-1.02.49q-1.3 2.55-3.42 2.66-3.85.19-11.51-1a.35.35 0 0 0-.34.13l-4.73 5.85a.15.15 0 0 0 .12.24q22.65-.91 44.66.79 32.1 2.48 46.25 3.21 17.62.91 33.58-.44a.25.25 0 0 0 .2-.36q-.13-.25-.59-.42-10.21-3.66-17.15-11.66" vector-effect="non-scaling-stroke"/><path stroke="#784f1e" d="M618.79 739.18q.28-1.47 1.24-1.17 12.98 4.14 23.49 6.09c22.26 4.14 45.17 1.83 66.77-4.84q15.61-4.82 31.34-14.92 28.02-18 43.44-47.52 2.91-5.58 7.04-15.29 1.16-2.74 2.07-5.73.89-2.92 1.77-5.82" vector-effect="non-scaling-stroke"/><path stroke="#7c6027" d="M795.95 649.98q10.88-38.04 7.43-77.24" vector-effect="non-scaling-stroke"/><path stroke="#796848" d="M803.38 572.74q-1.13-13.86-2.67-22.47-4.06-22.78-12.78-48.19-2.62-7.66-7.12-17.6-6.64-14.7-7.99-17.29-10.55-20.29-23.11-38.96-4.34-6.45-12.38-16.6-8.99-11.37-13.3-16.21-23.4-26.23-51.79-46.79a.32.32 0 0 0-.48.14l-2.91 6.86" vector-effect="non-scaling-stroke"/><path stroke="#784f1e" d="M668.85 355.63q-6.69 15.14-20.7 23.78c-3.23 1.99-14.17 5.92-16.85 1.67a1.72 1.67-35.3 0 1 .42-2.23q3.59-2.85 9.14-7 9.7-7.26 15.92-18.6 4.81-8.78 5.31-20.17 1-22.82-14.18-38.85" vector-effect="non-scaling-stroke"/><path stroke="#796848" d="M647.91 294.23q-8.49-8.4-17.66-12c-19.9-7.81-40.92-.32-55 15.04q-8.7 9.5-16.05 19.5c-.7.95-1.94 1.98-2.9 2.77" vector-effect="non-scaling-stroke"/><path stroke="#ecb463" d="M647.91 294.23q.03 1.49-2.06.15a2.12 1.85.5 0 1-.45-.4c-2.69-3.2-9.13-5.34-12.9-6.22q-15.15-3.52-30.36.13" vector-effect="non-scaling-stroke"/><path stroke="#f0c56c" d="M602.14 287.89q-3.39.79-7.53 2.75-13.87 6.58-23.89 15.82-1.51 1.39-3.15 3.55c-2.94 3.87-6.36 7.01-9.94 10.2q-.35.32-.8.1-.48-.24-.53-.77" vector-effect="non-scaling-stroke"/><path stroke="#efac42" d="M602.14 287.89q2.42 8.39 9.49 14.3" vector-effect="non-scaling-stroke"/><path stroke="#7c6027" d="M611.63 302.19c-15.58 6.67-28.72 23.78-31.72 40.3-.78 4.29 5.34 4.73 9.04 5.54q10.13 2.23 21.38 12.29" vector-effect="non-scaling-stroke"/><path stroke="#f3b673" d="m610.33 360.32 7.52 7.38" vector-effect="non-scaling-stroke"/><path stroke="#efac42" d="M617.85 367.7q5.66 7.9 13.23 14.4 4.42 3.79 8.62 5.18 7.5 2.5 14.85 2.31c9.64-.25 18.09-8.2 18.67-17.87q.01-.16-.43-6.36-.25-3.45.57-6.49" vector-effect="non-scaling-stroke"/><path stroke="#f0c56c" d="M673.36 358.87q11.24 10.16 22.52 19.27c5.68 4.58 11.26 9.64 16.26 15.21 5.8 6.46 8.77 9.75 14.5 15.86q6.31 6.72 8.67 10.34c5.55 8.47 9.49 14.37 15.07 21.76q4.24 5.62 6.16 9.4 2.2 4.33 4.57 8.47 1.69 2.97 2.53 4.77 1.13 2.41 2.31 4.9a5.47 5.2-77.3 0 0 .55.92q9.11 12.27 13.41 26.74.69 2.35 3.25 7.76c3.38 7.16 5.68 15.13 8.34 21.74 3.35 8.3 5.18 17.23 6.48 25.68q.51 3.33 2.17 11 1.1 5.12 1.58 11.08.37 4.63.63 6.84a.2.2 0 0 0 .4-.01l.62-7.86" vector-effect="non-scaling-stroke"/><path stroke="#efac42" d="M795.95 649.98c-3.13 5.47-7.91 11.27-10.46 15.49q-3.88 6.41-5.5 8.52c-4.71 6.14-8.42 10.5-14.81 16.2-3.71 3.3-7.45 7.18-11.23 10.05q-9.54 7.24-19.07 12.38-14.89 8.04-25.38 12.09-32.99 12.78-68.18 8.07a.59.59 0 0 1-.36-.97q9.41-10.96 12.26-25.26.7-3.47-.52-5.67" vector-effect="non-scaling-stroke"/><path stroke="#f8d78c" d="M547.62 732.21c4.3-6.42 5.19-12.8 4.27-20.18q-.61-4.89-2.19-8.69-3.55-8.53-11.53-14.44" vector-effect="non-scaling-stroke"/><path stroke="#efac42" d="M559.15 665.82q22.83 6.44 36.19 9.06 31.26 6.13 65.28 1.4 38.96-5.43 67.87-31.02c3.48-3.09 6.39-6.47 9.59-9.49q3.23-3.05 6.75-7.55 14.96-19.15 21.82-41.75c1.58-5.19 2.48-12.45 3.69-17.09q1.45-5.55 1.48-12.42.05-12.14-.33-17.17-.1-1.31-.74-2.88a4.72 4.67 34 0 1-.34-1.7q-.03-7.52-1.75-14.72" vector-effect="non-scaling-stroke"/><path stroke="#f8d78c" d="M737.71 469.96q-.59 1.75-.2 3.96a2.54 2.54 0 0 1-.14 1.36c-3.5 8.95-6.17 17.75-10.96 26.6q-20.47 37.77-57.45 60.32" vector-effect="non-scaling-stroke"/><path stroke="#f0c56c" d="M668.96 562.2q-6.88-9.97-13.53-19.22c-9.88-13.76-25.87-30.18-44.81-23.33-13.1 4.74-20.91 17.58-24.54 30.72q-3.63 13.12-5.77 33.47" vector-effect="non-scaling-stroke"/><path stroke="#f8d78c" d="M580.31 583.84c-13.78-.11-25.33-1.95-39.77-4.44q-3.68-.64-7.11-2.23" vector-effect="non-scaling-stroke"/><path stroke="#7c6027" d="m533.43 577.17 24.95-6.41a.38.38 0 0 0 .1-.7q-.3-.18-.79-.2-9.38-.27-19.19.63-5.8.54-16.09 3.69" vector-effect="non-scaling-stroke"/><path stroke="#f8d78c" d="M522.41 574.18q-16.22-6.11-31.2-12.35c-8.31-3.47-15.83-5.81-23.38-7.42q-18.26-3.91-35.42 3.02-5.39 2.17-13.22 7.63-8.99 6.27-19.44 12.12-2.31 1.3-4.32 2.22-2.15.98-4.42 2.07" vector-effect="non-scaling-stroke"/><path stroke="#7c6027" d="M391.01 581.47q-9.06-3.5-15.69-4.6-9.92-1.64-26.51-.81-.7.04-1.14.31a.42.42 0 0 0 .16.77q18.54 2.81 37.48 8.6" vector-effect="non-scaling-stroke"/><path stroke="#f8d78c" d="M385.31 585.74q-14 5.93-28.4 8.26-10.82 1.76-21.39.92-10.99-.87-21.21-3.26c-28.25-6.59-53.59-25.47-68.18-50.8q-4.7-8.16-6.69-12.54-4.95-10.9-7.49-22.97a3.11 3.05-48.8 0 1-.05-.89l.18-1.91" vector-effect="non-scaling-stroke"/><path stroke="#f0c56c" d="M232.08 502.55q2.77-4.34 3.78-5.44 10.11-10.98 13.28-14.23 4.84-4.95 6.87-6.37 15.88-11.11 27.59-19.93 9.94-7.49 15.57-18.38 4.97-9.58 7.26-16.26c6.31-18.32 11.58-34.7 20.95-49.74q2.05-3.3 4.53-7.97 3.34-6.3 4.76-7.83 2.23-2.4 6.57-7.92 5.1-6.49 7.67-8.79 5.18-4.64 10.13-9.35a.87.81 79.9 0 0 .22-.34q.37-1.16-.59-1.64m75.09-22.88 3.8.41a.92.91 5.2 0 0 1.01-.84l.29-3.94a1.2 1.18 28.3 0 0-.25-.81l-4.98-6.46a.94.94 0 0 1 .54-1.49c6.32-1.42 11.79 0 19.98 1.35q.56.09 5.63-.07a1.02 1.02 0 0 0 .8-.44l1.97-2.95a1.88 1.86 13.1 0 1 1.31-.81q9.09-1.14 17.93-3.96" vector-effect="non-scaling-stroke"/><path stroke="#ecb463" d="M668.85 355.63q2.82 2.96 4.51 3.24" vector-effect="non-scaling-stroke"/><path stroke="#efa46a" d="M617.85 367.7q10.96-5.26 16.24-14.37 3.42-5.9 5.36-16.4c1.08-5.83.22-12.39-1.2-17.69q-.95-3.54-2.5-7.24" vector-effect="non-scaling-stroke"/><path stroke="#784f1e" d="M635.75 312q-1.59-9.07-11.99-10.83-5.8-.98-12.13 1.02" vector-effect="non-scaling-stroke"/><path stroke="#ecb463" d="m618.79 739.18-6.43-5.81" vector-effect="non-scaling-stroke"/><path stroke="#7b594f" d="M635.75 312q-11.66-7.62-21.84-1.4c-10.72 6.54-17.91 17.91-22.77 29.4a.74.74 0 0 0 .55 1.01q8.62 1.5 14.85 7.43 5.37 5.1 3.79 11.88" vector-effect="non-scaling-stroke"/><path stroke="#f5dfad" d="m232.08 502.55-1.64-.67m525.67 17.95c-.24 5.41.13 10.8-2.24 15.78q-1.74 3.69-1.9 4.29c-1.17 4.39-2.12 5.73-4.32 11.13q-1.52 3.74-3.33 6.55-8.74 13.6-12.68 18.8-10.81 14.25-24.43 25.09-13.29 10.57-25.78 16.95c-5.94 3.03-11.61 6.32-17.83 8.63q-30.61 11.39-59.27 14.82-23.78 2.85-53.74 2.97-5.02.02-9.17.26-6.89.41-9.17.26-13.34-.88-18.56-.56" vector-effect="non-scaling-stroke"/><path stroke="#f8cfb4" d="M471.43 582.65q-3.66-4.42-11.43-5.4-11.57-1.46-22.28 1.71-5.08 1.51-7.55 6.55" vector-effect="non-scaling-stroke"/><path stroke="#f5dfad" d="M394.48 650.37q-23.71 1.08-39.3-.74-12.55-1.47-25.24-3.59-5.45-.91-10.8-2.7-12.85-4.3-23.81-8.25c-4.45-1.61-10.92-4.57-13.77-6.39q-4.36-2.79-15.82-10.06c-6.46-4.11-14.21-10.1-19.07-15.82q-7.45-8.77-8.22-9.62-4.69-5.2-7.44-10.17-5.33-9.64-7.64-14.4-1.99-4.08-3.35-8.62" vector-effect="non-scaling-stroke"/><path stroke="#817a68" d="m385.31 585.74 24.34 8.14a.35.34-5.8 0 0 .41-.5q-1.09-1.84-2.81-3.13-7.14-5.35-16.24-8.78m131.4-7.29c-9.4 3.87-18.81 8.21-25.13 15.47a.76.76 0 0 0 .21 1.17q.07.04.5-.13 3.79-1.44 13.79-5.88 10.66-4.73 21.65-7.64" vector-effect="non-scaling-stroke"/><path stroke="#f5dfad" d="M580.31 583.84q38.47.88 73.45-14.08 6.58-2.81 15.2-7.56" vector-effect="non-scaling-stroke"/><path stroke="#7c6027" d="M285.32 306.76q-13.28 21.47-5.82 45.04 6.03 19.06 23.81 28.15a.48.48 0 0 0 .63-.18l6.01-9.85" vector-effect="non-scaling-stroke"/><path stroke="#7b594f" d="M309.95 369.92q10.76-16.86 24.01-31.95a.68.68 0 0 0 .13-.7c-3.7-10.2-12.82-22.77-24.2-24.44q-4.71-.7-10.56 2.35" vector-effect="non-scaling-stroke"/><path stroke="#7c6027" d="M299.33 315.18q-.49-.44-.51-1.28a1.55 1.51 62.1 0 1 .26-.89c5.54-8.19 15.5-7.97 23.72-3.74 7.44 3.83 14.25 11.92 19 19.8a.35.35 0 0 0 .53.08l15.95-14.59" vector-effect="non-scaling-stroke"/><path stroke="#796848" d="M358.28 314.56q.77-.11 1.8-1.51a.73.71 47.6 0 0 .03-.81q-6.97-11.21-17.25-18.09c-20.06-13.43-44.19-6.7-57.54 12.61" vector-effect="non-scaling-stroke"/><path stroke="#f0c56c" d="M358.28 314.56q-4.78-6.49-11.97-11.6c-5.36-3.83-10.94-5.54-17.17-7.79q-4.75-1.72-10.62-1.39-10.46.59-18.74 3.65c-5.37 1.99-9.18 6.27-13.21 10.11a.71.7-26.4 0 1-1.18-.39l-.07-.39" vector-effect="non-scaling-stroke"/><path stroke="#f3b673" d="M299.33 315.18q-4.03 8.82-5.04 19.32c-.9 9.33 3.76 19.92 8.8 27.51a5.31 5.23 4 0 0 .92 1.04q3.51 3.02 5.94 6.87" vector-effect="non-scaling-stroke"/><path stroke="#4c4d50" d="M452.83 620.67q.62.19 1.22.11a.51.51 0 0 0 .36-.78q-.82-1.26-1.69-.83a.81.81 0 0 0 .11 1.5" vector-effect="non-scaling-stroke"/><path stroke="#818080" d="m478.47 635.31-.27-7.79a.98.98 0 0 0-1.23-.91l-4.02 1.06a2.53 2.5 43.2 0 1-1.15.03l-2.64-.56a.86.86 0 0 0-1.01 1.06l1.69 6.39a.96.94 88.4 0 0 .72.69l6.34 1.35a1.3 1.3 0 0 0 1.57-1.32" vector-effect="non-scaling-stroke"/><path stroke="#4c4d50" d="m384.23 678.87 15.81 9.83a.52.52 0 0 0 .74-.23c1.29-2.81 2.06-5.42 3.74-8.54 15.85-29.4 51.37-38.66 79.74-20.92 13.76 8.6 21.93 22.49 24.81 38.48a.37.37 0 0 0 .6.22q8.44-6.94 18.74-12.86a1.03 1.02-23.6 0 0 .47-1.19l-1.97-6.4" vector-effect="non-scaling-stroke"/><path stroke="#656668" d="M526.91 677.26q-.43-1.85-1.41-1.73-5.86.7-11.49 1.17a1.31 1.31 0 0 1-1.21-.61q-5.79-9.17-12.91-16.9" vector-effect="non-scaling-stroke"/><path stroke="#4c4d50" d="m499.89 659.19 4.92-11.99" vector-effect="non-scaling-stroke"/><path stroke="#656668" d="M504.81 647.2q.21-.42.14-.83a.62.58 14 0 0-.26-.4l-9.73-6.5a.72.72 0 0 0-.88.06l-8.74 7.91a1.4 1.4 0 0 1-1.52.24q-8.89-4.05-18.91-6.3a2.98 2.97 1.1 0 1-2.27-2.35l-1.79-9.45a1.55 1.55 0 0 0-1.58-1.26l-11.91.41a1.21 1.21 0 0 0-1.14.95l-2.19 10.28a2.06 2.06 0 0 1-1.57 1.59q-10.43 2.37-17.47 5.72-2.22 1.06-4.13-.6-6.04-5.23-7.91-6.63a.79.79 0 0 0-.96 0l-9.47 7.31a.72.71-29.7 0 0-.23.83l4.13 9.98a3.11 3.09-40.2 0 1-.25 2.84q-1.11 1.75-3.85 5.13c-2.93 3.62-5.08 7.3-7.16 10.46a1.61 1.61 0 0 1-1.59.7l-10.51-1.65a1.1 1.1 0 0 0-1.16 1.58q.49.97 2.33 1.65" vector-effect="non-scaling-stroke"/><path stroke="#acb0b5" d="M504.81 647.2q-1.67-.34-3.2-1.45a.28.22-7 0 0-.1-.06l-5.03-2.36a2.19 2.18 36.4 0 0-2.41.36l-8.02 7.25a1.03 1.01 34.5 0 1-1.07.19q-8.34-3.31-12.94-4.92c-7.69-2.7-14.95-1.74-22.13-1.49q-6.84.23-9.81.85-7.43 1.54-15.71 6.31a2.23 2.12 4.8 0 0-.56.45l-3.2 3.59a.86.84-75.2 0 1-.44.26q-3.83.86-6.19 3.97a3.64 3.62-88.3 0 1-.91.86q-4.77 3.14-6 4.84-4.77 6.58-10.33 14.44a1.53 1.52-67.6 0 1-1.48.62q-3.37-.52-6.99-1.9-1.63-.63-4.06-.14m115.66-19.68q-1.16-1.61-.42 1.17a3.1 3.07-75 0 0 .78 1.37q6.9 7.14 11.44 15.79a2.51 2.5 72.5 0 0 2.52 1.32l12.7-1.58" vector-effect="non-scaling-stroke"/><path stroke="#4c4d50" d="M457.195 658.833a.4.4 0 0 0-.404-.396l-6.4.067a.4.4 0 0 0-.396.404l.17 16.24a.4.4 0 0 0 .404.395l6.4-.067a.4.4 0 0 0 .396-.404l-.17-16.24" vector-effect="non-scaling-stroke"/><path stroke="#7c6027" d="M284.85 673.98q4.63 20.15 17.61 36.1" vector-effect="non-scaling-stroke"/><path stroke="#784f1e" d="M302.46 710.08c18.71 23.9 47.73 32.56 76.92 35.53a.19.19 0 0 0 .1-.36q-1.88-.86-3.04-2.12a4.34 4.17 11.1 0 1-.68-.97l-2.26-4.45a1.25 1.25 0 0 0-1.07-.69q-31.44-1.56-53.32-22.04" vector-effect="non-scaling-stroke"/><path stroke="#7c6027" d="M319.11 714.98q-8.05-7.96-11.84-18.27-.61-1.67-.51-2.98a.44.44 0 0 1 .76-.25q5.15 5.93 12.75 12.22 21.55 17.85 48.93 21.56" vector-effect="non-scaling-stroke"/><path stroke="#817a68" d="M369.2 727.26c8.82 1.17 20.2 1.15 28.05-3.13a.45.45 0 0 0-.1-.83c-4.01-1.07-8.15-1.91-11.37-4.3a.94.94 0 0 1 .05-1.55c1.32-.84 4.7-.47 9.16-.42 2.54.03 8.21-.13 10.04-1.84a1.79 1.37 37.6 0 0-.65-2.43q-3.87-2.43-11.2-5.32-1.48-.58-3.48-2.13a.98.98 0 0 1 .68-1.75l12.75.93a.55.55 0 0 0 .54-.79c-1.61-3.38-8.76-7.79-12.51-10.1q-2.48-1.52-10.43-7.76" vector-effect="non-scaling-stroke"/><path stroke="#7c6027" d="M380.73 685.84q-7.12-5.84-11.29-13.48" vector-effect="non-scaling-stroke"/><path stroke="#784f1e" d="M369.44 672.36q.5-2.63 4.68-.14a1.07 1.07 0 0 0 1.43-.33l2.44-3.64a1.12 1.1 13.5 0 1 .83-.5l2.91-.25" vector-effect="non-scaling-stroke"/><path stroke="#796848" d="m381.73 667.5 8.07 1.25a1.22 1.21 21.2 0 0 1.2-.52l2.42-3.63a.26.26 0 0 0-.27-.4l-11.97 2.21" vector-effect="non-scaling-stroke"/><path stroke="#784f1e" d="M381.18 666.41q-14.38 2.55-24.46 3.27-38.09 2.7-73.36-11.21a.39.39 0 0 0-.53.41l2.02 15.1" vector-effect="non-scaling-stroke"/><path stroke="#ecb463" d="M381.18 666.41q.07.72.55 1.09" vector-effect="non-scaling-stroke"/><path stroke="#efac42" d="M369.44 672.36q-8.57 3.51-19.54 5.04-22.95 3.21-43.8.25-10.06-1.42-19.9-4.78a1 1 0 0 0-1.31.81l-.04.3" vector-effect="non-scaling-stroke"/><path stroke="#f8d78c" d="M380.73 685.84q-3.98 2.3-5.83 4.58-13.44 16.57-5.7 36.84" vector-effect="non-scaling-stroke"/><path stroke="#efac42" d="M319.11 714.98q-5.31-1.1-10.06-3.71-2.05-1.13-6.59-1.19" vector-effect="non-scaling-stroke"/><path stroke="#796848" d="M480.58 666.13q-7.92-4.94-16.5-6.85a.69.69 0 0 0-.84.7l.55 16.12a.3.28 16.8 0 0 .12.21l3.95 2.64a.75.74-50.4 0 0 .93-.09l11.89-11.89a.54.54 0 0 0-.1-.84m-39.22 11.63q1.29-.56 2.5-1a.74.73 79.3 0 0 .48-.72l-.42-16.23a.44.44 0 0 0-.55-.41q-4.43 1.12-8.7 2.98t-8.12 4.34a.44.44 0 0 0-.07.68l11.6 11.37a.74.73 53.6 0 0 .85.13q1.14-.58 2.43-1.14" vector-effect="non-scaling-stroke"/><path stroke="#4c4d50" d="M485.81 670.68a.35.35 0 0 0-.5 0l-11.42 11.42a.35.35 0 0 0-.02.49l4.19 4.62a.35.35 0 0 0 .49.03l12.23-11.07a.35.35 0 0 0 .01-.51l-4.98-4.98m-52.333 12.562a.61.61 0 0 0-.04-.862l-11.815-10.789a.61.61 0 0 0-.861.04l-3.898 4.267a.61.61 0 0 0 .04.862l11.815 10.789a.61.61 0 0 0 .861-.04l3.898-4.267" vector-effect="non-scaling-stroke"/><path stroke="#796848" d="M498.88 694.75a1.32 1.32 0 0 0 1.22-1.82l-4.37-10.86a1.32 1.32 0 0 0-2.13-.47l-11.48 10.93a1.32 1.32 0 0 0 .91 2.28l15.85-.06m-86.41-13.38q-3.84 7.07-5.19 12.34a1.84 1.84 0 0 0 1.85 2.29l15.43-.54a1.28 1.28 0 0 0 .86-2.18l-12.04-12.04a.58.58 0 0 0-.91.13" vector-effect="non-scaling-stroke"/><path stroke="#4c4d50" d="M431.8 703.63a22.16 21.58-4 0 0 12.99 20.87 22.14 21.59-4.6 0 0 25.35-5.1 22.18 21.56-6.8 0 0 5.83-12.86 22.18 21.64-6.1 0 0-4.97-15.57" vector-effect="non-scaling-stroke"/><path stroke="#656668" d="M471 690.97a22.16 21.6-5 0 0-12.16-7.27 22.15 21.6-4.9 0 0-27.04 19.93" vector-effect="non-scaling-stroke"/><path stroke="#acb0b5" d="M471 690.97q-6.93-3.83-13.6-4.31c-7.14-.51-13.96.43-18.58 6.43q-4.11 5.34-5.95 10.59-.2.58-1.07-.05" vector-effect="non-scaling-stroke"/><path stroke="#4c4d50" d="M501.2 701.358a.6.6 0 0 0-.608-.592l-16.339.228a.6.6 0 0 0-.591.609l.078 5.6a.6.6 0 0 0 .608.59l16.339-.227a.6.6 0 0 0 .591-.609l-.078-5.6m-88.09 6.563a.31.31 0 0 0 .32.3l10.9-.38a.31.31 0 0 0 .3-.32l-.2-5.74a.31.31 0 0 0-.32-.3l-10.9.38a.31.31 0 0 0-.3.32l.2 5.74" vector-effect="non-scaling-stroke"/><path stroke="#796848" d="m499.43 713.56-16.04.55a.65.65 0 0 0-.45 1.1q5.8 6.19 12.33 11.13a.4.39 33.2 0 0 .58-.12q3.29-5.76 4.39-11.72a.8.79-85.9 0 0-.81-.94m-75.03.81-9.67.33a.72.72 0 0 0-.7.74q.1 4.3-3.01 6.75a1.14 1.13 59.9 0 0-.35 1.33l1.34 3.23a.69.69 0 0 0 1.1.25l12.01-10.86a1.02 1.02 0 0 0-.72-1.77" vector-effect="non-scaling-stroke"/><path stroke="#4c4d50" d="M491.6 732.705a.76.76 0 0 0-.035-1.074l-11.362-10.632a.76.76 0 0 0-1.074.036l-3.95 4.22a.76.76 0 0 0 .036 1.074l11.362 10.632a.76.76 0 0 0 1.074-.036l3.95-4.22m-62.072-11.14a.77.77 0 0 0-1.088-.05l-11.786 10.762a.77.77 0 0 0-.05 1.088l4.046 4.43a.77.77 0 0 0 1.088.05l11.786-10.762a.77.77 0 0 0 .05-1.088l-4.046-4.43" vector-effect="non-scaling-stroke"/><path stroke="#4c4d50" d="M419.29 747.4q-8.91-7.24-14.35-16.67a.53.53 0 0 0-.79-.15q-3.48 2.74-7.75 4.31a.48.48 0 0 0-.22.75l10.57 13.7a2.86 2.86 0 0 1 .37 2.86l-4.06 9.64a1.4 1.4 0 0 0 .51 1.7l9.38 6.27a.86.85 40.4 0 0 1.05-.08l8.28-7.49a1.94 1.92-54.4 0 1 2.05-.35q9.69 4.15 19.06 6.51a2.15 2.13-.2 0 1 1.55 1.53l2.71 10.22a2 2 0 0 0 2.01 1.49l10.51-.36a1.24 1.24 0 0 0 1.18-.99l2.15-10.1a2.26 2.25-1.3 0 1 1.64-1.71q9.36-2.36 17.8-6.48a2.99 2.98 51.3 0 1 3.18.36l8.55 6.91a1.12 1.12 0 0 0 1.39.02l9.1-7.02a.86.85 59.8 0 0 .26-1.01c-1.41-3.22-4.18-7.57-4.76-11.26a2.01 2 61.6 0 1 .48-1.63q6-6.8 10.9-14.1c.32-.46.96-.9 1.46-1.2a.54.53 51.6 0 0 .09-.83q-3.87-3.81-5.7-8.11" vector-effect="non-scaling-stroke"/><path stroke="#656668" d="M507.89 724.13q-1.23-1.49-1.47-.87-6.67 17.06-21.84 27.01c-9.01 5.91-20.5 8.68-31.07 8.77q-19.24.16-34.22-11.64" vector-effect="non-scaling-stroke"/><path stroke="#acb0b5" d="M507.89 724.13q-1.63 8.08-5.6 13.16c-5.31 6.8-10.24 13.13-17.94 17.53q-3.81 2.19-14.56 5.59c-4.78 1.52-12.38 2.43-16.53 1.74-4-.66-8.67-.7-13.37-2.34q-10.82-3.75-20.58-9.91a1.91 1.87 87.8 0 1-.54-.51q-1.08-1.45.52-1.99" vector-effect="non-scaling-stroke"/><path stroke="#796848" d="M466.77 731.08q-1.29.58-2.5 1.03a.75.74 78.8 0 0-.48.73l.56 16.35a.45.44-8.3 0 0 .56.41q4.46-1.17 8.74-3.08 4.29-1.91 8.14-4.44a.45.44-39.7 0 0 .07-.69l-11.78-11.35a.75.74 53.1 0 0-.86-.13q-1.15.59-2.45 1.17m-31.9 15.9q4.9 2.11 8.96 3.01a.67.67 0 0 0 .81-.68l-.57-16.46a.49.48-81.6 0 0-.33-.45q-1.29-.46-2.21-.86-.93-.4-2.15-1.02a.49.48-51.7 0 0-.55.07l-12.37 10.87a.67.67 0 0 0 .07 1.06q3.44 2.34 8.34 4.46" vector-effect="non-scaling-stroke"/><path stroke="#4c4d50" d="M457.84 734.38a.35.35 0 0 0-.35-.35h-6.6a.35.35 0 0 0-.35.35v16.14a.35.35 0 0 0 .35.35h6.6a.35.35 0 0 0 .35-.35v-16.14" vector-effect="non-scaling-stroke"/><path stroke="#796848" d="M382.4 744.91a.37.36-43.8 0 0-.02.71q5.29 1.2 10.64.51a.48.48 0 0 0 .38-.66l-.71-1.73a.95.95 0 0 0-1.06-.57l-9.23 1.74" vector-effect="non-scaling-stroke"/><path stroke="#817a68" d="M333.12 751.52q-7.32 3.1-12.78 10.77a1.24 1.23 31 0 0 .46 1.82q1.26.63 3.15.46a1.56 1.56 0 0 0 1.01-.49c2.35-2.49 8.33-8.03 11.41-8.28a1.48 1.48 0 0 1 1.33 2.33l-5.38 7.64a1.42 1.42 0 0 0 1.03 2.24c3.36.31 6.14-.66 8.74-3.32q4.02-4.1 8.72-6.09a1.41 1.4-16.3 0 1 1.93 1.05q.03.16-.14 1-.11.55-.47.98-2.05 2.5-3.07 4.77a.76.76 0 0 0 .7 1.07c6.13.03 13.36-2.51 19.61-4.79" vector-effect="non-scaling-stroke"/><path stroke="#796848" d="M369.37 762.68q8.63-2.71 18.37-7.96a.38.38 0 0 0-.18-.71c-15.51-.18-30.51-1.65-45.38-6.37a1.5 1.5 0 0 0-1.11.08l-7.95 3.8" vector-effect="non-scaling-stroke"/><path stroke="#f5dfad" d="M369.37 762.68q-5.9-2.68-11.7-3.99a.6.46 53 0 1-.14-.04l-9.52-3.63a2.05 1.79-27.1 0 0-.44-.11q-7.26-.72-14.45-3.39" vector-effect="non-scaling-stroke"/><path stroke="#817a68" d="m646.13 765.74-4.23 6.2a1.13 1.13 0 0 0 .55 1.69c2.08.76 3.58.34 5.21-1.53q3.44-3.92 7.73-6.85" vector-effect="non-scaling-stroke"/><path stroke="#796848" d="m655.39 765.25 2.85-.79" vector-effect="non-scaling-stroke"/><path stroke="#817a68" d="M658.24 764.46q.92 1.7.04 3.05-3.54 5.4-4.64 7.53a1.49 1.49 0 0 0 1.23 2.17c3.3.23 6.49-1.49 9.15-4.17 1.74-1.76 6.35-6.02 8.62-6.16a1.24 1.24 0 0 1 1.14 1.87l-3.32 5.62a1.08 1.08 0 0 0 .72 1.62q1.32.26 3.06-.24 11.3-3.21 21.18-10.34" vector-effect="non-scaling-stroke"/><path stroke="#796848" d="M695.42 765.41q8.56-5.43 15.72-13.03a.49.49 0 0 0-.46-.82c-4.65.98-9.4 2.5-14.24 3.47q-18.65 3.73-38.5 1.45a2.72 2.72 0 0 0-2.09.66l-9.72 8.6" vector-effect="non-scaling-stroke"/><path stroke="#f5dfad" d="M695.42 765.41q-6.21-.8-11.94-1.86-4.62-.86-14.86-.7-2.5.04-5.2.59-2.59.53-5.18 1.02m-2.85.79q-4.51-1.02-9.26.49" vector-effect="non-scaling-stroke"/><path stroke="#f0c56c" d="M393.193 323.627a6.57 5.67-40 0 0-8.678-.12 6.57 5.67-40 0 0-1.388 8.566 6.57 5.67-40 0 0 8.678.12 6.57 5.67-40 0 0 1.388-8.566M358.03 359.94c5.92 4.73 15.95-4.78 19.14-9.5q3.53-5.21 1.84-11.37-.51-1.87-1.91-2.99-1.41-1.12-3.34-1.21-6.38-.28-10.69 4.31c-3.9 4.15-10.96 16.03-5.04 20.76" vector-effect="non-scaling-stroke"/><path stroke="#7c6027" d="M502.694 446.112a11.2 7.04-56.3 0 0-12.071 5.412 11.2 7.04-56.3 0 0-.357 13.224 11.2 7.04-56.3 0 0 12.071-5.412 11.2 7.04-56.3 0 0 .357-13.224m-109.749 7.411a10.9 6.91-128.7 0 0 1.422 12.827 10.9 6.91-128.7 0 0 12.208 4.187 10.9 6.91-128.7 0 0-1.422-12.827 10.9 6.91-128.7 0 0-12.208-4.187m130.991 16.435a37.91 33.92-104.8 0 0-23.11 45.317 37.91 33.92-104.8 0 0 42.478 27.987 37.91 33.92-104.8 0 0 23.11-45.317 37.91 33.92-104.8 0 0-42.478-27.987" vector-effect="non-scaling-stroke"/><path stroke="#f8d78c" d="M634.05 480.53q-4.71 2.8-8.34 8.45c-2.27 3.54-1.31 7.68 3.58 7.43 4.06-.21 8.11-2.01 11.73-4.16 3.62-2.16 7.13-4.86 9.25-8.33 2.56-4.18-.62-7-4.81-6.69q-6.7.5-11.41 3.3" vector-effect="non-scaling-stroke"/><path stroke="#7c6027" d="M375.984 478.12a36.61 32.03-88.1 0 0-33.226 35.528 36.61 32.03-88.1 0 0 30.798 37.652 36.61 32.03-88.1 0 0 33.226-35.528 36.61 32.03-88.1 0 0-30.798-37.652" vector-effect="non-scaling-stroke"/><path stroke="#f8d78c" d="M284.082 485.776a14.04 6.59-147.4 0 0 8.278 13.116 14.04 6.59-147.4 0 0 15.378 2.012 14.04 6.59-147.4 0 0-8.277-13.116 14.04 6.59-147.4 0 0-15.379-2.012" vector-effect="non-scaling-stroke"/><path stroke="#7c6027" d="M775.577 605.02a10.33 4.97-82.9 0 0-6.209 9.636 10.33 4.97-82.9 0 0 3.655 10.865 10.33 4.97-82.9 0 0 6.209-9.637 10.33 4.97-82.9 0 0-3.655-10.865m-6.367 32.746a9.83 4.9-72.9 0 0-7.573 7.954 9.83 4.9-72.9 0 0 1.793 10.836 9.83 4.9-72.9 0 0 7.573-7.954 9.83 4.9-72.9 0 0-1.793-10.836m-10.927 30.812a9.4 4.93-60.4 0 0-8.93 5.738 9.4 4.93-60.4 0 0-.356 10.608 9.4 4.93-60.4 0 0 8.93-5.738 9.4 4.93-60.4 0 0 .356-10.608" vector-effect="non-scaling-stroke"/><path stroke="#818080" d="M516.775 485.18a10.3 9.09-98.4 0 0-7.487 11.518 10.3 9.09-98.4 0 0 10.497 8.862 10.3 9.09-98.4 0 0 7.488-11.518 10.3 9.09-98.4 0 0-10.498-8.861" vector-effect="non-scaling-stroke"/><path stroke="#817a68" d="M563.57 609.76a.33.33 0 0 0 .24-.6q-25.69-14.38-54.97-12.35-4.66.32-7.79 1.54a.99.99 0 0 0 .03 1.86q1.61.58 3.2.7 31.22 2.18 59.29 8.85m-219.35 7.38q27.99-8.52 59.46-12.69 1.61-.22 3.2-.91a1 1 0 0 0-.09-1.88q-3.24-1.04-7.98-1.07-29.77-.22-54.87 15.95a.33.33 0 0 0 .28.6" vector-effect="non-scaling-stroke"/><path stroke="#818080" d="M385.842 491.65a10.38 9.11-90.1 0 0-9.092 10.396 10.38 9.11-90.1 0 0 9.128 10.364 10.38 9.11-90.1 0 0 9.092-10.396 10.38 9.11-90.1 0 0-9.128-10.364" vector-effect="non-scaling-stroke"/><path stroke="#f8d6cc" d="M446.626 583.686a4.86 3.05-4.3 0 0-5.075-2.677 4.86 3.05-4.3 0 0-4.617 3.405 4.86 3.05-4.3 0 0 5.075 2.677 4.86 3.05-4.3 0 0 4.617-3.405" vector-effect="non-scaling-stroke"/><path stroke="#acb0b5" d="M440.87 710.84q-1.88.7-.63 3.28c2.45 5.05 8.88 7.12 14.51 7.09 7.43-.05 9.91-3 13.16-8.49q1.99-3.34 2.09-4.51.43-5.04-1.88-3.79" vector-effect="non-scaling-stroke"/><path stroke="#4c4d50" d="M468.12 704.42c-.94-12.06-14.59-17.94-23.86-10.03q-6.93 5.92-3.39 16.45" vector-effect="non-scaling-stroke"/><path stroke="#656668" d="M468.12 704.42q.19 7.05-4.49 10.96c-7.72 6.44-17.84 4.13-22.76-4.54" vector-effect="non-scaling-stroke"/><path stroke="#796848" d="M460.66 704.75a6.92 6.92 0 0 0-6.92-6.92 6.92 6.92 0 0 0-6.92 6.92 6.92 6.92 0 0 0 6.92 6.92 6.92 6.92 0 0 0 6.92-6.92" vector-effect="non-scaling-stroke"/></g><path fill="#fdfdfd" d="M1024 0v1024H0V0zM325.75 744.94c-4.73 3.19-9.03 6.17-12.27 10.81-3.11 4.47-3.91 10.85.57 14.78 3.12 2.75 6.71 2.82 10.75 3.27a2 1.95-22.5 0 1 1 .4c4.65 3.61 9.63 3.11 15.21 1.74a2.34 2.32-40.4 0 1 1.44.11q5.23 2.11 13.87.29 19.86-4.19 37.35-13.45a.49.48-7.7 0 1 .7.53q-.57 2.49 1.44 4.29 3 2.68 12.41 8.85 3.2 2.1 5.02 2.39a4.23 4.22-61 0 0 3.44-.99l7.1-6.16a1.54 1.53-56.5 0 1 1.49-.31l12.5 4.09a.83.83 0 0 1 .55.55q.42 1.33 2.79 9.25 1.2 3.97 5.02 4.24 5.89.41 14.12.06c4.6-.19 7.61-.13 8.48-4.96q1.19-6.61 1.83-8.67a.93.91 89.5 0 1 .57-.59l12.62-4.52a.77.75-35 0 1 .74.12q5.44 4.43 6.4 5.3 4.1 3.66 8.46.53 7.85-5.62 10.43-7.74c2.9-2.39 5.49-3.88 3.78-7.63a.81.81 0 0 1 .71-1.14q17.63-.58 37.98.77 17.31 1.14 37.5 2.67 23 1.75 45 .6a.52.51-75.4 0 1 .46.79c-1.48 2.4-2.75 5.15-2.76 8.06-.03 7.72 6.27 9.53 12.89 9.67a2.61 2.6 64.5 0 1 1.54.55c4.95 3.92 11.01 3.22 16.37.94a1.47 1.46 43.8 0 1 1.07-.02q6.2 2.41 12.93.3 21.21-6.65 37.34-21.87 6.71-6.32 9.73-14.9a1.36 1.33-1.8 0 1 .77-.8c37.59-15.16 65.82-45.37 79.59-83.45 10.26-28.35 13.74-59.53 11.46-89.36-2.92-38.21-13.71-76.24-31.2-111.01-25.91-51.52-63.1-94.64-110-128.53a1.17 1.17 0 0 1-.49-1.01c1.27-27.1-13.45-51.72-38.3-62.36-21.99-9.41-46.52-3.9-63.65 12.14a1.1 1.08 30.8 0 1-1.03.25q-12.99-3.5-24.71-5.8-44.89-8.82-89.91-3.14-10.77 1.36-16.08 2.88a4.32 4.26 37.3 0 1-1.33.17c-8.53-.21-16.61-.37-23.37 5.13a5.62 5.57 17 0 1-2 1.05c-14.94 4.33-30.53 11.94-44.1 20.71a.64.64 0 0 1-.86-.15q-2.62-3.56-6.41-8.35c-14.39-18.17-37.75-26.35-59.9-18.46-47.24 16.84-52.47 89.83-5.63 110.99a.61.6-63 0 1 .27.85c-.99 1.73-2.45 4.23-2.96 5.34q-8.94 19.28-12.48 26.45c-4.8 9.73-10.12 16.6-19.2 24.33q-9.74 8.3-12.27 10.46c-22.34 19.06-37.77 44.85-42.49 73.8-5.5 33.77 4.15 69.4 26.86 94.8q14.67 16.41 36.11 28.14a.87.86-75.4 0 1 .45.78c-.59 18.96 3.97 38.46 14.32 54.71q14.75 23.17 39.94 36.01a.25.25 0 0 1 .03.43"/><path fill="#040303" d="M325.75 744.94a.25.25 0 0 0-.03-.43q-25.19-12.84-39.94-36.01c-10.35-16.25-14.91-35.75-14.32-54.71a.87.86-75.4 0 0-.45-.78q-21.44-11.73-36.11-28.14c-22.71-25.4-32.36-61.03-26.86-94.8 4.72-28.95 20.15-54.74 42.49-73.8q2.53-2.16 12.27-10.46c9.08-7.73 14.4-14.6 19.2-24.33q3.54-7.17 12.48-26.45c.51-1.11 1.97-3.61 2.96-5.34a.61.6-63 0 0-.27-.85c-46.84-21.16-41.61-94.15 5.63-110.99 22.15-7.89 45.51.29 59.9 18.46q3.79 4.79 6.41 8.35a.64.64 0 0 0 .86.15c13.57-8.77 29.16-16.38 44.1-20.71a5.62 5.57 17 0 0 2-1.05c6.76-5.5 14.84-5.34 23.37-5.13a4.32 4.26 37.3 0 0 1.33-.17q5.31-1.52 16.08-2.88 45.02-5.68 89.91 3.14 11.72 2.3 24.71 5.8a1.1 1.08 30.8 0 0 1.03-.25c17.13-16.04 41.66-21.55 63.65-12.14 24.85 10.64 39.57 35.26 38.3 62.36a1.17 1.17 0 0 0 .49 1.01c46.9 33.89 84.09 77.01 110 128.53 17.49 34.77 28.28 72.8 31.2 111.01 2.28 29.83-1.2 61.01-11.46 89.36-13.77 38.08-42 68.29-79.59 83.45a1.36 1.33-1.8 0 0-.77.8q-3.02 8.58-9.73 14.9-16.13 15.22-37.34 21.87-6.73 2.11-12.93-.3a1.47 1.46 43.8 0 0-1.07.02c-5.36 2.28-11.42 2.98-16.37-.94a2.61 2.6 64.5 0 0-1.54-.55c-6.62-.14-12.92-1.95-12.89-9.67.01-2.91 1.28-5.66 2.76-8.06a.52.51-75.4 0 0-.46-.79q-22 1.15-45-.6-20.19-1.53-37.5-2.67-20.35-1.35-37.98-.77a.81.81 0 0 0-.71 1.14c1.71 3.75-.88 5.24-3.78 7.63q-2.58 2.12-10.43 7.74-4.36 3.13-8.46-.53-.96-.87-6.4-5.3a.77.75-35 0 0-.74-.12l-12.62 4.52a.93.91 89.5 0 0-.57.59q-.64 2.06-1.83 8.67c-.87 4.83-3.88 4.77-8.48 4.96q-8.23.35-14.12-.06-3.82-.27-5.02-4.24-2.37-7.92-2.79-9.25a.83.83 0 0 0-.55-.55l-12.5-4.09a1.54 1.53-56.5 0 0-1.49.31l-7.1 6.16a4.23 4.22-61 0 1-3.44.99q-1.82-.29-5.02-2.39-9.41-6.17-12.41-8.85-2.01-1.8-1.44-4.29a.49.48-7.7 0 0-.7-.53q-17.49 9.26-37.35 13.45-8.64 1.82-13.87-.29a2.34 2.32-40.4 0 0-1.44-.11c-5.58 1.37-10.56 1.87-15.21-1.74a2 1.95-22.5 0 0-1-.4c-4.04-.45-7.63-.52-10.75-3.27-4.48-3.93-3.68-10.31-.57-14.78 3.24-4.64 7.54-7.62 12.27-10.81m230.55-425.4-2.21.68a.47.47 0 0 1-.6-.38c-1.23-7.54 4.84-18.71 9.3-24.64a.26.26 0 0 0-.14-.41q-38.78-10.64-78.86-9.32-11.3.24-22.05 1.88a.62.62 0 0 0-.4 1l1.22 1.59a.68.68 0 0 1-.12.94q-1.48 1.17-2.96.85c-11.15-2.47-23.85-6.47-34.57-2.82a.64.64 0 0 0-.2 1.1q.88.72 1.53 1c5.1 2.25 10.7 5.69 13.55 11.32a1.55 1.55 0 0 1-.92 2.18l-3.11.97q-8.89 1.52-16.03 7.24a.62.62 0 0 0 .3 1.1c3.32.47 15.78 1.17 15.17 6.41q-.14 1.21-2.55 2.96c-3.48 2.54-6.96 5.42-8.95 9a.51.51 0 0 0 .49.75c3.47-.3 9.19-1.05 11.52 1.18a1.78 1.53-46.5 0 1-.12 2.34c-3.74 3.98-14.51 6.51-19.28 4.7-3.23-1.22-4.07-5.77-3.21-9.01q1.36-5.13 5.06-9.03a.3.3 0 0 0-.22-.51c-13.38.09-13.06-11.86-4.3-17.98q4.67-3.25 8.92-4.68a.11.11 0 0 0 .04-.19l-4.17-3.37a.57.56-34.1 0 0-.54-.1q-32.37 10.58-57.22 32.07-21.38 18.21-38.02 43.53-14.7 22.37-26.79 49.49-7.97 17.88-22.41 31.05-3.66 3.34-12.87 11.13-19.07 16.12-30.14 38.32-13.78 27.5-10.42 58.13-.23 2.56.08 4.32 8.38 46.27 46.9 71.98 29.31 19.57 65.24 23.26 18.72 1.92 35.02.42 14.31-1.32 29.65-2.12a.39.39 0 0 0 .34-.53l-2.77-6.97q-2.17-5.07.19-7.19 1.72-1.55 13.8-10.4c3.37-2.47 5.49-2.52 8.71.07q1.17.93 6.7 5.74a.85.84 54.7 0 0 .84.15l12-4.3a.6.59.8 0 0 .36-.34q1.03-2.52 1.12-4.95a.56.56 0 0 0-.58-.59q-12.23.5-18.9-9.15-2.02-2.92-1.91-5.92a1.69 1.53-88.5 0 1 1.56-1.63q1.44.02 2.78 1.53c7.56 8.49 20.86 8.54 26.64-2.05a1.03 1.02 56.1 0 0 .12-.62l-.63-6.41a.85.84-84.5 0 0-.6-.74q-10.28-2.99-16.09-11.04-1.31-1.82-1.75-3.69-.67-2.86 1.33-3.33 6.13 5.16 10.96 7.91 10.22 5.83 19.87-1.44 5.57-4.19 10.43-9.33 1.93 2.91.16 6.43-4.68 9.34-14.83 13.8a.82.81 81.2 0 0-.48.66q-.75 6.38 4.23 10.39c6.93 5.6 16.97 6.76 23.56.14q1.5-1.5 4.39-5.11.7-.87 1.37-.95a2.23 2.08 87 0 1 2.32 2.24c-.05 6.41-3.94 11.4-9.37 14.59a.57.56-15.2 0 0-.27.46l-.26 12.54a.66.66 0 0 0 1.09.51q7.61-6.63 8.06-6.97 2.52-1.95 5.13-.39 5.12 3.05 15.12 10.35 1.72 1.25 2.04 3.46l-4.39 11.72a1.92 1.91-53.8 0 0 .28 1.84l7.38 9.56a.94.92-21 0 0 .83.36q4.37-.48 8.73-.81c6.67-.52 7.94 5.88 9.25 10.76a.67.67 0 0 0 1.08.34q8.45-7.08 17.09-16.66a.39.39 0 0 0-.22-.65c-5.77-1.14-9.55-1.63-13.58-3.66a.56.56 0 0 1 .04-1.02q1.79-.73 4.85-1.07 7.72-.86 15.74-.16 25.75 2.25 53.99 1.27c17.48-.61 33.87-3.47 49.28-8.31 26.59-8.34 51.87-24.48 68.92-46.58q21.89-28.39 24.01-64.48.51-8.82-.86-17.42-3.47-27.15-18.4-49.87-10.33-16.19-24.98-28.68-13.02-11.11-31.19-22.64-8.23-5.23-13.68-10.02-2.98-2.63-4.67-5.88a.68.67-13.3 0 1 .61-.98q.25.01.77.19 11.93 4.3 29.36 14.44c13.62 7.92 24.44 15.13 35.21 25.48q33.63 32.32 39.52 78.62 2.45 27.49-6.17 52.55c-18.6 54.05-70.6 85.88-125.28 92.14q-32.21 3.69-63.41-.81-3.29-.47-12.35-1.69a.96.95 23.4 0 0-.84.33q-.85 1-1.46 2.81-5.3 8.67-12.58 15.75-2.92 2.85-8.4 7.33-7.35 5.24-15.78 10.26-4.39 2.62-7.27 5.76a.8.79 20.2 0 0 .62 1.33l11.41-.4a1.06 1.06 0 0 1 .84 1.75q-.99 1.17-2.78 1.88-8.17 3.23-10.96 4.51-1.31.6-1.59 1.32a1.79 1.6 25.6 0 0 .87 2.08c4.43 2.38 8.63 2.07 16.14 3.02q.71.08 1.1.46a.83.83 0 0 1-.02 1.19c-2.47 2.33-7.55 3.04-10.41 3.29a.5.5 0 0 0-.22.92q2.16 1.38 6.06 2.55 10.59 3.21 21.44 3.39 40.48 2.12 75.82-15.52c8.54-4.26 17-9.88 25.08-15.42q1.28-.88 3.5-1.42.43-.11.68 1.03-3.7 8.46-10.46 14.36-13.16 11.48-29.88 18.13-38.8 14.89-79.62 6.32a.92.92 0 0 0-1.02.49q-1.3 2.55-3.42 2.66-3.85.19-11.51-1a.35.35 0 0 0-.34.13l-4.73 5.85a.15.15 0 0 0 .12.24q22.65-.91 44.66.79 32.1 2.48 46.25 3.21 17.62.91 33.58-.44a.25.25 0 0 0 .2-.36q-.13-.25-.59-.42-10.21-3.66-17.15-11.66.28-1.47 1.24-1.17 12.98 4.14 23.49 6.09c22.26 4.14 45.17 1.83 66.77-4.84q15.61-4.82 31.34-14.92 28.02-18 43.44-47.52 2.91-5.58 7.04-15.29 1.16-2.74 2.07-5.73.89-2.92 1.77-5.82 10.88-38.04 7.43-77.24-1.13-13.86-2.67-22.47-4.06-22.78-12.78-48.19-2.62-7.66-7.12-17.6-6.64-14.7-7.99-17.29-10.55-20.29-23.11-38.96-4.34-6.45-12.38-16.6-8.99-11.37-13.3-16.21-23.4-26.23-51.79-46.79a.32.32 0 0 0-.48.14l-2.91 6.86q-6.69 15.14-20.7 23.78c-3.23 1.99-14.17 5.92-16.85 1.67a1.72 1.67-35.3 0 1 .42-2.23q3.59-2.85 9.14-7 9.7-7.26 15.92-18.6 4.81-8.78 5.31-20.17 1-22.82-14.18-38.85-8.49-8.4-17.66-12c-19.9-7.81-40.92-.32-55 15.04q-8.7 9.5-16.05 19.5c-.7.95-1.94 1.98-2.9 2.77m-270.98-12.78q-13.28 21.47-5.82 45.04 6.03 19.06 23.81 28.15a.48.48 0 0 0 .63-.18l6.01-9.85q10.76-16.86 24.01-31.95a.68.68 0 0 0 .13-.7c-3.7-10.2-12.82-22.77-24.2-24.44q-4.71-.7-10.56 2.35-.49-.44-.51-1.28a1.55 1.51 62.1 0 1 .26-.89c5.54-8.19 15.5-7.97 23.72-3.74 7.44 3.83 14.25 11.92 19 19.8a.35.35 0 0 0 .53.08l15.95-14.59q.77-.11 1.8-1.51a.73.71 47.6 0 0 .03-.81q-6.97-11.21-17.25-18.09c-20.06-13.43-44.19-6.7-57.54 12.61m167.51 313.91q.62.19 1.22.11a.51.51 0 0 0 .36-.78q-.82-1.26-1.69-.83a.81.81 0 0 0 .11 1.5m25.64 14.64-.27-7.79a.98.98 0 0 0-1.23-.91l-4.02 1.06a2.53 2.5 43.2 0 1-1.15.03l-2.64-.56a.86.86 0 0 0-1.01 1.06l1.69 6.39a.96.94 88.4 0 0 .72.69l6.34 1.35a1.3 1.3 0 0 0 1.57-1.32m-94.24 43.56 15.81 9.83a.52.52 0 0 0 .74-.23c1.29-2.81 2.06-5.42 3.74-8.54 15.85-29.4 51.37-38.66 79.74-20.92 13.76 8.6 21.93 22.49 24.81 38.48a.37.37 0 0 0 .6.22q8.44-6.94 18.74-12.86a1.03 1.02-23.6 0 0 .47-1.19l-1.97-6.4q-.43-1.85-1.41-1.73-5.86.7-11.49 1.17a1.31 1.31 0 0 1-1.21-.61q-5.79-9.17-12.91-16.9l4.92-11.99q.21-.42.14-.83a.62.58 14 0 0-.26-.4l-9.73-6.5a.72.72 0 0 0-.88.06l-8.74 7.91a1.4 1.4 0 0 1-1.52.24q-8.89-4.05-18.91-6.3a2.98 2.97 1.1 0 1-2.27-2.35l-1.79-9.45a1.55 1.55 0 0 0-1.58-1.26l-11.91.41a1.21 1.21 0 0 0-1.14.95l-2.19 10.28a2.06 2.06 0 0 1-1.57 1.59q-10.43 2.37-17.47 5.72-2.22 1.06-4.13-.6-6.04-5.23-7.91-6.63a.79.79 0 0 0-.96 0l-9.47 7.31a.72.71-29.7 0 0-.23.83l4.13 9.98a3.11 3.09-40.2 0 1-.25 2.84q-1.11 1.75-3.85 5.13c-2.93 3.62-5.08 7.3-7.16 10.46a1.61 1.61 0 0 1-1.59.7l-10.51-1.65a1.1 1.1 0 0 0-1.16 1.58q.49.97 2.33 1.65m72.965-20.037a.4.4 0 0 0-.404-.396l-6.4.067a.4.4 0 0 0-.396.404l.17 16.24a.4.4 0 0 0 .404.395l6.4-.067a.4.4 0 0 0 .396-.404zM284.85 673.98q4.63 20.15 17.61 36.1c18.71 23.9 47.73 32.56 76.92 35.53a.19.19 0 0 0 .1-.36q-1.88-.86-3.04-2.12a4.34 4.17 11.1 0 1-.68-.97l-2.26-4.45a1.25 1.25 0 0 0-1.07-.69q-31.44-1.56-53.32-22.04-8.05-7.96-11.84-18.27-.61-1.67-.51-2.98a.44.44 0 0 1 .76-.25q5.15 5.93 12.75 12.22 21.55 17.85 48.93 21.56c8.82 1.17 20.2 1.15 28.05-3.13a.45.45 0 0 0-.1-.83c-4.01-1.07-8.15-1.91-11.37-4.3a.94.94 0 0 1 .05-1.55c1.32-.84 4.7-.47 9.16-.42 2.54.03 8.21-.13 10.04-1.84a1.79 1.37 37.6 0 0-.65-2.43q-3.87-2.43-11.2-5.32-1.48-.58-3.48-2.13a.98.98 0 0 1 .68-1.75l12.75.93a.55.55 0 0 0 .54-.79c-1.61-3.38-8.76-7.79-12.51-10.1q-2.48-1.52-10.43-7.76-7.12-5.84-11.29-13.48.5-2.63 4.68-.14a1.07 1.07 0 0 0 1.43-.33l2.44-3.64a1.12 1.1 13.5 0 1 .83-.5l2.91-.25 8.07 1.25a1.22 1.21 21.2 0 0 1.2-.52l2.42-3.63a.26.26 0 0 0-.27-.4l-11.97 2.21q-14.38 2.55-24.46 3.27-38.09 2.7-73.36-11.21a.39.39 0 0 0-.53.41zm195.73-7.85q-7.92-4.94-16.5-6.85a.69.69 0 0 0-.84.7l.55 16.12a.3.28 16.8 0 0 .12.21l3.95 2.64a.75.74-50.4 0 0 .93-.09l11.89-11.89a.54.54 0 0 0-.1-.84m-39.22 11.63q1.29-.56 2.5-1a.74.73 79.3 0 0 .48-.72l-.42-16.23a.44.44 0 0 0-.55-.41q-4.43 1.12-8.7 2.98t-8.12 4.34a.44.44 0 0 0-.07.68l11.6 11.37a.74.73 53.6 0 0 .85.13q1.14-.58 2.43-1.14m44.45-7.08a.35.35 0 0 0-.5 0l-11.42 11.42a.35.35 0 0 0-.02.49l4.19 4.62a.35.35 0 0 0 .49.03l12.23-11.07a.35.35 0 0 0 .01-.51zm-52.333 12.562a.61.61 0 0 0-.04-.862l-11.815-10.789a.61.61 0 0 0-.861.04l-3.898 4.267a.61.61 0 0 0 .04.862l11.815 10.789a.61.61 0 0 0 .861-.04zm65.403 11.508a1.32 1.32 0 0 0 1.22-1.82l-4.37-10.86a1.32 1.32 0 0 0-2.13-.47l-11.48 10.93a1.32 1.32 0 0 0 .91 2.28zm-86.41-13.38q-3.84 7.07-5.19 12.34a1.84 1.84 0 0 0 1.85 2.29l15.43-.54a1.28 1.28 0 0 0 .86-2.18l-12.04-12.04a.58.58 0 0 0-.91.13m19.33 22.26a22.16 21.58-4 0 0 12.99 20.87 22.14 21.59-4.6 0 0 25.35-5.1 22.18 21.56-6.8 0 0 5.83-12.86 22.18 21.64-6.1 0 0-4.97-15.57 22.16 21.6-5 0 0-12.16-7.27 22.15 21.6-4.9 0 0-27.04 19.93m69.4-2.272a.6.6 0 0 0-.608-.592l-16.339.228a.6.6 0 0 0-.591.609l.078 5.6a.6.6 0 0 0 .608.59l16.339-.227a.6.6 0 0 0 .591-.609zm-88.09 6.562a.31.31 0 0 0 .32.3l10.9-.38a.31.31 0 0 0 .3-.32l-.2-5.74a.31.31 0 0 0-.32-.3l-10.9.38a.31.31 0 0 0-.3.32zm86.32 5.64-16.04.55a.65.65 0 0 0-.45 1.1q5.8 6.19 12.33 11.13a.4.39 33.2 0 0 .58-.12q3.29-5.76 4.39-11.72a.8.79-85.9 0 0-.81-.94m-75.03.81-9.67.33a.72.72 0 0 0-.7.74q.1 4.3-3.01 6.75a1.14 1.13 59.9 0 0-.35 1.33l1.34 3.23a.69.69 0 0 0 1.1.25l12.01-10.86a1.02 1.02 0 0 0-.72-1.77m67.2 18.335a.76.76 0 0 0-.035-1.074l-11.362-10.632a.76.76 0 0 0-1.074.036l-3.95 4.22a.76.76 0 0 0 .036 1.074l11.362 10.632a.76.76 0 0 0 1.074-.036zm-62.071-11.14a.77.77 0 0 0-1.088-.05l-11.786 10.762a.77.77 0 0 0-.05 1.088l4.046 4.43a.77.77 0 0 0 1.088.05l11.786-10.762a.77.77 0 0 0 .05-1.088zM419.29 747.4q-8.91-7.24-14.35-16.67a.53.53 0 0 0-.79-.15q-3.48 2.74-7.75 4.31a.48.48 0 0 0-.22.75l10.57 13.7a2.86 2.86 0 0 1 .37 2.86l-4.06 9.64a1.4 1.4 0 0 0 .51 1.7l9.38 6.27a.86.85 40.4 0 0 1.05-.08l8.28-7.49a1.94 1.92-54.4 0 1 2.05-.35q9.69 4.15 19.06 6.51a2.15 2.13-.2 0 1 1.55 1.53l2.71 10.22a2 2 0 0 0 2.01 1.49l10.51-.36a1.24 1.24 0 0 0 1.18-.99l2.15-10.1a2.26 2.25-1.3 0 1 1.64-1.71q9.36-2.36 17.8-6.48a2.99 2.98 51.3 0 1 3.18.36l8.55 6.91a1.12 1.12 0 0 0 1.39.02l9.1-7.02a.86.85 59.8 0 0 .26-1.01c-1.41-3.22-4.18-7.57-4.76-11.26a2.01 2 61.6 0 1 .48-1.63q6-6.8 10.9-14.1c.32-.46.96-.9 1.46-1.2a.54.53 51.6 0 0 .09-.83q-3.87-3.81-5.7-8.11-1.23-1.49-1.47-.87-6.67 17.06-21.84 27.01c-9.01 5.91-20.5 8.68-31.07 8.77q-19.24.16-34.22-11.64m47.48-16.32q-1.29.58-2.5 1.03a.75.74 78.8 0 0-.48.73l.56 16.35a.45.44-8.3 0 0 .56.41q4.46-1.17 8.74-3.08 4.29-1.91 8.14-4.44a.45.44-39.7 0 0 .07-.69l-11.78-11.35a.75.74 53.1 0 0-.86-.13q-1.15.59-2.45 1.17m-31.9 15.9q4.9 2.11 8.96 3.01a.67.67 0 0 0 .81-.68l-.57-16.46a.49.48-81.6 0 0-.33-.45q-1.29-.46-2.21-.86-.93-.4-2.15-1.02a.49.48-51.7 0 0-.55.07l-12.37 10.87a.67.67 0 0 0 .07 1.06q3.44 2.34 8.34 4.46m22.97-12.6a.35.35 0 0 0-.35-.35h-6.6a.35.35 0 0 0-.35.35v16.14a.35.35 0 0 0 .35.35h6.6a.35.35 0 0 0 .35-.35zm-75.44 10.53a.37.36-43.8 0 0-.02.71q5.29 1.2 10.64.51a.48.48 0 0 0 .38-.66l-.71-1.73a.95.95 0 0 0-1.06-.57zm-49.28 6.61q-7.32 3.1-12.78 10.77a1.24 1.23 31 0 0 .46 1.82q1.26.63 3.15.46a1.56 1.56 0 0 0 1.01-.49c2.35-2.49 8.33-8.03 11.41-8.28a1.48 1.48 0 0 1 1.33 2.33l-5.38 7.64a1.42 1.42 0 0 0 1.03 2.24c3.36.31 6.14-.66 8.74-3.32q4.02-4.1 8.72-6.09a1.41 1.4-16.3 0 1 1.93 1.05q.03.16-.14 1-.11.55-.47.98-2.05 2.5-3.07 4.77a.76.76 0 0 0 .7 1.07c6.13.03 13.36-2.51 19.61-4.79q8.63-2.71 18.37-7.96a.38.38 0 0 0-.18-.71c-15.51-.18-30.51-1.65-45.38-6.37a1.5 1.5 0 0 0-1.11.08zm313.01 14.22-4.23 6.2a1.13 1.13 0 0 0 .55 1.69c2.08.76 3.58.34 5.21-1.53q3.44-3.92 7.73-6.85l2.85-.79q.92 1.7.04 3.05-3.54 5.4-4.64 7.53a1.49 1.49 0 0 0 1.23 2.17c3.3.23 6.49-1.49 9.15-4.17 1.74-1.76 6.35-6.02 8.62-6.16a1.24 1.24 0 0 1 1.14 1.87l-3.32 5.62a1.08 1.08 0 0 0 .72 1.62q1.32.26 3.06-.24 11.3-3.21 21.18-10.34 8.56-5.43 15.72-13.03a.49.49 0 0 0-.46-.82c-4.65.98-9.4 2.5-14.24 3.47q-18.65 3.73-38.5 1.45a2.72 2.72 0 0 0-2.09.66z"/><path fill="#edcd8d" d="M647.91 294.23q.03 1.49-2.06.15a2.12 1.85.5 0 1-.45-.4c-2.69-3.2-9.13-5.34-12.9-6.22q-15.15-3.52-30.36.13-3.39.79-7.53 2.75-13.87 6.58-23.89 15.82-1.51 1.39-3.15 3.55c-2.94 3.87-6.36 7.01-9.94 10.2q-.35.32-.8.1-.48-.24-.53-.77c.96-.79 2.2-1.82 2.9-2.77q7.35-10 16.05-19.5c14.08-15.36 35.1-22.85 55-15.04q9.17 3.6 17.66 12"/><path fill="#f3bd4b" d="M556.3 319.54q.05.53.53.77.45.22.8-.1c3.58-3.19 7-6.33 9.94-10.2q1.64-2.16 3.15-3.55 10.02-9.24 23.89-15.82 4.14-1.96 7.53-2.75 2.42 8.39 9.49 14.3c-15.58 6.67-28.72 23.78-31.72 40.3-.78 4.29 5.34 4.73 9.04 5.54q10.13 2.23 21.38 12.29l7.52 7.38q5.66 7.9 13.23 14.4 4.42 3.79 8.62 5.18 7.5 2.5 14.85 2.31c9.64-.25 18.09-8.2 18.67-17.87q.01-.16-.43-6.36-.25-3.45.57-6.49 11.24 10.16 22.52 19.27c5.68 4.58 11.26 9.64 16.26 15.21 5.8 6.46 8.77 9.75 14.5 15.86q6.31 6.72 8.67 10.34c5.55 8.47 9.49 14.37 15.07 21.76q4.24 5.62 6.16 9.4 2.2 4.33 4.57 8.47 1.69 2.97 2.53 4.77 1.13 2.41 2.31 4.9a5.47 5.2-77.3 0 0 .55.92q9.11 12.27 13.41 26.74.69 2.35 3.25 7.76c3.38 7.16 5.68 15.13 8.34 21.74 3.35 8.3 5.18 17.23 6.48 25.68q.51 3.33 2.17 11 1.1 5.12 1.58 11.08.37 4.63.63 6.84a.2.2 0 0 0 .4-.01l.62-7.86q3.45 39.2-7.43 77.24c-3.13 5.47-7.91 11.27-10.46 15.49q-3.88 6.41-5.5 8.52c-4.71 6.14-8.42 10.5-14.81 16.2-3.71 3.3-7.45 7.18-11.23 10.05q-9.54 7.24-19.07 12.38-14.89 8.04-25.38 12.09-32.99 12.78-68.18 8.07a.59.59 0 0 1-.36-.97q9.41-10.96 12.26-25.26.7-3.47-.52-5.67-.25-1.14-.68-1.03-2.22.54-3.5 1.42c-8.08 5.54-16.54 11.16-25.08 15.42q-35.34 17.64-75.82 15.52c4.3-6.42 5.19-12.8 4.27-20.18q-.61-4.89-2.19-8.69-3.55-8.53-11.53-14.44 5.48-4.48 8.4-7.33 7.28-7.08 12.58-15.75 22.83 6.44 36.19 9.06 31.26 6.13 65.28 1.4 38.96-5.43 67.87-31.02c3.48-3.09 6.39-6.47 9.59-9.49q3.23-3.05 6.75-7.55 14.96-19.15 21.82-41.75c1.58-5.19 2.48-12.45 3.69-17.09q1.45-5.55 1.48-12.42.05-12.14-.33-17.17-.1-1.31-.74-2.88a4.72 4.67 34 0 1-.34-1.7q-.03-7.52-1.75-14.72-5.89-46.3-39.52-78.62c-10.77-10.35-21.59-17.56-35.21-25.48q-17.43-10.14-29.36-14.44-.52-.18-.77-.19a.68.67-13.3 0 0-.61.98q1.69 3.25 4.67 5.88 5.45 4.79 13.68 10.02 18.17 11.53 31.19 22.64 14.65 12.49 24.98 28.68-.59 1.75-.2 3.96a2.54 2.54 0 0 1-.14 1.36c-3.5 8.95-6.17 17.75-10.96 26.6q-20.47 37.77-57.45 60.32-6.88-9.97-13.53-19.22c-9.88-13.76-25.87-30.18-44.81-23.33-13.1 4.74-20.91 17.58-24.54 30.72q-3.63 13.12-5.77 33.47c-13.78-.11-25.33-1.95-39.77-4.44q-3.68-.64-7.11-2.23l24.95-6.41a.38.38 0 0 0 .1-.7q-.3-.18-.79-.2-9.38-.27-19.19.63-5.8.54-16.09 3.69-16.22-6.11-31.2-12.35c-8.31-3.47-15.83-5.81-23.38-7.42q-18.26-3.91-35.42 3.02-5.39 2.17-13.22 7.63-8.99 6.27-19.44 12.12-2.31 1.3-4.32 2.22-2.15.98-4.42 2.07-9.06-3.5-15.69-4.6-9.92-1.64-26.51-.81-.7.04-1.14.31a.42.42 0 0 0 .16.77q18.54 2.81 37.48 8.6-14 5.93-28.4 8.26-10.82 1.76-21.39.92-10.99-.87-21.21-3.26c-28.25-6.59-53.59-25.47-68.18-50.8q-4.7-8.16-6.69-12.54-4.95-10.9-7.49-22.97a3.11 3.05-48.8 0 1-.05-.89l.18-1.91q2.77-4.34 3.78-5.44 10.11-10.98 13.28-14.23 4.84-4.95 6.87-6.37 15.88-11.11 27.59-19.93 9.94-7.49 15.57-18.38 4.97-9.58 7.26-16.26c6.31-18.32 11.58-34.7 20.95-49.74q2.05-3.3 4.53-7.97 3.34-6.3 4.76-7.83 2.23-2.4 6.57-7.92 5.1-6.49 7.67-8.79 5.18-4.64 10.13-9.35a.87.81 79.9 0 0 .22-.34q.37-1.16-.59-1.64 24.85-21.49 57.22-32.07a.57.56-34.1 0 1 .54.1l4.17 3.37a.11.11 0 0 1-.04.19q-4.25 1.43-8.92 4.68c-8.76 6.12-9.08 18.07 4.3 17.98a.3.3 0 0 1 .22.51q-3.7 3.9-5.06 9.03c-.86 3.24-.02 7.79 3.21 9.01 4.77 1.81 15.54-.72 19.28-4.7a1.78 1.53-46.5 0 0 .12-2.34c-2.33-2.23-8.05-1.48-11.52-1.18a.51.51 0 0 1-.49-.75c1.99-3.58 5.47-6.46 8.95-9q2.41-1.75 2.55-2.96c.61-5.24-11.85-5.94-15.17-6.41a.62.62 0 0 1-.3-1.1q7.14-5.72 16.03-7.24l3.8.41a.92.91 5.2 0 0 1.01-.84l.29-3.94a1.2 1.18 28.3 0 0-.25-.81l-4.98-6.46a.94.94 0 0 1 .54-1.49c6.32-1.42 11.79 0 19.98 1.35q.56.09 5.63-.07a1.02 1.02 0 0 0 .8-.44l1.97-2.95a1.88 1.86 13.1 0 1 1.31-.81q9.09-1.14 17.93-3.96 40.08-1.32 78.86 9.32a.26.26 0 0 1 .14.41c-4.46 5.93-10.53 17.1-9.3 24.64a.47.47 0 0 0 .6.38zm-163.107 4.087a6.57 5.67-40 0 0-8.678-.12 6.57 5.67-40 0 0-1.388 8.566 6.57 5.67-40 0 0 8.678.12 6.57 5.67-40 0 0 1.388-8.566M358.03 359.94c5.92 4.73 15.95-4.78 19.14-9.5q3.53-5.21 1.84-11.37-.51-1.87-1.91-2.99-1.41-1.12-3.34-1.21-6.38-.28-10.69 4.31c-3.9 4.15-10.96 16.03-5.04 20.76m144.664 86.172a11.2 7.04-56.3 0 0-12.071 5.412 11.2 7.04-56.3 0 0-.357 13.224 11.2 7.04-56.3 0 0 12.071-5.412 11.2 7.04-56.3 0 0 .357-13.224m-109.75 7.411a10.9 6.91-128.7 0 0 1.423 12.827 10.9 6.91-128.7 0 0 12.208 4.187 10.9 6.91-128.7 0 0-1.422-12.827 10.9 6.91-128.7 0 0-12.208-4.187m130.992 16.435a37.91 33.92-104.8 0 0-23.11 45.317 37.91 33.92-104.8 0 0 42.478 27.987 37.91 33.92-104.8 0 0 23.11-45.317 37.91 33.92-104.8 0 0-42.478-27.987M634.05 480.53q-4.71 2.8-8.34 8.45c-2.27 3.54-1.31 7.68 3.58 7.43 4.06-.21 8.11-2.01 11.73-4.16 3.62-2.16 7.13-4.86 9.25-8.33 2.56-4.18-.62-7-4.81-6.69q-6.7.5-11.41 3.3m-258.066-2.41a36.61 32.03-88.1 0 0-33.226 35.528 36.61 32.03-88.1 0 0 30.798 37.652 36.61 32.03-88.1 0 0 33.226-35.528 36.61 32.03-88.1 0 0-30.798-37.652m-91.902 7.656a14.04 6.59-147.4 0 0 8.278 13.116 14.04 6.59-147.4 0 0 15.378 2.012 14.04 6.59-147.4 0 0-8.277-13.116 14.04 6.59-147.4 0 0-15.379-2.012m491.495 119.243a10.33 4.97-82.9 0 0-6.209 9.637 10.33 4.97-82.9 0 0 3.655 10.865 10.33 4.97-82.9 0 0 6.209-9.637 10.33 4.97-82.9 0 0-3.655-10.865m-6.367 32.746a9.83 4.9-72.9 0 0-7.573 7.954 9.83 4.9-72.9 0 0 1.793 10.836 9.83 4.9-72.9 0 0 7.573-7.954 9.83 4.9-72.9 0 0-1.793-10.836m-10.927 30.812a9.4 4.93-60.4 0 0-8.93 5.738 9.4 4.93-60.4 0 0-.356 10.608 9.4 4.93-60.4 0 0 8.93-5.738 9.4 4.93-60.4 0 0 .356-10.608"/><path fill="#edcd8d" d="M483.79 285.47q-8.84 2.82-17.93 3.96a1.88 1.86 13.1 0 0-1.31.81l-1.97 2.95a1.02 1.02 0 0 1-.8.44q-5.07.16-5.63.07c-8.19-1.35-13.66-2.77-19.98-1.35a.94.94 0 0 0-.54 1.49l4.98 6.46a1.2 1.18 28.3 0 1 .25.81l-.29 3.94a.92.91 5.2 0 1-1.01.84l-3.8-.41 3.11-.97a1.55 1.55 0 0 0 .92-2.18c-2.85-5.63-8.45-9.07-13.55-11.32q-.65-.28-1.53-1a.64.64 0 0 1 .2-1.1c10.72-3.65 23.42.35 34.57 2.82q1.48.32 2.96-.85a.68.68 0 0 0 .12-.94l-1.22-1.59a.62.62 0 0 1 .4-1q10.75-1.64 22.05-1.88"/><path fill="#eb9a39" d="M647.91 294.23q15.18 16.03 14.18 38.85-.5 11.39-5.31 20.17-6.22 11.34-15.92 18.6-5.55 4.15-9.14 7a1.72 1.67-35.3 0 0-.42 2.23c2.68 4.25 13.62.32 16.85-1.67q14.01-8.64 20.7-23.78 2.82 2.96 4.51 3.24-.82 3.04-.57 6.49.44 6.2.43 6.36c-.58 9.67-9.03 17.62-18.67 17.87q-7.35.19-14.85-2.31-4.2-1.39-8.62-5.18-7.57-6.5-13.23-14.4 10.96-5.26 16.24-14.37 3.42-5.9 5.36-16.4c1.08-5.83.22-12.39-1.2-17.69q-.95-3.54-2.5-7.24-1.59-9.07-11.99-10.83-5.8-.98-12.13 1.02-7.07-5.91-9.49-14.3 15.21-3.65 30.36-.13c3.77.88 10.21 3.02 12.9 6.22a2.12 1.85.5 0 0 .45.4q2.09 1.34 2.06-.15"/><path fill="#edcd8d" d="M358.28 314.56q-4.78-6.49-11.97-11.6c-5.36-3.83-10.94-5.54-17.17-7.79q-4.75-1.72-10.62-1.39-10.46.59-18.74 3.65c-5.37 1.99-9.18 6.27-13.21 10.11a.71.7-26.4 0 1-1.18-.39l-.07-.39c13.35-19.31 37.48-26.04 57.54-12.61q10.28 6.88 17.25 18.09a.73.71 47.6 0 1-.03.81q-1.03 1.4-1.8 1.51"/><path fill="#f3bd4b" d="m358.28 314.56-15.95 14.59a.35.35 0 0 1-.53-.08c-4.75-7.88-11.56-15.97-19-19.8-8.22-4.23-18.18-4.45-23.72 3.74a1.55 1.51 62.1 0 0-.26.89q.02.84.51 1.28-4.03 8.82-5.04 19.32c-.9 9.33 3.76 19.92 8.8 27.51a5.31 5.23 4 0 0 .92 1.04q3.51 3.02 5.94 6.87l-6.01 9.85a.48.48 0 0 1-.63.18q-17.78-9.09-23.81-28.15-7.46-23.57 5.82-45.04l.07.39a.71.7-26.4 0 0 1.18.39c4.03-3.84 7.84-8.12 13.21-10.11q8.28-3.06 18.74-3.65 5.87-.33 10.62 1.39c6.23 2.25 11.81 3.96 17.17 7.79q7.19 5.11 11.97 11.6"/><path fill="#040303" d="M635.75 312q-11.66-7.62-21.84-1.4c-10.72 6.54-17.91 17.91-22.77 29.4a.74.74 0 0 0 .55 1.01q8.62 1.5 14.85 7.43 5.37 5.1 3.79 11.88-11.25-10.06-21.38-12.29c-3.7-.81-9.82-1.25-9.04-5.54 3-16.52 16.14-33.63 31.72-40.3q6.33-2 12.13-1.02 10.4 1.76 11.99 10.83"/><path fill="#f2ae9b" d="M635.75 312q1.55 3.7 2.5 7.24c1.42 5.3 2.28 11.86 1.2 17.69q-1.94 10.5-5.36 16.4-5.28 9.11-16.24 14.37l-7.52-7.38q1.58-6.78-3.79-11.88-6.23-5.93-14.85-7.43a.74.74 0 0 1-.55-1.01c4.86-11.49 12.05-22.86 22.77-29.4q10.18-6.22 21.84 1.4m-325.8 57.92q-2.43-3.85-5.94-6.87a5.31 5.23 4 0 1-.92-1.04c-5.04-7.59-9.7-18.18-8.8-27.51q1.01-10.5 5.04-19.32 5.85-3.05 10.56-2.35c11.38 1.67 20.5 14.24 24.2 24.44a.68.68 0 0 1-.13.7q-13.25 15.09-24.01 31.95"/><ellipse fill="#edcd8d" rx="6.57" ry="5.67" transform="rotate(-40 644.46 -369.305)"/><path fill="#edcd8d" d="M360.67 328.36q.96.48.59 1.64a.87.81 79.9 0 1-.22.34q-4.95 4.71-10.13 9.35-2.57 2.3-7.67 8.79-4.34 5.52-6.57 7.92-1.42 1.53-4.76 7.83-2.48 4.67-4.53 7.97c-9.37 15.04-14.64 31.42-20.95 49.74q-2.29 6.68-7.26 16.26-5.63 10.89-15.57 18.38-11.71 8.82-27.59 19.93-2.03 1.42-6.87 6.37-3.17 3.25-13.28 14.23-1.01 1.1-3.78 5.44l-1.64-.67q11.07-22.2 30.14-38.32 9.21-7.79 12.87-11.13 14.44-13.17 22.41-31.05 12.09-27.12 26.79-49.49 16.64-25.32 38.02-43.53m16.43 7.72q1.4 1.12 1.91 2.99 1.69 6.16-1.84 11.37c-3.19 4.72-13.22 14.23-19.14 9.5s1.14-16.61 5.04-20.76q4.31-4.59 10.69-4.31 1.93.09 3.34 1.21m426.28 236.66-.62 7.86a.2.2 0 0 1-.4.01q-.26-2.21-.63-6.84-.48-5.96-1.58-11.08-1.66-7.67-2.17-11c-1.3-8.45-3.13-17.38-6.48-25.68-2.66-6.61-4.96-14.58-8.34-21.74q-2.56-5.41-3.25-7.76-4.3-14.47-13.41-26.74a5.47 5.2-77.3 0 1-.55-.92q-1.18-2.49-2.31-4.9-.84-1.8-2.53-4.77-2.37-4.14-4.57-8.47-1.92-3.78-6.16-9.4c-5.58-7.39-9.52-13.29-15.07-21.76q-2.36-3.62-8.67-10.34c-5.73-6.11-8.7-9.4-14.5-15.86-5-5.57-10.58-10.63-16.26-15.21q-11.28-9.11-22.52-19.27-1.69-.28-4.51-3.24l2.91-6.86a.32.32 0 0 1 .48-.14q28.39 20.56 51.79 46.79 4.31 4.84 13.3 16.21 8.04 10.15 12.38 16.6 12.56 18.67 23.11 38.96 1.35 2.59 7.99 17.29 4.5 9.94 7.12 17.6 8.72 25.41 12.78 48.19 1.54 8.61 2.67 22.47"/><ellipse fill="#040303" rx="11.2" ry="7.04" transform="rotate(-56.3 673.818 -236.222)"/><ellipse fill="#040303" rx="10.9" ry="6.91" transform="rotate(231.3 310.812 135.034)"/><path fill="#040303" d="M523.936 469.958a37.91 33.92-104.8 0 1 42.479 27.987 37.91 33.92-104.8 0 1-23.111 45.317 37.91 33.92-104.8 0 1-42.479-27.987 37.91 33.92-104.8 0 1 23.111-45.317m-7.16 15.222a10.3 9.09-98.4 0 0-7.488 11.518 10.3 9.09-98.4 0 0 10.497 8.862 10.3 9.09-98.4 0 0 7.488-11.518 10.3 9.09-98.4 0 0-10.498-8.861"/><path fill="#fdf0cc" d="M737.71 469.96q14.93 22.72 18.4 49.87c-.24 5.41.13 10.8-2.24 15.78q-1.74 3.69-1.9 4.29c-1.17 4.39-2.12 5.73-4.32 11.13q-1.52 3.74-3.33 6.55-8.74 13.6-12.68 18.8-10.81 14.25-24.43 25.09-13.29 10.57-25.78 16.95c-5.94 3.03-11.61 6.32-17.83 8.63q-30.61 11.39-59.27 14.82-23.78 2.85-53.74 2.97-5.02.02-9.17.26-6.89.41-9.17.26-13.34-.88-18.56-.56-.32-2.21-2.04-3.46-10-7.3-15.12-10.35-2.61-1.56-5.13.39-.45.34-8.06 6.97a.66.66 0 0 1-1.09-.51l.26-12.54a.57.56-15.2 0 1 .27-.46c5.43-3.19 9.32-8.18 9.37-14.59a2.23 2.08 87 0 0-2.32-2.24q-.67.08-1.37.95-2.89 3.61-4.39 5.11c-6.59 6.62-16.63 5.46-23.56-.14q-4.98-4.01-4.23-10.39a.82.81 81.2 0 1 .48-.66q10.15-4.46 14.83-13.8 1.77-3.52-.16-6.43-3.66-4.42-11.43-5.4-11.57-1.46-22.28 1.71-5.08 1.51-7.55 6.55-2 .47-1.33 3.33.44 1.87 1.75 3.69 5.81 8.05 16.09 11.04a.85.84-84.5 0 1 .6.74l.63 6.41a1.03 1.02 56.1 0 1-.12.62c-5.78 10.59-19.08 10.54-26.64 2.05q-1.34-1.51-2.78-1.53a1.69 1.53-88.5 0 0-1.56 1.63q-.11 3 1.91 5.92 6.67 9.65 18.9 9.15a.56.56 0 0 1 .58.59q-.09 2.43-1.12 4.95a.6.59.8 0 1-.36.34l-12 4.3a.85.84 54.7 0 1-.84-.15q-5.53-4.81-6.7-5.74c-3.22-2.59-5.34-2.54-8.71-.07q-12.08 8.85-13.8 10.4-2.36 2.12-.19 7.19-23.71 1.08-39.3-.74-12.55-1.47-25.24-3.59-5.45-.91-10.8-2.7-12.85-4.3-23.81-8.25c-4.45-1.61-10.92-4.57-13.77-6.39q-4.36-2.79-15.82-10.06c-6.46-4.11-14.21-10.1-19.07-15.82q-7.45-8.77-8.22-9.62-4.69-5.2-7.44-10.17-5.33-9.64-7.64-14.4-1.99-4.08-3.35-8.62-3.36-30.63 10.42-58.13l1.64.67-.18 1.91a3.11 3.05-48.8 0 0 .05.89q2.54 12.07 7.49 22.97 1.99 4.38 6.69 12.54c14.59 25.33 39.93 44.21 68.18 50.8q10.22 2.39 21.21 3.26 10.57.84 21.39-.92 14.4-2.33 28.4-8.26l24.34 8.14a.35.34-5.8 0 0 .41-.5q-1.09-1.84-2.81-3.13-7.14-5.35-16.24-8.78 2.27-1.09 4.42-2.07 2.01-.92 4.32-2.22 10.45-5.85 19.44-12.12 7.83-5.46 13.22-7.63 17.16-6.93 35.42-3.02c7.55 1.61 15.07 3.95 23.38 7.42q14.98 6.24 31.2 12.35c-9.4 3.87-18.81 8.21-25.13 15.47a.76.76 0 0 0 .21 1.17q.07.04.5-.13 3.79-1.44 13.79-5.88 10.66-4.73 21.65-7.64 3.43 1.59 7.11 2.23c14.44 2.49 25.99 4.33 39.77 4.44q38.47.88 73.45-14.08 6.58-2.81 15.2-7.56 36.98-22.55 57.45-60.32c4.79-8.85 7.46-17.65 10.96-26.6a2.54 2.54 0 0 0 .14-1.36q-.39-2.21.2-3.96m-174.14 139.8a.33.33 0 0 0 .24-.6q-25.69-14.38-54.97-12.35-4.66.32-7.79 1.54a.99.99 0 0 0 .03 1.86q1.61.58 3.2.7 31.22 2.18 59.29 8.85m-219.35 7.38q27.99-8.52 59.46-12.69 1.61-.22 3.2-.91a1 1 0 0 0-.09-1.88q-3.24-1.04-7.98-1.07-29.77-.22-54.87 15.95a.33.33 0 0 0 .28.6"/><path fill="#fdf0cc" d="M641.02 492.25c-3.62 2.15-7.67 3.95-11.73 4.16-4.89.25-5.85-3.89-3.58-7.43q3.63-5.65 8.34-8.45t11.41-3.3c4.19-.31 7.37 2.51 4.81 6.69-2.12 3.47-5.63 6.17-9.25 8.33"/><path fill="#040303" d="M375.984 478.12a36.61 32.03-88.1 0 1 30.798 37.652 36.61 32.03-88.1 0 1-33.226 35.528 36.61 32.03-88.1 0 1-30.798-37.652 36.61 32.03-88.1 0 1 33.226-35.528m9.858 13.53a10.38 9.11-90.1 0 0-9.092 10.396 10.38 9.11-90.1 0 0 9.128 10.364 10.38 9.11-90.1 0 0 9.092-10.396 10.38 9.11-90.1 0 0-9.128-10.364"/><ellipse fill="#fdf0cc" rx="14.04" ry="6.59" transform="rotate(212.6 220.086 203.405)"/><ellipse fill="#fdfdfd" rx="10.3" ry="9.09" transform="rotate(-98.4 472.936 24.001)"/><ellipse fill="#fdfdfd" rx="10.38" ry="9.11" transform="rotate(-90.1 443.507 58.421)"/><path fill="#edcd8d" d="M668.96 562.2q-8.62 4.75-15.2 7.56-34.98 14.96-73.45 14.08 2.14-20.35 5.77-33.47c3.63-13.14 11.44-25.98 24.54-30.72 18.94-6.85 34.93 9.57 44.81 23.33q6.65 9.25 13.53 19.22m-155.27 82.6q5.22-.32 18.56.56 2.28.15 9.17-.26 4.15-.24 9.17-.26 29.96-.12 53.74-2.97 28.66-3.43 59.27-14.82c6.22-2.31 11.89-5.6 17.83-8.63q12.49-6.38 25.78-16.95 13.62-10.84 24.43-25.09 3.94-5.2 12.68-18.8 1.81-2.81 3.33-6.55c2.2-5.4 3.15-6.74 4.32-11.13q.16-.6 1.9-4.29c2.37-4.98 2-10.37 2.24-15.78q1.37 8.6.86 17.42-2.12 36.09-24.01 64.48c-17.05 22.1-42.33 38.24-68.92 46.58-15.41 4.84-31.8 7.7-49.28 8.31q-28.24.98-53.99-1.27-8.02-.7-15.74.16-3.06.34-4.85 1.07a.56.56 0 0 0-.04 1.02c4.03 2.03 7.81 2.52 13.58 3.66a.39.39 0 0 1 .22.65q-8.64 9.58-17.09 16.66a.67.67 0 0 1-1.08-.34c-1.31-4.88-2.58-11.28-9.25-10.76q-4.36.33-8.73.81a.94.92-21 0 1-.83-.36l-7.38-9.56a1.92 1.91-53.8 0 1-.28-1.84z"/><path fill="#eb9a39" d="M559.15 665.82q.61-1.81 1.46-2.81a.96.95 23.4 0 1 .84-.33q9.06 1.22 12.35 1.69 31.2 4.5 63.41.81c54.68-6.26 106.68-38.09 125.28-92.14q8.62-25.06 6.17-52.55 1.72 7.2 1.75 14.72a4.72 4.67 34 0 0 .34 1.7q.64 1.57.74 2.88.38 5.03.33 17.17-.03 6.87-1.48 12.42c-1.21 4.64-2.11 11.9-3.69 17.09q-6.86 22.6-21.82 41.75-3.52 4.5-6.75 7.55c-3.2 3.02-6.11 6.4-9.59 9.49q-28.91 25.59-67.87 31.02-34.02 4.73-65.28-1.4-13.36-2.62-36.19-9.06"/><path fill="#edcd8d" d="m394.48 650.37 2.77 6.97a.39.39 0 0 1-.34.53q-15.34.8-29.65 2.12-16.3 1.5-35.02-.42-35.93-3.69-65.24-23.26-38.52-25.71-46.9-71.98-.31-1.76-.08-4.32 1.36 4.54 3.35 8.62 2.31 4.76 7.64 14.4 2.75 4.97 7.44 10.17.77.85 8.22 9.62c4.86 5.72 12.61 11.71 19.07 15.82q11.46 7.27 15.82 10.06c2.85 1.82 9.32 4.78 13.77 6.39q10.96 3.95 23.81 8.25 5.35 1.79 10.8 2.7 12.69 2.12 25.24 3.59 15.59 1.82 39.3.74"/><path fill="#040303" d="M533.43 577.17q-10.99 2.91-21.65 7.64-10 4.44-13.79 5.88-.43.17-.5.13a.76.76 0 0 1-.21-1.17c6.32-7.26 15.73-11.6 25.13-15.47q10.29-3.15 16.09-3.69 9.81-.9 19.19-.63.49.02.79.2a.38.38 0 0 1-.1.7zm-142.42 4.3q9.1 3.43 16.24 8.78 1.72 1.29 2.81 3.13a.35.34-5.8 0 1-.41.5l-24.34-8.14q-18.94-5.79-37.48-8.6a.42.42 0 0 1-.16-.77q.44-.27 1.14-.31 16.59-.83 26.51.81 6.63 1.1 15.69 4.6"/><path fill="#f2ae9b" d="M471.43 582.65q-4.86 5.14-10.43 9.33-9.65 7.27-19.87 1.44-4.83-2.75-10.96-7.91 2.47-5.04 7.55-6.55 10.71-3.17 22.28-1.71 7.77.98 11.43 5.4m-24.804 1.036a4.86 3.05-4.3 0 0-5.075-2.677 4.86 3.05-4.3 0 0-4.617 3.405 4.86 3.05-4.3 0 0 5.075 2.677 4.86 3.05-4.3 0 0 4.617-3.405"/><ellipse fill="#fdfdfd" rx="4.86" ry="3.05" transform="rotate(-4.3 7999.47 -5591.754)"/><path fill="#040303" d="M563.57 609.76q-28.07-6.67-59.29-8.85-1.59-.12-3.2-.7a.99.99 0 0 1-.03-1.86q3.13-1.22 7.79-1.54 29.28-2.03 54.97 12.35a.33.33 0 0 1-.24.6m-219.35 7.38a.33.33 0 0 1-.28-.6q25.1-16.17 54.87-15.95 4.74.03 7.98 1.07a1 1 0 0 1 .09 1.88q-1.59.69-3.2.91-31.47 4.17-59.46 12.69"/><ellipse fill="#040303" rx="10.33" ry="4.97" transform="rotate(-82.9 735.48 -130.729)"/><path fill="#93979d" d="M452.83 620.67a.81.81 0 0 1-.11-1.5q.87-.43 1.69.83a.51.51 0 0 1-.36.78q-.6.08-1.22-.11"/><path fill="#fdfdfd" d="m476.9 636.63-6.34-1.35a.96.94 88.4 0 1-.72-.69l-1.69-6.39a.86.86 0 0 1 1.01-1.06l2.64.56a2.53 2.5 43.2 0 0 1.15-.03l4.02-1.06a.98.98 0 0 1 1.23.91l.27 7.79a1.3 1.3 0 0 1-1.57 1.32"/><path fill="#c5c9cd" d="M504.81 647.2q-1.67-.34-3.2-1.45a.28.22-7 0 0-.1-.06l-5.03-2.36a2.19 2.18 36.4 0 0-2.41.36l-8.02 7.25a1.03 1.01 34.5 0 1-1.07.19q-8.34-3.31-12.94-4.92c-7.69-2.7-14.95-1.74-22.13-1.49q-6.84.23-9.81.85-7.43 1.54-15.71 6.31a2.23 2.12 4.8 0 0-.56.45l-3.2 3.59a.86.84-75.2 0 1-.44.26q-3.83.86-6.19 3.97a3.64 3.62-88.3 0 1-.91.86q-4.77 3.14-6 4.84-4.77 6.58-10.33 14.44a1.53 1.52-67.6 0 1-1.48.62q-3.37-.52-6.99-1.9-1.63-.63-4.06-.14-1.84-.68-2.33-1.65a1.1 1.1 0 0 1 1.16-1.58l10.51 1.65a1.61 1.61 0 0 0 1.59-.7c2.08-3.16 4.23-6.84 7.16-10.46q2.74-3.38 3.85-5.13a3.11 3.09-40.2 0 0 .25-2.84l-4.13-9.98a.72.71-29.7 0 1 .23-.83l9.47-7.31a.79.79 0 0 1 .96 0q1.87 1.4 7.91 6.63 1.91 1.66 4.13.6 7.04-3.35 17.47-5.72a2.06 2.06 0 0 0 1.57-1.59l2.19-10.28a1.21 1.21 0 0 1 1.14-.95l11.91-.41a1.55 1.55 0 0 1 1.58 1.26l1.79 9.45a2.98 2.97 1.1 0 0 2.27 2.35q10.02 2.25 18.91 6.3a1.4 1.4 0 0 0 1.52-.24l8.74-7.91a.72.72 0 0 1 .88-.06l9.73 6.5a.62.58 14 0 1 .26.4q.07.41-.14.83"/><ellipse fill="#040303" rx="9.83" ry="4.9" transform="rotate(-72.9 821.252 -195.177)"/><path fill="#93979d" d="m504.81 647.2-4.92 11.99q-1.16-1.61-.42 1.17a3.1 3.07-75 0 0 .78 1.37q6.9 7.14 11.44 15.79a2.51 2.5 72.5 0 0 2.52 1.32l12.7-1.58 1.97 6.4a1.03 1.02-23.6 0 1-.47 1.19q-10.3 5.92-18.74 12.86a.37.37 0 0 1-.6-.22c-2.88-15.99-11.05-29.88-24.81-38.48-28.37-17.74-63.89-8.48-79.74 20.92-1.68 3.12-2.45 5.73-3.74 8.54a.52.52 0 0 1-.74.23l-15.81-9.83q2.43-.49 4.06.14 3.62 1.38 6.99 1.9a1.53 1.52-67.6 0 0 1.48-.62q5.56-7.86 10.33-14.44 1.23-1.7 6-4.84a3.64 3.62-88.3 0 0 .91-.86q2.36-3.11 6.19-3.97a.86.84-75.2 0 0 .44-.26l3.2-3.59a2.23 2.12 4.8 0 1 .56-.45q8.28-4.77 15.71-6.31 2.97-.62 9.81-.85c7.18-.25 14.44-1.21 22.13 1.49q4.6 1.61 12.94 4.92a1.03 1.01 34.5 0 0 1.07-.19l8.02-7.25a2.19 2.18 36.4 0 1 2.41-.36l5.03 2.36a.28.22-7 0 1 .1.06q1.53 1.11 3.2 1.45"/><path fill="#eb9a39" d="M795.95 649.98q-.88 2.9-1.77 5.82-.91 2.99-2.07 5.73-4.13 9.71-7.04 15.29-15.42 29.52-43.44 47.52-15.73 10.1-31.34 14.92c-21.6 6.67-44.51 8.98-66.77 4.84q-10.51-1.95-23.49-6.09-.96-.3-1.24 1.17l-6.43-5.81q16.72-6.65 29.88-18.13 6.76-5.9 10.46-14.36 1.22 2.2.52 5.67-2.85 14.3-12.26 25.26a.59.59 0 0 0 .36.97q35.19 4.71 68.18-8.07 10.49-4.05 25.38-12.09 9.53-5.14 19.07-12.38c3.78-2.87 7.52-6.75 11.23-10.05 6.39-5.7 10.1-10.06 14.81-16.2q1.62-2.11 5.5-8.52c2.55-4.22 7.33-10.02 10.46-15.49"/><rect width="7.2" height="17.04" x="-3.6" y="-8.52" fill="#93979d" rx=".4" transform="rotate(-.6 63919.111 -42989.358)"/><path fill="#eb9a39" d="M381.18 666.41q.07.72.55 1.09l-2.91.25a1.12 1.1 13.5 0 0-.83.5l-2.44 3.64a1.07 1.07 0 0 1-1.43.33q-4.18-2.49-4.68.14-8.57 3.51-19.54 5.04-22.95 3.21-43.8.25-10.06-1.42-19.9-4.78a1 1 0 0 0-1.31.81l-.04.3-2.02-15.1a.39.39 0 0 1 .53-.41q35.27 13.91 73.36 11.21 10.08-.72 24.46-3.27"/><path fill="#c5c9cd" d="M499.89 659.19q7.12 7.73 12.91 16.9a1.31 1.31 0 0 0 1.21.61q5.63-.47 11.49-1.17.98-.12 1.41 1.73l-12.7 1.58a2.51 2.5 72.5 0 1-2.52-1.32q-4.54-8.65-11.44-15.79a3.1 3.07-75 0 1-.78-1.37q-.74-2.78.42-1.17"/><path fill="#edcd8d" d="M480.58 666.13a.54.54 0 0 1 .1.84l-11.89 11.89a.75.74-50.4 0 1-.93.09l-3.95-2.64a.3.28 16.8 0 1-.12-.21l-.55-16.12a.69.69 0 0 1 .84-.7q8.58 1.91 16.5 6.85m-39.22 11.63q-1.29.56-2.43 1.14a.74.73 53.6 0 1-.85-.13l-11.6-11.37a.44.44 0 0 1 .07-.68q3.85-2.48 8.12-4.34t8.7-2.98a.44.44 0 0 1 .55.41l.42 16.23a.74.73 79.3 0 1-.48.72q-1.21.44-2.5 1m-59.63-10.26q-.48-.37-.55-1.09l11.97-2.21a.26.26 0 0 1 .27.4l-2.42 3.63a1.22 1.21 21.2 0 1-1.2.52z"/><ellipse fill="#040303" rx="9.4" ry="4.93" transform="rotate(-60.4 958.206 -309.067)"/><path fill="#93979d" d="m485.81 670.68 4.98 4.98a.35.35 0 0 1-.01.51l-12.23 11.07a.35.35 0 0 1-.49-.03l-4.19-4.62a.35.35 0 0 1 .02-.49l11.42-11.42a.35.35 0 0 1 .5 0"/><rect width="17.22" height="7" x="-8.61" y="-3.5" fill="#93979d" rx=".61" transform="rotate(42.4 -663.433 887.862)"/><path fill="#f3bd4b" d="M369.44 672.36q4.17 7.64 11.29 13.48-3.98 2.3-5.83 4.58-13.44 16.57-5.7 36.84-27.38-3.71-48.93-21.56-7.6-6.29-12.75-12.22a.44.44 0 0 0-.76.25q-.1 1.31.51 2.98 3.79 10.31 11.84 18.27-5.31-1.1-10.06-3.71-2.05-1.13-6.59-1.19-12.98-15.95-17.61-36.1l.04-.3a1 1 0 0 1 1.31-.81q9.84 3.36 19.9 4.78 20.85 2.96 43.8-.25 10.97-1.53 19.54-5.04"/><path fill="#edcd8d" d="m498.88 694.75-15.85.06a1.32 1.32 0 0 1-.91-2.28l11.48-10.93a1.32 1.32 0 0 1 2.13.47l4.37 10.86a1.32 1.32 0 0 1-1.22 1.82m-86.41-13.38a.58.58 0 0 1 .91-.13l12.04 12.04a1.28 1.28 0 0 1-.86 2.18l-15.43.54a1.84 1.84 0 0 1-1.85-2.29q1.35-5.27 5.19-12.34"/><path fill="#c5c9cd" d="M471 690.97q-6.93-3.83-13.6-4.31c-7.14-.51-13.96.43-18.58 6.43q-4.11 5.34-5.95 10.59-.2.58-1.07-.05a22.15 21.6-4.9 0 1 27.04-19.93 22.16 21.6-5 0 1 12.16 7.27"/><path fill="#fdf0cc" d="M380.73 685.84q7.95 6.24 10.43 7.76c3.75 2.31 10.9 6.72 12.51 10.1a.55.55 0 0 1-.54.79l-12.75-.93a.98.98 0 0 0-.68 1.75q2 1.55 3.48 2.13 7.33 2.89 11.2 5.32a1.79 1.37 37.6 0 1 .65 2.43c-1.83 1.71-7.5 1.87-10.04 1.84-4.46-.05-7.84-.42-9.16.42a.94.94 0 0 0-.05 1.55c3.22 2.39 7.36 3.23 11.37 4.3a.45.45 0 0 1 .1.83c-7.85 4.28-19.23 4.3-28.05 3.13q-7.74-20.27 5.7-36.84 1.85-2.28 5.83-4.58"/><path fill="#93979d" d="M471 690.97a22.18 21.64-6.1 0 1 4.97 15.57 22.18 21.56-6.8 0 1-5.83 12.86 22.14 21.59-4.6 0 1-25.35 5.1 22.16 21.58-4 0 1-12.99-20.87q.87.63 1.07.05 1.84-5.25 5.95-10.59c4.62-6 11.44-6.94 18.58-6.43q6.67.48 13.6 4.31m-30.13 19.87q-1.88.7-.63 3.28c2.45 5.05 8.88 7.12 14.51 7.09 7.43-.05 9.91-3 13.16-8.49q1.99-3.34 2.09-4.51.43-5.04-1.88-3.79c-.94-12.06-14.59-17.94-23.86-10.03q-6.93 5.92-3.39 16.45"/><path fill="#fdf0cc" d="M538.17 688.9q7.98 5.91 11.53 14.44 1.58 3.8 2.19 8.69c.92 7.38.03 13.76-4.27 20.18q-10.85-.18-21.44-3.39-3.9-1.17-6.06-2.55a.5.5 0 0 1 .22-.92c2.86-.25 7.94-.96 10.41-3.29a.83.83 0 0 0 .02-1.19q-.39-.38-1.1-.46c-7.51-.95-11.71-.64-16.14-3.02a1.79 1.6 25.6 0 1-.87-2.08q.28-.72 1.59-1.32 2.79-1.28 10.96-4.51 1.79-.71 2.78-1.88a1.06 1.06 0 0 0-.84-1.75l-11.41.4a.8.79 20.2 0 1-.62-1.33q2.88-3.14 7.27-5.76 8.43-5.02 15.78-10.26"/><path fill="#040303" d="M468.12 704.42q.19 7.05-4.49 10.96c-7.72 6.44-17.84 4.13-22.76-4.54q-3.54-10.53 3.39-16.45c9.27-7.91 22.92-2.03 23.86 10.03m-7.46.33a6.92 6.92 0 0 0-6.92-6.92 6.92 6.92 0 0 0-6.92 6.92 6.92 6.92 0 0 0 6.92 6.92 6.92 6.92 0 0 0 6.92-6.92"/><circle cx="453.74" cy="704.75" r="6.92" fill="#edcd8d"/><rect width="17.54" height="6.8" x="-8.77" y="-3.4" fill="#93979d" rx=".6" transform="rotate(-.8 50685.755 -34917.853)"/><path fill="#93979d" d="m413.11 707.92-.2-5.74a.31.31 0 0 1 .3-.32l10.9-.38a.31.31 0 0 1 .32.3l.2 5.74a.31.31 0 0 1-.3.32l-10.9.38a.31.31 0 0 1-.32-.3"/><path fill="#c5c9cd" d="M440.87 710.84c4.92 8.67 15.04 10.98 22.76 4.54q4.68-3.91 4.49-10.96 2.31-1.25 1.88 3.79-.1 1.17-2.09 4.51c-3.25 5.49-5.73 8.44-13.16 8.49-5.63.03-12.06-2.04-14.51-7.09q-1.25-2.58.63-3.28"/><path fill="#eb9a39" d="M319.11 714.98q21.88 20.48 53.32 22.04a1.25 1.25 0 0 1 1.07.69l2.26 4.45a4.34 4.17 11.1 0 0 .68.97q1.16 1.26 3.04 2.12a.19.19 0 0 1-.1.36c-29.19-2.97-58.21-11.63-76.92-35.53q4.54.06 6.59 1.19 4.75 2.61 10.06 3.71"/><path fill="#edcd8d" d="M500.24 714.5q-1.1 5.96-4.39 11.72a.4.39 33.2 0 1-.58.12q-6.53-4.94-12.33-11.13a.65.65 0 0 1 .45-1.1l16.04-.55a.8.79-85.9 0 1 .81.94m-75.84-.13a1.02 1.02 0 0 1 .72 1.77L413.11 727a.69.69 0 0 1-1.1-.25l-1.34-3.23a1.14 1.13 59.9 0 1 .35-1.33q3.11-2.45 3.01-6.75a.72.72 0 0 1 .7-.74z"/><rect width="17.08" height="7.3" x="-8.54" y="-3.65" fill="#93979d" rx=".76" transform="rotate(43.1 -681.254 976.502)"/><rect width="17.5" height="7.54" x="-8.75" y="-3.77" fill="#93979d" rx=".77" transform="rotate(-42.4 1153.159 -183.134)"/><path fill="#c5c9cd" d="M507.89 724.13q-1.63 8.08-5.6 13.16c-5.31 6.8-10.24 13.13-17.94 17.53q-3.81 2.19-14.56 5.59c-4.78 1.52-12.38 2.43-16.53 1.74-4-.66-8.67-.7-13.37-2.34q-10.82-3.75-20.58-9.91a1.91 1.87 87.8 0 1-.54-.51q-1.08-1.45.52-1.99 14.98 11.8 34.22 11.64c10.57-.09 22.06-2.86 31.07-8.77q15.17-9.95 21.84-27.01.24-.62 1.47.87"/><path fill="#93979d" d="M419.29 747.4q-1.6.54-.52 1.99a1.91 1.87 87.8 0 0 .54.51q9.76 6.16 20.58 9.91c4.7 1.64 9.37 1.68 13.37 2.34 4.15.69 11.75-.22 16.53-1.74q10.75-3.4 14.56-5.59c7.7-4.4 12.63-10.73 17.94-17.53q3.97-5.08 5.6-13.16 1.83 4.3 5.7 8.11a.54.53 51.6 0 1-.09.83c-.5.3-1.14.74-1.46 1.2q-4.9 7.3-10.9 14.1a2.01 2 61.6 0 0-.48 1.63c.58 3.69 3.35 8.04 4.76 11.26a.86.85 59.8 0 1-.26 1.01l-9.1 7.02a1.12 1.12 0 0 1-1.39-.02l-8.55-6.91a2.99 2.98 51.3 0 0-3.18-.36q-8.44 4.12-17.8 6.48a2.26 2.25-1.3 0 0-1.64 1.71l-2.15 10.1a1.24 1.24 0 0 1-1.18.99l-10.51.36a2 2 0 0 1-2.01-1.49l-2.71-10.22a2.15 2.13-.2 0 0-1.55-1.53q-9.37-2.36-19.06-6.51a1.94 1.92-54.4 0 0-2.05.35l-8.28 7.49a.86.85 40.4 0 1-1.05.08l-9.38-6.27a1.4 1.4 0 0 1-.51-1.7l4.06-9.64a2.86 2.86 0 0 0-.37-2.86l-10.57-13.7a.48.48 0 0 1 .22-.75q4.27-1.57 7.75-4.31a.53.53 0 0 1 .79.15q5.44 9.43 14.35 16.67"/><path fill="#edcd8d" d="M473.65 746.52q-4.28 1.91-8.74 3.08a.45.44-8.3 0 1-.56-.41l-.56-16.35a.75.74 78.8 0 1 .48-.73q1.21-.45 2.5-1.03 1.3-.58 2.45-1.17a.75.74 53.1 0 1 .86.13l11.78 11.35a.45.44-39.7 0 1-.07.69q-3.85 2.53-8.14 4.44m-32.12-14.98q.92.4 2.21.86a.49.48-81.6 0 1 .33.45l.57 16.46a.67.67 0 0 1-.81.68q-4.06-.9-8.96-3.01-4.9-2.12-8.34-4.46a.67.67 0 0 1-.07-1.06l12.37-10.87a.49.48-51.7 0 1 .55-.07q1.22.62 2.15 1.02m170.83 1.83 6.43 5.81q6.94 8 17.15 11.66.46.17.59.42a.25.25 0 0 1-.2.36q-15.96 1.35-33.58.44-14.15-.73-46.25-3.21-22.01-1.7-44.66-.79a.15.15 0 0 1-.12-.24l4.73-5.85a.35.35 0 0 1 .34-.13q7.66 1.19 11.51 1 2.12-.11 3.42-2.66a.92.92 0 0 1 1.02-.49q40.82 8.57 79.62-6.32"/><rect width="7.3" height="16.84" x="450.54" y="734.03" fill="#93979d" rx=".35"/><path fill="#edcd8d" d="m382.4 744.91 9.23-1.74a.95.95 0 0 1 1.06.57l.71 1.73a.48.48 0 0 1-.38.66q-5.35.69-10.64-.51a.37.36-43.8 0 1 .02-.71m-13.03 17.77q-5.9-2.68-11.7-3.99a.6.46 53 0 1-.14-.04l-9.52-3.63a2.05 1.79-27.1 0 0-.44-.11q-7.26-.72-14.45-3.39l7.95-3.8a1.5 1.5 0 0 1 1.11-.08c14.87 4.72 29.87 6.19 45.38 6.37a.38.38 0 0 1 .18.71q-9.74 5.25-18.37 7.96"/><path fill="#fdf0cc" d="M333.12 751.52q7.19 2.67 14.45 3.39a2.05 1.79-27.1 0 1 .44.11l9.52 3.63a.6.46 53 0 0 .14.04q5.8 1.31 11.7 3.99c-6.25 2.28-13.48 4.82-19.61 4.79a.76.76 0 0 1-.7-1.07q1.02-2.27 3.07-4.77.36-.43.47-.98.17-.84.14-1a1.41 1.4-16.3 0 0-1.93-1.05q-4.7 1.99-8.72 6.09c-2.6 2.66-5.38 3.63-8.74 3.32a1.42 1.42 0 0 1-1.03-2.24l5.38-7.64a1.48 1.48 0 0 0-1.33-2.33c-3.08.25-9.06 5.79-11.41 8.28a1.56 1.56 0 0 1-1.01.49q-1.89.17-3.15-.46a1.24 1.23 31 0 1-.46-1.82q5.46-7.67 12.78-10.77"/><path fill="#edcd8d" d="M695.42 765.41q-6.21-.8-11.94-1.86-4.62-.86-14.86-.7-2.5.04-5.2.59-2.59.53-5.18 1.02l-2.85.79q-4.51-1.02-9.26.49l9.72-8.6a2.72 2.72 0 0 1 2.09-.66q19.85 2.28 38.5-1.45c4.84-.97 9.59-2.49 14.24-3.47a.49.49 0 0 1 .46.82q-7.16 7.6-15.72 13.03"/><path fill="#fdf0cc" d="M695.42 765.41q-9.88 7.13-21.18 10.34-1.74.5-3.06.24a1.08 1.08 0 0 1-.72-1.62l3.32-5.62a1.24 1.24 0 0 0-1.14-1.87c-2.27.14-6.88 4.4-8.62 6.16-2.66 2.68-5.85 4.4-9.15 4.17a1.49 1.49 0 0 1-1.23-2.17q1.1-2.13 4.64-7.53.88-1.35-.04-3.05 2.59-.49 5.18-1.02 2.7-.55 5.2-.59 10.24-.16 14.86.7 5.73 1.06 11.94 1.86m-40.03-.16q-4.29 2.93-7.73 6.85c-1.63 1.87-3.13 2.29-5.21 1.53a1.13 1.13 0 0 1-.55-1.69l4.23-6.2q4.75-1.51 9.26-.49"/></svg>