<svg xmlns="http://www.w3.org/2000/svg" viewBox="0 0 1024 1024"><g fill="none" stroke-width="2"><path stroke="#b4d7ea" d="M758.81 293.01c-1.29 7.07 2.55 12.84 10.14 11.57q4.98-.83 6.59-5.81c2.21-6.82 4.01-11.26 10.08-15.42 8.21-5.62 19.15-10.98 24.82-20.77 9.31-16.08 5.39-35.64-10.5-45.88q-11.51-7.42-25.41-6.45c-8.05.56-24.21 5-23.5 15.33.48 7.08 7.27 9 12.74 5.71 9.45-5.67 21.9-6.56 29.5 3.1 6.02 7.67 3.44 17.86-2.98 24.48-5.64 5.82-12.87 9.74-18.68 13.96q-10.51 7.64-12.8 20.18" vector-effect="non-scaling-stroke"/><path stroke="#818080" d="M470.02 240.19q-1.92.21-3.29.53-21.18 4.89-41.21 14.43a.58.58 0 0 1-.74-.23c-6.02-9.87-12.4-18.46-22.18-24.94q-12.92-8.56-28.53-8.83c-18.26-.31-33.96 8.07-45.27 22.67-11.82 15.25-14.84 35.56-9.75 54.07 3.43 12.46 10.96 22.75 21.01 30.53a.54.53-54.4 0 1 .11.72q-16.68 24.94-29.66 52.93a4.55 4.53 89.5 0 1-2.14 2.19c-29.51 14.41-44.95 45-48.09 77.39a.74.73 82.5 0 1-.48.63c-1.53.59-4 1.35-5.09 1.92-12.94 6.66-18.46 21.69-18.87 35.56-.9 30.76 10.5 61.67 28.45 86.5 4.67 6.47 10.55 12.55 16.27 18.64a1.15 1.12-62.3 0 1 .29.98q-4.78 26.06-4.73 51.89c.01 1.52-.22 3.63-.71 4.85-8.17 20.33-10.85 42.84-5.64 64.38q9 37.26 39.67 60.43 5.46 4.12 10.6 7.45a3.55 3.5-87.1 0 1 1.23 1.38c5.24 10.55 11.52 19.72 20.68 27.04 13.18 10.53 32.02 11.67 39.08-6.72a1.26 1.25 15.5 0 1 1.39-.78c42.72 7.7 85.57 4.88 128.58 2.88q15.12-.7 27.26-.06 35.25 1.87 59.24 2.21 33.57.48 65.57-5.07a1.04 1.03 74.8 0 1 1.15.66q3.93 10.61 13.98 13.25c19.01 5.01 36.13-15.07 44.33-29.54a7.32 7.27-.6 0 1 2.64-2.68c14.71-8.64 27.76-18.89 38.27-32.53q29.64-38.47 19.21-85.86c-1.14-5.18-3.56-12.04-4.65-15.81a13.96 13.78-52.9 0 1-.54-4.11c.64-39.9-4.74-79.87-15.01-118.23a.9.88 58.3 0 1 .19-.83c19.96-22.86 28.37-50.54 24.97-80.69q-2.35-20.96-11.58-39.81-16.31-33.32-50.35-45.98a3.51 3.43 73.7 0 1-.94-.53q-1.57-1.21-3.06-3.48-17.32-26.37-35.28-49.67a1.11 1.1-40.5 0 1 .12-1.48c16.12-15.18 22.36-35.54 17.77-57.23-5.47-25.83-26.73-45.72-53.53-46.99-25.26-1.19-43.4 14.62-54.3 36.12a.83.82-65.8 0 1-1.03.4q-23.91-9.24-48.27-13.46a2.95 2.84-26.1 0 1-.78-.25q-1.5-.71-2.57-2.3-6.26-9.29-12.41-17.37-2.74-3.59-4.66-4.41c-6.51-2.79-10.46.34-13.73 5.76a.55.54-58.2 0 1-.76.18c-4.73-2.98-10.08-5.96-15.12-7.02-7.25-1.53-14.41-.25-13.75 8.61q.1 1.37.1 1.46a.5.49-86.2 0 1-.54.48c-6.36-.58-17.98-.99-17.32 8.74q.3 4.35 4.62 8.36a.39.39 0 0 1-.22.67" vector-effect="non-scaling-stroke"/><path stroke="#b4d7ea" d="M771.68 321.63a10.02 10.02 0 0 0-10.02-10.02 10.02 10.02 0 0 0-10.02 10.02 10.02 10.02 0 0 0 10.02 10.02 10.02 10.02 0 0 0 10.02-10.02" vector-effect="non-scaling-stroke"/><path stroke="#7a6847" d="M427.37 267.97q-17.96 8.94-28.92 16.99-10.15 7.45-20.13 15.11-2.98 2.29-7.18 3.11" vector-effect="non-scaling-stroke"/><path stroke="#7c5a52" d="M371.14 303.18q.89-4.54 5.07-9.49 9.3-11.03 13.42-14.13a.74.73-28.8 0 0 .25-.83c-3.7-10.44-13.28-23.88-25.38-24.7q-5.11-.34-10.34 3.27" vector-effect="non-scaling-stroke"/><path stroke="#79501d" d="M354.16 257.3q-.77-.01-1.15-.65-.33-.57-.01-1.31.52-1.23 1.75-2.59 5.42-6.03 13.77-5.81" vector-effect="non-scaling-stroke"/><path stroke="#7c6026" d="M368.52 246.94q13.67 2.03 22.62 13.18 4.3 5.36 7.51 11.27a.58.57-31.2 0 0 .83.2l10.2-6.95" vector-effect="non-scaling-stroke"/><path stroke="#7a6847" d="m409.68 264.64 3.83-2.24a.56.56 0 0 0 .23-.71q-4.61-10.19-12.96-17.45-19.14-16.67-43.08-7.18" vector-effect="non-scaling-stroke"/><path stroke="#79501d" d="M357.7 237.06q-9.72 4.2-15.7 10.95c-18.96 21.37-16.58 53.74 6.39 71.36a.65.64 41.6 0 0 .83-.04q5.85-5.61 12.41-9.84" vector-effect="non-scaling-stroke"/><path stroke="#7c5a52" d="M361.63 309.49q1.1-.01 1.87.85" vector-effect="non-scaling-stroke"/><path stroke="#7a6847" d="M363.5 310.34c.62 4.55-3.18 10.55-5.53 14.13-12.48 18.99-22.85 35.67-32.19 54.99a.24.24 0 0 0 .26.34q6.65-1.3 14.05-.84" vector-effect="non-scaling-stroke"/><path stroke="#7c6026" d="M340.09 378.96q8.93.13 17.6 4.66a1.08 1.08 0 0 1-.03 1.93q-1.12.53-3.09.57" vector-effect="non-scaling-stroke"/><path stroke="#7a6847" d="M354.57 386.12c-25.24-.53-47.73 7.2-63.51 27.64" vector-effect="non-scaling-stroke"/><path stroke="#817a68" d="M291.06 413.76c-10.74 13.92-16.51 31.39-18.21 48.94a1.05 1.03-75.6 0 0 .61 1.05c4.37 1.98 8.12 6.23 6.48 11.35a1.14 1.12 37.4 0 0 .14.98q.74 1.1 1.87 2.45 4.02 4.83 1.52 11.27" vector-effect="non-scaling-stroke"/><path stroke="#7a6847" d="M283.47 489.8q4.43 8.64-2.01 15.04a1.56 1.54-32.9 0 0-.36 1.64q5.36 14.04 14.2 23.72 15.3 16.74 35.02 25.46c15.23 6.73 30.54 10.51 47.93 10.98q24.86.67 45.61-3.77c10.71-2.3 16.3-3.41 26.26-6q6.03-1.57 12.33-2.82" vector-effect="non-scaling-stroke"/><path stroke="#817a68" d="m462.45 554.05 4.29 1.17" vector-effect="non-scaling-stroke"/><path stroke="#7a6847" d="M466.74 555.22q-12.54 7.25-25.15 11.2" vector-effect="non-scaling-stroke"/><path stroke="#79501d" d="M441.59 566.42c-22.4 7.3-44.13 11.34-67.57 10.51q-33.24-1.17-61.78-17.91-21.19-12.43-33.85-31.48" vector-effect="non-scaling-stroke"/><path stroke="#7c6026" d="m278.39 527.54-2.57-4.16" vector-effect="non-scaling-stroke"/><path stroke="#7a6847" d="m275.82 523.38-2.36-4.3" vector-effect="non-scaling-stroke"/><path stroke="#818080" d="m273.46 519.08-3.1-6.35a.76.74-20.6 0 0-.88-.39l-3.59 1.05a1.81 1.8 83.4 0 1-2.3-1.83c.24-4.85 4.88-7.93 9.38-11.35q1.94-1.47 2.7-3.66a1.71 1.71 0 0 0-.85-2.09c-3.42-1.71-9.49.31-13.16 1.56a1.14 1.14 0 0 1-1.48-1.34q.25-1.06 1.51-2.28 5.21-5.08 12.17-6.75a1.96 1.95-9.3 0 0 1.49-2.06q-.06-.6-.58-1.18a1.7 1.7 0 0 0-.8-.49c-5.44-1.48-11.26.56-16.25 2.44a.81.81 0 0 1-1.09-.68c-.46-4.63 9.56-8.89 13.38-9.8a1.05 1.05 0 0 0 .43-1.83q-1-.82-2.91-.92c-11-.58-18.77 8.61-20.82 18.56q-2.77 13.41-.23 28" vector-effect="non-scaling-stroke"/><path stroke="#7a6847" d="M246.48 517.69q3.23 18.36 11.48 36.22" vector-effect="non-scaling-stroke"/><path stroke="#7c6026" d="M257.96 553.91q7.9 16.76 19.09 31.88" vector-effect="non-scaling-stroke"/><path stroke="#79501d" d="M277.05 585.79q5.96 8.37 12.46 16.35c4.04 4.95 7.66 10.02 9.65 15.2a.74.74 0 0 1-.97.95q-3.73-1.48-6.49-3.89a.49.49 0 0 0-.81.31l-2.5 20.36" vector-effect="non-scaling-stroke"/><path stroke="#7c6026" d="m288.39 635.07-.42 8.06a.3.3 0 0 0 .52.21l3.94-4.71a1.08 1.08 0 0 1 1.91.66q.07 1.98-.62 4.16-2.08 6.57-6.44 18.09-6.11 16.16-7.7 33.19" vector-effect="non-scaling-stroke"/><path stroke="#79501d" d="M279.58 694.73q-1.03 12.23.01 19.16 5.44 36.12 32.74 59.83a.31.3-78.1 0 0 .49-.32q-2.84-9.47-1.82-18.85" vector-effect="non-scaling-stroke"/><path stroke="#7c6026" d="m311 754.55.22-1.33" vector-effect="non-scaling-stroke"/><path stroke="#7a6847" d="M311.22 753.22c1.3-5.53 3.72-9.87 9.68-11.02a.99.97 3.5 0 0 .74-.64q4.41-12.98 17.51-6.65a.94.93 44 0 0 .83-.01c8.98-4.7 16.6 4.03 21.15 10.74q11.25 16.58 16.5 35.4" vector-effect="non-scaling-stroke"/><path stroke="#79501d" d="M377.63 781.04q3.52 10.77 4.81 21.47a.72.7-87.2 0 0 .54.61c19.46 4.49 39.71 5.48 59.64 5.85" vector-effect="non-scaling-stroke"/><path stroke="#7a6847" d="M442.62 808.97c22.94.02 45.85-1.59 68.8-2.62 14.49-.65 30.89-.3 43.34.52q25.83 1.69 51.71 1.57" vector-effect="non-scaling-stroke"/><path stroke="#79501d" d="M606.47 808.44q28.27-.04 56.19-5.22a.54.53-2.2 0 0 .44-.47q1.16-11.6 4.9-22.34" vector-effect="non-scaling-stroke"/><path stroke="#7a6847" d="M668 780.41q6.28-21.56 20-38.67c4.64-5.8 10.89-10.87 18.56-6.83a.99.97-43 0 0 .86.02q13.15-5.93 17.07 6.53a1.44 1.41 88.3 0 0 .98.94q4.77 1.3 7.23 5.1" vector-effect="non-scaling-stroke"/><path stroke="#7c6026" d="M732.7 747.5q2.09 3.76 2.63 9.52" vector-effect="non-scaling-stroke"/><path stroke="#79501d" d="M735.33 757.02q.13 9.93-3.24 20.46a.35.35 0 0 0 .55.38c10.29-8.12 20.01-17.9 26.8-29.26q7.48-12.5 11.6-27.34c1.42-5.13 1.87-11.09 2.29-16.32q.18-2.24-.15-4.52" vector-effect="non-scaling-stroke"/><path stroke="#7c6026" d="M773.18 700.42q.01-20.08-7.02-39.03-5.09-13.73-5.92-16.39-1.07-3.43-1.14-6.07a1.08 1.08 0 0 1 1.74-.88q2.54 1.94 4.45 5.11a.35.35 0 0 0 .65-.19c-.49-21.87-3.12-41.16-6.95-64.95q-.28-1.69-1.64-8.08" vector-effect="non-scaling-stroke"/><path stroke="#79501d" d="m757.35 569.94-4.14-19.13a.67.67 0 0 0-1.07-.38q-26.57 21.01-60.12 26.58-17 2.82-31.77 2.16-33.79-1.53-66.24-14.48" vector-effect="non-scaling-stroke"/><path stroke="#7a6847" d="M594.01 564.69q-4.2-1.79-8.64-3.42-5.57-2.05-9.87-6.06" vector-effect="non-scaling-stroke"/><path stroke="#817a68" d="M575.5 555.21q3.35-.8 5.71-.31" vector-effect="non-scaling-stroke"/><path stroke="#7a6847" d="M581.21 554.9q5.08 1 6.51 1.4 16.42 4.62 29.22 7.53 20.68 4.7 43.31 5.18c30.9.66 62.22-8.64 85.41-29.09 18.28-16.12 28.91-38.65 29.99-62.91" vector-effect="non-scaling-stroke"/><path stroke="#817a68" d="M775.65 477.01q.68-15.37-3.03-30.88-5.82-24.37-22.3-42.54" vector-effect="non-scaling-stroke"/><path stroke="#7a6847" d="M750.32 403.59q-19.37-19.92-46.82-23.62-6.47-.87-17.78-.88" vector-effect="non-scaling-stroke"/><path stroke="#7c6026" d="m685.72 379.09-7.57-.49a.8.8 0 0 1-.52-1.35q1.44-1.48 3.95-2.47" vector-effect="non-scaling-stroke"/><path stroke="#79501d" d="M681.58 374.78q12.24-4.66 25.43-3.68a.19.19 0 0 0 .18-.3q-12.88-19.59-26.9-38.36-3.49-4.66-8.01-9.73-7.91-8.87-11.83-19.53" vector-effect="non-scaling-stroke"/><path stroke="#7c5a52" d="M660.45 303.18q1.6-1.38 3.82-.58" vector-effect="non-scaling-stroke"/><path stroke="#7c6026" d="M664.27 302.6q6.12 3.43 11.22 8.22a.77.76 46.5 0 0 1.02.03c22.81-19.43 21.44-54.52-.72-74.09" vector-effect="non-scaling-stroke"/><path stroke="#7a6847" d="M675.79 236.76c-13-10.93-31.82-13.94-46.74-4.96q-14.85 8.94-21.52 25.08a.51.51 0 0 0 .23.64l4.23 2.31" vector-effect="non-scaling-stroke"/><path stroke="#7c6026" d="m611.99 259.83 10.86 6.3a.58.58 0 0 0 .84-.3q3.53-9.84 10.69-17.15c9.29-9.48 23.1-13.92 33.09-2.42a1.33 1.32 46.2 0 1-.03 1.78l-.76.82" vector-effect="non-scaling-stroke"/><path stroke="#7c5a52" d="M666.68 248.86c-7.18-4.51-14.82-3.32-21.03 2.2-6.41 5.7-10.27 13.28-13.1 21.47a.89.87-62.1 0 0 .29.98q10.15 7.76 18 17.65 1.04 1.31 2.35 4.39" vector-effect="non-scaling-stroke"/><path stroke="#79501d" d="M653.19 295.55q-2 .44-3.86-.62-3.69-2.12-7.28-4.11" vector-effect="non-scaling-stroke"/><path stroke="#7c6026" d="M642.05 290.82q-42.99-31.49-95.22-41.1c-11.03-2.03-18.27-16.83-23.53-25.82a.78.78 0 0 0-1.36.02c-1.7 3.05-1.68 7.79-2.18 12.47a2.11 2.01-87.6 0 1-1.94 1.87q-.73.02-1.7-.9c-6.16-5.81-12.42-11.54-20.01-14.82a.46.46 0 0 0-.55.7c2.79 3.76 8.73 13.42 6.26 17.44a.7.69-68.9 0 1-.71.32q-2.27-.41-6.07-2.86c-4.73-3.03-9.78-5.05-15.38-5.55a.42.42 0 0 0-.28.76c3.48 2.47 10.89 8.9 7.72 13.63q-1.66 2.48-5.36 3.11-28.49 4.85-54.37 17.88" vector-effect="non-scaling-stroke"/><path stroke="#f1ac3f" d="M642.05 290.82q-2.63 11.23-3.14 20.29c-1.19 20.95 6.49 40.12 24.04 52.4q8.83 6.19 18.63 11.27" vector-effect="non-scaling-stroke"/><path stroke="#f2c56a" d="M685.72 379.09q-.52.18-.43.55.14.59.76.62 7.03.37 12.88 2.64c10.9 4.22 21.62 8.87 30.74 16.2q10.63 8.54 19.36 19.22" vector-effect="non-scaling-stroke"/><path stroke="#f9d68b" d="M749.03 418.32c-4.66 30.7-28.13 54.14-56.02 65.82" vector-effect="non-scaling-stroke"/><path stroke="#f2c56a" d="M693.01 484.14q-6.2-10.33-13.78-19.34c-12.09-14.39-28.58-16.96-45.47-10.26q-7.92 3.14-17.84 7.92-7.26 3.5-21.18 8.22" vector-effect="non-scaling-stroke"/><path stroke="#7c6026" d="M594.74 470.68q-8.05-1.54-16.12-1.59" vector-effect="non-scaling-stroke"/><path stroke="#f9d68b" d="m578.62 469.09-8.26-9.07" vector-effect="non-scaling-stroke"/><path stroke="#7c6026" d="M570.36 460.02q26.97-10.67 55.02-15.71a.48.47-46.9 0 0-.03-.94c-19.14-2.09-40.32 2.22-56.35 12.84" vector-effect="non-scaling-stroke"/><path stroke="#f9d68b" d="M569 456.21q-3.07-2.59-3.84-3.61-8.36-11.13-19.02-18.47-18.2-12.56-41.06-8.06-5.38 1.05-13.47 5.3c-5.96 3.12-13.4 10.76-17.35 15.14q-7.92 8.78-10.38 11.28" vector-effect="non-scaling-stroke"/><path stroke="#7c6026" d="M463.88 457.79q-26.61-16.53-58.11-13.04-.4.05-.62.27a.41.41 0 0 0 .22.69q29.16 4.66 56.69 15.34" vector-effect="non-scaling-stroke"/><path stroke="#f9d68b" d="m462.06 461.05-7.7 8.58" vector-effect="non-scaling-stroke"/><path stroke="#7c6026" d="m454.36 469.63-7.58.44" vector-effect="non-scaling-stroke"/><path stroke="#f2c56a" d="M446.78 470.07q-15.73-4.18-22.64-7.16-15.34-6.6-22.77-9.56c-13.05-5.21-26.12-5.23-37.65 3.68-9.44 7.3-17.29 16.65-25.4 26.58" vector-effect="non-scaling-stroke"/><path stroke="#f9d68b" d="M338.32 483.61c-14.85-7.93-27.98-18.4-36.58-33.09q-4.64-7.94-8.05-16.53" vector-effect="non-scaling-stroke"/><path stroke="#f2c56a" d="M293.69 433.99q-1.02-3.87.59-6.41 4.32-6.81 11.62-14.68c5.98-6.45 11.63-9.6 19.5-14.73q8.53-5.55 18.72-9.04 2.88-.98 9.4-1.36 2.11-.12 1.05-1.65m-14.48-7.16q1.94-3.21 4.05-6.6.96-1.54 5.07-10.94 2.74-6.25 5.23-10.83c4.2-7.69 7.42-14.97 11.87-21.78q7.37-11.27 14.32-21.18 1.93-2.74 3.64-4.62 7.53-8.3 14.41-15.02 2.82-2.76 5.16-4.41 1.79-1.27 5.38-4.12.56-.45 5.45-3.01.51-.26.87-.28.55-.04.76-.55a.85.84-89 0 1 .48-.47q1.85-.69 4.94-2.59.5-.31 1.02-.59 2.87-1.58 4.63-4" vector-effect="non-scaling-stroke"/><path stroke="#7a6847" d="M592.75 476.58q16.65 2.89 32.58 6.82c1.39.34 3.1 1.12 4.59 1.47a.35.35 0 0 0 .26-.64q-16.5-10.18-35.44-13.55m-147.96-.61q-23.8 1.98-44.98 15.25a.4.4 0 0 0 .33.72q21.31-6.43 44.49-9.98" vector-effect="non-scaling-stroke"/><path stroke="#f6dfac" d="M775.65 477.01q-.34-.18-.5.26-.2.53-.35.56-.19.03-.34-.1a.54.54 0 0 0-.79.11q-.56.84-2.14 4.25c-1.91 4.12-5.12 8.14-6.98 11.32-3.33 5.7-7.59 9.95-13.06 16.17q-4.99 5.68-8.64 8.67c-14.79 12.1-30.3 21.79-48.57 28.1q-18.6 6.42-32.67 8.52-16.14 2.4-35.11 2.33-18.81-.07-35.9-2.11-2.49-.29-4.7-.27-2.3.03-4.69.08m-5.71.31-8.65 1.16a.39.39 0 0 0-.13.74c4.39 2.23 8.09 5.64 12.57 7.55q8.8 3.77 14.17 6.8 3.1 1.74 5.88 3.23" vector-effect="non-scaling-stroke"/><path stroke="#f9d68b" d="M599.34 574.69q7.83 9 9.71 18.61" vector-effect="non-scaling-stroke"/><path stroke="#817a68" d="M609.05 593.3q-1.79.23-2.76 1.99c-5.41 9.8-7.6 19.77-9.17 30.34q-.18 1.2-5.24 38.44-1.29 9.55-6.91 24.56c-3.58 9.57-7.03 19.31-3.09 29.22q2.3 5.81 8.18 7.52a1.69 1.65-10.5 0 1 .85.57q.46.57 1.25 1.82c3.33 5.3 10.39 6.07 15.58 2.64a1.15 1.13 37.4 0 1 .99-.12q6.51 2.27 11.8-1.27 10.39-6.97 15.66-18.85" vector-effect="non-scaling-stroke"/><path stroke="#f6dfac" d="M636.19 710.16q8.73-2.83 16.11-7.22a.76.76 0 0 1 1.14.6c.94 14.33-1.65 27.51-5.62 41.3q-5.48 19.02-16.96 35.37-2.86 4.08-3.1 4.31-1.55 1.48-4.98 1.5-26.13.19-53.05-4.49-21.7-3.78-30.54-4.88-14.89-1.86-32.5-.8c-11.62.71-23.03 3.11-34.2 4.89q-27.87 4.42-55.1 3.92a1.03 1.03 0 0 1-.81-.42q-13.73-18.47-19.91-40.09-3.73-13.09-4.52-19.58-.47-3.81-.9-5.64" vector-effect="non-scaling-stroke"/><path stroke="#f9d68b" d="M391.25 718.93c-4.38-43.55 6.83-85.19 28.79-122.63q6.01-10.25 12.35-17.82" vector-effect="non-scaling-stroke"/><path stroke="#f6dfac" d="M432.39 578.48q.35-.05.61-.26.35-.29.54-.35 6.26-2.13 10.64-4.22 14.13-6.73 27.46-15.68c.79-.53 1.53-.58 2.1-.94a.35.35 0 0 0-.06-.62q-4.12-1.55-6.94-1.19m-4.29-1.17q-8.57-.7-17.07-.25-12.83.68-14.8.64c-8.39-.15-16.78.55-24.77.08q-37.27-2.22-68.98-17.85c-16-7.88-33.51-20.71-44.48-35.86q-2.82-3.89-6.88-8.85-.14-.17-.31-.93-.17-.77-1.69-1.23m54.85-6.19c21.67 11.08 47.28 13.44 71.12 8.97 9.36-1.75 19.15-5.99 27.69-9.95q5.34-2.47 9.49-6.57" vector-effect="non-scaling-stroke"/><path stroke="#817a68" d="m446.62 476.06 18.19-2.96a1.05 1.05 0 0 0 .55-1.8c-1.8-1.68-8.16-1.62-11-1.67m7.7-8.58q2.08 1.04 4.39 1.84.98.34 1.48-.03a.7.7 0 0 0 .05-1.07q-2.19-2.02-4.1-4M569 456.21l-5.67 5.04a.6.6 0 0 0 .22 1.02q.75.23 1.79-.16 2.71-1.02 5.02-2.09m8.26 9.07c-3.29.05-10.04-.17-12.61 1.77a.88.88 0 0 0 .39 1.57l26.35 4.15" vector-effect="non-scaling-stroke"/><path stroke="#f6dfac" d="M592.75 476.58q.3 1.31 2.97 2.73 8.53 4.54 11.41 5.56c8.12 2.86 18.15 5.7 27.73 6.88 19.22 2.37 40.19.18 58.15-7.61m-399.32-50.15q-2.48-6.58-3.43-13.92-.29-2.21.76-4.18.28-.53.04-2.13m459.26-10.17q-.82 0-1.08.45-.21.35.08 1.18 2.31 6.48-.29 13.1" vector-effect="non-scaling-stroke"/><path stroke="#7a6847" d="M605.59 640.03q-.88 19.42-6.58 38.05" vector-effect="non-scaling-stroke"/><path stroke="#818080" d="M599.01 678.08q-3.92 9.91-6.56 15.86-4.07 9.15-3.11 18.36.19 1.78 1.13 2.92a.51.5 33.2 0 0 .88-.18q1.98-7.14 7.09-12.56a1.22 1.22 0 0 1 2.09.63q.16.9-.25 2.16c-1.55 4.7-3.15 11.72-1.59 16.52a2.33 2.01 71 0 0 2.71 1.58q2.24-.83 3.33-3.42c1.78-4.25 4.65-10.9 8.02-12.61a.78.78 0 0 1 1.13.78q-.18 1.54-1.28 9.68-.28 2.08.21 3.62a.8.8 0 0 0 1.12.48c5.28-2.64 9.33-8.73 12.17-14.01q3.9-7.27 8.37-13.87" vector-effect="non-scaling-stroke"/><path stroke="#7a6847" d="M634.47 694.02c5.99-6.93 13.53-12.5 20.33-18.51" vector-effect="non-scaling-stroke"/><path stroke="#79501d" d="M695.06 637.29c-4.31 16.11-15.5 31.22-28.05 42.23q-6.38 5.6-12.57 10.86" vector-effect="non-scaling-stroke"/><path stroke="#7a6847" d="M654.44 690.38q-6 4.8-11.74 9.32c-3.02 2.39-4.7 6.82-6.51 10.46" vector-effect="non-scaling-stroke"/><path stroke="#f1ac3f" d="M278.39 527.54q-1.92 3.33.45 6.61c3.94 5.46 8.56 14.18 13.35 19.47q13.92 15.37 28.01 22.91 26.02 13.93 58.31 13.22 13.3-.29 28.98-3.56 11.77-2.45 21.69-7.43a5.8 5.78-63.5 0 1 1.51-.51l1.59-.29" vector-effect="non-scaling-stroke"/><path stroke="#f2c56a" d="M432.28 577.96q.59.57.11.52m-41.14 140.45q-9.51-2.02-14.69-4.72-7.74-4.04-13.73-6.52c-13.45-5.55-28.36-3.26-35.15 10.9q-5.35 11.16-7.01 14.12-2.24 4.01-8.39 11.47a1.31 1.3-22.9 0 0-.28.68l-.78 8.36" vector-effect="non-scaling-stroke"/><path stroke="#f1ac3f" d="m311 754.55-2.94-4.53a.63.57 8.6 0 0-.13-.16q-12.78-12.28-20.69-27.92c-.99-1.95-2.05-3.17-2.78-5.13q-.91-2.44-2.62-7.83-.24-.74-.92-1.07a.86.85-79.7 0 1-.48-.7l-.86-12.48m8.81-59.66q6.49-.81 8.57-2.37 2.84-2.13 4.19-2.32 7.94-1.15 16.25-4.99 2.36-1.1 3.74-2.5a2.57 2.57 0 0 0 .45-3.01q-1.87-3.59-5.14-6.34-11.77-9.9-25.04-18.06a13.48 13.04-7 0 1-2.13-1.61c-3.84-3.56-7.09-6.71-12.23-8.08" vector-effect="non-scaling-stroke"/><path stroke="#efb561" d="M668 780.41q-4.29.71-8.53 1.44-9.84 1.68-13.21 2.15c-6.46.91-13.09 1-18.34 2.11a2.58 2.55 12.4 0 0-1.49.94c-5.98 7.81-13.11 14.5-19.96 21.39m-163.85.53q-3.23-1.82-4.53-2.81-12.17-9.4-21.42-21.18a1.53 1.52-20.8 0 0-1.32-.59c-6.68.45-12.32-.68-18.56-1.07q-1.57-.1-9.55-1.36-4.73-.75-9.61-.92" vector-effect="non-scaling-stroke"/><path stroke="#f2c56a" d="M599.27 572.34q.26 1.58.07 2.35" vector-effect="non-scaling-stroke"/><path stroke="#f1ac3f" d="m773.18 700.42-.7 6.44a3.03 2.92 64.7 0 1-.43 1.27q-3.05 4.86-4.93 10.07c-.9 2.48-2.65 5.55-4.26 7.82q-7.94 11.16-16.68 21.15-2.06 2.35-10.85 9.85" vector-effect="non-scaling-stroke"/><path stroke="#f2c56a" d="M732.7 747.5c-2.74-13.67-9.36-28.74-20.05-37.47-13.07-10.67-27-8.23-42.61-6.39q-7.68.91-15.81-3.05" vector-effect="non-scaling-stroke"/><path stroke="#f1ac3f" d="M654.23 700.59q7.1-4.03 15.72-12.14 17.33-16.33 23.39-38.28 1.74-6.3 1.72-12.88" vector-effect="non-scaling-stroke"/><path stroke="#7c6026" d="M695.06 637.29q1.87-6.74 1.83-13.72-.01-.77-.26-1.14a.54.54 0 0 0-.87-.04q-1.05 1.28-1.93 2.95c-4.31 8.25-8.74 16.52-14.23 23.97q-10.71 14.53-24.8 26.2" vector-effect="non-scaling-stroke"/><path stroke="#f2c56a" d="M654.8 675.51c-8.34-6.79-16.62-13.75-25.74-19.41-8.21-5.09-15.1-8.9-23.47-16.07" vector-effect="non-scaling-stroke"/><path stroke="#7c6026" d="m605.59 640.03 3.46-46.73" vector-effect="non-scaling-stroke"/><path stroke="#f1bf96" d="M371.14 303.18q-2.72 3.72-7.64 7.16" vector-effect="non-scaling-stroke"/><path stroke="#f1a76b" d="M660.45 303.18q-4.18-3.21-7.26-7.63" vector-effect="non-scaling-stroke"/><path stroke="#efb561" d="M654.23 700.59q-2.16-4.72.21-10.21" vector-effect="non-scaling-stroke"/><path stroke="#f6e5c4" d="M634.47 694.02q-8.55-12.48-23.47-15.08-4.26-.75-11.99-.86" vector-effect="non-scaling-stroke"/><path stroke="#efb561" d="m441.59 566.42-9.31 11.54" vector-effect="non-scaling-stroke"/><path stroke="#f2c56a" d="M275.82 523.38c-.84 8.96-5.73 12.49-11.62 18.5q-3.71 3.78-6.24 12.03" vector-effect="non-scaling-stroke"/><path stroke="#f1ac3f" d="M757.35 569.94q-16.8 10.37-33.64 15.05-34.65 9.63-72.32 2.61-5.72-1.07-15.55-3.61-6.42-1.66-15.26-4.71-10.58-3.65-21.31-6.94" vector-effect="non-scaling-stroke"/><path stroke="#efb561" d="M599.27 572.34q-4.22-2.69-5.26-7.65" vector-effect="non-scaling-stroke"/><path stroke="#f1ac3f" d="m376.72 238.3-8.2 8.64" vector-effect="non-scaling-stroke"/><path stroke="#f1a76b" d="M354.16 257.3q-11.99 22.68 1.52 44.46 2.68 4.32 5.95 7.73" vector-effect="non-scaling-stroke"/><path stroke="#f4b774" d="M664.27 302.6q.06-1.79 1.28-3.37a3.06 3.05-16.6 0 0 .45-.83q.59-1.61 3.01-5.88 4.09-7.19 4.8-16.16.34-4.32-.86-10.12c-1.18-5.71-2.6-12.43-6.27-17.38" vector-effect="non-scaling-stroke"/><path stroke="#f6e5c4" d="M273.46 519.08q-15.64 6.7-26.98-1.39" vector-effect="non-scaling-stroke"/><path stroke="#f2c56a" d="M409.68 264.64q-1.89-2.76-6.84-8.73-8.16-9.86-18.34-14.19-4.17-1.78-7.78-3.42" vector-effect="non-scaling-stroke"/><path stroke="#efb561" d="M376.72 238.3q-7.53-2.91-15.14-1.2a1.74 1.56-48.2 0 1-.36.04l-3.52-.08" vector-effect="non-scaling-stroke"/><path stroke="#f2c56a" d="M675.79 236.76q-3.89-.45-4.96-1.33-8.02-6.59-18.55-4.85-10.79 1.77-20.31 6.87-5.94 3.19-9.54 7.72-4.63 5.82-10.44 14.66" vector-effect="non-scaling-stroke"/><path stroke="#7a6847" d="M333.68 798.59c4.88 8.81 16.3 23.66 28.11 22.13 11.55-1.5 11.95-13.88 10.29-23.41" vector-effect="non-scaling-stroke"/><path stroke="#817a68" d="M372.08 797.31q-.98-5.94-3.28-12.65-3.78-11.04-8.85-21.86c-3.2-6.83-7.53-14.41-13.29-19.65a.94.92-50.1 0 0-1.36.13c-.4.52.68 7.58 1.31 12.71q.15 1.23-.18 2.22a.78.78 0 0 1-1.26.34q-.69-.63-1.68-1.96-2.94-3.98-7.23-10.92c-.74-1.2-2.37-2.97-3.38-3.56a1.77 1.76-63.2 0 0-2.52.83q-1.07 2.49-.5 5.39 2.22 11.4 2.63 14.91a.84.84 0 0 1-1.21.85c-2.77-1.37-5.38-6.29-9.34-12.15a1.19 1.19 0 0 0-2.17.48q-.95 6.09.31 11.87 4.01 18.32 13.6 34.3" vector-effect="non-scaling-stroke"/><path stroke="#f6dfac" d="m372.08 797.31-4.9 7.88a2.37 2.15-8.5 0 1-.36.44c-7.49 7.12-16.46 4.05-24.19-1.06q-4.41-2.93-8.95-5.98" vector-effect="non-scaling-stroke"/><path stroke="#7a6847" d="M673.44 796.09q-2.12 8.41-.39 15.07c2.18 8.38 10.35 11.14 18.08 7.88 9.29-3.91 17.43-14.9 22.2-23.57" vector-effect="non-scaling-stroke"/><path stroke="#817a68" d="M713.33 795.47q10.07-16.16 13.07-35.23c.34-2.2.39-5.47-.15-7.89a1.32 1.31 55.1 0 0-2.39-.43q-2.77 4.28-6.1 8.83-1.6 2.19-3.1 3.06a.95.95 0 0 1-1.41-.99q1.32-7.08 2.8-13.27.74-3.1.13-5.96a2 1.99-17.9 0 0-2.75-1.4q-2.11.92-3.45 3.05-3.04 4.82-9.13 13.12a1 .99 66.5 0 1-1.79-.71l1.66-14.04a.71.71 0 0 0-1.18-.61q-3.83 3.4-7.14 8.39-8.25 12.47-14.04 28.43-3.8 10.48-4.92 16.27" vector-effect="non-scaling-stroke"/><path stroke="#f6dfac" d="M713.33 795.47q-2.54 1.53-7.46 6.38-4.95 4.89-14.63 6.98-8.94 1.93-14.03-5.1c-1.55-2.13-2.53-5.06-3.77-7.64" vector-effect="non-scaling-stroke"/><path stroke="#7c6026" d="M571.6 323.01c-4.7-3.08-9.86-.28-8.92 5.68q.34 2.19 1.84 4.12 6.27 8.1 16.09 7.87c3.22-.08 8.94-2.24 7.03-6.49q-.63-1.38-3.54-3.15-2.92-1.77-12.5-8.03m-115.95 1.7q-9.67 5.99-12.62 7.68-2.93 1.69-3.59 3.05c-2 4.17 3.63 6.46 6.83 6.62q9.76.46 16.18-7.44 1.54-1.88 1.93-4.05c1.08-5.9-3.98-8.81-8.73-5.86m124.148 28.236a33 27.38-97 0 0-23.154 36.09 33 27.38-97 0 0 31.198 29.418 33 27.38-97 0 0 23.154-36.09 33 27.38-97 0 0-31.198-29.418m-133.414 1.432a32.94 27.25-86.6 0 0-29.156 31.266 32.94 27.25-86.6 0 0 25.248 34.498 32.94 27.25-86.6 0 0 29.156-31.266 32.94 27.25-86.6 0 0-25.248-34.498" vector-effect="non-scaling-stroke"/><path stroke="#f9d68b" d="M686.238 408.144a15.57 6.69-16.9 0 0-16.843-1.875 15.57 6.69-16.9 0 0-12.953 10.927 15.57 6.69-16.9 0 0 16.843 1.875 15.57 6.69-16.9 0 0 12.953-10.927m-339.324 4.02a15.8 6.66-165.2 0 0 13.575 10.475 15.8 6.66-165.2 0 0 16.977-2.403 15.8 6.66-165.2 0 0-13.575-10.475 15.8 6.66-165.2 0 0-16.977 2.403" vector-effect="non-scaling-stroke"/><path stroke="#818080" d="M574.16 364.645a10.18 8.91-91.8 0 0-8.586 10.455 10.18 8.91-91.8 0 0 9.226 9.895 10.18 8.91-91.8 0 0 8.586-10.455 10.18 8.91-91.8 0 0-9.226-9.895m-120.808 1.473a10.2 8.87-87.8 0 0-9.255 9.851 10.2 8.87-87.8 0 0 8.471 10.534 10.2 8.87-87.8 0 0 9.256-9.852 10.2 8.87-87.8 0 0-8.472-10.534" vector-effect="non-scaling-stroke"/><path stroke="#817a68" d="M495.15 446.23q-1.92.84-1.49 3.54.28 1.76 1.6 3.85 5.44 8.61 15.48 12.37a.8.79-80.2 0 1 .51.73c.02 4.97.82 10.53-2.59 12.72-7.94 5.08-21.16 16.69-20.09 26.94a1.99 1.98-74.7 0 0 .79 1.39c3.29 2.43 7.23-3.32 9.29-5.96a.68.67-54 0 1 .91-.15c8.51 5.74 25.91 6.14 33.98-.76a.66.65-39.3 0 1 .94.09c2.71 3.33 5.49 7.89 9.03 6.54q1.54-.58 1.76-2.55c.69-6.11-6.93-14.72-11.61-18.67q-5.43-4.58-11.18-8.38a2.7 2.69 14.7 0 1-1.2-2.04l-.69-9.14a.88.87 77.6 0 1 .56-.89c6.7-2.63 14.53-9.03 16-16.63q.42-2.13-1.21-3.71" vector-effect="non-scaling-stroke"/><path stroke="#f8d1b7" d="M535.94 445.52c-6.95-8.9-22.89-8.16-32.43-5.27q-4.98 1.51-8.36 5.98" vector-effect="non-scaling-stroke"/><path stroke="#7c5a52" d="M535.94 445.52c-5.1 5.61-16.18 15.78-24.37 12.45q-8.26-3.36-16.42-11.74" vector-effect="non-scaling-stroke"/><path stroke="#f8d7cf" d="M512.299 445.29a5.33 3.16-1.3 0 0-5.4-3.04 5.33 3.16-1.3 0 0-5.258 3.28 5.33 3.16-1.3 0 0 5.4 3.04 5.33 3.16-1.3 0 0 5.258-3.28" vector-effect="non-scaling-stroke"/><path stroke="#7c5a52" d="M505.04 495.21q11.47 5.18 22.02-.34a.9.9 0 0 0 .16-1.49l-10.35-8.67a.76.74 44.3 0 0-.98 0l-11 9.52a.59.59 0 0 0 .15.98" vector-effect="non-scaling-stroke"/><path stroke="#7c6026" d="M306.358 659.196a7.83 4.02-75.9 0 0-5.807 6.615 7.83 4.02-75.9 0 0 1.992 8.573 7.83 4.02-75.9 0 0 5.806-6.615 7.83 4.02-75.9 0 0-1.991-8.573m-5.783 25.294a7.81 4.04-87.1 0 0-4.43 7.596 7.81 4.04-87.1 0 0 3.64 8.004 7.81 4.04-87.1 0 0 4.43-7.596 7.81 4.04-87.1 0 0-3.64-8.004m1.255 27.111a7.62 4.06-106.7 0 0-1.699 8.466 7.62 4.06-106.7 0 0 6.079 6.132 7.62 4.06-106.7 0 0 1.699-8.466 7.62 4.06-106.7 0 0-6.079-6.132m444.894-52.867a7.88 4-104.3 0 0-1.93 8.624 7.88 4-104.3 0 0 5.822 6.648 7.88 4-104.3 0 0 1.93-8.624 7.88 4-104.3 0 0-5.822-6.648" vector-effect="non-scaling-stroke"/><path stroke="#7c6026" d="M752.135 684.44a7.75 4.04-90.7 0 0-3.945 7.8 7.75 4.04-90.7 0 0 4.135 7.7 7.75 4.04-90.7 0 0 3.945-7.8 7.75 4.04-90.7 0 0-4.135-7.7m-1.674 26.993a7.61 4.18-73.5 0 0-6.169 6.11 7.61 4.18-73.5 0 0 1.847 8.484 7.61 4.18-73.5 0 0 6.169-6.11 7.61 4.18-73.5 0 0-1.847-8.484" vector-effect="non-scaling-stroke"/></g><path fill="#fdfdfd" d="M1024 0v1024H0V0zM758.81 293.01c-1.29 7.07 2.55 12.84 10.14 11.57q4.98-.83 6.59-5.81c2.21-6.82 4.01-11.26 10.08-15.42 8.21-5.62 19.15-10.98 24.82-20.77 9.31-16.08 5.39-35.64-10.5-45.88q-11.51-7.42-25.41-6.45c-8.05.56-24.21 5-23.5 15.33.48 7.08 7.27 9 12.74 5.71 9.45-5.67 21.9-6.56 29.5 3.1 6.02 7.67 3.44 17.86-2.98 24.48-5.64 5.82-12.87 9.74-18.68 13.96q-10.51 7.64-12.8 20.18m-288.79-52.82q-1.92.21-3.29.53-21.18 4.89-41.21 14.43a.58.58 0 0 1-.74-.23c-6.02-9.87-12.4-18.46-22.18-24.94q-12.92-8.56-28.53-8.83c-18.26-.31-33.96 8.07-45.27 22.67-11.82 15.25-14.84 35.56-9.75 54.07 3.43 12.46 10.96 22.75 21.01 30.53a.54.53-54.4 0 1 .11.72q-16.68 24.94-29.66 52.93a4.55 4.53 89.5 0 1-2.14 2.19c-29.51 14.41-44.95 45-48.09 77.39a.74.73 82.5 0 1-.48.63c-1.53.59-4 1.35-5.09 1.92-12.94 6.66-18.46 21.69-18.87 35.56-.9 30.76 10.5 61.67 28.45 86.5 4.67 6.47 10.55 12.55 16.27 18.64a1.15 1.12-62.3 0 1 .29.98q-4.78 26.06-4.73 51.89c.01 1.52-.22 3.63-.71 4.85-8.17 20.33-10.85 42.84-5.64 64.38q9 37.26 39.67 60.43 5.46 4.12 10.6 7.45a3.55 3.5-87.1 0 1 1.23 1.38c5.24 10.55 11.52 19.72 20.68 27.04 13.18 10.53 32.02 11.67 39.08-6.72a1.26 1.25 15.5 0 1 1.39-.78c42.72 7.7 85.57 4.88 128.58 2.88q15.12-.7 27.26-.06 35.25 1.87 59.24 2.21 33.57.48 65.57-5.07a1.04 1.03 74.8 0 1 1.15.66q3.93 10.61 13.98 13.25c19.01 5.01 36.13-15.07 44.33-29.54a7.32 7.27-.6 0 1 2.64-2.68c14.71-8.64 27.76-18.89 38.27-32.53q29.64-38.47 19.21-85.86c-1.14-5.18-3.56-12.04-4.65-15.81a13.96 13.78-52.9 0 1-.54-4.11c.64-39.9-4.74-79.87-15.01-118.23a.9.88 58.3 0 1 .19-.83c19.96-22.86 28.37-50.54 24.97-80.69q-2.35-20.96-11.58-39.81-16.31-33.32-50.35-45.98a3.51 3.43 73.7 0 1-.94-.53q-1.57-1.21-3.06-3.48-17.32-26.37-35.28-49.67a1.11 1.1-40.5 0 1 .12-1.48c16.12-15.18 22.36-35.54 17.77-57.23-5.47-25.83-26.73-45.72-53.53-46.99-25.26-1.19-43.4 14.62-54.3 36.12a.83.82-65.8 0 1-1.03.4q-23.91-9.24-48.27-13.46a2.95 2.84-26.1 0 1-.78-.25q-1.5-.71-2.57-2.3-6.26-9.29-12.41-17.37-2.74-3.59-4.66-4.41c-6.51-2.79-10.46.34-13.73 5.76a.55.54-58.2 0 1-.76.18c-4.73-2.98-10.08-5.96-15.12-7.02-7.25-1.53-14.41-.25-13.75 8.61q.1 1.37.1 1.46a.5.49-86.2 0 1-.54.48c-6.36-.58-17.98-.99-17.32 8.74q.3 4.35 4.62 8.36a.39.39 0 0 1-.22.67m301.66 81.44a10.02 10.02 0 0 0-10.02-10.02 10.02 10.02 0 0 0-10.02 10.02 10.02 10.02 0 0 0 10.02 10.02 10.02 10.02 0 0 0 10.02-10.02"/><path fill="#6bb1d7" d="M768.95 304.58c-7.59 1.27-11.43-4.5-10.14-11.57q2.29-12.54 12.8-20.18c5.81-4.22 13.04-8.14 18.68-13.96 6.42-6.62 9-16.81 2.98-24.48-7.6-9.66-20.05-8.77-29.5-3.1-5.47 3.29-12.26 1.37-12.74-5.71-.71-10.33 15.45-14.77 23.5-15.33q13.9-.97 25.41 6.45c15.89 10.24 19.81 29.8 10.5 45.88-5.67 9.79-16.61 15.15-24.82 20.77-6.07 4.16-7.87 8.6-10.08 15.42q-1.61 4.98-6.59 5.81"/><path fill="#040303" d="M470.02 240.19a.39.39 0 0 0 .22-.67q-4.32-4.01-4.62-8.36c-.66-9.73 10.96-9.32 17.32-8.74a.5.49-86.2 0 0 .54-.48q0-.09-.1-1.46c-.66-8.86 6.5-10.14 13.75-8.61 5.04 1.06 10.39 4.04 15.12 7.02a.55.54-58.2 0 0 .76-.18c3.27-5.42 7.22-8.55 13.73-5.76q1.92.82 4.66 4.41 6.15 8.08 12.41 17.37 1.07 1.59 2.57 2.3a2.95 2.84-26.1 0 0 .78.25q24.36 4.22 48.27 13.46a.83.82-65.8 0 0 1.03-.4c10.9-21.5 29.04-37.31 54.3-36.12 26.8 1.27 48.06 21.16 53.53 46.99 4.59 21.69-1.65 42.05-17.77 57.23a1.11 1.1-40.5 0 0-.12 1.48q17.96 23.3 35.28 49.67 1.49 2.27 3.06 3.48a3.51 3.43 73.7 0 0 .94.53q34.04 12.66 50.35 45.98 9.23 18.85 11.58 39.81c3.4 30.15-5.01 57.83-24.97 80.69a.9.88 58.3 0 0-.19.83c10.27 38.36 15.65 78.33 15.01 118.23a13.96 13.78-52.9 0 0 .54 4.11c1.09 3.77 3.51 10.63 4.65 15.81q10.43 47.39-19.21 85.86c-10.51 13.64-23.56 23.89-38.27 32.53a7.32 7.27-.6 0 0-2.64 2.68c-8.2 14.47-25.32 34.55-44.33 29.54q-10.05-2.64-13.98-13.25a1.04 1.03 74.8 0 0-1.15-.66q-32 5.55-65.57 5.07-23.99-.34-59.24-2.21-12.14-.64-27.26.06c-43.01 2-85.86 4.82-128.58-2.88a1.26 1.25 15.5 0 0-1.39.78c-7.06 18.39-25.9 17.25-39.08 6.72-9.16-7.32-15.44-16.49-20.68-27.04a3.55 3.5-87.1 0 0-1.23-1.38q-5.14-3.33-10.6-7.45-30.67-23.17-39.67-60.43c-5.21-21.54-2.53-44.05 5.64-64.38.49-1.22.72-3.33.71-4.85q-.05-25.83 4.73-51.89a1.15 1.12-62.3 0 0-.29-.98c-5.72-6.09-11.6-12.17-16.27-18.64-17.95-24.83-29.35-55.74-28.45-86.5.41-13.87 5.93-28.9 18.87-35.56 1.09-.57 3.56-1.33 5.09-1.92a.74.73 82.5 0 0 .48-.63c3.14-32.39 18.58-62.98 48.09-77.39a4.55 4.53 89.5 0 0 2.14-2.19q12.98-27.99 29.66-52.93a.54.53-54.4 0 0-.11-.72c-10.05-7.78-17.58-18.07-21.01-30.53-5.09-18.51-2.07-38.82 9.75-54.07 11.31-14.6 27.01-22.98 45.27-22.67q15.61.27 28.53 8.83c9.78 6.48 16.16 15.07 22.18 24.94a.58.58 0 0 0 .74.23q20.03-9.54 41.21-14.43 1.37-.32 3.29-.53m-42.65 27.78q-17.96 8.94-28.92 16.99-10.15 7.45-20.13 15.11-2.98 2.29-7.18 3.11.89-4.54 5.07-9.49 9.3-11.03 13.42-14.13a.74.73-28.8 0 0 .25-.83c-3.7-10.44-13.28-23.88-25.38-24.7q-5.11-.34-10.34 3.27-.77-.01-1.15-.65-.33-.57-.01-1.31.52-1.23 1.75-2.59 5.42-6.03 13.77-5.81 13.67 2.03 22.62 13.18 4.3 5.36 7.51 11.27a.58.57-31.2 0 0 .83.2l10.2-6.95 3.83-2.24a.56.56 0 0 0 .23-.71q-4.61-10.19-12.96-17.45-19.14-16.67-43.08-7.18-9.72 4.2-15.7 10.95c-18.96 21.37-16.58 53.74 6.39 71.36a.65.64 41.6 0 0 .83-.04q5.85-5.61 12.41-9.84 1.1-.01 1.87.85c.62 4.55-3.18 10.55-5.53 14.13-12.48 18.99-22.85 35.67-32.19 54.99a.24.24 0 0 0 .26.34q6.65-1.3 14.05-.84 8.93.13 17.6 4.66a1.08 1.08 0 0 1-.03 1.93q-1.12.53-3.09.57c-25.24-.53-47.73 7.2-63.51 27.64-10.74 13.92-16.51 31.39-18.21 48.94a1.05 1.03-75.6 0 0 .61 1.05c4.37 1.98 8.12 6.23 6.48 11.35a1.14 1.12 37.4 0 0 .14.98q.74 1.1 1.87 2.45 4.02 4.83 1.52 11.27 4.43 8.64-2.01 15.04a1.56 1.54-32.9 0 0-.36 1.64q5.36 14.04 14.2 23.72 15.3 16.74 35.02 25.46c15.23 6.73 30.54 10.51 47.93 10.98q24.86.67 45.61-3.77c10.71-2.3 16.3-3.41 26.26-6q6.03-1.57 12.33-2.82l4.29 1.17q-12.54 7.25-25.15 11.2c-22.4 7.3-44.13 11.34-67.57 10.51q-33.24-1.17-61.78-17.91-21.19-12.43-33.85-31.48l-2.57-4.16-2.36-4.3-3.1-6.35a.76.74-20.6 0 0-.88-.39l-3.59 1.05a1.81 1.8 83.4 0 1-2.3-1.83c.24-4.85 4.88-7.93 9.38-11.35q1.94-1.47 2.7-3.66a1.71 1.71 0 0 0-.85-2.09c-3.42-1.71-9.49.31-13.16 1.56a1.14 1.14 0 0 1-1.48-1.34q.25-1.06 1.51-2.28 5.21-5.08 12.17-6.75a1.96 1.95-9.3 0 0 1.49-2.06q-.06-.6-.58-1.18a1.7 1.7 0 0 0-.8-.49c-5.44-1.48-11.26.56-16.25 2.44a.81.81 0 0 1-1.09-.68c-.46-4.63 9.56-8.89 13.38-9.8a1.05 1.05 0 0 0 .43-1.83q-1-.82-2.91-.92c-11-.58-18.77 8.61-20.82 18.56q-2.77 13.41-.23 28 3.23 18.36 11.48 36.22 7.9 16.76 19.09 31.88 5.96 8.37 12.46 16.35c4.04 4.95 7.66 10.02 9.65 15.2a.74.74 0 0 1-.97.95q-3.73-1.48-6.49-3.89a.49.49 0 0 0-.81.31l-2.5 20.36-.42 8.06a.3.3 0 0 0 .52.21l3.94-4.71a1.08 1.08 0 0 1 1.91.66q.07 1.98-.62 4.16-2.08 6.57-6.44 18.09-6.11 16.16-7.7 33.19-1.03 12.23.01 19.16 5.44 36.12 32.74 59.83a.31.3-78.1 0 0 .49-.32q-2.84-9.47-1.82-18.85l.22-1.33c1.3-5.53 3.72-9.87 9.68-11.02a.99.97 3.5 0 0 .74-.64q4.41-12.98 17.51-6.65a.94.93 44 0 0 .83-.01c8.98-4.7 16.6 4.03 21.15 10.74q11.25 16.58 16.5 35.4 3.52 10.77 4.81 21.47a.72.7-87.2 0 0 .54.61c19.46 4.49 39.71 5.48 59.64 5.85 22.94.02 45.85-1.59 68.8-2.62 14.49-.65 30.89-.3 43.34.52q25.83 1.69 51.71 1.57 28.27-.04 56.19-5.22a.54.53-2.2 0 0 .44-.47q1.16-11.6 4.9-22.34 6.28-21.56 20-38.67c4.64-5.8 10.89-10.87 18.56-6.83a.99.97-43 0 0 .86.02q13.15-5.93 17.07 6.53a1.44 1.41 88.3 0 0 .98.94q4.77 1.3 7.23 5.1 2.09 3.76 2.63 9.52.13 9.93-3.24 20.46a.35.35 0 0 0 .55.38c10.29-8.12 20.01-17.9 26.8-29.26q7.48-12.5 11.6-27.34c1.42-5.13 1.87-11.09 2.29-16.32q.18-2.24-.15-4.52.01-20.08-7.02-39.03-5.09-13.73-5.92-16.39-1.07-3.43-1.14-6.07a1.08 1.08 0 0 1 1.74-.88q2.54 1.94 4.45 5.11a.35.35 0 0 0 .65-.19c-.49-21.87-3.12-41.16-6.95-64.95q-.28-1.69-1.64-8.08l-4.14-19.13a.67.67 0 0 0-1.07-.38q-26.57 21.01-60.12 26.58-17 2.82-31.77 2.16-33.79-1.53-66.24-14.48-4.2-1.79-8.64-3.42-5.57-2.05-9.87-6.06 3.35-.8 5.71-.31 5.08 1 6.51 1.4 16.42 4.62 29.22 7.53 20.68 4.7 43.31 5.18c30.9.66 62.22-8.64 85.41-29.09 18.28-16.12 28.91-38.65 29.99-62.91q.68-15.37-3.03-30.88-5.82-24.37-22.3-42.54-19.37-19.92-46.82-23.62-6.47-.87-17.78-.88l-7.57-.49a.8.8 0 0 1-.52-1.35q1.44-1.48 3.95-2.47 12.24-4.66 25.43-3.68a.19.19 0 0 0 .18-.3q-12.88-19.59-26.9-38.36-3.49-4.66-8.01-9.73-7.91-8.87-11.83-19.53 1.6-1.38 3.82-.58 6.12 3.43 11.22 8.22a.77.76 46.5 0 0 1.02.03c22.81-19.43 21.44-54.52-.72-74.09-13-10.93-31.82-13.94-46.74-4.96q-14.85 8.94-21.52 25.08a.51.51 0 0 0 .23.64l4.23 2.31 10.86 6.3a.58.58 0 0 0 .84-.3q3.53-9.84 10.69-17.15c9.29-9.48 23.1-13.92 33.09-2.42a1.33 1.32 46.2 0 1-.03 1.78l-.76.82c-7.18-4.51-14.82-3.32-21.03 2.2-6.41 5.7-10.27 13.28-13.1 21.47a.89.87-62.1 0 0 .29.98q10.15 7.76 18 17.65 1.04 1.31 2.35 4.39-2 .44-3.86-.62-3.69-2.12-7.28-4.11-42.99-31.49-95.22-41.1c-11.03-2.03-18.27-16.83-23.53-25.82a.78.78 0 0 0-1.36.02c-1.7 3.05-1.68 7.79-2.18 12.47a2.11 2.01-87.6 0 1-1.94 1.87q-.73.02-1.7-.9c-6.16-5.81-12.42-11.54-20.01-14.82a.46.46 0 0 0-.55.7c2.79 3.76 8.73 13.42 6.26 17.44a.7.69-68.9 0 1-.71.32q-2.27-.41-6.07-2.86c-4.73-3.03-9.78-5.05-15.38-5.55a.42.42 0 0 0-.28.76c3.48 2.47 10.89 8.9 7.72 13.63q-1.66 2.48-5.36 3.11-28.49 4.85-54.37 17.88m-93.69 530.62c4.88 8.81 16.3 23.66 28.11 22.13 11.55-1.5 11.95-13.88 10.29-23.41q-.98-5.94-3.28-12.65-3.78-11.04-8.85-21.86c-3.2-6.83-7.53-14.41-13.29-19.65a.94.92-50.1 0 0-1.36.13c-.4.52.68 7.58 1.31 12.71q.15 1.23-.18 2.22a.78.78 0 0 1-1.26.34q-.69-.63-1.68-1.96-2.94-3.98-7.23-10.92c-.74-1.2-2.37-2.97-3.38-3.56a1.77 1.76-63.2 0 0-2.52.83q-1.07 2.49-.5 5.39 2.22 11.4 2.63 14.91a.84.84 0 0 1-1.21.85c-2.77-1.37-5.38-6.29-9.34-12.15a1.19 1.19 0 0 0-2.17.48q-.95 6.09.31 11.87 4.01 18.32 13.6 34.3m339.76-2.5q-2.12 8.41-.39 15.07c2.18 8.38 10.35 11.14 18.08 7.88 9.29-3.91 17.43-14.9 22.2-23.57q10.07-16.16 13.07-35.23c.34-2.2.39-5.47-.15-7.89a1.32 1.31 55.1 0 0-2.39-.43q-2.77 4.28-6.1 8.83-1.6 2.19-3.1 3.06a.95.95 0 0 1-1.41-.99q1.32-7.08 2.8-13.27.74-3.1.13-5.96a2 1.99-17.9 0 0-2.75-1.4q-2.11.92-3.45 3.05-3.04 4.82-9.13 13.12a1 .99 66.5 0 1-1.79-.71l1.66-14.04a.71.71 0 0 0-1.18-.61q-3.83 3.4-7.14 8.39-8.25 12.47-14.04 28.43-3.8 10.48-4.92 16.27"/><path fill="#f4bc48" d="M642.05 290.82q-2.63 11.23-3.14 20.29c-1.19 20.95 6.49 40.12 24.04 52.4q8.83 6.19 18.63 11.27-2.51.99-3.95 2.47a.8.8 0 0 0 .52 1.35l7.57.49q-.52.18-.43.55.14.59.76.62 7.03.37 12.88 2.64c10.9 4.22 21.62 8.87 30.74 16.2q10.63 8.54 19.36 19.22c-4.66 30.7-28.13 54.14-56.02 65.82q-6.2-10.33-13.78-19.34c-12.09-14.39-28.58-16.96-45.47-10.26q-7.92 3.14-17.84 7.92-7.26 3.5-21.18 8.22-8.05-1.54-16.12-1.59l-8.26-9.07q26.97-10.67 55.02-15.71a.48.47-46.9 0 0-.03-.94c-19.14-2.09-40.32 2.22-56.35 12.84q-3.07-2.59-3.84-3.61-8.36-11.13-19.02-18.47-18.2-12.56-41.06-8.06-5.38 1.05-13.47 5.3c-5.96 3.12-13.4 10.76-17.35 15.14q-7.92 8.78-10.38 11.28-26.61-16.53-58.11-13.04-.4.05-.62.27a.41.41 0 0 0 .22.69q29.16 4.66 56.69 15.34l-7.7 8.58-7.58.44q-15.73-4.18-22.64-7.16-15.34-6.6-22.77-9.56c-13.05-5.21-26.12-5.23-37.65 3.68-9.44 7.3-17.29 16.65-25.4 26.58-14.85-7.93-27.98-18.4-36.58-33.09q-4.64-7.94-8.05-16.53-1.02-3.87.59-6.41 4.32-6.81 11.62-14.68c5.98-6.45 11.63-9.6 19.5-14.73q8.53-5.55 18.72-9.04 2.88-.98 9.4-1.36 2.11-.12 1.05-1.65 1.97-.04 3.09-.57a1.08 1.08 0 0 0 .03-1.93q-8.67-4.53-17.6-4.66 1.94-3.21 4.05-6.6.96-1.54 5.07-10.94 2.74-6.25 5.23-10.83c4.2-7.69 7.42-14.97 11.87-21.78q7.37-11.27 14.32-21.18 1.93-2.74 3.64-4.62 7.53-8.3 14.41-15.02 2.82-2.76 5.16-4.41 1.79-1.27 5.38-4.12.56-.45 5.45-3.01.51-.26.87-.28.55-.04.76-.55a.85.84-89 0 1 .48-.47q1.85-.69 4.94-2.59.5-.31 1.02-.59 2.87-1.58 4.63-4 25.88-13.03 54.37-17.88 3.7-.63 5.36-3.11c3.17-4.73-4.24-11.16-7.72-13.63a.42.42 0 0 1 .28-.76c5.6.5 10.65 2.52 15.38 5.55q3.8 2.45 6.07 2.86a.7.69-68.9 0 0 .71-.32c2.47-4.02-3.47-13.68-6.26-17.44a.46.46 0 0 1 .55-.7c7.59 3.28 13.85 9.01 20.01 14.82q.97.92 1.7.9a2.11 2.01-87.6 0 0 1.94-1.87c.5-4.68.48-9.42 2.18-12.47a.78.78 0 0 1 1.36-.02c5.26 8.99 12.5 23.79 23.53 25.82q52.23 9.61 95.22 41.1m-70.45 32.19c-4.7-3.08-9.86-.28-8.92 5.68q.34 2.19 1.84 4.12 6.27 8.1 16.09 7.87c3.22-.08 8.94-2.24 7.03-6.49q-.63-1.38-3.54-3.15-2.92-1.77-12.5-8.03m-115.95 1.7q-9.67 5.99-12.62 7.68-2.93 1.69-3.59 3.05c-2 4.17 3.63 6.46 6.83 6.62q9.76.46 16.18-7.44 1.54-1.88 1.93-4.05c1.08-5.9-3.98-8.81-8.73-5.86m124.148 28.236a33 27.38-97 0 0-23.154 36.09 33 27.38-97 0 0 31.198 29.418 33 27.38-97 0 0 23.154-36.09 33 27.38-97 0 0-31.198-29.418m-133.414 1.432a32.94 27.25-86.6 0 0-29.156 31.266 32.94 27.25-86.6 0 0 25.248 34.498 32.94 27.25-86.6 0 0 29.156-31.266 32.94 27.25-86.6 0 0-25.248-34.498m239.854 53.766a15.57 6.69-16.9 0 0-16.843-1.875 15.57 6.69-16.9 0 0-12.953 10.927 15.57 6.69-16.9 0 0 16.843 1.875 15.57 6.69-16.9 0 0 12.953-10.927m-339.324 4.02a15.8 6.66-165.2 0 0 13.575 10.475 15.8 6.66-165.2 0 0 16.977-2.403 15.8 6.66-165.2 0 0-13.575-10.475 15.8 6.66-165.2 0 0-16.977 2.403"/><path fill="#efcd8b" d="M675.79 236.76q-3.89-.45-4.96-1.33-8.02-6.59-18.55-4.85-10.79 1.77-20.31 6.87-5.94 3.19-9.54 7.72-4.63 5.82-10.44 14.66l-4.23-2.31a.51.51 0 0 1-.23-.64q6.67-16.14 21.52-25.08c14.92-8.98 33.74-5.97 46.74 4.96"/><path fill="#f4bc48" d="M675.79 236.76c22.16 19.57 23.53 54.66.72 74.09a.77.76 46.5 0 1-1.02-.03q-5.1-4.79-11.22-8.22.06-1.79 1.28-3.37a3.06 3.05-16.6 0 0 .45-.83q.59-1.61 3.01-5.88 4.09-7.19 4.8-16.16.34-4.32-.86-10.12c-1.18-5.71-2.6-12.43-6.27-17.38l.76-.82a1.33 1.32 46.2 0 0 .03-1.78c-9.99-11.5-23.8-7.06-33.09 2.42q-7.16 7.31-10.69 17.15a.58.58 0 0 1-.84.3l-10.86-6.3q5.81-8.84 10.44-14.66 3.6-4.53 9.54-7.72 9.52-5.1 20.31-6.87 10.53-1.74 18.55 4.85 1.07.88 4.96 1.33"/><path fill="#efcd8b" d="M409.68 264.64q-1.89-2.76-6.84-8.73-8.16-9.86-18.34-14.19-4.17-1.78-7.78-3.42-7.53-2.91-15.14-1.2a1.74 1.56-48.2 0 1-.36.04l-3.52-.08q23.94-9.49 43.08 7.18 8.35 7.26 12.96 17.45a.56.56 0 0 1-.23.71z"/><path fill="#ee9c36" d="m376.72 238.3-8.2 8.64q-8.35-.22-13.77 5.81-1.23 1.36-1.75 2.59-.32.74.01 1.31.38.64 1.15.65-11.99 22.68 1.52 44.46 2.68 4.32 5.95 7.73-6.56 4.23-12.41 9.84a.65.64 41.6 0 1-.83.04c-22.97-17.62-25.35-49.99-6.39-71.36q5.98-6.75 15.7-10.95l3.52.08a1.74 1.56-48.2 0 0 .36-.04q7.61-1.71 15.14 1.2"/><path fill="#f4bc48" d="m409.68 264.64-10.2 6.95a.58.57-31.2 0 1-.83-.2q-3.21-5.91-7.51-11.27-8.95-11.15-22.62-13.18l8.2-8.64q3.61 1.64 7.78 3.42 10.18 4.33 18.34 14.19 4.95 5.97 6.84 8.73"/><path fill="#f3b1a0" d="M666.68 248.86c3.67 4.95 5.09 11.67 6.27 17.38q1.2 5.8.86 10.12-.71 8.97-4.8 16.16-2.42 4.27-3.01 5.88a3.06 3.05-16.6 0 1-.45.83q-1.22 1.58-1.28 3.37-2.22-.8-3.82.58-4.18-3.21-7.26-7.63-1.31-3.08-2.35-4.39-7.85-9.89-18-17.65a.89.87-62.1 0 1-.29-.98c2.83-8.19 6.69-15.77 13.1-21.47 6.21-5.52 13.85-6.71 21.03-2.2m-295.54 54.32q-2.72 3.72-7.64 7.16-.77-.86-1.87-.85-3.27-3.41-5.95-7.73-13.51-21.78-1.52-44.46 5.23-3.61 10.34-3.27c12.1.82 21.68 14.26 25.38 24.7a.74.73-28.8 0 1-.25.83q-4.12 3.1-13.42 14.13-4.18 4.95-5.07 9.49"/><path fill="#efcd8b" d="M427.37 267.97q-1.76 2.42-4.63 4-.52.28-1.02.59-3.09 1.9-4.94 2.59a.85.84-89 0 0-.48.47q-.21.51-.76.55-.36.02-.87.28-4.89 2.56-5.45 3.01-3.59 2.85-5.38 4.12-2.34 1.65-5.16 4.41-6.88 6.72-14.41 15.02-1.71 1.88-3.64 4.62-6.95 9.91-14.32 21.18c-4.45 6.81-7.67 14.09-11.87 21.78q-2.49 4.58-5.23 10.83-4.11 9.4-5.07 10.94-2.11 3.39-4.05 6.6-7.4-.46-14.05.84a.24.24 0 0 1-.26-.34c9.34-19.32 19.71-36 32.19-54.99 2.35-3.58 6.15-9.58 5.53-14.13q4.92-3.44 7.64-7.16 4.2-.82 7.18-3.11 9.98-7.66 20.13-15.11 10.96-8.05 28.92-16.99"/><path fill="#ee9c36" d="M653.19 295.55q3.08 4.42 7.26 7.63 3.92 10.66 11.83 19.53 4.52 5.07 8.01 9.73 14.02 18.77 26.9 38.36a.19.19 0 0 1-.18.3q-13.19-.98-25.43 3.68-9.8-5.08-18.63-11.27c-17.55-12.28-25.23-31.45-24.04-52.4q.51-9.06 3.14-20.29 3.59 1.99 7.28 4.11 1.86 1.06 3.86.62"/><circle cx="761.66" cy="321.63" r="10.02" fill="#6bb1d7"/><path fill="#040303" d="M562.68 328.69c-.94-5.96 4.22-8.76 8.92-5.68q9.58 6.26 12.5 8.03 2.91 1.77 3.54 3.15c1.91 4.25-3.81 6.41-7.03 6.49q-9.82.23-16.09-7.87-1.5-1.93-1.84-4.12m-107.03-3.98c4.75-2.95 9.81-.04 8.73 5.86q-.39 2.17-1.93 4.05-6.42 7.9-16.18 7.44c-3.2-.16-8.83-2.45-6.83-6.62q.66-1.36 3.59-3.05 2.95-1.69 12.62-7.68m124.148 28.236a33 27.38-97 0 1 31.198 29.417 33 27.38-97 0 1-23.154 36.091 33 27.38-97 0 1-31.198-29.417 33 27.38-97 0 1 23.154-36.091m-5.638 11.699a10.18 8.91-91.8 0 0-8.586 10.455 10.18 8.91-91.8 0 0 9.226 9.895 10.18 8.91-91.8 0 0 8.586-10.455 10.18 8.91-91.8 0 0-9.226-9.895m-127.776-10.267a32.94 27.25-86.6 0 1 25.248 34.498 32.94 27.25-86.6 0 1-29.156 31.266 32.94 27.25-86.6 0 1-25.248-34.498 32.94 27.25-86.6 0 1 29.156-31.266m6.968 11.74a10.2 8.87-87.8 0 0-9.255 9.851 10.2 8.87-87.8 0 0 8.471 10.534 10.2 8.87-87.8 0 0 9.256-9.852 10.2 8.87-87.8 0 0-8.472-10.534"/><ellipse fill="#fdfdfd" rx="10.18" ry="8.91" transform="rotate(-91.8 468.853 -90.945)"/><ellipse fill="#fdfdfd" rx="10.2" ry="8.87" transform="rotate(-87.8 422.002 -47.193)"/><path fill="#efcd8b" d="M750.32 403.59q-.82 0-1.08.45-.21.35.08 1.18 2.31 6.48-.29 13.1-8.73-10.68-19.36-19.22c-9.12-7.33-19.84-11.98-30.74-16.2q-5.85-2.27-12.88-2.64-.62-.03-.76-.62-.09-.37.43-.55 11.31.01 17.78.88 27.45 3.7 46.82 23.62m-395.75-17.47q1.06 1.53-1.05 1.65-6.52.38-9.4 1.36-10.19 3.49-18.72 9.04c-7.87 5.13-13.52 8.28-19.5 14.73q-7.3 7.87-11.62 14.68-1.61 2.54-.59 6.41-2.48-6.58-3.43-13.92-.29-2.21.76-4.18.28-.53.04-2.13c15.78-20.44 38.27-28.17 63.51-27.64"/><path fill="#fdf0cd" d="M750.32 403.59q16.48 18.17 22.3 42.54 3.71 15.51 3.03 30.88-.34-.18-.5.26-.2.53-.35.56-.19.03-.34-.1a.54.54 0 0 0-.79.11q-.56.84-2.14 4.25c-1.91 4.12-5.12 8.14-6.98 11.32-3.33 5.7-7.59 9.95-13.06 16.17q-4.99 5.68-8.64 8.67c-14.79 12.1-30.3 21.79-48.57 28.1q-18.6 6.42-32.67 8.52-16.14 2.4-35.11 2.33-18.81-.07-35.9-2.11-2.49-.29-4.7-.27-2.3.03-4.69.08-2.36-.49-5.71.31l-8.65 1.16a.39.39 0 0 0-.13.74c4.39 2.23 8.09 5.64 12.57 7.55q8.8 3.77 14.17 6.8 3.1 1.74 5.88 3.23 7.83 9 9.71 18.61-1.79.23-2.76 1.99c-5.41 9.8-7.6 19.77-9.17 30.34q-.18 1.2-5.24 38.44-1.29 9.55-6.91 24.56c-3.58 9.57-7.03 19.31-3.09 29.22q2.3 5.81 8.18 7.52a1.69 1.65-10.5 0 1 .85.57q.46.57 1.25 1.82c3.33 5.3 10.39 6.07 15.58 2.64a1.15 1.13 37.4 0 1 .99-.12q6.51 2.27 11.8-1.27 10.39-6.97 15.66-18.85 8.73-2.83 16.11-7.22a.76.76 0 0 1 1.14.6c.94 14.33-1.65 27.51-5.62 41.3q-5.48 19.02-16.96 35.37-2.86 4.08-3.1 4.31-1.55 1.48-4.98 1.5-26.13.19-53.05-4.49-21.7-3.78-30.54-4.88-14.89-1.86-32.5-.8c-11.62.71-23.03 3.11-34.2 4.89q-27.87 4.42-55.1 3.92a1.03 1.03 0 0 1-.81-.42q-13.73-18.47-19.91-40.09-3.73-13.09-4.52-19.58-.47-3.81-.9-5.64c-4.38-43.55 6.83-85.19 28.79-122.63q6.01-10.25 12.35-17.82.35-.05.61-.26.35-.29.54-.35 6.26-2.13 10.64-4.22 14.13-6.73 27.46-15.68c.79-.53 1.53-.58 2.1-.94a.35.35 0 0 0-.06-.62q-4.12-1.55-6.94-1.19l-4.29-1.17q-8.57-.7-17.07-.25-12.83.68-14.8.64c-8.39-.15-16.78.55-24.77.08q-37.27-2.22-68.98-17.85c-16-7.88-33.51-20.71-44.48-35.86q-2.82-3.89-6.88-8.85-.14-.17-.31-.93-.17-.77-1.69-1.23 2.5-6.44-1.52-11.27-1.13-1.35-1.87-2.45a1.14 1.12 37.4 0 1-.14-.98c1.64-5.12-2.11-9.37-6.48-11.35a1.05 1.03-75.6 0 1-.61-1.05c1.7-17.55 7.47-35.02 18.21-48.94q.24 1.6-.04 2.13-1.05 1.97-.76 4.18.95 7.34 3.43 13.92 3.41 8.59 8.05 16.53c8.6 14.69 21.73 25.16 36.58 33.09 21.67 11.08 47.28 13.44 71.12 8.97 9.36-1.75 19.15-5.99 27.69-9.95q5.34-2.47 9.49-6.57l18.19-2.96a1.05 1.05 0 0 0 .55-1.8c-1.8-1.68-8.16-1.62-11-1.67l7.7-8.58q2.08 1.04 4.39 1.84.98.34 1.48-.03a.7.7 0 0 0 .05-1.07q-2.19-2.02-4.1-4 2.46-2.5 10.38-11.28c3.95-4.38 11.39-12.02 17.35-15.14q8.09-4.25 13.47-5.3 22.86-4.5 41.06 8.06 10.66 7.34 19.02 18.47.77 1.02 3.84 3.61l-5.67 5.04a.6.6 0 0 0 .22 1.02q.75.23 1.79-.16 2.71-1.02 5.02-2.09l8.26 9.07c-3.29.05-10.04-.17-12.61 1.77a.88.88 0 0 0 .39 1.57l26.35 4.15q.3 1.31 2.97 2.73 8.53 4.54 11.41 5.56c8.12 2.86 18.15 5.7 27.73 6.88 19.22 2.37 40.19.18 58.15-7.61 27.89-11.68 51.36-35.12 56.02-65.82q2.6-6.62.29-13.1-.29-.83-.08-1.18.26-.45 1.08-.45m-255.17 42.64q-1.92.84-1.49 3.54.28 1.76 1.6 3.85 5.44 8.61 15.48 12.37a.8.79-80.2 0 1 .51.73c.02 4.97.82 10.53-2.59 12.72-7.94 5.08-21.16 16.69-20.09 26.94a1.99 1.98-74.7 0 0 .79 1.39c3.29 2.43 7.23-3.32 9.29-5.96a.68.67-54 0 1 .91-.15c8.51 5.74 25.91 6.14 33.98-.76a.66.65-39.3 0 1 .94.09c2.71 3.33 5.49 7.89 9.03 6.54q1.54-.58 1.76-2.55c.69-6.11-6.93-14.72-11.61-18.67q-5.43-4.58-11.18-8.38a2.7 2.69 14.7 0 1-1.2-2.04l-.69-9.14a.88.87 77.6 0 1 .56-.89c6.7-2.63 14.53-9.03 16-16.63q.42-2.13-1.21-3.71c-6.95-8.9-22.89-8.16-32.43-5.27q-4.98 1.51-8.36 5.98"/><ellipse fill="#fdf0cd" rx="15.57" ry="6.69" transform="rotate(-16.9 1724.58 -2053.172)"/><ellipse fill="#fdf0cd" rx="15.8" ry="6.66" transform="rotate(194.8 208.122 184.58)"/><path fill="#f3b1a0" d="M535.94 445.52c-5.1 5.61-16.18 15.78-24.37 12.45q-8.26-3.36-16.42-11.74 3.38-4.47 8.36-5.98c9.54-2.89 25.48-3.63 32.43 5.27m-23.641-.23a5.33 3.16-1.3 0 0-5.4-3.04 5.33 3.16-1.3 0 0-5.258 3.28 5.33 3.16-1.3 0 0 5.4 3.04 5.33 3.16-1.3 0 0 5.258-3.28"/><ellipse fill="#fdfdfd" rx="5.33" ry="3.16" transform="rotate(-1.3 19883.5 -22120.368)"/><path fill="#040303" d="M570.36 460.02q-2.31 1.07-5.02 2.09-1.04.39-1.79.16a.6.6 0 0 1-.22-1.02l5.67-5.04c16.03-10.62 37.21-14.93 56.35-12.84a.48.47-46.9 0 1 .03.94q-28.05 5.04-55.02 15.71"/><path fill="#efcd8b" d="M446.78 470.07q-23.8 1.98-44.98 15.25a.4.4 0 0 0 .33.72q21.31-6.43 44.49-9.98-4.15 4.1-9.49 6.57c-8.54 3.96-18.33 8.2-27.69 9.95-23.84 4.47-49.45 2.11-71.12-8.97 8.11-9.93 15.96-19.28 25.4-26.58 11.53-8.91 24.6-8.89 37.65-3.68q7.43 2.96 22.77 9.56 6.91 2.98 22.64 7.16"/><path fill="#040303" d="M463.88 457.79q1.91 1.98 4.1 4a.7.7 0 0 1-.05 1.07q-.5.37-1.48.03-2.31-.8-4.39-1.84-27.53-10.68-56.69-15.34a.41.41 0 0 1-.22-.69q.22-.22.62-.27 31.5-3.49 58.11 13.04m72.06-12.27q1.63 1.58 1.21 3.71c-1.47 7.6-9.3 14-16 16.63a.88.87 77.6 0 0-.56.89l.69 9.14a2.7 2.69 14.7 0 0 1.2 2.04q5.75 3.8 11.18 8.38c4.68 3.95 12.3 12.56 11.61 18.67q-.22 1.97-1.76 2.55c-3.54 1.35-6.32-3.21-9.03-6.54a.66.65-39.3 0 0-.94-.09c-8.07 6.9-25.47 6.5-33.98.76a.68.67-54 0 0-.91.15c-2.06 2.64-6 8.39-9.29 5.96a1.99 1.98-74.7 0 1-.79-1.39c-1.07-10.25 12.15-21.86 20.09-26.94 3.41-2.19 2.61-7.75 2.59-12.72a.8.79-80.2 0 0-.51-.73q-10.04-3.76-15.48-12.37-1.32-2.09-1.6-3.85-.43-2.7 1.49-3.54 8.16 8.38 16.42 11.74c8.19 3.33 19.27-6.84 24.37-12.45m-30.9 49.69q11.47 5.18 22.02-.34a.9.9 0 0 0 .16-1.49l-10.35-8.67a.76.74 44.3 0 0-.98 0l-11 9.52a.59.59 0 0 0 .15.98"/><path fill="#efcd8b" d="M693.01 484.14c-17.96 7.79-38.93 9.98-58.15 7.61-9.58-1.18-19.61-4.02-27.73-6.88q-2.88-1.02-11.41-5.56-2.67-1.42-2.97-2.73 16.65 2.89 32.58 6.82c1.39.34 3.1 1.12 4.59 1.47a.35.35 0 0 0 .26-.64q-16.5-10.18-35.44-13.55 13.92-4.72 21.18-8.22 9.92-4.78 17.84-7.92c16.89-6.7 33.38-4.13 45.47 10.26q7.58 9.01 13.78 19.34"/><path fill="#040303" d="M578.62 469.09q8.07.05 16.12 1.59 18.94 3.37 35.44 13.55a.35.35 0 0 1-.26.64c-1.49-.35-3.2-1.13-4.59-1.47q-15.93-3.93-32.58-6.82l-26.35-4.15a.88.88 0 0 1-.39-1.57c2.57-1.94 9.32-1.72 12.61-1.77m-124.26.54c2.84.05 9.2-.01 11 1.67a1.05 1.05 0 0 1-.55 1.8l-18.19 2.96q-23.18 3.55-44.49 9.98a.4.4 0 0 1-.33-.72q21.18-13.27 44.98-15.25z"/><path fill="#fdfdfd" d="M273.46 519.08q-15.64 6.7-26.98-1.39-2.54-14.59.23-28c2.05-9.95 9.82-19.14 20.82-18.56q1.91.1 2.91.92a1.05 1.05 0 0 1-.43 1.83c-3.82.91-13.84 5.17-13.38 9.8a.81.81 0 0 0 1.09.68c4.99-1.88 10.81-3.92 16.25-2.44a1.7 1.7 0 0 1 .8.49q.52.58.58 1.18a1.96 1.95-9.3 0 1-1.49 2.06q-6.96 1.67-12.17 6.75-1.26 1.22-1.51 2.28a1.14 1.14 0 0 0 1.48 1.34c3.67-1.25 9.74-3.27 13.16-1.56a1.71 1.71 0 0 1 .85 2.09q-.76 2.19-2.7 3.66c-4.5 3.42-9.14 6.5-9.38 11.35a1.81 1.8 83.4 0 0 2.3 1.83l3.59-1.05a.76.74-20.6 0 1 .88.39z"/><path fill="#efcd8b" d="M775.65 477.01c-1.08 24.26-11.71 46.79-29.99 62.91-23.19 20.45-54.51 29.75-85.41 29.09q-22.63-.48-43.31-5.18-12.8-2.91-29.22-7.53-1.43-.4-6.51-1.4 2.39-.05 4.69-.08 2.21-.02 4.7.27 17.09 2.04 35.9 2.11 18.97.07 35.11-2.33 14.07-2.1 32.67-8.52c18.27-6.31 33.78-16 48.57-28.1q3.65-2.99 8.64-8.67c5.47-6.22 9.73-10.47 13.06-16.17 1.86-3.18 5.07-7.2 6.98-11.32q1.58-3.41 2.14-4.25a.54.54 0 0 1 .79-.11q.15.13.34.1.15-.03.35-.56.16-.44.5-.26"/><path fill="#f3b1a0" d="M505.04 495.21a.59.59 0 0 1-.15-.98l11-9.52a.76.74 44.3 0 1 .98 0l10.35 8.67a.9.9 0 0 1-.16 1.49q-10.55 5.52-22.02.34"/><path fill="#efcd8b" d="M462.45 554.05q-6.3 1.25-12.33 2.82c-9.96 2.59-15.55 3.7-26.26 6q-20.75 4.44-45.61 3.77c-17.39-.47-32.7-4.25-47.93-10.98q-19.72-8.72-35.02-25.46-8.84-9.68-14.2-23.72a1.56 1.54-32.9 0 1 .36-1.64q6.44-6.4 2.01-15.04 1.52.46 1.69 1.23.17.76.31.93 4.06 4.96 6.88 8.85c10.97 15.15 28.48 27.98 44.48 35.86q31.71 15.63 68.98 17.85c7.99.47 16.38-.23 24.77-.08q1.97.04 14.8-.64 8.5-.45 17.07.25m-188.99-34.97 2.36 4.3c-.84 8.96-5.73 12.49-11.62 18.5q-3.71 3.78-6.24 12.03-8.25-17.86-11.48-36.22 11.34 8.09 26.98 1.39"/><path fill="#f4bc48" d="M278.39 527.54q-1.92 3.33.45 6.61c3.94 5.46 8.56 14.18 13.35 19.47q13.92 15.37 28.01 22.91 26.02 13.93 58.31 13.22 13.3-.29 28.98-3.56 11.77-2.45 21.69-7.43a5.8 5.78-63.5 0 1 1.51-.51l1.59-.29q.59.57.11.52-6.34 7.57-12.35 17.82c-21.96 37.44-33.17 79.08-28.79 122.63q-9.51-2.02-14.69-4.72-7.74-4.04-13.73-6.52c-13.45-5.55-28.36-3.26-35.15 10.9q-5.35 11.16-7.01 14.12-2.24 4.01-8.39 11.47a1.31 1.3-22.9 0 0-.28.68l-.78 8.36-.22 1.33-2.94-4.53a.63.57 8.6 0 0-.13-.16q-12.78-12.28-20.69-27.92c-.99-1.95-2.05-3.17-2.78-5.13q-.91-2.44-2.62-7.83-.24-.74-.92-1.07a.86.85-79.7 0 1-.48-.7l-.86-12.48q1.59-17.03 7.7-33.19 4.36-11.52 6.44-18.09.69-2.18.62-4.16a1.08 1.08 0 0 0-1.91-.66l-3.94 4.71a.3.3 0 0 1-.52-.21l.42-8.06q6.49-.81 8.57-2.37 2.84-2.13 4.19-2.32 7.94-1.15 16.25-4.99 2.36-1.1 3.74-2.5a2.57 2.57 0 0 0 .45-3.01q-1.87-3.59-5.14-6.34-11.77-9.9-25.04-18.06a13.48 13.04-7 0 1-2.13-1.61c-3.84-3.56-7.09-6.71-12.23-8.08q-11.19-15.12-19.09-31.88 2.53-8.25 6.24-12.03c5.89-6.01 10.78-9.54 11.62-18.5zm27.968 131.656a7.83 4.02-75.9 0 0-5.807 6.615 7.83 4.02-75.9 0 0 1.992 8.573 7.83 4.02-75.9 0 0 5.806-6.615 7.83 4.02-75.9 0 0-1.991-8.573m-5.783 25.294a7.81 4.04-87.1 0 0-4.43 7.596 7.81 4.04-87.1 0 0 3.64 8.004 7.81 4.04-87.1 0 0 4.43-7.596 7.81 4.04-87.1 0 0-3.64-8.004m1.255 27.111a7.62 4.06-106.7 0 0-1.699 8.466 7.62 4.06-106.7 0 0 6.079 6.132 7.62 4.06-106.7 0 0 1.699-8.466 7.62 4.06-106.7 0 0-6.079-6.132"/><path fill="#ee9c36" d="m441.59 566.42-9.31 11.54-1.59.29a5.8 5.78-63.5 0 0-1.51.51q-9.92 4.98-21.69 7.43-15.68 3.27-28.98 3.56-32.29.71-58.31-13.22-14.09-7.54-28.01-22.91c-4.79-5.29-9.41-14.01-13.35-19.47q-2.37-3.28-.45-6.61 12.66 19.05 33.85 31.48 28.54 16.74 61.78 17.91c23.44.83 45.17-3.21 67.57-10.51m315.76 3.52q-16.8 10.37-33.64 15.05-34.65 9.63-72.32 2.61-5.72-1.07-15.55-3.61-6.42-1.66-15.26-4.71-10.58-3.65-21.31-6.94-4.22-2.69-5.26-7.65 32.45 12.95 66.24 14.48 14.77.66 31.77-2.16 33.55-5.57 60.12-26.58a.67.67 0 0 1 1.07.38z"/><path fill="#efcd8b" d="M432.39 578.48q.48.05-.11-.52l9.31-11.54q12.61-3.95 25.15-11.2 2.82-.36 6.94 1.19a.35.35 0 0 1 .06.62c-.57.36-1.31.41-2.1.94q-13.33 8.95-27.46 15.68-4.38 2.09-10.64 4.22-.19.06-.54.35-.26.21-.61.26m143.11-23.27q4.3 4.01 9.87 6.06 4.44 1.63 8.64 3.42 1.04 4.96 5.26 7.65.26 1.58.07 2.35-2.78-1.49-5.88-3.23-5.37-3.03-14.17-6.8c-4.48-1.91-8.18-5.32-12.57-7.55a.39.39 0 0 1 .13-.74z"/><path fill="#f4bc48" d="M757.35 569.94q1.36 6.39 1.64 8.08c3.83 23.79 6.46 43.08 6.95 64.95a.35.35 0 0 1-.65.19q-1.91-3.17-4.45-5.11a1.08 1.08 0 0 0-1.74.88q.07 2.64 1.14 6.07.83 2.66 5.92 16.39 7.03 18.95 7.02 39.03l-.7 6.44a3.03 2.92 64.7 0 1-.43 1.27q-3.05 4.86-4.93 10.07c-.9 2.48-2.65 5.55-4.26 7.82q-7.94 11.16-16.68 21.15-2.06 2.35-10.85 9.85-.54-5.76-2.63-9.52c-2.74-13.67-9.36-28.74-20.05-37.47-13.07-10.67-27-8.23-42.61-6.39q-7.68.91-15.81-3.05 7.1-4.03 15.72-12.14 17.33-16.33 23.39-38.28 1.74-6.3 1.72-12.88 1.87-6.74 1.83-13.72-.01-.77-.26-1.14a.54.54 0 0 0-.87-.04q-1.05 1.28-1.93 2.95c-4.31 8.25-8.74 16.52-14.23 23.97q-10.71 14.53-24.8 26.2c-8.34-6.79-16.62-13.75-25.74-19.41-8.21-5.09-15.1-8.9-23.47-16.07l3.46-46.73q-1.88-9.61-9.71-18.61.19-.77-.07-2.35 10.73 3.29 21.31 6.94 8.84 3.05 15.26 4.71 9.83 2.54 15.55 3.61 37.67 7.02 72.32-2.61 16.84-4.68 33.64-15.05m-10.626 88.794a7.88 4-104.3 0 0-1.93 8.624 7.88 4-104.3 0 0 5.822 6.648 7.88 4-104.3 0 0 1.93-8.624 7.88 4-104.3 0 0-5.822-6.648m5.411 25.707a7.75 4.04-90.7 0 0-3.945 7.798 7.75 4.04-90.7 0 0 4.135 7.7 7.75 4.04-90.7 0 0 3.945-7.798 7.75 4.04-90.7 0 0-4.135-7.7m-1.674 26.992a7.61 4.18-73.5 0 0-6.169 6.11 7.61 4.18-73.5 0 0 1.847 8.484 7.61 4.18-73.5 0 0 6.169-6.11 7.61 4.18-73.5 0 0-1.847-8.484"/><path fill="#ee9c36" d="m288.39 635.07 2.5-20.36a.49.49 0 0 1 .81-.31q2.76 2.41 6.49 3.89a.74.74 0 0 0 .97-.95c-1.99-5.18-5.61-10.25-9.65-15.2q-6.5-7.98-12.46-16.35c5.14 1.37 8.39 4.52 12.23 8.08a13.48 13.04-7 0 0 2.13 1.61q13.27 8.16 25.04 18.06 3.27 2.75 5.14 6.34a2.57 2.57 0 0 1-.45 3.01q-1.38 1.4-3.74 2.5-8.31 3.84-16.25 4.99-1.35.19-4.19 2.32-2.08 1.56-8.57 2.37"/><path fill="#040303" d="m609.05 593.3-3.46 46.73q-.88 19.42-6.58 38.05-3.92 9.91-6.56 15.86-4.07 9.15-3.11 18.36.19 1.78 1.13 2.92a.51.5 33.2 0 0 .88-.18q1.98-7.14 7.09-12.56a1.22 1.22 0 0 1 2.09.63q.16.9-.25 2.16c-1.55 4.7-3.15 11.72-1.59 16.52a2.33 2.01 71 0 0 2.71 1.58q2.24-.83 3.33-3.42c1.78-4.25 4.65-10.9 8.02-12.61a.78.78 0 0 1 1.13.78q-.18 1.54-1.28 9.68-.28 2.08.21 3.62a.8.8 0 0 0 1.12.48c5.28-2.64 9.33-8.73 12.17-14.01q3.9-7.27 8.37-13.87c5.99-6.93 13.53-12.5 20.33-18.51q14.09-11.67 24.8-26.2c5.49-7.45 9.92-15.72 14.23-23.97q.88-1.67 1.93-2.95a.54.54 0 0 1 .87.04q.25.37.26 1.14.04 6.98-1.83 13.72c-4.31 16.11-15.5 31.22-28.05 42.23q-6.38 5.6-12.57 10.86-6 4.8-11.74 9.32c-3.02 2.39-4.7 6.82-6.51 10.46q-5.27 11.88-15.66 18.85-5.29 3.54-11.8 1.27a1.15 1.13 37.4 0 0-.99.12c-5.19 3.43-12.25 2.66-15.58-2.64q-.79-1.25-1.25-1.82a1.69 1.65-10.5 0 0-.85-.57q-5.88-1.71-8.18-7.52c-3.94-9.91-.49-19.65 3.09-29.22q5.62-15.01 6.91-24.56 5.06-37.24 5.24-38.44c1.57-10.57 3.76-20.54 9.17-30.34q.97-1.76 2.76-1.99"/><path fill="#ee9c36" d="M654.23 700.59q-2.16-4.72.21-10.21 6.19-5.26 12.57-10.86c12.55-11.01 23.74-26.12 28.05-42.23q.02 6.58-1.72 12.88-6.06 21.95-23.39 38.28-8.62 8.11-15.72 12.14"/><path fill="#efcd8b" d="M654.8 675.51c-6.8 6.01-14.34 11.58-20.33 18.51q-8.55-12.48-23.47-15.08-4.26-.75-11.99-.86 5.7-18.63 6.58-38.05c8.37 7.17 15.26 10.98 23.47 16.07 9.12 5.66 17.4 12.62 25.74 19.41"/><ellipse fill="#040303" rx="7.88" ry="4" transform="rotate(255.7 633.246 42.297)"/><ellipse fill="#040303" rx="7.83" ry="4.02" transform="rotate(-75.9 579.72 138.205)"/><path fill="#fdfdfd" d="M634.47 694.02q-4.47 6.6-8.37 13.87c-2.84 5.28-6.89 11.37-12.17 14.01a.8.8 0 0 1-1.12-.48q-.49-1.54-.21-3.62 1.1-8.14 1.28-9.68a.78.78 0 0 0-1.13-.78c-3.37 1.71-6.24 8.36-8.02 12.61q-1.09 2.59-3.33 3.42a2.33 2.01 71 0 1-2.71-1.58c-1.56-4.8.04-11.82 1.59-16.52q.41-1.26.25-2.16a1.22 1.22 0 0 0-2.09-.63q-5.11 5.42-7.09 12.56a.51.5 33.2 0 1-.88.18q-.94-1.14-1.13-2.92-.96-9.21 3.11-18.36 2.64-5.95 6.56-15.86 7.73.11 11.99.86 14.92 2.6 23.47 15.08"/><ellipse fill="#040303" rx="7.81" ry="4.04" transform="rotate(-87.1 514.214 188.26)"/><ellipse fill="#040303" rx="7.75" ry="4.04" transform="rotate(-90.7 718.007 -25.453)"/><path fill="#efcd8b" d="M654.44 690.38q-2.37 5.49-.21 10.21 8.13 3.96 15.81 3.05c15.61-1.84 29.54-4.28 42.61 6.39 10.69 8.73 17.31 23.8 20.05 37.47q-2.46-3.8-7.23-5.1a1.44 1.41 88.3 0 1-.98-.94q-3.92-12.46-17.07-6.53a.99.97-43 0 1-.86-.02c-7.67-4.04-13.92 1.03-18.56 6.83q-13.72 17.11-20 38.67-4.29.71-8.53 1.44-9.84 1.68-13.21 2.15c-6.46.91-13.09 1-18.34 2.11a2.58 2.55 12.4 0 0-1.49.94c-5.98 7.81-13.11 14.5-19.96 21.39q-25.88.12-51.71-1.57c-12.45-.82-28.85-1.17-43.34-.52-22.95 1.03-45.86 2.64-68.8 2.62q-3.23-1.82-4.53-2.81-12.17-9.4-21.42-21.18a1.53 1.52-20.8 0 0-1.32-.59c-6.68.45-12.32-.68-18.56-1.07q-1.57-.1-9.55-1.36-4.73-.75-9.61-.92-5.25-18.82-16.5-35.4c-4.55-6.71-12.17-15.44-21.15-10.74a.94.93 44 0 1-.83.01q-13.1-6.33-17.51 6.65a.99.97 3.5 0 1-.74.64c-5.96 1.15-8.38 5.49-9.68 11.02l.78-8.36a1.31 1.3-22.9 0 1 .28-.68q6.15-7.46 8.39-11.47 1.66-2.96 7.01-14.12c6.79-14.16 21.7-16.45 35.15-10.9q5.99 2.48 13.73 6.52 5.18 2.7 14.69 4.72.43 1.83.9 5.64.79 6.49 4.52 19.58 6.18 21.62 19.91 40.09a1.03 1.03 0 0 0 .81.42q27.23.5 55.1-3.92c11.17-1.78 22.58-4.18 34.2-4.89q17.61-1.06 32.5.8 8.84 1.1 30.54 4.88 26.92 4.68 53.05 4.49 3.43-.02 4.98-1.5.24-.23 3.1-4.31 11.48-16.35 16.96-35.37c3.97-13.79 6.56-26.97 5.62-41.3a.76.76 0 0 0-1.14-.6q-7.38 4.39-16.11 7.22c1.81-3.64 3.49-8.07 6.51-10.46q5.74-4.52 11.74-9.32"/><path fill="#ee9c36" d="M311 754.55q-1.02 9.38 1.82 18.85a.31.3-78.1 0 1-.49.32q-27.3-23.71-32.74-59.83-1.04-6.93-.01-19.16l.86 12.48a.86.85-79.7 0 0 .48.7q.68.33.92 1.07 1.71 5.39 2.62 7.83c.73 1.96 1.79 3.18 2.78 5.13q7.91 15.64 20.69 27.92a.63.57 8.6 0 1 .13.16zm462.18-54.13q.33 2.28.15 4.52c-.42 5.23-.87 11.19-2.29 16.32q-4.12 14.84-11.6 27.34c-6.79 11.36-16.51 21.14-26.8 29.26a.35.35 0 0 1-.55-.38q3.37-10.53 3.24-20.46 8.79-7.5 10.85-9.85 8.74-9.99 16.68-21.15c1.61-2.27 3.36-5.34 4.26-7.82q1.88-5.21 4.93-10.07a3.03 2.92 64.7 0 0 .43-1.27z"/><ellipse fill="#040303" rx="7.61" ry="4.18" transform="rotate(-73.5 855.398 -141.683)"/><ellipse fill="#040303" rx="7.62" ry="4.06" transform="rotate(253.3 419.448 246.351)"/><path fill="#fdf0cd" d="m372.08 797.31-4.9 7.88a2.37 2.15-8.5 0 1-.36.44c-7.49 7.12-16.46 4.05-24.19-1.06q-4.41-2.93-8.95-5.98-9.59-15.98-13.6-34.3-1.26-5.78-.31-11.87a1.19 1.19 0 0 1 2.17-.48c3.96 5.86 6.57 10.78 9.34 12.15a.84.84 0 0 0 1.21-.85q-.41-3.51-2.63-14.91-.57-2.9.5-5.39a1.77 1.76-63.2 0 1 2.52-.83c1.01.59 2.64 2.36 3.38 3.56q4.29 6.94 7.23 10.92.99 1.33 1.68 1.96a.78.78 0 0 0 1.26-.34q.33-.99.18-2.22c-.63-5.13-1.71-12.19-1.31-12.71a.94.92-50.1 0 1 1.36-.13c5.76 5.24 10.09 12.82 13.29 19.65q5.07 10.82 8.85 21.86 2.3 6.71 3.28 12.65m341.25-1.84q-2.54 1.53-7.46 6.38-4.95 4.89-14.63 6.98-8.94 1.93-14.03-5.1c-1.55-2.13-2.53-5.06-3.77-7.64q1.12-5.79 4.92-16.27 5.79-15.96 14.04-28.43 3.31-4.99 7.14-8.39a.71.71 0 0 1 1.18.61l-1.66 14.04a1 .99 66.5 0 0 1.79.71q6.09-8.3 9.13-13.12 1.34-2.13 3.45-3.05a2 1.99-17.9 0 1 2.75 1.4q.61 2.86-.13 5.96-1.48 6.19-2.8 13.27a.95.95 0 0 0 1.41.99q1.5-.87 3.1-3.06 3.33-4.55 6.1-8.83a1.32 1.31 55.1 0 1 2.39.43c.54 2.42.49 5.69.15 7.89q-3 19.07-13.07 35.23"/><path fill="#ee9c36" d="M668 780.41q-3.74 10.74-4.9 22.34a.54.53-2.2 0 1-.44.47q-27.92 5.18-56.19 5.22c6.85-6.89 13.98-13.58 19.96-21.39a2.58 2.55 12.4 0 1 1.49-.94c5.25-1.11 11.88-1.2 18.34-2.11q3.37-.47 13.21-2.15 4.24-.73 8.53-1.44m-225.38 28.56c-19.93-.37-40.18-1.36-59.64-5.85a.72.7-87.2 0 1-.54-.61q-1.29-10.7-4.81-21.47 4.88.17 9.61.92 7.98 1.26 9.55 1.36c6.24.39 11.88 1.52 18.56 1.07a1.53 1.52-20.8 0 1 1.32.59q9.25 11.78 21.42 21.18 1.3.99 4.53 2.81"/><path fill="#efcd8b" d="M713.33 795.47c-4.77 8.67-12.91 19.66-22.2 23.57-7.73 3.26-15.9.5-18.08-7.88q-1.73-6.66.39-15.07c1.24 2.58 2.22 5.51 3.77 7.64q5.09 7.03 14.03 5.1 9.68-2.09 14.63-6.98 4.92-4.85 7.46-6.38m-341.25 1.84c1.66 9.53 1.26 21.91-10.29 23.41-11.81 1.53-23.23-13.32-28.11-22.13q4.54 3.05 8.95 5.98c7.73 5.11 16.7 8.18 24.19 1.06a2.37 2.15-8.5 0 0 .36-.44z"/></svg>