<svg xmlns="http://www.w3.org/2000/svg" viewBox="0 0 1024 1024"><g fill="none" stroke-width="2"><path stroke="#838180" d="M286.65 313.05a.33.33 0 0 1 .32.55q-13.11 14.68-15.07 34.51a.46.46 0 0 0 .75.4l11.03-8.88a.45.45 0 0 1 .71.5c-8.67 26.05-19.21 49.35-31.61 76.39q-4.22 9.19-6.31 21.96c-3.48 21.17 7.79 38.87 22.45 52.12q14.29 12.9 30.51 23.74a.44.43 16.9 0 0 .68-.36v-12.8a.09.09 0 0 1 .16-.06q9.81 10.4 16.78 21.3c6.24 9.76 7.97 19.68 7.89 31.06a.77.77 0 0 0 .9.77q12.53-2.12 22.08-9.39a.44.44 0 0 1 .67.52q-3.23 7.6-5.69 15.76-8.84 29.25 4.74 56.26a.46.46 0 0 0 .85-.09q2.38-9.19 6.82-17.75.39-.74.93-1.07a.2.2 0 0 1 .31.2q-3.97 24.17-.94 50.18a1.08 1.07 73 0 1-.56 1.07c-28.33 14.88-31.99 53.72-24.29 81.05q10.09 35.81 34.21 62.85 2.14 2.39 2.68 3.06a.39.39 0 0 1-.18.62c-11.42 3.64-21.46 11.91-25.17 23.74q-4.65 14.88 8.74 21.68c9.26 4.7 22.23 6.77 34.02 6.22a.75.75 0 0 1 .79.7c.81 11.81 9.7 19.61 20.33 22.87q29.47 9.03 60.16.46c14.17-3.97 24.75-14.12 24.28-29.71q-.13-4.17-.08-7.33a.45.45 0 0 1 .55-.43q19.78 4.85 39.31.04a.6.6 0 0 1 .74.64q-.73 7.45.38 14.06c1.92 11.51 12.07 19.23 23.05 22.44q27.47 8.01 54.92 1.63c13.35-3.11 25.29-10.24 26.11-25.26a.44.44 0 0 1 .47-.42c12.51.8 45.57-1.88 44.16-21.12-1.1-14.99-13.3-25.65-26.67-30.19a.32.32 0 0 1-.13-.52q24.29-26.29 35.55-60.79c7.94-24.3 7.62-53.52-8.52-74.68q-5.81-7.61-14.34-11.61a1.05 1.03 16 0 1-.59-1.05q3.4-30.68-1-63a.32.31-64.7 0 1 .58-.21q5.31 8.72 8.78 19.26a.32.32 0 0 0 .6.03q9.49-22.23 6.23-45.37-1.05-7.52-4.26-17.45c-3.65-11.3-7.87-21.11-12.69-31.59-3.37-7.32-5.79-15.07-7.44-22.66a.38.38 0 0 1 .51-.44q6.87 2.68 14.43 3.17a.57.57 0 0 0 .56-.79c-2.88-6.66-4.65-11.04-7.94-17.07q-6.29-11.56-7.69-14.71-6.48-14.56-7.94-31.64a4.18 4.05 53.8 0 1 .25-1.81q4.01-10.5 5.46-20.43a.71.71 0 0 1 .91-.57l7.34 2.24a.48.48 0 0 0 .61-.55c-1.47-7.63-4.39-15.04-9.8-20.67a.27.27 0 0 1 .11-.45l12.22-3.77a.42.41 51.2 0 0 .08-.76c-13.84-7.82-25.98-19.35-33.6-33.46a.43.43 0 0 1 .4-.63c23.33 1.51 47.55-3.95 63.77-21.56a.41.4-68.5 0 0-.29-.68h-14.69a.25.25 0 0 1-.1-.47q27.82-12.73 48.97-34.73 27-28.08 44.4-63.18c2.82-5.67 5.3-12.47 6.74-18.88 2.44-10.81-1.87-19.79-10.46-26.14-10.21-7.56-21.71-12.05-33.93-15.66q-14.33-4.24-31.65-5.5-23.46-1.7-45.97 1.8-46.62 7.25-88.25 29.54a.11.11 0 0 1-.15-.15q3.71-7.02 8.81-12.75a.48.48 0 0 0-.4-.8c-15.25 1.17-28.15 9.42-40.64 19.74q-2.91 2.41-11.29 11.49a.89.88-59.3 0 1-.93.24c-2.95-.98-6.26-2.45-9.5-3.45q-55.79-17.25-108.36 7.36c-28.75 13.45-51.62 36.94-66.18 64.78a.77.76 10.6 0 1-.61.41c-23.14 2.55-52.04 12.9-61.12 36.61a.56.56 0 0 0 .65.74l5.59-1.27" vector-effect="non-scaling-stroke"/><path stroke="#7b5928" d="M540 216.39q2.48 1.55 3.81 3.74" vector-effect="non-scaling-stroke"/><path stroke="#806f4a" d="M543.81 220.13q-2.26-1.14-4.2-1.76-5.96-1.9-17.2-5.23c-16.53-4.9-34.83-7.48-50.65-7.24-36.43.55-72.66 15.32-98.59 41.54q-15.97 16.17-28.01 35.66-4.33 7.02-8.69 14.18" vector-effect="non-scaling-stroke"/><path stroke="#7b5928" d="m336.47 297.28.19-3.78" vector-effect="non-scaling-stroke"/><path stroke="#806f4a" d="m336.66 293.5 2.28-9.1a.32.32 0 0 0-.4-.38q-8.71 2.32-16.52 4.77-15.86 4.98-28.09 16.29a.41.41 0 0 0 .19.7l8.14 1.9a.51.51 0 0 1 .17.91q-12.96 8.83-19.66 24.07a.18.18 0 0 0 .26.23l10.33-6.14" vector-effect="non-scaling-stroke"/><path stroke="#7b5928" d="M293.36 326.75q6.76-2.62 12.74-2.95a.4.4 0 0 1 .23.75l-6.7 4.01" vector-effect="non-scaling-stroke"/><path stroke="#806f4a" d="m299.63 328.56-6.83 5.09a1.65 1.63 77.3 0 0-.63 1.01q-2 10.72-5.89 22.87-8.97 28.01-19.18 49.09c-4.39 9.05-7.31 16.33-9.8 24.21q-6.85 21.76 6.11 40.01 8.48 11.93 20.41 21.68" vector-effect="non-scaling-stroke"/><path stroke="#71471c" d="m283.82 492.52 9.43 8.06a.36.36 0 0 0 .58-.35L290 483.45a.23.22 13.1 0 1 .36-.22q14.68 11.19 27.47 26.19c7.96 9.32 14.18 20.68 15.2 33.33a.45.45 0 0 0 .63.37q4.56-2.07 8.48-5.21 20.77-16.69 24.42-43.62c2.3-17.01-2.67-34.08-8.86-49.27q-4.1-10.08-10.82-24.34c-10.24-21.74-16.81-46.2-15.13-69.93q.81-11.48 6.82-26.78" vector-effect="non-scaling-stroke"/><path stroke="#7b5928" d="M338.57 323.97q.73-1.16.84-2.51a.24.24 0 0 1 .26-.22h.01a.24.23 5.8 0 1 .22.26l-1.15 7.52" vector-effect="non-scaling-stroke"/><path stroke="#71471c" d="M338.75 329.02q-3.93 28.81 4.55 56.61 4.06 13.34 8.26 23.08 3.96 9.17 12.96 28.52c8.66 18.6 13.35 38.9 11.21 59.38a.88.88 0 0 0 .34.79q24.81 18.98 54.69 26.16 13.48 3.24 23.87 4.81a.28.28 0 0 1-.01.55q-28.83 3.35-55.23-6.87c-9.19-3.56-17.21-9.06-25.03-15.07a.6.6 0 0 0-.93.26l-3.98 10.47" vector-effect="non-scaling-stroke"/><path stroke="#806f4a" d="m369.45 517.71-4.88 8.85a2.99 2.84-25.1 0 0-.27.69q-2.31 9.46-6.46 19.25-4.77 11.25-6.23 16.11-4.8 16.02-2.68 32.73a.42.42 0 0 0 .78.17l6.65-10.78" vector-effect="non-scaling-stroke"/><path stroke="#7b5928" d="m356.36 584.73 10.46-9.8a.31.31 0 0 1 .52.3c-3.87 17.02-1.43 32.79 3.82 49.85q7.78 25.27 24.28 46.23" vector-effect="non-scaling-stroke"/><path stroke="#71471c" d="m395.44 671.31 6.9 7.96a.35.35 0 0 0 .61-.22q.36-9.6 3.23-19.52a.31.31 0 0 1 .59-.03q13.11 33.69 41.89 54.76 4.53 3.32 19.83 12.16 9.76 5.63 19.72 12.37 14.6 9.89 22.4 25.45a.23.23 0 0 0 .42-.01c5.62-13.03 14.98-21.84 27.52-29.69q9.49-5.94 17.15-10.36 10.87-6.29 16.89-10.74c18.91-13.97 34.43-32.8 41.52-55.11a.36.36 0 0 1 .68 0q3.04 9.99 3.63 20.41a.27.27 0 0 0 .47.16l3.89-4.76" vector-effect="non-scaling-stroke"/><path stroke="#7b5928" d="M622.78 674.14c17.46-20.16 27.88-44.98 32.14-71.23q1.64-10.08 1.2-19.89-.48-10.45-2.58-19.8a.24.24 0 0 1 .39-.23l10.53 9.03" vector-effect="non-scaling-stroke"/><path stroke="#806f4a" d="m664.46 572.02 7.61 11.35a.26.26 0 0 0 .47-.12q1.63-17.74-3.2-34.32c-3.47-11.92-9.24-24.44-14.39-36.29-5.45-12.55-8.04-23.4-7.85-36.51" vector-effect="non-scaling-stroke"/><path stroke="#7b5928" d="m647.1 476.13 3.91 1.2" vector-effect="non-scaling-stroke"/><path stroke="#806f4a" d="m651.01 477.33 8.16 3.68a.28.28 0 0 0 .35-.41c-5.03-7.85-10.13-15.89-13.68-24.22q-2.05-4.81-3.62-14.88" vector-effect="non-scaling-stroke"/><path stroke="#71471c" d="m642.22 441.5-.4-2.9a.4.39-33.3 0 0-.73-.15q-14.68 23.8-38.37 39.37a.28.28 0 0 1-.37-.42q18.55-21.19 32.77-46.5c4.45-7.93 8.74-17.3 10.75-24.27q.84-2.88 1.96-8.62a.95.95 0 0 1 .99-.77l3.34.19a.63.63 0 0 0 .53-1.03l-13.87-17.22a.14.14 0 0 1 .1-.23l10.31-.81a.45.45 0 0 0 .19-.83c-16.58-10.04-27.1-26.32-33.69-44.57q-2.61-7.22-6.03-18.72c-7.34-24.65-19.49-48.33-37.24-66.65a.12.12 0 0 1 .14-.18l9.17 5.3a1.47 1.46 45.2 0 0 1.42.01q11.46-6.22 21.65-16.66 16.79-17.19 35.52-29.24 5.21-3.35 14.43-6.89" vector-effect="non-scaling-stroke"/><path stroke="#7b5928" d="M654.79 199.71q13.3-4.98 26.71-5.61 12.56-.6 26.63 2.42" vector-effect="non-scaling-stroke"/><path stroke="#71471c" d="M708.13 196.52q-2.43.43-9.88.46c-27.47.11-53.45 12.49-73.29 31.92a.58.57-67.6 0 0 .41.99q8.57-.17 17.4 1.56a1 1 0 0 1 .61 1.58q-7.24 9.65-16.72 17.83a.54.53 31 0 0 .24.93c9.46 2.14 19.02 6.78 25.52 14.28a.2.19 61.9 0 1-.09.31l-18.49 5.72a.4.39 48.3 0 0-.04.74q5.59 2.49 10.51 5.41c6.67 3.97 13.49 10.41 19.57 14.38a.56.55-36.6 0 1-.15 1c-13.97 4.14-28.21 4.5-41.82-1.12a.28.28 0 0 1 .09-.53l25.72-2.03a.25.25 0 0 0 .14-.45c-9.29-7.07-20.07-11.56-30.47-14.91a.61.61 0 0 1-.18-1.07q9.32-7.1 19.81-10.08a.3.3 0 0 0 .04-.56q-10.98-5.11-24.25-7.32a.39.38 27.4 0 1-.21-.65l18.3-18.3a.06.06 0 0 0-.05-.11l-14.04 1.1a3.58 3.56 19.7 0 0-2.26 1.06q-11.36 11.69-25.85 19.88a.24.23-36.4 0 0-.06.36q8.66 9.34 15.6 20.59c5.57 9.05 9.23 18.46 12.94 28.86q3.33 9.31 7.91 23.53.4 1.24 1.72 3.9a2.34 2.33-11.1 0 0 1.91 1.28q24.6 1.92 46.64-6.94a.43.43 0 0 0-.09-.82q-7.72-1.24-15.5-5.58a.56.56 0 0 1 .13-1.03q2.44-.62 5.85-1.95 23.53-9.23 42.63-24.85c13.93-11.38 26.1-24.34 36.48-39.58" vector-effect="non-scaling-stroke"/><path stroke="#7b5928" d="M744.86 256.31q11.79-16.3 20.56-34.54" vector-effect="non-scaling-stroke"/><path stroke="#806f4a" d="M765.42 221.77c5.1-10.29 11.23-23.63 1.63-32.34q-4.2-3.8-8.59-6.17c-27.14-14.66-60.56-18.28-90.74-14.74-37.69 4.41-74.61 16.52-109.02 33.99a.24.24 0 0 1-.34-.26q1.63-6.81 4.98-12.98a.4.4 0 0 0-.52-.55c-10.82 5.18-21.05 13.73-29.65 22.11a.49.49 0 0 0 .06.75l6.77 4.81" vector-effect="non-scaling-stroke"/><path stroke="#f3c46e" d="M765.42 221.77q-1.55-.21-.97-1.75 2.95-7.86 1.37-14.88-1.42-6.28-5.71-9.96c-3.76-3.22-8.34-6.49-13.25-8.52-15.48-6.38-31.47-10.46-48.02-11.39-14.42-.81-28.29-.8-42.66 1.11q-3.52.47-12.06 2.25c-7.17 1.5-17.33 3.43-25.7 6.07-10.85 3.43-23.11 8.01-34.54 12.19q-10.61 3.87-19.11 8.3c-2.61 1.35-5.59 2.19-8.41 3.54a.95.95 0 0 1-1.35-.91l.34-5.98a.77.77 0 0 0-1.21-.68q-7.17 4.93-13.89 12.04a1.07 1.05-24 0 0-.3.76l.05 2.43" vector-effect="non-scaling-stroke"/><path stroke="#e39c40" d="m744.86 256.31-.59.07a.35.34 88.7 0 1-.38-.37c.14-2.2 1.52-3.63 2.13-5.68q2.45-8.34 4.15-14.69a5.38 5.32 53.2 0 0 .2-1.45q.03-3.22.77-5.43a.38.38 0 0 0-.23-.48l-.02-.01a.4.39-68 0 0-.49.21q-5.52 12.3-14.89 22.05-2.42 2.51-8.04 8.12-4.91 4.91-8.55 7.55-19.96 14.44-42.68 22.3a.91.9-10.2 0 1-1.2-.83c-.11-5.06-6.23-10.27-10.28-12.43a1.3 1.3 0 0 1-.39-1.96c3.03-3.77 5.44-10.21 2.81-14.76q-4.25-7.35-11.54-12.15a1.32 1.32 0 0 1-.18-2.06q1.35-1.28 13.06-12.02c7.52-6.91 17.96-12.18 28.83-15.3q16.08-4.62 32.68-5.4 10.31-.48 15.93-.27.32.01.71-.19a.96.95-33 0 0 .31-1.43c-3.59-4.62-11.74-7.59-17.35-8.99q-11.05-2.77-21.5-4.19M654.79 199.71q-14.01 3.35-23.59 10.47-5.73 4.26-8.79 6.34-7.29 4.95-8.45 5.89-5.55 4.51-7.89 6.65-1.63 1.48-2.77 2.52-4.21 3.84-10.48 8.21c-6.23 4.33-9.57 6.89-16.4 3.89q-6.94-3.05-13.38-4.86a.11.11 0 0 0-.1.19c2.06 1.67 6.24 4.17 7.4 7.26q1.55 4.1 4.99 7.62a7.11 6.96 6.8 0 1 .95 1.18q5.31 8.25 7.59 12.01 3.43 5.66 6.97 16.54c5.02 15.4 9.12 27.26 12.41 41.96q1.59 7.07 7.1 21.4 2.13 5.54 4.84 9.85 4.19 6.69 16.35 24.63c1.51 2.24 4.03 6.68 3.97 9.37q-.08 4.34-1.32 8.86c-2.71 9.81-5.14 18.13-9.98 27.28q-5.84 11.02-6.99 13.02-5.99 10.43-13.51 19.48-10.84 13.06-20.23 22.85a.54.54 0 0 1-.62.11q-.59-.27-.35-.86" vector-effect="non-scaling-stroke"/><path stroke="#7b5928" d="M582.51 481.57q1.9-7.27 1.82-14.5a.28.27-36.1 0 0-.54-.08q-4.17 12.17-11.3 22.71c-15.27 22.53-47.29 35.97-73.96 30.38q-12.51-2.62-23.69-8.06a.26.26 0 0 0-.28.43l7.29 6.3" vector-effect="non-scaling-stroke"/><path stroke="#e39c40" d="M481.85 518.75q.07.39 0 .69a.66.66 0 0 1-.77.5q-4-.77-5.64-.82-21.29-.64-40.05-4.95-10.84-2.49-15.93-4.59-6.46-2.65-17.19-8.61c-4.12-2.29-8.62-5.63-9.77-10.22q-.94-3.76-1.47-5.9-1.14-4.58-6.01-21.82-2.47-8.74-4.86-15.02-4.18-11-6.03-14.64-12.88-25.27-23.94-50.58c-1.36-3.11-2.9-7.32-3.57-9.96q-5.35-21.08-5.86-24.82-.86-6.23-.85-14.3a3.79 3.45-55.3 0 0-.13-.97l-1.03-3.72" vector-effect="non-scaling-stroke"/><path stroke="#e39c40" d="M338.57 323.97q-2.55.41-3.13 1.48-6.84 12.7-9.5 25.13-1.35 6.34-1.45 20.12-.06 8.9 2.8 19.94 4.69 18.09 7.66 25.92 7.11 18.74 11.72 33.26 3.33 10.47 4.6 25.42c.64 7.5-.33 15.57-1.61 21.97q-2.51 12.49-11.03 24.94-3.83 5.59-4.14 6.06a.56.56 0 0 1-1.02-.29c-.38-11.44-1.57-22.11-5.81-32.56-4.7-11.57-12.13-27.53-14.64-33.6-4.27-10.33-6.42-18.67-7.76-29.02a.49.49 0 0 0-.94-.13q-5.76 13.11-3.37 27.41.44 2.61 2.09 9.26.21.81.08 1.32a.81.81 0 0 1-1.3.44q-6.19-5.09-14.06-11.05c-7.54-5.7-12.76-10.77-16.41-18.79a.77.77 0 0 0-1.39-.02c-2.24 4.44-2.27 8.71-2.1 14.25.18 5.64 2.11 10.84 3.01 16.21a3.38 3.34-65 0 0 .39 1.09l4.33 7.66" vector-effect="non-scaling-stroke"/><path stroke="#f3c46e" d="M275.59 480.39q-5.87-7.08-7.97-12.7-3.4-9.07-4.26-14.29-1.71-10.42 1.07-21.33 1.26-4.97 6.07-14.32 8.11-15.79 15.12-35.15c4.9-13.54 6.81-24.19 11.31-41.18q.62-2.33 1.28-6.43.49-3.1 1.42-6.43M293.36 326.75q2.88-6.15 5.81-9.33 4.94-5.37 11.56-8.92a.79.78-48.7 0 0-.09-1.43l-7.72-2.93a.52.52 0 0 1-.11-.92q2.74-1.87 7.74-3.66 5.52-1.97 11.11-3.63c4.19-1.25 10.03-1.43 15-2.43M336.47 297.28l-1.25 3.99a.47.46-15.8 0 0 .8.44q2.63-2.99 3.99-5.21 2.43-3.96 6.29-7.62a1 1 0 0 0 .27-.43l.06-.18a2.75 2.65 76.8 0 1 .53-.89q3.52-3.96 12.65-15.81c7.14-9.26 15.6-16.77 24.54-24.43 13.9-11.88 29.71-20.56 47.08-26.46 4.93-1.68 10.65-2.82 15.47-4.12q5.6-1.5 11.78-2.2c15.33-1.74 31.06-1.65 46.64.62 5.58.82 15.56 1.45 22.6 3.38q6.02 1.66 13.96 3.5 2.73.64 6.1.62a.26.26 0 0 0 .1-.49l-4.27-1.86" vector-effect="non-scaling-stroke"/><path stroke="#e9b262" d="M642.22 441.5q-2 1.99-.7 5.96a1.63 1.62-47.3 0 1 .03.85l-1.19 4.73" vector-effect="non-scaling-stroke"/><path stroke="#e39c40" d="M640.36 453.04q-6.01 10.36-12.85 20.48-3.9 5.76-8.67 10.82-10 10.61-18.01 17.23-4.77 3.95-11.94 10.07-6.36 5.43-9.7 12.07c-9.34 18.64-18.11 36.75-33.63 50.33a.65.65 0 0 1-1.07-.43q-.67-7.08.68-14.66a.41.41 0 0 0-.76-.29q-2.67 4.28-7.59 11.9c-7.14 11.04-11.61 22.98-15.78 35.48a.61.6-49.9 0 1-1.11.1c-5.62-10.56-12.48-21.44-21.21-30.2q-4.88-4.89-8.75-9.45a.28.28 0 0 0-.5.2q.53 7.32 2.69 15.56a.76.76 0 0 1-.84.94q-.35-.05-.85-.41-16.35-11.75-26.93-29.06-1.22-1.99-2.58-3.03a1.7 1.69 63.1 0 0-1.06-.35q-18.37.17-36.26-2.73-9.28-1.51-13.31-2.96-14.96-5.38-20.03-7.4a.88.87-58.9 0 0-1 .25q-7 8.4-16.14 14.14-3.42 2.15-12.26 5.81a.46.46 0 0 1-.62-.3q-.13-.44-.08-.94" vector-effect="non-scaling-stroke"/><path stroke="#e9b262" d="M360.2 556.21c1.62-6.83 4.37-13.48 6.58-19.92 2.23-6.51 1.96-13.2 4.36-19.78a.15.15 0 0 0-.09-.18.13.13 0 0 0-.16.08q-.33 1.17-1.44 1.3" vector-effect="non-scaling-stroke"/><path stroke="#71471c" d="M481.85 518.75q20.19 13.98 45.15 9.5c25.21-4.53 48.83-20.93 55.51-46.68" vector-effect="non-scaling-stroke"/><path stroke="#e9b262" d="M283.82 492.52q-.71-3.61-4.19-7.14-1.36-1.37-4.04-4.99" vector-effect="non-scaling-stroke"/><path stroke="#f3c46e" d="M651.01 477.33q-1.3-2.19-2.63-4.27-1.47-2.31-2.35-4.4-3.26-7.72-5.67-15.62M647.1 476.13q-.4-1.3-.68-1.39a1.18 1.17-74.9 0 0-1.54.89q-1.49 7.86-.49 14.78 1.17 8.12 4.86 22.45c1.55 5.97 4.19 11.1 6.87 17.61q2.78 6.78 4.27 13.5 3 13.47 4.07 28.05" vector-effect="non-scaling-stroke"/><path stroke="#e39c40" d="M622.78 674.14q1.3-4.2 5.6-10.01 3.12-4.21 4.46-10.62 1.66-7.87 1.69-8.02 5.82-24.38-4.49-47.87a.67.67 0 0 0-1.27.11c-7.76 30.46-27.43 56.9-50.63 77.54q-1.77 1.57-3.25 3.51-1.35 1.76-2.85 3.86" vector-effect="non-scaling-stroke"/><path stroke="#7b5928" d="M572.04 682.64q3.3-11.79 2.49-22.69a.3.3 0 0 0-.58-.06c-3.85 13.42-8.66 25.89-17.11 36.71-6.91 8.86-15.93 15.03-25.75 20.78a.3.29-5.6 0 1-.43-.35q3.06-8.67 3.64-18.31a.19.19 0 0 0-.36-.09q-4.8 10.64-11.83 21.23-3.65 5.49-7.5 15.05" vector-effect="non-scaling-stroke"/><path stroke="#e39c40" d="M514.61 734.91q-3.22-.84-6.73-.38" vector-effect="non-scaling-stroke"/><path stroke="#7b5928" d="M507.88 734.53c-3.23-8.86-8.3-16.88-13.14-24.56-2.22-3.51-4.07-7.51-5.56-10.92a.22.22 0 0 0-.42.09q.25 9.07 4.12 18.53a.2.2 0 0 1-.28.26q-7.79-4.17-14.76-9.28c-15.96-11.7-25.33-30.16-29.69-49.29a.21.21 0 0 0-.42.03q-1.18 11.91 2.89 24" vector-effect="non-scaling-stroke"/><path stroke="#e39c40" d="M450.62 683.39q-1.3.55-2.66-2.24a2.42 2.37 8.8 0 0-.54-.72c-5.08-4.68-9.64-8.34-14.34-13.14q-12.36-12.61-22.36-27.76-5.62-8.51-9.29-17.18-4.97-11.7-8.36-23.27a.44.44 0 0 0-.52-.3q-.24.06-.32.22-9.06 18.4-6.68 38.72.38 3.23 3.99 18.08 1 4.14 2.7 7.51 1.98 3.96 4.24 6.76.4.5-.07 1.03-.26.3-.97.21" vector-effect="non-scaling-stroke"/><path stroke="#f3c46e" d="M356.36 584.73q-.26-6.48 1.02-12.83 1.58-7.82 2.82-15.69" vector-effect="non-scaling-stroke"/><path stroke="#71471c" d="M450.62 683.39q8.06 21.82 28.12 34.59 5.91 3.77 13.29 7.53 8.25 4.22 15.56 10.08a.25.24 22.8 0 0 .4-.16q.03-.35-.11-.9M514.61 734.91l.27.6a.25.25 0 0 0 .39.09q5.61-4.72 11.34-7.74c5.74-3.04 14.62-7.56 20.78-12.42q9.49-7.47 15.68-15.63 5.65-7.46 8.97-17.17" vector-effect="non-scaling-stroke"/><path stroke="#7b5928" d="m650.76 647.23-7.1 12.99" vector-effect="non-scaling-stroke"/><path stroke="#71471c" d="M643.66 660.22q-12.21 20.59-30.78 36.56a.25.25 0 0 1-.41-.18l-.52-12.89a.47.47 0 0 0-.91-.15q-.46 1.24-.84 1.9-13.06 22.52-35.64 37.36-13.48 8.85-30.4 18.39a2.43 2.43 0 0 0-1.24 2.1q-.21 30.51-1.77 66.44-.96 22.37-1.21 34c-.32 15.22 11.73 19.99 24.58 22.34a.64.64 0 0 0 .68-.35q1.6-3.36 1.83-6.97" vector-effect="non-scaling-stroke"/><path stroke="#7b5928" d="M567.03 858.77q1.21-10.07-2.08-19.55-.86-2.46-1.66-4.7a.32.31-78.5 0 1 .51-.34q10.65 10.01 10.67 24.87" vector-effect="non-scaling-stroke"/><path stroke="#71471c" d="m574.47 859.05-1.35 8a.62.62 0 0 0 .56.72q12.46 1.26 25.17-.33c2.16-.27 2.63-1.15 3.2-3.1q1.3-4.48 1.47-5.89" vector-effect="non-scaling-stroke"/><path stroke="#7b5928" d="M603.52 858.45c1.27-10.78-2.3-20.06-7.75-28.85a.3.29-.8 0 1 .4-.41c9.74 5.69 15.09 16.39 15.22 27.65" vector-effect="non-scaling-stroke"/><path stroke="#71471c" d="m611.39 856.84-1.06 7.59a.42.42 0 0 0 .54.46c5.6-1.67 12.39-5.35 14.79-11.04" vector-effect="non-scaling-stroke"/><path stroke="#806f4a" d="M625.66 853.85c2.68-6.34 1.34-13.76-1.8-19.47q-4.03-7.35-11.52-12.29-16.11-10.65-35.37-6.5" vector-effect="non-scaling-stroke"/><path stroke="#7b5928" d="M576.97 815.59q-4.09.17-8.04 1.67a.26.26 0 0 1-.3-.39q.89-1.26 2.37-2.15 16.21-9.71 34.42-4.01" vector-effect="non-scaling-stroke"/><path stroke="#806f4a" d="m605.42 810.71 4.11 1.16a.48.47-78.8 0 0 .6-.41q2.09-19.57 6.99-37.64c4.53-16.69 9.59-31.15 17.23-50.85q9.77-25.15 13.89-37.22 9.77-28.62 10.56-58.77a.29.29 0 0 0-.49-.21q-.11.12-.24.53-3.08 10.29-7.31 19.93" vector-effect="non-scaling-stroke"/><path stroke="#f3c46e" d="M605.42 810.71c1.61-16.86 5.3-33.1 9.56-49.92q.87-3.44 4.85-14.26 2.71-7.35 4.91-14.25c4.68-14.71 11.75-30.26 16.13-45.95q1.5-5.36 5.53-16.88 1.34-3.82 2.3-11.41a4.24 4.21 58.8 0 1 .24-.99q1.74-4.94 1.82-9.82M576.97 815.59q5.47.76 11.03.72 3.42-.03 6 1.1 7.5 3.26 13.41 8.09c3.7 3.02 7.92 8.43 10.43 12.14q4.27 6.3 5.1 14.83" vector-effect="non-scaling-stroke"/><path stroke="#e39c40" d="m622.94 852.47-11.55 4.37M603.52 858.45c-8.58 3.51-20.16 2.68-29.05.6M567.03 858.77q-2.18-1.06-9.29-3.25c-4.42-1.37-7.75-5.84-9.07-10.67q-2.04-7.52-2.05-13.87-.02-9.32.9-32.72c.44-11.2.94-22.13 4.06-31.96 2.53-7.94 8-13.13 15.63-17.72q5-3.01 12.52-8.35 19.34-13.69 34.17-30.03 7.76-8.55 17.18-22.75c3.53-5.33 6.57-12.13 9.99-18.1q2.41-4.24 2.59-9.13" vector-effect="non-scaling-stroke"/><path stroke="#e9b262" d="M625.66 853.85q-.77.28-2.72-1.38" vector-effect="non-scaling-stroke"/><path stroke="#7b5928" d="M416.57 810.57q19.87-6.04 36.51 6.06a.39.39 0 0 1-.31.69l-10.21-2.1" vector-effect="non-scaling-stroke"/><path stroke="#806f4a" d="M442.56 815.22q-6.32-.68-11.31-.53c-13.49.4-29.94 10.13-35 23.15q-2.98 7.66-.73 15.85" vector-effect="non-scaling-stroke"/><path stroke="#71471c" d="M395.52 853.69q1.9 4.22 6.3 7 4.85 3.07 8.87 4.28a.31.31 0 0 0 .4-.33l-1.01-8.62" vector-effect="non-scaling-stroke"/><path stroke="#7b5928" d="M410.08 856.02q.7-14.83 11.46-23.98 1.79-1.52 3.66-2.34a.25.25 0 0 1 .31.36c-5.31 8.79-8.55 18-7.54 28.42" vector-effect="non-scaling-stroke"/><path stroke="#71471c" d="m417.97 858.48 2.09 7.37a2 1.99-3.8 0 0 1.65 1.44q13.12 1.8 26.46.3a.32.32 0 0 0 .27-.41q-1.5-4.81-1.27-10.3" vector-effect="non-scaling-stroke"/><path stroke="#7b5928" d="M447.17 856.88q.51-12.7 10.38-22.24a.36.35-9.9 0 1 .57.4q-4.8 10.65-3.66 23.3" vector-effect="non-scaling-stroke"/><path stroke="#71471c" d="M454.46 858.34q.2 3.68 1.91 7.54a.58.58 0 0 0 .64.33c7.62-1.44 16.27-4.29 21.04-10.39 4.2-5.37 4.06-11.67 3.74-17.57q-1.89-35.39-3.34-75.02c-.22-6.14-.01-13.15-.16-19.9a1.9 1.9 0 0 0-.98-1.63c-14.39-8.07-28.87-16.09-40.72-25.79-10.87-8.9-19.98-19.55-26.49-32.1a.32.32 0 0 0-.61.15v13.38a.36.36 0 0 1-.59.28q-18.45-15.34-31.68-36.72" vector-effect="non-scaling-stroke"/><path stroke="#7b5928" d="m377.22 660.9-6.71-12.62" vector-effect="non-scaling-stroke"/><path stroke="#806f4a" d="m370.51 648.28-7-19.02a.62.62 0 0 0-1.2.24q1.31 31.16 12.13 61.34 6.93 19.33 13.28 35.68 7.03 18.12 9.75 26.5 6.57 20.26 8.25 27 3.95 15.9 5.48 31.9a.47.46-12.7 0 0 .62.39l4.75-1.74" vector-effect="non-scaling-stroke"/><path stroke="#f3c46e" d="M370.51 648.28q-.51 2.87-.15 4.36 2.61 10.6 4.28 18.83c.72 3.57 2.45 7.12 3.21 9.91 3.33 12.12 7.53 23.33 12.31 34.44q1.97 4.59 5.04 14.24 3.49 10.99 6.38 19.38c1.24 3.58 2.98 7.33 3.99 11.36 2.31 9.25 2.86 13.17 5.52 21.92q3.03 9.96 3.79 20.53.14 1.94 1.69 7.32" vector-effect="non-scaling-stroke"/><path stroke="#e39c40" d="M377.22 660.9q.48 9.21 6.68 16.98a7.81 7.25 15.1 0 1 .95 1.52c6.5 13.69 16.09 24.81 26.95 36.57q9.12 9.87 25.84 22.01 2.45 1.78 16.73 11.05 6.4 4.15 8.62 6.52 4.41 4.7 5.96 9.03 3.74 10.43 4.17 21.53.08 2 .53 9.19 1.15 18.76 1.05 35.05c-.06 9.33-1.94 19.71-10.59 24.78q-3.12 1.83-9.65 3.21M447.17 856.88q-.66 1.94-1.67 2.22-13.7 3.81-27.53-.62M410.08 856.02q-5.32-.4-10.65-3.09" vector-effect="non-scaling-stroke"/><path stroke="#f3c46e" d="M399.43 852.93q.08-4.9 1.14-7.55 6.89-17.22 23.72-26.31 6.04-3.26 12.11-2.63 1.63.17 6.16-1.22" vector-effect="non-scaling-stroke"/><path stroke="#e9b262" d="m399.43 852.93-3.91.76" vector-effect="non-scaling-stroke"/><path stroke="#7b5928" d="m378.39 796.41 6.77 1.28" vector-effect="non-scaling-stroke"/><path stroke="#71471c" d="M385.16 797.69q5.39 1.91 10.17 5.94a.25.25 0 0 1-.23.43q-7.37-2.32-15.12-1.98" vector-effect="non-scaling-stroke"/><path stroke="#806f4a" d="M379.98 802.08q-18.64 1.92-28.12 17.76c-2.5 4.18-4.48 11 .72 14.3" vector-effect="non-scaling-stroke"/><path stroke="#71471c" d="M352.58 834.14q2.84 2.29 6.84 3.36a.42.42 0 0 0 .53-.41q.26-14.93 12.86-22.31a.34.34 0 0 1 .46.48c-4.21 6.59-6.67 13.49-6.3 20.99q.12 2.55 1.14 3.31a2.8 2.72-23.5 0 0 1.4.53l9.08.79a.51.51 0 0 0 .55-.57q-1.35-12.8 8.79-21.53a.35.35 0 0 1 .55.4q-3.6 8.59-2.81 18.36.07.81.48 1.27a.34.34 0 0 0 .57-.12q4.3-13.35 15.69-21.62a1.17 1.15-20.9 0 0 .47-1.04q-1.11-12.35-2.35-18.54-3.18-16.03-8.49-32.3c-3.67-11.26-9.14-26.68-14.47-40.41q-5.67-14.58-10.87-29.29" vector-effect="non-scaling-stroke"/><path stroke="#7b5928" d="M366.7 695.49q-4.79-13.38-8-27.28" vector-effect="non-scaling-stroke"/><path stroke="#806f4a" d="m358.7 668.21-1.73-8.86a.28.28 0 0 0-.39-.2c-11.19 5.26-17.6 21.33-19.59 32.83-6.37 36.85 14.7 73.18 36.76 101.02q2.38 3 4.64 3.41" vector-effect="non-scaling-stroke"/><path stroke="#f3c46e" d="M358.7 668.21q-9.16 8.12-12.32 17.67-3.33 10.1-3.21 21.12.12 10.97 2.24 21.29 1.71 8.32 6.52 19.8c5.19 12.37 9.96 24.75 17.81 35.53q1.39 1.92 4.22 6.47 2.01 3.25 4.43 6.32" vector-effect="non-scaling-stroke"/><path stroke="#e39c40" d="M366.7 695.49q-.58.5-1.75.44a.6.6 0 0 0-.61.48q-.91 4.57-2.26 10.39-.97 4.14-.82 13.94.09 6.32 2.09 17.24 1.75 9.58 7.38 27.21 1.81 5.68 6.05 14.41 2.43 4.99 6.53 14.3a2.7 2.68 10.3 0 0 .58.83q2.02 2.01 1.27 2.96" vector-effect="non-scaling-stroke"/><path stroke="#e9b262" d="M352.58 834.14q1.73-9.33 4.4-13.41 8.41-12.83 23.28-17.49a.47.47 0 0 0 .16-.81l-.44-.35" vector-effect="non-scaling-stroke"/><path stroke="#7b5928" d="M662.28 668.4q-2.58 12.06-6.9 23.84" vector-effect="non-scaling-stroke"/><path stroke="#71471c" d="M655.38 692.24c-1.56 4.25-2.95 8.97-4.47 12.8-7.72 19.52-14.85 37.48-20.94 56.19-5.42 16.64-9.79 35.43-11.3 54.23a1.9 1.89 21.5 0 0 .72 1.64q8.37 6.52 13.37 16.2c.97 1.89 1.35 4.08 1.92 5.69a.37.37 0 0 0 .71-.07q1.76-11.27-2.75-19.86a.29.29 0 0 1 .44-.36q10.14 8.29 9.29 21.67a.47.47 0 0 0 .51.49l8.91-.7a2.38 2.38 0 0 0 2.17-2.06c1.1-8.43-1.64-15.83-6.31-22.76a.36.35 87.3 0 1 .46-.51q12.36 6.68 13.16 22.48a.41.41 0 0 0 .53.37q4.1-1.28 7.34-3.71" vector-effect="non-scaling-stroke"/><path stroke="#806f4a" d="M669.14 833.97c4.8-3.76 2.9-10.6.18-14.77q-11.33-17.4-32.87-16.64" vector-effect="non-scaling-stroke"/><path stroke="#71471c" d="M636.45 802.56q-4.83-.31-10.11 1.3a.2.2 0 0 1-.16-.36l9.63-5.92" vector-effect="non-scaling-stroke"/><path stroke="#7b5928" d="m635.81 797.58 6.93-1.23" vector-effect="non-scaling-stroke"/><path stroke="#806f4a" d="M642.74 796.35q1.8.33 2.54-.57 12.97-15.73 23.95-35.01 11.36-19.95 15.31-44.27c3.06-18.87-1.89-46.14-19.41-57.24a.73.73 0 0 0-1.1.47l-1.75 8.67" vector-effect="non-scaling-stroke"/><path stroke="#f3c46e" d="M642.74 796.35q2.29-2.31 4.77-6.82 1.1-1.99 7.89-11.58.54-.77 5.16-8.72a5.12 4.98 70.8 0 0 .4-.86q1.47-4.03 2.04-5.06.48-.85.88-1.8 1.93-4.62 6.3-16.02 3.92-10.24 5.23-16.36 3.63-17.02 1.63-34.62c-.88-7.8-3.72-12.98-8.07-19.48q-2.68-4.01-6.69-6.63" vector-effect="non-scaling-stroke"/><path stroke="#e39c40" d="M635.81 797.58q3.16-3.91 4.62-7.77 2.01-5.38 2.03-5.41 4.71-10.28 7.61-17.06 1.79-4.2 5.14-17.84c1.33-5.38 2.85-11.96 3.56-18.19 1.1-9.72 1.65-18.43.16-26.48q-.82-4.41-3.55-12.59" vector-effect="non-scaling-stroke"/><path stroke="#e9b262" d="M636.45 802.56q3.28 1.12 6.31 2.07 4.08 1.29 6.2 2.32 10.98 5.32 16.51 15.32 2.28 4.12 3.67 11.7" vector-effect="non-scaling-stroke"/><path stroke="#71471c" d="M534.2 749.05a.2.2 0 0 0-.33-.15q-11.8 9.49-17.95 22.78-2.07 4.47-4.34 10.36a.54.53 45.5 0 1-1-.01q-2.38-6.43-7-14.34-6.23-10.68-16.17-18.7a.37.37 0 0 0-.6.3l3.05 76.7a1.2 1.2 0 0 0 .94 1.12q20.1 4.63 40.16-.13a.56.55 85.3 0 0 .43-.52q1.84-39.12 2.65-62.69.28-8.28.16-14.72" vector-effect="non-scaling-stroke"/><path stroke="#7b5928" d="M533.6 355.92q1.24.61 4.16-.39 5.32-1.83 10.56-4" vector-effect="non-scaling-stroke"/><path stroke="#b17734" d="M548.32 351.53q6.61-1.58 11.08-5.46" vector-effect="non-scaling-stroke"/><path stroke="#f5d6a5" d="m559.4 346.07.2.46a.8.8 0 0 0 1.2.32q2.93-2.17 6.37-3.91 1.67-.84 2.64-2.65" vector-effect="non-scaling-stroke"/><path stroke="#7b5928" d="M569.81 340.29q.25.98 1.22 0 7.6-7.69 7.34-18.57" vector-effect="non-scaling-stroke"/><path stroke="#e39c40" d="M578.37 321.72q1.85-.08 2.13-1.53 4.62-23.82-9.55-42.67-6.43-8.56-16.38-13.42c-14.83-7.25-33.04-5.62-44.89 6.6-18.19 18.77-10.96 48.73 2.91 67.21q5.39 7.18 8.67 11.58 1.76 2.38 5.56 5.1a2.37 2.36-22.2 0 0 1.05.44l5.73.89" vector-effect="non-scaling-stroke"/><path stroke="#71471c" d="M578.37 321.72q-.48-16.68-12.63-27.68-11.24-10.18-24.94-9.83c-11.69.29-21.07 5.43-25.89 16.38-6.78 15.44.77 34.39 10.12 46.88q2 2.65 8.57 8.45" vector-effect="non-scaling-stroke"/><path stroke="#838180" d="M569.81 340.29q7.21-11.55 2.07-24.4-6.93-17.31-23.49-21.94c-12.84-3.59-26.08 1.28-30.68 14.28" vector-effect="non-scaling-stroke"/><path stroke="#763632" d="M517.71 308.23q-.11.58-.28.55" vector-effect="non-scaling-stroke"/><path stroke="#3e2210" d="M517.43 308.78q-.94 3.06-.8 6.36a.25.25 0 0 0 .44.15q2.94-3.5 6.81-5.95c14.23-9.04 31.59 3.06 33.76 17.97q2.16 14.85-9.32 24.22" vector-effect="non-scaling-stroke"/><path stroke="#b99f8d" d="M559.4 346.07c6.05-6.22 7.04-17.37 4.3-25.43q-4.87-14.34-18.8-18.97c-9.49-3.16-19.97-1.09-26.73 6.82" vector-effect="non-scaling-stroke"/><path stroke="#f1b3af" d="m518.17 308.49-.46-.26" vector-effect="non-scaling-stroke"/><path stroke="#ac543e" d="M517.43 308.78q.51.06.74-.29" vector-effect="non-scaling-stroke"/><path stroke="#7b5928" d="M378.65 397.28q9.78 11.06 22.46 9.17" vector-effect="non-scaling-stroke"/><path stroke="#f5d6a5" d="M401.11 406.45q5.75-.22 9.12-2.34" vector-effect="non-scaling-stroke"/><path stroke="#b17734" d="M410.23 404.11q3.12-1.65 5.84-2.09 3.96-.63 6.13-1.78" vector-effect="non-scaling-stroke"/><path stroke="#7b5928" d="m422.2 400.24 12.51-5.13a1.66 1.65-9.8 0 0 1.03-1.45l.53-11.6" vector-effect="non-scaling-stroke"/><path stroke="#e39c40" d="m436.27 382.06.17 8.93a.26.25 70.5 0 0 .41.2q2.46-1.89 2.7-3.96c.66-5.87 1.07-13.06.48-18.99q-1.39-14.05-8.06-27.5c-9.43-19.02-27.69-31.27-49.27-24.05-8.35 2.79-15.99 8.6-20.7 16.75-3.69 6.4-6.28 13.2-6.23 20.56q.14 17.86 10.4 31.77 4.39 5.95 5.26 6.87 3 3.18 7.22 4.64" vector-effect="non-scaling-stroke"/><path stroke="#71471c" d="M436.27 382.06c-1.18-11.2-3.72-20.36-10.06-29.6-7.7-11.24-20.87-17.47-34.31-12.3-14.05 5.39-22.1 19.66-21.59 34.35q.44 12.62 8.34 22.77" vector-effect="non-scaling-stroke"/><path stroke="#3e2210" d="M422.2 400.24q-12.2 1.44-20.31-7.65c-6.64-7.44-9.31-19.83-3.91-28.62q7.98-12.96 23.53-10.87a.32.32 0 0 0 .28-.52q-1.96-2.29-4.72-3.67" vector-effect="non-scaling-stroke"/><path stroke="#838180" d="M417.07 348.91q-14.09-7.76-26.31 1.11-13.86 10.07-12.72 28.5.63 10.25 6 17.69 5.52 7.66 17.07 10.24" vector-effect="non-scaling-stroke"/><path stroke="#b99f8d" d="M417.07 348.91q-9.36-1.52-17.66 3.72c-9.41 5.94-13.97 18.12-11.7 28.63q3.78 17.42 22.52 22.85" vector-effect="non-scaling-stroke"/><path stroke="#7b5928" d="M529.51 362.49q8.79 4.21 18.03 11.18a.21.21 0 0 0 .31-.28q-6.42-10.25-16.37-15.02-9.96-4.77-21.96-3.34a.21.21 0 0 0-.03.41q11.22 2.83 20.02 7.05M584.88 392.64l12.26.69a.22.21-14.1 0 0 .2-.33c-8.02-12.68-24.47-9.43-29.09 3.97a.46.46 0 0 0 .66.55q3.97-2.31 8.73-3.41a.35.35 0 0 1 .42.29c2.34 14.58 2.53 29.74-4.72 42.92q-7.41 13.45-22.94 16.06-16.54 2.78-32.51-3.62a1.48 1.47.6 0 1-.82-.83l-4.2-10.76a.87.87 0 0 1 .29-1c13.71-10.23 23.38-26.62 22.83-44.16-.68-21.91-23.25-21.9-38.49-17.76-14.25 3.87-33.17 11.55-41.15 24.76-4.55 7.53-3.88 16.36 1.76 23.13 11.17 13.42 29.31 19.27 46.37 17.41a1.19 1.19 0 0 1 1.23.75l4.28 10.97a1.79 1.78 49.5 0 1-.12 1.54q-4.49 7.77-11.26 15.67c-3.17 3.7-8.32 7.95-11.58 9.84-20.57 11.89-39.19-.86-52.17-16.91q-1.95-2.41-6.66-9.01a.76.75 63.9 0 1 .39-1.16l9.01-2.79a.46.45 49.9 0 0 .07-.84c-13.13-6.71-26.58 1.73-24.54 16.65q.06.38.31.49.32.13.52-.15 3.64-5.04 8.48-8.87a.66.66 0 0 1 1 .23q6.14 12.28 15.61 21.37c11.42 10.97 29.4 19.16 44.74 11.55a1.66 1.65-41 0 1 1.65.11c9.73 6.55 20.73 11.49 32.82 10.05q21.71-2.59 34.04-19.16c4.8-6.44 7.41-13.39 9.14-21.4a2.08 2.05 86.2 0 1 1.3-1.51c22.4-8.37 26.76-36 23.1-56.54q-.3-1.69-1.63-8.01a.65.64-4.4 0 1 .67-.78M442.59 396.1q3.8-8.9 10.32-18.36a.21.21 0 0 0-.3-.29q-9.88 6.8-14.18 16.87-4.3 10.08-2.37 21.92a.21.21 0 0 0 .41.01q2.33-11.25 6.12-20.15" vector-effect="non-scaling-stroke"/><path stroke="#838180" d="M528.393 312.088a7.54 7.31-108.7 0 0-4.507 9.486 7.54 7.31-108.7 0 0 9.341 4.798 7.54 7.31-108.7 0 0 4.507-9.486 7.54 7.31-108.7 0 0-9.341-4.798M421.07 364.84a7.6 7.6 0 0 0-7.6-7.6 7.6 7.6 0 0 0-7.6 7.6 7.6 7.6 0 0 0 7.6 7.6 7.6 7.6 0 0 0 7.6-7.6M488.77 387.36c-5.8 2.38-18.95 8.51-21.28 14.67a1.17 1.16-77.1 0 0 .98 1.57q3.97.36 8.41-.98 7.06-2.12 15.81-5.71 8.74-3.58 15.26-7.02 4.1-2.16 6.68-5.21a1.17 1.16 32.5 0 0-.4-1.8c-5.99-2.76-19.66 2.1-25.46 4.48" vector-effect="non-scaling-stroke"/><path stroke="#763632" d="M521.86 471.71c-9.18 3.76-16.89 8.63-22.4 16.74a.7.7 0 0 0 .36 1.06c9.51 3.24 19.63 2.8 28.92-1 9.29-3.81 16.8-10.6 21.31-19.58a.7.7 0 0 0-.49-1c-9.61-1.92-18.53.02-27.7 3.78" vector-effect="non-scaling-stroke"/><path stroke="#e39c40" d="M622.23 575.29q-1.84-8.58-7.56-15.38a.44.44 0 0 0-.78.34q2.96 22.31-5.02 43.56a.39.39 0 0 0 .63.43q7.71-6.93 11.67-16.66a4.35 4.26-10.1 0 1 1.14-1.6c1.24-1.09 3.14-2.12 4.01-3.04 6.42-6.84 8.77-16.81 8.52-26.21q-.41-14.95-9.31-27.09a.37.36 20.1 0 0-.65.3q2.51 10.45 3.27 20.05 1.08 13.68-4.6 25.46a.7.7 0 0 1-1.32-.16M411 570.85a.35.35 0 0 0-.6-.33q-6.46 7.14-7.67 16.55a.41.41 0 0 1-.77.15q-4.84-8.57-5.41-18.47-.74-13 2.08-26a.38.38 0 0 0-.68-.3q-11.08 16.08-7.06 35.17 2.51 11.89 12.06 18.63a3.06 3.05-82.5 0 1 1.14 1.49q3.36 9.31 11.42 16.34a.46.46 0 0 0 .73-.51c-5.09-13.08-9-29.1-5.24-42.72" vector-effect="non-scaling-stroke"/><path stroke="#f3c46e" d="M543.29 646.47a.47.47 0 0 1-.53-.65c4.51-10.26 4.97-21.41 2.69-32a.26.26 0 0 0-.51.04q-1.14 22.7-13.15 41.69-1.04 1.64-2.66 3.53a.4.39-80.1 0 0 .44.63q5.91-2.25 12.47-5.41c10.88-5.23 16.97-13.1 21.83-23.92q.88-1.97 2.3-2.97c15.7-11.01 19.86-33.9 15.5-51.7a.43.43 0 0 0-.64-.26q-.05.03-.16.23a.2.17-40.3 0 0-.01.06c-.29 15.75-3.26 28.38-11.84 40.97a.56.56 0 0 1-1.02-.29q-.17-6.41-2.46-12.84a.35.34 35.4 0 0-.67.11c-.13 13.71-4.8 27-14.58 36.5q-4.24 4.11-5.51 5.33-.85.8-1.49.95M495.29 661.91a.35.34 76 0 0 .34-.57q-3.16-3.42-5.46-7.51-12.88-22.85-10.84-35.84a.51.51 0 0 0-.73-.54l-.22.11a.2.19-12.2 0 0-.1.15q-2.31 16.18 3.78 31.63.21.51-.32.66-.3.08-.6-.16c-4.06-3.24-8.77-6.55-11.84-11.12q-6.7-9.99-9.75-22.75-.75-3.15-.36-6a.68.68 0 0 0-.57-.77l-.03-.01a.55.55 0 0 0-.61.4q-1.65 6.12-1.73 12.33a.46.46 0 0 1-.82.27c-2.1-2.77-3.62-4.5-4.84-7.21q-7.05-15.71-6.81-32.72.02-1.48-.52-2.21a.38.37 32.1 0 0-.67.15c-1.22 5.99-2.04 12.54-1.54 18.41q1.87 21.95 18.99 35.78a3.94 3.82 3.6 0 1 .8.88c4.82 7.24 8.32 14.41 16.38 19.17q7.94 4.7 18.07 7.47" vector-effect="non-scaling-stroke"/></g><path fill="#fdfdfd" d="M286.65 313.05a.33.33 0 0 1 .32.55q-13.11 14.68-15.07 34.51a.46.46 0 0 0 .75.4l11.03-8.88a.45.45 0 0 1 .71.5c-8.67 26.05-19.21 49.35-31.61 76.39q-4.22 9.19-6.31 21.96c-3.48 21.17 7.79 38.87 22.45 52.12q14.29 12.9 30.51 23.74a.44.43 16.9 0 0 .68-.36v-12.8a.09.09 0 0 1 .16-.06q9.81 10.4 16.78 21.3c6.24 9.76 7.97 19.68 7.89 31.06a.77.77 0 0 0 .9.77q12.53-2.12 22.08-9.39a.44.44 0 0 1 .67.52q-3.23 7.6-5.69 15.76-8.84 29.25 4.74 56.26a.46.46 0 0 0 .85-.09q2.38-9.19 6.82-17.75.39-.74.93-1.07a.2.2 0 0 1 .31.2q-3.97 24.17-.94 50.18a1.08 1.07 73 0 1-.56 1.07c-28.33 14.88-31.99 53.72-24.29 81.05q10.09 35.81 34.21 62.85 2.14 2.39 2.68 3.06a.39.39 0 0 1-.18.62c-11.42 3.64-21.46 11.91-25.17 23.74q-4.65 14.88 8.74 21.68c9.26 4.7 22.23 6.77 34.02 6.22a.75.75 0 0 1 .79.7c.81 11.81 9.7 19.61 20.33 22.87q29.47 9.03 60.16.46c14.17-3.97 24.75-14.12 24.28-29.71q-.13-4.17-.08-7.33a.45.45 0 0 1 .55-.43q19.78 4.85 39.31.04a.6.6 0 0 1 .74.64q-.73 7.45.38 14.06c1.92 11.51 12.07 19.23 23.05 22.44q27.47 8.01 54.92 1.63c13.35-3.11 25.29-10.24 26.11-25.26a.44.44 0 0 1 .47-.42c12.51.8 45.57-1.88 44.16-21.12-1.1-14.99-13.3-25.65-26.67-30.19a.32.32 0 0 1-.13-.52q24.29-26.29 35.55-60.79c7.94-24.3 7.62-53.52-8.52-74.68q-5.81-7.61-14.34-11.61a1.05 1.03 16 0 1-.59-1.05q3.4-30.68-1-63a.32.31-64.7 0 1 .58-.21q5.31 8.72 8.78 19.26a.32.32 0 0 0 .6.03q9.49-22.23 6.23-45.37-1.05-7.52-4.26-17.45c-3.65-11.3-7.87-21.11-12.69-31.59-3.37-7.32-5.79-15.07-7.44-22.66a.38.38 0 0 1 .51-.44q6.87 2.68 14.43 3.17a.57.57 0 0 0 .56-.79c-2.88-6.66-4.65-11.04-7.94-17.07q-6.29-11.56-7.69-14.71-6.48-14.56-7.94-31.64a4.18 4.05 53.8 0 1 .25-1.81q4.01-10.5 5.46-20.43a.71.71 0 0 1 .91-.57l7.34 2.24a.48.48 0 0 0 .61-.55c-1.47-7.63-4.39-15.04-9.8-20.67a.27.27 0 0 1 .11-.45l12.22-3.77a.42.41 51.2 0 0 .08-.76c-13.84-7.82-25.98-19.35-33.6-33.46a.43.43 0 0 1 .4-.63c23.33 1.51 47.55-3.95 63.77-21.56a.41.4-68.5 0 0-.29-.68h-14.69a.25.25 0 0 1-.1-.47q27.82-12.73 48.97-34.73 27-28.08 44.4-63.18c2.82-5.67 5.3-12.47 6.74-18.88 2.44-10.81-1.87-19.79-10.46-26.14-10.21-7.56-21.71-12.05-33.93-15.66q-14.33-4.24-31.65-5.5-23.46-1.7-45.97 1.8-46.62 7.25-88.25 29.54a.11.11 0 0 1-.15-.15q3.71-7.02 8.81-12.75a.48.48 0 0 0-.4-.8c-15.25 1.17-28.15 9.42-40.64 19.74q-2.91 2.41-11.29 11.49a.89.88-59.3 0 1-.93.24c-2.95-.98-6.26-2.45-9.5-3.45q-55.79-17.25-108.36 7.36c-28.75 13.45-51.62 36.94-66.18 64.78a.77.76 10.6 0 1-.61.41c-23.14 2.55-52.04 12.9-61.12 36.61a.56.56 0 0 0 .65.74z"/><path fill="#080403" d="m286.65 313.05-5.59 1.27a.56.56 0 0 1-.65-.74c9.08-23.71 37.98-34.06 61.12-36.61a.77.76 10.6 0 0 .61-.41c14.56-27.84 37.43-51.33 66.18-64.78q52.57-24.61 108.36-7.36c3.24 1 6.55 2.47 9.5 3.45a.89.88-59.3 0 0 .93-.24q8.38-9.08 11.29-11.49c12.49-10.32 25.39-18.57 40.64-19.74a.48.48 0 0 1 .4.8q-5.1 5.73-8.81 12.75a.11.11 0 0 0 .15.15q41.63-22.29 88.25-29.54 22.51-3.5 45.97-1.8 17.32 1.26 31.65 5.5c12.22 3.61 23.72 8.1 33.93 15.66 8.59 6.35 12.9 15.33 10.46 26.14-1.44 6.41-3.92 13.21-6.74 18.88q-17.4 35.1-44.4 63.18-21.15 22-48.97 34.73a.25.25 0 0 0 .1.47h14.69a.41.4-68.5 0 1 .29.68c-16.22 17.61-40.44 23.07-63.77 21.56a.43.43 0 0 0-.4.63c7.62 14.11 19.76 25.64 33.6 33.46a.42.41 51.2 0 1-.08.76l-12.22 3.77a.27.27 0 0 0-.11.45c5.41 5.63 8.33 13.04 9.8 20.67a.48.48 0 0 1-.61.55l-7.34-2.24a.71.71 0 0 0-.91.57q-1.45 9.93-5.46 20.43a4.18 4.05 53.8 0 0-.25 1.81q1.46 17.08 7.94 31.64 1.4 3.15 7.69 14.71c3.29 6.03 5.06 10.41 7.94 17.07a.57.57 0 0 1-.56.79q-7.56-.49-14.43-3.17a.38.38 0 0 0-.51.44c1.65 7.59 4.07 15.34 7.44 22.66 4.82 10.48 9.04 20.29 12.69 31.59q3.21 9.93 4.26 17.45 3.26 23.14-6.23 45.37a.32.32 0 0 1-.6-.03q-3.47-10.54-8.78-19.26a.32.31-64.7 0 0-.58.21q4.4 32.32 1 63a1.05 1.03 16 0 0 .59 1.05q8.53 4 14.34 11.61c16.14 21.16 16.46 50.38 8.52 74.68q-11.26 34.5-35.55 60.79a.32.32 0 0 0 .13.52c13.37 4.54 25.57 15.2 26.67 30.19 1.41 19.24-31.65 21.92-44.16 21.12a.44.44 0 0 0-.47.42c-.82 15.02-12.76 22.15-26.11 25.26q-27.45 6.38-54.92-1.63c-10.98-3.21-21.13-10.93-23.05-22.44q-1.11-6.61-.38-14.06a.6.6 0 0 0-.74-.64q-19.53 4.81-39.31-.04a.45.45 0 0 0-.55.43q-.05 3.16.08 7.33c.47 15.59-10.11 25.74-24.28 29.71q-30.69 8.57-60.16-.46c-10.63-3.26-19.52-11.06-20.33-22.87a.75.75 0 0 0-.79-.7c-11.79.55-24.76-1.52-34.02-6.22q-13.39-6.8-8.74-21.68c3.71-11.83 13.75-20.1 25.17-23.74a.39.39 0 0 0 .18-.62q-.54-.67-2.68-3.06-24.12-27.04-34.21-62.85c-7.7-27.33-4.04-66.17 24.29-81.05a1.08 1.07 73 0 0 .56-1.07q-3.03-26.01.94-50.18a.2.2 0 0 0-.31-.2q-.54.33-.93 1.07-4.44 8.56-6.82 17.75a.46.46 0 0 1-.85.09q-13.58-27.01-4.74-56.26 2.46-8.16 5.69-15.76a.44.44 0 0 0-.67-.52q-9.55 7.27-22.08 9.39a.77.77 0 0 1-.9-.77c.08-11.38-1.65-21.3-7.89-31.06q-6.97-10.9-16.78-21.3a.09.09 0 0 0-.16.06v12.8a.44.43 16.9 0 1-.68.36q-16.22-10.84-30.51-23.74c-14.66-13.25-25.93-30.95-22.45-52.12q2.09-12.77 6.31-21.96c12.4-27.04 22.94-50.34 31.61-76.39a.45.45 0 0 0-.71-.5l-11.03 8.88a.46.46 0 0 1-.75-.4q1.96-19.83 15.07-34.51a.33.33 0 0 0-.32-.55M540 216.39q2.48 1.55 3.81 3.74-2.26-1.14-4.2-1.76-5.96-1.9-17.2-5.23c-16.53-4.9-34.83-7.48-50.65-7.24-36.43.55-72.66 15.32-98.59 41.54q-15.97 16.17-28.01 35.66-4.33 7.02-8.69 14.18l.19-3.78 2.28-9.1a.32.32 0 0 0-.4-.38q-8.71 2.32-16.52 4.77-15.86 4.98-28.09 16.29a.41.41 0 0 0 .19.7l8.14 1.9a.51.51 0 0 1 .17.91q-12.96 8.83-19.66 24.07a.18.18 0 0 0 .26.23l10.33-6.14q6.76-2.62 12.74-2.95a.4.4 0 0 1 .23.75l-6.7 4.01-6.83 5.09a1.65 1.63 77.3 0 0-.63 1.01q-2 10.72-5.89 22.87-8.97 28.01-19.18 49.09c-4.39 9.05-7.31 16.33-9.8 24.21q-6.85 21.76 6.11 40.01 8.48 11.93 20.41 21.68l9.43 8.06a.36.36 0 0 0 .58-.35L290 483.45a.23.22 13.1 0 1 .36-.22q14.68 11.19 27.47 26.19c7.96 9.32 14.18 20.68 15.2 33.33a.45.45 0 0 0 .63.37q4.56-2.07 8.48-5.21 20.77-16.69 24.42-43.62c2.3-17.01-2.67-34.08-8.86-49.27q-4.1-10.08-10.82-24.34c-10.24-21.74-16.81-46.2-15.13-69.93q.81-11.48 6.82-26.78.73-1.16.84-2.51a.24.24 0 0 1 .26-.22h.01a.24.23 5.8 0 1 .22.26l-1.15 7.52q-3.93 28.81 4.55 56.61 4.06 13.34 8.26 23.08 3.96 9.17 12.96 28.52c8.66 18.6 13.35 38.9 11.21 59.38a.88.88 0 0 0 .34.79q24.81 18.98 54.69 26.16 13.48 3.24 23.87 4.81a.28.28 0 0 1-.01.55q-28.83 3.35-55.23-6.87c-9.19-3.56-17.21-9.06-25.03-15.07a.6.6 0 0 0-.93.26l-3.98 10.47-4.88 8.85a2.99 2.84-25.1 0 0-.27.69q-2.31 9.46-6.46 19.25-4.77 11.25-6.23 16.11-4.8 16.02-2.68 32.73a.42.42 0 0 0 .78.17l6.65-10.78 10.46-9.8a.31.31 0 0 1 .52.3c-3.87 17.02-1.43 32.79 3.82 49.85q7.78 25.27 24.28 46.23l6.9 7.96a.35.35 0 0 0 .61-.22q.36-9.6 3.23-19.52a.31.31 0 0 1 .59-.03q13.11 33.69 41.89 54.76 4.53 3.32 19.83 12.16 9.76 5.63 19.72 12.37 14.6 9.89 22.4 25.45a.23.23 0 0 0 .42-.01c5.62-13.03 14.98-21.84 27.52-29.69q9.49-5.94 17.15-10.36 10.87-6.29 16.89-10.74c18.91-13.97 34.43-32.8 41.52-55.11a.36.36 0 0 1 .68 0q3.04 9.99 3.63 20.41a.27.27 0 0 0 .47.16l3.89-4.76c17.46-20.16 27.88-44.98 32.14-71.23q1.64-10.08 1.2-19.89-.48-10.45-2.58-19.8a.24.24 0 0 1 .39-.23l10.53 9.03 7.61 11.35a.26.26 0 0 0 .47-.12q1.63-17.74-3.2-34.32c-3.47-11.92-9.24-24.44-14.39-36.29-5.45-12.55-8.04-23.4-7.85-36.51l3.91 1.2 8.16 3.68a.28.28 0 0 0 .35-.41c-5.03-7.85-10.13-15.89-13.68-24.22q-2.05-4.81-3.62-14.88l-.4-2.9a.4.39-33.3 0 0-.73-.15q-14.68 23.8-38.37 39.37a.28.28 0 0 1-.37-.42q18.55-21.19 32.77-46.5c4.45-7.93 8.74-17.3 10.75-24.27q.84-2.88 1.96-8.62a.95.95 0 0 1 .99-.77l3.34.19a.63.63 0 0 0 .53-1.03l-13.87-17.22a.14.14 0 0 1 .1-.23l10.31-.81a.45.45 0 0 0 .19-.83c-16.58-10.04-27.1-26.32-33.69-44.57q-2.61-7.22-6.03-18.72c-7.34-24.65-19.49-48.33-37.24-66.65a.12.12 0 0 1 .14-.18l9.17 5.3a1.47 1.46 45.2 0 0 1.42.01q11.46-6.22 21.65-16.66 16.79-17.19 35.52-29.24 5.21-3.35 14.43-6.89 13.3-4.98 26.71-5.61 12.56-.6 26.63 2.42-2.43.43-9.88.46c-27.47.11-53.45 12.49-73.29 31.92a.58.57-67.6 0 0 .41.99q8.57-.17 17.4 1.56a1 1 0 0 1 .61 1.58q-7.24 9.65-16.72 17.83a.54.53 31 0 0 .24.93c9.46 2.14 19.02 6.78 25.52 14.28a.2.19 61.9 0 1-.09.31l-18.49 5.72a.4.39 48.3 0 0-.04.74q5.59 2.49 10.51 5.41c6.67 3.97 13.49 10.41 19.57 14.38a.56.55-36.6 0 1-.15 1c-13.97 4.14-28.21 4.5-41.82-1.12a.28.28 0 0 1 .09-.53l25.72-2.03a.25.25 0 0 0 .14-.45c-9.29-7.07-20.07-11.56-30.47-14.91a.61.61 0 0 1-.18-1.07q9.32-7.1 19.81-10.08a.3.3 0 0 0 .04-.56q-10.98-5.11-24.25-7.32a.39.38 27.4 0 1-.21-.65l18.3-18.3a.06.06 0 0 0-.05-.11l-14.04 1.1a3.58 3.56 19.7 0 0-2.26 1.06q-11.36 11.69-25.85 19.88a.24.23-36.4 0 0-.06.36q8.66 9.34 15.6 20.59c5.57 9.05 9.23 18.46 12.94 28.86q3.33 9.31 7.91 23.53.4 1.24 1.72 3.9a2.34 2.33-11.1 0 0 1.91 1.28q24.6 1.92 46.64-6.94a.43.43 0 0 0-.09-.82q-7.72-1.24-15.5-5.58a.56.56 0 0 1 .13-1.03q2.44-.62 5.85-1.95 23.53-9.23 42.63-24.85c13.93-11.38 26.1-24.34 36.48-39.58q11.79-16.3 20.56-34.54c5.1-10.29 11.23-23.63 1.63-32.34q-4.2-3.8-8.59-6.17c-27.14-14.66-60.56-18.28-90.74-14.74-37.69 4.41-74.61 16.52-109.02 33.99a.24.24 0 0 1-.34-.26q1.63-6.81 4.98-12.98a.4.4 0 0 0-.52-.55c-10.82 5.18-21.05 13.73-29.65 22.11a.49.49 0 0 0 .06.75zm110.76 430.84-7.1 12.99q-12.21 20.59-30.78 36.56a.25.25 0 0 1-.41-.18l-.52-12.89a.47.47 0 0 0-.91-.15q-.46 1.24-.84 1.9-13.06 22.52-35.64 37.36-13.48 8.85-30.4 18.39a2.43 2.43 0 0 0-1.24 2.1q-.21 30.51-1.77 66.44-.96 22.37-1.21 34c-.32 15.22 11.73 19.99 24.58 22.34a.64.64 0 0 0 .68-.35q1.6-3.36 1.83-6.97 1.21-10.07-2.08-19.55-.86-2.46-1.66-4.7a.32.31-78.5 0 1 .51-.34q10.65 10.01 10.67 24.87l-1.35 8a.62.62 0 0 0 .56.72q12.46 1.26 25.17-.33c2.16-.27 2.63-1.15 3.2-3.1q1.3-4.48 1.47-5.89c1.27-10.78-2.3-20.06-7.75-28.85a.3.29-.8 0 1 .4-.41c9.74 5.69 15.09 16.39 15.22 27.65l-1.06 7.59a.42.42 0 0 0 .54.46c5.6-1.67 12.39-5.35 14.79-11.04 2.68-6.34 1.34-13.76-1.8-19.47q-4.03-7.35-11.52-12.29-16.11-10.65-35.37-6.5-4.09.17-8.04 1.67a.26.26 0 0 1-.3-.39q.89-1.26 2.37-2.15 16.21-9.71 34.42-4.01l4.11 1.16a.48.47-78.8 0 0 .6-.41q2.09-19.57 6.99-37.64c4.53-16.69 9.59-31.15 17.23-50.85q9.77-25.15 13.89-37.22 9.77-28.62 10.56-58.77a.29.29 0 0 0-.49-.21q-.11.12-.24.53-3.08 10.29-7.31 19.93M416.57 810.57q19.87-6.04 36.51 6.06a.39.39 0 0 1-.31.69l-10.21-2.1q-6.32-.68-11.31-.53c-13.49.4-29.94 10.13-35 23.15q-2.98 7.66-.73 15.85 1.9 4.22 6.3 7 4.85 3.07 8.87 4.28a.31.31 0 0 0 .4-.33l-1.01-8.62q.7-14.83 11.46-23.98 1.79-1.52 3.66-2.34a.25.25 0 0 1 .31.36c-5.31 8.79-8.55 18-7.54 28.42l2.09 7.37a2 1.99-3.8 0 0 1.65 1.44q13.12 1.8 26.46.3a.32.32 0 0 0 .27-.41q-1.5-4.81-1.27-10.3.51-12.7 10.38-22.24a.36.35-9.9 0 1 .57.4q-4.8 10.65-3.66 23.3.2 3.68 1.91 7.54a.58.58 0 0 0 .64.33c7.62-1.44 16.27-4.29 21.04-10.39 4.2-5.37 4.06-11.67 3.74-17.57q-1.89-35.39-3.34-75.02c-.22-6.14-.01-13.15-.16-19.9a1.9 1.9 0 0 0-.98-1.63c-14.39-8.07-28.87-16.09-40.72-25.79-10.87-8.9-19.98-19.55-26.49-32.1a.32.32 0 0 0-.61.15v13.38a.36.36 0 0 1-.59.28q-18.45-15.34-31.68-36.72l-6.71-12.62-7-19.02a.62.62 0 0 0-1.2.24q1.31 31.16 12.13 61.34 6.93 19.33 13.28 35.68 7.03 18.12 9.75 26.5 6.57 20.26 8.25 27 3.95 15.9 5.48 31.9a.47.46-12.7 0 0 .62.39zm-38.18-14.16 6.77 1.28q5.39 1.91 10.17 5.94a.25.25 0 0 1-.23.43q-7.37-2.32-15.12-1.98-18.64 1.92-28.12 17.76c-2.5 4.18-4.48 11 .72 14.3q2.84 2.29 6.84 3.36a.42.42 0 0 0 .53-.41q.26-14.93 12.86-22.31a.34.34 0 0 1 .46.48c-4.21 6.59-6.67 13.49-6.3 20.99q.12 2.55 1.14 3.31a2.8 2.72-23.5 0 0 1.4.53l9.08.79a.51.51 0 0 0 .55-.57q-1.35-12.8 8.79-21.53a.35.35 0 0 1 .55.4q-3.6 8.59-2.81 18.36.07.81.48 1.27a.34.34 0 0 0 .57-.12q4.3-13.35 15.69-21.62a1.17 1.15-20.9 0 0 .47-1.04q-1.11-12.35-2.35-18.54-3.18-16.03-8.49-32.3c-3.67-11.26-9.14-26.68-14.47-40.41q-5.67-14.58-10.87-29.29-4.79-13.38-8-27.28l-1.73-8.86a.28.28 0 0 0-.39-.2c-11.19 5.26-17.6 21.33-19.59 32.83-6.37 36.85 14.7 73.18 36.76 101.02q2.38 3 4.64 3.41M662.28 668.4q-2.58 12.06-6.9 23.84c-1.56 4.25-2.95 8.97-4.47 12.8-7.72 19.52-14.85 37.48-20.94 56.19-5.42 16.64-9.79 35.43-11.3 54.23a1.9 1.89 21.5 0 0 .72 1.64q8.37 6.52 13.37 16.2c.97 1.89 1.35 4.08 1.92 5.69a.37.37 0 0 0 .71-.07q1.76-11.27-2.75-19.86a.29.29 0 0 1 .44-.36q10.14 8.29 9.29 21.67a.47.47 0 0 0 .51.49l8.91-.7a2.38 2.38 0 0 0 2.17-2.06c1.1-8.43-1.64-15.83-6.31-22.76a.36.35 87.3 0 1 .46-.51q12.36 6.68 13.16 22.48a.41.41 0 0 0 .53.37q4.1-1.28 7.34-3.71c4.8-3.76 2.9-10.6.18-14.77q-11.33-17.4-32.87-16.64-4.83-.31-10.11 1.3a.2.2 0 0 1-.16-.36l9.63-5.92 6.93-1.23q1.8.33 2.54-.57 12.97-15.73 23.95-35.01 11.36-19.95 15.31-44.27c3.06-18.87-1.89-46.14-19.41-57.24a.73.73 0 0 0-1.1.47zM534.2 749.05a.2.2 0 0 0-.33-.15q-11.8 9.49-17.95 22.78-2.07 4.47-4.34 10.36a.54.53 45.5 0 1-1-.01q-2.38-6.43-7-14.34-6.23-10.68-16.17-18.7a.37.37 0 0 0-.6.3l3.05 76.7a1.2 1.2 0 0 0 .94 1.12q20.1 4.63 40.16-.13a.56.55 85.3 0 0 .43-.52q1.84-39.12 2.65-62.69.28-8.28.16-14.72"/><path fill="#f8da90" d="M765.42 221.77q-1.55-.21-.97-1.75 2.95-7.86 1.37-14.88-1.42-6.28-5.71-9.96c-3.76-3.22-8.34-6.49-13.25-8.52-15.48-6.38-31.47-10.46-48.02-11.39-14.42-.81-28.29-.8-42.66 1.11q-3.52.47-12.06 2.25c-7.17 1.5-17.33 3.43-25.7 6.07-10.85 3.43-23.11 8.01-34.54 12.19q-10.61 3.87-19.11 8.3c-2.61 1.35-5.59 2.19-8.41 3.54a.95.95 0 0 1-1.35-.91l.34-5.98a.77.77 0 0 0-1.21-.68q-7.17 4.93-13.89 12.04a1.07 1.05-24 0 0-.3.76l.05 2.43-6.77-4.81a.49.49 0 0 1-.06-.75c8.6-8.38 18.83-16.93 29.65-22.11a.4.4 0 0 1 .52.55q-3.35 6.17-4.98 12.98a.24.24 0 0 0 .34.26c34.41-17.47 71.33-29.58 109.02-33.99 30.18-3.54 63.6.08 90.74 14.74q4.39 2.37 8.59 6.17c9.6 8.71 3.47 22.05-1.63 32.34"/><path fill="#edae4c" d="M765.42 221.77q-8.77 18.24-20.56 34.54l-.59.07a.35.34 88.7 0 1-.38-.37c.14-2.2 1.52-3.63 2.13-5.68q2.45-8.34 4.15-14.69a5.38 5.32 53.2 0 0 .2-1.45q.03-3.22.77-5.43a.38.38 0 0 0-.23-.48l-.02-.01a.4.39-68 0 0-.49.21q-5.52 12.3-14.89 22.05-2.42 2.51-8.04 8.12-4.91 4.91-8.55 7.55-19.96 14.44-42.68 22.3a.91.9-10.2 0 1-1.2-.83c-.11-5.06-6.23-10.27-10.28-12.43a1.3 1.3 0 0 1-.39-1.96c3.03-3.77 5.44-10.21 2.81-14.76q-4.25-7.35-11.54-12.15a1.32 1.32 0 0 1-.18-2.06q1.35-1.28 13.06-12.02c7.52-6.91 17.96-12.18 28.83-15.3q16.08-4.62 32.68-5.4 10.31-.48 15.93-.27.32.01.71-.19a.96.95-33 0 0 .31-1.43c-3.59-4.62-11.74-7.59-17.35-8.99q-11.05-2.77-21.5-4.19-14.07-3.02-26.63-2.42-13.41.63-26.71 5.61-14.01 3.35-23.59 10.47-5.73 4.26-8.79 6.34-7.29 4.95-8.45 5.89-5.55 4.51-7.89 6.65-1.63 1.48-2.77 2.52-4.21 3.84-10.48 8.21c-6.23 4.33-9.57 6.89-16.4 3.89q-6.94-3.05-13.38-4.86a.11.11 0 0 0-.1.19c2.06 1.67 6.24 4.17 7.4 7.26q1.55 4.1 4.99 7.62a7.11 6.96 6.8 0 1 .95 1.18q5.31 8.25 7.59 12.01 3.43 5.66 6.97 16.54c5.02 15.4 9.12 27.26 12.41 41.96q1.59 7.07 7.1 21.4 2.13 5.54 4.84 9.85 4.19 6.69 16.35 24.63c1.51 2.24 4.03 6.68 3.97 9.37q-.08 4.34-1.32 8.86c-2.71 9.81-5.14 18.13-9.98 27.28q-5.84 11.02-6.99 13.02-5.99 10.43-13.51 19.48-10.84 13.06-20.23 22.85a.54.54 0 0 1-.62.11q-.59-.27-.35-.86 1.9-7.27 1.82-14.5a.28.27-36.1 0 0-.54-.08q-4.17 12.17-11.3 22.71c-15.27 22.53-47.29 35.97-73.96 30.38q-12.51-2.62-23.69-8.06a.26.26 0 0 0-.28.43l7.29 6.3q.07.39 0 .69a.66.66 0 0 1-.77.5q-4-.77-5.64-.82-21.29-.64-40.05-4.95-10.84-2.49-15.93-4.59-6.46-2.65-17.19-8.61c-4.12-2.29-8.62-5.63-9.77-10.22q-.94-3.76-1.47-5.9-1.14-4.58-6.01-21.82-2.47-8.74-4.86-15.02-4.18-11-6.03-14.64-12.88-25.27-23.94-50.58c-1.36-3.11-2.9-7.32-3.57-9.96q-5.35-21.08-5.86-24.82-.86-6.23-.85-14.3a3.79 3.45-55.3 0 0-.13-.97l-1.03-3.72 1.15-7.52a.24.23 5.8 0 0-.22-.26h-.01a.24.24 0 0 0-.26.22q-.11 1.35-.84 2.51-2.55.41-3.13 1.48-6.84 12.7-9.5 25.13-1.35 6.34-1.45 20.12-.06 8.9 2.8 19.94 4.69 18.09 7.66 25.92 7.11 18.74 11.72 33.26 3.33 10.47 4.6 25.42c.64 7.5-.33 15.57-1.61 21.97q-2.51 12.49-11.03 24.94-3.83 5.59-4.14 6.06a.56.56 0 0 1-1.02-.29c-.38-11.44-1.57-22.11-5.81-32.56-4.7-11.57-12.13-27.53-14.64-33.6-4.27-10.33-6.42-18.67-7.76-29.02a.49.49 0 0 0-.94-.13q-5.76 13.11-3.37 27.41.44 2.61 2.09 9.26.21.81.08 1.32a.81.81 0 0 1-1.3.44q-6.19-5.09-14.06-11.05c-7.54-5.7-12.76-10.77-16.41-18.79a.77.77 0 0 0-1.39-.02c-2.24 4.44-2.27 8.71-2.1 14.25.18 5.64 2.11 10.84 3.01 16.21a3.38 3.34-65 0 0 .39 1.09l4.33 7.66q-5.87-7.08-7.97-12.7-3.4-9.07-4.26-14.29-1.71-10.42 1.07-21.33 1.26-4.97 6.07-14.32 8.11-15.79 15.12-35.15c4.9-13.54 6.81-24.19 11.31-41.18q.62-2.33 1.28-6.43.49-3.1 1.42-6.43l6.7-4.01a.4.4 0 0 0-.23-.75q-5.98.33-12.74 2.95 2.88-6.15 5.81-9.33 4.94-5.37 11.56-8.92a.79.78-48.7 0 0-.09-1.43l-7.72-2.93a.52.52 0 0 1-.11-.92q2.74-1.87 7.74-3.66 5.52-1.97 11.11-3.63c4.19-1.25 10.03-1.43 15-2.43l-.19 3.78-1.25 3.99a.47.46-15.8 0 0 .8.44q2.63-2.99 3.99-5.21 2.43-3.96 6.29-7.62a1 1 0 0 0 .27-.43l.06-.18a2.75 2.65 76.8 0 1 .53-.89q3.52-3.96 12.65-15.81c7.14-9.26 15.6-16.77 24.54-24.43 13.9-11.88 29.71-20.56 47.08-26.46 4.93-1.68 10.65-2.82 15.47-4.12q5.6-1.5 11.78-2.2c15.33-1.74 31.06-1.65 46.64.62 5.58.82 15.56 1.45 22.6 3.38q6.02 1.66 13.96 3.5 2.73.64 6.1.62a.26.26 0 0 0 .1-.49l-4.27-1.86q-1.33-2.19-3.81-3.74l-.05-2.43a1.07 1.05-24 0 1 .3-.76q6.72-7.11 13.89-12.04a.77.77 0 0 1 1.21.68l-.34 5.98a.95.95 0 0 0 1.35.91c2.82-1.35 5.8-2.19 8.41-3.54q8.5-4.43 19.11-8.3c11.43-4.18 23.69-8.76 34.54-12.19 8.37-2.64 18.53-4.57 25.7-6.07q8.54-1.78 12.06-2.25c14.37-1.91 28.24-1.92 42.66-1.11 16.55.93 32.54 5.01 48.02 11.39 4.91 2.03 9.49 5.3 13.25 8.52q4.29 3.68 5.71 9.96 1.58 7.02-1.37 14.88-.58 1.54.97 1.75M533.6 355.92q1.24.61 4.16-.39 5.32-1.83 10.56-4 6.61-1.58 11.08-5.46l.2.46a.8.8 0 0 0 1.2.32q2.93-2.17 6.37-3.91 1.67-.84 2.64-2.65.25.98 1.22 0 7.6-7.69 7.34-18.57 1.85-.08 2.13-1.53 4.62-23.82-9.55-42.67-6.43-8.56-16.38-13.42c-14.83-7.25-33.04-5.62-44.89 6.6-18.19 18.77-10.96 48.73 2.91 67.21q5.39 7.18 8.67 11.58 1.76 2.38 5.56 5.1a2.37 2.36-22.2 0 0 1.05.44zm-154.95 41.36q9.78 11.06 22.46 9.17 5.75-.22 9.12-2.34 3.12-1.65 5.84-2.09 3.96-.63 6.13-1.78l12.51-5.13a1.66 1.65-9.8 0 0 1.03-1.45l.53-11.6.17 8.93a.26.25 70.5 0 0 .41.2q2.46-1.89 2.7-3.96c.66-5.87 1.07-13.06.48-18.99q-1.39-14.05-8.06-27.5c-9.43-19.02-27.69-31.27-49.27-24.05-8.35 2.79-15.99 8.6-20.7 16.75-3.69 6.4-6.28 13.2-6.23 20.56q.14 17.86 10.4 31.77 4.39 5.95 5.26 6.87 3 3.18 7.22 4.64m150.86-34.79q8.79 4.21 18.03 11.18a.21.21 0 0 0 .31-.28q-6.42-10.25-16.37-15.02-9.96-4.77-21.96-3.34a.21.21 0 0 0-.03.41q11.22 2.83 20.02 7.05m55.37 30.15 12.26.69a.22.21-14.1 0 0 .2-.33c-8.02-12.68-24.47-9.43-29.09 3.97a.46.46 0 0 0 .66.55q3.97-2.31 8.73-3.41a.35.35 0 0 1 .42.29c2.34 14.58 2.53 29.74-4.72 42.92q-7.41 13.45-22.94 16.06-16.54 2.78-32.51-3.62a1.48 1.47.6 0 1-.82-.83l-4.2-10.76a.87.87 0 0 1 .29-1c13.71-10.23 23.38-26.62 22.83-44.16-.68-21.91-23.25-21.9-38.49-17.76-14.25 3.87-33.17 11.55-41.15 24.76-4.55 7.53-3.88 16.36 1.76 23.13 11.17 13.42 29.31 19.27 46.37 17.41a1.19 1.19 0 0 1 1.23.75l4.28 10.97a1.79 1.78 49.5 0 1-.12 1.54q-4.49 7.77-11.26 15.67c-3.17 3.7-8.32 7.95-11.58 9.84-20.57 11.89-39.19-.86-52.17-16.91q-1.95-2.41-6.66-9.01a.76.75 63.9 0 1 .39-1.16l9.01-2.79a.46.45 49.9 0 0 .07-.84c-13.13-6.71-26.58 1.73-24.54 16.65q.06.38.31.49.32.13.52-.15 3.64-5.04 8.48-8.87a.66.66 0 0 1 1 .23q6.14 12.28 15.61 21.37c11.42 10.97 29.4 19.16 44.74 11.55a1.66 1.65-41 0 1 1.65.11c9.73 6.55 20.73 11.49 32.82 10.05q21.71-2.59 34.04-19.16c4.8-6.44 7.41-13.39 9.14-21.4a2.08 2.05 86.2 0 1 1.3-1.51c22.4-8.37 26.76-36 23.1-56.54q-.3-1.69-1.63-8.01a.65.64-4.4 0 1 .67-.78m-142.29 3.46q3.8-8.9 10.32-18.36a.21.21 0 0 0-.3-.29q-9.88 6.8-14.18 16.87-4.3 10.08-2.37 21.92a.21.21 0 0 0 .41.01q2.33-11.25 6.12-20.15"/><path fill="#d98a34" d="M744.86 256.31c-10.38 15.24-22.55 28.2-36.48 39.58q-19.1 15.62-42.63 24.85-3.41 1.33-5.85 1.95a.56.56 0 0 0-.13 1.03q7.78 4.34 15.5 5.58a.43.43 0 0 1 .09.82q-22.04 8.86-46.64 6.94a2.34 2.33-11.1 0 1-1.91-1.28q-1.32-2.66-1.72-3.9-4.58-14.22-7.91-23.53c-3.71-10.4-7.37-19.81-12.94-28.86q-6.94-11.25-15.6-20.59a.24.23-36.4 0 1 .06-.36q14.49-8.19 25.85-19.88a3.58 3.56 19.7 0 1 2.26-1.06l14.04-1.1a.06.06 0 0 1 .05.11l-18.3 18.3a.39.38 27.4 0 0 .21.65q13.27 2.21 24.25 7.32a.3.3 0 0 1-.04.56q-10.49 2.98-19.81 10.08a.61.61 0 0 0 .18 1.07c10.4 3.35 21.18 7.84 30.47 14.91a.25.25 0 0 1-.14.45L622 291.98a.28.28 0 0 0-.09.53c13.61 5.62 27.85 5.26 41.82 1.12a.56.55-36.6 0 0 .15-1c-6.08-3.97-12.9-10.41-19.57-14.38q-4.92-2.92-10.51-5.41a.4.39 48.3 0 1 .04-.74l18.49-5.72a.2.19 61.9 0 0 .09-.31c-6.5-7.5-16.06-12.14-25.52-14.28a.54.53 31 0 1-.24-.93q9.48-8.18 16.72-17.83a1 1 0 0 0-.61-1.58q-8.83-1.73-17.4-1.56a.58.57-67.6 0 1-.41-.99c19.84-19.43 45.82-31.81 73.29-31.92q7.45-.03 9.88-.46 10.45 1.42 21.5 4.19c5.61 1.4 13.76 4.37 17.35 8.99a.96.95-33 0 1-.31 1.43q-.39.2-.71.19-5.62-.21-15.93.27-16.6.78-32.68 5.4c-10.87 3.12-21.31 8.39-28.83 15.3q-11.71 10.74-13.06 12.02a1.32 1.32 0 0 0 .18 2.06q7.29 4.8 11.54 12.15c2.63 4.55.22 10.99-2.81 14.76a1.3 1.3 0 0 0 .39 1.96c4.05 2.16 10.17 7.37 10.28 12.43a.91.9-10.2 0 0 1.2.83q22.72-7.86 42.68-22.3 3.64-2.64 8.55-7.55 5.62-5.61 8.04-8.12 9.37-9.75 14.89-22.05a.4.39-68 0 1 .49-.21l.02.01a.38.38 0 0 1 .23.48q-.74 2.21-.77 5.43a5.38 5.32 53.2 0 1-.2 1.45q-1.7 6.35-4.15 14.69c-.61 2.05-1.99 3.48-2.13 5.68a.35.34 88.7 0 0 .38.37z"/><path fill="#d98a34" d="M654.79 199.71q-9.22 3.54-14.43 6.89-18.73 12.05-35.52 29.24-10.19 10.44-21.65 16.66a1.47 1.46 45.2 0 1-1.42-.01l-9.17-5.3a.12.12 0 0 0-.14.18c17.75 18.32 29.9 42 37.24 66.65q3.42 11.5 6.03 18.72c6.59 18.25 17.11 34.53 33.69 44.57a.45.45 0 0 1-.19.83l-10.31.81a.14.14 0 0 0-.1.23l13.87 17.22a.63.63 0 0 1-.53 1.03l-3.34-.19a.95.95 0 0 0-.99.77q-1.12 5.74-1.96 8.62c-2.01 6.97-6.3 16.34-10.75 24.27q-14.22 25.31-32.77 46.5a.28.28 0 0 0 .37.42q23.69-15.57 38.37-39.37a.4.39-33.3 0 1 .73.15l.4 2.9q-2 1.99-.7 5.96a1.63 1.62-47.3 0 1 .03.85l-1.19 4.73q-6.01 10.36-12.85 20.48-3.9 5.76-8.67 10.82-10 10.61-18.01 17.23-4.77 3.95-11.94 10.07-6.36 5.43-9.7 12.07c-9.34 18.64-18.11 36.75-33.63 50.33a.65.65 0 0 1-1.07-.43q-.67-7.08.68-14.66a.41.41 0 0 0-.76-.29q-2.67 4.28-7.59 11.9c-7.14 11.04-11.61 22.98-15.78 35.48a.61.6-49.9 0 1-1.11.1c-5.62-10.56-12.48-21.44-21.21-30.2q-4.88-4.89-8.75-9.45a.28.28 0 0 0-.5.2q.53 7.32 2.69 15.56a.76.76 0 0 1-.84.94q-.35-.05-.85-.41-16.35-11.75-26.93-29.06-1.22-1.99-2.58-3.03a1.7 1.69 63.1 0 0-1.06-.35q-18.37.17-36.26-2.73-9.28-1.51-13.31-2.96-14.96-5.38-20.03-7.4a.88.87-58.9 0 0-1 .25q-7 8.4-16.14 14.14-3.42 2.15-12.26 5.81a.46.46 0 0 1-.62-.3q-.13-.44-.08-.94c1.62-6.83 4.37-13.48 6.58-19.92 2.23-6.51 1.96-13.2 4.36-19.78a.15.15 0 0 0-.09-.18.13.13 0 0 0-.16.08q-.33 1.17-1.44 1.3l3.98-10.47a.6.6 0 0 1 .93-.26c7.82 6.01 15.84 11.51 25.03 15.07q26.4 10.22 55.23 6.87a.28.28 0 0 0 .01-.55q-10.39-1.57-23.87-4.81-29.88-7.18-54.69-26.16a.88.88 0 0 1-.34-.79c2.14-20.48-2.55-40.78-11.21-59.38q-9-19.35-12.96-28.52-4.2-9.74-8.26-23.08-8.48-27.8-4.55-56.61l1.03 3.72a3.79 3.45-55.3 0 1 .13.97q-.01 8.07.85 14.3.51 3.74 5.86 24.82c.67 2.64 2.21 6.85 3.57 9.96q11.06 25.31 23.94 50.58 1.85 3.64 6.03 14.64 2.39 6.28 4.86 15.02 4.87 17.24 6.01 21.82.53 2.14 1.47 5.9c1.15 4.59 5.65 7.93 9.77 10.22q10.73 5.96 17.19 8.61 5.09 2.1 15.93 4.59 18.76 4.31 40.05 4.95 1.64.05 5.64.82a.66.66 0 0 0 .77-.5q.07-.3 0-.69 20.19 13.98 45.15 9.5c25.21-4.53 48.83-20.93 55.51-46.68q-.24.59.35.86a.54.54 0 0 0 .62-.11q9.39-9.79 20.23-22.85 7.52-9.05 13.51-19.48 1.15-2 6.99-13.02c4.84-9.15 7.27-17.47 9.98-27.28q1.24-4.52 1.32-8.86c.06-2.69-2.46-7.13-3.97-9.37q-12.16-17.94-16.35-24.63-2.71-4.31-4.84-9.85-5.51-14.33-7.1-21.4c-3.29-14.7-7.39-26.56-12.41-41.96q-3.54-10.88-6.97-16.54-2.28-3.76-7.59-12.01a7.11 6.96 6.8 0 0-.95-1.18q-3.44-3.52-4.99-7.62c-1.16-3.09-5.34-5.59-7.4-7.26a.11.11 0 0 1 .1-.19q6.44 1.81 13.38 4.86c6.83 3 10.17.44 16.4-3.89q6.27-4.37 10.48-8.21 1.14-1.04 2.77-2.52 2.34-2.14 7.89-6.65 1.16-.94 8.45-5.89 3.06-2.08 8.79-6.34 9.58-7.12 23.59-10.47"/><path fill="#f8da90" d="m543.81 220.13 4.27 1.86a.26.26 0 0 1-.1.49q-3.37.02-6.1-.62-7.94-1.84-13.96-3.5c-7.04-1.93-17.02-2.56-22.6-3.38-15.58-2.27-31.31-2.36-46.64-.62q-6.18.7-11.78 2.2c-4.82 1.3-10.54 2.44-15.47 4.12-17.37 5.9-33.18 14.58-47.08 26.46-8.94 7.66-17.4 15.17-24.54 24.43q-9.13 11.85-12.65 15.81a2.75 2.65 76.8 0 0-.53.89l-.06.18a1 1 0 0 1-.27.43q-3.86 3.66-6.29 7.62-1.36 2.22-3.99 5.21a.47.46-15.8 0 1-.8-.44l1.25-3.99q4.36-7.16 8.69-14.18 12.04-19.49 28.01-35.66c25.93-26.22 62.16-40.99 98.59-41.54 15.82-.24 34.12 2.34 50.65 7.24q11.24 3.33 17.2 5.23 1.94.62 4.2 1.76"/><path fill="#d98a34" d="M578.37 321.72q-.48-16.68-12.63-27.68-11.24-10.18-24.94-9.83c-11.69.29-21.07 5.43-25.89 16.38-6.78 15.44.77 34.39 10.12 46.88q2 2.65 8.57 8.45l-5.73-.89a2.37 2.36-22.2 0 1-1.05-.44q-3.8-2.72-5.56-5.1-3.28-4.4-8.67-11.58c-13.87-18.48-21.1-48.44-2.91-67.21 11.85-12.22 30.06-13.85 44.89-6.6q9.95 4.86 16.38 13.42 14.17 18.85 9.55 42.67-.28 1.45-2.13 1.53"/><path fill="#f8da90" d="M336.66 293.5c-4.97 1-10.81 1.18-15 2.43q-5.59 1.66-11.11 3.63-5 1.79-7.74 3.66a.52.52 0 0 0 .11.92l7.72 2.93a.79.78-48.7 0 1 .09 1.43q-6.62 3.55-11.56 8.92-2.93 3.18-5.81 9.33l-10.33 6.14a.18.18 0 0 1-.26-.23q6.7-15.24 19.66-24.07a.51.51 0 0 0-.17-.91l-8.14-1.9a.41.41 0 0 1-.19-.7q12.23-11.31 28.09-16.29 7.81-2.45 16.52-4.77a.32.32 0 0 1 .4.38z"/><path fill="#080403" d="M578.37 321.72q.26 10.88-7.34 18.57-.97.98-1.22 0 7.21-11.55 2.07-24.4-6.93-17.31-23.49-21.94c-12.84-3.59-26.08 1.28-30.68 14.28q-.11.58-.28.55-.94 3.06-.8 6.36a.25.25 0 0 0 .44.15q2.94-3.5 6.81-5.95c14.23-9.04 31.59 3.06 33.76 17.97q2.16 14.85-9.32 24.22-5.24 2.17-10.56 4-2.92 1-4.16.39-6.57-5.8-8.57-8.45c-9.35-12.49-16.9-31.44-10.12-46.88 4.82-10.95 14.2-16.09 25.89-16.38q13.7-.35 24.94 9.83 12.15 11 12.63 27.68m-49.977-9.632a7.54 7.31-108.7 0 0-4.507 9.486 7.54 7.31-108.7 0 0 9.341 4.798 7.54 7.31-108.7 0 0 4.507-9.486 7.54 7.31-108.7 0 0-9.341-4.798"/><path fill="#fdfdfd" d="M569.81 340.29q-.97 1.81-2.64 2.65-3.44 1.74-6.37 3.91a.8.8 0 0 1-1.2-.32l-.2-.46c6.05-6.22 7.04-17.37 4.3-25.43q-4.87-14.34-18.8-18.97c-9.49-3.16-19.97-1.09-26.73 6.82l-.46-.26c4.6-13 17.84-17.87 30.68-14.28q16.56 4.63 23.49 21.94 5.14 12.85-2.07 24.4"/><path fill="#74401c" d="M559.4 346.07q-4.47 3.88-11.08 5.46 11.48-9.37 9.32-24.22c-2.17-14.91-19.53-27.01-33.76-17.97q-3.87 2.45-6.81 5.95a.25.25 0 0 1-.44-.15q-.14-3.3.8-6.36.51.06.74-.29c6.76-7.91 17.24-9.98 26.73-6.82q13.93 4.63 18.8 18.97c2.74 8.06 1.75 19.21-4.3 25.43"/><path fill="#e46860" d="m517.71 308.23.46.26q-.23.35-.74.29.17.03.28-.55"/><ellipse fill="#fdfdfd" rx="7.54" ry="7.31" transform="rotate(251.3 379.889 -30.747)"/><path fill="#d98a34" d="M436.27 382.06c-1.18-11.2-3.72-20.36-10.06-29.6-7.7-11.24-20.87-17.47-34.31-12.3-14.05 5.39-22.1 19.66-21.59 34.35q.44 12.62 8.34 22.77-4.22-1.46-7.22-4.64-.87-.92-5.26-6.87-10.26-13.91-10.4-31.77c-.05-7.36 2.54-14.16 6.23-20.56 4.71-8.15 12.35-13.96 20.7-16.75 21.58-7.22 39.84 5.03 49.27 24.05q6.67 13.45 8.06 27.5c.59 5.93.18 13.12-.48 18.99q-.24 2.07-2.7 3.96a.26.25 70.5 0 1-.41-.2zM338.57 323.97q-6.01 15.3-6.82 26.78c-1.68 23.73 4.89 48.19 15.13 69.93q6.72 14.26 10.82 24.34c6.19 15.19 11.16 32.26 8.86 49.27q-3.65 26.93-24.42 43.62-3.92 3.14-8.48 5.21a.45.45 0 0 1-.63-.37c-1.02-12.65-7.24-24.01-15.2-33.33q-12.79-15-27.47-26.19a.23.22 13.1 0 0-.36.22l3.83 16.78a.36.36 0 0 1-.58.35l-9.43-8.06q-.71-3.61-4.19-7.14-1.36-1.37-4.04-4.99l-4.33-7.66a3.38 3.34-65 0 1-.39-1.09c-.9-5.37-2.83-10.57-3.01-16.21-.17-5.54-.14-9.81 2.1-14.25a.77.77 0 0 1 1.39.02c3.65 8.02 8.87 13.09 16.41 18.79q7.87 5.96 14.06 11.05a.81.81 0 0 0 1.3-.44q.13-.51-.08-1.32-1.65-6.65-2.09-9.26-2.39-14.3 3.37-27.41a.49.49 0 0 1 .94.13c1.34 10.35 3.49 18.69 7.76 29.02 2.51 6.07 9.94 22.03 14.64 33.6 4.24 10.45 5.43 21.12 5.81 32.56a.56.56 0 0 0 1.02.29q.31-.47 4.14-6.06 8.52-12.45 11.03-24.94c1.28-6.4 2.25-14.47 1.61-21.97q-1.27-14.95-4.6-25.42-4.61-14.52-11.72-33.26-2.97-7.83-7.66-25.92-2.86-11.04-2.8-19.94.1-13.78 1.45-20.12 2.66-12.43 9.5-25.13.58-1.07 3.13-1.48"/><path fill="#f8da90" d="M299.63 328.56q-.93 3.33-1.42 6.43-.66 4.1-1.28 6.43c-4.5 16.99-6.41 27.64-11.31 41.18q-7.01 19.36-15.12 35.15-4.81 9.35-6.07 14.32-2.78 10.91-1.07 21.33.86 5.22 4.26 14.29 2.1 5.62 7.97 12.7 2.68 3.62 4.04 4.99 3.48 3.53 4.19 7.14-11.93-9.75-20.41-21.68-12.96-18.25-6.11-40.01c2.49-7.88 5.41-15.16 9.8-24.21q10.21-21.08 19.18-49.09 3.89-12.15 5.89-22.87a1.65 1.63 77.3 0 1 .63-1.01z"/><path fill="#080403" d="m436.27 382.06-.53 11.6a1.66 1.65-9.8 0 1-1.03 1.45l-12.51 5.13q-12.2 1.44-20.31-7.65c-6.64-7.44-9.31-19.83-3.91-28.62q7.98-12.96 23.53-10.87a.32.32 0 0 0 .28-.52q-1.96-2.29-4.72-3.67-14.09-7.76-26.31 1.11-13.86 10.07-12.72 28.5.63 10.25 6 17.69 5.52 7.66 17.07 10.24-12.68 1.89-22.46-9.17-7.9-10.15-8.34-22.77c-.51-14.69 7.54-28.96 21.59-34.35 13.44-5.17 26.61 1.06 34.31 12.3 6.34 9.24 8.88 18.4 10.06 29.6m-15.2-17.22a7.6 7.6 0 0 0-7.6-7.6 7.6 7.6 0 0 0-7.6 7.6 7.6 7.6 0 0 0 7.6 7.6 7.6 7.6 0 0 0 7.6-7.6"/><path fill="#fdfdfd" d="M417.07 348.91q-9.36-1.52-17.66 3.72c-9.41 5.94-13.97 18.12-11.7 28.63q3.78 17.42 22.52 22.85-3.37 2.12-9.12 2.34-11.55-2.58-17.07-10.24-5.37-7.44-6-17.69-1.14-18.43 12.72-28.5 12.22-8.87 26.31-1.11"/><path fill="#74401c" d="M417.07 348.91q2.76 1.38 4.72 3.67a.32.32 0 0 1-.28.52q-15.55-2.09-23.53 10.87c-5.4 8.79-2.73 21.18 3.91 28.62q8.11 9.09 20.31 7.65-2.17 1.15-6.13 1.78-2.72.44-5.84 2.09-18.74-5.43-22.52-22.85c-2.27-10.51 2.29-22.69 11.7-28.63q8.3-5.24 17.66-3.72"/><path fill="#080403" d="M531.48 358.37q9.95 4.77 16.37 15.02a.21.21 0 0 1-.31.28q-9.24-6.97-18.03-11.18-8.8-4.22-20.02-7.05a.21.21 0 0 1 .03-.41q12-1.43 21.96 3.34"/><circle cx="413.47" cy="364.84" r="7.6" fill="#fdfdfd"/><path fill="#080403" d="M584.21 393.42q1.33 6.32 1.63 8.01c3.66 20.54-.7 48.17-23.1 56.54a2.08 2.05 86.2 0 0-1.3 1.51c-1.73 8.01-4.34 14.96-9.14 21.4q-12.33 16.57-34.04 19.16c-12.09 1.44-23.09-3.5-32.82-10.05a1.66 1.65-41 0 0-1.65-.11c-15.34 7.61-33.32-.58-44.74-11.55q-9.47-9.09-15.61-21.37a.66.66 0 0 0-1-.23q-4.84 3.83-8.48 8.87-.2.28-.52.15-.25-.11-.31-.49c-2.04-14.92 11.41-23.36 24.54-16.65a.46.45 49.9 0 1-.07.84l-9.01 2.79a.76.75 63.9 0 0-.39 1.16q4.71 6.6 6.66 9.01c12.98 16.05 31.6 28.8 52.17 16.91 3.26-1.89 8.41-6.14 11.58-9.84q6.77-7.9 11.26-15.67a1.79 1.78 49.5 0 0 .12-1.54l-4.28-10.97a1.19 1.19 0 0 0-1.23-.75c-17.06 1.86-35.2-3.99-46.37-17.41-5.64-6.77-6.31-15.6-1.76-23.13 7.98-13.21 26.9-20.89 41.15-24.76 15.24-4.14 37.81-4.15 38.49 17.76.55 17.54-9.12 33.93-22.83 44.16a.87.87 0 0 0-.29 1l4.2 10.76a1.48 1.47.6 0 0 .82.83q15.97 6.4 32.51 3.62 15.53-2.61 22.94-16.06c7.25-13.18 7.06-28.34 4.72-42.92a.35.35 0 0 0-.42-.29q-4.76 1.1-8.73 3.41a.46.46 0 0 1-.66-.55c4.62-13.4 21.07-16.65 29.09-3.97a.22.21-14.1 0 1-.2.33l-12.26-.69a.65.64-4.4 0 0-.67.78m-95.44-6.06c-5.8 2.38-18.95 8.51-21.28 14.67a1.17 1.16-77.1 0 0 .98 1.57q3.97.36 8.41-.98 7.06-2.12 15.81-5.71 8.74-3.58 15.26-7.02 4.1-2.16 6.68-5.21a1.17 1.16 32.5 0 0-.4-1.8c-5.99-2.76-19.66 2.1-25.46 4.48m33.09 84.35c-9.18 3.76-16.89 8.63-22.4 16.74a.7.7 0 0 0 .36 1.06c9.51 3.24 19.63 2.8 28.92-1 9.29-3.81 16.8-10.6 21.31-19.58a.7.7 0 0 0-.49-1c-9.61-1.92-18.53.02-27.7 3.78M442.59 396.1q-3.79 8.9-6.12 20.15a.21.21 0 0 1-.41-.01q-1.93-11.84 2.37-21.92 4.3-10.07 14.18-16.87a.21.21 0 0 1 .3.29q-6.52 9.46-10.32 18.36"/><path fill="#fdfdfd" d="M492.69 396.91q-8.75 3.59-15.81 5.71-4.44 1.34-8.41.98a1.17 1.16-77.1 0 1-.98-1.57c2.33-6.16 15.48-12.29 21.28-14.67s19.47-7.24 25.46-4.48a1.17 1.16 32.5 0 1 .4 1.8q-2.58 3.05-6.68 5.21-6.52 3.44-15.26 7.02"/><path fill="#f8da90" d="M642.22 441.5q1.57 10.07 3.62 14.88c3.55 8.33 8.65 16.37 13.68 24.22a.28.28 0 0 1-.35.41l-8.16-3.68q-1.3-2.19-2.63-4.27-1.47-2.31-2.35-4.4-3.26-7.72-5.67-15.62l1.19-4.73a1.63 1.62-47.3 0 0-.03-.85q-1.3-3.97.7-5.96"/><path fill="#edae4c" d="M640.36 453.04q2.41 7.9 5.67 15.62.88 2.09 2.35 4.4 1.33 2.08 2.63 4.27l-3.91-1.2q-.4-1.3-.68-1.39a1.18 1.17-74.9 0 0-1.54.89q-1.49 7.86-.49 14.78 1.17 8.12 4.86 22.45c1.55 5.97 4.19 11.1 6.87 17.61q2.78 6.78 4.27 13.5 3 13.47 4.07 28.05l-10.53-9.03a.24.24 0 0 0-.39.23q2.1 9.35 2.58 19.8.44 9.81-1.2 19.89c-4.26 26.25-14.68 51.07-32.14 71.23q1.3-4.2 5.6-10.01 3.12-4.21 4.46-10.62 1.66-7.87 1.69-8.02 5.82-24.38-4.49-47.87a.67.67 0 0 0-1.27.11c-7.76 30.46-27.43 56.9-50.63 77.54q-1.77 1.57-3.25 3.51-1.35 1.76-2.85 3.86 3.3-11.79 2.49-22.69a.3.3 0 0 0-.58-.06c-3.85 13.42-8.66 25.89-17.11 36.71-6.91 8.86-15.93 15.03-25.75 20.78a.3.29-5.6 0 1-.43-.35q3.06-8.67 3.64-18.31a.19.19 0 0 0-.36-.09q-4.8 10.64-11.83 21.23-3.65 5.49-7.5 15.05-3.22-.84-6.73-.38c-3.23-8.86-8.3-16.88-13.14-24.56-2.22-3.51-4.07-7.51-5.56-10.92a.22.22 0 0 0-.42.09q.25 9.07 4.12 18.53a.2.2 0 0 1-.28.26q-7.79-4.17-14.76-9.28c-15.96-11.7-25.33-30.16-29.69-49.29a.21.21 0 0 0-.42.03q-1.18 11.91 2.89 24-1.3.55-2.66-2.24a2.42 2.37 8.8 0 0-.54-.72c-5.08-4.68-9.64-8.34-14.34-13.14q-12.36-12.61-22.36-27.76-5.62-8.51-9.29-17.18-4.97-11.7-8.36-23.27a.44.44 0 0 0-.52-.3q-.24.06-.32.22-9.06 18.4-6.68 38.72.38 3.23 3.99 18.08 1 4.14 2.7 7.51 1.98 3.96 4.24 6.76.4.5-.07 1.03-.26.3-.97.21-16.5-20.96-24.28-46.23c-5.25-17.06-7.69-32.83-3.82-49.85a.31.31 0 0 0-.52-.3l-10.46 9.8q-.26-6.48 1.02-12.83 1.58-7.82 2.82-15.69-.05.5.08.94a.46.46 0 0 0 .62.3q8.84-3.66 12.26-5.81 9.14-5.74 16.14-14.14a.88.87-58.9 0 1 1-.25q5.07 2.02 20.03 7.4 4.03 1.45 13.31 2.96 17.89 2.9 36.26 2.73a1.7 1.69 63.1 0 1 1.06.35q1.36 1.04 2.58 3.03 10.58 17.31 26.93 29.06.5.36.85.41a.76.76 0 0 0 .84-.94q-2.16-8.24-2.69-15.56a.28.28 0 0 1 .5-.2q3.87 4.56 8.75 9.45c8.73 8.76 15.59 19.64 21.21 30.2a.61.6-49.9 0 0 1.11-.1c4.17-12.5 8.64-24.44 15.78-35.48q4.92-7.62 7.59-11.9a.41.41 0 0 1 .76.29q-1.35 7.58-.68 14.66a.65.65 0 0 0 1.07.43c15.52-13.58 24.29-31.69 33.63-50.33q3.34-6.64 9.7-12.07 7.17-6.12 11.94-10.07 8.01-6.62 18.01-17.23 4.77-5.06 8.67-10.82 6.84-10.12 12.85-20.48m-18.13 122.25q-1.84-8.58-7.56-15.38a.44.44 0 0 0-.78.34q2.96 22.31-5.02 43.56a.39.39 0 0 0 .63.43q7.71-6.93 11.67-16.66a4.35 4.26-10.1 0 1 1.14-1.6c1.24-1.09 3.14-2.12 4.01-3.04 6.42-6.84 8.77-16.81 8.52-26.21q-.41-14.95-9.31-27.09a.37.36 20.1 0 0-.65.3q2.51 10.45 3.27 20.05 1.08 13.68-4.6 25.46a.7.7 0 0 1-1.32-.16M411 570.85a.35.35 0 0 0-.6-.33q-6.46 7.14-7.67 16.55a.41.41 0 0 1-.77.15q-4.84-8.57-5.41-18.47-.74-13 2.08-26a.38.38 0 0 0-.68-.3q-11.08 16.08-7.06 35.17 2.51 11.89 12.06 18.63a3.06 3.05-82.5 0 1 1.14 1.49q3.36 9.31 11.42 16.34a.46.46 0 0 0 .73-.51c-5.09-13.08-9-29.1-5.24-42.72m132.29 75.62a.47.47 0 0 1-.53-.65c4.51-10.26 4.97-21.41 2.69-32a.26.26 0 0 0-.51.04q-1.14 22.7-13.15 41.69-1.04 1.64-2.66 3.53a.4.39-80.1 0 0 .44.63q5.91-2.25 12.47-5.41c10.88-5.23 16.97-13.1 21.83-23.92q.88-1.97 2.3-2.97c15.7-11.01 19.86-33.9 15.5-51.7a.43.43 0 0 0-.64-.26q-.05.03-.16.23a.2.17-40.3 0 0-.01.06c-.29 15.75-3.26 28.38-11.84 40.97a.56.56 0 0 1-1.02-.29q-.17-6.41-2.46-12.84a.35.34 35.4 0 0-.67.11c-.13 13.71-4.8 27-14.58 36.5q-4.24 4.11-5.51 5.33-.85.8-1.49.95m-48 15.44a.35.34 76 0 0 .34-.57q-3.16-3.42-5.46-7.51-12.88-22.85-10.84-35.84a.51.51 0 0 0-.73-.54l-.22.11a.2.19-12.2 0 0-.1.15q-2.31 16.18 3.78 31.63.21.51-.32.66-.3.08-.6-.16c-4.06-3.24-8.77-6.55-11.84-11.12q-6.7-9.99-9.75-22.75-.75-3.15-.36-6a.68.68 0 0 0-.57-.77l-.03-.01a.55.55 0 0 0-.61.4q-1.65 6.12-1.73 12.33a.46.46 0 0 1-.82.27c-2.1-2.77-3.62-4.5-4.84-7.21q-7.05-15.71-6.81-32.72.02-1.48-.52-2.21a.38.37 32.1 0 0-.67.15c-1.22 5.99-2.04 12.54-1.54 18.41q1.87 21.95 18.99 35.78a3.94 3.82 3.6 0 1 .8.88c4.82 7.24 8.32 14.41 16.38 19.17q7.94 4.7 18.07 7.47"/><path fill="#080403" d="M582.51 481.57c-6.68 25.75-30.3 42.15-55.51 46.68q-24.96 4.48-45.15-9.5l-7.29-6.3a.26.26 0 0 1 .28-.43q11.18 5.44 23.69 8.06c26.67 5.59 58.69-7.85 73.96-30.38q7.13-10.54 11.3-22.71a.28.27-36.1 0 1 .54.08q.08 7.23-1.82 14.5"/><path fill="#e46860" d="M528.74 488.51c-9.29 3.8-19.41 4.24-28.92 1a.7.7 0 0 1-.36-1.06c5.51-8.11 13.22-12.98 22.4-16.74 9.17-3.76 18.09-5.7 27.7-3.78a.7.7 0 0 1 .49 1c-4.51 8.98-12.02 15.77-21.31 19.58"/><path fill="#f8da90" d="M647.1 476.13c-.19 13.11 2.4 23.96 7.85 36.51 5.15 11.85 10.92 24.37 14.39 36.29q4.83 16.58 3.2 34.32a.26.26 0 0 1-.47.12l-7.61-11.35q-1.07-14.58-4.07-28.05-1.49-6.72-4.27-13.5c-2.68-6.51-5.32-11.64-6.87-17.61q-3.69-14.33-4.86-22.45-1-6.92.49-14.78a1.18 1.17-74.9 0 1 1.54-.89q.28.09.68 1.39M360.2 556.21q-1.24 7.87-2.82 15.69-1.28 6.35-1.02 12.83l-6.65 10.78a.42.42 0 0 1-.78-.17q-2.12-16.71 2.68-32.73 1.46-4.86 6.23-16.11 4.15-9.79 6.46-19.25a2.99 2.84-25.1 0 1 .27-.69l4.88-8.85q1.11-.13 1.44-1.3a.13.13 0 0 1 .16-.08.15.15 0 0 1 .09.18c-2.4 6.58-2.13 13.27-4.36 19.78-2.21 6.44-4.96 13.09-6.58 19.92"/><path fill="#d98a34" d="M622.23 575.29a.7.7 0 0 0 1.32.16q5.68-11.78 4.6-25.46-.76-9.6-3.27-20.05a.37.36 20.1 0 1 .65-.3q8.9 12.14 9.31 27.09c.25 9.4-2.1 19.37-8.52 26.21-.87.92-2.77 1.95-4.01 3.04a4.35 4.26-10.1 0 0-1.14 1.6q-3.96 9.73-11.67 16.66a.39.39 0 0 1-.63-.43q7.98-21.25 5.02-43.56a.44.44 0 0 1 .78-.34q5.72 6.8 7.56 15.38M411 570.85c-3.76 13.62.15 29.64 5.24 42.72a.46.46 0 0 1-.73.51q-8.06-7.03-11.42-16.34a3.06 3.05-82.5 0 0-1.14-1.49q-9.55-6.74-12.06-18.63-4.02-19.09 7.06-35.17a.38.38 0 0 1 .68.3q-2.82 13-2.08 26 .57 9.9 5.41 18.47a.41.41 0 0 0 .77-.15q1.21-9.41 7.67-16.55a.35.35 0 0 1 .6.33"/><path fill="#f8da90" d="M543.29 646.47q.64-.15 1.49-.95 1.27-1.22 5.51-5.33c9.78-9.5 14.45-22.79 14.58-36.5a.35.34 35.4 0 1 .67-.11q2.29 6.43 2.46 12.84a.56.56 0 0 0 1.02.29c8.58-12.59 11.55-25.22 11.84-40.97a.2.17-40.3 0 1 .01-.06q.11-.2.16-.23a.43.43 0 0 1 .64.26c4.36 17.8.2 40.69-15.5 51.7q-1.42 1-2.3 2.97c-4.86 10.82-10.95 18.69-21.83 23.92q-6.56 3.16-12.47 5.41a.4.39-80.1 0 1-.44-.63q1.62-1.89 2.66-3.53 12.01-18.99 13.15-41.69a.26.26 0 0 1 .51-.04c2.28 10.59 1.82 21.74-2.69 32a.47.47 0 0 0 .53.65M495.29 661.91q-10.13-2.77-18.07-7.47c-8.06-4.76-11.56-11.93-16.38-19.17a3.94 3.82 3.6 0 0-.8-.88q-17.12-13.83-18.99-35.78c-.5-5.87.32-12.42 1.54-18.41a.38.37 32.1 0 1 .67-.15q.54.73.52 2.21-.24 17.01 6.81 32.72c1.22 2.71 2.74 4.44 4.84 7.21a.46.46 0 0 0 .82-.27q.08-6.21 1.73-12.33a.55.55 0 0 1 .61-.4l.03.01a.68.68 0 0 1 .57.77q-.39 2.85.36 6 3.05 12.76 9.75 22.75c3.07 4.57 7.78 7.88 11.84 11.12q.3.24.6.16.53-.15.32-.66-6.09-15.45-3.78-31.63a.2.19-12.2 0 1 .1-.15l.22-.11a.51.51 0 0 1 .73.54q-2.04 12.99 10.84 35.84 2.3 4.09 5.46 7.51a.35.34 76 0 1-.34.57"/><path fill="#d98a34" d="m622.78 674.14-3.89 4.76a.27.27 0 0 1-.47-.16q-.59-10.42-3.63-20.41a.36.36 0 0 0-.68 0c-7.09 22.31-22.61 41.14-41.52 55.11q-6.02 4.45-16.89 10.74-7.66 4.42-17.15 10.36c-12.54 7.85-21.9 16.66-27.52 29.69a.23.23 0 0 1-.42.01q-7.8-15.56-22.4-25.45-9.96-6.74-19.72-12.37-15.3-8.84-19.83-12.16-28.78-21.07-41.89-54.76a.31.31 0 0 0-.59.03q-2.87 9.92-3.23 19.52a.35.35 0 0 1-.61.22l-6.9-7.96q.71.09.97-.21.47-.53.07-1.03-2.26-2.8-4.24-6.76-1.7-3.37-2.7-7.51-3.61-14.85-3.99-18.08-2.38-20.32 6.68-38.72.08-.16.32-.22a.44.44 0 0 1 .52.3q3.39 11.57 8.36 23.27 3.67 8.67 9.29 17.18 10 15.15 22.36 27.76c4.7 4.8 9.26 8.46 14.34 13.14a2.42 2.37 8.8 0 1 .54.72q1.36 2.79 2.66 2.24 8.06 21.82 28.12 34.59 5.91 3.77 13.29 7.53 8.25 4.22 15.56 10.08a.25.24 22.8 0 0 .4-.16q.03-.35-.11-.9 3.51-.46 6.73.38l.27.6a.25.25 0 0 0 .39.09q5.61-4.72 11.34-7.74c5.74-3.04 14.62-7.56 20.78-12.42q9.49-7.47 15.68-15.63 5.65-7.46 8.97-17.17 1.5-2.1 2.85-3.86 1.48-1.94 3.25-3.51c23.2-20.64 42.87-47.08 50.63-77.54a.67.67 0 0 1 1.27-.11q10.31 23.49 4.49 47.87-.03.15-1.69 8.02-1.34 6.41-4.46 10.62-4.3 5.81-5.6 10.01"/><path fill="#f8da90" d="M605.42 810.71c1.61-16.86 5.3-33.1 9.56-49.92q.87-3.44 4.85-14.26 2.71-7.35 4.91-14.25c4.68-14.71 11.75-30.26 16.13-45.95q1.5-5.36 5.53-16.88 1.34-3.82 2.3-11.41a4.24 4.21 58.8 0 1 .24-.99q1.74-4.94 1.82-9.82 4.23-9.64 7.31-19.93.13-.41.24-.53a.29.29 0 0 1 .49.21q-.79 30.15-10.56 58.77-4.12 12.07-13.89 37.22c-7.64 19.7-12.7 34.16-17.23 50.85q-4.9 18.07-6.99 37.64a.48.47-78.8 0 1-.6.41zM370.51 648.28q-.51 2.87-.15 4.36 2.61 10.6 4.28 18.83c.72 3.57 2.45 7.12 3.21 9.91 3.33 12.12 7.53 23.33 12.31 34.44q1.97 4.59 5.04 14.24 3.49 10.99 6.38 19.38c1.24 3.58 2.98 7.33 3.99 11.36 2.31 9.25 2.86 13.17 5.52 21.92q3.03 9.96 3.79 20.53.14 1.94 1.69 7.32l-4.75 1.74a.47.46-12.7 0 1-.62-.39q-1.53-16-5.48-31.9-1.68-6.74-8.25-27-2.72-8.38-9.75-26.5-6.35-16.35-13.28-35.68-10.82-30.18-12.13-61.34a.62.62 0 0 1 1.2-.24z"/><path fill="#edae4c" d="M650.76 647.23q-.08 4.88-1.82 9.82a4.24 4.21 58.8 0 0-.24.99q-.96 7.59-2.3 11.41-4.03 11.52-5.53 16.88c-4.38 15.69-11.45 31.24-16.13 45.95q-2.2 6.9-4.91 14.25-3.98 10.82-4.85 14.26c-4.26 16.82-7.95 33.06-9.56 49.92q-18.21-5.7-34.42 4.01-1.48.89-2.37 2.15a.26.26 0 0 0 .3.39q3.95-1.5 8.04-1.67 5.47.76 11.03.72 3.42-.03 6 1.1 7.5 3.26 13.41 8.09c3.7 3.02 7.92 8.43 10.43 12.14q4.27 6.3 5.1 14.83l-11.55 4.37c-.13-11.26-5.48-21.96-15.22-27.65a.3.29-.8 0 0-.4.41c5.45 8.79 9.02 18.07 7.75 28.85-8.58 3.51-20.16 2.68-29.05.6q-.02-14.86-10.67-24.87a.32.31-78.5 0 0-.51.34q.8 2.24 1.66 4.7 3.29 9.48 2.08 19.55-2.18-1.06-9.29-3.25c-4.42-1.37-7.75-5.84-9.07-10.67q-2.04-7.52-2.05-13.87-.02-9.32.9-32.72c.44-11.2.94-22.13 4.06-31.96 2.53-7.94 8-13.13 15.63-17.72q5-3.01 12.52-8.35 19.34-13.69 34.17-30.03 7.76-8.55 17.18-22.75c3.53-5.33 6.57-12.13 9.99-18.1q2.41-4.24 2.59-9.13zM377.22 660.9q.48 9.21 6.68 16.98a7.81 7.25 15.1 0 1 .95 1.52c6.5 13.69 16.09 24.81 26.95 36.57q9.12 9.87 25.84 22.01 2.45 1.78 16.73 11.05 6.4 4.15 8.62 6.52 4.41 4.7 5.96 9.03 3.74 10.43 4.17 21.53.08 2 .53 9.19 1.15 18.76 1.05 35.05c-.06 9.33-1.94 19.71-10.59 24.78q-3.12 1.83-9.65 3.21-1.14-12.65 3.66-23.3a.36.35-9.9 0 0-.57-.4q-9.87 9.54-10.38 22.24-.66 1.94-1.67 2.22-13.7 3.81-27.53-.62c-1.01-10.42 2.23-19.63 7.54-28.42a.25.25 0 0 0-.31-.36q-1.87.82-3.66 2.34-10.76 9.15-11.46 23.98-5.32-.4-10.65-3.09.08-4.9 1.14-7.55 6.89-17.22 23.72-26.31 6.04-3.26 12.11-2.63 1.63.17 6.16-1.22l10.21 2.1a.39.39 0 0 0 .31-.69q-16.64-12.1-36.51-6.06-1.55-5.38-1.69-7.32-.76-10.57-3.79-20.53c-2.66-8.75-3.21-12.67-5.52-21.92-1.01-4.03-2.75-7.78-3.99-11.36q-2.89-8.39-6.38-19.38-3.07-9.65-5.04-14.24c-4.78-11.11-8.98-22.32-12.31-34.44-.76-2.79-2.49-6.34-3.21-9.91q-1.67-8.23-4.28-18.83-.36-1.49.15-4.36z"/><path fill="#f8da90" d="M358.7 668.21q-9.16 8.12-12.32 17.67-3.33 10.1-3.21 21.12.12 10.97 2.24 21.29 1.71 8.32 6.52 19.8c5.19 12.37 9.96 24.75 17.81 35.53q1.39 1.92 4.22 6.47 2.01 3.25 4.43 6.32-2.26-.41-4.64-3.41c-22.06-27.84-43.13-64.17-36.76-101.02 1.99-11.5 8.4-27.57 19.59-32.83a.28.28 0 0 1 .39.2z"/><path fill="#080403" d="M507.88 734.53q.14.55.11.9a.25.24 22.8 0 1-.4.16q-7.31-5.86-15.56-10.08-7.38-3.76-13.29-7.53-20.06-12.77-28.12-34.59-4.07-12.09-2.89-24a.21.21 0 0 1 .42-.03c4.36 19.13 13.73 37.59 29.69 49.29q6.97 5.11 14.76 9.28a.2.2 0 0 0 .28-.26q-3.87-9.46-4.12-18.53a.22.22 0 0 1 .42-.09c1.49 3.41 3.34 7.41 5.56 10.92 4.84 7.68 9.91 15.7 13.14 24.56"/><path fill="#f8da90" d="M642.74 796.35q2.29-2.31 4.77-6.82 1.1-1.99 7.89-11.58.54-.77 5.16-8.72a5.12 4.98 70.8 0 0 .4-.86q1.47-4.03 2.04-5.06.48-.85.88-1.8 1.93-4.62 6.3-16.02 3.92-10.24 5.23-16.36 3.63-17.02 1.63-34.62c-.88-7.8-3.72-12.98-8.07-19.48q-2.68-4.01-6.69-6.63l1.75-8.67a.73.73 0 0 1 1.1-.47c17.52 11.1 22.47 38.37 19.41 57.24q-3.95 24.32-15.31 44.27-10.98 19.28-23.95 35.01-.74.9-2.54.57"/><path fill="#080403" d="M572.04 682.64q-3.32 9.71-8.97 17.17-6.19 8.16-15.68 15.63c-6.16 4.86-15.04 9.38-20.78 12.42q-5.73 3.02-11.34 7.74a.25.25 0 0 1-.39-.09l-.27-.6q3.85-9.56 7.5-15.05 7.03-10.59 11.83-21.23a.19.19 0 0 1 .36.09q-.58 9.64-3.64 18.31a.3.29-5.6 0 0 .43.35c9.82-5.75 18.84-11.92 25.75-20.78 8.45-10.82 13.26-23.29 17.11-36.71a.3.3 0 0 1 .58.06q.81 10.9-2.49 22.69"/><path fill="#d98a34" d="M643.66 660.22q-.18 4.89-2.59 9.13c-3.42 5.97-6.46 12.77-9.99 18.1q-9.42 14.2-17.18 22.75-14.83 16.34-34.17 30.03-7.52 5.34-12.52 8.35c-7.63 4.59-13.1 9.78-15.63 17.72-3.12 9.83-3.62 20.76-4.06 31.96q-.92 23.4-.9 32.72.01 6.35 2.05 13.87c1.32 4.83 4.65 9.3 9.07 10.67q7.11 2.19 9.29 3.25-.23 3.61-1.83 6.97a.64.64 0 0 1-.68.35c-12.85-2.35-24.9-7.12-24.58-22.34q.25-11.63 1.21-34 1.56-35.93 1.77-66.44a2.43 2.43 0 0 1 1.24-2.1q16.92-9.54 30.4-18.39 22.58-14.84 35.64-37.36.38-.66.84-1.9a.47.47 0 0 1 .91.15l.52 12.89a.25.25 0 0 0 .41.18q18.57-15.97 30.78-36.56M454.46 858.34q6.53-1.38 9.65-3.21c8.65-5.07 10.53-15.45 10.59-24.78q.1-16.29-1.05-35.05-.45-7.19-.53-9.19-.43-11.1-4.17-21.53-1.55-4.33-5.96-9.03-2.22-2.37-8.62-6.52-14.28-9.27-16.73-11.05-16.72-12.14-25.84-22.01c-10.86-11.76-20.45-22.88-26.95-36.57a7.81 7.25 15.1 0 0-.95-1.52q-6.2-7.77-6.68-16.98 13.23 21.38 31.68 36.72a.36.36 0 0 0 .59-.28v-13.38a.32.32 0 0 1 .61-.15c6.51 12.55 15.62 23.2 26.49 32.1 11.85 9.7 26.33 17.72 40.72 25.79a1.9 1.9 0 0 1 .98 1.63c.15 6.75-.06 13.76.16 19.9q1.45 39.63 3.34 75.02c.32 5.9.46 12.2-3.74 17.57-4.77 6.1-13.42 8.95-21.04 10.39a.58.58 0 0 1-.64-.33q-1.71-3.86-1.91-7.54"/><path fill="#edae4c" d="M358.7 668.21q3.21 13.9 8 27.28-.58.5-1.75.44a.6.6 0 0 0-.61.48q-.91 4.57-2.26 10.39-.97 4.14-.82 13.94.09 6.32 2.09 17.24 1.75 9.58 7.38 27.21 1.81 5.68 6.05 14.41 2.43 4.99 6.53 14.3a2.7 2.68 10.3 0 0 .58.83q2.02 2.01 1.27 2.96l-6.77-1.28q-2.42-3.07-4.43-6.32-2.83-4.55-4.22-6.47c-7.85-10.78-12.62-23.16-17.81-35.53q-4.81-11.48-6.52-19.8-2.12-10.32-2.24-21.29-.12-11.02 3.21-21.12 3.16-9.55 12.32-17.67M642.74 796.35l-6.93 1.23q3.16-3.91 4.62-7.77 2.01-5.38 2.03-5.41 4.71-10.28 7.61-17.06 1.79-4.2 5.14-17.84c1.33-5.38 2.85-11.96 3.56-18.19 1.1-9.72 1.65-18.43.16-26.48q-.82-4.41-3.55-12.59 4.32-11.78 6.9-23.84 4.01 2.62 6.69 6.63c4.35 6.5 7.19 11.68 8.07 19.48q2 17.6-1.63 34.62-1.31 6.12-5.23 16.36-4.37 11.4-6.3 16.02-.4.95-.88 1.8-.57 1.03-2.04 5.06a5.12 4.98 70.8 0 1-.4.86q-4.62 7.95-5.16 8.72-6.79 9.59-7.89 11.58-2.48 4.51-4.77 6.82"/><path fill="#d98a34" d="M655.38 692.24q2.73 8.18 3.55 12.59c1.49 8.05.94 16.76-.16 26.48-.71 6.23-2.23 12.81-3.56 18.19q-3.35 13.64-5.14 17.84-2.9 6.78-7.61 17.06-.02.03-2.03 5.41-1.46 3.86-4.62 7.77l-9.63 5.92a.2.2 0 0 0 .16.36q5.28-1.61 10.11-1.3 3.28 1.12 6.31 2.07 4.08 1.29 6.2 2.32 10.98 5.32 16.51 15.32 2.28 4.12 3.67 11.7-3.24 2.43-7.34 3.71a.41.41 0 0 1-.53-.37q-.8-15.8-13.16-22.48a.36.35 87.3 0 0-.46.51c4.67 6.93 7.41 14.33 6.31 22.76a2.38 2.38 0 0 1-2.17 2.06l-8.91.7a.47.47 0 0 1-.51-.49q.85-13.38-9.29-21.67a.29.29 0 0 0-.44.36q4.51 8.59 2.75 19.86a.37.37 0 0 1-.71.07c-.57-1.61-.95-3.8-1.92-5.69q-5-9.68-13.37-16.2a1.9 1.89 21.5 0 1-.72-1.64c1.51-18.8 5.88-37.59 11.3-54.23 6.09-18.71 13.22-36.67 20.94-56.19 1.52-3.83 2.91-8.55 4.47-12.8M366.7 695.49q5.2 14.71 10.87 29.29c5.33 13.73 10.8 29.15 14.47 40.41q5.31 16.27 8.49 32.3 1.24 6.19 2.35 18.54a1.17 1.15-20.9 0 1-.47 1.04q-11.39 8.27-15.69 21.62a.34.34 0 0 1-.57.12q-.41-.46-.48-1.27-.79-9.77 2.81-18.36a.35.35 0 0 0-.55-.4q-10.14 8.73-8.79 21.53a.51.51 0 0 1-.55.57l-9.08-.79a2.8 2.72-23.5 0 1-1.4-.53q-1.02-.76-1.14-3.31c-.37-7.5 2.09-14.4 6.3-20.99a.34.34 0 0 0-.46-.48q-12.6 7.38-12.86 22.31a.42.42 0 0 1-.53.41q-4-1.07-6.84-3.36 1.73-9.33 4.4-13.41 8.41-12.83 23.28-17.49a.47.47 0 0 0 .16-.81l-.44-.35q7.75-.34 15.12 1.98a.25.25 0 0 0 .23-.43q-4.78-4.03-10.17-5.94.75-.95-1.27-2.96a2.7 2.68 10.3 0 1-.58-.83q-4.1-9.31-6.53-14.3-4.24-8.73-6.05-14.41-5.63-17.63-7.38-27.21-2-10.92-2.09-17.24-.15-9.8.82-13.94 1.35-5.82 2.26-10.39a.6.6 0 0 1 .61-.48q1.17.06 1.75-.44M534.2 749.05q.12 6.44-.16 14.72-.81 23.57-2.65 62.69a.56.55 85.3 0 1-.43.52q-20.06 4.76-40.16.13a1.2 1.2 0 0 1-.94-1.12l-3.05-76.7a.37.37 0 0 1 .6-.3q9.94 8.02 16.17 18.7 4.62 7.91 7 14.34a.54.53 45.5 0 0 1 .01q2.27-5.89 4.34-10.36 6.15-13.29 17.95-22.78a.2.2 0 0 1 .33.15"/><path fill="#f8da90" d="m379.98 802.08.44.35a.47.47 0 0 1-.16.81q-14.87 4.66-23.28 17.49-2.67 4.08-4.4 13.41c-5.2-3.3-3.22-10.12-.72-14.3q9.48-15.84 28.12-17.76M669.14 833.97q-1.39-7.58-3.67-11.7-5.53-10-16.51-15.32-2.12-1.03-6.2-2.32-3.03-.95-6.31-2.07 21.54-.76 32.87 16.64c2.72 4.17 4.62 11.01-.18 14.77M625.66 853.85q-.77.28-2.72-1.38-.83-8.53-5.1-14.83c-2.51-3.71-6.73-9.12-10.43-12.14q-5.91-4.83-13.41-8.09-2.58-1.13-6-1.1-5.56.04-11.03-.72 19.26-4.15 35.37 6.5 7.49 4.94 11.52 12.29c3.14 5.71 4.48 13.13 1.8 19.47M442.56 815.22q-4.53 1.39-6.16 1.22-6.07-.63-12.11 2.63-16.83 9.09-23.72 26.31-1.06 2.65-1.14 7.55l-3.91.76q-2.25-8.19.73-15.85c5.06-13.02 21.51-22.75 35-23.15q4.99-.15 11.31.53"/><path fill="#d98a34" d="M622.94 852.47q1.95 1.66 2.72 1.38c-2.4 5.69-9.19 9.37-14.79 11.04a.42.42 0 0 1-.54-.46l1.06-7.59zM399.43 852.93q5.33 2.69 10.65 3.09l1.01 8.62a.31.31 0 0 1-.4.33q-4.02-1.21-8.87-4.28-4.4-2.78-6.3-7zM447.17 856.88q-.23 5.49 1.27 10.3a.32.32 0 0 1-.27.41q-13.34 1.5-26.46-.3a2 1.99-3.8 0 1-1.65-1.44l-2.09-7.37q13.83 4.43 27.53.62 1.01-.28 1.67-2.22M603.52 858.45q-.17 1.41-1.47 5.89c-.57 1.95-1.04 2.83-3.2 3.1q-12.71 1.59-25.17.33a.62.62 0 0 1-.56-.72l1.35-8c8.89 2.08 20.47 2.91 29.05-.6"/></svg>