<svg xmlns="http://www.w3.org/2000/svg" viewBox="0 0 1024 1024"><g fill="none" stroke-width="2"><path stroke="#828180" d="M237.5 131.54c-18.02-11.25-39.63-2.87-45.51 17.48a1.37 1.36 3.6 0 1-1.12.98c-17.78 2.66-26.49 19.11-18.62 35.37a.66.66 0 0 1-.21.82c-15.27 10.97-14.51 31.5-1.43 43.7q5.59 5.21 15.73 7.26a.78.76-89.5 0 1 .61.63q2.5 14.65 13.69 22.18c11.82 7.96 26.43 7.31 37.78-1.05a.65.64-36 0 1 .91.14q5.65 7.93 14.69 11.88 19.07 8.33 36.77-1.44 7.91-4.36 12.51-11.51a1.07 1.07 0 0 1 1.34-.39q10.07 4.46 21.3 3.05 16.98-2.14 24.45-17.01 4.83-9.61 2.77-19.9a.63.63 0 0 1 .39-.71c11.25-4.38 19.86-15.11 20.37-27.31q.82-19.73-15.82-30.09c-2.15-1.34-5.61-2.45-7.37-3.34a.82.82 0 0 1-.44-.79c.78-11.34-4.34-21.58-13.95-27.83q-14.21-9.23-31.58-1.72a.63.63 0 0 1-.76-.2q-13.49-17.33-34.44-16.71c-11.44.33-21.86 5.44-29.21 13.93-.67.77-1.18 1.72-1.78 2.42a.83.82 36.1 0 1-1.07.16" vector-effect="non-scaling-stroke"/><path stroke="#faecc7" d="M659.29 523.08q-.39-2.39 5.22-3.4a2.68 2.57 42.6 0 1 .91-.02q2.75.42 5.28.02" vector-effect="non-scaling-stroke"/><path stroke="#828180" d="M670.7 519.68q.8.22 1.25.19a.36.36 0 0 0 .21-.63q-9.33-8.44-15.79-20.61-5.51-10.37-5.24-21.97a.63.63 0 0 1 .84-.58c14.19 5.03 27.97 5.25 41.18-1.67a.63.63 0 0 0 .22-.93q-11.68-16.32-11.91-36.22-.11-8.79.7-18.91a.07.07 0 0 1 .12-.04l7.11 8.81a.44.43-55.4 0 0 .75-.14q4.96-15.52 8.3-28.98c5.91-23.8 5.32-46.22-14.63-62.83q-10.74-8.93-20.7-14.04-39.85-20.42-67.86-39.13a.33.33 0 0 1 .17-.6l13.5-.53a.4.4 0 0 0 .28-.67q-12.94-13.62-30.85-16.29a.43.43 0 0 1-.19-.77q2.21-1.65 4.79-2.09a.78.78 0 0 0 .23-1.45c-19.78-10.4-44.55-4.27-62.89 7q-3.81 2.34-5.66 3.4a1.58 1.58 0 0 1-1.37.1c-22.28-8.81-46.24-12.43-70-9.3-46.77 6.18-88.3 34.81-109.48 77.18a1.37 1.36 9.2 0 1-1.03.74c-22.98 3.26-49.3 14.12-57.85 37.41a.39.38 89.1 0 0 .5.49q2.85-1.15 5.67-1.27a.37.37 0 0 1 .29.61q-12.53 14.14-13.88 34.03a.38.38 0 0 0 .61.32l10.75-8.68a.26.26 0 0 1 .41.28q-5.05 16.87-10.67 32.14-2.62 7.1-14.4 35.1-6.05 14.36-8.24 26.47c-3.71 20.5 4.79 37.73 20.41 50.8q16.43 13.74 34.16 24.47a.27.27 0 0 0 .41-.24l-.47-12.02a.14.13-70.5 0 1 .22-.11c13.97 12.71 25.67 28.79 26.2 48.39a.93.93 0 0 0 1.15.88q6.13-1.48 12.24-4.6a.39.39 0 0 1 .57.38q-1.76 22.67 8.51 42.3a.59.59 0 0 0 1.09-.12q1.92-7.27 5.5-14.8 1-2.1 2.22-3.51a.43.43 0 0 1 .74.36q-1.36 7.18-1.67 8.92-5.96 34.1 2.39 67.45a4.78 4.78 0 0 1-.26 3.09c-8.18 18.64-11.77 39.39-5.2 59.19 5.31 15.98 15.65 28.66 27.43 41.16a.28.28 0 0 1-.11.46c-10.71 3.49-20.18 11.3-23.18 22.71q-3.68 13.99 9.01 20.22 9.73 4.78 20.69 5.31 2.23.11 5.95.5a.6.59 5.8 0 1 .54.65c-.91 9.32 1.05 17.51 8.6 23.26q5.73 4.36 11.79 6.35c11.39 3.75 23.01 5.01 36.59 4.23q16.36-.95 29.17-5.78 14.01-5.29 18.39-18.65 1.72-5.25 1.27-16.82-.62-15.82-1.45-31.3-1.28-23.74-1.49-41.64a.3.3 0 0 1 .49-.23q11.35 9.81 17.36 23.76a.46.46 0 0 0 .84-.01q5.91-13.98 17.47-24.46a.31.3-24.2 0 1 .51.19q.11.99.05 2.89-1.28 42.01-2.37 66.55-.68 15.46.29 19.34c3.43 13.68 15.78 20.24 28.95 22.92 18.38 3.75 35.39 3.42 53.78-1.65 3.76-1.04 7.79-3.09 11.17-5.29q11.59-7.55 10.96-21.88-.09-1.97-.14-3.54a.57.57 0 0 1 .56-.58c11.21-.23 32.95-3.37 35.93-17.13 1.27-5.86-1.7-13.83-5.22-18.5q-6.32-8.37-18.35-12.99a.45.45 0 0 1-.17-.73c20.17-21.95 34.4-44.25 28.87-75.35q-2.44-13.7-8.03-25.68a1.6 1.6 0 0 1-.11-1.08q9.79-39.11.79-78.52a.53.52-66.2 0 1 .97-.38q5.09 9.04 7.65 18.33a.41.41 0 0 0 .75.09c7.42-13.67 10.14-30.22 8.74-45.55-1.23-13.48-6.31-28.46-12.62-42.57q-4.76-10.64-6.59-18.41a.77.77 0 0 1 .57-.93l9.64-2.26a.31.31 0 0 0 .03-.59q-10.47-3.59-20.83-9.79" vector-effect="non-scaling-stroke"/><path stroke="#7f6f4a" d="M670.7 519.68q-11.58-3.7-18.89-12.26c-8.3-9.71-10.58-21.59-9.31-34.73a.89.88 18.5 0 0-.43-.85l-2.29-1.37" vector-effect="non-scaling-stroke"/><path stroke="#70471c" d="m639.78 470.47-9.58-6.64a.44.44 0 0 0-.69.29q-2.58 15.62-10.7 29.18-6.08 10.16-18.84 22.81a.73.66 15.2 0 1-.37.19l-.52.08a.29.29 0 0 1-.29-.44q11.17-17.85 17.75-38.16 4.28-13.2 5.1-21.98a1.36 1.36 0 0 0-.26-.94c-7.76-10.37-12.54-17.68-16.24-27.25q-3.6-9.34-6.92-22.43c-5.19-20.48-6.79-29.42-12.66-45.27q-11.69-31.56-36.59-54.49" vector-effect="non-scaling-stroke"/><path stroke="#7a5928" d="M548.97 305.42q-6.76-5.7-1.91-2.75" vector-effect="non-scaling-stroke"/><path stroke="#70471c" d="M547.06 302.67q12.61 6.4 22.09 16.43 10.46 11.08 17.91 24.56c9.64 17.47 14.82 38.91 19.91 60.15 5.1 21.24 13.92 40.97 31.32 54.62q18.79 14.76 42.47 11.97a.42.42 0 0 0 .31-.64q-4.74-7.78-6.18-16.83-1.74-10.92-1.34-17.69 1.08-18.21 5.58-37.01a.23.23 0 0 1 .44-.04l6.68 15a.45.45 0 0 0 .85-.09l3-14.29" vector-effect="non-scaling-stroke"/><path stroke="#7f6f4a" d="M690.1 398.81q4.2-17.89 2.35-32.24c-2.57-19.89-22.06-32.28-38.17-40.37q-36.41-18.29-68.35-43.49a1.64 1.59-23.7 0 0-.89-.33q-7.07-.36-14.58 1.4" vector-effect="non-scaling-stroke"/><path stroke="#7a5928" d="M570.46 283.78q-.87.32-.95.22a1.04 1.03-34.4 0 1 .3-1.6q7.32-3.83 13.55-5.35" vector-effect="non-scaling-stroke"/><path stroke="#7f6f4a" d="m583.36 277.05 8.25-1.51a.19.19 0 0 0 .06-.36q-13.43-7.03-28.27-5.84a.38.38 0 0 1-.33-.62l5.12-6.36a.46.46 0 0 0-.33-.75c-16.67-.95-32.36 4.18-46.77 11.84a.63.63 0 0 0-.08 1.07l6.78 4.9" vector-effect="non-scaling-stroke"/><path stroke="#7a5928" d="M527.79 279.42q1.52 1.31 1.24 2.06" vector-effect="non-scaling-stroke"/><path stroke="#7f6f4a" d="M529.03 281.48q-17.55-5.91-28.6-8.64-16.7-4.13-35.93-4.63c-34.78-.91-69.01 12.84-94.81 35.66q-8.2 7.27-16.6 17.5c-9.8 11.94-15.89 21.92-24.16 36.43" vector-effect="non-scaling-stroke"/><path stroke="#7a5928" d="M328.93 357.8q-.85-.62-.13-2.76" vector-effect="non-scaling-stroke"/><path stroke="#7f6f4a" d="m328.8 355.04 2.02-9.13a.31.31 0 0 0-.38-.37c-16.11 4.02-31.44 10.33-42.68 21.81a.43.43 0 0 0 .23.72l8.01 1.4a.58.58 0 0 1 .25 1.04q-12.74 9.28-18.8 24.1a.17.17 0 0 0 .25.21l8.74-5.42" vector-effect="non-scaling-stroke"/><path stroke="#7a5928" d="M286.44 389.4q6.88-3.17 13.29-3.69a.4.4 0 0 1 .24.74l-5.96 3.54" vector-effect="non-scaling-stroke"/><path stroke="#7f6f4a" d="m294.01 389.99-6.57 4.92a1.2 1.2 0 0 0-.48.75c-4.27 21.02-10.36 42.43-18.66 62.49-8.57 20.7-22.29 46.77-8.35 67.67 6.76 10.13 15.84 18.56 25.59 25.72" vector-effect="non-scaling-stroke"/><path stroke="#70471c" d="m285.54 551.54 7.87 6.07a.24.24 0 0 0 .39-.23q-1.35-8.15-4.37-15.65a.31.31 0 0 1 .47-.36q3.4 2.64 10.45 7.78 6.06 4.42 15.91 14.37c8.38 8.46 16.15 20.4 17.53 32.54a.46.46 0 0 0 .67.35q8.33-4.37 14.07-12.1 15.83-21.31 12.9-48.34-1.86-17.2-9.54-32.36c-9.68-19.1-15.98-30.93-21.22-45.3q-6.65-18.25-7.26-38.07-.52-17.14 5.76-33.22" vector-effect="non-scaling-stroke"/><path stroke="#7a5928" d="M329.17 387.02q.42-1.79 1.3-3.26a.23.23 0 0 1 .43.14l-.65 8.03" vector-effect="non-scaling-stroke"/><path stroke="#70471c" d="M330.25 391.93q-1.68 7.37-1.33 14.32c.4 7.78.25 13.9 1.41 19.65q4.97 24.48 12.81 40.24 6.52 13.09 13.27 26.45 6.6 13.05 9.32 20.93 4.92 14.3 5.06 29.53a2.8 2.79-69 0 0 .89 2c16.2 14.96 35.67 24.67 56.1 32.15a.22.22 0 0 1-.08.43q-32.29-1.28-56.94-21.03a.26.25 25.7 0 0-.41.14q-2.56 10.92-6.74 20.78" vector-effect="non-scaling-stroke"/><path stroke="#7f6f4a" d="M363.61 577.52q-5.08 9.91-12.47 16.99a3.89 3.83 73.1 0 0-1.12 2.14q-2.28 14.25.48 28.57a.37.37 0 0 0 .67.13l5.98-9.33" vector-effect="non-scaling-stroke"/><path stroke="#7a5928" d="M357.15 616.02q4.36-5.41 10.33-9.64a.42.42 0 0 1 .66.4q-2.79 21.66 5.07 42.76c8.16 21.87 22.72 40.58 40.32 55.69q6.52 5.61 4.54.59" vector-effect="non-scaling-stroke"/><path stroke="#70471c" d="m418.07 705.82-.55-13.93a.13.13 0 0 1 .25-.05q11.43 27.97 35.35 45.28 10.57 7.65 22.4 14.36c9.55 5.42 16.42 9.7 22.94 14.58q9.75 7.31 16.84 18.88a.34.34 0 0 0 .58-.01q7.09-12.43 18.93-21.12 7.54-5.54 10.02-7.01c14.58-8.63 25.49-15.26 38.13-25.34q9.77-7.79 17.48-19.18c4.12-6.1 8.73-13.57 11.26-21.32q.13-.41.38-.64a.34.33 69.7 0 1 .56.26l-.47 14.29" vector-effect="non-scaling-stroke"/><path stroke="#7a5928" d="M612.17 704.87q-.3.97-.05 1.52a.5.5 0 0 0 .78.17c27.18-22.9 50.68-56.14 49.69-93.56q-.13-4.93-1.08-9.35a.35.35 0 0 1 .58-.34l10.32 9.12" vector-effect="non-scaling-stroke"/><path stroke="#7f6f4a" d="m672.41 612.43 6.61 10.49a.16.15 34.2 0 0 .28-.05q3.11-16.55.03-32.34c-1.5-7.72-5.58-19.17-8.54-26.08-5.56-12.95-9.75-20.41-10.4-32.23a1.4 1.4 0 0 0-.25-.69l-2.16-2.89" vector-effect="non-scaling-stroke"/><path stroke="#70471c" d="M657.98 528.64q-3.1-3.97-4.37-5.26-.94-.96-.25-1.65" vector-effect="non-scaling-stroke"/><path stroke="#7f6f4a" d="m653.36 521.73 5.93 1.35" vector-effect="non-scaling-stroke"/><path stroke="#e8b262" d="M639.78 470.47q-.26 10.01.37 15.54c.49 4.39 2.4 9.79 3.3 14.91q.13.76 1.11 4.82c1.24 5.18 3.92 9.44 5.95 14.22q.52 1.21 1.84 1.09.66-.06 1.01.68M657.98 528.64l-2.51.81a1.07 1-40.9 0 1-.75-.03l-3.83-1.67" vector-effect="non-scaling-stroke"/><path stroke="#e39c41" d="M650.89 527.75q-10.09-6.71-16.04-12.59-5.67-5.61-9.17-12.86a.55.54-39.1 0 0-.92-.09q-7.36 9.54-17.67 17.64c-8 6.29-15.32 10.84-22.49 17.26q-7.62 6.81-15.89 19.1c-8.25 12.26-17.19 26.05-26.46 39.7q-3.31 4.86-6.27 10.01a.53.53 0 0 1-.98-.32l1.22-11.02a.12.12 0 0 0-.21-.08q-4.89 7.02-6.77 9.73-8.23 11.94-13.21 24.75a.69.69 0 0 1-1.28 0q-7.4-19.03-21.19-33.11a.16.16 0 0 0-.27.16q1.46 4.91 2.52 10.48a.53.52 84 0 1-.5.63q-.4.01-.62-.33c-2.89-4.52-7.14-10.07-10.67-13.7q-9.35-9.58-22.51-10.04-5.98-.21-8.76.06c-17.54 1.7-34.1 2.64-51.15.07a.66.66 0 0 0-.75.55q-.89 5.9-.4 13.9.71 11.84 7.31 21.4a.28.27 27.8 0 0 .5-.15c-.01-5.94 2.6-11.1 5.75-15.8a.44.43 63.5 0 1 .79.27c-.65 13.55 1.44 27.58 7.24 40.3a.38.38 0 0 1-.59.45q-6.81-5.92-10.99-13.7a7.64 7.6 4.8 0 0-2.02-2.38c-6.58-5.08-10.98-11.71-13-20.29q-.99-4.25-.81-12.74.15-6.71 2.67-12.46a.31.31 0 0 0-.19-.42l-14.14-4.22a1.27 1.27 0 0 0-1.51.68l-1.53 3.31a1.34 1.04-19.2 0 1-.15.23c-3.57 4.32-7.25 9.71-11.95 12.46q-5.37 3.15-10.65 6.55" vector-effect="non-scaling-stroke"/><path stroke="#e8b262" d="M357.18 601.14q-.96.07-1.76.52a.46.46 0 0 1-.59-.68c3.34-4.16 4.92-9.51 6.66-15.53a3.09 3.02-21.7 0 1 .36-.81q2.09-3.44 1.76-7.12" vector-effect="non-scaling-stroke"/><path stroke="#70471c" d="M467.66 565.63c19.51 11.44 42.64 9.21 62.32-.27q13.19-6.36 22.89-18.48 4.71-5.88 7.39-12.37" vector-effect="non-scaling-stroke"/><path stroke="#f2c46f" d="M583.36 277.05q-5.52-1.63-11.2-2.67-4.46-.81-7.18-.78-1.12.01-8.13.5a.68.68 0 0 1-.69-.91q1.12-3.04 3.52-5.99a.67.67 0 0 0-.61-1.09q-13.96 1.94-25.16 10.04-1.56 1.13-6.12 3.27M570.46 283.78q-.27 1.86 2.79 1.17 2.98-.67 3.62-.65 3.21.12 5.4 2.18 3.68 3.46 12.4 10.58 6.04 4.93 15.35 11.21.66.44 16.13 11.04 9.36 6.42 27.46 14.63 8.37 3.8 18.85 12.3c3.73 3.02 8.82 9.37 10.09 12.95q1.58 4.48 4 10.5 1.57 3.88 1.98 12.07" vector-effect="non-scaling-stroke"/><path stroke="#e39c41" d="M688.53 381.76q-4.2-10.22-12.69-18.41a.71.71 0 0 0-1.2.63c.25 1.47.73 2.38.68 4.38q-.22 9.71-3.26 16.79-4.07 9.51-6.3 17.85a.35.35 0 0 1-.59.15q-.4-.4-.59-.96c-2.96-8.76-9.08-15.45-17-19.92a.31.31 0 0 0-.43.42q4.68 8.58 7.49 17.61 3.1 9.95 8.08 31.95 1.06 4.67 3.54 10.03 3.97 8.6 4 8.69 1.39 3.69 4.05 8.67a.52.52 0 0 1-.48.76q-1.21-.05-2.49-.46-9.22-2.96-15.2-6.56c-11.89-7.15-22.21-16.94-29.34-29.41q-7.68-13.42-10.59-23.43-5.41-18.58-8.99-29.27-5.78-17.25-14.97-32.71c-5.05-8.5-12.7-16.33-19.78-22.28q-4.54-3.82-7.14-6.36a4.38 4.2 81.2 0 0-.81-.62q-6.87-4.1-13.32-6.95-2.4-1.05-4.14.32" vector-effect="non-scaling-stroke"/><path stroke="#e39c41" d="M548.97 305.42q.37 2.75 2.25 4.89 6.91 7.82 11.96 15.99 3.9 6.29 7.35 15.16 3.68 9.46 6.36 15.66 1.01 2.32 2.11 6.87 4.56 18.74 8.16 35.64 3.86 18.13 12.09 41.17 4.12 11.53 4.79 15.27c3.02 16.69-1.83 34.76-12.24 47.81-6.9 8.64-16.24 17.09-25.96 23.59q-1.43.96-1.94 2.54-1.01 3.16-3.64 4.5" vector-effect="non-scaling-stroke"/><path stroke="#7a5928" d="M560.26 534.51q3.88-9.61 4.5-19.19a.31.31 0 0 0-.59-.15c-9.82 22.86-24.32 39.07-48.57 46.69-21.72 6.82-40.23 3.13-59.98-6.37a.25.25 0 0 0-.36.25q.02.2.31.49 5.47 5.44 12.09 9.4" vector-effect="non-scaling-stroke"/><path stroke="#e39c41" d="M467.66 565.63q.03.85-.17 1.13a.87.87 0 0 1-1.32.12q-2.12-2.07-5.18-1.76c-17.93 1.81-34.84.45-51.47-7.41-11.57-5.47-20.48-16.03-26.68-27.34q-1.75-3.19-6.57-16.54-2.81-7.79-6.98-16.37-10.55-21.71-20.81-38.68c-1.29-2.13-3.78-7.22-4.68-10.22q-1.66-5.56-4.89-13.54-2.46-6.1-4.12-13.74-3.1-14.26-4.54-29.35" vector-effect="non-scaling-stroke"/><path stroke="#e39c41" d="M329.17 387.02q-1.76.19-2.13.86c-9.29 16.67-11.1 35.84-8.07 54.62 3.43 21.26 11.21 36.54 21.1 59.91q7.33 17.3 7.79 36.33c.33 13.41-2.71 25.59-8.35 37.02q-1.97 3.98-5.83 8.41a.59.59 0 0 1-1.03-.38q-.05-3.29-1.7-7.28a4.9 4.84 29.4 0 1-.29-1.01q-1.66-9.95-4.45-15.93-6.53-14-13.71-28.31c-1.49-2.97-3.51-7.33-4.54-11.21q-1.9-7.18-2.92-11.73a.45.45 0 0 0-.86-.05q-4.86 13.84.7 27.49a.77.77 0 0 1-1.12.95q-5.61-3.48-11.19-7.38c-3.96-2.77-6.86-4.26-10.78-6.6q-4.71-2.82-9.05-9.41-.73-1.12-1.32-1.55a1.23 1.23 0 0 0-1.93.73q-1.31 6.2.36 13.5.56 2.43.92 4.96" vector-effect="non-scaling-stroke"/><path stroke="#f2c46f" d="M270.77 530.96c-9.66-10.19-11.79-32.13-6.28-44.49 10.25-22.99 18.27-42.84 22.71-64.85q2.83-14.01 4.37-20.5.37-1.57.63-3.79.42-3.54 2.7-6.38a.53.52-49.5 0 0-.05-.72q-.34-.32-.84-.24M286.44 389.4q3.26-7.82 9.14-13.3c2.39-2.22 5.74-4.17 8.59-6.08a.65.65 0 0 0-.18-1.16l-7.71-2.3a.84.84 0 0 1-.13-1.55q9.13-4.47 19.04-7.31 5.59-1.61 13.61-2.66M328.93 357.8l-1.36 4.87a.22.22 0 0 0 .15.26l.48.14a.42.42 0 0 0 .49-.19q5.24-9.43 12.88-18.3c4.05-4.69 9.69-13.07 14.94-18.47q12.82-13.19 29.01-25.35c8.23-6.19 17.32-10.43 27.14-14.8 20.34-9.04 41.45-11.24 63.52-10.63 10.5.29 25.06 3.15 33.2 4.26q5.25.72 11.64 2.32 5.41 1.36 11.57 2.71a.43.43 0 0 0 .52-.45q-.01-.17-.39-.37-2.03-1.03-3.69-2.32M650.89 527.75q4.12 6.9 5.79 13.34c1.28 4.94 2.62 7.99 3.56 11.91 1.75 7.28 5.36 15.13 7.61 21.85q3.31 9.9 3.6 13.92.51 6.93 1.52 14.22.67 4.93-.56 9.44" vector-effect="non-scaling-stroke"/><path stroke="#e39c41" d="M612.17 704.87q1.31-1.57 3.02-2.56a2.21 2.06.1 0 0 .7-.65c3.17-4.64 4.51-9.43 6.45-14.83q6.35-17.66 5.13-37.09c-.35-5.49-1.83-11.19-3.63-16.67a.44.44 0 0 0-.84.03q-3.01 12.47-9.2 24.1c-4.73 8.89-11.6 19.73-18.94 27.16q-7.33 7.42-11.47 11.8c-2.86 3.03-6.54 5.71-9.53 8.77a.46.45 29.1 0 1-.43.12q-.72-.18-.56-1.51" vector-effect="non-scaling-stroke"/><path stroke="#7a5928" d="M572.87 703.54c7.8-13.03 11.88-25.33 10.18-41.05q-.06-.54-.35-.78a.2.2 0 0 0-.32.11q-3.53 17.05-11.65 32.11-6.32 11.73-19.41 22.34a.26.26 0 0 1-.4-.29q3.04-8.06 3.09-16.15a.25.24-32.7 0 0-.47-.1c-4.6 10.03-10.92 18.92-18.31 28.24q-4.97 6.27-8.22 14.43" vector-effect="non-scaling-stroke"/><path stroke="#e39c41" d="m527.01 742.4-2.66 2.72a8.61 8.55-7.4 0 0-1.17 1.51q-4.3 7.1-7.15 15.47a.53.53 0 0 1-1.02-.05q-.82-3.6-3.16-7.21-4.08-6.3-8.01-12.11" vector-effect="non-scaling-stroke"/><path stroke="#7a5928" d="M503.84 742.73c-3.34-8.76-9.07-15.05-16.3-24.4q-6.81-8.79-10.76-18.39a.25.24-56.7 0 0-.47.1q.06 9.24 3.98 17.62a.23.23 0 0 1-.34.28q-14.76-10.88-22.93-26.96-3.66-7.2-7.61-19.28c-.86-2.63-1.17-5.39-2-8.31a.37.37 0 0 0-.73.05q-2.15 17.05 6.27 32.74 2.38 4.44 5.18 10.2" vector-effect="non-scaling-stroke"/><path stroke="#e39c41" d="M458.13 706.38q-13.5-8.92-24.42-20.85-4.11-4.5-7.45-9.53c-8.42-12.68-15.87-26.18-19.18-41.08a.46.46 0 0 0-.88-.05c-4.28 12.02-4.4 23.37-2.63 36.04q2.26 16.23 10.46 31.07.83 1.51 4.04 3.84" vector-effect="non-scaling-stroke"/><path stroke="#f2c46f" d="M357.15 616.02q-1.06-7.62.03-14.88" vector-effect="non-scaling-stroke"/><path stroke="#70471c" d="M458.13 706.38q7.34 9.38 17.97 16.79 3.6 2.5 15.27 9.2 5.02 2.88 12.47 10.36M527.01 742.4q7.74-7.43 11.52-9.88 7.87-5.12 15.62-10.41 11.12-7.6 18.72-18.57" vector-effect="non-scaling-stroke"/><path stroke="#e8b262" d="M690.1 398.81q-1.39-.08-1.22-1.31 1.16-8.4-.35-15.74M285.54 551.54q.42-.02.5-.08a1 .99 51 0 0 .16-1.55q-4.77-4.71-9.76-9.37-2.78-2.59-5.67-9.58" vector-effect="non-scaling-stroke"/><path stroke="#828180" d="M297.657 279.328a16.26 15.88-178.3 0 0 15.782 16.355 16.26 15.88-178.3 0 0 16.724-15.39 16.26 15.88-178.3 0 0-15.782-16.356 16.26 15.88-178.3 0 0-16.724 15.39M345.34 299.423a10.53 10.33-7.9 0 0-11.85-8.785 10.53 10.33-7.9 0 0-9.01 11.68 10.53 10.33-7.9 0 0 11.85 8.784 10.53 10.33-7.9 0 0 9.01-11.68M180.26 188.16c-10.59 5.67-15.42 19.12-9.5 30.14q5.28 9.83 16.91 12.39c1.53.34 3.41.27 4.84.82a.86.85-80.9 0 1 .54.75q.57 11.9 9.26 19.41c11.07 9.58 26.69 7.61 37.07-1.63a.66.66 0 0 1 .97.12q12.24 17.53 32.26 16.66c12.33-.53 22.36-6.89 28.93-17.08a1.09 1.08 30.4 0 1 1.43-.37c16.47 8.73 37.56 4.51 43.35-14.94q.99-3.31.16-11.43c-.09-.85-.78-2.19-.82-2.93a.79.79 0 0 1 .58-.81q1.47-.38 5.68-2.6 8.74-4.59 12.39-13.34c6.82-16.35-3.71-31.97-19.96-36.75a.82.82 0 0 1-.58-.91q.55-3.53-.16-8.07c-3.11-19.87-23.46-26.36-40.01-17.95a1.19 1.18 58.5 0 1-1.5-.37c-8.37-11.55-20.39-17.19-34.58-16q-16.65 1.41-27.13 16.24a.8.8 0 0 1-1.1.2c-8.02-5.46-17.28-8.12-26.65-4.13q-12.66 5.38-15.51 19.12a.78.76-86.3 0 1-.68.61q-10.61.96-16.19 7.78c-5.95 7.28-5.12 17.15.14 24.44a.43.43 0 0 1-.14.63" vector-effect="non-scaling-stroke"/><path stroke="#70471c" d="M662.77 655.97q-16.22 35.77-47.68 59.08-4.61 3.41-9.27 5.29a4.58 4.57 7.9 0 0-1.88 1.42q-12.73 16.3-30.72 27.74-13.03 8.29-25.87 16.16-1.04.63-4.14 2.64a.97.97 0 0 0-.45.8q-.16 27.53-1.45 60.17-.92 23.38-1 28.26c-.25 15.54 11.84 19.5 24.53 22.05a.72.71 13.1 0 0 .84-.52l1.8-7.07" vector-effect="non-scaling-stroke"/><path stroke="#7a5928" d="M567.48 871.99q1.09-11.99-3.88-22.91a.35.34-13.9 0 1 .3-.48q.38-.01.7.3 10 9.54 10.41 22.78" vector-effect="non-scaling-stroke"/><path stroke="#70471c" d="M575.01 871.68q-.07 4.68-1.35 8.27a.82.82 0 0 0 .71 1.09q12.76 1.15 26.12-.71a1.94 1.93 8.3 0 0 1.48-1.1q2.45-5.38 2.53-10.09" vector-effect="non-scaling-stroke"/><path stroke="#7a5928" d="M604.5 869.14c0-9.73-2.92-16.53-6.96-24.6a.24.23 86.7 0 1 .29-.33q2.23.86 4.27 2.93 8.95 9.08 9.9 21.33" vector-effect="non-scaling-stroke"/><path stroke="#70471c" d="m612 868.47-.88 8.58a.47.47 0 0 0 .59.5q7.42-1.96 12.36-6.42" vector-effect="non-scaling-stroke"/><path stroke="#7f6f4a" d="M624.07 871.13c7.93-10.48 3.22-22.92-5.38-30.83q-17.07-15.7-41.47-10.8" vector-effect="non-scaling-stroke"/><path stroke="#7a5928" d="m577.22 829.5-7.92 1.84a.35.35 0 0 1-.39-.49q.16-.32.6-.62 16.16-11.45 35.23-6.29" vector-effect="non-scaling-stroke"/><path stroke="#7f6f4a" d="m604.74 823.94 5.48 1.59a.52.52 0 0 0 .64-.37q2.71-11.33 7.07-22.22c8.62-21.5 21.37-45.57 29.25-62.24 11.39-24.08 19.38-48.71 19.55-74.95q.07-10.67-.18-14.78-.09-1.52-.41-2.88a.28.28 0 0 0-.53-.03l-2.84 7.91" vector-effect="non-scaling-stroke"/><path stroke="#f2c46f" d="M604.74 823.94q.99-2.68 2.13-5.25 1.52-3.4 2.01-5.29c1.87-7.16 4.24-14.8 7.22-20.99q3.69-7.66 5.95-13.03 4.26-10.13 9.18-19.95 6.34-12.68 9.22-19.89 3.2-8.02 9.94-25.15 3.37-8.57 4.36-12.65 4.17-17.23 5.55-23.32a5.22 5.12-38.8 0 0 .12-1.01l.18-7.95" vector-effect="non-scaling-stroke"/><path stroke="#e8b262" d="M660.6 669.46q2.03-6.59 2.17-13.49" vector-effect="non-scaling-stroke"/><path stroke="#e39c41" d="M660.6 669.46q-3.57 5.73-5.13 9.52-5.26 12.81-7.62 17.37-3.83 7.39-17.57 27.42-3.67 5.34-11.2 13.06-15.11 15.49-21.02 20.72c-9.63 8.53-19.71 15.11-32.33 23.66-9.73 6.59-15.71 17.97-17.13 29.56-1.52 12.33-1.14 25.32-1.54 36.22-.2 5.23 1.9 14.45 6.46 18.66q2.39 2.2 3.59 2.57 5.22 1.6 10.37 3.77" vector-effect="non-scaling-stroke"/><path stroke="#f2c46f" d="m577.22 829.5 16.43 1.58a2.85 2.71 59.6 0 1 .94.27q8.03 3.93 9.92 5.4 9.68 7.59 15.57 18.16c2.37 4.24 2.21 7.38 3.66 11.28" vector-effect="non-scaling-stroke"/><path stroke="#e39c41" d="M623.74 866.19c-3.94.91-7.63 2.99-11.74 2.28M604.5 869.14q-7.37 5.2-18.5 4.07-6.83-.69-10.99-1.53" vector-effect="non-scaling-stroke"/><path stroke="#e8b262" d="m624.07 871.13-.33-4.94" vector-effect="non-scaling-stroke"/><path stroke="#7a5928" d="M441.7 823.55q10.78 1.5 19.53 7.81a.32.32 0 0 1-.25.57c-5.31-1.05-9.23-2.22-15.6-2.34" vector-effect="non-scaling-stroke"/><path stroke="#7f6f4a" d="M445.38 829.59q-18.34-1.01-31.56 10.58c-6.21 5.44-9.99 11.74-10.65 19.82q-.52 6.25 3.01 11.31" vector-effect="non-scaling-stroke"/><path stroke="#70471c" d="M406.18 871.3c3.25 3.99 8.81 6.34 13.71 7.64a.23.23 0 0 0 .28-.25l-1.08-8.59" vector-effect="non-scaling-stroke"/><path stroke="#7a5928" d="M419.09 870.1c0-10.02 5.69-19.58 13.98-25.26a.54.54 0 0 1 .77.73q-7.86 12.72-7.01 26.51" vector-effect="non-scaling-stroke"/><path stroke="#70471c" d="m426.83 872.08 2.33 8.04a1.9 1.9 0 0 0 1.6 1.36q13.07 1.66 26.24.39a.57.57 0 0 0 .51-.67l-1.52-8.55" vector-effect="non-scaling-stroke"/><path stroke="#7a5928" d="M455.99 872.65q.39-13.65 10.69-23.27a.34.34 0 0 1 .54.38q-4.59 10.84-3.57 22.76" vector-effect="non-scaling-stroke"/><path stroke="#70471c" d="m463.65 872.52 1.6 6.83a.98.98 0 0 0 1.11.74c12.71-2.15 25.85-7.6 25.01-23.1q-.56-10.25-2.69-71.24-.14-4.22.05-15.52a1.08 1.07-69.8 0 0-.39-.85q-1.86-1.56-3.17-2.32-12.55-7.27-27.2-16.25-18.62-11.42-30.77-26.86a6.64 6.58 85 0 0-2.03-1.72q-1.14-.64-4.75-2.39-3.94-1.9-8.71-5.57-21.75-16.7-35.74-39.19c-2.5-4.03-4.62-8.52-6.87-12.87" vector-effect="non-scaling-stroke"/><path stroke="#7f6f4a" d="m369.1 662.21-4.72-12.04a.33.33 0 0 0-.64.09q-2.81 31.63 7.06 61.71c11.21 34.17 31.7 64.41 44.9 99.11 1.91 5.02 3.09 10.03 4.23 14.99a.91.91 0 0 0 1.21.65q9.82-3.77 20.56-3.17" vector-effect="non-scaling-stroke"/><path stroke="#e8b262" d="M369.1 662.21q-.93 1.5-.62 3.86.41 3 .9 5.94" vector-effect="non-scaling-stroke"/><path stroke="#f2c46f" d="M369.38 672.01q-.26 5.88.2 7.68c3.03 11.76 4.51 22.54 8.74 32.99q4.74 11.7 8.45 21.68c1.65 4.47 3.46 7.87 5.07 11.75q1.6 3.85 4.09 8.69 6.44 12.51 6.66 12.93c3.45 6.64 5.65 13.13 8.54 18.72q3.91 7.54 6.22 14.03 3.88 10.94 7.7 22.06a.82.82 0 0 0 .99.52q7.96-2.21 15.66.49" vector-effect="non-scaling-stroke"/><path stroke="#e39c41" d="M463.65 872.52c5.53-2.04 11.26-3.29 15.28-7.79q2.21-2.47 4.4-8.64c1.23-3.44.85-10.28.73-13.59q-.82-24.24-.82-24.47-.3-9.76-4.01-18.77-5.07-12.3-16.92-19.29-2.88-1.7-16.19-10.38-8.08-5.27-15.28-11.85-16.47-15.04-24.36-24.24-13.08-15.25-23.49-33.96-1.86-3.34-4.72-10.49-3.62-9.04-8.89-17.04M455.99 872.65c-4.32.69-8.99 1.73-13 1.83q-8.1.2-16.16-2.4M419.09 870.1l-11.04-2.78" vector-effect="non-scaling-stroke"/><path stroke="#f2c46f" d="M408.05 867.32c.56-9.91 5.49-16.23 11.63-23.37 6.62-7.68 15.84-13.59 26.63-12.79a.53.53 0 0 0 .43-.89q-.38-.41-1.36-.68" vector-effect="non-scaling-stroke"/><path stroke="#e8b262" d="M408.05 867.32q-.41 1.41-.48 3-.03.72-.38.89-.37.19-1.01.09" vector-effect="non-scaling-stroke"/><path stroke="#70471c" d="M662.45 727.21c-5.19 12.37-10.54 25.09-16.61 36.61q-10.04 19.07-18.44 38.8-5.54 13.01-8.35 25.72a1.8 1.79 25.3 0 0 .65 1.81q8.45 6.62 14.21 16.24a1.04 1.04 0 0 0 1 .5l10.33-1.02a1.52 1.52 0 0 0 1.36-1.42q.69-11.4-6.01-20.97a.33.32 84.6 0 1 .4-.49q12.27 5.76 13.15 20.08a.51.51 0 0 0 .62.46q3.83-.87 7-3.16" vector-effect="non-scaling-stroke"/><path stroke="#7f6f4a" d="M661.76 840.37q4.59-3.13 3.3-8.4c-1.57-6.4-6.41-11.63-11.8-15.42q-6.07-4.27-13.63-4.93" vector-effect="non-scaling-stroke"/><path stroke="#70471c" d="M639.63 811.62q-6.42-.51-12.22.77a.4.4 0 0 1-.37-.68q5.45-5.21 13.59-6.31" vector-effect="non-scaling-stroke"/><path stroke="#7f6f4a" d="M640.63 805.4q11.67-14.27 16.57-21.7c8.24-12.51 14.09-25.51 13.83-40.7q-.22-13.3-4.53-25.58a.32.32 0 0 0-.6 0l-3.45 9.79" vector-effect="non-scaling-stroke"/><path stroke="#e8b262" d="M640.63 805.4q-1.1-.01-1.11-.14a1.74 1.73-32.2 0 1 .26-1.13c2.5-3.84 5.91-8.25 8.25-13.05q1.1-2.24 6.22-11.32c8.84-15.69 11.12-34.74 8.2-52.55M639.63 811.62q-.61.27-.72.47a.36.36 0 0 0 .18.5c6.05 2.53 12.23 7.15 16.23 11.71q5.81 6.64 6.44 16.07" vector-effect="non-scaling-stroke"/><path stroke="#70471c" d="M391.99 807.03q6.18 1.61 11.7 6.37a.31.31 0 0 1-.23.54l-10.35-1.06" vector-effect="non-scaling-stroke"/><path stroke="#7f6f4a" d="M393.11 812.88q-17.9 1.65-25.78 17.16c-2.14 4.21-2.47 9.69 2.24 12.52" vector-effect="non-scaling-stroke"/><path stroke="#70471c" d="M369.57 842.56q2.57 1.84 6.75 2.75a.46.46 0 0 0 .56-.41c.76-9.45 4.14-16.25 12.48-20.46a.42.42 0 0 1 .54.6q-5.21 8.48-5.54 17.92c-.09 2.57-.64 4.39 2.44 4.75q6.26.74 9.58.49a.96.96 0 0 0 .77-.5q5.51-10.03 14.26-16.65a1.59 1.58-25.3 0 0 .58-1.6c-3.84-17.26-10.83-31.52-19.74-49.43-5.62-11.31-12.16-23.07-17.76-35.74q-3.21-7.25-6.65-14.82" vector-effect="non-scaling-stroke"/><path stroke="#7f6f4a" d="m367.84 729.46-3.55-9.73a.28.27-77 0 0-.07-.12q-.51-.49-.79.34-4.18 12.68-4.05 26.33c.13 13.63 5.34 25.96 12.91 37.18q7.75 11.47 17.32 22.93.51.61 2.38.64" vector-effect="non-scaling-stroke"/><path stroke="#e8b262" d="M367.84 729.46q-2.83 17.5 1.18 34.31 1.78 7.43 6.03 15.43 8.16 15.34 16.94 27.83M369.57 842.56q.79-10.27 6.31-16.67 4.59-5.34 10.21-9.05 3.44-2.27 7.58-2.22a.45.45 0 0 0 .42-.62q-.17-.45-.98-1.12" vector-effect="non-scaling-stroke"/><path stroke="#828180" d="M324.238 278.095a10.33 10.04-9.5 0 0-11.845-8.197 10.33 10.04-9.5 0 0-8.531 11.607 10.33 10.04-9.5 0 0 11.845 8.197 10.33 10.04-9.5 0 0 8.531-11.607" vector-effect="non-scaling-stroke"/><path stroke="#7a5928" d="M526.89 306.87q-6.86-8.13-16.5-11.31c-17.4-5.75-33.64 3.62-36.87 21.66a.28.28 0 0 0 .48.24c13.8-14.92 34.06-17.46 52.53-10.09a.32.32 0 0 0 .36-.5M513.96 407.82q5.08 3.99 12.3 4.49c14.27.99 26.82-7.15 31.67-20.85q2.44-6.88 2.55-11.79" vector-effect="non-scaling-stroke"/><path stroke="#e39c41" d="M560.48 379.67c2.92-4.98 3.25-9.7 3-15.42-.36-8.13-1.48-14.92-6.2-21.53q-3.4-4.74-5.54-6.94-13.06-13.41-30.96-13.38c-10.13.02-19.49 3.42-26.31 10.49-12.56 13.03-12.69 32.25-5 47.68q4.22 8.48 11.02 17.29a3.65 3.6 13.7 0 1 .48.78q4.32 9.12 12.99 9.18" vector-effect="non-scaling-stroke"/><path stroke="#70471c" d="M560.48 379.67q.51-16.57-10.49-27.37c-10.06-9.87-26.63-14.1-39.15-6.86-13.4 7.75-16.39 22.53-12.15 36.63q4.27 14.23 15.27 25.75" vector-effect="non-scaling-stroke"/><path stroke="#7a5928" d="M344.97 377.68a.31.31 0 0 0 .6.12c8.27-17.82 24.55-29.73 44.58-28.37a.28.28 0 0 0 .19-.5c-14.56-10.77-32.58-6.49-41.18 9.44q-4.77 8.82-4.19 19.31M372.69 456.22q9.2 5.4 17.61 7.18 12.75 2.68 23.22-5.33 7.7-5.89 10.14-14.71" vector-effect="non-scaling-stroke"/><path stroke="#e39c41" d="M423.66 443.36q.38-1.41 1.61-1.38a.76.75-76.7 0 0 .7-.44q1.04-2.25 1.14-2.91.19-1.35.4-9.24.12-4.28-.97-9.23-2.57-11.7-3.05-13.16-2.11-6.39-5.01-11.8c-5.96-11.08-18.42-20.29-31.04-20.88-10.8-.51-23.94 4.43-30.44 13.42-8.63 11.93-12.28 24.89-8.22 39.73q.64 2.32 3.52 7.99 8.01 15.72 20.39 20.76" vector-effect="non-scaling-stroke"/><path stroke="#70471c" d="M423.66 443.36q.67-13.69-5.38-27.88c-4.71-11.05-13.61-19.87-25.74-21.07-9.42-.93-18.95 3.06-25.08 10.56q-9.32 11.41-7.3 27.26 1.8 14.12 12.53 23.99" vector-effect="non-scaling-stroke"/><path stroke="#7a5928" d="M513.01 415.25q8.81 4.12 17.01 10.33a.26.26 0 0 0 .38-.35c-3.47-5.59-9.25-11.34-15.4-14.22s-14.28-3.63-20.79-2.72a.26.26 0 0 0-.03.52q10.03 2.33 18.83 6.44M481.66 550.47q.61-.37 1.42-1.64 2.65-4.09 5.88-10.32a.48.48 0 0 1 .59-.22q8.82 3.35 15.59 2.06 16.88-3.22 24.94-18.21a.75.74-64.6 0 1 .94-.34q6.36 2.59 12.79 3.48a.44.44 0 0 0 .35-.77c-4.05-3.47-8.5-7.05-13.46-9.99q-14.18-8.39-28.04-13.44a2.14 2.13 87.9 0 1-1.23-1.15l-4.98-11.17a.91.9-28.6 0 1 .33-1.11c10.82-7.23 18.38-19.64 21.17-31.81 3.07-13.42.3-26.85-14.97-29.42q-5.24-.88-8.73-.49-22.7 2.55-41.98 15.86c-11.41 7.88-17.65 20.26-7.99 32.61 9.99 12.77 28.72 18.45 44.53 16.87a.64.63 74.8 0 1 .65.38l5.12 11.47a2.53 2.52-44.3 0 1-.03 2.09q-10.35 21.58-13.59 44.8a.46.46 0 0 0 .7.46M425.1 445.74q-4.15 9.9-2.58 21.56a.29.29 0 0 0 .42.22q.18-.09.25-.4 2.03-9.99 6.07-19.64 4.05-9.65 9.75-18.1.17-.26.11-.45a.29.29 0 0 0-.45-.15q-9.42 7.06-13.57 16.96" vector-effect="non-scaling-stroke"/><path stroke="#828180" d="M340.25 300.9a5.14 5.14 0 0 0-5.14-5.14 5.14 5.14 0 0 0-5.14 5.14 5.14 5.14 0 0 0 5.14 5.14 5.14 5.14 0 0 0 5.14-5.14" vector-effect="non-scaling-stroke"/><path stroke="#3b210e" d="M502.89 364.18q-1.51 1.95-1.27 4.63a.44.44 0 0 0 .75.27c10.78-10.95 28.52-8.05 34.9 5.94 5.14 11.3 2.33 23.15-8.81 29.69q-4.45 2.6-8.95 3.22" vector-effect="non-scaling-stroke"/><path stroke="#828180" d="M519.51 407.93q-1.13.08.04.67.59.3 1.33.43 18.4 3.35 29.87-10.79c7.27-8.97 6.52-21.02 1.15-30.67-6.22-11.15-17.04-18.28-29.66-17.38q-13.71.99-19.35 13.99" vector-effect="non-scaling-stroke"/><path stroke="#b69d8b" d="M519.51 407.93c15.94 2.5 27.95-11.75 26.52-26.69-1.44-14.98-16.32-27.21-31.47-23.57q-6.43 1.54-11.67 6.51" vector-effect="non-scaling-stroke"/><path stroke="#828180" d="M521.07 374.58a7.33 7.33 0 0 0-7.33-7.33 7.33 7.33 0 0 0-7.33 7.33 7.33 7.33 0 0 0 7.33 7.33 7.33 7.33 0 0 0 7.33-7.33M537.55 385.39a3.5 3.5 0 0 0-3.5-3.5 3.5 3.5 0 0 0-3.5 3.5 3.5 3.5 0 0 0 3.5 3.5 3.5 3.5 0 0 0 3.5-3.5" vector-effect="non-scaling-stroke"/><path stroke="#3b210e" d="M417.37 449.01q-7.51 1.21-9.89 1.45c-7.56.77-14.46-2.5-19.14-8.55q-6.69-8.68-4.24-20.9c1.24-6.15 9.57-13.05 15.61-14.11q1.68-.29 6.56-.58a.35.35 0 0 0 .23-.6q-1.93-1.91-4.67-2.71" vector-effect="non-scaling-stroke"/><path stroke="#828180" d="M401.83 403.01q-12.13-4.87-21.5 1.8-11.72 8.34-12.89 23.63c-.58 7.54 2.3 16.14 6.57 21.81q8.99 11.95 23.41 10.7c7.95-.69 18.9-6.07 21.95-14.07v-.01q-.06.07-.12.13-1.29 1.46-1.88 2.01" vector-effect="non-scaling-stroke"/><path stroke="#b69d8b" d="M401.83 403.01q-11.51.44-18.31 8.01c-14.03 15.6-4.47 41.95 16.4 44.19q9.28 1 17.45-6.2" vector-effect="non-scaling-stroke"/><path stroke="#828180" d="M408.54 417.9a7.34 7.34 0 0 0-7.34-7.34 7.34 7.34 0 0 0-7.34 7.34 7.34 7.34 0 0 0 7.34 7.34 7.34 7.34 0 0 0 7.34-7.34M397.53 439.35a3.52 3.52 0 0 0-3.52-3.52 3.52 3.52 0 0 0-3.52 3.52 3.52 3.52 0 0 0 3.52 3.52 3.52 3.52 0 0 0 3.52-3.52M473.87 440.04c-5.9 2.38-17.77 7.81-20.78 13.7a1.12 1.11 19.7 0 0 .76 1.6q2.1.45 4.68-.06 7.61-1.52 19.01-6.12 11.4-4.59 17.95-8.78 2.21-1.42 3.41-3.2a1.12 1.11-63.7 0 0-.56-1.67c-6.25-2.16-18.57 2.15-24.47 4.53" vector-effect="non-scaling-stroke"/><path stroke="#733332" d="M505.11 519.08q-8.22 3.46-11.21 12.97a.72.72 0 0 0 .61.93q8.1.95 15.54-2.18t12.42-9.59a.72.72 0 0 0-.25-1.09q-8.88-4.5-17.11-1.04" vector-effect="non-scaling-stroke"/><path stroke="#e39c41" d="M621.92 617.21q-.22-6.58-2.66-10.97c-.96-1.72-2.25-3.35-3.21-5.21a.4.4 0 0 0-.75.21q.78 10.25-1.25 21.86c-1.23 7.11-3.52 12.95-6.46 19.12a.58.57 81.2 0 0 .91.67q1.96-1.85 4.35-4.28c2.78-2.84 4.62-6.66 7.3-10.66a4.77 4.69 89.5 0 1 1.21-1.25q8.34-6.01 11.03-13.58 8.02-22.54-4.4-42.43a.37.37 0 0 0-.68.28q2.87 12.06 2.3 24.5-.54 11.85-6.94 21.95a.41.41 0 0 1-.75-.21" vector-effect="non-scaling-stroke"/><path stroke="#f2c46f" d="M582.38 604.85q2.35 21.91-9.08 39.99a.33.33 0 0 1-.6-.1L569.95 633a.42.41 38.6 0 0-.82.09q.01 11.21-4.66 23.05c-2.5 6.33-7.81 11.8-12.38 16.25a.42.42 0 0 1-.7-.39q2.77-12.94.65-26.24-.22-1.39-1.04-2.7a.19.18-61 0 0-.34.1q.19 22.02-10.45 42.25a.35.35 0 0 0 .45.49q7.55-3.14 14.35-8.1c6.44-4.68 10.99-12.87 14.5-20.02q.95-1.93 3.34-3.99 1.84-1.59 3.45-3.88 12.25-17.43 8.55-39.03-.48-2.79-1.9-6.17a.3.29 30.8 0 0-.57.14M446.66 606.16c-1.3 2.36-1.62 5.56-2.21 9.52-2.04 13.79 2.81 27.36 11.03 38.37a2.9 2.5 87.9 0 0 .4.43l3.5 3.06a2.7 2.7 0 0 1 .55.67q2.6 4.51 6.86 11.49 3.05 4.99 7.08 7.96 7.38 5.45 16.52 8.71a.29.29 0 0 0 .35-.43q-11.28-19.11-11.12-42.51a.38.38 0 0 0-.75-.1q-3.97 14.99.97 30.45a.43.42-79.2 0 1-.67.46c-6.54-5.5-11.3-10.61-14.36-19.23q-3.93-11.07-3.95-21.19a.35.35 0 0 0-.69-.08l-3 12.35a.31.3-67.1 0 1-.46.19q-.3-.19-.6-.64c-7.71-11.65-10.14-25.57-8.88-39.3a.31.3 62.2 0 0-.57-.18" vector-effect="non-scaling-stroke"/></g><path fill="#fdfdfd" d="M237.5 131.54c-18.02-11.25-39.63-2.87-45.51 17.48a1.37 1.36 3.6 0 1-1.12.98c-17.78 2.66-26.49 19.11-18.62 35.37a.66.66 0 0 1-.21.82c-15.27 10.97-14.51 31.5-1.43 43.7q5.59 5.21 15.73 7.26a.78.76-89.5 0 1 .61.63q2.5 14.65 13.69 22.18c11.82 7.96 26.43 7.31 37.78-1.05a.65.64-36 0 1 .91.14q5.65 7.93 14.69 11.88 19.07 8.33 36.77-1.44 7.91-4.36 12.51-11.51a1.07 1.07 0 0 1 1.34-.39q10.07 4.46 21.3 3.05 16.98-2.14 24.45-17.01 4.83-9.61 2.77-19.9a.63.63 0 0 1 .39-.71c11.25-4.38 19.86-15.11 20.37-27.31q.82-19.73-15.82-30.09c-2.15-1.34-5.61-2.45-7.37-3.34a.82.82 0 0 1-.44-.79c.78-11.34-4.34-21.58-13.95-27.83q-14.21-9.23-31.58-1.72a.63.63 0 0 1-.76-.2q-13.49-17.33-34.44-16.71c-11.44.33-21.86 5.44-29.21 13.93-.67.77-1.18 1.72-1.78 2.42a.83.82 36.1 0 1-1.07.16m421.79 391.54q-.39-2.39 5.22-3.4a2.68 2.57 42.6 0 1 .91-.02q2.75.42 5.28.02.8.22 1.25.19a.36.36 0 0 0 .21-.63q-9.33-8.44-15.79-20.61-5.51-10.37-5.24-21.97a.63.63 0 0 1 .84-.58c14.19 5.03 27.97 5.25 41.18-1.67a.63.63 0 0 0 .22-.93q-11.68-16.32-11.91-36.22-.11-8.79.7-18.91a.07.07 0 0 1 .12-.04l7.11 8.81a.44.43-55.4 0 0 .75-.14q4.96-15.52 8.3-28.98c5.91-23.8 5.32-46.22-14.63-62.83q-10.74-8.93-20.7-14.04-39.85-20.42-67.86-39.13a.33.33 0 0 1 .17-.6l13.5-.53a.4.4 0 0 0 .28-.67q-12.94-13.62-30.85-16.29a.43.43 0 0 1-.19-.77q2.21-1.65 4.79-2.09a.78.78 0 0 0 .23-1.45c-19.78-10.4-44.55-4.27-62.89 7q-3.81 2.34-5.66 3.4a1.58 1.58 0 0 1-1.37.1c-22.28-8.81-46.24-12.43-70-9.3-46.77 6.18-88.3 34.81-109.48 77.18a1.37 1.36 9.2 0 1-1.03.74c-22.98 3.26-49.3 14.12-57.85 37.41a.39.38 89.1 0 0 .5.49q2.85-1.15 5.67-1.27a.37.37 0 0 1 .29.61q-12.53 14.14-13.88 34.03a.38.38 0 0 0 .61.32l10.75-8.68a.26.26 0 0 1 .41.28q-5.05 16.87-10.67 32.14-2.62 7.1-14.4 35.1-6.05 14.36-8.24 26.47c-3.71 20.5 4.79 37.73 20.41 50.8q16.43 13.74 34.16 24.47a.27.27 0 0 0 .41-.24l-.47-12.02a.14.13-70.5 0 1 .22-.11c13.97 12.71 25.67 28.79 26.2 48.39a.93.93 0 0 0 1.15.88q6.13-1.48 12.24-4.6a.39.39 0 0 1 .57.38q-1.76 22.67 8.51 42.3a.59.59 0 0 0 1.09-.12q1.92-7.27 5.5-14.8 1-2.1 2.22-3.51a.43.43 0 0 1 .74.36q-1.36 7.18-1.67 8.92-5.96 34.1 2.39 67.45a4.78 4.78 0 0 1-.26 3.09c-8.18 18.64-11.77 39.39-5.2 59.19 5.31 15.98 15.65 28.66 27.43 41.16a.28.28 0 0 1-.11.46c-10.71 3.49-20.18 11.3-23.18 22.71q-3.68 13.99 9.01 20.22 9.73 4.78 20.69 5.31 2.23.11 5.95.5a.6.59 5.8 0 1 .54.65c-.91 9.32 1.05 17.51 8.6 23.26q5.73 4.36 11.79 6.35c11.39 3.75 23.01 5.01 36.59 4.23q16.36-.95 29.17-5.78 14.01-5.29 18.39-18.65 1.72-5.25 1.27-16.82-.62-15.82-1.45-31.3-1.28-23.74-1.49-41.64a.3.3 0 0 1 .49-.23q11.35 9.81 17.36 23.76a.46.46 0 0 0 .84-.01q5.91-13.98 17.47-24.46a.31.3-24.2 0 1 .51.19q.11.99.05 2.89-1.28 42.01-2.37 66.55-.68 15.46.29 19.34c3.43 13.68 15.78 20.24 28.95 22.92 18.38 3.75 35.39 3.42 53.78-1.65 3.76-1.04 7.79-3.09 11.17-5.29q11.59-7.55 10.96-21.88-.09-1.97-.14-3.54a.57.57 0 0 1 .56-.58c11.21-.23 32.95-3.37 35.93-17.13 1.27-5.86-1.7-13.83-5.22-18.5q-6.32-8.37-18.35-12.99a.45.45 0 0 1-.17-.73c20.17-21.95 34.4-44.25 28.87-75.35q-2.44-13.7-8.03-25.68a1.6 1.6 0 0 1-.11-1.08q9.79-39.11.79-78.52a.53.52-66.2 0 1 .97-.38q5.09 9.04 7.65 18.33a.41.41 0 0 0 .75.09c7.42-13.67 10.14-30.22 8.74-45.55-1.23-13.48-6.31-28.46-12.62-42.57q-4.76-10.64-6.59-18.41a.77.77 0 0 1 .57-.93l9.64-2.26a.31.31 0 0 0 .03-.59q-10.47-3.59-20.83-9.79M297.657 279.328a16.26 15.88-178.3 0 0 15.782 16.355 16.26 15.88-178.3 0 0 16.724-15.39 16.26 15.88-178.3 0 0-15.782-16.356 16.26 15.88-178.3 0 0-16.724 15.39m47.683 20.095a10.53 10.33-7.9 0 0-11.85-8.785 10.53 10.33-7.9 0 0-9.01 11.68 10.53 10.33-7.9 0 0 11.85 8.784 10.53 10.33-7.9 0 0 9.01-11.68"/><path fill="#070403" d="M238.57 131.38c.6-.7 1.11-1.65 1.78-2.42 7.35-8.49 17.77-13.6 29.21-13.93q20.95-.62 34.44 16.71a.63.63 0 0 0 .76.2q17.37-7.51 31.58 1.72c9.61 6.25 14.73 16.49 13.95 27.83a.82.82 0 0 0 .44.79c1.76.89 5.22 2 7.37 3.34q16.64 10.36 15.82 30.09c-.51 12.2-9.12 22.93-20.37 27.31a.63.63 0 0 0-.39.71q2.06 10.29-2.77 19.9-7.47 14.87-24.45 17.01-11.23 1.41-21.3-3.05a1.07 1.07 0 0 0-1.34.39q-4.6 7.15-12.51 11.51-17.7 9.77-36.77 1.44-9.04-3.95-14.69-11.88a.65.64-36 0 0-.91-.14c-11.35 8.36-25.96 9.01-37.78 1.05q-11.19-7.53-13.69-22.18a.78.76-89.5 0 0-.61-.63q-10.14-2.05-15.73-7.26c-13.08-12.2-13.84-32.73 1.43-43.7a.66.66 0 0 0 .21-.82c-7.87-16.26.84-32.71 18.62-35.37a1.37 1.36 3.6 0 0 1.12-.98c5.88-20.35 27.49-28.73 45.51-17.48a.83.82 36.1 0 0 1.07-.16m-58.31 56.78c-10.59 5.67-15.42 19.12-9.5 30.14q5.28 9.83 16.91 12.39c1.53.34 3.41.27 4.84.82a.86.85-80.9 0 1 .54.75q.57 11.9 9.26 19.41c11.07 9.58 26.69 7.61 37.07-1.63a.66.66 0 0 1 .97.12q12.24 17.53 32.26 16.66c12.33-.53 22.36-6.89 28.93-17.08a1.09 1.08 30.4 0 1 1.43-.37c16.47 8.73 37.56 4.51 43.35-14.94q.99-3.31.16-11.43c-.09-.85-.78-2.19-.82-2.93a.79.79 0 0 1 .58-.81q1.47-.38 5.68-2.6 8.74-4.59 12.39-13.34c6.82-16.35-3.71-31.97-19.96-36.75a.82.82 0 0 1-.58-.91q.55-3.53-.16-8.07c-3.11-19.87-23.46-26.36-40.01-17.95a1.19 1.18 58.5 0 1-1.5-.37c-8.37-11.55-20.39-17.19-34.58-16q-16.65 1.41-27.13 16.24a.8.8 0 0 1-1.1.2c-8.02-5.46-17.28-8.12-26.65-4.13q-12.66 5.38-15.51 19.12a.78.76-86.3 0 1-.68.61q-10.61.96-16.19 7.78c-5.95 7.28-5.12 17.15.14 24.44a.43.43 0 0 1-.14.63"/><path fill="#fdfdfd" d="M180.26 188.16a.43.43 0 0 0 .14-.63c-5.26-7.29-6.09-17.16-.14-24.44q5.58-6.82 16.19-7.78a.78.76-86.3 0 0 .68-.61q2.85-13.74 15.51-19.12c9.37-3.99 18.63-1.33 26.65 4.13a.8.8 0 0 0 1.1-.2q10.48-14.83 27.13-16.24c14.19-1.19 26.21 4.45 34.58 16a1.19 1.18 58.5 0 0 1.5.37c16.55-8.41 36.9-1.92 40.01 17.95q.71 4.54.16 8.07a.82.82 0 0 0 .58.91c16.25 4.78 26.78 20.4 19.96 36.75q-3.65 8.75-12.39 13.34-4.21 2.22-5.68 2.6a.79.79 0 0 0-.58.81c.04.74.73 2.08.82 2.93q.83 8.12-.16 11.43c-5.79 19.45-26.88 23.67-43.35 14.94a1.09 1.08 30.4 0 0-1.43.37c-6.57 10.19-16.6 16.55-28.93 17.08q-20.02.87-32.26-16.66a.66.66 0 0 0-.97-.12c-10.38 9.24-26 11.21-37.07 1.63q-8.69-7.51-9.26-19.41a.86.85-80.9 0 0-.54-.75c-1.43-.55-3.31-.48-4.84-.82q-11.63-2.56-16.91-12.39c-5.92-11.02-1.09-24.47 9.5-30.14"/><path fill="#070403" d="M670.7 519.68q-11.58-3.7-18.89-12.26c-8.3-9.71-10.58-21.59-9.31-34.73a.89.88 18.5 0 0-.43-.85l-2.29-1.37-9.58-6.64a.44.44 0 0 0-.69.29q-2.58 15.62-10.7 29.18-6.08 10.16-18.84 22.81a.73.66 15.2 0 1-.37.19l-.52.08a.29.29 0 0 1-.29-.44q11.17-17.85 17.75-38.16 4.28-13.2 5.1-21.98a1.36 1.36 0 0 0-.26-.94c-7.76-10.37-12.54-17.68-16.24-27.25q-3.6-9.34-6.92-22.43c-5.19-20.48-6.79-29.42-12.66-45.27q-11.69-31.56-36.59-54.49-6.76-5.7-1.91-2.75 12.61 6.4 22.09 16.43 10.46 11.08 17.91 24.56c9.64 17.47 14.82 38.91 19.91 60.15 5.1 21.24 13.92 40.97 31.32 54.62q18.79 14.76 42.47 11.97a.42.42 0 0 0 .31-.64q-4.74-7.78-6.18-16.83-1.74-10.92-1.34-17.69 1.08-18.21 5.58-37.01a.23.23 0 0 1 .44-.04l6.68 15a.45.45 0 0 0 .85-.09l3-14.29q4.2-17.89 2.35-32.24c-2.57-19.89-22.06-32.28-38.17-40.37q-36.41-18.29-68.35-43.49a1.64 1.59-23.7 0 0-.89-.33q-7.07-.36-14.58 1.4-.87.32-.95.22a1.04 1.03-34.4 0 1 .3-1.6q7.32-3.83 13.55-5.35l8.25-1.51a.19.19 0 0 0 .06-.36q-13.43-7.03-28.27-5.84a.38.38 0 0 1-.33-.62l5.12-6.36a.46.46 0 0 0-.33-.75c-16.67-.95-32.36 4.18-46.77 11.84a.63.63 0 0 0-.08 1.07l6.78 4.9q1.52 1.31 1.24 2.06-17.55-5.91-28.6-8.64-16.7-4.13-35.93-4.63c-34.78-.91-69.01 12.84-94.81 35.66q-8.2 7.27-16.6 17.5c-9.8 11.94-15.89 21.92-24.16 36.43q-.85-.62-.13-2.76l2.02-9.13a.31.31 0 0 0-.38-.37c-16.11 4.02-31.44 10.33-42.68 21.81a.43.43 0 0 0 .23.72l8.01 1.4a.58.58 0 0 1 .25 1.04q-12.74 9.28-18.8 24.1a.17.17 0 0 0 .25.21l8.74-5.42q6.88-3.17 13.29-3.69a.4.4 0 0 1 .24.74l-5.96 3.54-6.57 4.92a1.2 1.2 0 0 0-.48.75c-4.27 21.02-10.36 42.43-18.66 62.49-8.57 20.7-22.29 46.77-8.35 67.67 6.76 10.13 15.84 18.56 25.59 25.72l7.87 6.07a.24.24 0 0 0 .39-.23q-1.35-8.15-4.37-15.65a.31.31 0 0 1 .47-.36q3.4 2.64 10.45 7.78 6.06 4.42 15.91 14.37c8.38 8.46 16.15 20.4 17.53 32.54a.46.46 0 0 0 .67.35q8.33-4.37 14.07-12.1 15.83-21.31 12.9-48.34-1.86-17.2-9.54-32.36c-9.68-19.1-15.98-30.93-21.22-45.3q-6.65-18.25-7.26-38.07-.52-17.14 5.76-33.22.42-1.79 1.3-3.26a.23.23 0 0 1 .43.14l-.65 8.03q-1.68 7.37-1.33 14.32c.4 7.78.25 13.9 1.41 19.65q4.97 24.48 12.81 40.24 6.52 13.09 13.27 26.45 6.6 13.05 9.32 20.93 4.92 14.3 5.06 29.53a2.8 2.79-69 0 0 .89 2c16.2 14.96 35.67 24.67 56.1 32.15a.22.22 0 0 1-.08.43q-32.29-1.28-56.94-21.03a.26.25 25.7 0 0-.41.14q-2.56 10.92-6.74 20.78-5.08 9.91-12.47 16.99a3.89 3.83 73.1 0 0-1.12 2.14q-2.28 14.25.48 28.57a.37.37 0 0 0 .67.13l5.98-9.33q4.36-5.41 10.33-9.64a.42.42 0 0 1 .66.4q-2.79 21.66 5.07 42.76c8.16 21.87 22.72 40.58 40.32 55.69q6.52 5.61 4.54.59l-.55-13.93a.13.13 0 0 1 .25-.05q11.43 27.97 35.35 45.28 10.57 7.65 22.4 14.36c9.55 5.42 16.42 9.7 22.94 14.58q9.75 7.31 16.84 18.88a.34.34 0 0 0 .58-.01q7.09-12.43 18.93-21.12 7.54-5.54 10.02-7.01c14.58-8.63 25.49-15.26 38.13-25.34q9.77-7.79 17.48-19.18c4.12-6.1 8.73-13.57 11.26-21.32q.13-.41.38-.64a.34.33 69.7 0 1 .56.26l-.47 14.29q-.3.97-.05 1.52a.5.5 0 0 0 .78.17c27.18-22.9 50.68-56.14 49.69-93.56q-.13-4.93-1.08-9.35a.35.35 0 0 1 .58-.34l10.32 9.12 6.61 10.49a.16.15 34.2 0 0 .28-.05q3.11-16.55.03-32.34c-1.5-7.72-5.58-19.17-8.54-26.08-5.56-12.95-9.75-20.41-10.4-32.23a1.4 1.4 0 0 0-.25-.69l-2.16-2.89q-3.1-3.97-4.37-5.26-.94-.96-.25-1.65l5.93 1.35q10.36 6.2 20.83 9.79a.31.31 0 0 1-.03.59l-9.64 2.26a.77.77 0 0 0-.57.93q1.83 7.77 6.59 18.41c6.31 14.11 11.39 29.09 12.62 42.57 1.4 15.33-1.32 31.88-8.74 45.55a.41.41 0 0 1-.75-.09q-2.56-9.29-7.65-18.33a.53.52-66.2 0 0-.97.38q9 39.41-.79 78.52a1.6 1.6 0 0 0 .11 1.08q5.59 11.98 8.03 25.68c5.53 31.1-8.7 53.4-28.87 75.35a.45.45 0 0 0 .17.73q12.03 4.62 18.35 12.99c3.52 4.67 6.49 12.64 5.22 18.5-2.98 13.76-24.72 16.9-35.93 17.13a.57.57 0 0 0-.56.58q.05 1.57.14 3.54.63 14.33-10.96 21.88c-3.38 2.2-7.41 4.25-11.17 5.29-18.39 5.07-35.4 5.4-53.78 1.65-13.17-2.68-25.52-9.24-28.95-22.92q-.97-3.88-.29-19.34 1.09-24.54 2.37-66.55.06-1.9-.05-2.89a.31.3-24.2 0 0-.51-.19q-11.56 10.48-17.47 24.46a.46.46 0 0 1-.84.01q-6.01-13.95-17.36-23.76a.3.3 0 0 0-.49.23q.21 17.9 1.49 41.64.83 15.48 1.45 31.3.45 11.57-1.27 16.82-4.38 13.36-18.39 18.65-12.81 4.83-29.17 5.78c-13.58.78-25.2-.48-36.59-4.23q-6.06-1.99-11.79-6.35c-7.55-5.75-9.51-13.94-8.6-23.26a.6.59 5.8 0 0-.54-.65q-3.72-.39-5.95-.5-10.96-.53-20.69-5.31-12.69-6.23-9.01-20.22c3-11.41 12.47-19.22 23.18-22.71a.28.28 0 0 0 .11-.46c-11.78-12.5-22.12-25.18-27.43-41.16-6.57-19.8-2.98-40.55 5.2-59.19a4.78 4.78 0 0 0 .26-3.09q-8.35-33.35-2.39-67.45.31-1.74 1.67-8.92a.43.43 0 0 0-.74-.36q-1.22 1.41-2.22 3.51-3.58 7.53-5.5 14.8a.59.59 0 0 1-1.09.12q-10.27-19.63-8.51-42.3a.39.39 0 0 0-.57-.38q-6.11 3.12-12.24 4.6a.93.93 0 0 1-1.15-.88c-.53-19.6-12.23-35.68-26.2-48.39a.14.13-70.5 0 0-.22.11l.47 12.02a.27.27 0 0 1-.41.24q-17.73-10.73-34.16-24.47c-15.62-13.07-24.12-30.3-20.41-50.8q2.19-12.11 8.24-26.47 11.78-28 14.4-35.1 5.62-15.27 10.67-32.14a.26.26 0 0 0-.41-.28l-10.75 8.68a.38.38 0 0 1-.61-.32q1.35-19.89 13.88-34.03a.37.37 0 0 0-.29-.61q-2.82.12-5.67 1.27a.39.38 89.1 0 1-.5-.49c8.55-23.29 34.87-34.15 57.85-37.41a1.37 1.36 9.2 0 0 1.03-.74c21.18-42.37 62.71-71 109.48-77.18 23.76-3.13 47.72.49 70 9.3a1.58 1.58 0 0 0 1.37-.1q1.85-1.06 5.66-3.4c18.34-11.27 43.11-17.4 62.89-7a.78.78 0 0 1-.23 1.45q-2.58.44-4.79 2.09a.43.43 0 0 0 .19.77q17.91 2.67 30.85 16.29a.4.4 0 0 1-.28.67l-13.5.53a.33.33 0 0 0-.17.6q28.01 18.71 67.86 39.13 9.96 5.11 20.7 14.04c19.95 16.61 20.54 39.03 14.63 62.83q-3.34 13.46-8.3 28.98a.44.43-55.4 0 1-.75.14l-7.11-8.81a.07.07 0 0 0-.12.04q-.81 10.12-.7 18.91.23 19.9 11.91 36.22a.63.63 0 0 1-.22.93c-13.21 6.92-26.99 6.7-41.18 1.67a.63.63 0 0 0-.84.58q-.27 11.6 5.24 21.97 6.46 12.17 15.79 20.61a.36.36 0 0 1-.21.63q-.45.03-1.25-.19m-7.93 136.29q-16.22 35.77-47.68 59.08-4.61 3.41-9.27 5.29a4.58 4.57 7.9 0 0-1.88 1.42q-12.73 16.3-30.72 27.74-13.03 8.29-25.87 16.16-1.04.63-4.14 2.64a.97.97 0 0 0-.45.8q-.16 27.53-1.45 60.17-.92 23.38-1 28.26c-.25 15.54 11.84 19.5 24.53 22.05a.72.71 13.1 0 0 .84-.52l1.8-7.07q1.09-11.99-3.88-22.91a.35.34-13.9 0 1 .3-.48q.38-.01.7.3 10 9.54 10.41 22.78-.07 4.68-1.35 8.27a.82.82 0 0 0 .71 1.09q12.76 1.15 26.12-.71a1.94 1.93 8.3 0 0 1.48-1.1q2.45-5.38 2.53-10.09c0-9.73-2.92-16.53-6.96-24.6a.24.23 86.7 0 1 .29-.33q2.23.86 4.27 2.93 8.95 9.08 9.9 21.33l-.88 8.58a.47.47 0 0 0 .59.5q7.42-1.96 12.36-6.42c7.93-10.48 3.22-22.92-5.38-30.83q-17.07-15.7-41.47-10.8l-7.92 1.84a.35.35 0 0 1-.39-.49q.16-.32.6-.62 16.16-11.45 35.23-6.29l5.48 1.59a.52.52 0 0 0 .64-.37q2.71-11.33 7.07-22.22c8.62-21.5 21.37-45.57 29.25-62.24 11.39-24.08 19.38-48.71 19.55-74.95q.07-10.67-.18-14.78-.09-1.52-.41-2.88a.28.28 0 0 0-.53-.03zM441.7 823.55q10.78 1.5 19.53 7.81a.32.32 0 0 1-.25.57c-5.31-1.05-9.23-2.22-15.6-2.34q-18.34-1.01-31.56 10.58c-6.21 5.44-9.99 11.74-10.65 19.82q-.52 6.25 3.01 11.31c3.25 3.99 8.81 6.34 13.71 7.64a.23.23 0 0 0 .28-.25l-1.08-8.59c0-10.02 5.69-19.58 13.98-25.26a.54.54 0 0 1 .77.73q-7.86 12.72-7.01 26.51l2.33 8.04a1.9 1.9 0 0 0 1.6 1.36q13.07 1.66 26.24.39a.57.57 0 0 0 .51-.67l-1.52-8.55q.39-13.65 10.69-23.27a.34.34 0 0 1 .54.38q-4.59 10.84-3.57 22.76l1.6 6.83a.98.98 0 0 0 1.11.74c12.71-2.15 25.85-7.6 25.01-23.1q-.56-10.25-2.69-71.24-.14-4.22.05-15.52a1.08 1.07-69.8 0 0-.39-.85q-1.86-1.56-3.17-2.32-12.55-7.27-27.2-16.25-18.62-11.42-30.77-26.86a6.64 6.58 85 0 0-2.03-1.72q-1.14-.64-4.75-2.39-3.94-1.9-8.71-5.57-21.75-16.7-35.74-39.19c-2.5-4.03-4.62-8.52-6.87-12.87l-4.72-12.04a.33.33 0 0 0-.64.09q-2.81 31.63 7.06 61.71c11.21 34.17 31.7 64.41 44.9 99.11 1.91 5.02 3.09 10.03 4.23 14.99a.91.91 0 0 0 1.21.65q9.82-3.77 20.56-3.17m220.75-96.34c-5.19 12.37-10.54 25.09-16.61 36.61q-10.04 19.07-18.44 38.8-5.54 13.01-8.35 25.72a1.8 1.79 25.3 0 0 .65 1.81q8.45 6.62 14.21 16.24a1.04 1.04 0 0 0 1 .5l10.33-1.02a1.52 1.52 0 0 0 1.36-1.42q.69-11.4-6.01-20.97a.33.32 84.6 0 1 .4-.49q12.27 5.76 13.15 20.08a.51.51 0 0 0 .62.46q3.83-.87 7-3.16 4.59-3.13 3.3-8.4c-1.57-6.4-6.41-11.63-11.8-15.42q-6.07-4.27-13.63-4.93-6.42-.51-12.22.77a.4.4 0 0 1-.37-.68q5.45-5.21 13.59-6.31 11.67-14.27 16.57-21.7c8.24-12.51 14.09-25.51 13.83-40.7q-.22-13.3-4.53-25.58a.32.32 0 0 0-.6 0zm-270.46 79.82q6.18 1.61 11.7 6.37a.31.31 0 0 1-.23.54l-10.35-1.06q-17.9 1.65-25.78 17.16c-2.14 4.21-2.47 9.69 2.24 12.52q2.57 1.84 6.75 2.75a.46.46 0 0 0 .56-.41c.76-9.45 4.14-16.25 12.48-20.46a.42.42 0 0 1 .54.6q-5.21 8.48-5.54 17.92c-.09 2.57-.64 4.39 2.44 4.75q6.26.74 9.58.49a.96.96 0 0 0 .77-.5q5.51-10.03 14.26-16.65a1.59 1.58-25.3 0 0 .58-1.6c-3.84-17.26-10.83-31.52-19.74-49.43-5.62-11.31-12.16-23.07-17.76-35.74q-3.21-7.25-6.65-14.82l-3.55-9.73a.28.27-77 0 0-.07-.12q-.51-.49-.79.34-4.18 12.68-4.05 26.33c.13 13.63 5.34 25.96 12.91 37.18q7.75 11.47 17.32 22.93.51.61 2.38.64"/><path fill="#f7da90" d="M583.36 277.05q-5.52-1.63-11.2-2.67-4.46-.81-7.18-.78-1.12.01-8.13.5a.68.68 0 0 1-.69-.91q1.12-3.04 3.52-5.99a.67.67 0 0 0-.61-1.09q-13.96 1.94-25.16 10.04-1.56 1.13-6.12 3.27l-6.78-4.9a.63.63 0 0 1 .08-1.07c14.41-7.66 30.1-12.79 46.77-11.84a.46.46 0 0 1 .33.75l-5.12 6.36a.38.38 0 0 0 .33.62q14.84-1.19 28.27 5.84a.19.19 0 0 1-.06.36z"/><path fill="#070403" d="M297.657 279.328a16.26 15.88-178.3 0 1 16.724-15.391 16.26 15.88-178.3 0 1 15.782 16.355 16.26 15.88-178.3 0 1-16.724 15.391 16.26 15.88-178.3 0 1-15.782-16.355m26.581-1.233a10.33 10.04-9.5 0 0-11.845-8.197 10.33 10.04-9.5 0 0-8.531 11.607 10.33 10.04-9.5 0 0 11.845 8.197 10.33 10.04-9.5 0 0 8.531-11.607"/><path fill="#edae4d" d="M583.36 277.05q-6.23 1.52-13.55 5.35a1.04 1.03-34.4 0 0-.3 1.6q.08.1.95-.22-.27 1.86 2.79 1.17 2.98-.67 3.62-.65 3.21.12 5.4 2.18 3.68 3.46 12.4 10.58 6.04 4.93 15.35 11.21.66.44 16.13 11.04 9.36 6.42 27.46 14.63 8.37 3.8 18.85 12.3c3.73 3.02 8.82 9.37 10.09 12.95q1.58 4.48 4 10.5 1.57 3.88 1.98 12.07-4.2-10.22-12.69-18.41a.71.71 0 0 0-1.2.63c.25 1.47.73 2.38.68 4.38q-.22 9.71-3.26 16.79-4.07 9.51-6.3 17.85a.35.35 0 0 1-.59.15q-.4-.4-.59-.96c-2.96-8.76-9.08-15.45-17-19.92a.31.31 0 0 0-.43.42q4.68 8.58 7.49 17.61 3.1 9.95 8.08 31.95 1.06 4.67 3.54 10.03 3.97 8.6 4 8.69 1.39 3.69 4.05 8.67a.52.52 0 0 1-.48.76q-1.21-.05-2.49-.46-9.22-2.96-15.2-6.56c-11.89-7.15-22.21-16.94-29.34-29.41q-7.68-13.42-10.59-23.43-5.41-18.58-8.99-29.27-5.78-17.25-14.97-32.71c-5.05-8.5-12.7-16.33-19.78-22.28q-4.54-3.82-7.14-6.36a4.38 4.2 81.2 0 0-.81-.62q-6.87-4.1-13.32-6.95-2.4-1.05-4.14.32-4.85-2.95 1.91 2.75.37 2.75 2.25 4.89 6.91 7.82 11.96 15.99 3.9 6.29 7.35 15.16 3.68 9.46 6.36 15.66 1.01 2.32 2.11 6.87 4.56 18.74 8.16 35.64 3.86 18.13 12.09 41.17 4.12 11.53 4.79 15.27c3.02 16.69-1.83 34.76-12.24 47.81-6.9 8.64-16.24 17.09-25.96 23.59q-1.43.96-1.94 2.54-1.01 3.16-3.64 4.5 3.88-9.61 4.5-19.19a.31.31 0 0 0-.59-.15c-9.82 22.86-24.32 39.07-48.57 46.69-21.72 6.82-40.23 3.13-59.98-6.37a.25.25 0 0 0-.36.25q.02.2.31.49 5.47 5.44 12.09 9.4.03.85-.17 1.13a.87.87 0 0 1-1.32.12q-2.12-2.07-5.18-1.76c-17.93 1.81-34.84.45-51.47-7.41-11.57-5.47-20.48-16.03-26.68-27.34q-1.75-3.19-6.57-16.54-2.81-7.79-6.98-16.37-10.55-21.71-20.81-38.68c-1.29-2.13-3.78-7.22-4.68-10.22q-1.66-5.56-4.89-13.54-2.46-6.1-4.12-13.74-3.1-14.26-4.54-29.35l.65-8.03a.23.23 0 0 0-.43-.14q-.88 1.47-1.3 3.26-1.76.19-2.13.86c-9.29 16.67-11.1 35.84-8.07 54.62 3.43 21.26 11.21 36.54 21.1 59.91q7.33 17.3 7.79 36.33c.33 13.41-2.71 25.59-8.35 37.02q-1.97 3.98-5.83 8.41a.59.59 0 0 1-1.03-.38q-.05-3.29-1.7-7.28a4.9 4.84 29.4 0 1-.29-1.01q-1.66-9.95-4.45-15.93-6.53-14-13.71-28.31c-1.49-2.97-3.51-7.33-4.54-11.21q-1.9-7.18-2.92-11.73a.45.45 0 0 0-.86-.05q-4.86 13.84.7 27.49a.77.77 0 0 1-1.12.95q-5.61-3.48-11.19-7.38c-3.96-2.77-6.86-4.26-10.78-6.6q-4.71-2.82-9.05-9.41-.73-1.12-1.32-1.55a1.23 1.23 0 0 0-1.93.73q-1.31 6.2.36 13.5.56 2.43.92 4.96c-9.66-10.19-11.79-32.13-6.28-44.49 10.25-22.99 18.27-42.84 22.71-64.85q2.83-14.01 4.37-20.5.37-1.57.63-3.79.42-3.54 2.7-6.38a.53.52-49.5 0 0-.05-.72q-.34-.32-.84-.24l5.96-3.54a.4.4 0 0 0-.24-.74q-6.41.52-13.29 3.69 3.26-7.82 9.14-13.3c2.39-2.22 5.74-4.17 8.59-6.08a.65.65 0 0 0-.18-1.16l-7.71-2.3a.84.84 0 0 1-.13-1.55q9.13-4.47 19.04-7.31 5.59-1.61 13.61-2.66-.72 2.14.13 2.76l-1.36 4.87a.22.22 0 0 0 .15.26l.48.14a.42.42 0 0 0 .49-.19q5.24-9.43 12.88-18.3c4.05-4.69 9.69-13.07 14.94-18.47q12.82-13.19 29.01-25.35c8.23-6.19 17.32-10.43 27.14-14.8 20.34-9.04 41.45-11.24 63.52-10.63 10.5.29 25.06 3.15 33.2 4.26q5.25.72 11.64 2.32 5.41 1.36 11.57 2.71a.43.43 0 0 0 .52-.45q-.01-.17-.39-.37-2.03-1.03-3.69-2.32.28-.75-1.24-2.06 4.56-2.14 6.12-3.27 11.2-8.1 25.16-10.04a.67.67 0 0 1 .61 1.09q-2.4 2.95-3.52 5.99a.68.68 0 0 0 .69.91q7.01-.49 8.13-.5 2.72-.03 7.18.78 5.68 1.04 11.2 2.67m-56.47 29.82q-6.86-8.13-16.5-11.31c-17.4-5.75-33.64 3.62-36.87 21.66a.28.28 0 0 0 .48.24c13.8-14.92 34.06-17.46 52.53-10.09a.32.32 0 0 0 .36-.5m-12.93 100.95q5.08 3.99 12.3 4.49c14.27.99 26.82-7.15 31.67-20.85q2.44-6.88 2.55-11.79c2.92-4.98 3.25-9.7 3-15.42-.36-8.13-1.48-14.92-6.2-21.53q-3.4-4.74-5.54-6.94-13.06-13.41-30.96-13.38c-10.13.02-19.49 3.42-26.31 10.49-12.56 13.03-12.69 32.25-5 47.68q4.22 8.48 11.02 17.29a3.65 3.6 13.7 0 1 .48.78q4.32 9.12 12.99 9.18m-168.99-30.14a.31.31 0 0 0 .6.12c8.27-17.82 24.55-29.73 44.58-28.37a.28.28 0 0 0 .19-.5c-14.56-10.77-32.58-6.49-41.18 9.44q-4.77 8.82-4.19 19.31m27.72 78.54q9.2 5.4 17.61 7.18 12.75 2.68 23.22-5.33 7.7-5.89 10.14-14.71.38-1.41 1.61-1.38a.76.75-76.7 0 0 .7-.44q1.04-2.25 1.14-2.91.19-1.35.4-9.24.12-4.28-.97-9.23-2.57-11.7-3.05-13.16-2.11-6.39-5.01-11.8c-5.96-11.08-18.42-20.29-31.04-20.88-10.8-.51-23.94 4.43-30.44 13.42-8.63 11.93-12.28 24.89-8.22 39.73q.64 2.32 3.52 7.99 8.01 15.72 20.39 20.76m140.32-40.97q8.81 4.12 17.01 10.33a.26.26 0 0 0 .38-.35c-3.47-5.59-9.25-11.34-15.4-14.22s-14.28-3.63-20.79-2.72a.26.26 0 0 0-.03.52q10.03 2.33 18.83 6.44m-31.35 135.22q.61-.37 1.42-1.64 2.65-4.09 5.88-10.32a.48.48 0 0 1 .59-.22q8.82 3.35 15.59 2.06 16.88-3.22 24.94-18.21a.75.74-64.6 0 1 .94-.34q6.36 2.59 12.79 3.48a.44.44 0 0 0 .35-.77c-4.05-3.47-8.5-7.05-13.46-9.99q-14.18-8.39-28.04-13.44a2.14 2.13 87.9 0 1-1.23-1.15l-4.98-11.17a.91.9-28.6 0 1 .33-1.11c10.82-7.23 18.38-19.64 21.17-31.81 3.07-13.42.3-26.85-14.97-29.42q-5.24-.88-8.73-.49-22.7 2.55-41.98 15.86c-11.41 7.88-17.65 20.26-7.99 32.61 9.99 12.77 28.72 18.45 44.53 16.87a.64.63 74.8 0 1 .65.38l5.12 11.47a2.53 2.52-44.3 0 1-.03 2.09q-10.35 21.58-13.59 44.8a.46.46 0 0 0 .7.46M425.1 445.74q-4.15 9.9-2.58 21.56a.29.29 0 0 0 .42.22q.18-.09.25-.4 2.03-9.99 6.07-19.64 4.05-9.65 9.75-18.1.17-.26.11-.45a.29.29 0 0 0-.45-.15q-9.42 7.06-13.57 16.96"/><path fill="#f7da90" d="M529.03 281.48q1.66 1.29 3.69 2.32.38.2.39.37a.43.43 0 0 1-.52.45q-6.16-1.35-11.57-2.71-6.39-1.6-11.64-2.32c-8.14-1.11-22.7-3.97-33.2-4.26-22.07-.61-43.18 1.59-63.52 10.63-9.82 4.37-18.91 8.61-27.14 14.8q-16.19 12.16-29.01 25.35c-5.25 5.4-10.89 13.78-14.94 18.47q-7.64 8.87-12.88 18.3a.42.42 0 0 1-.49.19l-.48-.14a.22.22 0 0 1-.15-.26l1.36-4.87c8.27-14.51 14.36-24.49 24.16-36.43q8.4-10.23 16.6-17.5c25.8-22.82 60.03-36.57 94.81-35.66q19.23.5 35.93 4.63 11.05 2.73 28.6 8.64"/><ellipse fill="#fdfdfd" rx="10.33" ry="10.04" transform="rotate(-9.5 1840.669 -1749.837)"/><path fill="#f7da90" d="M690.1 398.81q-1.39-.08-1.22-1.31 1.16-8.4-.35-15.74-.41-8.19-1.98-12.07-2.42-6.02-4-10.5c-1.27-3.58-6.36-9.93-10.09-12.95q-10.48-8.5-18.85-12.3-18.1-8.21-27.46-14.63-15.47-10.6-16.13-11.04-9.31-6.28-15.35-11.21-8.72-7.12-12.4-10.58-2.19-2.06-5.4-2.18-.64-.02-3.62.65-3.06.69-2.79-1.17 7.51-1.76 14.58-1.4a1.64 1.59-23.7 0 1 .89.33q31.94 25.2 68.35 43.49c16.11 8.09 35.6 20.48 38.17 40.37q1.85 14.35-2.35 32.24"/><path fill="#070403" d="M345.34 299.423a10.53 10.33-7.9 0 1-9.01 11.679 10.53 10.33-7.9 0 1-11.85-8.785 10.53 10.33-7.9 0 1 9.01-11.679 10.53 10.33-7.9 0 1 11.85 8.785m-5.09 1.477a5.14 5.14 0 0 0-5.14-5.14 5.14 5.14 0 0 0-5.14 5.14 5.14 5.14 0 0 0 5.14 5.14 5.14 5.14 0 0 0 5.14-5.14M526.89 306.87a.32.32 0 0 1-.36.5c-18.47-7.37-38.73-4.83-52.53 10.09a.28.28 0 0 1-.48-.24c3.23-18.04 19.47-27.41 36.87-21.66q9.64 3.18 16.5 11.31"/><circle cx="335.11" cy="300.9" r="5.14" fill="#fdfdfd"/><path fill="#d88934" d="M688.53 381.76q1.51 7.34.35 15.74-.17 1.23 1.22 1.31l-3 14.29a.45.45 0 0 1-.85.09l-6.68-15a.23.23 0 0 0-.44.04q-4.5 18.8-5.58 37.01-.4 6.77 1.34 17.69 1.44 9.05 6.18 16.83a.42.42 0 0 1-.31.64q-23.68 2.79-42.47-11.97c-17.4-13.65-26.22-33.38-31.32-54.62-5.09-21.24-10.27-42.68-19.91-60.15q-7.45-13.48-17.91-24.56-9.48-10.03-22.09-16.43 1.74-1.37 4.14-.32 6.45 2.85 13.32 6.95a4.38 4.2 81.2 0 1 .81.62q2.6 2.54 7.14 6.36c7.08 5.95 14.73 13.78 19.78 22.28q9.19 15.46 14.97 32.71 3.58 10.69 8.99 29.27 2.91 10.01 10.59 23.43c7.13 12.47 17.45 22.26 29.34 29.41q5.98 3.6 15.2 6.56 1.28.41 2.49.46a.52.52 0 0 0 .48-.76q-2.66-4.98-4.05-8.67-.03-.09-4-8.69-2.48-5.36-3.54-10.03-4.98-22-8.08-31.95-2.81-9.03-7.49-17.61a.31.31 0 0 1 .43-.42c7.92 4.47 14.04 11.16 17 19.92q.19.56.59.96a.35.35 0 0 0 .59-.15q2.23-8.34 6.3-17.85 3.04-7.08 3.26-16.79c.05-2-.43-2.91-.68-4.38a.71.71 0 0 1 1.2-.63q8.49 8.19 12.69 18.41"/><path fill="#d88934" d="M548.97 305.42q24.9 22.93 36.59 54.49c5.87 15.85 7.47 24.79 12.66 45.27q3.32 13.09 6.92 22.43c3.7 9.57 8.48 16.88 16.24 27.25a1.36 1.36 0 0 1 .26.94q-.82 8.78-5.1 21.98-6.58 20.31-17.75 38.16a.29.29 0 0 0 .29.44l.52-.08a.73.66 15.2 0 0 .37-.19q12.76-12.65 18.84-22.81 8.12-13.56 10.7-29.18a.44.44 0 0 1 .69-.29l9.58 6.64q-.26 10.01.37 15.54c.49 4.39 2.4 9.79 3.3 14.91q.13.76 1.11 4.82c1.24 5.18 3.92 9.44 5.95 14.22q.52 1.21 1.84 1.09.66-.06 1.01.68-.69.69.25 1.65 1.27 1.29 4.37 5.26l-2.51.81a1.07 1-40.9 0 1-.75-.03l-3.83-1.67q-10.09-6.71-16.04-12.59-5.67-5.61-9.17-12.86a.55.54-39.1 0 0-.92-.09q-7.36 9.54-17.67 17.64c-8 6.29-15.32 10.84-22.49 17.26q-7.62 6.81-15.89 19.1c-8.25 12.26-17.19 26.05-26.46 39.7q-3.31 4.86-6.27 10.01a.53.53 0 0 1-.98-.32l1.22-11.02a.12.12 0 0 0-.21-.08q-4.89 7.02-6.77 9.73-8.23 11.94-13.21 24.75a.69.69 0 0 1-1.28 0q-7.4-19.03-21.19-33.11a.16.16 0 0 0-.27.16q1.46 4.91 2.52 10.48a.53.52 84 0 1-.5.63q-.4.01-.62-.33c-2.89-4.52-7.14-10.07-10.67-13.7q-9.35-9.58-22.51-10.04-5.98-.21-8.76.06c-17.54 1.7-34.1 2.64-51.15.07a.66.66 0 0 0-.75.55q-.89 5.9-.4 13.9.71 11.84 7.31 21.4a.28.27 27.8 0 0 .5-.15c-.01-5.94 2.6-11.1 5.75-15.8a.44.43 63.5 0 1 .79.27c-.65 13.55 1.44 27.58 7.24 40.3a.38.38 0 0 1-.59.45q-6.81-5.92-10.99-13.7a7.64 7.6 4.8 0 0-2.02-2.38c-6.58-5.08-10.98-11.71-13-20.29q-.99-4.25-.81-12.74.15-6.71 2.67-12.46a.31.31 0 0 0-.19-.42l-14.14-4.22a1.27 1.27 0 0 0-1.51.68l-1.53 3.31a1.34 1.04-19.2 0 1-.15.23c-3.57 4.32-7.25 9.71-11.95 12.46q-5.37 3.15-10.65 6.55-.96.07-1.76.52a.46.46 0 0 1-.59-.68c3.34-4.16 4.92-9.51 6.66-15.53a3.09 3.02-21.7 0 1 .36-.81q2.09-3.44 1.76-7.12 4.18-9.86 6.74-20.78a.26.25 25.7 0 1 .41-.14q24.65 19.75 56.94 21.03a.22.22 0 0 0 .08-.43c-20.43-7.48-39.9-17.19-56.1-32.15a2.8 2.79-69 0 1-.89-2q-.14-15.23-5.06-29.53-2.72-7.88-9.32-20.93-6.75-13.36-13.27-26.45-7.84-15.76-12.81-40.24c-1.16-5.75-1.01-11.87-1.41-19.65q-.35-6.95 1.33-14.32 1.44 15.09 4.54 29.35 1.66 7.64 4.12 13.74 3.23 7.98 4.89 13.54c.9 3 3.39 8.09 4.68 10.22q10.26 16.97 20.81 38.68 4.17 8.58 6.98 16.37 4.82 13.35 6.57 16.54c6.2 11.31 15.11 21.87 26.68 27.34 16.63 7.86 33.54 9.22 51.47 7.41q3.06-.31 5.18 1.76a.87.87 0 0 0 1.32-.12q.2-.28.17-1.13c19.51 11.44 42.64 9.21 62.32-.27q13.19-6.36 22.89-18.48 4.71-5.88 7.39-12.37 2.63-1.34 3.64-4.5.51-1.58 1.94-2.54c9.72-6.5 19.06-14.95 25.96-23.59 10.41-13.05 15.26-31.12 12.24-47.81q-.67-3.74-4.79-15.27-8.23-23.04-12.09-41.17-3.6-16.9-8.16-35.64-1.1-4.55-2.11-6.87-2.68-6.2-6.36-15.66-3.45-8.87-7.35-15.16-5.05-8.17-11.96-15.99-1.88-2.14-2.25-4.89"/><path fill="#d88934" d="M560.48 379.67q.51-16.57-10.49-27.37c-10.06-9.87-26.63-14.1-39.15-6.86-13.4 7.75-16.39 22.53-12.15 36.63q4.27 14.23 15.27 25.75-8.67-.06-12.99-9.18a3.65 3.6 13.7 0 0-.48-.78q-6.8-8.81-11.02-17.29c-7.69-15.43-7.56-34.65 5-47.68 6.82-7.07 16.18-10.47 26.31-10.49q17.9-.03 30.96 13.38 2.14 2.2 5.54 6.94c4.72 6.61 5.84 13.4 6.2 21.53.25 5.72-.08 10.44-3 15.42"/><path fill="#070403" d="M560.48 379.67q-.11 4.91-2.55 11.79c-4.85 13.7-17.4 21.84-31.67 20.85q-7.22-.5-12.3-4.49-11-11.52-15.27-25.75c-4.24-14.1-1.25-28.88 12.15-36.63 12.52-7.24 29.09-3.01 39.15 6.86q11 10.8 10.49 27.37m-57.59-15.49q-1.51 1.95-1.27 4.63a.44.44 0 0 0 .75.27c10.78-10.95 28.52-8.05 34.9 5.94 5.14 11.3 2.33 23.15-8.81 29.69q-4.45 2.6-8.95 3.22-1.13.08.04.67.59.3 1.33.43 18.4 3.35 29.87-10.79c7.27-8.97 6.52-21.02 1.15-30.67-6.22-11.15-17.04-18.28-29.66-17.38q-13.71.99-19.35 13.99m18.18 10.4a7.33 7.33 0 0 0-7.33-7.33 7.33 7.33 0 0 0-7.33 7.33 7.33 7.33 0 0 0 7.33 7.33 7.33 7.33 0 0 0 7.33-7.33m16.48 10.81a3.5 3.5 0 0 0-3.5-3.5 3.5 3.5 0 0 0-3.5 3.5 3.5 3.5 0 0 0 3.5 3.5 3.5 3.5 0 0 0 3.5-3.5M344.97 377.68q-.58-10.49 4.19-19.31c8.6-15.93 26.62-20.21 41.18-9.44a.28.28 0 0 1-.19.5c-20.03-1.36-36.31 10.55-44.58 28.37a.31.31 0 0 1-.6-.12"/><path fill="#f7da90" d="M328.8 355.04q-8.02 1.05-13.61 2.66-9.91 2.84-19.04 7.31a.84.84 0 0 0 .13 1.55l7.71 2.3a.65.65 0 0 1 .18 1.16c-2.85 1.91-6.2 3.86-8.59 6.08q-5.88 5.48-9.14 13.3l-8.74 5.42a.17.17 0 0 1-.25-.21q6.06-14.82 18.8-24.1a.58.58 0 0 0-.25-1.04l-8.01-1.4a.43.43 0 0 1-.23-.72c11.24-11.48 26.57-17.79 42.68-21.81a.31.31 0 0 1 .38.37z"/><path fill="#fdfdfd" d="M519.51 407.93c15.94 2.5 27.95-11.75 26.52-26.69-1.44-14.98-16.32-27.21-31.47-23.57q-6.43 1.54-11.67 6.51 5.64-13 19.35-13.99c12.62-.9 23.44 6.23 29.66 17.38 5.37 9.65 6.12 21.7-1.15 30.67q-11.47 14.14-29.87 10.79-.74-.13-1.33-.43-1.17-.59-.04-.67"/><path fill="#6e3d19" d="M519.51 407.93q4.5-.62 8.95-3.22c11.14-6.54 13.95-18.39 8.81-29.69-6.38-13.99-24.12-16.89-34.9-5.94a.44.44 0 0 1-.75-.27q-.24-2.68 1.27-4.63 5.24-4.97 11.67-6.51c15.15-3.64 30.03 8.59 31.47 23.57 1.43 14.94-10.58 29.19-26.52 26.69"/><circle cx="513.74" cy="374.58" r="7.33" fill="#fdfdfd"/><path fill="#d88934" d="M423.66 443.36q.67-13.69-5.38-27.88c-4.71-11.05-13.61-19.87-25.74-21.07-9.42-.93-18.95 3.06-25.08 10.56q-9.32 11.41-7.3 27.26 1.8 14.12 12.53 23.99-12.38-5.04-20.39-20.76-2.88-5.67-3.52-7.99c-4.06-14.84-.41-27.8 8.22-39.73 6.5-8.99 19.64-13.93 30.44-13.42 12.62.59 25.08 9.8 31.04 20.88q2.9 5.41 5.01 11.8.48 1.46 3.05 13.16 1.09 4.95.97 9.23-.21 7.89-.4 9.24-.1.66-1.14 2.91a.76.75-76.7 0 1-.7.44q-1.23-.03-1.61 1.38"/><circle cx="534.05" cy="385.39" r="3.5" fill="#fdfdfd"/><path fill="#d88934" d="M329.17 387.02q-6.28 16.08-5.76 33.22.61 19.82 7.26 38.07c5.24 14.37 11.54 26.2 21.22 45.3q7.68 15.16 9.54 32.36 2.93 27.03-12.9 48.34-5.74 7.73-14.07 12.1a.46.46 0 0 1-.67-.35c-1.38-12.14-9.15-24.08-17.53-32.54q-9.85-9.95-15.91-14.37-7.05-5.14-10.45-7.78a.31.31 0 0 0-.47.36q3.02 7.5 4.37 15.65a.24.24 0 0 1-.39.23l-7.87-6.07q.42-.02.5-.08a1 .99 51 0 0 .16-1.55q-4.77-4.71-9.76-9.37-2.78-2.59-5.67-9.58-.36-2.53-.92-4.96-1.67-7.3-.36-13.5a1.23 1.23 0 0 1 1.93-.73q.59.43 1.32 1.55 4.34 6.59 9.05 9.41c3.92 2.34 6.82 3.83 10.78 6.6q5.58 3.9 11.19 7.38a.77.77 0 0 0 1.12-.95q-5.56-13.65-.7-27.49a.45.45 0 0 1 .86.05q1.02 4.55 2.92 11.73c1.03 3.88 3.05 8.24 4.54 11.21q7.18 14.31 13.71 28.31 2.79 5.98 4.45 15.93a4.9 4.84 29.4 0 0 .29 1.01q1.65 3.99 1.7 7.28a.59.59 0 0 0 1.03.38q3.86-4.43 5.83-8.41c5.64-11.43 8.68-23.61 8.35-37.02q-.46-19.03-7.79-36.33c-9.89-23.37-17.67-38.65-21.1-59.91-3.03-18.78-1.22-37.95 8.07-54.62q.37-.67 2.13-.86"/><path fill="#f7da90" d="M294.01 389.99q.5-.08.84.24a.53.52-49.5 0 1 .05.72q-2.28 2.84-2.7 6.38-.26 2.22-.63 3.79-1.54 6.49-4.37 20.5c-4.44 22.01-12.46 41.86-22.71 64.85-5.51 12.36-3.38 34.3 6.28 44.49q2.89 6.99 5.67 9.58 4.99 4.66 9.76 9.37a1 .99 51 0 1-.16 1.55q-.08.06-.5.08c-9.75-7.16-18.83-15.59-25.59-25.72-13.94-20.9-.22-46.97 8.35-67.67 8.3-20.06 14.39-41.47 18.66-62.49a1.2 1.2 0 0 1 .48-.75z"/><path fill="#070403" d="M423.66 443.36q-2.44 8.82-10.14 14.71-10.47 8.01-23.22 5.33-8.41-1.78-17.61-7.18-10.73-9.87-12.53-23.99-2.02-15.85 7.3-27.26c6.13-7.5 15.66-11.49 25.08-10.56 12.13 1.2 21.03 10.02 25.74 21.07q6.05 14.19 5.38 27.88m-6.29 5.65q-7.51 1.21-9.89 1.45c-7.56.77-14.46-2.5-19.14-8.55q-6.69-8.68-4.24-20.9c1.24-6.15 9.57-13.05 15.61-14.11q1.68-.29 6.56-.58a.35.35 0 0 0 .23-.6q-1.93-1.91-4.67-2.71-12.13-4.87-21.5 1.8-11.72 8.34-12.89 23.63c-.58 7.54 2.3 16.14 6.57 21.81q8.99 11.95 23.41 10.7c7.95-.69 18.9-6.07 21.95-14.07v-.01q-.06.07-.12.13-1.29 1.46-1.88 2.01m-8.83-31.11a7.34 7.34 0 0 0-7.34-7.34 7.34 7.34 0 0 0-7.34 7.34 7.34 7.34 0 0 0 7.34 7.34 7.34 7.34 0 0 0 7.34-7.34m-11.01 21.45a3.52 3.52 0 0 0-3.52-3.52 3.52 3.52 0 0 0-3.52 3.52 3.52 3.52 0 0 0 3.52 3.52 3.52 3.52 0 0 0 3.52-3.52"/><path fill="#fdfdfd" d="M401.83 403.01q-11.51.44-18.31 8.01c-14.03 15.6-4.47 41.95 16.4 44.19q9.28 1 17.45-6.2.59-.55 1.88-2.01.06-.06.12-.13v.01c-3.05 8-14 13.38-21.95 14.07q-14.42 1.25-23.41-10.7c-4.27-5.67-7.15-14.27-6.57-21.81q1.17-15.29 12.89-23.63 9.37-6.67 21.5-1.8"/><path fill="#6e3d19" d="M417.37 449.01q-8.17 7.2-17.45 6.2c-20.87-2.24-30.43-28.59-16.4-44.19q6.8-7.57 18.31-8.01 2.74.8 4.67 2.71a.35.35 0 0 1-.23.6q-4.88.29-6.56.58c-6.04 1.06-14.37 7.96-15.61 14.11q-2.45 12.22 4.24 20.9c4.68 6.05 11.58 9.32 19.14 8.55q2.38-.24 9.89-1.45"/><path fill="#070403" d="M515 411.01c6.15 2.88 11.93 8.63 15.4 14.22a.26.26 0 0 1-.38.35q-8.2-6.21-17.01-10.33-8.8-4.11-18.83-6.44a.26.26 0 0 1 .03-.52c6.51-.91 14.64-.16 20.79 2.72"/><circle cx="401.2" cy="417.9" r="7.34" fill="#fdfdfd"/><path fill="#070403" d="M481.66 550.47a.46.46 0 0 1-.7-.46q3.24-23.22 13.59-44.8a2.53 2.52-44.3 0 0 .03-2.09l-5.12-11.47a.64.63 74.8 0 0-.65-.38c-15.81 1.58-34.54-4.1-44.53-16.87-9.66-12.35-3.42-24.73 7.99-32.61q19.28-13.31 41.98-15.86 3.49-.39 8.73.49c15.27 2.57 18.04 16 14.97 29.42-2.79 12.17-10.35 24.58-21.17 31.81a.91.9-28.6 0 0-.33 1.11l4.98 11.17a2.14 2.13 87.9 0 0 1.23 1.15q13.86 5.05 28.04 13.44c4.96 2.94 9.41 6.52 13.46 9.99a.44.44 0 0 1-.35.77q-6.43-.89-12.79-3.48a.75.74-64.6 0 0-.94.34q-8.06 14.99-24.94 18.21-6.77 1.29-15.59-2.06a.48.48 0 0 0-.59.22q-3.23 6.23-5.88 10.32-.81 1.27-1.42 1.64m-7.79-110.43c-5.9 2.38-17.77 7.81-20.78 13.7a1.12 1.11 19.7 0 0 .76 1.6q2.1.45 4.68-.06 7.61-1.52 19.01-6.12 11.4-4.59 17.95-8.78 2.21-1.42 3.41-3.2a1.12 1.11-63.7 0 0-.56-1.67c-6.25-2.16-18.57 2.15-24.47 4.53m31.24 79.04q-8.22 3.46-11.21 12.97a.72.72 0 0 0 .61.93q8.1.95 15.54-2.18t12.42-9.59a.72.72 0 0 0-.25-1.09q-8.88-4.5-17.11-1.04M429.26 447.48q-4.04 9.65-6.07 19.64-.07.31-.25.4a.29.29 0 0 1-.42-.22q-1.57-11.66 2.58-21.56t13.57-16.96a.29.29 0 0 1 .45.15q.06.19-.11.45-5.7 8.45-9.75 18.1"/><path fill="#fdfdfd" d="M477.54 449.16q-11.4 4.6-19.01 6.12-2.58.51-4.68.06a1.12 1.11 19.7 0 1-.76-1.6c3.01-5.89 14.88-11.32 20.78-13.7s18.22-6.69 24.47-4.53a1.12 1.11-63.7 0 1 .56 1.67q-1.2 1.78-3.41 3.2-6.55 4.19-17.95 8.78"/><circle cx="394.01" cy="439.35" r="3.52" fill="#fdfdfd"/><path fill="#f7da90" d="m639.78 470.47 2.29 1.37a.89.88 18.5 0 1 .43.85c-1.27 13.14 1.01 25.02 9.31 34.73q7.31 8.56 18.89 12.26-2.53.4-5.28-.02a2.68 2.57 42.6 0 0-.91.02q-5.61 1.01-5.22 3.4l-5.93-1.35q-.35-.74-1.01-.68-1.32.12-1.84-1.09c-2.03-4.78-4.71-9.04-5.95-14.22q-.98-4.06-1.11-4.82c-.9-5.12-2.81-10.52-3.3-14.91q-.63-5.53-.37-15.54"/><path fill="#edae4d" d="M650.89 527.75q4.12 6.9 5.79 13.34c1.28 4.94 2.62 7.99 3.56 11.91 1.75 7.28 5.36 15.13 7.61 21.85q3.31 9.9 3.6 13.92.51 6.93 1.52 14.22.67 4.93-.56 9.44l-10.32-9.12a.35.35 0 0 0-.58.34q.95 4.42 1.08 9.35c.99 37.42-22.51 70.66-49.69 93.56a.5.5 0 0 1-.78-.17q-.25-.55.05-1.52 1.31-1.57 3.02-2.56a2.21 2.06.1 0 0 .7-.65c3.17-4.64 4.51-9.43 6.45-14.83q6.35-17.66 5.13-37.09c-.35-5.49-1.83-11.19-3.63-16.67a.44.44 0 0 0-.84.03q-3.01 12.47-9.2 24.1c-4.73 8.89-11.6 19.73-18.94 27.16q-7.33 7.42-11.47 11.8c-2.86 3.03-6.54 5.71-9.53 8.77a.46.45 29.1 0 1-.43.12q-.72-.18-.56-1.51c7.8-13.03 11.88-25.33 10.18-41.05q-.06-.54-.35-.78a.2.2 0 0 0-.32.11q-3.53 17.05-11.65 32.11-6.32 11.73-19.41 22.34a.26.26 0 0 1-.4-.29q3.04-8.06 3.09-16.15a.25.24-32.7 0 0-.47-.1c-4.6 10.03-10.92 18.92-18.31 28.24q-4.97 6.27-8.22 14.43l-2.66 2.72a8.61 8.55-7.4 0 0-1.17 1.51q-4.3 7.1-7.15 15.47a.53.53 0 0 1-1.02-.05q-.82-3.6-3.16-7.21-4.08-6.3-8.01-12.11c-3.34-8.76-9.07-15.05-16.3-24.4q-6.81-8.79-10.76-18.39a.25.24-56.7 0 0-.47.1q.06 9.24 3.98 17.62a.23.23 0 0 1-.34.28q-14.76-10.88-22.93-26.96-3.66-7.2-7.61-19.28c-.86-2.63-1.17-5.39-2-8.31a.37.37 0 0 0-.73.05q-2.15 17.05 6.27 32.74 2.38 4.44 5.18 10.2-13.5-8.92-24.42-20.85-4.11-4.5-7.45-9.53c-8.42-12.68-15.87-26.18-19.18-41.08a.46.46 0 0 0-.88-.05c-4.28 12.02-4.4 23.37-2.63 36.04q2.26 16.23 10.46 31.07.83 1.51 4.04 3.84 1.98 5.02-4.54-.59c-17.6-15.11-32.16-33.82-40.32-55.69q-7.86-21.1-5.07-42.76a.42.42 0 0 0-.66-.4q-5.97 4.23-10.33 9.64-1.06-7.62.03-14.88 5.28-3.4 10.65-6.55c4.7-2.75 8.38-8.14 11.95-12.46a1.34 1.04-19.2 0 0 .15-.23l1.53-3.31a1.27 1.27 0 0 1 1.51-.68l14.14 4.22a.31.31 0 0 1 .19.42q-2.52 5.75-2.67 12.46-.18 8.49.81 12.74c2.02 8.58 6.42 15.21 13 20.29a7.64 7.6 4.8 0 1 2.02 2.38q4.18 7.78 10.99 13.7a.38.38 0 0 0 .59-.45c-5.8-12.72-7.89-26.75-7.24-40.3a.44.43 63.5 0 0-.79-.27c-3.15 4.7-5.76 9.86-5.75 15.8a.28.27 27.8 0 1-.5.15q-6.6-9.56-7.31-21.4-.49-8 .4-13.9a.66.66 0 0 1 .75-.55c17.05 2.57 33.61 1.63 51.15-.07q2.78-.27 8.76-.06 13.16.46 22.51 10.04c3.53 3.63 7.78 9.18 10.67 13.7q.22.34.62.33a.53.52 84 0 0 .5-.63q-1.06-5.57-2.52-10.48a.16.16 0 0 1 .27-.16q13.79 14.08 21.19 33.11a.69.69 0 0 0 1.28 0q4.98-12.81 13.21-24.75 1.88-2.71 6.77-9.73a.12.12 0 0 1 .21.08L535 605.6a.53.53 0 0 0 .98.32q2.96-5.15 6.27-10.01c9.27-13.65 18.21-27.44 26.46-39.7q8.27-12.29 15.89-19.1c7.17-6.42 14.49-10.97 22.49-17.26q10.31-8.1 17.67-17.64a.55.54-39.1 0 1 .92.09q3.5 7.25 9.17 12.86 5.95 5.88 16.04 12.59m-28.97 89.46q-.22-6.58-2.66-10.97c-.96-1.72-2.25-3.35-3.21-5.21a.4.4 0 0 0-.75.21q.78 10.25-1.25 21.86c-1.23 7.11-3.52 12.95-6.46 19.12a.58.57 81.2 0 0 .91.67q1.96-1.85 4.35-4.28c2.78-2.84 4.62-6.66 7.3-10.66a4.77 4.69 89.5 0 1 1.21-1.25q8.34-6.01 11.03-13.58 8.02-22.54-4.4-42.43a.37.37 0 0 0-.68.28q2.87 12.06 2.3 24.5-.54 11.85-6.94 21.95a.41.41 0 0 1-.75-.21m-39.54-12.36q2.35 21.91-9.08 39.99a.33.33 0 0 1-.6-.1L569.95 633a.42.41 38.6 0 0-.82.09q.01 11.21-4.66 23.05c-2.5 6.33-7.81 11.8-12.38 16.25a.42.42 0 0 1-.7-.39q2.77-12.94.65-26.24-.22-1.39-1.04-2.7a.19.18-61 0 0-.34.1q.19 22.02-10.45 42.25a.35.35 0 0 0 .45.49q7.55-3.14 14.35-8.1c6.44-4.68 10.99-12.87 14.5-20.02q.95-1.93 3.34-3.99 1.84-1.59 3.45-3.88 12.25-17.43 8.55-39.03-.48-2.79-1.9-6.17a.3.29 30.8 0 0-.57.14m-135.72 1.31c-1.3 2.36-1.62 5.56-2.21 9.52-2.04 13.79 2.81 27.36 11.03 38.37a2.9 2.5 87.9 0 0 .4.43l3.5 3.06a2.7 2.7 0 0 1 .55.67q2.6 4.51 6.86 11.49 3.05 4.99 7.08 7.96 7.38 5.45 16.52 8.71a.29.29 0 0 0 .35-.43q-11.28-19.11-11.12-42.51a.38.38 0 0 0-.75-.1q-3.97 14.99.97 30.45a.43.42-79.2 0 1-.67.46c-6.54-5.5-11.3-10.61-14.36-19.23q-3.93-11.07-3.95-21.19a.35.35 0 0 0-.69-.08l-3 12.35a.31.3-67.1 0 1-.46.19q-.3-.19-.6-.64c-7.71-11.65-10.14-25.57-8.88-39.3a.31.3 62.2 0 0-.57-.18"/><path fill="#070403" d="M560.26 534.51q-2.68 6.49-7.39 12.37-9.7 12.12-22.89 18.48c-19.68 9.48-42.81 11.71-62.32.27q-6.62-3.96-12.09-9.4-.29-.29-.31-.49a.25.25 0 0 1 .36-.25c19.75 9.5 38.26 13.19 59.98 6.37 24.25-7.62 38.75-23.83 48.57-46.69a.31.31 0 0 1 .59.15q-.62 9.58-4.5 19.19"/><path fill="#de6260" d="M510.05 530.8q-7.44 3.13-15.54 2.18a.72.72 0 0 1-.61-.93q2.99-9.51 11.21-12.97 8.23-3.46 17.11 1.04a.72.72 0 0 1 .25 1.09q-4.98 6.46-12.42 9.59"/><path fill="#f7da90" d="m650.89 527.75 3.83 1.67a1.07 1-40.9 0 0 .75.03l2.51-.81 2.16 2.89a1.4 1.4 0 0 1 .25.69c.65 11.82 4.84 19.28 10.4 32.23 2.96 6.91 7.04 18.36 8.54 26.08q3.08 15.79-.03 32.34a.16.15 34.2 0 1-.28.05l-6.61-10.49q1.23-4.51.56-9.44-1.01-7.29-1.52-14.22-.29-4.02-3.6-13.92c-2.25-6.72-5.86-14.57-7.61-21.85-.94-3.92-2.28-6.97-3.56-11.91q-1.67-6.44-5.79-13.34"/><path fill="#d88934" d="M621.92 617.21a.41.41 0 0 0 .75.21q6.4-10.1 6.94-21.95.57-12.44-2.3-24.5a.37.37 0 0 1 .68-.28q12.42 19.89 4.4 42.43-2.69 7.57-11.03 13.58a4.77 4.69 89.5 0 0-1.21 1.25c-2.68 4-4.52 7.82-7.3 10.66q-2.39 2.43-4.35 4.28a.58.57 81.2 0 1-.91-.67c2.94-6.17 5.23-12.01 6.46-19.12q2.03-11.61 1.25-21.86a.4.4 0 0 1 .75-.21c.96 1.86 2.25 3.49 3.21 5.21q2.44 4.39 2.66 10.97"/><path fill="#f7da90" d="M363.61 577.52q.33 3.68-1.76 7.12a3.09 3.02-21.7 0 0-.36.81c-1.74 6.02-3.32 11.37-6.66 15.53a.46.46 0 0 0 .59.68q.8-.45 1.76-.52-1.09 7.26-.03 14.88l-5.98 9.33a.37.37 0 0 1-.67-.13q-2.76-14.32-.48-28.57a3.89 3.83 73.1 0 1 1.12-2.14q7.39-7.08 12.47-16.99M582.38 604.85a.3.29 30.8 0 1 .57-.14q1.42 3.38 1.9 6.17 3.7 21.6-8.55 39.03-1.61 2.29-3.45 3.88-2.39 2.06-3.34 3.99c-3.51 7.15-8.06 15.34-14.5 20.02q-6.8 4.96-14.35 8.1a.35.35 0 0 1-.45-.49q10.64-20.23 10.45-42.25a.19.18-61 0 1 .34-.1q.82 1.31 1.04 2.7 2.12 13.3-.65 26.24a.42.42 0 0 0 .7.39c4.57-4.45 9.88-9.92 12.38-16.25q4.67-11.84 4.66-23.05a.42.41 38.6 0 1 .82-.09l2.75 11.74a.33.33 0 0 0 .6.1q11.43-18.08 9.08-39.99M446.66 606.16a.31.3 62.2 0 1 .57.18c-1.26 13.73 1.17 27.65 8.88 39.3q.3.45.6.64a.31.3-67.1 0 0 .46-.19l3-12.35a.35.35 0 0 1 .69.08q.02 10.12 3.95 21.19c3.06 8.62 7.82 13.73 14.36 19.23a.43.42-79.2 0 0 .67-.46q-4.94-15.46-.97-30.45a.38.38 0 0 1 .75.1q-.16 23.4 11.12 42.51a.29.29 0 0 1-.35.43q-9.14-3.26-16.52-8.71-4.03-2.97-7.08-7.96-4.26-6.98-6.86-11.49a2.7 2.7 0 0 0-.55-.67l-3.5-3.06a2.9 2.5 87.9 0 1-.4-.43c-8.22-11.01-13.07-24.58-11.03-38.37.59-3.96.91-7.16 2.21-9.52"/><path fill="#d88934" d="m612.17 704.87.47-14.29a.34.33 69.7 0 0-.56-.26q-.25.23-.38.64c-2.53 7.75-7.14 15.22-11.26 21.32q-7.71 11.39-17.48 19.18c-12.64 10.08-23.55 16.71-38.13 25.34q-2.48 1.47-10.02 7.01-11.84 8.69-18.93 21.12a.34.34 0 0 1-.58.01q-7.09-11.57-16.84-18.88c-6.52-4.88-13.39-9.16-22.94-14.58q-11.83-6.71-22.4-14.36-23.92-17.31-35.35-45.28a.13.13 0 0 0-.25.05l.55 13.93q-3.21-2.33-4.04-3.84-8.2-14.84-10.46-31.07c-1.77-12.67-1.65-24.02 2.63-36.04a.46.46 0 0 1 .88.05c3.31 14.9 10.76 28.4 19.18 41.08q3.34 5.03 7.45 9.53 10.92 11.93 24.42 20.85 7.34 9.38 17.97 16.79 3.6 2.5 15.27 9.2 5.02 2.88 12.47 10.36 3.93 5.81 8.01 12.11 2.34 3.61 3.16 7.21a.53.53 0 0 0 1.02.05q2.85-8.37 7.15-15.47a8.61 8.55-7.4 0 1 1.17-1.51l2.66-2.72q7.74-7.43 11.52-9.88 7.87-5.12 15.62-10.41 11.12-7.6 18.72-18.57-.16 1.33.56 1.51a.46.45 29.1 0 0 .43-.12c2.99-3.06 6.67-5.74 9.53-8.77q4.14-4.38 11.47-11.8c7.34-7.43 14.21-18.27 18.94-27.16q6.19-11.63 9.2-24.1a.44.44 0 0 1 .84-.03c1.8 5.48 3.28 11.18 3.63 16.67q1.22 19.43-5.13 37.09c-1.94 5.4-3.28 10.19-6.45 14.83a2.21 2.06.1 0 1-.7.65q-1.71.99-3.02 2.56"/><path fill="#f7da90" d="M604.74 823.94q.99-2.68 2.13-5.25 1.52-3.4 2.01-5.29c1.87-7.16 4.24-14.8 7.22-20.99q3.69-7.66 5.95-13.03 4.26-10.13 9.18-19.95 6.34-12.68 9.22-19.89 3.2-8.02 9.94-25.15 3.37-8.57 4.36-12.65 4.17-17.23 5.55-23.32a5.22 5.12-38.8 0 0 .12-1.01l.18-7.95q2.03-6.59 2.17-13.49l2.84-7.91a.28.28 0 0 1 .53.03q.32 1.36.41 2.88.25 4.11.18 14.78c-.17 26.24-8.16 50.87-19.55 74.95-7.88 16.67-20.63 40.74-29.25 62.24q-4.36 10.89-7.07 22.22a.52.52 0 0 1-.64.37zM369.1 662.21q-.93 1.5-.62 3.86.41 3 .9 5.94-.26 5.88.2 7.68c3.03 11.76 4.51 22.54 8.74 32.99q4.74 11.7 8.45 21.68c1.65 4.47 3.46 7.87 5.07 11.75q1.6 3.85 4.09 8.69 6.44 12.51 6.66 12.93c3.45 6.64 5.65 13.13 8.54 18.72q3.91 7.54 6.22 14.03 3.88 10.94 7.7 22.06a.82.82 0 0 0 .99.52q7.96-2.21 15.66.49-10.74-.6-20.56 3.17a.91.91 0 0 1-1.21-.65c-1.14-4.96-2.32-9.97-4.23-14.99-13.2-34.7-33.69-64.94-44.9-99.11q-9.87-30.08-7.06-61.71a.33.33 0 0 1 .64-.09z"/><path fill="#d88934" d="M662.77 655.97q-.14 6.9-2.17 13.49-3.57 5.73-5.13 9.52-5.26 12.81-7.62 17.37-3.83 7.39-17.57 27.42-3.67 5.34-11.2 13.06-15.11 15.49-21.02 20.72c-9.63 8.53-19.71 15.11-32.33 23.66-9.73 6.59-15.71 17.97-17.13 29.56-1.52 12.33-1.14 25.32-1.54 36.22-.2 5.23 1.9 14.45 6.46 18.66q2.39 2.2 3.59 2.57 5.22 1.6 10.37 3.77l-1.8 7.07a.72.71 13.1 0 1-.84.52c-12.69-2.55-24.78-6.51-24.53-22.05q.08-4.88 1-28.26 1.29-32.64 1.45-60.17a.97.97 0 0 1 .45-.8q3.1-2.01 4.14-2.64 12.84-7.87 25.87-16.16 17.99-11.44 30.72-27.74a4.58 4.57 7.9 0 1 1.88-1.42q4.66-1.88 9.27-5.29 31.46-23.31 47.68-59.08"/><path fill="#070403" d="M572.87 703.54q-7.6 10.97-18.72 18.57-7.75 5.29-15.62 10.41-3.78 2.45-11.52 9.88 3.25-8.16 8.22-14.43c7.39-9.32 13.71-18.21 18.31-28.24a.25.24-32.7 0 1 .47.1q-.05 8.09-3.09 16.15a.26.26 0 0 0 .4.29q13.09-10.61 19.41-22.34 8.12-15.06 11.65-32.11a.2.2 0 0 1 .32-.11q.29.24.35.78c1.7 15.72-2.38 28.02-10.18 41.05"/><path fill="#d88934" d="M463.65 872.52c5.53-2.04 11.26-3.29 15.28-7.79q2.21-2.47 4.4-8.64c1.23-3.44.85-10.28.73-13.59q-.82-24.24-.82-24.47-.3-9.76-4.01-18.77-5.07-12.3-16.92-19.29-2.88-1.7-16.19-10.38-8.08-5.27-15.28-11.85-16.47-15.04-24.36-24.24-13.08-15.25-23.49-33.96-1.86-3.34-4.72-10.49-3.62-9.04-8.89-17.04-.49-2.94-.9-5.94-.31-2.36.62-3.86c2.25 4.35 4.37 8.84 6.87 12.87q13.99 22.49 35.74 39.19 4.77 3.67 8.71 5.57 3.61 1.75 4.75 2.39a6.64 6.58 85 0 1 2.03 1.72q12.15 15.44 30.77 26.86 14.65 8.98 27.2 16.25 1.31.76 3.17 2.32a1.08 1.07-69.8 0 1 .39.85q-.19 11.3-.05 15.52 2.13 60.99 2.69 71.24c.84 15.5-12.3 20.95-25.01 23.1a.98.98 0 0 1-1.11-.74z"/><path fill="#070403" d="M503.84 742.73q-7.45-7.48-12.47-10.36-11.67-6.7-15.27-9.2-10.63-7.41-17.97-16.79-2.8-5.76-5.18-10.2-8.42-15.69-6.27-32.74a.37.37 0 0 1 .73-.05c.83 2.92 1.14 5.68 2 8.31q3.95 12.08 7.61 19.28 8.17 16.08 22.93 26.96a.23.23 0 0 0 .34-.28q-3.92-8.38-3.98-17.62a.25.24-56.7 0 1 .47-.1q3.95 9.6 10.76 18.39c7.23 9.35 12.96 15.64 16.3 24.4"/><path fill="#edae4d" d="m660.6 669.46-.18 7.95a5.22 5.12-38.8 0 1-.12 1.01q-1.38 6.09-5.55 23.32-.99 4.08-4.36 12.65-6.74 17.13-9.94 25.15-2.88 7.21-9.22 19.89-4.92 9.82-9.18 19.95-2.26 5.37-5.95 13.03c-2.98 6.19-5.35 13.83-7.22 20.99q-.49 1.89-2.01 5.29-1.14 2.57-2.13 5.25-19.07-5.16-35.23 6.29-.44.3-.6.62a.35.35 0 0 0 .39.49l7.92-1.84 16.43 1.58a2.85 2.71 59.6 0 1 .94.27q8.03 3.93 9.92 5.4 9.68 7.59 15.57 18.16c2.37 4.24 2.21 7.38 3.66 11.28-3.94.91-7.63 2.99-11.74 2.28q-.95-12.25-9.9-21.33-2.04-2.07-4.27-2.93a.24.23 86.7 0 0-.29.33c4.04 8.07 6.96 14.87 6.96 24.6q-7.37 5.2-18.5 4.07-6.83-.69-10.99-1.53-.41-13.24-10.41-22.78-.32-.31-.7-.3a.35.34-13.9 0 0-.3.48q4.97 10.92 3.88 22.91-5.15-2.17-10.37-3.77-1.2-.37-3.59-2.57c-4.56-4.21-6.66-13.43-6.46-18.66.4-10.9.02-23.89 1.54-36.22 1.42-11.59 7.4-22.97 17.13-29.56 12.62-8.55 22.7-15.13 32.33-23.66q5.91-5.23 21.02-20.72 7.53-7.72 11.2-13.06 13.74-20.03 17.57-27.42 2.36-4.56 7.62-17.37 1.56-3.79 5.13-9.52M463.65 872.52q-1.02-11.92 3.57-22.76a.34.34 0 0 0-.54-.38q-10.3 9.62-10.69 23.27c-4.32.69-8.99 1.73-13 1.83q-8.1.2-16.16-2.4-.85-13.79 7.01-26.51a.54.54 0 0 0-.77-.73c-8.29 5.68-13.98 15.24-13.98 25.26l-11.04-2.78c.56-9.91 5.49-16.23 11.63-23.37 6.62-7.68 15.84-13.59 26.63-12.79a.53.53 0 0 0 .43-.89q-.38-.41-1.36-.68c6.37.12 10.29 1.29 15.6 2.34a.32.32 0 0 0 .25-.57q-8.75-6.31-19.53-7.81-7.7-2.7-15.66-.49a.82.82 0 0 1-.99-.52q-3.82-11.12-7.7-22.06-2.31-6.49-6.22-14.03c-2.89-5.59-5.09-12.08-8.54-18.72q-.22-.42-6.66-12.93-2.49-4.84-4.09-8.69c-1.61-3.88-3.42-7.28-5.07-11.75q-3.71-9.98-8.45-21.68c-4.23-10.45-5.71-21.23-8.74-32.99q-.46-1.8-.2-7.68 5.27 8 8.89 17.04 2.86 7.15 4.72 10.49 10.41 18.71 23.49 33.96 7.89 9.2 24.36 24.24 7.2 6.58 15.28 11.85 13.31 8.68 16.19 10.38 11.85 6.99 16.92 19.29 3.71 9.01 4.01 18.77 0 .23.82 24.47c.12 3.31.5 10.15-.73 13.59q-2.19 6.17-4.4 8.64c-4.02 4.5-9.75 5.75-15.28 7.79"/><path fill="#f7da90" d="M640.63 805.4q-1.1-.01-1.11-.14a1.74 1.73-32.2 0 1 .26-1.13c2.5-3.84 5.91-8.25 8.25-13.05q1.1-2.24 6.22-11.32c8.84-15.69 11.12-34.74 8.2-52.55l3.45-9.79a.32.32 0 0 1 .6 0q4.31 12.28 4.53 25.58c.26 15.19-5.59 28.19-13.83 40.7q-4.9 7.43-16.57 21.7M367.84 729.46q-2.83 17.5 1.18 34.31 1.78 7.43 6.03 15.43 8.16 15.34 16.94 27.83-1.87-.03-2.38-.64-9.57-11.46-17.32-22.93c-7.57-11.22-12.78-23.55-12.91-37.18q-.13-13.65 4.05-26.33.28-.83.79-.34a.28.27-77 0 1 .07.12z"/><path fill="#d88934" d="M662.45 727.21c2.92 17.81.64 36.86-8.2 52.55q-5.12 9.08-6.22 11.32c-2.34 4.8-5.75 9.21-8.25 13.05a1.74 1.73-32.2 0 0-.26 1.13q.01.13 1.11.14-8.14 1.1-13.59 6.31a.4.4 0 0 0 .37.68q5.8-1.28 12.22-.77-.61.27-.72.47a.36.36 0 0 0 .18.5c6.05 2.53 12.23 7.15 16.23 11.71q5.81 6.64 6.44 16.07-3.17 2.29-7 3.16a.51.51 0 0 1-.62-.46q-.88-14.32-13.15-20.08a.33.32 84.6 0 0-.4.49q6.7 9.57 6.01 20.97a1.52 1.52 0 0 1-1.36 1.42l-10.33 1.02a1.04 1.04 0 0 1-1-.5q-5.76-9.62-14.21-16.24a1.8 1.79 25.3 0 1-.65-1.81q2.81-12.71 8.35-25.72 8.4-19.73 18.44-38.8c6.07-11.52 11.42-24.24 16.61-36.61M369.57 842.56q.79-10.27 6.31-16.67 4.59-5.34 10.21-9.05 3.44-2.27 7.58-2.22a.45.45 0 0 0 .42-.62q-.17-.45-.98-1.12l10.35 1.06a.31.31 0 0 0 .23-.54q-5.52-4.76-11.7-6.37-8.78-12.49-16.94-27.83-4.25-8-6.03-15.43-4.01-16.81-1.18-34.31 3.44 7.57 6.65 14.82c5.6 12.67 12.14 24.43 17.76 35.74 8.91 17.91 15.9 32.17 19.74 49.43a1.59 1.58-25.3 0 1-.58 1.6q-8.75 6.62-14.26 16.65a.96.96 0 0 1-.77.5q-3.32.25-9.58-.49c-3.08-.36-2.53-2.18-2.44-4.75q.33-9.44 5.54-17.92a.42.42 0 0 0-.54-.6c-8.34 4.21-11.72 11.01-12.48 20.46a.46.46 0 0 1-.56.41q-4.18-.91-6.75-2.75"/><path fill="#f7da90" d="M639.63 811.62q7.56.66 13.63 4.93c5.39 3.79 10.23 9.02 11.8 15.42q1.29 5.27-3.3 8.4-.63-9.43-6.44-16.07c-4-4.56-10.18-9.18-16.23-11.71a.36.36 0 0 1-.18-.5q.11-.2.72-.47M393.11 812.88q.81.67.98 1.12a.45.45 0 0 1-.42.62q-4.14-.05-7.58 2.22-5.62 3.71-10.21 9.05-5.52 6.4-6.31 16.67c-4.71-2.83-4.38-8.31-2.24-12.52q7.88-15.51 25.78-17.16M624.07 871.13l-.33-4.94c-1.45-3.9-1.29-7.04-3.66-11.28q-5.89-10.57-15.57-18.16-1.89-1.47-9.92-5.4a2.85 2.71 59.6 0 0-.94-.27l-16.43-1.58q24.4-4.9 41.47 10.8c8.6 7.91 13.31 20.35 5.38 30.83M445.38 829.59q.98.27 1.36.68a.53.53 0 0 1-.43.89c-10.79-.8-20.01 5.11-26.63 12.79-6.14 7.14-11.07 13.46-11.63 23.37q-.41 1.41-.48 3-.03.72-.38.89-.37.19-1.01.09-3.53-5.06-3.01-11.31c.66-8.08 4.44-14.38 10.65-19.82q13.22-11.59 31.56-10.58"/><path fill="#d88934" d="m623.74 866.19.33 4.94q-4.94 4.46-12.36 6.42a.47.47 0 0 1-.59-.5l.88-8.58c4.11.71 7.8-1.37 11.74-2.28M419.09 870.1l1.08 8.59a.23.23 0 0 1-.28.25c-4.9-1.3-10.46-3.65-13.71-7.64q.64.1 1.01-.09.35-.17.38-.89.07-1.59.48-3zM604.5 869.14q-.08 4.71-2.53 10.09a1.94 1.93 8.3 0 1-1.48 1.1q-13.36 1.86-26.12.71a.82.82 0 0 1-.71-1.09q1.28-3.59 1.35-8.27 4.16.84 10.99 1.53 11.13 1.13 18.5-4.07M455.99 872.65l1.52 8.55a.57.57 0 0 1-.51.67q-13.17 1.27-26.24-.39a1.9 1.9 0 0 1-1.6-1.36l-2.33-8.04q8.06 2.6 16.16 2.4c4.01-.1 8.68-1.14 13-1.83"/></svg>