<svg xmlns="http://www.w3.org/2000/svg" viewBox="0 0 1024 1024"><g fill="none" stroke-width="2"><path stroke="#838181" d="m678.94 248.61 13.27 4.29a.23.23 0 0 0 .28-.31q-7.58-18.38-24.4-28.04a.29.29 0 0 1 .12-.54l6.25-.55a.23.23 0 0 0 .15-.39c-6.24-6.71-13.26-11.95-22.24-14.68-15.36-4.68-29.69-4.57-44.81-.55a.93.92-31 0 1-.86-.21q-14.73-13.55-32.56-22.75-32.14-16.57-68.86-15.07c-33.27 1.36-64.43 15.79-88.32 38.5a1.07 1.06 29.9 0 1-.99.26c-16.26-4-33.92-3.8-49.43 2.74q-9.93 4.2-16.71 12.9a.24.24 0 0 0 .15.39l6.03 1.04a.25.25 0 0 1 .07.47c-11.17 6.01-18.96 16.25-23.65 28.16a.42.41.6 0 0 .53.54l12.22-4.41a.39.39 0 0 1 .46.59q-19.31 27.91-42.4 53.43c-14.9 16.46-30.34 37.39-24.29 61.12q2.2 8.68 5.66 15.53a.63.63 0 0 1-.37.89q-19.14 6.03-23.41 25.43a1.21 1.2-6.1 0 1-.67.83q-8.73 3.95-13.37 11.35c-9.7 15.49-4.41 35.19 4.12 49.84 5.63 9.67 12.36 18.18 20.23 28.82q7.35 9.93 10.76 21.64 5.36 18.38 8.98 35.48c2.36 11.16 5.05 21.13 7.29 31.26q3.33 15.09 10.15 29.58 3.43 7.29 11.68 21.33 2.83 4.81 6.04 8.71a.47.46 36.9 0 0 .79-.11l3.9-9.19a.37.36 38.5 0 1 .63-.07q3.31 4.64 8.89 6.89c7.81 3.16 17.65 4.71 26.39 7.11 9.88 2.71 19.05 6.57 26.87 12.55a1.1 1.1 0 0 1 .44.8l1.19 13.54a.51.51 0 0 1-.73.51q-8.77-4.13-18.95-3.31c-21.32 1.74-36.64 18.81-40.18 39.2-4.66 26.82 4.66 52.55 21.53 73.59q8.4 10.46 24.01 23.76a.36.36 0 0 1-.12.61c-14.21 4.69-26.54 16.52-28.61 31.66-2.42 17.7 17.45 19.77 29.68 20.5q13.06.79 29.73.06c35.82-1.56 60.83-2.35 90.16-5.93a8.28 8.17-39.6 0 1 3.33.29q18.81 5.63 37.7 2.02a.39.39 0 0 1 .43.22c6.45 14.3 28.34 16.81 42.1 17.98 15.86 1.35 33.74.74 48.87-4.81q8.67-3.18 12.76-10.63a1.04 1.04 0 0 1 .99-.54q18.49 1.17 36.28-1.56 5.69-.88 11.67-3.07 10.14-3.71 9.89-14.31c-.21-8.6-3.69-14.36-7.98-21.43a.39.39 0 0 1 .3-.6c24.06-2 50.62-11.99 66.08-31.16a.43.43 0 0 0-.3-.7l-12.89-1.09a.5.5 0 0 1-.13-.97q27.12-9.62 39.17-36.91a.45.45 0 0 0-.65-.57q-4.05 2.39-9.22 3.25a.36.36 0 0 1-.35-.56q17.22-23.9 15.73-54.15a.53.52-24.2 0 0-.9-.34l-5.16 5.16a.36.35-19.9 0 1-.61-.28c1.9-22.01-4.85-43.77-17.27-61.9q-5.54-8.08-13.35-14.15a.36.36 0 0 0-.58.3q2.86 43.53-21.48 79.47-8.24 12.16-19 21.6a.39.39 0 0 1-.64-.37q2.63-13.94-.07-27.28c-4.26-21.07-23.05-41.11-46.41-33.51l-6.41 2.08a.28.27-89.8 0 1-.34-.35q5.74-18.19 9.93-36.35 8.2-35.55.1-70.99a4.44 4.39-41.6 0 1 .16-2.5c8.54-23.21 6.35-47.57-3.43-69.69-7.71-17.43-14.25-30.02-13.22-48.09a.36.36 0 0 1 .65-.2c8.54 10.88 20.67 19 34.34 21.1 4.11.63 8.12.39 12.27-.27a.51.51 0 0 0 .41-.66q-5.35-17.69-.02-34.99c2.18-7.06 4.84-14.14 8.16-21.35a.24.24 0 0 1 .46.04l2.86 11.79a.39.39 0 0 0 .69.15q8.9-11.88 16.92-24.26c8.41-12.98 17.29-29.57 15.36-45.58-2.44-20.19-17.19-36.07-30.85-50.8q-18.28-19.73-39.37-47.84a.28.27 80.2 0 1 .3-.43M222.82 466.88c3.43 9.75 9.49 18.84 19.04 23.04a.5.49 83.6 0 0 .6-.75q-5.9-7.89-10.09-16.47-2.11-4.34-3.4-7.99-1.28-3.65-2.35-8.35-2.1-9.32-2.44-19.16a.5.49 57.7 0 0-.93-.21c-4.83 9.26-3.86 20.14-.43 29.89M207.53 475.27q3.77 9.02 13.32 13.59a.56.56 0 0 0 .71-.83c-2.89-4.16-6.25-9.35-8.62-15.02-2.38-5.68-3.71-11.72-4.64-16.69a.56.56 0 0 0-1.09-.08q-3.46 10 .32 19.03" vector-effect="non-scaling-stroke"/><path stroke="#838181" d="M305.17 729.61c-1.35 18.57 1.82 38.55 12.52 53.48q.27.38.62.44a.29.28-4.7 0 0 .32-.37q-8.48-25.94-6.51-53.04 1.97-27.11 14.1-51.55a.29.28 13 0 0-.25-.41q-.36.01-.68.34c-12.75 13.23-18.77 32.55-20.12 51.11M287.62 758.22q.08-.15.05-.49-.74-7.52-.94-10.98-1.3-22.74 5.21-43.33 1.49-4.72 3.44-10.27a.38.38 0 0 0-.63-.4q-3.49 3.39-5.78 7.46c-8.41 14.97-11.48 32.61-6.49 48.79q1.58 5.15 4.2 9.26a.55.55 0 0 0 .94-.04" vector-effect="non-scaling-stroke"/><path stroke="#7b5928" d="M405.32 226.64q.16-1.51 1.13-3.22" vector-effect="non-scaling-stroke"/><path stroke="#817049" d="m406.45 223.42 5-8.34a.34.33-71.5 0 0-.25-.51c-16.22-1.69-31.87-1.44-46.71 6.01a.35.34 42.6 0 0 .03.63q4.04 1.63 7.5 4.76a.27.26 57.9 0 1-.1.45q-14.98 4.34-25.11 16.58a.2.2 0 0 0 .19.33l7.26-1.49" vector-effect="non-scaling-stroke"/><path stroke="#7b5928" d="M354.26 241.84q8.18-1.21 16.16.66a.4.39 45.1 0 1 0 .77l-7.87 1.73" vector-effect="non-scaling-stroke"/><path stroke="#817049" d="m362.55 245-6.95 2.26a1.36 1.34-83.8 0 0-.75.61c-11.47 20.1-24.58 38.87-39.72 56.25-10.18 11.67-21.18 23.53-26.47 38.01-4.53 12.38-1.47 26.2 4.4 37.6a1.48 1.46 86.5 0 0 .79.71q1.01.4 2.24.34" vector-effect="non-scaling-stroke"/><path stroke="#71471d" d="M296.09 380.78q5.89 1.06 11.14 4.31a1.26 1.25 50.6 0 0 1.09.11q5.38-2.04 12.33-2.99" vector-effect="non-scaling-stroke"/><path stroke="#7b5928" d="m320.65 382.21 5.07.35" vector-effect="non-scaling-stroke"/><path stroke="#71471d" d="m325.72 382.56 7.69 2.4" vector-effect="non-scaling-stroke"/><path stroke="#7b5928" d="M333.41 384.96q8.66 4.35 13.83 12.55 6.32 10.03 8.52 23.48" vector-effect="non-scaling-stroke"/><path stroke="#71471d" d="M355.76 420.99q1.79 10.26 2.07 20.93a.3.3 0 0 0 .52.2q5.21-5.38 8.67-11.78c5.53-10.2 9.15-20.61 10.03-32.07q.73-9.42.19-17.27c-.44-6.45-1.15-16.23-2.38-25.27q-1.88-13.85-2.14-22.72-.63-21.39 4.56-41.54c3.69-14.31 10.3-26.68 19.5-37.98" vector-effect="non-scaling-stroke"/><path stroke="#7b5928" d="m396.78 253.49 1.14-.84a.22.21 79.1 0 1 .33.23q-.38 1.52-1.19 2.77" vector-effect="non-scaling-stroke"/><path stroke="#71471d" d="M397.06 255.65q-3.14 4.97-5.17 10.01-10.84 26.88-10.7 54.6.09 17.44 1 25.01c2.3 18.97 4.07 29.36 4.01 44.98q-.07 16.82-5.82 32.46a1.27 1.27 0 0 0 .05 1q7.99 16.28 19.76 28.87 7.21 7.71 12.32 13c3.17 3.27 6.98 6.06 10.51 9.03a.4.4 0 0 1-.41.68q-21.72-9.15-37.42-26.7" vector-effect="non-scaling-stroke"/><path stroke="#817049" d="m385.19 448.59-4.35-5.84a.49.49 0 0 0-.87.35q.83 6.98.16 14.19c-1.25 13.47-8.99 26.05-14.16 38.19a1.48 1.45 47.2 0 0-.03 1.06l3.08 8.77" vector-effect="non-scaling-stroke"/><path stroke="#7b5928" d="M369.02 505.31c3.76 10.19 6.98 19.01 6.46 29.44" vector-effect="non-scaling-stroke"/><path stroke="#71471d" d="M375.48 534.75q-.1.73-.35 1.17a.45.45 0 0 1-.8-.04l-7.17-15.95" vector-effect="non-scaling-stroke"/><path stroke="#7b5928" d="m367.16 519.93-10.96-25.01" vector-effect="non-scaling-stroke"/><path stroke="#71471d" d="M356.2 494.92c-4.27-12.43-7.27-26.29-7.09-39.52" vector-effect="non-scaling-stroke"/><path stroke="#7b5928" d="M349.11 455.4c1.93-17.16.18-38.66-9.22-53.85" vector-effect="non-scaling-stroke"/><path stroke="#817049" d="M339.89 401.55q-9.83-14.93-26.97-9.38a.9.89-13.9 0 0-.61 1l.8 4.83" vector-effect="non-scaling-stroke"/><path stroke="#7b5928" d="M313.11 398q.44 6.89-1.39 13.59a.38.38 0 0 1-.75-.05q-.77-6.43-3.13-11.32" vector-effect="non-scaling-stroke"/><path stroke="#817049" d="M307.84 400.22q-2.85-9.04-10.35-10.69-7.68-1.68-15.43 2.27-9.65 4.93-12.71 15.34-.93 3.15 1.6 6.52" vector-effect="non-scaling-stroke"/><path stroke="#7b5928" d="m270.95 413.66 8.41 13.08a.36.36 0 0 1-.51.49l-11.2-7.8" vector-effect="non-scaling-stroke"/><path stroke="#817049" d="m267.65 419.43-3.47-3.19a1.42 1.42 0 0 0-1.66-.19c-12.86 7.17-15.03 22.87-10.39 35.7q4.82 13.3 13.61 24.88 10.98 14.47 14.62 19.78 7.34 10.71 11.33 26.38 5.49 21.56 10.71 45.64 3.54 16.35 9.42 34.22 2.1 6.36 6.32 12.48" vector-effect="non-scaling-stroke"/><path stroke="#71471d" d="m318.14 615.13 7.63 15.95a.39.39 0 0 0 .69.02l4.72-8.17a.85.85 0 0 1 1.53.11c3.15 7.81 7.29 13.23 16.04 15q12.06 2.43 20.06 4.68 25.92 7.27 42.66 27.55.26.33.4.81a.3.3 0 0 1-.44.33l-8.27-4.77a.36.36 0 0 0-.55.32q.42 22.92 5.03 45.55" vector-effect="non-scaling-stroke"/><path stroke="#7b5928" d="m407.64 712.51 2.3 9.79a.18.18 0 0 1-.33.14q-6.64-10.43-10.25-22.43" vector-effect="non-scaling-stroke"/><path stroke="#817049" d="m399.36 700.01-2.6-11.36a1.68 1.67 7.8 0 0-.83-1.09c-10.5-5.83-24.39-6.12-34.5.58-12.91 8.54-19.21 23.3-19.23 38.65-.02 17.22 6.28 34.53 16.17 48.59q13.37 18.98 33 33.75 1.29.97 3.53.54" vector-effect="non-scaling-stroke"/><path stroke="#7b5928" d="M394.9 809.67q18.81-.46 33.05 13.12a.29.28-11.9 0 1-.31.47l-8.9-3.65" vector-effect="non-scaling-stroke"/><path stroke="#817049" d="M418.74 819.61q-15.11-4.94-30.35-1.48-18.31 4.16-26.04 20.71-2.49 5.33-1.32 10.24" vector-effect="non-scaling-stroke"/><path stroke="#71471d" d="M361.03 849.08c2.62 3.78 7.32 5.16 11.84 5.53a.49.49 0 0 0 .53-.47l.36-7.43" vector-effect="non-scaling-stroke"/><path stroke="#7b5928" d="M373.76 846.71q2.65-14.16 15.32-20.52a.41.41 0 0 1 .5.63q-7.8 9.32-8.47 21.72" vector-effect="non-scaling-stroke"/><path stroke="#71471d" d="M381.11 848.54q-.35 3.49.47 6.73a.94.94 0 0 0 .91.71h24.26a.51.51 0 0 0 .51-.49l.28-8.21" vector-effect="non-scaling-stroke"/><path stroke="#7b5928" d="M407.54 847.28q2.32-11.61 11.77-18.55a.33.33 0 0 1 .49.43q-4.28 7.61-4.91 17.36" vector-effect="non-scaling-stroke"/><path stroke="#71471d" d="m414.89 846.52.23 8.27a.63.63 0 0 0 .65.62q37.13-1.23 73.9-4.26a.26.26 0 0 0 .13-.48c-2.64-1.82-5.75-3.77-7.83-5.75q-15.08-14.31-24.33-29.73-14.49-24.13-20.92-55.67a.29.28-13 0 1 .21-.33l.04-.01a.25.25 0 0 1 .3.15q11.69 33.47 33.44 61.73 10.51 13.66 24.55 23.41c13.38 9.3 30.03 10.33 45.83 8.03a.72.71 87.2 0 0 .62-.69l1.58-42.06" vector-effect="non-scaling-stroke"/><path stroke="#7b5928" d="m543.29 809.75-.6-107.56" vector-effect="non-scaling-stroke"/><path stroke="#71471d" d="M542.69 702.19q.14-5.63.27-11.94.05-2.01.49-3.88a.41.41 0 0 1 .8.03q2.4 14.42 3.92 31.36 5.05 56.47 2.9 110.8-.23 5.81-.76 18.01-.31 7.29.45 9.69 1.6 5 6.17 7.1 10.07 4.64 21.56 6.09a.64.64 0 0 0 .69-.41q1.78-4.65 1.69-8.77" vector-effect="non-scaling-stroke"/><path stroke="#7b5928" d="M580.87 860.27q.63-11.76-3.14-21.91a.44.44 0 0 1 .72-.47q9.87 9.31 9.82 23.11" vector-effect="non-scaling-stroke"/><path stroke="#71471d" d="m588.27 861-.96 8.89a.51.5-86.2 0 0 .48.56q13.45.7 26.72-.99a2.2 2.19-87.9 0 0 1.87-1.75l1.39-6.75" vector-effect="non-scaling-stroke"/><path stroke="#7b5928" d="M617.77 860.96q1.2-14.87-6.76-28.06a.4.4 0 0 1 .57-.54q15.09 10.01 14.08 28.9" vector-effect="non-scaling-stroke"/><path stroke="#71471d" d="m625.66 861.26-.69 5.48a.36.36 0 0 0 .43.39q6.49-1.36 10.55-4.14" vector-effect="non-scaling-stroke"/><path stroke="#817049" d="M635.95 862.99c8.47-7.02 5.35-18.83-.4-26.26q-8.55-11.04-23.15-14.12" vector-effect="non-scaling-stroke"/><path stroke="#7b5928" d="M612.4 822.61q-14.55-2.61-28.48 2.08a.35.35 0 0 1-.33-.6c8.18-6.76 17.1-8.71 27.61-8.57" vector-effect="non-scaling-stroke"/><path stroke="#817049" d="m611.2 815.52 4.95.72a.48.48 0 0 0 .55-.46q.43-11.23 1.97-21.6c4.26-28.63 12.06-55.22 22.09-84.62 7.62-22.3 13.13-39.01 18.11-54.68q7.28-22.86 9.72-45.35c2.14-19.82-.68-39.86-6.65-59.11a.29.29 0 0 0-.56.04l-1.54 8.69" vector-effect="non-scaling-stroke"/><path stroke="#7b5928" d="M659.84 559.15q-1.7 7.44-4.77 14.47" vector-effect="non-scaling-stroke"/><path stroke="#71471d" d="M655.07 573.62q-6.18 15.23-15.42 27.76-11.07 15-25.28 26.97-6.94 5.84-14.27 9.08a4.01 4 5.6 0 0-1.66 1.36q-8.24 11.69-20.38 20.51-13.79 10-24 15.75-16.07 9.06-27 20.98c-5.5 6.01-8.88 12.38-12.13 19.96a.44.44 0 0 1-.81 0c-2.7-5.93-5.74-12.22-10.11-17.36-10.14-11.93-21.21-18.63-35.68-27.38-13.2-7.98-25.3-17.63-34.34-30.4a5.95 5.92 84.1 0 0-2.45-2c-8.32-3.67-15.11-10.28-22.12-17.24-15.62-15.51-25.36-35.6-30.4-57.64q-2.67-11.69-1.36-27.81" vector-effect="non-scaling-stroke"/><path stroke="#7b5928" d="M377.66 536.16q1.87-15.53 12.22-27.53a.48.48 0 0 1 .81.15q.13.36 0 .66c-11.14 25.82-5.72 58.49 7.06 82.53 3.36 6.32 7.91 12.33 12.58 18.44q4.44 5.81 9.94 10.63" vector-effect="non-scaling-stroke"/><path stroke="#71471d" d="m420.27 621.04 5.07 4.34a.31.3-74 0 0 .5-.28q-1.25-7.52-.91-15.44a.31.31 0 0 1 .6-.09c5.58 15.55 15.35 30.22 28.09 41.21 12.86 11.09 29.23 19.29 41.89 28.46q11.71 8.48 18.73 21.37a.29.29 0 0 0 .52-.01q5.23-10.37 14.34-18 7.48-6.27 13.64-10.11c15.41-9.6 23.61-13.94 34.9-23.34q20.2-16.82 29.44-41.73a.43.43 0 0 1 .84.12q.57 8.01-1.07 15.84a.28.28 0 0 0 .46.27l5.6-4.99" vector-effect="non-scaling-stroke"/><path stroke="#7b5928" d="M612.91 618.66q13.95-12.18 24.49-28.73c11.63-18.25 19.36-40.85 16.27-62.7a.42.41 17.2 0 1 .69-.36l8.5 7.68" vector-effect="non-scaling-stroke"/><path stroke="#817049" d="m662.86 534.55 6.26 10.52a.25.25 0 0 0 .46-.09q3.26-20.05-2.65-38.63c-3.21-10.07-6.89-18.98-11.98-30.05q-8.9-19.32-4.61-41.67.16-.83-.11-1.38a.55.55 0 0 0-.97-.02l-3.34 5.83" vector-effect="non-scaling-stroke"/><path stroke="#71471d" d="M645.92 439.06q-8.29 11.18-14.66 17.2-11.24 10.62-27.88 17.63-.56.23-.89.04a.42.42 0 0 1-.04-.69c7.62-5.76 13.72-12.05 20.69-19.7 8.8-9.65 15.74-20.03 21.9-31.76a1.3 1.3 0 0 0 .07-1.03q-8.47-24.61-5.58-50.75 2.37-21.5 2.94-26.75c2.19-20.31 1.8-41.41-4.61-62.41q-4.7-15.43-9.55-24.6" vector-effect="non-scaling-stroke"/><path stroke="#7b5928" d="m628.31 256.24-2.6-4.88a.24.23 9.4 0 1 .38-.27l1.6 1.7" vector-effect="non-scaling-stroke"/><path stroke="#71471d" d="M627.69 252.79c12.52 14.56 19.23 31.03 22.41 50.04q3.4 20.34 1.13 40.67c-2.32 20.9-5.06 38.44-2.27 57.3 3.58 24.16 19.22 48.07 44.65 53.69a.52.51.8 0 0 .62-.6c-2.53-13.43.41-26.38 5.81-38.34q7.49-16.61 16.46-30.51a.43.43 0 0 1 .79.26q-.57 7.66.74 17.07a.26.25 56.7 0 0 .47.1l7.23-11.92" vector-effect="non-scaling-stroke"/><path stroke="#817049" d="M725.73 390.55q9.19-13.84 12.85-27.02 4.22-15.17-2.63-28.73c-5.07-10.03-11.71-18.4-19.66-26.87q-27.34-29.12-47.08-61.78a1.76 1.75 88.6 0 0-.68-.65q-3.45-1.84-7.5-2.45" vector-effect="non-scaling-stroke"/><path stroke="#7b5928" d="m661.03 243.05-7.36-1.41a.34.33 41.6 0 1-.04-.65q4.6-1.4 9.68-1.38" vector-effect="non-scaling-stroke"/><path stroke="#817049" d="M663.31 239.61q7.3.08 14.33 2.09a.21.21 0 0 0 .21-.34q-11.08-12.73-25.53-16.14a.71.71 0 0 1-.23-1.28l6.6-4.43a.25.25 0 0 0-.03-.43c-14.11-7.41-30.8-7.35-46.56-5.3a.32.32 0 0 0-.23.49l4.61 7.21" vector-effect="non-scaling-stroke"/><path stroke="#7b5928" d="M616.48 221.48q1.3 2.23 1.59 4.01" vector-effect="non-scaling-stroke"/><path stroke="#817049" d="M618.07 225.49c-14.1-12.38-28.2-23.51-45.04-32.02-40.12-20.27-84.44-19.83-123.81 1.09q-18.62 9.89-33.73 23.17-4.87 4.28-10.17 8.91" vector-effect="non-scaling-stroke"/><path stroke="#f3c56e" d="M618.07 225.49q.21 1.3 1.92 2.44a.28.26 29.6 0 1 .1.33l-.11.27a.68.68 0 0 1-1.03.27q-19.23-14.41-38.28-24.42-15.23-8.01-37.59-14.2c-14.19-3.94-29.67-4.21-44.33-3.03q-8.67.69-14.7 2.26-13.74 3.57-28.12 9.39-11.62 4.7-26.19 13.77-14.33 8.93-25.51 17.72a.55.55 0 0 1-.54.07l-.39-.16a.45.45 0 0 1-.1-.77q1.75-1.35 2.12-2.79M616.48 221.48q3.39-.5 6.53-1.48 2.72-.84 12.49-.73 9.06.1 13.75.34a2.77 2.74-31.3 0 1 .92.22q.51.23 1.24.3a.2.2 0 0 1 .1.36l-7.78 5.98a.67.67 0 0 0 .33 1.2c6.11.76 11.85 2.67 16.81 6.82q1.76 1.47 6.19 4.5a.29.28-28.5 0 1-.16.52l-3.59.1M661.03 243.05q-.54.38-.5 1.04a.8.79 10.8 0 0 .46.67q.28.14.41.31 6.75 8.83 12.05 19c1.31 2.51 3.12 5.28 4.94 8.04q.7 1.06 12.33 17.16 11.49 15.93 22.85 26.98c4.84 4.72 9.99 10.2 12.55 14.88 5.49 10.03 8.5 22.72 5.98 33.91q-.59 2.62-.98 5.04" vector-effect="non-scaling-stroke"/><path stroke="#e39c41" d="M731.12 370.08q-1.22-4.6-2.38-9.36c-.82-3.41-2.13-5.82-3.73-8.92a.59.59 0 0 0-1.08.09c-1.43 4.67-2.45 7.73-5.2 11.8q-5.82 8.61-13.83 18.46c-1.41 1.73-2.02 3.47-3.15 4.73a.29.29 0 0 1-.51-.21q.71-15.48-9.04-27.48a.25.25 0 0 0-.44.19c.28 2.18.86 4.15.9 6.51q.22 11.31-.24 18.31c-.5 7.48-2.5 20.26-2.59 30.12-.07 7.56-.74 18.13 1.27 27.3a.66.66 0 0 1-1.07.65q-5.19-4.39-9.84-8.83c-7.84-7.48-11.68-15.65-16.26-26q-2.79-6.3-3.76-11.5-1.95-10.53-1.95-16.94-.01-10.57 1.61-34.91 2.06-31.16-8.44-60.5c-3.04-8.48-8.54-15.72-13.65-22.82q-2.53-3.51-7.85-7.91-.87-.72-2.2-.07M628.31 256.24v3.99a3.63 3.6 33.5 0 0 .3 1.44q2.23 5.13 2.56 6.62 4.85 22.35 5.87 30.96c1.32 11.11.41 18.98-.57 33.53q-.51 7.63-1.93 17.36c-2.4 16.5-3.79 32.15-3.62 48.87q.15 15.17-5.45 30.23-2.83 7.62-6.51 12.92c-4.98 7.2-12.52 14.88-20.7 19.35q-8.47 4.61-16.49 8.38-4 1.88-9.22 3.18-4.56 1.14-9.53 2.21" vector-effect="non-scaling-stroke"/><path stroke="#7b5928" d="M563.02 475.28q4.3-6.42 6.59-12.1a.36.36 0 0 0-.6-.39q-3.04 3.16-7.31 7.43c-12.04 12.02-27.33 19.54-44.15 20.52q-10.02.58-17.51-.63c-11.65-1.87-23.06-7.03-32.62-15.11q-6.37-5.39-11.55-10.84a.39.39 0 0 0-.66.19q-.07.32.11.72 6.12 13.47 18.17 22.98" vector-effect="non-scaling-stroke"/><path stroke="#e39c41" d="M473.49 488.05q.19 3.59-4.5-.71c-3.24-2.97-5.91-6.95-8.39-10.31a5.26 5.2 78.2 0 0-2.99-1.98q-11.8-2.82-23.09-8.54c-10.14-5.14-17.56-9.58-24.27-17.58q-13.16-15.7-16.8-36.77-.87-5.1-.67-16.38.38-20.61-2.31-41.3-1.9-14.62-2.31-20.67c-.99-14.45-1.72-28.06.68-41.93q1.45-8.39 2.75-16.36c.76-4.66 2.61-9.09 4.43-13.51q1.3-3.15 1.04-6.36" vector-effect="non-scaling-stroke"/><path stroke="#e39c41" d="M396.78 253.49q-3.56.8-5.9 3.65-6.81 8.31-13.94 19.78-2.8 4.51-4.15 9.87c-1.75 6.95-4.39 15.05-5.62 20.39q-1.38 5.98-1.87 16.07-.79 16.03.51 28.85 1.14 11.26 1.04 16.23c-.26 11.84.05 16.52-1.45 24.58q-1.39 7.48-1.57 8.19c-1.47 5.77-4.27 10.97-6.42 16.93q-.6 1.67-1.65 2.96M333.41 384.96l.26-20.37a1.59 1.54 53.7 0 1 .06-.43l1.04-3.84a.43.43 0 0 0-.72-.42q-1.25 1.24-2.97 4.13-3.11 5.25-5.26 12.56-.58 1.96-.1 5.97M320.65 382.21q-7.68-8.88-14.01-18.16c-2.4-3.51-2.95-5.79-3.92-9.82a1.04.89 77.4 0 0-1.08-.81q-.2.04-.47.49-1.83 3-2.95 8-1.49 6.64-2.32 13.37" vector-effect="non-scaling-stroke"/><path stroke="#f3c56e" d="M295.9 375.28q-7.88-27.53 9.82-49.58 3.16-3.94 6.34-7.14 6.07-6.1 6.69-6.81 8.77-10.05 14.75-18.97 7.75-11.57 10.95-16.18 4.92-7.08 9.68-16.98 1.59-3.29 4.98-7.77 2.05-2.72 3.44-6.85M354.26 241.84l15.5-10.2a3.52 3.32 20.1 0 1 1.07-.46l9.41-2.29a.3.3 0 0 0 .12-.53l-7.04-5.58a.64.64 0 0 1 .26-1.13q6.91-1.46 14.45-1.3c7.55.17 12.53.23 18.42 3.07" vector-effect="non-scaling-stroke"/><path stroke="#e9b363" d="M725.73 390.55q-.72.44-1.11.25a.46.46 0 0 1-.21-.6q4.22-9.49 6.71-20.12" vector-effect="non-scaling-stroke"/><path stroke="#71471d" d="M473.49 488.05q9.42 6.77 21.29 9.68 23.27 5.69 45.26-3.69 14.15-6.03 22.98-18.76" vector-effect="non-scaling-stroke"/><path stroke="#e9b363" d="M645.92 439.06q-1.2 9.14-.52 17.42.46 5.65 3.2 14.85c3.02 10.12 4.77 15.99 8.79 24.63" vector-effect="non-scaling-stroke"/><path stroke="#e39c41" d="m657.39 495.96-.01.68a.89.89 0 0 1-1.46.68q-5.63-4.7-11.75-9.36c-6.14-4.68-9.6-9.58-14.71-16.36a.77.77 0 0 0-1.17-.07q-11.69 11.97-27.25 18.28-10.44 4.23-25.11 9.12c-12.5 4.17-19.71 12.2-27.92 23.07q-8.43 11.15-14.5 20.75a.57.57 0 0 1-1.05-.4l1.73-10.02a.34.34 0 0 0-.6-.28c-7.92 9.67-14.82 20.86-19.04 32.96a.61.61 0 0 1-1.15.02q-6.61-17.62-18.89-31.48a.31.31 0 0 0-.54.28l2.31 9.52a.76.75-67.4 0 1-1.38.57q-9.02-15.1-20.62-28.2c-8.23-9.3-15.55-13.02-27.69-16.59s-24.34-8.05-34.99-15.12c-4.11-2.73-7.98-6.34-11.13-9.45a.53.53 0 0 0-.81.09c-6.62 9.95-15.54 15.4-26.8 22.9a.67.64-47.4 0 1-.67.04q-.72-.37-.56-1.16" vector-effect="non-scaling-stroke"/><path stroke="#e9b363" d="M371.63 496.43q3.38-7.94 6.94-15.88 4.63-10.31 6.12-24.84.35-3.35.5-7.12M295.9 375.28q.65 2.41 1.27 4.74.29 1.06-1.08.76" vector-effect="non-scaling-stroke"/><path stroke="#e39c41" d="M612.91 618.66q1.99-4.97 3.9-9.29 1.22-2.77 3.86-17.38 3.16-17.48-3.22-34.32a.61.6-49.8 0 0-1.16.1c-.38 1.86-.53 4.14-1.21 6.27q-3.55 11.05-6.57 16.98-8.06 15.78-21.86 31.16-14.44 16.09-32.55 28.42c-13.73 9.35-26.83 18.09-36.07 31.91q-1.97 2.94-2.99 6.5a.5.5 0 0 1-.95.04c-3.65-9.9-12.8-18.92-21.27-25.13q-6.16-4.53-14.95-10.3-22.82-15.01-39.8-37.13-4.15-5.41-7.54-11.83-5.4-10.27-6.42-12.54-4.26-9.53-6.66-21.51a.31.31 0 0 0-.59-.07c-3.96 8.98-4.6 17.41-4.18 27.54q.29 6.91 1.38 12.1c.74 3.57 2.34 6.99 3.09 10.2.79 3.38 2.57 6.49 4.11 9.53q.34.67-.26 1.09-.29.21-.73.04M377.66 536.16q-1.12-.28-2.18-1.41" vector-effect="non-scaling-stroke"/><path stroke="#f3c56e" d="M371.63 496.43q-2.02 3.91-1.34 7.87a.72.67 55 0 1-.06.43q-.39.73-1.21.58M662.86 534.55q.54-12.06-.95-21.98-1.22-8.08-4.52-16.61" vector-effect="non-scaling-stroke"/><path stroke="#e39c41" d="m655.07 573.62-.93 10.02a1.15 1.05 64.4 0 1-.14.46c-3.56 6.39-6.44 14.55-9.2 19.22q-4.27 7.22-12.72 18.27-7.46 9.76-20.09 20.4-17.09 14.4-25.78 21.96c-14.47 12.6-24.95 26.95-28.14 45.64q-2.03 11.82-1.53 24.9 2.42 64.35 3.06 90.71.37 14.89 1.17 17.54 2.78 9.27 12.38 14.13 2.74 1.39 7.72 3.4M542.69 702.19q-1.64.49-3.15 2.16-2.43 2.7-2.58 2.84-9.09 8.37-17.26 17.81c-2.18 2.52-3.51 5.16-5.32 7.49a1.14 1.14 0 0 1-1.83-.05q-11.69-16.73-29.97-27.01c-17.4-9.78-32.38-18.8-46.25-31.04a.59.59 0 0 0-.98.44c-.1 23.03 1.95 45.09 7.95 68.13 5.31 20.36 16.9 41.35 33.12 54.29q28.13 22.46 63.87 11.97a1.35 1.34 48.7 0 1 .9.06q1.11.47 2.1.47M414.89 846.52q9.65-.1 13.89-.68 6.29-.85 13.45-3.13c5.45-1.74 10.29-5.14 7.32-11.56-2.49-5.36-6.64-11.46-9.07-16.2q-5.66-11.02-11.64-25.78-2.39-5.89-3.64-10.85-3.73-14.85-5.8-26.94-1.98-11.61-2.12-28.62-.03-3.94-3.42-4.57-1.86-.35-2.38-.95c-1.51-1.74-2.03-4.19-2.36-6.24a.42.42 0 0 0-.64-.29q-.67.42-.84 1.8" vector-effect="non-scaling-stroke"/><path stroke="#f3c56e" d="m612.4 822.61-1.67.34a.25.25 0 0 0-.08.46l11.61 7.04a4.46 4.37-3.8 0 1 1.13.97q.69.79 3.33 3.23c4.24 3.92 6.6 8.65 7.68 14.63q1.14 6.31 1.28 9.92" vector-effect="non-scaling-stroke"/><path stroke="#e39c41" d="m635.68 859.2-10.02 2.06M617.77 860.96c-9.73 1.37-19.83 2.28-29.5.04M407.54 847.28q-13.06 1.91-26.43 1.26M373.76 846.71c-3.35-.42-7.65-1.22-10.8.32" vector-effect="non-scaling-stroke"/><path stroke="#f3c56e" d="M362.96 847.03q2.23-6.85 4.41-9.72 1.61-2.11 6.73-6.58c6.45-5.63 10.93-9.66 19.28-11.17 4.39-.79 7.81-1.64 11.62-.68q3.29.83 6.12.95a2.8 2.77-30.1 0 1 1.08.28q4.44 2.19 6.54-.5" vector-effect="non-scaling-stroke"/><path stroke="#e39c41" d="M349.11 455.4q-3.45 7.09-5.87 14.57-.67 2.07-2.78 6.14-1 1.94-2.6 3.16-2.31 1.76-3.51 4.69a1.17 1.17 0 0 0 .92 1.6c2.47.35 5.26-1.11 7.23-1.85a2.29 2.27-48.2 0 1 1.32-.08c4.52 1.09 7.9 6.7 9.49 10.72a.76.75 76.5 0 0 .77.48q1.22-.13 2.12.09M367.16 519.93q.55 6.45.3 18.82-.22 11.27 2.26 25.18c2.56 14.4 8.89 28.79 15.16 41.74 1.63 3.36 1.84 5.21 1.17 8.74-.96 5.11-9.29 7.82-13.69 8.18q-14.11 1.16-28.56-4c-11.97-4.27-20.46-15.89-25.04-27.39a.36.36 0 0 0-.67 0q-2.82 6.58-2.32 14.33" vector-effect="non-scaling-stroke"/><path stroke="#f3c56e" d="M315.77 605.53q-2.46-7.72-4.56-15.46-1.96-7.22-3.2-15.75-1.64-11.31-3.63-19.56-1.46-6.07-3.54-20.22-2.34-15.89-10.81-35.92-1.26-2.99-3.62-5.86-9.89-12.03-21.42-28.49-3.28-4.69-5.38-9.61-.68-1.58-2.88-9.82-1.67-6.29-1.18-9.67.75-5.16 3.45-9.14 2.99-4.42 8.65-6.6" vector-effect="non-scaling-stroke"/><path stroke="#e9b363" d="m315.77 605.53 2.37 9.6" vector-effect="non-scaling-stroke"/><path stroke="#f3c56e" d="M611.2 815.52q2.48-14.06 3.63-28.34.3-3.76.77-5.82c1.09-4.79 1.59-9.14 3.04-14.35q1.53-5.49 1.83-7.15c1.13-6.31 3.4-12.6 4.52-18.31q1.2-6.1 2.78-11.11c2.75-8.73 5.87-17.89 9.06-28.06q6.54-20.89 10.29-31.74 2.72-7.89 4.5-15.12.2-.83 3.62-14.41 4.76-18.93 5.53-23.59 1.63-9.93 1.67-13.52.19-20.83.21-29.36.01-5.99-2.81-15.49" vector-effect="non-scaling-stroke"/><path stroke="#e9b363" d="M635.95 862.99q-.9-.82-.27-3.79" vector-effect="non-scaling-stroke"/><path stroke="#f3c56e" d="m399.36 700.01-.36 2.13a.26.25 30 0 1-.45.12q-1.08-1.33-1.44-3.01-2-9.31-2.01-9.34a1.82 1.79 2.1 0 0-.87-.92c-4.05-1.95-10.68-2.05-14.66-.87q-7.45 2.19-13.39 6.63c-3.06 2.29-6.79 7.71-8.47 10.19-7.7 11.41-7.17 26.34-4.85 39.4q1.25 7.03 5.62 16.29 5.29 11.24 7.61 15.57 5.46 10.2 13.63 19.12 2.1 2.29 2.38 3.1a1.33 1.3-86.1 0 0 .62.73c1.68.91 2.15 2.45 3.75 3.36a1.25.41 18 0 1 .11.08l8.32 7.08" vector-effect="non-scaling-stroke"/><path stroke="#e9b363" d="M362.96 847.03q-.73 2.75-1.93 2.05" vector-effect="non-scaling-stroke"/><path stroke="#f3c56e" d="M339.89 401.55q-.12.77-1.05.93a.85.85 0 0 1-.8-.31q-1.45-1.84-4.8-3.42-7.21-3.38-14.42-2.77c-1.81.15-3.81 1.41-5.71 2.02M307.84 400.22l-4.61-3.5a3.33 3.32 68 0 0-1.5-.64q-4.97-.76-7.25-.73-15.72.19-22.35 14.54-.33.7-.08 3.11.07.71-1.1.66" vector-effect="non-scaling-stroke"/><path stroke="#838181" d="M362.1 484.24q.21-.07.56-.81 4.42-9.35 6.71-15.81 4.84-13.67 2.68-28.36a.2.2 0 0 0-.37-.08q-5.23 8.51-13.55 15.57a1.18 1.15-20.9 0 0-.42.91q.1 14.58 4.01 28.39a.28.28 0 0 0 .38.19" vector-effect="non-scaling-stroke"/><path stroke="#71471d" d="M712.27 743.98c-4.29 13.26-11.39 25.54-19.31 36.75q-9.07 12.83-20.75 26.3a.45.45 0 0 0 .26.73c5.39 1.05 9.24 2.51 15.32 5.67a5.62 5.57 61.2 0 0 2.1.62q4.75.46 10.25-.19c17.13-2 32.92-7.68 46.63-17.48a.36.36 0 0 0-.09-.63q-7.91-2.82-14.26-8.7a.26.26 0 0 1 .09-.44l5.81-2.05" vector-effect="non-scaling-stroke"/><path stroke="#7b5928" d="M738.32 784.56c13.7-3.82 26.22-11.06 35.44-21.76a.46.46 0 0 0-.31-.76l-9.2-.77a.88.88 0 0 1-.6-1.44l.92-1.09" vector-effect="non-scaling-stroke"/><path stroke="#817049" d="M764.57 758.74q1.49-1.14 3.9-3.76 15.83-17.19 19.29-40.49a.32.32 0 0 0-.48-.33l-9.46 5.46a.48.48 0 0 1-.69-.59c9.85-23.99 2.27-52.41-11.54-73.28a.26.26 0 0 0-.48.13q-1.61 27.64-14.06 51.7c-8.59 16.59-20.92 32.57-36.63 41.86a1.36 1.32-4.8 0 0-.56.64l-1.59 3.9" vector-effect="non-scaling-stroke"/><path stroke="#f3c56e" d="M764.57 758.74q-1.02.34-1.12-.05-.2-.76.42-1.34 7.33-6.86 10.1-15.45a9.34 9.16-21.6 0 1 .79-1.78c3.25-5.64 6.2-11.04 6.01-17.55a.77.77 0 0 0-1.04-.7l-9.34 3.37a.96.96 0 0 1-1.26-1.11q.46-2.01 1.64-3.96a4.26 3.98-23.4 0 0 .44-1.01q1.59-5.68 1.96-6.95c2.6-8.86 3.05-18.91 1.95-27.26-.72-5.49-3.12-13.01-5.02-19.81q-.22-.78-1.24-2.49a.4.4 0 0 0-.75.17c-.61 6.86-1.66 11.71-4.53 18.81q-6.01 14.86-7.16 17.27-5.05 10.59-15.06 21.49" vector-effect="non-scaling-stroke"/><path stroke="#e9b363" d="M741.36 720.39q-2.76 3.36-5.64 6.66c-5.27 6.02-12.03 10.63-18.6 14.83q-1.28.82-2.71 2.5a1.05.99 7.5 0 1-.43.31q-1.16.48-1.71-.71" vector-effect="non-scaling-stroke"/><path stroke="#e39c41" d="M738.32 784.56q10.98-10.49 18.19-23.21.72-1.27.8-2.57a.63.63 0 0 0-.93-.59q-7.39 4.03-16.06 6.86-1.15.37-2.21.41a.57.56-71 0 1-.45-.93c2.17-2.58 6.56-5.01 8.56-8.83q4.4-8.4 7.71-13.49.59-.91.67-2.52a.54.53 70.7 0 0-.88-.43l-6.49 5.67a2.46 2.45 14.1 0 1-.79.47l-12.34 4.46a.47.46-78.8 0 1-.5-.75q1.92-2.14 3.17-5.07 3.85-9 6.03-20.34.33-1.69-.04-3.11-.08-.33-1.4-.2" vector-effect="non-scaling-stroke"/><path stroke="#7b5928" d="m658.68 683.04-.36.58" vector-effect="non-scaling-stroke"/><path stroke="#71471d" d="M658.32 683.62q-10.74 31.11-17.38 51.82-7.7 24.03-12.81 51.59c-1.92 10.37-2.69 20.94-3.44 30.54a1.12 1.12 0 0 0 .66 1.11q5.26 2.3 10.11 6.07 14.19 11.03 14.16 29.42a.26.25 0 0 0 .26.25h7.49a.34.33 5.1 0 0 .33-.27q2.26-13.37-4.62-25.14a.42.42 0 0 1 .61-.56l1.53 1.08" vector-effect="non-scaling-stroke"/><path stroke="#7b5928" d="M655.22 829.53q7.64 6.72 10.12 16.18" vector-effect="non-scaling-stroke"/><path stroke="#71471d" d="m665.34 845.71.35 7.95a.87.86 86.2 0 0 .94.83l14.13-1.24a1.67 1.67 0 0 0 1.52-1.52l.3-3.22" vector-effect="non-scaling-stroke"/><path stroke="#7b5928" d="M682.58 848.51q-.05-12.14-7.01-22.2a.3.3 0 0 1 .38-.44c9 4.81 14.24 14.42 14.38 24.56a.44.44 0 0 0 .57.41c2-.61 4.95-2.07 5.93-4.31" vector-effect="non-scaling-stroke"/><path stroke="#817049" d="M696.83 846.53q.58-1.53.34-3.78c-1.67-15.31-14.56-26.34-29.46-28.12" vector-effect="non-scaling-stroke"/><path stroke="#7b5928" d="M667.71 814.63q-11.53-1.54-22.84 1.89" vector-effect="non-scaling-stroke"/><path stroke="#71471d" d="m644.87 816.52-8.22 3.16a.33.33 0 0 1-.34-.54q6.71-6.36 15.24-9.57 2.09-.78 8.65-2.36a2.02 1.98-74.9 0 0 1.02-.6l4.57-4.98" vector-effect="non-scaling-stroke"/><path stroke="#7b5928" d="m665.79 801.63.98-1.12" vector-effect="non-scaling-stroke"/><path stroke="#817049" d="M666.77 800.51q15.13-17.27 26.97-37c7.26-12.09 13.58-26.83 14.97-40.99 1.4-14.18-.63-27.37-9.93-38.27-11.52-13.49-25.59-10.73-39.14-2.61q-.96.58-.96 1.4" vector-effect="non-scaling-stroke"/><path stroke="#f3c56e" d="M666.77 800.51q-.48.04-.54-.01a.72.72 0 0 1-.16-1q6.87-9.41 11.95-20.07a3.72 3.56-11.7 0 1 .66-.96q3.77-4.04 6.46-9.54 3.34-6.78 7.19-14.82c4.63-9.63 6.35-19.67 7.82-30.19q1.6-11.52-2.92-23.35c-5.01-13.13-17.45-21.31-31.48-19.02-1.63.27-4.58 1.3-7.07 1.49" vector-effect="non-scaling-stroke"/><path stroke="#e39c41" d="M665.79 801.63q-.47-.2-.47-1.03a.66.65 7.5 0 0-.49-.63c-7.08-1.81-15.44.5-22.17 2.28a.7.69-87.5 0 1-.83-.91q3.94-11.02 5.63-16.09c3.17-9.5 5.08-20.37 7.65-30.45 3.4-13.25 4.9-26.02 6.05-39.93q.26-3.16-.13-20.65-.15-6.48-2.71-10.6M644.87 816.52l10.35 13.01" vector-effect="non-scaling-stroke"/><path stroke="#f3c56e" d="M667.71 814.63q-1.01-.1-1.07.66-.04.62.57.85c4.53 1.68 10.27 3.69 13.73 6.53 6.62 5.45 13.65 14.66 15.26 23.42a.42.41-89.1 0 0 .31.33q.15.03.32.11" vector-effect="non-scaling-stroke"/><path stroke="#e39c41" d="M682.58 848.51c-5.71-.07-12.09-.28-17.24-2.8" vector-effect="non-scaling-stroke"/><path stroke="#7b5928" d="M555.24 339.88q-6.49-4.32-13.49-6.34a.22.21-86.5 0 0-.27.24q.04.24.29.42c10.85 7.67 19.84 17.57 26.98 29.07a.2.2 0 0 0 .36-.14q-1.88-9.75-7.84-17.58" vector-effect="non-scaling-stroke"/><path stroke="#e39c41" d="M561.27 345.55q.7-.45 1.21-1.33" vector-effect="non-scaling-stroke"/><path stroke="#7b5928" d="m562.48 344.22 14.63.27" vector-effect="non-scaling-stroke"/><path stroke="#af7532" d="M577.11 344.49q7.05.64 12.02-.29" vector-effect="non-scaling-stroke"/><path stroke="#f5d6a5" d="M589.13 344.2q.82.91 3.37.06a5.48 5.23-53.2 0 1 1.61-.27q5.88-.06 10.28-2.08" vector-effect="non-scaling-stroke"/><path stroke="#7b5928" d="M604.39 341.91q6.68-3.99 10.03-11.17" vector-effect="non-scaling-stroke"/><path stroke="#e39c41" d="M614.42 330.74q2.89-1.68 3.34-2.63c4.33-9.23 7.45-18.37 7-28.68q-.28-6.34-3.94-13.93c-5.92-12.29-15.32-22.29-28.53-25.06q-14.73-3.09-26.59 4.72c-22.4 14.75-20.91 46.14-12.12 67.75q1.6 3.91 1.66 6.97" vector-effect="non-scaling-stroke"/><path stroke="#71471d" d="M614.42 330.74q7.58-20.14-5.25-36.92c-8.02-10.49-20.47-15.63-33.31-11.45-10.33 3.36-15.53 10.99-18.71 20.92-3.98 12.43-.91 28.71 4.31 40.23q.31.69 1.02.7M561.27 345.55l-6.03-5.67" vector-effect="non-scaling-stroke"/><path stroke="#838181" d="M604.39 341.91q8.52-11.76 6.38-25.28c-1.79-11.32-8.74-21.76-19.77-25.86q-13.89-5.18-24.29 4.94" vector-effect="non-scaling-stroke"/><path stroke="#763632" d="m566.71 295.71-.67.69" vector-effect="non-scaling-stroke"/><path stroke="#3c200e" d="m566.04 296.4-2.73 3.24a.21.21 0 0 0 .23.33c7.45-2.52 15.46-2.65 21.75 2.47q13.15 10.7 7.96 27.33-3.59 11.48-16.14 14.72" vector-effect="non-scaling-stroke"/><path stroke="#aa513c" d="M566.04 296.4q.76.01.95-.44" vector-effect="non-scaling-stroke"/><path stroke="#b79d8b" d="M589.13 344.2q6.92-3.32 10.02-10.28c5.83-13.11 2.3-28.2-9.73-35.76-6.84-4.31-14.88-4.99-22.43-2.2" vector-effect="non-scaling-stroke"/><path stroke="#f0b3af" d="M566.99 295.96q-.14-.08-.28-.25" vector-effect="non-scaling-stroke"/><path stroke="#7b5928" d="M409.39 330.63q3.58 7.72 10.46 12.11" vector-effect="non-scaling-stroke"/><path stroke="#f5d6a5" d="m419.85 342.74 1.84.76a.94.76 51.3 0 0 .18.04l13.31 1.45" vector-effect="non-scaling-stroke"/><path stroke="#af7532" d="M435.18 344.99q7.67.81 15.8.16" vector-effect="non-scaling-stroke"/><path stroke="#7b5928" d="m450.98 345.15 10.55-.85a1.19 1.18-72.4 0 0 .82-.43q.87-1.06 1.13-2.6" vector-effect="non-scaling-stroke"/><path stroke="#e39c41" d="m463.48 341.27 4.47-2.58a1.32 1.32 0 0 0 .57-.66c4.4-11.28 7.25-20.65 7.59-31.56.32-10.35-1.99-22.06-7.85-30.29-7.13-10.03-17.76-16.16-30.52-15.41-15.26.91-25.12 9.41-32.78 21.84-5.68 9.22-6.62 19.66-4.16 29.91q1.81 7.54 2.73 9.84 1.93 4.89 5.86 8.27" vector-effect="non-scaling-stroke"/><path stroke="#71471d" d="M463.48 341.27q5.2-13.47 4.51-27.66c-.62-12.92-6.75-25.59-19.38-30.42-8.71-3.32-18.39-1.74-26.21 3.82-14.34 10.18-18.36 27.08-13.01 43.62" vector-effect="non-scaling-stroke"/><path stroke="#3c200e" d="M450.98 345.15q-17.82-1.1-21.07-18.08-2.75-14.4 7.65-23.63c6.61-5.86 13.85-5.39 22.02-3.35a.32.32 0 0 0 .36-.46q-1.06-2.01-2.89-3.18" vector-effect="non-scaling-stroke"/><path stroke="#838181" d="M457.05 296.45q-7.05-7.56-16.31-6.85c-12.24.94-21.54 9.42-25.53 20.37q-6.28 17.25 4.64 32.77" vector-effect="non-scaling-stroke"/><path stroke="#b79d8b" d="M457.05 296.45c-27.01-10.17-46.4 24.79-27.2 44.7q.93.96 5.33 3.84" vector-effect="non-scaling-stroke"/><path stroke="#7b5928" d="M463.94 344.29q-7.07 7.68-8.95 19.1a.33.33 0 0 0 .61.21c3.25-6.08 7.13-10.89 11.89-16.05 4.75-5.17 9.22-9.43 15.01-13.17a.33.33 0 0 0-.26-.6q-11.22 2.82-18.3 10.51M512.65 470.81c16.79-.09 30.81-8.98 39.05-23.36a1.47 1.45-74.5 0 1 1.28-.73c27.89.19 41.46-29.65 43.43-52.94a.56.56 0 0 1 .71-.49q5.8 1.67 11.09 4.99a.41.41 0 0 0 .62-.43c-2.69-13.34-18.58-17.84-27.23-6.54a.32.32 0 0 0 .25.51h8.38a.47.47 0 0 1 .46.55q-2.74 14.87-9.97 27.31c-8.35 14.36-23.35 22.49-39.96 17.23q-13.24-4.19-23.66-13.26a2.21 2.19 20.9 0 1-.75-1.65v-11.72a.73.73 0 0 1 .49-.69c5.08-1.69 9.13-2.83 14-6 9.38-6.08 17.98-14.93 21.07-25.31 4.8-16.08-5.51-26-20.33-29.27q-8.69-1.91-19.59-1.85t-19.56 2.06c-14.79 3.42-24.99 13.45-20.02 29.48 3.2 10.35 11.89 19.11 21.34 25.09 4.9 3.11 8.96 4.21 14.06 5.85a.73.73 0 0 1 .5.68l.12 11.72a2.21 2.19-21.5 0 1-.73 1.66q-10.33 9.18-23.52 13.51c-16.55 5.44-31.64-2.54-40.14-16.81q-7.36-12.36-10.26-27.2a.47.47 0 0 1 .46-.55l8.37-.09a.32.32 0 0 0 .25-.52c-8.77-11.2-24.61-6.54-27.16 6.83a.41.41 0 0 0 .62.43q5.26-3.38 11.04-5.11a.56.56 0 0 1 .72.48c2.21 23.27 16.1 52.96 43.98 52.48a1.47 1.45 73.9 0 1 1.29.72c8.39 14.29 22.5 23.03 39.3 22.94" vector-effect="non-scaling-stroke"/><path stroke="#838181" d="M572.026 302.26a7.74 7.34-98.2 0 0-6.161 8.707 7.74 7.34-98.2 0 0 8.369 6.614 7.74 7.34-98.2 0 0 6.161-8.708 7.74 7.34-98.2 0 0-8.369-6.614M591.13 327.87a3.43 3.43 0 0 0-3.43-3.43 3.43 3.43 0 0 0-3.43 3.43 3.43 3.43 0 0 0 3.43 3.43 3.43 3.43 0 0 0 3.43-3.43M451.446 302.587a7.72 7.36-85.2 0 0-7.98 7.077 7.72 7.36-85.2 0 0 6.688 8.309 7.72 7.36-85.2 0 0 7.98-7.077 7.72 7.36-85.2 0 0-6.688-8.309M439.95 328.3a3.44 3.44 0 0 0-3.44-3.44 3.44 3.44 0 0 0-3.44 3.44 3.44 3.44 0 0 0 3.44 3.44 3.44 3.44 0 0 0 3.44-3.44M511.95 365.81c7.74 0 16.82.03 23.68-2.76a1.25 1.25 0 0 0 .5-1.94c-1.71-2.14-7.46-3.61-9.69-4.02q-6.93-1.27-14.5-1.27-7.57.01-14.49 1.28c-2.23.41-7.98 1.89-9.69 4.03a1.25 1.25 0 0 0 .5 1.94c6.86 2.78 15.94 2.74 23.69 2.74" vector-effect="non-scaling-stroke"/><path stroke="#763632" d="M512.11 461.92c9.02-.05 19.56-3.33 25.93-10.07a.51.51 0 0 0-.09-.77c-7.84-5.32-16.48-6.76-25.93-6.71s-18.08 1.59-25.86 6.99a.51.51 0 0 0-.08.77c6.44 6.68 17.01 9.84 26.03 9.79" vector-effect="non-scaling-stroke"/><path stroke="#7b5928" d="M287.554 400.065a14.61 10.97-111.8 0 0-4.76 17.639 14.61 10.97-111.8 0 0 15.612 9.491 14.61 10.97-111.8 0 0 4.76-17.639 14.61 10.97-111.8 0 0-15.612-9.491" vector-effect="non-scaling-stroke"/><path stroke="#7b5928" d="M325.191 402.462a13.19 9.47-96 0 0-8.04 14.108 13.19 9.47-96 0 0 10.798 12.128 13.19 9.47-96 0 0 8.04-14.108 13.19 9.47-96 0 0-10.798-12.128M264.62 430.129a13.24 9.55-124.5 0 0-.37 16.32 13.24 9.55-124.5 0 0 15.37 5.502 13.24 9.55-124.5 0 0 .37-16.32 13.24 9.55-124.5 0 0-15.37-5.502" vector-effect="non-scaling-stroke"/><path stroke="#7b5928" d="M301.88 433.48q-7.83 3.59-9.99 12.41-1.44 5.92-4.62 13.86-1.49 3.72-.16 8.84c2.21 8.51 13.34 10.08 18.92 4.66q1.35-1.31 6.86-6.85 1.14-1.15 3.13-2.06t3.6-1.03q7.8-.55 9.67-.72c7.75-.69 13.83-10.14 8.83-17.37q-3.01-4.35-6.8-5.65-8.09-2.78-13.52-5.55-8.08-4.12-15.92-.54" vector-effect="non-scaling-stroke"/><path stroke="#e39c41" d="M609.45 529.17q-.18.27-.13.83 1.96 19.31-6.36 36.61a.57.57 0 0 0 .65.81c1.56-.39 4.27-3.44 5.89-5.34 1.76-2.07 2.81-4.98 4.39-7.7q.43-.74 4.51-3.35a4.23 3.82 3 0 0 .64-.52c12.09-12.07 11.51-32.78 2.3-46.52a.42.41-69.4 0 0-.74.34c3.42 13.59 3.27 26.93-3.9 39.29a.38.38 0 0 1-.7-.15q-.92-7.91-6.05-14.32a.31.31 0 0 0-.5.02M413.57 505.79q-.49.36-1.1 1.2c-9.8 13.68-9.14 38.35 5.87 48.73a6.72 6.63 3.4 0 1 2.08 2.31c2.29 4.18 5.76 10.06 9.72 12.51a.49.49 0 0 0 .74-.5q-.2-1.22-.76-2.44-7.43-16.24-5.23-33.95a.33.32-18.4 0 0-.55-.27c-3.97 3.81-5.26 8.46-6.11 13.79a.57.57 0 0 1-1.06.18c-6.89-12.62-7.15-27.75-3.12-41.22a.31.31 0 0 0-.48-.34" vector-effect="non-scaling-stroke"/><path stroke="#f3c56e" d="M566.62 564.78q.55 23.66-17 38.81a.36.35-11.2 0 1-.57-.38q4.95-14.69.36-29.68a.3.3 0 0 0-.58.08c-.17 15.47-2.83 29.07-11.1 42.1a.5.5 0 0 0 .62.73q10.53-4.45 19.04-11.86c4.6-4.01 7.43-10.64 10.07-16.11a4.33 4.26-11.8 0 1 .66-.99q.57-.65 3.29-3.06c5.8-5.12 8.99-13.2 10.86-21.33q2.95-12.82-1.69-25.48a.2.2 0 0 0-.38.08q.18 3.42.17 5.55-.06 18.16-9.03 33.54a.69.69 0 0 1-1.28-.3q-.43-5.92-3.13-11.78a.17.16-58.8 0 0-.31.08M481.67 605.47q-14.67-11.9-17.02-30.84-.51-4.04-.47-8.44a.28.27-34.1 0 0-.53-.1q-2.22 5.59-2.99 11.8a.57.56-57.4 0 1-1.04.23q-5.77-9.31-7.71-20.07-2.19-12.12-1.44-18.75a.37.37 0 0 0-.32-.41h-.02a.33.32-80.5 0 0-.36.26c-3.71 16.68-2.46 37.11 11.99 49.06q2.01 1.67 3.11 4.28c3.42 8.12 7.1 12.92 14.24 17.87q6.39 4.44 12.91 7.06a.36.36 0 0 0 .45-.52q-10.84-18.72-10.82-40.32a.32.32 0 0 0-.63-.08q-3.81 15.18 1.02 28.71a.23.23 0 0 1-.37.26" vector-effect="non-scaling-stroke"/></g><path fill="#fdfefe" d="M678.94 248.61l13.27 4.29a.23.23 0 0 0 .28-.31q-7.58-18.38-24.4-28.04a.29.29 0 0 1 .12-.54l6.25-.55a.23.23 0 0 0 .15-.39c-6.24-6.71-13.26-11.95-22.24-14.68-15.36-4.68-29.69-4.57-44.81-.55a.93.92-31 0 1-.86-.21q-14.73-13.55-32.56-22.75-32.14-16.57-68.86-15.07c-33.27 1.36-64.43 15.79-88.32 38.5a1.07 1.06 29.9 0 1-.99.26c-16.26-4-33.92-3.8-49.43 2.74q-9.93 4.2-16.71 12.9a.24.24 0 0 0 .15.39l6.03 1.04a.25.25 0 0 1 .07.47c-11.17 6.01-18.96 16.25-23.65 28.16a.42.41.6 0 0 .53.54l12.22-4.41a.39.39 0 0 1 .46.59q-19.31 27.91-42.4 53.43c-14.9 16.46-30.34 37.39-24.29 61.12q2.2 8.68 5.66 15.53a.63.63 0 0 1-.37.89q-19.14 6.03-23.41 25.43a1.21 1.2-6.1 0 1-.67.83q-8.73 3.95-13.37 11.35c-9.7 15.49-4.41 35.19 4.12 49.84 5.63 9.67 12.36 18.18 20.23 28.82q7.35 9.93 10.76 21.64 5.36 18.38 8.98 35.48c2.36 11.16 5.05 21.13 7.29 31.26q3.33 15.09 10.15 29.58 3.43 7.29 11.68 21.33 2.83 4.81 6.04 8.71a.47.46 36.9 0 0 .79-.11l3.9-9.19a.37.36 38.5 0 1 .63-.07q3.31 4.64 8.89 6.89c7.81 3.16 17.65 4.71 26.39 7.11 9.88 2.71 19.05 6.57 26.87 12.55a1.1 1.1 0 0 1 .44.8l1.19 13.54a.51.51 0 0 1-.73.51q-8.77-4.13-18.95-3.31c-21.32 1.74-36.64 18.81-40.18 39.2-4.66 26.82 4.66 52.55 21.53 73.59q8.4 10.46 24.01 23.76a.36.36 0 0 1-.12.61c-14.21 4.69-26.54 16.52-28.61 31.66-2.42 17.7 17.45 19.77 29.68 20.5q13.06.79 29.73.06c35.82-1.56 60.83-2.35 90.16-5.93a8.28 8.17-39.6 0 1 3.33.29q18.81 5.63 37.7 2.02a.39.39 0 0 1 .43.22c6.45 14.3 28.34 16.81 42.1 17.98 15.86 1.35 33.74.74 48.87-4.81q8.67-3.18 12.76-10.63a1.04 1.04 0 0 1 .99-.54q18.49 1.17 36.28-1.56 5.69-.88 11.67-3.07 10.14-3.71 9.89-14.31c-.21-8.6-3.69-14.36-7.98-21.43a.39.39 0 0 1 .3-.6c24.06-2 50.62-11.99 66.08-31.16a.43.43 0 0 0-.3-.7l-12.89-1.09a.5.5 0 0 1-.13-.97q27.12-9.62 39.17-36.91a.45.45 0 0 0-.65-.57q-4.05 2.39-9.22 3.25a.36.36 0 0 1-.35-.56q17.22-23.9 15.73-54.15a.53.52-24.2 0 0-.9-.34l-5.16 5.16a.36.35-19.9 0 1-.61-.28c1.9-22.01-4.85-43.77-17.27-61.9q-5.54-8.08-13.35-14.15a.36.36 0 0 0-.58.3q2.86 43.53-21.48 79.47-8.24 12.16-19 21.6a.39.39 0 0 1-.64-.37q2.63-13.94-.07-27.28c-4.26-21.07-23.05-41.11-46.41-33.51l-6.41 2.08a.28.27-89.8 0 1-.34-.35q5.74-18.19 9.93-36.35 8.2-35.55.1-70.99a4.44 4.39-41.6 0 1 .16-2.5c8.54-23.21 6.35-47.57-3.43-69.69-7.71-17.43-14.25-30.02-13.22-48.09a.36.36 0 0 1 .65-.2c8.54 10.88 20.67 19 34.34 21.1 4.11.63 8.12.39 12.27-.27a.51.51 0 0 0 .41-.66q-5.35-17.69-.02-34.99c2.18-7.06 4.84-14.14 8.16-21.35a.24.24 0 0 1 .46.04l2.86 11.79a.39.39 0 0 0 .69.15q8.9-11.88 16.92-24.26c8.41-12.98 17.29-29.57 15.36-45.58-2.44-20.19-17.19-36.07-30.85-50.8q-18.28-19.73-39.37-47.84a.28.27 80.2 0 1 .3-.43M222.82 466.88c3.43 9.75 9.49 18.84 19.04 23.04a.5.49 83.6 0 0 .6-.75q-5.9-7.89-10.09-16.47-2.11-4.34-3.4-7.99-1.28-3.65-2.35-8.35-2.1-9.32-2.44-19.16a.5.49 57.7 0 0-.93-.21c-4.83 9.26-3.86 20.14-.43 29.89m-15.29 8.39q3.77 9.02 13.32 13.59a.56.56 0 0 0 .71-.83c-2.89-4.16-6.25-9.35-8.62-15.02-2.38-5.68-3.71-11.72-4.64-16.69a.56.56 0 0 0-1.09-.08q-3.46 10 .32 19.03m97.64 254.34c-1.35 18.57 1.82 38.55 12.52 53.48q.27.38.62.44a.29.28-4.7 0 0 .32-.37q-8.48-25.94-6.51-53.04 1.97-27.11 14.1-51.55a.29.28 13 0 0-.25-.41q-.36.01-.68.34c-12.75 13.23-18.77 32.55-20.12 51.11m-17.55 28.61q.08-.15.05-.49-.74-7.52-.94-10.98-1.3-22.74 5.21-43.33 1.49-4.72 3.44-10.27a.38.38 0 0 0-.63-.4q-3.49 3.39-5.78 7.46c-8.41 14.97-11.48 32.61-6.49 48.79q1.58 5.15 4.2 9.26a.55.55 0 0 0 .94-.04"/><path fill="#080403" d="M678.64 249.04q21.09 28.11 39.37 47.84c13.66 14.73 28.41 30.61 30.85 50.8 1.93 16.01-6.95 32.6-15.36 45.58q-8.02 12.38-16.92 24.26a.39.39 0 0 1-.69-.15l-2.86-11.79a.24.24 0 0 0-.46-.04c-3.32 7.21-5.98 14.29-8.16 21.35q-5.33 17.3.02 34.99a.51.51 0 0 1-.41.66c-4.15.66-8.16.9-12.27.27-13.67-2.1-25.8-10.22-34.34-21.1a.36.36 0 0 0-.65.2c-1.03 18.07 5.51 30.66 13.22 48.09 9.78 22.12 11.97 46.48 3.43 69.69a4.44 4.39-41.6 0 0-.16 2.5q8.1 35.44-.1 70.99-4.19 18.16-9.93 36.35a.28.27-89.8 0 0 .34.35l6.41-2.08c23.36-7.6 42.15 12.44 46.41 33.51q2.7 13.34.07 27.28a.39.39 0 0 0 .64.37q10.76-9.44 19-21.6 24.34-35.94 21.48-79.47a.36.36 0 0 1 .58-.3q7.81 6.07 13.35 14.15c12.42 18.13 19.17 39.89 17.27 61.9a.36.35-19.9 0 0 .61.28l5.16-5.16a.53.52-24.2 0 1 .9.34q1.49 30.25-15.73 54.15a.36.36 0 0 0 .35.56q5.17-.86 9.22-3.25a.45.45 0 0 1 .65.57q-12.05 27.29-39.17 36.91a.5.5 0 0 0 .13.97l12.89 1.09a.43.43 0 0 1 .3.7c-15.46 19.17-42.02 29.16-66.08 31.16a.39.39 0 0 0-.3.6c4.29 7.07 7.77 12.83 7.98 21.43q.25 10.6-9.89 14.31-5.98 2.19-11.67 3.07-17.79 2.73-36.28 1.56a1.04 1.04 0 0 0-.99.54q-4.09 7.45-12.76 10.63c-15.13 5.55-33.01 6.16-48.87 4.81-13.76-1.17-35.65-3.68-42.1-17.98a.39.39 0 0 0-.43-.22q-18.89 3.61-37.7-2.02a8.28 8.17-39.6 0 0-3.33-.29c-29.33 3.58-54.34 4.37-90.16 5.93q-16.67.73-29.73-.06c-12.23-.73-32.1-2.8-29.68-20.5 2.07-15.14 14.4-26.97 28.61-31.66a.36.36 0 0 0 .12-.61q-15.61-13.3-24.01-23.76c-16.87-21.04-26.19-46.77-21.53-73.59 3.54-20.39 18.86-37.46 40.18-39.2q10.18-.82 18.95 3.31a.51.51 0 0 0 .73-.51l-1.19-13.54a1.1 1.1 0 0 0-.44-.8c-7.82-5.98-16.99-9.84-26.87-12.55-8.74-2.4-18.58-3.95-26.39-7.11q-5.58-2.25-8.89-6.89a.37.36 38.5 0 0-.63.07l-3.9 9.19a.47.46 36.9 0 1-.79.11q-3.21-3.9-6.04-8.71-8.25-14.04-11.68-21.33-6.82-14.49-10.15-29.58c-2.24-10.13-4.93-20.1-7.29-31.26q-3.62-17.1-8.98-35.48-3.41-11.71-10.76-21.64c-7.87-10.64-14.6-19.15-20.23-28.82-8.53-14.65-13.82-34.35-4.12-49.84q4.64-7.4 13.37-11.35a1.21 1.2-6.1 0 0 .67-.83q4.27-19.4 23.41-25.43a.63.63 0 0 0 .37-.89q-3.46-6.85-5.66-15.53c-6.05-23.73 9.39-44.66 24.29-61.12q23.09-25.52 42.4-53.43a.39.39 0 0 0-.46-.59l-12.22 4.41a.42.41.6 0 1-.53-.54c4.69-11.91 12.48-22.15 23.65-28.16a.25.25 0 0 0-.07-.47l-6.03-1.04a.24.24 0 0 1-.15-.39q6.78-8.7 16.71-12.9c15.51-6.54 33.17-6.74 49.43-2.74a1.07 1.06 29.9 0 0 .99-.26c23.89-22.71 55.05-37.14 88.32-38.5q36.72-1.5 68.86 15.07 17.83 9.2 32.56 22.75a.93.92-31 0 0 .86.21c15.12-4.02 29.45-4.13 44.81.55 8.98 2.73 16 7.97 22.24 14.68a.23.23 0 0 1-.15.39l-6.25.55a.29.29 0 0 0-.12.54q16.82 9.66 24.4 28.04a.23.23 0 0 1-.28.31l-13.27-4.29a.28.27 80.2 0 0-.3.43m-273.32-22.4q.16-1.51 1.13-3.22l5-8.34a.34.33-71.5 0 0-.25-.51c-16.22-1.69-31.87-1.44-46.71 6.01a.35.34 42.6 0 0 .03.63q4.04 1.63 7.5 4.76a.27.26 57.9 0 1-.1.45q-14.98 4.34-25.11 16.58a.2.2 0 0 0 .19.33l7.26-1.49q8.18-1.21 16.16.66a.4.39 45.1 0 1 0 .77l-7.87 1.73-6.95 2.26a1.36 1.34-83.8 0 0-.75.61c-11.47 20.1-24.58 38.87-39.72 56.25-10.18 11.67-21.18 23.53-26.47 38.01-4.53 12.38-1.47 26.2 4.4 37.6a1.48 1.46 86.5 0 0 .79.71q1.01.4 2.24.34 5.89 1.06 11.14 4.31a1.26 1.25 50.6 0 0 1.09.11q5.38-2.04 12.33-2.99l5.07.35 7.69 2.4q8.66 4.35 13.83 12.55 6.32 10.03 8.52 23.48 1.79 10.26 2.07 20.93a.3.3 0 0 0 .52.2q5.21-5.38 8.67-11.78c5.53-10.2 9.15-20.61 10.03-32.07q.73-9.42.19-17.27c-.44-6.45-1.15-16.23-2.38-25.27q-1.88-13.85-2.14-22.72-.63-21.39 4.56-41.54c3.69-14.31 10.3-26.68 19.5-37.98l1.14-.84a.22.21 79.1 0 1 .33.23q-.38 1.52-1.19 2.77-3.14 4.97-5.17 10.01-10.84 26.88-10.7 54.6.09 17.44 1 25.01c2.3 18.97 4.07 29.36 4.01 44.98q-.07 16.82-5.82 32.46a1.27 1.27 0 0 0 .05 1q7.99 16.28 19.76 28.87 7.21 7.71 12.32 13c3.17 3.27 6.98 6.06 10.51 9.03a.4.4 0 0 1-.41.68q-21.72-9.15-37.42-26.7l-4.35-5.84a.49.49 0 0 0-.87.35q.83 6.98.16 14.19c-1.25 13.47-8.99 26.05-14.16 38.19a1.48 1.45 47.2 0 0-.03 1.06l3.08 8.77c3.76 10.19 6.98 19.01 6.46 29.44q-.1.73-.35 1.17a.45.45 0 0 1-.8-.04l-7.17-15.95-10.96-25.01c-4.27-12.43-7.27-26.29-7.09-39.52 1.93-17.16.18-38.66-9.22-53.85q-9.83-14.93-26.97-9.38a.9.89-13.9 0 0-.61 1l.8 4.83q.44 6.89-1.39 13.59a.38.38 0 0 1-.75-.05q-.77-6.43-3.13-11.32-2.85-9.04-10.35-10.69-7.68-1.68-15.43 2.27-9.65 4.93-12.71 15.34-.93 3.15 1.6 6.52l8.41 13.08a.36.36 0 0 1-.51.49l-11.2-7.8-3.47-3.19a1.42 1.42 0 0 0-1.66-.19c-12.86 7.17-15.03 22.87-10.39 35.7q4.82 13.3 13.61 24.88 10.98 14.47 14.62 19.78 7.34 10.71 11.33 26.38 5.49 21.56 10.71 45.64 3.54 16.35 9.42 34.22 2.1 6.36 6.32 12.48l7.63 15.95a.39.39 0 0 0 .69.02l4.72-8.17a.85.85 0 0 1 1.53.11c3.15 7.81 7.29 13.23 16.04 15q12.06 2.43 20.06 4.68 25.92 7.27 42.66 27.55.26.33.4.81a.3.3 0 0 1-.44.33l-8.27-4.77a.36.36 0 0 0-.55.32q.42 22.92 5.03 45.55l2.3 9.79a.18.18 0 0 1-.33.14q-6.64-10.43-10.25-22.43l-2.6-11.36a1.68 1.67 7.8 0 0-.83-1.09c-10.5-5.83-24.39-6.12-34.5.58-12.91 8.54-19.21 23.3-19.23 38.65-.02 17.22 6.28 34.53 16.17 48.59q13.37 18.98 33 33.75 1.29.97 3.53.54 18.81-.46 33.05 13.12a.29.28-11.9 0 1-.31.47l-8.9-3.65q-15.11-4.94-30.35-1.48-18.31 4.16-26.04 20.71-2.49 5.33-1.32 10.24c2.62 3.78 7.32 5.16 11.84 5.53a.49.49 0 0 0 .53-.47l.36-7.43q2.65-14.16 15.32-20.52a.41.41 0 0 1 .5.63q-7.8 9.32-8.47 21.72-.35 3.49.47 6.73a.94.94 0 0 0 .91.71h24.26a.51.51 0 0 0 .51-.49l.28-8.21q2.32-11.61 11.77-18.55a.33.33 0 0 1 .49.43q-4.28 7.61-4.91 17.36l.23 8.27a.63.63 0 0 0 .65.62q37.13-1.23 73.9-4.26a.26.26 0 0 0 .13-.48c-2.64-1.82-5.75-3.77-7.83-5.75q-15.08-14.31-24.33-29.73-14.49-24.13-20.92-55.67a.29.28-13 0 1 .21-.33l.04-.01a.25.25 0 0 1 .3.15q11.69 33.47 33.44 61.73 10.51 13.66 24.55 23.41c13.38 9.3 30.03 10.33 45.83 8.03a.72.71 87.2 0 0 .62-.69l1.58-42.06-.6-107.56q.14-5.63.27-11.94.05-2.01.49-3.88a.41.41 0 0 1 .8.03q2.4 14.42 3.92 31.36 5.05 56.47 2.9 110.8-.23 5.81-.76 18.01-.31 7.29.45 9.69 1.6 5 6.17 7.1 10.07 4.64 21.56 6.09a.64.64 0 0 0 .69-.41q1.78-4.65 1.69-8.77.63-11.76-3.14-21.91a.44.44 0 0 1 .72-.47q9.87 9.31 9.82 23.11l-.96 8.89a.51.5-86.2 0 0 .48.56q13.45.7 26.72-.99a2.2 2.19-87.9 0 0 1.87-1.75l1.39-6.75q1.2-14.87-6.76-28.06a.4.4 0 0 1 .57-.54q15.09 10.01 14.08 28.9l-.69 5.48a.36.36 0 0 0 .43.39q6.49-1.36 10.55-4.14c8.47-7.02 5.35-18.83-.4-26.26q-8.55-11.04-23.15-14.12-14.55-2.61-28.48 2.08a.35.35 0 0 1-.33-.6c8.18-6.76 17.1-8.71 27.61-8.57l4.95.72a.48.48 0 0 0 .55-.46q.43-11.23 1.97-21.6c4.26-28.63 12.06-55.22 22.09-84.62 7.62-22.3 13.13-39.01 18.11-54.68q7.28-22.86 9.72-45.35c2.14-19.82-.68-39.86-6.65-59.11a.29.29 0 0 0-.56.04l-1.54 8.69q-1.7 7.44-4.77 14.47-6.18 15.23-15.42 27.76-11.07 15-25.28 26.97-6.94 5.84-14.27 9.08a4.01 4 5.6 0 0-1.66 1.36q-8.24 11.69-20.38 20.51-13.79 10-24 15.75-16.07 9.06-27 20.98c-5.5 6.01-8.88 12.38-12.13 19.96a.44.44 0 0 1-.81 0c-2.7-5.93-5.74-12.22-10.11-17.36-10.14-11.93-21.21-18.63-35.68-27.38-13.2-7.98-25.3-17.63-34.34-30.4a5.95 5.92 84.1 0 0-2.45-2c-8.32-3.67-15.11-10.28-22.12-17.24-15.62-15.51-25.36-35.6-30.4-57.64q-2.67-11.69-1.36-27.81 1.87-15.53 12.22-27.53a.48.48 0 0 1 .81.15q.13.36 0 .66c-11.14 25.82-5.72 58.49 7.06 82.53 3.36 6.32 7.91 12.33 12.58 18.44q4.44 5.81 9.94 10.63l5.07 4.34a.31.3-74 0 0 .5-.28q-1.25-7.52-.91-15.44a.31.31 0 0 1 .6-.09c5.58 15.55 15.35 30.22 28.09 41.21 12.86 11.09 29.23 19.29 41.89 28.46q11.71 8.48 18.73 21.37a.29.29 0 0 0 .52-.01q5.23-10.37 14.34-18 7.48-6.27 13.64-10.11c15.41-9.6 23.61-13.94 34.9-23.34q20.2-16.82 29.44-41.73a.43.43 0 0 1 .84.12q.57 8.01-1.07 15.84a.28.28 0 0 0 .46.27l5.6-4.99q13.95-12.18 24.49-28.73c11.63-18.25 19.36-40.85 16.27-62.7a.42.41 17.2 0 1 .69-.36l8.5 7.68 6.26 10.52a.25.25 0 0 0 .46-.09q3.26-20.05-2.65-38.63c-3.21-10.07-6.89-18.98-11.98-30.05q-8.9-19.32-4.61-41.67.16-.83-.11-1.38a.55.55 0 0 0-.97-.02l-3.34 5.83q-8.29 11.18-14.66 17.2-11.24 10.62-27.88 17.63-.56.23-.89.04a.42.42 0 0 1-.04-.69c7.62-5.76 13.72-12.05 20.69-19.7 8.8-9.65 15.74-20.03 21.9-31.76a1.3 1.3 0 0 0 .07-1.03q-8.47-24.61-5.58-50.75 2.37-21.5 2.94-26.75c2.19-20.31 1.8-41.41-4.61-62.41q-4.7-15.43-9.55-24.6l-2.6-4.88a.24.23 9.4 0 1 .38-.27l1.6 1.7c12.52 14.56 19.23 31.03 22.41 50.04q3.4 20.34 1.13 40.67c-2.32 20.9-5.06 38.44-2.27 57.3 3.58 24.16 19.22 48.07 44.65 53.69a.52.51.8 0 0 .62-.6c-2.53-13.43.41-26.38 5.81-38.34q7.49-16.61 16.46-30.51a.43.43 0 0 1 .79.26q-.57 7.66.74 17.07a.26.25 56.7 0 0 .47.1l7.23-11.92q9.19-13.84 12.85-27.02 4.22-15.17-2.63-28.73c-5.07-10.03-11.71-18.4-19.66-26.87q-27.34-29.12-47.08-61.78a1.76 1.75 88.6 0 0-.68-.65q-3.45-1.84-7.5-2.45l-7.36-1.41a.34.33 41.6 0 1-.04-.65q4.6-1.4 9.68-1.38 7.3.08 14.33 2.09a.21.21 0 0 0 .21-.34q-11.08-12.73-25.53-16.14a.71.71 0 0 1-.23-1.28l6.6-4.43a.25.25 0 0 0-.03-.43c-14.11-7.41-30.8-7.35-46.56-5.3a.32.32 0 0 0-.23.49l4.61 7.21q1.3 2.23 1.59 4.01c-14.1-12.38-28.2-23.51-45.04-32.02-40.12-20.27-84.44-19.83-123.81 1.09q-18.62 9.89-33.73 23.17-4.87 4.28-10.17 8.91m-43.22 257.6q.21-.07.56-.81 4.42-9.35 6.71-15.81 4.84-13.67 2.68-28.36a.2.2 0 0 0-.37-.08q-5.23 8.51-13.55 15.57a1.18 1.15-20.9 0 0-.42.91q.1 14.58 4.01 28.39a.28.28 0 0 0 .38.19m350.17 259.74c-4.29 13.26-11.39 25.54-19.31 36.75q-9.07 12.83-20.75 26.3a.45.45 0 0 0 .26.73c5.39 1.05 9.24 2.51 15.32 5.67a5.62 5.57 61.2 0 0 2.1.62q4.75.46 10.25-.19c17.13-2 32.92-7.68 46.63-17.48a.36.36 0 0 0-.09-.63q-7.91-2.82-14.26-8.7a.26.26 0 0 1 .09-.44l5.81-2.05c13.7-3.82 26.22-11.06 35.44-21.76a.46.46 0 0 0-.31-.76l-9.2-.77a.88.88 0 0 1-.6-1.44l.92-1.09q1.49-1.14 3.9-3.76 15.83-17.19 19.29-40.49a.32.32 0 0 0-.48-.33l-9.46 5.46a.48.48 0 0 1-.69-.59c9.85-23.99 2.27-52.41-11.54-73.28a.26.26 0 0 0-.48.13q-1.61 27.64-14.06 51.7c-8.59 16.59-20.92 32.57-36.63 41.86a1.36 1.32-4.8 0 0-.56.64zm-53.59-60.94-.36.58q-10.74 31.11-17.38 51.82-7.7 24.03-12.81 51.59c-1.92 10.37-2.69 20.94-3.44 30.54a1.12 1.12 0 0 0 .66 1.11q5.26 2.3 10.11 6.07 14.19 11.03 14.16 29.42a.26.25 0 0 0 .26.25h7.49a.34.33 5.1 0 0 .33-.27q2.26-13.37-4.62-25.14a.42.42 0 0 1 .61-.56l1.53 1.08q7.64 6.72 10.12 16.18l.35 7.95a.87.86 86.2 0 0 .94.83l14.13-1.24a1.67 1.67 0 0 0 1.52-1.52l.3-3.22q-.05-12.14-7.01-22.2a.3.3 0 0 1 .38-.44c9 4.81 14.24 14.42 14.38 24.56a.44.44 0 0 0 .57.41c2-.61 4.95-2.07 5.93-4.31q.58-1.53.34-3.78c-1.67-15.31-14.56-26.34-29.46-28.12q-11.53-1.54-22.84 1.89l-8.22 3.16a.33.33 0 0 1-.34-.54q6.71-6.36 15.24-9.57 2.09-.78 8.65-2.36a2.02 1.98-74.9 0 0 1.02-.6l4.57-4.98.98-1.12q15.13-17.27 26.97-37c7.26-12.09 13.58-26.83 14.97-40.99 1.4-14.18-.63-27.37-9.93-38.27-11.52-13.49-25.59-10.73-39.14-2.61q-.96.58-.96 1.4"/><path fill="#f9db8f" d="M618.07 225.49q.21 1.3 1.92 2.44a.28.26 29.6 0 1 .1.33l-.11.27a.68.68 0 0 1-1.03.27q-19.23-14.41-38.28-24.42-15.23-8.01-37.59-14.2c-14.19-3.94-29.67-4.21-44.33-3.03q-8.67.69-14.7 2.26-13.74 3.57-28.12 9.39-11.62 4.7-26.19 13.77-14.33 8.93-25.51 17.72a.55.55 0 0 1-.54.07l-.39-.16a.45.45 0 0 1-.1-.77q1.75-1.35 2.12-2.79 5.3-4.63 10.17-8.91 15.11-13.28 33.73-23.17c39.37-20.92 83.69-21.36 123.81-1.09 16.84 8.51 30.94 19.64 45.04 32.02"/><path fill="#edae4c" d="M618.07 225.49q-.29-1.78-1.59-4.01 3.39-.5 6.53-1.48 2.72-.84 12.49-.73 9.06.1 13.75.34a2.77 2.74-31.3 0 1 .92.22q.51.23 1.24.3a.2.2 0 0 1 .1.36l-7.78 5.98a.67.67 0 0 0 .33 1.2c6.11.76 11.85 2.67 16.81 6.82q1.76 1.47 6.19 4.5a.29.28-28.5 0 1-.16.52l-3.59.1q-5.08-.02-9.68 1.38a.34.33 41.6 0 0 .04.65l7.36 1.41q-.54.38-.5 1.04a.8.79 10.8 0 0 .46.67q.28.14.41.31 6.75 8.83 12.05 19c1.31 2.51 3.12 5.28 4.94 8.04q.7 1.06 12.33 17.16 11.49 15.93 22.85 26.98c4.84 4.72 9.99 10.2 12.55 14.88 5.49 10.03 8.5 22.72 5.98 33.91q-.59 2.62-.98 5.04-1.22-4.6-2.38-9.36c-.82-3.41-2.13-5.82-3.73-8.92a.59.59 0 0 0-1.08.09c-1.43 4.67-2.45 7.73-5.2 11.8q-5.82 8.61-13.83 18.46c-1.41 1.73-2.02 3.47-3.15 4.73a.29.29 0 0 1-.51-.21q.71-15.48-9.04-27.48a.25.25 0 0 0-.44.19c.28 2.18.86 4.15.9 6.51q.22 11.31-.24 18.31c-.5 7.48-2.5 20.26-2.59 30.12-.07 7.56-.74 18.13 1.27 27.3a.66.66 0 0 1-1.07.65q-5.19-4.39-9.84-8.83c-7.84-7.48-11.68-15.65-16.26-26q-2.79-6.3-3.76-11.5-1.95-10.53-1.95-16.94-.01-10.57 1.61-34.91 2.06-31.16-8.44-60.5c-3.04-8.48-8.54-15.72-13.65-22.82q-2.53-3.51-7.85-7.91-.87-.72-2.2-.07l-1.6-1.7a.24.23 9.4 0 0-.38.27l2.6 4.88v3.99a3.63 3.6 33.5 0 0 .3 1.44q2.23 5.13 2.56 6.62 4.85 22.35 5.87 30.96c1.32 11.11.41 18.98-.57 33.53q-.51 7.63-1.93 17.36c-2.4 16.5-3.79 32.15-3.62 48.87q.15 15.17-5.45 30.23-2.83 7.62-6.51 12.92c-4.98 7.2-12.52 14.88-20.7 19.35q-8.47 4.61-16.49 8.38-4 1.88-9.22 3.18-4.56 1.14-9.53 2.21 4.3-6.42 6.59-12.1a.36.36 0 0 0-.6-.39q-3.04 3.16-7.31 7.43c-12.04 12.02-27.33 19.54-44.15 20.52q-10.02.58-17.51-.63c-11.65-1.87-23.06-7.03-32.62-15.11q-6.37-5.39-11.55-10.84a.39.39 0 0 0-.66.19q-.07.32.11.72 6.12 13.47 18.17 22.98.19 3.59-4.5-.71c-3.24-2.97-5.91-6.95-8.39-10.31a5.26 5.2 78.2 0 0-2.99-1.98q-11.8-2.82-23.09-8.54c-10.14-5.14-17.56-9.58-24.27-17.58q-13.16-15.7-16.8-36.77-.87-5.1-.67-16.38.38-20.61-2.31-41.3-1.9-14.62-2.31-20.67c-.99-14.45-1.72-28.06.68-41.93q1.45-8.39 2.75-16.36c.76-4.66 2.61-9.09 4.43-13.51q1.3-3.15 1.04-6.36.81-1.25 1.19-2.77a.22.21 79.1 0 0-.33-.23l-1.14.84q-3.56.8-5.9 3.65-6.81 8.31-13.94 19.78-2.8 4.51-4.15 9.87c-1.75 6.95-4.39 15.05-5.62 20.39q-1.38 5.98-1.87 16.07-.79 16.03.51 28.85 1.14 11.26 1.04 16.23c-.26 11.84.05 16.52-1.45 24.58q-1.39 7.48-1.57 8.19c-1.47 5.77-4.27 10.97-6.42 16.93q-.6 1.67-1.65 2.96-2.2-13.45-8.52-23.48-5.17-8.2-13.83-12.55l.26-20.37a1.59 1.54 53.7 0 1 .06-.43l1.04-3.84a.43.43 0 0 0-.72-.42q-1.25 1.24-2.97 4.13-3.11 5.25-5.26 12.56-.58 1.96-.1 5.97l-5.07-.35q-7.68-8.88-14.01-18.16c-2.4-3.51-2.95-5.79-3.92-9.82a1.04.89 77.4 0 0-1.08-.81q-.2.04-.47.49-1.83 3-2.95 8-1.49 6.64-2.32 13.37-7.88-27.53 9.82-49.58 3.16-3.94 6.34-7.14 6.07-6.1 6.69-6.81 8.77-10.05 14.75-18.97 7.75-11.57 10.95-16.18 4.92-7.08 9.68-16.98 1.59-3.29 4.98-7.77 2.05-2.72 3.44-6.85l7.87-1.73a.4.39 45.1 0 0 0-.77q-7.98-1.87-16.16-.66l15.5-10.2a3.52 3.32 20.1 0 1 1.07-.46l9.41-2.29a.3.3 0 0 0 .12-.53l-7.04-5.58a.64.64 0 0 1 .26-1.13q6.91-1.46 14.45-1.3c7.55.17 12.53.23 18.42 3.07q-.97 1.71-1.13 3.22-.37 1.44-2.12 2.79a.45.45 0 0 0 .1.77l.39.16a.55.55 0 0 0 .54-.07q11.18-8.79 25.51-17.72 14.57-9.07 26.19-13.77 14.38-5.82 28.12-9.39 6.03-1.57 14.7-2.26c14.66-1.18 30.14-.91 44.33 3.03q22.36 6.19 37.59 14.2 19.05 10.01 38.28 24.42a.68.68 0 0 0 1.03-.27l.11-.27a.28.26 29.6 0 0-.1-.33q-1.71-1.14-1.92-2.44m-62.83 114.39q-6.49-4.32-13.49-6.34a.22.21-86.5 0 0-.27.24q.04.24.29.42c10.85 7.67 19.84 17.57 26.98 29.07a.2.2 0 0 0 .36-.14q-1.88-9.75-7.84-17.58.7-.45 1.21-1.33l14.63.27q7.05.64 12.02-.29.82.91 3.37.06a5.48 5.23-53.2 0 1 1.61-.27q5.88-.06 10.28-2.08 6.68-3.99 10.03-11.17 2.89-1.68 3.34-2.63c4.33-9.23 7.45-18.37 7-28.68q-.28-6.34-3.94-13.93c-5.92-12.29-15.32-22.29-28.53-25.06q-14.73-3.09-26.59 4.72c-22.4 14.75-20.91 46.14-12.12 67.75q1.6 3.91 1.66 6.97m-145.85-9.25q3.58 7.72 10.46 12.11l1.84.76a.94.76 51.3 0 0 .18.04l13.31 1.45q7.67.81 15.8.16l10.55-.85a1.19 1.18-72.4 0 0 .82-.43q.87-1.06 1.13-2.6l4.47-2.58a1.32 1.32 0 0 0 .57-.66c4.4-11.28 7.25-20.65 7.59-31.56.32-10.35-1.99-22.06-7.85-30.29-7.13-10.03-17.76-16.16-30.52-15.41-15.26.91-25.12 9.41-32.78 21.84-5.68 9.22-6.62 19.66-4.16 29.91q1.81 7.54 2.73 9.84 1.93 4.89 5.86 8.27m54.55 13.66q-7.07 7.68-8.95 19.1a.33.33 0 0 0 .61.21c3.25-6.08 7.13-10.89 11.89-16.05 4.75-5.17 9.22-9.43 15.01-13.17a.33.33 0 0 0-.26-.6q-11.22 2.82-18.3 10.51m48.71 126.52c16.79-.09 30.81-8.98 39.05-23.36a1.47 1.45-74.5 0 1 1.28-.73c27.89.19 41.46-29.65 43.43-52.94a.56.56 0 0 1 .71-.49q5.8 1.67 11.09 4.99a.41.41 0 0 0 .62-.43c-2.69-13.34-18.58-17.84-27.23-6.54a.32.32 0 0 0 .25.51h8.38a.47.47 0 0 1 .46.55q-2.74 14.87-9.97 27.31c-8.35 14.36-23.35 22.49-39.96 17.23q-13.24-4.19-23.66-13.26a2.21 2.19 20.9 0 1-.75-1.65v-11.72a.73.73 0 0 1 .49-.69c5.08-1.69 9.13-2.83 14-6 9.38-6.08 17.98-14.93 21.07-25.31 4.8-16.08-5.51-26-20.33-29.27q-8.69-1.91-19.59-1.85t-19.56 2.06c-14.79 3.42-24.99 13.45-20.02 29.48 3.2 10.35 11.89 19.11 21.34 25.09 4.9 3.11 8.96 4.21 14.06 5.85a.73.73 0 0 1 .5.68l.12 11.72a2.21 2.19-21.5 0 1-.73 1.66q-10.33 9.18-23.52 13.51c-16.55 5.44-31.64-2.54-40.14-16.81q-7.36-12.36-10.26-27.2a.47.47 0 0 1 .46-.55l8.37-.09a.32.32 0 0 0 .25-.52c-8.77-11.2-24.61-6.54-27.16 6.83a.41.41 0 0 0 .62.43q5.26-3.38 11.04-5.11a.56.56 0 0 1 .72.48c2.21 23.27 16.1 52.96 43.98 52.48a1.47 1.45 73.9 0 1 1.29.72c8.39 14.29 22.5 23.03 39.3 22.94"/><path fill="#f9db8f" d="m663.31 239.61 3.59-.1a.29.28-28.5 0 0 .16-.52q-4.43-3.03-6.19-4.5c-4.96-4.15-10.7-6.06-16.81-6.82a.67.67 0 0 1-.33-1.2l7.78-5.98a.2.2 0 0 0-.1-.36q-.73-.07-1.24-.3a2.77 2.74-31.3 0 0-.92-.22q-4.69-.24-13.75-.34-9.77-.11-12.49.73-3.14.98-6.53 1.48l-4.61-7.21a.32.32 0 0 1 .23-.49c15.76-2.05 32.45-2.11 46.56 5.3a.25.25 0 0 1 .03.43l-6.6 4.43a.71.71 0 0 0 .23 1.28q14.45 3.41 25.53 16.14a.21.21 0 0 1-.21.34q-7.03-2.01-14.33-2.09M406.45 223.42c-5.89-2.84-10.87-2.9-18.42-3.07q-7.54-.16-14.45 1.3a.64.64 0 0 0-.26 1.13l7.04 5.58a.3.3 0 0 1-.12.53l-9.41 2.29a3.52 3.32 20.1 0 0-1.07.46l-15.5 10.2-7.26 1.49a.2.2 0 0 1-.19-.33q10.13-12.24 25.11-16.58a.27.26 57.9 0 0 .1-.45q-3.46-3.13-7.5-4.76a.35.34 42.6 0 1-.03-.63c14.84-7.45 30.49-7.7 46.71-6.01a.34.33-71.5 0 1 .25.51zM725.73 390.55q-.72.44-1.11.25a.46.46 0 0 1-.21-.6q4.22-9.49 6.71-20.12.39-2.42.98-5.04c2.52-11.19-.49-23.88-5.98-33.91-2.56-4.68-7.71-10.16-12.55-14.88q-11.36-11.05-22.85-26.98-11.63-16.1-12.33-17.16c-1.82-2.76-3.63-5.53-4.94-8.04q-5.3-10.17-12.05-19-.13-.17-.41-.31a.8.79 10.8 0 1-.46-.67q-.04-.66.5-1.04 4.05.61 7.5 2.45a1.76 1.75 88.6 0 1 .68.65q19.74 32.66 47.08 61.78c7.95 8.47 14.59 16.84 19.66 26.87q6.85 13.56 2.63 28.73-3.66 13.18-12.85 27.02M362.55 245q-1.39 4.13-3.44 6.85-3.39 4.48-4.98 7.77-4.76 9.9-9.68 16.98-3.2 4.61-10.95 16.18-5.98 8.92-14.75 18.97-.62.71-6.69 6.81-3.18 3.2-6.34 7.14-17.7 22.05-9.82 49.58.65 2.41 1.27 4.74.29 1.06-1.08.76-1.23.06-2.24-.34a1.48 1.46 86.5 0 1-.79-.71c-5.87-11.4-8.93-25.22-4.4-37.6 5.29-14.48 16.29-26.34 26.47-38.01 15.14-17.38 28.25-36.15 39.72-56.25a1.36 1.34-83.8 0 1 .75-.61z"/><path fill="#d98a36" d="M731.12 370.08q-2.49 10.63-6.71 20.12a.46.46 0 0 0 .21.6q.39.19 1.11-.25l-7.23 11.92a.26.25 56.7 0 1-.47-.1q-1.31-9.41-.74-17.07a.43.43 0 0 0-.79-.26q-8.97 13.9-16.46 30.51c-5.4 11.96-8.34 24.91-5.81 38.34a.52.51.8 0 1-.62.6c-25.43-5.62-41.07-29.53-44.65-53.69-2.79-18.86-.05-36.4 2.27-57.3q2.27-20.33-1.13-40.67c-3.18-19.01-9.89-35.48-22.41-50.04q1.33-.65 2.2.07 5.32 4.4 7.85 7.91c5.11 7.1 10.61 14.34 13.65 22.82q10.5 29.34 8.44 60.5-1.62 24.34-1.61 34.91 0 6.41 1.95 16.94.97 5.2 3.76 11.5c4.58 10.35 8.42 18.52 16.26 26q4.65 4.44 9.84 8.83a.66.66 0 0 0 1.07-.65c-2.01-9.17-1.34-19.74-1.27-27.3.09-9.86 2.09-22.64 2.59-30.12q.46-7 .24-18.31c-.04-2.36-.62-4.33-.9-6.51a.25.25 0 0 1 .44-.19q9.75 12 9.04 27.48a.29.29 0 0 0 .51.21c1.13-1.26 1.74-3 3.15-4.73q8.01-9.85 13.83-18.46c2.75-4.07 3.77-7.13 5.2-11.8a.59.59 0 0 1 1.08-.09c1.6 3.1 2.91 5.51 3.73 8.92q1.16 4.76 2.38 9.36M396.78 253.49c-9.2 11.3-15.81 23.67-19.5 37.98q-5.19 20.15-4.56 41.54.26 8.87 2.14 22.72c1.23 9.04 1.94 18.82 2.38 25.27q.54 7.85-.19 17.27c-.88 11.46-4.5 21.87-10.03 32.07q-3.46 6.4-8.67 11.78a.3.3 0 0 1-.52-.2q-.28-10.67-2.07-20.93 1.05-1.29 1.65-2.96c2.15-5.96 4.95-11.16 6.42-16.93q.18-.71 1.57-8.19c1.5-8.06 1.19-12.74 1.45-24.58q.1-4.97-1.04-16.23-1.3-12.82-.51-28.85.49-10.09 1.87-16.07c1.23-5.34 3.87-13.44 5.62-20.39q1.35-5.36 4.15-9.87 7.13-11.47 13.94-19.78 2.34-2.85 5.9-3.65"/><path fill="#d98a36" d="M473.49 488.05q9.42 6.77 21.29 9.68 23.27 5.69 45.26-3.69 14.15-6.03 22.98-18.76 4.97-1.07 9.53-2.21 5.22-1.3 9.22-3.18 8.02-3.77 16.49-8.38c8.18-4.47 15.72-12.15 20.7-19.35q3.68-5.3 6.51-12.92 5.6-15.06 5.45-30.23c-.17-16.72 1.22-32.37 3.62-48.87q1.42-9.73 1.93-17.36c.98-14.55 1.89-22.42.57-33.53q-1.02-8.61-5.87-30.96-.33-1.49-2.56-6.62a3.63 3.6 33.5 0 1-.3-1.44v-3.99q4.85 9.17 9.55 24.6c6.41 21 6.8 42.1 4.61 62.41q-.57 5.25-2.94 26.75-2.89 26.14 5.58 50.75a1.3 1.3 0 0 1-.07 1.03c-6.16 11.73-13.1 22.11-21.9 31.76-6.97 7.65-13.07 13.94-20.69 19.7a.42.42 0 0 0 .04.69q.33.19.89-.04 16.64-7.01 27.88-17.63 6.37-6.02 14.66-17.2-1.2 9.14-.52 17.42.46 5.65 3.2 14.85c3.02 10.12 4.77 15.99 8.79 24.63l-.01.68a.89.89 0 0 1-1.46.68q-5.63-4.7-11.75-9.36c-6.14-4.68-9.6-9.58-14.71-16.36a.77.77 0 0 0-1.17-.07q-11.69 11.97-27.25 18.28-10.44 4.23-25.11 9.12c-12.5 4.17-19.71 12.2-27.92 23.07q-8.43 11.15-14.5 20.75a.57.57 0 0 1-1.05-.4l1.73-10.02a.34.34 0 0 0-.6-.28c-7.92 9.67-14.82 20.86-19.04 32.96a.61.61 0 0 1-1.15.02q-6.61-17.62-18.89-31.48a.31.31 0 0 0-.54.28l2.31 9.52a.76.75-67.4 0 1-1.38.57q-9.02-15.1-20.62-28.2c-8.23-9.3-15.55-13.02-27.69-16.59s-24.34-8.05-34.99-15.12c-4.11-2.73-7.98-6.34-11.13-9.45a.53.53 0 0 0-.81.09c-6.62 9.95-15.54 15.4-26.8 22.9a.67.64-47.4 0 1-.67.04q-.72-.37-.56-1.16 3.38-7.94 6.94-15.88 4.63-10.31 6.12-24.84.35-3.35.5-7.12 15.7 17.55 37.42 26.7a.4.4 0 0 0 .41-.68c-3.53-2.97-7.34-5.76-10.51-9.03q-5.11-5.29-12.32-13-11.77-12.59-19.76-28.87a1.27 1.27 0 0 1-.05-1q5.75-15.64 5.82-32.46c.06-15.62-1.71-26.01-4.01-44.98q-.91-7.57-1-25.01-.14-27.72 10.7-54.6 2.03-5.04 5.17-10.01.26 3.21-1.04 6.36c-1.82 4.42-3.67 8.85-4.43 13.51q-1.3 7.97-2.75 16.36c-2.4 13.87-1.67 27.48-.68 41.93q.41 6.05 2.31 20.67 2.69 20.69 2.31 41.3-.2 11.28.67 16.38 3.64 21.07 16.8 36.77c6.71 8 14.13 12.44 24.27 17.58q11.29 5.72 23.09 8.54a5.26 5.2 78.2 0 1 2.99 1.98c2.48 3.36 5.15 7.34 8.39 10.31q4.69 4.3 4.5.71"/><path fill="#d98a36" d="M614.42 330.74q7.58-20.14-5.25-36.92c-8.02-10.49-20.47-15.63-33.31-11.45-10.33 3.36-15.53 10.99-18.71 20.92-3.98 12.43-.91 28.71 4.31 40.23q.31.69 1.02.7-.51.88-1.21 1.33l-6.03-5.67q-.06-3.06-1.66-6.97c-8.79-21.61-10.28-53 12.12-67.75q11.86-7.81 26.59-4.72c13.21 2.77 22.61 12.77 28.53 25.06q3.66 7.59 3.94 13.93c.45 10.31-2.67 19.45-7 28.68q-.45.95-3.34 2.63M463.48 341.27q5.2-13.47 4.51-27.66c-.62-12.92-6.75-25.59-19.38-30.42-8.71-3.32-18.39-1.74-26.21 3.82-14.34 10.18-18.36 27.08-13.01 43.62q-3.93-3.38-5.86-8.27-.92-2.3-2.73-9.84c-2.46-10.25-1.52-20.69 4.16-29.91 7.66-12.43 17.52-20.93 32.78-21.84 12.76-.75 23.39 5.38 30.52 15.41 5.86 8.23 8.17 19.94 7.85 30.29-.34 10.91-3.19 20.28-7.59 31.56a1.32 1.32 0 0 1-.57.66z"/><path fill="#080403" d="M614.42 330.74q-3.35 7.18-10.03 11.17 8.52-11.76 6.38-25.28c-1.79-11.32-8.74-21.76-19.77-25.86q-13.89-5.18-24.29 4.94l-.67.69-2.73 3.24a.21.21 0 0 0 .23.33c7.45-2.52 15.46-2.65 21.75 2.47q13.15 10.7 7.96 27.33-3.59 11.48-16.14 14.72l-14.63-.27q-.71-.01-1.02-.7c-5.22-11.52-8.29-27.8-4.31-40.23 3.18-9.93 8.38-17.56 18.71-20.92 12.84-4.18 25.29.96 33.31 11.45q12.83 16.78 5.25 36.92m-42.394-28.48a7.74 7.34-98.2 0 0-6.161 8.707 7.74 7.34-98.2 0 0 8.369 6.614 7.74 7.34-98.2 0 0 6.161-8.708 7.74 7.34-98.2 0 0-8.369-6.614m19.104 25.61a3.43 3.43 0 0 0-3.43-3.43 3.43 3.43 0 0 0-3.43 3.43 3.43 3.43 0 0 0 3.43 3.43 3.43 3.43 0 0 0 3.43-3.43M463.48 341.27q-.26 1.54-1.13 2.6a1.19 1.18-72.4 0 1-.82.43l-10.55.85q-17.82-1.1-21.07-18.08-2.75-14.4 7.65-23.63c6.61-5.86 13.85-5.39 22.02-3.35a.32.32 0 0 0 .36-.46q-1.06-2.01-2.89-3.18-7.05-7.56-16.31-6.85c-12.24.94-21.54 9.42-25.53 20.37q-6.28 17.25 4.64 32.77-6.88-4.39-10.46-12.11c-5.35-16.54-1.33-33.44 13.01-43.62 7.82-5.56 17.5-7.14 26.21-3.82 12.63 4.83 18.76 17.5 19.38 30.42q.69 14.19-4.51 27.66m-12.034-38.683a7.72 7.36-85.2 0 0-7.98 7.077 7.72 7.36-85.2 0 0 6.688 8.309 7.72 7.36-85.2 0 0 7.98-7.077 7.72 7.36-85.2 0 0-6.688-8.309M439.95 328.3a3.44 3.44 0 0 0-3.44-3.44 3.44 3.44 0 0 0-3.44 3.44 3.44 3.44 0 0 0 3.44 3.44 3.44 3.44 0 0 0 3.44-3.44"/><path fill="#fdfefe" d="M604.39 341.91q-4.4 2.02-10.28 2.08a5.48 5.23-53.2 0 0-1.61.27q-2.55.85-3.37-.06 6.92-3.32 10.02-10.28c5.83-13.11 2.3-28.2-9.73-35.76-6.84-4.31-14.88-4.99-22.43-2.2q-.14-.08-.28-.25 10.4-10.12 24.29-4.94c11.03 4.1 17.98 14.54 19.77 25.86q2.14 13.52-6.38 25.28M457.05 296.45c-27.01-10.17-46.4 24.79-27.2 44.7q.93.96 5.33 3.84l-13.31-1.45a.94.76 51.3 0 1-.18-.04l-1.84-.76q-10.92-15.52-4.64-32.77c3.99-10.95 13.29-19.43 25.53-20.37q9.26-.71 16.31 6.85"/><path fill="#703b18" d="M589.13 344.2q-4.97.93-12.02.29 12.55-3.24 16.14-14.72 5.19-16.63-7.96-27.33c-6.29-5.12-14.3-4.99-21.75-2.47a.21.21 0 0 1-.23-.33l2.73-3.24q.76.01.95-.44c7.55-2.79 15.59-2.11 22.43 2.2 12.03 7.56 15.56 22.65 9.73 35.76q-3.1 6.96-10.02 10.28M457.05 296.45q1.83 1.17 2.89 3.18a.32.32 0 0 1-.36.46c-8.17-2.04-15.41-2.51-22.02 3.35q-10.4 9.23-7.65 23.63 3.25 16.98 21.07 18.08-8.13.65-15.8-.16-4.4-2.88-5.33-3.84c-19.2-19.91.19-54.87 27.2-44.7"/><path fill="#e36760" d="M566.71 295.71q.14.17.28.25-.19.45-.95.44z"/><ellipse fill="#fdfefe" rx="7.74" ry="7.34" transform="rotate(-98.2 420.796 -93.27)"/><ellipse fill="#fdfefe" rx="7.72" ry="7.36" transform="rotate(-85.2 394.113 -89.98)"/><circle cx="587.7" cy="327.87" r="3.43" fill="#fdfefe"/><circle cx="436.51" cy="328.3" r="3.44" fill="#fdfefe"/><path fill="#080403" d="m555.24 339.88 6.03 5.67q5.96 7.83 7.84 17.58a.2.2 0 0 1-.36.14c-7.14-11.5-16.13-21.4-26.98-29.07q-.25-.18-.29-.42a.22.21-86.5 0 1 .27-.24q7 2.02 13.49 6.34M467.49 347.55c-4.76 5.16-8.64 9.97-11.89 16.05a.33.33 0 0 1-.61-.21q1.88-11.42 8.95-19.1 7.08-7.69 18.3-10.51a.33.33 0 0 1 .26.6c-5.79 3.74-10.26 8-15.01 13.17M511.99 347.16q10.9-.06 19.59 1.85c14.82 3.27 25.13 13.19 20.33 29.27-3.09 10.38-11.69 19.23-21.07 25.31-4.87 3.17-8.92 4.31-14 6a.73.73 0 0 0-.49.69V422a2.21 2.19 20.9 0 0 .75 1.65q10.42 9.07 23.66 13.26c16.61 5.26 31.61-2.87 39.96-17.23q7.23-12.44 9.97-27.31a.47.47 0 0 0-.46-.55h-8.38a.32.32 0 0 1-.25-.51c8.65-11.3 24.54-6.8 27.23 6.54a.41.41 0 0 1-.62.43q-5.29-3.32-11.09-4.99a.56.56 0 0 0-.71.49c-1.97 23.29-15.54 53.13-43.43 52.94a1.47 1.45-74.5 0 0-1.28.73c-8.24 14.38-22.26 23.27-39.05 23.36-16.8.09-30.91-8.65-39.3-22.94a1.47 1.45 73.9 0 0-1.29-.72c-27.88.48-41.77-29.21-43.98-52.48a.56.56 0 0 0-.72-.48q-5.78 1.73-11.04 5.11a.41.41 0 0 1-.62-.43c2.55-13.37 18.39-18.03 27.16-6.83a.32.32 0 0 1-.25.52l-8.37.09a.47.47 0 0 0-.46.55q2.9 14.84 10.26 27.2c8.5 14.27 23.59 22.25 40.14 16.81q13.19-4.33 23.52-13.51a2.21 2.19-21.5 0 0 .73-1.66l-.12-11.72a.73.73 0 0 0-.5-.68c-5.1-1.64-9.16-2.74-14.06-5.85-9.45-5.98-18.14-14.74-21.34-25.09-4.97-16.03 5.23-26.06 20.02-29.48q8.66-2 19.56-2.06m-.04 18.65c7.74 0 16.82.03 23.68-2.76a1.25 1.25 0 0 0 .5-1.94c-1.71-2.14-7.46-3.61-9.69-4.02q-6.93-1.27-14.5-1.27-7.57.01-14.49 1.28c-2.23.41-7.98 1.89-9.69 4.03a1.25 1.25 0 0 0 .5 1.94c6.86 2.78 15.94 2.74 23.69 2.74m.16 96.11c9.02-.05 19.56-3.33 25.93-10.07a.51.51 0 0 0-.09-.77c-7.84-5.32-16.48-6.76-25.93-6.71s-18.08 1.59-25.86 6.99a.51.51 0 0 0-.08.77c6.44 6.68 17.01 9.84 26.03 9.79"/><path fill="#d98a36" d="M320.65 382.21q-6.95.95-12.33 2.99a1.26 1.25 50.6 0 1-1.09-.11q-5.25-3.25-11.14-4.31 1.37.3 1.08-.76-.62-2.33-1.27-4.74.83-6.73 2.32-13.37 1.12-5 2.95-8 .27-.45.47-.49a1.04.89 77.4 0 1 1.08.81c.97 4.03 1.52 6.31 3.92 9.82q6.33 9.28 14.01 18.16"/><path fill="#fdfefe" d="M511.94 355.82q7.57 0 14.5 1.27c2.23.41 7.98 1.88 9.69 4.02a1.25 1.25 0 0 1-.5 1.94c-6.86 2.79-15.94 2.76-23.68 2.76-7.75 0-16.83.04-23.69-2.74a1.25 1.25 0 0 1-.5-1.94c1.71-2.14 7.46-3.62 9.69-4.03q6.92-1.27 14.49-1.28"/><path fill="#d98a36" d="m333.41 384.96-7.69-2.4q-.48-4.01.1-5.97 2.15-7.31 5.26-12.56 1.72-2.89 2.97-4.13a.43.43 0 0 1 .72.42l-1.04 3.84a1.59 1.54 53.7 0 0-.06.43z"/><path fill="#f9db8f" d="m307.84 400.22-4.61-3.5a3.33 3.32 68 0 0-1.5-.64q-4.97-.76-7.25-.73-15.72.19-22.35 14.54-.33.7-.08 3.11.07.71-1.1.66-2.53-3.37-1.6-6.52 3.06-10.41 12.71-15.34 7.75-3.95 15.43-2.27 7.5 1.65 10.35 10.69M339.89 401.55q-.12.77-1.05.93a.85.85 0 0 1-.8-.31q-1.45-1.84-4.8-3.42-7.21-3.38-14.42-2.77c-1.81.15-3.81 1.41-5.71 2.02l-.8-4.83a.9.89-13.9 0 1 .61-1q17.14-5.55 26.97 9.38"/><path fill="#edae4c" d="M307.84 400.22q2.36 4.89 3.13 11.32a.38.38 0 0 0 .75.05q1.83-6.7 1.39-13.59c1.9-.61 3.9-1.87 5.71-2.02q7.21-.61 14.42 2.77 3.35 1.58 4.8 3.42a.85.85 0 0 0 .8.31q.93-.16 1.05-.93c9.4 15.19 11.15 36.69 9.22 53.85q-3.45 7.09-5.87 14.57-.67 2.07-2.78 6.14-1 1.94-2.6 3.16-2.31 1.76-3.51 4.69a1.17 1.17 0 0 0 .92 1.6c2.47.35 5.26-1.11 7.23-1.85a2.29 2.27-48.2 0 1 1.32-.08c4.52 1.09 7.9 6.7 9.49 10.72a.76.75 76.5 0 0 .77.48q1.22-.13 2.12.09l10.96 25.01q.55 6.45.3 18.82-.22 11.27 2.26 25.18c2.56 14.4 8.89 28.79 15.16 41.74 1.63 3.36 1.84 5.21 1.17 8.74-.96 5.11-9.29 7.82-13.69 8.18q-14.11 1.16-28.56-4c-11.97-4.27-20.46-15.89-25.04-27.39a.36.36 0 0 0-.67 0q-2.82 6.58-2.32 14.33-2.46-7.72-4.56-15.46-1.96-7.22-3.2-15.75-1.64-11.31-3.63-19.56-1.46-6.07-3.54-20.22-2.34-15.89-10.81-35.92-1.26-2.99-3.62-5.86-9.89-12.03-21.42-28.49-3.28-4.69-5.38-9.61-.68-1.58-2.88-9.82-1.67-6.29-1.18-9.67.75-5.16 3.45-9.14 2.99-4.42 8.65-6.6l11.2 7.8a.36.36 0 0 0 .51-.49l-8.41-13.08q1.17.05 1.1-.66-.25-2.41.08-3.11 6.63-14.35 22.35-14.54 2.28-.03 7.25.73a3.33 3.32 68 0 1 1.5.64zm-20.286-.155a14.61 10.97-111.8 0 0-4.76 17.639 14.61 10.97-111.8 0 0 15.612 9.491 14.61 10.97-111.8 0 0 4.76-17.639 14.61 10.97-111.8 0 0-15.612-9.491m37.637 2.397a13.19 9.47-96 0 0-8.04 14.108 13.19 9.47-96 0 0 10.798 12.128 13.19 9.47-96 0 0 8.04-14.108 13.19 9.47-96 0 0-10.798-12.128m-60.57 27.667a13.24 9.55-124.5 0 0-.371 16.32 13.24 9.55-124.5 0 0 15.37 5.502 13.24 9.55-124.5 0 0 .37-16.32 13.24 9.55-124.5 0 0-15.37-5.502m37.259 3.351q-7.83 3.59-9.99 12.41-1.44 5.92-4.62 13.86-1.49 3.72-.16 8.84c2.21 8.51 13.34 10.08 18.92 4.66q1.35-1.31 6.86-6.85 1.14-1.15 3.13-2.06t3.6-1.03q7.8-.55 9.67-.72c7.75-.69 13.83-10.14 8.83-17.37q-3.01-4.35-6.8-5.65-8.09-2.78-13.52-5.55-8.08-4.12-15.92-.54"/><ellipse fill="#080403" rx="14.61" ry="10.97" transform="rotate(248.2 286.514 107.634)"/><ellipse fill="#080403" rx="13.19" ry="9.47" transform="rotate(-96 350.38 60.768)"/><path fill="#f9db8f" d="M267.65 419.43q-5.66 2.18-8.65 6.6-2.7 3.98-3.45 9.14-.49 3.38 1.18 9.67 2.2 8.24 2.88 9.82 2.1 4.92 5.38 9.61 11.53 16.46 21.42 28.49 2.36 2.87 3.62 5.86 8.47 20.03 10.81 35.92 2.08 14.15 3.54 20.22 1.99 8.25 3.63 19.56 1.24 8.53 3.2 15.75 2.1 7.74 4.56 15.46l2.37 9.6q-4.22-6.12-6.32-12.48-5.88-17.87-9.42-34.22-5.22-24.08-10.71-45.64-3.99-15.67-11.33-26.38-3.64-5.31-14.62-19.78-8.79-11.58-13.61-24.88c-4.64-12.83-2.47-28.53 10.39-35.7a1.42 1.42 0 0 1 1.66.19z"/><ellipse fill="#080403" rx="13.24" ry="9.55" transform="rotate(235.5 252.081 148.935)"/><path fill="#080403" d="M316.02 464.34q-1.99.91-3.13 2.06-5.51 5.54-6.86 6.85c-5.58 5.42-16.71 3.85-18.92-4.66q-1.33-5.12.16-8.84 3.18-7.94 4.62-13.86 2.16-8.82 9.99-12.41 7.84-3.58 15.92.54 5.43 2.77 13.52 5.55 3.79 1.3 6.8 5.65c5 7.23-1.08 16.68-8.83 17.37q-1.87.17-9.67.72-1.61.12-3.6 1.03"/><path fill="#f9db8f" d="M662.86 534.55q.54-12.06-.95-21.98-1.22-8.08-4.52-16.61c-4.02-8.64-5.77-14.51-8.79-24.63q-2.74-9.2-3.2-14.85-.68-8.28.52-17.42l3.34-5.83a.55.55 0 0 1 .97.02q.27.55.11 1.38-4.29 22.35 4.61 41.67c5.09 11.07 8.77 19.98 11.98 30.05q5.91 18.58 2.65 38.63a.25.25 0 0 1-.46.09z"/><path fill="#080403" d="M228.97 464.71q1.29 3.65 3.4 7.99 4.19 8.58 10.09 16.47a.5.49 83.6 0 1-.6.75c-9.55-4.2-15.61-13.29-19.04-23.04s-4.4-20.63.43-29.89a.5.49 57.7 0 1 .93.21q.34 9.84 2.44 19.16 1.07 4.7 2.35 8.35"/><path fill="#fdfefe" d="M362.1 484.24a.28.28 0 0 1-.38-.19q-3.91-13.81-4.01-28.39a1.18 1.15-20.9 0 1 .42-.91q8.32-7.06 13.55-15.57a.2.2 0 0 1 .37.08q2.16 14.69-2.68 28.36-2.29 6.46-6.71 15.81-.35.74-.56.81"/><path fill="#f9db8f" d="M385.19 448.59q-.15 3.77-.5 7.12-1.49 14.53-6.12 24.84-3.56 7.94-6.94 15.88-2.02 3.91-1.34 7.87a.72.67 55 0 1-.06.43q-.39.73-1.21.58l-3.08-8.77a1.48 1.45 47.2 0 1 .03-1.06c5.17-12.14 12.91-24.72 14.16-38.19q.67-7.21-.16-14.19a.49.49 0 0 1 .87-.35z"/><path fill="#e36760" d="M512.02 444.37c9.45-.05 18.09 1.39 25.93 6.71a.51.51 0 0 1 .09.77c-6.37 6.74-16.91 10.02-25.93 10.07s-19.59-3.11-26.03-9.79a.51.51 0 0 1 .08-.77c7.78-5.4 16.41-6.94 25.86-6.99"/><path fill="#d98a36" d="M349.11 455.4c-.18 13.23 2.82 27.09 7.09 39.52q-.9-.22-2.12-.09a.76.75 76.5 0 1-.77-.48c-1.59-4.02-4.97-9.63-9.49-10.72a2.29 2.27-48.2 0 0-1.32.08c-1.97.74-4.76 2.2-7.23 1.85a1.17 1.17 0 0 1-.92-1.6q1.2-2.93 3.51-4.69 1.6-1.22 2.6-3.16 2.11-4.07 2.78-6.14 2.42-7.48 5.87-14.57"/><path fill="#080403" d="M212.94 473.01c2.37 5.67 5.73 10.86 8.62 15.02a.56.56 0 0 1-.71.83q-9.55-4.57-13.32-13.59-3.78-9.03-.32-19.03a.56.56 0 0 1 1.09.08c.93 4.97 2.26 11.01 4.64 16.69M563.02 475.28q-8.83 12.73-22.98 18.76-21.99 9.38-45.26 3.69-11.87-2.91-21.29-9.68-12.05-9.51-18.17-22.98-.18-.4-.11-.72a.39.39 0 0 1 .66-.19q5.18 5.45 11.55 10.84c9.56 8.08 20.97 13.24 32.62 15.11q7.49 1.21 17.51.63c16.82-.98 32.11-8.5 44.15-20.52q4.27-4.27 7.31-7.43a.36.36 0 0 1 .6.39q-2.29 5.68-6.59 12.1"/><path fill="#edae4c" d="M657.39 495.96q3.3 8.53 4.52 16.61 1.49 9.92.95 21.98l-8.5-7.68a.42.41 17.2 0 0-.69.36c3.09 21.85-4.64 44.45-16.27 62.7q-10.54 16.55-24.49 28.73 1.99-4.97 3.9-9.29 1.22-2.77 3.86-17.38 3.16-17.48-3.22-34.32a.61.6-49.8 0 0-1.16.1c-.38 1.86-.53 4.14-1.21 6.27q-3.55 11.05-6.57 16.98-8.06 15.78-21.86 31.16-14.44 16.09-32.55 28.42c-13.73 9.35-26.83 18.09-36.07 31.91q-1.97 2.94-2.99 6.5a.5.5 0 0 1-.95.04c-3.65-9.9-12.8-18.92-21.27-25.13q-6.16-4.53-14.95-10.3-22.82-15.01-39.8-37.13-4.15-5.41-7.54-11.83-5.4-10.27-6.42-12.54-4.26-9.53-6.66-21.51a.31.31 0 0 0-.59-.07c-3.96 8.98-4.6 17.41-4.18 27.54q.29 6.91 1.38 12.1c.74 3.57 2.34 6.99 3.09 10.2.79 3.38 2.57 6.49 4.11 9.53q.34.67-.26 1.09-.29.21-.73.04-5.5-4.82-9.94-10.63c-4.67-6.11-9.22-12.12-12.58-18.44-12.78-24.04-18.2-56.71-7.06-82.53q.13-.3 0-.66a.48.48 0 0 0-.81-.15q-10.35 12-12.22 27.53-1.12-.28-2.18-1.41c.52-10.43-2.7-19.25-6.46-29.44q.82.15 1.21-.58a.72.67 55 0 0 .06-.43q-.68-3.96 1.34-7.87-.16.79.56 1.16a.67.64-47.4 0 0 .67-.04c11.26-7.5 20.18-12.95 26.8-22.9a.53.53 0 0 1 .81-.09c3.15 3.11 7.02 6.72 11.13 9.45 10.65 7.07 22.85 11.55 34.99 15.12s19.46 7.29 27.69 16.59q11.6 13.1 20.62 28.2a.76.75-67.4 0 0 1.38-.57l-2.31-9.52a.31.31 0 0 1 .54-.28q12.28 13.86 18.89 31.48a.61.61 0 0 0 1.15-.02c4.22-12.1 11.12-23.29 19.04-32.96a.34.34 0 0 1 .6.28l-1.73 10.02a.57.57 0 0 0 1.05.4q6.07-9.6 14.5-20.75c8.21-10.87 15.42-18.9 27.92-23.07q14.67-4.89 25.11-9.12 15.56-6.31 27.25-18.28a.77.77 0 0 1 1.17.07c5.11 6.78 8.57 11.68 14.71 16.36q6.12 4.66 11.75 9.36a.89.89 0 0 0 1.46-.68zm-47.94 33.21q-.18.27-.13.83 1.96 19.31-6.36 36.61a.57.57 0 0 0 .65.81c1.56-.39 4.27-3.44 5.89-5.34 1.76-2.07 2.81-4.98 4.39-7.7q.43-.74 4.51-3.35a4.23 3.82 3 0 0 .64-.52c12.09-12.07 11.51-32.78 2.3-46.52a.42.41-69.4 0 0-.74.34c3.42 13.59 3.27 26.93-3.9 39.29a.38.38 0 0 1-.7-.15q-.92-7.91-6.05-14.32a.31.31 0 0 0-.5.02m-195.88-23.38q-.49.36-1.1 1.2c-9.8 13.68-9.14 38.35 5.87 48.73a6.72 6.63 3.4 0 1 2.08 2.31c2.29 4.18 5.76 10.06 9.72 12.51a.49.49 0 0 0 .74-.5q-.2-1.22-.76-2.44-7.43-16.24-5.23-33.95a.33.32-18.4 0 0-.55-.27c-3.97 3.81-5.26 8.46-6.11 13.79a.57.57 0 0 1-1.06.18c-6.89-12.62-7.15-27.75-3.12-41.22a.31.31 0 0 0-.48-.34m153.05 58.99q.55 23.66-17 38.81a.36.35-11.2 0 1-.57-.38q4.95-14.69.36-29.68a.3.3 0 0 0-.58.08c-.17 15.47-2.83 29.07-11.1 42.1a.5.5 0 0 0 .62.73q10.53-4.45 19.04-11.86c4.6-4.01 7.43-10.64 10.07-16.11a4.33 4.26-11.8 0 1 .66-.99q.57-.65 3.29-3.06c5.8-5.12 8.99-13.2 10.86-21.33q2.95-12.82-1.69-25.48a.2.2 0 0 0-.38.08q.18 3.42.17 5.55-.06 18.16-9.03 33.54a.69.69 0 0 1-1.28-.3q-.43-5.92-3.13-11.78a.17.16-58.8 0 0-.31.08m-84.95 40.69q-14.67-11.9-17.02-30.84-.51-4.04-.47-8.44a.28.27-34.1 0 0-.53-.1q-2.22 5.59-2.99 11.8a.57.56-57.4 0 1-1.04.23q-5.77-9.31-7.71-20.07-2.19-12.12-1.44-18.75a.37.37 0 0 0-.32-.41h-.02a.33.32-80.5 0 0-.36.26c-3.71 16.68-2.46 37.11 11.99 49.06q2.01 1.67 3.11 4.28c3.42 8.12 7.1 12.92 14.24 17.87q6.39 4.44 12.91 7.06a.36.36 0 0 0 .45-.52q-10.84-18.72-10.82-40.32a.32.32 0 0 0-.63-.08q-3.81 15.18 1.02 28.71a.23.23 0 0 1-.37.26"/><path fill="#d98a36" d="M609.45 529.17a.31.31 0 0 1 .5-.02q5.13 6.41 6.05 14.32a.38.38 0 0 0 .7.15c7.17-12.36 7.32-25.7 3.9-39.29a.42.41-69.4 0 1 .74-.34c9.21 13.74 9.79 34.45-2.3 46.52a4.23 3.82 3 0 1-.64.52q-4.08 2.61-4.51 3.35c-1.58 2.72-2.63 5.63-4.39 7.7-1.62 1.9-4.33 4.95-5.89 5.34a.57.57 0 0 1-.65-.81q8.32-17.3 6.36-36.61-.05-.56.13-.83M413.57 505.79a.31.31 0 0 1 .48.34c-4.03 13.47-3.77 28.6 3.12 41.22a.57.57 0 0 0 1.06-.18c.85-5.33 2.14-9.98 6.11-13.79a.33.32-18.4 0 1 .55.27q-2.2 17.71 5.23 33.95.56 1.22.76 2.44a.49.49 0 0 1-.74.5c-3.96-2.45-7.43-8.33-9.72-12.51a6.72 6.63 3.4 0 0-2.08-2.31c-15.01-10.38-15.67-35.05-5.87-48.73q.61-.84 1.1-1.2"/><path fill="#d98a36" d="M375.48 534.75q1.06 1.13 2.18 1.41-1.31 16.12 1.36 27.81c5.04 22.04 14.78 42.13 30.4 57.64 7.01 6.96 13.8 13.57 22.12 17.24a5.95 5.92 84.1 0 1 2.45 2c9.04 12.77 21.14 22.42 34.34 30.4 14.47 8.75 25.54 15.45 35.68 27.38 4.37 5.14 7.41 11.43 10.11 17.36a.44.44 0 0 0 .81 0c3.25-7.58 6.63-13.95 12.13-19.96q10.93-11.92 27-20.98 10.21-5.75 24-15.75 12.14-8.82 20.38-20.51a4.01 4 5.6 0 1 1.66-1.36q7.33-3.24 14.27-9.08 14.21-11.97 25.28-26.97 9.24-12.53 15.42-27.76l-.93 10.02a1.15 1.05 64.4 0 1-.14.46c-3.56 6.39-6.44 14.55-9.2 19.22q-4.27 7.22-12.72 18.27-7.46 9.76-20.09 20.4-17.09 14.4-25.78 21.96c-14.47 12.6-24.95 26.95-28.14 45.64q-2.03 11.82-1.53 24.9 2.42 64.35 3.06 90.71.37 14.89 1.17 17.54 2.78 9.27 12.38 14.13 2.74 1.39 7.72 3.4.09 4.12-1.69 8.77a.64.64 0 0 1-.69.41Q567 868 556.93 863.36q-4.57-2.1-6.17-7.1-.76-2.4-.45-9.69.53-12.2.76-18.01 2.15-54.33-2.9-110.8-1.52-16.94-3.92-31.36a.41.41 0 0 0-.8-.03q-.44 1.87-.49 3.88-.13 6.31-.27 11.94-1.64.49-3.15 2.16-2.43 2.7-2.58 2.84-9.09 8.37-17.26 17.81c-2.18 2.52-3.51 5.16-5.32 7.49a1.14 1.14 0 0 1-1.83-.05q-11.69-16.73-29.97-27.01c-17.4-9.78-32.38-18.8-46.25-31.04a.59.59 0 0 0-.98.44c-.1 23.03 1.95 45.09 7.95 68.13 5.31 20.36 16.9 41.35 33.12 54.29q28.13 22.46 63.87 11.97a1.35 1.34 48.7 0 1 .9.06q1.11.47 2.1.47l-1.58 42.06a.72.71 87.2 0 1-.62.69c-15.8 2.3-32.45 1.27-45.83-8.03q-14.04-9.75-24.55-23.41-21.75-28.26-33.44-61.73a.25.25 0 0 0-.3-.15l-.04.01a.29.28-13 0 0-.21.33q6.43 31.54 20.92 55.67 9.25 15.42 24.33 29.73c2.08 1.98 5.19 3.93 7.83 5.75a.26.26 0 0 1-.13.48q-36.77 3.03-73.9 4.26a.63.63 0 0 1-.65-.62l-.23-8.27q9.65-.1 13.89-.68 6.29-.85 13.45-3.13c5.45-1.74 10.29-5.14 7.32-11.56-2.49-5.36-6.64-11.46-9.07-16.2q-5.66-11.02-11.64-25.78-2.39-5.89-3.64-10.85-3.73-14.85-5.8-26.94-1.98-11.61-2.12-28.62-.03-3.94-3.42-4.57-1.86-.35-2.38-.95c-1.51-1.74-2.03-4.19-2.36-6.24a.42.42 0 0 0-.64-.29q-.67.42-.84 1.8-4.61-22.63-5.03-45.55a.36.36 0 0 1 .55-.32l8.27 4.77a.3.3 0 0 0 .44-.33q-.14-.48-.4-.81-16.74-20.28-42.66-27.55-8-2.25-20.06-4.68c-8.75-1.77-12.89-7.19-16.04-15a.85.85 0 0 0-1.53-.11l-4.72 8.17a.39.39 0 0 1-.69-.02l-7.63-15.95-2.37-9.6q-.5-7.75 2.32-14.33a.36.36 0 0 1 .67 0c4.58 11.5 13.07 23.12 25.04 27.39q14.45 5.16 28.56 4c4.4-.36 12.73-3.07 13.69-8.18.67-3.53.46-5.38-1.17-8.74-6.27-12.95-12.6-27.34-15.16-41.74q-2.48-13.91-2.26-25.18.25-12.37-.3-18.82l7.17 15.95a.45.45 0 0 0 .8.04q.25-.44.35-1.17"/><path fill="#f9db8f" d="M566.62 564.78a.17.16-58.8 0 1 .31-.08q2.7 5.86 3.13 11.78a.69.69 0 0 0 1.28.3q8.97-15.38 9.03-33.54.01-2.13-.17-5.55a.2.2 0 0 1 .38-.08q4.64 12.66 1.69 25.48c-1.87 8.13-5.06 16.21-10.86 21.33q-2.72 2.41-3.29 3.06a4.33 4.26-11.8 0 0-.66.99c-2.64 5.47-5.47 12.1-10.07 16.11q-8.51 7.41-19.04 11.86a.5.5 0 0 1-.62-.73c8.27-13.03 10.93-26.63 11.1-42.1a.3.3 0 0 1 .58-.08q4.59 14.99-.36 29.68a.36.35-11.2 0 0 .57.38q17.55-15.15 17-38.81M481.67 605.47a.23.23 0 0 0 .37-.26q-4.83-13.53-1.02-28.71a.32.32 0 0 1 .63.08q-.02 21.6 10.82 40.32a.36.36 0 0 1-.45.52q-6.52-2.62-12.91-7.06c-7.14-4.95-10.82-9.75-14.24-17.87q-1.1-2.61-3.11-4.28c-14.45-11.95-15.7-32.38-11.99-49.06a.33.32-80.5 0 1 .36-.26h.02a.37.37 0 0 1 .32.41q-.75 6.63 1.44 18.75 1.94 10.76 7.71 20.07a.57.56-57.4 0 0 1.04-.23q.77-6.21 2.99-11.8a.28.27-34.1 0 1 .53.1q-.04 4.4.47 8.44 2.35 18.94 17.02 30.84M611.2 815.52q2.48-14.06 3.63-28.34.3-3.76.77-5.82c1.09-4.79 1.59-9.14 3.04-14.35q1.53-5.49 1.83-7.15c1.13-6.31 3.4-12.6 4.52-18.31q1.2-6.1 2.78-11.11c2.75-8.73 5.87-17.89 9.06-28.06q6.54-20.89 10.29-31.74 2.72-7.89 4.5-15.12.2-.83 3.62-14.41 4.76-18.93 5.53-23.59 1.63-9.93 1.67-13.52.19-20.83.21-29.36.01-5.99-2.81-15.49l1.54-8.69a.29.29 0 0 1 .56-.04c5.97 19.25 8.79 39.29 6.65 59.11q-2.44 22.49-9.72 45.35c-4.98 15.67-10.49 32.38-18.11 54.68-10.03 29.4-17.83 55.99-22.09 84.62q-1.54 10.37-1.97 21.6a.48.48 0 0 1-.55.46z"/><path fill="#d98a36" d="m612.91 618.66-5.6 4.99a.28.28 0 0 1-.46-.27q1.64-7.83 1.07-15.84a.43.43 0 0 0-.84-.12q-9.24 24.91-29.44 41.73c-11.29 9.4-19.49 13.74-34.9 23.34q-6.16 3.84-13.64 10.11-9.11 7.63-14.34 18a.29.29 0 0 1-.52.01q-7.02-12.89-18.73-21.37c-12.66-9.17-29.03-17.37-41.89-28.46-12.74-10.99-22.51-25.66-28.09-41.21a.31.31 0 0 0-.6.09q-.34 7.92.91 15.44a.31.3-74 0 1-.5.28l-5.07-4.34q.44.17.73-.04.6-.42.26-1.09c-1.54-3.04-3.32-6.15-4.11-9.53-.75-3.21-2.35-6.63-3.09-10.2q-1.09-5.19-1.38-12.1c-.42-10.13.22-18.56 4.18-27.54a.31.31 0 0 1 .59.07q2.4 11.98 6.66 21.51 1.02 2.27 6.42 12.54 3.39 6.42 7.54 11.83 16.98 22.12 39.8 37.13 8.79 5.77 14.95 10.3c8.47 6.21 17.62 15.23 21.27 25.13a.5.5 0 0 0 .95-.04q1.02-3.56 2.99-6.5c9.24-13.82 22.34-22.56 36.07-31.91q18.11-12.33 32.55-28.42 13.8-15.38 21.86-31.16 3.02-5.93 6.57-16.98c.68-2.13.83-4.41 1.21-6.27a.61.6-49.8 0 1 1.16-.1q6.38 16.84 3.22 34.32-2.64 14.61-3.86 17.38-1.91 4.32-3.9 9.29"/><path fill="#edae4c" d="M659.84 559.15q2.82 9.5 2.81 15.49-.02 8.53-.21 29.36-.04 3.59-1.67 13.52-.77 4.66-5.53 23.59-3.42 13.58-3.62 14.41-1.78 7.23-4.5 15.12-3.75 10.85-10.29 31.74c-3.19 10.17-6.31 19.33-9.06 28.06q-1.58 5.01-2.78 11.11c-1.12 5.71-3.39 12-4.52 18.31q-.3 1.66-1.83 7.15c-1.45 5.21-1.95 9.56-3.04 14.35q-.47 2.06-.77 5.82-1.15 14.28-3.63 28.34c-10.51-.14-19.43 1.81-27.61 8.57a.35.35 0 0 0 .33.6q13.93-4.69 28.48-2.08l-1.67.34a.25.25 0 0 0-.08.46l11.61 7.04a4.46 4.37-3.8 0 1 1.13.97q.69.79 3.33 3.23c4.24 3.92 6.6 8.65 7.68 14.63q1.14 6.31 1.28 9.92l-10.02 2.06q1.01-18.89-14.08-28.9a.4.4 0 0 0-.57.54q7.96 13.19 6.76 28.06c-9.73 1.37-19.83 2.28-29.5.04q.05-13.8-9.82-23.11a.44.44 0 0 0-.72.47q3.77 10.15 3.14 21.91-4.98-2.01-7.72-3.4-9.6-4.86-12.38-14.13-.8-2.65-1.17-17.54-.64-26.36-3.06-90.71-.5-13.08 1.53-24.9c3.19-18.69 13.67-33.04 28.14-45.64q8.69-7.56 25.78-21.96 12.63-10.64 20.09-20.4 8.45-11.05 12.72-18.27c2.76-4.67 5.64-12.83 9.2-19.22a1.15 1.05 64.4 0 0 .14-.46l.93-10.02q3.07-7.03 4.77-14.47"/><path fill="#f9db8f" d="M764.57 758.74q-1.02.34-1.12-.05-.2-.76.42-1.34 7.33-6.86 10.1-15.45a9.34 9.16-21.6 0 1 .79-1.78c3.25-5.64 6.2-11.04 6.01-17.55a.77.77 0 0 0-1.04-.7l-9.34 3.37a.96.96 0 0 1-1.26-1.11q.46-2.01 1.64-3.96a4.26 3.98-23.4 0 0 .44-1.01q1.59-5.68 1.96-6.95c2.6-8.86 3.05-18.91 1.95-27.26-.72-5.49-3.12-13.01-5.02-19.81q-.22-.78-1.24-2.49a.4.4 0 0 0-.75.17c-.61 6.86-1.66 11.71-4.53 18.81q-6.01 14.86-7.16 17.27-5.05 10.59-15.06 21.49-2.76 3.36-5.64 6.66c-5.27 6.02-12.03 10.63-18.6 14.83q-1.28.82-2.71 2.5a1.05.99 7.5 0 1-.43.31q-1.16.48-1.71-.71l1.59-3.9a1.36 1.32-4.8 0 1 .56-.64c15.71-9.29 28.04-25.27 36.63-41.86q12.45-24.06 14.06-51.7a.26.26 0 0 1 .48-.13c13.81 20.87 21.39 49.29 11.54 73.28a.48.48 0 0 0 .69.59l9.46-5.46a.32.32 0 0 1 .48.33q-3.46 23.3-19.29 40.49-2.41 2.62-3.9 3.76"/><path fill="#edae4c" d="m764.57 758.74-.92 1.09a.88.88 0 0 0 .6 1.44l9.2.77a.46.46 0 0 1 .31.76c-9.22 10.7-21.74 17.94-35.44 21.76q10.98-10.49 18.19-23.21.72-1.27.8-2.57a.63.63 0 0 0-.93-.59q-7.39 4.03-16.06 6.86-1.15.37-2.21.41a.57.56-71 0 1-.45-.93c2.17-2.58 6.56-5.01 8.56-8.83q4.4-8.4 7.71-13.49.59-.91.67-2.52a.54.53 70.7 0 0-.88-.43l-6.49 5.67a2.46 2.45 14.1 0 1-.79.47l-12.34 4.46a.47.46-78.8 0 1-.5-.75q1.92-2.14 3.17-5.07 3.85-9 6.03-20.34.33-1.69-.04-3.11-.08-.33-1.4-.2 10.01-10.9 15.06-21.49 1.15-2.41 7.16-17.27c2.87-7.1 3.92-11.95 4.53-18.81a.4.4 0 0 1 .75-.17q1.02 1.71 1.24 2.49c1.9 6.8 4.3 14.32 5.02 19.81 1.1 8.35.65 18.4-1.95 27.26q-.37 1.27-1.96 6.95a4.26 3.98-23.4 0 1-.44 1.01q-1.18 1.95-1.64 3.96a.96.96 0 0 0 1.26 1.11l9.34-3.37a.77.77 0 0 1 1.04.7c.19 6.51-2.76 11.91-6.01 17.55a9.34 9.16-21.6 0 0-.79 1.78q-2.77 8.59-10.1 15.45-.62.58-.42 1.34.1.39 1.12.05M542.69 702.19l.6 107.56q-.99 0-2.1-.47a1.35 1.34 48.7 0 0-.9-.06q-35.74 10.49-63.87-11.97c-16.22-12.94-27.81-33.93-33.12-54.29-6-23.04-8.05-45.1-7.95-68.13a.59.59 0 0 1 .98-.44c13.87 12.24 28.85 21.26 46.25 31.04q18.28 10.28 29.97 27.01a1.14 1.14 0 0 0 1.83.05c1.81-2.33 3.14-4.97 5.32-7.49q8.17-9.44 17.26-17.81.15-.14 2.58-2.84 1.51-1.67 3.15-2.16"/><path fill="#f9db8f" d="M666.77 800.51q-.48.04-.54-.01a.72.72 0 0 1-.16-1q6.87-9.41 11.95-20.07a3.72 3.56-11.7 0 1 .66-.96q3.77-4.04 6.46-9.54 3.34-6.78 7.19-14.82c4.63-9.63 6.35-19.67 7.82-30.19q1.6-11.52-2.92-23.35c-5.01-13.13-17.45-21.31-31.48-19.02-1.63.27-4.58 1.3-7.07 1.49q0-.82.96-1.4c13.55-8.12 27.62-10.88 39.14 2.61 9.3 10.9 11.33 24.09 9.93 38.27-1.39 14.16-7.71 28.9-14.97 40.99q-11.84 19.73-26.97 37"/><path fill="#080403" d="M312.12 730.12q-1.97 27.1 6.51 53.04a.29.28-4.7 0 1-.32.37q-.35-.06-.62-.44c-10.7-14.93-13.87-34.91-12.52-53.48 1.35-18.56 7.37-37.88 20.12-51.11q.32-.33.68-.34a.29.28 13 0 1 .25.41q-12.13 24.44-14.1 51.55"/><path fill="#edae4c" d="m666.77 800.51-.98 1.12q-.47-.2-.47-1.03a.66.65 7.5 0 0-.49-.63c-7.08-1.81-15.44.5-22.17 2.28a.7.69-87.5 0 1-.83-.91q3.94-11.02 5.63-16.09c3.17-9.5 5.08-20.37 7.65-30.45 3.4-13.25 4.9-26.02 6.05-39.93q.26-3.16-.13-20.65-.15-6.48-2.71-10.6l.36-.58c2.49-.19 5.44-1.22 7.07-1.49 14.03-2.29 26.47 5.89 31.48 19.02q4.52 11.83 2.92 23.35c-1.47 10.52-3.19 20.56-7.82 30.19q-3.85 8.04-7.19 14.82-2.69 5.5-6.46 9.54a3.72 3.56-11.7 0 0-.66.96q-5.08 10.66-11.95 20.07a.72.72 0 0 0 .16 1q.06.05.54.01"/><path fill="#f9db8f" d="m399.36 700.01-.36 2.13a.26.25 30 0 1-.45.12q-1.08-1.33-1.44-3.01-2-9.31-2.01-9.34a1.82 1.79 2.1 0 0-.87-.92c-4.05-1.95-10.68-2.05-14.66-.87q-7.45 2.19-13.39 6.63c-3.06 2.29-6.79 7.71-8.47 10.19-7.7 11.41-7.17 26.34-4.85 39.4q1.25 7.03 5.62 16.29 5.29 11.24 7.61 15.57 5.46 10.2 13.63 19.12 2.1 2.29 2.38 3.1a1.33 1.3-86.1 0 0 .62.73c1.68.91 2.15 2.45 3.75 3.36a1.25.41 18 0 1 .11.08l8.32 7.08q-2.24.43-3.53-.54-19.63-14.77-33-33.75c-9.89-14.06-16.19-31.37-16.17-48.59.02-15.35 6.32-30.11 19.23-38.65 10.11-6.7 24-6.41 34.5-.58a1.68 1.67 7.8 0 1 .83 1.09z"/><path fill="#d98a36" d="m665.79 801.63-4.57 4.98a2.02 1.98-74.9 0 1-1.02.6q-6.56 1.58-8.65 2.36-8.53 3.21-15.24 9.57a.33.33 0 0 0 .34.54l8.22-3.16 10.35 13.01-1.53-1.08a.42.42 0 0 0-.61.56q6.88 11.77 4.62 25.14a.34.33 5.1 0 1-.33.27h-7.49a.26.25 0 0 1-.26-.25q.03-18.39-14.16-29.42-4.85-3.77-10.11-6.07a1.12 1.12 0 0 1-.66-1.11c.75-9.6 1.52-20.17 3.44-30.54q5.11-27.56 12.81-51.59 6.64-20.71 17.38-51.82 2.56 4.12 2.71 10.6.39 17.49.13 20.65c-1.15 13.91-2.65 26.68-6.05 39.93-2.57 10.08-4.48 20.95-7.65 30.45q-1.69 5.07-5.63 16.09a.7.69-87.5 0 0 .83.91c6.73-1.78 15.09-4.09 22.17-2.28a.66.65 7.5 0 1 .49.63q0 .83.47 1.03"/><path fill="#edae4c" d="M399.36 700.01q3.61 12 10.25 22.43a.18.18 0 0 0 .33-.14l-2.3-9.79q.17-1.38.84-1.8a.42.42 0 0 1 .64.29c.33 2.05.85 4.5 2.36 6.24q.52.6 2.38.95 3.39.63 3.42 4.57.14 17.01 2.12 28.62 2.07 12.09 5.8 26.94 1.25 4.96 3.64 10.85 5.98 14.76 11.64 25.78c2.43 4.74 6.58 10.84 9.07 16.2 2.97 6.42-1.87 9.82-7.32 11.56q-7.16 2.28-13.45 3.13-4.24.58-13.89.68.63-9.75 4.91-17.36a.33.33 0 0 0-.49-.43q-9.45 6.94-11.77 18.55-13.06 1.91-26.43 1.26.67-12.4 8.47-21.72a.41.41 0 0 0-.5-.63q-12.67 6.36-15.32 20.52c-3.35-.42-7.65-1.22-10.8.32q2.23-6.85 4.41-9.72 1.61-2.11 6.73-6.58c6.45-5.63 10.93-9.66 19.28-11.17 4.39-.79 7.81-1.64 11.62-.68q3.29.83 6.12.95a2.8 2.77-30.1 0 1 1.08.28q4.44 2.19 6.54-.5l8.9 3.65a.29.28-11.9 0 0 .31-.47q-14.24-13.58-33.05-13.12l-8.32-7.08a1.25.41 18 0 0-.11-.08c-1.6-.91-2.07-2.45-3.75-3.36a1.33 1.3-86.1 0 1-.62-.73q-.28-.81-2.38-3.1-8.17-8.92-13.63-19.12-2.32-4.33-7.61-15.57-4.37-9.26-5.62-16.29c-2.32-13.06-2.85-27.99 4.85-39.4 1.68-2.48 5.41-7.9 8.47-10.19q5.94-4.44 13.39-6.63c3.98-1.18 10.61-1.08 14.66.87a1.82 1.79 2.1 0 1 .87.92q.01.03 2.01 9.34.36 1.68 1.44 3.01a.26.25 30 0 0 .45-.12z"/><path fill="#080403" d="M287.62 758.22a.55.55 0 0 1-.94.04q-2.62-4.11-4.2-9.26c-4.99-16.18-1.92-33.82 6.49-48.79q2.29-4.07 5.78-7.46a.38.38 0 0 1 .63.4q-1.95 5.55-3.44 10.27-6.51 20.59-5.21 43.33.2 3.46.94 10.98.03.34-.05.49"/><path fill="#d98a36" d="M741.36 720.39q1.32-.13 1.4.2.37 1.42.04 3.11-2.18 11.34-6.03 20.34-1.25 2.93-3.17 5.07a.47.46-78.8 0 0 .5.75l12.34-4.46a2.46 2.45 14.1 0 0 .79-.47l6.49-5.67a.54.53 70.7 0 1 .88.43q-.08 1.61-.67 2.52-3.31 5.09-7.71 13.49c-2 3.82-6.39 6.25-8.56 8.83a.57.56-71 0 0 .45.93q1.06-.04 2.21-.41 8.67-2.83 16.06-6.86a.63.63 0 0 1 .93.59q-.08 1.3-.8 2.57-7.21 12.72-18.19 23.21l-5.81 2.05a.26.26 0 0 0-.09.44q6.35 5.88 14.26 8.7a.36.36 0 0 1 .09.63c-13.71 9.8-29.5 15.48-46.63 17.48q-5.5.65-10.25.19a5.62 5.57 61.2 0 1-2.1-.62c-6.08-3.16-9.93-4.62-15.32-5.67a.45.45 0 0 1-.26-.73q11.68-13.47 20.75-26.3c7.92-11.21 15.02-23.49 19.31-36.75q.55 1.19 1.71.71a1.05.99 7.5 0 0 .43-.31q1.43-1.68 2.71-2.5c6.57-4.2 13.33-8.81 18.6-14.83q2.88-3.3 5.64-6.66"/><path fill="#edae4c" d="M667.71 814.63q-1.01-.1-1.07.66-.04.62.57.85c4.53 1.68 10.27 3.69 13.73 6.53 6.62 5.45 13.65 14.66 15.26 23.42a.42.41-89.1 0 0 .31.33q.15.03.32.11c-.98 2.24-3.93 3.7-5.93 4.31a.44.44 0 0 1-.57-.41c-.14-10.14-5.38-19.75-14.38-24.56a.3.3 0 0 0-.38.44q6.96 10.06 7.01 22.2c-5.71-.07-12.09-.28-17.24-2.8q-2.48-9.46-10.12-16.18l-10.35-13.01q11.31-3.43 22.84-1.89"/><path fill="#f9db8f" d="M667.71 814.63c14.9 1.78 27.79 12.81 29.46 28.12q.24 2.25-.34 3.78-.17-.08-.32-.11a.42.41-89.1 0 1-.31-.33c-1.61-8.76-8.64-17.97-15.26-23.42-3.46-2.84-9.2-4.85-13.73-6.53q-.61-.23-.57-.85.06-.76 1.07-.66M418.74 819.61q-2.1 2.69-6.54.5a2.8 2.77-30.1 0 0-1.08-.28q-2.83-.12-6.12-.95c-3.81-.96-7.23-.11-11.62.68-8.35 1.51-12.83 5.54-19.28 11.17q-5.12 4.47-6.73 6.58-2.18 2.87-4.41 9.72-.73 2.75-1.93 2.05-1.17-4.91 1.32-10.24 7.73-16.55 26.04-20.71 15.24-3.46 30.35 1.48M612.4 822.61q14.6 3.08 23.15 14.12c5.75 7.43 8.87 19.24.4 26.26q-.9-.82-.27-3.79-.14-3.61-1.28-9.92c-1.08-5.98-3.44-10.71-7.68-14.63q-2.64-2.44-3.33-3.23a4.46 4.37-3.8 0 0-1.13-.97l-11.61-7.04a.25.25 0 0 1 .08-.46z"/><path fill="#d98a36" d="m682.58 848.51-.3 3.22a1.67 1.67 0 0 1-1.52 1.52l-14.13 1.24a.87.86 86.2 0 1-.94-.83l-.35-7.95c5.15 2.52 11.53 2.73 17.24 2.8M373.76 846.71l-.36 7.43a.49.49 0 0 1-.53.47c-4.52-.37-9.22-1.75-11.84-5.53q1.2.7 1.93-2.05c3.15-1.54 7.45-.74 10.8-.32M407.54 847.28l-.28 8.21a.51.51 0 0 1-.51.49h-24.26a.94.94 0 0 1-.91-.71q-.82-3.24-.47-6.73 13.37.65 26.43-1.26M635.68 859.2q-.63 2.97.27 3.79-4.06 2.78-10.55 4.14a.36.36 0 0 1-.43-.39l.69-5.48zM617.77 860.96l-1.39 6.75a2.2 2.19-87.9 0 1-1.87 1.75q-13.27 1.69-26.72.99a.51.5-86.2 0 1-.48-.56l.96-8.89c9.67 2.24 19.77 1.33 29.5-.04"/></svg>