<svg xmlns="http://www.w3.org/2000/svg" viewBox="0 0 1024 1024"><g fill="none" stroke-width="2"><path stroke="#828080" d="M558.5 219.6q14.74 5.24 26.64 11.78a.26.26 0 0 0 .33-.4q-10.62-12.45-24.79-17.49-14.18-5.04-30.27-2.1a.26.26 0 0 0 0 .52q13.36 2.45 28.09 7.69M536.56 231.65c21.79 5.45 42.33 12.96 62 22.62a.22.22 0 0 0 .23-.37c-17.38-13.67-39.53-23.4-60.62-28.68-21.09-5.27-45.21-7.11-66.98-3.24a.22.22 0 0 0 .03.44c21.9.74 43.56 3.79 65.34 9.23" vector-effect="non-scaling-stroke"/><path stroke="#828080" d="M367.33 682.6a.08.08 0 0 1 .15.01q5.51 21.59 25.6 32.32a.46.46 0 0 0 .67-.41v-8.12a.48.47 3.3 0 1 .53-.47l9.2 1.11a.76.75-1 0 1 .66.63c4.18 27.15 16.46 60.91 44.49 71.72q1.48.57 9.48 2.72a1.81 1.8-9.8 0 1 1.03.72c4.6 6.55 5.28 14.09 2.7 21.58q-.51 1.47-2.56 7.83-5.48 17 7.94 26.22c2.97 2.04 6.31 2.61 9.5 4.07 6.56 3.02 11.42 2.78 18.45-.13 21.56-8.91 17.75-32.63 15.35-50.91-.94-7.19-.95-12.85-1.34-20.97-.27-5.86-.93-11.6-4.88-15.07-4.44-3.9-7.04-7.93-6.79-14.29q.29-7.54 2.31-15.61a.64.64 0 0 1 .73-.47q14.76 2.49 29.14-.4a.47.47 0 0 1 .53.61c-4.74 13.31-7.28 30.56 6 39.73a.58.58 0 0 1 .21.68c-6 15.23-5.98 29.6 3.17 42.72q.9 1.28 6.78 8.19c7.69 9.04 18.38 12.55 28.77 6.49q3.41-1.99 4.73-2.94a2.35 2.25-65.9 0 1 1.01-.41c14.18-2.07 24.22-14.79 29.87-27.27 4.81-10.66 8.05-22.52 10.65-34.31 1.04-4.68 2.79-9.89 4.9-13.08 11.03-16.73 18.91-28.96 22.44-45.07q.67-3.09.83-6.22a.49.49 0 0 1 .92-.22l2.42 4.2a.71.71 0 0 0 1.29-.14q.09-.3.19-1.01 1.37-10.38 1.14-17.63c-.19-5.69-.41-12.14.03-18 1.29-17.26 3.05-35.75.6-52.94q-2.16-15.22-7.9-28.97a.49.48 6.4 0 1 .73-.58l9.38 6.69a.35.35 0 0 0 .54-.36c-1.37-6.69-3.4-12.5-6.58-19.15-4.14-8.66-7.22-15.27-9.64-22.45a.72.7-32.5 0 1 .17-.74l8.06-8.06a.9.9 0 0 1 .99-.19q8.21 3.6 17.51 2.04a.49.49 0 0 0 .39-.62q-2.49-8.28-2.06-15.69a1.48 1.46 68.5 0 1 .4-.93q25.55-26.45 39.8-43.33 28-33.16 48.44-72.53 12.74-24.51 20.71-49.08 5.82-17.93 8.31-37.39 1.04-8.12.76-16.96c-.36-11.48-4.76-20.47-13.42-27.74-16.95-14.24-42.17-17.74-62.93-14.36q-15.22 2.48-21.47 4.48-20.31 6.51-35.86 11.26-20.57 6.29-44.26 4.61-17.33-1.24-32.86-4.93c-18.25-4.34-37.57-10.27-58.25-17q-12.99-4.24-25.65-7.58c-22.4-5.92-42.89-7.77-64-3q-21.62 4.88-42.5 14.76-22.7 10.76-24.74 11.74c-9.64 4.65-21.36 8.97-32.24 9.77-13.33.98-26.99-1.3-39.82-5.72q-24.4-8.42-30.12-10.53-7.52-2.77-16.67-5.19c-13.12-3.47-26.17-6.64-37.48-4.39q-10.42 2.07-11.95 12.54-1.74 11.94 1.16 24.95 4.66 20.89 13.96 41.78 13.14 29.51 31.92 56.84 13.73 19.97 24.48 33.09 35.17 42.89 79.46 81.53 1.12.98 20.51 17.45a1.28 1.27 25.9 0 1 .43 1.23l-2.18 10.33a.38.38 0 0 0 .31.46q7.19 1.05 14.03-.67a1.02 1.01 55.3 0 1 .85.16l9.35 6.67a.82.81 27.1 0 1 .3.91q-1.77 5.59-4.93 10.9c-3.07 5.17-8.34 11.47-11.04 17.42q-3.79 8.37-5.88 18a.31.3 69.8 0 0 .54.25q4.34-5.7 10.58-9.13a.38.38 0 0 1 .53.5q-13.11 27.76-14.36 57.11-.43 10.1-.36 29.74.04 12.02 2.57 21.17a.13.13 0 0 0 .24.02l2.9-6.59M792.26 386.45c-7.61 20.66-17.98 40.59-31.17 58.01a.11.11 0 0 0 .16.15q3.92-3.38 7.4-7.21 19.95-21.91 29.81-48.67 9.85-26.76 8.88-56.37-.17-5.17-.97-10.29a.11.11 0 0 0-.21.01c-1.26 21.81-6.3 43.71-13.9 64.37" vector-effect="non-scaling-stroke"/><path stroke="#828080" d="M202.72 361.95c1.83 14.88 5.85 29.82 10.98 44.16 5.44 15.24 13.41 30.38 23.48 43.19q15.97 20.31 38.1 35.73a.29.29 0 0 0 .39-.06l.01-.01a.24.24 0 0 0-.03-.33q-24.04-22.34-41.85-51.72-20.89-34.46-30.94-70.99a.07.07 0 0 0-.14.03M810.16 391.28q-4.76 14.04-12.67 27.52a.24.24 0 0 0 .36.31c8.43-6.5 14.58-15.9 17.98-25.91 3.39-10.01 4.22-21.22 1.48-31.5a.24.24 0 0 0-.47.03q-1.92 15.51-6.68 29.55M196.54 415.89q7.37 16.6 22.95 29.73a.15.15 0 0 0 .23-.2q-1.88-3-5.36-8.49-5.47-8.62-12.11-23.58-6.65-14.96-9.37-24.8-1.73-6.26-2.7-9.67a.15.15 0 0 0-.3.04q-.71 20.37 6.66 36.97" vector-effect="non-scaling-stroke"/><path stroke="#681a15" d="M346.46 285.31q-14.8 5.25-30.53 4.06" vector-effect="non-scaling-stroke"/><path stroke="#76211a" d="M315.93 289.37q-16.9-1.63-33.1-7.23-9.78-3.37-19.15-6.37" vector-effect="non-scaling-stroke"/><path stroke="#7d443e" d="M263.68 275.77q-17.22-7.04-36.37-10.86c-6.12-1.21-19.46-3.35-24.24-.37-3.24 2.02-4.35 7.77-4.11 11q1.41 18.41 6.7 33.84c5 14.58 11.65 30.79 20.08 45.7q3.76 6.67 8.95 16.25 4.2 7.76 18.59 27.72" vector-effect="non-scaling-stroke"/><path stroke="#76211a" d="M253.28 399.05q15.85 21.61 26.13 33.04c10.72 11.91 21.11 23.91 31.68 34.29q3.31 3.25 16.86 16.59 4.35 4.28 10.1 9.14 11.07 9.38 11.28 9.54 5.24 4.28 9.54 8.22 1.5 1.38 3 2.4a.43.43 0 0 0 .66-.46q-2.4-9.98-7.49-18.8a.43.43 0 0 0-.78.09l-2.13 7.14a.93.93 0 0 1-1.5.43q-1.31-1.14-2.1-2.19-5.94-7.98-11.24-16.33c-4.55-7.17-8.48-13.39-10.7-21.08-1.32-4.58-1.16-9.14-.72-13.75a2.45 2.44-62.7 0 0-.58-1.83c-12.41-14.57-21.72-30.39-29.98-48.55q-4.72-10.35-7.82-23.84" vector-effect="non-scaling-stroke"/><path stroke="#681a15" d="M287.49 373.1q15.02 32.06 36.26 59.65 1.92 2.48 4.16 4.55a.51.5 34.7 0 0 .79-.14q6.52-12.89 16.84-23.39" vector-effect="non-scaling-stroke"/><path stroke="#76211a" d="m345.54 413.77 11.8-12.72" vector-effect="non-scaling-stroke"/><path stroke="#681a15" d="m357.34 401.05 22.85-27.59a.73.69 33.4 0 0-.25-1.08q-.18-.1-.67.02-2.81.66-7.26 2.18a.8.79-87.3 0 1-.98-1.08q5.65-12.62 17.65-19.82a.58.58 0 0 0-.23-1.08l-1.99-.23a.91.9 25.2 0 1-.55-1.52l2.97-3.11" vector-effect="non-scaling-stroke"/><path stroke="#76211a" d="M388.88 347.74q10.11-7.72 22.69-9.21c8-.95 17.3-.67 25.57 1.55a2.99 2.98-58.4 0 0 2.75-.66c27.28-24.4 62.65-33.97 98.84-26.56" vector-effect="non-scaling-stroke"/><path stroke="#681a15" d="M538.73 312.86q28.91 6.59 51 26.45a2.2 2.18 75 0 0 .72.42q1.63.56 3.1.11c5.28-1.58 10.24-1.91 16.02-1.96q9.49-.09 15.2 1.3 7.45 1.82 16.48 8.04a3.21 3.08-1.2 0 1 .49.45l2.89 3.34a.8.8 0 0 1-.6 1.32h-2.83a.43.43 0 0 0-.21.8q9.01 5.02 14.86 13.5c2.13 3.08 3.22 4.62 4.3 7.42a.37.36 87.8 0 1-.44.48l-9.71-2.9a.41.41 0 0 0-.47.59q1.32 2.32 2.52 3.54.38.39 11.92 14.34 11.26 13.62 24.15 26.29a.81.81 0 0 0 1.25-.16q9.55-15.49 16.97-31.98" vector-effect="non-scaling-stroke"/><path stroke="#76211a" d="M706.34 384.25q8.78-18.23 14.38-37.65a.25.24 13.1 0 1 .28-.17.24.24 0 0 1 .19.26c-3.29 26.37-13.52 52.48-27.03 75.5a1.41 1.4 41.6 0 0 .1 1.58c10.72 13.96 15.77 29.18 6.74 45.66a1.97 1.95 50.9 0 0-.15 1.53l.02.08a.46.46 0 0 0 .8.14q10.56-13.97 20.87-27.64 3.73-4.94 9.29-14.53" vector-effect="non-scaling-stroke"/><path stroke="#7d443e" d="M731.83 429.01q5.34-7.04 11.57-18.35 15.29-27.75 23.92-52.34c3.48-9.9 6.2-20.7 8.14-28.84q2.42-10.14 2.41-23.13c-.01-8.75.31-15.66-4.15-21.51-12.13-15.9-35.12-21.57-54.09-20.21q-8.77.63-23.24 3.52-6.18 1.23-19.68 5.81c-12.67 4.29-24.2 7.82-37.47 10.12" vector-effect="non-scaling-stroke"/><path stroke="#76211a" d="m639.24 284.08-8.78 1.03" vector-effect="non-scaling-stroke"/><path stroke="#681a15" d="M630.46 285.11Q605.63 287 581.34 282" vector-effect="non-scaling-stroke"/><path stroke="#7d443e" d="M581.34 282q-18.74-4.03-29.79-7.01c-7.69-2.08-17.61-5.93-25.17-8.13q-12.93-3.77-23.67-7.12-17.21-5.37-23.84-6.47-15.22-2.53-27.14-2.55c-29.45-.04-56.28 12.85-82.35 25.41q-9.97 4.8-22.92 9.18" vector-effect="non-scaling-stroke"/><path stroke="#df5a51" d="M581.34 282q.59 1.32-2.93.63-9.37-1.85-9.91-1.93-9.14-1.33-20.44-4.44-3.97-1.09-14.74-2.75c-5.18-.8-10.85-2.39-16.29-3.6" vector-effect="non-scaling-stroke"/><path stroke="#ed6156" d="M517.03 269.91c-12.44-4.47-26.35-6.57-39.1-8.52-17.44-2.65-34.28-2.58-51.22 1.84-6.25 1.63-16.83 4.33-25.86 7.37q-21.33 7.17-42.89 13.58" vector-effect="non-scaling-stroke"/><path stroke="#df5a51" d="M357.96 284.18q-5.39.86-10.8 2.01-.43.09-.69-.27-.19-.27-.01-.61" vector-effect="non-scaling-stroke"/><path stroke="#d8372d" d="M630.46 285.11q-.71.18-.59.75a.52.51-4.3 0 0 .48.41c11.53.48 20.75 8.53 25.43 18.71q9.26 20.14 9.17 43.02c-.03 8.78-.41 15.46.42 22a.93.92-80.5 0 0 .51.72q10.36 4.99 14.49 6.11 12.98 3.49 25.97 7.42M517.03 269.91q-.59 2.82.39 4.62 4.4 8.07 11.76 22.28 2.26 4.37 10.57 15.07a.54.54 0 0 1-.34.86l-.68.12M388.88 347.74q-14.15-20.68-22.99-43.86-2.99-7.86-5.63-15.85-.36-1.1-2.3-3.85M315.93 289.37q2.77 1.57 3.25 4.43 3.5 20.88 9.92 38.63 6.48 17.9 18.44 39.46c3.68 6.63 8.52 13.54 12.91 20.6a1.04 1.04 0 0 1 .08.94l-3.19 7.62M345.54 413.77q-4.18-2.33-7.52-5.53-13.07-12.53-23.76-27.32-6.73-9.32-14.38-22.28c-10.74-18.2-18.45-37.48-25.34-55.14a.31.31 0 0 0-.6.08q-.46 4.32.02 9.73.72 8.13 1.58 16.17c1.24 11.61 5.64 24.57 8.75 36.69q1.1 4.28 3.2 6.93" vector-effect="non-scaling-stroke"/><path stroke="#ed6156" d="M731.83 429.01q3.68-7.82 7.94-15.16 2.3-3.95 9.21-22.51 4.5-12.07 11.36-35.48 7.34-25.07 7.43-48.02c.02-4.73-.26-9-1.12-13.28q-1.17-5.86-8.24-10.45-11.46-7.45-23.19-9.32-18.38-2.92-34.74-.16c-16.94 2.86-36.42 6.82-45.99 8.25q-5.9.88-10.15 1.88-1.92.46-2.97.5-2.72.1-2.13-1.18M263.68 275.77q-5.24-.52-10.32-1.6-7.56-1.61-10.27-1.83-11.02-.9-20.09-1.32c-4.16-.19-9.1.45-13.12 2.26a2.46 2.45 80 0 0-1.45 2.08c-.23 3.36-.14 7.34.63 11.38 2.87 15.05 4.98 28.13 9.84 40.39q1.27 3.2 6.38 14.6 1.1 2.46 3.6 10.15 1.11 3.41 5.49 11.55 2.3 4.27 4.61 9.77 4.71 11.19 12.6 21.5 1.16 1.51 1.7 4.35" vector-effect="non-scaling-stroke"/><path stroke="#7a5927" d="M430.14 353.35q-.57-.59.77-2.48" vector-effect="non-scaling-stroke"/><path stroke="#7f704b" d="m430.91 350.87 3.4-5.63a.42.42 0 0 0-.3-.63c-11.15-1.46-26.72-1.48-36.82 4.24a.57.57 0 0 0 0 .99l4.63 2.68a.56.55-38.5 0 1-.12 1.01q-11.2 3.49-19.3 12.18a.31.3-72.9 0 0 .27.51l6.83-1.11" vector-effect="non-scaling-stroke"/><path stroke="#7a5927" d="M389.5 365.11q5.99-.76 11.03.65a.4.4 0 0 1-.03.77l-5.7 1.13" vector-effect="non-scaling-stroke"/><path stroke="#7f704b" d="M394.8 367.66q-3.44.56-6.37 2.33a2.21 2.16-89 0 0-.73.72q-14.88 24.33-34.68 45.08c-9.29 9.74-20.47 21.8-20.35 36.05.09 9.93 5.72 21.27 11.67 30" vector-effect="non-scaling-stroke"/><path stroke="#6f461c" d="m344.34 481.84 5.18 8.26a.32.32 0 0 0 .58-.1q1.3-6.26 1.12-12.66a.11.1 26.9 0 1 .19-.06q10.89 14.58 16.96 31.18 3.76 10.28 1.94 20.24a.66.66 0 0 0 .81.76c21.45-5.61 34.28-25.94 35.63-47.22q.86-13.34-.49-21.99-3.4-21.92-2.15-41.73 1.6-25.52 19.36-45.7" vector-effect="non-scaling-stroke"/><path stroke="#7a5927" d="M423.47 372.82q.32 1.66-1.61 4.53" vector-effect="non-scaling-stroke"/><path stroke="#6f461c" d="M421.86 377.35q-6.89 13.65-9.75 28.27c-2.72 13.88-2.07 29.56-.24 43.91q2.31 18.13 2.48 22.71.58 15.39-4.41 29.93a2.52 2.51-49.9 0 0 .17 2.04c6.91 12.62 16.48 25.07 28.09 33.98q7.45 5.73 15.63 10.68c7.97 4.82 13.32 8.25 19.37 13.31a.26.26 0 0 0 .41-.27l-3.79-13.09" vector-effect="non-scaling-stroke"/><path stroke="#7a5927" d="m469.82 548.82-.78-6.86a.3.3 0 0 1 .59-.13c5.31 16.24 13.26 35.02 31.56 39.91q13.08 3.5 25.22.7c19.87-4.58 29.37-22.59 34.45-40.7a.27.27 0 0 1 .52.11l-.8 6.18" vector-effect="non-scaling-stroke"/><path stroke="#6f461c" d="M560.58 548.03q-.76 7.05-3.35 14.2a.26.26 0 0 0 .41.3c5.47-4.17 11.35-8.53 17.62-12.5q7.26-4.6 12.79-8.47c12.96-9.06 24.52-22.9 32.47-37.49a3.69 3.68 49.4 0 0 .23-3.05q-6.08-16.57-4.05-34.52 1.43-12.75 2.54-23 1.09-10.19.59-25.19-.45-13.7-5.94-28.5-3.65-9.87-6.3-14.38" vector-effect="non-scaling-stroke"/><path stroke="#7a5927" d="m607.59 375.43-.8-1.7" vector-effect="non-scaling-stroke"/><path stroke="#6f461c" d="M606.79 373.73q-.02-.16.11-.29a.23.22 44.2 0 1 .33 0q11.4 12.13 15.92 28.7 5.2 19.04 3.36 38.87-.89 9.57-2.22 20.21c-1.92 15.29-.73 30.36 6.01 43.71q7.72 15.3 22.74 22.52 3.75 1.8 7.76 2.23a.42.42 0 0 0 .46-.47q-1.57-11.73 2.57-22.39 4.38-11.27 8.36-17.88 6.35-10.56 7.38-12.2a.08.08 0 0 1 .15.03l1.34 12.89a.37.37 0 0 0 .68.16l4.93-7.89" vector-effect="non-scaling-stroke"/><path stroke="#7f704b" d="M686.67 481.93q6.99-10.07 10.62-21.25 2.79-8.55.57-16.25-2.5-8.69-9.64-17.1c-2.26-2.64-4.65-5.62-6.94-7.94q-22.35-22.69-39.15-49.77a1.34 1.31 81.6 0 0-.75-.57l-5.61-1.62" vector-effect="non-scaling-stroke"/><path stroke="#7a5927" d="m635.77 367.43-5.73-1.13a.33.33 0 0 1 .02-.66l8.7-1.2" vector-effect="non-scaling-stroke"/><path stroke="#7f704b" d="m638.76 364.44 9.11 1.49a.29.29 0 0 0 .24-.5c-5.83-5.6-11.4-10.03-19.43-11.99a.63.62 36.8 0 1-.17-1.15l4.79-2.77a.44.43 42.9 0 0-.03-.77c-11.27-5.53-25.52-5.87-37.71-4.1a.37.37 0 0 0-.27.56l2.8 4.69" vector-effect="non-scaling-stroke"/><path stroke="#7a5927" d="M598.09 349.9q1.17 1.59 1.55 3.35" vector-effect="non-scaling-stroke"/><path stroke="#7f704b" d="M599.64 353.25q-7.37-6.1-14.87-11.76c-7.22-5.45-14.68-9.51-22.92-13.52q-24.1-11.72-50.84-10.64-15.9.64-27.33 4.32-22.65 7.3-42.37 22.68-5.58 4.35-11.17 9.02" vector-effect="non-scaling-stroke"/><path stroke="#f3c66f" d="m599.64 353.25 1.43 1.62a.42.42 0 0 1-.52.65c-4.28-2.34-8.36-5.69-12.23-7.87-4.4-2.48-13.31-7.25-20.21-11.15-8.52-4.82-19.13-7.7-26.1-9.52-15.73-4.09-33.24-5.16-49.22-1.21q-10.94 2.7-15.3 3.88-6.38 1.73-13.43 5.49c-8.58 4.58-14.29 8.13-22.97 13.15q-6.07 3.51-11.28 7.5-.41.31-.97.05a.37.37 0 0 1-.15-.57l1.45-1.92M598.09 349.9q6.04-.4 12.13-1.16c5.81-.73 10.08-.35 15.24.34a.89.88-58.1 0 1 .37 1.61q-2.58 1.76-4.05 3.71a.84.83-65.2 0 0 .48 1.32l7.59 1.7a1.4 1.31 65.3 0 1 .27.11l8.42 4.6a1.04 1.03-76 0 1 .53.89q.01.67-.31 1.42M635.77 367.43q-1.83.88 2.49 2.82.94.42.86 2.14a2.08 2.06 33.4 0 0 .21.99l2.4 4.87a1.35 1.35 0 0 0 .43.51c1.44 1.05 2.51 3.41 4.08 6.24q1.79 3.23 3.38 5.21c4.28 5.31 9.63 12.63 12.82 17.09 4.66 6.52 11.33 13.04 16.59 17.89q3.01 2.78 4.9 5.44 6.09 8.58 8.12 14.86 3.57 11.02-1.08 22.26" vector-effect="non-scaling-stroke"/><path stroke="#e39c41" d="M690.97 467.75q-.31-8.49-3.46-15.53-.39-.86-.85-1.12a1.18 1.16 20.4 0 0-1.7.76c-1.52 6.75-5.39 11.97-10.66 17.42q-3.75 3.88-6.42 7.95a.19.19 0 0 1-.35-.1q.03-11.21-6.98-19.9a.4.4 0 0 0-.7.36q.59 2.2.72 4.18.59 9.01-1.19 21.7c-.99 7.04-1.77 14.13-1.38 21.38q.35 6.56.66 13.15.07 1.5-.25 2.66a.57.57 0 0 1-.94.25q-4-3.84-6.76-6.6c-10.16-10.18-17.67-27.41-18.37-41.29-.63-12.44 1.41-30.17.81-44.28q-.62-14.49-5.76-28.67-3.3-9.09-9.95-17.54-.54-.68-6.27-7.95-1.45-1.84-4.29-1.85a.47.47 0 0 0-.46.39q-.09.55.37.61" vector-effect="non-scaling-stroke"/><path stroke="#e39c41" d="m607.59 375.43.04 2.55a2.43 2.41-56.7 0 0 .19.94q2.56 6.29 3.96 13.05 3.92 19.04 1.57 39.18-.88 7.52-1.05 9.98c-.53 7.38-2.33 16.05-3.19 22.39q-1.67 12.2-.91 28.49c.49 10.42-4.61 21.42-10.8 29.63-4.42 5.88-10.34 9.52-16.1 14.35q-3.22 2.7-8.37 5.56-5.96 3.31-12.35 6.48M469.82 548.82q-6.98-3.91-13.61-7.89c-5.49-3.29-9.58-6.63-15.13-10.75q-8.95-6.65-13.5-16.25c-3.03-6.38-5.41-13.04-5.36-19.43.1-11.08.67-18.34-.57-28.09q-1.61-12.76-3.69-26.86-1.62-10.96-2.27-20.42c-.71-10.42 1.08-17.38 3.09-28.36a11.84 11.72-29.8 0 1 .51-1.84q2.13-5.64 2.57-11.58" vector-effect="non-scaling-stroke"/><path stroke="#e39c41" d="m423.47 372.82-2.87.98a1.94 1.93-78.2 0 0-.79.52q-16.28 17.74-21.07 40.84-.82 3.91-1.05 9.12-.82 18 .3 34.59c1.65 24.38-5.07 46.16-24.85 61.23a.4.4 0 0 1-.64-.37q1.87-16.06-.36-32.11c-.98-7.11-1.55-13.29-1.72-20.36q-.13-5.24.94-10.05a.33.33 0 0 0-.58-.28q-7.26 8.9-7.37 20.57a.23.23 0 0 1-.42.13c-3.78-5.57-8.68-10.5-12.09-15.02q-3.49-4.62-5.42-11.72a.8.79 53.9 0 0-1.43-.23q-5.05 7.75-3.69 17.71" vector-effect="non-scaling-stroke"/><path stroke="#f3c66f" d="M340.36 468.37q-1.37-4.14-2.43-12.05-.88-6.49 1.32-12.09 1.95-4.99 9.17-15.52 2.45-3.58 8.71-8.78 2.73-2.27 4.16-3.96 3.4-3.99 3.75-4.36 3.23-3.36 5.34-6.72c2.75-4.37 4.96-6.74 7.29-10.66 2.68-4.51 6.27-8.49 8.82-12.89q2.91-5.03 3.78-5.97.79-.85 1.58-3.44.76-2.47 3.55-3.45a.43.41 53.1 0 0 .08-.73q-.27-.21-.68-.09M389.5 365.11q1.78-2.78 3.01-3.38 9.58-4.64 9.94-4.77 2.99-1.09 5.84-1.26a.99.99 0 0 0 .51-1.8l-3.89-2.78a.84.84 0 0 1 .37-1.52q3.56-.53 10.46-1.16c5.6-.5 10.14 1.08 15.17 2.43" vector-effect="non-scaling-stroke"/><path stroke="#e8b365" d="M686.67 481.93q-.15-2.02.79-4.12 1.21-2.71 1.51-3.9.85-3.28 2-6.16M340.36 468.37q1.21 6.02 4.29 11.45 1.18 2.07-.31 2.02" vector-effect="non-scaling-stroke"/><path stroke="#681a15" d="m673.29 502.73 3.5-4.9a2.23 2.22 52.7 0 0 .28-2.07l-.44-1.19a.65.65 0 0 0-1.21-.04l-3.31 7.53a.68.68 0 0 0 1.18.67" vector-effect="non-scaling-stroke"/><path stroke="#76211a" d="M391.54 537.77q15.65 12.74 24.79 21.15 3.43 3.15 21.11 20.24c2.65 2.57 5.27 4.52 8.41 5.92a4.68 4.65-38.4 0 0 2.85.32q10.75-2.17 20.86.26a.35.34-6.8 0 0 .39-.49q-5.06-9.69-11.49-18.46" vector-effect="non-scaling-stroke"/><path stroke="#681a15" d="M458.46 566.71q-3.82-5.56-7.45-11.26-3.77-5.91-6.87-7.84-8.32-5.17-8.62-5.37-14.25-9.34-24.35-22.53a.14.11-83 0 1-.03-.05l-4.45-7.71a.86.86 0 0 0-1.47-.03q-7.53 12.05-19.53 19.79a.79.79 0 0 0-.07 1.28l5.92 4.78" vector-effect="non-scaling-stroke"/><path stroke="#d8372d" d="M458.46 566.71c-8.68-2.7-14.08-11.01-22.68-14.24q-1.47-.54-3.93-.46" vector-effect="non-scaling-stroke"/><path stroke="#681a15" d="M431.85 552.01q-11.31-13.68-23.83-26.28-2.8-2.81-6.53-4.84-.48-.26-.76.22-.12.21 0 .4.66 1.07 4.81 7.09c1.58 2.3 4.27 4.78 6.24 7.29" vector-effect="non-scaling-stroke"/><path stroke="#d8372d" d="M411.78 535.89q-5.91-.58-9.94-4.49a2.27 2.24 63.4 0 0-1.82-.62q-5.58.6-10.51 3.09a.83.82-34 0 0-.25 1.28l2.28 2.62" vector-effect="non-scaling-stroke"/><path stroke="#76211a" d="m431.85 552.01 15.79 21.34a.09.09 0 0 1-.01.12l-.19.19a.27.27 0 0 1-.39-.01q-9.99-10.98-20.53-21.36c-4.99-4.92-9.92-10.85-14.74-16.4M568.54 572.53q-2.8 4.01-3.88 6.16-5.55 11.07-6.55 12.97a.31.31 0 0 0 .3.46q11.37-.99 21.81-4.87 5.61-2.09 13.34-8.6" vector-effect="non-scaling-stroke"/><path stroke="#7d443e" d="M593.56 578.65c10.31-10.01 20.33-20.09 31.11-29.8 5.46-4.93 10.85-10.01 16.43-14.79q2.7-2.31 1.9-3.89" vector-effect="non-scaling-stroke"/><path stroke="#76211a" d="M643 530.17q-6.73-4.73-10.87-9.61a1.08 1.08 0 0 0-1.67.03q-6.94 8.71-14.08 17.31c-10.07 12.13-23.44 25.24-32.78 35.46a.27.26-41.9 0 1-.41-.02l-.2-.27a.11.1 47.9 0 1 0-.13l15.42-21.45" vector-effect="non-scaling-stroke"/><path stroke="#681a15" d="M598.41 551.49q7.18-9.22 16.65-19.19 7.56-7.97 14.41-13.22a1.45 1.44-37.2 0 0 .28-2.01l-3.56-4.8a1.04 1.04 0 0 0-1.71.06q-1.17 1.79-6.39 9.48-2.9 4.26-9.21 9.83-9.02 7.96-20.04 14.43-5.13 3.01-7.63 6.65-3.11 4.56-12.67 19.81" vector-effect="non-scaling-stroke"/><path stroke="#d8372d" d="M598.41 551.49c-11.39 3.72-22.43 12.02-29.87 21.04" vector-effect="non-scaling-stroke"/><path stroke="#ed6156" d="M643 530.17q-3 1.76-5.67 3.38c-5.07 3.08-9.57 8.03-13.54 10.92-3.83 2.78-5.97 7.62-10.46 9.96a3.38 3.36-83.4 0 0-.99.79q-4.42 5.11-9.55 9.31c-2.82 2.32-3.94 5.93-6.81 8.4-1.79 1.53-2.53 2.94-4.09 5.06a.51.51 0 0 0 .61.78q.35-.15 1.06-.12" vector-effect="non-scaling-stroke"/><path stroke="#7a5927" d="M382.45 572.02q3.01-1.44 5.39-1.58" vector-effect="non-scaling-stroke"/><path stroke="#7f704b" d="M387.84 570.44c-9.58 16.14-15.28 35.81-17.97 54.21-1.98 13.53-1.67 29.79-1.86 44.62" vector-effect="non-scaling-stroke"/><path stroke="#7a5927" d="M368.01 669.27q.35.89 1.12.85.85-.03 1.43.02a.77.76 84.9 0 1 .66.56l.72 2.73" vector-effect="non-scaling-stroke"/><path stroke="#6f461c" d="M371.94 673.43q.56 6.46 1.45 8.89 4.54 12.48 14.37 21.42a.52.52 0 0 0 .86-.28l1.28-6.08a.82.82 0 0 1 1.25-.52c3.51 2.28 7.45 3.71 11.74 3.65q12.99-.18 22.23-6.27 17.5-11.53 27.85-30.81a.51.51 0 0 0-.53-.74c-.93.15-2.03.49-2.9 1.22q-5 4.21-12.36 4.98c-10.28 1.07-18.17-4.7-23.02-13.46" vector-effect="non-scaling-stroke"/><path stroke="#7a5927" d="M414.16 655.43q-2.99-6.34-3.16-13.43-.01-.56.18-.9a.25.25 0 0 1 .44.02q2.88 6.5 7.26 11.64" vector-effect="non-scaling-stroke"/><path stroke="#6f461c" d="M418.88 652.76c4.31 5.68 11.29 10.56 18.81 9.26q5-.87 7.92-4.41a2.93 2.92 68.7 0 0 .65-1.49q.76-6.2-1.29-12.16" vector-effect="non-scaling-stroke"/><path stroke="#7a5927" d="M444.97 643.96q-2.74-10.56-8.18-20.04-.42-.73-.41-1.34a.28.28 0 0 1 .44-.22q12.36 9.34 15.13 24.72" vector-effect="non-scaling-stroke"/><path stroke="#6f461c" d="m451.95 647.08.42 6.77a.68.67 1.6 0 0 .59.62q11.05 1.43 18.82-5.46c3.83-3.39 4.16-7.97 3.56-12.8" vector-effect="non-scaling-stroke"/><path stroke="#7a5927" d="M475.34 636.21c-.07-9.82-4.59-20.44-9.62-28.61a.42.42 0 0 1 .61-.56q14.29 10.5 15.49 28.21" vector-effect="non-scaling-stroke"/><path stroke="#6f461c" d="m481.82 635.25-.17 8.16a.83.83 0 0 0 1.16.78q11.24-4.73 11.7-16.66" vector-effect="non-scaling-stroke"/><path stroke="#7a5927" d="M494.51 627.53q-.09-.29-.05-.59" vector-effect="non-scaling-stroke"/><path stroke="#7f704b" d="M494.46 626.94c.58-9.3-4.99-18.74-11.37-25.29q-12.67-13.01-30.52-10.04-11.33 1.88-21.55 7.94-10.23 6.07-12.7 7.52c-2.29 1.36-4.19 3.14-6.76 4.12a.51.51 0 0 1-.6-.78l1.4-1.96a.26.26 0 0 0-.31-.4c-9.61 3.71-20.15 13.44-26.59 21.63" vector-effect="non-scaling-stroke"/><path stroke="#7a5927" d="m385.46 629.68-2.16 2.2a.44.44 0 0 1-.71-.48q6.64-15.12 18.36-23.76 6.89-5.07 13.88-7.31 1.8-.57 6.91-2.1a2.4 2.19-67.6 0 0 .66-.31l9.74-6.52" vector-effect="non-scaling-stroke"/><path stroke="#6f461c" d="m432.14 591.4 6.66-2.96a.21.21 0 0 0 .03-.37q-4.4-2.64-8.13-6.27-5.45-5.31-12.88-12.11-11.82-10.84-23.65-21.06" vector-effect="non-scaling-stroke"/><path stroke="#7f704b" d="m394.17 548.63-1.79-1.45a.48.48 0 0 0-.76.22c-1.52 4.5-3.32 8.82-6.21 12.66-3.73 4.98-6.36 8.69-9.19 14.15a.37.37 0 0 0 .49.5l5.74-2.69" vector-effect="non-scaling-stroke"/><path stroke="#e8b365" d="m394.17 548.63-3.2 8.11" vector-effect="non-scaling-stroke"/><path stroke="#f3c66f" d="m390.97 556.74-2.72 4.24a1.86 1.81-88.7 0 1-.59.58l-.53.33a1.42 1.39-5.4 0 0-.55.65l-4.13 9.48M385.46 629.68q3.32-1.44 6.2-3.65 4.86-3.72 5.78-4.32c5.28-3.46 7.49-5.14 13.18-7.58q12.06-5.18 25.12-12.2 5.12-2.75 7.22-3.57 6.06-2.35 7.63-2.54 16.31-2.05 28.43 7.66c7.45 5.96 10.97 14.02 14.01 22.91.24.73.79.83 1.43.55" vector-effect="non-scaling-stroke"/><path stroke="#e39c41" d="M494.51 627.53q-.58.34-1.61-.04a.71.7-59.7 0 0-.78.21q-4.24 4.95-10.3 7.55M475.34 636.21q.08.95-.14 1.82a.77.76 13.2 0 1-.91.56q-.22-.05-.35-.05a1.17 1.15 16.6 0 0-1.02.54c-3.77 6-14.67 8.37-20.97 8M444.97 643.96q-.69 4.63-3.57 8.93a2.2 2.16 6.9 0 1-1.08.83q-10.49 3.68-21.44-.96M414.16 655.43q-.12.96-.62 1.61c-1.13 1.49-1.23 2.02-1.79 3.59a6.41 6.12-20.5 0 1-.6 1.24q-4.21 6.63-5.32 8.2c-3.99 5.67-12.94 11-19.9 11.21q-7.76.24-12.02-6.93-.51-.87-1.97-.92" vector-effect="non-scaling-stroke"/><path stroke="#f3c66f" d="M368.01 669.27q1.96 0 2.13-1.13c.5-3.41.51-8.94.92-13.27q2.02-21.8 3.23-33.2.62-5.76 1.93-10.23c3.06-10.4 6.72-23.04 11.34-35.6q1.08-2.93.28-5.4" vector-effect="non-scaling-stroke"/><path stroke="#e39c41" d="M432.14 591.4q-7.04-4.13-12.77-8.77-12.46-10.07-24.12-21.14-.83-.78-2.96-1.51-1.23-.42-1.45-1.22-.22-.85.13-2.02" vector-effect="non-scaling-stroke"/><path stroke="#6f461c" d="M633.93 550.25q-10.19 9.52-20.46 18.98-6.75 6.23-13.25 12.74-3.55 3.57-11.28 8.53" vector-effect="non-scaling-stroke"/><path stroke="#7a5927" d="M588.94 590.5q-16.79 8.14-38.07 6.61a.75.75 0 0 1-.64-1.04l5.94-13.72" vector-effect="non-scaling-stroke"/><path stroke="#6f461c" d="M556.17 582.35q4.19-7.84 8.96-16.03 2.16-3.73 3.85-5.82a.22.22 0 0 0-.29-.33q-2.79 1.65-12.57 7.96-2.37 1.53-3.85 3.9c-9.12 14.54-24.61 19.45-41.03 18.56q-19.66-1.07-30.72-15.7c-1.68-2.21-3.34-5.97-5.2-7.18q-6.98-4.58-13.2-7.75a.35.35 0 0 0-.45.49l12.76 20.93" vector-effect="non-scaling-stroke"/><path stroke="#7a5927" d="m474.43 581.38 3.62 7.89a1.63 1.6 3.5 0 0 .65.72q19 10.91 22.35 32.8c2.28 14.86-6.04 27.49-21.47 28.75a1.68 1.66-71.4 0 0-1.09.55q-1.55 1.7-3.32 3.34-5.36 4.95-11.96 6.01" vector-effect="non-scaling-stroke"/><path stroke="#6f461c" d="m463.21 661.44-1.58.37a.95.94-83 0 0-.63.5q-4.16 8.16-8.68 14.53-3.66 5.16-4.44 6.47a1.07 1.03-39.6 0 0-.1.87q3.16 10.01 11.05 16.8a.25.24 14.9 0 0 .4-.23q-.69-3.74.06-7.2a.34.34 0 0 1 .66-.02q.36 1.22.84 1.97 9.47 14.82 26.54 19.93 21.81 6.54 43.85 2.19 12.86-2.54 24.15-9.24a1.14 1.12-14.9 0 0 .55-.93l.27-10.47a2.29 2.26-61.6 0 0-.37-1.28q-.19-.32-2.33-3.9c-3.12-5.22-2.77-10.5-3.04-16.6" vector-effect="non-scaling-stroke"/><path stroke="#7a5927" d="M550.41 675.2q-.21-.68.27-.83a.31.3 71.5 0 1 .37.19q2.33 6.51 6.57 12.07a.37.36-52.9 0 0 .63-.09c5.44-13.57 17.08-23.38 30.51-28.76q5.49-2.2 5.82-2.11a.29.29 0 0 1 .09.52q-1.71 1.23-4.46 2.76-3.01 1.67-5.64 4.38" vector-effect="non-scaling-stroke"/><path stroke="#6f461c" d="M584.57 663.33q-7.86 6.01-14.2 15.04-5.22 7.45-6.79 14.6c-1.33 6.08-.87 13.59-1.21 20.52-.66 13.65-4.18 26.68-10.94 38.64q-3.03 5.38-6.57 11.96c-7.27 13.51-7.22 28.52 1 41.35a1.59 1.58 58.6 0 0 2.13.52q3.39-1.97 5.29-4.95" vector-effect="non-scaling-stroke"/><path stroke="#7a5927" d="M553.28 801.01q5.54-6.25 8.39-13.05a.42.42 0 0 1 .81.22q-1.23 9.49-6.01 17.79" vector-effect="non-scaling-stroke"/><path stroke="#6f461c" d="m556.47 805.97-4.97 5.27a.64.64 0 0 0-.03.85c8.84 10.95 21.66 8.27 28.79-2.47 1.97-2.97 3.8-5.86 5.07-9.12" vector-effect="non-scaling-stroke"/><path stroke="#7a5927" d="m585.33 800.5 3.98-9.7a.32.32 0 0 1 .62.15l-.41 5.46" vector-effect="non-scaling-stroke"/><path stroke="#6f461c" d="M589.52 796.41q-.7 7.3-2.97 13.8a.35.35 0 0 0 .53.4q10.62-7.3 16.03-18.45" vector-effect="non-scaling-stroke"/><path stroke="#7a5927" d="m603.11 792.16.34-1.13" vector-effect="non-scaling-stroke"/><path stroke="#7f704b" d="M603.45 791.03q6.23-11.71 9.21-24.56c2.22-9.6 5.12-21.06 9.94-28.87q7.75-12.54 9.39-15.08 11.99-18.55 13.38-40.38a.79.79 0 0 1 .79-.75h2.11a.61.61 0 0 0 .61-.63c-.31-6.89-1.19-14.9-.27-22.77q.6-5.15.82-9.5c.78-14.92 1.62-29.8-.5-43.58q-1.64-10.58-5.94-23.42-2.45-7.34-5.42-12.66" vector-effect="non-scaling-stroke"/><path stroke="#7a5927" d="M637.57 568.83q1.94-.27 5.23 1.03" vector-effect="non-scaling-stroke"/><path stroke="#7f704b" d="m642.8 569.86 5.25 2.15a.28.28 0 0 0 .35-.38q-.38-.73-4.67-8.84-3.1-5.87-6.12-14.45a.6.6 0 0 0-.95-.27l-2.73 2.18" vector-effect="non-scaling-stroke"/><path stroke="#f3c66f" d="m642.8 569.86-4.91-11.53a.99.98-75.7 0 0-.17-.29l-.65-.79" vector-effect="non-scaling-stroke"/><path stroke="#e8b365" d="m637.07 557.25-3.14-7" vector-effect="non-scaling-stroke"/><path stroke="#e39c41" d="M637.07 557.25q-.01 1.18-.3 1.5c-2.22 2.46-5.12 6.02-7.95 8.06-4.15 2.99-7.28 5.85-11.81 8.81q-14.61 9.57-16.84 10.76-3.68 1.94-11.23 4.12" vector-effect="non-scaling-stroke"/><path stroke="#f3c66f" d="M637.57 568.83q-.96-.42-1.58-.24a1.07 1.07 0 0 0-.76 1.19q1.17 8 3.66 12.81 1 1.93 2.71 8.5 1.11 4.24 1.63 8.78c1.71 14.96 2.44 31.42 1.11 47.22q-.58 6.78.25 12.58a.46.46 0 0 1-.88.25q-1.56-3.74-4.58-5.31a.78.77-85.7 0 0-1.09.94c3.05 9.05 4.36 17.72 2.05 26.82-2.08 8.19-2.4 10.72-5.44 18.76-2.6 6.86-4.63 13.14-8.32 19.01q-5.9 9.38-8.22 13.95-3.06 6.02-3.64 9.67-1.44 9.04-3.8 15.23-2.42 6.37-3.88 13.14-1.12 5.23-2.13 8.37c-1.21 3.78-2.71 7.36-3.79 11.27a.35.34-87.1 0 0 .38.43q1.34-.21 2.2-1.17" vector-effect="non-scaling-stroke"/><path stroke="#e39c41" d="M603.11 792.16q-3.74 1.15-8.96 4.05-1.78.98-4.63.2M585.33 800.5q-4.77 5.64-9.07 8.3-7.45 4.62-15.78-.14-2.09-1.2-4.01-2.69M553.28 801.01q-13.46-12.67-6.7-30.71c1.25-3.32 1.81-4.98 3.18-7.57q9.1-17.2 10.95-22.01c4.71-12.19 8.42-22.21 9.49-34.01q.78-8.51 1.88-16.37.89-6.33 3.75-12.45 3.45-7.36 8.74-14.56M550.41 675.2q-.22.49-.25 1.05a.55.55 0 0 1-.7.5l-.33-.09a.68.67 29.8 0 0-.67.18q-.62.64-3.31 4.53c-3.73 5.41-10.05 9.92-15.78 12.79a.35.34 88.5 0 1-.47-.45c1.53-3.56 2.79-5.71 2-8.48a.52.52 0 0 0-.92-.16l-14.59 20.45a1.21 1-21 0 0-.13.23l-1.31 3.08a.49.48 43.5 0 1-.88.02q-2.08-4.3-6.2-8.25-1.71-1.65-6.59-8.14c-3.25-4.33-5.89-10.35-8.14-14.8a.35.35 0 0 0-.64.03q-1.46 3.88-.49 8.44a.43.43 0 0 1-.7.42q-5.91-4.96-9.23-10.98c-1.58-2.88-2.91-7.37-4.22-10.98a4.95 4.83-58.3 0 1-.24-1.07l-.23-2.2a.63.63 0 0 0-1.24-.08c-2.1 9.09 1.23 17.71 6.64 25.03a.33.33 0 0 1-.43.48q-8.63-5.25-13.9-13.71-1.6-2.56-4.25-11.6M474.43 581.38q8.67 6.1 15.26 13.72a4.78 4.63 87.1 0 0 .73.68q2.72 2 4.5 3.91.87.93 4.99 3.96 9.7 7.14 14.52 19.14a.74.73-44.8 0 0 1.36 0q4.67-11.52 14.79-19.47 14.4-11.29 19.88-15.8.72-.59 2.53-2.99 1.4-1.86 3.18-2.18" vector-effect="non-scaling-stroke"/><path stroke="#7f704b" d="m415.17 705.53-5.02.85a.38.37 80.3 0 0-.31.44q3.21 18.14 11.01 34.83c8.8 18.84 21.63 32.3 43.13 35.64" vector-effect="non-scaling-stroke"/><path stroke="#7a5927" d="m463.98 777.29 4.53.88" vector-effect="non-scaling-stroke"/><path stroke="#6f461c" d="m468.51 778.17 10.06.61a.55.51 13.5 0 1 .49.73q-.09.17-.46.34-4.53 2.01-8.29 2.32" vector-effect="non-scaling-stroke"/><path stroke="#7f704b" d="m470.31 782.17-3.87.24a.44.44 0 0 0-.37.64q3.78 7.48 3.06 15.76c-.99 11.52-10.2 22.86-.65 32.88" vector-effect="non-scaling-stroke"/><path stroke="#6f461c" d="M468.48 831.69q.92 1.46 3.64 2.75a.58.57-78.1 0 0 .82-.54q-.27-8.29 3.1-16.2a.44.44 0 0 1 .84.22q-.88 7.27.93 13.85c1.05 3.83 1.95 5.89 6.04 6.13q5.29.32 9.36-1.99a.74.73-23.2 0 0 .34-.84q-2.42-8.26-.13-17.52a.43.43 0 0 1 .84.04c.8 5.87 1.21 10.23 3.53 14.92a.7.69-33.5 0 0 1.07.21c7.7-6.65 8.33-18.4 7.11-27.97q-2.28-17.87-3.31-34.33-.22-3.45-.74-5.25c-1.39-4.77-5.67-8.41-7.45-10.83-6.03-8.17-4.15-20.69-1.12-29.9a.51.5-73.3 0 0-.34-.64l-4.4-1.23q-12.29-3.4-21.78-10.92a1.62 1.56-21.6 0 0-.83-.34c-.97-.1-1.5.52-2.6.23q-1.37-.37-3.44-1.96-11.28-8.64-15.56-21.78a.37.37 0 0 0-.63-.13q-11.96 13.43-28.6 17.86" vector-effect="non-scaling-stroke"/><path stroke="#e8b365" d="M468.48 831.69q.56-1.34.04-3.31-.61-2.32-.67-3.28-.41-6.9.54-9.41 6.26-16.61 1.92-33.52" vector-effect="non-scaling-stroke"/><path stroke="#e39c41" d="M468.51 778.17q1.1-.87.57-3.49a.93.93 0 0 1 .16-.73q3.02-4.27 3.99-9.5 3.36-18.06-8.48-31.97c-5.29-6.21-15.49-12.71-22.43-16.55q-4.12-2.28-8.13-1.01-9.42 2.99-16.18 4.71" vector-effect="non-scaling-stroke"/><path stroke="#e8b365" d="M418.01 719.63q-2.08-6.12-2.84-14.1" vector-effect="non-scaling-stroke"/><path stroke="#f3c66f" d="M418.01 719.63q1.15 3.74 2.53 6.95 2.9 6.72 2.93 6.8c3.09 8.13 5.54 13.24 10.57 20.1 2.53 3.44 5.66 6.55 7.99 10.22a6 6 0 0 0 .71.91q2.69 2.85 6.91 5.85 5.3 3.77 11.73 3.85 2.03.02 3.05 1.57.4.61-.45 1.41" vector-effect="non-scaling-stroke"/><path stroke="#6f461c" d="M539.07 759.53q5.2-8.89 9.26-16.95c4.56-9.04 6.44-17.2 7.19-26.73a.41.41 0 0 0-.61-.39q-8.25 4.58-17.63 7.17a1.38 1.37 87.3 0 0-.99 1.09q-.93 5.55-2.58 13.48c-1.69 8.19-1.84 16.62 4.93 22.41a.29.28-55.2 0 0 .43-.08" vector-effect="non-scaling-stroke"/><path stroke="#7a5927" d="M432.81 434.63q3.83 5.71 8.4 8.69" vector-effect="non-scaling-stroke"/><path stroke="#f6d6a4" d="M441.21 443.32q5.46 1.54 10.91 1.18" vector-effect="non-scaling-stroke"/><path stroke="#b27732" d="M452.12 444.5q3.79.89 8.69.76 2.98-.07 6.01-.3" vector-effect="non-scaling-stroke"/><path stroke="#7a5927" d="m466.82 444.96 7.96-.37a.84.84 0 0 0 .76-.56l1.78-5.02" vector-effect="non-scaling-stroke"/><path stroke="#e39c41" d="M477.32 439.01q1.24-.28 1.51-.09a1.26 1.26 0 0 0 1.91-.54q3.52-8.65 5.02-16.71c2.61-13.99-1.73-29.8-13.91-38.05-8.86-6-22.71-5.45-31.43.8q-5.62 4.03-10.47 10.78c-2.28 3.19-4.26 8.78-4.54 12.22q-1.32 16.15 7.4 27.21" vector-effect="non-scaling-stroke"/><path stroke="#6f461c" d="M477.32 439.01c3.27-11.11 4.76-25.82-3.72-35.24-5.13-5.7-10.54-8.35-18.37-7.89-12.17.7-21.54 11.13-23.51 22.6q-1.21 7.04 1.09 16.15" vector-effect="non-scaling-stroke"/><path stroke="#3e210d" d="m466.82 444.96-4.54-.39a.37.05 8 0 0-.07-.02c-7.44-1.77-11.7-6.41-12.74-13.76q-.66-4.68-.43-6.02 2.5-14.39 17.05-15.19a1.02.95 47 0 1 .14.01l6.6 1.23a.32.31-7.2 0 0 .35-.44q-.8-1.72-2.2-2.73" vector-effect="non-scaling-stroke"/><path stroke="#828080" d="M470.98 407.65c-7.13-7.95-18.82-6.65-26.19.14q-5.96 5.49-7.75 13.42-2.69 11.88 4.17 22.11" vector-effect="non-scaling-stroke"/><path stroke="#b99e8b" d="M470.98 407.65q-8.68-3.11-15.67.39-12.97 6.5-11.9 21.71.62 8.68 8.71 14.75" vector-effect="non-scaling-stroke"/><path stroke="#7a5927" d="M553.31 442.08q.29 3.07 2.66 2.66" vector-effect="non-scaling-stroke"/><path stroke="#b27732" d="M555.97 444.74q10.91 1.89 21.7-.1" vector-effect="non-scaling-stroke"/><path stroke="#f6d6a4" d="M577.67 444.64q1.35 1 3.65-.3a1.48 1.47-56.3 0 1 .92-.19q3.77.43 6.21-1.29" vector-effect="non-scaling-stroke"/><path stroke="#7a5927" d="M588.45 442.86q.38.49.84.16 4.48-3.24 7.46-8.95" vector-effect="non-scaling-stroke"/><path stroke="#e39c41" d="M596.75 434.07q7.15-9.64 7.1-22.31c-.04-12.24-7.02-21.47-16.98-27.91q-7.46-4.83-16.82-4.23c-15.63.99-26.34 15.75-26.46 30.76q-.06 7.64.74 11.64c1.22 6.16 2.29 11.6 4.48 16.5a1.5 1.5 0 0 0 .73.73q2.04.91 3.77 2.83" vector-effect="non-scaling-stroke"/><path stroke="#6f461c" d="M596.75 434.07q1.44-6.31 1.16-12.3-.32-6.95-3.13-11.8c-8.96-15.49-30.69-20.13-41.02-2.93q-4.42 7.36-4.13 16.2.28 8.36 1.59 12.02 1.14 3.22 2.09 6.82" vector-effect="non-scaling-stroke"/><path stroke="#828080" d="M588.45 442.86c7.98-9.99 6.06-24.31-2.08-33.18-7.25-7.89-19.77-10.27-27.75-1.9" vector-effect="non-scaling-stroke"/><path stroke="#3e210d" d="M558.62 407.78q-1.25 1.03-1.76 2.48a.68.68 0 0 0 .83.88q6.48-1.86 12.19.12c10.1 3.52 10.95 11.77 10.03 21.29-.48 5.08-3.95 8.58-8.12 10.89q-2.06 1.15-5.81 1.18-4.97.05-10.01.12" vector-effect="non-scaling-stroke"/><path stroke="#b99e8b" d="M577.67 444.64c7.87-5.65 10.42-15.48 7.23-24.03q-5.15-13.84-20.13-13.8c-1.91.01-4.07.67-6.15.97" vector-effect="non-scaling-stroke"/><path stroke="#7a5927" d="M476.49 444.52c-3.55 3.69-6.39 9.87-7.41 14.91a.26.26 0 0 0 .47.19q4.25-6.77 9.7-12.44 5.44-5.66 12.04-10.18a.26.26 0 0 0-.21-.47c-5 1.22-11.05 4.31-14.59 7.99M553.01 444.65c-3.5-3.63-9.49-6.66-14.42-7.84a.26.25 69 0 0-.21.46q6.52 4.44 11.91 10.01t9.61 12.24a.26.25 23 0 0 .46-.19c-1.02-4.97-3.84-11.06-7.35-14.68M591.09 488.93q-2.86-9.28-12.3-9.72-6.35-.3-10.29 4.51a.41.41 0 0 0 .31.67h6.51a.79.78 6.2 0 1 .77.95c-3.7 16.96-15.34 38.24-36.54 33.03q-11.52-2.83-20.72-11.32a2.98 2.96-68.7 0 1-.95-2.18v-8.06a.82.82 0 0 1 .61-.79q9.37-2.39 16.57-8.41c7.04-5.89 13.73-15.66 12.23-25.15-1.04-6.56-8.45-11.01-14.39-12.63-9.62-2.64-20.35-2.87-30.46-1.42-9.67 1.39-20.23 5.96-20.4 16.86q-.1 5.62 2.93 10.96c5.81 10.22 14.89 16.59 26.4 20.05a.79.78 8.5 0 1 .56.75v8.8a1.24 1.24 0 0 1-.42.93c-8.15 7.3-20.43 14.56-31.77 12.19-15.47-3.22-23.04-19.69-26.68-33.39a.83.83 0 0 1 .8-1.04h6.06a.66.65 67.5 0 0 .46-1.12c-7.16-7.25-18.12-4.85-21.62 4.74a.47.47 0 0 0 .61.61l8.02-2.96a.97.97 0 0 1 1.3.83q1.36 16.03 11.59 28.44 7.37 8.94 18.39 10.77a1.2 1.19-.7 0 1 .97.94c3.86 19.35 12.47 42.35 36.46 41.72 23.32-.62 31.25-22.6 35.06-41.41a2.51 2.49-.4 0 1 1.95-1.96c8.66-1.79 14.63-7.04 19.49-14.7q7.36-11.59 8.4-24.29a.71.71 0 0 1 .99-.59l8.64 3.8a.34.34 0 0 0 .46-.41" vector-effect="non-scaling-stroke"/><path stroke="#828080" d="M472.36 418.18a5.9 5.9 0 0 0-5.9-5.9 5.9 5.9 0 0 0-5.9 5.9 5.9 5.9 0 0 0 5.9 5.9 5.9 5.9 0 0 0 5.9-5.9M452.939 429.835a3.02 2.78-123.6 0 0-.644 4.053 3.02 2.78-123.6 0 0 3.986.977 3.02 2.78-123.6 0 0 .644-4.053 3.02 2.78-123.6 0 0-3.986-.977M569 418.69a5.79 5.79 0 0 0-5.79-5.79 5.79 5.79 0 0 0-5.79 5.79 5.79 5.79 0 0 0 5.79 5.79 5.79 5.79 0 0 0 5.79-5.79M578.03 432.68a2.76 2.76 0 0 0-2.76-2.76 2.76 2.76 0 0 0-2.76 2.76 2.76 2.76 0 0 0 2.76 2.76 2.76 2.76 0 0 0 2.76-2.76M514.65 461.92c6.25-.02 13.26.06 19.29-2.29a.87.87 0 0 0 .27-1.45c-4.04-3.76-14.16-4.15-19.59-4.13s-15.54.47-19.56 4.26a.87.87 0 0 0 .28 1.45c6.05 2.32 13.06 2.18 19.31 2.16" vector-effect="non-scaling-stroke"/><path stroke="#7d443e" d="M541.9 538.31c-6.08-5.13-14.46-6.67-22-4.18-1.2.4-2.83 1.59-3.92 2.12a.97.96 46.5 0 1-.93-.03q-1.16-.68-4.26-1.75-11.18-3.87-20.89 3.87a2.34 2.34 0 0 0-.77 2.5c2.48 8.11 8.82 16.21 16.96 19.26 9.26 3.47 17.3 1.41 25.17-4.26 5.1-3.69 8.73-10.63 10.89-16.57a.87.86-59.8 0 0-.25-.96" vector-effect="non-scaling-stroke"/><path stroke="#e39c41" d="M583.41 600.48q1.69 9.78.49 17.77a1.41 1.4 58.8 0 1-.08.33l-2.84 8.49a2.31 2.26-16.2 0 1-.43.76l-.62.75a.5.5 0 0 1-.88-.28q-.49-5.93-4.29-10.28-.31-.35-.69-.33a.65.63-7 0 0-.61.75c1.21 6.37.93 13.04-1.38 19.54q-2.46 6.92-2.53 7.13a.41.41 0 0 0 .36.56q.52.03 1.03-.5 3.63-3.74 6.55-8.4a5.04 4.9-2.8 0 1 1.23-1.32q.11-.08 2.85-2.61 5.81-5.34 6.51-14.05.77-9.66-3.79-18.6a.47.47 0 0 0-.88.29" vector-effect="non-scaling-stroke"/><path stroke="#f3c66f" d="M550.48 635.54c-.4 2.71-.5 5.87-1.17 8.58q-2.55 10.41-10.96 17.78a.35.35 0 0 1-.58-.32c.2-1.3.88-2.35 1.05-3.89q.85-7.69-1-14.87a.4.4 0 0 0-.68-.17q-.23.25-.24.61-.3 10.91-4.13 21.05-1.37 3.6-3.71 6.85a.43.43 0 0 0 .54.64c7.78-3.72 15.88-8.33 19.48-16.46 1.43-3.23 2.36-4.19 4.84-6.68 3.08-3.08 4.51-6.26 6.34-10.29q4.85-10.68.85-23.08a.37.37 0 0 0-.72.12q.17 10.35-2.86 20c-.92 2.9-2.62 5.86-4 8.13a.38.38 0 0 1-.7-.11l-1.83-7.91a.27.26-47.1 0 0-.52.02" vector-effect="non-scaling-stroke"/></g><path fill="#fdfdfd" d="M558.5 219.6q14.74 5.24 26.64 11.78a.26.26 0 0 0 .33-.4q-10.62-12.45-24.79-17.49-14.18-5.04-30.27-2.1a.26.26 0 0 0 0 .52q13.36 2.45 28.09 7.69m-21.94 12.05c21.79 5.45 42.33 12.96 62 22.62a.22.22 0 0 0 .23-.37c-17.38-13.67-39.53-23.4-60.62-28.68-21.09-5.27-45.21-7.11-66.98-3.24a.22.22 0 0 0 .03.44c21.9.74 43.56 3.79 65.34 9.23M367.33 682.6a.08.08 0 0 1 .15.01q5.51 21.59 25.6 32.32a.46.46 0 0 0 .67-.41v-8.12a.48.47 3.3 0 1 .53-.47l9.2 1.11a.76.75-1 0 1 .66.63c4.18 27.15 16.46 60.91 44.49 71.72q1.48.57 9.48 2.72a1.81 1.8-9.8 0 1 1.03.72c4.6 6.55 5.28 14.09 2.7 21.58q-.51 1.47-2.56 7.83-5.48 17 7.94 26.22c2.97 2.04 6.31 2.61 9.5 4.07 6.56 3.02 11.42 2.78 18.45-.13 21.56-8.91 17.75-32.63 15.35-50.91-.94-7.19-.95-12.85-1.34-20.97-.27-5.86-.93-11.6-4.88-15.07-4.44-3.9-7.04-7.93-6.79-14.29q.29-7.54 2.31-15.61a.64.64 0 0 1 .73-.47q14.76 2.49 29.14-.4a.47.47 0 0 1 .53.61c-4.74 13.31-7.28 30.56 6 39.73a.58.58 0 0 1 .21.68c-6 15.23-5.98 29.6 3.17 42.72q.9 1.28 6.78 8.19c7.69 9.04 18.38 12.55 28.77 6.49q3.41-1.99 4.73-2.94a2.35 2.25-65.9 0 1 1.01-.41c14.18-2.07 24.22-14.79 29.87-27.27 4.81-10.66 8.05-22.52 10.65-34.31 1.04-4.68 2.79-9.89 4.9-13.08 11.03-16.73 18.91-28.96 22.44-45.07q.67-3.09.83-6.22a.49.49 0 0 1 .92-.22l2.42 4.2a.71.71 0 0 0 1.29-.14q.09-.3.19-1.01 1.37-10.38 1.14-17.63c-.19-5.69-.41-12.14.03-18 1.29-17.26 3.05-35.75.6-52.94q-2.16-15.22-7.9-28.97a.49.48 6.4 0 1 .73-.58l9.38 6.69a.35.35 0 0 0 .54-.36c-1.37-6.69-3.4-12.5-6.58-19.15-4.14-8.66-7.22-15.27-9.64-22.45a.72.7-32.5 0 1 .17-.74l8.06-8.06a.9.9 0 0 1 .99-.19q8.21 3.6 17.51 2.04a.49.49 0 0 0 .39-.62q-2.49-8.28-2.06-15.69a1.48 1.46 68.5 0 1 .4-.93q25.55-26.45 39.8-43.33 28-33.16 48.44-72.53 12.74-24.51 20.71-49.08 5.82-17.93 8.31-37.39 1.04-8.12.76-16.96c-.36-11.48-4.76-20.47-13.42-27.74-16.95-14.24-42.17-17.74-62.93-14.36q-15.22 2.48-21.47 4.48-20.31 6.51-35.86 11.26-20.57 6.29-44.26 4.61-17.33-1.24-32.86-4.93c-18.25-4.34-37.57-10.27-58.25-17q-12.99-4.24-25.65-7.58c-22.4-5.92-42.89-7.77-64-3q-21.62 4.88-42.5 14.76-22.7 10.76-24.74 11.74c-9.64 4.65-21.36 8.97-32.24 9.77-13.33.98-26.99-1.3-39.82-5.72q-24.4-8.42-30.12-10.53-7.52-2.77-16.67-5.19c-13.12-3.47-26.17-6.64-37.48-4.39q-10.42 2.07-11.95 12.54-1.74 11.94 1.16 24.95 4.66 20.89 13.96 41.78 13.14 29.51 31.92 56.84 13.73 19.97 24.48 33.09 35.17 42.89 79.46 81.53 1.12.98 20.51 17.45a1.28 1.27 25.9 0 1 .43 1.23l-2.18 10.33a.38.38 0 0 0 .31.46q7.19 1.05 14.03-.67a1.02 1.01 55.3 0 1 .85.16l9.35 6.67a.82.81 27.1 0 1 .3.91q-1.77 5.59-4.93 10.9c-3.07 5.17-8.34 11.47-11.04 17.42q-3.79 8.37-5.88 18a.31.3 69.8 0 0 .54.25q4.34-5.7 10.58-9.13a.38.38 0 0 1 .53.5q-13.11 27.76-14.36 57.11-.43 10.1-.36 29.74.04 12.02 2.57 21.17a.13.13 0 0 0 .24.02zm424.93-296.15c-7.61 20.66-17.98 40.59-31.17 58.01a.11.11 0 0 0 .16.15q3.92-3.38 7.4-7.21 19.95-21.91 29.81-48.67 9.85-26.76 8.88-56.37-.17-5.17-.97-10.29a.11.11 0 0 0-.21.01c-1.26 21.81-6.3 43.71-13.9 64.37m-589.54-24.5c1.83 14.88 5.85 29.82 10.98 44.16 5.44 15.24 13.41 30.38 23.48 43.19q15.97 20.31 38.1 35.73a.29.29 0 0 0 .39-.06l.01-.01a.24.24 0 0 0-.03-.33q-24.04-22.34-41.85-51.72-20.89-34.46-30.94-70.99a.07.07 0 0 0-.14.03m607.44 29.33q-4.76 14.04-12.67 27.52a.24.24 0 0 0 .36.31c8.43-6.5 14.58-15.9 17.98-25.91 3.39-10.01 4.22-21.22 1.48-31.5a.24.24 0 0 0-.47.03q-1.92 15.51-6.68 29.55m-613.62 24.61q7.37 16.6 22.95 29.73a.15.15 0 0 0 .23-.2q-1.88-3-5.36-8.49-5.47-8.62-12.11-23.58-6.65-14.96-9.37-24.8-1.73-6.26-2.7-9.67a.15.15 0 0 0-.3.04q-.71 20.37 6.66 36.97"/><path fill="#060302" d="M560.68 213.49q14.17 5.04 24.79 17.49a.26.26 0 0 1-.33.4q-11.9-6.54-26.64-11.78-14.73-5.24-28.09-7.69a.26.26 0 0 1 0-.52q16.09-2.94 30.27 2.1M538.17 225.22c21.09 5.28 43.24 15.01 60.62 28.68a.22.22 0 0 1-.23.37c-19.67-9.66-40.21-17.17-62-22.62-21.78-5.44-43.44-8.49-65.34-9.23a.22.22 0 0 1-.03-.44c21.77-3.87 45.89-2.03 66.98 3.24"/><path fill="#060302" d="m367.33 682.6-2.9 6.59a.13.13 0 0 1-.24-.02q-2.53-9.15-2.57-21.17-.07-19.64.36-29.74 1.25-29.35 14.36-57.11a.38.38 0 0 0-.53-.5q-6.24 3.43-10.58 9.13a.31.3 69.8 0 1-.54-.25q2.09-9.63 5.88-18c2.7-5.95 7.97-12.25 11.04-17.42q3.16-5.31 4.93-10.9a.82.81 27.1 0 0-.3-.91l-9.35-6.67a1.02 1.01 55.3 0 0-.85-.16q-6.84 1.72-14.03.67a.38.38 0 0 1-.31-.46l2.18-10.33a1.28 1.27 25.9 0 0-.43-1.23q-19.39-16.47-20.51-17.45-44.29-38.64-79.46-81.53-10.75-13.12-24.48-33.09-18.78-27.33-31.92-56.84-9.3-20.89-13.96-41.78-2.9-13.01-1.16-24.95 1.53-10.47 11.95-12.54c11.31-2.25 24.36.92 37.48 4.39q9.15 2.42 16.67 5.19 5.72 2.11 30.12 10.53c12.83 4.42 26.49 6.7 39.82 5.72 10.88-.8 22.6-5.12 32.24-9.77q2.04-.98 24.74-11.74 20.88-9.88 42.5-14.76c21.11-4.77 41.6-2.92 64 3q12.66 3.34 25.65 7.58c20.68 6.73 40 12.66 58.25 17q15.53 3.69 32.86 4.93 23.69 1.68 44.26-4.61 15.55-4.75 35.86-11.26 6.25-2 21.47-4.48c20.76-3.38 45.98.12 62.93 14.36 8.66 7.27 13.06 16.26 13.42 27.74q.28 8.84-.76 16.96-2.49 19.46-8.31 37.39-7.97 24.57-20.71 49.08-20.44 39.37-48.44 72.53-14.25 16.88-39.8 43.33a1.48 1.46 68.5 0 0-.4.93q-.43 7.41 2.06 15.69a.49.49 0 0 1-.39.62q-9.3 1.56-17.51-2.04a.9.9 0 0 0-.99.19l-8.06 8.06a.72.7-32.5 0 0-.17.74c2.42 7.18 5.5 13.79 9.64 22.45 3.18 6.65 5.21 12.46 6.58 19.15a.35.35 0 0 1-.54.36l-9.38-6.69a.49.48 6.4 0 0-.73.58q5.74 13.75 7.9 28.97c2.45 17.19.69 35.68-.6 52.94-.44 5.86-.22 12.31-.03 18q.23 7.25-1.14 17.63-.1.71-.19 1.01a.71.71 0 0 1-1.29.14l-2.42-4.2a.49.49 0 0 0-.92.22q-.16 3.13-.83 6.22c-3.53 16.11-11.41 28.34-22.44 45.07-2.11 3.19-3.86 8.4-4.9 13.08-2.6 11.79-5.84 23.65-10.65 34.31-5.65 12.48-15.69 25.2-29.87 27.27a2.35 2.25-65.9 0 0-1.01.41q-1.32.95-4.73 2.94c-10.39 6.06-21.08 2.55-28.77-6.49q-5.88-6.91-6.78-8.19c-9.15-13.12-9.17-27.49-3.17-42.72a.58.58 0 0 0-.21-.68c-13.28-9.17-10.74-26.42-6-39.73a.47.47 0 0 0-.53-.61q-14.38 2.89-29.14.4a.64.64 0 0 0-.73.47q-2.02 8.07-2.31 15.61c-.25 6.36 2.35 10.39 6.79 14.29 3.95 3.47 4.61 9.21 4.88 15.07.39 8.12.4 13.78 1.34 20.97 2.4 18.28 6.21 42-15.35 50.91-7.03 2.91-11.89 3.15-18.45.13-3.19-1.46-6.53-2.03-9.5-4.07q-13.42-9.22-7.94-26.22 2.05-6.36 2.56-7.83c2.58-7.49 1.9-15.03-2.7-21.58a1.81 1.8-9.8 0 0-1.03-.72q-8-2.15-9.48-2.72c-28.03-10.81-40.31-44.57-44.49-71.72a.76.75-1 0 0-.66-.63l-9.2-1.11a.48.47 3.3 0 0-.53.47v8.12a.46.46 0 0 1-.67.41q-20.09-10.73-25.6-32.32a.08.08 0 0 0-.15-.01m-20.87-397.29q-14.8 5.25-30.53 4.06-16.9-1.63-33.1-7.23-9.78-3.37-19.15-6.37-17.22-7.04-36.37-10.86c-6.12-1.21-19.46-3.35-24.24-.37-3.24 2.02-4.35 7.77-4.11 11q1.41 18.41 6.7 33.84c5 14.58 11.65 30.79 20.08 45.7q3.76 6.67 8.95 16.25 4.2 7.76 18.59 27.72 15.85 21.61 26.13 33.04c10.72 11.91 21.11 23.91 31.68 34.29q3.31 3.25 16.86 16.59 4.35 4.28 10.1 9.14 11.07 9.38 11.28 9.54 5.24 4.28 9.54 8.22 1.5 1.38 3 2.4a.43.43 0 0 0 .66-.46q-2.4-9.98-7.49-18.8a.43.43 0 0 0-.78.09l-2.13 7.14a.93.93 0 0 1-1.5.43q-1.31-1.14-2.1-2.19-5.94-7.98-11.24-16.33c-4.55-7.17-8.48-13.39-10.7-21.08-1.32-4.58-1.16-9.14-.72-13.75a2.45 2.44-62.7 0 0-.58-1.83c-12.41-14.57-21.72-30.39-29.98-48.55q-4.72-10.35-7.82-23.84 15.02 32.06 36.26 59.65 1.92 2.48 4.16 4.55a.51.5 34.7 0 0 .79-.14q6.52-12.89 16.84-23.39l11.8-12.72 22.85-27.59a.73.69 33.4 0 0-.25-1.08q-.18-.1-.67.02-2.81.66-7.26 2.18a.8.79-87.3 0 1-.98-1.08q5.65-12.62 17.65-19.82a.58.58 0 0 0-.23-1.08l-1.99-.23a.91.9 25.2 0 1-.55-1.52l2.97-3.11q10.11-7.72 22.69-9.21c8-.95 17.3-.67 25.57 1.55a2.99 2.98-58.4 0 0 2.75-.66c27.28-24.4 62.65-33.97 98.84-26.56q28.91 6.59 51 26.45a2.2 2.18 75 0 0 .72.42q1.63.56 3.1.11c5.28-1.58 10.24-1.91 16.02-1.96q9.49-.09 15.2 1.3 7.45 1.82 16.48 8.04a3.21 3.08-1.2 0 1 .49.45l2.89 3.34a.8.8 0 0 1-.6 1.32h-2.83a.43.43 0 0 0-.21.8q9.01 5.02 14.86 13.5c2.13 3.08 3.22 4.62 4.3 7.42a.37.36 87.8 0 1-.44.48l-9.71-2.9a.41.41 0 0 0-.47.59q1.32 2.32 2.52 3.54.38.39 11.92 14.34 11.26 13.62 24.15 26.29a.81.81 0 0 0 1.25-.16q9.55-15.49 16.97-31.98 8.78-18.23 14.38-37.65a.25.24 13.1 0 1 .28-.17.24.24 0 0 1 .19.26c-3.29 26.37-13.52 52.48-27.03 75.5a1.41 1.4 41.6 0 0 .1 1.58c10.72 13.96 15.77 29.18 6.74 45.66a1.97 1.95 50.9 0 0-.15 1.53l.02.08a.46.46 0 0 0 .8.14q10.56-13.97 20.87-27.64 3.73-4.94 9.29-14.53 5.34-7.04 11.57-18.35 15.29-27.75 23.92-52.34c3.48-9.9 6.2-20.7 8.14-28.84q2.42-10.14 2.41-23.13c-.01-8.75.31-15.66-4.15-21.51-12.13-15.9-35.12-21.57-54.09-20.21q-8.77.63-23.24 3.52-6.18 1.23-19.68 5.81c-12.67 4.29-24.2 7.82-37.47 10.12l-8.78 1.03Q605.63 287 581.34 282q-18.74-4.03-29.79-7.01c-7.69-2.08-17.61-5.93-25.17-8.13q-12.93-3.77-23.67-7.12-17.21-5.37-23.84-6.47-15.22-2.53-27.14-2.55c-29.45-.04-56.28 12.85-82.35 25.41q-9.97 4.8-22.92 9.18m83.68 68.04q-.57-.59.77-2.48l3.4-5.63a.42.42 0 0 0-.3-.63c-11.15-1.46-26.72-1.48-36.82 4.24a.57.57 0 0 0 0 .99l4.63 2.68a.56.55-38.5 0 1-.12 1.01q-11.2 3.49-19.3 12.18a.31.3-72.9 0 0 .27.51l6.83-1.11q5.99-.76 11.03.65a.4.4 0 0 1-.03.77l-5.7 1.13q-3.44.56-6.37 2.33a2.21 2.16-89 0 0-.73.72q-14.88 24.33-34.68 45.08c-9.29 9.74-20.47 21.8-20.35 36.05.09 9.93 5.72 21.27 11.67 30l5.18 8.26a.32.32 0 0 0 .58-.1q1.3-6.26 1.12-12.66a.11.1 26.9 0 1 .19-.06q10.89 14.58 16.96 31.18 3.76 10.28 1.94 20.24a.66.66 0 0 0 .81.76c21.45-5.61 34.28-25.94 35.63-47.22q.86-13.34-.49-21.99-3.4-21.92-2.15-41.73 1.6-25.52 19.36-45.7.32 1.66-1.61 4.53-6.89 13.65-9.75 28.27c-2.72 13.88-2.07 29.56-.24 43.91q2.31 18.13 2.48 22.71.58 15.39-4.41 29.93a2.52 2.51-49.9 0 0 .17 2.04c6.91 12.62 16.48 25.07 28.09 33.98q7.45 5.73 15.63 10.68c7.97 4.82 13.32 8.25 19.37 13.31a.26.26 0 0 0 .41-.27l-3.79-13.09-.78-6.86a.3.3 0 0 1 .59-.13c5.31 16.24 13.26 35.02 31.56 39.91q13.08 3.5 25.22.7c19.87-4.58 29.37-22.59 34.45-40.7a.27.27 0 0 1 .52.11l-.8 6.18q-.76 7.05-3.35 14.2a.26.26 0 0 0 .41.3c5.47-4.17 11.35-8.53 17.62-12.5q7.26-4.6 12.79-8.47c12.96-9.06 24.52-22.9 32.47-37.49a3.69 3.68 49.4 0 0 .23-3.05q-6.08-16.57-4.05-34.52 1.43-12.75 2.54-23 1.09-10.19.59-25.19-.45-13.7-5.94-28.5-3.65-9.87-6.3-14.38l-.8-1.7q-.02-.16.11-.29a.23.22 44.2 0 1 .33 0q11.4 12.13 15.92 28.7 5.2 19.04 3.36 38.87-.89 9.57-2.22 20.21c-1.92 15.29-.73 30.36 6.01 43.71q7.72 15.3 22.74 22.52 3.75 1.8 7.76 2.23a.42.42 0 0 0 .46-.47q-1.57-11.73 2.57-22.39 4.38-11.27 8.36-17.88 6.35-10.56 7.38-12.2a.08.08 0 0 1 .15.03l1.34 12.89a.37.37 0 0 0 .68.16l4.93-7.89q6.99-10.07 10.62-21.25 2.79-8.55.57-16.25-2.5-8.69-9.64-17.1c-2.26-2.64-4.65-5.62-6.94-7.94q-22.35-22.69-39.15-49.77a1.34 1.31 81.6 0 0-.75-.57l-5.61-1.62-5.73-1.13a.33.33 0 0 1 .02-.66l8.7-1.2 9.11 1.49a.29.29 0 0 0 .24-.5c-5.83-5.6-11.4-10.03-19.43-11.99a.63.62 36.8 0 1-.17-1.15l4.79-2.77a.44.43 42.9 0 0-.03-.77c-11.27-5.53-25.52-5.87-37.71-4.1a.37.37 0 0 0-.27.56l2.8 4.69q1.17 1.59 1.55 3.35-7.37-6.1-14.87-11.76c-7.22-5.45-14.68-9.51-22.92-13.52q-24.1-11.72-50.84-10.64-15.9.64-27.33 4.32-22.65 7.3-42.37 22.68-5.58 4.35-11.17 9.02m243.15 149.38 3.5-4.9a2.23 2.22 52.7 0 0 .28-2.07l-.44-1.19a.65.65 0 0 0-1.21-.04l-3.31 7.53a.68.68 0 0 0 1.18.67m-281.75 35.04q15.65 12.74 24.79 21.15 3.43 3.15 21.11 20.24c2.65 2.57 5.27 4.52 8.41 5.92a4.68 4.65-38.4 0 0 2.85.32q10.75-2.17 20.86.26a.35.34-6.8 0 0 .39-.49q-5.06-9.69-11.49-18.46-3.82-5.56-7.45-11.26-3.77-5.91-6.87-7.84-8.32-5.17-8.62-5.37-14.25-9.34-24.35-22.53a.14.11-83 0 1-.03-.05l-4.45-7.71a.86.86 0 0 0-1.47-.03q-7.53 12.05-19.53 19.79a.79.79 0 0 0-.07 1.28zm177 34.76q-2.8 4.01-3.88 6.16-5.55 11.07-6.55 12.97a.31.31 0 0 0 .3.46q11.37-.99 21.81-4.87 5.61-2.09 13.34-8.6c10.31-10.01 20.33-20.09 31.11-29.8 5.46-4.93 10.85-10.01 16.43-14.79q2.7-2.31 1.9-3.89-6.73-4.73-10.87-9.61a1.08 1.08 0 0 0-1.67.03q-6.94 8.71-14.08 17.31c-10.07 12.13-23.44 25.24-32.78 35.46a.27.26-41.9 0 1-.41-.02l-.2-.27a.11.1 47.9 0 1 0-.13l15.42-21.45q7.18-9.22 16.65-19.19 7.56-7.97 14.41-13.22a1.45 1.44-37.2 0 0 .28-2.01l-3.56-4.8a1.04 1.04 0 0 0-1.71.06q-1.17 1.79-6.39 9.48-2.9 4.26-9.21 9.83-9.02 7.96-20.04 14.43-5.13 3.01-7.63 6.65-3.11 4.56-12.67 19.81m-186.09-.51q3.01-1.44 5.39-1.58c-9.58 16.14-15.28 35.81-17.97 54.21-1.98 13.53-1.67 29.79-1.86 44.62q.35.89 1.12.85.85-.03 1.43.02a.77.76 84.9 0 1 .66.56l.72 2.73q.56 6.46 1.45 8.89 4.54 12.48 14.37 21.42a.52.52 0 0 0 .86-.28l1.28-6.08a.82.82 0 0 1 1.25-.52c3.51 2.28 7.45 3.71 11.74 3.65q12.99-.18 22.23-6.27 17.5-11.53 27.85-30.81a.51.51 0 0 0-.53-.74c-.93.15-2.03.49-2.9 1.22q-5 4.21-12.36 4.98c-10.28 1.07-18.17-4.7-23.02-13.46q-2.99-6.34-3.16-13.43-.01-.56.18-.9a.25.25 0 0 1 .44.02q2.88 6.5 7.26 11.64c4.31 5.68 11.29 10.56 18.81 9.26q5-.87 7.92-4.41a2.93 2.92 68.7 0 0 .65-1.49q.76-6.2-1.29-12.16-2.74-10.56-8.18-20.04-.42-.73-.41-1.34a.28.28 0 0 1 .44-.22q12.36 9.34 15.13 24.72l.42 6.77a.68.67 1.6 0 0 .59.62q11.05 1.43 18.82-5.46c3.83-3.39 4.16-7.97 3.56-12.8-.07-9.82-4.59-20.44-9.62-28.61a.42.42 0 0 1 .61-.56q14.29 10.5 15.49 28.21l-.17 8.16a.83.83 0 0 0 1.16.78q11.24-4.73 11.7-16.66-.09-.29-.05-.59c.58-9.3-4.99-18.74-11.37-25.29q-12.67-13.01-30.52-10.04-11.33 1.88-21.55 7.94-10.23 6.07-12.7 7.52c-2.29 1.36-4.19 3.14-6.76 4.12a.51.51 0 0 1-.6-.78l1.4-1.96a.26.26 0 0 0-.31-.4c-9.61 3.71-20.15 13.44-26.59 21.63l-2.16 2.2a.44.44 0 0 1-.71-.48q6.64-15.12 18.36-23.76 6.89-5.07 13.88-7.31 1.8-.57 6.91-2.1a2.4 2.19-67.6 0 0 .66-.31l9.74-6.52 6.66-2.96a.21.21 0 0 0 .03-.37q-4.4-2.64-8.13-6.27-5.45-5.31-12.88-12.11-11.82-10.84-23.65-21.06l-1.79-1.45a.48.48 0 0 0-.76.22c-1.52 4.5-3.32 8.82-6.21 12.66-3.73 4.98-6.36 8.69-9.19 14.15a.37.37 0 0 0 .49.5zm251.48-21.77q-10.19 9.52-20.46 18.98-6.75 6.23-13.25 12.74-3.55 3.57-11.28 8.53-16.79 8.14-38.07 6.61a.75.75 0 0 1-.64-1.04l5.94-13.72q4.19-7.84 8.96-16.03 2.16-3.73 3.85-5.82a.22.22 0 0 0-.29-.33q-2.79 1.65-12.57 7.96-2.37 1.53-3.85 3.9c-9.12 14.54-24.61 19.45-41.03 18.56q-19.66-1.07-30.72-15.7c-1.68-2.21-3.34-5.97-5.2-7.18q-6.98-4.58-13.2-7.75a.35.35 0 0 0-.45.49l12.76 20.93 3.62 7.89a1.63 1.6 3.5 0 0 .65.72q19 10.91 22.35 32.8c2.28 14.86-6.04 27.49-21.47 28.75a1.68 1.66-71.4 0 0-1.09.55q-1.55 1.7-3.32 3.34-5.36 4.95-11.96 6.01l-1.58.37a.95.94-83 0 0-.63.5q-4.16 8.16-8.68 14.53-3.66 5.16-4.44 6.47a1.07 1.03-39.6 0 0-.1.87q3.16 10.01 11.05 16.8a.25.24 14.9 0 0 .4-.23q-.69-3.74.06-7.2a.34.34 0 0 1 .66-.02q.36 1.22.84 1.97 9.47 14.82 26.54 19.93 21.81 6.54 43.85 2.19 12.86-2.54 24.15-9.24a1.14 1.12-14.9 0 0 .55-.93l.27-10.47a2.29 2.26-61.6 0 0-.37-1.28q-.19-.32-2.33-3.9c-3.12-5.22-2.77-10.5-3.04-16.6q-.21-.68.27-.83a.31.3 71.5 0 1 .37.19q2.33 6.51 6.57 12.07a.37.36-52.9 0 0 .63-.09c5.44-13.57 17.08-23.38 30.51-28.76q5.49-2.2 5.82-2.11a.29.29 0 0 1 .09.52q-1.71 1.23-4.46 2.76-3.01 1.67-5.64 4.38-7.86 6.01-14.2 15.04-5.22 7.45-6.79 14.6c-1.33 6.08-.87 13.59-1.21 20.52-.66 13.65-4.18 26.68-10.94 38.64q-3.03 5.38-6.57 11.96c-7.27 13.51-7.22 28.52 1 41.35a1.59 1.58 58.6 0 0 2.13.52q3.39-1.97 5.29-4.95 5.54-6.25 8.39-13.05a.42.42 0 0 1 .81.22q-1.23 9.49-6.01 17.79l-4.97 5.27a.64.64 0 0 0-.03.85c8.84 10.95 21.66 8.27 28.79-2.47 1.97-2.97 3.8-5.86 5.07-9.12l3.98-9.7a.32.32 0 0 1 .62.15l-.41 5.46q-.7 7.3-2.97 13.8a.35.35 0 0 0 .53.4q10.62-7.3 16.03-18.45l.34-1.13q6.23-11.71 9.21-24.56c2.22-9.6 5.12-21.06 9.94-28.87q7.75-12.54 9.39-15.08 11.99-18.55 13.38-40.38a.79.79 0 0 1 .79-.75h2.11a.61.61 0 0 0 .61-.63c-.31-6.89-1.19-14.9-.27-22.77q.6-5.15.82-9.5c.78-14.92 1.62-29.8-.5-43.58q-1.64-10.58-5.94-23.42-2.45-7.34-5.42-12.66 1.94-.27 5.23 1.03l5.25 2.15a.28.28 0 0 0 .35-.38q-.38-.73-4.67-8.84-3.1-5.87-6.12-14.45a.6.6 0 0 0-.95-.27zM415.17 705.53l-5.02.85a.38.37 80.3 0 0-.31.44q3.21 18.14 11.01 34.83c8.8 18.84 21.63 32.3 43.13 35.64l4.53.88 10.06.61a.55.51 13.5 0 1 .49.73q-.09.17-.46.34-4.53 2.01-8.29 2.32l-3.87.24a.44.44 0 0 0-.37.64q3.78 7.48 3.06 15.76c-.99 11.52-10.2 22.86-.65 32.88q.92 1.46 3.64 2.75a.58.57-78.1 0 0 .82-.54q-.27-8.29 3.1-16.2a.44.44 0 0 1 .84.22q-.88 7.27.93 13.85c1.05 3.83 1.95 5.89 6.04 6.13q5.29.32 9.36-1.99a.74.73-23.2 0 0 .34-.84q-2.42-8.26-.13-17.52a.43.43 0 0 1 .84.04c.8 5.87 1.21 10.23 3.53 14.92a.7.69-33.5 0 0 1.07.21c7.7-6.65 8.33-18.4 7.11-27.97q-2.28-17.87-3.31-34.33-.22-3.45-.74-5.25c-1.39-4.77-5.67-8.41-7.45-10.83-6.03-8.17-4.15-20.69-1.12-29.9a.51.5-73.3 0 0-.34-.64l-4.4-1.23q-12.29-3.4-21.78-10.92a1.62 1.56-21.6 0 0-.83-.34c-.97-.1-1.5.52-2.6.23q-1.37-.37-3.44-1.96-11.28-8.64-15.56-21.78a.37.37 0 0 0-.63-.13q-11.96 13.43-28.6 17.86m123.9 54q5.2-8.89 9.26-16.95c4.56-9.04 6.44-17.2 7.19-26.73a.41.41 0 0 0-.61-.39q-8.25 4.58-17.63 7.17a1.38 1.37 87.3 0 0-.99 1.09q-.93 5.55-2.58 13.48c-1.69 8.19-1.84 16.62 4.93 22.41a.29.28-55.2 0 0 .43-.08"/><path fill="#f48479" d="M581.34 282q.59 1.32-2.93.63-9.37-1.85-9.91-1.93-9.14-1.33-20.44-4.44-3.97-1.09-14.74-2.75c-5.18-.8-10.85-2.39-16.29-3.6-12.44-4.47-26.35-6.57-39.1-8.52-17.44-2.65-34.28-2.58-51.22 1.84-6.25 1.63-16.83 4.33-25.86 7.37q-21.33 7.17-42.89 13.58-5.39.86-10.8 2.01-.43.09-.69-.27-.19-.27-.01-.61 12.95-4.38 22.92-9.18c26.07-12.56 52.9-25.45 82.35-25.41q11.92.02 27.14 2.55 6.63 1.1 23.84 6.47 10.74 3.35 23.67 7.12c7.56 2.2 17.48 6.05 25.17 8.13q11.05 2.98 29.79 7.01"/><path fill="#e63e32" d="M517.03 269.91q-.59 2.82.39 4.62 4.4 8.07 11.76 22.28 2.26 4.37 10.57 15.07a.54.54 0 0 1-.34.86l-.68.12c-36.19-7.41-71.56 2.16-98.84 26.56a2.99 2.98-58.4 0 1-2.75.66c-8.27-2.22-17.57-2.5-25.57-1.55q-12.58 1.49-22.69 9.21-14.15-20.68-22.99-43.86-2.99-7.86-5.63-15.85-.36-1.1-2.3-3.85 21.56-6.41 42.89-13.58c9.03-3.04 19.61-5.74 25.86-7.37 16.94-4.42 33.78-4.49 51.22-1.84 12.75 1.95 26.66 4.05 39.1 8.52"/><path fill="#f48479" d="M263.68 275.77q-5.24-.52-10.32-1.6-7.56-1.61-10.27-1.83-11.02-.9-20.09-1.32c-4.16-.19-9.1.45-13.12 2.26a2.46 2.45 80 0 0-1.45 2.08c-.23 3.36-.14 7.34.63 11.38 2.87 15.05 4.98 28.13 9.84 40.39q1.27 3.2 6.38 14.6 1.1 2.46 3.6 10.15 1.11 3.41 5.49 11.55 2.3 4.27 4.61 9.77 4.71 11.19 12.6 21.5 1.16 1.51 1.7 4.35-14.39-19.96-18.59-27.72-5.19-9.58-8.95-16.25c-8.43-14.91-15.08-31.12-20.08-45.7q-5.29-15.43-6.7-33.84c-.24-3.23.87-8.98 4.11-11 4.78-2.98 18.12-.84 24.24.37q19.15 3.82 36.37 10.86M731.83 429.01q3.68-7.82 7.94-15.16 2.3-3.95 9.21-22.51 4.5-12.07 11.36-35.48 7.34-25.07 7.43-48.02c.02-4.73-.26-9-1.12-13.28q-1.17-5.86-8.24-10.45-11.46-7.45-23.19-9.32-18.38-2.92-34.74-.16c-16.94 2.86-36.42 6.82-45.99 8.25q-5.9.88-10.15 1.88-1.92.46-2.97.5-2.72.1-2.13-1.18c13.27-2.3 24.8-5.83 37.47-10.12q13.5-4.58 19.68-5.81 14.47-2.89 23.24-3.52c18.97-1.36 41.96 4.31 54.09 20.21 4.46 5.85 4.14 12.76 4.15 21.51q.01 12.99-2.41 23.13c-1.94 8.14-4.66 18.94-8.14 28.84q-8.63 24.59-23.92 52.34-6.23 11.31-11.57 18.35"/><path fill="#ca3028" d="M517.03 269.91c5.44 1.21 11.11 2.8 16.29 3.6q10.77 1.66 14.74 2.75 11.3 3.11 20.44 4.44.54.08 9.91 1.93 3.52.69 2.93-.63 24.29 5 49.12 3.11-.71.18-.59.75a.52.51-4.3 0 0 .48.41c11.53.48 20.75 8.53 25.43 18.71q9.26 20.14 9.17 43.02c-.03 8.78-.41 15.46.42 22a.93.92-80.5 0 0 .51.72q10.36 4.99 14.49 6.11 12.98 3.49 25.97 7.42-7.42 16.49-16.97 31.98a.81.81 0 0 1-1.25.16q-12.89-12.67-24.15-26.29-11.54-13.95-11.92-14.34-1.2-1.22-2.52-3.54a.41.41 0 0 1 .47-.59l9.71 2.9a.37.36 87.8 0 0 .44-.48c-1.08-2.8-2.17-4.34-4.3-7.42q-5.85-8.48-14.86-13.5a.43.43 0 0 1 .21-.8h2.83a.8.8 0 0 0 .6-1.32l-2.89-3.34a3.21 3.08-1.2 0 0-.49-.45q-9.03-6.22-16.48-8.04-5.71-1.39-15.2-1.3c-5.78.05-10.74.38-16.02 1.96q-1.47.45-3.1-.11a2.2 2.18 75 0 1-.72-.42q-22.09-19.86-51-26.45l.68-.12a.54.54 0 0 0 .34-.86q-8.31-10.7-10.57-15.07-7.36-14.21-11.76-22.28-.98-1.8-.39-4.62"/><path fill="#e63e32" d="M263.68 275.77q9.37 3 19.15 6.37 16.2 5.6 33.1 7.23 2.77 1.57 3.25 4.43 3.5 20.88 9.92 38.63 6.48 17.9 18.44 39.46c3.68 6.63 8.52 13.54 12.91 20.6a1.04 1.04 0 0 1 .08.94l-3.19 7.62-11.8 12.72q-4.18-2.33-7.52-5.53-13.07-12.53-23.76-27.32-6.73-9.32-14.38-22.28c-10.74-18.2-18.45-37.48-25.34-55.14a.31.31 0 0 0-.6.08q-.46 4.32.02 9.73.72 8.13 1.58 16.17c1.24 11.61 5.64 24.57 8.75 36.69q1.1 4.28 3.2 6.93 3.1 13.49 7.82 23.84c8.26 18.16 17.57 33.98 29.98 48.55a2.45 2.44-62.7 0 1 .58 1.83c-.44 4.61-.6 9.17.72 13.75 2.22 7.69 6.15 13.91 10.7 21.08q5.3 8.35 11.24 16.33.79 1.05 2.1 2.19a.93.93 0 0 0 1.5-.43l2.13-7.14a.43.43 0 0 1 .78-.09q5.09 8.82 7.49 18.8a.43.43 0 0 1-.66.46q-1.5-1.02-3-2.4-4.3-3.94-9.54-8.22-.21-.16-11.28-9.54-5.75-4.86-10.1-9.14-13.55-13.34-16.86-16.59C300.52 456 290.13 444 279.41 432.09q-10.28-11.43-26.13-33.04-.54-2.84-1.7-4.35-7.89-10.31-12.6-21.5-2.31-5.5-4.61-9.77-4.38-8.14-5.49-11.55-2.5-7.69-3.6-10.15-5.11-11.4-6.38-14.6c-4.86-12.26-6.97-25.34-9.84-40.39-.77-4.04-.86-8.02-.63-11.38a2.46 2.45 80 0 1 1.45-2.08c4.02-1.81 8.96-2.45 13.12-2.26q9.07.42 20.09 1.32 2.71.22 10.27 1.83 5.08 1.08 10.32 1.6M731.83 429.01q-5.56 9.59-9.29 14.53-10.31 13.67-20.87 27.64a.46.46 0 0 1-.8-.14l-.02-.08a1.97 1.95 50.9 0 1 .15-1.53c9.03-16.48 3.98-31.7-6.74-45.66a1.41 1.4 41.6 0 1-.1-1.58c13.51-23.02 23.74-49.13 27.03-75.5a.24.24 0 0 0-.19-.26.25.24 13.1 0 0-.28.17q-5.6 19.42-14.38 37.65-12.99-3.93-25.97-7.42-4.13-1.12-14.49-6.11a.93.92-80.5 0 1-.51-.72c-.83-6.54-.45-13.22-.42-22q.09-22.88-9.17-43.02c-4.68-10.18-13.9-18.23-25.43-18.71a.52.51-4.3 0 1-.48-.41q-.12-.57.59-.75l8.78-1.03q-.59 1.28 2.13 1.18 1.05-.04 2.97-.5 4.25-1 10.15-1.88c9.57-1.43 29.05-5.39 45.99-8.25q16.36-2.76 34.74.16 11.73 1.87 23.19 9.32 7.07 4.59 8.24 10.45c.86 4.28 1.14 8.55 1.12 13.28q-.09 22.95-7.43 48.02-6.86 23.41-11.36 35.48-6.91 18.56-9.21 22.51-4.26 7.34-7.94 15.16"/><path fill="#ca3028" d="M357.96 284.18q1.94 2.75 2.3 3.85 2.64 7.99 5.63 15.85 8.84 23.18 22.99 43.86l-2.97 3.11a.91.9 25.2 0 0 .55 1.52l1.99.23a.58.58 0 0 1 .23 1.08q-12 7.2-17.65 19.82a.8.79-87.3 0 0 .98 1.08q4.45-1.52 7.26-2.18.49-.12.67-.02a.73.69 33.4 0 1 .25 1.08l-22.85 27.59 3.19-7.62a1.04 1.04 0 0 0-.08-.94c-4.39-7.06-9.23-13.97-12.91-20.6q-11.96-21.56-18.44-39.46-6.42-17.75-9.92-38.63-.48-2.86-3.25-4.43 15.73 1.19 30.53-4.06-.18.34.01.61.26.36.69.27 5.41-1.15 10.8-2.01M345.54 413.77q-10.32 10.5-16.84 23.39a.51.5 34.7 0 1-.79.14q-2.24-2.07-4.16-4.55-21.24-27.59-36.26-59.65-2.1-2.65-3.2-6.93c-3.11-12.12-7.51-25.08-8.75-36.69q-.86-8.04-1.58-16.17-.48-5.41-.02-9.73a.31.31 0 0 1 .6-.08c6.89 17.66 14.6 36.94 25.34 55.14q7.65 12.96 14.38 22.28 10.69 14.79 23.76 27.32 3.34 3.2 7.52 5.53"/><path fill="#f8dd93" d="m599.64 353.25 1.43 1.62a.42.42 0 0 1-.52.65c-4.28-2.34-8.36-5.69-12.23-7.87-4.4-2.48-13.31-7.25-20.21-11.15-8.52-4.82-19.13-7.7-26.1-9.52-15.73-4.09-33.24-5.16-49.22-1.21q-10.94 2.7-15.3 3.88-6.38 1.73-13.43 5.49c-8.58 4.58-14.29 8.13-22.97 13.15q-6.07 3.51-11.28 7.5-.41.31-.97.05a.37.37 0 0 1-.15-.57l1.45-1.92q5.59-4.67 11.17-9.02 19.72-15.38 42.37-22.68 11.43-3.68 27.33-4.32 26.74-1.08 50.84 10.64c8.24 4.01 15.7 8.07 22.92 13.52q7.5 5.66 14.87 11.76"/><path fill="#060302" d="M798.46 388.73q-9.86 26.76-29.81 48.67-3.48 3.83-7.4 7.21a.11.11 0 0 1-.16-.15c13.19-17.42 23.56-37.35 31.17-58.01 7.6-20.66 12.64-42.56 13.9-64.37a.11.11 0 0 1 .21-.01q.8 5.12.97 10.29.97 29.61-8.88 56.37"/><path fill="#eeae4b" d="M599.64 353.25q-.38-1.76-1.55-3.35 6.04-.4 12.13-1.16c5.81-.73 10.08-.35 15.24.34a.89.88-58.1 0 1 .37 1.61q-2.58 1.76-4.05 3.71a.84.83-65.2 0 0 .48 1.32l7.59 1.7a1.4 1.31 65.3 0 1 .27.11l8.42 4.6a1.04 1.03-76 0 1 .53.89q.01.67-.31 1.42l-8.7 1.2a.33.33 0 0 0-.02.66l5.73 1.13q-1.83.88 2.49 2.82.94.42.86 2.14a2.08 2.06 33.4 0 0 .21.99l2.4 4.87a1.35 1.35 0 0 0 .43.51c1.44 1.05 2.51 3.41 4.08 6.24q1.79 3.23 3.38 5.21c4.28 5.31 9.63 12.63 12.82 17.09 4.66 6.52 11.33 13.04 16.59 17.89q3.01 2.78 4.9 5.44 6.09 8.58 8.12 14.86 3.57 11.02-1.08 22.26-.31-8.49-3.46-15.53-.39-.86-.85-1.12a1.18 1.16 20.4 0 0-1.7.76c-1.52 6.75-5.39 11.97-10.66 17.42q-3.75 3.88-6.42 7.95a.19.19 0 0 1-.35-.1q.03-11.21-6.98-19.9a.4.4 0 0 0-.7.36q.59 2.2.72 4.18.59 9.01-1.19 21.7c-.99 7.04-1.77 14.13-1.38 21.38q.35 6.56.66 13.15.07 1.5-.25 2.66a.57.57 0 0 1-.94.25q-4-3.84-6.76-6.6c-10.16-10.18-17.67-27.41-18.37-41.29-.63-12.44 1.41-30.17.81-44.28q-.62-14.49-5.76-28.67-3.3-9.09-9.95-17.54-.54-.68-6.27-7.95-1.45-1.84-4.29-1.85a.47.47 0 0 0-.46.39q-.09.55.37.61l.8 1.7.04 2.55a2.43 2.41-56.7 0 0 .19.94q2.56 6.29 3.96 13.05 3.92 19.04 1.57 39.18-.88 7.52-1.05 9.98c-.53 7.38-2.33 16.05-3.19 22.39q-1.67 12.2-.91 28.49c.49 10.42-4.61 21.42-10.8 29.63-4.42 5.88-10.34 9.52-16.1 14.35q-3.22 2.7-8.37 5.56-5.96 3.31-12.35 6.48l.8-6.18a.27.27 0 0 0-.52-.11c-5.08 18.11-14.58 36.12-34.45 40.7q-12.14 2.8-25.22-.7c-18.3-4.89-26.25-23.67-31.56-39.91a.3.3 0 0 0-.59.13l.78 6.86q-6.98-3.91-13.61-7.89c-5.49-3.29-9.58-6.63-15.13-10.75q-8.95-6.65-13.5-16.25c-3.03-6.38-5.41-13.04-5.36-19.43.1-11.08.67-18.34-.57-28.09q-1.61-12.76-3.69-26.86-1.62-10.96-2.27-20.42c-.71-10.42 1.08-17.38 3.09-28.36a11.84 11.72-29.8 0 1 .51-1.84q2.13-5.64 2.57-11.58 1.93-2.87 1.61-4.53l-2.87.98a1.94 1.93-78.2 0 0-.79.52q-16.28 17.74-21.07 40.84-.82 3.91-1.05 9.12-.82 18 .3 34.59c1.65 24.38-5.07 46.16-24.85 61.23a.4.4 0 0 1-.64-.37q1.87-16.06-.36-32.11c-.98-7.11-1.55-13.29-1.72-20.36q-.13-5.24.94-10.05a.33.33 0 0 0-.58-.28q-7.26 8.9-7.37 20.57a.23.23 0 0 1-.42.13c-3.78-5.57-8.68-10.5-12.09-15.02q-3.49-4.62-5.42-11.72a.8.79 53.9 0 0-1.43-.23q-5.05 7.75-3.69 17.71-1.37-4.14-2.43-12.05-.88-6.49 1.32-12.09 1.95-4.99 9.17-15.52 2.45-3.58 8.71-8.78 2.73-2.27 4.16-3.96 3.4-3.99 3.75-4.36 3.23-3.36 5.34-6.72c2.75-4.37 4.96-6.74 7.29-10.66 2.68-4.51 6.27-8.49 8.82-12.89q2.91-5.03 3.78-5.97.79-.85 1.58-3.44.76-2.47 3.55-3.45a.43.41 53.1 0 0 .08-.73q-.27-.21-.68-.09l5.7-1.13a.4.4 0 0 0 .03-.77q-5.04-1.41-11.03-.65 1.78-2.78 3.01-3.38 9.58-4.64 9.94-4.77 2.99-1.09 5.84-1.26a.99.99 0 0 0 .51-1.8l-3.89-2.78a.84.84 0 0 1 .37-1.52q3.56-.53 10.46-1.16c5.6-.5 10.14 1.08 15.17 2.43q-1.34 1.89-.77 2.48l-1.45 1.92a.37.37 0 0 0 .15.57q.56.26.97-.05 5.21-3.99 11.28-7.5c8.68-5.02 14.39-8.57 22.97-13.15q7.05-3.76 13.43-5.49 4.36-1.18 15.3-3.88c15.98-3.95 33.49-2.88 49.22 1.21 6.97 1.82 17.58 4.7 26.1 9.52 6.9 3.9 15.81 8.67 20.21 11.15 3.87 2.18 7.95 5.53 12.23 7.87a.42.42 0 0 0 .52-.65zm-166.83 81.38q3.83 5.71 8.4 8.69 5.46 1.54 10.91 1.18 3.79.89 8.69.76 2.98-.07 6.01-.3l7.96-.37a.84.84 0 0 0 .76-.56l1.78-5.02q1.24-.28 1.51-.09a1.26 1.26 0 0 0 1.91-.54q3.52-8.65 5.02-16.71c2.61-13.99-1.73-29.8-13.91-38.05-8.86-6-22.71-5.45-31.43.8q-5.62 4.03-10.47 10.78c-2.28 3.19-4.26 8.78-4.54 12.22q-1.32 16.15 7.4 27.21m120.5 7.45q.29 3.07 2.66 2.66 10.91 1.89 21.7-.1 1.35 1 3.65-.3a1.48 1.47-56.3 0 1 .92-.19q3.77.43 6.21-1.29.38.49.84.16 4.48-3.24 7.46-8.95 7.15-9.64 7.1-22.31c-.04-12.24-7.02-21.47-16.98-27.91q-7.46-4.83-16.82-4.23c-15.63.99-26.34 15.75-26.46 30.76q-.06 7.64.74 11.64c1.22 6.16 2.29 11.6 4.48 16.5a1.5 1.5 0 0 0 .73.73q2.04.91 3.77 2.83m-76.82 2.44c-3.55 3.69-6.39 9.87-7.41 14.91a.26.26 0 0 0 .47.19q4.25-6.77 9.7-12.44 5.44-5.66 12.04-10.18a.26.26 0 0 0-.21-.47c-5 1.22-11.05 4.31-14.59 7.99m76.52.13c-3.5-3.63-9.49-6.66-14.42-7.84a.26.25 69 0 0-.21.46q6.52 4.44 11.91 10.01t9.61 12.24a.26.25 23 0 0 .46-.19c-1.02-4.97-3.84-11.06-7.35-14.68m38.08 44.28q-2.86-9.28-12.3-9.72-6.35-.3-10.29 4.51a.41.41 0 0 0 .31.67h6.51a.79.78 6.2 0 1 .77.95c-3.7 16.96-15.34 38.24-36.54 33.03q-11.52-2.83-20.72-11.32a2.98 2.96-68.7 0 1-.95-2.18v-8.06a.82.82 0 0 1 .61-.79q9.37-2.39 16.57-8.41c7.04-5.89 13.73-15.66 12.23-25.15-1.04-6.56-8.45-11.01-14.39-12.63-9.62-2.64-20.35-2.87-30.46-1.42-9.67 1.39-20.23 5.96-20.4 16.86q-.1 5.62 2.93 10.96c5.81 10.22 14.89 16.59 26.4 20.05a.79.78 8.5 0 1 .56.75v8.8a1.24 1.24 0 0 1-.42.93c-8.15 7.3-20.43 14.56-31.77 12.19-15.47-3.22-23.04-19.69-26.68-33.39a.83.83 0 0 1 .8-1.04h6.06a.66.65 67.5 0 0 .46-1.12c-7.16-7.25-18.12-4.85-21.62 4.74a.47.47 0 0 0 .61.61l8.02-2.96a.97.97 0 0 1 1.3.83q1.36 16.03 11.59 28.44 7.37 8.94 18.39 10.77a1.2 1.19-.7 0 1 .97.94c3.86 19.35 12.47 42.35 36.46 41.72 23.32-.62 31.25-22.6 35.06-41.41a2.51 2.49-.4 0 1 1.95-1.96c8.66-1.79 14.63-7.04 19.49-14.7q7.36-11.59 8.4-24.29a.71.71 0 0 1 .99-.59l8.64 3.8a.34.34 0 0 0 .46-.41"/><path fill="#f8dd93" d="M638.76 364.44q.32-.75.31-1.42a1.04 1.03-76 0 0-.53-.89l-8.42-4.6a1.4 1.31 65.3 0 0-.27-.11l-7.59-1.7a.84.83-65.2 0 1-.48-1.32q1.47-1.95 4.05-3.71a.89.88-58.1 0 0-.37-1.61c-5.16-.69-9.43-1.07-15.24-.34q-6.09.76-12.13 1.16l-2.8-4.69a.37.37 0 0 1 .27-.56c12.19-1.77 26.44-1.43 37.71 4.1a.44.43 42.9 0 1 .03.77l-4.79 2.77a.63.62 36.8 0 0 .17 1.15c8.03 1.96 13.6 6.39 19.43 11.99a.29.29 0 0 1-.24.5zM430.91 350.87c-5.03-1.35-9.57-2.93-15.17-2.43q-6.9.63-10.46 1.16a.84.84 0 0 0-.37 1.52l3.89 2.78a.99.99 0 0 1-.51 1.8q-2.85.17-5.84 1.26-.36.13-9.94 4.77-1.23.6-3.01 3.38l-6.83 1.11a.31.3-72.9 0 1-.27-.51q8.1-8.69 19.3-12.18a.56.55-38.5 0 0 .12-1.01l-4.63-2.68a.57.57 0 0 1 0-.99c10.1-5.72 25.67-5.7 36.82-4.24a.42.42 0 0 1 .3.63z"/><path fill="#060302" d="M202.86 361.92q10.05 36.53 30.94 70.99 17.81 29.38 41.85 51.72a.24.24 0 0 1 .03.33l-.01.01a.29.29 0 0 1-.39.06q-22.13-15.42-38.1-35.73c-10.07-12.81-18.04-27.95-23.48-43.19-5.13-14.34-9.15-29.28-10.98-44.16a.07.07 0 0 1 .14-.03M815.83 393.2c-3.4 10.01-9.55 19.41-17.98 25.91a.24.24 0 0 1-.36-.31q7.91-13.48 12.67-27.52t6.68-29.55a.24.24 0 0 1 .47-.03c2.74 10.28 1.91 21.49-1.48 31.5"/><path fill="#f8dd93" d="m635.77 367.43 5.61 1.62a1.34 1.31 81.6 0 1 .75.57q16.8 27.08 39.15 49.77c2.29 2.32 4.68 5.3 6.94 7.94q7.14 8.41 9.64 17.1 2.22 7.7-.57 16.25-3.63 11.18-10.62 21.25-.15-2.02.79-4.12 1.21-2.71 1.51-3.9.85-3.28 2-6.16 4.65-11.24 1.08-22.26-2.03-6.28-8.12-14.86-1.89-2.66-4.9-5.44c-5.26-4.85-11.93-11.37-16.59-17.89-3.19-4.46-8.54-11.78-12.82-17.09q-1.59-1.98-3.38-5.21c-1.57-2.83-2.64-5.19-4.08-6.24a1.35 1.35 0 0 1-.43-.51l-2.4-4.87a2.08 2.06 33.4 0 1-.21-.99q.08-1.72-.86-2.14-4.32-1.94-2.49-2.82M394.8 367.66q.41-.12.68.09a.43.41 53.1 0 1-.08.73q-2.79.98-3.55 3.45-.79 2.59-1.58 3.44-.87.94-3.78 5.97c-2.55 4.4-6.14 8.38-8.82 12.89-2.33 3.92-4.54 6.29-7.29 10.66q-2.11 3.36-5.34 6.72-.35.37-3.75 4.36-1.43 1.69-4.16 3.96-6.26 5.2-8.71 8.78-7.22 10.53-9.17 15.52-2.2 5.6-1.32 12.09 1.06 7.91 2.43 12.05 1.21 6.02 4.29 11.45 1.18 2.07-.31 2.02c-5.95-8.73-11.58-20.07-11.67-30-.12-14.25 11.06-26.31 20.35-36.05q19.8-20.75 34.68-45.08a2.21 2.16-89 0 1 .73-.72q2.93-1.77 6.37-2.33"/><path fill="#d88936" d="M423.47 372.82q-17.76 20.18-19.36 45.7-1.25 19.81 2.15 41.73 1.35 8.65.49 21.99c-1.35 21.28-14.18 41.61-35.63 47.22a.66.66 0 0 1-.81-.76q1.82-9.96-1.94-20.24-6.07-16.6-16.96-31.18a.11.1 26.9 0 0-.19.06q.18 6.4-1.12 12.66a.32.32 0 0 1-.58.1l-5.18-8.26q1.49.05.31-2.02-3.08-5.43-4.29-11.45-1.36-9.96 3.69-17.71a.8.79 53.9 0 1 1.43.23q1.93 7.1 5.42 11.72c3.41 4.52 8.31 9.45 12.09 15.02a.23.23 0 0 0 .42-.13q.11-11.67 7.37-20.57a.33.33 0 0 1 .58.28q-1.07 4.81-.94 10.05c.17 7.07.74 13.25 1.72 20.36q2.23 16.05.36 32.11a.4.4 0 0 0 .64.37c19.78-15.07 26.5-36.85 24.85-61.23q-1.12-16.59-.3-34.59.23-5.21 1.05-9.12 4.79-23.1 21.07-40.84a1.94 1.93-78.2 0 1 .79-.52zM690.97 467.75q-1.15 2.88-2 6.16-.3 1.19-1.51 3.9-.94 2.1-.79 4.12l-4.93 7.89a.37.37 0 0 1-.68-.16l-1.34-12.89a.08.08 0 0 0-.15-.03q-1.03 1.64-7.38 12.2-3.98 6.61-8.36 17.88-4.14 10.66-2.57 22.39a.42.42 0 0 1-.46.47q-4.01-.43-7.76-2.23-15.02-7.22-22.74-22.52c-6.74-13.35-7.93-28.42-6.01-43.71q1.33-10.64 2.22-20.21 1.84-19.83-3.36-38.87-4.52-16.57-15.92-28.7a.23.22 44.2 0 0-.33 0q-.13.13-.11.29-.46-.06-.37-.61a.47.47 0 0 1 .46-.39q2.84.01 4.29 1.85 5.73 7.27 6.27 7.95 6.65 8.45 9.95 17.54 5.14 14.18 5.76 28.67c.6 14.11-1.44 31.84-.81 44.28.7 13.88 8.21 31.11 18.37 41.29q2.76 2.76 6.76 6.6a.57.57 0 0 0 .94-.25q.32-1.16.25-2.66-.31-6.59-.66-13.15c-.39-7.25.39-14.34 1.38-21.38q1.78-12.69 1.19-21.7-.13-1.98-.72-4.18a.4.4 0 0 1 .7-.36q7.01 8.69 6.98 19.9a.19.19 0 0 0 .35.1q2.67-4.07 6.42-7.95c5.27-5.45 9.14-10.67 10.66-17.42a1.18 1.16 20.4 0 1 1.7-.76q.46.26.85 1.12 3.15 7.04 3.46 15.53"/><path fill="#d88936" d="M560.58 548.03q6.39-3.17 12.35-6.48 5.15-2.86 8.37-5.56c5.76-4.83 11.68-8.47 16.1-14.35 6.19-8.21 11.29-19.21 10.8-29.63q-.76-16.29.91-28.49c.86-6.34 2.66-15.01 3.19-22.39q.17-2.46 1.05-9.98 2.35-20.14-1.57-39.18-1.4-6.76-3.96-13.05a2.43 2.41-56.7 0 1-.19-.94l-.04-2.55q2.65 4.51 6.3 14.38 5.49 14.8 5.94 28.5.5 15-.59 25.19-1.11 10.25-2.54 23-2.03 17.95 4.05 34.52a3.69 3.68 49.4 0 1-.23 3.05c-7.95 14.59-19.51 28.43-32.47 37.49q-5.53 3.87-12.79 8.47c-6.27 3.97-12.15 8.33-17.62 12.5a.26.26 0 0 1-.41-.3q2.59-7.15 3.35-14.2M469.82 548.82l3.79 13.09a.26.26 0 0 1-.41.27c-6.05-5.06-11.4-8.49-19.37-13.31q-8.18-4.95-15.63-10.68c-11.61-8.91-21.18-21.36-28.09-33.98a2.52 2.51-49.9 0 1-.17-2.04q4.99-14.54 4.41-29.93-.17-4.58-2.48-22.71c-1.83-14.35-2.48-30.03.24-43.91q2.86-14.62 9.75-28.27-.44 5.94-2.57 11.58a11.84 11.72-29.8 0 0-.51 1.84c-2.01 10.98-3.8 17.94-3.09 28.36q.65 9.46 2.27 20.42 2.08 14.1 3.69 26.86c1.24 9.75.67 17.01.57 28.09-.05 6.39 2.33 13.05 5.36 19.43q4.55 9.6 13.5 16.25c5.55 4.12 9.64 7.46 15.13 10.75q6.63 3.98 13.61 7.89"/><path fill="#060302" d="M202.25 413.35q6.64 14.96 12.11 23.58 3.48 5.49 5.36 8.49a.15.15 0 0 1-.23.2q-15.58-13.13-22.95-29.73t-6.66-36.97a.15.15 0 0 1 .3-.04q.97 3.41 2.7 9.67 2.72 9.84 9.37 24.8"/><path fill="#d88936" d="M477.32 439.01c3.27-11.11 4.76-25.82-3.72-35.24-5.13-5.7-10.54-8.35-18.37-7.89-12.17.7-21.54 11.13-23.51 22.6q-1.21 7.04 1.09 16.15-8.72-11.06-7.4-27.21c.28-3.44 2.26-9.03 4.54-12.22q4.85-6.75 10.47-10.78c8.72-6.25 22.57-6.8 31.43-.8 12.18 8.25 16.52 24.06 13.91 38.05q-1.5 8.06-5.02 16.71a1.26 1.26 0 0 1-1.91.54q-.27-.19-1.51.09M596.75 434.07q1.44-6.31 1.16-12.3-.32-6.95-3.13-11.8c-8.96-15.49-30.69-20.13-41.02-2.93q-4.42 7.36-4.13 16.2.28 8.36 1.59 12.02 1.14 3.22 2.09 6.82-1.73-1.92-3.77-2.83a1.5 1.5 0 0 1-.73-.73c-2.19-4.9-3.26-10.34-4.48-16.5q-.8-4-.74-11.64c.12-15.01 10.83-29.77 26.46-30.76q9.36-.6 16.82 4.23c9.96 6.44 16.94 15.67 16.98 27.91q.05 12.67-7.1 22.31"/><path fill="#060302" d="m477.32 439.01-1.78 5.02a.84.84 0 0 1-.76.56l-7.96.37-4.54-.39a.37.05 8 0 0-.07-.02c-7.44-1.77-11.7-6.41-12.74-13.76q-.66-4.68-.43-6.02 2.5-14.39 17.05-15.19a1.02.95 47 0 1 .14.01l6.6 1.23a.32.31-7.2 0 0 .35-.44q-.8-1.72-2.2-2.73c-7.13-7.95-18.82-6.65-26.19.14q-5.96 5.49-7.75 13.42-2.69 11.88 4.17 22.11-4.57-2.98-8.4-8.69-2.3-9.11-1.09-16.15c1.97-11.47 11.34-21.9 23.51-22.6 7.83-.46 13.24 2.19 18.37 7.89 8.48 9.42 6.99 24.13 3.72 35.24m-4.96-20.83a5.9 5.9 0 0 0-5.9-5.9 5.9 5.9 0 0 0-5.9 5.9 5.9 5.9 0 0 0 5.9 5.9 5.9 5.9 0 0 0 5.9-5.9m-19.421 11.655a3.02 2.78-123.6 0 0-.644 4.053 3.02 2.78-123.6 0 0 3.986.977 3.02 2.78-123.6 0 0 .644-4.053 3.02 2.78-123.6 0 0-3.986-.977M596.75 434.07q-2.98 5.71-7.46 8.95-.46.33-.84-.16c7.98-9.99 6.06-24.31-2.08-33.18-7.25-7.89-19.77-10.27-27.75-1.9q-1.25 1.03-1.76 2.48a.68.68 0 0 0 .83.88q6.48-1.86 12.19.12c10.1 3.52 10.95 11.77 10.03 21.29-.48 5.08-3.95 8.58-8.12 10.89q-2.06 1.15-5.81 1.18-4.97.05-10.01.12-2.37.41-2.66-2.66-.95-3.6-2.09-6.82-1.31-3.66-1.59-12.02-.29-8.84 4.13-16.2c10.33-17.2 32.06-12.56 41.02 2.93q2.81 4.85 3.13 11.8.28 5.99-1.16 12.3M569 418.69a5.79 5.79 0 0 0-5.79-5.79 5.79 5.79 0 0 0-5.79 5.79 5.79 5.79 0 0 0 5.79 5.79 5.79 5.79 0 0 0 5.79-5.79m9.03 13.99a2.76 2.76 0 0 0-2.76-2.76 2.76 2.76 0 0 0-2.76 2.76 2.76 2.76 0 0 0 2.76 2.76 2.76 2.76 0 0 0 2.76-2.76"/><path fill="#fdfdfd" d="M470.98 407.65q-8.68-3.11-15.67.39-12.97 6.5-11.9 21.71.62 8.68 8.71 14.75-5.45.36-10.91-1.18-6.86-10.23-4.17-22.11 1.79-7.93 7.75-13.42c7.37-6.79 19.06-8.09 26.19-.14M588.45 442.86q-2.44 1.72-6.21 1.29a1.48 1.47-56.3 0 0-.92.19q-2.3 1.3-3.65.3c7.87-5.65 10.42-15.48 7.23-24.03q-5.15-13.84-20.13-13.8c-1.91.01-4.07.67-6.15.97 7.98-8.37 20.5-5.99 27.75 1.9 8.14 8.87 10.06 23.19 2.08 33.18"/><path fill="#753f18" d="M470.98 407.65q1.4 1.01 2.2 2.73a.32.31-7.2 0 1-.35.44l-6.6-1.23a1.02.95 47 0 0-.14-.01q-14.55.8-17.05 15.19-.23 1.34.43 6.02c1.04 7.35 5.3 11.99 12.74 13.76a.37.05 8 0 1 .07.02l4.54.39q-3.03.23-6.01.3-4.9.13-8.69-.76-8.09-6.07-8.71-14.75-1.07-15.21 11.9-21.71 6.99-3.5 15.67-.39M577.67 444.64q-10.79 1.99-21.7.1 5.04-.07 10.01-.12 3.75-.03 5.81-1.18c4.17-2.31 7.64-5.81 8.12-10.89.92-9.52.07-17.77-10.03-21.29q-5.71-1.98-12.19-.12a.68.68 0 0 1-.83-.88q.51-1.45 1.76-2.48c2.08-.3 4.24-.96 6.15-.97q14.98-.04 20.13 13.8c3.19 8.55.64 18.38-7.23 24.03"/><circle cx="466.46" cy="418.18" r="5.9" fill="#fdfdfd"/><circle cx="563.21" cy="418.69" r="5.79" fill="#fdfdfd"/><ellipse fill="#fdfdfd" rx="3.02" ry="2.78" transform="rotate(236.4 343.217 94.295)"/><circle cx="575.27" cy="432.68" r="2.76" fill="#fdfdfd"/><path fill="#060302" d="M479.25 447.18q-5.45 5.67-9.7 12.44a.26.26 0 0 1-.47-.19c1.02-5.04 3.86-11.22 7.41-14.91 3.54-3.68 9.59-6.77 14.59-7.99a.26.26 0 0 1 .21.47q-6.6 4.52-12.04 10.18M553.01 444.65c3.51 3.62 6.33 9.71 7.35 14.68a.26.25 23 0 1-.46.19q-4.22-6.67-9.61-12.24t-11.91-10.01a.26.25 69 0 1 .21-.46c4.93 1.18 10.92 4.21 14.42 7.84M591.09 488.93a.34.34 0 0 1-.46.41l-8.64-3.8a.71.71 0 0 0-.99.59q-1.04 12.7-8.4 24.29c-4.86 7.66-10.83 12.91-19.49 14.7a2.51 2.49-.4 0 0-1.95 1.96c-3.81 18.81-11.74 40.79-35.06 41.41-23.99.63-32.6-22.37-36.46-41.72a1.2 1.19-.7 0 0-.97-.94q-11.02-1.83-18.39-10.77-10.23-12.41-11.59-28.44a.97.97 0 0 0-1.3-.83l-8.02 2.96a.47.47 0 0 1-.61-.61c3.5-9.59 14.46-11.99 21.62-4.74a.66.65 67.5 0 1-.46 1.12h-6.06a.83.83 0 0 0-.8 1.04c3.64 13.7 11.21 30.17 26.68 33.39 11.34 2.37 23.62-4.89 31.77-12.19a1.24 1.24 0 0 0 .42-.93v-8.8a.79.78 8.5 0 0-.56-.75c-11.51-3.46-20.59-9.83-26.4-20.05q-3.03-5.34-2.93-10.96c.17-10.9 10.73-15.47 20.4-16.86 10.11-1.45 20.84-1.22 30.46 1.42 5.94 1.62 13.35 6.07 14.39 12.63 1.5 9.49-5.19 19.26-12.23 25.15q-7.2 6.02-16.57 8.41a.82.82 0 0 0-.61.79v8.06a2.98 2.96-68.7 0 0 .95 2.18q9.2 8.49 20.72 11.32c21.2 5.21 32.84-16.07 36.54-33.03a.79.78 6.2 0 0-.77-.95h-6.51a.41.41 0 0 1-.31-.67q3.94-4.81 10.29-4.51 9.44.44 12.3 9.72m-76.44-27.01c6.25-.02 13.26.06 19.29-2.29a.87.87 0 0 0 .27-1.45c-4.04-3.76-14.16-4.15-19.59-4.13s-15.54.47-19.56 4.26a.87.87 0 0 0 .28 1.45c6.05 2.32 13.06 2.18 19.31 2.16m27.25 76.39c-6.08-5.13-14.46-6.67-22-4.18-1.2.4-2.83 1.59-3.92 2.12a.97.96 46.5 0 1-.93-.03q-1.16-.68-4.26-1.75-11.18-3.87-20.89 3.87a2.34 2.34 0 0 0-.77 2.5c2.48 8.11 8.82 16.21 16.96 19.26 9.26 3.47 17.3 1.41 25.17-4.26 5.1-3.69 8.73-10.63 10.89-16.57a.87.86-59.8 0 0-.25-.96"/><path fill="#fdfdfd" d="M514.62 454.05c5.43-.02 15.55.37 19.59 4.13a.87.87 0 0 1-.27 1.45c-6.03 2.35-13.04 2.27-19.29 2.29s-13.26.16-19.31-2.16a.87.87 0 0 1-.28-1.45c4.02-3.79 14.13-4.24 19.56-4.26"/><path fill="#ca3028" d="M673.29 502.73a.68.68 0 0 1-1.18-.67l3.31-7.53a.65.65 0 0 1 1.21.04l.44 1.19a2.23 2.22 52.7 0 1-.28 2.07zM458.46 566.71c-8.68-2.7-14.08-11.01-22.68-14.24q-1.47-.54-3.93-.46-11.31-13.68-23.83-26.28-2.8-2.81-6.53-4.84-.48-.26-.76.22-.12.21 0 .4.66 1.07 4.81 7.09c1.58 2.3 4.27 4.78 6.24 7.29q-5.91-.58-9.94-4.49a2.27 2.24 63.4 0 0-1.82-.62q-5.58.6-10.51 3.09a.83.82-34 0 0-.25 1.28l2.28 2.62-5.92-4.78a.79.79 0 0 1 .07-1.28q12-7.74 19.53-19.79a.86.86 0 0 1 1.47.03l4.45 7.71a.14.11-83 0 0 .03.05q10.1 13.19 24.35 22.53.3.2 8.62 5.37 3.1 1.93 6.87 7.84 3.63 5.7 7.45 11.26M598.41 551.49c-11.39 3.72-22.43 12.02-29.87 21.04q9.56-15.25 12.67-19.81 2.5-3.64 7.63-6.65 11.02-6.47 20.04-14.43 6.31-5.57 9.21-9.83 5.22-7.69 6.39-9.48a1.04 1.04 0 0 1 1.71-.06l3.56 4.8a1.45 1.44-37.2 0 1-.28 2.01q-6.85 5.25-14.41 13.22-9.47 9.97-16.65 19.19"/><path fill="#e63e32" d="M643 530.17q-3 1.76-5.67 3.38c-5.07 3.08-9.57 8.03-13.54 10.92-3.83 2.78-5.97 7.62-10.46 9.96a3.38 3.36-83.4 0 0-.99.79q-4.42 5.11-9.55 9.31c-2.82 2.32-3.94 5.93-6.81 8.4-1.79 1.53-2.53 2.94-4.09 5.06a.51.51 0 0 0 .61.78q.35-.15 1.06-.12-7.73 6.51-13.34 8.6-10.44 3.88-21.81 4.87a.31.31 0 0 1-.3-.46q1-1.9 6.55-12.97 1.08-2.15 3.88-6.16c7.44-9.02 18.48-17.32 29.87-21.04l-15.42 21.45a.11.1 47.9 0 0 0 .13l.2.27a.27.26-41.9 0 0 .41.02c9.34-10.22 22.71-23.33 32.78-35.46q7.14-8.6 14.08-17.31a1.08 1.08 0 0 1 1.67-.03q4.14 4.88 10.87 9.61"/><path fill="#060302" d="m431.85 552.01 15.79 21.34a.09.09 0 0 1-.01.12l-.19.19a.27.27 0 0 1-.39-.01q-9.99-10.98-20.53-21.36c-4.99-4.92-9.92-10.85-14.74-16.4-1.97-2.51-4.66-4.99-6.24-7.29q-4.15-6.02-4.81-7.09-.12-.19 0-.4.28-.48.76-.22 3.73 2.03 6.53 4.84 12.52 12.6 23.83 26.28"/><path fill="#f48479" d="M593.56 578.65q-.71-.03-1.06.12a.51.51 0 0 1-.61-.78c1.56-2.12 2.3-3.53 4.09-5.06 2.87-2.47 3.99-6.08 6.81-8.4q5.13-4.2 9.55-9.31a3.38 3.36-83.4 0 1 .99-.79c4.49-2.34 6.63-7.18 10.46-9.96 3.97-2.89 8.47-7.84 13.54-10.92q2.67-1.62 5.67-3.38.8 1.58-1.9 3.89c-5.58 4.78-10.97 9.86-16.43 14.79-10.78 9.71-20.8 19.79-31.11 29.8"/><path fill="#e63e32" d="M411.78 535.89c4.82 5.55 9.75 11.48 14.74 16.4q10.54 10.38 20.53 21.36a.27.27 0 0 0 .39.01l.19-.19a.09.09 0 0 0 .01-.12l-15.79-21.34q2.46-.08 3.93.46c8.6 3.23 14 11.54 22.68 14.24q6.43 8.77 11.49 18.46a.35.34-6.8 0 1-.39.49q-10.11-2.43-20.86-.26a4.68 4.65-38.4 0 1-2.85-.32c-3.14-1.4-5.76-3.35-8.41-5.92q-17.68-17.09-21.11-20.24-9.14-8.41-24.79-21.15l-2.28-2.62a.83.82-34 0 1 .25-1.28q4.93-2.49 10.51-3.09a2.27 2.24 63.4 0 1 1.82.62q4.03 3.91 9.94 4.49"/><path fill="#f48479" d="M541.9 538.31a.87.86-59.8 0 1 .25.96c-2.16 5.94-5.79 12.88-10.89 16.57-7.87 5.67-15.91 7.73-25.17 4.26-8.14-3.05-14.48-11.15-16.96-19.26a2.34 2.34 0 0 1 .77-2.5q9.71-7.74 20.89-3.87 3.1 1.07 4.26 1.75a.97.96 46.5 0 0 .93.03c1.09-.53 2.72-1.72 3.92-2.12 7.54-2.49 15.92-.95 22 4.18"/><path fill="#f8dd93" d="m394.17 548.63-3.2 8.11-2.72 4.24a1.86 1.81-88.7 0 1-.59.58l-.53.33a1.42 1.39-5.4 0 0-.55.65l-4.13 9.48-5.74 2.69a.37.37 0 0 1-.49-.5c2.83-5.46 5.46-9.17 9.19-14.15 2.89-3.84 4.69-8.16 6.21-12.66a.48.48 0 0 1 .76-.22zM642.8 569.86l-4.91-11.53a.99.98-75.7 0 0-.17-.29l-.65-.79-3.14-7 2.73-2.18a.6.6 0 0 1 .95.27q3.02 8.58 6.12 14.45 4.29 8.11 4.67 8.84a.28.28 0 0 1-.35.38z"/><path fill="#d88936" d="M432.14 591.4q-7.04-4.13-12.77-8.77-12.46-10.07-24.12-21.14-.83-.78-2.96-1.51-1.23-.42-1.45-1.22-.22-.85.13-2.02l3.2-8.11q11.83 10.22 23.65 21.06 7.43 6.8 12.88 12.11 3.73 3.63 8.13 6.27a.21.21 0 0 1-.03.37zM633.93 550.25l3.14 7q-.01 1.18-.3 1.5c-2.22 2.46-5.12 6.02-7.95 8.06-4.15 2.99-7.28 5.85-11.81 8.81q-14.61 9.57-16.84 10.76-3.68 1.94-11.23 4.12 7.73-4.96 11.28-8.53 6.5-6.51 13.25-12.74 10.27-9.46 20.46-18.98"/><path fill="#eeae4b" d="M390.97 556.74q-.35 1.17-.13 2.02.22.8 1.45 1.22 2.13.73 2.96 1.51 11.66 11.07 24.12 21.14 5.73 4.64 12.77 8.77l-9.74 6.52a2.4 2.19-67.6 0 1-.66.31q-5.11 1.53-6.91 2.1-6.99 2.24-13.88 7.31-11.72 8.64-18.36 23.76a.44.44 0 0 0 .71.48l2.16-2.2q3.32-1.44 6.2-3.65 4.86-3.72 5.78-4.32c5.28-3.46 7.49-5.14 13.18-7.58q12.06-5.18 25.12-12.2 5.12-2.75 7.22-3.57 6.06-2.35 7.63-2.54 16.31-2.05 28.43 7.66c7.45 5.96 10.97 14.02 14.01 22.91.24.73.79.83 1.43.55q-.04.3.05.59-.58.34-1.61-.04a.71.7-59.7 0 0-.78.21q-4.24 4.95-10.3 7.55-1.2-17.71-15.49-28.21a.42.42 0 0 0-.61.56c5.03 8.17 9.55 18.79 9.62 28.61q.08.95-.14 1.82a.77.76 13.2 0 1-.91.56q-.22-.05-.35-.05a1.17 1.15 16.6 0 0-1.02.54c-3.77 6-14.67 8.37-20.97 8q-2.77-15.38-15.13-24.72a.28.28 0 0 0-.44.22q-.01.61.41 1.34 5.44 9.48 8.18 20.04-.69 4.63-3.57 8.93a2.2 2.16 6.9 0 1-1.08.83q-10.49 3.68-21.44-.96-4.38-5.14-7.26-11.64a.25.25 0 0 0-.44-.02q-.19.34-.18.9.17 7.09 3.16 13.43-.12.96-.62 1.61c-1.13 1.49-1.23 2.02-1.79 3.59a6.41 6.12-20.5 0 1-.6 1.24q-4.21 6.63-5.32 8.2c-3.99 5.67-12.94 11-19.9 11.21q-7.76.24-12.02-6.93-.51-.87-1.97-.92l-.72-2.73a.77.76 84.9 0 0-.66-.56q-.58-.05-1.43-.02-.77.04-1.12-.85 1.96 0 2.13-1.13c.5-3.41.51-8.94.92-13.27q2.02-21.8 3.23-33.2.62-5.76 1.93-10.23c3.06-10.4 6.72-23.04 11.34-35.6q1.08-2.93.28-5.4-2.38.14-5.39 1.58l4.13-9.48a1.42 1.39-5.4 0 1 .55-.65l.53-.33a1.86 1.81-88.7 0 0 .59-.58z"/><path fill="#eeae4b" d="M642.8 569.86q-3.29-1.3-5.23-1.03-.96-.42-1.58-.24a1.07 1.07 0 0 0-.76 1.19q1.17 8 3.66 12.81 1 1.93 2.71 8.5 1.11 4.24 1.63 8.78c1.71 14.96 2.44 31.42 1.11 47.22q-.58 6.78.25 12.58a.46.46 0 0 1-.88.25q-1.56-3.74-4.58-5.31a.78.77-85.7 0 0-1.09.94c3.05 9.05 4.36 17.72 2.05 26.82-2.08 8.19-2.4 10.72-5.44 18.76-2.6 6.86-4.63 13.14-8.32 19.01q-5.9 9.38-8.22 13.95-3.06 6.02-3.64 9.67-1.44 9.04-3.8 15.23-2.42 6.37-3.88 13.14-1.12 5.23-2.13 8.37c-1.21 3.78-2.71 7.36-3.79 11.27a.35.34-87.1 0 0 .38.43q1.34-.21 2.2-1.17l-.34 1.13q-3.74 1.15-8.96 4.05-1.78.98-4.63.2l.41-5.46a.32.32 0 0 0-.62-.15l-3.98 9.7q-4.77 5.64-9.07 8.3-7.45 4.62-15.78-.14-2.09-1.2-4.01-2.69 4.78-8.3 6.01-17.79a.42.42 0 0 0-.81-.22q-2.85 6.8-8.39 13.05-13.46-12.67-6.7-30.71c1.25-3.32 1.81-4.98 3.18-7.57q9.1-17.2 10.95-22.01c4.71-12.19 8.42-22.21 9.49-34.01q.78-8.51 1.88-16.37.89-6.33 3.75-12.45 3.45-7.36 8.74-14.56 2.63-2.71 5.64-4.38 2.75-1.53 4.46-2.76a.29.29 0 0 0-.09-.52q-.33-.09-5.82 2.11c-13.43 5.38-25.07 15.19-30.51 28.76a.37.36-52.9 0 1-.63.09q-4.24-5.56-6.57-12.07a.31.3 71.5 0 0-.37-.19q-.48.15-.27.83-.22.49-.25 1.05a.55.55 0 0 1-.7.5l-.33-.09a.68.67 29.8 0 0-.67.18q-.62.64-3.31 4.53c-3.73 5.41-10.05 9.92-15.78 12.79a.35.34 88.5 0 1-.47-.45c1.53-3.56 2.79-5.71 2-8.48a.52.52 0 0 0-.92-.16l-14.59 20.45a1.21 1-21 0 0-.13.23l-1.31 3.08a.49.48 43.5 0 1-.88.02q-2.08-4.3-6.2-8.25-1.71-1.65-6.59-8.14c-3.25-4.33-5.89-10.35-8.14-14.8a.35.35 0 0 0-.64.03q-1.46 3.88-.49 8.44a.43.43 0 0 1-.7.42q-5.91-4.96-9.23-10.98c-1.58-2.88-2.91-7.37-4.22-10.98a4.95 4.83-58.3 0 1-.24-1.07l-.23-2.2a.63.63 0 0 0-1.24-.08c-2.1 9.09 1.23 17.71 6.64 25.03a.33.33 0 0 1-.43.48q-8.63-5.25-13.9-13.71-1.6-2.56-4.25-11.6 6.6-1.06 11.96-6.01 1.77-1.64 3.32-3.34a1.68 1.66-71.4 0 1 1.09-.55c15.43-1.26 23.75-13.89 21.47-28.75q-3.35-21.89-22.35-32.8a1.63 1.6 3.5 0 1-.65-.72l-3.62-7.89q8.67 6.1 15.26 13.72a4.78 4.63 87.1 0 0 .73.68q2.72 2 4.5 3.91.87.93 4.99 3.96 9.7 7.14 14.52 19.14a.74.73-44.8 0 0 1.36 0q4.67-11.52 14.79-19.47 14.4-11.29 19.88-15.8.72-.59 2.53-2.99 1.4-1.86 3.18-2.18l-5.94 13.72a.75.75 0 0 0 .64 1.04q21.28 1.53 38.07-6.61 7.55-2.18 11.23-4.12 2.23-1.19 16.84-10.76c4.53-2.96 7.66-5.82 11.81-8.81 2.83-2.04 5.73-5.6 7.95-8.06q.29-.32.3-1.5l.65.79a.99.98-75.7 0 1 .17.29zm-59.39 30.62q1.69 9.78.49 17.77a1.41 1.4 58.8 0 1-.08.33l-2.84 8.49a2.31 2.26-16.2 0 1-.43.76l-.62.75a.5.5 0 0 1-.88-.28q-.49-5.93-4.29-10.28-.31-.35-.69-.33a.65.63-7 0 0-.61.75c1.21 6.37.93 13.04-1.38 19.54q-2.46 6.92-2.53 7.13a.41.41 0 0 0 .36.56q.52.03 1.03-.5 3.63-3.74 6.55-8.4a5.04 4.9-2.8 0 1 1.23-1.32q.11-.08 2.85-2.61 5.81-5.34 6.51-14.05.77-9.66-3.79-18.6a.47.47 0 0 0-.88.29m-32.93 35.06c-.4 2.71-.5 5.87-1.17 8.58q-2.55 10.41-10.96 17.78a.35.35 0 0 1-.58-.32c.2-1.3.88-2.35 1.05-3.89q.85-7.69-1-14.87a.4.4 0 0 0-.68-.17q-.23.25-.24.61-.3 10.91-4.13 21.05-1.37 3.6-3.71 6.85a.43.43 0 0 0 .54.64c7.78-3.72 15.88-8.33 19.48-16.46 1.43-3.23 2.36-4.19 4.84-6.68 3.08-3.08 4.51-6.26 6.34-10.29q4.85-10.68.85-23.08a.37.37 0 0 0-.72.12q.17 10.35-2.86 20c-.92 2.9-2.62 5.86-4 8.13a.38.38 0 0 1-.7-.11l-1.83-7.91a.27.26-47.1 0 0-.52.02"/><path fill="#d88936" d="M556.17 582.35q-1.78.32-3.18 2.18-1.81 2.4-2.53 2.99-5.48 4.51-19.88 15.8-10.12 7.95-14.79 19.47a.74.73-44.8 0 1-1.36 0q-4.82-12-14.52-19.14-4.12-3.03-4.99-3.96-1.78-1.91-4.5-3.91a4.78 4.63 87.1 0 1-.73-.68q-6.59-7.62-15.26-13.72l-12.76-20.93a.35.35 0 0 1 .45-.49q6.22 3.17 13.2 7.75c1.86 1.21 3.52 4.97 5.2 7.18q11.06 14.63 30.72 15.7c16.42.89 31.91-4.02 41.03-18.56q1.48-2.37 3.85-3.9 9.78-6.31 12.57-7.96a.22.22 0 0 1 .29.33q-1.69 2.09-3.85 5.82-4.77 8.19-8.96 16.03"/><path fill="#f8dd93" d="M637.57 568.83q2.97 5.32 5.42 12.66 4.3 12.84 5.94 23.42c2.12 13.78 1.28 28.66.5 43.58q-.22 4.35-.82 9.5c-.92 7.87-.04 15.88.27 22.77a.61.61 0 0 1-.61.63h-2.11a.79.79 0 0 0-.79.75q-1.39 21.83-13.38 40.38-1.64 2.54-9.39 15.08c-4.82 7.81-7.72 19.27-9.94 28.87q-2.98 12.85-9.21 24.56-.86.96-2.2 1.17a.35.34-87.1 0 1-.38-.43c1.08-3.91 2.58-7.49 3.79-11.27q1.01-3.14 2.13-8.37 1.46-6.77 3.88-13.14 2.36-6.19 3.8-15.23.58-3.65 3.64-9.67 2.32-4.57 8.22-13.95c3.69-5.87 5.72-12.15 8.32-19.01 3.04-8.04 3.36-10.57 5.44-18.76 2.31-9.1 1-17.77-2.05-26.82a.78.77-85.7 0 1 1.09-.94q3.02 1.57 4.58 5.31a.46.46 0 0 0 .88-.25q-.83-5.8-.25-12.58c1.33-15.8.6-32.26-1.11-47.22q-.52-4.54-1.63-8.78-1.71-6.57-2.71-8.5-2.49-4.81-3.66-12.81a1.07 1.07 0 0 1 .76-1.19q.62-.18 1.58.24M387.84 570.44q.8 2.47-.28 5.4c-4.62 12.56-8.28 25.2-11.34 35.6q-1.31 4.47-1.93 10.23-1.21 11.4-3.23 33.2c-.41 4.33-.42 9.86-.92 13.27q-.17 1.13-2.13 1.13c.19-14.83-.12-31.09 1.86-44.62 2.69-18.4 8.39-38.07 17.97-54.21M494.46 626.94c-.64.28-1.19.18-1.43-.55-3.04-8.89-6.56-16.95-14.01-22.91q-12.12-9.71-28.43-7.66-1.57.19-7.63 2.54-2.1.82-7.22 3.57-13.06 7.02-25.12 12.2c-5.69 2.44-7.9 4.12-13.18 7.58q-.92.6-5.78 4.32-2.88 2.21-6.2 3.65c6.44-8.19 16.98-17.92 26.59-21.63a.26.26 0 0 1 .31.4l-1.4 1.96a.51.51 0 0 0 .6.78c2.57-.98 4.47-2.76 6.76-4.12q2.47-1.45 12.7-7.52 10.22-6.06 21.55-7.94 17.85-2.97 30.52 10.04c6.38 6.55 11.95 15.99 11.37 25.29"/><path fill="#d88936" d="M583.41 600.48a.47.47 0 0 1 .88-.29q4.56 8.94 3.79 18.6-.7 8.71-6.51 14.05-2.74 2.53-2.85 2.61a5.04 4.9-2.8 0 0-1.23 1.32q-2.92 4.66-6.55 8.4-.51.53-1.03.5a.41.41 0 0 1-.36-.56q.07-.21 2.53-7.13c2.31-6.5 2.59-13.17 1.38-19.54a.65.63-7 0 1 .61-.75q.38-.02.69.33 3.8 4.35 4.29 10.28a.5.5 0 0 0 .88.28l.62-.75a2.31 2.26-16.2 0 0 .43-.76l2.84-8.49a1.41 1.4 58.8 0 0 .08-.33q1.2-7.99-.49-17.77"/><path fill="#f8dd93" d="M550.48 635.54a.27.26-47.1 0 1 .52-.02l1.83 7.91a.38.38 0 0 0 .7.11c1.38-2.27 3.08-5.23 4-8.13q3.03-9.65 2.86-20a.37.37 0 0 1 .72-.12q4 12.4-.85 23.08c-1.83 4.03-3.26 7.21-6.34 10.29-2.48 2.49-3.41 3.45-4.84 6.68-3.6 8.13-11.7 12.74-19.48 16.46a.43.43 0 0 1-.54-.64q2.34-3.25 3.71-6.85 3.83-10.14 4.13-21.05.01-.36.24-.61a.4.4 0 0 1 .68.17q1.85 7.18 1 14.87c-.17 1.54-.85 2.59-1.05 3.89a.35.35 0 0 0 .58.32q8.41-7.37 10.96-17.78c.67-2.71.77-5.87 1.17-8.58"/><path fill="#d88936" d="M494.51 627.53q-.46 11.93-11.7 16.66a.83.83 0 0 1-1.16-.78l.17-8.16q6.06-2.6 10.3-7.55a.71.7-59.7 0 1 .78-.21q1.03.38 1.61.04M475.34 636.21c.6 4.83.27 9.41-3.56 12.8q-7.77 6.89-18.82 5.46a.68.67 1.6 0 1-.59-.62l-.42-6.77c6.3.37 17.2-2 20.97-8a1.17 1.15 16.6 0 1 1.02-.54q.13 0 .35.05a.77.76 13.2 0 0 .91-.56q.22-.87.14-1.82M444.97 643.96q2.05 5.96 1.29 12.16a2.93 2.92 68.7 0 1-.65 1.49q-2.92 3.54-7.92 4.41c-7.52 1.3-14.5-3.58-18.81-9.26q10.95 4.64 21.44.96a2.2 2.16 6.9 0 0 1.08-.83q2.88-4.3 3.57-8.93"/><path fill="#d88936" d="M414.16 655.43c4.85 8.76 12.74 14.53 23.02 13.46q7.36-.77 12.36-4.98c.87-.73 1.97-1.07 2.9-1.22a.51.51 0 0 1 .53.74q-10.35 19.28-27.85 30.81-9.24 6.09-22.23 6.27c-4.29.06-8.23-1.37-11.74-3.65a.82.82 0 0 0-1.25.52l-1.28 6.08a.52.52 0 0 1-.86.28q-9.83-8.94-14.37-21.42-.89-2.43-1.45-8.89 1.46.05 1.97.92 4.26 7.17 12.02 6.93c6.96-.21 15.91-5.54 19.9-11.21q1.11-1.57 5.32-8.2a6.41 6.12-20.5 0 0 .6-1.24c.56-1.57.66-2.1 1.79-3.59q.5-.65.62-1.61M550.41 675.2c.27 6.1-.08 11.38 3.04 16.6q2.14 3.58 2.33 3.9a2.29 2.26-61.6 0 1 .37 1.28l-.27 10.47a1.14 1.12-14.9 0 1-.55.93q-11.29 6.7-24.15 9.24-22.04 4.35-43.85-2.19-17.07-5.11-26.54-19.93-.48-.75-.84-1.97a.34.34 0 0 0-.66.02q-.75 3.46-.06 7.2a.25.24 14.9 0 1-.4.23q-7.89-6.79-11.05-16.8a1.07 1.03-39.6 0 1 .1-.87q.78-1.31 4.44-6.47 4.52-6.37 8.68-14.53a.95.94-83 0 1 .63-.5l1.58-.37q2.65 9.04 4.25 11.6 5.27 8.46 13.9 13.71a.33.33 0 0 0 .43-.48c-5.41-7.32-8.74-15.94-6.64-25.03a.63.63 0 0 1 1.24.08l.23 2.2a4.95 4.83-58.3 0 0 .24 1.07c1.31 3.61 2.64 8.1 4.22 10.98q3.32 6.02 9.23 10.98a.43.43 0 0 0 .7-.42q-.97-4.56.49-8.44a.35.35 0 0 1 .64-.03c2.25 4.45 4.89 10.47 8.14 14.8q4.88 6.49 6.59 8.14 4.12 3.95 6.2 8.25a.49.48 43.5 0 0 .88-.02l1.31-3.08a1.21 1-21 0 1 .13-.23l14.59-20.45a.52.52 0 0 1 .92.16c.79 2.77-.47 4.92-2 8.48a.35.34 88.5 0 0 .47.45c5.73-2.87 12.05-7.38 15.78-12.79q2.69-3.89 3.31-4.53a.68.67 29.8 0 1 .67-.18l.33.09a.55.55 0 0 0 .7-.5q.03-.56.25-1.05M584.57 663.33q-5.29 7.2-8.74 14.56-2.86 6.12-3.75 12.45-1.1 7.86-1.88 16.37c-1.07 11.8-4.78 21.82-9.49 34.01q-1.85 4.81-10.95 22.01c-1.37 2.59-1.93 4.25-3.18 7.57q-6.76 18.04 6.7 30.71-1.9 2.98-5.29 4.95a1.59 1.58 58.6 0 1-2.13-.52c-8.22-12.83-8.27-27.84-1-41.35q3.54-6.58 6.57-11.96c6.76-11.96 10.28-24.99 10.94-38.64.34-6.93-.12-14.44 1.21-20.52q1.57-7.15 6.79-14.6 6.34-9.03 14.2-15.04"/><path fill="#d88936" d="M468.48 831.69q.56-1.34.04-3.31-.61-2.32-.67-3.28-.41-6.9.54-9.41 6.26-16.61 1.92-33.52 3.76-.31 8.29-2.32.37-.17.46-.34a.55.51 13.5 0 0-.49-.73l-10.06-.61q1.1-.87.57-3.49a.93.93 0 0 1 .16-.73q3.02-4.27 3.99-9.5 3.36-18.06-8.48-31.97c-5.29-6.21-15.49-12.71-22.43-16.55q-4.12-2.28-8.13-1.01-9.42 2.99-16.18 4.71-2.08-6.12-2.84-14.1 16.64-4.43 28.6-17.86a.37.37 0 0 1 .63.13q4.28 13.14 15.56 21.78 2.07 1.59 3.44 1.96c1.1.29 1.63-.33 2.6-.23a1.62 1.56-21.6 0 1 .83.34q9.49 7.52 21.78 10.92l4.4 1.23a.51.5-73.3 0 1 .34.64c-3.03 9.21-4.91 21.73 1.12 29.9 1.78 2.42 6.06 6.06 7.45 10.83q.52 1.8.74 5.25 1.03 16.46 3.31 34.33c1.22 9.57.59 21.32-7.11 27.97a.7.69-33.5 0 1-1.07-.21c-2.32-4.69-2.73-9.05-3.53-14.92a.43.43 0 0 0-.84-.04q-2.29 9.26.13 17.52a.74.73-23.2 0 1-.34.84q-4.07 2.31-9.36 1.99c-4.09-.24-4.99-2.3-6.04-6.13q-1.81-6.58-.93-13.85a.44.44 0 0 0-.84-.22q-3.37 7.91-3.1 16.2a.58.57-78.1 0 1-.82.54q-2.72-1.29-3.64-2.75"/><path fill="#f8dd93" d="M415.17 705.53q.76 7.98 2.84 14.1 1.15 3.74 2.53 6.95 2.9 6.72 2.93 6.8c3.09 8.13 5.54 13.24 10.57 20.1 2.53 3.44 5.66 6.55 7.99 10.22a6 6 0 0 0 .71.91q2.69 2.85 6.91 5.85 5.3 3.77 11.73 3.85 2.03.02 3.05 1.57.4.61-.45 1.41c-21.5-3.34-34.33-16.8-43.13-35.64q-7.8-16.69-11.01-34.83a.38.37 80.3 0 1 .31-.44z"/><path fill="#eeae4b" d="m468.51 778.17-4.53-.88q.85-.8.45-1.41-1.02-1.55-3.05-1.57-6.43-.08-11.73-3.85-4.22-3-6.91-5.85a6 6 0 0 1-.71-.91c-2.33-3.67-5.46-6.78-7.99-10.22-5.03-6.86-7.48-11.97-10.57-20.1q-.03-.08-2.93-6.8-1.38-3.21-2.53-6.95 6.76-1.72 16.18-4.71 4.01-1.27 8.13 1.01c6.94 3.84 17.14 10.34 22.43 16.55q11.84 13.91 8.48 31.97-.97 5.23-3.99 9.5a.93.93 0 0 0-.16.73q.53 2.62-.57 3.49"/><path fill="#d88936" d="M539.07 759.53a.29.28-55.2 0 1-.43.08c-6.77-5.79-6.62-14.22-4.93-22.41q1.65-7.93 2.58-13.48a1.38 1.37 87.3 0 1 .99-1.09q9.38-2.59 17.63-7.17a.41.41 0 0 1 .61.39c-.75 9.53-2.63 17.69-7.19 26.73q-4.06 8.06-9.26 16.95"/><path fill="#f8dd93" d="M470.31 782.17q4.34 16.91-1.92 33.52-.95 2.51-.54 9.41.06.96.67 3.28.52 1.97-.04 3.31c-9.55-10.02-.34-21.36.65-32.88q.72-8.28-3.06-15.76a.44.44 0 0 1 .37-.64z"/><path fill="#d88936" d="M603.11 792.16q-5.41 11.15-16.03 18.45a.35.35 0 0 1-.53-.4q2.27-6.5 2.97-13.8 2.85.78 4.63-.2 5.22-2.9 8.96-4.05M585.33 800.5c-1.27 3.26-3.1 6.15-5.07 9.12-7.13 10.74-19.95 13.42-28.79 2.47a.64.64 0 0 1 .03-.85l4.97-5.27q1.92 1.49 4.01 2.69 8.33 4.76 15.78.14 4.3-2.66 9.07-8.3"/></svg>