<svg xmlns="http://www.w3.org/2000/svg" viewBox="0 0 1024 1024"><g fill="none" stroke-width="2"><path stroke="#828080" d="m333.17 212.22 6.45.88a.4.4 0 0 1 .14.75q-18.47 10.31-27.01 29.99a.37.36 2.6 0 0 .45.49l14.48-4.74a.26.26 0 0 1 .29.4c-16.92 22.62-35.09 42.7-55.41 64.81-8.78 9.55-17.23 22.16-20.65 34.85-5.52 20.43 4.69 39.95 15.64 56.3q9.58 14.3 18.48 25.67a.41.41 0 0 0 .71-.12l4.16-12.49a.08.08 0 0 1 .15-.01q4.59 10.15 7.75 18.69 7.6 20.54.96 41.2a.5.49-74.6 0 0 .36.64q8.95 2 17.92-.22 13.94-3.45 24.57-12.54a.5.5 0 0 1 .82.3q.07.39-.04 1.13c-1.18 7.88-4.03 15.73-7.82 23.96-7.18 15.61-13.38 31.28-15.63 47.99-2.34 17.46.56 37.43 9.37 53a.56.56 0 0 0 1.04-.15q2.52-10.56 8.28-20.47a.39.39 0 0 1 .72.11q.16.63.01 1.44-2.57 14.32-3.54 22.93-3.01 26.64 2.41 53.03 1.43 7 1.64 8.29a.77.75 67.2 0 1-.28.72q-13.11 10.16-17.64 22.41-4.59 12.41-3.97 25.29c1.51 31.6 19.15 58.59 41.56 79.97a.31.31 0 0 1-.09.51c-10.07 4.36-19.19 13.19-21.82 23.9-5.8 23.6 23.71 27.27 39.45 28.88a.73.73 0 0 1 .64.59q.32 1.67.44 3.02c1.9 21.76 30.11 27.44 47.34 28.51q17.51 1.09 34.01-1.85 11.7-2.08 21.48-8c9.99-6.05 14.44-16.49 13.88-27.79a.63.62-88.8 0 1 .67-.65q16.12 1.28 32.15.33a.49.48-.5 0 1 .52.51c-1.31 24.56 19.42 33.49 39.8 36.43 14.83 2.15 29.95 2.04 44.71-.85 13.12-2.57 27.27-7.97 31.43-22.11q.49-1.66 1.37-7.49a.71.7-86.1 0 1 .68-.6c12.26-.29 38.19-4.04 40.43-19.82 2.06-14.51-10.54-27.97-23.09-32.94a.38.37 35.4 0 1-.11-.63q9.71-8.47 17.28-18.44c14.94-19.68 25.6-42.77 24.42-67.96-.78-16.49-7.84-32.22-21.46-41.71a.83.82 24.8 0 1-.33-.88q8.37-32.66 3.72-66.24-1.08-7.79-3-18.29a.51.51 0 0 1 .94-.36q5.73 9.49 8.15 19.76.13.53.45.8a.55.55 0 0 0 .83-.18c15.07-29.29 11.64-60.07-1.04-89.36-6.81-15.74-10.96-23.98-13.15-36.74a.53.53 0 0 1 .86-.5c12.27 10.08 27.1 15.77 43.04 13.32a.55.55 0 0 0 .44-.71q-5.91-17.84-.55-36.17 3.47-11.86 8.92-23.2a.39.38-39.9 0 1 .72.06l3.28 11.95a.58.58 0 0 0 1.02.2c8.61-11.33 16.48-21.85 23.92-33.85q7.73-12.47 10.61-25.86c7.37-34.18-22.81-58-42.74-80.56q-17.47-19.77-34.05-41.6a.4.4 0 0 1 .44-.62l14.84 4.94a.27.27 0 0 0 .33-.37q-8.78-19.72-27.62-30.29a.65.65 0 0 1 .34-1.21l6.54.24a.53.53 0 0 0 .41-.89c-18.61-20.72-49.72-22.04-74.94-16.44a1.38 1.36-29.5 0 1-1.22-.33c-24.76-22.79-56.94-37.81-90.58-40.44-15.64-1.23-32.78-.43-48.61 3.6q-38.54 9.84-67.83 37.18a.36.35-59.5 0 1-.32.09c-24.86-5.67-56.29-5.06-74.6 15.86a.46.45 24.8 0 0 .28.75" vector-effect="non-scaling-stroke"/><path stroke="#7a5926" d="M395.84 213.85q.02-1 .99-2.83" vector-effect="non-scaling-stroke"/><path stroke="#806f48" d="m396.83 211.02 5.44-8.74a.39.39 0 0 0-.29-.6c-17.97-1.87-35.74-1.7-52.29 5.92a.45.45 0 0 0-.03.8l8.02 4.63a.56.56 0 0 1-.14 1.03q-16.7 4.45-28.19 17.49a.24.23-77.5 0 0 .24.38q6.97-2.04 14.11-2.28" vector-effect="non-scaling-stroke"/><path stroke="#7a5926" d="M343.7 229.65q6.14-.29 12 1.44a.33.33 0 0 1-.02.64l-7.81 1.65" vector-effect="non-scaling-stroke"/><path stroke="#806f48" d="m347.87 233.38-8.49 2.31a1.33 1.32 8 0 0-.76.57q-16.67 27.13-37.53 51.33-5 5.8-18.84 20.91c-13.12 14.31-25.73 31.92-21.22 52.46q.96 4.4 4.23 12.27 4.89 11.74 12.07 21.5" vector-effect="non-scaling-stroke"/><path stroke="#70471b" d="m277.33 394.73 6.73 11.85a.14.14 0 0 0 .26-.05q1.89-9.5 1.33-19.1a.3.3 0 0 1 .55-.19q9.09 13.32 16.41 27.83c3.22 6.39 5.13 11.9 7.31 18.98q3.94 12.76 1.38 25.69-.09.44.02.92a.48.47-11.4 0 0 .55.36q10.46-1.88 19.21-7.97 23.1-16.08 29.92-43.33 2.97-11.84 2.99-23.72c.01-11.55-1.22-24.89-3.14-38.44q-3.84-27.21 1.1-54.84 5.24-29.24 24.24-50.96" vector-effect="non-scaling-stroke"/><path stroke="#7a5926" d="m386.19 241.76 1-.78a.19.19 0 0 1 .29.23l-1.19 2.56" vector-effect="non-scaling-stroke"/><path stroke="#70471b" d="M386.29 243.77q-17.97 33.65-17.78 71.98c.08 15.77 1.95 32.16 3.88 46.88 2.83 21.56 2.17 40.79-4.96 59.97a1.63 1.62-49.4 0 0 .1 1.35c11.42 20.91 27.32 38.43 45.74 53.76a.26.26 0 0 1-.15.46q-.45.03-.85-.13-32.25-13.23-49.64-43.13a.6.6 0 0 0-1.02-.04l-5.03 7.34" vector-effect="non-scaling-stroke"/><path stroke="#806f48" d="m356.58 442.21-3.32 3.58a1.06 1.04 64.5 0 0-.28.81q1.53 15.27-4.53 29.85c-6.13 14.74-12.02 27.42-16.07 41.15q-6.2 21.03-1.9 43.01a.21.21 0 0 0 .38.07l6.62-10.8" vector-effect="non-scaling-stroke"/><path stroke="#7a5926" d="M337.48 549.88q5.21-6.18 11.76-10.94a.39.39 0 0 1 .61.37q-3 21.1 3.47 41.68 13.17 41.94 47.25 70.13" vector-effect="non-scaling-stroke"/><path stroke="#70471b" d="m400.57 651.12 4.27 3.42a.29.29 0 0 0 .46-.28q-1.72-9.18-.9-18.64a.14.14 0 0 1 .27-.04q4.25 10.74 10.82 21.47c14.91 24.33 39.2 37.93 63.02 52.15 13.66 8.14 25.32 17.67 32.57 31.24a.32.32 0 0 0 .57.01c10.86-20.05 31.13-30.6 49.93-41.64q7.23-4.24 16.86-11.12 25.46-18.16 38.23-47.02 1.01-2.3 1.68-4.52a.39.39 0 0 1 .77.09q.49 8.5-1.02 18.24a.27.26 74.8 0 0 .43.25l5.63-4.68" vector-effect="non-scaling-stroke"/><path stroke="#7a5926" d="M624.16 650.05c22.89-19.83 40.18-45.35 47.82-74.58q4.7-18.02 1.75-36.24a.3.3 0 0 1 .47-.29q6.26 4.42 12.4 11.54" vector-effect="non-scaling-stroke"/><path stroke="#806f48" d="m686.6 550.48 6.11 10.24a.27.27 0 0 0 .5-.09q3.67-18.24-.08-36.29c-3.25-15.65-10.52-31.34-17.26-46.95q-6.36-14.75-4.97-30.56a1.08 1.08 0 0 0-.28-.82l-2.51-2.78" vector-effect="non-scaling-stroke"/><path stroke="#70471b" d="m668.11 443.23-6.22-8.62a.33.33 0 0 0-.56.03q-17.63 30.58-50.76 43.63a.25.25 0 0 1-.25-.42q12.09-10.41 23.24-22.52 11.99-13.02 22.58-31.68a1.22 1.19-40.5 0 0 .09-.99q-4.31-12.28-5.48-22.92c-1.32-11.98-1.14-25.49.48-38.03 1.22-9.43 2.67-20.88 3.26-31.23q.61-10.77.58-17.72-.13-34.66-16.31-66.27" vector-effect="non-scaling-stroke"/><path stroke="#7a5926" d="m638.76 246.49-1.76-3.65" vector-effect="non-scaling-stroke"/><path stroke="#3e220d" d="M637 242.84q.04-.56.53-.55" vector-effect="non-scaling-stroke"/><path stroke="#70471b" d="M637.53 242.29c12.81 13.41 20.79 31.88 24.2 50.05q4.43 23.63 1.75 47.65c-2.88 25.77-7.34 52.73 1.71 77.82q7.04 19.55 23.43 32.09 12.08 9.24 23.69 10.93a.37.37 0 0 0 .42-.42q-2.16-14.37 2.29-28.16 3.74-11.58 6.58-16.93 5.53-10.44 6.54-12.35c3.11-5.87 6.58-10.4 9.84-15.82a.3.3 0 0 1 .56.18q-.68 8.83 1.11 18.49a.36.36 0 0 0 .66.13l7.45-11.86" vector-effect="non-scaling-stroke"/><path stroke="#806f48" d="M747.76 394.09q9.12-13.5 14.14-28.89c4.98-15.27.39-29.83-8.79-42.56q-6.67-9.25-12.14-14.87-31.75-32.63-55.75-71.23a1.31 1.29 82 0 0-.72-.55l-9.04-2.7" vector-effect="non-scaling-stroke"/><path stroke="#7a5926" d="m675.46 233.29-7.68-1.57a.34.34 0 0 1-.02-.67q6.06-1.53 13.37-1.5" vector-effect="non-scaling-stroke"/><path stroke="#806f48" d="M681.13 229.55q6.53.51 13.51 2.69a.17.16-11.1 0 0 .18-.26q-11.82-13.59-29.07-17.83a.59.59 0 0 1-.16-1.09l7.96-4.6a.33.33 0 0 0-.03-.58q-7.52-3.29-9.53-3.8-20.77-5.25-42.63-2.01a.36.36 0 0 0-.25.54l5.05 8.15" vector-effect="non-scaling-stroke"/><path stroke="#7a5926" d="M626.16 210.76q1.17 1.86 1.33 3.2" vector-effect="non-scaling-stroke"/><path stroke="#806f48" d="M627.49 213.96q-14.35-12.01-24.75-19.46-17.73-12.71-39.92-21.37c-30.45-11.87-68.35-12.65-100.11-.89q-26 9.63-48.09 26.68-9.5 7.34-18.78 14.93" vector-effect="non-scaling-stroke"/><path stroke="#f4c56c" d="M627.49 213.96c.35 1.34 1.99 1.96 2.44 3.31a.51.5-85.4 0 1-.71.61c-6.34-3.36-11.64-8.38-17.95-12.08q-10.03-5.88-11.36-6.7c-12.44-7.64-25.9-13.55-39.81-18.39q-49.49-17.22-98.94.7-17.05 6.17-29.1 12.67-4.98 2.69-22.22 13.08c-5.19 3.14-10.45 7.74-16.03 10.9a.41.41 0 0 1-.61-.39v-.07a1.9 1.88 72.4 0 1 .67-1.31q1.45-1.19 1.97-2.44M626.16 210.76q18.44-4.49 36.69-2.01a.75.75 0 0 1 .26 1.41q-4.12 2.23-6.5 5.61a.49.49 0 0 0 .35.77q9.51.91 17.16 6.32 3.51 2.49 7.01 6.69M675.46 233.29q.2 1.32 1.61 1.97a1.64 1.6-2 0 1 .75.68c.79 1.39 1.32 2.77 2.18 3.91q3.16 4.17 12.39 19.44 8.22 13.58 21.89 31.12c7.93 10.17 17.7 19.4 26.22 28.58q8.65 9.32 13.31 21.44 1.58 4.11 2 7.81 1.46 12.96-2.19 25.11" vector-effect="non-scaling-stroke"/><path stroke="#e49c3f" d="M753.62 373.35q-.54-5.51-1.56-10.71-1.24-6.35-5.19-11.68a.5.49-40 0 0-.74-.06q-.06.05-1.91 5.84c-1.36 4.25-4.42 8.7-7.42 12.43q-6.83 8.48-12.54 15.71c-.85 1.07-1.34 2.43-2.17 3.25a.36.36 0 0 1-.62-.24q-.44-16.38-10.42-29.12a.4.39-68.7 0 0-.7.31q2.26 13.68.74 27.49-1.97 17.93-2.16 20.04-1.8 19.87.03 40.36.04.42-.21 1.01a.87.87 0 0 1-1.38.3q-7.92-7.2-13.25-13.16c-10.29-11.47-17.47-26.6-20.01-41.43-2.9-16.89-1.87-33.29-.63-51.68q.73-10.75-.65-31.14-.21-3.17-.99-7.16c-1.38-7.02-3.04-12.68-4.75-19.76q-1.86-7.68-6.48-15.59c-5.91-10.12-12.65-19.41-21.27-27.01a1.38 1.36 68.8 0 0-.74-.33l-2.19-.24" vector-effect="non-scaling-stroke"/><path stroke="#b27831" d="M636.41 240.78q-1.75-.83.59 2.06" vector-effect="non-scaling-stroke"/><path stroke="#e49c3f" d="M638.76 246.49q.16 5.53 2.76 12.74 2.95 8.17 4.32 20.5t1.29 27.96c-.04 8.21-1.76 17.31-2.37 25.28q-.36 4.7-2.6 18.85-2.22 14.08-3.26 31.09c-.47 7.7-.01 15.92-.3 23.36q-.65 16.78-7.72 30.99-6.53 13.11-20.28 23.4-12.45 9.31-27.83 13.97" vector-effect="non-scaling-stroke"/><path stroke="#7a5926" d="M582.77 474.63q.14-14.84-7.16-29.96a.62.62 0 0 1 .22-.79c17.19-11.15 25.59-30.75 27.4-50.54a.65.64-79.1 0 1 .83-.57q6.35 1.89 11.9 5.44a.27.27 0 0 0 .41-.26c-2.07-15.32-20.42-19.16-29.59-7.31a.18.18 0 0 0 .14.29l9.49.35a.66.66 0 0 1 .62.81c-3.23 14.18-8.08 26.77-17.95 37.48q-9.97 10.8-23.51 11.21-10.44.32-19.88-4.15-10.7-5.07-18.89-12.11a2.06 2.06 0 0 1-.72-1.52l-.32-12.54a.74.74 0 0 1 .55-.74c16.04-4.21 30.12-14.95 37.46-29.92 3-6.12 4.25-14.49 1.11-20.78-9.07-18.22-43.51-17.42-60.17-15.1-12.19 1.7-26.32 8.14-27.92 21.4-.94 7.8 3.24 17.37 8.23 23.67q12.44 15.68 32.12 20.92a.82.81-82.1 0 1 .61.82l-.49 13.25a.98.96 72.8 0 1-.39.76c-13.47 10.08-25.65 17.15-41.4 15.79-11.62-1-22.43-10.59-28.16-20.34q-7.77-13.24-10.88-28.15a.92.91-4.9 0 1 .93-1.1l8.85.32a.46.46 0 0 0 .37-.75q-5.34-6.37-12.04-6.93c-9.35-.78-16.26 5.46-17.64 14.64a.28.28 0 0 0 .43.27q5.59-3.75 11.86-5.6a.87.87 0 0 1 1.11.75c2.08 20.85 11.56 41 29.93 51.53a.63.63 0 0 1 .26.79q-6.68 14.88-6.1 32.1" vector-effect="non-scaling-stroke"/><path stroke="#e49c3f" d="m444.39 478.06-3.27-2.87a5.21 5.18-13.9 0 0-1.57-.94c-9.44-3.5-16.98-7.03-26.03-13.18-18.47-12.54-28.46-33.86-28.55-55.88q-.08-21.61-.48-27.79-.48-7.62-2.95-24.71-3.9-26.98-4.56-38.43-.72-12.49-.33-19.89.17-3.24 1.32-15.44c.61-6.5 1.91-10.82 3.52-17.68q1.57-6.71 4.66-13.24.79-1.67.14-4.24" vector-effect="non-scaling-stroke"/><path stroke="#e49c3f" d="m386.19 241.76-.68.06a.6.59-16.1 0 1-.55-.3q-.49-.91-1.82.17-1.49 1.21-2.22 2.02-10.12 11.37-18.19 25.49-4.22 7.37-6.17 14.34-3.2 11.39-5.61 29.09-.61 4.4-.63 8.62-.1 20.29 1.22 35.51.42 4.88.43 16.24.02 21.4-8.71 40.77c-4.46 9.9-9.14 16.32-16.83 24.79-3.3 3.64-7.63 6.6-10.34 10.14q-.4.53-1.03.06-.59-.44-.04-1.14a.92.86-25.6 0 0 .21-.54c.26-5.06 1.29-9.17 1.29-13.75q0-14.93-1.16-24.49c-2.31-18.93-4.31-32.81-2.07-49.94a.29.29 0 0 0-.52-.22q-10.26 13.29-10.04 29.72a.26.26 0 0 1-.46.16Q290.75 373.93 286 367.8q-6.08-7.85-8.14-16.8a.53.52 56.9 0 0-.93-.2c-2.01 2.64-3.49 5.53-4.45 9.35q-1.32 5.24-2.7 10.78" vector-effect="non-scaling-stroke"/><path stroke="#f4c56c" d="M269.78 370.93q-2.45-9.26-1.93-18.53.54-9.63 4.7-17.93c5.86-11.68 13.24-18.28 24.82-30.38 10.25-10.72 17.51-21.05 27.16-34.64q3.47-4.9 9.05-14.17 3.76-6.24 8.99-14.19 3.13-4.76 5.3-7.71M343.7 229.65l-2.7-.1a.24.24 0 0 1-.11-.45q.91-.52 1.6-.58a.43.42-10.4 0 0 .37-.53q-.17-.61.66-1.21.52-.38 5.85-3.84c5.53-3.59 10.73-5.2 17.13-6.05a.71.71 0 0 0 .36-1.25l-7.44-6.13a.48.48 0 0 1 .3-.85c6.29-.06 13.02-1.37 19.4-.97q9.14.57 17.71 3.33" vector-effect="non-scaling-stroke"/><path stroke="#a86626" d="m636.41 240.78 1.12 1.51" vector-effect="non-scaling-stroke"/><path stroke="#eab360" d="M269.78 370.93q2.88 11.43 7.55 23.8" vector-effect="non-scaling-stroke"/><path stroke="#70471b" d="M444.39 478.06q.85 14.7 7.7 28.12c20.51 40.24 74.27 49.59 107.7 19.95q21.64-19.2 22.98-51.5" vector-effect="non-scaling-stroke"/><path stroke="#eab360" d="M668.11 443.23q-1 6.77-.78 13.02.3 8.26 2.13 16.31 3.19 14.05 9.52 27.18" vector-effect="non-scaling-stroke"/><path stroke="#e49c3f" d="M678.98 499.74q-.15.99.08 1.94a.83.82-78.1 0 1-1.3.85q-5.73-4.35-10.22-8.06-11.64-9.57-17.85-22.41-.96-1.98-1.45-3.97a.67.66-27.3 0 0-1.08-.34q-10.33 8.82-22.4 13.77-17.75 7.28-35.88 11.6-2.49.59-2.9 2.87-3.58 20.26-11.68 36.8c-10.44 21.34-30.78 38.4-54.82 41.04-31.52 3.46-57.69-18.63-69.84-46.68q-3.92-9.04-7.44-22.87c-.62-2.46-.6-5.45-.89-8.4a1.56 1.56 0 0 0-1.21-1.37q-17.39-4.08-35.6-11.03-.02-.01-3.36-1.19-5.01-1.78-9.79-4.6-8.13-4.78-15.49-10.22a.52.51 25.9 0 0-.8.27c-3.24 11.28-10.69 19.43-19.32 27.01q-5.04 4.44-11.56 8.35" vector-effect="non-scaling-stroke"/><path stroke="#eab360" d="M344.18 503.1q2.73-7.5 5.29-14.32 3.56-9.46 4.66-14.5c1.78-8.09 2.96-16.06 2.56-24.37q-.18-3.71-.11-7.7M747.76 394.09q-1.4.23-.44-1.61 4.67-8.97 6.3-19.13" vector-effect="non-scaling-stroke"/><path stroke="#e49c3f" d="M624.16 650.05q-1.14-2.11.96-6.36 3.41-6.91 5.83-15.09c5.53-18.76 7.55-37.93.8-56.23a.44.44 0 0 0-.85.07q-1.78 8.77-5.63 17.6-7.74 17.74-19.98 33.22-5.76 7.29-19.84 21c-3.36 3.27-7.63 5.96-11.25 9.44q-.44.43-.79-.09-.1-.16-.02-.56" vector-effect="non-scaling-stroke"/><path stroke="#7a5926" d="M573.39 653.05c10.35-14.72 15.87-31.75 13.5-49.45a.28.28 0 0 0-.55-.04q-.5 1.76-1.07 4.2-4.17 17.73-12.94 32.79-8.44 14.51-21.65 24.35a.23.23 0 0 1-.35-.28q3.67-8.75 3.86-18.64a.38.38 0 0 0-.73-.16c-5.29 12.78-11.88 20.34-22.49 34.66q-3.5 4.72-7.03 13.16" vector-effect="non-scaling-stroke"/><path stroke="#e49c3f" d="M523.94 693.64q-7.51 9.07-12.11 20.95a.33.33 0 0 1-.61.01q-4.7-11.47-11.87-20.59" vector-effect="non-scaling-stroke"/><path stroke="#7a5926" d="M499.35 694.01c-4.25-10.15-10.01-17.46-17.04-26.71-5.74-7.53-9.44-13.75-12.76-21.81a.27.27 0 0 0-.52.1q.18 10.54 4.32 19.74a.11.11 0 0 1-.16.14c-19.51-13.97-30.88-37.3-35.53-60.62a1 .94-69.8 0 0-.14-.33q-.12-.19-.18-.24a.47.47 0 0 0-.79.29c-2.1 17.92 4.05 34.96 14 49.28" vector-effect="non-scaling-stroke"/><path stroke="#e49c3f" d="m450.55 653.85-.61.67a.41.4-42.5 0 1-.62-.02q-2.53-3.35-5.34-5.17-3.52-2.29-7.52-6.04-10.15-9.53-17.28-18.41-19.07-23.72-26.9-52.65a.25.24 49.8 0 0-.46-.04q-1.42 3.04-2.36 7.26c-5.2 23.33.74 49.53 12.06 70.14q.43.77-.23 1.38-.23.22-.72.15" vector-effect="non-scaling-stroke"/><path stroke="#f4c56c" d="M344.18 503.1q-3.49 11.27-5.8 22.83-2.31 11.53-.9 23.95M686.6 550.48q.51-14.57-1.77-26.55-1.96-10.27-5.85-24.19" vector-effect="non-scaling-stroke"/><path stroke="#70471b" d="M450.55 653.85c9.17 11.66 20.53 19.73 33.44 26.9q6.18 3.42 15.36 13.26M523.94 693.64q8.26-8.57 17.64-14.29 4.35-2.66 8.69-5.33 13.55-8.36 23.12-20.97" vector-effect="non-scaling-stroke"/><path stroke="#7a5926" d="M429.08 786.73q13.36 1.22 23.74 9.56a.34.34 0 0 1-.16.6q-.43.06-.9-.1" vector-effect="non-scaling-stroke"/><path stroke="#806f48" d="M451.76 796.79q-10.66-3.16-21.77-3.2c-18.18-.07-39.34 13.77-42.13 32.78q-1.06 7.26 3.79 14.01" vector-effect="non-scaling-stroke"/><path stroke="#70471b" d="M391.65 840.38q.97 1.48 1.99 2.25 5.18 3.94 12.53 5.75a.31.31 0 0 0 .39-.35l-1.15-8.82" vector-effect="non-scaling-stroke"/><path stroke="#7a5926" d="M405.41 839.21q.65-18.2 16.06-28.73a.39.39 0 0 1 .55.54q-8.79 13.5-7.96 29.6" vector-effect="non-scaling-stroke"/><path stroke="#70471b" d="M414.06 840.62q.79 5.49 3.09 10.08a.96.96 0 0 0 .75.53q14.86 1.96 29.52.66a.65.65 0 0 0 .58-.76l-1.53-9.1" vector-effect="non-scaling-stroke"/><path stroke="#7a5926" d="M446.47 842.03c-.27-9.42 4.18-19.84 11.53-26.01a.5.5 0 0 1 .78.58q-4.86 11.52-4.19 24.21" vector-effect="non-scaling-stroke"/><path stroke="#70471b" d="m454.59 840.81 2.06 8.55a.97.97 0 0 0 1.12.73c14.17-2.65 27.42-7.79 27.42-24.79q.01-2.76-.19-7.3c-1.73-40.6-3.05-68.27-2.83-94.13a1.88 1.88 0 0 0-.88-1.61q-12.67-8-25.2-15.28-5.43-3.16-17.63-11.92-13.87-9.97-22.3-21.61c-2.12-2.91-3.14-3.33-6.39-4.69q-4.06-1.71-9.87-6.15-28.67-21.89-45.64-53.56" vector-effect="non-scaling-stroke"/><path stroke="#7a5926" d="m354.26 609.05-5.22-10.78" vector-effect="non-scaling-stroke"/><path stroke="#806f48" d="m349.04 598.27-3.56-10.39a.3.3 0 0 0-.59.07q-3.02 31.96 5.93 63.41 3.78 13.25 8.2 24.12c4.48 11.02 11.02 25.34 17.35 38.17q9.49 19.25 10.99 22.47 7.25 15.53 7.62 16.29c5.87 12.37 9.73 24.15 12.58 37.05a.74.74 0 0 0 .98.54q9.6-3.54 20.54-3.27" vector-effect="non-scaling-stroke"/><path stroke="#f4c56c" d="M349.04 598.27q-.1 7.16 1.92 13.94a3.5 3.5 0 0 1 .14.98q-.01 4.7.81 9.52 1.47 8.58 1.49 8.67 1.95 10.38 2.78 13 3 9.51 12.3 34.64 3.11 8.42 7.83 18.51 6.18 13.22 8.28 18.39 2.42 5.94 6.09 13.08 2.06 4.01 6.36 13 1.22 2.55 1.35 3.09.44 1.95 1.27 3.11.59.83 1.89 4.68 1.39 4.11 5.83 14.7c2.28 5.44 3.47 10.96 5.3 17.09a2.14 2.14 0 0 0 2.61 1.45q7.45-2.04 13.79.61" vector-effect="non-scaling-stroke"/><path stroke="#e49c3f" d="M354.26 609.05q-1.43 1.51-2.09 3.44a1.11 1.08 41 0 0 .07.84q4.52 8.5 7.21 17.46c1.56 5.2 6.86 13.13 9.44 17.88q7.38 13.64 17.96 27.99c2.44 3.31 5.2 5.89 8.09 9.21 16.65 19.15 34.99 34.34 56.19 47.44 8.26 5.11 13.76 9.4 17.79 16.86q7.44 13.73 7.79 30.38.22 10.21.4 23.53c.07 5.27.69 11.17-.38 16.42q-1.07 5.25-3.82 10.07c-3.76 6.57-11 9.56-18.32 10.24M446.47 842.03q-1.42.23-2.96.15c-3.32-.18-6.9.73-10.24 1.04q-9.72.92-19.21-2.6M405.41 839.21l-12.48-3.51" vector-effect="non-scaling-stroke"/><path stroke="#f4c56c" d="M392.93 835.7q.98-4.04 1.62-8.34.41-2.75 3.55-8.02 2.48-4.15 10.93-12.78 6.11-6.22 16.05-9.86 5.67-2.07 15.18-.18a4.81 4.4 47.6 0 0 1 .09q2.62-.01 4.74.54 1.4.36 5.76-.36" vector-effect="non-scaling-stroke"/><path stroke="#eab360" d="M392.93 835.7q-.13 3.29-1.28 4.68" vector-effect="non-scaling-stroke"/><path stroke="#70471b" d="M674.66 597.86q-7.93 18.66-19.71 33.85-10.96 14.13-27.64 28.35-7.21 6.14-16.29 9.91a5.13 5.09-82.4 0 0-2.05 1.58q-12.16 15.87-28.92 27-15.04 9.98-30.14 18.38-1.57.88-8.04 5.01a1.93 1.93 0 0 0-.91 1.62q-.43 47.07-3.07 97.19-.4 7.67.71 11.61c3.5 12.47 15.42 15.73 26.86 17.95a.67.66 18.2 0 0 .73-.36q1.93-4.04 2.39-8.62" vector-effect="non-scaling-stroke"/><path stroke="#7a5926" d="M568.58 841.33q.94-12.86-4.06-24.97a.36.36 0 0 1 .52-.44q2.29 1.46 4.07 3.74 7.61 9.71 7.49 22.1" vector-effect="non-scaling-stroke"/><path stroke="#70471b" d="m576.6 841.76-1.48 9.37a.77.77 0 0 0 .7.89q14.76 1.17 28.83-.58a2.24 2.24 0 0 0 1.75-1.26q2.24-4.71 2.63-9.09" vector-effect="non-scaling-stroke"/><path stroke="#7a5926" d="M609.03 841.09q1.14-16.29-8.32-30.06a.39.39 0 0 1 .53-.55q15.55 9.79 16.35 29.19" vector-effect="non-scaling-stroke"/><path stroke="#70471b" d="m617.59 839.67-1.16 8.66a.36.35-3.8 0 0 .45.39q5.27-1.51 9.69-4.11 3.26-1.92 5.08-4.33" vector-effect="non-scaling-stroke"/><path stroke="#806f48" d="M631.65 840.28c5.33-7 4.77-15.27 1.33-22.72-5.61-12.13-19.24-20.25-32.06-23.02" vector-effect="non-scaling-stroke"/><path stroke="#7a5926" d="M600.92 794.54c-9.49-1.93-21.45-.34-30.67 2.24a.24.24 0 0 1-.22-.42q8.4-6.64 18.94-8.77" vector-effect="non-scaling-stroke"/><path stroke="#806f48" d="M588.97 787.59q13.43-2.05 26.03 2.88a.43.42 16.5 0 0 .57-.3c5.73-26.34 17.55-49.05 30.01-73.93q5.27-10.51 11.99-25.44c8.25-18.34 14.14-33.97 18.23-52.69 3.23-14.81 4.19-30.79 3.26-45.65q-.13-2.23-.48-4.4a.3.29 49.9 0 0-.57-.05l-3.35 9.85" vector-effect="non-scaling-stroke"/><path stroke="#f4c56c" d="M588.97 787.59q-1.18-.27-2.26.06a.21.21 0 0 1-.26-.12v-.01a.22.21-21.6 0 1 .12-.27c7.27-2.78 14.51-2.02 22.39-.95a1.08 1.08 0 0 0 1.18-.81q1.36-5.64 5.02-16.49c1.7-5.06 3.68-8.88 5.22-13.2q3.09-8.62 5.33-13.34c3.71-7.81 8.46-16.44 12.65-26.17q5.37-12.41 9.23-20.45 4.12-8.59 5.99-13.78c3.53-9.82 6.75-16.95 9.92-26.89q.75-2.35 4.24-12.94c1.48-4.49 2.55-12.18 3.58-16.88.8-3.66 1.81-8.06 1.46-11.73q-.14-1.56-.31-3.25" vector-effect="non-scaling-stroke"/><path stroke="#eab360" d="M672.47 610.37q2-5.82 2.19-12.51" vector-effect="non-scaling-stroke"/><path stroke="#f4c56c" d="M600.92 794.54q-.88 1.42-.5 2.83a1.14 1.13-85.5 0 0 .63.74q6.71 3.11 10.52 6.34 5.52 4.68 12.8 14.42c2.65 3.55 3.73 6.23 4.64 11.15q.56 3.03 1.69 5.41" vector-effect="non-scaling-stroke"/><path stroke="#e49c3f" d="m630.7 835.43-13.11 4.24M609.03 841.09q-10.46 2.38-20.78 2.24-2.59-.03-11.65-1.57M672.47 610.37q-3.2 8.12-6.45 16.11-3.83 9.42-7.34 15.71-6.58 11.81-13.52 22.47-6.78 10.42-16.01 20.7-26.01 28.92-57.65 48.31c-7.18 4.4-12.38 8.59-16.03 14.57q-7.29 11.91-8.51 26.27-1.45 17.1-1.16 39.74c.08 6.96 1.84 13.73 5.86 19 3.59 4.71 11 7.03 16.92 8.08" vector-effect="non-scaling-stroke"/><path stroke="#eab360" d="M631.65 840.28q-.01-2.77-.95-4.85" vector-effect="non-scaling-stroke"/><path stroke="#7a5926" d="m677.82 666.18-8.32 22.04" vector-effect="non-scaling-stroke"/><path stroke="#70471b" d="M669.5 688.22q-3.58 8.06-7.07 15.31-19.21 39.99-22.15 45.71-3.14 6.12-7.89 18.16-4.93 12.49-7.94 26.12a1.57 1.57 0 0 0 .58 1.59c8.92 6.81 15.8 14.48 18.98 25.53a.81.81 0 0 0 .88.58l10.55-1.33a1.86 1.86 0 0 0 1.62-1.63c1.02-8.51-2.16-17.38-6.99-24.13a.25.25 0 0 1 .29-.38c9.53 3.65 14.79 13.26 15 23.11a.6.6 0 0 0 .86.53l7.84-3.81" vector-effect="non-scaling-stroke"/><path stroke="#806f48" d="M674.06 813.58q5.75-5.53 2.09-13.47-1.69-3.65-4.93-7.08-10.03-10.63-24.3-11.66" vector-effect="non-scaling-stroke"/><path stroke="#70471b" d="M646.92 781.37q-4.99-1.04-12.18.39a.38.38 0 0 1-.3-.69q6.74-4.82 15.07-5.71" vector-effect="non-scaling-stroke"/><path stroke="#806f48" d="m649.51 775.36 4.71-.12a1.2 1.2 0 0 0 .83-.36q13.39-14 23.22-29.1c13.92-21.36 22.91-50.09 12.64-74.9q-3.23-7.81-9.54-13.45a.52.52 0 0 0-.84.23l-2.71 8.52" vector-effect="non-scaling-stroke"/><path stroke="#eab360" d="M649.51 775.36q-2.07-.17.57-2.13" vector-effect="non-scaling-stroke"/><path stroke="#f4c56c" d="M650.08 773.23q1.95-.18 3.02-1.61 7.43-9.96 11.59-16.66 9.35-15.04 15.03-30.72 4.41-12.18 5.33-20.72c.93-8.71.74-19.47-2.43-28.14q-1.53-4.2-4.8-9.2" vector-effect="non-scaling-stroke"/><path stroke="#e49c3f" d="M650.08 773.23c1.73-3.69 3.97-7.34 5.38-10.94q1.14-2.92 2.4-5.32 1.78-3.39 2.45-5.27 6.46-18.07 7.38-22.28.94-4.3 2.73-17.44 1.69-12.35-.92-23.76" vector-effect="non-scaling-stroke"/><path stroke="#eab360" d="M646.92 781.37q6.87 3.84 12.32 7.65 3.68 2.58 6.25 5.77 2.56 3.18 4.97 6.97 3.35 5.28 3.6 11.82" vector-effect="non-scaling-stroke"/><path stroke="#70471b" d="M374.3 775.17q8.73.74 15.73 6.01a.47.47 0 0 1-.37.83q-6.11-1.11-12.68-.77" vector-effect="non-scaling-stroke"/><path stroke="#806f48" d="M376.98 781.24q-7.25.05-14.46 3.79c-8.37 4.35-17.49 13.47-16.13 23.54q.38 2.88 3.54 5.18" vector-effect="non-scaling-stroke"/><path stroke="#70471b" d="m349.93 813.75 7.1 3.06a.42.42 0 0 0 .59-.33c1.19-10.08 5.35-18.29 14.81-22.73a.48.48 0 0 1 .59.71q-7.11 10.2-6.66 23.25a1.55 1.55 0 0 0 1.16 1.45q5.18 1.36 11.07 1.27a.8.8 0 0 0 .76-.59c3.26-11.35 10.12-17.84 19.02-25.36a.94.94 0 0 0 .32-.86q-1.13-7.26-3.88-15.72-5.01-15.43-13.32-31.74c-9.27-18.19-17.99-36.72-26.66-55.2" vector-effect="non-scaling-stroke"/><path stroke="#7a5926" d="m354.83 690.96-9.16-23.89" vector-effect="non-scaling-stroke"/><path stroke="#806f48" d="m345.67 667.07-2.89-8.65a.52.52 0 0 0-.81-.25q-2.97 2.35-5.01 5.29c-16.33 23.48-8.34 54.54 5.09 77.25q10 16.92 26.36 33.98a1.25 1.21-20.6 0 0 .87.38l5.02.1" vector-effect="non-scaling-stroke"/><path stroke="#f4c56c" d="M345.67 667.07q-7.52 10.56-8.05 24.46-.57 15.16 4.03 28.36 4.14 11.89 14.01 30.27 3.35 6.23 8.76 12.88a6.67 6.08-79.9 0 1 .77 1.22q2.88 5.94 8.11 8.87" vector-effect="non-scaling-stroke"/><path stroke="#eab360" d="M373.3 773.13q1.34.87 1 2.04" vector-effect="non-scaling-stroke"/><path stroke="#e49c3f" d="M354.83 690.96q-.15 1.06-1 1.03-.78-.04-.82.76-.33 7.8-.3 15.45c.02 5.06 1.12 9.46 1.75 14.4q.58 4.57 2.17 10.64c3.91 14.89 10.38 26.71 16.67 39.89" vector-effect="non-scaling-stroke"/><path stroke="#eab360" d="M349.93 813.75q.26-4.88 1.65-8.18c4.21-10.01 13.44-21.37 25.01-22.52q.97-.09.97-.64 0-.47-.58-1.17" vector-effect="non-scaling-stroke"/><path stroke="#70471b" d="M511.51 815.14q5.72 0 16.24-.4a.69.69 0 0 0 .66-.66l3.02-82.74a.38.37 70.5 0 0-.62-.3q-12.34 10.82-18.86 25.86-.1.21-.46.21t-.45-.21q-6.54-15.04-18.88-25.85a.38.37-70.6 0 0-.62.3l3.07 82.74a.69.69 0 0 0 .66.66q10.53.39 16.24.39" vector-effect="non-scaling-stroke"/><path stroke="#7a5926" d="M399.85 324.46q3.44 8.33 11.05 12.75" vector-effect="non-scaling-stroke"/><path stroke="#f6d6a4" d="M410.9 337.21q1.52 1.14 4.05 1.65 6.41 1.28 12.99 1.13" vector-effect="non-scaling-stroke"/><path stroke="#b27831" d="M427.94 339.99q7.26 1.07 14 .04" vector-effect="non-scaling-stroke"/><path stroke="#7a5926" d="m441.94 340.03 14.57-.53a1.68 1.67-79.3 0 0 1.47-1.01l1.99-4.68" vector-effect="non-scaling-stroke"/><path stroke="#e49c3f" d="M459.97 333.81q3.47-.16 4.53-1.31.8-.88 2.21-4.47c8.68-22.21 11.01-52.81-9.89-69.66-14.16-11.42-32.19-11.24-46.98-1.04-21.67 14.95-27.17 43.08-13.46 65.29q1.38 2.24 3.47 1.84" vector-effect="non-scaling-stroke"/><path stroke="#70471b" d="M459.97 333.81q2.23-7.33 3.3-13.3c1.78-9.84 1.14-20.47-2.97-29.75-5.22-11.79-16.89-19.7-30.04-18.25q-17.64 1.95-27.07 17.19-9.95 16.05-3.34 34.76" vector-effect="non-scaling-stroke"/><path stroke="#3e220d" d="M441.94 340.03c-12.47-1.87-20.12-10.56-20.31-22.99-.17-10.85 4.18-20.13 14.28-24.27q4.53-1.86 11.91-1.82a.88.77 48.9 0 1 .22.03l7.3 1.98a.33.33 0 0 0 .38-.47q-1.55-2.84-3.62-4.45" vector-effect="non-scaling-stroke"/><path stroke="#828080" d="M452.1 288.04q-11.27-10.66-24.98-5.96-16.06 5.52-21.58 22.73-5.35 16.67 5.36 32.4" vector-effect="non-scaling-stroke"/><path stroke="#ba9f8b" d="M452.1 288.04q-16.64-5.1-28.39 4.97c-14.04 12.03-14.24 38.51 4.23 46.98" vector-effect="non-scaling-stroke"/><path stroke="#7a5926" d="M558.65 334.72q-7.32-4.65-13.85-6.27a.41.41 0 0 0-.44.62l.18.26a1.43 1.4-.7 0 0 .43.41c11.52 7.04 21.55 19.42 28.78 30.82a.35.35 0 0 0 .63-.27q-2.35-9.43-7.76-17.83" vector-effect="non-scaling-stroke"/><path stroke="#e49c3f" d="M566.62 342.46q.25-1.36 1.35-2.63" vector-effect="non-scaling-stroke"/><path stroke="#7a5926" d="m567.97 339.83 8.32.24" vector-effect="non-scaling-stroke"/><path stroke="#b27831" d="m576.29 340.07 19.01.41" vector-effect="non-scaling-stroke"/><path stroke="#f6d6a4" d="m595.3 340.48 15.55-1.71a1.22 1.21-73.1 0 0 .82-.44l.82-1.03" vector-effect="non-scaling-stroke"/><path stroke="#7a5926" d="M612.49 337.3q-.19.72.89-.04 6.49-4.57 9.83-11.68" vector-effect="non-scaling-stroke"/><path stroke="#e49c3f" d="M623.21 325.58q1.09-1.3 1.97-1.12.9.18 1.33-.67c2.64-5.18 4.53-8.34 5.89-12.95q4.69-15.81-1.1-30.92c-9.84-25.64-41.61-40.77-65.15-21.34-16.47 13.59-17.79 35.08-13.52 54.47q.33 1.5 3.23 10.76 1.63 5.21 2.79 10.91" vector-effect="non-scaling-stroke"/><path stroke="#70471b" d="M623.21 325.58q7.6-20.08-4.09-37.21c-15.09-22.08-48.58-21.9-57.42 6.18-4.5 14.3-1.78 29.69 3.75 44.03a1.45 1.44-83.4 0 0 .52.66q.82.58 2 .59M566.62 342.46l-7.97-7.74" vector-effect="non-scaling-stroke"/><path stroke="#828080" d="M612.49 337.3q11.25-15.84 4.86-33.91c-6.54-18.55-30.23-31.29-46.37-14.87" vector-effect="non-scaling-stroke"/><path stroke="#70471b" d="M570.98 288.52q-.38.23-.68.69" vector-effect="non-scaling-stroke"/><path stroke="#3e220d" d="m570.3 289.21-2.5 3.13a.46.46 0 0 0 .53.72q9.97-3.87 19.62.19c11.23 4.71 15.12 16.91 13.43 28.14q-1.05 7.01-4.8 10.97-5.03 5.31-12.17 7.15c-2.38.62-5.41.43-8.12.56" vector-effect="non-scaling-stroke"/><path stroke="#ba9f8b" d="M595.3 340.48q7.66-4.37 10.71-10c6.7-12.35 4.04-27.85-6.4-37.11-6.95-6.16-19.09-8.99-28.39-4.65" vector-effect="non-scaling-stroke"/><path stroke="#ecc498" d="M571.22 288.72q-.11-.12-.24-.2" vector-effect="non-scaling-stroke"/><path stroke="#a86626" d="M570.3 289.21q.55-.11.92-.49" vector-effect="non-scaling-stroke"/><path stroke="#7a5926" d="M449.31 360.39c8.29-12.3 17.47-23.41 29.68-31.16a.48.48 0 0 0-.38-.87c-16.64 4.27-25.74 15.3-29.76 31.83a.26.25-21.4 0 0 .46.2" vector-effect="non-scaling-stroke"/><path stroke="#828080" d="M444.85 294.786a8.18 7.92-95.4 0 0-7.115 8.89 8.18 7.92-95.4 0 0 8.655 7.398 8.18 7.92-95.4 0 0 7.115-8.89 8.18 7.92-95.4 0 0-8.655-7.398M433.31 322.26a3.88 3.88 0 0 0-3.88-3.88 3.88 3.88 0 0 0-3.88 3.88 3.88 3.88 0 0 0 3.88 3.88 3.88 3.88 0 0 0 3.88-3.88M577.997 295.01a8.13 7.84-90.3 0 0-7.797 8.171 8.13 7.84-90.3 0 0 7.883 8.089 8.13 7.84-90.3 0 0 7.797-8.171 8.13 7.84-90.3 0 0-7.883-8.089M598.07 322.61a3.66 3.66 0 0 0-3.66-3.66 3.66 3.66 0 0 0-3.66 3.66 3.66 3.66 0 0 0 3.66 3.66 3.66 3.66 0 0 0 3.66-3.66M511.66 362.54q8.25.01 16.81-.78 5.01-.46 9.24-2.15a1.29 1.28-26.3 0 0 .63-1.85c-2.84-4.74-21.48-5.93-26.67-5.94-5.18-.01-23.82 1.13-26.68 5.85a1.29 1.28 26.5 0 0 .63 1.86q4.22 1.7 9.22 2.17 8.56.82 16.82.84" vector-effect="non-scaling-stroke"/><path stroke="#781d1a" d="M455.2 456.95q-2.14 6.08-2.59 12.25" vector-effect="non-scaling-stroke"/><path stroke="#621310" d="M452.61 469.2q-.46 10.15.03 13.39.83 5.53 4.54 14.94 3.48 8.82 7.72 13.67 3.19 3.64 8.04 8.54c6.19 6.26 14.43 10.05 22.84 13.02q5.98 2.11 14.05 2.37c8.21.27 15.17.01 21.98-2.63q3.66-1.42 8.14-3.31c14.92-6.29 25.71-19.45 31.06-34.51q6.27-17.63 1.44-35.36-1.36-5.01-3.65-10.49a1.17 1.16-16.5 0 0-1.3-.7c-6.39 1.21-12.05 2.23-18.66 1.33q-5.8-.79-12.98-3.13-12.31-4.02-22.64-13.63a1.45 1.44-41.8 0 0-1.85-.1c-4.69 3.49-8.53 6.9-13.49 9.39q-6.46 3.24-14.61 5.75c-8.02 2.47-16.36 2.29-24.13 1.02a.96.95-74.8 0 0-1.05.61l-2.89 7.58" vector-effect="non-scaling-stroke"/><path stroke="#d42c28" d="M452.61 469.2q-.11 8.71 3.7 16.2c2.26 4.45 6.04 8.7 9.12 12.86a14.73 14.59-88.8 0 0 2.48 2.61c7.09 5.85 16.88 11.87 25.74 13.8 18.43 4.01 37.63-.22 52.69-11.08q8.24-5.94 12.96-12.55 5.47-7.65 8.61-15.9 1.16-3.06 1.81-11.11c.22-2.75 1.43-5.5 1.14-8.28a1.57 1.57 0 0 0-1.75-1.4q-1.5.18-2.71.57-14.43 4.66-29.79-.6c-8.51-2.9-16.66-6.33-22.95-12.67a1.6 1.59 44.6 0 0-2.28.01c-5.61 5.8-11.9 8.93-21.06 11.68" vector-effect="non-scaling-stroke"/><path stroke="#dc7f56" d="M490.32 453.34q-11.95 4.19-25.43 2.39" vector-effect="non-scaling-stroke"/><path stroke="#d42c28" d="m464.89 455.73-9.69 1.22" vector-effect="non-scaling-stroke"/><path stroke="#f2895f" d="M464.89 455.73q1.89 9.69 10.61 11.47c8.58 1.75 15.85-4.27 16.56-12.91a.92.91 1.4 0 0-.95-.99l-.79.04" vector-effect="non-scaling-stroke"/><path stroke="#e49c3f" d="M409.17 582.43q-2.5-6.71-3-7.89c-5.05-11.92-6.01-24.69-4.98-37.31a.42.41-23.5 0 0-.74-.29q-6.14 7.75-6.92 18.01a.26.26 0 0 1-.48.12q-6.02-8.83-7.19-19.55-1.73-15.83 1.81-30.56a.41.41 0 0 0-.72-.35q-1.68 2.16-3.12 5.2c-6.22 13.16-7.05 28.88-1.18 42.11q2.96 6.68 11.42 13.24a9.4 9.4 0 0 1 1.62 1.62q.79 1 2.78 4.48c2.48 4.35 6.2 8.49 9.91 11.71a.5.49 10.5 0 0 .79-.54M630.23 554.54q-.99-10.02-7.34-17.67a.35.35 0 0 0-.61.25q1.11 12.72-1.26 24.91c-1.17 6.03-4.63 13.88-5.87 18.05-.3 1-1.22 1.87-1.11 3.04a.54.54 0 0 0 .89.35c5.28-4.69 7.74-8.37 12.13-15.74a6.3 6.09-6.1 0 1 1.31-1.57q2.58-2.23 4.21-3.58 7.83-6.54 10.53-16.65 5.73-21.52-5.54-40.23-.44-.72-.83-.96a.38.38 0 0 0-.57.42q3.75 15.9 1.42 32.04-1.41 9.78-6.82 17.48a.3.3 0 0 1-.54-.14" vector-effect="non-scaling-stroke"/><path stroke="#f4c56c" d="M551.09 616.11c.11-1.47.83-2.8 1.15-4.51q2.79-14.61-.77-28.46a.45.45 0 0 0-.89.12q.45 24.85-11.59 46.45a.49.49 0 0 0 .61.69q12.25-4.98 21.35-13.7c4.82-4.62 7.39-10.08 10.46-16.9a8.58 8.49-12.5 0 1 1.43-2.22c1.88-2.09 4.19-3.65 6.01-5.96 11.26-14.35 14.04-33.67 8.39-50.95a.26.26 0 0 0-.47-.06q-.27.4-.21 1.12 1.71 21.03-7.87 39.73-1.02 1.98-2.43 3.59a.52.52 0 0 1-.9-.27q-.9-6.89-3.48-13.56a.26.26 0 0 0-.51.1q.36 11.27-3.47 21.94c-1.82 5.06-3.15 8.52-6.12 12.28q-5.12 6.47-9.86 10.96a.49.49 0 0 1-.83-.39M451.54 571.52q-2.4 5.84-3.21 13.49a.62.62 0 0 1-1.09.34q-1.92-2.27-3.35-5.27-8.63-18.09-7.08-38.97a.05.03-76.7 0 0-.01-.03l-.46-.29a.29.29 0 0 0-.44.2c-.97 5.73-2.59 11.09-2.63 17.08q-.11 14.81 7.68 28.18 3.47 5.96 5.7 7.83 4.19 3.52 5.39 5.88c3.49 6.84 5.56 13.02 11.12 17.87q9.58 8.34 21.52 12.97a.39.39 0 0 0 .48-.57q-8.56-14-11.05-31.06-1.16-7.95-1.22-15.58a.44.44 0 0 0-.87-.1q-4.07 17.38.97 32.91a.57.57 0 0 1-.74.71q-.84-.31-1.96-1.45c-5.28-5.38-10.7-12.01-13.6-19.43q-4.83-12.31-4.45-24.56a.36.36 0 0 0-.7-.15" vector-effect="non-scaling-stroke"/></g><path fill="#fdfdfd" d="M333.17 212.22l6.45.88a.4.4 0 0 1 .14.75q-18.47 10.31-27.01 29.99a.37.36 2.6 0 0 .45.49l14.48-4.74a.26.26 0 0 1 .29.4c-16.92 22.62-35.09 42.7-55.41 64.81-8.78 9.55-17.23 22.16-20.65 34.85-5.52 20.43 4.69 39.95 15.64 56.3q9.58 14.3 18.48 25.67a.41.41 0 0 0 .71-.12l4.16-12.49a.08.08 0 0 1 .15-.01q4.59 10.15 7.75 18.69 7.6 20.54.96 41.2a.5.49-74.6 0 0 .36.64q8.95 2 17.92-.22 13.94-3.45 24.57-12.54a.5.5 0 0 1 .82.3q.07.39-.04 1.13c-1.18 7.88-4.03 15.73-7.82 23.96-7.18 15.61-13.38 31.28-15.63 47.99-2.34 17.46.56 37.43 9.37 53a.56.56 0 0 0 1.04-.15q2.52-10.56 8.28-20.47a.39.39 0 0 1 .72.11q.16.63.01 1.44-2.57 14.32-3.54 22.93-3.01 26.64 2.41 53.03 1.43 7 1.64 8.29a.77.75 67.2 0 1-.28.72q-13.11 10.16-17.64 22.41-4.59 12.41-3.97 25.29c1.51 31.6 19.15 58.59 41.56 79.97a.31.31 0 0 1-.09.51c-10.07 4.36-19.19 13.19-21.82 23.9-5.8 23.6 23.71 27.27 39.45 28.88a.73.73 0 0 1 .64.59q.32 1.67.44 3.02c1.9 21.76 30.11 27.44 47.34 28.51q17.51 1.09 34.01-1.85 11.7-2.08 21.48-8c9.99-6.05 14.44-16.49 13.88-27.79a.63.62-88.8 0 1 .67-.65q16.12 1.28 32.15.33a.49.48-.5 0 1 .52.51c-1.31 24.56 19.42 33.49 39.8 36.43 14.83 2.15 29.95 2.04 44.71-.85 13.12-2.57 27.27-7.97 31.43-22.11q.49-1.66 1.37-7.49a.71.7-86.1 0 1 .68-.6c12.26-.29 38.19-4.04 40.43-19.82 2.06-14.51-10.54-27.97-23.09-32.94a.38.37 35.4 0 1-.11-.63q9.71-8.47 17.28-18.44c14.94-19.68 25.6-42.77 24.42-67.96-.78-16.49-7.84-32.22-21.46-41.71a.83.82 24.8 0 1-.33-.88q8.37-32.66 3.72-66.24-1.08-7.79-3-18.29a.51.51 0 0 1 .94-.36q5.73 9.49 8.15 19.76.13.53.45.8a.55.55 0 0 0 .83-.18c15.07-29.29 11.64-60.07-1.04-89.36-6.81-15.74-10.96-23.98-13.15-36.74a.53.53 0 0 1 .86-.5c12.27 10.08 27.1 15.77 43.04 13.32a.55.55 0 0 0 .44-.71q-5.91-17.84-.55-36.17 3.47-11.86 8.92-23.2a.39.38-39.9 0 1 .72.06l3.28 11.95a.58.58 0 0 0 1.02.2c8.61-11.33 16.48-21.85 23.92-33.85q7.73-12.47 10.61-25.86c7.37-34.18-22.81-58-42.74-80.56q-17.47-19.77-34.05-41.6a.4.4 0 0 1 .44-.62l14.84 4.94a.27.27 0 0 0 .33-.37q-8.78-19.72-27.62-30.29a.65.65 0 0 1 .34-1.21l6.54.24a.53.53 0 0 0 .41-.89c-18.61-20.72-49.72-22.04-74.94-16.44a1.38 1.36-29.5 0 1-1.22-.33c-24.76-22.79-56.94-37.81-90.58-40.44-15.64-1.23-32.78-.43-48.61 3.6q-38.54 9.84-67.83 37.18a.36.35-59.5 0 1-.32.09c-24.86-5.67-56.29-5.06-74.6 15.86a.46.45 24.8 0 0 .28.75"/><path fill="#060302" d="M333.17 212.22a.46.45 24.8 0 1-.28-.75c18.31-20.92 49.74-21.53 74.6-15.86a.36.35-59.5 0 0 .32-.09q29.29-27.34 67.83-37.18c15.83-4.03 32.97-4.83 48.61-3.6 33.64 2.63 65.82 17.65 90.58 40.44a1.38 1.36-29.5 0 0 1.22.33c25.22-5.6 56.33-4.28 74.94 16.44a.53.53 0 0 1-.41.89l-6.54-.24a.65.65 0 0 0-.34 1.21q18.84 10.57 27.62 30.29a.27.27 0 0 1-.33.37l-14.84-4.94a.4.4 0 0 0-.44.62q16.58 21.83 34.05 41.6c19.93 22.56 50.11 46.38 42.74 80.56q-2.88 13.39-10.61 25.86c-7.44 12-15.31 22.52-23.92 33.85a.58.58 0 0 1-1.02-.2l-3.28-11.95a.39.38-39.9 0 0-.72-.06q-5.45 11.34-8.92 23.2-5.36 18.33.55 36.17a.55.55 0 0 1-.44.71c-15.94 2.45-30.77-3.24-43.04-13.32a.53.53 0 0 0-.86.5c2.19 12.76 6.34 21 13.15 36.74 12.68 29.29 16.11 60.07 1.04 89.36a.55.55 0 0 1-.83.18q-.32-.27-.45-.8-2.42-10.27-8.15-19.76a.51.51 0 0 0-.94.36q1.92 10.5 3 18.29 4.65 33.58-3.72 66.24a.83.82 24.8 0 0 .33.88c13.62 9.49 20.68 25.22 21.46 41.71 1.18 25.19-9.48 48.28-24.42 67.96q-7.57 9.97-17.28 18.44a.38.37 35.4 0 0 .11.63c12.55 4.97 25.15 18.43 23.09 32.94-2.24 15.78-28.17 19.53-40.43 19.82a.71.7-86.1 0 0-.68.6q-.88 5.83-1.37 7.49c-4.16 14.14-18.31 19.54-31.43 22.11-14.76 2.89-29.88 3-44.71.85-20.38-2.94-41.11-11.87-39.8-36.43a.49.48-.5 0 0-.52-.51q-16.03.95-32.15-.33a.63.62-88.8 0 0-.67.65c.56 11.3-3.89 21.74-13.88 27.79q-9.78 5.92-21.48 8-16.5 2.94-34.01 1.85c-17.23-1.07-45.44-6.75-47.34-28.51q-.12-1.35-.44-3.02a.73.73 0 0 0-.64-.59c-15.74-1.61-45.25-5.28-39.45-28.88 2.63-10.71 11.75-19.54 21.82-23.9a.31.31 0 0 0 .09-.51c-22.41-21.38-40.05-48.37-41.56-79.97q-.62-12.88 3.97-25.29 4.53-12.25 17.64-22.41a.77.75 67.2 0 0 .28-.72q-.21-1.29-1.64-8.29-5.42-26.39-2.41-53.03.97-8.61 3.54-22.93.15-.81-.01-1.44a.39.39 0 0 0-.72-.11q-5.76 9.91-8.28 20.47a.56.56 0 0 1-1.04.15c-8.81-15.57-11.71-35.54-9.37-53 2.25-16.71 8.45-32.38 15.63-47.99 3.79-8.23 6.64-16.08 7.82-23.96q.11-.74.04-1.13a.5.5 0 0 0-.82-.3q-10.63 9.09-24.57 12.54-8.97 2.22-17.92.22a.5.49-74.6 0 1-.36-.64q6.64-20.66-.96-41.2-3.16-8.54-7.75-18.69a.08.08 0 0 0-.15.01l-4.16 12.49a.41.41 0 0 1-.71.12q-8.9-11.37-18.48-25.67c-10.95-16.35-21.16-35.87-15.64-56.3 3.42-12.69 11.87-25.3 20.65-34.85 20.32-22.11 38.49-42.19 55.41-64.81a.26.26 0 0 0-.29-.4l-14.48 4.74a.37.36 2.6 0 1-.45-.49q8.54-19.68 27.01-29.99a.4.4 0 0 0-.14-.75zm62.67 1.63q.02-1 .99-2.83l5.44-8.74a.39.39 0 0 0-.29-.6c-17.97-1.87-35.74-1.7-52.29 5.92a.45.45 0 0 0-.03.8l8.02 4.63a.56.56 0 0 1-.14 1.03q-16.7 4.45-28.19 17.49a.24.23-77.5 0 0 .24.38q6.97-2.04 14.11-2.28 6.14-.29 12 1.44a.33.33 0 0 1-.02.64l-7.81 1.65-8.49 2.31a1.33 1.32 8 0 0-.76.57q-16.67 27.13-37.53 51.33-5 5.8-18.84 20.91c-13.12 14.31-25.73 31.92-21.22 52.46q.96 4.4 4.23 12.27 4.89 11.74 12.07 21.5l6.73 11.85a.14.14 0 0 0 .26-.05q1.89-9.5 1.33-19.1a.3.3 0 0 1 .55-.19q9.09 13.32 16.41 27.83c3.22 6.39 5.13 11.9 7.31 18.98q3.94 12.76 1.38 25.69-.09.44.02.92a.48.47-11.4 0 0 .55.36q10.46-1.88 19.21-7.97 23.1-16.08 29.92-43.33 2.97-11.84 2.99-23.72c.01-11.55-1.22-24.89-3.14-38.44q-3.84-27.21 1.1-54.84 5.24-29.24 24.24-50.96l1-.78a.19.19 0 0 1 .29.23l-1.19 2.56q-17.97 33.65-17.78 71.98c.08 15.77 1.95 32.16 3.88 46.88 2.83 21.56 2.17 40.79-4.96 59.97a1.63 1.62-49.4 0 0 .1 1.35c11.42 20.91 27.32 38.43 45.74 53.76a.26.26 0 0 1-.15.46q-.45.03-.85-.13-32.25-13.23-49.64-43.13a.6.6 0 0 0-1.02-.04l-5.03 7.34-3.32 3.58a1.06 1.04 64.5 0 0-.28.81q1.53 15.27-4.53 29.85c-6.13 14.74-12.02 27.42-16.07 41.15q-6.2 21.03-1.9 43.01a.21.21 0 0 0 .38.07l6.62-10.8q5.21-6.18 11.76-10.94a.39.39 0 0 1 .61.37q-3 21.1 3.47 41.68 13.17 41.94 47.25 70.13l4.27 3.42a.29.29 0 0 0 .46-.28q-1.72-9.18-.9-18.64a.14.14 0 0 1 .27-.04q4.25 10.74 10.82 21.47c14.91 24.33 39.2 37.93 63.02 52.15 13.66 8.14 25.32 17.67 32.57 31.24a.32.32 0 0 0 .57.01c10.86-20.05 31.13-30.6 49.93-41.64q7.23-4.24 16.86-11.12 25.46-18.16 38.23-47.02 1.01-2.3 1.68-4.52a.39.39 0 0 1 .77.09q.49 8.5-1.02 18.24a.27.26 74.8 0 0 .43.25l5.63-4.68c22.89-19.83 40.18-45.35 47.82-74.58q4.7-18.02 1.75-36.24a.3.3 0 0 1 .47-.29q6.26 4.42 12.4 11.54l6.11 10.24a.27.27 0 0 0 .5-.09q3.67-18.24-.08-36.29c-3.25-15.65-10.52-31.34-17.26-46.95q-6.36-14.75-4.97-30.56a1.08 1.08 0 0 0-.28-.82l-2.51-2.78-6.22-8.62a.33.33 0 0 0-.56.03q-17.63 30.58-50.76 43.63a.25.25 0 0 1-.25-.42q12.09-10.41 23.24-22.52 11.99-13.02 22.58-31.68a1.22 1.19-40.5 0 0 .09-.99q-4.31-12.28-5.48-22.92c-1.32-11.98-1.14-25.49.48-38.03 1.22-9.43 2.67-20.88 3.26-31.23q.61-10.77.58-17.72-.13-34.66-16.31-66.27l-1.76-3.65q.04-.56.53-.55c12.81 13.41 20.79 31.88 24.2 50.05q4.43 23.63 1.75 47.65c-2.88 25.77-7.34 52.73 1.71 77.82q7.04 19.55 23.43 32.09 12.08 9.24 23.69 10.93a.37.37 0 0 0 .42-.42q-2.16-14.37 2.29-28.16 3.74-11.58 6.58-16.93 5.53-10.44 6.54-12.35c3.11-5.87 6.58-10.4 9.84-15.82a.3.3 0 0 1 .56.18q-.68 8.83 1.11 18.49a.36.36 0 0 0 .66.13l7.45-11.86q9.12-13.5 14.14-28.89c4.98-15.27.39-29.83-8.79-42.56q-6.67-9.25-12.14-14.87-31.75-32.63-55.75-71.23a1.31 1.29 82 0 0-.72-.55l-9.04-2.7-7.68-1.57a.34.34 0 0 1-.02-.67q6.06-1.53 13.37-1.5 6.53.51 13.51 2.69a.17.16-11.1 0 0 .18-.26q-11.82-13.59-29.07-17.83a.59.59 0 0 1-.16-1.09l7.96-4.6a.33.33 0 0 0-.03-.58q-7.52-3.29-9.53-3.8-20.77-5.25-42.63-2.01a.36.36 0 0 0-.25.54l5.05 8.15q1.17 1.86 1.33 3.2-14.35-12.01-24.75-19.46-17.73-12.71-39.92-21.37c-30.45-11.87-68.35-12.65-100.11-.89q-26 9.63-48.09 26.68-9.5 7.34-18.78 14.93m33.24 572.88q13.36 1.22 23.74 9.56a.34.34 0 0 1-.16.6q-.43.06-.9-.1-10.66-3.16-21.77-3.2c-18.18-.07-39.34 13.77-42.13 32.78q-1.06 7.26 3.79 14.01.97 1.48 1.99 2.25 5.18 3.94 12.53 5.75a.31.31 0 0 0 .39-.35l-1.15-8.82q.65-18.2 16.06-28.73a.39.39 0 0 1 .55.54q-8.79 13.5-7.96 29.6.79 5.49 3.09 10.08a.96.96 0 0 0 .75.53q14.86 1.96 29.52.66a.65.65 0 0 0 .58-.76l-1.53-9.1c-.27-9.42 4.18-19.84 11.53-26.01a.5.5 0 0 1 .78.58q-4.86 11.52-4.19 24.21l2.06 8.55a.97.97 0 0 0 1.12.73c14.17-2.65 27.42-7.79 27.42-24.79q.01-2.76-.19-7.3c-1.73-40.6-3.05-68.27-2.83-94.13a1.88 1.88 0 0 0-.88-1.61q-12.67-8-25.2-15.28-5.43-3.16-17.63-11.92-13.87-9.97-22.3-21.61c-2.12-2.91-3.14-3.33-6.39-4.69q-4.06-1.71-9.87-6.15-28.67-21.89-45.64-53.56l-5.22-10.78-3.56-10.39a.3.3 0 0 0-.59.07q-3.02 31.96 5.93 63.41 3.78 13.25 8.2 24.12c4.48 11.02 11.02 25.34 17.35 38.17q9.49 19.25 10.99 22.47 7.25 15.53 7.62 16.29c5.87 12.37 9.73 24.15 12.58 37.05a.74.74 0 0 0 .98.54q9.6-3.54 20.54-3.27m245.58-188.87q-7.93 18.66-19.71 33.85-10.96 14.13-27.64 28.35-7.21 6.14-16.29 9.91a5.13 5.09-82.4 0 0-2.05 1.58q-12.16 15.87-28.92 27-15.04 9.98-30.14 18.38-1.57.88-8.04 5.01a1.93 1.93 0 0 0-.91 1.62q-.43 47.07-3.07 97.19-.4 7.67.71 11.61c3.5 12.47 15.42 15.73 26.86 17.95a.67.66 18.2 0 0 .73-.36q1.93-4.04 2.39-8.62.94-12.86-4.06-24.97a.36.36 0 0 1 .52-.44q2.29 1.46 4.07 3.74 7.61 9.71 7.49 22.1l-1.48 9.37a.77.77 0 0 0 .7.89q14.76 1.17 28.83-.58a2.24 2.24 0 0 0 1.75-1.26q2.24-4.71 2.63-9.09 1.14-16.29-8.32-30.06a.39.39 0 0 1 .53-.55q15.55 9.79 16.35 29.19l-1.16 8.66a.36.35-3.8 0 0 .45.39q5.27-1.51 9.69-4.11 3.26-1.92 5.08-4.33c5.33-7 4.77-15.27 1.33-22.72-5.61-12.13-19.24-20.25-32.06-23.02-9.49-1.93-21.45-.34-30.67 2.24a.24.24 0 0 1-.22-.42q8.4-6.64 18.94-8.77 13.43-2.05 26.03 2.88a.43.42 16.5 0 0 .57-.3c5.73-26.34 17.55-49.05 30.01-73.93q5.27-10.51 11.99-25.44c8.25-18.34 14.14-33.97 18.23-52.69 3.23-14.81 4.19-30.79 3.26-45.65q-.13-2.23-.48-4.4a.3.29 49.9 0 0-.57-.05zm3.16 68.32-8.32 22.04q-3.58 8.06-7.07 15.31-19.21 39.99-22.15 45.71-3.14 6.12-7.89 18.16-4.93 12.49-7.94 26.12a1.57 1.57 0 0 0 .58 1.59c8.92 6.81 15.8 14.48 18.98 25.53a.81.81 0 0 0 .88.58l10.55-1.33a1.86 1.86 0 0 0 1.62-1.63c1.02-8.51-2.16-17.38-6.99-24.13a.25.25 0 0 1 .29-.38c9.53 3.65 14.79 13.26 15 23.11a.6.6 0 0 0 .86.53l7.84-3.81q5.75-5.53 2.09-13.47-1.69-3.65-4.93-7.08-10.03-10.63-24.3-11.66-4.99-1.04-12.18.39a.38.38 0 0 1-.3-.69q6.74-4.82 15.07-5.71l4.71-.12a1.2 1.2 0 0 0 .83-.36q13.39-14 23.22-29.1c13.92-21.36 22.91-50.09 12.64-74.9q-3.23-7.81-9.54-13.45a.52.52 0 0 0-.84.23zM374.3 775.17q8.73.74 15.73 6.01a.47.47 0 0 1-.37.83q-6.11-1.11-12.68-.77-7.25.05-14.46 3.79c-8.37 4.35-17.49 13.47-16.13 23.54q.38 2.88 3.54 5.18l7.1 3.06a.42.42 0 0 0 .59-.33c1.19-10.08 5.35-18.29 14.81-22.73a.48.48 0 0 1 .59.71q-7.11 10.2-6.66 23.25a1.55 1.55 0 0 0 1.16 1.45q5.18 1.36 11.07 1.27a.8.8 0 0 0 .76-.59c3.26-11.35 10.12-17.84 19.02-25.36a.94.94 0 0 0 .32-.86q-1.13-7.26-3.88-15.72-5.01-15.43-13.32-31.74c-9.27-18.19-17.99-36.72-26.66-55.2l-9.16-23.89-2.89-8.65a.52.52 0 0 0-.81-.25q-2.97 2.35-5.01 5.29c-16.33 23.48-8.34 54.54 5.09 77.25q10 16.92 26.36 33.98a1.25 1.21-20.6 0 0 .87.38zm137.21 39.97q5.72 0 16.24-.4a.69.69 0 0 0 .66-.66l3.02-82.74a.38.37 70.5 0 0-.62-.3q-12.34 10.82-18.86 25.86-.1.21-.46.21t-.45-.21q-6.54-15.04-18.88-25.85a.38.37-70.6 0 0-.62.3l3.07 82.74a.69.69 0 0 0 .66.66q10.53.39 16.24.39"/><path fill="#f9db8d" d="M627.49 213.96c.35 1.34 1.99 1.96 2.44 3.31a.51.5-85.4 0 1-.71.61c-6.34-3.36-11.64-8.38-17.95-12.08q-10.03-5.88-11.36-6.7c-12.44-7.64-25.9-13.55-39.81-18.39q-49.49-17.22-98.94.7-17.05 6.17-29.1 12.67-4.98 2.69-22.22 13.08c-5.19 3.14-10.45 7.74-16.03 10.9a.41.41 0 0 1-.61-.39v-.07a1.9 1.88 72.4 0 1 .67-1.31q1.45-1.19 1.97-2.44 9.28-7.59 18.78-14.93 22.09-17.05 48.09-26.68c31.76-11.76 69.66-10.98 100.11.89q22.19 8.66 39.92 21.37 10.4 7.45 24.75 19.46"/><path fill="#eeae4a" d="M627.49 213.96q-.16-1.34-1.33-3.2 18.44-4.49 36.69-2.01a.75.75 0 0 1 .26 1.41q-4.12 2.23-6.5 5.61a.49.49 0 0 0 .35.77q9.51.91 17.16 6.32 3.51 2.49 7.01 6.69-7.31-.03-13.37 1.5a.34.34 0 0 0 .02.67l7.68 1.57q.2 1.32 1.61 1.97a1.64 1.6-2 0 1 .75.68c.79 1.39 1.32 2.77 2.18 3.91q3.16 4.17 12.39 19.44 8.22 13.58 21.89 31.12c7.93 10.17 17.7 19.4 26.22 28.58q8.65 9.32 13.31 21.44 1.58 4.11 2 7.81 1.46 12.96-2.19 25.11-.54-5.51-1.56-10.71-1.24-6.35-5.19-11.68a.5.49-40 0 0-.74-.06q-.06.05-1.91 5.84c-1.36 4.25-4.42 8.7-7.42 12.43q-6.83 8.48-12.54 15.71c-.85 1.07-1.34 2.43-2.17 3.25a.36.36 0 0 1-.62-.24q-.44-16.38-10.42-29.12a.4.39-68.7 0 0-.7.31q2.26 13.68.74 27.49-1.97 17.93-2.16 20.04-1.8 19.87.03 40.36.04.42-.21 1.01a.87.87 0 0 1-1.38.3q-7.92-7.2-13.25-13.16c-10.29-11.47-17.47-26.6-20.01-41.43-2.9-16.89-1.87-33.29-.63-51.68q.73-10.75-.65-31.14-.21-3.17-.99-7.16c-1.38-7.02-3.04-12.68-4.75-19.76q-1.86-7.68-6.48-15.59c-5.91-10.12-12.65-19.41-21.27-27.01a1.38 1.36 68.8 0 0-.74-.33l-2.19-.24q-1.75-.83.59 2.06l1.76 3.65q.16 5.53 2.76 12.74 2.95 8.17 4.32 20.5t1.29 27.96c-.04 8.21-1.76 17.31-2.37 25.28q-.36 4.7-2.6 18.85-2.22 14.08-3.26 31.09c-.47 7.7-.01 15.92-.3 23.36q-.65 16.78-7.72 30.99-6.53 13.11-20.28 23.4-12.45 9.31-27.83 13.97.14-14.84-7.16-29.96a.62.62 0 0 1 .22-.79c17.19-11.15 25.59-30.75 27.4-50.54a.65.64-79.1 0 1 .83-.57q6.35 1.89 11.9 5.44a.27.27 0 0 0 .41-.26c-2.07-15.32-20.42-19.16-29.59-7.31a.18.18 0 0 0 .14.29l9.49.35a.66.66 0 0 1 .62.81c-3.23 14.18-8.08 26.77-17.95 37.48q-9.97 10.8-23.51 11.21-10.44.32-19.88-4.15-10.7-5.07-18.89-12.11a2.06 2.06 0 0 1-.72-1.52l-.32-12.54a.74.74 0 0 1 .55-.74c16.04-4.21 30.12-14.95 37.46-29.92 3-6.12 4.25-14.49 1.11-20.78-9.07-18.22-43.51-17.42-60.17-15.1-12.19 1.7-26.32 8.14-27.92 21.4-.94 7.8 3.24 17.37 8.23 23.67q12.44 15.68 32.12 20.92a.82.81-82.1 0 1 .61.82l-.49 13.25a.98.96 72.8 0 1-.39.76c-13.47 10.08-25.65 17.15-41.4 15.79-11.62-1-22.43-10.59-28.16-20.34q-7.77-13.24-10.88-28.15a.92.91-4.9 0 1 .93-1.1l8.85.32a.46.46 0 0 0 .37-.75q-5.34-6.37-12.04-6.93c-9.35-.78-16.26 5.46-17.64 14.64a.28.28 0 0 0 .43.27q5.59-3.75 11.86-5.6a.87.87 0 0 1 1.11.75c2.08 20.85 11.56 41 29.93 51.53a.63.63 0 0 1 .26.79q-6.68 14.88-6.1 32.1l-3.27-2.87a5.21 5.18-13.9 0 0-1.57-.94c-9.44-3.5-16.98-7.03-26.03-13.18-18.47-12.54-28.46-33.86-28.55-55.88q-.08-21.61-.48-27.79-.48-7.62-2.95-24.71-3.9-26.98-4.56-38.43-.72-12.49-.33-19.89.17-3.24 1.32-15.44c.61-6.5 1.91-10.82 3.52-17.68q1.57-6.71 4.66-13.24.79-1.67.14-4.24l1.19-2.56a.19.19 0 0 0-.29-.23l-1 .78-.68.06a.6.59-16.1 0 1-.55-.3q-.49-.91-1.82.17-1.49 1.21-2.22 2.02-10.12 11.37-18.19 25.49-4.22 7.37-6.17 14.34-3.2 11.39-5.61 29.09-.61 4.4-.63 8.62-.1 20.29 1.22 35.51.42 4.88.43 16.24.02 21.4-8.71 40.77c-4.46 9.9-9.14 16.32-16.83 24.79-3.3 3.64-7.63 6.6-10.34 10.14q-.4.53-1.03.06-.59-.44-.04-1.14a.92.86-25.6 0 0 .21-.54c.26-5.06 1.29-9.17 1.29-13.75q0-14.93-1.16-24.49c-2.31-18.93-4.31-32.81-2.07-49.94a.29.29 0 0 0-.52-.22q-10.26 13.29-10.04 29.72a.26.26 0 0 1-.46.16Q290.75 373.93 286 367.8q-6.08-7.85-8.14-16.8a.53.52 56.9 0 0-.93-.2c-2.01 2.64-3.49 5.53-4.45 9.35q-1.32 5.24-2.7 10.78-2.45-9.26-1.93-18.53.54-9.63 4.7-17.93c5.86-11.68 13.24-18.28 24.82-30.38 10.25-10.72 17.51-21.05 27.16-34.64q3.47-4.9 9.05-14.17 3.76-6.24 8.99-14.19 3.13-4.76 5.3-7.71l7.81-1.65a.33.33 0 0 0 .02-.64q-5.86-1.73-12-1.44l-2.7-.1a.24.24 0 0 1-.11-.45q.91-.52 1.6-.58a.43.42-10.4 0 0 .37-.53q-.17-.61.66-1.21.52-.38 5.85-3.84c5.53-3.59 10.73-5.2 17.13-6.05a.71.71 0 0 0 .36-1.25l-7.44-6.13a.48.48 0 0 1 .3-.85c6.29-.06 13.02-1.37 19.4-.97q9.14.57 17.71 3.33-.97 1.83-.99 2.83-.52 1.25-1.97 2.44a1.9 1.88 72.4 0 0-.67 1.31v.07a.41.41 0 0 0 .61.39c5.58-3.16 10.84-7.76 16.03-10.9q17.24-10.39 22.22-13.08 12.05-6.5 29.1-12.67 49.45-17.92 98.94-.7c13.91 4.84 27.37 10.75 39.81 18.39q1.33.82 11.36 6.7c6.31 3.7 11.61 8.72 17.95 12.08a.51.5-85.4 0 0 .71-.61c-.45-1.35-2.09-1.97-2.44-3.31m-227.64 110.5q3.44 8.33 11.05 12.75 1.52 1.14 4.05 1.65 6.41 1.28 12.99 1.13 7.26 1.07 14 .04l14.57-.53a1.68 1.67-79.3 0 0 1.47-1.01l1.99-4.68q3.47-.16 4.53-1.31.8-.88 2.21-4.47c8.68-22.21 11.01-52.81-9.89-69.66-14.16-11.42-32.19-11.24-46.98-1.04-21.67 14.95-27.17 43.08-13.46 65.29q1.38 2.24 3.47 1.84m158.8 10.26q-7.32-4.65-13.85-6.27a.41.41 0 0 0-.44.62l.18.26a1.43 1.4-.7 0 0 .43.41c11.52 7.04 21.55 19.42 28.78 30.82a.35.35 0 0 0 .63-.27q-2.35-9.43-7.76-17.83.25-1.36 1.35-2.63l8.32.24 19.01.41 15.55-1.71a1.22 1.21-73.1 0 0 .82-.44l.82-1.03q-.19.72.89-.04 6.49-4.57 9.83-11.68 1.09-1.3 1.97-1.12.9.18 1.33-.67c2.64-5.18 4.53-8.34 5.89-12.95q4.69-15.81-1.1-30.92c-9.84-25.64-41.61-40.77-65.15-21.34-16.47 13.59-17.79 35.08-13.52 54.47q.33 1.5 3.23 10.76 1.63 5.21 2.79 10.91m-109.34 25.67c8.29-12.3 17.47-23.41 29.68-31.16a.48.48 0 0 0-.38-.87c-16.64 4.27-25.74 15.3-29.76 31.83a.26.25-21.4 0 0 .46.2"/><path fill="#f9db8d" d="M396.83 211.02q-8.57-2.76-17.71-3.33c-6.38-.4-13.11.91-19.4.97a.48.48 0 0 0-.3.85l7.44 6.13a.71.71 0 0 1-.36 1.25c-6.4.85-11.6 2.46-17.13 6.05q-5.33 3.46-5.85 3.84-.83.6-.66 1.21a.43.42-10.4 0 1-.37.53q-.69.06-1.6.58a.24.24 0 0 0 .11.45l2.7.1q-7.14.24-14.11 2.28a.24.23-77.5 0 1-.24-.38q11.49-13.04 28.19-17.49a.56.56 0 0 0 .14-1.03l-8.02-4.63a.45.45 0 0 1 .03-.8c16.55-7.62 34.32-7.79 52.29-5.92a.39.39 0 0 1 .29.6zM681.13 229.55q-3.5-4.2-7.01-6.69-7.65-5.41-17.16-6.32a.49.49 0 0 1-.35-.77q2.38-3.38 6.5-5.61a.75.75 0 0 0-.26-1.41q-18.25-2.48-36.69 2.01l-5.05-8.15a.36.36 0 0 1 .25-.54q21.86-3.24 42.63 2.01 2.01.51 9.53 3.8a.33.33 0 0 1 .03.58l-7.96 4.6a.59.59 0 0 0 .16 1.09q17.25 4.24 29.07 17.83a.17.16-11.1 0 1-.18.26q-6.98-2.18-13.51-2.69M747.76 394.09q-1.4.23-.44-1.61 4.67-8.97 6.3-19.13 3.65-12.15 2.19-25.11-.42-3.7-2-7.81-4.66-12.12-13.31-21.44c-8.52-9.18-18.29-18.41-26.22-28.58q-13.67-17.54-21.89-31.12-9.23-15.27-12.39-19.44c-.86-1.14-1.39-2.52-2.18-3.91a1.64 1.6-2 0 0-.75-.68q-1.41-.65-1.61-1.97l9.04 2.7a1.31 1.29 82 0 1 .72.55q24 38.6 55.75 71.23 5.47 5.62 12.14 14.87c9.18 12.73 13.77 27.29 8.79 42.56q-5.02 15.39-14.14 28.89M347.87 233.38q-2.17 2.95-5.3 7.71-5.23 7.95-8.99 14.19-5.58 9.27-9.05 14.17c-9.65 13.59-16.91 23.92-27.16 34.64-11.58 12.1-18.96 18.7-24.82 30.38q-4.16 8.3-4.7 17.93-.52 9.27 1.93 18.53 2.88 11.43 7.55 23.8-7.18-9.76-12.07-21.5-3.27-7.87-4.23-12.27c-4.51-20.54 8.1-38.15 21.22-52.46q13.84-15.11 18.84-20.91 20.86-24.2 37.53-51.33a1.33 1.32 8 0 1 .76-.57z"/><path fill="#764118" d="m636.41 240.78 1.12 1.51q-.49-.01-.53.55-2.34-2.89-.59-2.06"/><path fill="#da8a33" d="M753.62 373.35q-1.63 10.16-6.3 19.13-.96 1.84.44 1.61l-7.45 11.86a.36.36 0 0 1-.66-.13q-1.79-9.66-1.11-18.49a.3.3 0 0 0-.56-.18c-3.26 5.42-6.73 9.95-9.84 15.82q-1.01 1.91-6.54 12.35-2.84 5.35-6.58 16.93-4.45 13.79-2.29 28.16a.37.37 0 0 1-.42.42q-11.61-1.69-23.69-10.93-16.39-12.54-23.43-32.09c-9.05-25.09-4.59-52.05-1.71-77.82q2.68-24.02-1.75-47.65c-3.41-18.17-11.39-36.64-24.2-50.05l-1.12-1.51 2.19.24a1.38 1.36 68.8 0 1 .74.33c8.62 7.6 15.36 16.89 21.27 27.01q4.62 7.91 6.48 15.59c1.71 7.08 3.37 12.74 4.75 19.76q.78 3.99.99 7.16 1.38 20.39.65 31.14c-1.24 18.39-2.27 34.79.63 51.68 2.54 14.83 9.72 29.96 20.01 41.43q5.33 5.96 13.25 13.16a.87.87 0 0 0 1.38-.3q.25-.59.21-1.01-1.83-20.49-.03-40.36.19-2.11 2.16-20.04 1.52-13.81-.74-27.49a.4.39-68.7 0 1 .7-.31q9.98 12.74 10.42 29.12a.36.36 0 0 0 .62.24c.83-.82 1.32-2.18 2.17-3.25q5.71-7.23 12.54-15.71c3-3.73 6.06-8.18 7.42-12.43q1.85-5.79 1.91-5.84a.5.49-40 0 1 .74.06q3.95 5.33 5.19 11.68 1.02 5.2 1.56 10.71M386.19 241.76q-19 21.72-24.24 50.96-4.94 27.63-1.1 54.84c1.92 13.55 3.15 26.89 3.14 38.44q-.02 11.88-2.99 23.72-6.82 27.25-29.92 43.33-8.75 6.09-19.21 7.97a.48.47-11.4 0 1-.55-.36q-.11-.48-.02-.92 2.56-12.93-1.38-25.69c-2.18-7.08-4.09-12.59-7.31-18.98q-7.32-14.51-16.41-27.83a.3.3 0 0 0-.55.19q.56 9.6-1.33 19.1a.14.14 0 0 1-.26.05l-6.73-11.85q-4.67-12.37-7.55-23.8 1.38-5.54 2.7-10.78c.96-3.82 2.44-6.71 4.45-9.35a.53.52 56.9 0 1 .93.2q2.06 8.95 8.14 16.8 4.75 6.13 16.27 20.76a.26.26 0 0 0 .46-.16q-.22-16.43 10.04-29.72a.29.29 0 0 1 .52.22c-2.24 17.13-.24 31.01 2.07 49.94q1.16 9.56 1.16 24.49c0 4.58-1.03 8.69-1.29 13.75a.92.86-25.6 0 1-.21.54q-.55.7.04 1.14.63.47 1.03-.06c2.71-3.54 7.04-6.5 10.34-10.14 7.69-8.47 12.37-14.89 16.83-24.79q8.73-19.37 8.71-40.77-.01-11.36-.43-16.24-1.32-15.22-1.22-35.51.02-4.22.63-8.62 2.41-17.7 5.61-29.09 1.95-6.97 6.17-14.34 8.07-14.12 18.19-25.49.73-.81 2.22-2.02 1.33-1.08 1.82-.17a.6.59-16.1 0 0 .55.3z"/><path fill="#da8a33" d="M444.39 478.06q.85 14.7 7.7 28.12c20.51 40.24 74.27 49.59 107.7 19.95q21.64-19.2 22.98-51.5 15.38-4.66 27.83-13.97 13.75-10.29 20.28-23.4 7.07-14.21 7.72-30.99c.29-7.44-.17-15.66.3-23.36q1.04-17.01 3.26-31.09 2.24-14.15 2.6-18.85c.61-7.97 2.33-17.07 2.37-25.28q.08-15.63-1.29-27.96t-4.32-20.5q-2.6-7.21-2.76-12.74 16.18 31.61 16.31 66.27.03 6.95-.58 17.72c-.59 10.35-2.04 21.8-3.26 31.23-1.62 12.54-1.8 26.05-.48 38.03q1.17 10.64 5.48 22.92a1.22 1.19-40.5 0 1-.09.99q-10.59 18.66-22.58 31.68-11.15 12.11-23.24 22.52a.25.25 0 0 0 .25.42q33.13-13.05 50.76-43.63a.33.33 0 0 1 .56-.03l6.22 8.62q-1 6.77-.78 13.02.3 8.26 2.13 16.31 3.19 14.05 9.52 27.18-.15.99.08 1.94a.83.82-78.1 0 1-1.3.85q-5.73-4.35-10.22-8.06-11.64-9.57-17.85-22.41-.96-1.98-1.45-3.97a.67.66-27.3 0 0-1.08-.34q-10.33 8.82-22.4 13.77-17.75 7.28-35.88 11.6-2.49.59-2.9 2.87-3.58 20.26-11.68 36.8c-10.44 21.34-30.78 38.4-54.82 41.04-31.52 3.46-57.69-18.63-69.84-46.68q-3.92-9.04-7.44-22.87c-.62-2.46-.6-5.45-.89-8.4a1.56 1.56 0 0 0-1.21-1.37q-17.39-4.08-35.6-11.03-.02-.01-3.36-1.19-5.01-1.78-9.79-4.6-8.13-4.78-15.49-10.22a.52.51 25.9 0 0-.8.27c-3.24 11.28-10.69 19.43-19.32 27.01q-5.04 4.44-11.56 8.35 2.73-7.5 5.29-14.32 3.56-9.46 4.66-14.5c1.78-8.09 2.96-16.06 2.56-24.37q-.18-3.71-.11-7.7l5.03-7.34a.6.6 0 0 1 1.02.04q17.39 29.9 49.64 43.13.4.16.85.13a.26.26 0 0 0 .15-.46c-18.42-15.33-34.32-32.85-45.74-53.76a1.63 1.62-49.4 0 1-.1-1.35c7.13-19.18 7.79-38.41 4.96-59.97-1.93-14.72-3.8-31.11-3.88-46.88q-.19-38.33 17.78-71.98.65 2.57-.14 4.24-3.09 6.53-4.66 13.24c-1.61 6.86-2.91 11.18-3.52 17.68q-1.15 12.2-1.32 15.44-.39 7.4.33 19.89.66 11.45 4.56 38.43 2.47 17.09 2.95 24.71.4 6.18.48 27.79c.09 22.02 10.08 43.34 28.55 55.88 9.05 6.15 16.59 9.68 26.03 13.18a5.21 5.18-13.9 0 1 1.57.94z"/><path fill="#da8a33" d="M459.97 333.81q2.23-7.33 3.3-13.3c1.78-9.84 1.14-20.47-2.97-29.75-5.22-11.79-16.89-19.7-30.04-18.25q-17.64 1.95-27.07 17.19-9.95 16.05-3.34 34.76-2.09.4-3.47-1.84c-13.71-22.21-8.21-50.34 13.46-65.29 14.79-10.2 32.82-10.38 46.98 1.04 20.9 16.85 18.57 47.45 9.89 69.66q-1.41 3.59-2.21 4.47-1.06 1.15-4.53 1.31M623.21 325.58q7.6-20.08-4.09-37.21c-15.09-22.08-48.58-21.9-57.42 6.18-4.5 14.3-1.78 29.69 3.75 44.03a1.45 1.44-83.4 0 0 .52.66q.82.58 2 .59-1.1 1.27-1.35 2.63l-7.97-7.74q-1.16-5.7-2.79-10.91-2.9-9.26-3.23-10.76c-4.27-19.39-2.95-40.88 13.52-54.47 23.54-19.43 55.31-4.3 65.15 21.34q5.79 15.11 1.1 30.92c-1.36 4.61-3.25 7.77-5.89 12.95q-.43.85-1.33.67-.88-.18-1.97 1.12"/><path fill="#060302" d="m459.97 333.81-1.99 4.68a1.68 1.67-79.3 0 1-1.47 1.01l-14.57.53c-12.47-1.87-20.12-10.56-20.31-22.99-.17-10.85 4.18-20.13 14.28-24.27q4.53-1.86 11.91-1.82a.88.77 48.9 0 1 .22.03l7.3 1.98a.33.33 0 0 0 .38-.47q-1.55-2.84-3.62-4.45-11.27-10.66-24.98-5.96-16.06 5.52-21.58 22.73-5.35 16.67 5.36 32.4-7.61-4.42-11.05-12.75-6.61-18.71 3.34-34.76 9.43-15.24 27.07-17.19c13.15-1.45 24.82 6.46 30.04 18.25 4.11 9.28 4.75 19.91 2.97 29.75q-1.07 5.97-3.3 13.3m-15.12-39.024a8.18 7.92-95.4 0 0-7.115 8.89 8.18 7.92-95.4 0 0 8.655 7.398 8.18 7.92-95.4 0 0 7.115-8.89 8.18 7.92-95.4 0 0-8.655-7.398m-11.54 27.474a3.88 3.88 0 0 0-3.88-3.88 3.88 3.88 0 0 0-3.88 3.88 3.88 3.88 0 0 0 3.88 3.88 3.88 3.88 0 0 0 3.88-3.88M623.21 325.58q-3.34 7.11-9.83 11.68-1.08.76-.89.04 11.25-15.84 4.86-33.91c-6.54-18.55-30.23-31.29-46.37-14.87q-.38.23-.68.69l-2.5 3.13a.46.46 0 0 0 .53.72q9.97-3.87 19.62.19c11.23 4.71 15.12 16.91 13.43 28.14q-1.05 7.01-4.8 10.97-5.03 5.31-12.17 7.15c-2.38.62-5.41.43-8.12.56l-8.32-.24q-1.18-.01-2-.59a1.45 1.44-83.4 0 1-.52-.66c-5.53-14.34-8.25-29.73-3.75-44.03 8.84-28.08 42.33-28.26 57.42-6.18q11.69 17.13 4.09 37.21m-45.213-30.57a8.13 7.84-90.3 0 0-7.797 8.171 8.13 7.84-90.3 0 0 7.883 8.089 8.13 7.84-90.3 0 0 7.797-8.171 8.13 7.84-90.3 0 0-7.883-8.089m20.073 27.6a3.66 3.66 0 0 0-3.66-3.66 3.66 3.66 0 0 0-3.66 3.66 3.66 3.66 0 0 0 3.66 3.66 3.66 3.66 0 0 0 3.66-3.66"/><path fill="#fdfdfd" d="M452.1 288.04q-16.64-5.1-28.39 4.97c-14.04 12.03-14.24 38.51 4.23 46.98q-6.58.15-12.99-1.13-2.53-.51-4.05-1.65-10.71-15.73-5.36-32.4 5.52-17.21 21.58-22.73 13.71-4.7 24.98 5.96M612.49 337.3l-.82 1.03a1.22 1.21-73.1 0 1-.82.44l-15.55 1.71q7.66-4.37 10.71-10c6.7-12.35 4.04-27.85-6.4-37.11-6.95-6.16-19.09-8.99-28.39-4.65q-.11-.12-.24-.2c16.14-16.42 39.83-3.68 46.37 14.87q6.39 18.07-4.86 33.91"/><path fill="#764118" d="M452.1 288.04q2.07 1.61 3.62 4.45a.33.33 0 0 1-.38.47l-7.3-1.98a.88.77 48.9 0 0-.22-.03q-7.38-.04-11.91 1.82c-10.1 4.14-14.45 13.42-14.28 24.27.19 12.43 7.84 21.12 20.31 22.99q-6.74 1.03-14-.04c-18.47-8.47-18.27-34.95-4.23-46.98q11.75-10.07 28.39-4.97M595.3 340.48l-19.01-.41c2.71-.13 5.74.06 8.12-.56q7.14-1.84 12.17-7.15 3.75-3.96 4.8-10.97c1.69-11.23-2.2-23.43-13.43-28.14q-9.65-4.06-19.62-.19a.46.46 0 0 1-.53-.72l2.5-3.13q.55-.11.92-.49c9.3-4.34 21.44-1.51 28.39 4.65 10.44 9.26 13.1 24.76 6.4 37.11q-3.05 5.63-10.71 10"/><path fill="#da8a33" d="M570.98 288.52q.13.08.24.2-.37.38-.92.49.3-.46.68-.69"/><ellipse fill="#fdfdfd" rx="8.18" ry="7.92" transform="rotate(-95.4 360.633 -51.277)"/><ellipse fill="#fdfdfd" rx="8.13" ry="7.84" transform="rotate(-90.3 439.798 -135.94)"/><circle cx="429.43" cy="322.26" r="3.88" fill="#fdfdfd"/><circle cx="594.41" cy="322.61" r="3.66" fill="#fdfdfd"/><path fill="#060302" d="M449.31 360.39a.26.25-21.4 0 1-.46-.2c4.02-16.53 13.12-27.56 29.76-31.83a.48.48 0 0 1 .38.87c-12.21 7.75-21.39 18.86-29.68 31.16M558.65 334.72l7.97 7.74q5.41 8.4 7.76 17.83a.35.35 0 0 1-.63.27c-7.23-11.4-17.26-23.78-28.78-30.82a1.43 1.4-.7 0 1-.43-.41l-.18-.26a.41.41 0 0 1 .44-.62q6.53 1.62 13.85 6.27M582.77 474.63q-1.34 32.3-22.98 51.5c-33.43 29.64-87.19 20.29-107.7-19.95q-6.85-13.42-7.7-28.12-.58-17.22 6.1-32.1a.63.63 0 0 0-.26-.79c-18.37-10.53-27.85-30.68-29.93-51.53a.87.87 0 0 0-1.11-.75q-6.27 1.85-11.86 5.6a.28.28 0 0 1-.43-.27c1.38-9.18 8.29-15.42 17.64-14.64q6.7.56 12.04 6.93a.46.46 0 0 1-.37.75l-8.85-.32a.92.91-4.9 0 0-.93 1.1q3.11 14.91 10.88 28.15c5.73 9.75 16.54 19.34 28.16 20.34 15.75 1.36 27.93-5.71 41.4-15.79a.98.96 72.8 0 0 .39-.76l.49-13.25a.82.81-82.1 0 0-.61-.82q-19.68-5.24-32.12-20.92c-4.99-6.3-9.17-15.87-8.23-23.67 1.6-13.26 15.73-19.7 27.92-21.4 16.66-2.32 51.1-3.12 60.17 15.1 3.14 6.29 1.89 14.66-1.11 20.78-7.34 14.97-21.42 25.71-37.46 29.92a.74.74 0 0 0-.55.74l.32 12.54a2.06 2.06 0 0 0 .72 1.52q8.19 7.04 18.89 12.11 9.44 4.47 19.88 4.15 13.54-.41 23.51-11.21c9.87-10.71 14.72-23.3 17.95-37.48a.66.66 0 0 0-.62-.81l-9.49-.35a.18.18 0 0 1-.14-.29c9.17-11.85 27.52-8.01 29.59 7.31a.27.27 0 0 1-.41.26q-5.55-3.55-11.9-5.44a.65.64-79.1 0 0-.83.57c-1.81 19.79-10.21 39.39-27.4 50.54a.62.62 0 0 0-.22.79q7.3 15.12 7.16 29.96m-71.11-112.09q8.25.01 16.81-.78 5.01-.46 9.24-2.15a1.29 1.28-26.3 0 0 .63-1.85c-2.84-4.74-21.48-5.93-26.67-5.94-5.18-.01-23.82 1.13-26.68 5.85a1.29 1.28 26.5 0 0 .63 1.86q4.22 1.7 9.22 2.17 8.56.82 16.82.84m-56.46 94.41q-2.14 6.08-2.59 12.25-.46 10.15.03 13.39.83 5.53 4.54 14.94 3.48 8.82 7.72 13.67 3.19 3.64 8.04 8.54c6.19 6.26 14.43 10.05 22.84 13.02q5.98 2.11 14.05 2.37c8.21.27 15.17.01 21.98-2.63q3.66-1.42 8.14-3.31c14.92-6.29 25.71-19.45 31.06-34.51q6.27-17.63 1.44-35.36-1.36-5.01-3.65-10.49a1.17 1.16-16.5 0 0-1.3-.7c-6.39 1.21-12.05 2.23-18.66 1.33q-5.8-.79-12.98-3.13-12.31-4.02-22.64-13.63a1.45 1.44-41.8 0 0-1.85-.1c-4.69 3.49-8.53 6.9-13.49 9.39q-6.46 3.24-14.61 5.75c-8.02 2.47-16.36 2.29-24.13 1.02a.96.95-74.8 0 0-1.05.61z"/><path fill="#fdfdfd" d="M511.67 351.82c5.19.01 23.83 1.2 26.67 5.94a1.29 1.28-26.3 0 1-.63 1.85q-4.23 1.69-9.24 2.15-8.56.79-16.81.78-8.26-.02-16.82-.84-5-.47-9.22-2.17a1.29 1.28 26.5 0 1-.63-1.86c2.86-4.72 21.5-5.86 26.68-5.85"/><path fill="#be221e" d="M452.61 469.2q-.11 8.71 3.7 16.2c2.26 4.45 6.04 8.7 9.12 12.86a14.73 14.59-88.8 0 0 2.48 2.61c7.09 5.85 16.88 11.87 25.74 13.8 18.43 4.01 37.63-.22 52.69-11.08q8.24-5.94 12.96-12.55 5.47-7.65 8.61-15.9 1.16-3.06 1.81-11.11c.22-2.75 1.43-5.5 1.14-8.28a1.57 1.57 0 0 0-1.75-1.4q-1.5.18-2.71.57-14.43 4.66-29.79-.6c-8.51-2.9-16.66-6.33-22.95-12.67a1.6 1.59 44.6 0 0-2.28.01c-5.61 5.8-11.9 8.93-21.06 11.68q-11.95 4.19-25.43 2.39l-9.69 1.22 2.89-7.58a.96.95-74.8 0 1 1.05-.61c7.77 1.27 16.11 1.45 24.13-1.02q8.15-2.51 14.61-5.75c4.96-2.49 8.8-5.9 13.49-9.39a1.45 1.44-41.8 0 1 1.85.1q10.33 9.61 22.64 13.63 7.18 2.34 12.98 3.13c6.61.9 12.27-.12 18.66-1.33a1.17 1.16-16.5 0 1 1.3.7q2.29 5.48 3.65 10.49 4.83 17.73-1.44 35.36c-5.35 15.06-16.14 28.22-31.06 34.51q-4.48 1.89-8.14 3.31c-6.81 2.64-13.77 2.9-21.98 2.63q-8.07-.26-14.05-2.37c-8.41-2.97-16.65-6.76-22.84-13.02q-4.85-4.9-8.04-8.54-4.24-4.85-7.72-13.67-3.71-9.41-4.54-14.94-.49-3.24-.03-13.39"/><path fill="#ea3631" d="M452.61 469.2q.45-6.17 2.59-12.25l9.69-1.22q1.89 9.69 10.61 11.47c8.58 1.75 15.85-4.27 16.56-12.91a.92.91 1.4 0 0-.95-.99l-.79.04c9.16-2.75 15.45-5.88 21.06-11.68a1.6 1.59 44.6 0 1 2.28-.01c6.29 6.34 14.44 9.77 22.95 12.67q15.36 5.26 29.79.6 1.21-.39 2.71-.57a1.57 1.57 0 0 1 1.75 1.4c.29 2.78-.92 5.53-1.14 8.28q-.65 8.05-1.81 11.11-3.14 8.25-8.61 15.9-4.72 6.61-12.96 12.55c-15.06 10.86-34.26 15.09-52.69 11.08-8.86-1.93-18.65-7.95-25.74-13.8a14.73 14.59-88.8 0 1-2.48-2.61c-3.08-4.16-6.86-8.41-9.12-12.86q-3.81-7.49-3.7-16.2"/><path fill="#f9db8d" d="M356.58 442.21q-.07 3.99.11 7.7c.4 8.31-.78 16.28-2.56 24.37q-1.1 5.04-4.66 14.5-2.56 6.82-5.29 14.32-3.49 11.27-5.8 22.83-2.31 11.53-.9 23.95l-6.62 10.8a.21.21 0 0 1-.38-.07q-4.3-21.98 1.9-43.01c4.05-13.73 9.94-26.41 16.07-41.15q6.06-14.58 4.53-29.85a1.06 1.04 64.5 0 1 .28-.81zM668.11 443.23l2.51 2.78a1.08 1.08 0 0 1 .28.82q-1.39 15.81 4.97 30.56c6.74 15.61 14.01 31.3 17.26 46.95q3.75 18.05.08 36.29a.27.27 0 0 1-.5.09l-6.11-10.24q.51-14.57-1.77-26.55-1.96-10.27-5.85-24.19-6.33-13.13-9.52-27.18-1.83-8.05-2.13-16.31-.22-6.25.78-13.02M464.89 455.73q13.48 1.8 25.43-2.39l.79-.04a.92.91 1.4 0 1 .95.99c-.71 8.64-7.98 14.66-16.56 12.91q-8.72-1.78-10.61-11.47"/><path fill="#eeae4a" d="M678.98 499.74q3.89 13.92 5.85 24.19 2.28 11.98 1.77 26.55-6.14-7.12-12.4-11.54a.3.3 0 0 0-.47.29q2.95 18.22-1.75 36.24c-7.64 29.23-24.93 54.75-47.82 74.58q-1.14-2.11.96-6.36 3.41-6.91 5.83-15.09c5.53-18.76 7.55-37.93.8-56.23a.44.44 0 0 0-.85.07q-1.78 8.77-5.63 17.6-7.74 17.74-19.98 33.22-5.76 7.29-19.84 21c-3.36 3.27-7.63 5.96-11.25 9.44q-.44.43-.79-.09-.1-.16-.02-.56c10.35-14.72 15.87-31.75 13.5-49.45a.28.28 0 0 0-.55-.04q-.5 1.76-1.07 4.2-4.17 17.73-12.94 32.79-8.44 14.51-21.65 24.35a.23.23 0 0 1-.35-.28q3.67-8.75 3.86-18.64a.38.38 0 0 0-.73-.16c-5.29 12.78-11.88 20.34-22.49 34.66q-3.5 4.72-7.03 13.16-7.51 9.07-12.11 20.95a.33.33 0 0 1-.61.01q-4.7-11.47-11.87-20.59c-4.25-10.15-10.01-17.46-17.04-26.71-5.74-7.53-9.44-13.75-12.76-21.81a.27.27 0 0 0-.52.1q.18 10.54 4.32 19.74a.11.11 0 0 1-.16.14c-19.51-13.97-30.88-37.3-35.53-60.62a1 .94-69.8 0 0-.14-.33q-.12-.19-.18-.24a.47.47 0 0 0-.79.29c-2.1 17.92 4.05 34.96 14 49.28l-.61.67a.41.4-42.5 0 1-.62-.02q-2.53-3.35-5.34-5.17-3.52-2.29-7.52-6.04-10.15-9.53-17.28-18.41-19.07-23.72-26.9-52.65a.25.24 49.8 0 0-.46-.04q-1.42 3.04-2.36 7.26c-5.2 23.33.74 49.53 12.06 70.14q.43.77-.23 1.38-.23.22-.72.15-34.08-28.19-47.25-70.13-6.47-20.58-3.47-41.68a.39.39 0 0 0-.61-.37q-6.55 4.76-11.76 10.94-1.41-12.42.9-23.95 2.31-11.56 5.8-22.83 6.52-3.91 11.56-8.35c8.63-7.58 16.08-15.73 19.32-27.01a.52.51 25.9 0 1 .8-.27q7.36 5.44 15.49 10.22 4.78 2.82 9.79 4.6 3.34 1.18 3.36 1.19 18.21 6.95 35.6 11.03a1.56 1.56 0 0 1 1.21 1.37c.29 2.95.27 5.94.89 8.4q3.52 13.83 7.44 22.87c12.15 28.05 38.32 50.14 69.84 46.68 24.04-2.64 44.38-19.7 54.82-41.04q8.1-16.54 11.68-36.8.41-2.28 2.9-2.87 18.13-4.32 35.88-11.6 12.07-4.95 22.4-13.77a.67.66-27.3 0 1 1.08.34q.49 1.99 1.45 3.97 6.21 12.84 17.85 22.41 4.49 3.71 10.22 8.06a.83.82-78.1 0 0 1.3-.85q-.23-.95-.08-1.94m-269.81 82.69q-2.5-6.71-3-7.89c-5.05-11.92-6.01-24.69-4.98-37.31a.42.41-23.5 0 0-.74-.29q-6.14 7.75-6.92 18.01a.26.26 0 0 1-.48.12q-6.02-8.83-7.19-19.55-1.73-15.83 1.81-30.56a.41.41 0 0 0-.72-.35q-1.68 2.16-3.12 5.2c-6.22 13.16-7.05 28.88-1.18 42.11q2.96 6.68 11.42 13.24a9.4 9.4 0 0 1 1.62 1.62q.79 1 2.78 4.48c2.48 4.35 6.2 8.49 9.91 11.71a.5.49 10.5 0 0 .79-.54m221.06-27.89q-.99-10.02-7.34-17.67a.35.35 0 0 0-.61.25q1.11 12.72-1.26 24.91c-1.17 6.03-4.63 13.88-5.87 18.05-.3 1-1.22 1.87-1.11 3.04a.54.54 0 0 0 .89.35c5.28-4.69 7.74-8.37 12.13-15.74a6.3 6.09-6.1 0 1 1.31-1.57q2.58-2.23 4.21-3.58 7.83-6.54 10.53-16.65 5.73-21.52-5.54-40.23-.44-.72-.83-.96a.38.38 0 0 0-.57.42q3.75 15.9 1.42 32.04-1.41 9.78-6.82 17.48a.3.3 0 0 1-.54-.14m-79.14 61.57c.11-1.47.83-2.8 1.15-4.51q2.79-14.61-.77-28.46a.45.45 0 0 0-.89.12q.45 24.85-11.59 46.45a.49.49 0 0 0 .61.69q12.25-4.98 21.35-13.7c4.82-4.62 7.39-10.08 10.46-16.9a8.58 8.49-12.5 0 1 1.43-2.22c1.88-2.09 4.19-3.65 6.01-5.96 11.26-14.35 14.04-33.67 8.39-50.95a.26.26 0 0 0-.47-.06q-.27.4-.21 1.12 1.71 21.03-7.87 39.73-1.02 1.98-2.43 3.59a.52.52 0 0 1-.9-.27q-.9-6.89-3.48-13.56a.26.26 0 0 0-.51.1q.36 11.27-3.47 21.94c-1.82 5.06-3.15 8.52-6.12 12.28q-5.12 6.47-9.86 10.96a.49.49 0 0 1-.83-.39m-99.55-44.59q-2.4 5.84-3.21 13.49a.62.62 0 0 1-1.09.34q-1.92-2.27-3.35-5.27-8.63-18.09-7.08-38.97a.05.03-76.7 0 0-.01-.03l-.46-.29a.29.29 0 0 0-.44.2c-.97 5.73-2.59 11.09-2.63 17.08q-.11 14.81 7.68 28.18 3.47 5.96 5.7 7.83 4.19 3.52 5.39 5.88c3.49 6.84 5.56 13.02 11.12 17.87q9.58 8.34 21.52 12.97a.39.39 0 0 0 .48-.57q-8.56-14-11.05-31.06-1.16-7.95-1.22-15.58a.44.44 0 0 0-.87-.1q-4.07 17.38.97 32.91a.57.57 0 0 1-.74.71q-.84-.31-1.96-1.45c-5.28-5.38-10.7-12.01-13.6-19.43q-4.83-12.31-4.45-24.56a.36.36 0 0 0-.7-.15"/><path fill="#da8a33" d="M409.17 582.43a.5.49 10.5 0 1-.79.54c-3.71-3.22-7.43-7.36-9.91-11.71q-1.99-3.48-2.78-4.48a9.4 9.4 0 0 0-1.62-1.62q-8.46-6.56-11.42-13.24c-5.87-13.23-5.04-28.95 1.18-42.11q1.44-3.04 3.12-5.2a.41.41 0 0 1 .72.35q-3.54 14.73-1.81 30.56 1.17 10.72 7.19 19.55a.26.26 0 0 0 .48-.12q.78-10.26 6.92-18.01a.42.41-23.5 0 1 .74.29c-1.03 12.62-.07 25.39 4.98 37.31q.5 1.18 3 7.89M630.23 554.54a.3.3 0 0 0 .54.14q5.41-7.7 6.82-17.48 2.33-16.14-1.42-32.04a.38.38 0 0 1 .57-.42q.39.24.83.96 11.27 18.71 5.54 40.23-2.7 10.11-10.53 16.65-1.63 1.35-4.21 3.58a6.3 6.09-6.1 0 0-1.31 1.57c-4.39 7.37-6.85 11.05-12.13 15.74a.54.54 0 0 1-.89-.35c-.11-1.17.81-2.04 1.11-3.04 1.24-4.17 4.7-12.02 5.87-18.05q2.37-12.19 1.26-24.91a.35.35 0 0 1 .61-.25q6.35 7.65 7.34 17.67"/><path fill="#f9db8d" d="M551.09 616.11a.49.49 0 0 0 .83.39q4.74-4.49 9.86-10.96c2.97-3.76 4.3-7.22 6.12-12.28q3.83-10.67 3.47-21.94a.26.26 0 0 1 .51-.1q2.58 6.67 3.48 13.56a.52.52 0 0 0 .9.27q1.41-1.61 2.43-3.59 9.58-18.7 7.87-39.73-.06-.72.21-1.12a.26.26 0 0 1 .47.06c5.65 17.28 2.87 36.6-8.39 50.95-1.82 2.31-4.13 3.87-6.01 5.96a8.58 8.49-12.5 0 0-1.43 2.22c-3.07 6.82-5.64 12.28-10.46 16.9q-9.1 8.72-21.35 13.7a.49.49 0 0 1-.61-.69q12.04-21.6 11.59-46.45a.45.45 0 0 1 .89-.12q3.56 13.85.77 28.46c-.32 1.71-1.04 3.04-1.15 4.51M451.54 571.52a.36.36 0 0 1 .7.15q-.38 12.25 4.45 24.56c2.9 7.42 8.32 14.05 13.6 19.43q1.12 1.14 1.96 1.45a.57.57 0 0 0 .74-.71q-5.04-15.53-.97-32.91a.44.44 0 0 1 .87.1q.06 7.63 1.22 15.58 2.49 17.06 11.05 31.06a.39.39 0 0 1-.48.57q-11.94-4.63-21.52-12.97c-5.56-4.85-7.63-11.03-11.12-17.87q-1.2-2.36-5.39-5.88-2.23-1.87-5.7-7.83-7.79-13.37-7.68-28.18c.04-5.99 1.66-11.35 2.63-17.08a.29.29 0 0 1 .44-.2l.46.29a.05.03-76.7 0 1 .01.03q-1.55 20.88 7.08 38.97 1.43 3 3.35 5.27a.62.62 0 0 0 1.09-.34q.81-7.65 3.21-13.49"/><path fill="#da8a33" d="M450.55 653.85c9.17 11.66 20.53 19.73 33.44 26.9q6.18 3.42 15.36 13.26 7.17 9.12 11.87 20.59a.33.33 0 0 0 .61-.01q4.6-11.88 12.11-20.95 8.26-8.57 17.64-14.29 4.35-2.66 8.69-5.33 13.55-8.36 23.12-20.97-.08.4.02.56.35.52.79.09c3.62-3.48 7.89-6.17 11.25-9.44q14.08-13.71 19.84-21 12.24-15.48 19.98-33.22 3.85-8.83 5.63-17.6a.44.44 0 0 1 .85-.07c6.75 18.3 4.73 37.47-.8 56.23q-2.42 8.18-5.83 15.09-2.1 4.25-.96 6.36l-5.63 4.68a.27.26 74.8 0 1-.43-.25q1.51-9.74 1.02-18.24a.39.39 0 0 0-.77-.09q-.67 2.22-1.68 4.52-12.77 28.86-38.23 47.02-9.63 6.88-16.86 11.12c-18.8 11.04-39.07 21.59-49.93 41.64a.32.32 0 0 1-.57-.01c-7.25-13.57-18.91-23.1-32.57-31.24-23.82-14.22-48.11-27.82-63.02-52.15q-6.57-10.73-10.82-21.47a.14.14 0 0 0-.27.04q-.82 9.46.9 18.64a.29.29 0 0 1-.46.28l-4.27-3.42q.49.07.72-.15.66-.61.23-1.38c-11.32-20.61-17.26-46.81-12.06-70.14q.94-4.22 2.36-7.26a.25.24 49.8 0 1 .46.04q7.83 28.93 26.9 52.65 7.13 8.88 17.28 18.41 4 3.75 7.52 6.04 2.81 1.82 5.34 5.17a.41.4-42.5 0 0 .62.02z"/><path fill="#f9db8d" d="M349.04 598.27q-.1 7.16 1.92 13.94a3.5 3.5 0 0 1 .14.98q-.01 4.7.81 9.52 1.47 8.58 1.49 8.67 1.95 10.38 2.78 13 3 9.51 12.3 34.64 3.11 8.42 7.83 18.51 6.18 13.22 8.28 18.39 2.42 5.94 6.09 13.08 2.06 4.01 6.36 13 1.22 2.55 1.35 3.09.44 1.95 1.27 3.11.59.83 1.89 4.68 1.39 4.11 5.83 14.7c2.28 5.44 3.47 10.96 5.3 17.09a2.14 2.14 0 0 0 2.61 1.45q7.45-2.04 13.79.61-10.94-.27-20.54 3.27a.74.74 0 0 1-.98-.54c-2.85-12.9-6.71-24.68-12.58-37.05q-.37-.76-7.62-16.29-1.5-3.22-10.99-22.47c-6.33-12.83-12.87-27.15-17.35-38.17q-4.42-10.87-8.2-24.12-8.95-31.45-5.93-63.41a.3.3 0 0 1 .59-.07zM588.97 787.59q-1.18-.27-2.26.06a.21.21 0 0 1-.26-.12v-.01a.22.21-21.6 0 1 .12-.27c7.27-2.78 14.51-2.02 22.39-.95a1.08 1.08 0 0 0 1.18-.81q1.36-5.64 5.02-16.49c1.7-5.06 3.68-8.88 5.22-13.2q3.09-8.62 5.33-13.34c3.71-7.81 8.46-16.44 12.65-26.17q5.37-12.41 9.23-20.45 4.12-8.59 5.99-13.78c3.53-9.82 6.75-16.95 9.92-26.89q.75-2.35 4.24-12.94c1.48-4.49 2.55-12.18 3.58-16.88.8-3.66 1.81-8.06 1.46-11.73q-.14-1.56-.31-3.25 2-5.82 2.19-12.51l3.35-9.85a.3.29 49.9 0 1 .57.05q.35 2.17.48 4.4c.93 14.86-.03 30.84-3.26 45.65-4.09 18.72-9.98 34.35-18.23 52.69q-6.72 14.93-11.99 25.44c-12.46 24.88-24.28 47.59-30.01 73.93a.43.42 16.5 0 1-.57.3q-12.6-4.93-26.03-2.88"/><path fill="#da8a33" d="M674.66 597.86q-.19 6.69-2.19 12.51-3.2 8.12-6.45 16.11-3.83 9.42-7.34 15.71-6.58 11.81-13.52 22.47-6.78 10.42-16.01 20.7-26.01 28.92-57.65 48.31c-7.18 4.4-12.38 8.59-16.03 14.57q-7.29 11.91-8.51 26.27-1.45 17.1-1.16 39.74c.08 6.96 1.84 13.73 5.86 19 3.59 4.71 11 7.03 16.92 8.08q-.46 4.58-2.39 8.62a.67.66 18.2 0 1-.73.36c-11.44-2.22-23.36-5.48-26.86-17.95q-1.11-3.94-.71-11.61 2.64-50.12 3.07-97.19a1.93 1.93 0 0 1 .91-1.62q6.47-4.13 8.04-5.01 15.1-8.4 30.14-18.38 16.76-11.13 28.92-27a5.13 5.09-82.4 0 1 2.05-1.58q9.08-3.77 16.29-9.91 16.68-14.22 27.64-28.35 11.78-15.19 19.71-33.85"/><path fill="#eeae4a" d="M354.26 609.05q-1.43 1.51-2.09 3.44a1.11 1.08 41 0 0 .07.84q4.52 8.5 7.21 17.46c1.56 5.2 6.86 13.13 9.44 17.88q7.38 13.64 17.96 27.99c2.44 3.31 5.2 5.89 8.09 9.21 16.65 19.15 34.99 34.34 56.19 47.44 8.26 5.11 13.76 9.4 17.79 16.86q7.44 13.73 7.79 30.38.22 10.21.4 23.53c.07 5.27.69 11.17-.38 16.42q-1.07 5.25-3.82 10.07c-3.76 6.57-11 9.56-18.32 10.24q-.67-12.69 4.19-24.21a.5.5 0 0 0-.78-.58c-7.35 6.17-11.8 16.59-11.53 26.01q-1.42.23-2.96.15c-3.32-.18-6.9.73-10.24 1.04q-9.72.92-19.21-2.6-.83-16.1 7.96-29.6a.39.39 0 0 0-.55-.54q-15.41 10.53-16.06 28.73l-12.48-3.51q.98-4.04 1.62-8.34.41-2.75 3.55-8.02 2.48-4.15 10.93-12.78 6.11-6.22 16.05-9.86 5.67-2.07 15.18-.18a4.81 4.4 47.6 0 0 1 .09q2.62-.01 4.74.54 1.4.36 5.76-.36.47.16.9.1a.34.34 0 0 0 .16-.6q-10.38-8.34-23.74-9.56-6.34-2.65-13.79-.61a2.14 2.14 0 0 1-2.61-1.45c-1.83-6.13-3.02-11.65-5.3-17.09q-4.44-10.59-5.83-14.7-1.3-3.85-1.89-4.68-.83-1.16-1.27-3.11-.13-.54-1.35-3.09-4.3-8.99-6.36-13-3.67-7.14-6.09-13.08-2.1-5.17-8.28-18.39-4.72-10.09-7.83-18.51-9.3-25.13-12.3-34.64-.83-2.62-2.78-13-.02-.09-1.49-8.67-.82-4.82-.81-9.52a3.5 3.5 0 0 0-.14-.98q-2.02-6.78-1.92-13.94z"/><path fill="#060302" d="M573.39 653.05q-9.57 12.61-23.12 20.97-4.34 2.67-8.69 5.33-9.38 5.72-17.64 14.29 3.53-8.44 7.03-13.16c10.61-14.32 17.2-21.88 22.49-34.66a.38.38 0 0 1 .73.16q-.19 9.89-3.86 18.64a.23.23 0 0 0 .35.28q13.21-9.84 21.65-24.35 8.77-15.06 12.94-32.79.57-2.44 1.07-4.2a.28.28 0 0 1 .55.04c2.37 17.7-3.15 34.73-13.5 49.45M499.35 694.01q-9.18-9.84-15.36-13.26c-12.91-7.17-24.27-15.24-33.44-26.9-9.95-14.32-16.1-31.36-14-49.28a.47.47 0 0 1 .79-.29q.06.05.18.24a1 .94-69.8 0 1 .14.33c4.65 23.32 16.02 46.65 35.53 60.62a.11.11 0 0 0 .16-.14q-4.14-9.2-4.32-19.74a.27.27 0 0 1 .52-.1c3.32 8.06 7.02 14.28 12.76 21.81 7.03 9.25 12.79 16.56 17.04 26.71"/><path fill="#da8a33" d="M454.59 840.81c7.32-.68 14.56-3.67 18.32-10.24q2.75-4.82 3.82-10.07c1.07-5.25.45-11.15.38-16.42q-.18-13.32-.4-23.53-.35-16.65-7.79-30.38c-4.03-7.46-9.53-11.75-17.79-16.86-21.2-13.1-39.54-28.29-56.19-47.44-2.89-3.32-5.65-5.9-8.09-9.21q-10.58-14.35-17.96-27.99c-2.58-4.75-7.88-12.68-9.44-17.88q-2.69-8.96-7.21-17.46a1.11 1.08 41 0 1-.07-.84q.66-1.93 2.09-3.44 16.97 31.67 45.64 53.56 5.81 4.44 9.87 6.15c3.25 1.36 4.27 1.78 6.39 4.69q8.43 11.64 22.3 21.61 12.2 8.76 17.63 11.92 12.53 7.28 25.2 15.28a1.88 1.88 0 0 1 .88 1.61c-.22 25.86 1.1 53.53 2.83 94.13q.2 4.54.19 7.3c0 17-13.25 22.14-27.42 24.79a.97.97 0 0 1-1.12-.73z"/><path fill="#eeae4a" d="M672.47 610.37q.17 1.69.31 3.25c.35 3.67-.66 8.07-1.46 11.73-1.03 4.7-2.1 12.39-3.58 16.88q-3.49 10.59-4.24 12.94c-3.17 9.94-6.39 17.07-9.92 26.89q-1.87 5.19-5.99 13.78-3.86 8.04-9.23 20.45c-4.19 9.73-8.94 18.36-12.65 26.17q-2.24 4.72-5.33 13.34c-1.54 4.32-3.52 8.14-5.22 13.2q-3.66 10.85-5.02 16.49a1.08 1.08 0 0 1-1.18.81c-7.88-1.07-15.12-1.83-22.39.95a.22.21-21.6 0 0-.12.27v.01a.21.21 0 0 0 .26.12q1.08-.33 2.26-.06-10.54 2.13-18.94 8.77a.24.24 0 0 0 .22.42c9.22-2.58 21.18-4.17 30.67-2.24q-.88 1.42-.5 2.83a1.14 1.13-85.5 0 0 .63.74q6.71 3.11 10.52 6.34 5.52 4.68 12.8 14.42c2.65 3.55 3.73 6.23 4.64 11.15q.56 3.03 1.69 5.41l-13.11 4.24q-.8-19.4-16.35-29.19a.39.39 0 0 0-.53.55q9.46 13.77 8.32 30.06-10.46 2.38-20.78 2.24-2.59-.03-11.65-1.57.12-12.39-7.49-22.1-1.78-2.28-4.07-3.74a.36.36 0 0 0-.52.44q5 12.11 4.06 24.97c-5.92-1.05-13.33-3.37-16.92-8.08-4.02-5.27-5.78-12.04-5.86-19q-.29-22.64 1.16-39.74 1.22-14.36 8.51-26.27c3.65-5.98 8.85-10.17 16.03-14.57q31.64-19.39 57.65-48.31 9.23-10.28 16.01-20.7 6.94-10.66 13.52-22.47 3.51-6.29 7.34-15.71 3.25-7.99 6.45-16.11"/><path fill="#f9db8d" d="M649.51 775.36q-2.07-.17.57-2.13 1.95-.18 3.02-1.61 7.43-9.96 11.59-16.66 9.35-15.04 15.03-30.72 4.41-12.18 5.33-20.72c.93-8.71.74-19.47-2.43-28.14q-1.53-4.2-4.8-9.2l2.71-8.52a.52.52 0 0 1 .84-.23q6.31 5.64 9.54 13.45c10.27 24.81 1.28 53.54-12.64 74.9q-9.83 15.1-23.22 29.1a1.2 1.2 0 0 1-.83.36zM345.67 667.07q-7.52 10.56-8.05 24.46-.57 15.16 4.03 28.36 4.14 11.89 14.01 30.27 3.35 6.23 8.76 12.88a6.67 6.08-79.9 0 1 .77 1.22q2.88 5.94 8.11 8.87 1.34.87 1 2.04l-5.02-.1a1.25 1.21-20.6 0 1-.87-.38q-16.36-17.06-26.36-33.98c-13.43-22.71-21.42-53.77-5.09-77.25q2.04-2.94 5.01-5.29a.52.52 0 0 1 .81.25z"/><path fill="#eeae4a" d="M677.82 666.18q3.27 5 4.8 9.2c3.17 8.67 3.36 19.43 2.43 28.14q-.92 8.54-5.33 20.72-5.68 15.68-15.03 30.72-4.16 6.7-11.59 16.66-1.07 1.43-3.02 1.61c1.73-3.69 3.97-7.34 5.38-10.94q1.14-2.92 2.4-5.32 1.78-3.39 2.45-5.27 6.46-18.07 7.38-22.28.94-4.3 2.73-17.44 1.69-12.35-.92-23.76zM354.83 690.96q-.15 1.06-1 1.03-.78-.04-.82.76-.33 7.8-.3 15.45c.02 5.06 1.12 9.46 1.75 14.4q.58 4.57 2.17 10.64c3.91 14.89 10.38 26.71 16.67 39.89q-5.23-2.93-8.11-8.87a6.67 6.08-79.9 0 0-.77-1.22q-5.41-6.65-8.76-12.88-9.87-18.38-14.01-30.27-4.6-13.2-4.03-28.36.53-13.9 8.05-24.46z"/><path fill="#da8a33" d="M669.5 688.22q2.61 11.41.92 23.76-1.79 13.14-2.73 17.44-.92 4.21-7.38 22.28-.67 1.88-2.45 5.27-1.26 2.4-2.4 5.32c-1.41 3.6-3.65 7.25-5.38 10.94q-2.64 1.96-.57 2.13-8.33.89-15.07 5.71a.38.38 0 0 0 .3.69q7.19-1.43 12.18-.39 6.87 3.84 12.32 7.65 3.68 2.58 6.25 5.77 2.56 3.18 4.97 6.97 3.35 5.28 3.6 11.82l-7.84 3.81a.6.6 0 0 1-.86-.53c-.21-9.85-5.47-19.46-15-23.11a.25.25 0 0 0-.29.38c4.83 6.75 8.01 15.62 6.99 24.13a1.86 1.86 0 0 1-1.62 1.63l-10.55 1.33a.81.81 0 0 1-.88-.58c-3.18-11.05-10.06-18.72-18.98-25.53a1.57 1.57 0 0 1-.58-1.59q3.01-13.63 7.94-26.12 4.75-12.04 7.89-18.16 2.94-5.72 22.15-45.71 3.49-7.25 7.07-15.31M349.93 813.75q.26-4.88 1.65-8.18c4.21-10.01 13.44-21.37 25.01-22.52q.97-.09.97-.64 0-.47-.58-1.17 6.57-.34 12.68.77a.47.47 0 0 0 .37-.83q-7-5.27-15.73-6.01.34-1.17-1-2.04c-6.29-13.18-12.76-25-16.67-39.89q-1.59-6.07-2.17-10.64c-.63-4.94-1.73-9.34-1.75-14.4q-.03-7.65.3-15.45.04-.8.82-.76.85.03 1-1.03c8.67 18.48 17.39 37.01 26.66 55.2q8.31 16.31 13.32 31.74 2.75 8.46 3.88 15.72a.94.94 0 0 1-.32.86c-8.9 7.52-15.76 14.01-19.02 25.36a.8.8 0 0 1-.76.59q-5.89.09-11.07-1.27a1.55 1.55 0 0 1-1.16-1.45q-.45-13.05 6.66-23.25a.48.48 0 0 0-.59-.71c-9.46 4.44-13.62 12.65-14.81 22.73a.42.42 0 0 1-.59.33zM511.49 757.11q.36 0 .46-.21 6.52-15.04 18.86-25.86a.38.37 70.5 0 1 .62.3l-3.02 82.74a.69.69 0 0 1-.66.66q-10.52.4-16.24.4-5.71 0-16.24-.39a.69.69 0 0 1-.66-.66l-3.07-82.74a.38.37-70.6 0 1 .62-.3q12.34 10.81 18.88 25.85.09.21.45.21"/><path fill="#f9db8d" d="M376.98 781.24q.58.7.58 1.17 0 .55-.97.64c-11.57 1.15-20.8 12.51-25.01 22.52q-1.39 3.3-1.65 8.18-3.16-2.3-3.54-5.18c-1.36-10.07 7.76-19.19 16.13-23.54q7.21-3.74 14.46-3.79M674.06 813.58q-.25-6.54-3.6-11.82-2.41-3.79-4.97-6.97-2.57-3.19-6.25-5.77-5.45-3.81-12.32-7.65 14.27 1.03 24.3 11.66 3.24 3.43 4.93 7.08 3.66 7.94-2.09 13.47M451.76 796.79q-4.36.72-5.76.36-2.12-.55-4.74-.54a4.81 4.4 47.6 0 1-1-.09q-9.51-1.89-15.18.18-9.94 3.64-16.05 9.86-8.45 8.63-10.93 12.78-3.14 5.27-3.55 8.02-.64 4.3-1.62 8.34-.13 3.29-1.28 4.68-4.85-6.75-3.79-14.01c2.79-19.01 23.95-32.85 42.13-32.78q11.11.04 21.77 3.2M631.65 840.28q-.01-2.77-.95-4.85-1.13-2.38-1.69-5.41c-.91-4.92-1.99-7.6-4.64-11.15q-7.28-9.74-12.8-14.42-3.81-3.23-10.52-6.34a1.14 1.13-85.5 0 1-.63-.74q-.38-1.41.5-2.83c12.82 2.77 26.45 10.89 32.06 23.02 3.44 7.45 4 15.72-1.33 22.72"/><path fill="#da8a33" d="M630.7 835.43q.94 2.08.95 4.85-1.82 2.41-5.08 4.33-4.42 2.6-9.69 4.11a.36.35-3.8 0 1-.45-.39l1.16-8.66zM405.41 839.21l1.15 8.82a.31.31 0 0 1-.39.35q-7.35-1.81-12.53-5.75-1.02-.77-1.99-2.25 1.15-1.39 1.28-4.68zM446.47 842.03l1.53 9.1a.65.65 0 0 1-.58.76q-14.66 1.3-29.52-.66a.96.96 0 0 1-.75-.53q-2.3-4.59-3.09-10.08 9.49 3.52 19.21 2.6c3.34-.31 6.92-1.22 10.24-1.04q1.54.08 2.96-.15M609.03 841.09q-.39 4.38-2.63 9.09a2.24 2.24 0 0 1-1.75 1.26q-14.07 1.75-28.83.58a.77.77 0 0 1-.7-.89l1.48-9.37q9.06 1.54 11.65 1.57 10.32.14 20.78-2.24"/></svg>