<svg xmlns="http://www.w3.org/2000/svg" viewBox="0 0 1024 1024"><g fill="none" stroke-width="2"><path stroke="#818080" d="M589.68 165.31q2.46 1.95 5.92.26a1.81 1.71-82.1 0 0 .6-.48c1.2-1.5 3.23-4.27 6.08-4.78 13.39-2.43 23.29 13.6 10.33 22.11-5.98 3.92-13.81 5.29-17.67 14.17-.84 1.95-1.27 5.56-.74 7.26.83 2.67 4.52 4.42 7 2.76q1.84-1.22 2.1-2.84 1-6.32 6.75-8.96c10.16-4.68 18.49-9.5 18.84-21.69q.34-11.67-9.71-18.72c-8.48-5.96-21.92-6.9-28.88 1.87-1.99 2.52-3.34 6.86-.62 9.04m10.97 54.12a5.95 5.95 0 0 0-5.95-5.95 5.95 5.95 0 0 0-5.95 5.95 5.95 5.95 0 0 0 5.95 5.95 5.95 5.95 0 0 0 5.95-5.95m-285.59 576.4c-9.12 2.64-19.4 6.11-24.85 13.83-2.48 3.51-2.89 8.98-.05 12.45q3.05 3.72 8.56 4.2a1.86 1.84 80.7 0 1 1.55 1.12c3.1 7.24 21.01 7.31 27.98 7.08q22.08-.75 43.32-5.68 9.79-2.28 18.45-6.07a3.21 3.18-50.9 0 1 1.92-.21q25.71 5.28 52.13 6.53c17.93.85 36.39.39 54.69-.54q7.29-.38 14.98.16c25.79 1.81 51.31 2.86 76.74 1.21 11-.71 20.52-2.24 32.97-4.12a4.01 3.99-37.7 0 1 2.16.27c22.12 9.39 47.59 13.09 71.26 12.56 5.59-.12 14.6-1.19 17.57-6.73a.97.97 0 0 1 .78-.51c10.42-.83 14.34-10.79 7.37-18.5-4.63-5.12-12.67-8.97-19.77-11.2a.53.53 0 0 1-.13-.95q49.04-31.85 67.78-87.74c13.04-38.9 12.53-80.81 4.69-120.96a1.3 1.27 57.5 0 1 .21-1q1.05-1.51 3.25-4.4c7.99-10.48 13.89-24.06 17.22-37.97 7.25-30.2 4.42-64-9.5-92.22q-20.07-40.68-63.78-52.97a1.52 1.5-5.2 0 1-.97-.8q-12-24.33-26.6-47.93a.61.61 0 0 1 .13-.79q5.85-4.78 8.61-7.75c21.18-22.71 21.6-57.92 1.45-81.43q-8.39-9.8-19.83-14.84-22.35-9.85-44.23.7c-11.76 5.67-20.61 15.23-27.78 26.07a.63.62 30.4 0 1-.82.21q-21.34-11.44-43.55-17.73a2.6 2.56 76.4 0 1-1.21-.75q-1.09-1.2-2.09-3.02-7.87-14.35-9.68-17.36c-5.01-8.32-12.9-9.78-18.72-1.03a.51.51 0 0 1-.76.1q-5.3-4.53-11.9-7.69c-7.46-3.57-17.75-3.71-17.24 7.76a.44.44 0 0 1-.56.45q-4.1-1.18-8.76-.99c-5.45.23-8.5 2.27-9.1 7.65q-.45 3.99 3.57 8.66a.4.39 66.4 0 1-.25.65q-21.86 2.35-43.53 9.86a1.23 1.22 68.8 0 1-1.53-.68c-8.77-20.73-26.23-38.36-50.13-38.85-49.32-1.03-75.71 56.48-48.77 95.6 1.85 2.7 4.36 5.42 6.08 7.43a.73.73 0 0 1-.01.95q-18.65 21.26-34.27 44.45a2.44 2.43-75.5 0 1-1.81 1.07q-30.16 2.57-52.89 20.54-14.67 11.6-26.02 30.5c-17.21 28.65-22.44 65.1-15.6 97.77q5.71 27.3 23.68 47.56 3.43 3.88 6.37 7.22a1.11 1.11 0 0 1 .24.98q-6.55 28.36-8.35 52.25c-4.24 56.26 10.34 111.98 52.8 151.2q7.77 7.17 16.64 13.75a.35.35 0 0 1-.11.62" vector-effect="non-scaling-stroke"/><path stroke="#784e1d" d="M360.38 254.5q-13.09 17.74-9.24 39.72 2.56 14.65 13.14 24.68a1.16 1.15 47.6 0 0 1.52.07q6.2-4.95 13.1-8.15" vector-effect="non-scaling-stroke"/><path stroke="#7b5a4e" d="M378.9 310.82q2.06.49 1.78 2.57" vector-effect="non-scaling-stroke"/><path stroke="#7a6847" d="M380.68 313.39c-2.57 7.05-9.11 13.66-13.87 19.17-11.69 13.53-22.82 27.83-32.73 41.8a.38.38 0 0 0 .27.6q10 .93 19.65 4.15" vector-effect="non-scaling-stroke"/><path stroke="#7c6025" d="M354 379.11c7.72 2.39 15.91 5.4 22.18 10.54a1.21 1.21 0 0 1-.63 2.14q-2.8.32-5.91-.45-7.05-1.74-14.06-3.31" vector-effect="non-scaling-stroke"/><path stroke="#7a6847" d="M355.58 388.03c-31.57-7.59-66.56-.99-89.59 22.93" vector-effect="non-scaling-stroke"/><path stroke="#817a68" d="M265.99 410.96c-20.37 19.74-30.93 49.69-31.95 77.62" vector-effect="non-scaling-stroke"/><path stroke="#7a6847" d="M234.04 488.58q-.45 4.85-.09 12.95 1.32 30.12 17.84 53.68c19.43 27.72 50.58 44.15 84.22 46.67q38.38 2.88 75.07-11.11 16.88-6.43 24.82-10.59 10.07-5.27 17.12-7.76" vector-effect="non-scaling-stroke"/><path stroke="#817a68" d="M453.02 572.42q1.29.48 3.59.14" vector-effect="non-scaling-stroke"/><path stroke="#7a6847" d="M456.61 572.56q-2.49 3.36-6.67 6.37-20.28 14.59-41.35 22.83" vector-effect="non-scaling-stroke"/><path stroke="#784e1d" d="M408.59 601.76c-26.91 10.3-57.53 14.73-86.08 10.24" vector-effect="non-scaling-stroke"/><path stroke="#7c6025" d="M322.51 612q-31.01-4.97-56.3-24.34a.76.75 24.6 0 0-1.2.44l-4 19.14" vector-effect="non-scaling-stroke"/><path stroke="#7a6847" d="M261.01 607.24q-6.25 35.54-1.14 72.64 3.07 22.24 11.38 41.43" vector-effect="non-scaling-stroke"/><path stroke="#784e1d" d="M271.25 721.31q17.87 41.73 55.97 66.69 4.25 2.79 8.67 4.64c26.14 10.93 52.65 17.42 81.29 21.5q3.36.48 6.94.61" vector-effect="non-scaling-stroke"/><path stroke="#7a6847" d="M424.12 814.75q3.98.59 8.25.92 25.25 1.99 51.89.88c10.79-.45 20.92-1.1 31.98-.27q14.55 1.09 37.76 1.9 6.04.21 11.89.24" vector-effect="non-scaling-stroke"/><path stroke="#784e1d" d="M565.89 818.42q20.72-.35 39.11-2.51 40.83-4.79 77.74-19.47 7.95-3.16 11.68-5.5 31.49-19.73 50.27-51.76 15.47-26.35 20.29-56.48" vector-effect="non-scaling-stroke"/><path stroke="#7c6025" d="M764.98 682.7q1.49-7.52 2.13-15.21 1.73-20.76.46-41.48" vector-effect="non-scaling-stroke"/><path stroke="#784e1d" d="m767.57 626.01-2.98-21.82a.54.54 0 0 0-.9-.33c-10.57 9.53-22.88 17.78-36.32 22.99-24.76 9.61-50.14 11.87-76.36 7.19-22.38-3.99-41.65-11.26-61.45-22.56" vector-effect="non-scaling-stroke"/><path stroke="#7a6847" d="M589.56 611.48q-9.52-5.79-20.18-13.62-9.51-6.99-16.9-16.04" vector-effect="non-scaling-stroke"/><path stroke="#817a68" d="M552.48 581.82q6.78.2 12.52 4.59" vector-effect="non-scaling-stroke"/><path stroke="#7a6847" d="M565 586.41c36.61 25.35 79.53 42.49 124.64 37.58 26.61-2.89 52.02-15.04 70.17-34.31 14.3-15.17 23.01-34.88 25.98-55.64" vector-effect="non-scaling-stroke"/><path stroke="#817a68" d="M785.79 534.04c3.67-28.38-1.22-57.04-16.25-81.57q-3.47-5.67-8.6-11.13" vector-effect="non-scaling-stroke"/><path stroke="#7c6025" d="M760.94 441.34q-9.62-11.12-23.54-18.51-14.09-7.48-28.9-10.29-9.16-1.74-22.54-1.9-.48 0-10.91.7-7.8.52-14.65-1.15" vector-effect="non-scaling-stroke"/><path stroke="#784e1d" d="M660.4 410.19q2.56-2.96 6.77-4.47 1.2-.43 7.95-2 15.22-3.53 30.69-2.23a.56.56 0 0 0 .55-.81c-8.46-17.26-18.85-34.62-30.09-52.95q-2.5-4.08-4.72-9.59a.98.97 9.7 0 0-.28-.39l-1.07-.91a.32.16 26.6 0 1-.06-.08l-4.63-7.45a3.06 2.92 89.7 0 0-.86-.89l-5.55-3.67" vector-effect="non-scaling-stroke"/><path stroke="#7c6025" d="M659.1 324.75q-16.86-14.12-22.85-18.5-23.31-17.07-49.93-28.09-2.7-1.13-17.47-6.31c-3.38-1.19-6.13-2.7-8.39-5.07-6.37-6.65-10.07-15.63-13.77-24.01a.5.5 0 0 0-.91-.02c-2.13 4.26-2.33 9.96-3.65 13.69a1.2 1.18-1.3 0 1-.7.72q-1.47.56-2.72-.88-1.66-1.9-6.93-7.45" vector-effect="non-scaling-stroke"/><path stroke="#7a6847" d="M531.78 248.83q-5.15-6.24-11.91-9.94a.29.29 0 0 0-.4.37l4.29 9.4" vector-effect="non-scaling-stroke"/><path stroke="#7c6025" d="m523.76 248.66 1.06 7.85a1.48 1.47-81.6 0 1-2.07 1.54q-1.86-.85-2.72-1.58-7.93-6.74-17.38-9.3a.41.41 0 0 0-.39.7c3.83 3.45 11.46 11.72 4.73 16.29" vector-effect="non-scaling-stroke"/><path stroke="#7a6847" d="M506.99 264.16q-2.36 1.11-3.67 1.18c-31.18 1.79-60.2 11.18-87.61 26.36q-8.06 4.47-20.21 11.82-2.52 1.52-6.44 2.16" vector-effect="non-scaling-stroke"/><path stroke="#7b5a4e" d="M389.06 305.68q1.85-5.93 7.69-11.19 8.39-7.54 13-10.6a.81.81 0 0 0 .34-.86c-2.46-9.73-9.64-22.24-19.44-25.84-5-1.83-9.33-.55-14.16 1.62" vector-effect="non-scaling-stroke"/><path stroke="#784e1d" d="M376.49 258.81q-2.16-1.82 1.58-5.06 6.26-5.43 15.43-3.5" vector-effect="non-scaling-stroke"/><path stroke="#7c6025" d="M393.5 250.25q12.95 3.8 20.13 15.68 3.26 5.39 5.62 11a.58.58 0 0 0 .8.29l14.59-7.45" vector-effect="non-scaling-stroke"/><path stroke="#7a6847" d="m434.64 269.77 1.17-.5a.6.59-21.2 0 0 .33-.74c-5.25-15.02-17.94-28.73-33.98-31.51-16.05-2.79-31.86 4.52-41.78 17.48" vector-effect="non-scaling-stroke"/><path stroke="#f1c56a" d="M434.64 269.77q-5.83-9.26-13.48-16.92-2.76-2.78-6.24-4.46-11.7-5.68-24.75-6.15" vector-effect="non-scaling-stroke"/><path stroke="#edb361" d="M390.17 242.24q-7.58.01-14.6 2.79c-2.51.99-4.13 2.34-6.17 3.32-3.11 1.48-5.56 4.19-7.67 7.03a.64.64 0 0 1-1.12-.18l-.23-.7" vector-effect="non-scaling-stroke"/><path stroke="#efaa40" d="M390.17 242.24c4.31 1.37 6.11 3.86 3.33 8.01" vector-effect="non-scaling-stroke"/><path stroke="#eea469" d="M376.49 258.81q-6.34 10.98-7.11 23.44-.4 6.45 1.66 12.76 2.75 8.44 7.86 15.81" vector-effect="non-scaling-stroke"/><path stroke="#f0bf93" d="M389.06 305.68q-2.35 4.06-8.38 7.71" vector-effect="non-scaling-stroke"/><path stroke="#efaa40" d="M659.1 324.75c-3.18 21.91-11.47 40.72-7.84 62.37q2 11.9 9.14 23.07" vector-effect="non-scaling-stroke"/><path stroke="#f8d68b" d="M760.94 441.34q1.31 6.68 1.43 8.53c.28 4.33-.51 11.77-1 16.15-2.48 22.35-15.24 42.34-33.52 55.04q-20.12 13.99-44.3 18.08" vector-effect="non-scaling-stroke"/><path stroke="#f1c56a" d="M683.55 539.14q-2.95-5.49-7.74-12.35c-11.88-17.02-28.6-18.26-46.07-9.54q-11.47 5.73-23.03 11.39" vector-effect="non-scaling-stroke"/><path stroke="#f8d68b" d="M606.71 528.64q-12.29-6.02-23.59-13.78-5.87-4.03-10.84-9.14-5.6-5.77-11.88-11.99" vector-effect="non-scaling-stroke"/><path stroke="#7c6025" d="M560.4 493.73q22.29 5.72 42.76 13.63a.29.28-9.8 0 0 .32-.45q-.75-.86-1.78-1.59-21.66-15.53-47.87-18.73" vector-effect="non-scaling-stroke"/><path stroke="#f8d68b" d="m553.83 486.59-6.3-9.34" vector-effect="non-scaling-stroke"/><path stroke="#7c6025" d="M547.53 477.25q26.94-7.8 55.47-9.58a.48.47-24.2 0 0 .31-.81q-.31-.3-.75-.42c-10.27-2.63-21.19-2.51-32.07-.79q-12.69 2.01-24.2 7.74" vector-effect="non-scaling-stroke"/><path stroke="#f8d68b" d="m546.29 473.39-3.91-4.52a3.26 3.08-80.3 0 1-.44-.66q-2.65-5.33-4.28-7.4-4.31-5.46-10.67-11.31c-7.85-7.24-17.54-10.9-27.99-12.24-12.24-1.57-23.74.66-33.27 8.47q-10.65 8.72-18.79 19.9" vector-effect="non-scaling-stroke"/><path stroke="#7c6025" d="M446.94 465.63q-10.62-9.41-26.7-15.12-15.28-5.43-31.22-4.62a.42.42 0 0 0-.08.82q30.06 7.88 57.46 22.01" vector-effect="non-scaling-stroke"/><path stroke="#f8d68b" d="M446.4 468.72c-.79 2.89-2.96 4.96-4.61 7.37" vector-effect="non-scaling-stroke"/><path stroke="#7c6025" d="M441.79 476.09c-12.15-2.18-23.52-1.62-36.25.73q-10.25 1.89-22.9 8.11-.13.06-.22.24-.1.19-.06.32a.29.27 75.3 0 0 .31.19q27.33-4.71 56-5.76" vector-effect="non-scaling-stroke"/><path stroke="#f8d68b" d="M438.67 479.92q-26.41 28.21-62.54 34.21-21.02 3.49-44-2.08c-24.74-6-46.21-21.71-58.48-43.22q-6.97-12.2-8.49-28.75" vector-effect="non-scaling-stroke"/><path stroke="#f1c56a" d="M265.16 440.08q4.19-5.61 8.63-11.14 5.26-6.55 9.62-10.24 13.64-11.52 30.68-18.78 6.44-2.75 16.13-4.99 11.21-2.6 16.59-3.38.59-.08 4.72-1.74a2.68 2.6 34.6 0 1 1.13-.19q1.04.04 2.08.01.6-.02.81-.55.18-.45.03-1.05m-1.58-8.92q4.46-5.92 7.89-12.47c1.98-3.78 6.77-8.89 9.5-12.85q7.61-11.02 17.38-21.27c3.63-3.82 10.56-10.01 16.17-15.69 5.04-5.12 11.32-8.91 16.85-13.38q9.3-7.52 20.52-13.42a.31.3-31.1 0 1 .38.09l.16.22a.58.57-34.2 0 1-.16.83q-4.93 3.14-6.18 7.95-2.23 8.6 6.78 9.12c7.38.43 15.97-5.35 19.9-11.02 2.35-3.4 2.01-9.3-2.64-10.56q-5.47-1.48-11.03.08a.17.17 0 0 1-.18-.06l-.17-.23a.34.34 0 0 1 .13-.51c3.42-1.57 7.04-3.64 10.24-4.85q7.05-2.69 17.64-6.68 5.53-2.09 13.23-3.76 6.69-1.45 15.08-3.97 2.64-.79 1.5-2.52m24.79-15.33-8.02-.17" vector-effect="non-scaling-stroke"/><path stroke="#f6dfac" d="M265.16 440.08q.04-1.22-.16-2.74-.22-1.77-.22-2.69-.05-8.49.23-17.32c.07-2.17.7-3.76 1.76-5.43q.34-.54-.1-.96-.18-.17-.68.02" vector-effect="non-scaling-stroke"/><path stroke="#817a68" d="m438.67 479.92 5.89-.54a.99.99 0 0 0 .57-1.72q-1.3-1.15-3.34-1.57m4.61-7.37 2.24.69a.52.52 0 0 0 .56-.81l-2.26-2.97m99.35 7.76-5.79 4.01a.78.78 0 0 0 .63 1.4l6.4-1.55m6.3 9.34c-3.31-.29-8.83-1.03-11.66.53a.66.66 0 0 0 .13 1.21l18.1 5.4" vector-effect="non-scaling-stroke"/><path stroke="#f6dfac" d="M606.71 528.64c23.69 10.86 50.97 15.07 76.84 10.5m102.24-5.1q-.58.7-.81 1.58c-.46 1.74-.65 1.72-1.93 2.8a2.53 2.36-7.4 0 0-.58.7q-6.05 10.62-8.51 13.88-2.81 3.71-14.99 16.97c-3.83 4.17-10.38 7.62-14.93 11.13q-9.78 7.57-23.13 13.29-38.52 16.49-79.9 11.88-11.89-1.32-21.72-3.8c-17.56-4.44-34.49-9.18-51.35-16.33q-1.18-.5-2.94.27m-12.52-4.59q-10.32-3.9-22.59-3.74a.59.59 0 0 0-.45.97c2.01 2.42 3.66 4.7 6.03 7.01 5.18 5.03 9.19 8.57 13.93 13.59q4.03 4.26 10.17 9.23c8.1 6.53 12.8 11.07 20.77 17.67a2.47 2.41-81.4 0 1 .71.99l.33.84" vector-effect="non-scaling-stroke"/><path stroke="#817a68" d="M581.38 628.38q-9.83 7.2-16.26 14.23-10.06 11-20.4 25.6-7.15 10.1-13.14 21.84-4.95 9.69-6.39 19.88-1.27 9.06 6.4 12.35a.97.96 8.3 0 1 .59.79q1.18 9.97 11.57 9.06.97-.08 2.03-.18a1.27 1.26-27.8 0 1 .89.27q6.93 5.68 16.26 1.56" vector-effect="non-scaling-stroke"/><path stroke="#f6dfac" d="M562.93 733.78q9.03-.42 17.79-2.59 10.2-2.54 20.06-6.17 8.26-3.03 12.8-5.92 8.04-5.11 10.23-6.28" vector-effect="non-scaling-stroke"/><path stroke="#f8d68b" d="M623.81 712.82c.55 12.18-1.33 24.62-3.98 35.55q-2.44 10.07-7.5 20.8c-3.91 8.28-9.24 15.74-15.28 23.4q-2.57 3.26-5.01 5.45" vector-effect="non-scaling-stroke"/><path stroke="#f6dfac" d="M592.04 798.02q-3.19.58-9.04.68-34.16.62-61.76-1.73c-8.88-.75-19.41-1.39-25.99-.81q-14.9 1.33-42.75 1.41-25.95.09-48.26-2.91-1.13-.15-4-2.65" vector-effect="non-scaling-stroke"/><path stroke="#f8d68b" d="M400.24 792.01q-4.24-4.02-6.25-7.01-12.93-19.16-17.78-41.8-.88-4.1-2.09-14.75-.79-7.03-.81-11.93" vector-effect="non-scaling-stroke"/><path stroke="#f6dfac" d="M373.31 716.52q.35-.75.29-1.6a.66.65-76.6 0 1 .99-.61c9.81 5.9 18.26 9.5 30.7 13.62q7.47 2.47 15.07 2.12" vector-effect="non-scaling-stroke"/><path stroke="#817a68" d="M420.36 730.05q4.45 1.92 9.4 2.58 5.43.72 9.04-3.03a.93.92 29.3 0 1 .92-.25c6.73 1.86 12.94-1.36 13.17-8.67a.68.68 0 0 1 .39-.6c6.31-2.95 7.52-8.38 6.39-14.83-1.94-11.14-6.99-20.75-12.88-31q-15.78-27.44-39.4-49.49" vector-effect="non-scaling-stroke"/><path stroke="#f6dfac" d="M407.39 624.76q2.06-1.74 4.2-3.56 2.07-1.75 4.44-3.22c11.18-6.93 16.55-10.04 23.36-15.14 10.67-7.99 22.31-15.42 31.73-23.16 2.84-2.33 6.59-4.28 8.92-6.25a1.01 1.01 0 0 0-.47-1.76q-2.5-.47-5.07-.43-9.34.14-17.89 1.32m-3.59-.14q-8.51.73-16.66 3.39c-3.17 1.04-5.51 1.31-8.66 2.26q-2.95.88-6.52 1.56-14.57 2.78-26.44 4.83-16.47 2.85-37.22 1.87-17.79-.84-36.85-6.92-34.66-11.05-59.49-36.61c-4.44-4.57-8.31-10.12-13.13-16.5q-9.6-12.71-13.45-27.39-.57-.27-.56-1.41.05-4.51 0-8.92" vector-effect="non-scaling-stroke"/><path stroke="#7a6847" d="M420.36 730.05q-9.59-4.98-17.33-12.08a2.87 2.79-13.5 0 0-.96-.57c-9.7-3.42-19.15-6.94-28.07-11.98m7.04-7.66q10.96 5.78 22.69 9.73" vector-effect="non-scaling-stroke"/><path stroke="#818080" d="M403.73 707.49q2.58 1.82 7.81 6.22c4.2 3.53 12.11 9.01 18.57 10.56a.7.7 0 0 0 .86-.76q-.14-1.27-.61-2.09-2.25-3.91-4.19-7.83-.65-1.32-.47-2.01a1.31 1.31 0 0 1 2.13-.67c6.18 5.4 9.19 9.06 14.5 10.68a1.62 1.62 0 0 0 2.03-1.12c.92-3.35-3.4-10.51-5.87-14.69q-.65-1.1-1.05-2.71a1.13 1.12-76.7 0 1 1.82-1.13l11.11 9.49a.79.79 0 0 0 1.3-.56c.39-6.09-3.24-13.66-6.22-19.04q-4.36-7.85-8.97-14.57" vector-effect="non-scaling-stroke"/><path stroke="#7a6847" d="m436.48 677.26-19.47-30.15" vector-effect="non-scaling-stroke"/><path stroke="#efaa40" d="M764.98 682.7q-1.72 4.89-3.09 9.96-.18.64-1.66 2.96c-2.39 3.74-4.19 8.13-6.89 13.53q-3.18 6.37-6.05 10.07-1.04 1.34-9.8 12.53-8.42 10.78-17.71 18.52c-12.54 10.45-21.76 17.84-33.33 23.57-10.48 5.18-20.14 10.16-31.35 13.09-1.13.29-2.31 1.02-3.53 1.34q-15.54 4.04-29.56 6.51-12.14 2.13-30.05 3.67" vector-effect="non-scaling-stroke"/><path stroke="#f1c56a" d="m591.96 798.45.08-.43m31.77-85.2q.3-.59.02-1.45" vector-effect="non-scaling-stroke"/><path stroke="#efaa40" d="M623.83 711.37q1.12-.24 1.54-.57 8.98-7.08 15.85-17.49a.8.8 0 0 0-.49-1.22q-1.38-.33-1.14-.87" vector-effect="non-scaling-stroke"/><path stroke="#7c6025" d="M639.59 691.22q7.35-7.08 9.91-16.93a.72.72 0 0 0-.83-.89q-.13.02-.46.32-16.15 14.43-35.32 24.23" vector-effect="non-scaling-stroke"/><path stroke="#f1c56a" d="M612.89 697.95q-10.91-3.53-18.79-9.83-14.92-11.92-31.03-27.96" vector-effect="non-scaling-stroke"/><path stroke="#7c6025" d="M563.07 660.16c7.55-10.27 14.7-20.19 20.87-31.41q.27-.49-.13-.89-.33-.33-1.07-.17" vector-effect="non-scaling-stroke"/><path stroke="#7a6847" d="m563.07 660.16-13.83 20.08" vector-effect="non-scaling-stroke"/><path stroke="#818080" d="M549.24 680.24q-8.42 11.15-13.75 24.19-1.69 4.13-1.91 8.11a1.23 1.23 0 0 0 1.64 1.23l.33-.12a.36.35-72.6 0 0 .11-.06c4.03-3.37 6.99-6.38 10.74-8.57a1.18 1.15-23.1 0 1 1.72.67q.11.38-.01.72c-1.76 5.03-6.4 9.76-7.39 15.57a1.8 1.8 0 0 0 2.2 2.05q2.51-.61 5.31-2.56 1.63-1.13 9.55-7.16 1.02-.78 1.99-.05.92.7-.2 2.83-2.31 4.36-5.21 8.77a.76.76 0 0 0 .8 1.16c9.54-2.13 19.38-9.84 26.99-16.09" vector-effect="non-scaling-stroke"/><path stroke="#7a6847" d="M582.15 710.93c10.59-3.64 20.99-7.31 30.74-12.98" vector-effect="non-scaling-stroke"/><path stroke="#784e1d" d="M639.59 691.22q-7.6 8.06-16.95 13.24" vector-effect="non-scaling-stroke"/><path stroke="#7a6847" d="M622.64 704.46q-18.2 10.66-37.89 15.96a4.71 4.69-74.2 0 0-2.03 1.14q-8.36 7.93-19.79 12.22M407.39 624.76q-.7-.16-1.98-1.24" vector-effect="non-scaling-stroke"/><path stroke="#f1c56a" d="M405.41 623.52q.16-3.79-.27-5.43-1.22-4.61-2.33-9.34" vector-effect="non-scaling-stroke"/><path stroke="#edb361" d="M402.81 608.75q4.34-2.76 5.78-6.99m180.97 9.72q-.16.71-.08 1.28" vector-effect="non-scaling-stroke"/><path stroke="#f1c56a" d="M589.48 612.76q-1.92 6.44-5.62 12.08-.89 1.35-1.12 2.85" vector-effect="non-scaling-stroke"/><path stroke="#7a6847" d="M582.74 627.69q-.75.22-1.36.69" vector-effect="non-scaling-stroke"/><path stroke="#efaa40" d="M322.51 612q-4.45 1.74-9.27.49c-5.72-1.48-11.47-2.65-15.83-4.46-5.49-2.29-11.04-5.55-17.28-6.82a.64.64 0 0 0-.73.4l-4.63 12.6a.67.67 0 0 0 .49.88c2.07.43 4.23 1.72 7.09 2.81q25.66 9.79 55.65 8.04 16.56-.97 27.78-3.38c6.82-1.47 15.04-4.4 22.27-6.45q3.87-1.1 14.76-7.36" vector-effect="non-scaling-stroke"/><path stroke="#7c6025" d="m405.41 623.52-.3.07a.64.63-17.7 0 0-.46.88q5.26 12.04 12.36 22.64" vector-effect="non-scaling-stroke"/><path stroke="#f1c56a" d="M417.01 647.11c-6.24 12.27-14.19 20.39-22.53 30.1q-6.11 7.11-13.44 20.55" vector-effect="non-scaling-stroke"/><path stroke="#7c6025" d="M381.04 697.76q-3.29-1.64-10-5.81-17.42-10.82-31.59-25.04a.39.39 0 0 0-.67.29c.24 7.79 7.26 17.22 12.91 22.63q8.08 7.73 22.31 15.59" vector-effect="non-scaling-stroke"/><path stroke="#f1c56a" d="m374 705.42-.69 11.1m26.93 75.49.55 2.24" vector-effect="non-scaling-stroke"/><path stroke="#efaa40" d="M400.79 794.25c-3.49-.52-7.34-.5-10.45-1.06q-23.36-4.24-42.04-10.92-6.65-2.39-9.68-4.04-15.97-8.73-22.35-13.26-17-12.08-30.28-28.36-3.36-4.12-6.39-9.15-2.71-4.51-5.61-9.67-1.1-1.96-3.35-1.36" vector-effect="non-scaling-stroke"/><path stroke="#f1c56a" d="m270.64 716.43-1.13-4.34a5.46 5.23 37.4 0 1-.15-.97q-.39-6.83-.4-7.25-.06-1.93-.81-7.2-1.66-11.66-2.21-26.72c-.17-4.65.83-8.74 1.13-13.73q.26-4.26 1.25-10.28 2.62-15.93 6.04-30.53a1.15 1.14 21 0 0-.57-1.28l-12.78-6.89" vector-effect="non-scaling-stroke"/><path stroke="#f6e5c4" d="M436.48 677.26q-12.4 1.53-20.88 8.85-9.59 8.29-11.87 21.38" vector-effect="non-scaling-stroke"/><path stroke="#edb361" d="M623.83 711.37q.21-4.59-1.19-6.91m-56.75 113.96q1.68-1.11 3.36-2.02 2.16-1.18 3.36-2.03 10.45-7.37 19.35-15.92" vector-effect="non-scaling-stroke"/><path stroke="#efaa40" d="M767.57 626.01q-.4-.32-.42-.54a.47.47 0 0 0-.94-.02c-.43 2.97-1.18 3.68-3.88 5.59q-8.08 5.68-21.82 10.5-28.41 9.95-57.75 8.23-33.68-1.97-61.27-15.7-12.61-6.28-31.4-18.64a1.42 1.37-82.8 0 1-.56-.75q-.31-1.02-.05-1.92" vector-effect="non-scaling-stroke"/><path stroke="#f6e5c4" d="M582.15 710.93c-2.99-16.73-15.88-29.03-32.91-30.69" vector-effect="non-scaling-stroke"/><path stroke="#edb361" d="M400.79 794.25q1.48.57 2.16 1.3 10.03 10.76 13.36 13.15 3.93 2.82 7.81 6.05m-153.48-98.32q1.41 3.02.61 4.88" vector-effect="non-scaling-stroke"/><path stroke="#7c6025" d="m629.74 288.46 8.56 6.39a.44.44 0 0 0 .65-.14q3.37-6.26 8.08-11.68c7.14-8.23 18.91-14.34 29.63-10.38q5.77 2.13 8.5 7.6a1.1 1.1 0 0 1-1.2 1.57l-1.64-.33" vector-effect="non-scaling-stroke"/><path stroke="#7b5a4e" d="M682.32 281.49q-4.63-3.8-10.32-3.03c-11.24 1.53-20.63 13.82-24.65 23.86a.89.89 0 0 0 .21.98c6.86 6.61 15.01 15.8 18.18 24.27a1.98 1.93 17.7 0 0 .24.45l5.27 7.19a.46.42-2.6 0 0 .12.1q.48.25.63-.37a.7.7 0 0 1 .43-.48q.72-.28 1.63.05" vector-effect="non-scaling-stroke"/><path stroke="#7c6025" d="M674.06 334.51q6.16 4.37 11.27 9.9a1.15 1.15 0 0 0 1.44.2c11.86-7.35 20.58-23.55 20.58-37.74 0-15.58-4.88-28.22-16.53-38.67" vector-effect="non-scaling-stroke"/><path stroke="#7a6847" d="M690.82 268.2q-12.9-11.65-29.73-10.35c-15.78 1.21-29.36 12.24-37.2 25.52a.59.59 0 0 0 .15.77l5.7 4.32" vector-effect="non-scaling-stroke"/><path stroke="#f1c56a" d="M690.82 268.2q.13.55.05.91a.53.53 0 0 1-.82.31q-6.05-4.33-11.6-5.12-9.05-1.28-12.41-.89-7.48.86-15.42 4.22c-7.33 3.11-12.42 8.68-17.5 14.73q-2.41 2.88-3.38 6.1" vector-effect="non-scaling-stroke"/><path stroke="#f2b671" d="M674.06 334.51q2.29-1.94 3.78-4.55a3.84 3.53 84.6 0 1 .6-.79q2.44-2.48 3.55-4.44c4.57-8.1 7.5-17.24 6.52-26.38q-.95-8.94-6.19-16.86" vector-effect="non-scaling-stroke"/><path stroke="#817a68" d="M326.44 801.48c-7.16 1.57-24.95 6.65-28.47 13.57a.91.91 0 0 0 .4 1.23q1.41.71 2.59.84a2.06 2.03-52.7 0 0 .97-.14c6.51-2.61 14.34-5.37 20.63-5.06q1.21.06 1.74.68a1.04 1.04 0 0 1-.41 1.64q-7.1 2.85-13.02 6.37-.96.57-1.59 1.35a1.13 1.13 0 0 0 .55 1.79q3.88 1.19 7.17 1.29 17.32.54 35.35-2.31" vector-effect="non-scaling-stroke"/><path stroke="#7a6847" d="m352.35 822.73 21.14-4.01a.42.41 46.6 0 0 .02-.81q-16.95-4.24-32.61-12.06c-2.93-1.46-6.15-3.61-8.85-5.27a2.1 2.09-30.3 0 0-1.15-.3q-2.31.1-4.46 1.2" vector-effect="non-scaling-stroke"/><path stroke="#f6dfac" d="M352.35 822.73q-5.8-2.48-7.5-3.58c-5.68-3.72-9.9-8.46-14.58-13.04-1.49-1.45-2.57-3.01-3.83-4.63" vector-effect="non-scaling-stroke"/><path stroke="#817a68" d="M661.35 826.46q19.43 3.42 37.65 3.06 2.76-.05 5.55-1.1a1.09 1.08-31.1 0 0 .43-1.73q-.9-1.02-2.43-1.96-5.1-3.12-11.89-6.28a1.07 1.07 0 0 1-.16-1.85q.41-.28 1.06-.3 6.25-.24 13.11 2.56c4.28 1.74 8.59 4.12 11.16 3.05a1.42 1.41 61.4 0 0 .62-2.11c-2.64-3.8-6.88-6.23-11.48-8.31q-8.08-3.66-17.09-6.05" vector-effect="non-scaling-stroke"/><path stroke="#7a6847" d="M687.88 805.44q-1.15-.74-2.92-.52a2.56 2.44-61.9 0 0-.91.3q-19.36 11.39-41.23 16.44a.4.39 44.4 0 0 .01.77l18.52 4.03" vector-effect="non-scaling-stroke"/><path stroke="#f6dfac" d="M687.88 805.44q-1.32 4.7-5 7.93-3.71 3.25-7.74 6.12a2.08 1.87-74.6 0 1-.25.16l-13.54 6.81" vector-effect="non-scaling-stroke"/><path stroke="#f1c56a" d="M489.492 280.313a8.06 6.25-19.4 0 0-9.678-3.218 8.06 6.25-19.4 0 0-5.526 8.572 8.06 6.25-19.4 0 0 9.678 3.218 8.06 6.25-19.4 0 0 5.526-8.572" vector-effect="non-scaling-stroke"/><path stroke="#7c6025" d="M435.17 348.48c9.84 6.83 27.49 2.42 35.25-5.75 3.4-3.58 4.61-8.86.21-12.13q-3.65-2.72-6.92.44c-7.11 6.87-14.37 7.78-23.71 8.29-4.62.25-8.21 3.65-5.56 8.35a2.59 2.55-87.8 0 0 .73.8m117.36-10.86q-3.22-1.09-5.52.85c-5.61 4.74-.88 12.14 3.17 15.85q9.76 8.96 23.08 9.48 3.62.15 6.41-1.14c4.42-2.02 3.47-6.46.29-9.1q-1.14-.95-4.57-1.68c-9.29-1.97-16.15-5.2-21.4-13.13a2.86 2.81 82.2 0 0-1.46-1.13m-110.566 22.841a33 27.06-80.1 0 0-32.331 27.857 33 27.06-80.1 0 0 20.983 37.16 33 27.06-80.1 0 0 32.331-27.856 33 27.06-80.1 0 0-20.983-37.16M573.67 374.41a32.76 27.32-88.6 0 0-28.112 32.082 32.76 27.32-88.6 0 0 26.512 33.418 32.76 27.32-88.6 0 0 28.112-32.083 32.76 27.32-88.6 0 0-26.512-33.417" vector-effect="non-scaling-stroke"/><path stroke="#f8d68b" d="M331.451 406.448a15.79 6.82-159.8 0 0 12.464 11.853 15.79 6.82-159.8 0 0 17.174-.949 15.79 6.82-159.8 0 0-12.464-11.852 15.79 6.82-159.8 0 0-17.174.948m368.831 26.542a15.73 6.86-10.4 0 0-16.71-3.907 15.73 6.86-10.4 0 0-14.234 9.587 15.73 6.86-10.4 0 0 16.71 3.907 15.73 6.86-10.4 0 0 14.234-9.587" vector-effect="non-scaling-stroke"/><path stroke="#818080" d="M431.739 371.077a10.22 8.9-85.8 0 0-9.625 9.541 10.22 8.9-85.8 0 0 8.127 10.845 10.22 8.9-85.8 0 0 9.625-9.541 10.22 8.9-85.8 0 0-8.127-10.845m133.847 14.633a10.12 8.84-85.6 0 0-9.59 9.412 10.12 8.84-85.6 0 0 8.038 10.768 10.12 8.84-85.6 0 0 9.59-9.412 10.12 8.84-85.6 0 0-8.038-10.768" vector-effect="non-scaling-stroke"/><path stroke="#817a68" d="M474.53 455.67q-2.33 1.14-1.72 3.75c1.58 6.7 8.29 14.72 14.92 17.41a1.16 1.15-74 0 1 .7 1.27l-1.23 6.87a2.75 2.74-14.6 0 1-.96 1.63c-7.56 6.11-17.47 13.06-16.56 22.28.48 4.83 5.57 8 9.98 8.11q12.58.31 19.5 1.62c10.04 1.89 19.3-4.19 13.64-15.14-3.43-6.66-8.63-11.32-14.89-16.57a1.42 1.4-70.2 0 1-.5-1.08v-7.15a.75.75 0 0 1 .57-.73q8.46-2.07 14.86-8.84 5.25-5.56 2.96-9.94" vector-effect="non-scaling-stroke"/><path stroke="#f7d0b4" d="M515.8 459.16q-6.14-6.82-14.87-8.66-7.18-1.52-13.89-.56-7.04 1-12.51 5.73" vector-effect="non-scaling-stroke"/><path stroke="#7b5a4e" d="M515.8 459.16q-2.14 1.49-6.17 4.71c-3.99 3.18-12.92 7.95-17.87 5.94-7.59-3.07-11.97-8.18-17.23-14.14" vector-effect="non-scaling-stroke"/><path stroke="#f7d7cc" d="M481.336 455.596a5.57 3.14-174.5 0 0 5.243 3.66 5.57 3.14-174.5 0 0 5.845-2.592 5.57 3.14-174.5 0 0-5.243-3.66 5.57 3.14-174.5 0 0-5.845 2.592" vector-effect="non-scaling-stroke"/><path stroke="#818080" d="M503.35 508.46a.88.88 0 0 0 .76-1.41q-5.36-7.11-11.82-12.27a.82.82 0 0 0-.99-.03c-3.92 2.78-9.49 6.71-11.58 11a.94.93-75.3 0 0 .78 1.34l22.85 1.37" vector-effect="non-scaling-stroke"/><path stroke="#7c6025" d="M280.503 654.355a9.77 4.83-98.4 0 0-3.351 10.37 9.77 4.83-98.4 0 0 6.205 8.96 9.77 4.83-98.4 0 0 3.351-10.37 9.77 4.83-98.4 0 0-6.205-8.96" vector-effect="non-scaling-stroke"/><path stroke="#7c6025" d="M287.475 685.83a9.4 4.74-108 0 0-1.603 10.405 9.4 4.74-108 0 0 7.413 7.475 9.4 4.74-108 0 0 1.603-10.405 9.4 4.74-108 0 0-7.413-7.475" vector-effect="non-scaling-stroke"/><path stroke="#7c6025" d="M298.836 715.411a8.99 4.74-122.3 0 0 .798 10.132 8.99 4.74-122.3 0 0 8.81 5.066 8.99 4.74-122.3 0 0-.798-10.132 8.99 4.74-122.3 0 0-8.81-5.066m441.92-44.769a9.82 4.78-76 0 0-7.014 8.372 9.82 4.78-76 0 0 2.262 10.684 9.82 4.78-76 0 0 7.014-8.372 9.82 4.78-76 0 0-2.262-10.684m-10.048 30.419a9.46 4.81-65.8 0 0-8.265 6.657 9.46 4.81-65.8 0 0 .51 10.6 9.46 4.81-65.8 0 0 8.264-6.656 9.46 4.81-65.8 0 0-.51-10.6m-14.01 28.279a8.96 4.7-52.4 0 0-9.19 4.231 8.96 4.7-52.4 0 0-1.744 9.967 8.96 4.7-52.4 0 0 9.19-4.231 8.96 4.7-52.4 0 0 1.744-9.967" vector-effect="non-scaling-stroke"/></g><path fill="#fdfdfd" d="M589.68 165.31q2.46 1.95 5.92.26a1.81 1.71-82.1 0 0 .6-.48c1.2-1.5 3.23-4.27 6.08-4.78 13.39-2.43 23.29 13.6 10.33 22.11-5.98 3.92-13.81 5.29-17.67 14.17-.84 1.95-1.27 5.56-.74 7.26.83 2.67 4.52 4.42 7 2.76q1.84-1.22 2.1-2.84 1-6.32 6.75-8.96c10.16-4.68 18.49-9.5 18.84-21.69q.34-11.67-9.71-18.72c-8.48-5.96-21.92-6.9-28.88 1.87-1.99 2.52-3.34 6.86-.62 9.04m10.97 54.12a5.95 5.95 0 0 0-5.95-5.95 5.95 5.95 0 0 0-5.95 5.95 5.95 5.95 0 0 0 5.95 5.95 5.95 5.95 0 0 0 5.95-5.95m-285.59 576.4c-9.12 2.64-19.4 6.11-24.85 13.83-2.48 3.51-2.89 8.98-.05 12.45q3.05 3.72 8.56 4.2a1.86 1.84 80.7 0 1 1.55 1.12c3.1 7.24 21.01 7.31 27.98 7.08q22.08-.75 43.32-5.68 9.79-2.28 18.45-6.07a3.21 3.18-50.9 0 1 1.92-.21q25.71 5.28 52.13 6.53c17.93.85 36.39.39 54.69-.54q7.29-.38 14.98.16c25.79 1.81 51.31 2.86 76.74 1.21 11-.71 20.52-2.24 32.97-4.12a4.01 3.99-37.7 0 1 2.16.27c22.12 9.39 47.59 13.09 71.26 12.56 5.59-.12 14.6-1.19 17.57-6.73a.97.97 0 0 1 .78-.51c10.42-.83 14.34-10.79 7.37-18.5-4.63-5.12-12.67-8.97-19.77-11.2a.53.53 0 0 1-.13-.95q49.04-31.85 67.78-87.74c13.04-38.9 12.53-80.81 4.69-120.96a1.3 1.27 57.5 0 1 .21-1q1.05-1.51 3.25-4.4c7.99-10.48 13.89-24.06 17.22-37.97 7.25-30.2 4.42-64-9.5-92.22q-20.07-40.68-63.78-52.97a1.52 1.5-5.2 0 1-.97-.8q-12-24.33-26.6-47.93a.61.61 0 0 1 .13-.79q5.85-4.78 8.61-7.75c21.18-22.71 21.6-57.92 1.45-81.43q-8.39-9.8-19.83-14.84-22.35-9.85-44.23.7c-11.76 5.67-20.61 15.23-27.78 26.07a.63.62 30.4 0 1-.82.21q-21.34-11.44-43.55-17.73a2.6 2.56 76.4 0 1-1.21-.75q-1.09-1.2-2.09-3.02-7.87-14.35-9.68-17.36c-5.01-8.32-12.9-9.78-18.72-1.03a.51.51 0 0 1-.76.1q-5.3-4.53-11.9-7.69c-7.46-3.57-17.75-3.71-17.24 7.76a.44.44 0 0 1-.56.45q-4.1-1.18-8.76-.99c-5.45.23-8.5 2.27-9.1 7.65q-.45 3.99 3.57 8.66a.4.39 66.4 0 1-.25.65q-21.86 2.35-43.53 9.86a1.23 1.22 68.8 0 1-1.53-.68c-8.77-20.73-26.23-38.36-50.13-38.85-49.32-1.03-75.71 56.48-48.77 95.6 1.85 2.7 4.36 5.42 6.08 7.43a.73.73 0 0 1-.01.95q-18.65 21.26-34.27 44.45a2.44 2.43-75.5 0 1-1.81 1.07q-30.16 2.57-52.89 20.54-14.67 11.6-26.02 30.5c-17.21 28.65-22.44 65.1-15.6 97.77q5.71 27.3 23.68 47.56 3.43 3.88 6.37 7.22a1.11 1.11 0 0 1 .24.98q-6.55 28.36-8.35 52.25c-4.24 56.26 10.34 111.98 52.8 151.2q7.77 7.17 16.64 13.75a.35.35 0 0 1-.11.62"/><path fill="#040302" d="M589.68 165.31c-2.72-2.18-1.37-6.52.62-9.04 6.96-8.77 20.4-7.83 28.88-1.87q10.05 7.05 9.71 18.72c-.35 12.19-8.68 17.01-18.84 21.69q-5.75 2.64-6.75 8.96-.26 1.62-2.1 2.84c-2.48 1.66-6.17-.09-7-2.76-.53-1.7-.1-5.31.74-7.26 3.86-8.88 11.69-10.25 17.67-14.17 12.96-8.51 3.06-24.54-10.33-22.11-2.85.51-4.88 3.28-6.08 4.78a1.81 1.71-82.1 0 1-.6.48q-3.46 1.69-5.92-.26"/><circle cx="594.7" cy="219.43" r="5.95" fill="#040302"/><path fill="#040302" d="M315.06 795.83a.35.35 0 0 0 .11-.62q-8.87-6.58-16.64-13.75c-42.46-39.22-57.04-94.94-52.8-151.2q1.8-23.89 8.35-52.25a1.11 1.11 0 0 0-.24-.98q-2.94-3.34-6.37-7.22-17.97-20.26-23.68-47.56c-6.84-32.67-1.61-69.12 15.6-97.77q11.35-18.9 26.02-30.5 22.73-17.97 52.89-20.54a2.44 2.43-75.5 0 0 1.81-1.07q15.62-23.19 34.27-44.45a.73.73 0 0 0 .01-.95c-1.72-2.01-4.23-4.73-6.08-7.43-26.94-39.12-.55-96.63 48.77-95.6 23.9.49 41.36 18.12 50.13 38.85a1.23 1.22 68.8 0 0 1.53.68q21.67-7.51 43.53-9.86a.4.39 66.4 0 0 .25-.65q-4.02-4.67-3.57-8.66c.6-5.38 3.65-7.42 9.1-7.65q4.66-.19 8.76.99a.44.44 0 0 0 .56-.45c-.51-11.47 9.78-11.33 17.24-7.76q6.6 3.16 11.9 7.69a.51.51 0 0 0 .76-.1c5.82-8.75 13.71-7.29 18.72 1.03q1.81 3.01 9.68 17.36 1 1.82 2.09 3.02a2.6 2.56 76.4 0 0 1.21.75q22.21 6.29 43.55 17.73a.63.62 30.4 0 0 .82-.21c7.17-10.84 16.02-20.4 27.78-26.07q21.88-10.55 44.23-.7 11.44 5.04 19.83 14.84c20.15 23.51 19.73 58.72-1.45 81.43q-2.76 2.97-8.61 7.75a.61.61 0 0 0-.13.79q14.6 23.6 26.6 47.93a1.52 1.5-5.2 0 0 .97.8q43.71 12.29 63.78 52.97c13.92 28.22 16.75 62.02 9.5 92.22-3.33 13.91-9.23 27.49-17.22 37.97q-2.2 2.89-3.25 4.4a1.3 1.27 57.5 0 0-.21 1c7.84 40.15 8.35 82.06-4.69 120.96q-18.74 55.89-67.78 87.74a.53.53 0 0 0 .13.95c7.1 2.23 15.14 6.08 19.77 11.2 6.97 7.71 3.05 17.67-7.37 18.5a.97.97 0 0 0-.78.51c-2.97 5.54-11.98 6.61-17.57 6.73-23.67.53-49.14-3.17-71.26-12.56a4.01 3.99-37.7 0 0-2.16-.27c-12.45 1.88-21.97 3.41-32.97 4.12-25.43 1.65-50.95.6-76.74-1.21q-7.69-.54-14.98-.16c-18.3.93-36.76 1.39-54.69.54q-26.42-1.25-52.13-6.53a3.21 3.18-50.9 0 0-1.92.21q-8.66 3.79-18.45 6.07-21.24 4.93-43.32 5.68c-6.97.23-24.88.16-27.98-7.08a1.86 1.84 80.7 0 0-1.55-1.12q-5.51-.48-8.56-4.2c-2.84-3.47-2.43-8.94.05-12.45 5.45-7.72 15.73-11.19 24.85-13.83m45.32-541.33q-13.09 17.74-9.24 39.72 2.56 14.65 13.14 24.68a1.16 1.15 47.6 0 0 1.52.07q6.2-4.95 13.1-8.15 2.06.49 1.78 2.57c-2.57 7.05-9.11 13.66-13.87 19.17-11.69 13.53-22.82 27.83-32.73 41.8a.38.38 0 0 0 .27.6q10 .93 19.65 4.15c7.72 2.39 15.91 5.4 22.18 10.54a1.21 1.21 0 0 1-.63 2.14q-2.8.32-5.91-.45-7.05-1.74-14.06-3.31c-31.57-7.59-66.56-.99-89.59 22.93-20.37 19.74-30.93 49.69-31.95 77.62q-.45 4.85-.09 12.95 1.32 30.12 17.84 53.68c19.43 27.72 50.58 44.15 84.22 46.67q38.38 2.88 75.07-11.11 16.88-6.43 24.82-10.59 10.07-5.27 17.12-7.76 1.29.48 3.59.14-2.49 3.36-6.67 6.37-20.28 14.59-41.35 22.83c-26.91 10.3-57.53 14.73-86.08 10.24q-31.01-4.97-56.3-24.34a.76.75 24.6 0 0-1.2.44l-4 19.14q-6.25 35.54-1.14 72.64 3.07 22.24 11.38 41.43 17.87 41.73 55.97 66.69 4.25 2.79 8.67 4.64c26.14 10.93 52.65 17.42 81.29 21.5q3.36.48 6.94.61 3.98.59 8.25.92 25.25 1.99 51.89.88c10.79-.45 20.92-1.1 31.98-.27q14.55 1.09 37.76 1.9 6.04.21 11.89.24 20.72-.35 39.11-2.51 40.83-4.79 77.74-19.47 7.95-3.16 11.68-5.5 31.49-19.73 50.27-51.76 15.47-26.35 20.29-56.48 1.49-7.52 2.13-15.21 1.73-20.76.46-41.48l-2.98-21.82a.54.54 0 0 0-.9-.33c-10.57 9.53-22.88 17.78-36.32 22.99-24.76 9.61-50.14 11.87-76.36 7.19-22.38-3.99-41.65-11.26-61.45-22.56q-9.52-5.79-20.18-13.62-9.51-6.99-16.9-16.04 6.78.2 12.52 4.59c36.61 25.35 79.53 42.49 124.64 37.58 26.61-2.89 52.02-15.04 70.17-34.31 14.3-15.17 23.01-34.88 25.98-55.64 3.67-28.38-1.22-57.04-16.25-81.57q-3.47-5.67-8.6-11.13-9.62-11.12-23.54-18.51-14.09-7.48-28.9-10.29-9.16-1.74-22.54-1.9-.48 0-10.91.7-7.8.52-14.65-1.15 2.56-2.96 6.77-4.47 1.2-.43 7.95-2 15.22-3.53 30.69-2.23a.56.56 0 0 0 .55-.81c-8.46-17.26-18.85-34.62-30.09-52.95q-2.5-4.08-4.72-9.59a.98.97 9.7 0 0-.28-.39l-1.07-.91a.32.16 26.6 0 1-.06-.08l-4.63-7.45a3.06 2.92 89.7 0 0-.86-.89l-5.55-3.67q-16.86-14.12-22.85-18.5-23.31-17.07-49.93-28.09-2.7-1.13-17.47-6.31c-3.38-1.19-6.13-2.7-8.39-5.07-6.37-6.65-10.07-15.63-13.77-24.01a.5.5 0 0 0-.91-.02c-2.13 4.26-2.33 9.96-3.65 13.69a1.2 1.18-1.3 0 1-.7.72q-1.47.56-2.72-.88-1.66-1.9-6.93-7.45-5.15-6.24-11.91-9.94a.29.29 0 0 0-.4.37l4.29 9.4 1.06 7.85a1.48 1.47-81.6 0 1-2.07 1.54q-1.86-.85-2.72-1.58-7.93-6.74-17.38-9.3a.41.41 0 0 0-.39.7c3.83 3.45 11.46 11.72 4.73 16.29q-2.36 1.11-3.67 1.18c-31.18 1.79-60.2 11.18-87.61 26.36q-8.06 4.47-20.21 11.82-2.52 1.52-6.44 2.16 1.85-5.93 7.69-11.19 8.39-7.54 13-10.6a.81.81 0 0 0 .34-.86c-2.46-9.73-9.64-22.24-19.44-25.84-5-1.83-9.33-.55-14.16 1.62q-2.16-1.82 1.58-5.06 6.26-5.43 15.43-3.5 12.95 3.8 20.13 15.68 3.26 5.39 5.62 11a.58.58 0 0 0 .8.29l14.59-7.45 1.17-.5a.6.59-21.2 0 0 .33-.74c-5.25-15.02-17.94-28.73-33.98-31.51-16.05-2.79-31.86 4.52-41.78 17.48m269.36 33.96 8.56 6.39a.44.44 0 0 0 .65-.14q3.37-6.26 8.08-11.68c7.14-8.23 18.91-14.34 29.63-10.38q5.77 2.13 8.5 7.6a1.1 1.1 0 0 1-1.2 1.57l-1.64-.33q-4.63-3.8-10.32-3.03c-11.24 1.53-20.63 13.82-24.65 23.86a.89.89 0 0 0 .21.98c6.86 6.61 15.01 15.8 18.18 24.27a1.98 1.93 17.7 0 0 .24.45l5.27 7.19a.46.42-2.6 0 0 .12.1q.48.25.63-.37a.7.7 0 0 1 .43-.48q.72-.28 1.63.05 6.16 4.37 11.27 9.9a1.15 1.15 0 0 0 1.44.2c11.86-7.35 20.58-23.55 20.58-37.74 0-15.58-4.88-28.22-16.53-38.67q-12.9-11.65-29.73-10.35c-15.78 1.21-29.36 12.24-37.2 25.52a.59.59 0 0 0 .15.77zm-303.3 513.02c-7.16 1.57-24.95 6.65-28.47 13.57a.91.91 0 0 0 .4 1.23q1.41.71 2.59.84a2.06 2.03-52.7 0 0 .97-.14c6.51-2.61 14.34-5.37 20.63-5.06q1.21.06 1.74.68a1.04 1.04 0 0 1-.41 1.64q-7.1 2.85-13.02 6.37-.96.57-1.59 1.35a1.13 1.13 0 0 0 .55 1.79q3.88 1.19 7.17 1.29 17.32.54 35.35-2.31l21.14-4.01a.42.41 46.6 0 0 .02-.81q-16.95-4.24-32.61-12.06c-2.93-1.46-6.15-3.61-8.85-5.27a2.1 2.09-30.3 0 0-1.15-.3q-2.31.1-4.46 1.2m334.91 24.98q19.43 3.42 37.65 3.06 2.76-.05 5.55-1.1a1.09 1.08-31.1 0 0 .43-1.73q-.9-1.02-2.43-1.96-5.1-3.12-11.89-6.28a1.07 1.07 0 0 1-.16-1.85q.41-.28 1.06-.3 6.25-.24 13.11 2.56c4.28 1.74 8.59 4.12 11.16 3.05a1.42 1.41 61.4 0 0 .62-2.11c-2.64-3.8-6.88-6.23-11.48-8.31q-8.08-3.66-17.09-6.05-1.15-.74-2.92-.52a2.56 2.44-61.9 0 0-.91.3q-19.36 11.39-41.23 16.44a.4.39 44.4 0 0 .01.77z"/><path fill="#efcd8b" d="M434.64 269.77q-5.83-9.26-13.48-16.92-2.76-2.78-6.24-4.46-11.7-5.68-24.75-6.15-7.58.01-14.6 2.79c-2.51.99-4.13 2.34-6.17 3.32-3.11 1.48-5.56 4.19-7.67 7.03a.64.64 0 0 1-1.12-.18l-.23-.7c9.92-12.96 25.73-20.27 41.78-17.48 16.04 2.78 28.73 16.49 33.98 31.51a.6.59-21.2 0 1-.33.74zm97.14-20.94-8.02-.17-4.29-9.4a.29.29 0 0 1 .4-.37q6.76 3.7 11.91 9.94"/><path fill="#eb9837" d="M390.17 242.24c4.31 1.37 6.11 3.86 3.33 8.01q-9.17-1.93-15.43 3.5-3.74 3.24-1.58 5.06-6.34 10.98-7.11 23.44-.4 6.45 1.66 12.76 2.75 8.44 7.86 15.81-6.9 3.2-13.1 8.15a1.16 1.15 47.6 0 1-1.52-.07q-10.58-10.03-13.14-24.68-3.85-21.98 9.24-39.72l.23.7a.64.64 0 0 0 1.12.18c2.11-2.84 4.56-5.55 7.67-7.03 2.04-.98 3.66-2.33 6.17-3.32q7.02-2.78 14.6-2.79"/><path fill="#f3bc48" d="m434.64 269.77-14.59 7.45a.58.58 0 0 1-.8-.29q-2.36-5.61-5.62-11-7.18-11.88-20.13-15.68c2.78-4.15.98-6.64-3.33-8.01q13.05.47 24.75 6.15 3.48 1.68 6.24 4.46 7.65 7.66 13.48 16.92m224.46 54.98c-3.18 21.91-11.47 40.72-7.84 62.37q2 11.9 9.14 23.07 6.85 1.67 14.65 1.15 10.43-.7 10.91-.7 13.38.16 22.54 1.9 14.81 2.81 28.9 10.29 13.92 7.39 23.54 18.51 1.31 6.68 1.43 8.53c.28 4.33-.51 11.77-1 16.15-2.48 22.35-15.24 42.34-33.52 55.04q-20.12 13.99-44.3 18.08-2.95-5.49-7.74-12.35c-11.88-17.02-28.6-18.26-46.07-9.54q-11.47 5.73-23.03 11.39-12.29-6.02-23.59-13.78-5.87-4.03-10.84-9.14-5.6-5.77-11.88-11.99 22.29 5.72 42.76 13.63a.29.28-9.8 0 0 .32-.45q-.75-.86-1.78-1.59-21.66-15.53-47.87-18.73l-6.3-9.34q26.94-7.8 55.47-9.58a.48.47-24.2 0 0 .31-.81q-.31-.3-.75-.42c-10.27-2.63-21.19-2.51-32.07-.79q-12.69 2.01-24.2 7.74l-3.91-4.52a3.26 3.08-80.3 0 1-.44-.66q-2.65-5.33-4.28-7.4-4.31-5.46-10.67-11.31c-7.85-7.24-17.54-10.9-27.99-12.24-12.24-1.57-23.74.66-33.27 8.47q-10.65 8.72-18.79 19.9-10.62-9.41-26.7-15.12-15.28-5.43-31.22-4.62a.42.42 0 0 0-.08.82q30.06 7.88 57.46 22.01c-.79 2.89-2.96 4.96-4.61 7.37-12.15-2.18-23.52-1.62-36.25.73q-10.25 1.89-22.9 8.11-.13.06-.22.24-.1.19-.06.32a.29.27 75.3 0 0 .31.19q27.33-4.71 56-5.76-26.41 28.21-62.54 34.21-21.02 3.49-44-2.08c-24.74-6-46.21-21.71-58.48-43.22q-6.97-12.2-8.49-28.75 4.19-5.61 8.63-11.14 5.26-6.55 9.62-10.24 13.64-11.52 30.68-18.78 6.44-2.75 16.13-4.99 11.21-2.6 16.59-3.38.59-.08 4.72-1.74a2.68 2.6 34.6 0 1 1.13-.19q1.04.04 2.08.01.6-.02.81-.55.18-.45.03-1.05 7.01 1.57 14.06 3.31 3.11.77 5.91.45a1.21 1.21 0 0 0 .63-2.14c-6.27-5.14-14.46-8.15-22.18-10.54q4.46-5.92 7.89-12.47c1.98-3.78 6.77-8.89 9.5-12.85q7.61-11.02 17.38-21.27c3.63-3.82 10.56-10.01 16.17-15.69 5.04-5.12 11.32-8.91 16.85-13.38q9.3-7.52 20.52-13.42a.31.3-31.1 0 1 .38.09l.16.22a.58.57-34.2 0 1-.16.83q-4.93 3.14-6.18 7.95-2.23 8.6 6.78 9.12c7.38.43 15.97-5.35 19.9-11.02 2.35-3.4 2.01-9.3-2.64-10.56q-5.47-1.48-11.03.08a.17.17 0 0 1-.18-.06l-.17-.23a.34.34 0 0 1 .13-.51c3.42-1.57 7.04-3.64 10.24-4.85q7.05-2.69 17.64-6.68 5.53-2.09 13.23-3.76 6.69-1.45 15.08-3.97 2.64-.79 1.5-2.52c6.73-4.57-.9-12.84-4.73-16.29a.41.41 0 0 1 .39-.7q9.45 2.56 17.38 9.3.86.73 2.72 1.58a1.48 1.47-81.6 0 0 2.07-1.54l-1.06-7.85 8.02.17q5.27 5.55 6.93 7.45 1.25 1.44 2.72.88a1.2 1.18-1.3 0 0 .7-.72c1.32-3.73 1.52-9.43 3.65-13.69a.5.5 0 0 1 .91.02c3.7 8.38 7.4 17.36 13.77 24.01 2.26 2.37 5.01 3.88 8.39 5.07q14.77 5.18 17.47 6.31 26.62 11.02 49.93 28.09 5.99 4.38 22.85 18.5m-169.608-44.437a8.06 6.25-19.4 0 0-9.678-3.218 8.06 6.25-19.4 0 0-5.526 8.572 8.06 6.25-19.4 0 0 9.678 3.218 8.06 6.25-19.4 0 0 5.526-8.572M435.17 348.48c9.84 6.83 27.49 2.42 35.25-5.75 3.4-3.58 4.61-8.86.21-12.13q-3.65-2.72-6.92.44c-7.11 6.87-14.37 7.78-23.71 8.29-4.62.25-8.21 3.65-5.56 8.35a2.59 2.55-87.8 0 0 .73.8m117.36-10.86q-3.22-1.09-5.52.85c-5.61 4.74-.88 12.14 3.17 15.85q9.76 8.96 23.08 9.48 3.62.15 6.41-1.14c4.42-2.02 3.47-6.46.29-9.1q-1.14-.95-4.57-1.68c-9.29-1.97-16.15-5.2-21.4-13.13a2.86 2.81 82.2 0 0-1.46-1.13m-110.566 22.841a33 27.06-80.1 0 0-32.331 27.857 33 27.06-80.1 0 0 20.983 37.16 33 27.06-80.1 0 0 32.331-27.856 33 27.06-80.1 0 0-20.983-37.16M573.67 374.41a32.76 27.32-88.6 0 0-28.112 32.082 32.76 27.32-88.6 0 0 26.512 33.418 32.76 27.32-88.6 0 0 28.112-32.083 32.76 27.32-88.6 0 0-26.512-33.417m-242.219 32.038a15.79 6.82-159.8 0 0 12.464 11.853 15.79 6.82-159.8 0 0 17.174-.949 15.79 6.82-159.8 0 0-12.464-11.852 15.79 6.82-159.8 0 0-17.174.948m368.83 26.542a15.73 6.86-10.4 0 0-16.71-3.907 15.73 6.86-10.4 0 0-14.233 9.587 15.73 6.86-10.4 0 0 16.71 3.907 15.73 6.86-10.4 0 0 14.234-9.587"/><path fill="#f1b09a" d="M389.06 305.68q-2.35 4.06-8.38 7.71.28-2.08-1.78-2.57-5.11-7.37-7.86-15.81-2.06-6.31-1.66-12.76.77-12.46 7.11-23.44c4.83-2.17 9.16-3.45 14.16-1.62 9.8 3.6 16.98 16.11 19.44 25.84a.81.81 0 0 1-.34.86q-4.61 3.06-13 10.6-5.84 5.26-7.69 11.19"/><path fill="#efcd8b" d="M690.82 268.2q.13.55.05.91a.53.53 0 0 1-.82.31q-6.05-4.33-11.6-5.12-9.05-1.28-12.41-.89-7.48.86-15.42 4.22c-7.33 3.11-12.42 8.68-17.5 14.73q-2.41 2.88-3.38 6.1l-5.7-4.32a.59.59 0 0 1-.15-.77c7.84-13.28 21.42-24.31 37.2-25.52q16.83-1.3 29.73 10.35"/><path fill="#f3bc48" d="M690.82 268.2c11.65 10.45 16.53 23.09 16.53 38.67 0 14.19-8.72 30.39-20.58 37.74a1.15 1.15 0 0 1-1.44-.2q-5.11-5.53-11.27-9.9 2.29-1.94 3.78-4.55a3.84 3.53 84.6 0 1 .6-.79q2.44-2.48 3.55-4.44c4.57-8.1 7.5-17.24 6.52-26.38q-.95-8.94-6.19-16.86l1.64.33a1.1 1.1 0 0 0 1.2-1.57q-2.73-5.47-8.5-7.6c-10.72-3.96-22.49 2.15-29.63 10.38q-4.71 5.42-8.08 11.68a.44.44 0 0 1-.65.14l-8.56-6.39q.97-3.22 3.38-6.1c5.08-6.05 10.17-11.62 17.5-14.73q7.94-3.36 15.42-4.22 3.36-.39 12.41.89 5.55.79 11.6 5.12a.53.53 0 0 0 .82-.31q.08-.36-.05-.91"/><path fill="#efcd8b" d="M506.99 264.16q1.14 1.73-1.5 2.52-8.39 2.52-15.08 3.97-7.7 1.67-13.23 3.76-10.59 3.99-17.64 6.68c-3.2 1.21-6.82 3.28-10.24 4.85a.34.34 0 0 0-.13.51l.17.23a.17.17 0 0 0 .18.06q5.56-1.56 11.03-.08c4.65 1.26 4.99 7.16 2.64 10.56-3.93 5.67-12.52 11.45-19.9 11.02q-9.01-.52-6.78-9.12 1.25-4.81 6.18-7.95a.58.57-34.2 0 0 .16-.83l-.16-.22a.31.3-31.1 0 0-.38-.09q-11.22 5.9-20.52 13.42c-5.53 4.47-11.81 8.26-16.85 13.38-5.61 5.68-12.54 11.87-16.17 15.69q-9.77 10.25-17.38 21.27c-2.73 3.96-7.52 9.07-9.5 12.85q-3.43 6.55-7.89 12.47-9.65-3.22-19.65-4.15a.38.38 0 0 1-.27-.6c9.91-13.97 21.04-28.27 32.73-41.8 4.76-5.51 11.3-12.12 13.87-19.17q6.03-3.65 8.38-7.71 3.92-.64 6.44-2.16 12.15-7.35 20.21-11.82c27.41-15.18 56.43-24.57 87.61-26.36q1.31-.07 3.67-1.18"/><ellipse fill="#efcd8b" rx="8.06" ry="6.25" transform="rotate(-19.4 1068.725 -1268.091)"/><path fill="#f1b09a" d="M682.32 281.49q5.24 7.92 6.19 16.86c.98 9.14-1.95 18.28-6.52 26.38q-1.11 1.96-3.55 4.44a3.84 3.53 84.6 0 0-.6.79q-1.49 2.61-3.78 4.55-.91-.33-1.63-.05a.7.7 0 0 0-.43.48q-.15.62-.63.37a.46.42-2.6 0 1-.12-.1l-5.27-7.19a1.98 1.93 17.7 0 1-.24-.45c-3.17-8.47-11.32-17.66-18.18-24.27a.89.89 0 0 1-.21-.98c4.02-10.04 13.41-22.33 24.65-23.86q5.69-.77 10.32 3.03"/><path fill="#eb9837" d="M660.4 410.19q-7.14-11.17-9.14-23.07c-3.63-21.65 4.66-40.46 7.84-62.37l5.55 3.67a3.06 2.92 89.7 0 1 .86.89l4.63 7.45a.32.16 26.6 0 0 .06.08l1.07.91a.98.97 9.7 0 1 .28.39q2.22 5.51 4.72 9.59c11.24 18.33 21.63 35.69 30.09 52.95a.56.56 0 0 1-.55.81q-15.47-1.3-30.69 2.23-6.75 1.57-7.95 2-4.21 1.51-6.77 4.47"/><path fill="#040302" d="M434.44 347.68c-2.65-4.7.94-8.1 5.56-8.35 9.34-.51 16.6-1.42 23.71-8.29q3.27-3.16 6.92-.44c4.4 3.27 3.19 8.55-.21 12.13-7.76 8.17-25.41 12.58-35.25 5.75a2.59 2.55-87.8 0 1-.73-.8m118.09-10.06a2.86 2.81 82.2 0 1 1.46 1.13c5.25 7.93 12.11 11.16 21.4 13.13q3.43.73 4.57 1.68c3.18 2.64 4.13 7.08-.29 9.1q-2.79 1.29-6.41 1.14-13.32-.52-23.08-9.48c-4.05-3.71-8.78-11.11-3.17-15.85q2.3-1.94 5.52-.85m-110.566 22.841a33 27.06-80.1 0 1 20.983 37.161 33 27.06-80.1 0 1-32.33 27.857 33 27.06-80.1 0 1-20.984-37.161 33 27.06-80.1 0 1 32.33-27.857m-10.226 10.616a10.22 8.9-85.8 0 0-9.624 9.541 10.22 8.9-85.8 0 0 8.127 10.845 10.22 8.9-85.8 0 0 9.625-9.541 10.22 8.9-85.8 0 0-8.127-10.845"/><ellipse fill="#fdfdfd" rx="10.22" ry="8.9" transform="rotate(-85.8 420.643 -41.265)"/><path fill="#040302" d="M573.67 374.41a32.76 27.32-88.6 0 1 26.512 33.417 32.76 27.32-88.6 0 1-28.112 32.083 32.76 27.32-88.6 0 1-26.512-33.418 32.76 27.32-88.6 0 1 28.112-32.082m-8.084 11.3a10.12 8.84-85.6 0 0-9.59 9.412 10.12 8.84-85.6 0 0 8.038 10.768 10.12 8.84-85.6 0 0 9.59-9.412 10.12 8.84-85.6 0 0-8.038-10.768"/><path fill="#efcd8b" d="M355.58 388.03q.15.6-.03 1.05-.21.53-.81.55-1.04.03-2.08-.01a2.68 2.6 34.6 0 0-1.13.19q-4.13 1.66-4.72 1.74-5.38.78-16.59 3.38-9.69 2.24-16.13 4.99-17.04 7.26-30.68 18.78-4.36 3.69-9.62 10.24-4.44 5.53-8.63 11.14.04-1.22-.16-2.74-.22-1.77-.22-2.69-.05-8.49.23-17.32c.07-2.17.7-3.76 1.76-5.43q.34-.54-.1-.96-.18-.17-.68.02c23.03-23.92 58.02-30.52 89.59-22.93"/><ellipse fill="#fdfdfd" rx="10.12" ry="8.84" transform="rotate(-85.6 496.118 -107.07)"/><ellipse fill="#fdf0cd" rx="15.79" ry="6.82" transform="rotate(200.2 209.82 175.11)"/><path fill="#fdf0cd" d="M265.99 410.96q.5-.19.68-.02.44.42.1.96c-1.06 1.67-1.69 3.26-1.76 5.43q-.28 8.83-.23 17.32 0 .92.22 2.69.2 1.52.16 2.74 1.52 16.55 8.49 28.75c12.27 21.51 33.74 37.22 58.48 43.22q22.98 5.57 44 2.08 36.13-6 62.54-34.21l5.89-.54a.99.99 0 0 0 .57-1.72q-1.3-1.15-3.34-1.57c1.65-2.41 3.82-4.48 4.61-7.37l2.24.69a.52.52 0 0 0 .56-.81l-2.26-2.97q8.14-11.18 18.79-19.9c9.53-7.81 21.03-10.04 33.27-8.47 10.45 1.34 20.14 5 27.99 12.24q6.36 5.85 10.67 11.31 1.63 2.07 4.28 7.4a3.26 3.08-80.3 0 0 .44.66l3.91 4.52-5.79 4.01a.78.78 0 0 0 .63 1.4l6.4-1.55 6.3 9.34c-3.31-.29-8.83-1.03-11.66.53a.66.66 0 0 0 .13 1.21l18.1 5.4q6.28 6.22 11.88 11.99 4.97 5.11 10.84 9.14 11.3 7.76 23.59 13.78c23.69 10.86 50.97 15.07 76.84 10.5q24.18-4.09 44.3-18.08c18.28-12.7 31.04-32.69 33.52-55.04.49-4.38 1.28-11.82 1-16.15q-.12-1.85-1.43-8.53 5.13 5.46 8.6 11.13c15.03 24.53 19.92 53.19 16.25 81.57q-.58.7-.81 1.58c-.46 1.74-.65 1.72-1.93 2.8a2.53 2.36-7.4 0 0-.58.7q-6.05 10.62-8.51 13.88-2.81 3.71-14.99 16.97c-3.83 4.17-10.38 7.62-14.93 11.13q-9.78 7.57-23.13 13.29-38.52 16.49-79.9 11.88-11.89-1.32-21.72-3.8c-17.56-4.44-34.49-9.18-51.35-16.33q-1.18-.5-2.94.27-5.74-4.39-12.52-4.59-10.32-3.9-22.59-3.74a.59.59 0 0 0-.45.97c2.01 2.42 3.66 4.7 6.03 7.01 5.18 5.03 9.19 8.57 13.93 13.59q4.03 4.26 10.17 9.23c8.1 6.53 12.8 11.07 20.77 17.67a2.47 2.41-81.4 0 1 .71.99l.33.84q-9.83 7.2-16.26 14.23-10.06 11-20.4 25.6-7.15 10.1-13.14 21.84-4.95 9.69-6.39 19.88-1.27 9.06 6.4 12.35a.97.96 8.3 0 1 .59.79q1.18 9.97 11.57 9.06.97-.08 2.03-.18a1.27 1.26-27.8 0 1 .89.27q6.93 5.68 16.26 1.56 9.03-.42 17.79-2.59 10.2-2.54 20.06-6.17 8.26-3.03 12.8-5.92 8.04-5.11 10.23-6.28c.55 12.18-1.33 24.62-3.98 35.55q-2.44 10.07-7.5 20.8c-3.91 8.28-9.24 15.74-15.28 23.4q-2.57 3.26-5.01 5.45-3.19.58-9.04.68-34.16.62-61.76-1.73c-8.88-.75-19.41-1.39-25.99-.81q-14.9 1.33-42.75 1.41-25.95.09-48.26-2.91-1.13-.15-4-2.65-4.24-4.02-6.25-7.01-12.93-19.16-17.78-41.8-.88-4.1-2.09-14.75-.79-7.03-.81-11.93.35-.75.29-1.6a.66.65-76.6 0 1 .99-.61c9.81 5.9 18.26 9.5 30.7 13.62q7.47 2.47 15.07 2.12 4.45 1.92 9.4 2.58 5.43.72 9.04-3.03a.93.92 29.3 0 1 .92-.25c6.73 1.86 12.94-1.36 13.17-8.67a.68.68 0 0 1 .39-.6c6.31-2.95 7.52-8.38 6.39-14.83-1.94-11.14-6.99-20.75-12.88-31q-15.78-27.44-39.4-49.49 2.06-1.74 4.2-3.56 2.07-1.75 4.44-3.22c11.18-6.93 16.55-10.04 23.36-15.14 10.67-7.99 22.31-15.42 31.73-23.16 2.84-2.33 6.59-4.28 8.92-6.25a1.01 1.01 0 0 0-.47-1.76q-2.5-.47-5.07-.43-9.34.14-17.89 1.32-2.3.34-3.59-.14-8.51.73-16.66 3.39c-3.17 1.04-5.51 1.31-8.66 2.26q-2.95.88-6.52 1.56-14.57 2.78-26.44 4.83-16.47 2.85-37.22 1.87-17.79-.84-36.85-6.92-34.66-11.05-59.49-36.61c-4.44-4.57-8.31-10.12-13.13-16.5q-9.6-12.71-13.45-27.39-.57-.27-.56-1.41.05-4.51 0-8.92c1.02-27.93 11.58-57.88 31.95-77.62m208.54 44.71q-2.33 1.14-1.72 3.75c1.58 6.7 8.29 14.72 14.92 17.41a1.16 1.15-74 0 1 .7 1.27l-1.23 6.87a2.75 2.74-14.6 0 1-.96 1.63c-7.56 6.11-17.47 13.06-16.56 22.28.48 4.83 5.57 8 9.98 8.11q12.58.31 19.5 1.62c10.04 1.89 19.3-4.19 13.64-15.14-3.43-6.66-8.63-11.32-14.89-16.57a1.42 1.4-70.2 0 1-.5-1.08v-7.15a.75.75 0 0 1 .57-.73q8.46-2.07 14.86-8.84 5.25-5.56 2.96-9.94-6.14-6.82-14.87-8.66-7.18-1.52-13.89-.56-7.04 1-12.51 5.73"/><ellipse fill="#fdf0cd" rx="15.73" ry="6.86" transform="rotate(-10.4 2736.888 -3544.483)"/><path fill="#040302" d="m446.94 465.63 2.26 2.97a.52.52 0 0 1-.56.81l-2.24-.69q-27.4-14.13-57.46-22.01a.42.42 0 0 1 .08-.82q15.94-.81 31.22 4.62 16.08 5.71 26.7 15.12"/><path fill="#f1b09a" d="M515.8 459.16q-2.14 1.49-6.17 4.71c-3.99 3.18-12.92 7.95-17.87 5.94-7.59-3.07-11.97-8.18-17.23-14.14q5.47-4.73 12.51-5.73 6.71-.96 13.89.56 8.73 1.84 14.87 8.66m-34.464-3.564a5.57 3.14-174.5 0 0 5.243 3.66 5.57 3.14-174.5 0 0 5.845-2.592 5.57 3.14-174.5 0 0-5.243-3.66 5.57 3.14-174.5 0 0-5.845 2.592"/><ellipse fill="#fdfdfd" rx="5.57" ry="3.14" transform="rotate(185.5 254.395 216.372)"/><path fill="#040302" d="M474.53 455.67c5.26 5.96 9.64 11.07 17.23 14.14 4.95 2.01 13.88-2.76 17.87-5.94q4.03-3.22 6.17-4.71 2.29 4.38-2.96 9.94-6.4 6.77-14.86 8.84a.75.75 0 0 0-.57.73v7.15a1.42 1.4-70.2 0 0 .5 1.08c6.26 5.25 11.46 9.91 14.89 16.57 5.66 10.95-3.6 17.03-13.64 15.14q-6.92-1.31-19.5-1.62c-4.41-.11-9.5-3.28-9.98-8.11-.91-9.22 9-16.17 16.56-22.28a2.75 2.74-14.6 0 0 .96-1.63l1.23-6.87a1.16 1.15-74 0 0-.7-1.27c-6.63-2.69-13.34-10.71-14.92-17.41q-.61-2.61 1.72-3.75m28.82 52.79a.88.88 0 0 0 .76-1.41q-5.36-7.11-11.82-12.27a.82.82 0 0 0-.99-.03c-3.92 2.78-9.49 6.71-11.58 11a.94.93-75.3 0 0 .78 1.34zm44.18-31.21-6.4 1.55a.78.78 0 0 1-.63-1.4l5.79-4.01q11.51-5.73 24.2-7.74c10.88-1.72 21.8-1.84 32.07.79q.44.12.75.42a.48.47-24.2 0 1-.31.81q-28.53 1.78-55.47 9.58m-105.74-1.16q2.04.42 3.34 1.57a.99.99 0 0 1-.57 1.72l-5.89.54q-28.67 1.05-56 5.76a.29.27 75.3 0 1-.31-.19q-.04-.13.06-.32.09-.18.22-.24 12.65-6.22 22.9-8.11c12.73-2.35 24.1-2.91 36.25-.73m112.04 10.5q26.21 3.2 47.87 18.73 1.03.73 1.78 1.59a.29.28-9.8 0 1-.32.45q-20.47-7.91-42.76-13.63l-18.1-5.4a.66.66 0 0 1-.13-1.21c2.83-1.56 8.35-.82 11.66-.53"/><path fill="#efcd8b" d="M234.04 488.58q.05 4.41 0 8.92-.01 1.14.56 1.41 3.85 14.68 13.45 27.39c4.82 6.38 8.69 11.93 13.13 16.5q24.83 25.56 59.49 36.61 19.06 6.08 36.85 6.92 20.75.98 37.22-1.87 11.87-2.05 26.44-4.83 3.57-.68 6.52-1.56c3.15-.95 5.49-1.22 8.66-2.26q8.15-2.66 16.66-3.39-7.05 2.49-17.12 7.76-7.94 4.16-24.82 10.59-36.69 13.99-75.07 11.11c-33.64-2.52-64.79-18.95-84.22-46.67q-16.52-23.56-17.84-53.68-.36-8.1.09-12.95"/><path fill="#fdfdfd" d="m503.35 508.46-22.85-1.37a.94.93-75.3 0 1-.78-1.34c2.09-4.29 7.66-8.22 11.58-11a.82.82 0 0 1 .99.03q6.46 5.16 11.82 12.27a.88.88 0 0 1-.76 1.41"/><path fill="#efcd8b" d="M683.55 539.14c-25.87 4.57-53.15.36-76.84-10.5q11.56-5.66 23.03-11.39c17.47-8.72 34.19-7.48 46.07 9.54q4.79 6.86 7.74 12.35m102.24-5.1c-2.97 20.76-11.68 40.47-25.98 55.64-18.15 19.27-43.56 31.42-70.17 34.31-45.11 4.91-88.03-12.23-124.64-37.58q1.76-.77 2.94-.27c16.86 7.15 33.79 11.89 51.35 16.33q9.83 2.48 21.72 3.8 41.38 4.61 79.9-11.88 13.35-5.72 23.13-13.29c4.55-3.51 11.1-6.96 14.93-11.13q12.18-13.26 14.99-16.97 2.46-3.26 8.51-13.88a2.53 2.36-7.4 0 1 .58-.7c1.28-1.08 1.47-1.06 1.93-2.8q.23-.88.81-1.58m-378.4 90.72q-.7-.16-1.98-1.24.16-3.79-.27-5.43-1.22-4.61-2.33-9.34 4.34-2.76 5.78-6.99 21.07-8.24 41.35-22.83 4.18-3.01 6.67-6.37 8.55-1.18 17.89-1.32 2.57-.04 5.07.43a1.01 1.01 0 0 1 .47 1.76c-2.33 1.97-6.08 3.92-8.92 6.25-9.42 7.74-21.06 15.17-31.73 23.16-6.81 5.1-12.18 8.21-23.36 15.14q-2.37 1.47-4.44 3.22-2.14 1.82-4.2 3.56m145.09-42.94q7.39 9.05 16.9 16.04 10.66 7.83 20.18 13.62-.16.71-.08 1.28-1.92 6.44-5.62 12.08-.89 1.35-1.12 2.85-.75.22-1.36.69l-.33-.84a2.47 2.41-81.4 0 0-.71-.99c-7.97-6.6-12.67-11.14-20.77-17.67q-6.14-4.97-10.17-9.23c-4.74-5.02-8.75-8.56-13.93-13.59-2.37-2.31-4.02-4.59-6.03-7.01a.59.59 0 0 1 .45-.97q12.27-.16 22.59 3.74"/><path fill="#f3bc48" d="M322.51 612q-4.45 1.74-9.27.49c-5.72-1.48-11.47-2.65-15.83-4.46-5.49-2.29-11.04-5.55-17.28-6.82a.64.64 0 0 0-.73.4l-4.63 12.6a.67.67 0 0 0 .49.88c2.07.43 4.23 1.72 7.09 2.81q25.66 9.79 55.65 8.04 16.56-.97 27.78-3.38c6.82-1.47 15.04-4.4 22.27-6.45q3.87-1.1 14.76-7.36 1.11 4.73 2.33 9.34.43 1.64.27 5.43l-.3.07a.64.63-17.7 0 0-.46.88q5.26 12.04 12.36 22.64c-6.24 12.27-14.19 20.39-22.53 30.1q-6.11 7.11-13.44 20.55-3.29-1.64-10-5.81-17.42-10.82-31.59-25.04a.39.39 0 0 0-.67.29c.24 7.79 7.26 17.22 12.91 22.63q8.08 7.73 22.31 15.59l-.69 11.1q.02 4.9.81 11.93 1.21 10.65 2.09 14.75 4.85 22.64 17.78 41.8 2.01 2.99 6.25 7.01l.55 2.24c-3.49-.52-7.34-.5-10.45-1.06q-23.36-4.24-42.04-10.92-6.65-2.39-9.68-4.04-15.97-8.73-22.35-13.26-17-12.08-30.28-28.36-3.36-4.12-6.39-9.15-2.71-4.51-5.61-9.67-1.1-1.96-3.35-1.36l-1.13-4.34a5.46 5.23 37.4 0 1-.15-.97q-.39-6.83-.4-7.25-.06-1.93-.81-7.2-1.66-11.66-2.21-26.72c-.17-4.65.83-8.74 1.13-13.73q.26-4.26 1.25-10.28 2.62-15.93 6.04-30.53a1.15 1.14 21 0 0-.57-1.28l-12.78-6.89 4-19.14a.76.75 24.6 0 1 1.2-.44q25.29 19.37 56.3 24.34m-42.007 42.355a9.77 4.83-98.4 0 0-3.351 10.37 9.77 4.83-98.4 0 0 6.205 8.96 9.77 4.83-98.4 0 0 3.351-10.37 9.77 4.83-98.4 0 0-6.205-8.96m6.972 31.475a9.4 4.74-108 0 0-1.603 10.405 9.4 4.74-108 0 0 7.413 7.475 9.4 4.74-108 0 0 1.603-10.405 9.4 4.74-108 0 0-7.413-7.475m11.361 29.581a8.99 4.74-122.3 0 0 .798 10.132 8.99 4.74-122.3 0 0 8.81 5.066 8.99 4.74-122.3 0 0-.798-10.132 8.99 4.74-122.3 0 0-8.81-5.066"/><path fill="#eb9837" d="M322.51 612c28.55 4.49 59.17.06 86.08-10.24q-1.44 4.23-5.78 6.99-10.89 6.26-14.76 7.36c-7.23 2.05-15.45 4.98-22.27 6.45q-11.22 2.41-27.78 3.38-29.99 1.75-55.65-8.04c-2.86-1.09-5.02-2.38-7.09-2.81a.67.67 0 0 1-.49-.88l4.63-12.6a.64.64 0 0 1 .73-.4c6.24 1.27 11.79 4.53 17.28 6.82 4.36 1.81 10.11 2.98 15.83 4.46q4.82 1.25 9.27-.49m445.06 14.01q-.4-.32-.42-.54a.47.47 0 0 0-.94-.02c-.43 2.97-1.18 3.68-3.88 5.59q-8.08 5.68-21.82 10.5-28.41 9.95-57.75 8.23-33.68-1.97-61.27-15.7-12.61-6.28-31.4-18.64a1.42 1.37-82.8 0 1-.56-.75q-.31-1.02-.05-1.92-.08-.57.08-1.28c19.8 11.3 39.07 18.57 61.45 22.56 26.22 4.68 51.6 2.42 76.36-7.19 13.44-5.21 25.75-13.46 36.32-22.99a.54.54 0 0 1 .9.33z"/><path fill="#efcd8b" d="M270.64 716.43q1.41 3.02.61 4.88-8.31-19.19-11.38-41.43-5.11-37.1 1.14-72.64l12.78 6.89a1.15 1.14 21 0 1 .57 1.28q-3.42 14.6-6.04 30.53-.99 6.02-1.25 10.28c-.3 4.99-1.3 9.08-1.13 13.73q.55 15.06 2.21 26.72.75 5.27.81 7.2.01.42.4 7.25a5.46 5.23 37.4 0 0 .15.97z"/><path fill="#f3bc48" d="M589.48 612.76q-.26.9.05 1.92a1.42 1.37-82.8 0 0 .56.75q18.79 12.36 31.4 18.64 27.59 13.73 61.27 15.7 29.34 1.72 57.75-8.23 13.74-4.82 21.82-10.5c2.7-1.91 3.45-2.62 3.88-5.59a.47.47 0 0 1 .94.02q.02.22.42.54 1.27 20.72-.46 41.48-.64 7.69-2.13 15.21-1.72 4.89-3.09 9.96-.18.64-1.66 2.96c-2.39 3.74-4.19 8.13-6.89 13.53q-3.18 6.37-6.05 10.07-1.04 1.34-9.8 12.53-8.42 10.78-17.71 18.52c-12.54 10.45-21.76 17.84-33.33 23.57-10.48 5.18-20.14 10.16-31.35 13.09-1.13.29-2.31 1.02-3.53 1.34q-15.54 4.04-29.56 6.51-12.14 2.13-30.05 3.67l.08-.43q2.44-2.19 5.01-5.45c6.04-7.66 11.37-15.12 15.28-23.4q5.06-10.73 7.5-20.8c2.65-10.93 4.53-23.37 3.98-35.55q.3-.59.02-1.45 1.12-.24 1.54-.57 8.98-7.08 15.85-17.49a.8.8 0 0 0-.49-1.22q-1.38-.33-1.14-.87 7.35-7.08 9.91-16.93a.72.72 0 0 0-.83-.89q-.13.02-.46.32-16.15 14.43-35.32 24.23-10.91-3.53-18.79-9.83-14.92-11.92-31.03-27.96c7.55-10.27 14.7-20.19 20.87-31.41q.27-.49-.13-.89-.33-.33-1.07-.17.23-1.5 1.12-2.85 3.7-5.64 5.62-12.08m151.276 57.882a9.82 4.78-76 0 0-7.014 8.372 9.82 4.78-76 0 0 2.262 10.684 9.82 4.78-76 0 0 7.014-8.372 9.82 4.78-76 0 0-2.262-10.684m-10.048 30.42a9.46 4.81-65.8 0 0-8.265 6.656 9.46 4.81-65.8 0 0 .51 10.6 9.46 4.81-65.8 0 0 8.264-6.656 9.46 4.81-65.8 0 0-.51-10.6m-14.011 28.28a8.96 4.7-52.4 0 0-9.19 4.23 8.96 4.7-52.4 0 0-1.744 9.967 8.96 4.7-52.4 0 0 9.19-4.231 8.96 4.7-52.4 0 0 1.744-9.967"/><path fill="#040302" d="M405.41 623.52q1.28 1.08 1.98 1.24 23.62 22.05 39.4 49.49c5.89 10.25 10.94 19.86 12.88 31 1.13 6.45-.08 11.88-6.39 14.83a.68.68 0 0 0-.39.6c-.23 7.31-6.44 10.53-13.17 8.67a.93.92 29.3 0 0-.92.25q-3.61 3.75-9.04 3.03-4.95-.66-9.4-2.58-9.59-4.98-17.33-12.08a2.87 2.79-13.5 0 0-.96-.57c-9.7-3.42-19.15-6.94-28.07-11.98q-14.23-7.86-22.31-15.59c-5.65-5.41-12.67-14.84-12.91-22.63a.39.39 0 0 1 .67-.29q14.17 14.22 31.59 25.04 6.71 4.17 10 5.81 10.96 5.78 22.69 9.73 2.58 1.82 7.81 6.22c4.2 3.53 12.11 9.01 18.57 10.56a.7.7 0 0 0 .86-.76q-.14-1.27-.61-2.09-2.25-3.91-4.19-7.83-.65-1.32-.47-2.01a1.31 1.31 0 0 1 2.13-.67c6.18 5.4 9.19 9.06 14.5 10.68a1.62 1.62 0 0 0 2.03-1.12c.92-3.35-3.4-10.51-5.87-14.69q-.65-1.1-1.05-2.71a1.13 1.12-76.7 0 1 1.82-1.13l11.11 9.49a.79.79 0 0 0 1.3-.56c.39-6.09-3.24-13.66-6.22-19.04q-4.36-7.85-8.97-14.57l-19.47-30.15q-7.1-10.6-12.36-22.64a.64.63-17.7 0 1 .46-.88zm177.33 4.17q.74-.16 1.07.17.4.4.13.89c-6.17 11.22-13.32 21.14-20.87 31.41l-13.83 20.08q-8.42 11.15-13.75 24.19-1.69 4.13-1.91 8.11a1.23 1.23 0 0 0 1.64 1.23l.33-.12a.36.35-72.6 0 0 .11-.06c4.03-3.37 6.99-6.38 10.74-8.57a1.18 1.15-23.1 0 1 1.72.67q.11.38-.01.72c-1.76 5.03-6.4 9.76-7.39 15.57a1.8 1.8 0 0 0 2.2 2.05q2.51-.61 5.31-2.56 1.63-1.13 9.55-7.16 1.02-.78 1.99-.05.92.7-.2 2.83-2.31 4.36-5.21 8.77a.76.76 0 0 0 .8 1.16c9.54-2.13 19.38-9.84 26.99-16.09 10.59-3.64 20.99-7.31 30.74-12.98q19.17-9.8 35.32-24.23.33-.3.46-.32a.72.72 0 0 1 .83.89q-2.56 9.85-9.91 16.93-7.6 8.06-16.95 13.24-18.2 10.66-37.89 15.96a4.71 4.69-74.2 0 0-2.03 1.14q-8.36 7.93-19.79 12.22-9.33 4.12-16.26-1.56a1.27 1.26-27.8 0 0-.89-.27q-1.06.1-2.03.18-10.39.91-11.57-9.06a.97.96 8.3 0 0-.59-.79q-7.67-3.29-6.4-12.35 1.44-10.19 6.39-19.88 5.99-11.74 13.14-21.84 10.34-14.6 20.4-25.6 6.43-7.03 16.26-14.23.61-.47 1.36-.69"/><path fill="#efcd8b" d="m417.01 647.11 19.47 30.15q-12.4 1.53-20.88 8.85-9.59 8.29-11.87 21.38-11.73-3.95-22.69-9.73 7.33-13.44 13.44-20.55c8.34-9.71 16.29-17.83 22.53-30.1"/><ellipse fill="#040302" rx="9.77" ry="4.83" transform="rotate(-98.4 427.548 210.332)"/><path fill="#efcd8b" d="M563.07 660.16q16.11 16.04 31.03 27.96 7.88 6.3 18.79 9.83c-9.75 5.67-20.15 9.34-30.74 12.98-2.99-16.73-15.88-29.03-32.91-30.69z"/><ellipse fill="#040302" rx="9.82" ry="4.78" transform="rotate(-76 804.479 -132.457)"/><path fill="#fdfdfd" d="M436.48 677.26q4.61 6.72 8.97 14.57c2.98 5.38 6.61 12.95 6.22 19.04a.79.79 0 0 1-1.3.56l-11.11-9.49a1.13 1.12-76.7 0 0-1.82 1.13q.4 1.61 1.05 2.71c2.47 4.18 6.79 11.34 5.87 14.69a1.62 1.62 0 0 1-2.03 1.12c-5.31-1.62-8.32-5.28-14.5-10.68a1.31 1.31 0 0 0-2.13.67q-.18.69.47 2.01 1.94 3.92 4.19 7.83.47.82.61 2.09a.7.7 0 0 1-.86.76c-6.46-1.55-14.37-7.03-18.57-10.56q-5.23-4.4-7.81-6.22 2.28-13.09 11.87-21.38 8.48-7.32 20.88-8.85m112.76 2.98c17.03 1.66 29.92 13.96 32.91 30.69-7.61 6.25-17.45 13.96-26.99 16.09a.76.76 0 0 1-.8-1.16q2.9-4.41 5.21-8.77 1.12-2.13.2-2.83-.97-.73-1.99.05-7.92 6.03-9.55 7.16-2.8 1.95-5.31 2.56a1.8 1.8 0 0 1-2.2-2.05c.99-5.81 5.63-10.54 7.39-15.57q.12-.34.01-.72a1.18 1.15-23.1 0 0-1.72-.67c-3.75 2.19-6.71 5.2-10.74 8.57a.36.35-72.6 0 1-.11.06l-.33.12a1.23 1.23 0 0 1-1.64-1.23q.22-3.98 1.91-8.11 5.33-13.04 13.75-24.19"/><path fill="#eb9837" d="M764.98 682.7q-4.82 30.13-20.29 56.48-18.78 32.03-50.27 51.76-3.73 2.34-11.68 5.5-36.91 14.68-77.74 19.47-18.39 2.16-39.11 2.51 1.68-1.11 3.36-2.02 2.16-1.18 3.36-2.03 10.45-7.37 19.35-15.92 17.91-1.54 30.05-3.67 14.02-2.47 29.56-6.51c1.22-.32 2.4-1.05 3.53-1.34 11.21-2.93 20.87-7.91 31.35-13.09 11.57-5.73 20.79-13.12 33.33-23.57q9.29-7.74 17.71-18.52 8.76-11.19 9.8-12.53 2.87-3.7 6.05-10.07c2.7-5.4 4.5-9.79 6.89-13.53q1.48-2.32 1.66-2.96 1.37-5.07 3.09-9.96"/><ellipse fill="#040302" rx="9.4" ry="4.74" transform="rotate(252 397.58 241.898)"/><path fill="#eb9837" d="M639.59 691.22q-.24.54 1.14.87a.8.8 0 0 1 .49 1.22q-6.87 10.41-15.85 17.49-.42.33-1.54.57.21-4.59-1.19-6.91 9.35-5.18 16.95-13.24"/><ellipse fill="#040302" rx="9.46" ry="4.81" transform="rotate(-65.8 911.922 -206.91)"/><path fill="#efcd8b" d="M622.64 704.46q1.4 2.32 1.19 6.91.28.86-.02 1.45-2.19 1.17-10.23 6.28-4.54 2.89-12.8 5.92-9.86 3.63-20.06 6.17-8.76 2.17-17.79 2.59 11.43-4.29 19.79-12.22a4.71 4.69-74.2 0 1 2.03-1.14q19.69-5.3 37.89-15.96m-202.28 25.59q-7.6.35-15.07-2.12c-12.44-4.12-20.89-7.72-30.7-13.62a.66.65-76.6 0 0-.99.61q.06.85-.29 1.6l.69-11.1c8.92 5.04 18.37 8.56 28.07 11.98a2.87 2.79-13.5 0 1 .96.57q7.74 7.1 17.33 12.08"/><path fill="#eb9837" d="M400.79 794.25q1.48.57 2.16 1.3 10.03 10.76 13.36 13.15 3.93 2.82 7.81 6.05-3.58-.13-6.94-.61c-28.64-4.08-55.15-10.57-81.29-21.5q-4.42-1.85-8.67-4.64-38.1-24.96-55.97-66.69.8-1.86-.61-4.88 2.25-.6 3.35 1.36 2.9 5.16 5.61 9.67 3.03 5.03 6.39 9.15 13.28 16.28 30.28 28.36 6.38 4.53 22.35 13.26 3.03 1.65 9.68 4.04 18.68 6.68 42.04 10.92c3.11.56 6.96.54 10.45 1.06"/><ellipse fill="#040302" rx="8.99" ry="4.74" transform="rotate(237.7 350.97 277.869)"/><ellipse fill="#040302" rx="8.96" ry="4.7" transform="rotate(-52.4 1103.937 -354.485)"/><path fill="#efcd8b" d="m592.04 798.02-.08.43q-8.9 8.55-19.35 15.92-1.2.85-3.36 2.03-1.68.91-3.36 2.02-5.85-.03-11.89-.24-23.21-.81-37.76-1.9c-11.06-.83-21.19-.18-31.98.27q-26.64 1.11-51.89-.88-4.27-.33-8.25-.92-3.88-3.23-7.81-6.05-3.33-2.39-13.36-13.15-.68-.73-2.16-1.3l-.55-2.24q2.87 2.5 4 2.65 22.31 3 48.26 2.91 27.85-.08 42.75-1.41c6.58-.58 17.11.06 25.99.81q27.6 2.35 61.76 1.73 5.85-.1 9.04-.68m-239.69 24.71q-5.8-2.48-7.5-3.58c-5.68-3.72-9.9-8.46-14.58-13.04-1.49-1.45-2.57-3.01-3.83-4.63q2.15-1.1 4.46-1.2a2.1 2.09-30.3 0 1 1.15.3c2.7 1.66 5.92 3.81 8.85 5.27q15.66 7.82 32.61 12.06a.42.41 46.6 0 1-.02.81z"/><path fill="#fdf0cd" d="M326.44 801.48c1.26 1.62 2.34 3.18 3.83 4.63 4.68 4.58 8.9 9.32 14.58 13.04q1.7 1.1 7.5 3.58-18.03 2.85-35.35 2.31-3.29-.1-7.17-1.29a1.13 1.13 0 0 1-.55-1.79q.63-.78 1.59-1.35 5.92-3.52 13.02-6.37a1.04 1.04 0 0 0 .41-1.64q-.53-.62-1.74-.68c-6.29-.31-14.12 2.45-20.63 5.06a2.06 2.03-52.7 0 1-.97.14q-1.18-.13-2.59-.84a.91.91 0 0 1-.4-1.23c3.52-6.92 21.31-12 28.47-13.57"/><path fill="#efcd8b" d="M687.88 805.44q-1.32 4.7-5 7.93-3.71 3.25-7.74 6.12a2.08 1.87-74.6 0 1-.25.16l-13.54 6.81-18.52-4.03a.4.39 44.4 0 1-.01-.77q21.87-5.05 41.23-16.44a2.56 2.44-61.9 0 1 .91-.3q1.77-.22 2.92.52"/><path fill="#fdf0cd" d="m661.35 826.46 13.54-6.81a2.08 1.87-74.6 0 0 .25-.16q4.03-2.87 7.74-6.12 3.68-3.23 5-7.93 9.01 2.39 17.09 6.05c4.6 2.08 8.84 4.51 11.48 8.31a1.42 1.41 61.4 0 1-.62 2.11c-2.57 1.07-6.88-1.31-11.16-3.05q-6.86-2.8-13.11-2.56-.65.02-1.06.3a1.07 1.07 0 0 0 .16 1.85q6.79 3.16 11.89 6.28 1.53.94 2.43 1.96a1.09 1.08-31.1 0 1-.43 1.73q-2.79 1.05-5.55 1.1-18.22.36-37.65-3.06"/></svg>