<svg xmlns="http://www.w3.org/2000/svg" viewBox="0 0 1024 1024"><g fill="none" stroke-width="2"><path stroke="gray" d="M474.9 235.18q-18.52 3.34-35 9.73-4.89 1.89-9.64 3.77a.9.9 0 0 1-1.13-.43c-10.68-21.34-31.39-37.84-56.46-35.19-29.6 3.12-50.77 27.04-52.65 55.98q-1.98 30.43 20.79 51.59a.56.56 0 0 1 .08.73q-1.45 2.07-6.99 9.78-13.18 18.39-23.45 36.67a1.38 1.38 0 0 1-.99.68c-42.88 6.5-73.14 39.18-84.73 80.24-10.06 35.63-6.08 76.25 15.41 106.42 2.78 3.89 6.05 7.23 8.3 10.49a1.37 1.34 35 0 1 .2 1.08q-7.8 32.81-7.28 66.56c.31 20.21 3.34 40.97 9.08 59.03q17.58 55.34 63.61 90.37 16.94 12.89 43.1 24.71a3.05 2.98-7.9 0 1 1.03.76q.77.9 4.09 5.19c11.94 15.45 34.02 21.64 44.59.25a.71.71 0 0 1 .78-.38q15.05 2.94 31.36 4.05 29.81 2.05 60.18.52c13.69-.69 25.57-.29 38.26.29q41.69 1.9 81.92-4.87a.74.73 69.5 0 1 .76.35q1.71 2.81 1.76 2.9 5.69 10.34 17.35 10.76c12.93.46 22.48-9.41 29.2-19.53a1.74 1.73 5.6 0 1 .77-.63q23.9-10.01 41.34-22.74 43.39-31.69 62.47-82.15c7.65-20.2 11.24-42.39 11.84-64.43q1-36.44-7.83-71.12a.94.94 0 0 1 .22-.86q18.88-20.83 25.12-46.69 7.03-29.14.81-59.15-2.81-13.55-6.27-22.5c-13.62-35.15-40.7-62.42-79.03-68.78a2.36 2.36 0 0 1-1.63-1.11q-14.89-24.48-30.64-46.11a.74.74 0 0 1 .09-.96c2.42-2.28 6.05-5.98 7.36-7.66q21.12-27.25 10.45-59.85c-7.07-21.62-26.69-37.91-50.1-39.82-24.81-2.02-45.01 14.71-55.67 35.7a.44.44 0 0 1-.56.2q-22.01-9.57-45.15-13.81a2.75 2.74 79 0 1-1.81-1.23q-8.18-13.1-9.2-14.67-4.01-6.1-5.72-7.68-6.37-5.87-13.09-.79c-1.56 1.18-2.43 3.06-3.33 4.17a.66.66 0 0 1-.94.1q-6.92-5.61-15.44-7.83c-5.74-1.49-11.98-.5-13.3 6.33-.24 1.28.04 2.65-.2 3.67a.64.63-79.2 0 1-.71.49c-4.18-.65-11.94-1.09-14.91 1.84-4.38 4.33-2.46 11.07 1.7 14.99a.34.34 0 0 1-.17.58" vector-effect="non-scaling-stroke"/><path stroke="#7c6126" d="m504.2 223.89 3.57 10.33" vector-effect="non-scaling-stroke"/><path stroke="#796846" d="M507.77 234.22q-.21 1.94-.62 2.39a1.76 1.75 36.4 0 1-2.17.32c-8.5-4.89-12.65-8.05-20.38-8.95a.28.28 0 0 0-.22.49l4.03 3.77" vector-effect="non-scaling-stroke"/><path stroke="#7c6126" d="M488.41 232.24q3.06 3.25 4.25 7.37" vector-effect="non-scaling-stroke"/><path stroke="#796846" d="M492.66 239.61q-.7 5.77-6.52 6.59-26.45 3.73-48.4 12.95-20.62 8.67-39.02 21.34c-8.69 5.98-16.06 11.72-24.3 15.8" vector-effect="non-scaling-stroke"/><path stroke="#7c5a50" d="M374.42 296.29q-.91-2.52 2.07-6.55 7.17-9.72 16.63-17.33a.66.66 0 0 0 .21-.73c-3.28-10.08-11.24-22.14-21.75-25.31q-6.71-2.02-13.8 2.71" vector-effect="non-scaling-stroke"/><path stroke="#794d1c" d="M357.78 249.08q-1.2-1.12-.72-2.02 4.7-8.7 15.29-8.1" vector-effect="non-scaling-stroke"/><path stroke="#7c6126" d="M372.35 238.96c14.46 1.23 23.98 13.67 29.97 25.57a.64.63 60.2 0 0 .91.25l9.77-6.29" vector-effect="non-scaling-stroke"/><path stroke="#796846" d="m413 258.49 4.94-2.8a.74.73-27.7 0 0 .3-.95q-6.8-14.48-20.03-23.25c-17.85-11.82-41.4-5.35-54.13 10.55" vector-effect="non-scaling-stroke"/><path stroke="#794d1c" d="M344.08 242.04c-17.14 21.59-15.1 52.19 6.44 69.97a.56.56 0 0 0 .75-.03q5.82-5.6 12.34-9.38" vector-effect="non-scaling-stroke"/><path stroke="#7c5a50" d="m363.61 302.6 2.35-.01" vector-effect="non-scaling-stroke"/><path stroke="#796846" d="M365.96 302.59q-.73 6.73-6.1 14.25-8.09 11.34-14.72 20.3-8.7 11.77-20.03 30.79a.31.31 0 0 0 .24.46l11.79 1.12" vector-effect="non-scaling-stroke"/><path stroke="#7c6126" d="M337.14 369.51q10.16 1.66 20.77 5.14c3.02 1 10.81 3.9 11.55 6.42a1.17 1.17 0 0 1-1.16 1.5l-6.08-.23" vector-effect="non-scaling-stroke"/><path stroke="#796846" d="M362.22 382.34q-10.54-1.71-15.22-2.3c-21.41-2.68-41.35-.11-60.25 8.99q-15.05 7.24-25.7 19.48" vector-effect="non-scaling-stroke"/><path stroke="#807a68" d="M261.05 408.51q-10.14 11.34-16.51 24.77-15.15 31.95-11.21 66.99" vector-effect="non-scaling-stroke"/><path stroke="#796846" d="M233.33 500.27q.48 6.84 2.73 15.44c6.74 25.81 21.61 45.38 44.19 59.66q24.99 15.8 55.92 18.04a.4.4 0 0 0 .41-.52l-5.99-18.44" vector-effect="non-scaling-stroke"/><path stroke="#807a68" d="M330.59 574.45q-4.03-12.57-8.09-25.19c-.84-2.6-1.49-6.12 2.52-6.46q39.71-3.44 83.98-4.94 3.39-.12 6.4.54 32 6.98 63.61 15.35" vector-effect="non-scaling-stroke"/><path stroke="#746b51" d="m479.01 553.75 32.86 9.73a5.39 5.33-44.7 0 0 3.01 0l30.4-8.88" vector-effect="non-scaling-stroke"/><path stroke="#807a68" d="M545.28 554.6q31.3-8.4 63.1-15.3 5.46-1.18 9.9-1.26 4.48-.07 9.98.18 32.98 1.51 74.47 4.26 2.79.19 4.79 1.3a2.04 2.04 0 0 1 .97 2.39l-9.58 31.37" vector-effect="non-scaling-stroke"/><path stroke="#796846" d="m698.91 577.54-4.98 15.32a.32.32 0 0 0 .34.41q34.1-3.86 61.04-24.63c21.83-16.83 34.69-41.72 37.18-69.19" vector-effect="non-scaling-stroke"/><path stroke="#807a68" d="M792.49 499.45c2.7-31.41-5.29-63.56-25.56-88.19" vector-effect="non-scaling-stroke"/><path stroke="#796846" d="M766.93 411.26q-11.11-14.37-28.14-22.55-27.8-13.36-59.41-8.66" vector-effect="non-scaling-stroke"/><path stroke="#7c6126" d="M679.38 380.05q-8.07.85-16.32 2.16-3.24.52-5.4.09a1.32 1.32 0 0 1-.74-2.17q1.06-1.21 3.4-2.32 12.36-5.9 25.98-7.97" vector-effect="non-scaling-stroke"/><path stroke="#794d1c" d="m686.3 369.84 14.6-1.45a.3.3 0 0 0 .24-.45c-5.29-9.53-10.36-16.81-15.86-25.04-6.58-9.82-15.06-20.74-22.24-31.4" vector-effect="non-scaling-stroke"/><path stroke="#7c5a50" d="M663.04 311.5q-1.96-3.04-2.87-6.73a2.01 2-13.2 0 1 1.52-2.44q.27-.06 1.6.3" vector-effect="non-scaling-stroke"/><path stroke="#7c6126" d="M663.29 302.63q6.23 3.76 11.69 9.1a.88.88 0 0 0 1.15.06c14.6-11.6 20.82-30.91 16.78-49q-1-4.47-2.37-7.23" vector-effect="non-scaling-stroke"/><path stroke="#796846" d="M690.54 255.56q-5.54-14.63-17.81-22.79c-12.32-8.21-28.62-9.78-41.69-2.31-9.58 5.47-17.72 14.36-22.19 24.53a.63.62-63 0 0 .25.79l3.3 2" vector-effect="non-scaling-stroke"/><path stroke="#7c6126" d="m612.4 257.78 11.57 7.47a.44.44 0 0 0 .64-.19q2.59-5.64 6.03-10.89c6.01-9.19 17.29-16.99 28.57-14.79q6.47 1.27 10.23 6.97.67 1.01.39 1.69-.3.75-1.58.8" vector-effect="non-scaling-stroke"/><path stroke="#7c5a50" d="M668.25 248.84q-4.79-3.73-10.51-2.9-7 1.03-12.68 6.97-7.8 8.16-11.46 19.08a.71.69-60.7 0 0 .2.74c5.36 4.82 11 10.2 14 13.88q3.37 4.13 5.11 9.06" vector-effect="non-scaling-stroke"/><path stroke="#7c6126" d="m652.91 295.67-2.27-.26" vector-effect="non-scaling-stroke"/><path stroke="#7d6638" d="M650.64 295.41q-6.85-3.43-9.79-5.73-38.89-30.55-86.78-41.5-8.66-1.98-13.61-8.72-6.5-8.86-11.54-19.25a.49.49 0 0 0-.9.06l-1.38 4.21" vector-effect="non-scaling-stroke"/><path stroke="#7c6126" d="M526.64 224.48q-.62 3.76-1.06 7.55-.2 1.69-.88 2.59a1.58 1.58 0 0 1-2.29.26l-5.51-4.72" vector-effect="non-scaling-stroke"/><path stroke="#746b51" d="M516.9 230.16q-6.61-7.44-14.76-11.71a.49.49 0 0 0-.65.68l2.71 4.76" vector-effect="non-scaling-stroke"/><path stroke="#edc874" d="m516.9 230.16-12.7-6.27" vector-effect="non-scaling-stroke"/><path stroke="#f4b873" d="M652.91 295.67q1.05 2.68 3.17 4.95c2.45 2.62 2.1 3.28 2.54 6.61q.44 3.27 4.12 7.71" vector-effect="non-scaling-stroke"/><path stroke="#f1ab3f" d="M662.74 314.94q5.83 10.62 10.56 21.96 10.97 26.31 13.23 30.67.23.44.42.93a.69.68-31.4 0 1-.19.77q-.31.26-.46.57" vector-effect="non-scaling-stroke"/><path stroke="#f2c66a" d="m679.38 380.05-.59.54a.49.49 0 0 0 .36.85c5.99-.34 13.13-.89 19.33.59l14.7 3.7c6.56 1.66 13.47 4.64 18.3 7.27q14.92 8.12 29.25 21.74 2.85 2.7 4.7 6.19a1.92 1.9 32.4 0 1 .21.91l-.27 13.58" vector-effect="non-scaling-stroke"/><path stroke="#f9d88b" d="M765.37 435.42q-4.07 33.43-31.06 54.12" vector-effect="non-scaling-stroke"/><path stroke="#f6c45b" d="M734.31 489.54q-16.49-13.6-25.26-21.61-12.12-11.09-25.01-17.16c-21.56-10.16-45.3-9.66-65.36 3.83q-10.18 6.85-19.37 15.11" vector-effect="non-scaling-stroke"/><path stroke="#7c6126" d="M599.31 469.71q-13.67-3.58-27.43-3.49" vector-effect="non-scaling-stroke"/><path stroke="#f9d88b" d="m571.88 466.22-6.77-8.46" vector-effect="non-scaling-stroke"/><path stroke="#7c6126" d="M565.11 457.76q27.76-11.15 56.96-15.86a.49.48-29.4 0 0 .24-.85q-.24-.19-.6-.23-31.61-3.55-58.55 13.84" vector-effect="non-scaling-stroke"/><path stroke="#f9d88b" d="M563.16 454.66q-4-4.29-7.78-9.06-4.17-5.26-6.88-7.83-5.39-5.13-8.2-6.84-21.15-12.88-44.72-5.4c-7.55 2.39-14.63 7.7-20.11 12.91q-2.8 2.66-7 7.98-3.31 4.19-6.59 8.36" vector-effect="non-scaling-stroke"/><path stroke="#7c6126" d="M461.88 454.78q-26.01-16.88-56.89-14.16-1.29.11-2.28.56a.36.36 0 0 0 .09.69q23.33 4.21 45.71 11.61c3.37 1.12 7.25 2.83 10.94 4.24" vector-effect="non-scaling-stroke"/><path stroke="#f9d88b" d="m459.45 457.72-7.06 8.44" vector-effect="non-scaling-stroke"/><path stroke="#7c6126" d="m452.39 466.16-9.03.28" vector-effect="non-scaling-stroke"/><path stroke="#f6c45b" d="M443.36 466.44q-11.08-1.36-21.56-4.67c-9.95-3.14-21.18-9.08-31.51-12.49-27.59-9.11-55.41-4.42-76.87 15.66q-12.27 11.48-23.6 23.93" vector-effect="non-scaling-stroke"/><path stroke="#f9d88b" d="M289.82 488.87q-19.3-15.2-26.74-38.07" vector-effect="non-scaling-stroke"/><path stroke="#f2c66a" d="M263.08 450.8q-.67-2.6-2.12-11.47-2.04-12.47-1.59-15.8a6.58 6.2-35.2 0 1 .19-.93q.62-2.1 2.46-4.32 1.82-2.2 5.78-5.97 7.48-7.12 19-14.73 11.5-7.6 21.02-10.27 15.11-4.24 18.95-5.03 9.33-1.91 16.63-.97c6.72.86 13.03 2.98 18.82 1.03m-25.08-12.83q4.26-4.69 7.41-11.42" vector-effect="non-scaling-stroke"/><path stroke="#f1ab3f" d="M344.55 358.09c3.24 5.34 12.95 18.59 20.15 9.23q2.03-2.64 3.18-6.58c3.63-12.47 3.15-26.24 1.53-39.23" vector-effect="non-scaling-stroke"/><path stroke="#f2c66a" d="M369.41 321.51c7.76-9.75 16.21-19.43 25.73-27.08q5.33-4.3 10.27-9.05c5.47-5.26 13.28-9.77 19.15-13.26q4.53-2.7 9.06-5.7 5.85-3.87 9.34-5.21 16.17-6.18 18.41-7.09 3.4-1.37 6.38-2.07 8.71-2.05 16.44-3.37 4.09-.7 7.77-3.45.81-.61 1.8-3.06a1.62 1.53 51.5 0 0 .08-.92q-.26-1.31-1.18-1.64m-4.25-7.37 5.74 1.32a13.24 13.08 67.1 0 1 3.94 1.63q3.24 2.01 6.46 3.34a3.19 3.03 27.8 0 0 3.8-1.07q1.01-1.52-.58-3.24" vector-effect="non-scaling-stroke"/><path stroke="#f6dfac" d="m766.93 411.26-1.56 24.16" vector-effect="non-scaling-stroke"/><path stroke="#f1a469" d="m663.04 311.5-.3 3.44" vector-effect="non-scaling-stroke"/><path stroke="#fadd9d" d="M289.82 488.87c27.28 21.35 60.63 26.86 93.61 20.27 13.09-2.62 24.64-7.5 36.02-13.75q3.04-1.68 10.71-7.49 10.46-7.93 16.91-15.81" vector-effect="non-scaling-stroke"/><path stroke="#807a68" d="m447.07 472.09 15.54-2.79a.89.89 0 0 0 .14-1.71q-4.56-1.6-10.36-1.43m7.06-8.44 5.63 1.69a.53.53 0 0 0 .53-.88l-3.73-3.75m101.28-.12-3.98 3.76a.55.54 67.4 0 0-.17.42q.06 1.02 1.25.66 2.58-.78 4.85-1.74m6.77 8.46c-3.18.18-6.93.04-9.75 1.51a.95.95 0 0 0 .28 1.78l14.4 2.51" vector-effect="non-scaling-stroke"/><path stroke="#fadd9d" d="M576.81 472.02c7.72 8.45 16.44 14.99 26.64 21.51 24.13 15.44 51.59 20.65 80.03 17.12q28.41-3.52 50.83-21.11" vector-effect="non-scaling-stroke"/><path stroke="#f6dfac" d="M792.49 499.45q-.25-1.04-.92 1.23a1.54 1.48-11.1 0 1-.56.8l-.67.5a1.38 1.3-7.8 0 0-.42.52q-2.86 6.18-4.87 9.15-2.56 3.8-3.13 5.07-1.17 2.61-3.14 5.07c-4.35 5.44-7.4 8.36-12.03 13.62q-4.45 5.04-9.56 8.78-10 7.29-13.75 9.73-13.49 8.75-29.71 14.27-8.37 2.85-9.17 3.13-2.8.96-3.17 3.9a1.76 1.72-25.8 0 1-.25.69q-.97 1.54-2.23 1.63" vector-effect="non-scaling-stroke"/><path stroke="#f1e2b6" d="M545.28 554.6q-6.72-.82-13.43-.33a14.3 14.17 45.3 0 1-2.26-.02q-7.46-.7-12.59-.59-8.75.19-31.29.96a.56.26-19.9 0 1-.11-.01l-6.59-.86" vector-effect="non-scaling-stroke"/><path stroke="#f6dfac" d="m330.59 574.45-.36.55a.54.53-44.1 0 1-.91-.01q-1.12-1.84-3.33-2.49-13.91-4.11-19.41-6.09c-10.29-3.71-19.28-9.35-28.55-15.44q-8.55-5.61-13.7-10.43-7-6.56-14.39-14.81c-4.77-5.33-7.8-10.97-12.12-17.46a6.24 5.87 19.6 0 1-.66-1.29q-1.36-3.58-3.83-6.71m29.75-49.47q-1.44-3.2-2.11-6.63-1.5-7.65-2-14.84-.13-1.93-.56-5.11-.71-5.3 1.06-10.56a3.58 3.44-16.4 0 1 .69-1.21q2.37-2.72.89-3.94" vector-effect="non-scaling-stroke"/><path stroke="#f6c45b" d="M650.64 295.41q-6.89-.57-12.68-5.12-24.67-19.35-53.39-30.17-15.26-5.74-32.16-10.32-7.74-2.09-12.8-7.9-5.26-6.04-10.72-13.31-.81-1.08-2.25-4.11" vector-effect="non-scaling-stroke"/><path stroke="#7d6638" d="M443.36 466.44c-14.86 1.63-28.83 5.84-41.67 13.49q-1.44.85-2.5 1.93a.28.27-75.9 0 0 .27.46q22.87-6.62 47.61-10.23m129.74-.07q3.89.39 5.22.65 10.69 2.05 21.15 4.09 13.03 2.54 22.84 5.71a.22.22 0 0 0 .25-.34q-.27-.38-.87-.77-12.11-7.92-26.09-11.65" vector-effect="non-scaling-stroke"/><path stroke="#efb260" d="M369.41 321.51q-6.44 7.7-10.25 13.39-3.36 5.02-14.61 23.19" vector-effect="non-scaling-stroke"/><path stroke="#f2bf94" d="m365.96 302.59 8.46-6.3" vector-effect="non-scaling-stroke"/><path stroke="#f4b873" d="M663.29 302.63q2.29-2.82 3.65-6.29a3.3 3.19 75.6 0 1 .49-.86q1.94-2.47 3.74-6.49 4.45-9.97 3.31-20.24-.69-6.12-1.9-10.37-1.41-4.99-4.33-9.54" vector-effect="non-scaling-stroke"/><path stroke="#f2c66a" d="M690.54 255.56q-4.09-2.56-6.02-7.44a3.1 3.09 13.3 0 0-.51-.82q-1.67-1.92-3.74-4.56-5.61-7.14-14.82-9.05-12.35-2.55-25.75 2.31c-4.7 1.71-10.65 4.22-14.5 7.68q-6.35 5.72-12.8 14.1" vector-effect="non-scaling-stroke"/><path stroke="#f1a469" d="M357.78 249.08q-3.99 7.45-4.94 16.15-.53 4.88-.69 7.01c-.42 5.41 1.22 11 3.3 15.53q3.11 6.78 8.16 14.83" vector-effect="non-scaling-stroke"/><path stroke="#f1ab3f" d="M372.35 238.96q-1.72-4.51-6.42-5.76" vector-effect="non-scaling-stroke"/><path stroke="#f2c66a" d="m413 258.49.39-2.3a1.05 1.04-61.9 0 0-.26-.87c-6.12-6.64-10.29-12.66-17.42-16.05q-10.81-5.13-22.96-6.41-1.49-.15-6.82.34" vector-effect="non-scaling-stroke"/><path stroke="#efb260" d="M365.93 233.2c-5.18.12-9.89 1.33-14.21 4.31q-3.41 2.35-4.35 3.37-2.09 2.26-3.29 1.16" vector-effect="non-scaling-stroke"/><path stroke="#696f3f" d="m514.97 581.43.02 49.24" vector-effect="non-scaling-stroke"/><path stroke="#807a68" d="m514.99 630.67-.17 16.35" vector-effect="non-scaling-stroke"/><path stroke="#746b51" d="m514.82 647.02-.41 46.65a.83.83 0 0 1-.85.82l-.28-.01a1.09 1.09 0 0 1-1.05-1.08l-.33-37.32" vector-effect="non-scaling-stroke"/><path stroke="#807a68" d="m511.9 656.08-1.11-82.96a.5.49 8.9 0 0-.35-.47q-14.5-4.7-29.39-8.7-33.62-9.04-67.94-16.53a11.61 11.32-39.2 0 0-2.82-.25q-38.62 1.54-76.69 4.51a.23.23 0 0 0-.21.3l18.36 58.51a.72.7 82.7 0 0 .63.5l9.2.75" vector-effect="non-scaling-stroke"/><path stroke="#746b51" d="M361.58 611.74q10.14 1.18 17.19 8.5" vector-effect="non-scaling-stroke"/><path stroke="#807a68" d="M378.77 620.24q1.52 2.32 2 5.62a1.92 1.89-67.8 0 0 .35.85l2.58 3.52" vector-effect="non-scaling-stroke"/><path stroke="#746b51" d="M383.7 630.23q3.55 12.55-5.14 23.68" vector-effect="non-scaling-stroke"/><path stroke="#696f3f" d="m378.56 653.91-5.65 5.43" vector-effect="non-scaling-stroke"/><path stroke="#807a68" d="m372.91 659.34-9.69 5.96a.85.83 74.1 0 0-.4.74l1.23 58.45a.51.51 0 0 0 .52.5l69.36-1.46a.69.69 0 0 0 .67-.76l-.73-7.37" vector-effect="non-scaling-stroke"/><path stroke="#746b51" d="m433.87 715.4-2.77-27.85" vector-effect="non-scaling-stroke"/><path stroke="#807a68" d="m431.1 687.55-.26-3.43a.73.72 89.6 0 1 .76-.78q.63.03.76.5.58 2.24.98 5.22" vector-effect="non-scaling-stroke"/><path stroke="#746b51" d="m433.34 689.06 3.5 26.96" vector-effect="non-scaling-stroke"/><path stroke="#807a68" d="m436.84 716.02 1.07 7.19a.8.79-85.4 0 0 .55.65l73.64 23.39a.47.47 0 0 0 .61-.45v-39.6" vector-effect="non-scaling-stroke"/><path stroke="#746b51" d="m512.71 707.2.19-5.56a.35.35 0 0 1 .35-.34h.29a.56.56 0 0 1 .56.54l.46 12.15" vector-effect="non-scaling-stroke"/><path stroke="#807a68" d="m514.56 713.99.41 33.34a.36.36 0 0 0 .47.34l75.67-23.75a1.92 1.91-5.3 0 0 1.33-1.59l.9-6.95" vector-effect="non-scaling-stroke"/><path stroke="#746b51" d="m593.34 715.38 4.12-33.06a.57.57 0 0 1 .74-.47l.29.09a.62.61-78.7 0 1 .42.64l-2.86 32.46" vector-effect="non-scaling-stroke"/><path stroke="#807a68" d="m596.05 715.04-.6 7.8a.51.51 0 0 0 .5.55l72.05 2.12a.7.7 0 0 0 .73-.7v-58.1a.7.68 15 0 0-.36-.6l-8.01-4.45" vector-effect="non-scaling-stroke"/><path stroke="#746b51" d="M660.36 661.66q-13.41-8.23-15.54-23.31-.63-4.47 2.22-9.36 1.05-1.79 1.77-3.9 1.52-4.45 5.4-7.39 7.17-5.43 15.83-6.4" vector-effect="non-scaling-stroke"/><path stroke="#807a68" d="m670.04 611.3 7.73-.56a1.01 1.01 0 0 0 .89-.7l18.41-58a.55.54 10.6 0 0-.49-.71l-78.68-4.24a10.53 10.16 39.5 0 0-2.68.21q-46.31 10-92.41 23.27-4.17 1.2-7.3 2.6a.8.79 79.3 0 0-.48.72l-.06 7.54" vector-effect="non-scaling-stroke"/><path stroke="#f1e2b6" d="M670.04 611.3q-.05-2.01 1.12-4.28a3.45 3.2 66.8 0 0 .27-.76c.91-3.92 1.25-7.21 2.6-10.71q2.09-5.42 4.33-11.85a1.01 1.01 0 0 0-.97-1.34l-17.18.36a1.13 1.12 23.1 0 0-.73.29q-9.3 8.16-16.32 16.22c-5.72 6.54-11.43 11.1-17.15 17.44q-3.41 3.79-11.41 11.3-2.63 2.48-4.74 5.01-4.09 4.94-4.35 5.37a.78.67 37.6 0 1-1.12.06q-.25-.23-.28-.96" vector-effect="non-scaling-stroke"/><path stroke="#807a68" d="m604.11 637.45 2.49-17.35" vector-effect="non-scaling-stroke"/><path stroke="#e6e6a5" d="M606.6 620.1q5.53-5.76 10.91-10.94 6.61-6.36 10.81-10.99 4.18-4.61 8.74-8.86c4.43-4.14 8.88-9.27 13.07-13.94q3.88-4.32 10.09-3.85 4.31.33 12.53.66 4.73.19 7.92-.32a1.45 1.45 0 0 0 1.16-1l3.28-10.32a.46.45-78.7 0 0-.39-.59q-30.25-2.8-59.87-4.5c-3.49-.2-6.95-.06-10.4.08" vector-effect="non-scaling-stroke"/><path stroke="#807a68" d="m614.45 555.53-.06-2.75a1.38 1.38 0 0 0-2.75-.15q-.21 1.54-.72 3.92" vector-effect="non-scaling-stroke"/><path stroke="#e6e6a5" d="m610.92 556.55-95.95 24.88" vector-effect="non-scaling-stroke"/><path stroke="#696f3f" d="m614.45 555.53-7.85 64.57" vector-effect="non-scaling-stroke"/><path stroke="#746b51" d="M604.11 637.45c-1.22 9.16-1.99 18.67-4.04 27.66q-.06.3-.47.64" vector-effect="non-scaling-stroke"/><path stroke="#807a68" d="M599.6 665.75q-.14-.32-.24-.26" vector-effect="non-scaling-stroke"/><path stroke="#746b51" d="m599.36 665.49 1.88-23.34" vector-effect="non-scaling-stroke"/><path stroke="#807a68" d="m601.24 642.15 2.05-19.8" vector-effect="non-scaling-stroke"/><path stroke="#696f3f" d="m603.29 622.35 7.63-65.8" vector-effect="non-scaling-stroke"/><path stroke="#e6e6a5" d="M603.29 622.35q-1.52 1.21-2.76 2.89-1.87 2.55-2.46 3.15-4.2 4.25-9.12 10.07-4.12 4.87-12.96 13.71c-.64.64-.84 1.4-1.37 1.92q-.37.35-1.7-.06-5.21-1.6-11.25-4.28c-11.79-5.24-24.08-8.92-37.42-14.95q-4.54-2.05-9.26-4.13" vector-effect="non-scaling-stroke"/><path stroke="#f1e2b6" d="m660.36 661.66-.25 8.48a1.95 1.95 0 0 1-1.21 1.74q-8.85 3.61-19.86 7.33c-3.14 1.06-5.39.82-8.28-.23q-3.8-1.38-10.44-4.28c-5.67-2.48-13.38-4.74-19.64-7.67a1.42 1.4-3.4 0 1-.64-.56l-.44-.72m1.64-23.6q-9.26 8.25-16.83 17.03a.44.44 0 0 0 .16.69l12.78 5.75a1.47 1.46 51 0 0 .91.1l1.1-.23" vector-effect="non-scaling-stroke"/><path stroke="#f1e2b6" d="m596.05 715.04 62.27 1.58a.72.71-87.5 0 0 .73-.68l1.68-31.19a1.37 1.36-9.3 0 0-1.87-1.34q-8.62 3.4-11.72 4.47c-5.2 1.78-8.82 3.2-13.24 1.25q-15.77-6.96-33.19-12.56-1.45-.47-.96-1.66" vector-effect="non-scaling-stroke"/><path stroke="#807a68" d="m599.75 674.91-.02-2.68a.62.62 0 0 0-1.24-.08l-.35 2.66" vector-effect="non-scaling-stroke"/><path stroke="#f1e2b6" d="M598.14 674.81q-1.68.34-3.45-.49-9.03-4.25-18.4-6.83a1.36 1.36 0 0 0-1.33.36q-14.24 14.51-28.99 30.37-10.42 11.2-21.56 23.59c-2.78 3.09-6.21 6.04-7.84 9.57a2.23 2.18 61.1 0 0-.18.65l-.58 5.01a1.05 1.04 86.9 0 0 1.27 1.14q6.76-1.52 11.74-3.17 8.22-2.73 11.23-3.44c8.84-2.1 14.75-4.36 27.42-8.65q3.9-1.31 12.98-3.57 6.54-1.62 12.89-3.97m-78.78-1.39q.59-.33 1.69-.16a1.17 1.14 26.7 0 0 .96-.3q11.27-10.79 25.25-24.63 7.53-7.46 11.19-11.68 5.41-6.22 11.11-11.7a.72.72 0 0 0-.28-1.21c-5.21-1.65-9.69-3.9-15.44-5.83q-11.9-3.98-30.44-11.38-1.95-.78-3.78-.08" vector-effect="non-scaling-stroke"/><path stroke="#746b51" d="M598.14 674.81q.79.51 1.61.1" vector-effect="non-scaling-stroke"/><path stroke="#f1e2b6" d="M511.9 656.08q-3.59-.59-7.27 1.15-5.13 2.43-5.23 2.47-15.31 5.74-28.55 11.46a.72.71 62.2 0 0-.32 1.04q3.7 5.7 10.5 13.41 5.58 6.32 6.36 9.24c2.44 9.01-4.15 17.69-9.72 25.18-1.23 1.66-2.36 3.6-3.15 5.27a1.08 1.07 22.8 0 0 .6 1.46q4.53 1.67 11.6 3.71c5.52 1.59 11.64 4.21 18.04 5.19a.64.64 0 0 0 .72-.54q1.37-9.52 4.53-18.53a6.57 6.49 56.9 0 0 .35-1.71q.3-4.69.66-6.57.31-1.65 1.69-1.11" vector-effect="non-scaling-stroke"/><path stroke="#f1e2b6" d="m436.84 716.02 23.33 6.38a1.73 1.73 0 0 0 1.9-.72c2.64-3.95 3.58-6.05 6.59-9.93q1.96-2.52 3.54-5.75c1.86-3.82 4.11-7.71.98-11.44q-6.41-7.59-15.4-17.25a2.8 2.79 59.5 0 0-2.89-.75q-9.73 3.11-19.1 8.64a2.35 2.3 89.4 0 0-.87.91l-1.58 2.95m-2.24-1.51q-8.68 1.39-16.93 5.01-11.1 4.86-11.17 4.88-14.96 5.77-30.11 12.39a1.31 1.3 79.9 0 0-.79 1.14l-.22 4.11a1.29 1.29 0 0 0 1.33 1.36q26.31-.88 44.51-1.32c5.46-.13 10.7.12 16.15.28" vector-effect="non-scaling-stroke"/><path stroke="#e6e6a5" d="M372.91 659.34q.25 1.09-.6 2.73a1.74 1.73-29.9 0 0-.19.7l-.91 31.08a.88.88 0 0 0 1.18.85c8.85-3.26 17.95-7.68 25.81-10.5q12.99-4.67 30.46-12.57c3.75-1.7 10.87-4.37 16.29-6.79a.66.65-32.8 0 0 .23-1.03l-16.75-19.21" vector-effect="non-scaling-stroke"/><path stroke="#807a68" d="m428.43 644.6-6.45-55.67" vector-effect="non-scaling-stroke"/><path stroke="#f1e2b6" d="m421.98 588.93 30.23-21.45a1.1 1.1 0 0 0-.34-1.96l-34.14-9.44" vector-effect="non-scaling-stroke"/><path stroke="#807a68" d="m417.73 556.08-.88-3.73a1.31 1.31 0 0 0-2.58.34l.11 3.74" vector-effect="non-scaling-stroke"/><path stroke="#f1e2b6" d="m414.38 556.43-4.8-1.02a.76.54-28.4 0 0-.17-.02q-6.85-.19-9.91-.05-25.87 1.17-53.32 3.39a1.12 1.12 0 0 0-1 1.33q.45 2.34.92 3.61 3.24 8.87 5.15 18.08.53 2.56 2.12 6.07a2.15 2.14-6.3 0 0 1.52 1.21q15.19 3.04 27.81 7.21c7.54 2.5 11.97 3.22 21.07 5.13q1.7.36 3.49-.88 5.76-3.99 11.46-9.36" vector-effect="non-scaling-stroke"/><path stroke="#807a68" d="m418.72 591.13 6.92 49.75" vector-effect="non-scaling-stroke"/><path stroke="#f1e2b6" d="m425.64 640.88-18.7-24.56a2.04 2.04 0 0 0-2.21-.71q-1.3.41-2.82 1.3-10.09 5.9-18.21 13.32m-4.93-9.99q6.35-4.1 12.44-9.03.87-.7 1.01-1.16a1.09 1.08-72.4 0 0-.7-1.36c-3.15-1-7.52-2.73-10.42-3.42q-11.4-2.7-22.98-6.39a.7.7 0 0 0-.87.91l4.33 11.95" vector-effect="non-scaling-stroke"/><path stroke="#746b51" d="m417.73 556.08 4.25 32.85" vector-effect="non-scaling-stroke"/><path stroke="#696f3f" d="M428.43 644.6q.93 9.38 1.92 17.64.23 1.92.1 2.91a.51.51 0 0 1-.97.14q-.35-.8-.5-1.85-.66-4.74-1.39-8.58" vector-effect="non-scaling-stroke"/><path stroke="#746b51" d="m427.59 654.86-1.95-13.98m-6.92-49.75-4.34-34.7" vector-effect="non-scaling-stroke"/><path stroke="#dad68e" d="M427.59 654.86q-2.33-2.45-3.21-6.19a2.79 2.66-70.2 0 0-.42-.95q-4.06-6-9.9-10.26a3.11 3.06 70.6 0 0-.96-.47q-3.51-.97-6.98.62c-5.98 2.75-13.89 5.96-21.19 10.01a1.86 1.85-88.6 0 0-.7.67q-2.22 3.65-5.67 5.62" vector-effect="non-scaling-stroke"/><path stroke="#796846" d="M255.82 596.2q-3.09 25.08-1.02 51.05 1.16 14.45 4.04 26.73" vector-effect="non-scaling-stroke"/><path stroke="#7c6126" d="M258.84 673.98q.26.57.18 1.08" vector-effect="non-scaling-stroke"/><path stroke="#794d1c" d="M259.02 675.06c11.26 49.88 43.44 91.29 89.13 113.89a.23.23 0 0 0 .31-.28q-5.06-14.14-6.66-29.11" vector-effect="non-scaling-stroke"/><path stroke="#7d6638" d="M341.8 759.56q-1.05-10.77 2.18-19.02 2.74-7 10.08-7.87a.76.76 0 0 0 .67-.77l-1.08-48.93" vector-effect="non-scaling-stroke"/><path stroke="#794d1c" d="m353.65 682.97-.21-13.34a.38.38 0 0 0-.5-.35c-17.22 5.85-36.96 5.36-51.43-6.73" vector-effect="non-scaling-stroke"/><path stroke="#7c6126" d="M301.51 662.55c-4.89-4.76-9.82-13.25-8.83-20.3a.7.7 0 0 1 1.29-.26q3.8 6.4 9.78 11.09" vector-effect="non-scaling-stroke"/><path stroke="#7d6638" d="M303.75 653.08q13.06 9.4 28.5 9.05 5.96-.14 14.76-1.71" vector-effect="non-scaling-stroke"/><path stroke="#807a68" d="M347.01 660.42c10.66-2.18 19.16-5.79 25.84-14.41a.31.3 11.8 0 0-.32-.48q-5.97 1.47-12.87.57a.94.94 0 0 1-.46-1.68q.88-.69 2.25-1.24 5.5-2.25 11.66-5.27 2.84-1.4 2.25-4.12a2.01 1.78-5.8 0 0-1.95-1.4q-4.52.06-14.12-.04a.63.63 0 0 1-.48-1.03c2.35-2.87 7.09-4.64 10.78-6.16a.59.59 0 0 0 .07-1.05c-6.49-3.81-14.8-3.49-22.17-4.55q-2.45-.35-7.25-3.99" vector-effect="non-scaling-stroke"/><path stroke="#7d6638" d="m340.24 615.57-3.14-3.37" vector-effect="non-scaling-stroke"/><path stroke="#794d1c" d="M337.1 612.2q-.45-1.71-.14-2.86a.95.92 89.7 0 1 .61-.64l2.65-.83a.96.95-13.6 0 0 .66-1.07q-.18-1.05-.86-1.6a1.29 1.28 61.5 0 0-.93-.28q-5.55.55-20.39-2.09-33.19-5.9-58.68-26.85a.43.42 25 0 0-.69.25l-3.51 19.97" vector-effect="non-scaling-stroke"/><path stroke="#f3b051" d="M337.1 612.2q-6.09 1.32-12.33 1.07" vector-effect="non-scaling-stroke"/><path stroke="#f1ab3f" d="M324.77 613.27q-19.1.06-27.9-1.33-10.57-1.67-16.67-3.38-6.62-1.85-14.68-6.38" vector-effect="non-scaling-stroke"/><path stroke="#efb260" d="m265.52 602.18-9.7-5.98" vector-effect="non-scaling-stroke"/><path stroke="#f2c66a" d="M265.52 602.18q-5.16 19.32-6.1 34.81-.67 11.03.43 27.19.29 4.18.59 9.11a.87.86-4.9 0 1-.77.91q-.22.03-.83-.22" vector-effect="non-scaling-stroke"/><path stroke="#fadd9d" d="M340.24 615.57c-1.38 1.56-.24 2.93-.89 4.35-.89 1.94-2.06 4.38-2.44 5.81q-3.25 12.12.67 22.41 2.69 7.09 9.43 12.28" vector-effect="non-scaling-stroke"/><path stroke="#f6c45b" d="m324.77 613.27-21.02 39.81" vector-effect="non-scaling-stroke"/><path stroke="#f1ab3f" d="M301.51 662.55q-.36.71-.92.9a1.08 1.08 0 0 0-.62 1.55q1.34 2.39 3.41 4.65 11.45 12.58 28.66 15.27" vector-effect="non-scaling-stroke"/><path stroke="#f6c45b" d="M332.04 684.92q-11.16 13.39-20.52 27.95" vector-effect="non-scaling-stroke"/><path stroke="#7c6126" d="M311.52 712.87c-1.46-3.42-4.84-8.24-8.82-8.56-8.15-.66.01 17.94 8.03 15.44" vector-effect="non-scaling-stroke"/><path stroke="#f6c45b" d="M310.73 719.75q-1.63 7.87-4.95 15.21" vector-effect="non-scaling-stroke"/><path stroke="#f1ab3f" d="M305.78 734.96q-2.32-1.57-4.39-3.6-7.09-6.94-15.93-17.06c-5.67-6.49-9.97-13.81-15.61-22.09-3.88-5.7-6.63-11.6-9.01-16.51q-.07-.12-.05-.38a.21.21 0 0 0-.27-.22q-.6.15-1.5-.04" vector-effect="non-scaling-stroke"/><path stroke="#f3b051" d="M353.65 682.97q-1.6-.46-1.72.63-.08.81-.87.95-9.71 1.81-19.02.37m-26.26 50.04q10.08 9.52 21.83 16.68c6.78 4.14 10.3 5.96 12.53 7.93q.4.36.79.32.46-.05.87-.33" vector-effect="non-scaling-stroke"/><path stroke="#7d6638" d="M310.73 719.75q2.83-2.48.79-6.88" vector-effect="non-scaling-stroke"/><path stroke="#794d1c" d="m696.66 605.04-5.93.33a1.38 1.37 50.3 0 0-.25 2.71c1.96.49 3.35 1.46 2.25 3.74" vector-effect="non-scaling-stroke"/><path stroke="#7d6638" d="m692.73 611.82-3.93 4.61" vector-effect="non-scaling-stroke"/><path stroke="#807a68" d="M688.8 616.43q-3.77 2.64-7.56 3.02-5.92.6-11.79 1.73" vector-effect="non-scaling-stroke"/><path stroke="#746b51" d="M669.45 621.18q-4.86.66-8.52 3.37a.58.58 0 0 0 .12 1c4.63 1.87 7.18 2.56 9.95 4.73a1.05 1.05 0 0 1-.64 1.87q-5.53.07-10.86.33-2.7.14-4.42 1.14a2.08 2.07-41 0 0-.24 3.43q.4.31 2.69 1.43 1.54.76 13.27 5.57a.93.93 0 0 1 .1 1.67c-2.98 1.68-10.32.28-13.72-.55a.27.27 0 0 0-.29.41c3.95 6.39 12.08 11.16 19.13 13.21" vector-effect="non-scaling-stroke"/><path stroke="#807a68" d="m676.02 658.79 7.2 1.83" vector-effect="non-scaling-stroke"/><path stroke="#7d6638" d="M683.22 660.62q8.2 1.6 17.04 1.3c13.9-.46 27.12-6.77 34.53-18.89" vector-effect="non-scaling-stroke"/><path stroke="#7c6126" d="m734.79 643.03 1.33-1.48a.71.71 0 0 1 1.24.49q-.24 10.02-6.71 18" vector-effect="non-scaling-stroke"/><path stroke="#794d1c" d="M730.65 660.04q-9.45 10.23-23.65 12.15-14.29 1.94-27.98-2.01a.42.41 8.1 0 0-.53.39l-.17 14.39" vector-effect="non-scaling-stroke"/><path stroke="#7c6126" d="m678.32 684.96-.03 3.39" vector-effect="non-scaling-stroke"/><path stroke="#7d6638" d="m678.29 688.35-.51 45.42a1.1 1.1 0 0 0 .36.82c6.82 6.15 7.7 16.13 6.8 25" vector-effect="non-scaling-stroke"/><path stroke="#794d1c" d="M684.94 759.59q-1.47 14.75-6.35 28.74a.3.3 0 0 0 .42.37q19.63-10.3 36.36-24.83c27.54-23.91 46.12-57.19 53.28-92.94" vector-effect="non-scaling-stroke"/><path stroke="#7c6126" d="M768.65 670.93c4.44-24.31 4.64-49.01 1.44-73.51" vector-effect="non-scaling-stroke"/><path stroke="#794d1c" d="m770.09 597.42-2.18-13.69" vector-effect="non-scaling-stroke"/><path stroke="#7c6126" d="m767.91 583.73-1.35-6.76a.56.55 65.4 0 0-.88-.33q-25.72 20.13-57.88 26.41-5.47 1.07-11.14 1.99" vector-effect="non-scaling-stroke"/><path stroke="#f1ab3f" d="M767.91 583.73q-3.97-.86-8.17 1.3-7.7 3.97-15.38 7.97-13.59 7.08-28.47 10.64-10.74 2.57-19.23 1.4m73.43-7.62q-1.48-.64-2.03 1.13a.93.93 0 0 1-.77.66l-.63.1a6.79 6.72 25.4 0 0-2.43.85c-7.22 4.23-14.76 8.14-22.48 10.29a3.43 2.81-50.7 0 1-.6.12l-25.46 2.67" vector-effect="non-scaling-stroke"/><path stroke="#f3b051" d="M715.69 613.24q-11.52.36-22.96-1.42" vector-effect="non-scaling-stroke"/><path stroke="#fadd9d" d="M683.22 660.62q6.77-5.88 9.74-14.38 4.26-12.17-1.42-23.92-1.42-2.95-2.74-5.89" vector-effect="non-scaling-stroke"/><path stroke="#f1ab3f" d="M768.65 670.93c-6 6.95-7.88 15.63-13.37 23.37-5.04 7.1-9.67 14.55-15.09 21q-14.7 17.46-33.31 31.15" vector-effect="non-scaling-stroke"/><path stroke="#f6c45b" d="M706.88 746.45c.05-10.15-2.5-20.1-5.96-29.49-4.61-12.53-11.8-21.51-22.63-28.61" vector-effect="non-scaling-stroke"/><path stroke="#f1ab3f" d="M678.32 684.96c5.46.18 11.68.67 16.57.12 12.11-1.34 24.47-6.68 32.38-16.31q3.16-3.86 3.38-8.73" vector-effect="non-scaling-stroke"/><path stroke="#f6c45b" d="m734.79 643.03-19.1-29.79" vector-effect="non-scaling-stroke"/><path stroke="#f1e2b6" d="M676.02 658.79q8.68-13.67 12.06-29.37.23-1.06-.2-6.28a1.46 1.45 24.3 0 0-.3-.79q-.88-1.14-2.13-1.45a1.74 1.72-45.3 0 0-.84.01c-5.1 1.4-9.95 2.54-15.16.27" vector-effect="non-scaling-stroke"/><path stroke="#f3b051" d="m684.94 759.59 21.94-13.14" vector-effect="non-scaling-stroke"/><path stroke="#807a68" d="m399.38 751.04 5.18 14.54" vector-effect="non-scaling-stroke"/><path stroke="#796846" d="m404.56 765.58 2.86 14.15" vector-effect="non-scaling-stroke"/><path stroke="#794d1c" d="M407.42 779.73q1.84 10.25 1.89 20.34a.73.73 0 0 0 .6.72q16 2.9 32.13 4.02" vector-effect="non-scaling-stroke"/><path stroke="#796846" d="M442.04 804.81q24.37 1.42 41.71.78c16.8-.62 26.84-1.39 40.98-.63q17.21.93 39.38.66 3.33-.04 7.75-.31 4.06-.25 7.77-.41" vector-effect="non-scaling-stroke"/><path stroke="#794d1c" d="M579.63 804.9q18.84-.8 36.93-4.15a1.11 1.1-5.1 0 0 .9-1.07q.09-4.76.46-9.65c.42-5.5 1.98-12.03 3.03-18.04" vector-effect="non-scaling-stroke"/><path stroke="#796846" d="m620.95 771.99 1.6-6.82" vector-effect="non-scaling-stroke"/><path stroke="#807a68" d="m622.55 765.17 5.27-15.54" vector-effect="non-scaling-stroke"/><path stroke="#796846" d="M627.82 749.63q3.6-8.05 8.41-15.35a.23.22-72.6 0 0-.18-.35q-20.58-.51-40.05-.9-2.95-.06-4.5.44-45.81 14.63-73.46 23.34-3.55 1.11-4.54.79-3.52-1.12-6.97-2.17" vector-effect="non-scaling-stroke"/><path stroke="#746b51" d="m506.53 755.43-70.46-22.52" vector-effect="non-scaling-stroke"/><path stroke="#796846" d="m436.07 732.91-45.38 1.29a.17.17 0 0 0-.13.26q4.89 7.42 8.82 16.58" vector-effect="non-scaling-stroke"/><path stroke="#ead095" d="M436.07 732.91q2.37 3.94 7.23 5.31c8.47 2.4 17.03 4.43 25.18 7.39q14.62 5.32 22.37 8.04c5.49 1.93 10.26 3.23 15.68 1.78" vector-effect="non-scaling-stroke"/><path stroke="#f6dfac" d="M627.82 749.63c-1.68-.18-1.78 1.14-3.21 1.1q-10.09-.24-21.61-.76-5.82-.27-7.22.27-24.59 9.37-47.04 16.32-5.31 1.65-15.9 5.6-7.19 2.68-16.1 5.04-2.35.62-4.28.06-9.94-2.88-17.16-5.63-7.66-2.91-17.02-6.08-26.81-9.1-30-10.34-.93-.36-9.89-4.06-4.07-1.68-7.39-1.53-15.91.72-31.62 1.42" vector-effect="non-scaling-stroke"/><path stroke="#f6dfac" d="M622.55 765.17q-4.54 4.65-7.86 9.7a.37.28-10.9 0 1-.08.09l-4.58 4.59a1.81 1.67 12 0 1-.72.43q-3.24 1.04-6.76 1.54-16.72 2.39-30.04 3.55-10.3.89-31.97.63c-14.35-.17-25.06-.99-39.04-.43-18.17.72-37.99.91-56.24-1.12-13-1.45-19.46-1.94-28.27-3.95a3.65 3.65 0 0 1-2.07-1.32l-10.36-13.3" vector-effect="non-scaling-stroke"/><path stroke="#efb260" d="M620.95 771.99q-1.06 1.96-1.45 4.47a2.95 2.92-4.4 0 1-2.02 2.34l-6.46 2.02a1.77 1.74-75.2 0 0-.64.38q-7.53 7.18-15.02 14.15-6.52 6.07-15.73 9.55m-137.59-.09q.53.12.88.08a.35.35 0 0 0 .19-.62l-1.02-.82a2.08 1.87 74.6 0 0-.25-.16c-10.2-5.13-17.81-14.22-25.61-22.36a2.37 2.31 75.2 0 0-1.07-.64q-3.8-1.03-7.74-.56" vector-effect="non-scaling-stroke"/><path stroke="#796846" d="M365.71 801.55c3.66 6.46 11.48 14.89 19.2 15.67 6.83.69 12.14-5.34 13.6-11.5q1.12-4.75.83-11.08" vector-effect="non-scaling-stroke"/><path stroke="#807a68" d="M399.34 794.64q-2-25.21-13.49-49.32-2.49-5.21-5.52-8.2a1 1 0 0 0-1.71.71q-.04 8.51-.03 9.67.04 2.35-.48 4.07a.88.88 0 0 1-1.52.3c-2.2-2.68-4.35-8.21-7.23-14.49q-1.56-3.4-5.15-2.34a1.1 1.1 0 0 0-.7.63q-1.14 2.71-.81 6.1c.56 5.79 1.3 10.66.64 13.54a.81.81 0 0 1-1.32.42q-1.87-1.65-3.33-4.68-2.52-5.21-4.44-8.3a1.11 1.11 0 0 0-1.81-.09q-.74.96-1.02 2.84-.61 3.97-.44 7.24 1.38 26.3 14.73 48.81" vector-effect="non-scaling-stroke"/><path stroke="#f6dfac" d="M399.34 794.64q-6.66 12.04-18.6 11.03-5.91-.5-9.97-2.7-2.79-1.52-5.06-1.42" vector-effect="non-scaling-stroke"/><path stroke="#796846" d="M627.31 795.12q.14 4.82.64 8.69c1.29 10.01 10.81 17.57 20.41 11.04q7.64-5.19 12.53-13.5" vector-effect="non-scaling-stroke"/><path stroke="#807a68" d="M660.89 801.35q7.21-11.71 11.25-25.23 4.21-14.07 3.74-28.88-.03-.88-1.13-4.52a.76.75-15.8 0 0-.92-.51q-1.47.39-2.2 1.99c-1.93 4.23-4.15 9.06-6.82 11.28a.93.93 0 0 1-1.5-.49q-.33-1.33-.21-2.49.7-7.03.72-13.98 0-2.25-1.31-3.19a2.72 2.67-51 0 0-3.56.41q-1.46 1.61-2.51 3.97c-2.55 5.8-4.27 10.09-6.65 12.52a.78.78 0 0 1-1.29-.3c-1.29-3.76-.66-9.27-.34-13.89a1.03 1.02 78.3 0 0-1.49-.98c-2.54 1.31-5.66 7.67-6.59 9.74q-10.62 23.49-12.77 48.32" vector-effect="non-scaling-stroke"/><path stroke="#f6dfac" d="M660.89 801.35q-2.3.23-6.34 2.2c-4.64 2.27-12.52 3.16-17.75.58q-2.51-1.25-3.29-2.4-2.62-3.89-6.2-6.61" vector-effect="non-scaling-stroke"/><path stroke="#f2c66a" d="M474.27 261.78a8.39 6.02-23.9 0 0-10.109-2.104 8.39 6.02-23.9 0 0-5.232 8.903 8.39 6.02-23.9 0 0 10.11 2.105 8.39 6.02-23.9 0 0 5.232-8.903m-25.701 11.366a16.19 9.21-33.7 0 0-18.58 1.32 16.19 9.21-33.7 0 0-8.36 16.646 16.19 9.21-33.7 0 0 18.58-1.32 16.19 9.21-33.7 0 0 8.36-16.646" vector-effect="non-scaling-stroke"/><path stroke="#7c6126" d="M437.68 335.14c.31 3.7 6.8 8.81 9.79 11.03 8.76 6.51 16.84 12.66 26.98 12.71 3.73.02 7.46-3.8 6.03-7.68q-.86-2.34-3.87-3.86-9.68-4.87-22.81-11.17c-4.14-1.99-9.82-4.57-14.12-3.64a2.55 2.44-8.8 0 0-2 2.61m149.15.17a2.53 2.42 9.3 0 0-1.96-2.61c-4.26-.96-9.93 1.54-14.05 3.48q-13.09 6.13-22.75 10.88-3 1.48-3.87 3.8c-1.46 3.83 2.21 7.66 5.91 7.67 10.07.05 18.14-5.98 26.9-12.36 2.99-2.18 9.47-7.19 9.82-10.86m-139.248 21.924a33.37 27.47-85.7 0 0-29.895 31.216 33.37 27.47-85.7 0 0 24.891 35.336 33.37 27.47-85.7 0 0 29.895-31.216 33.37 27.47-85.7 0 0-24.891-35.336" vector-effect="non-scaling-stroke"/><path stroke="#7c6126" d="M576.928 357.247a33.05 27.39-96.1 0 0-23.723 35.774 33.05 27.39-96.1 0 0 30.747 29.952 33.05 27.39-96.1 0 0 23.723-35.774 33.05 27.39-96.1 0 0-30.747-29.952" vector-effect="non-scaling-stroke"/><path stroke="#f9d88b" d="M326.46 400.926a15.82 6.86-164.7 0 0 13.45 10.79 15.82 6.86-164.7 0 0 17.07-2.442 15.82 6.86-164.7 0 0-13.45-10.79 15.82 6.86-164.7 0 0-17.07 2.442m373.024-.186a15.83 6.99-15.5 0 0-17.122-2.506 15.83 6.99-15.5 0 0-13.386 10.966 15.83 6.99-15.5 0 0 17.122 2.506 15.83 6.99-15.5 0 0 13.386-10.966" vector-effect="non-scaling-stroke"/><path stroke="gray" d="M454.425 369.258a10.2 8.92-86.6 0 0-9.51 9.653 10.2 8.92-86.6 0 0 8.3 10.711 10.2 8.92-86.6 0 0 9.51-9.653 10.2 8.92-86.6 0 0-8.3-10.711m116.202-.191a10.22 8.92-94.9 0 0-8.014 10.945 10.22 8.92-94.9 0 0 9.76 9.42 10.22 8.92-94.9 0 0 8.014-10.944 10.22 8.92-94.9 0 0-9.76-9.42" vector-effect="non-scaling-stroke"/><path stroke="#807a68" d="M491.7 443.71q-1.19.93-1.3 1.68-.37 2.46.52 4.26 5.14 10.41 16.13 14.27a1.15 1.14-79 0 1 .77 1.15l-.64 11.97a2.35 2.32 69 0 1-.65 1.49q-2.14 2.23-2.5 2.49-9.51 6.86-16.29 16.22c-2.01 2.79-5.91 9-4.32 11.98q1.13 2.12 3.29 2.04c2.25-.08 4.3-2.76 5.59-4.76a.91.91 0 0 1 1.35-.2c6.49 5.5 20 5.25 28.13 3.91q5.22-.85 9.48-3.88a.85.85 0 0 1 1.24.28q1.65 2.97 4.4 4.55a1.92 1.88-33 0 0 1.19.24c5.94-.73 3.06-7.51 1.15-10.65-5.3-8.68-12.07-14.79-20.04-21.09a4.5 4.5 0 0 1-1.7-3.44l-.24-11.27a1.09 1.08-10.3 0 1 .73-1.05c6.65-2.3 16.59-9.68 16.81-17.63q.03-1.11-1.36-2.61" vector-effect="non-scaling-stroke"/><path stroke="#f9d1b5" d="M533.44 443.66q-2.07-4.12-7.09-5.79c-7.33-2.43-16.57-1.7-24.32-.07q-6.53 1.36-10.33 5.91" vector-effect="non-scaling-stroke"/><path stroke="#7c5a50" d="M533.44 443.66q-5.2 5.76-11.67 9.58c-4.81 2.83-8.75 4.69-13.74 2.51q-9.08-3.99-16.33-12.04" vector-effect="non-scaling-stroke"/><path stroke="#f9d7cd" d="M509.236 443.128a5.26 3.14-2.2 0 0-5.376-2.936 5.26 3.14-2.2 0 0-5.136 3.34 5.26 3.14-2.2 0 0 5.377 2.936 5.26 3.14-2.2 0 0 5.135-3.34" vector-effect="non-scaling-stroke"/><path stroke="gray" d="M512.39 501.02c3.92 0 8.39-.16 11.87-2.15a.78.78 0 0 0 .17-1.22q-4.99-5.12-11.75-10.66-.11-.09-.29-.09-.17 0-.28.09-6.76 5.54-11.76 10.65a.78.78 0 0 0 .17 1.22c3.48 2 7.95 2.16 11.87 2.16" vector-effect="non-scaling-stroke"/><path stroke="#f1e2b6" d="M442.95 588.75q-8.5 5.41-16.49 11.18-1.85 1.34-1.5 3.51.27 1.66.64 4.25a1.31 1.3 86.1 0 0 1.28 1.12l28.64.35" vector-effect="non-scaling-stroke"/><path stroke="#e6e6a5" d="M455.52 609.16c7.3.53 13.58-1.61 21.29-4.3q4.17-1.45 12.62-1.94.73-.05 2.81-1.36a.83.8 83.4 0 0 .35-.46l5.15-18.39a.79.76-17 0 1 .18-.32l2.43-2.79a.55.54-61.6 0 0-.26-.89q-4.49-1.22-11.42-3.59c-5.45-1.87-12.16-3.36-17.9-4.71a3.47 3.44-55.8 0 0-2.82.55l-25 17.79" vector-effect="non-scaling-stroke"/><path stroke="#dad68e" d="M455.52 609.16q-4.89-1.88-6.37-4.57-2.62-4.76-5.2-9.58-.98-1.83-1-6.26" vector-effect="non-scaling-stroke"/><path stroke="#f1e2b6" d="M427.03 616.49c-.63 3.33.9 6.61 3.16 9.55q9.69 12.63 27.62 33.91a1.4 1.4 0 0 0 1.62.38c4.14-1.79 8.27-2.81 12.89-4.76q12.19-5.16 24.61-9.88 2.31-.88 5.36-2.48a2.34 2.33 78.3 0 0 1.23-1.88q.88-11.11-.48-23.88a2.9 2.89-80.6 0 0-1.64-2.3q-9.99-4.74-20.32-1.86c-7.83 2.19-15.02 5.59-22.59 4.97q-11.29-.92-17.8-1.16c-4.14-.16-9.24-1.07-12.31-1.56a1.18 1.18 0 0 0-1.35.95" vector-effect="non-scaling-stroke"/><path stroke="#807a68" d="M430.335 671.973a2.16.96-98.4 0 0-.635 2.277 2.16.96-98.4 0 0 1.266 1.997 2.16.96-98.4 0 0 .634-2.277 2.16.96-98.4 0 0-1.266-1.997" vector-effect="non-scaling-stroke"/><path stroke="#696f3f" d="M576.1 613.37q.59-.4 4.29-2.47c9.82-5.49 11.78-16.62 4.12-24.67-10.26-10.78-29.45-5.53-33.15 8.64-.94 3.58.1 6.98 4.42 6.49 3.13-.36 3.97-3.74 5.09-6.49a3.53 3.44 76.3 0 1 .58-.98q3.64-4.42 9.54-4.33c4.79.08 9 3.11 8.95 8.27-.08 7.11-11.62 7.17-12.87 12.79-.87 3.91-2.82 17.29 6.09 13.42a2.41 2.37.5 0 0 1.2-1.16q1.27-2.65.89-7.75a1.94 1.93 70.8 0 1 .85-1.76m.61 20.68a4.9 4.9 0 0 0-4.9-4.9 4.9 4.9 0 0 0-4.9 4.9 4.9 4.9 0 0 0 4.9 4.9 4.9 4.9 0 0 0 4.9-4.9" vector-effect="non-scaling-stroke"/><path stroke="#7c6126" d="M747.113 644.08a9.91 4.91-79.4 0 0-6.65 8.837 9.91 4.91-79.4 0 0 3.004 10.644 9.91 4.91-79.4 0 0 6.65-8.838 9.91 4.91-79.4 0 0-3.004-10.644m-8.619 31.168a9.5 4.91-70.1 0 0-7.85 7.262 9.5 4.91-70.1 0 0 1.382 10.604 9.5 4.91-70.1 0 0 7.85-7.262 9.5 4.91-70.1 0 0-1.382-10.604M725.985 704.7a9.01 4.9-55.1 0 0-9.174 4.587 9.01 4.9-55.1 0 0-1.136 10.193 9.01 4.9-55.1 0 0 9.174-4.587 9.01 4.9-55.1 0 0 1.136-10.193m-446.497-60.73a9.96 4.93-100.6 0 0-3.014 10.697 9.96 4.93-100.6 0 0 6.678 8.883 9.96 4.93-100.6 0 0 3.014-10.697 9.96 4.93-100.6 0 0-6.678-8.883" vector-effect="non-scaling-stroke"/><path stroke="#7c6126" d="M288.043 675.254a9.49 4.79-110.2 0 0-1.218 10.56 9.49 4.79-110.2 0 0 7.772 7.252 9.49 4.79-110.2 0 0 1.218-10.56 9.49 4.79-110.2 0 0-7.772-7.252" vector-effect="non-scaling-stroke"/></g><path fill="#fdfdfd" d="M474.9 235.18q-18.52 3.34-35 9.73-4.89 1.89-9.64 3.77a.9.9 0 0 1-1.13-.43c-10.68-21.34-31.39-37.84-56.46-35.19-29.6 3.12-50.77 27.04-52.65 55.98q-1.98 30.43 20.79 51.59a.56.56 0 0 1 .08.73q-1.45 2.07-6.99 9.78-13.18 18.39-23.45 36.67a1.38 1.38 0 0 1-.99.68c-42.88 6.5-73.14 39.18-84.73 80.24-10.06 35.63-6.08 76.25 15.41 106.42 2.78 3.89 6.05 7.23 8.3 10.49a1.37 1.34 35 0 1 .2 1.08q-7.8 32.81-7.28 66.56c.31 20.21 3.34 40.97 9.08 59.03q17.58 55.34 63.61 90.37 16.94 12.89 43.1 24.71a3.05 2.98-7.9 0 1 1.03.76q.77.9 4.09 5.19c11.94 15.45 34.02 21.64 44.59.25a.71.71 0 0 1 .78-.38q15.05 2.94 31.36 4.05 29.81 2.05 60.18.52c13.69-.69 25.57-.29 38.26.29q41.69 1.9 81.92-4.87a.74.73 69.5 0 1 .76.35q1.71 2.81 1.76 2.9 5.69 10.34 17.35 10.76c12.93.46 22.48-9.41 29.2-19.53a1.74 1.73 5.6 0 1 .77-.63q23.9-10.01 41.34-22.74 43.39-31.69 62.47-82.15c7.65-20.2 11.24-42.39 11.84-64.43q1-36.44-7.83-71.12a.94.94 0 0 1 .22-.86q18.88-20.83 25.12-46.69 7.03-29.14.81-59.15-2.81-13.55-6.27-22.5c-13.62-35.15-40.7-62.42-79.03-68.78a2.36 2.36 0 0 1-1.63-1.11q-14.89-24.48-30.64-46.11a.74.74 0 0 1 .09-.96c2.42-2.28 6.05-5.98 7.36-7.66q21.12-27.25 10.45-59.85c-7.07-21.62-26.69-37.91-50.1-39.82-24.81-2.02-45.01 14.71-55.67 35.7a.44.44 0 0 1-.56.2q-22.01-9.57-45.15-13.81a2.75 2.74 79 0 1-1.81-1.23q-8.18-13.1-9.2-14.67-4.01-6.1-5.72-7.68-6.37-5.87-13.09-.79c-1.56 1.18-2.43 3.06-3.33 4.17a.66.66 0 0 1-.94.1q-6.92-5.61-15.44-7.83c-5.74-1.49-11.98-.5-13.3 6.33-.24 1.28.04 2.65-.2 3.67a.64.63-79.2 0 1-.71.49c-4.18-.65-11.94-1.09-14.91 1.84-4.38 4.33-2.46 11.07 1.7 14.99a.34.34 0 0 1-.17.58"/><path fill="#030302" d="M474.9 235.18a.34.34 0 0 0 .17-.58c-4.16-3.92-6.08-10.66-1.7-14.99 2.97-2.93 10.73-2.49 14.91-1.84a.64.63-79.2 0 0 .71-.49c.24-1.02-.04-2.39.2-3.67 1.32-6.83 7.56-7.82 13.3-6.33q8.52 2.22 15.44 7.83a.66.66 0 0 0 .94-.1c.9-1.11 1.77-2.99 3.33-4.17q6.72-5.08 13.09.79 1.71 1.58 5.72 7.68 1.02 1.57 9.2 14.67a2.75 2.74 79 0 0 1.81 1.23q23.14 4.24 45.15 13.81a.44.44 0 0 0 .56-.2c10.66-20.99 30.86-37.72 55.67-35.7 23.41 1.91 43.03 18.2 50.1 39.82q10.67 32.6-10.45 59.85c-1.31 1.68-4.94 5.38-7.36 7.66a.74.74 0 0 0-.09.96q15.75 21.63 30.64 46.11a2.36 2.36 0 0 0 1.63 1.11c38.33 6.36 65.41 33.63 79.03 68.78q3.46 8.95 6.27 22.5 6.22 30.01-.81 59.15-6.24 25.86-25.12 46.69a.94.94 0 0 0-.22.86q8.83 34.68 7.83 71.12c-.6 22.04-4.19 44.23-11.84 64.43q-19.08 50.46-62.47 82.15-17.44 12.73-41.34 22.74a1.74 1.73 5.6 0 0-.77.63c-6.72 10.12-16.27 19.99-29.2 19.53q-11.66-.42-17.35-10.76-.05-.09-1.76-2.9a.74.73 69.5 0 0-.76-.35q-40.23 6.77-81.92 4.87c-12.69-.58-24.57-.98-38.26-.29q-30.37 1.53-60.18-.52-16.31-1.11-31.36-4.05a.71.71 0 0 0-.78.38c-10.57 21.39-32.65 15.2-44.59-.25q-3.32-4.29-4.09-5.19a3.05 2.98-7.9 0 0-1.03-.76q-26.16-11.82-43.1-24.71-46.03-35.03-63.61-90.37c-5.74-18.06-8.77-38.82-9.08-59.03q-.52-33.75 7.28-66.56a1.37 1.34 35 0 0-.2-1.08c-2.25-3.26-5.52-6.6-8.3-10.49-21.49-30.17-25.47-70.79-15.41-106.42 11.59-41.06 41.85-73.74 84.73-80.24a1.38 1.38 0 0 0 .99-.68q10.27-18.28 23.45-36.67 5.54-7.71 6.99-9.78a.56.56 0 0 0-.08-.73q-22.77-21.16-20.79-51.59c1.88-28.94 23.05-52.86 52.65-55.98 25.07-2.65 45.78 13.85 56.46 35.19a.9.9 0 0 0 1.13.43q4.75-1.88 9.64-3.77 16.48-6.39 35-9.73m29.3-11.29 3.57 10.33q-.21 1.94-.62 2.39a1.76 1.75 36.4 0 1-2.17.32c-8.5-4.89-12.65-8.05-20.38-8.95a.28.28 0 0 0-.22.49l4.03 3.77q3.06 3.25 4.25 7.37-.7 5.77-6.52 6.59-26.45 3.73-48.4 12.95-20.62 8.67-39.02 21.34c-8.69 5.98-16.06 11.72-24.3 15.8q-.91-2.52 2.07-6.55 7.17-9.72 16.63-17.33a.66.66 0 0 0 .21-.73c-3.28-10.08-11.24-22.14-21.75-25.31q-6.71-2.02-13.8 2.71-1.2-1.12-.72-2.02 4.7-8.7 15.29-8.1c14.46 1.23 23.98 13.67 29.97 25.57a.64.63 60.2 0 0 .91.25l9.77-6.29 4.94-2.8a.74.73-27.7 0 0 .3-.95q-6.8-14.48-20.03-23.25c-17.85-11.82-41.4-5.35-54.13 10.55-17.14 21.59-15.1 52.19 6.44 69.97a.56.56 0 0 0 .75-.03q5.82-5.6 12.34-9.38l2.35-.01q-.73 6.73-6.1 14.25-8.09 11.34-14.72 20.3-8.7 11.77-20.03 30.79a.31.31 0 0 0 .24.46l11.79 1.12q10.16 1.66 20.77 5.14c3.02 1 10.81 3.9 11.55 6.42a1.17 1.17 0 0 1-1.16 1.5l-6.08-.23q-10.54-1.71-15.22-2.3c-21.41-2.68-41.35-.11-60.25 8.99q-15.05 7.24-25.7 19.48-10.14 11.34-16.51 24.77-15.15 31.95-11.21 66.99.48 6.84 2.73 15.44c6.74 25.81 21.61 45.38 44.19 59.66q24.99 15.8 55.92 18.04a.4.4 0 0 0 .41-.52l-5.99-18.44q-4.03-12.57-8.09-25.19c-.84-2.6-1.49-6.12 2.52-6.46q39.71-3.44 83.98-4.94 3.39-.12 6.4.54 32 6.98 63.61 15.35l32.86 9.73a5.39 5.33-44.7 0 0 3.01 0l30.4-8.88q31.3-8.4 63.1-15.3 5.46-1.18 9.9-1.26 4.48-.07 9.98.18 32.98 1.51 74.47 4.26 2.79.19 4.79 1.3a2.04 2.04 0 0 1 .97 2.39l-9.58 31.37-4.98 15.32a.32.32 0 0 0 .34.41q34.1-3.86 61.04-24.63c21.83-16.83 34.69-41.72 37.18-69.19 2.7-31.41-5.29-63.56-25.56-88.19q-11.11-14.37-28.14-22.55-27.8-13.36-59.41-8.66-8.07.85-16.32 2.16-3.24.52-5.4.09a1.32 1.32 0 0 1-.74-2.17q1.06-1.21 3.4-2.32 12.36-5.9 25.98-7.97l14.6-1.45a.3.3 0 0 0 .24-.45c-5.29-9.53-10.36-16.81-15.86-25.04-6.58-9.82-15.06-20.74-22.24-31.4q-1.96-3.04-2.87-6.73a2.01 2-13.2 0 1 1.52-2.44q.27-.06 1.6.3 6.23 3.76 11.69 9.1a.88.88 0 0 0 1.15.06c14.6-11.6 20.82-30.91 16.78-49q-1-4.47-2.37-7.23-5.54-14.63-17.81-22.79c-12.32-8.21-28.62-9.78-41.69-2.31-9.58 5.47-17.72 14.36-22.19 24.53a.63.62-63 0 0 .25.79l3.3 2 11.57 7.47a.44.44 0 0 0 .64-.19q2.59-5.64 6.03-10.89c6.01-9.19 17.29-16.99 28.57-14.79q6.47 1.27 10.23 6.97.67 1.01.39 1.69-.3.75-1.58.8-4.79-3.73-10.51-2.9-7 1.03-12.68 6.97-7.8 8.16-11.46 19.08a.71.69-60.7 0 0 .2.74c5.36 4.82 11 10.2 14 13.88q3.37 4.13 5.11 9.06l-2.27-.26q-6.85-3.43-9.79-5.73-38.89-30.55-86.78-41.5-8.66-1.98-13.61-8.72-6.5-8.86-11.54-19.25a.49.49 0 0 0-.9.06l-1.38 4.21q-.62 3.76-1.06 7.55-.2 1.69-.88 2.59a1.58 1.58 0 0 1-2.29.26l-5.51-4.72q-6.61-7.44-14.76-11.71a.49.49 0 0 0-.65.68zm10.77 357.54.02 49.24-.17 16.35-.41 46.65a.83.83 0 0 1-.85.82l-.28-.01a1.09 1.09 0 0 1-1.05-1.08l-.33-37.32-1.11-82.96a.5.49 8.9 0 0-.35-.47q-14.5-4.7-29.39-8.7-33.62-9.04-67.94-16.53a11.61 11.32-39.2 0 0-2.82-.25q-38.62 1.54-76.69 4.51a.23.23 0 0 0-.21.3l18.36 58.51a.72.7 82.7 0 0 .63.5l9.2.75q10.14 1.18 17.19 8.5 1.52 2.32 2 5.62a1.92 1.89-67.8 0 0 .35.85l2.58 3.52q3.55 12.55-5.14 23.68l-5.65 5.43-9.69 5.96a.85.83 74.1 0 0-.4.74l1.23 58.45a.51.51 0 0 0 .52.5l69.36-1.46a.69.69 0 0 0 .67-.76l-.73-7.37-2.77-27.85-.26-3.43a.73.72 89.6 0 1 .76-.78q.63.03.76.5.58 2.24.98 5.22l3.5 26.96 1.07 7.19a.8.79-85.4 0 0 .55.65l73.64 23.39a.47.47 0 0 0 .61-.45v-39.6l.19-5.56a.35.35 0 0 1 .35-.34h.29a.56.56 0 0 1 .56.54l.46 12.15.41 33.34a.36.36 0 0 0 .47.34l75.67-23.75a1.92 1.91-5.3 0 0 1.33-1.59l.9-6.95 4.12-33.06a.57.57 0 0 1 .74-.47l.29.09a.62.61-78.7 0 1 .42.64l-2.86 32.46-.6 7.8a.51.51 0 0 0 .5.55l72.05 2.12a.7.7 0 0 0 .73-.7v-58.1a.7.68 15 0 0-.36-.6l-8.01-4.45q-13.41-8.23-15.54-23.31-.63-4.47 2.22-9.36 1.05-1.79 1.77-3.9 1.52-4.45 5.4-7.39 7.17-5.43 15.83-6.4l7.73-.56a1.01 1.01 0 0 0 .89-.7l18.41-58a.55.54 10.6 0 0-.49-.71l-78.68-4.24a10.53 10.16 39.5 0 0-2.68.21q-46.31 10-92.41 23.27-4.17 1.2-7.3 2.6a.8.79 79.3 0 0-.48.72zM255.82 596.2q-3.09 25.08-1.02 51.05 1.16 14.45 4.04 26.73.26.57.18 1.08c11.26 49.88 43.44 91.29 89.13 113.89a.23.23 0 0 0 .31-.28q-5.06-14.14-6.66-29.11-1.05-10.77 2.18-19.02 2.74-7 10.08-7.87a.76.76 0 0 0 .67-.77l-1.08-48.93-.21-13.34a.38.38 0 0 0-.5-.35c-17.22 5.85-36.96 5.36-51.43-6.73-4.89-4.76-9.82-13.25-8.83-20.3a.7.7 0 0 1 1.29-.26q3.8 6.4 9.78 11.09 13.06 9.4 28.5 9.05 5.96-.14 14.76-1.71c10.66-2.18 19.16-5.79 25.84-14.41a.31.3 11.8 0 0-.32-.48q-5.97 1.47-12.87.57a.94.94 0 0 1-.46-1.68q.88-.69 2.25-1.24 5.5-2.25 11.66-5.27 2.84-1.4 2.25-4.12a2.01 1.78-5.8 0 0-1.95-1.4q-4.52.06-14.12-.04a.63.63 0 0 1-.48-1.03c2.35-2.87 7.09-4.64 10.78-6.16a.59.59 0 0 0 .07-1.05c-6.49-3.81-14.8-3.49-22.17-4.55q-2.45-.35-7.25-3.99l-3.14-3.37q-.45-1.71-.14-2.86a.95.92 89.7 0 1 .61-.64l2.65-.83a.96.95-13.6 0 0 .66-1.07q-.18-1.05-.86-1.6a1.29 1.28 61.5 0 0-.93-.28q-5.55.55-20.39-2.09-33.19-5.9-58.68-26.85a.43.42 25 0 0-.69.25zm440.84 8.84-5.93.33a1.38 1.37 50.3 0 0-.25 2.71c1.96.49 3.35 1.46 2.25 3.74l-3.93 4.61q-3.77 2.64-7.56 3.02-5.92.6-11.79 1.73-4.86.66-8.52 3.37a.58.58 0 0 0 .12 1c4.63 1.87 7.18 2.56 9.95 4.73a1.05 1.05 0 0 1-.64 1.87q-5.53.07-10.86.33-2.7.14-4.42 1.14a2.08 2.07-41 0 0-.24 3.43q.4.31 2.69 1.43 1.54.76 13.27 5.57a.93.93 0 0 1 .1 1.67c-2.98 1.68-10.32.28-13.72-.55a.27.27 0 0 0-.29.41c3.95 6.39 12.08 11.16 19.13 13.21l7.2 1.83q8.2 1.6 17.04 1.3c13.9-.46 27.12-6.77 34.53-18.89l1.33-1.48a.71.71 0 0 1 1.24.49q-.24 10.02-6.71 18-9.45 10.23-23.65 12.15-14.29 1.94-27.98-2.01a.42.41 8.1 0 0-.53.39l-.17 14.39-.03 3.39-.51 45.42a1.1 1.1 0 0 0 .36.82c6.82 6.15 7.7 16.13 6.8 25q-1.47 14.75-6.35 28.74a.3.3 0 0 0 .42.37q19.63-10.3 36.36-24.83c27.54-23.91 46.12-57.19 53.28-92.94 4.44-24.31 4.64-49.01 1.44-73.51l-2.18-13.69-1.35-6.76a.56.55 65.4 0 0-.88-.33q-25.72 20.13-57.88 26.41-5.47 1.07-11.14 1.99m-297.28 146 5.18 14.54 2.86 14.15q1.84 10.25 1.89 20.34a.73.73 0 0 0 .6.72q16 2.9 32.13 4.02 24.37 1.42 41.71.78c16.8-.62 26.84-1.39 40.98-.63q17.21.93 39.38.66 3.33-.04 7.75-.31 4.06-.25 7.77-.41 18.84-.8 36.93-4.15a1.11 1.1-5.1 0 0 .9-1.07q.09-4.76.46-9.65c.42-5.5 1.98-12.03 3.03-18.04l1.6-6.82 5.27-15.54q3.6-8.05 8.41-15.35a.23.22-72.6 0 0-.18-.35q-20.58-.51-40.05-.9-2.95-.06-4.5.44-45.81 14.63-73.46 23.34-3.55 1.11-4.54.79-3.52-1.12-6.97-2.17l-70.46-22.52-45.38 1.29a.17.17 0 0 0-.13.26q4.89 7.42 8.82 16.58m-33.67 50.51c3.66 6.46 11.48 14.89 19.2 15.67 6.83.69 12.14-5.34 13.6-11.5q1.12-4.75.83-11.08-2-25.21-13.49-49.32-2.49-5.21-5.52-8.2a1 1 0 0 0-1.71.71q-.04 8.51-.03 9.67.04 2.35-.48 4.07a.88.88 0 0 1-1.52.3c-2.2-2.68-4.35-8.21-7.23-14.49q-1.56-3.4-5.15-2.34a1.1 1.1 0 0 0-.7.63q-1.14 2.71-.81 6.1c.56 5.79 1.3 10.66.64 13.54a.81.81 0 0 1-1.32.42q-1.87-1.65-3.33-4.68-2.52-5.21-4.44-8.3a1.11 1.11 0 0 0-1.81-.09q-.74.96-1.02 2.84-.61 3.97-.44 7.24 1.38 26.3 14.73 48.81m261.6-6.43q.14 4.82.64 8.69c1.29 10.01 10.81 17.57 20.41 11.04q7.64-5.19 12.53-13.5 7.21-11.71 11.25-25.23 4.21-14.07 3.74-28.88-.03-.88-1.13-4.52a.76.75-15.8 0 0-.92-.51q-1.47.39-2.2 1.99c-1.93 4.23-4.15 9.06-6.82 11.28a.93.93 0 0 1-1.5-.49q-.33-1.33-.21-2.49.7-7.03.72-13.98 0-2.25-1.31-3.19a2.72 2.67-51 0 0-3.56.41q-1.46 1.61-2.51 3.97c-2.55 5.8-4.27 10.09-6.65 12.52a.78.78 0 0 1-1.29-.3c-1.29-3.76-.66-9.27-.34-13.89a1.03 1.02 78.3 0 0-1.49-.98c-2.54 1.31-5.66 7.67-6.59 9.74q-10.62 23.49-12.77 48.32"/><path fill="#e5d29f" d="m516.9 230.16-12.7-6.27-2.71-4.76a.49.49 0 0 1 .65-.68q8.15 4.27 14.76 11.71"/><path fill="#f7c96d" d="M650.64 295.41q-6.89-.57-12.68-5.12-24.67-19.35-53.39-30.17-15.26-5.74-32.16-10.32-7.74-2.09-12.8-7.9-5.26-6.04-10.72-13.31-.81-1.08-2.25-4.11l1.38-4.21a.49.49 0 0 1 .9-.06q5.04 10.39 11.54 19.25 4.95 6.74 13.61 8.72 47.89 10.95 86.78 41.5 2.94 2.3 9.79 5.73"/><path fill="#f4be49" d="m516.9 230.16 5.51 4.72a1.58 1.58 0 0 0 2.29-.26q.68-.9.88-2.59.44-3.79 1.06-7.55 1.44 3.03 2.25 4.11 5.46 7.27 10.72 13.31 5.06 5.81 12.8 7.9 16.9 4.58 32.16 10.32 28.72 10.82 53.39 30.17 5.79 4.55 12.68 5.12l2.27.26q1.05 2.68 3.17 4.95c2.45 2.62 2.1 3.28 2.54 6.61q.44 3.27 4.12 7.71 5.83 10.62 10.56 21.96 10.97 26.31 13.23 30.67.23.44.42.93a.69.68-31.4 0 1-.19.77q-.31.26-.46.57-13.62 2.07-25.98 7.97-2.34 1.11-3.4 2.32a1.32 1.32 0 0 0 .74 2.17q2.16.43 5.4-.09 8.25-1.31 16.32-2.16l-.59.54a.49.49 0 0 0 .36.85c5.99-.34 13.13-.89 19.33.59l14.7 3.7c6.56 1.66 13.47 4.64 18.3 7.27q14.92 8.12 29.25 21.74 2.85 2.7 4.7 6.19a1.92 1.9 32.4 0 1 .21.91l-.27 13.58q-4.07 33.43-31.06 54.12-16.49-13.6-25.26-21.61-12.12-11.09-25.01-17.16c-21.56-10.16-45.3-9.66-65.36 3.83q-10.18 6.85-19.37 15.11-13.67-3.58-27.43-3.49l-6.77-8.46q27.76-11.15 56.96-15.86a.49.48-29.4 0 0 .24-.85q-.24-.19-.6-.23-31.61-3.55-58.55 13.84-4-4.29-7.78-9.06-4.17-5.26-6.88-7.83-5.39-5.13-8.2-6.84-21.15-12.88-44.72-5.4c-7.55 2.39-14.63 7.7-20.11 12.91q-2.8 2.66-7 7.98-3.31 4.19-6.59 8.36-26.01-16.88-56.89-14.16-1.29.11-2.28.56a.36.36 0 0 0 .09.69q23.33 4.21 45.71 11.61c3.37 1.12 7.25 2.83 10.94 4.24l-7.06 8.44-9.03.28q-11.08-1.36-21.56-4.67c-9.95-3.14-21.18-9.08-31.51-12.49-27.59-9.11-55.41-4.42-76.87 15.66q-12.27 11.48-23.6 23.93-19.3-15.2-26.74-38.07-.67-2.6-2.12-11.47-2.04-12.47-1.59-15.8a6.58 6.2-35.2 0 1 .19-.93q.62-2.1 2.46-4.32 1.82-2.2 5.78-5.97 7.48-7.12 19-14.73 11.5-7.6 21.02-10.27 15.11-4.24 18.95-5.03 9.33-1.91 16.63-.97c6.72.86 13.03 2.98 18.82 1.03l6.08.23a1.17 1.17 0 0 0 1.16-1.5c-.74-2.52-8.53-5.42-11.55-6.42q-10.61-3.48-20.77-5.14 4.26-4.69 7.41-11.42c3.24 5.34 12.95 18.59 20.15 9.23q2.03-2.64 3.18-6.58c3.63-12.47 3.15-26.24 1.53-39.23 7.76-9.75 16.21-19.43 25.73-27.08q5.33-4.3 10.27-9.05c5.47-5.26 13.28-9.77 19.15-13.26q4.53-2.7 9.06-5.7 5.85-3.87 9.34-5.21 16.17-6.18 18.41-7.09 3.4-1.37 6.38-2.07 8.71-2.05 16.44-3.37 4.09-.7 7.77-3.45.81-.61 1.8-3.06a1.62 1.53 51.5 0 0 .08-.92q-.26-1.31-1.18-1.64-1.19-4.12-4.25-7.37l5.74 1.32a13.24 13.08 67.1 0 1 3.94 1.63q3.24 2.01 6.46 3.34a3.19 3.03 27.8 0 0 3.8-1.07q1.01-1.52-.58-3.24l-3.57-10.33zm-42.63 31.62a8.39 6.02-23.9 0 0-10.109-2.104 8.39 6.02-23.9 0 0-5.232 8.903 8.39 6.02-23.9 0 0 10.11 2.105 8.39 6.02-23.9 0 0 5.232-8.903m-25.7 11.367a16.19 9.21-33.7 0 0-18.58 1.32 16.19 9.21-33.7 0 0-8.36 16.646 16.19 9.21-33.7 0 0 18.58-1.32 16.19 9.21-33.7 0 0 8.36-16.646m-10.89 61.993c.31 3.7 6.8 8.81 9.79 11.03 8.76 6.51 16.84 12.66 26.98 12.71 3.73.02 7.46-3.8 6.03-7.68q-.86-2.34-3.87-3.86-9.68-4.87-22.81-11.17c-4.14-1.99-9.82-4.57-14.12-3.64a2.55 2.44-8.8 0 0-2 2.61m149.15.17a2.53 2.42 9.3 0 0-1.96-2.61c-4.26-.96-9.93 1.54-14.05 3.48q-13.09 6.13-22.75 10.88-3 1.48-3.87 3.8c-1.46 3.83 2.21 7.66 5.91 7.67 10.07.05 18.14-5.98 26.9-12.36 2.99-2.18 9.47-7.19 9.82-10.86m-139.248 21.924a33.37 27.47-85.7 0 0-29.895 31.216 33.37 27.47-85.7 0 0 24.891 35.336 33.37 27.47-85.7 0 0 29.895-31.216 33.37 27.47-85.7 0 0-24.891-35.336m129.346.013a33.05 27.39-96.1 0 0-23.723 35.774 33.05 27.39-96.1 0 0 30.747 29.952 33.05 27.39-96.1 0 0 23.723-35.774 33.05 27.39-96.1 0 0-30.747-29.952m-250.467 43.678a15.82 6.86-164.7 0 0 13.449 10.792 15.82 6.86-164.7 0 0 17.07-2.442 15.82 6.86-164.7 0 0-13.45-10.792 15.82 6.86-164.7 0 0-17.07 2.442m373.023-.185a15.83 6.99-15.5 0 0-17.122-2.506 15.83 6.99-15.5 0 0-13.386 10.966 15.83 6.99-15.5 0 0 17.122 2.506 15.83 6.99-15.5 0 0 13.386-10.966"/><path fill="#efcd8a" d="m413 258.49.39-2.3a1.05 1.04-61.9 0 0-.26-.87c-6.12-6.64-10.29-12.66-17.42-16.05q-10.81-5.13-22.96-6.41-1.49-.15-6.82.34c-5.18.12-9.89 1.33-14.21 4.31q-3.41 2.35-4.35 3.37-2.09 2.26-3.29 1.16c12.73-15.9 36.28-22.37 54.13-10.55q13.23 8.77 20.03 23.25a.74.73-27.7 0 1-.3.95zm277.54-2.93q-4.09-2.56-6.02-7.44a3.1 3.09 13.3 0 0-.51-.82q-1.67-1.92-3.74-4.56-5.61-7.14-14.82-9.05-12.35-2.55-25.75 2.31c-4.7 1.71-10.65 4.22-14.5 7.68q-6.35 5.72-12.8 14.1l-3.3-2a.63.62-63 0 1-.25-.79c4.47-10.17 12.61-19.06 22.19-24.53 13.07-7.47 29.37-5.9 41.69 2.31q12.27 8.16 17.81 22.79m-182.77-21.34q1.59 1.72.58 3.24a3.19 3.03 27.8 0 1-3.8 1.07q-3.22-1.33-6.46-3.34a13.24 13.08 67.1 0 0-3.94-1.63l-5.74-1.32-4.03-3.77a.28.28 0 0 1 .22-.49c7.73.9 11.88 4.06 20.38 8.95a1.76 1.75 36.4 0 0 2.17-.32q.41-.45.62-2.39"/><path fill="#f4be49" d="M690.54 255.56q1.37 2.76 2.37 7.23c4.04 18.09-2.18 37.4-16.78 49a.88.88 0 0 1-1.15-.06q-5.46-5.34-11.69-9.1 2.29-2.82 3.65-6.29a3.3 3.19 75.6 0 1 .49-.86q1.94-2.47 3.74-6.49 4.45-9.97 3.31-20.24-.69-6.12-1.9-10.37-1.41-4.99-4.33-9.54 1.28-.05 1.58-.8.28-.68-.39-1.69-3.76-5.7-10.23-6.97c-11.28-2.2-22.56 5.6-28.57 14.79q-3.44 5.25-6.03 10.89a.44.44 0 0 1-.64.19l-11.57-7.47q6.45-8.38 12.8-14.1c3.85-3.46 9.8-5.97 14.5-7.68q13.4-4.86 25.75-2.31 9.21 1.91 14.82 9.05 2.07 2.64 3.74 4.56a3.1 3.09 13.3 0 1 .51.82q1.93 4.88 6.02 7.44M413 258.49l-9.77 6.29a.64.63 60.2 0 1-.91-.25c-5.99-11.9-15.51-24.34-29.97-25.57q-1.72-4.51-6.42-5.76 5.33-.49 6.82-.34 12.15 1.28 22.96 6.41c7.13 3.39 11.3 9.41 17.42 16.05a1.05 1.04-61.9 0 1 .26.87z"/><path fill="#ee9735" d="M365.93 233.2q4.7 1.25 6.42 5.76-10.59-.6-15.29 8.1-.48.9.72 2.02-3.99 7.45-4.94 16.15-.53 4.88-.69 7.01c-.42 5.41 1.22 11 3.3 15.53q3.11 6.78 8.16 14.83-6.52 3.78-12.34 9.38a.56.56 0 0 1-.75.03c-21.54-17.78-23.58-48.38-6.44-69.97q1.2 1.1 3.29-1.16.94-1.02 4.35-3.37c4.32-2.98 9.03-4.19 14.21-4.31"/><path fill="#efcd8a" d="M369.41 321.51q-6.44 7.7-10.25 13.39-3.36 5.02-14.61 23.19-3.15 6.73-7.41 11.42l-11.79-1.12a.31.31 0 0 1-.24-.46q11.33-19.02 20.03-30.79 6.63-8.96 14.72-20.3 5.37-7.52 6.1-14.25l8.46-6.3c8.24-4.08 15.61-9.82 24.3-15.8q18.4-12.67 39.02-21.34 21.95-9.22 48.4-12.95 5.82-.82 6.52-6.59.92.33 1.18 1.64a1.62 1.53 51.5 0 1-.08.92q-.99 2.45-1.8 3.06-3.68 2.75-7.77 3.45-7.73 1.32-16.44 3.37-2.98.7-6.38 2.07-2.24.91-18.41 7.09-3.49 1.34-9.34 5.21-4.53 3-9.06 5.7c-5.87 3.49-13.68 8-19.15 13.26q-4.94 4.75-10.27 9.05c-9.52 7.65-17.97 17.33-25.73 27.08"/><path fill="#f4b19d" d="m374.42 296.29-8.46 6.3-2.35.01q-5.05-8.05-8.16-14.83c-2.08-4.53-3.72-10.12-3.3-15.53q.16-2.13.69-7.01.95-8.7 4.94-16.15 7.09-4.73 13.8-2.71c10.51 3.17 18.47 15.23 21.75 25.31a.66.66 0 0 1-.21.73q-9.46 7.61-16.63 17.33-2.98 4.03-2.07 6.55m293.83-47.45q2.92 4.55 4.33 9.54 1.21 4.25 1.9 10.37 1.14 10.27-3.31 20.24-1.8 4.02-3.74 6.49a3.3 3.19 75.6 0 0-.49.86q-1.36 3.47-3.65 6.29-1.33-.36-1.6-.3a2.01 2-13.2 0 0-1.52 2.44q.91 3.69 2.87 6.73l-.3 3.44q-3.68-4.44-4.12-7.71c-.44-3.33-.09-3.99-2.54-6.61q-2.12-2.27-3.17-4.95-1.74-4.93-5.11-9.06c-3-3.68-8.64-9.06-14-13.88a.71.69-60.7 0 1-.2-.74q3.66-10.92 11.46-19.08 5.68-5.94 12.68-6.97 5.72-.83 10.51 2.9"/><ellipse fill="#efcd8a" rx="8.39" ry="6.02" transform="rotate(-23.9 859.775 -969.73)"/><ellipse fill="#efcd8a" rx="16.19" ry="9.21" transform="rotate(-33.7 683.31 -577.23)"/><path fill="#ee9735" d="M686.3 369.84q.15-.31.46-.57a.69.68-31.4 0 0 .19-.77q-.19-.49-.42-.93-2.26-4.36-13.23-30.67-4.73-11.34-10.56-21.96l.3-3.44c7.18 10.66 15.66 21.58 22.24 31.4 5.5 8.23 10.57 15.51 15.86 25.04a.3.3 0 0 1-.24.45zm-316.89-48.33c1.62 12.99 2.1 26.76-1.53 39.23q-1.15 3.94-3.18 6.58c-7.2 9.36-16.91-3.89-20.15-9.23q11.25-18.17 14.61-23.19 3.81-5.69 10.25-13.39"/><path fill="#030302" d="M437.68 335.14a2.55 2.44-8.8 0 1 2-2.61c4.3-.93 9.98 1.65 14.12 3.64q13.13 6.3 22.81 11.17 3.01 1.52 3.87 3.86c1.43 3.88-2.3 7.7-6.03 7.68-10.14-.05-18.22-6.2-26.98-12.71-2.99-2.22-9.48-7.33-9.79-11.03m149.15.17c-.35 3.67-6.83 8.68-9.82 10.86-8.76 6.38-16.83 12.41-26.9 12.36-3.7-.01-7.37-3.84-5.91-7.67q.87-2.32 3.87-3.8 9.66-4.75 22.75-10.88c4.12-1.94 9.79-4.44 14.05-3.48a2.53 2.42 9.3 0 1 1.96 2.61m-139.248 21.924a33.37 27.47-85.7 0 1 24.89 35.336 33.37 27.47-85.7 0 1-29.894 31.216 33.37 27.47-85.7 0 1-24.89-35.336 33.37 27.47-85.7 0 1 29.894-31.216m6.843 12.024a10.2 8.92-86.6 0 0-9.51 9.653 10.2 8.92-86.6 0 0 8.3 10.711 10.2 8.92-86.6 0 0 9.51-9.653 10.2 8.92-86.6 0 0-8.3-10.711m122.503-12.011a33.05 27.39-96.1 0 1 30.747 29.952 33.05 27.39-96.1 0 1-23.723 35.774 33.05 27.39-96.1 0 1-30.747-29.952 33.05 27.39-96.1 0 1 23.723-35.774m-6.301 11.82a10.22 8.92-94.9 0 0-8.014 10.945 10.22 8.92-94.9 0 0 9.76 9.42 10.22 8.92-94.9 0 0 8.014-10.944 10.22 8.92-94.9 0 0-9.76-9.42"/><ellipse fill="#fdfdfd" rx="10.22" ry="8.92" transform="rotate(-94.9 459.814 -72.676)"/><ellipse fill="#fdfdfd" rx="10.2" ry="8.92" transform="rotate(-86.6 428.236 -51.071)"/><path fill="#efcd8a" d="M362.22 382.34c-5.79 1.95-12.1-.17-18.82-1.03q-7.3-.94-16.63.97-3.84.79-18.95 5.03-9.52 2.67-21.02 10.27-11.52 7.61-19 14.73-3.96 3.77-5.78 5.97-1.84 2.22-2.46 4.32a6.58 6.2-35.2 0 0-.19.93q-.45 3.33 1.59 15.8 1.45 8.87 2.12 11.47-1.44-3.2-2.11-6.63-1.5-7.65-2-14.84-.13-1.93-.56-5.11-.71-5.3 1.06-10.56a3.58 3.44-16.4 0 1 .69-1.21q2.37-2.72.89-3.94 10.65-12.24 25.7-19.48c18.9-9.1 38.84-11.67 60.25-8.99q4.68.59 15.22 2.3m404.71 28.92-1.56 24.16.27-13.58a1.92 1.9 32.4 0 0-.21-.91q-1.85-3.49-4.7-6.19-14.33-13.62-29.25-21.74c-4.83-2.63-11.74-5.61-18.3-7.27l-14.7-3.7c-6.2-1.48-13.34-.93-19.33-.59a.49.49 0 0 1-.36-.85l.59-.54q31.61-4.7 59.41 8.66 17.03 8.18 28.14 22.55"/><ellipse fill="#fdf1cd" rx="15.82" ry="6.86" transform="rotate(195.3 198.066 179.6)"/><ellipse fill="#fdf1cd" rx="15.83" ry="6.99" transform="rotate(-15.5 1829.947 -2311.328)"/><path fill="#fdf1cd" d="M261.05 408.51q1.48 1.22-.89 3.94a3.58 3.44-16.4 0 0-.69 1.21q-1.77 5.26-1.06 10.56.43 3.18.56 5.11.5 7.19 2 14.84.67 3.43 2.11 6.63 7.44 22.87 26.74 38.07c27.28 21.35 60.63 26.86 93.61 20.27 13.09-2.62 24.64-7.5 36.02-13.75q3.04-1.68 10.71-7.49 10.46-7.93 16.91-15.81l15.54-2.79a.89.89 0 0 0 .14-1.71q-4.56-1.6-10.36-1.43l7.06-8.44 5.63 1.69a.53.53 0 0 0 .53-.88l-3.73-3.75q3.28-4.17 6.59-8.36 4.2-5.32 7-7.98c5.48-5.21 12.56-10.52 20.11-12.91q23.57-7.48 44.72 5.4 2.81 1.71 8.2 6.84 2.71 2.57 6.88 7.83 3.78 4.77 7.78 9.06l-3.98 3.76a.55.54 67.4 0 0-.17.42q.06 1.02 1.25.66 2.58-.78 4.85-1.74l6.77 8.46c-3.18.18-6.93.04-9.75 1.51a.95.95 0 0 0 .28 1.78l14.4 2.51c7.72 8.45 16.44 14.99 26.64 21.51 24.13 15.44 51.59 20.65 80.03 17.12q28.41-3.52 50.83-21.11 26.99-20.69 31.06-54.12l1.56-24.16c20.27 24.63 28.26 56.78 25.56 88.19q-.25-1.04-.92 1.23a1.54 1.48-11.1 0 1-.56.8l-.67.5a1.38 1.3-7.8 0 0-.42.52q-2.86 6.18-4.87 9.15-2.56 3.8-3.13 5.07-1.17 2.61-3.14 5.07c-4.35 5.44-7.4 8.36-12.03 13.62q-4.45 5.04-9.56 8.78-10 7.29-13.75 9.73-13.49 8.75-29.71 14.27-8.37 2.85-9.17 3.13-2.8.96-3.17 3.9a1.76 1.72-25.8 0 1-.25.69q-.97 1.54-2.23 1.63l9.58-31.37a2.04 2.04 0 0 0-.97-2.39q-2-1.11-4.79-1.3-41.49-2.75-74.47-4.26-5.5-.25-9.98-.18-4.44.08-9.9 1.26-31.8 6.9-63.1 15.3-6.72-.82-13.43-.33a14.3 14.17 45.3 0 1-2.26-.02q-7.46-.7-12.59-.59-8.75.19-31.29.96a.56.26-19.9 0 1-.11-.01l-6.59-.86q-31.61-8.37-63.61-15.35-3.01-.66-6.4-.54-44.27 1.5-83.98 4.94c-4.01.34-3.36 3.86-2.52 6.46q4.06 12.62 8.09 25.19l-.36.55a.54.53-44.1 0 1-.91-.01q-1.12-1.84-3.33-2.49-13.91-4.11-19.41-6.09c-10.29-3.71-19.28-9.35-28.55-15.44q-8.55-5.61-13.7-10.43-7-6.56-14.39-14.81c-4.77-5.33-7.8-10.97-12.12-17.46a6.24 5.87 19.6 0 1-.66-1.29q-1.36-3.58-3.83-6.71-3.94-35.04 11.21-66.99 6.37-13.43 16.51-24.77m230.65 35.2q-1.19.93-1.3 1.68-.37 2.46.52 4.26 5.14 10.41 16.13 14.27a1.15 1.14-79 0 1 .77 1.15l-.64 11.97a2.35 2.32 69 0 1-.65 1.49q-2.14 2.23-2.5 2.49-9.51 6.86-16.29 16.22c-2.01 2.79-5.91 9-4.32 11.98q1.13 2.12 3.29 2.04c2.25-.08 4.3-2.76 5.59-4.76a.91.91 0 0 1 1.35-.2c6.49 5.5 20 5.25 28.13 3.91q5.22-.85 9.48-3.88a.85.85 0 0 1 1.24.28q1.65 2.97 4.4 4.55a1.92 1.88-33 0 0 1.19.24c5.94-.73 3.06-7.51 1.15-10.65-5.3-8.68-12.07-14.79-20.04-21.09a4.5 4.5 0 0 1-1.7-3.44l-.24-11.27a1.09 1.08-10.3 0 1 .73-1.05c6.65-2.3 16.59-9.68 16.81-17.63q.03-1.11-1.36-2.61-2.07-4.12-7.09-5.79c-7.33-2.43-16.57-1.7-24.32-.07q-6.53 1.36-10.33 5.91"/><path fill="#f4b19d" d="M533.44 443.66q-5.2 5.76-11.67 9.58c-4.81 2.83-8.75 4.69-13.74 2.51q-9.08-3.99-16.33-12.04 3.8-4.55 10.33-5.91c7.75-1.63 16.99-2.36 24.32.07q5.02 1.67 7.09 5.79m-24.204-.532a5.26 3.14-2.2 0 0-5.376-2.936 5.26 3.14-2.2 0 0-5.136 3.34 5.26 3.14-2.2 0 0 5.377 2.936 5.26 3.14-2.2 0 0 5.135-3.34"/><path fill="#030302" d="m461.88 454.78 3.73 3.75a.53.53 0 0 1-.53.88l-5.63-1.69c-3.69-1.41-7.57-3.12-10.94-4.24q-22.38-7.4-45.71-11.61a.36.36 0 0 1-.09-.69q.99-.45 2.28-.56 30.88-2.72 56.89 14.16"/><ellipse fill="#fdfdfd" rx="5.26" ry="3.14" transform="rotate(-2.2 11796.452 -12902.144)"/><path fill="#030302" d="M565.11 457.76q-2.27.96-4.85 1.74-1.19.36-1.25-.66a.55.54 67.4 0 1 .17-.42l3.98-3.76q26.94-17.39 58.55-13.84.36.04.6.23a.49.48-29.4 0 1-.24.85q-29.2 4.71-56.96 15.86"/><path fill="#f7c96d" d="M734.31 489.54q-22.42 17.59-50.83 21.11c-28.44 3.53-55.9-1.68-80.03-17.12-10.2-6.52-18.92-13.06-26.64-21.51q3.89.39 5.22.65 10.69 2.05 21.15 4.09 13.03 2.54 22.84 5.71a.22.22 0 0 0 .25-.34q-.27-.38-.87-.77-12.11-7.92-26.09-11.65 9.19-8.26 19.37-15.11c20.06-13.49 43.8-13.99 65.36-3.83q12.89 6.07 25.01 17.16 8.77 8.01 25.26 21.61m-290.95-23.1c-14.86 1.63-28.83 5.84-41.67 13.49q-1.44.85-2.5 1.93a.28.27-75.9 0 0 .27.46q22.87-6.62 47.61-10.23-6.45 7.88-16.91 15.81-7.67 5.81-10.71 7.49c-11.38 6.25-22.93 11.13-36.02 13.75-32.98 6.59-66.33 1.08-93.61-20.27q11.33-12.45 23.6-23.93c21.46-20.08 49.28-24.77 76.87-15.66 10.33 3.41 21.56 9.35 31.51 12.49q10.48 3.31 21.56 4.67"/><path fill="#030302" d="M533.44 443.66q1.39 1.5 1.36 2.61c-.22 7.95-10.16 15.33-16.81 17.63a1.09 1.08-10.3 0 0-.73 1.05l.24 11.27a4.5 4.5 0 0 0 1.7 3.44c7.97 6.3 14.74 12.41 20.04 21.09 1.91 3.14 4.79 9.92-1.15 10.65a1.92 1.88-33 0 1-1.19-.24q-2.75-1.58-4.4-4.55a.85.85 0 0 0-1.24-.28q-4.26 3.03-9.48 3.88c-8.13 1.34-21.64 1.59-28.13-3.91a.91.91 0 0 0-1.35.2c-1.29 2-3.34 4.68-5.59 4.76q-2.16.08-3.29-2.04c-1.59-2.98 2.31-9.19 4.32-11.98q6.78-9.36 16.29-16.22.36-.26 2.5-2.49a2.35 2.32 69 0 0 .65-1.49l.64-11.97a1.15 1.14-79 0 0-.77-1.15q-10.99-3.86-16.13-14.27-.89-1.8-.52-4.26.11-.75 1.3-1.68 7.25 8.05 16.33 12.04c4.99 2.18 8.93.32 13.74-2.51q6.47-3.82 11.67-9.58m-21.05 57.36c3.92 0 8.39-.16 11.87-2.15a.78.78 0 0 0 .17-1.22q-4.99-5.12-11.75-10.66-.11-.09-.29-.09-.17 0-.28.09-6.76 5.54-11.76 10.65a.78.78 0 0 0 .17 1.22c3.48 2 7.95 2.16 11.87 2.16m-60-34.86q5.8-.17 10.36 1.43a.89.89 0 0 1-.14 1.71l-15.54 2.79q-24.74 3.61-47.61 10.23a.28.27-75.9 0 1-.27-.46q1.06-1.08 2.5-1.93c12.84-7.65 26.81-11.86 41.67-13.49zm119.49.06q13.76-.09 27.43 3.49 13.98 3.73 26.09 11.65.6.39.87.77a.22.22 0 0 1-.25.34q-9.81-3.17-22.84-5.71-10.46-2.04-21.15-4.09-1.33-.26-5.22-.65l-14.4-2.51a.95.95 0 0 1-.28-1.78c2.82-1.47 6.57-1.33 9.75-1.51"/><path fill="#fdfdfd" d="M512.39 486.9q.18 0 .29.09 6.76 5.54 11.75 10.66a.78.78 0 0 1-.17 1.22c-3.48 1.99-7.95 2.15-11.87 2.15s-8.39-.16-11.87-2.16a.78.78 0 0 1-.17-1.22q5-5.11 11.76-10.65.11-.09.28-.09"/><path fill="#efcd8a" d="M792.49 499.45c-2.49 27.47-15.35 52.36-37.18 69.19q-26.94 20.77-61.04 24.63a.32.32 0 0 1-.34-.41l4.98-15.32q1.26-.09 2.23-1.63a1.76 1.72-25.8 0 0 .25-.69q.37-2.94 3.17-3.9.8-.28 9.17-3.13 16.22-5.52 29.71-14.27 3.75-2.44 13.75-9.73 5.11-3.74 9.56-8.78c4.63-5.26 7.68-8.18 12.03-13.62q1.97-2.46 3.14-5.07.57-1.27 3.13-5.07 2.01-2.97 4.87-9.15a1.38 1.3-7.8 0 1 .42-.52l.67-.5a1.54 1.48-11.1 0 0 .56-.8q.67-2.27.92-1.23m-461.9 75 5.99 18.44a.4.4 0 0 1-.41.52q-30.93-2.24-55.92-18.04c-22.58-14.28-37.45-33.85-44.19-59.66q-2.25-8.6-2.73-15.44 2.47 3.13 3.83 6.71a6.24 5.87 19.6 0 0 .66 1.29c4.32 6.49 7.35 12.13 12.12 17.46q7.39 8.25 14.39 14.81 5.15 4.82 13.7 10.43c9.27 6.09 18.26 11.73 28.55 15.44q5.5 1.98 19.41 6.09 2.21.65 3.33 2.49a.54.53-44.1 0 0 .91.01z"/><path fill="#fdf1cd" d="M670.04 611.3q-.05-2.01 1.12-4.28a3.45 3.2 66.8 0 0 .27-.76c.91-3.92 1.25-7.21 2.6-10.71q2.09-5.42 4.33-11.85a1.01 1.01 0 0 0-.97-1.34l-17.18.36a1.13 1.12 23.1 0 0-.73.29q-9.3 8.16-16.32 16.22c-5.72 6.54-11.43 11.1-17.15 17.44q-3.41 3.79-11.41 11.3-2.63 2.48-4.74 5.01-4.09 4.94-4.35 5.37a.78.67 37.6 0 1-1.12.06q-.25-.23-.28-.96l2.49-17.35q5.53-5.76 10.91-10.94 6.61-6.36 10.81-10.99 4.18-4.61 8.74-8.86c4.43-4.14 8.88-9.27 13.07-13.94q3.88-4.32 10.09-3.85 4.31.33 12.53.66 4.73.19 7.92-.32a1.45 1.45 0 0 0 1.16-1l3.28-10.32a.46.45-78.7 0 0-.39-.59q-30.25-2.8-59.87-4.5c-3.49-.2-6.95-.06-10.4.08l-.06-2.75a1.38 1.38 0 0 0-2.75-.15q-.21 1.54-.72 3.92l-95.95 24.88.06-7.54a.8.79 79.3 0 1 .48-.72q3.13-1.4 7.3-2.6 46.1-13.27 92.41-23.27a10.53 10.16 39.5 0 1 2.68-.21l78.68 4.24a.55.54 10.6 0 1 .49.71l-18.41 58a1.01 1.01 0 0 1-.89.7zM511.9 656.08q-3.59-.59-7.27 1.15-5.13 2.43-5.23 2.47-15.31 5.74-28.55 11.46a.72.71 62.2 0 0-.32 1.04q3.7 5.7 10.5 13.41 5.58 6.32 6.36 9.24c2.44 9.01-4.15 17.69-9.72 25.18-1.23 1.66-2.36 3.6-3.15 5.27a1.08 1.07 22.8 0 0 .6 1.46q4.53 1.67 11.6 3.71c5.52 1.59 11.64 4.21 18.04 5.19a.64.64 0 0 0 .72-.54q1.37-9.52 4.53-18.53a6.57 6.49 56.9 0 0 .35-1.71q.3-4.69.66-6.57.31-1.65 1.69-1.11v39.6a.47.47 0 0 1-.61.45l-73.64-23.39a.8.79-85.4 0 1-.55-.65l-1.07-7.19 23.33 6.38a1.73 1.73 0 0 0 1.9-.72c2.64-3.95 3.58-6.05 6.59-9.93q1.96-2.52 3.54-5.75c1.86-3.82 4.11-7.71.98-11.44q-6.41-7.59-15.4-17.25a2.8 2.79 59.5 0 0-2.89-.75q-9.73 3.11-19.1 8.64a2.35 2.3 89.4 0 0-.87.91l-1.58 2.95q-.4-2.98-.98-5.22-.13-.47-.76-.5a.73.72 89.6 0 0-.76.78l.26 3.43q-8.68 1.39-16.93 5.01-11.1 4.86-11.17 4.88-14.96 5.77-30.11 12.39a1.31 1.3 79.9 0 0-.79 1.14l-.22 4.11a1.29 1.29 0 0 0 1.33 1.36q26.31-.88 44.51-1.32c5.46-.13 10.7.12 16.15.28l.73 7.37a.69.69 0 0 1-.67.76l-69.36 1.46a.51.51 0 0 1-.52-.5l-1.23-58.45a.85.83 74.1 0 1 .4-.74l9.69-5.96q.25 1.09-.6 2.73a1.74 1.73-29.9 0 0-.19.7l-.91 31.08a.88.88 0 0 0 1.18.85c8.85-3.26 17.95-7.68 25.81-10.5q12.99-4.67 30.46-12.57c3.75-1.7 10.87-4.37 16.29-6.79a.66.65-32.8 0 0 .23-1.03l-16.75-19.21-6.45-55.67 30.23-21.45a1.1 1.1 0 0 0-.34-1.96l-34.14-9.44-.88-3.73a1.31 1.31 0 0 0-2.58.34l.11 3.74-4.8-1.02a.76.54-28.4 0 0-.17-.02q-6.85-.19-9.91-.05-25.87 1.17-53.32 3.39a1.12 1.12 0 0 0-1 1.33q.45 2.34.92 3.61 3.24 8.87 5.15 18.08.53 2.56 2.12 6.07a2.15 2.14-6.3 0 0 1.52 1.21q15.19 3.04 27.81 7.21c7.54 2.5 11.97 3.22 21.07 5.13q1.7.36 3.49-.88 5.76-3.99 11.46-9.36l6.92 49.75-18.7-24.56a2.04 2.04 0 0 0-2.21-.71q-1.3.41-2.82 1.3-10.09 5.9-18.21 13.32l-2.58-3.52a1.92 1.89-67.8 0 1-.35-.85q-.48-3.3-2-5.62 6.35-4.1 12.44-9.03.87-.7 1.01-1.16a1.09 1.08-72.4 0 0-.7-1.36c-3.15-1-7.52-2.73-10.42-3.42q-11.4-2.7-22.98-6.39a.7.7 0 0 0-.87.91l4.33 11.95-9.2-.75a.72.7 82.7 0 1-.63-.5l-18.36-58.51a.23.23 0 0 1 .21-.3q38.07-2.97 76.69-4.51a11.61 11.32-39.2 0 1 2.82.25q34.32 7.49 67.94 16.53 14.89 4 29.39 8.7a.5.49 8.9 0 1 .35.47zm-68.95-67.33q-8.5 5.41-16.49 11.18-1.85 1.34-1.5 3.51.27 1.66.64 4.25a1.31 1.3 86.1 0 0 1.28 1.12l28.64.35c7.3.53 13.58-1.61 21.29-4.3q4.17-1.45 12.62-1.94.73-.05 2.81-1.36a.83.8 83.4 0 0 .35-.46l5.15-18.39a.79.76-17 0 1 .18-.32l2.43-2.79a.55.54-61.6 0 0-.26-.89q-4.49-1.22-11.42-3.59c-5.45-1.87-12.16-3.36-17.9-4.71a3.47 3.44-55.8 0 0-2.82.55zm-15.92 27.74c-.63 3.33.9 6.61 3.16 9.55q9.69 12.63 27.62 33.91a1.4 1.4 0 0 0 1.62.38c4.14-1.79 8.27-2.81 12.89-4.76q12.19-5.16 24.61-9.88 2.31-.88 5.36-2.48a2.34 2.33 78.3 0 0 1.23-1.88q.88-11.11-.48-23.88a2.9 2.89-80.6 0 0-1.64-2.3q-9.99-4.74-20.32-1.86c-7.83 2.19-15.02 5.59-22.59 4.97q-11.29-.92-17.8-1.16c-4.14-.16-9.24-1.07-12.31-1.56a1.18 1.18 0 0 0-1.35.95m3.305 55.483a2.16.96-98.4 0 0-.635 2.277 2.16.96-98.4 0 0 1.266 1.997 2.16.96-98.4 0 0 .634-2.277 2.16.96-98.4 0 0-1.266-1.997"/><path fill="#030302" d="m417.73 556.08 4.25 32.85 6.45 55.67q.93 9.38 1.92 17.64.23 1.92.1 2.91a.51.51 0 0 1-.97.14q-.35-.8-.5-1.85-.66-4.74-1.39-8.58l-1.95-13.98-6.92-49.75-4.34-34.7-.11-3.74a1.31 1.31 0 0 1 2.58-.34zm196.72-.55-7.85 64.57-2.49 17.35c-1.22 9.16-1.99 18.67-4.04 27.66q-.06.3-.47.64-.14-.32-.24-.26l1.88-23.34 2.05-19.8 7.63-65.8q.51-2.38.72-3.92a1.38 1.38 0 0 1 2.75.15z"/><path fill="#e5d29f" d="m545.28 554.6-30.4 8.88a5.39 5.33-44.7 0 1-3.01 0l-32.86-9.73 6.59.86a.56.26-19.9 0 0 .11.01q22.54-.77 31.29-.96 5.13-.11 12.59.59a14.3 14.17 45.3 0 0 2.26.02q6.71-.49 13.43.33m-130.9 1.83 4.34 34.7q-5.7 5.37-11.46 9.36-1.79 1.24-3.49.88c-9.1-1.91-13.53-2.63-21.07-5.13q-12.62-4.17-27.81-7.21a2.15 2.14-6.3 0 1-1.52-1.21q-1.59-3.51-2.12-6.07-1.91-9.21-5.15-18.08-.47-1.27-.92-3.61a1.12 1.12 0 0 1 1-1.33q27.45-2.22 53.32-3.39 3.06-.14 9.91.05a.76.54-28.4 0 1 .17.02z"/><path fill="#ceda7c" d="m606.6 620.1 7.85-64.57c3.45-.14 6.91-.28 10.4-.08q29.62 1.7 59.87 4.5a.46.45-78.7 0 1 .39.59l-3.28 10.32a1.45 1.45 0 0 1-1.16 1q-3.19.51-7.92.32-8.22-.33-12.53-.66-6.21-.47-10.09 3.85c-4.19 4.67-8.64 9.8-13.07 13.94q-4.56 4.25-8.74 8.86-4.2 4.63-10.81 10.99-5.38 5.18-10.91 10.94"/><path fill="#e5d29f" d="m421.98 588.93-4.25-32.85 34.14 9.44a1.1 1.1 0 0 1 .34 1.96z"/><path fill="#ceda7c" d="m610.92 556.55-7.63 65.8q-1.52 1.21-2.76 2.89-1.87 2.55-2.46 3.15-4.2 4.25-9.12 10.07-4.12 4.87-12.96 13.71c-.64.64-.84 1.4-1.37 1.92q-.37.35-1.7-.06-5.21-1.6-11.25-4.28c-11.79-5.24-24.08-8.92-37.42-14.95q-4.54-2.05-9.26-4.13l-.02-49.24zm-34.82 56.82q.59-.4 4.29-2.47c9.82-5.49 11.78-16.62 4.12-24.67-10.26-10.78-29.45-5.53-33.15 8.64-.94 3.58.1 6.98 4.42 6.49 3.13-.36 3.97-3.74 5.09-6.49a3.53 3.44 76.3 0 1 .58-.98q3.64-4.42 9.54-4.33c4.79.08 9 3.11 8.95 8.27-.08 7.11-11.62 7.17-12.87 12.79-.87 3.91-2.82 17.29 6.09 13.42a2.41 2.37.5 0 0 1.2-1.16q1.27-2.65.89-7.75a1.94 1.93 70.8 0 1 .85-1.76m.61 20.68a4.9 4.9 0 0 0-4.9-4.9 4.9 4.9 0 0 0-4.9 4.9 4.9 4.9 0 0 0 4.9 4.9 4.9 4.9 0 0 0 4.9-4.9m-121.19-24.89q-4.89-1.88-6.37-4.57-2.62-4.76-5.2-9.58-.98-1.83-1-6.26l25-17.79a3.47 3.44-55.8 0 1 2.82-.55c5.74 1.35 12.45 2.84 17.9 4.71q6.93 2.37 11.42 3.59a.55.54-61.6 0 1 .26.89l-2.43 2.79a.79.76-17 0 0-.18.32l-5.15 18.39a.83.8 83.4 0 1-.35.46q-2.08 1.31-2.81 1.36-8.45.49-12.62 1.94c-7.71 2.69-13.99 4.83-21.29 4.3"/><path fill="#ee9735" d="M337.1 612.2q-6.09 1.32-12.33 1.07-19.1.06-27.9-1.33-10.57-1.67-16.67-3.38-6.62-1.85-14.68-6.38l-9.7-5.98 3.51-19.97a.43.42 25 0 1 .69-.25q25.49 20.95 58.68 26.85 14.84 2.64 20.39 2.09a1.29 1.28 61.5 0 1 .93.28q.68.55.86 1.6a.96.95-13.6 0 1-.66 1.07l-2.65.83a.95.92 89.7 0 0-.61.64q-.31 1.15.14 2.86"/><path fill="#f4be49" d="M767.91 583.73q-3.97-.86-8.17 1.3-7.7 3.97-15.38 7.97-13.59 7.08-28.47 10.64-10.74 2.57-19.23 1.4 5.67-.92 11.14-1.99 32.16-6.28 57.88-26.41a.56.55 65.4 0 1 .88.33z"/><path fill="#030302" d="M576.1 613.37a1.94 1.93 70.8 0 0-.85 1.76q.38 5.1-.89 7.75a2.41 2.37.5 0 1-1.2 1.16c-8.91 3.87-6.96-9.51-6.09-13.42 1.25-5.62 12.79-5.68 12.87-12.79.05-5.16-4.16-8.19-8.95-8.27q-5.9-.09-9.54 4.33a3.53 3.44 76.3 0 0-.58.98c-1.12 2.75-1.96 6.13-5.09 6.49-4.32.49-5.36-2.91-4.42-6.49 3.7-14.17 22.89-19.42 33.15-8.64 7.66 8.05 5.7 19.18-4.12 24.67q-3.7 2.07-4.29 2.47"/><path fill="#e5d29f" d="M670.04 611.3q-8.66.97-15.83 6.4-3.88 2.94-5.4 7.39-.72 2.11-1.77 3.9-2.85 4.89-2.22 9.36 2.13 15.08 15.54 23.31l-.25 8.48a1.95 1.95 0 0 1-1.21 1.74q-8.85 3.61-19.86 7.33c-3.14 1.06-5.39.82-8.28-.23q-3.8-1.38-10.44-4.28c-5.67-2.48-13.38-4.74-19.64-7.67a1.42 1.4-3.4 0 1-.64-.56l-.44-.72q.41-.34.47-.64c2.05-8.99 2.82-18.5 4.04-27.66q.03.73.28.96a.78.67 37.6 0 0 1.12-.06q.26-.43 4.35-5.37 2.11-2.53 4.74-5.01 8-7.51 11.41-11.3c5.72-6.34 11.43-10.9 17.15-17.44q7.02-8.06 16.32-16.22a1.13 1.12 23.1 0 1 .73-.29l17.18-.36a1.01 1.01 0 0 1 .97 1.34q-2.24 6.43-4.33 11.85c-1.35 3.5-1.69 6.79-2.6 10.71a3.45 3.2 66.8 0 1-.27.76q-1.17 2.27-1.12 4.28"/><path fill="#ee9735" d="m767.91 583.73 2.18 13.69q-1.48-.64-2.03 1.13a.93.93 0 0 1-.77.66l-.63.1a6.79 6.72 25.4 0 0-2.43.85c-7.22 4.23-14.76 8.14-22.48 10.29a3.43 2.81-50.7 0 1-.6.12l-25.46 2.67q-11.52.36-22.96-1.42c1.1-2.28-.29-3.25-2.25-3.74a1.38 1.37 50.3 0 1 .25-2.71l5.93-.33q8.49 1.17 19.23-1.4 14.88-3.56 28.47-10.64 7.68-4 15.38-7.97 4.2-2.16 8.17-1.3"/><path fill="#e5d29f" d="M442.95 588.75q.02 4.43 1 6.26 2.58 4.82 5.2 9.58 1.48 2.69 6.37 4.57l-28.64-.35a1.31 1.3 86.1 0 1-1.28-1.12q-.37-2.59-.64-4.25-.35-2.17 1.5-3.51 7.99-5.77 16.49-11.18"/><path fill="#efcd8a" d="M265.52 602.18q-5.16 19.32-6.1 34.81-.67 11.03.43 27.19.29 4.18.59 9.11a.87.86-4.9 0 1-.77.91q-.22.03-.83-.22-2.88-12.28-4.04-26.73-2.07-25.97 1.02-51.05z"/><path fill="#f4be49" d="M770.09 597.42c3.2 24.5 3 49.2-1.44 73.51-6 6.95-7.88 15.63-13.37 23.37-5.04 7.1-9.67 14.55-15.09 21q-14.7 17.46-33.31 31.15c.05-10.15-2.5-20.1-5.96-29.49-4.61-12.53-11.8-21.51-22.63-28.61l.03-3.39c5.46.18 11.68.67 16.57.12 12.11-1.34 24.47-6.68 32.38-16.31q3.16-3.86 3.38-8.73 6.47-7.98 6.71-18a.71.71 0 0 0-1.24-.49l-1.33 1.48-19.1-29.79 25.46-2.67a3.43 2.81-50.7 0 0 .6-.12c7.72-2.15 15.26-6.06 22.48-10.29a6.79 6.72 25.4 0 1 2.43-.85l.63-.1a.93.93 0 0 0 .77-.66q.55-1.77 2.03-1.13m-22.977 46.66a9.91 4.91-79.4 0 0-6.65 8.837 9.91 4.91-79.4 0 0 3.004 10.644 9.91 4.91-79.4 0 0 6.65-8.838 9.91 4.91-79.4 0 0-3.004-10.644m-8.62 31.167a9.5 4.91-70.1 0 0-7.85 7.262 9.5 4.91-70.1 0 0 1.383 10.604 9.5 4.91-70.1 0 0 7.85-7.262 9.5 4.91-70.1 0 0-1.382-10.604M725.986 704.7a9.01 4.9-55.1 0 0-9.174 4.587 9.01 4.9-55.1 0 0-1.136 10.193 9.01 4.9-55.1 0 0 9.174-4.587 9.01 4.9-55.1 0 0 1.136-10.193"/><path fill="#e5d29f" d="M378.77 620.24q-7.05-7.32-17.19-8.5l-4.33-11.95a.7.7 0 0 1 .87-.91q11.58 3.69 22.98 6.39c2.9.69 7.27 2.42 10.42 3.42a1.09 1.08-72.4 0 1 .7 1.36q-.14.46-1.01 1.16-6.09 4.93-12.44 9.03"/><path fill="#f4be49" d="m324.77 613.27-21.02 39.81q-5.98-4.69-9.78-11.09a.7.7 0 0 0-1.29.26c-.99 7.05 3.94 15.54 8.83 20.3q-.36.71-.92.9a1.08 1.08 0 0 0-.62 1.55q1.34 2.39 3.41 4.65 11.45 12.58 28.66 15.27-11.16 13.39-20.52 27.95c-1.46-3.42-4.84-8.24-8.82-8.56-8.15-.66.01 17.94 8.03 15.44q-1.63 7.87-4.95 15.21-2.32-1.57-4.39-3.6-7.09-6.94-15.93-17.06c-5.67-6.49-9.97-13.81-15.61-22.09-3.88-5.7-6.63-11.6-9.01-16.51q-.07-.12-.05-.38a.21.21 0 0 0-.27-.22q-.6.15-1.5-.04.08-.51-.18-1.08.61.25.83.22a.87.86-4.9 0 0 .77-.91q-.3-4.93-.59-9.11-1.1-16.16-.43-27.19.94-15.49 6.1-34.81 8.06 4.53 14.68 6.38 6.1 1.71 16.67 3.38 8.8 1.39 27.9 1.33m-45.282 30.7a9.96 4.93-100.6 0 0-3.014 10.697 9.96 4.93-100.6 0 0 6.678 8.883 9.96 4.93-100.6 0 0 3.014-10.697 9.96 4.93-100.6 0 0-6.678-8.883m8.555 31.284a9.49 4.79-110.2 0 0-1.218 10.56 9.49 4.79-110.2 0 0 7.772 7.252 9.49 4.79-110.2 0 0 1.218-10.56 9.49 4.79-110.2 0 0-7.772-7.252"/><path fill="#f7c96d" d="M340.24 615.57c-1.38 1.56-.24 2.93-.89 4.35-.89 1.94-2.06 4.38-2.44 5.81q-3.25 12.12.67 22.41 2.69 7.09 9.43 12.28-8.8 1.57-14.76 1.71-15.44.35-28.5-9.05l21.02-39.81q6.24.25 12.33-1.07zm352.49-3.75q11.44 1.78 22.96 1.42l19.1 29.79c-7.41 12.12-20.63 18.43-34.53 18.89q-8.84.3-17.04-1.3 6.77-5.88 9.74-14.38 4.26-12.17-1.42-23.92-1.42-2.95-2.74-5.89z"/><path fill="#e5d29f" d="M427.03 616.49a1.18 1.18 0 0 1 1.35-.95c3.07.49 8.17 1.4 12.31 1.56q6.51.24 17.8 1.16c7.57.62 14.76-2.78 22.59-4.97q10.33-2.88 20.32 1.86a2.9 2.89-80.6 0 1 1.64 2.3q1.36 12.77.48 23.88a2.34 2.33 78.3 0 1-1.23 1.88q-3.05 1.6-5.36 2.48-12.42 4.72-24.61 9.88c-4.62 1.95-8.75 2.97-12.89 4.76a1.4 1.4 0 0 1-1.62-.38q-17.93-21.28-27.62-33.91c-2.26-2.94-3.79-6.22-3.16-9.55m-1.39 24.39 1.95 13.98q-2.33-2.45-3.21-6.19a2.79 2.66-70.2 0 0-.42-.95q-4.06-6-9.9-10.26a3.11 3.06 70.6 0 0-.96-.47q-3.51-.97-6.98.62c-5.98 2.75-13.89 5.96-21.19 10.01a1.86 1.85-88.6 0 0-.7.67q-2.22 3.65-5.67 5.62 8.69-11.13 5.14-23.68 8.12-7.42 18.21-13.32 1.52-.89 2.82-1.3a2.04 2.04 0 0 1 2.21.71z"/><path fill="#fdf1cd" d="M340.24 615.57q4.8 3.64 7.25 3.99c7.37 1.06 15.68.74 22.17 4.55a.59.59 0 0 1-.07 1.05c-3.69 1.52-8.43 3.29-10.78 6.16a.63.63 0 0 0 .48 1.03q9.6.1 14.12.04a2.01 1.78-5.8 0 1 1.95 1.4q.59 2.72-2.25 4.12-6.16 3.02-11.66 5.27-1.37.55-2.25 1.24a.94.94 0 0 0 .46 1.68q6.9.9 12.87-.57a.31.3 11.8 0 1 .32.48c-6.68 8.62-15.18 12.23-25.84 14.41q-6.74-5.19-9.43-12.28-3.92-10.29-.67-22.41c.38-1.43 1.55-3.87 2.44-5.81.65-1.42-.49-2.79.89-4.35m348.56.86q1.32 2.94 2.74 5.89 5.68 11.75 1.42 23.92-2.97 8.5-9.74 14.38l-7.2-1.83q8.68-13.67 12.06-29.37.23-1.06-.2-6.28a1.46 1.45 24.3 0 0-.3-.79q-.88-1.14-2.13-1.45a1.74 1.72-45.3 0 0-.84.01c-5.1 1.4-9.95 2.54-15.16.27q5.87-1.13 11.79-1.73 3.79-.38 7.56-3.02"/><path fill="#e5d29f" d="M676.02 658.79c-7.05-2.05-15.18-6.82-19.13-13.21a.27.27 0 0 1 .29-.41c3.4.83 10.74 2.23 13.72.55a.93.93 0 0 0-.1-1.67q-11.73-4.81-13.27-5.57-2.29-1.12-2.69-1.43a2.08 2.07-41 0 1 .24-3.43q1.72-1 4.42-1.14 5.33-.26 10.86-.33a1.05 1.05 0 0 0 .64-1.87c-2.77-2.17-5.32-2.86-9.95-4.73a.58.58 0 0 1-.12-1q3.66-2.71 8.52-3.37c5.21 2.27 10.06 1.13 15.16-.27a1.74 1.72-45.3 0 1 .84-.01q1.25.31 2.13 1.45a1.46 1.45 24.3 0 1 .3.79q.43 5.22.2 6.28-3.38 15.7-12.06 29.37"/><path fill="#fdf1cd" d="m603.29 622.35-2.05 19.8q-9.26 8.25-16.83 17.03a.44.44 0 0 0 .16.69l12.78 5.75a1.47 1.46 51 0 0 .91.1l1.1-.23q.1-.06.24.26l.44.72a1.42 1.4-3.4 0 0 .64.56c6.26 2.93 13.97 5.19 19.64 7.67q6.64 2.9 10.44 4.28c2.89 1.05 5.14 1.29 8.28.23q11.01-3.72 19.86-7.33a1.95 1.95 0 0 0 1.21-1.74l.25-8.48 8.01 4.45a.7.68 15 0 1 .36.6v58.1a.7.7 0 0 1-.73.7l-72.05-2.12a.51.51 0 0 1-.5-.55l.6-7.8 62.27 1.58a.72.71-87.5 0 0 .73-.68l1.68-31.19a1.37 1.36-9.3 0 0-1.87-1.34q-8.62 3.4-11.72 4.47c-5.2 1.78-8.82 3.2-13.24 1.25q-15.77-6.96-33.19-12.56-1.45-.47-.96-1.66l-.02-2.68a.62.62 0 0 0-1.24-.08l-.35 2.66q-1.68.34-3.45-.49-9.03-4.25-18.4-6.83a1.36 1.36 0 0 0-1.33.36q-14.24 14.51-28.99 30.37-10.42 11.2-21.56 23.59c-2.78 3.09-6.21 6.04-7.84 9.57a2.23 2.18 61.1 0 0-.18.65l-.58 5.01a1.05 1.04 86.9 0 0 1.27 1.14q6.76-1.52 11.74-3.17 8.22-2.73 11.23-3.44c8.84-2.1 14.75-4.36 27.42-8.65q3.9-1.31 12.98-3.57 6.54-1.62 12.89-3.97l-.9 6.95a1.92 1.91-5.3 0 1-1.33 1.59l-75.67 23.75a.36.36 0 0 1-.47-.34l-.41-33.34q.59-.33 1.69-.16a1.17 1.14 26.7 0 0 .96-.3q11.27-10.79 25.25-24.63 7.53-7.46 11.19-11.68 5.41-6.22 11.11-11.7a.72.72 0 0 0-.28-1.21c-5.21-1.65-9.69-3.9-15.44-5.83q-11.9-3.98-30.44-11.38-1.95-.78-3.78-.08l.17-16.35q4.72 2.08 9.26 4.13c13.34 6.03 25.63 9.71 37.42 14.95q6.04 2.68 11.25 4.28 1.33.41 1.7.06c.53-.52.73-1.28 1.37-1.92q8.84-8.84 12.96-13.71 4.92-5.82 9.12-10.07.59-.6 2.46-3.15 1.24-1.68 2.76-2.89"/><circle cx="571.81" cy="634.05" r="4.9" fill="#030302"/><path fill="#ceda7c" d="M427.59 654.86q.73 3.84 1.39 8.58.15 1.05.5 1.85a.51.51 0 0 0 .97-.14q.13-.99-.1-2.91-.99-8.26-1.92-17.64l16.75 19.21a.66.65-32.8 0 1-.23 1.03c-5.42 2.42-12.54 5.09-16.29 6.79q-17.47 7.9-30.46 12.57c-7.86 2.82-16.96 7.24-25.81 10.5a.88.88 0 0 1-1.18-.85l.91-31.08a1.74 1.73-29.9 0 1 .19-.7q.85-1.64.6-2.73l5.65-5.43q3.45-1.97 5.67-5.62a1.86 1.85-88.6 0 1 .7-.67c7.3-4.05 15.21-7.26 21.19-10.01q3.47-1.59 6.98-.62a3.11 3.06 70.6 0 1 .96.47q5.84 4.26 9.9 10.26a2.79 2.66-70.2 0 1 .42.95q.88 3.74 3.21 6.19"/><path fill="#e5d29f" d="m601.24 642.15-1.88 23.34-1.1.23a1.47 1.46 51 0 1-.91-.1l-12.78-5.75a.44.44 0 0 1-.16-.69q7.57-8.78 16.83-17.03"/><ellipse fill="#030302" rx="9.96" ry="4.93" transform="rotate(259.4 412.041 210.102)"/><ellipse fill="#030302" rx="9.91" ry="4.91" transform="rotate(-79.4 766.41 -121.943)"/><path fill="#e5d29f" d="m514.56 713.99-.46-12.15a.56.56 0 0 0-.56-.54h-.29a.35.35 0 0 0-.35.34l-.19 5.56q-1.38-.54-1.69 1.11-.36 1.88-.66 6.57a6.57 6.49 56.9 0 1-.35 1.71q-3.16 9.01-4.53 18.53a.64.64 0 0 1-.72.54c-6.4-.98-12.52-3.6-18.04-5.19q-7.07-2.04-11.6-3.71a1.08 1.07 22.8 0 1-.6-1.46c.79-1.67 1.92-3.61 3.15-5.27 5.57-7.49 12.16-16.17 9.72-25.18q-.78-2.92-6.36-9.24-6.8-7.71-10.5-13.41a.72.71 62.2 0 1 .32-1.04q13.24-5.72 28.55-11.46.1-.04 5.23-2.47 3.68-1.74 7.27-1.15l.33 37.32a1.09 1.09 0 0 0 1.05 1.08l.28.01a.83.83 0 0 0 .85-.82l.41-46.65q1.83-.7 3.78.08 18.54 7.4 30.44 11.38c5.75 1.93 10.23 4.18 15.44 5.83a.72.72 0 0 1 .28 1.21q-5.7 5.48-11.11 11.7-3.66 4.22-11.19 11.68-13.98 13.84-25.25 24.63a1.17 1.14 26.7 0 1-.96.3q-1.1-.17-1.69.16"/><path fill="#ee9735" d="M730.65 660.04q-.22 4.87-3.38 8.73c-7.91 9.63-20.27 14.97-32.38 16.31-4.89.55-11.11.06-16.57-.12l.17-14.39a.42.41 8.1 0 1 .53-.39q13.69 3.95 27.98 2.01 14.2-1.92 23.65-12.15m-377 22.93q-1.6-.46-1.72.63-.08.81-.87.95-9.71 1.81-19.02.37-17.21-2.69-28.66-15.27-2.07-2.26-3.41-4.65a1.08 1.08 0 0 1 .62-1.55q.56-.19.92-.9c14.47 12.09 34.21 12.58 51.43 6.73a.38.38 0 0 1 .5.35z"/><path fill="#e5d29f" d="M598.14 674.81q.79.51 1.61.1-.49 1.19.96 1.66 17.42 5.6 33.19 12.56c4.42 1.95 8.04.53 13.24-1.25q3.1-1.07 11.72-4.47a1.37 1.36-9.3 0 1 1.87 1.34l-1.68 31.19a.72.71-87.5 0 1-.73.68l-62.27-1.58 2.86-32.46a.62.61-78.7 0 0-.42-.64l-.29-.09a.57.57 0 0 0-.74.47l-4.12 33.06q-6.35 2.35-12.89 3.97-9.08 2.26-12.98 3.57c-12.67 4.29-18.58 6.55-27.42 8.65q-3.01.71-11.23 3.44-4.98 1.65-11.74 3.17a1.05 1.04 86.9 0 1-1.27-1.14l.58-5.01a2.23 2.18 61.1 0 1 .18-.65c1.63-3.53 5.06-6.48 7.84-9.57q11.14-12.39 21.56-23.59 14.75-15.86 28.99-30.37a1.36 1.36 0 0 1 1.33-.36q9.37 2.58 18.4 6.83 1.77.83 3.45.49"/><path fill="#ee9735" d="M768.65 670.93c-7.16 35.75-25.74 69.03-53.28 92.94q-16.73 14.53-36.36 24.83a.3.3 0 0 1-.42-.37q4.88-13.99 6.35-28.74l21.94-13.14q18.61-13.69 33.31-31.15c5.42-6.45 10.05-13.9 15.09-21 5.49-7.74 7.37-16.42 13.37-23.37"/><path fill="#030302" d="M599.75 674.91q-.82.41-1.61-.1l.35-2.66a.62.62 0 0 1 1.24.08z"/><ellipse fill="#030302" rx="2.16" ry=".96" transform="rotate(-98.4 506.263 151.191)"/><path fill="#ee9735" d="M305.78 734.96q10.08 9.52 21.83 16.68c6.78 4.14 10.3 5.96 12.53 7.93q.4.36.79.32.46-.05.87-.33 1.6 14.97 6.66 29.11a.23.23 0 0 1-.31.28c-45.69-22.6-77.87-64.01-89.13-113.89q.9.19 1.5.04a.21.21 0 0 1 .27.22q-.02.26.05.38c2.38 4.91 5.13 10.81 9.01 16.51 5.64 8.28 9.94 15.6 15.61 22.09q8.84 10.12 15.93 17.06 2.07 2.03 4.39 3.6"/><ellipse fill="#030302" rx="9.49" ry="4.79" transform="rotate(249.8 384.298 240.466)"/><ellipse fill="#030302" rx="9.5" ry="4.91" transform="rotate(-70.1 855.279 -181.966)"/><path fill="#e5d29f" d="m436.84 716.02-3.5-26.96 1.58-2.95a2.35 2.3 89.4 0 1 .87-.91q9.37-5.53 19.1-8.64a2.8 2.79 59.5 0 1 2.89.75q8.99 9.66 15.4 17.25c3.13 3.73.88 7.62-.98 11.44q-1.58 3.23-3.54 5.75c-3.01 3.88-3.95 5.98-6.59 9.93a1.73 1.73 0 0 1-1.9.72z"/><path fill="#f7c96d" d="m353.65 682.97 1.08 48.93a.76.76 0 0 1-.67.77q-7.34.87-10.08 7.87-3.23 8.25-2.18 19.02-.41.28-.87.33-.39.04-.79-.32c-2.23-1.97-5.75-3.79-12.53-7.93q-11.75-7.16-21.83-16.68 3.32-7.34 4.95-15.21 2.83-2.48.79-6.88 9.36-14.56 20.52-27.95 9.31 1.44 19.02-.37.79-.14.87-.95.12-1.09 1.72-.63m353.23 63.48-21.94 13.14c.9-8.87.02-18.85-6.8-25a1.1 1.1 0 0 1-.36-.82l.51-45.42c10.83 7.1 18.02 16.08 22.63 28.61 3.46 9.39 6.01 19.34 5.96 29.49"/><path fill="#e5d29f" d="m431.1 687.55 2.77 27.85c-5.45-.16-10.69-.41-16.15-.28q-18.2.44-44.51 1.32a1.29 1.29 0 0 1-1.33-1.36l.22-4.11a1.31 1.3 79.9 0 1 .79-1.14q15.15-6.62 30.11-12.39.07-.02 11.17-4.88 8.25-3.62 16.93-5.01"/><path fill="#030302" d="M311.52 712.87q2.04 4.4-.79 6.88c-8.02 2.5-16.18-16.1-8.03-15.44 3.98.32 7.36 5.14 8.82 8.56"/><ellipse fill="#030302" rx="9.01" ry="4.9" transform="rotate(-55.1 1042.916 -334.833)"/><path fill="#efcd8a" d="M436.07 732.91q2.37 3.94 7.23 5.31c8.47 2.4 17.03 4.43 25.18 7.39q14.62 5.32 22.37 8.04c5.49 1.93 10.26 3.23 15.68 1.78q3.45 1.05 6.97 2.17.99.32 4.54-.79 27.65-8.71 73.46-23.34 1.55-.5 4.5-.44 19.47.39 40.05.9a.23.22-72.6 0 1 .18.35q-4.81 7.3-8.41 15.35c-1.68-.18-1.78 1.14-3.21 1.1q-10.09-.24-21.61-.76-5.82-.27-7.22.27-24.59 9.37-47.04 16.32-5.31 1.65-15.9 5.6-7.19 2.68-16.1 5.04-2.35.62-4.28.06-9.94-2.88-17.16-5.63-7.66-2.91-17.02-6.08-26.81-9.1-30-10.34-.93-.36-9.89-4.06-4.07-1.68-7.39-1.53-15.91.72-31.62 1.42-3.93-9.16-8.82-16.58a.17.17 0 0 1 .13-.26z"/><path fill="#e5d29f" d="M506.53 755.43c-5.42 1.45-10.19.15-15.68-1.78q-7.75-2.72-22.37-8.04c-8.15-2.96-16.71-4.99-25.18-7.39q-4.86-1.37-7.23-5.31z"/><path fill="#fdf1cd" d="M399.34 794.64q-6.66 12.04-18.6 11.03-5.91-.5-9.97-2.7-2.79-1.52-5.06-1.42-13.35-22.51-14.73-48.81-.17-3.27.44-7.24.28-1.88 1.02-2.84a1.11 1.11 0 0 1 1.81.09q1.92 3.09 4.44 8.3 1.46 3.03 3.33 4.68a.81.81 0 0 0 1.32-.42c.66-2.88-.08-7.75-.64-13.54q-.33-3.39.81-6.1a1.1 1.1 0 0 1 .7-.63q3.59-1.06 5.15 2.34c2.88 6.28 5.03 11.81 7.23 14.49a.88.88 0 0 0 1.52-.3q.52-1.72.48-4.07-.01-1.16.03-9.67a1 1 0 0 1 1.71-.71q3.03 2.99 5.52 8.2 11.49 24.11 13.49 49.32m261.55 6.71q-2.3.23-6.34 2.2c-4.64 2.27-12.52 3.16-17.75.58q-2.51-1.25-3.29-2.4-2.62-3.89-6.2-6.61 2.15-24.83 12.77-48.32c.93-2.07 4.05-8.43 6.59-9.74a1.03 1.02 78.3 0 1 1.49.98c-.32 4.62-.95 10.13.34 13.89a.78.78 0 0 0 1.29.3c2.38-2.43 4.1-6.72 6.65-12.52q1.05-2.36 2.51-3.97a2.72 2.67-51 0 1 3.56-.41q1.31.94 1.31 3.19-.02 6.95-.72 13.98-.12 1.16.21 2.49a.93.93 0 0 0 1.5.49c2.67-2.22 4.89-7.05 6.82-11.28q.73-1.6 2.2-1.99a.76.75-15.8 0 1 .92.51q1.1 3.64 1.13 4.52.47 14.81-3.74 28.88-4.04 13.52-11.25 25.23m-33.07-51.72-5.27 15.54q-4.54 4.65-7.86 9.7a.37.28-10.9 0 1-.08.09l-4.58 4.59a1.81 1.67 12 0 1-.72.43q-3.24 1.04-6.76 1.54-16.72 2.39-30.04 3.55-10.3.89-31.97.63c-14.35-.17-25.06-.99-39.04-.43-18.17.72-37.99.91-56.24-1.12-13-1.45-19.46-1.94-28.27-3.95a3.65 3.65 0 0 1-2.07-1.32l-10.36-13.3-5.18-14.54q15.71-.7 31.62-1.42 3.32-.15 7.39 1.53 8.96 3.7 9.89 4.06 3.19 1.24 30 10.34 9.36 3.17 17.02 6.08 7.22 2.75 17.16 5.63 1.93.56 4.28-.06 8.91-2.36 16.1-5.04 10.59-3.95 15.9-5.6 22.45-6.95 47.04-16.32 1.4-.54 7.22-.27 11.52.52 21.61.76c1.43.04 1.53-1.28 3.21-1.1"/><path fill="#efcd8a" d="m622.55 765.17-1.6 6.82q-1.06 1.96-1.45 4.47a2.95 2.92-4.4 0 1-2.02 2.34l-6.46 2.02a1.77 1.74-75.2 0 0-.64.38q-7.53 7.18-15.02 14.15-6.52 6.07-15.73 9.55-3.71.16-7.77.41-4.42.27-7.75.31-22.17.27-39.38-.66c-14.14-.76-24.18.01-40.98.63q-17.34.64-41.71-.78.53.12.88.08a.35.35 0 0 0 .19-.62l-1.02-.82a2.08 1.87 74.6 0 0-.25-.16c-10.2-5.13-17.81-14.22-25.61-22.36a2.37 2.31 75.2 0 0-1.07-.64q-3.8-1.03-7.74-.56l-2.86-14.15 10.36 13.3a3.65 3.65 0 0 0 2.07 1.32c8.81 2.01 15.27 2.5 28.27 3.95 18.25 2.03 38.07 1.84 56.24 1.12 13.98-.56 24.69.26 39.04.43q21.67.26 31.97-.63 13.32-1.16 30.04-3.55 3.52-.5 6.76-1.54a1.81 1.67 12 0 0 .72-.43l4.58-4.59a.37.28-10.9 0 0 .08-.09q3.32-5.05 7.86-9.7"/><path fill="#ee9735" d="M620.95 771.99c-1.05 6.01-2.61 12.54-3.03 18.04q-.37 4.89-.46 9.65a1.11 1.1-5.1 0 1-.9 1.07q-18.09 3.35-36.93 4.15 9.21-3.48 15.73-9.55 7.49-6.97 15.02-14.15a1.77 1.74-75.2 0 1 .64-.38l6.46-2.02a2.95 2.92-4.4 0 0 2.02-2.34q.39-2.51 1.45-4.47m-178.91 32.82q-16.13-1.12-32.13-4.02a.73.73 0 0 1-.6-.72q-.05-10.09-1.89-20.34 3.94-.47 7.74.56a2.37 2.31 75.2 0 1 1.07.64c7.8 8.14 15.41 17.23 25.61 22.36a2.08 1.87 74.6 0 1 .25.16l1.02.82a.35.35 0 0 1-.19.62q-.35.04-.88-.08"/><path fill="#efcd8a" d="M399.34 794.64q.29 6.33-.83 11.08c-1.46 6.16-6.77 12.19-13.6 11.5-7.72-.78-15.54-9.21-19.2-15.67q2.27-.1 5.06 1.42 4.06 2.2 9.97 2.7 11.94 1.01 18.6-11.03m261.55 6.71q-4.89 8.31-12.53 13.5c-9.6 6.53-19.12-1.03-20.41-11.04q-.5-3.87-.64-8.69 3.58 2.72 6.2 6.61.78 1.15 3.29 2.4c5.23 2.58 13.11 1.69 17.75-.58q4.04-1.97 6.34-2.2"/></svg>