<svg xmlns="http://www.w3.org/2000/svg" viewBox="0 0 1024 1024"><g fill="none" stroke-width="2"><path stroke="gray" d="M517.15 199.97q-8.69-6.62-15.93-8.07c-7.72-1.55-13.89.47-13.53 9.75a.72.71-87 0 1-.82.74c-4.7-.7-11.91-.95-15.3 2.47-4.18 4.21-2.16 11.16 2.08 14.61a.35.35 0 0 1-.17.62c-15.29 2.25-30.88 7.64-45.24 13.7a.97.97 0 0 1-1.24-.44c-11.13-21.17-30.16-37.1-54.79-35.94q-14.35.67-26.68 8.37c-35.48 22.12-39.24 72.94-7.71 100.73a.39.38-51.4 0 1 .05.52q-16.85 21.74-30.7 46.67a1.16 1.14 9.6 0 1-.83.58q-25.36 3.99-45.09 18.87c-23.78 17.93-39.25 47.62-44.54 77.09-7 39.01 1 77.53 27.88 107.24a1.11 1.1 30.6 0 1 .26.99c-10.04 43.86-11.52 90.63 2.75 133.66 10.86 32.74 30.46 61.58 57.76 83.32q21.68 17.27 44.52 26.9 4.07 1.72 4.73 2.03a2.86 2.83 84.9 0 1 1.1.93q3.96 5.66 6.87 8.63c12.56 12.81 32.49 15.79 41.48-3.12a1.22 1.21-72 0 1 1.3-.67c33.06 5.71 68.08 6 100.14 4.02q3.86-.24 9.75-.07c36.25 1.02 69.79 2.29 104.16-4.06a.84.84 0 0 1 .9.43c1.5 2.9 3.51 6.24 5.82 8.3 13.52 12.09 31.61 2.53 40.22-10.43q1.2-1.8 2.87-3.63a2.96 2.94-79.9 0 1 1.04-.73q28.19-11.88 48.94-28.51 50.03-40.11 63.75-103.51c8.17-37.73 6.35-75.91-2.91-113.44a.88.86 60.2 0 1 .21-.8c23.08-24.96 32.59-57.09 30.34-91.08q-2.41-36.42-21.84-66.32-24.67-37.95-69.09-46.18a3.19 3.18 79.6 0 1-2.14-1.48q-14.94-24.82-30.64-45.76a.64.63-43 0 1 .03-.8q.82-.91 2.54-2.63c14.83-14.85 21.62-34.54 18.24-55.12-2.8-17.05-12.85-32.69-27.27-42.03-17.5-11.34-39.79-12.06-57.8-.87-10.92 6.79-18.81 16.67-25.02 28a.8.8 0 0 1-1.03.35q-21.77-9.28-45.08-13.94a3.4 3.4 0 0 1-2.25-1.57q-6.62-10.86-11-17.26-3.08-4.49-5.66-6.37c-4.45-3.24-10.37-1.46-13.25 2.95q-.64.98-1.41 2.22a.53.53 0 0 1-.77.14" vector-effect="non-scaling-stroke"/><path stroke="#796746" d="M486.65 230.99q-9.52 1.46-14.89 2.5c-21.51 4.19-42.55 12.64-61.52 23.47q-12.77 7.3-29.85 19.94-3.13 2.32-8.29 4.45" vector-effect="non-scaling-stroke"/><path stroke="#7b594f" d="M372.1 281.35q-1.57-.83-.85-2.1c4.58-8.12 11.57-15.33 19.15-21.5a.88.88 0 0 0 .29-.96q-5.02-15.66-16.91-23.32-8.7-5.6-18.01.11" vector-effect="non-scaling-stroke"/><path stroke="#7c5f25" d="M355.77 233.58q-1.38.22-1.92-.81-.23-.42-.01-.81 3.14-5.54 9.12-7.46c13.04-4.18 26.61 7.53 32.99 18.09q3.08 5.11 4.14 7.19a.46.45 60.1 0 0 .65.18l11.06-6.99" vector-effect="non-scaling-stroke"/><path stroke="#796746" d="m411.8 242.97 3.82-1.95a.73.72 64.6 0 0 .33-.94c-9.81-21.69-32.79-36.89-56.83-26.75q-11.07 4.67-18.68 14.11" vector-effect="non-scaling-stroke"/><path stroke="#794d1b" d="M340.44 227.44q-10.29 13.41-11.05 29.15c-.77 15.82 5.79 30.6 17.81 40.92a.93.92-47.5 0 0 1.27-.06q5.64-5.82 12.05-9.47" vector-effect="non-scaling-stroke"/><path stroke="#7b594f" d="M360.52 287.98q1.45-.62 1.98.02.29.35.6 1.22" vector-effect="non-scaling-stroke"/><path stroke="#796746" d="M363.1 289.22c-.03 5.42-6.64 14.16-10.25 18.89q-16.8 22.02-31.2 46.12a.17.17 0 0 0 .13.26l13.21 1.04" vector-effect="non-scaling-stroke"/><path stroke="#794d1b" d="M334.99 355.53q13.21 2.13 25.48 6.98" vector-effect="non-scaling-stroke"/><path stroke="#7c5f25" d="M360.47 362.51q3.71 1.62 6.36 4.03a1.03 1.03 0 0 1-.57 1.79l-2.84.33" vector-effect="non-scaling-stroke"/><path stroke="#796746" d="M363.42 368.66q-4.08-.28-14.23-2.11-4.05-.73-13.44-1.36c-28.93-1.94-58.1 7.38-77.74 28.54" vector-effect="non-scaling-stroke"/><path stroke="#807967" d="M258.01 393.73c-23.31 25.47-33.03 61.6-29.68 95.51" vector-effect="non-scaling-stroke"/><path stroke="#796746" d="M228.33 489.24c2.15 22.89 12.32 46.94 29.1 63.31 18.34 17.9 41.03 28.71 66.37 32.86q17.83 2.91 38.95.59 33.14-3.64 64.19-19.32 16.77-8.47 27.8-14.94" vector-effect="non-scaling-stroke"/><path stroke="#807967" d="M454.74 551.74q8.86-2.69 13.74-3.33c17.16-2.25 33.44 4.37 43.65 18.37a.43.42-43.9 0 0 .68.01c11.04-14.21 27-21.01 44.72-18.25q9.37 1.46 17.58 6.05" vector-effect="non-scaling-stroke"/><path stroke="#796746" d="M575.11 554.59q6.52 4.02 19.18 10.61 39.52 20.55 82.19 21.74c43.36 1.2 86.23-18.59 107.9-57.07q10.67-18.95 12.43-41.59" vector-effect="non-scaling-stroke"/><path stroke="#807967" d="M796.81 488.28q1.85-13.83-.25-29.04c-3.51-25.36-13.13-48.7-31.27-67.29" vector-effect="non-scaling-stroke"/><path stroke="#796746" d="M765.29 391.95q-9.48-10.42-23.36-17.12-27.82-13.41-58.93-9.19" vector-effect="non-scaling-stroke"/><path stroke="#7c5f25" d="M683 365.64q-8.03.78-16.49 2.39c-2.21.42-6.25.89-7.71.21q-2.01-.94-.67-2.28" vector-effect="non-scaling-stroke"/><path stroke="#794d1b" d="M658.13 365.96q3.21-2.56 7.4-4.2 17.81-7 36.95-7.72a.33.33 0 0 0 .27-.49q-9.62-16.58-21.19-32.24-11.27-15.25-14.07-19.41c-2.77-4.11-5.65-7.91-6.3-12.34" vector-effect="non-scaling-stroke"/><path stroke="#7b594f" d="M661.19 289.56q.21-2.19 2.21-2.04" vector-effect="non-scaling-stroke"/><path stroke="#794d1b" d="M663.4 287.52q7.15 3.64 12.48 9.64a.98.97 48.5 0 0 1.38.09q18.64-16.28 18.15-40.71-.25-12.77-8.07-25.01" vector-effect="non-scaling-stroke"/><path stroke="#7c5f25" d="m687.34 231.53-4.35-5.91" vector-effect="non-scaling-stroke"/><path stroke="#796746" d="M682.99 225.62c-11.08-12.31-26.37-18.11-42.49-14.13-13.95 3.46-25.81 15.33-31.75 28.46a.64.64 0 0 0 .27.83l3.43 1.91" vector-effect="non-scaling-stroke"/><path stroke="#7c5f25" d="m612.45 242.69 11.78 7.57a.52.52 0 0 0 .77-.25c4.21-11.15 12.85-21.58 24.43-25.32q11.64-3.76 20.1 4.88" vector-effect="non-scaling-stroke"/><path stroke="#794d1b" d="M669.53 229.57q1.36 1.61 1.59 2.31.53 1.62-1.82 1.77" vector-effect="non-scaling-stroke"/><path stroke="#7b594f" d="M669.3 233.65q-6.78-5.01-14.73-1.85c-10.12 4.02-16.88 15.01-20.84 25.17a.6.59-59.1 0 0 .16.66q6.28 5.47 12.21 11.77 5.76 6.11 7.39 11.48" vector-effect="non-scaling-stroke"/><path stroke="#7c5f25" d="M653.49 280.88q-2.32.06-3.72-1.06" vector-effect="non-scaling-stroke"/><path stroke="#7e6535" d="M649.77 279.82c-5.81-2.84-11.37-7.36-16.29-10.9-15.46-11.14-32.38-19.8-50.42-26.96-9.82-3.9-19.24-6.29-29.88-8.87q-7.14-1.73-11.59-6.69c-5.77-6.41-9.69-13.88-13.51-21.59a.53.53 0 0 0-.95.01q-1.79 3.69-1.82 7.98" vector-effect="non-scaling-stroke"/><path stroke="#7c5f25" d="M525.31 212.8q-.25 2.76-.76 5.68a1.94 1.9-79.9 0 1-2.22 1.58q-.93-.17-2.09-1.31c-6.1-5.96-11.89-12.13-19.71-15.74a.29.28 87.5 0 0-.36.4q2.37 4.35 4.58 8.86 2.02 4.14 1.6 8.73a1.31 1.31 0 0 1-1.69 1.14q-1.37-.43-2.91-1.41-2.6-1.66-8.14-4.8c-3.37-1.91-7.11-2.63-10.74-3.2a.25.25 0 0 0-.2.44c3.62 2.95 8.76 7.37 8.64 11.81q-.11 3.67-4.66 6.01" vector-effect="non-scaling-stroke"/><path stroke="#f6c258" d="M525.31 212.8q3.58 1.29 4.8 3.21c5.73 8.97 11.43 15.88 22.01 18.84 6.05 1.7 10.57 2.58 15.89 4.61q6.68 2.55 14.74 5.04c8.84 2.73 17.74 8.08 26.05 11.8 9.43 4.22 15.71 8.69 24.25 15.69q6.62 5.43 16.72 7.83" vector-effect="non-scaling-stroke"/><path stroke="#f4b672" d="M653.49 280.88q.27 2.68 4.53 5.1.56.31 1.03 1.73" vector-effect="non-scaling-stroke"/><path stroke="#f1aa3e" d="m659.05 287.71 1.43 8.13a1.05 1.05 0 0 1-.22.84q-12.19 15.13-10.85 35.44 1.2 18.13 8.72 33.84" vector-effect="non-scaling-stroke"/><path stroke="#f2c469" d="M683 365.64q5.1 1.28 10.82 1.24a10.84 10.56-38.3 0 1 2.21.23c11.12 2.37 20.86 4 30.76 8.33q17.88 7.81 34.51 23.02 5.4 4.93 7.91 9.08" vector-effect="non-scaling-stroke"/><path stroke="#f9d68a" d="M769.21 407.54c.94 19.12-3.24 35.9-14.5 51.44q-10.72 14.8-26.36 24.61" vector-effect="non-scaling-stroke"/><path stroke="#f6c258" d="M728.35 483.59c-10.29-11.6-21.37-23.18-34.33-32.01-22.84-15.58-48.4-17.85-73.14-4.15q-10.6 5.86-20.63 12.84" vector-effect="non-scaling-stroke"/><path stroke="#7c5f25" d="M600.25 460.27q-12.7-3.33-24.58-3.93" vector-effect="non-scaling-stroke"/><path stroke="#f9d68a" d="M575.67 456.34q-5.66-4.3-8.28-9.51" vector-effect="non-scaling-stroke"/><path stroke="#7c5f25" d="M567.39 446.83q27.21-10.41 55.53-14.88a.44.44 0 0 0 .29-.69l-.21-.31a.11.1-15 0 0-.09-.05q-31.16-3.77-58.44 12.54" vector-effect="non-scaling-stroke"/><path stroke="#f9d68a" d="M564.47 443.44q-3.77-4.13-7.57-8.51c-5.52-6.37-10.17-11.04-15.96-15.27-16.93-12.37-44.07-11.63-60.15 1.9q-7.51 6.32-10.88 10.36-5.27 6.31-10.45 12.46" vector-effect="non-scaling-stroke"/><path stroke="#7c5f25" d="M459.46 444.38q-26.65-16.4-57.55-12.88-.98.11-.93.84a.4.39-88.2 0 0 .32.35q28.61 4.64 55.6 14.95" vector-effect="non-scaling-stroke"/><path stroke="#f9d68a" d="m456.9 447.64-8.97 9.53" vector-effect="non-scaling-stroke"/><path stroke="#7c5f25" d="M447.93 457.17q-16.2.79-32.36 6.42" vector-effect="non-scaling-stroke"/><path stroke="#f6c258" d="M415.57 463.59q-9.01-8.22-18.01-13.91c-20.43-12.92-45.59-12.92-66.31-.6-14.36 8.54-25.44 20.34-36.23 33.27" vector-effect="non-scaling-stroke"/><path stroke="#f9d68a" d="M295.02 482.35c-18.32-11.78-32.42-29.72-37.44-51.17q-2.56-10.94-2.23-21.67" vector-effect="non-scaling-stroke"/><path stroke="#f2c469" d="M255.35 409.51q1.91-4.46 5.7-8.19 18.52-18.25 40.74-27.05 6.64-2.63 23.85-5.9a2.86 1.87-27.1 0 0 .38-.1q6.36-2 9.49-1.57 6.7.92 19.77 3.17 4 .69 8.14-1.21" vector-effect="non-scaling-stroke"/><path stroke="#f1aa3e" d="M360.47 362.51c8.38-16.51 13.35-33.43 2.17-50.34" vector-effect="non-scaling-stroke"/><path stroke="#f2c469" d="M362.64 312.17q12.7-16.96 28.47-30.79 13.23-11.59 16.29-13.97 7.58-5.88 12.15-8.12 2.56-1.25 4.28-2.46c8.36-5.9 18.06-10.95 28.11-14.53q5.27-1.88 10.46-3.84 6.12-2.32 14.07-3.52 6.3-.96 10.18-3.95" vector-effect="non-scaling-stroke"/><path stroke="#7e6535" d="M415.57 463.59q-9.32 3.7-17.89 9.17a.41.4 20.8 0 0 .33.73q16.68-4.63 33.92-8.09 4.07-.81 9.33-1.45" vector-effect="non-scaling-stroke"/><path stroke="#f6deab" d="M796.81 488.28q-5.05 9.61-10.32 18.11-3 4.84-6.08 8.26-2.83 3.13-6.73 7.78c-9.21 10.96-20.54 19.43-33.42 26.97-29.82 17.47-64.61 23.85-99.26 19.81q-8.6-1-22.34-3.51-8.39-1.53-16.18-4.02-6.41-2.05-16.03-4.73-.11-.03-4.05-1.39-3.53-1.22-7.29-.97m-120.37-2.85q-8.03 2.11-15.81 4.75-9.06 3.08-13.7 4.1-7.42 1.64-13.77 3.7c-3.49 1.13-7.26 1.74-11.72 2.67q-6.15 1.29-20.11 2.48-12.47 1.07-20.27.84c-26.41-.77-53.78-7.94-76.83-21.84q-12.99-7.83-23.19-17.02-3.01-2.71-13.23-14.01-4.5-4.97-8.2-11.15-5.09-8.49-6.84-12.07-1.85-3.76-2.74-4.95" vector-effect="non-scaling-stroke"/><path stroke="#fbdc9a" d="M295.02 482.35c32.43 21.5 74.18 22.53 109.08 6.75q21.36-9.65 37.16-25.15" vector-effect="non-scaling-stroke"/><path stroke="#807967" d="m441.26 463.95 20.09-3.15a1.09 1.09 0 0 0 .42-2c-3.16-2-9.93-1.63-13.84-1.63m8.97-9.53 7.32 2.53a.69.68 74.6 0 0 .66-1.17l-5.42-4.62m105.01-.94q-1.96 1.69-4.5 3.78-.97.79-1.05 1.8a.61.61 0 0 0 .82.62l7.65-2.81m8.28 9.51-13.3 1.19a.94.94 0 0 0-.47 1.69q1.21.89 3.22 1.17 8.54 1.21 15.87 2.43" vector-effect="non-scaling-stroke"/><path stroke="#fbdc9a" d="M580.99 462.82q8.25 8.03 11.99 10.69 17.32 12.33 34.58 18.58 33.13 12 68.12 4.88c11.29-2.3 22.6-7.4 32.67-13.38" vector-effect="non-scaling-stroke"/><path stroke="#f1a468" d="M661.19 289.56q-1.28-.74-2.14-1.85" vector-effect="non-scaling-stroke"/><path stroke="#f6deab" d="M255.35 409.51c-.94-4.61-.73-10.07 2.58-13.5q.57-.6.63-1.15.09-.85-.55-1.13" vector-effect="non-scaling-stroke"/><path stroke="#efb25f" d="M362.64 312.17c-10.21 13.31-19.65 29.3-27.65 43.36" vector-effect="non-scaling-stroke"/><path stroke="#f6deab" d="m765.29 391.95 4.19 8.39a3 2.95 35.1 0 1 .3 1.64l-.57 5.56" vector-effect="non-scaling-stroke"/><path stroke="#7e6535" d="M580.99 462.82q23.59 3.82 45.27 9.69a.36.36 0 0 0 .28-.65q-12.65-7.91-26.29-11.59" vector-effect="non-scaling-stroke"/><path stroke="#f1a468" d="M663.4 287.52q3.73-3.78 6.19-8.24 12.28-22.28-.29-45.63" vector-effect="non-scaling-stroke"/><path stroke="#f1be93" d="m372.1 281.35-9 7.87" vector-effect="non-scaling-stroke"/><path stroke="#f1aa3e" d="m687.34 231.53-.06.89a.53.53 0 0 1-.53.5h-.69a.87.85-15.7 0 1-.73-.4q-1.79-2.78-6.36-5.3-5.92-3.26-9.44 2.35" vector-effect="non-scaling-stroke"/><path stroke="#f1a468" d="M350.85 244.1q-2.82 8.83-1.69 17.15 1.17 8.59 4.34 14.78 1.45 2.83 7.02 11.95" vector-effect="non-scaling-stroke"/><path stroke="#f4b672" d="M355.77 233.58c-.89 2.16-2.43 4.02-3.24 5.95q-.92 2.19-1.68 4.57" vector-effect="non-scaling-stroke"/><path stroke="#f1aa3e" d="M350.85 244.1q.63-8.04 1.82-15.9.59-3.97-2.74-6.56" vector-effect="non-scaling-stroke"/><path stroke="#f2c469" d="M682.99 225.62q-1.32.9-2.8-.4-1.96-1.74-2.32-1.97-4.03-2.55-5.27-2.91c-18.1-5.24-36.05-1.85-49.76 10.71q-5.74 5.26-10.39 11.64m-200.65.28c-1.89-4.13-5.43-7.13-8.43-10.5-8.26-9.27-19.68-13.09-31.63-14.46q-11.49-1.32-21.81 3.63" vector-effect="non-scaling-stroke"/><path stroke="#efb25f" d="M349.93 221.64q-4.9 2.4-7.98 6.38a1.05 1.04-51.8 0 1-1.47.18q-.19-.15-.04-.76" vector-effect="non-scaling-stroke"/><path stroke="#7d2017" d="M446.04 601.56q17.12 6.65 35.13 11.39 3.41.9 7.21 3.18c3.41 2.05 4.95 5.08 5.64 8.79a4.63 4.6 21.3 0 0 .86 1.94c3.64 4.83 6.08 9.1 2.1 14.89q-1.26 1.82-1.96 3.1a3.46 3.36-27.9 0 0-.4 1.23c-.89 8.1-9.34 13.27-16.56 15.05a.57.57 0 0 0-.25.97c7.35 6.89 14.46 11.35 24.32 17.25q4.91 2.94 8.86 4.38a3.69 3.67-45.1 0 0 2.56-.01q4.19-1.58 9-4.41c7.93-4.67 17.93-10.73 25.02-17.88a.35.35 0 0 0-.16-.59c-7.85-2.08-15.16-6.5-16.87-15.03a4.72 4.6 25 0 0-.53-1.4q-.75-1.33-1.76-2.83c-2.89-4.26-2.53-9.3.84-13.24q1.64-1.92 1.99-2.62a2.79 2.76-29.2 0 0 .28-.97c1.03-10.24 12.48-12.29 20.75-14.48q4.66-1.23 9.2-2.8 6.51-2.25 20.94-6.99a1.97 1.97 0 0 0 1.31-1.45q1.62-7.43-.22-14.63-2.12-8.34-8.92-16.17" vector-effect="non-scaling-stroke"/><path stroke="#7b594f" d="M574.42 568.23q-9.59-9.34-23.67-9.72c-14.01-.37-26.77 8.69-33.71 20.44" vector-effect="non-scaling-stroke"/><path stroke="#7d2017" d="M517.04 578.95q-1.03 1.22-2.13 2.76-1.17 1.63-2.02 1.89-1.31.4-2.33-1.18-4.22-6.47-6.04-8.88" vector-effect="non-scaling-stroke"/><path stroke="#7b594f" d="M504.52 573.54q-5.55-7.44-15.23-12.07c-15.47-7.41-36.61-1.02-44.63 14.42q-5.46 10.52-3.38 22.59.43 2.45 4.76 3.08" vector-effect="non-scaling-stroke"/><path stroke="#f57764" d="M504.52 573.54q-3.28-1.3-6.16-4.25a3.74 3.59 79.2 0 0-1.07-.76q-5.61-2.68-9.78-3.08-2.86-.27-14.36.11c-10.1.33-22.24 9.66-25.51 19.12-1.88 5.42-1.63 11.27-1.6 16.88m128.38-33.33q-.17 1.18-.62.94c-11.97-6.51-25.21-6.27-37.72-2.4a8.39 8.25-69.8 0 0-2.14 1.01l-16.9 11.17" vector-effect="non-scaling-stroke"/><path stroke="#796746" d="M252.13 588.85q-3.24 24.61-1.55 50.65.96 14.98 3.91 27.84" vector-effect="non-scaling-stroke"/><path stroke="#7c5f25" d="m254.49 667.34.24 2.21" vector-effect="non-scaling-stroke"/><path stroke="#794d1b" d="M254.73 669.55c8.38 38.7 29.37 73.48 60.75 97.73q15.22 11.76 29.39 18.53a.23.22-86.7 0 0 .31-.28q-4.76-13.99-6.43-28.59" vector-effect="non-scaling-stroke"/><path stroke="#7e6535" d="M338.75 756.94c-.74-8.76-.57-27.74 12.52-27.77a.89.88-75.9 0 0 .78-.47q1.79-3.35 2.38-4.01 4.84-5.39 12.09-3.29c1.28.36 2.95 1.76 4.15 2.5a1.31 1.28 51.2 0 0 1.09.13q7.9-2.69 13.36 3.84 2.52 3.03 6.09 7.5" vector-effect="non-scaling-stroke"/><path stroke="#807967" d="M391.21 735.37q6.25 12.48 10.63 27.02" vector-effect="non-scaling-stroke"/><path stroke="#7e6535" d="m401.84 762.39 3.19 14.2" vector-effect="non-scaling-stroke"/><path stroke="#794d1b" d="M405.03 776.59q2.03 9.93 1.92 19.87a.96.95 5.8 0 0 .78.95q17.21 3.28 33.97 3.96" vector-effect="non-scaling-stroke"/><path stroke="#796746" d="M441.7 801.37q2.79.37 5.58.44 28.06.74 56.11-.42 9.03-.38 18.2.04 28.79 1.31 57.14.29" vector-effect="non-scaling-stroke"/><path stroke="#794d1b" d="M578.73 801.72q10.81-.63 21.02-1.81 8.57-.99 17.16-2.66a.61.6-5.9 0 0 .49-.59q.02-11.04 2.49-22.13" vector-effect="non-scaling-stroke"/><path stroke="#796746" d="m619.89 774.53 2.72-13.27" vector-effect="non-scaling-stroke"/><path stroke="#807967" d="M622.61 761.26q4.17-14.62 11.74-28.1" vector-effect="non-scaling-stroke"/><path stroke="#7e6535" d="M634.35 733.16c5.04-6.71 9.66-12.25 18.2-9.44a1.5 1.5 0 0 0 1.05-.03q.49-.21 1.22-.74c4.26-3.11 9.52-2.74 13.77.32a1.68 1.64-89.3 0 1 .42.44l3.58 5.06a1.15 1.14 73 0 0 .89.48c12.36.41 12.98 17.58 12.48 26.39" vector-effect="non-scaling-stroke"/><path stroke="#794d1b" d="M685.96 755.64q-1.48 14.26-6.42 29.43a.27.26-4 0 0 .37.32q5.83-2.88 12.32-6.92 18.67-11.62 33.67-26.54 15.56-15.45 28.19-38.24c4.97-8.97 9.67-21.13 12.72-30.64q3.78-11.77 5.79-26.04" vector-effect="non-scaling-stroke"/><path stroke="#7c5f25" d="M772.6 657.01q5.1-33.97.33-68.3" vector-effect="non-scaling-stroke"/><path stroke="#794d1b" d="m772.93 588.71-3.35-19.7a.46.45 66.3 0 0-.73-.29q-42.48 33.06-97.14 29.12-26.89-1.94-51.57-11.01-4.73-1.74-14.91-6.47" vector-effect="non-scaling-stroke"/><path stroke="#796746" d="m605.23 580.36-14.41-8a.16.16 0 0 0-.22.2q4.67 10.35 4.71 21.48a.55.54 80 0 0 .72.51l7.67-2.62" vector-effect="non-scaling-stroke"/><path stroke="#7c5f25" d="M603.7 591.93q2.01-.71 3.24-.4a.73.72-59.2 0 1 .31 1.23l-4.22 3.95" vector-effect="non-scaling-stroke"/><path stroke="#7e6535" d="M603.03 596.71q-13.82 10.76-30.3 17.05" vector-effect="non-scaling-stroke"/><path stroke="gray" d="M572.73 613.76q-10.21 2.98-20.73 5.27-6.07 1.32-10.29 4.84a.72.72 0 0 0 .4 1.27c4.32.35 10.15 1.07 13.52 3.56a.78.78 0 0 1-.28 1.38q-5.67 1.36-13.19 1.82-3.34.21-6.02 1.65a1.67 1.67 0 0 0-.28 2.75q1.21 1.01 3.36 1.55 6.5 1.62 13.24 2.94 1.14.23 2.96 1.14a.75.75 0 0 1 .02 1.33c-4.08 2.2-9.38 1.98-14.49 1.83a.6.6 0 0 0-.59.78c1.1 3.47 6.25 5.6 9.33 6.37q10.4 2.59 21.1 3.89" vector-effect="non-scaling-stroke"/><path stroke="#7e6535" d="M570.79 656.13q12.43 2.03 24.97 3.27 10.93 1.07 21.72-.26c11.14-1.37 22.2-3.96 32.54-8.44" vector-effect="non-scaling-stroke"/><path stroke="#7c5f25" d="m650.02 650.7 6.93-2.76a.69.68 82.9 0 1 .93.73c-.32 2.42-4.88 6.44-6.77 8.09" vector-effect="non-scaling-stroke"/><path stroke="#7e6535" d="m651.11 656.76-1.86 1.51" vector-effect="non-scaling-stroke"/><path stroke="#794d1b" d="M649.25 658.27q-8.43 5.23-16.34 8.14" vector-effect="non-scaling-stroke"/><path stroke="#796746" d="M632.91 666.41c-23.8 7.49-48.08 3.94-71.55-2.24a1.18 1.17-61.1 0 0-1.16.34c-10.62 11.54-24.32 20.3-39.05 26.62-6.03 2.59-8.49 3.28-14.3 1.04q-24.42-9.42-42.03-27.39a1.76 1.76 0 0 0-1.76-.46c-23.51 6.85-48.72 9.39-72.26 1.98" vector-effect="non-scaling-stroke"/><path stroke="#794d1b" d="m390.8 666.3-16.5-8.18" vector-effect="non-scaling-stroke"/><path stroke="#7e6535" d="m374.3 658.12-4.54-4.31" vector-effect="non-scaling-stroke"/><path stroke="#7c5f25" d="m369.76 653.81-3.32-4.26a.83.83 0 0 1 .96-1.28l9.53 3.76" vector-effect="non-scaling-stroke"/><path stroke="#7e6535" d="M376.93 652.03q23.86 9.06 49.07 7.78 7.12-.36 25.05-3.11" vector-effect="non-scaling-stroke"/><path stroke="gray" d="M451.05 656.7q8.28-1.13 15.5-2.17c6.7-.96 14.09-2.76 18.36-8.06a.85.85 0 0 0-.67-1.38c-4.67.09-9.95.55-13.93-1.78a.73.72 46.6 0 1 .03-1.27c5.97-3.06 14.03-2.12 19.46-6.26a1.18 1.18 0 0 0 .02-1.86c-3.24-2.54-11.51-2.58-15.61-2.85q-2.18-.14-4.32-1.01a.88.87 44.4 0 1-.02-1.62q6.19-2.61 13.24-3.51a.69.69 0 0 0 .34-1.23q-3.45-2.74-8.31-3.81-12.07-2.66-23.78-5.97" vector-effect="non-scaling-stroke"/><path stroke="#7e6535" d="M451.36 613.92q-17.33-7.08-31.72-18.82-1.02-.83-2.81-3.34" vector-effect="non-scaling-stroke"/><path stroke="#796746" d="M416.83 591.76q2.29-.12 3.22.15 4.22 1.24 9.07 3.07a.41.41 0 0 0 .55-.4q-.57-11.39 4.56-21.67a.33.33 0 0 0-.46-.44l-11.98 6.55" vector-effect="non-scaling-stroke"/><path stroke="#794d1b" d="M421.79 579.02q-31.64 16.11-67.79 18.94c-35.07 2.74-70.46-6.8-97.5-29.18a.64.63-65.5 0 0-1.03.39l-3.34 19.68" vector-effect="non-scaling-stroke"/><path stroke="#efb25f" d="M421.79 579.02q.65 2.38-2.29 5.19" vector-effect="non-scaling-stroke"/><path stroke="#f3b04e" d="m419.5 584.21-3.66 2.19" vector-effect="non-scaling-stroke"/><path stroke="#f1aa3e" d="M415.84 586.4q-14.24 8.92-30.86 15.08c-39.84 14.78-84.79 14.24-122.72-6.26" vector-effect="non-scaling-stroke"/><path stroke="#efb25f" d="m262.26 595.22-10.13-6.37" vector-effect="non-scaling-stroke"/><path stroke="#fbe3b2" d="M451.36 613.92c-4.61 6.09-8.64 14.6-8.39 22.34q.13 3.97.29 5.26 1.12 9.37 7.79 15.18" vector-effect="non-scaling-stroke"/><path stroke="#f6c258" d="M376.93 652.03c9.39-.68 15.78-3.08 19.92-12.14s6.09-14.74 10.64-22.39q1.76-2.95 5.86-10.26c3.54-6.3 3.61-13.53 2.49-20.84" vector-effect="non-scaling-stroke"/><path stroke="#f4ca78" d="m416.83 591.76 2.67-7.55" vector-effect="non-scaling-stroke"/><path stroke="#f6c258" d="M369.76 653.81q-13.67 2.69-23.75 6.88c-21.39 8.91-31.14 27.32-37.73 48.44" vector-effect="non-scaling-stroke"/><path stroke="#7c5f25" d="M308.28 709.13c-1.36-3.68-7.32-12.57-11.81-8.2-1.24 1.21-1.11 3.28-.65 4.8q2.79 9.24 10.77 10.21" vector-effect="non-scaling-stroke"/><path stroke="#f6c258" d="M306.59 715.94q-.15 7.8-3.5 16.1" vector-effect="non-scaling-stroke"/><path stroke="#f1aa3e" d="M303.09 732.04c-3.96-3.48-8.5-7.33-11.69-10.95-4.11-4.64-7.46-7.73-10.87-12.2-5.17-6.78-9.54-13.42-14.97-21.69q-1.84-2.8-3.81-7c-1.88-3.97-3.56-8.14-7.02-10.65" vector-effect="non-scaling-stroke"/><path stroke="#f2c469" d="M254.49 667.34q1.05-2.72.83-5.64-2.66-33.82 6.94-66.48" vector-effect="non-scaling-stroke"/><path stroke="#f3b04e" d="M374.3 658.12q4.31 9.21 12.71 15.36.53.39 1.74.78" vector-effect="non-scaling-stroke"/><path stroke="#f4ca78" d="m388.75 674.26.07 1.79" vector-effect="non-scaling-stroke"/><path stroke="#fbdc9a" d="M388.82 676.05q-1.98 8.15-2.17 14.2-.68 20.96 4.56 45.12" vector-effect="non-scaling-stroke"/><path stroke="#f3b04e" d="M338.75 756.94q-.4.21-.74.26a.69.69 0 0 1-.77-.53q-.27-1.23-.95-1.65-6.91-4.3-18.31-10.98-5.6-3.28-14.89-12" vector-effect="non-scaling-stroke"/><path stroke="#7e6535" d="M306.59 715.94q3.35-2.64 1.69-6.81" vector-effect="non-scaling-stroke"/><path stroke="#f6deab" d="M622.61 761.26q-1.91 1.27-3.15 3.35-2.05 3.42-2.43 3.89-3.89 4.79-6.24 7.22a2.41 2.34-74.8 0 1-1.06.63q-3.74 1-5.22 1.26-34.27 6.04-70.01 4.49-20.21-.88-27-.55-17.91.86-39.5.62-27.03-.29-52.85-5.59a1.95 1.92-20.1 0 1-.81-.37l-1.72-1.27" vector-effect="non-scaling-stroke"/><path stroke="#fbdc9a" d="M412.62 774.94q-5.18-5.28-8.87-11.72a1.15 1.14-7.6 0 0-.71-.54l-1.2-.29" vector-effect="non-scaling-stroke"/><path stroke="#efb25f" d="M390.8 666.3q.26 3.95-2.05 7.96" vector-effect="non-scaling-stroke"/><path stroke="#f6deab" d="M635 675.05q-10.32 4.64-15.71 6.5-9.7 3.36-23.03 3.47-15.73.13-31.81-3.94-3.8-.96-6.9 1.44-8.49 6.57-9.31 7.21-12.45 9.76-25.75 14.99c-8.73 3.44-16.7 1.69-24.95-2.26q-16.73-8.01-29.62-19.89-2.69-2.48-6.45-1.44-21.68 6.02-44.65 3.21c-9.82-1.2-17.47-4.7-26.79-8.92q-.87-.39-1.21.63" vector-effect="non-scaling-stroke"/><path stroke="#f3b04e" d="M414.19 777.7q-4.21-1.56-9.16-1.11" vector-effect="non-scaling-stroke"/><path stroke="#efb25f" d="M619.89 774.53q-3.91 2.17-8.08 2.77a2.2 2.17 19.6 0 0-1.09.51q-7.2 6.32-8.98 8.18-9.18 9.65-18.68 14.07-.22.1-.38.51a.42.42 0 0 1-.43.26q-2.36-.22-3.52.89m-137.03-.35q-2.78-2.32-6.16-3.97a7.5 7.26 76.2 0 1-1.21-.76c-4.76-3.74-8.73-6.91-13.28-11.87q-3.32-3.62-6.86-7.07" vector-effect="non-scaling-stroke"/><path stroke="#f4ca78" d="m414.19 777.7-1.57-2.76" vector-effect="non-scaling-stroke"/><path stroke="#7e6535" d="M723.51 700.07q-5.52 3.51-7.45 9.96c-1.32 4.38 2.5 7.56 6.23 4.79q6.55-4.86 6.94-12.39" vector-effect="non-scaling-stroke"/><path stroke="#f3b04e" d="M724.6 729.18q-11.07 10.21-20.02 16.17-6.55 4.35-18.62 10.29" vector-effect="non-scaling-stroke"/><path stroke="#fbdc9a" d="M634.35 733.16q.96-9.59 1.98-18.91 1.28-11.65 1.22-17.55-.1-8.79-1.53-17.52-.31-1.91-1.02-4.13" vector-effect="non-scaling-stroke"/><path stroke="#f4ca78" d="m635 675.05.28-1.28" vector-effect="non-scaling-stroke"/><path stroke="#f3b04e" d="M635.28 673.77q1.17.28 2.71-1.04 3.3-2.86 4.75-4.97a4.37 4.16 88.6 0 1 .77-.85q4.31-3.59 5.74-8.64" vector-effect="non-scaling-stroke"/><path stroke="#efb25f" d="m635.28 673.77-2.37-7.36" vector-effect="non-scaling-stroke"/><path stroke="#f1aa3e" d="M772.6 657.01c-1.69 4.83-2.74 9.75-4.85 14.26q-3.29 7.03-4.67 9.33-7.64 12.76-16.36 24.86-8.11 11.23-22.12 23.72" vector-effect="non-scaling-stroke"/><path stroke="#f6c258" d="M724.6 729.18q-2.29-11.36 5.23-20.69a1.6 1.6 0 0 0 .35-.87q.22-2.85-.95-5.19" vector-effect="non-scaling-stroke"/><path stroke="#7c5f25" d="M729.23 702.43q-1.95-4.01-5.72-2.36" vector-effect="non-scaling-stroke"/><path stroke="#f6c258" d="M723.51 700.07q-10.77-12.99-18.32-20.42c-14.81-14.58-34.85-19.3-54.08-22.89m-1.09-6.06q-16.28-4.57-24.48-18.78c-8.07-13.99-13.72-23.1-22.51-35.21" vector-effect="non-scaling-stroke"/><path stroke="#f2c469" d="m605.02 584.49-1.32 7.44" vector-effect="non-scaling-stroke"/><path stroke="#fbe3b2" d="m570.79 656.13 3.77-.26a1.18 1.14 16.3 0 0 .82-.43q2.95-3.62 4.49-9.12 4.19-14.92-3.69-27.7c-.9-1.46-2.43-3.08-3.45-4.86" vector-effect="non-scaling-stroke"/><path stroke="#f1aa3e" d="M772.93 588.71q-.81.4-2.78 2.19-.54.5-3.41 2.1c-16.86 9.45-36.64 16.07-56.36 17.85q-34.72 3.14-67.09-7.76c-7.94-2.68-17.81-7.42-25.32-10.82q-3.35-1.52-12.95-7.78" vector-effect="non-scaling-stroke"/><path stroke="#efb25f" d="m605.02 584.49.21-4.13" vector-effect="non-scaling-stroke"/><path stroke="#796746" d="M362.73 798.13c4.49 7.76 16.72 21.08 26.98 13.84 6.6-4.66 7.8-12.96 7.08-20.58" vector-effect="non-scaling-stroke"/><path stroke="#807967" d="M396.79 791.39q-.15-2.99-.61-6.13-2.97-20.05-10.06-37.39c-2.01-4.91-4.76-11.18-8.71-14.48a1.07 1.07 0 0 0-1.76.82v13.75a.82.82 0 0 1-1.39.6c-3-2.86-5.32-9.22-7.13-13.18q-1.36-2.99-3.14-4.54a2.08 2.08 0 0 0-3.22.62q-1.35 2.65-1.06 6.06c.56 6.54 1.42 11.38.72 14.04a.99.99 0 0 1-1.65.45c-2.35-2.32-4.2-6.73-7.37-12.86a1.36 1.36 0 0 0-2.52.27q-1.36 4.97-1.11 9.82c.84 16.33 5.89 34.73 14.95 48.89" vector-effect="non-scaling-stroke"/><path stroke="#f6deab" d="M396.79 791.39q-1.04.96-4.17 4.98c-4.06 5.2-10.64 7.12-17.24 5.48-4.33-1.08-7.35-1.63-10.53-4.24a.82.82 0 0 0-.89-.1l-1.23.62" vector-effect="non-scaling-stroke"/><path stroke="#796746" d="M627.51 792.21q-.14 3.8.65 8.92c1.7 11.04 11.91 17.29 21.7 9.69q7.02-5.45 10.8-11.54" vector-effect="non-scaling-stroke"/><path stroke="#807967" d="M660.66 799.28q14.83-23 16.09-50.27.25-5.41-.94-9.49a1.45 1.44 50.1 0 0-2.68-.24c-2.05 4.13-4.34 9.67-7.64 12.55a1.06 1.06 0 0 1-1.75-.81q.08-5.14.83-13.25.32-3.41-.81-6.03a2.25 1.95 64.3 0 0-2.86-1.24q-1.83 1-2.91 3.28c-2.26 4.8-4.32 11.07-8.08 14.89a.69.69 0 0 1-1.16-.33c-1.08-4.78.04-10.11-.3-14.87a.87.86-19.2 0 0-1.35-.65c-3.49 2.37-6.47 9.13-8.07 12.97-6 14.46-10.96 30.76-11.52 46.42" vector-effect="non-scaling-stroke"/><path stroke="#f6deab" d="M660.66 799.28q-1.27-.45-2.42-.43a1.7 1.53 29.7 0 0-.69.15c-6.63 2.99-15.16 5.29-21.52 1.7q-1.48-.83-4.31-4.16-1.98-2.32-4.21-4.33" vector-effect="non-scaling-stroke"/><path stroke="#f2c469" d="M472.929 247.123a8.41 6.19-23.9 0 0-10.197-2.252 8.41 6.19-23.9 0 0-5.18 9.066 8.41 6.19-23.9 0 0 10.196 2.252 8.41 6.19-23.9 0 0 5.18-9.066m-25.816 11.48a16.33 9.26-33.6 0 0-18.726 1.324 16.33 9.26-33.6 0 0-8.478 16.75 16.33 9.26-33.6 0 0 18.726-1.324 16.33 9.26-33.6 0 0 8.478-16.75" vector-effect="non-scaling-stroke"/><path stroke="#7c5f25" d="M454.745 315.244a11.2 7.41-138.4 0 0 3.455 12.977 11.2 7.41-138.4 0 0 13.295 1.895 11.2 7.41-138.4 0 0-3.455-12.977 11.2 7.41-138.4 0 0-13.295-1.895m115.458-.142a11.11 7.55-42.1 0 0-13.305 1.846 11.11 7.55-42.1 0 0-3.181 13.05 11.11 7.55-42.1 0 0 13.305-1.846 11.11 7.55-42.1 0 0 3.181-13.05m8.433 27.476a33.51 27.8-94.8 0 0-24.899 35.718 33.51 27.8-94.8 0 0 30.507 31.067 33.51 27.8-94.8 0 0 24.899-35.72 33.51 27.8-94.8 0 0-30.507-31.065m-132.446.351a33.49 27.74-85.6 0 0-30.228 31.263 33.49 27.74-85.6 0 0 25.089 35.52 33.49 27.74-85.6 0 0 30.227-31.264 33.49 27.74-85.6 0 0-25.089-35.52" vector-effect="non-scaling-stroke"/><path stroke="#f9d68a" d="M701.354 386.517a16.08 6.94-16.3 0 0-17.382-2.148 16.08 6.94-16.3 0 0-13.486 11.174 16.08 6.94-16.3 0 0 17.382 2.148 16.08 6.94-16.3 0 0 13.486-11.174m-378.013.528a15.97 6.95-164.1 0 0 13.455 11.06 15.97 6.95-164.1 0 0 17.263-2.31 15.97 6.95-164.1 0 0-13.455-11.06 15.97 6.95-164.1 0 0-17.263 2.31" vector-effect="non-scaling-stroke"/><path stroke="gray" d="M571.586 354.541a10.4 9.12-95.1 0 0-8.16 11.17 10.4 9.12-95.1 0 0 10.008 9.548 10.4 9.12-95.1 0 0 8.16-11.17 10.4 9.12-95.1 0 0-10.009-9.548m-118.33.521a10.39 9.05-85.5 0 0-9.837 9.648 10.39 9.05-85.5 0 0 8.207 11.068 10.39 9.05-85.5 0 0 9.837-9.648 10.39 9.05-85.5 0 0-8.207-11.068" vector-effect="non-scaling-stroke"/><path stroke="#807967" d="M491.5 432.63q-1.05-.33-1.43.48c-.67 1.4-.41 3.45.27 4.97 3.26 7.26 9.5 11.64 16.72 14.86a.82.81-78.6 0 1 .49.75q-.03 9.64-.17 13.88c-.3 9.29-14.29 13.24-19.87 5.94-1.79-2.36-2.62-5.31-6.35-3.75q-1.17.49-1.44 1.85c-.89 4.51 2.62 9.34 6.1 11.82 8.57 6.11 18.61 3.79 26.19-3.02a.6.6 0 0 1 .81 0c6.66 5.88 15.93 8.9 24.14 4.43q5.68-3.1 7.81-8.96.95-2.61.35-4.15c-1.12-2.89-5.03-2.66-6.41-.36q-5.2 8.64-14.23 5.25-4.62-1.74-6.95-6.21a3.36 3.22-60.6 0 1-.37-1.44l-.36-15.18a.84.83 77.9 0 1 .5-.78c7.54-3.24 16.97-9.06 17.65-18.25q.11-1.51-1.45-2.88" vector-effect="non-scaling-stroke"/><path stroke="#f8d0b4" d="M533.5 431.88q-.68-2.18-3.57-3.84c-7.46-4.28-19.15-4.08-27.13-2.22q-6.07 1.42-10.69 5.17a1.41 1.38-15.9 0 0-.49.86l-.12.78" vector-effect="non-scaling-stroke"/><path stroke="#7b594f" d="M533.5 431.88q-6.5 7.72-15.25 12.17-5.76 2.92-11.47-.03c-5.98-3.09-9.7-6.38-15.28-11.39" vector-effect="non-scaling-stroke"/><path stroke="#f8d7cd" d="M497.81 431.505a5.37 3.34-179.2 0 0 5.323 3.415 5.37 3.34-179.2 0 0 5.417-3.265 5.37 3.34-179.2 0 0-5.323-3.415 5.37 3.34-179.2 0 0-5.416 3.265" vector-effect="non-scaling-stroke"/><path stroke="#f57764" d="M458.32 575.7q-4.61 3.99-4.66 10.81-.02 2.53 1.94 3.64c3.35 1.89 8.32-2.92 10.83-5.09 2.5-2.16 7.98-6.4 6.58-9.99q-.81-2.09-3.32-2.44-6.75-.93-11.37 3.07m25.2 1.12a3.36 3.36 0 0 0-3.36-3.36 3.36 3.36 0 0 0-3.36 3.36 3.36 3.36 0 0 0 3.36 3.36 3.36 3.36 0 0 0 3.36-3.36" vector-effect="non-scaling-stroke"/><path stroke="#7c5f25" d="M749.33 638.672a10.1 5.02-79.1 0 0-6.84 8.969 10.1 5.02-79.1 0 0 3.02 10.867 10.1 5.02-79.1 0 0 6.84-8.969 10.1 5.02-79.1 0 0-3.02-10.867m-8.811 31.731a9.64 4.94-69.8 0 0-7.965 7.341 9.64 4.94-69.8 0 0 1.307 10.753 9.64 4.94-69.8 0 0 7.965-7.341 9.64 4.94-69.8 0 0-1.307-10.753M275.644 638.63a10.12 4.92-100.8 0 0-2.937 10.862 10.12 4.92-100.8 0 0 6.73 9.019 10.12 4.92-100.8 0 0 2.936-10.863 10.12 4.92-100.8 0 0-6.73-9.019" vector-effect="non-scaling-stroke"/><path stroke="#7c5f25" d="M284.143 670.41a9.61 4.95-110.7 0 0-1.233 10.74 9.61 4.95-110.7 0 0 8.027 7.24 9.61 4.95-110.7 0 0 1.233-10.74 9.61 4.95-110.7 0 0-8.027-7.24" vector-effect="non-scaling-stroke"/></g><path fill="#fdfdfd" d="M517.15 199.97q-8.69-6.62-15.93-8.07c-7.72-1.55-13.89.47-13.53 9.75a.72.71-87 0 1-.82.74c-4.7-.7-11.91-.95-15.3 2.47-4.18 4.21-2.16 11.16 2.08 14.61a.35.35 0 0 1-.17.62c-15.29 2.25-30.88 7.64-45.24 13.7a.97.97 0 0 1-1.24-.44c-11.13-21.17-30.16-37.1-54.79-35.94q-14.35.67-26.68 8.37c-35.48 22.12-39.24 72.94-7.71 100.73a.39.38-51.4 0 1 .05.52q-16.85 21.74-30.7 46.67a1.16 1.14 9.6 0 1-.83.58q-25.36 3.99-45.09 18.87c-23.78 17.93-39.25 47.62-44.54 77.09-7 39.01 1 77.53 27.88 107.24a1.11 1.1 30.6 0 1 .26.99c-10.04 43.86-11.52 90.63 2.75 133.66 10.86 32.74 30.46 61.58 57.76 83.32q21.68 17.27 44.52 26.9 4.07 1.72 4.73 2.03a2.86 2.83 84.9 0 1 1.1.93q3.96 5.66 6.87 8.63c12.56 12.81 32.49 15.79 41.48-3.12a1.22 1.21-72 0 1 1.3-.67c33.06 5.71 68.08 6 100.14 4.02q3.86-.24 9.75-.07c36.25 1.02 69.79 2.29 104.16-4.06a.84.84 0 0 1 .9.43c1.5 2.9 3.51 6.24 5.82 8.3 13.52 12.09 31.61 2.53 40.22-10.43q1.2-1.8 2.87-3.63a2.96 2.94-79.9 0 1 1.04-.73q28.19-11.88 48.94-28.51 50.03-40.11 63.75-103.51c8.17-37.73 6.35-75.91-2.91-113.44a.88.86 60.2 0 1 .21-.8c23.08-24.96 32.59-57.09 30.34-91.08q-2.41-36.42-21.84-66.32-24.67-37.95-69.09-46.18a3.19 3.18 79.6 0 1-2.14-1.48q-14.94-24.82-30.64-45.76a.64.63-43 0 1 .03-.8q.82-.91 2.54-2.63c14.83-14.85 21.62-34.54 18.24-55.12-2.8-17.05-12.85-32.69-27.27-42.03-17.5-11.34-39.79-12.06-57.8-.87-10.92 6.79-18.81 16.67-25.02 28a.8.8 0 0 1-1.03.35q-21.77-9.28-45.08-13.94a3.4 3.4 0 0 1-2.25-1.57q-6.62-10.86-11-17.26-3.08-4.49-5.66-6.37c-4.45-3.24-10.37-1.46-13.25 2.95q-.64.98-1.41 2.22a.53.53 0 0 1-.77.14"/><path fill="#030202" d="M517.92 199.83q.77-1.24 1.41-2.22c2.88-4.41 8.8-6.19 13.25-2.95q2.58 1.88 5.66 6.37 4.38 6.4 11 17.26a3.4 3.4 0 0 0 2.25 1.57q23.31 4.66 45.08 13.94a.8.8 0 0 0 1.03-.35c6.21-11.33 14.1-21.21 25.02-28 18.01-11.19 40.3-10.47 57.8.87 14.42 9.34 24.47 24.98 27.27 42.03 3.38 20.58-3.41 40.27-18.24 55.12q-1.72 1.72-2.54 2.63a.64.63-43 0 0-.03.8q15.7 20.94 30.64 45.76a3.19 3.18 79.6 0 0 2.14 1.48q44.42 8.23 69.09 46.18 19.43 29.9 21.84 66.32c2.25 33.99-7.26 66.12-30.34 91.08a.88.86 60.2 0 0-.21.8c9.26 37.53 11.08 75.71 2.91 113.44q-13.72 63.4-63.75 103.51-20.75 16.63-48.94 28.51a2.96 2.94-79.9 0 0-1.04.73q-1.67 1.83-2.87 3.63c-8.61 12.96-26.7 22.52-40.22 10.43-2.31-2.06-4.32-5.4-5.82-8.3a.84.84 0 0 0-.9-.43c-34.37 6.35-67.91 5.08-104.16 4.06q-5.89-.17-9.75.07c-32.06 1.98-67.08 1.69-100.14-4.02a1.22 1.21-72 0 0-1.3.67c-8.99 18.91-28.92 15.93-41.48 3.12q-2.91-2.97-6.87-8.63a2.86 2.83 84.9 0 0-1.1-.93q-.66-.31-4.73-2.03-22.84-9.63-44.52-26.9c-27.3-21.74-46.9-50.58-57.76-83.32-14.27-43.03-12.79-89.8-2.75-133.66a1.11 1.1 30.6 0 0-.26-.99c-26.88-29.71-34.88-68.23-27.88-107.24 5.29-29.47 20.76-59.16 44.54-77.09q19.73-14.88 45.09-18.87a1.16 1.14 9.6 0 0 .83-.58q13.85-24.93 30.7-46.67a.39.38-51.4 0 0-.05-.52c-31.53-27.79-27.77-78.61 7.71-100.73q12.33-7.7 26.68-8.37c24.63-1.16 43.66 14.77 54.79 35.94a.97.97 0 0 0 1.24.44c14.36-6.06 29.95-11.45 45.24-13.7a.35.35 0 0 0 .17-.62c-4.24-3.45-6.26-10.4-2.08-14.61 3.39-3.42 10.6-3.17 15.3-2.47a.72.71-87 0 0 .82-.74c-.36-9.28 5.81-11.3 13.53-9.75q7.24 1.45 15.93 8.07a.53.53 0 0 0 .77-.14m-31.27 31.16q-9.52 1.46-14.89 2.5c-21.51 4.19-42.55 12.64-61.52 23.47q-12.77 7.3-29.85 19.94-3.13 2.32-8.29 4.45-1.57-.83-.85-2.1c4.58-8.12 11.57-15.33 19.15-21.5a.88.88 0 0 0 .29-.96q-5.02-15.66-16.91-23.32-8.7-5.6-18.01.11-1.38.22-1.92-.81-.23-.42-.01-.81 3.14-5.54 9.12-7.46c13.04-4.18 26.61 7.53 32.99 18.09q3.08 5.11 4.14 7.19a.46.45 60.1 0 0 .65.18l11.06-6.99 3.82-1.95a.73.72 64.6 0 0 .33-.94c-9.81-21.69-32.79-36.89-56.83-26.75q-11.07 4.67-18.68 14.11-10.29 13.41-11.05 29.15c-.77 15.82 5.79 30.6 17.81 40.92a.93.92-47.5 0 0 1.27-.06q5.64-5.82 12.05-9.47 1.45-.62 1.98.02.29.35.6 1.22c-.03 5.42-6.64 14.16-10.25 18.89q-16.8 22.02-31.2 46.12a.17.17 0 0 0 .13.26l13.21 1.04q13.21 2.13 25.48 6.98 3.71 1.62 6.36 4.03a1.03 1.03 0 0 1-.57 1.79l-2.84.33q-4.08-.28-14.23-2.11-4.05-.73-13.44-1.36c-28.93-1.94-58.1 7.38-77.74 28.54-23.31 25.47-33.03 61.6-29.68 95.51 2.15 22.89 12.32 46.94 29.1 63.31 18.34 17.9 41.03 28.71 66.37 32.86q17.83 2.91 38.95.59 33.14-3.64 64.19-19.32 16.77-8.47 27.8-14.94 8.86-2.69 13.74-3.33c17.16-2.25 33.44 4.37 43.65 18.37a.43.42-43.9 0 0 .68.01c11.04-14.21 27-21.01 44.72-18.25q9.37 1.46 17.58 6.05 6.52 4.02 19.18 10.61 39.52 20.55 82.19 21.74c43.36 1.2 86.23-18.59 107.9-57.07q10.67-18.95 12.43-41.59 1.85-13.83-.25-29.04c-3.51-25.36-13.13-48.7-31.27-67.29q-9.48-10.42-23.36-17.12-27.82-13.41-58.93-9.19-8.03.78-16.49 2.39c-2.21.42-6.25.89-7.71.21q-2.01-.94-.67-2.28 3.21-2.56 7.4-4.2 17.81-7 36.95-7.72a.33.33 0 0 0 .27-.49q-9.62-16.58-21.19-32.24-11.27-15.25-14.07-19.41c-2.77-4.11-5.65-7.91-6.3-12.34q.21-2.19 2.21-2.04 7.15 3.64 12.48 9.64a.98.97 48.5 0 0 1.38.09q18.64-16.28 18.15-40.71-.25-12.77-8.07-25.01l-4.35-5.91c-11.08-12.31-26.37-18.11-42.49-14.13-13.95 3.46-25.81 15.33-31.75 28.46a.64.64 0 0 0 .27.83l3.43 1.91 11.78 7.57a.52.52 0 0 0 .77-.25c4.21-11.15 12.85-21.58 24.43-25.32q11.64-3.76 20.1 4.88 1.36 1.61 1.59 2.31.53 1.62-1.82 1.77-6.78-5.01-14.73-1.85c-10.12 4.02-16.88 15.01-20.84 25.17a.6.59-59.1 0 0 .16.66q6.28 5.47 12.21 11.77 5.76 6.11 7.39 11.48-2.32.06-3.72-1.06c-5.81-2.84-11.37-7.36-16.29-10.9-15.46-11.14-32.38-19.8-50.42-26.96-9.82-3.9-19.24-6.29-29.88-8.87q-7.14-1.73-11.59-6.69c-5.77-6.41-9.69-13.88-13.51-21.59a.53.53 0 0 0-.95.01q-1.79 3.69-1.82 7.98-.25 2.76-.76 5.68a1.94 1.9-79.9 0 1-2.22 1.58q-.93-.17-2.09-1.31c-6.1-5.96-11.89-12.13-19.71-15.74a.29.28 87.5 0 0-.36.4q2.37 4.35 4.58 8.86 2.02 4.14 1.6 8.73a1.31 1.31 0 0 1-1.69 1.14q-1.37-.43-2.91-1.41-2.6-1.66-8.14-4.8c-3.37-1.91-7.11-2.63-10.74-3.2a.25.25 0 0 0-.2.44c3.62 2.95 8.76 7.37 8.64 11.81q-.11 3.67-4.66 6.01m-40.61 370.57q17.12 6.65 35.13 11.39 3.41.9 7.21 3.18c3.41 2.05 4.95 5.08 5.64 8.79a4.63 4.6 21.3 0 0 .86 1.94c3.64 4.83 6.08 9.1 2.1 14.89q-1.26 1.82-1.96 3.1a3.46 3.36-27.9 0 0-.4 1.23c-.89 8.1-9.34 13.27-16.56 15.05a.57.57 0 0 0-.25.97c7.35 6.89 14.46 11.35 24.32 17.25q4.91 2.94 8.86 4.38a3.69 3.67-45.1 0 0 2.56-.01q4.19-1.58 9-4.41c7.93-4.67 17.93-10.73 25.02-17.88a.35.35 0 0 0-.16-.59c-7.85-2.08-15.16-6.5-16.87-15.03a4.72 4.6 25 0 0-.53-1.4q-.75-1.33-1.76-2.83c-2.89-4.26-2.53-9.3.84-13.24q1.64-1.92 1.99-2.62a2.79 2.76-29.2 0 0 .28-.97c1.03-10.24 12.48-12.29 20.75-14.48q4.66-1.23 9.2-2.8 6.51-2.25 20.94-6.99a1.97 1.97 0 0 0 1.31-1.45q1.62-7.43-.22-14.63-2.12-8.34-8.92-16.17-9.59-9.34-23.67-9.72c-14.01-.37-26.77 8.69-33.71 20.44q-1.03 1.22-2.13 2.76-1.17 1.63-2.02 1.89-1.31.4-2.33-1.18-4.22-6.47-6.04-8.88-5.55-7.44-15.23-12.07c-15.47-7.41-36.61-1.02-44.63 14.42q-5.46 10.52-3.38 22.59.43 2.45 4.76 3.08m-193.91-12.71q-3.24 24.61-1.55 50.65.96 14.98 3.91 27.84l.24 2.21c8.38 38.7 29.37 73.48 60.75 97.73q15.22 11.76 29.39 18.53a.23.22-86.7 0 0 .31-.28q-4.76-13.99-6.43-28.59c-.74-8.76-.57-27.74 12.52-27.77a.89.88-75.9 0 0 .78-.47q1.79-3.35 2.38-4.01 4.84-5.39 12.09-3.29c1.28.36 2.95 1.76 4.15 2.5a1.31 1.28 51.2 0 0 1.09.13q7.9-2.69 13.36 3.84 2.52 3.03 6.09 7.5 6.25 12.48 10.63 27.02l3.19 14.2q2.03 9.93 1.92 19.87a.96.95 5.8 0 0 .78.95q17.21 3.28 33.97 3.96 2.79.37 5.58.44 28.06.74 56.11-.42 9.03-.38 18.2.04 28.79 1.31 57.14.29 10.81-.63 21.02-1.81 8.57-.99 17.16-2.66a.61.6-5.9 0 0 .49-.59q.02-11.04 2.49-22.13l2.72-13.27q4.17-14.62 11.74-28.1c5.04-6.71 9.66-12.25 18.2-9.44a1.5 1.5 0 0 0 1.05-.03q.49-.21 1.22-.74c4.26-3.11 9.52-2.74 13.77.32a1.68 1.64-89.3 0 1 .42.44l3.58 5.06a1.15 1.14 73 0 0 .89.48c12.36.41 12.98 17.58 12.48 26.39q-1.48 14.26-6.42 29.43a.27.26-4 0 0 .37.32q5.83-2.88 12.32-6.92 18.67-11.62 33.67-26.54 15.56-15.45 28.19-38.24c4.97-8.97 9.67-21.13 12.72-30.64q3.78-11.77 5.79-26.04 5.1-33.97.33-68.3l-3.35-19.7a.46.45 66.3 0 0-.73-.29q-42.48 33.06-97.14 29.12-26.89-1.94-51.57-11.01-4.73-1.74-14.91-6.47l-14.41-8a.16.16 0 0 0-.22.2q4.67 10.35 4.71 21.48a.55.54 80 0 0 .72.51l7.67-2.62q2.01-.71 3.24-.4a.73.72-59.2 0 1 .31 1.23l-4.22 3.95q-13.82 10.76-30.3 17.05-10.21 2.98-20.73 5.27-6.07 1.32-10.29 4.84a.72.72 0 0 0 .4 1.27c4.32.35 10.15 1.07 13.52 3.56a.78.78 0 0 1-.28 1.38q-5.67 1.36-13.19 1.82-3.34.21-6.02 1.65a1.67 1.67 0 0 0-.28 2.75q1.21 1.01 3.36 1.55 6.5 1.62 13.24 2.94 1.14.23 2.96 1.14a.75.75 0 0 1 .02 1.33c-4.08 2.2-9.38 1.98-14.49 1.83a.6.6 0 0 0-.59.78c1.1 3.47 6.25 5.6 9.33 6.37q10.4 2.59 21.1 3.89 12.43 2.03 24.97 3.27 10.93 1.07 21.72-.26c11.14-1.37 22.2-3.96 32.54-8.44l6.93-2.76a.69.68 82.9 0 1 .93.73c-.32 2.42-4.88 6.44-6.77 8.09l-1.86 1.51q-8.43 5.23-16.34 8.14c-23.8 7.49-48.08 3.94-71.55-2.24a1.18 1.17-61.1 0 0-1.16.34c-10.62 11.54-24.32 20.3-39.05 26.62-6.03 2.59-8.49 3.28-14.3 1.04q-24.42-9.42-42.03-27.39a1.76 1.76 0 0 0-1.76-.46c-23.51 6.85-48.72 9.39-72.26 1.98l-16.5-8.18-4.54-4.31-3.32-4.26a.83.83 0 0 1 .96-1.28l9.53 3.76q23.86 9.06 49.07 7.78 7.12-.36 25.05-3.11 8.28-1.13 15.5-2.17c6.7-.96 14.09-2.76 18.36-8.06a.85.85 0 0 0-.67-1.38c-4.67.09-9.95.55-13.93-1.78a.73.72 46.6 0 1 .03-1.27c5.97-3.06 14.03-2.12 19.46-6.26a1.18 1.18 0 0 0 .02-1.86c-3.24-2.54-11.51-2.58-15.61-2.85q-2.18-.14-4.32-1.01a.88.87 44.4 0 1-.02-1.62q6.19-2.61 13.24-3.51a.69.69 0 0 0 .34-1.23q-3.45-2.74-8.31-3.81-12.07-2.66-23.78-5.97-17.33-7.08-31.72-18.82-1.02-.83-2.81-3.34 2.29-.12 3.22.15 4.22 1.24 9.07 3.07a.41.41 0 0 0 .55-.4q-.57-11.39 4.56-21.67a.33.33 0 0 0-.46-.44l-11.98 6.55q-31.64 16.11-67.79 18.94c-35.07 2.74-70.46-6.8-97.5-29.18a.64.63-65.5 0 0-1.03.39zm110.6 209.28c4.49 7.76 16.72 21.08 26.98 13.84 6.6-4.66 7.8-12.96 7.08-20.58q-.15-2.99-.61-6.13-2.97-20.05-10.06-37.39c-2.01-4.91-4.76-11.18-8.71-14.48a1.07 1.07 0 0 0-1.76.82v13.75a.82.82 0 0 1-1.39.6c-3-2.86-5.32-9.22-7.13-13.18q-1.36-2.99-3.14-4.54a2.08 2.08 0 0 0-3.22.62q-1.35 2.65-1.06 6.06c.56 6.54 1.42 11.38.72 14.04a.99.99 0 0 1-1.65.45c-2.35-2.32-4.2-6.73-7.37-12.86a1.36 1.36 0 0 0-2.52.27q-1.36 4.97-1.11 9.82c.84 16.33 5.89 34.73 14.95 48.89m264.78-5.92q-.14 3.8.65 8.92c1.7 11.04 11.91 17.29 21.7 9.69q7.02-5.45 10.8-11.54 14.83-23 16.09-50.27.25-5.41-.94-9.49a1.45 1.44 50.1 0 0-2.68-.24c-2.05 4.13-4.34 9.67-7.64 12.55a1.06 1.06 0 0 1-1.75-.81q.08-5.14.83-13.25.32-3.41-.81-6.03a2.25 1.95 64.3 0 0-2.86-1.24q-1.83 1-2.91 3.28c-2.26 4.8-4.32 11.07-8.08 14.89a.69.69 0 0 1-1.16-.33c-1.08-4.78.04-10.11-.3-14.87a.87.86-19.2 0 0-1.35-.65c-3.49 2.37-6.47 9.13-8.07 12.97-6 14.46-10.96 30.76-11.52 46.42"/><path fill="#f4bc48" d="M525.31 212.8q3.58 1.29 4.8 3.21c5.73 8.97 11.43 15.88 22.01 18.84 6.05 1.7 10.57 2.58 15.89 4.61q6.68 2.55 14.74 5.04c8.84 2.73 17.74 8.08 26.05 11.8 9.43 4.22 15.71 8.69 24.25 15.69q6.62 5.43 16.72 7.83 1.4 1.12 3.72 1.06.27 2.68 4.53 5.1.56.31 1.03 1.73l1.43 8.13a1.05 1.05 0 0 1-.22.84q-12.19 15.13-10.85 35.44 1.2 18.13 8.72 33.84-1.34 1.34.67 2.28c1.46.68 5.5.21 7.71-.21q8.46-1.61 16.49-2.39 5.1 1.28 10.82 1.24a10.84 10.56-38.3 0 1 2.21.23c11.12 2.37 20.86 4 30.76 8.33q17.88 7.81 34.51 23.02 5.4 4.93 7.91 9.08c.94 19.12-3.24 35.9-14.5 51.44q-10.72 14.8-26.36 24.61c-10.29-11.6-21.37-23.18-34.33-32.01-22.84-15.58-48.4-17.85-73.14-4.15q-10.6 5.86-20.63 12.84-12.7-3.33-24.58-3.93-5.66-4.3-8.28-9.51 27.21-10.41 55.53-14.88a.44.44 0 0 0 .29-.69l-.21-.31a.11.1-15 0 0-.09-.05q-31.16-3.77-58.44 12.54-3.77-4.13-7.57-8.51c-5.52-6.37-10.17-11.04-15.96-15.27-16.93-12.37-44.07-11.63-60.15 1.9q-7.51 6.32-10.88 10.36-5.27 6.31-10.45 12.46-26.65-16.4-57.55-12.88-.98.11-.93.84a.4.39-88.2 0 0 .32.35q28.61 4.64 55.6 14.95l-8.97 9.53q-16.2.79-32.36 6.42-9.01-8.22-18.01-13.91c-20.43-12.92-45.59-12.92-66.31-.6-14.36 8.54-25.44 20.34-36.23 33.27-18.32-11.78-32.42-29.72-37.44-51.17q-2.56-10.94-2.23-21.67 1.91-4.46 5.7-8.19 18.52-18.25 40.74-27.05 6.64-2.63 23.85-5.9a2.86 1.87-27.1 0 0 .38-.1q6.36-2 9.49-1.57 6.7.92 19.77 3.17 4 .69 8.14-1.21l2.84-.33a1.03 1.03 0 0 0 .57-1.79q-2.65-2.41-6.36-4.03c8.38-16.51 13.35-33.43 2.17-50.34q12.7-16.96 28.47-30.79 13.23-11.59 16.29-13.97 7.58-5.88 12.15-8.12 2.56-1.25 4.28-2.46c8.36-5.9 18.06-10.95 28.11-14.53q5.27-1.88 10.46-3.84 6.12-2.32 14.07-3.52 6.3-.96 10.18-3.95 4.55-2.34 4.66-6.01c.12-4.44-5.02-8.86-8.64-11.81a.25.25 0 0 1 .2-.44c3.63.57 7.37 1.29 10.74 3.2q5.54 3.14 8.14 4.8 1.54.98 2.91 1.41a1.31 1.31 0 0 0 1.69-1.14q.42-4.59-1.6-8.73-2.21-4.51-4.58-8.86a.29.28 87.5 0 1 .36-.4c7.82 3.61 13.61 9.78 19.71 15.74q1.16 1.14 2.09 1.31a1.94 1.9-79.9 0 0 2.22-1.58q.51-2.92.76-5.68m-52.381 34.323a8.41 6.19-23.9 0 0-10.197-2.252 8.41 6.19-23.9 0 0-5.18 9.066 8.41 6.19-23.9 0 0 10.196 2.252 8.41 6.19-23.9 0 0 5.18-9.066m-25.817 11.48a16.33 9.26-33.6 0 0-18.726 1.324 16.33 9.26-33.6 0 0-8.478 16.75 16.33 9.26-33.6 0 0 18.726-1.324 16.33 9.26-33.6 0 0 8.478-16.75m7.633 56.641a11.2 7.41-138.4 0 0 3.455 12.977 11.2 7.41-138.4 0 0 13.295 1.895 11.2 7.41-138.4 0 0-3.455-12.977 11.2 7.41-138.4 0 0-13.295-1.895m115.458-.142a11.11 7.55-42.1 0 0-13.305 1.846 11.11 7.55-42.1 0 0-3.181 13.05 11.11 7.55-42.1 0 0 13.305-1.846 11.11 7.55-42.1 0 0 3.181-13.05m8.433 27.476a33.51 27.8-94.8 0 0-24.899 35.718 33.51 27.8-94.8 0 0 30.507 31.067 33.51 27.8-94.8 0 0 24.899-35.72 33.51 27.8-94.8 0 0-30.507-31.065m-132.447.35a33.49 27.74-85.6 0 0-30.227 31.264 33.49 27.74-85.6 0 0 25.089 35.52 33.49 27.74-85.6 0 0 30.227-31.264 33.49 27.74-85.6 0 0-25.089-35.52m255.165 43.589a16.08 6.94-16.3 0 0-17.382-2.148 16.08 6.94-16.3 0 0-13.486 11.174 16.08 6.94-16.3 0 0 17.382 2.148 16.08 6.94-16.3 0 0 13.486-11.174m-378.013.528a15.97 6.95-164.1 0 0 13.455 11.06 15.97 6.95-164.1 0 0 17.263-2.31 15.97 6.95-164.1 0 0-13.455-11.06 15.97 6.95-164.1 0 0-17.263 2.31"/><path fill="#f8c867" d="M649.77 279.82q-10.1-2.4-16.72-7.83c-8.54-7-14.82-11.47-24.25-15.69-8.31-3.72-17.21-9.07-26.05-11.8q-8.06-2.49-14.74-5.04c-5.32-2.03-9.84-2.91-15.89-4.61-10.58-2.96-16.28-9.87-22.01-18.84q-1.22-1.92-4.8-3.21.03-4.29 1.82-7.98a.53.53 0 0 1 .95-.01c3.82 7.71 7.74 15.18 13.51 21.59q4.45 4.96 11.59 6.69c10.64 2.58 20.06 4.97 29.88 8.87 18.04 7.16 34.96 15.82 50.42 26.96 4.92 3.54 10.48 8.06 16.29 10.9"/><path fill="#efcc89" d="M411.8 242.97c-1.89-4.13-5.43-7.13-8.43-10.5-8.26-9.27-19.68-13.09-31.63-14.46q-11.49-1.32-21.81 3.63-4.9 2.4-7.98 6.38a1.05 1.04-51.8 0 1-1.47.18q-.19-.15-.04-.76 7.61-9.44 18.68-14.11c24.04-10.14 47.02 5.06 56.83 26.75a.73.72 64.6 0 1-.33.94zm271.19-17.35q-1.32.9-2.8-.4-1.96-1.74-2.32-1.97-4.03-2.55-5.27-2.91c-18.1-5.24-36.05-1.85-49.76 10.71q-5.74 5.26-10.39 11.64l-3.43-1.91a.64.64 0 0 1-.27-.83c5.94-13.13 17.8-25 31.75-28.46 16.12-3.98 31.41 1.82 42.49 14.13"/><path fill="#f4bc48" d="m411.8 242.97-11.06 6.99a.46.45 60.1 0 1-.65-.18q-1.06-2.08-4.14-7.19c-6.38-10.56-19.95-22.27-32.99-18.09q-5.98 1.92-9.12 7.46-.22.39.01.81.54 1.03 1.92.81c-.89 2.16-2.43 4.02-3.24 5.95q-.92 2.19-1.68 4.57.63-8.04 1.82-15.9.59-3.97-2.74-6.56 10.32-4.95 21.81-3.63c11.95 1.37 23.37 5.19 31.63 14.46 3 3.37 6.54 6.37 8.43 10.5m271.19-17.35 4.35 5.91-.06.89a.53.53 0 0 1-.53.5h-.69a.87.85-15.7 0 1-.73-.4q-1.79-2.78-6.36-5.3-5.92-3.26-9.44 2.35-8.46-8.64-20.1-4.88c-11.58 3.74-20.22 14.17-24.43 25.32a.52.52 0 0 1-.77.25l-11.78-7.57q4.65-6.38 10.39-11.64c13.71-12.56 31.66-15.95 49.76-10.71q1.24.36 5.27 2.91.36.23 2.32 1.97 1.48 1.3 2.8.4"/><path fill="#ee9734" d="M350.85 244.1q-2.82 8.83-1.69 17.15 1.17 8.59 4.34 14.78 1.45 2.83 7.02 11.95-6.41 3.65-12.05 9.47a.93.92-47.5 0 1-1.27.06c-12.02-10.32-18.58-25.1-17.81-40.92q.76-15.74 11.05-29.15-.15.61.04.76a1.05 1.04-51.8 0 0 1.47-.18q3.08-3.98 7.98-6.38 3.33 2.59 2.74 6.56-1.19 7.86-1.82 15.9m336.49-12.57q7.82 12.24 8.07 25.01.49 24.43-18.15 40.71a.98.97 48.5 0 1-1.38-.09q-5.33-6-12.48-9.64 3.73-3.78 6.19-8.24 12.28-22.28-.29-45.63 2.35-.15 1.82-1.77-.23-.7-1.59-2.31 3.52-5.61 9.44-2.35 4.57 2.52 6.36 5.3a.87.85-15.7 0 0 .73.4h.69a.53.53 0 0 0 .53-.5z"/><path fill="#f3b09c" d="m372.1 281.35-9 7.87q-.31-.87-.6-1.22-.53-.64-1.98-.02-5.57-9.12-7.02-11.95-3.17-6.19-4.34-14.78-1.13-8.32 1.69-17.15.76-2.38 1.68-4.57c.81-1.93 2.35-3.79 3.24-5.95q9.31-5.71 18.01-.11 11.89 7.66 16.91 23.32a.88.88 0 0 1-.29.96c-7.58 6.17-14.57 13.38-19.15 21.5q-.72 1.27.85 2.1"/><path fill="#efcc89" d="M486.65 230.99q-3.88 2.99-10.18 3.95-7.95 1.2-14.07 3.52-5.19 1.96-10.46 3.84c-10.05 3.58-19.75 8.63-28.11 14.53q-1.72 1.21-4.28 2.46-4.57 2.24-12.15 8.12-3.06 2.38-16.29 13.97-15.77 13.83-28.47 30.79c-10.21 13.31-19.65 29.3-27.65 43.36l-13.21-1.04a.17.17 0 0 1-.13-.26q14.4-24.1 31.2-46.12c3.61-4.73 10.22-13.47 10.25-18.89l9-7.87q5.16-2.13 8.29-4.45 17.08-12.64 29.85-19.94c18.97-10.83 40.01-19.28 61.52-23.47q5.37-1.04 14.89-2.5"/><path fill="#f3b09c" d="M669.3 233.65q12.57 23.35.29 45.63-2.46 4.46-6.19 8.24-2-.15-2.21 2.04-1.28-.74-2.14-1.85-.47-1.42-1.03-1.73-4.26-2.42-4.53-5.1-1.63-5.37-7.39-11.48-5.93-6.3-12.21-11.77a.6.59-59.1 0 1-.16-.66c3.96-10.16 10.72-21.15 20.84-25.17q7.95-3.16 14.73 1.85"/><ellipse fill="#efcc89" rx="8.41" ry="6.19" transform="rotate(-23.9 824.485 -973.842)"/><ellipse fill="#efcc89" rx="16.33" ry="9.26" transform="rotate(-33.6 659.988 -584.107)"/><path fill="#ee9734" d="M661.19 289.56c.65 4.43 3.53 8.23 6.3 12.34q2.8 4.16 14.07 19.41 11.57 15.66 21.19 32.24a.33.33 0 0 1-.27.49q-19.14.72-36.95 7.72-4.19 1.64-7.4 4.2-7.52-15.71-8.72-33.84-1.34-20.31 10.85-35.44a1.05 1.05 0 0 0 .22-.84l-1.43-8.13q.86 1.11 2.14 1.85m-300.72 72.95q-12.27-4.85-25.48-6.98c8-14.06 17.44-30.05 27.65-43.36 11.18 16.91 6.21 33.83-2.17 50.34"/><ellipse fill="#030202" rx="11.2" ry="7.41" transform="rotate(221.6 292.847 73.379)"/><ellipse fill="#030202" rx="11.11" ry="7.55" transform="rotate(-42.1 700.022 -568.798)"/><path fill="#030202" d="M578.636 342.578a33.51 27.8-94.8 0 1 30.507 31.066 33.51 27.8-94.8 0 1-24.899 35.719 33.51 27.8-94.8 0 1-30.507-31.067 33.51 27.8-94.8 0 1 24.899-35.719m-7.05 11.963a10.4 9.12-95.1 0 0-8.16 11.17 10.4 9.12-95.1 0 0 10.008 9.548 10.4 9.12-95.1 0 0 8.16-11.17 10.4 9.12-95.1 0 0-10.009-9.548M446.19 342.929a33.49 27.74-85.6 0 1 25.088 35.52 33.49 27.74-85.6 0 1-30.227 31.262 33.49 27.74-85.6 0 1-25.09-35.52 33.49 27.74-85.6 0 1 30.228-31.262m7.065 12.133a10.39 9.05-85.5 0 0-9.837 9.648 10.39 9.05-85.5 0 0 8.207 11.068 10.39 9.05-85.5 0 0 9.837-9.648 10.39 9.05-85.5 0 0-8.207-11.068"/><ellipse fill="#fdfdfd" rx="10.4" ry="9.12" transform="rotate(-95.1 453.147 -79.395)"/><ellipse fill="#fdfdfd" rx="10.39" ry="9.05" transform="rotate(-85.5 423.875 -62.013)"/><path fill="#efcc89" d="m765.29 391.95 4.19 8.39a3 2.95 35.1 0 1 .3 1.64l-.57 5.56q-2.51-4.15-7.91-9.08-16.63-15.21-34.51-23.02c-9.9-4.33-19.64-5.96-30.76-8.33a10.84 10.56-38.3 0 0-2.21-.23q-5.72.04-10.82-1.24 31.11-4.22 58.93 9.19 13.88 6.7 23.36 17.12m-401.87-23.29q-4.14 1.9-8.14 1.21-13.07-2.25-19.77-3.17-3.13-.43-9.49 1.57a2.86 1.87-27.1 0 1-.38.1q-17.21 3.27-23.85 5.9-22.22 8.8-40.74 27.05-3.79 3.73-5.7 8.19c-.94-4.61-.73-10.07 2.58-13.5q.57-.6.63-1.15.09-.85-.55-1.13c19.64-21.16 48.81-30.48 77.74-28.54q9.39.63 13.44 1.36 10.15 1.83 14.23 2.11"/><ellipse fill="#fdf0cc" rx="16.08" ry="6.94" transform="rotate(-16.3 1708.178 -2199.264)"/><ellipse fill="#fdf0cc" rx="15.97" ry="6.95" transform="rotate(195.9 196.681 172.06)"/><path fill="#fdf0cc" d="M765.29 391.95c18.14 18.59 27.76 41.93 31.27 67.29q2.1 15.21.25 29.04-5.05 9.61-10.32 18.11-3 4.84-6.08 8.26-2.83 3.13-6.73 7.78c-9.21 10.96-20.54 19.43-33.42 26.97-29.82 17.47-64.61 23.85-99.26 19.81q-8.6-1-22.34-3.51-8.39-1.53-16.18-4.02-6.41-2.05-16.03-4.73-.11-.03-4.05-1.39-3.53-1.22-7.29-.97-8.21-4.59-17.58-6.05c-17.72-2.76-33.68 4.04-44.72 18.25a.43.42-43.9 0 1-.68-.01c-10.21-14-26.49-20.62-43.65-18.37q-4.88.64-13.74 3.33-8.03 2.11-15.81 4.75-9.06 3.08-13.7 4.1-7.42 1.64-13.77 3.7c-3.49 1.13-7.26 1.74-11.72 2.67q-6.15 1.29-20.11 2.48-12.47 1.07-20.27.84c-26.41-.77-53.78-7.94-76.83-21.84q-12.99-7.83-23.19-17.02-3.01-2.71-13.23-14.01-4.5-4.97-8.2-11.15-5.09-8.49-6.84-12.07-1.85-3.76-2.74-4.95c-3.35-33.91 6.37-70.04 29.68-95.51q.64.28.55 1.13-.06.55-.63 1.15c-3.31 3.43-3.52 8.89-2.58 13.5q-.33 10.73 2.23 21.67c5.02 21.45 19.12 39.39 37.44 51.17 32.43 21.5 74.18 22.53 109.08 6.75q21.36-9.65 37.16-25.15l20.09-3.15a1.09 1.09 0 0 0 .42-2c-3.16-2-9.93-1.63-13.84-1.63l8.97-9.53 7.32 2.53a.69.68 74.6 0 0 .66-1.17l-5.42-4.62q5.18-6.15 10.45-12.46 3.37-4.04 10.88-10.36c16.08-13.53 43.22-14.27 60.15-1.9 5.79 4.23 10.44 8.9 15.96 15.27q3.8 4.38 7.57 8.51-1.96 1.69-4.5 3.78-.97.79-1.05 1.8a.61.61 0 0 0 .82.62l7.65-2.81q2.62 5.21 8.28 9.51l-13.3 1.19a.94.94 0 0 0-.47 1.69q1.21.89 3.22 1.17 8.54 1.21 15.87 2.43 8.25 8.03 11.99 10.69 17.32 12.33 34.58 18.58 33.13 12 68.12 4.88c11.29-2.3 22.6-7.4 32.67-13.38q15.64-9.81 26.36-24.61c11.26-15.54 15.44-32.32 14.5-51.44l.57-5.56a3 2.95 35.1 0 0-.3-1.64zM491.5 432.63q-1.05-.33-1.43.48c-.67 1.4-.41 3.45.27 4.97 3.26 7.26 9.5 11.64 16.72 14.86a.82.81-78.6 0 1 .49.75q-.03 9.64-.17 13.88c-.3 9.29-14.29 13.24-19.87 5.94-1.79-2.36-2.62-5.31-6.35-3.75q-1.17.49-1.44 1.85c-.89 4.51 2.62 9.34 6.1 11.82 8.57 6.11 18.61 3.79 26.19-3.02a.6.6 0 0 1 .81 0c6.66 5.88 15.93 8.9 24.14 4.43q5.68-3.1 7.81-8.96.95-2.61.35-4.15c-1.12-2.89-5.03-2.66-6.41-.36q-5.2 8.64-14.23 5.25-4.62-1.74-6.95-6.21a3.36 3.22-60.6 0 1-.37-1.44l-.36-15.18a.84.83 77.9 0 1 .5-.78c7.54-3.24 16.97-9.06 17.65-18.25q.11-1.51-1.45-2.88-.68-2.18-3.57-3.84c-7.46-4.28-19.15-4.08-27.13-2.22q-6.07 1.42-10.69 5.17a1.41 1.38-15.9 0 0-.49.86z"/><path fill="#f3b09c" d="M533.5 431.88q-6.5 7.72-15.25 12.17-5.76 2.92-11.47-.03c-5.98-3.09-9.7-6.38-15.28-11.39l.12-.78a1.41 1.38-15.9 0 1 .49-.86q4.62-3.75 10.69-5.17c7.98-1.86 19.67-2.06 27.13 2.22q2.89 1.66 3.57 3.84m-35.69-.375a5.37 3.34-179.2 0 0 5.323 3.415 5.37 3.34-179.2 0 0 5.417-3.265 5.37 3.34-179.2 0 0-5.323-3.415 5.37 3.34-179.2 0 0-5.416 3.265"/><ellipse fill="#fdfdfd" rx="5.37" ry="3.34" transform="rotate(180.8 253.097 214.034)"/><path fill="#030202" d="m567.39 446.83-7.65 2.81a.61.61 0 0 1-.82-.62q.08-1.01 1.05-1.8 2.54-2.09 4.5-3.78 27.28-16.31 58.44-12.54a.11.1-15 0 1 .09.05l.21.31a.44.44 0 0 1-.29.69q-28.32 4.47-55.53 14.88m-107.93-2.45 5.42 4.62a.69.68 74.6 0 1-.66 1.17l-7.32-2.53q-26.99-10.31-55.6-14.95a.4.39-88.2 0 1-.32-.35q-.05-.73.93-.84 30.9-3.52 57.55 12.88m74.04-12.5q1.56 1.37 1.45 2.88c-.68 9.19-10.11 15.01-17.65 18.25a.84.83 77.9 0 0-.5.78l.36 15.18a3.36 3.22-60.6 0 0 .37 1.44q2.33 4.47 6.95 6.21 9.03 3.39 14.23-5.25c1.38-2.3 5.29-2.53 6.41.36q.6 1.54-.35 4.15-2.13 5.86-7.81 8.96c-8.21 4.47-17.48 1.45-24.14-4.43a.6.6 0 0 0-.81 0c-7.58 6.81-17.62 9.13-26.19 3.02-3.48-2.48-6.99-7.31-6.1-11.82q.27-1.36 1.44-1.85c3.73-1.56 4.56 1.39 6.35 3.75 5.58 7.3 19.57 3.35 19.87-5.94q.14-4.24.17-13.88a.82.81-78.6 0 0-.49-.75c-7.22-3.22-13.46-7.6-16.72-14.86-.68-1.52-.94-3.57-.27-4.97q.38-.81 1.43-.48c5.58 5.01 9.3 8.3 15.28 11.39q5.71 2.95 11.47.03 8.75-4.45 15.25-12.17"/><path fill="#f8c867" d="M728.35 483.59c-10.07 5.98-21.38 11.08-32.67 13.38q-34.99 7.12-68.12-4.88-17.26-6.25-34.58-18.58-3.74-2.66-11.99-10.69 23.59 3.82 45.27 9.69a.36.36 0 0 0 .28-.65q-12.65-7.91-26.29-11.59 10.03-6.98 20.63-12.84c24.74-13.7 50.3-11.43 73.14 4.15 12.96 8.83 24.04 20.41 34.33 32.01m-312.78-20q-9.32 3.7-17.89 9.17a.41.4 20.8 0 0 .33.73q16.68-4.63 33.92-8.09 4.07-.81 9.33-1.45-15.8 15.5-37.16 25.15c-34.9 15.78-76.65 14.75-109.08-6.75 10.79-12.93 21.87-24.73 36.23-33.27 20.72-12.32 45.88-12.32 66.31.6q9 5.69 18.01 13.91"/><path fill="#030202" d="M575.67 456.34q11.88.6 24.58 3.93 13.64 3.68 26.29 11.59a.36.36 0 0 1-.28.65q-21.68-5.87-45.27-9.69-7.33-1.22-15.87-2.43-2.01-.28-3.22-1.17a.94.94 0 0 1 .47-1.69zm-127.74.83c3.91 0 10.68-.37 13.84 1.63a1.09 1.09 0 0 1-.42 2l-20.09 3.15q-5.26.64-9.33 1.45-17.24 3.46-33.92 8.09a.41.4 20.8 0 1-.33-.73q8.57-5.47 17.89-9.17 16.16-5.63 32.36-6.42"/><path fill="#efcc89" d="M796.81 488.28q-1.76 22.64-12.43 41.59c-21.67 38.48-64.54 58.27-107.9 57.07q-42.67-1.19-82.19-21.74-12.66-6.59-19.18-10.61 3.76-.25 7.29.97 3.94 1.36 4.05 1.39 9.62 2.68 16.03 4.73 7.79 2.49 16.18 4.02 13.74 2.51 22.34 3.51c34.65 4.04 69.44-2.34 99.26-19.81 12.88-7.54 24.21-16.01 33.42-26.97q3.9-4.65 6.73-7.78 3.08-3.42 6.08-8.26 5.27-8.5 10.32-18.11m-342.07 63.46q-11.03 6.47-27.8 14.94-31.05 15.68-64.19 19.32-21.12 2.32-38.95-.59c-25.34-4.15-48.03-14.96-66.37-32.86-16.78-16.37-26.95-40.42-29.1-63.31q.89 1.19 2.74 4.95 1.75 3.58 6.84 12.07 3.7 6.18 8.2 11.15 10.22 11.3 13.23 14.01 10.2 9.19 23.19 17.02c23.05 13.9 50.42 21.07 76.83 21.84q7.8.23 20.27-.84 13.96-1.19 20.11-2.48c4.46-.93 8.23-1.54 11.72-2.67q6.35-2.06 13.77-3.7 4.64-1.02 13.7-4.1 7.78-2.64 15.81-4.75"/><path fill="#f3b09c" d="M504.52 573.54q-3.28-1.3-6.16-4.25a3.74 3.59 79.2 0 0-1.07-.76q-5.61-2.68-9.78-3.08-2.86-.27-14.36.11c-10.1.33-22.24 9.66-25.51 19.12-1.88 5.42-1.63 11.27-1.6 16.88q-4.33-.63-4.76-3.08-2.08-12.07 3.38-22.59c8.02-15.44 29.16-21.83 44.63-14.42q9.68 4.63 15.23 12.07m69.9-5.31q-.17 1.18-.62.94c-11.97-6.51-25.21-6.27-37.72-2.4a8.39 8.25-69.8 0 0-2.14 1.01l-16.9 11.17c6.94-11.75 19.7-20.81 33.71-20.44q14.08.38 23.67 9.72"/><path fill="#f63d2c" d="M574.42 568.23q6.8 7.83 8.92 16.17 1.84 7.2.22 14.63a1.97 1.97 0 0 1-1.31 1.45q-14.43 4.74-20.94 6.99-4.54 1.57-9.2 2.8c-8.27 2.19-19.72 4.24-20.75 14.48a2.79 2.76-29.2 0 1-.28.97q-.35.7-1.99 2.62c-3.37 3.94-3.73 8.98-.84 13.24q1.01 1.5 1.76 2.83a4.72 4.6 25 0 1 .53 1.4c1.71 8.53 9.02 12.95 16.87 15.03a.35.35 0 0 1 .16.59c-7.09 7.15-17.09 13.21-25.02 17.88q-4.81 2.83-9 4.41a3.69 3.67-45.1 0 1-2.56.01q-3.95-1.44-8.86-4.38c-9.86-5.9-16.97-10.36-24.32-17.25a.57.57 0 0 1 .25-.97c7.22-1.78 15.67-6.95 16.56-15.05a3.46 3.36-27.9 0 1 .4-1.23q.7-1.28 1.96-3.1c3.98-5.79 1.54-10.06-2.1-14.89a4.63 4.6 21.3 0 1-.86-1.94c-.69-3.71-2.23-6.74-5.64-8.79q-3.8-2.28-7.21-3.18-18.01-4.74-35.13-11.39c-.03-5.61-.28-11.46 1.6-16.88 3.27-9.46 15.41-18.79 25.51-19.12q11.5-.38 14.36-.11 4.17.4 9.78 3.08a3.74 3.59 79.2 0 1 1.07.76q2.88 2.95 6.16 4.25 1.82 2.41 6.04 8.88 1.02 1.58 2.33 1.18.85-.26 2.02-1.89 1.1-1.54 2.13-2.76l16.9-11.17a8.39 8.25-69.8 0 1 2.14-1.01c12.51-3.87 25.75-4.11 37.72 2.4q.45.24.62-.94m-116.1 7.47q-4.61 3.99-4.66 10.81-.02 2.53 1.94 3.64c3.35 1.89 8.32-2.92 10.83-5.09 2.5-2.16 7.98-6.4 6.58-9.99q-.81-2.09-3.32-2.44-6.75-.93-11.37 3.07m25.2 1.12a3.36 3.36 0 0 0-3.36-3.36 3.36 3.36 0 0 0-3.36 3.36 3.36 3.36 0 0 0 3.36 3.36 3.36 3.36 0 0 0 3.36-3.36"/><path fill="#ee9734" d="M421.79 579.02q.65 2.38-2.29 5.19l-3.66 2.19q-14.24 8.92-30.86 15.08c-39.84 14.78-84.79 14.24-122.72-6.26l-10.13-6.37 3.34-19.68a.64.63-65.5 0 1 1.03-.39c27.04 22.38 62.43 31.92 97.5 29.18q36.15-2.83 67.79-18.94m351.14 9.69q-.81.4-2.78 2.19-.54.5-3.41 2.1c-16.86 9.45-36.64 16.07-56.36 17.85q-34.72 3.14-67.09-7.76c-7.94-2.68-17.81-7.42-25.32-10.82q-3.35-1.52-12.95-7.78l.21-4.13q10.18 4.73 14.91 6.47 24.68 9.07 51.57 11.01 54.66 3.94 97.14-29.12a.46.45 66.3 0 1 .73.29z"/><path fill="#efcc89" d="m416.83 591.76 2.67-7.55q2.94-2.81 2.29-5.19l11.98-6.55a.33.33 0 0 1 .46.44q-5.13 10.28-4.56 21.67a.41.41 0 0 1-.55.4q-4.85-1.83-9.07-3.07-.93-.27-3.22-.15m188.4-11.4-.21 4.13-1.32 7.44-7.67 2.62a.55.54 80 0 1-.72-.51q-.04-11.13-4.71-21.48a.16.16 0 0 1 .22-.2z"/><path fill="#f3b09c" d="M466.43 585.06c-2.51 2.17-7.48 6.98-10.83 5.09q-1.96-1.11-1.94-3.64.05-6.82 4.66-10.81 4.62-4 11.37-3.07 2.51.35 3.32 2.44c1.4 3.59-4.08 7.83-6.58 9.99"/><circle cx="480.16" cy="576.82" r="3.36" fill="#f3b09c"/><path fill="#f8c867" d="m419.5 584.21-2.67 7.55q1.79 2.51 2.81 3.34 14.39 11.74 31.72 18.82c-4.61 6.09-8.64 14.6-8.39 22.34q.13 3.97.29 5.26 1.12 9.37 7.79 15.18-17.93 2.75-25.05 3.11-25.21 1.28-49.07-7.78c9.39-.68 15.78-3.08 19.92-12.14s6.09-14.74 10.64-22.39q1.76-2.95 5.86-10.26c3.54-6.3 3.61-13.53 2.49-20.84z"/><path fill="#f4bc48" d="M772.93 588.71q4.77 34.33-.33 68.3c-1.69 4.83-2.74 9.75-4.85 14.26q-3.29 7.03-4.67 9.33-7.64 12.76-16.36 24.86-8.11 11.23-22.12 23.72-2.29-11.36 5.23-20.69a1.6 1.6 0 0 0 .35-.87q.22-2.85-.95-5.19-1.95-4.01-5.72-2.36-10.77-12.99-18.32-20.42c-14.81-14.58-34.85-19.3-54.08-22.89 1.89-1.65 6.45-5.67 6.77-8.09a.69.68 82.9 0 0-.93-.73l-6.93 2.76q-16.28-4.57-24.48-18.78c-8.07-13.99-13.72-23.1-22.51-35.21l4.22-3.95a.73.72-59.2 0 0-.31-1.23q-1.23-.31-3.24.4l1.32-7.44q9.6 6.26 12.95 7.78c7.51 3.4 17.38 8.14 25.32 10.82q32.37 10.9 67.09 7.76c19.72-1.78 39.5-8.4 56.36-17.85q2.87-1.6 3.41-2.1 1.97-1.79 2.78-2.19m-23.6 49.962a10.1 5.02-79.1 0 0-6.84 8.969 10.1 5.02-79.1 0 0 3.02 10.867 10.1 5.02-79.1 0 0 6.84-8.969 10.1 5.02-79.1 0 0-3.02-10.867m-8.811 31.73a9.64 4.94-69.8 0 0-7.965 7.342 9.64 4.94-69.8 0 0 1.307 10.753 9.64 4.94-69.8 0 0 7.965-7.341 9.64 4.94-69.8 0 0-1.307-10.753M415.84 586.4c1.12 7.31 1.05 14.54-2.49 20.84q-4.1 7.31-5.86 10.26c-4.55 7.65-6.5 13.33-10.64 22.39s-10.53 11.46-19.92 12.14l-9.53-3.76a.83.83 0 0 0-.96 1.28l3.32 4.26q-13.67 2.69-23.75 6.88c-21.39 8.91-31.14 27.32-37.73 48.44-1.36-3.68-7.32-12.57-11.81-8.2-1.24 1.21-1.11 3.28-.65 4.8q2.79 9.24 10.77 10.21-.15 7.8-3.5 16.1c-3.96-3.48-8.5-7.33-11.69-10.95-4.11-4.64-7.46-7.73-10.87-12.2-5.17-6.78-9.54-13.42-14.97-21.69q-1.84-2.8-3.81-7c-1.88-3.97-3.56-8.14-7.02-10.65l-.24-2.21q1.05-2.72.83-5.64-2.66-33.82 6.94-66.48c37.93 20.5 82.88 21.04 122.72 6.26q16.62-6.16 30.86-15.08m-140.196 52.23a10.12 4.92-100.8 0 0-2.937 10.862 10.12 4.92-100.8 0 0 6.73 9.019 10.12 4.92-100.8 0 0 2.936-10.863 10.12 4.92-100.8 0 0-6.73-9.019m8.5 31.78a9.61 4.95-110.7 0 0-1.234 10.74 9.61 4.95-110.7 0 0 8.027 7.24 9.61 4.95-110.7 0 0 1.233-10.74 9.61 4.95-110.7 0 0-8.027-7.24"/><path fill="#efcc89" d="M262.26 595.22q-9.6 32.66-6.94 66.48.22 2.92-.83 5.64-2.95-12.86-3.91-27.84-1.69-26.04 1.55-50.65z"/><path fill="#f8c867" d="M603.03 596.71c8.79 12.11 14.44 21.22 22.51 35.21q8.2 14.21 24.48 18.78c-10.34 4.48-21.4 7.07-32.54 8.44q-10.79 1.33-21.72.26-12.54-1.24-24.97-3.27l3.77-.26a1.18 1.14 16.3 0 0 .82-.43q2.95-3.62 4.49-9.12 4.19-14.92-3.69-27.7c-.9-1.46-2.43-3.08-3.45-4.86q16.48-6.29 30.3-17.05"/><path fill="#fdfdfd" d="M451.05 656.7q-6.67-5.81-7.79-15.18-.16-1.29-.29-5.26c-.25-7.74 3.78-16.25 8.39-22.34q11.71 3.31 23.78 5.97 4.86 1.07 8.31 3.81a.69.69 0 0 1-.34 1.23q-7.05.9-13.24 3.51a.88.87 44.4 0 0 .02 1.62q2.14.87 4.32 1.01c4.1.27 12.37.31 15.61 2.85a1.18 1.18 0 0 1-.02 1.86c-5.43 4.14-13.49 3.2-19.46 6.26a.73.72 46.6 0 0-.03 1.27c3.98 2.33 9.26 1.87 13.93 1.78a.85.85 0 0 1 .67 1.38c-4.27 5.3-11.66 7.1-18.36 8.06q-7.22 1.04-15.5 2.17m121.68-42.94c1.02 1.78 2.55 3.4 3.45 4.86q7.88 12.78 3.69 27.7-1.54 5.5-4.49 9.12a1.18 1.14 16.3 0 1-.82.43l-3.77.26q-10.7-1.3-21.1-3.89c-3.08-.77-8.23-2.9-9.33-6.37a.6.6 0 0 1 .59-.78c5.11.15 10.41.37 14.49-1.83a.75.75 0 0 0-.02-1.33q-1.82-.91-2.96-1.14-6.74-1.32-13.24-2.94-2.15-.54-3.36-1.55a1.67 1.67 0 0 1 .28-2.75q2.68-1.44 6.02-1.65 7.52-.46 13.19-1.82a.78.78 0 0 0 .28-1.38c-3.37-2.49-9.2-3.21-13.52-3.56a.72.72 0 0 1-.4-1.27q4.22-3.52 10.29-4.84 10.52-2.29 20.73-5.27"/><ellipse fill="#030202" rx="10.12" ry="4.92" transform="rotate(259.2 407.042 209.484)"/><ellipse fill="#030202" rx="10.1" ry="5.02" transform="rotate(-79.1 766.413 -128.246)"/><path fill="#f8c867" d="m369.76 653.81 4.54 4.31q4.31 9.21 12.71 15.36.53.39 1.74.78l.07 1.79q-1.98 8.15-2.17 14.2-.68 20.96 4.56 45.12-3.57-4.47-6.09-7.5-5.46-6.53-13.36-3.84a1.31 1.28 51.2 0 1-1.09-.13c-1.2-.74-2.87-2.14-4.15-2.5q-7.25-2.1-12.09 3.29-.59.66-2.38 4.01a.89.88-75.9 0 1-.78.47c-13.09.03-13.26 19.01-12.52 27.77q-.4.21-.74.26a.69.69 0 0 1-.77-.53q-.27-1.23-.95-1.65-6.91-4.3-18.31-10.98-5.6-3.28-14.89-12 3.35-8.3 3.5-16.1 3.35-2.64 1.69-6.81c6.59-21.12 16.34-39.53 37.73-48.44q10.08-4.19 23.75-6.88m281.35 2.95c19.23 3.59 39.27 8.31 54.08 22.89q7.55 7.43 18.32 20.42-5.52 3.51-7.45 9.96c-1.32 4.38 2.5 7.56 6.23 4.79q6.55-4.86 6.94-12.39 1.17 2.34.95 5.19a1.6 1.6 0 0 1-.35.87q-7.52 9.33-5.23 20.69-11.07 10.21-20.02 16.17-6.55 4.35-18.62 10.29c.5-8.81-.12-25.98-12.48-26.39a1.15 1.14 73 0 1-.89-.48l-3.58-5.06a1.68 1.64-89.3 0 0-.42-.44c-4.25-3.06-9.51-3.43-13.77-.32q-.73.53-1.22.74a1.5 1.5 0 0 1-1.05.03c-8.54-2.81-13.16 2.73-18.2 9.44q.96-9.59 1.98-18.91 1.28-11.65 1.22-17.55-.1-8.79-1.53-17.52-.31-1.91-1.02-4.13l.28-1.28q1.17.28 2.71-1.04 3.3-2.86 4.75-4.97a4.37 4.16 88.6 0 1 .77-.85q4.31-3.59 5.74-8.64z"/><path fill="#ee9734" d="M772.6 657.01q-2.01 14.27-5.79 26.04c-3.05 9.51-7.75 21.67-12.72 30.64q-12.63 22.79-28.19 38.24-15 14.92-33.67 26.54-6.49 4.04-12.32 6.92a.27.26-4 0 1-.37-.32q4.94-15.17 6.42-29.43 12.07-5.94 18.62-10.29 8.95-5.96 20.02-16.17 14.01-12.49 22.12-23.72 8.72-12.1 16.36-24.86 1.38-2.3 4.67-9.33c2.11-4.51 3.16-9.43 4.85-14.26m-381.8 9.29q.26 3.95-2.05 7.96-1.21-.39-1.74-.78-8.4-6.15-12.71-15.36zm258.45-8.03q-1.43 5.05-5.74 8.64a4.37 4.16 88.6 0 0-.77.85q-1.45 2.11-4.75 4.97-1.54 1.32-2.71 1.04l-2.37-7.36q7.91-2.91 16.34-8.14"/><path fill="#efcc89" d="m632.91 666.41 2.37 7.36-.28 1.28q-10.32 4.64-15.71 6.5-9.7 3.36-23.03 3.47-15.73.13-31.81-3.94-3.8-.96-6.9 1.44-8.49 6.57-9.31 7.21-12.45 9.76-25.75 14.99c-8.73 3.44-16.7 1.69-24.95-2.26q-16.73-8.01-29.62-19.89-2.69-2.48-6.45-1.44-21.68 6.02-44.65 3.21c-9.82-1.2-17.47-4.7-26.79-8.92q-.87-.39-1.21.63l-.07-1.79q2.31-4.01 2.05-7.96c23.54 7.41 48.75 4.87 72.26-1.98a1.76 1.76 0 0 1 1.76.46q17.61 17.97 42.03 27.39c5.81 2.24 8.27 1.55 14.3-1.04 14.73-6.32 28.43-15.08 39.05-26.62a1.18 1.17-61.1 0 1 1.16-.34c23.47 6.18 47.75 9.73 71.55 2.24"/><path fill="#ee9734" d="M303.09 732.04q9.29 8.72 14.89 12 11.4 6.68 18.31 10.98.68.42.95 1.65a.69.69 0 0 0 .77.53q.34-.05.74-.26 1.67 14.6 6.43 28.59a.23.22-86.7 0 1-.31.28q-14.17-6.77-29.39-18.53c-31.38-24.25-52.37-59.03-60.75-97.73 3.46 2.51 5.14 6.68 7.02 10.65q1.97 4.2 3.81 7c5.43 8.27 9.8 14.91 14.97 21.69 3.41 4.47 6.76 7.56 10.87 12.2 3.19 3.62 7.73 7.47 11.69 10.95"/><ellipse fill="#030202" rx="9.61" ry="4.95" transform="rotate(249.3 378.551 240.334)"/><ellipse fill="#030202" rx="9.64" ry="4.94" transform="rotate(-69.8 855.58 -188.644)"/><path fill="#fdf0cc" d="M635 675.05q.71 2.22 1.02 4.13 1.43 8.73 1.53 17.52.06 5.9-1.22 17.55-1.02 9.32-1.98 18.91-7.57 13.48-11.74 28.1-1.91 1.27-3.15 3.35-2.05 3.42-2.43 3.89-3.89 4.79-6.24 7.22a2.41 2.34-74.8 0 1-1.06.63q-3.74 1-5.22 1.26-34.27 6.04-70.01 4.49-20.21-.88-27-.55-17.91.86-39.5.62-27.03-.29-52.85-5.59a1.95 1.92-20.1 0 1-.81-.37l-1.72-1.27q-5.18-5.28-8.87-11.72a1.15 1.14-7.6 0 0-.71-.54l-1.2-.29q-4.38-14.54-10.63-27.02-5.24-24.16-4.56-45.12.19-6.05 2.17-14.2.34-1.02 1.21-.63c9.32 4.22 16.97 7.72 26.79 8.92q22.97 2.81 44.65-3.21 3.76-1.04 6.45 1.44 12.89 11.88 29.62 19.89c8.25 3.95 16.22 5.7 24.95 2.26q13.3-5.23 25.75-14.99.82-.64 9.31-7.21 3.1-2.4 6.9-1.44 16.08 4.07 31.81 3.94 13.33-.11 23.03-3.47 5.39-1.86 15.71-6.5"/><path fill="#030202" d="M729.23 702.43q-.39 7.53-6.94 12.39c-3.73 2.77-7.55-.41-6.23-4.79q1.93-6.45 7.45-9.96 3.77-1.65 5.72 2.36m-420.95 6.7q1.66 4.17-1.69 6.81-7.98-.97-10.77-10.21c-.46-1.52-.59-3.59.65-4.8 4.49-4.37 10.45 4.52 11.81 8.2"/><path fill="#fdf0cc" d="M396.79 791.39q-1.04.96-4.17 4.98c-4.06 5.2-10.64 7.12-17.24 5.48-4.33-1.08-7.35-1.63-10.53-4.24a.82.82 0 0 0-.89-.1l-1.23.62c-9.06-14.16-14.11-32.56-14.95-48.89q-.25-4.85 1.11-9.82a1.36 1.36 0 0 1 2.52-.27c3.17 6.13 5.02 10.54 7.37 12.86a.99.99 0 0 0 1.65-.45c.7-2.66-.16-7.5-.72-14.04q-.29-3.41 1.06-6.06a2.08 2.08 0 0 1 3.22-.62q1.78 1.55 3.14 4.54c1.81 3.96 4.13 10.32 7.13 13.18a.82.82 0 0 0 1.39-.6v-13.75a1.07 1.07 0 0 1 1.76-.82c3.95 3.3 6.7 9.57 8.71 14.48q7.09 17.34 10.06 37.39.46 3.14.61 6.13m263.87 7.89q-1.27-.45-2.42-.43a1.7 1.53 29.7 0 0-.69.15c-6.63 2.99-15.16 5.29-21.52 1.7q-1.48-.83-4.31-4.16-1.98-2.32-4.21-4.33c.56-15.66 5.52-31.96 11.52-46.42 1.6-3.84 4.58-10.6 8.07-12.97a.87.86-19.2 0 1 1.35.65c.34 4.76-.78 10.09.3 14.87a.69.69 0 0 0 1.16.33c3.76-3.82 5.82-10.09 8.08-14.89q1.08-2.28 2.91-3.28a2.25 1.95 64.3 0 1 2.86 1.24q1.13 2.62.81 6.03-.75 8.11-.83 13.25a1.06 1.06 0 0 0 1.75.81c3.3-2.88 5.59-8.42 7.64-12.55a1.45 1.44 50.1 0 1 2.68.24q1.19 4.08.94 9.49-1.26 27.27-16.09 50.27"/><path fill="#efcc89" d="m622.61 761.26-2.72 13.27q-3.91 2.17-8.08 2.77a2.2 2.17 19.6 0 0-1.09.51q-7.2 6.32-8.98 8.18-9.18 9.65-18.68 14.07-.22.1-.38.51a.42.42 0 0 1-.43.26q-2.36-.22-3.52.89-28.35 1.02-57.14-.29-9.17-.42-18.2-.04-28.05 1.16-56.11.42-2.79-.07-5.58-.44-2.78-2.32-6.16-3.97a7.5 7.26 76.2 0 1-1.21-.76c-4.76-3.74-8.73-6.91-13.28-11.87q-3.32-3.62-6.86-7.07l-1.57-2.76 1.72 1.27a1.95 1.92-20.1 0 0 .81.37q25.82 5.3 52.85 5.59 21.59.24 39.5-.62 6.79-.33 27 .55 35.74 1.55 70.01-4.49 1.48-.26 5.22-1.26a2.41 2.34-74.8 0 0 1.06-.63q2.35-2.43 6.24-7.22.38-.47 2.43-3.89 1.24-2.08 3.15-3.35"/><path fill="#f8c867" d="m412.62 774.94 1.57 2.76q-4.21-1.56-9.16-1.11l-3.19-14.2 1.2.29a1.15 1.14-7.6 0 1 .71.54q3.69 6.44 8.87 11.72"/><path fill="#ee9734" d="M619.89 774.53q-2.47 11.09-2.49 22.13a.61.6-5.9 0 1-.49.59q-8.59 1.67-17.16 2.66-10.21 1.18-21.02 1.81 1.16-1.11 3.52-.89a.42.42 0 0 0 .43-.26q.16-.41.38-.51 9.5-4.42 18.68-14.07 1.78-1.86 8.98-8.18a2.2 2.17 19.6 0 1 1.09-.51q4.17-.6 8.08-2.77m-205.7 3.17q3.54 3.45 6.86 7.07c4.55 4.96 8.52 8.13 13.28 11.87a7.5 7.26 76.2 0 0 1.21.76q3.38 1.65 6.16 3.97-16.76-.68-33.97-3.96a.96.95 5.8 0 1-.78-.95q.11-9.94-1.92-19.87 4.95-.45 9.16 1.11"/><path fill="#efcc89" d="M396.79 791.39c.72 7.62-.48 15.92-7.08 20.58-10.26 7.24-22.49-6.08-26.98-13.84l1.23-.62a.82.82 0 0 1 .89.1c3.18 2.61 6.2 3.16 10.53 4.24 6.6 1.64 13.18-.28 17.24-5.48q3.13-4.02 4.17-4.98m263.87 7.89q-3.78 6.09-10.8 11.54c-9.79 7.6-20 1.35-21.7-9.69q-.79-5.12-.65-8.92 2.23 2.01 4.21 4.33 2.83 3.33 4.31 4.16c6.36 3.59 14.89 1.29 21.52-1.7a1.7 1.53 29.7 0 1 .69-.15q1.15-.02 2.42.43"/></svg>